<?xml version="1.0" encoding="UTF-8" standalone="no"?>
<!DOCTYPE svg PUBLIC "-//W3C//DTD SVG 1.1//EN"
 "http://www.w3.org/Graphics/SVG/1.1/DTD/svg11.dtd">
<!-- Generated by graphviz version 13.1.0 (20250701.0955)
 -->
<!-- Title: src/app.h Pages: 1 -->
<!--zoomable 260 -->

<svg id="main" version="1.1" xmlns="http://www.w3.org/2000/svg" xmlns:xlink="http://www.w3.org/1999/xlink" xml:space="preserve" onload="init(evt)">

<style type="text/css"><![CDATA[
.node, .edge {opacity: 0.7;}
.node.selected, .edge.selected {opacity: 1;}
.edge:hover path { stroke: red; }
.edge:hover polygon { stroke: red; fill: red; }
]]></style>

<defs>
  <circle id="rim" cx="0" cy="0" r="7"/>
  <circle id="rim2" cx="0" cy="0" r="3.5"/>
  <g id="zoomPlus">
    <use xlink:href="#rim" fill="#404040"><set attributeName="fill" to="#808080" begin="zoomplus.mouseover" end="zoomplus.mouseout"/></use>
    <path d="M-4,0h8M0,-4v8" fill="none" stroke="white" stroke-width="1.5" pointer-events="none"/>
  </g>
  <g id="zoomMin">
    <use xlink:href="#rim" fill="#404040"><set attributeName="fill" to="#808080" begin="zoomminus.mouseover" end="zoomminus.mouseout"/></use>
    <path d="M-4,0h8" fill="none" stroke="white" stroke-width="1.5" pointer-events="none"/>
  </g>
  <g id="arrowUp" transform="translate(30 24)">
    <use xlink:href="#rim"/>
    <path pointer-events="none" fill="none" stroke="white" stroke-width="1.5" d="M0,-3.0v7 M-2.5,-0.5L0,-3.0L2.5,-0.5"/>
  </g>
  <g id="arrowRight" transform="rotate(90) translate(36 -43)">
    <use xlink:href="#rim"/>
    <path pointer-events="none" fill="none" stroke="white" stroke-width="1.5" d="M0,-3.0v7 M-2.5,-0.5L0,-3.0L2.5,-0.5"/>
  </g>
  <g id="arrowDown" transform="rotate(180) translate(-30 -48)">
    <use xlink:href="#rim"/>
    <path pointer-events="none" fill="none" stroke="white" stroke-width="1.5" d="M0,-3.0v7 M-2.5,-0.5L0,-3.0L2.5,-0.5"/>
  </g>
  <g id="arrowLeft" transform="rotate(270) translate(-36 17)">
    <use xlink:href="#rim"/>
    <path pointer-events="none" fill="none" stroke="white" stroke-width="1.5" d="M0,-3.0v7 M-2.5,-0.5L0,-3.0L2.5,-0.5"/>
  </g>
  <g id="resetDef">
    <use xlink:href="#rim2" fill="#404040"><set attributeName="fill" to="#808080" begin="reset.mouseover" end="reset.mouseout"/></use>
  </g>
</defs>
<script type="application/ecmascript">
var viewWidth = 1336;
var viewHeight = 260;
var sectionId = 'dynsection-1';
</script>
<script type="application/ecmascript" xlink:href="svg.min.js"/>
<svg id="graph" class="graph">
<g id="viewport">
<title>src/app.h</title>
<!-- Node1 -->
<g id="Node000001" class="node">
<title>Node1</title>
<g id="a_Node000001"><a xlink:title=" ">
<polygon fill="#999999" stroke="#666666" points="817.88,-251.5 761.38,-251.5 761.38,-232.25 817.88,-232.25 817.88,-251.5"/>
<text xml:space="preserve" text-anchor="middle" x="789.62" y="-238" font-family="Helvetica,sans-Serif" font-size="10.00">src/app.h</text>
</a>
</g>
</g>
<!-- Node2 -->
<g id="Node000002" class="node">
<title>Node2</title>
<g id="a_Node000002"><a xlink:href="main_8c.html" target="_top" xlink:title=" ">
<polygon fill="white" stroke="#666666" points="45.25,-190.62 0,-190.62 0,-171.38 45.25,-171.38 45.25,-190.62"/>
<text xml:space="preserve" text-anchor="middle" x="22.62" y="-177.12" font-family="Helvetica,sans-Serif" font-size="10.00">main.c</text>
</a>
</g>
</g>
<!-- Node1&#45;&gt;Node2 -->
<g id="edge1_Node000001_Node000002" class="edge">
<title>Node1&#45;&gt;Node2</title>
<g id="a_edge1_Node000001_Node000002"><a xlink:title=" ">
<path fill="none" stroke="#63b8ff" d="M749.73,-240.04C617.28,-237.03 193,-225.28 59.62,-196.25 53.98,-195.02 48.05,-193.06 42.64,-190.99"/>
<polygon fill="#63b8ff" stroke="#63b8ff" points="749.32,-243.53 759.4,-240.26 749.48,-236.54 749.32,-243.53"/>
</a>
</g>
</g>
<!-- Node3 -->
<g id="Node000003" class="node">
<title>Node3</title>
<g id="a_Node000003"><a xlink:href="minigb__apu_8c.html" target="_top" xlink:title=" ">
<polygon fill="white" stroke="#666666" points="265.75,-74.5 139.5,-74.5 139.5,-55.25 265.75,-55.25 265.75,-74.5"/>
<text xml:space="preserve" text-anchor="middle" x="202.62" y="-61" font-family="Helvetica,sans-Serif" font-size="10.00">minigb_apu/minigb_apu.c</text>
</a>
</g>
</g>
<!-- Node1&#45;&gt;Node3 -->
<g id="edge2_Node000001_Node000003" class="edge">
<title>Node1&#45;&gt;Node3</title>
<g id="a_edge2_Node000001_Node000003"><a xlink:title=" ">
<path fill="none" stroke="#63b8ff" d="M749.64,-240.08C654.37,-237.66 416.56,-228.49 344.62,-196.25 281.1,-167.78 227.06,-99.51 209.03,-74.9"/>
<polygon fill="#63b8ff" stroke="#63b8ff" points="749.46,-243.57 759.55,-240.31 749.63,-236.57 749.46,-243.57"/>
</a>
</g>
</g>
<!-- Node4 -->
<g id="Node000004" class="node">
<title>Node4</title>
<g id="a_Node000004"><a xlink:href="peanut__gb_8h.html" target="_top" xlink:title=" ">
<polygon fill="white" stroke="#666666" points="471.25,-190.62 354,-190.62 354,-171.38 471.25,-171.38 471.25,-190.62"/>
<text xml:space="preserve" text-anchor="middle" x="412.62" y="-177.12" font-family="Helvetica,sans-Serif" font-size="10.00">peanut_gb/peanut_gb.h</text>
</a>
</g>
</g>
<!-- Node1&#45;&gt;Node4 -->
<g id="edge3_Node000001_Node000004" class="edge">
<title>Node1&#45;&gt;Node4</title>
<g id="a_edge3_Node000001_Node000004"><a xlink:title=" ">
<path fill="none" stroke="#63b8ff" d="M749.71,-234.64C682.91,-224.21 548.2,-203.17 470.83,-191.09"/>
<polygon fill="#63b8ff" stroke="#63b8ff" points="749.06,-238.08 759.48,-236.17 750.14,-231.17 749.06,-238.08"/>
</a>
</g>
</g>
<!-- Node5 -->
<g id="Node000005" class="node">
<title>Node5</title>
<g id="a_Node000005"><a xlink:href="game__scene_8c.html" target="_top" xlink:title=" ">
<polygon fill="white" stroke="#666666" points="250.75,-19.25 154.5,-19.25 154.5,0 250.75,0 250.75,-19.25"/>
<text xml:space="preserve" text-anchor="middle" x="202.62" y="-5.75" font-family="Helvetica,sans-Serif" font-size="10.00">src/game_scene.c</text>
</a>
</g>
</g>
<!-- Node1&#45;&gt;Node5 -->
<g id="edge22_Node000001_Node000005" class="edge">
<title>Node1&#45;&gt;Node5</title>
<g id="a_edge22_Node000001_Node000005"><a xlink:title=" ">
<path fill="none" stroke="#63b8ff" d="M749.75,-239.24C647.55,-234.75 378.33,-220.86 292.62,-196.25 203.3,-170.6 150.74,-163.08 122.62,-74.5 120.04,-66.35 118.29,-62.63 122.62,-55.25 133.01,-37.56 153.25,-26.37 170.76,-19.61"/>
<polygon fill="#63b8ff" stroke="#63b8ff" points="749.42,-242.73 759.56,-239.67 749.72,-235.74 749.42,-242.73"/>
</a>
</g>
</g>
<!-- Node7 -->
<g id="Node000007" class="node">
<title>Node7</title>
<g id="a_Node000007"><a xlink:href="app_8c.html" target="_top" xlink:title=" ">
<polygon fill="white" stroke="#666666" points="742.88,-74.5 686.38,-74.5 686.38,-55.25 742.88,-55.25 742.88,-74.5"/>
<text xml:space="preserve" text-anchor="middle" x="714.62" y="-61" font-family="Helvetica,sans-Serif" font-size="10.00">src/app.c</text>
</a>
</g>
</g>
<!-- Node1&#45;&gt;Node7 -->
<g id="edge20_Node000001_Node000007" class="edge">
<title>Node1&#45;&gt;Node7</title>
<g id="a_edge20_Node000001_Node000007"><a xlink:title=" ">
<path fill="none" stroke="#63b8ff" d="M774.34,-223.02C768.2,-215.19 761.45,-205.65 756.62,-196.25 734.58,-153.3 721.09,-96.49 716.45,-74.8"/>
<polygon fill="#63b8ff" stroke="#63b8ff" points="771.59,-225.2 780.64,-230.72 777.01,-220.76 771.59,-225.2"/>
</a>
</g>
</g>
<!-- Node9 -->
<g id="Node000009" class="node">
<title>Node9</title>
<g id="a_Node000009"><a xlink:href="credits__scene_8c.html" target="_top" xlink:title=" ">
<polygon fill="white" stroke="#666666" points="873.38,-19.25 771.88,-19.25 771.88,0 873.38,0 873.38,-19.25"/>
<text xml:space="preserve" text-anchor="middle" x="822.62" y="-5.75" font-family="Helvetica,sans-Serif" font-size="10.00">src/credits_scene.c</text>
</a>
</g>
</g>
<!-- Node1&#45;&gt;Node9 -->
<g id="edge21_Node000001_Node000009" class="edge">
<title>Node1&#45;&gt;Node9</title>
<g id="a_edge21_Node000001_Node000009"><a xlink:title=" ">
<path fill="none" stroke="#63b8ff" d="M806.44,-223.6C812.81,-215.88 819.32,-206.27 822.62,-196.25 844.01,-131.36 829.98,-46.65 824.52,-19.44"/>
<polygon fill="#63b8ff" stroke="#63b8ff" points="804.01,-221.06 799.96,-230.85 809.23,-225.72 804.01,-221.06"/>
</a>
</g>
</g>
<!-- Node10 -->
<g id="Node000010" class="node">
<title>Node10</title>
<g id="a_Node000010"><a xlink:href="library__scene_8c.html" target="_top" xlink:title=" ">
<polygon fill="white" stroke="#666666" points="485.88,-19.25 387.38,-19.25 387.38,0 485.88,0 485.88,-19.25"/>
<text xml:space="preserve" text-anchor="middle" x="436.62" y="-5.75" font-family="Helvetica,sans-Serif" font-size="10.00">src/library_scene.c</text>
</a>
</g>
</g>
<!-- Node1&#45;&gt;Node10 -->
<g id="edge24_Node000001_Node000010" class="edge">
<title>Node1&#45;&gt;Node10</title>
<g id="a_edge24_Node000001_Node000010"><a xlink:title=" ">
<path fill="none" stroke="#63b8ff" d="M792.27,-220.43C795.99,-181.94 797.81,-98.69 751.62,-55.25 732.62,-37.37 569.98,-21.57 486.15,-14.52"/>
<polygon fill="#63b8ff" stroke="#63b8ff" points="788.8,-220.01 791.15,-230.34 795.75,-220.8 788.8,-220.01"/>
</a>
</g>
</g>
<!-- Node11 -->
<g id="Node000011" class="node">
<title>Node11</title>
<g id="a_Node000011"><a xlink:href="script_8c.html" target="_top" xlink:title=" ">
<polygon fill="white" stroke="#666666" points="668,-74.5 603.25,-74.5 603.25,-55.25 668,-55.25 668,-74.5"/>
<text xml:space="preserve" text-anchor="middle" x="635.62" y="-61" font-family="Helvetica,sans-Serif" font-size="10.00">src/script.c</text>
</a>
</g>
</g>
<!-- Node1&#45;&gt;Node11 -->
<g id="edge28_Node000001_Node000011" class="edge">
<title>Node1&#45;&gt;Node11</title>
<g id="a_edge28_Node000001_Node000011"><a xlink:title=" ">
<path fill="none" stroke="#63b8ff" d="M769.69,-224.44C760.23,-216.31 748.98,-206.14 739.62,-196.25 699.23,-153.56 657.5,-96.59 641.96,-74.84"/>
<polygon fill="#63b8ff" stroke="#63b8ff" points="767.35,-227.05 777.25,-230.83 771.87,-221.7 767.35,-227.05"/>
</a>
</g>
</g>
<!-- Node13 -->
<g id="Node000013" class="node">
<title>Node13</title>
<g id="a_Node000013"><a xlink:href="settings__scene_8c.html" target="_top" xlink:title=" ">
<polygon fill="white" stroke="#666666" points="706,-19.25 599.25,-19.25 599.25,0 706,0 706,-19.25"/>
<text xml:space="preserve" text-anchor="middle" x="652.62" y="-5.75" font-family="Helvetica,sans-Serif" font-size="10.00">src/settings_scene.c</text>
</a>
</g>
</g>
<!-- Node1&#45;&gt;Node13 -->
<g id="edge29_Node000001_Node000013" class="edge">
<title>Node1&#45;&gt;Node13</title>
<g id="a_edge29_Node000001_Node000013"><a xlink:title=" ">
<path fill="none" stroke="#63b8ff" d="M795.69,-221.36C805.77,-184.78 821.43,-105.12 784.62,-55.25 766.52,-30.73 734.26,-19.53 706.17,-14.49"/>
<polygon fill="#63b8ff" stroke="#63b8ff" points="792.45,-219.97 793,-230.55 799.17,-221.94 792.45,-219.97"/>
</a>
</g>
</g>
<!-- Node14 -->
<g id="Node000014" class="node">
<title>Node14</title>
<g id="a_Node000014"><a xlink:href="image__conversion__scene_8c.html" target="_top" xlink:title=" ">
<polygon fill="white" stroke="#666666" points="986.25,-196.25 875,-196.25 875,-165.75 986.25,-165.75 986.25,-196.25"/>
<text xml:space="preserve" text-anchor="start" x="883" y="-182.75" font-family="Helvetica,sans-Serif" font-size="10.00">src/image_conversion</text>
<text xml:space="preserve" text-anchor="middle" x="930.62" y="-171.5" font-family="Helvetica,sans-Serif" font-size="10.00">_scene.c</text>
</a>
</g>
</g>
<!-- Node1&#45;&gt;Node14 -->
<g id="edge23_Node000001_Node000014" class="edge">
<title>Node1&#45;&gt;Node14</title>
<g id="a_edge23_Node000001_Node000014"><a xlink:title=" ">
<path fill="none" stroke="#63b8ff" d="M821.8,-227.44C843.76,-218.27 872.85,-206.12 895.43,-196.69"/>
<polygon fill="#63b8ff" stroke="#63b8ff" points="820.62,-224.14 812.74,-231.22 823.32,-230.6 820.62,-224.14"/>
</a>
</g>
</g>
<!-- Node15 -->
<g id="Node000015" class="node">
<title>Node15</title>
<g id="a_Node000015"><a xlink:href="listview_8c.html" target="_top" xlink:title=" ">
<polygon fill="white" stroke="#666666" points="1076.75,-190.62 1004.5,-190.62 1004.5,-171.38 1076.75,-171.38 1076.75,-190.62"/>
<text xml:space="preserve" text-anchor="middle" x="1040.62" y="-177.12" font-family="Helvetica,sans-Serif" font-size="10.00">src/listview.c</text>
</a>
</g>
</g>
<!-- Node1&#45;&gt;Node15 -->
<g id="edge25_Node000001_Node000015" class="edge">
<title>Node1&#45;&gt;Node15</title>
<g id="a_edge25_Node000001_Node000015"><a xlink:title=" ">
<path fill="none" stroke="#63b8ff" d="M829.19,-233.44C870.86,-225.35 938.25,-211.51 995.62,-196.25 1001.49,-194.69 1007.72,-192.84 1013.62,-191"/>
<polygon fill="#63b8ff" stroke="#63b8ff" points="828.79,-229.96 819.64,-235.28 830.12,-236.83 828.79,-229.96"/>
</a>
</g>
</g>
<!-- Node16 -->
<g id="Node000016" class="node">
<title>Node16</title>
<g id="a_Node000016"><a xlink:href="modal_8c.html" target="_top" xlink:title=" ">
<polygon fill="white" stroke="#666666" points="1162.12,-190.62 1095.12,-190.62 1095.12,-171.38 1162.12,-171.38 1162.12,-190.62"/>
<text xml:space="preserve" text-anchor="middle" x="1128.62" y="-177.12" font-family="Helvetica,sans-Serif" font-size="10.00">src/modal.c</text>
</a>
</g>
</g>
<!-- Node1&#45;&gt;Node16 -->
<g id="edge26_Node000001_Node000016" class="edge">
<title>Node1&#45;&gt;Node16</title>
<g id="a_edge26_Node000001_Node000016"><a xlink:title=" ">
<path fill="none" stroke="#63b8ff" d="M829.51,-237.04C886.75,-231.06 995.26,-217.87 1085.62,-196.25 1091.59,-194.82 1097.91,-192.94 1103.82,-191.02"/>
<polygon fill="#63b8ff" stroke="#63b8ff" points="829.19,-233.56 819.6,-238.06 829.9,-240.52 829.19,-233.56"/>
</a>
</g>
</g>
<!-- Node17 -->
<g id="Node000017" class="node">
<title>Node17</title>
<g id="a_Node000017"><a xlink:href="scene_8c.html" target="_top" xlink:title=" ">
<polygon fill="white" stroke="#666666" points="1247.12,-190.62 1180.12,-190.62 1180.12,-171.38 1247.12,-171.38 1247.12,-190.62"/>
<text xml:space="preserve" text-anchor="middle" x="1213.62" y="-177.12" font-family="Helvetica,sans-Serif" font-size="10.00">src/scene.c</text>
</a>
</g>
</g>
<!-- Node1&#45;&gt;Node17 -->
<g id="edge27_Node000001_Node000017" class="edge">
<title>Node1&#45;&gt;Node17</title>
<g id="a_edge27_Node000001_Node000017"><a xlink:title=" ">
<path fill="none" stroke="#63b8ff" d="M829.58,-238.98C899.62,-235.05 1048.78,-223.94 1171.62,-196.25 1177.63,-194.9 1183.99,-193 1189.89,-191.02"/>
<polygon fill="#63b8ff" stroke="#63b8ff" points="829.55,-235.48 819.76,-239.51 829.93,-242.47 829.55,-235.48"/>
</a>
</g>
</g>
<!-- Node18 -->
<g id="Node000018" class="node">
<title>Node18</title>
<g id="a_Node000018"><a xlink:href="utility_8c.html" target="_top" xlink:title=" ">
<polygon fill="white" stroke="#666666" points="1327.88,-190.62 1265.38,-190.62 1265.38,-171.38 1327.88,-171.38 1327.88,-190.62"/>
<text xml:space="preserve" text-anchor="middle" x="1296.62" y="-177.12" font-family="Helvetica,sans-Serif" font-size="10.00">src/utility.c</text>
</a>
</g>
</g>
<!-- Node1&#45;&gt;Node18 -->
<g id="edge30_Node000001_Node000018" class="edge">
<title>Node1&#45;&gt;Node18</title>
<g id="a_edge30_Node000001_Node000018"><a xlink:title=" ">
<path fill="none" stroke="#63b8ff" d="M829.59,-240.36C910.95,-238.6 1101.25,-230.79 1256.62,-196.25 1262.53,-194.94 1268.75,-193 1274.49,-190.98"/>
<polygon fill="#63b8ff" stroke="#63b8ff" points="829.61,-236.86 819.68,-240.56 829.75,-243.86 829.61,-236.86"/>
</a>
</g>
</g>
<!-- Node4&#45;&gt;Node3 -->
<g id="edge4_Node000004_Node000003" class="edge">
<title>Node4&#45;&gt;Node3</title>
<g id="a_edge4_Node000004_Node000003"><a xlink:title=" ">
<path fill="none" stroke="#63b8ff" d="M386.22,-165.65C342.35,-141.81 255.69,-94.71 219.32,-74.95"/>
<polygon fill="#63b8ff" stroke="#63b8ff" points="384.36,-168.62 394.82,-170.32 387.7,-162.47 384.36,-168.62"/>
</a>
</g>
</g>
<!-- Node4&#45;&gt;Node5 -->
<g id="edge5_Node000004_Node000005" class="edge">
<title>Node4&#45;&gt;Node5</title>
<g id="a_edge5_Node000004_Node000005"><a xlink:title=" ">
<path fill="none" stroke="#63b8ff" d="M342.31,-175.46C275.36,-166.97 178.01,-142.82 130.62,-74.5 114.53,-51.3 151.06,-30.89 177.75,-19.7"/>
<polygon fill="#63b8ff" stroke="#63b8ff" points="341.76,-178.92 352.1,-176.61 342.58,-171.97 341.76,-178.92"/>
</a>
</g>
</g>
<!-- Node6 -->
<g id="Node000006" class="node">
<title>Node6</title>
<g id="a_Node000006"><a xlink:href="game__scene_8h.html" target="_top" xlink:title=" ">
<polygon fill="white" stroke="#666666" points="460.75,-129.75 364.5,-129.75 364.5,-110.5 460.75,-110.5 460.75,-129.75"/>
<text xml:space="preserve" text-anchor="middle" x="412.62" y="-116.25" font-family="Helvetica,sans-Serif" font-size="10.00">src/game_scene.h</text>
</a>
</g>
</g>
<!-- Node4&#45;&gt;Node6 -->
<g id="edge6_Node000004_Node000006" class="edge">
<title>Node4&#45;&gt;Node6</title>
<g id="a_edge6_Node000004_Node000006"><a xlink:title=" ">
<path fill="none" stroke="#63b8ff" d="M412.62,-159.57C412.62,-149.54 412.62,-137.96 412.62,-130.15"/>
<polygon fill="#63b8ff" stroke="#63b8ff" points="409.13,-159.54 412.63,-169.54 416.13,-159.54 409.13,-159.54"/>
</a>
</g>
</g>
<!-- Node4&#45;&gt;Node11 -->
<g id="edge19_Node000004_Node000011" class="edge">
<title>Node4&#45;&gt;Node11</title>
<g id="a_edge19_Node000004_Node000011"><a xlink:title=" ">
<path fill="none" stroke="#63b8ff" d="M440.37,-165.8C486.86,-142.01 579.19,-94.76 617.9,-74.95"/>
<polygon fill="#63b8ff" stroke="#63b8ff" points="438.78,-162.68 431.47,-170.36 441.97,-168.92 438.78,-162.68"/>
</a>
</g>
</g>
<!-- Node6&#45;&gt;Node3 -->
<g id="edge7_Node000006_Node000003" class="edge">
<title>Node6&#45;&gt;Node3</title>
<g id="a_edge7_Node000006_Node000003"><a xlink:title=" ">
<path fill="none" stroke="#63b8ff" d="M366.08,-107.32C327.56,-97.55 273.63,-83.88 238.42,-74.95"/>
<polygon fill="#63b8ff" stroke="#63b8ff" points="364.98,-110.65 375.53,-109.72 366.7,-103.87 364.98,-110.65"/>
</a>
</g>
</g>
<!-- Node6&#45;&gt;Node5 -->
<g id="edge12_Node000006_Node000005" class="edge">
<title>Node6&#45;&gt;Node5</title>
<g id="a_edge12_Node000006_Node000005"><a xlink:title=" ">
<path fill="none" stroke="#63b8ff" d="M385.12,-104.91C341.3,-82.28 256.87,-38.65 220.27,-19.74"/>
<polygon fill="#63b8ff" stroke="#63b8ff" points="383.25,-107.89 393.74,-109.37 386.46,-101.67 383.25,-107.89"/>
</a>
</g>
</g>
<!-- Node6&#45;&gt;Node7 -->
<g id="edge8_Node000006_Node000007" class="edge">
<title>Node6&#45;&gt;Node7</title>
<g id="a_edge8_Node000006_Node000007"><a xlink:title=" ">
<path fill="none" stroke="#63b8ff" d="M472.3,-110.01C525.92,-101.59 606.74,-88.33 676.62,-74.5 679.68,-73.9 682.86,-73.23 686.03,-72.55"/>
<polygon fill="#63b8ff" stroke="#63b8ff" points="471.78,-106.55 462.44,-111.55 472.86,-113.47 471.78,-106.55"/>
</a>
</g>
</g>
<!-- Node8 -->
<g id="Node000008" class="node">
<title>Node8</title>
<g id="a_Node000008"><a xlink:href="credits__scene_8h.html" target="_top" xlink:title=" ">
<polygon fill="white" stroke="#666666" points="585.38,-74.5 483.88,-74.5 483.88,-55.25 585.38,-55.25 585.38,-74.5"/>
<text xml:space="preserve" text-anchor="middle" x="534.62" y="-61" font-family="Helvetica,sans-Serif" font-size="10.00">src/credits_scene.h</text>
</a>
</g>
</g>
<!-- Node6&#45;&gt;Node8 -->
<g id="edge9_Node000006_Node000008" class="edge">
<title>Node6&#45;&gt;Node8</title>
<g id="a_edge9_Node000006_Node000008"><a xlink:title=" ">
<path fill="none" stroke="#63b8ff" d="M443.79,-105.52C465.77,-95.93 494.6,-83.34 513.83,-74.95"/>
<polygon fill="#63b8ff" stroke="#63b8ff" points="442.47,-102.28 434.71,-109.49 445.27,-108.69 442.47,-102.28"/>
</a>
</g>
</g>
<!-- Node6&#45;&gt;Node10 -->
<g id="edge13_Node000006_Node000010" class="edge">
<title>Node6&#45;&gt;Node10</title>
<g id="a_edge13_Node000006_Node000010"><a xlink:title=" ">
<path fill="none" stroke="#63b8ff" d="M382.04,-104.79C361.01,-92.83 338.83,-74.66 350.62,-55.25 361.54,-37.28 382.3,-26.22 400.69,-19.61"/>
<polygon fill="#63b8ff" stroke="#63b8ff" points="380.31,-107.84 390.78,-109.44 383.59,-101.65 380.31,-107.84"/>
</a>
</g>
</g>
<!-- Node6&#45;&gt;Node11 -->
<g id="edge14_Node000006_Node000011" class="edge">
<title>Node6&#45;&gt;Node11</title>
<g id="a_edge14_Node000006_Node000011"><a xlink:title=" ">
<path fill="none" stroke="#63b8ff" d="M461.73,-107.4C504.59,-97.16 565.59,-82.6 602.78,-73.72"/>
<polygon fill="#63b8ff" stroke="#63b8ff" points="461.09,-103.95 452.18,-109.68 462.72,-110.76 461.09,-103.95"/>
</a>
</g>
</g>
<!-- Node12 -->
<g id="Node000012" class="node">
<title>Node12</title>
<g id="a_Node000012"><a xlink:href="settings__scene_8h.html" target="_top" xlink:title=" ">
<polygon fill="white" stroke="#666666" points="466,-74.5 359.25,-74.5 359.25,-55.25 466,-55.25 466,-74.5"/>
<text xml:space="preserve" text-anchor="middle" x="412.62" y="-61" font-family="Helvetica,sans-Serif" font-size="10.00">src/settings_scene.h</text>
</a>
</g>
</g>
<!-- Node6&#45;&gt;Node12 -->
<g id="edge15_Node000006_Node000012" class="edge">
<title>Node6&#45;&gt;Node12</title>
<g id="a_edge15_Node000006_Node000012"><a xlink:title=" ">
<path fill="none" stroke="#63b8ff" d="M412.62,-98.88C412.62,-90.59 412.62,-81.42 412.62,-74.86"/>
<polygon fill="#63b8ff" stroke="#63b8ff" points="409.13,-98.82 412.63,-108.82 416.13,-98.82 409.13,-98.82"/>
</a>
</g>
</g>
<!-- Node8&#45;&gt;Node9 -->
<g id="edge10_Node000008_Node000009" class="edge">
<title>Node8&#45;&gt;Node9</title>
<g id="a_edge10_Node000008_Node000009"><a xlink:title=" ">
<path fill="none" stroke="#63b8ff" d="M595.09,-52.69C648.15,-42.89 724.33,-28.8 773.65,-19.68"/>
<polygon fill="#63b8ff" stroke="#63b8ff" points="594.49,-49.25 585.3,-54.51 595.76,-56.13 594.49,-49.25"/>
</a>
</g>
</g>
<!-- Node8&#45;&gt;Node10 -->
<g id="edge11_Node000008_Node000010" class="edge">
<title>Node8&#45;&gt;Node10</title>
<g id="a_edge11_Node000008_Node000010"><a xlink:title=" ">
<path fill="none" stroke="#63b8ff" d="M508.37,-49.61C490.88,-40.11 468.42,-27.9 453.33,-19.7"/>
<polygon fill="#63b8ff" stroke="#63b8ff" points="506.21,-52.42 516.67,-54.12 509.56,-46.27 506.21,-52.42"/>
</a>
</g>
</g>
<!-- Node12&#45;&gt;Node5 -->
<g id="edge16_Node000012_Node000005" class="edge">
<title>Node12&#45;&gt;Node5</title>
<g id="a_edge16_Node000012_Node000005"><a xlink:title=" ">
<path fill="none" stroke="#63b8ff" d="M366.08,-52.07C327.56,-42.3 273.63,-28.63 238.42,-19.7"/>
<polygon fill="#63b8ff" stroke="#63b8ff" points="364.98,-55.4 375.53,-54.47 366.7,-48.62 364.98,-55.4"/>
</a>
</g>
</g>
<!-- Node12&#45;&gt;Node10 -->
<g id="edge17_Node000012_Node000010" class="edge">
<title>Node12&#45;&gt;Node10</title>
<g id="a_edge17_Node000012_Node000010"><a xlink:title=" ">
<path fill="none" stroke="#63b8ff" d="M421.23,-44.79C425.1,-36.21 429.48,-26.48 432.58,-19.61"/>
<polygon fill="#63b8ff" stroke="#63b8ff" points="418.13,-43.15 417.21,-53.7 424.51,-46.02 418.13,-43.15"/>
</a>
</g>
</g>
<!-- Node12&#45;&gt;Node13 -->
<g id="edge18_Node000012_Node000013" class="edge">
<title>Node12&#45;&gt;Node13</title>
<g id="a_edge18_Node000012_Node000013"><a xlink:title=" ">
<path fill="none" stroke="#63b8ff" d="M464.69,-52.32C508.82,-42.53 571.23,-28.69 611.81,-19.68"/>
<polygon fill="#63b8ff" stroke="#63b8ff" points="464.09,-48.87 455.09,-54.45 465.61,-55.7 464.09,-48.87"/>
</a>
</g>
</g>
</g>
</svg>

<g id="navigator" transform="translate(0 0)" fill="#404254">
  <rect fill="#f2f5e9" fill-opacity="0.5" stroke="#606060" stroke-width=".5" x="0" y="0" width="60" height="60"/>
  <use id="zoomplus" xlink:href="#zoomPlus" x="17" y="9" onmousedown="handleZoom(evt,'in')"/>
  <use id="zoomminus" xlink:href="#zoomMin" x="42" y="9" onmousedown="handleZoom(evt,'out')"/>
  <use id="reset" xlink:href="#resetDef" x="30" y="36" onmousedown="handleReset()"/>
   <use id="arrowup" xlink:href="#arrowUp" x="0" y="0" onmousedown="handlePan(0,-1)"/>
  <use id="arrowright" xlink:href="#arrowRight" x="0" y="0" onmousedown="handlePan(1,0)"/>
  <use id="arrowdown" xlink:href="#arrowDown" x="0" y="0" onmousedown="handlePan(0,1)"/>
  <use id="arrowleft" xlink:href="#arrowLeft" x="0" y="0" onmousedown="handlePan(-1,0)"/>
</g>
<svg viewBox="0 0 15 15" width="100%" height="30px" preserveAspectRatio="xMaxYMin meet">
 <g id="arrow_out" transform="scale(0.3 0.3)">
  <a xlink:href="app_8h__dep__incl_org.svg" target="_base">
   <rect id="button" ry="5" rx="5" y="6" x="6" height="38" width="38"
        fill="#f2f5e9" fill-opacity="0.5" stroke="#606060" stroke-width="1.0"/>
   <path id="arrow"
     d="M 11.500037,31.436501 C 11.940474,20.09759 22.043105,11.32322 32.158766,21.979434 L 37.068811,17.246167 C 37.068811,17.246167 37.088388,32 37.088388,32 L 22.160133,31.978069 C 22.160133,31.978069 26.997745,27.140456 26.997745,27.140456 C 18.528582,18.264221 13.291696,25.230495 11.500037,31.436501 z"
     style="fill:#404040;"/>
  </a>
 </g>
</svg>

<style type='text/css'>
<![CDATA[
[data-mouse-over-selected='false'] { opacity: 0.7; }
[data-mouse-over-selected='true']  { opacity: 1.0; }
]]>
</style>
<script type="application/ecmascript"><![CDATA[
document.addEventListener('DOMContentLoaded', (event) => {
  highlightEdges();
  highlightAdjacentNodes();
});
]]></script>
</svg>
