<?xml version="1.0" encoding="UTF-8" standalone="no"?>
<!DOCTYPE svg PUBLIC "-//W3C//DTD SVG 1.1//EN"
 "http://www.w3.org/Graphics/SVG/1.1/DTD/svg11.dtd">
<!-- Generated by graphviz version 13.1.0 (20250701.0955)
 -->
<!-- Title: src/app.h Pages: 1 -->
<svg width="405pt" height="248pt"
 viewBox="0.00 0.00 405.00 248.00" xmlns="http://www.w3.org/2000/svg" xmlns:xlink="http://www.w3.org/1999/xlink">
<g id="graph0" class="graph" transform="scale(1 1) rotate(0) translate(4 244.25)">
<title>src/app.h</title>
<!-- Node1 -->
<g id="Node000001" class="node">
<title>Node1</title>
<g id="a_Node000001"><a xlink:title=" ">
<polygon fill="#999999" stroke="#666666" points="256.62,-240.25 200.12,-240.25 200.12,-221 256.62,-221 256.62,-240.25"/>
<text xml:space="preserve" text-anchor="middle" x="228.38" y="-226.75" font-family="Helvetica,sans-Serif" font-size="10.00">src/app.h</text>
</a>
</g>
</g>
<!-- Node2 -->
<g id="Node000002" class="node">
<title>Node2</title>
<g id="a_Node000002"><a xlink:title=" ">
<polygon fill="#e0e0e0" stroke="#999999" points="52.75,-74.5 0,-74.5 0,-55.25 52.75,-55.25 52.75,-74.5"/>
<text xml:space="preserve" text-anchor="middle" x="26.38" y="-61" font-family="Helvetica,sans-Serif" font-size="10.00">pd_api.h</text>
</a>
</g>
</g>
<!-- Node1&#45;&gt;Node2 -->
<g id="edge1_Node000001_Node000002" class="edge">
<title>Node1&#45;&gt;Node2</title>
<g id="a_edge1_Node000001_Node000002"><a xlink:title=" ">
<path fill="none" stroke="#63b8ff" d="M199.74,-224.6C173.06,-218.77 133.31,-206.98 105.38,-185 70.87,-157.85 46.33,-111.34 34.46,-85.19"/>
<polygon fill="#63b8ff" stroke="#63b8ff" points="37.72,-83.9 30.51,-76.14 31.3,-86.7 37.72,-83.9"/>
</a>
</g>
</g>
<!-- Node3 -->
<g id="Node000003" class="node">
<title>Node3</title>
<g id="a_Node000003"><a xlink:href="scene_8h.html" target="_top" xlink:title=" ">
<polygon fill="white" stroke="#666666" points="164.62,-185 114.12,-185 114.12,-165.75 164.62,-165.75 164.62,-185"/>
<text xml:space="preserve" text-anchor="middle" x="139.38" y="-171.5" font-family="Helvetica,sans-Serif" font-size="10.00">scene.h</text>
</a>
</g>
</g>
<!-- Node1&#45;&gt;Node3 -->
<g id="edge2_Node000001_Node000003" class="edge">
<title>Node1&#45;&gt;Node3</title>
<g id="a_edge2_Node000001_Node000003"><a xlink:title=" ">
<path fill="none" stroke="#63b8ff" d="M213.28,-220.59C199.85,-212.56 179.96,-200.66 164.2,-191.23"/>
<polygon fill="#63b8ff" stroke="#63b8ff" points="166.22,-188.36 155.85,-186.23 162.63,-194.37 166.22,-188.36"/>
</a>
</g>
</g>
<!-- Node4 -->
<g id="Node000004" class="node">
<title>Node4</title>
<g id="a_Node000004"><a xlink:href="utility_8h.html" target="_top" xlink:title=" ">
<polygon fill="white" stroke="#666666" points="159.38,-129.75 113.38,-129.75 113.38,-110.5 159.38,-110.5 159.38,-129.75"/>
<text xml:space="preserve" text-anchor="middle" x="136.38" y="-116.25" font-family="Helvetica,sans-Serif" font-size="10.00">utility.h</text>
</a>
</g>
</g>
<!-- Node1&#45;&gt;Node4 -->
<g id="edge12_Node000001_Node000004" class="edge">
<title>Node1&#45;&gt;Node4</title>
<g id="a_edge12_Node000001_Node000004"><a xlink:title=" ">
<path fill="none" stroke="#63b8ff" d="M220.85,-220.75C205.68,-202.86 171.22,-162.22 151.32,-138.75"/>
<polygon fill="#63b8ff" stroke="#63b8ff" points="154.12,-136.64 144.99,-131.28 148.78,-141.17 154.12,-136.64"/>
</a>
</g>
</g>
<!-- Node7 -->
<g id="Node000007" class="node">
<title>Node7</title>
<g id="a_Node000007"><a xlink:title=" ">
<polygon fill="#e0e0e0" stroke="#999999" points="220,-19.25 174.75,-19.25 174.75,0 220,0 220,-19.25"/>
<text xml:space="preserve" text-anchor="middle" x="197.38" y="-5.75" font-family="Helvetica,sans-Serif" font-size="10.00">stdio.h</text>
</a>
</g>
</g>
<!-- Node1&#45;&gt;Node7 -->
<g id="edge15_Node000001_Node000007" class="edge">
<title>Node1&#45;&gt;Node7</title>
<g id="a_edge15_Node000001_Node000007"><a xlink:title=" ">
<path fill="none" stroke="#63b8ff" d="M227.12,-220.77C222.55,-188.51 206.74,-76.76 200.22,-30.71"/>
<polygon fill="#63b8ff" stroke="#63b8ff" points="203.69,-30.26 198.82,-20.85 196.76,-31.24 203.69,-30.26"/>
</a>
</g>
</g>
<!-- Node8 -->
<g id="Node000008" class="node">
<title>Node8</title>
<g id="a_Node000008"><a xlink:title=" ">
<polygon fill="#e0e0e0" stroke="#999999" points="330.38,-185 284.38,-185 284.38,-165.75 330.38,-165.75 330.38,-185"/>
<text xml:space="preserve" text-anchor="middle" x="307.38" y="-171.5" font-family="Helvetica,sans-Serif" font-size="10.00">math.h</text>
</a>
</g>
</g>
<!-- Node1&#45;&gt;Node8 -->
<g id="edge13_Node000001_Node000008" class="edge">
<title>Node1&#45;&gt;Node8</title>
<g id="a_edge13_Node000001_Node000008"><a xlink:title=" ">
<path fill="none" stroke="#63b8ff" d="M241.78,-220.59C253.47,-212.71 270.68,-201.11 284.54,-191.77"/>
<polygon fill="#63b8ff" stroke="#63b8ff" points="286.32,-194.79 292.65,-186.3 282.4,-188.99 286.32,-194.79"/>
</a>
</g>
</g>
<!-- Node9 -->
<g id="Node000009" class="node">
<title>Node9</title>
<g id="a_Node000009"><a xlink:title=" ">
<polygon fill="#e0e0e0" stroke="#999999" points="396.5,-185 348.25,-185 348.25,-165.75 396.5,-165.75 396.5,-185"/>
<text xml:space="preserve" text-anchor="middle" x="372.38" y="-171.5" font-family="Helvetica,sans-Serif" font-size="10.00">stdint.h</text>
</a>
</g>
</g>
<!-- Node1&#45;&gt;Node9 -->
<g id="edge14_Node000001_Node000009" class="edge">
<title>Node1&#45;&gt;Node9</title>
<g id="a_edge14_Node000001_Node000009"><a xlink:title=" ">
<path fill="none" stroke="#63b8ff" d="M252.8,-220.59C275.97,-212.02 311.04,-199.06 337.21,-189.38"/>
<polygon fill="#63b8ff" stroke="#63b8ff" points="338.24,-192.73 346.41,-185.98 335.81,-186.16 338.24,-192.73"/>
</a>
</g>
</g>
<!-- Node3&#45;&gt;Node2 -->
<g id="edge3_Node000003_Node000002" class="edge">
<title>Node3&#45;&gt;Node2</title>
<g id="a_edge3_Node000003_Node000002"><a xlink:title=" ">
<path fill="none" stroke="#63b8ff" d="M130.13,-165.5C111.26,-147.38 68.04,-105.88 43.76,-82.57"/>
<polygon fill="#63b8ff" stroke="#63b8ff" points="46.48,-80.33 36.84,-75.92 41.63,-85.38 46.48,-80.33"/>
</a>
</g>
</g>
<!-- Node3&#45;&gt;Node4 -->
<g id="edge4_Node000003_Node000004" class="edge">
<title>Node3&#45;&gt;Node4</title>
<g id="a_edge4_Node000003_Node000004"><a xlink:title=" ">
<path fill="none" stroke="#63b8ff" d="M138.88,-165.58C138.51,-158.99 137.99,-149.71 137.51,-141.32"/>
<polygon fill="#63b8ff" stroke="#63b8ff" points="141.02,-141.41 136.97,-131.62 134.03,-141.8 141.02,-141.41"/>
</a>
</g>
</g>
<!-- Node3&#45;&gt;Node7 -->
<g id="edge11_Node000003_Node000007" class="edge">
<title>Node3&#45;&gt;Node7</title>
<g id="a_edge11_Node000003_Node000007"><a xlink:title=" ">
<path fill="none" stroke="#63b8ff" d="M146.58,-165.32C153.14,-156.66 162.66,-142.98 168.38,-129.75 182.68,-96.62 190.75,-55.13 194.58,-30.88"/>
<polygon fill="#63b8ff" stroke="#63b8ff" points="198.02,-31.52 196.02,-21.12 191.1,-30.5 198.02,-31.52"/>
</a>
</g>
</g>
<!-- Node4&#45;&gt;Node2 -->
<g id="edge8_Node000004_Node000002" class="edge">
<title>Node4&#45;&gt;Node2</title>
<g id="a_edge8_Node000004_Node000002"><a xlink:title=" ">
<path fill="none" stroke="#63b8ff" d="M117.71,-110.09C100.65,-101.83 75.13,-89.48 55.4,-79.93"/>
<polygon fill="#63b8ff" stroke="#63b8ff" points="57.01,-76.82 46.49,-75.61 53.96,-83.12 57.01,-76.82"/>
</a>
</g>
</g>
<!-- Node5 -->
<g id="Node000005" class="node">
<title>Node5</title>
<g id="a_Node000005"><a xlink:href="array_8h.html" target="_top" xlink:title=" ">
<polygon fill="white" stroke="#666666" points="152.62,-74.5 108.12,-74.5 108.12,-55.25 152.62,-55.25 152.62,-74.5"/>
<text xml:space="preserve" text-anchor="middle" x="130.38" y="-61" font-family="Helvetica,sans-Serif" font-size="10.00">array.h</text>
</a>
</g>
</g>
<!-- Node4&#45;&gt;Node5 -->
<g id="edge5_Node000004_Node000005" class="edge">
<title>Node4&#45;&gt;Node5</title>
<g id="a_edge5_Node000004_Node000005"><a xlink:title=" ">
<path fill="none" stroke="#63b8ff" d="M135.38,-110.33C134.64,-103.74 133.6,-94.46 132.65,-86.07"/>
<polygon fill="#63b8ff" stroke="#63b8ff" points="136.15,-85.91 131.56,-76.36 129.2,-86.69 136.15,-85.91"/>
</a>
</g>
</g>
<!-- Node6 -->
<g id="Node000006" class="node">
<title>Node6</title>
<g id="a_Node000006"><a xlink:title=" ">
<polygon fill="#e0e0e0" stroke="#999999" points="141.25,-19.25 85.5,-19.25 85.5,0 141.25,0 141.25,-19.25"/>
<text xml:space="preserve" text-anchor="middle" x="113.38" y="-5.75" font-family="Helvetica,sans-Serif" font-size="10.00">stdbool.h</text>
</a>
</g>
</g>
<!-- Node4&#45;&gt;Node6 -->
<g id="edge9_Node000004_Node000006" class="edge">
<title>Node4&#45;&gt;Node6</title>
<g id="a_edge9_Node000004_Node000006"><a xlink:title=" ">
<path fill="none" stroke="#63b8ff" d="M125.59,-110.14C116.64,-101.92 104.56,-88.89 99.38,-74.5 94.13,-59.95 98.43,-42.79 103.61,-29.92"/>
<polygon fill="#63b8ff" stroke="#63b8ff" points="106.77,-31.43 107.73,-20.88 100.4,-28.53 106.77,-31.43"/>
</a>
</g>
</g>
<!-- Node4&#45;&gt;Node7 -->
<g id="edge10_Node000004_Node000007" class="edge">
<title>Node4&#45;&gt;Node7</title>
<g id="a_edge10_Node000004_Node000007"><a xlink:title=" ">
<path fill="none" stroke="#63b8ff" d="M141.37,-110.25C151.24,-92.68 173.46,-53.16 186.75,-29.52"/>
<polygon fill="#63b8ff" stroke="#63b8ff" points="189.72,-31.38 191.57,-20.95 183.62,-27.95 189.72,-31.38"/>
</a>
</g>
</g>
<!-- Node5&#45;&gt;Node6 -->
<g id="edge6_Node000005_Node000006" class="edge">
<title>Node5&#45;&gt;Node6</title>
<g id="a_edge6_Node000005_Node000006"><a xlink:title=" ">
<path fill="none" stroke="#63b8ff" d="M127.57,-55.08C125.44,-48.42 122.43,-38.99 119.73,-30.53"/>
<polygon fill="#63b8ff" stroke="#63b8ff" points="123.08,-29.51 116.7,-21.05 116.41,-31.64 123.08,-29.51"/>
</a>
</g>
</g>
<!-- Node5&#45;&gt;Node7 -->
<g id="edge7_Node000005_Node000007" class="edge">
<title>Node5&#45;&gt;Node7</title>
<g id="a_edge7_Node000005_Node000007"><a xlink:title=" ">
<path fill="none" stroke="#63b8ff" d="M141.74,-54.84C151.42,-47.15 165.57,-35.9 177.18,-26.68"/>
<polygon fill="#63b8ff" stroke="#63b8ff" points="179.34,-29.43 184.99,-20.47 174.99,-23.95 179.34,-29.43"/>
</a>
</g>
</g>
</g>
</svg>
