<?xml version="1.0" encoding="UTF-8" standalone="no"?>
<!DOCTYPE svg PUBLIC "-//W3C//DTD SVG 1.1//EN"
 "http://www.w3.org/Graphics/SVG/1.1/DTD/svg11.dtd">
<!-- Generated by graphviz version 13.1.0 (20250701.0955)
 -->
<!-- Title: src/app.c Pages: 1 -->
<svg width="1208pt" height="425pt"
 viewBox="0.00 0.00 1208.00 425.00" xmlns="http://www.w3.org/2000/svg" xmlns:xlink="http://www.w3.org/1999/xlink">
<g id="graph0" class="graph" transform="scale(1 1) rotate(0) translate(4 421.25)">
<title>src/app.c</title>
<!-- Node1 -->
<g id="Node000001" class="node">
<title>Node1</title>
<g id="a_Node000001"><a xlink:title=" ">
<polygon fill="#999999" stroke="#666666" points="315.25,-417.25 258.75,-417.25 258.75,-398 315.25,-398 315.25,-417.25"/>
<text xml:space="preserve" text-anchor="middle" x="287" y="-403.75" font-family="Helvetica,sans-Serif" font-size="10.00">src/app.c</text>
</a>
</g>
</g>
<!-- Node2 -->
<g id="Node000002" class="node">
<title>Node2</title>
<g id="a_Node000002"><a xlink:href="app_8h.html" target="_top" xlink:title=" ">
<polygon fill="white" stroke="#666666" points="474,-245.88 434,-245.88 434,-226.62 474,-226.62 474,-245.88"/>
<text xml:space="preserve" text-anchor="middle" x="454" y="-232.38" font-family="Helvetica,sans-Serif" font-size="10.00">app.h</text>
</a>
</g>
</g>
<!-- Node1&#45;&gt;Node2 -->
<g id="edge1_Node000001_Node000002" class="edge">
<title>Node1&#45;&gt;Node2</title>
<g id="a_edge1_Node000001_Node000002"><a xlink:title=" ">
<path fill="none" stroke="#63b8ff" d="M295.98,-397.52C322.83,-370.28 402.83,-289.15 437.58,-253.9"/>
<polygon fill="#63b8ff" stroke="#63b8ff" points="439.79,-256.65 444.32,-247.07 434.8,-251.73 439.79,-256.65"/>
</a>
</g>
</g>
<!-- Node11 -->
<g id="Node000011" class="node">
<title>Node11</title>
<g id="a_Node000011"><a xlink:href="minigb__apu_8h.html" target="_top" xlink:title=" ">
<polygon fill="white" stroke="#666666" points="340,-251.5 234,-251.5 234,-221 340,-221 340,-251.5"/>
<text xml:space="preserve" text-anchor="start" x="242" y="-238" font-family="Helvetica,sans-Serif" font-size="10.00">../minigb_apu/minigb</text>
<text xml:space="preserve" text-anchor="middle" x="287" y="-226.75" font-family="Helvetica,sans-Serif" font-size="10.00">_apu.h</text>
</a>
</g>
</g>
<!-- Node1&#45;&gt;Node11 -->
<g id="edge17_Node000001_Node000011" class="edge">
<title>Node1&#45;&gt;Node11</title>
<g id="a_edge17_Node000001_Node000011"><a xlink:title=" ">
<path fill="none" stroke="#63b8ff" d="M287,-397.52C287,-372.47 287,-301.84 287,-263.24"/>
<polygon fill="#63b8ff" stroke="#63b8ff" points="290.5,-263.44 287,-253.44 283.5,-263.44 290.5,-263.44"/>
</a>
</g>
</g>
<!-- Node12 -->
<g id="Node000012" class="node">
<title>Node12</title>
<g id="a_Node000012"><a xlink:href="dtcm_8h.html" target="_top" xlink:title=" ">
<polygon fill="white" stroke="#666666" points="55,-74.5 9,-74.5 9,-55.25 55,-55.25 55,-74.5"/>
<text xml:space="preserve" text-anchor="middle" x="32" y="-61" font-family="Helvetica,sans-Serif" font-size="10.00">dtcm.h</text>
</a>
</g>
</g>
<!-- Node1&#45;&gt;Node12 -->
<g id="edge19_Node000001_Node000012" class="edge">
<title>Node1&#45;&gt;Node12</title>
<g id="a_edge19_Node000001_Node000012"><a xlink:title=" ">
<path fill="none" stroke="#63b8ff" d="M258.43,-402.1C185.84,-389.81 0,-352.99 0,-298.12 0,-298.12 0,-298.12 0,-174.38 0,-142.06 13.22,-106.47 22.66,-85.16"/>
<polygon fill="#63b8ff" stroke="#63b8ff" points="25.75,-86.82 26.78,-76.27 19.4,-83.87 25.75,-86.82"/>
</a>
</g>
</g>
<!-- Node13 -->
<g id="Node000013" class="node">
<title>Node13</title>
<g id="a_Node000013"><a xlink:href="game__scene_8h.html" target="_top" xlink:title=" ">
<polygon fill="white" stroke="#666666" points="790.88,-362 711.12,-362 711.12,-342.75 790.88,-342.75 790.88,-362"/>
<text xml:space="preserve" text-anchor="middle" x="751" y="-348.5" font-family="Helvetica,sans-Serif" font-size="10.00">game_scene.h</text>
</a>
</g>
</g>
<!-- Node1&#45;&gt;Node13 -->
<g id="edge22_Node000001_Node000013" class="edge">
<title>Node1&#45;&gt;Node13</title>
<g id="a_edge22_Node000001_Node000013"><a xlink:title=" ">
<path fill="none" stroke="#63b8ff" d="M315.68,-403.33C392.1,-394.56 601.48,-370.53 699.33,-359.3"/>
<polygon fill="#63b8ff" stroke="#63b8ff" points="699.66,-362.79 709.19,-358.17 698.86,-355.84 699.66,-362.79"/>
</a>
</g>
</g>
<!-- Node15 -->
<g id="Node000015" class="node">
<title>Node15</title>
<g id="a_Node000015"><a xlink:href="preferences_8h.html" target="_top" xlink:title=" ">
<polygon fill="white" stroke="#666666" points="1010.38,-245.88 909.62,-245.88 909.62,-226.62 1010.38,-226.62 1010.38,-245.88"/>
<text xml:space="preserve" text-anchor="middle" x="960" y="-232.38" font-family="Helvetica,sans-Serif" font-size="10.00">../src/preferences.h</text>
</a>
</g>
</g>
<!-- Node1&#45;&gt;Node15 -->
<g id="edge55_Node000001_Node000015" class="edge">
<title>Node1&#45;&gt;Node15</title>
<g id="a_edge55_Node000001_Node000015"><a xlink:title=" ">
<path fill="none" stroke="#63b8ff" d="M315.44,-405.43C409.09,-401.28 707.17,-386.45 800,-362 857.17,-346.94 877.5,-346.78 921,-306.75 936.09,-292.86 946.78,-271.76 953.11,-256.45"/>
<polygon fill="#63b8ff" stroke="#63b8ff" points="956.23,-258.09 956.55,-247.5 949.69,-255.58 956.23,-258.09"/>
</a>
</g>
</g>
<!-- Node22 -->
<g id="Node000022" class="node">
<title>Node22</title>
<g id="a_Node000022"><a xlink:href="image__conversion__scene_8h.html" target="_top" xlink:title=" ">
<polygon fill="white" stroke="#666666" points="1200.25,-245.88 1065.75,-245.88 1065.75,-226.62 1200.25,-226.62 1200.25,-245.88"/>
<text xml:space="preserve" text-anchor="middle" x="1133" y="-232.38" font-family="Helvetica,sans-Serif" font-size="10.00">image_conversion_scene.h</text>
</a>
</g>
</g>
<!-- Node1&#45;&gt;Node22 -->
<g id="edge41_Node000001_Node000022" class="edge">
<title>Node1&#45;&gt;Node22</title>
<g id="a_edge41_Node000001_Node000022"><a xlink:title=" ">
<path fill="none" stroke="#63b8ff" d="M315.55,-406.21C398.44,-404.63 646.09,-397.06 848,-362 940.55,-345.93 968.98,-350.69 1052,-306.75 1077.74,-293.13 1102.4,-270.04 1117.61,-254.24"/>
<polygon fill="#63b8ff" stroke="#63b8ff" points="1120.1,-256.7 1124.37,-247.01 1114.99,-251.92 1120.1,-256.7"/>
</a>
</g>
</g>
<!-- Node23 -->
<g id="Node000023" class="node">
<title>Node23</title>
<g id="a_Node000023"><a xlink:href="jparse_8h.html" target="_top" xlink:title=" ">
<polygon fill="white" stroke="#666666" points="178.25,-245.88 127.75,-245.88 127.75,-226.62 178.25,-226.62 178.25,-245.88"/>
<text xml:space="preserve" text-anchor="middle" x="153" y="-232.38" font-family="Helvetica,sans-Serif" font-size="10.00">jparse.h</text>
</a>
</g>
</g>
<!-- Node1&#45;&gt;Node23 -->
<g id="edge44_Node000001_Node000023" class="edge">
<title>Node1&#45;&gt;Node23</title>
<g id="a_edge44_Node000001_Node000023"><a xlink:title=" ">
<path fill="none" stroke="#63b8ff" d="M274.21,-397.54C252.41,-381.47 207.8,-346.01 181,-306.75 170.46,-291.31 162.92,-271.29 158.35,-256.71"/>
<polygon fill="#63b8ff" stroke="#63b8ff" points="161.79,-256.02 155.62,-247.41 155.08,-257.99 161.79,-256.02"/>
</a>
</g>
</g>
<!-- Node24 -->
<g id="Node000024" class="node">
<title>Node24</title>
<g id="a_Node000024"><a xlink:href="library__scene_8h.html" target="_top" xlink:title=" ">
<polygon fill="white" stroke="#666666" points="110,-245.88 28,-245.88 28,-226.62 110,-226.62 110,-245.88"/>
<text xml:space="preserve" text-anchor="middle" x="69" y="-232.38" font-family="Helvetica,sans-Serif" font-size="10.00">library_scene.h</text>
</a>
</g>
</g>
<!-- Node1&#45;&gt;Node24 -->
<g id="edge47_Node000001_Node000024" class="edge">
<title>Node1&#45;&gt;Node24</title>
<g id="a_edge47_Node000001_Node000024"><a xlink:title=" ">
<path fill="none" stroke="#63b8ff" d="M268.43,-397.59C251.97,-389.25 227.58,-376.06 208,-362 160.17,-327.65 110.26,-279.26 85.28,-254.04"/>
<polygon fill="#63b8ff" stroke="#63b8ff" points="88.09,-251.91 78.59,-247.22 83.1,-256.81 88.09,-251.91"/>
</a>
</g>
</g>
<!-- Node26 -->
<g id="Node000026" class="node">
<title>Node26</title>
<g id="a_Node000026"><a xlink:href="userstack_8h.html" target="_top" xlink:title=" ">
<polygon fill="white" stroke="#666666" points="256.5,-306.75 189.5,-306.75 189.5,-287.5 256.5,-287.5 256.5,-306.75"/>
<text xml:space="preserve" text-anchor="middle" x="223" y="-293.25" font-family="Helvetica,sans-Serif" font-size="10.00">userstack.h</text>
</a>
</g>
</g>
<!-- Node1&#45;&gt;Node26 -->
<g id="edge56_Node000001_Node000026" class="edge">
<title>Node1&#45;&gt;Node26</title>
<g id="a_edge56_Node000001_Node000026"><a xlink:title=" ">
<path fill="none" stroke="#63b8ff" d="M281.76,-397.75C271.4,-380.18 248.09,-340.66 234.14,-317.02"/>
<polygon fill="#63b8ff" stroke="#63b8ff" points="237.17,-315.27 229.08,-308.43 231.14,-318.82 237.17,-315.27"/>
</a>
</g>
</g>
<!-- Node3 -->
<g id="Node000003" class="node">
<title>Node3</title>
<g id="a_Node000003"><a xlink:title=" ">
<polygon fill="#e0e0e0" stroke="#999999" points="360.38,-74.5 307.62,-74.5 307.62,-55.25 360.38,-55.25 360.38,-74.5"/>
<text xml:space="preserve" text-anchor="middle" x="334" y="-61" font-family="Helvetica,sans-Serif" font-size="10.00">pd_api.h</text>
</a>
</g>
</g>
<!-- Node2&#45;&gt;Node3 -->
<g id="edge2_Node000002_Node000003" class="edge">
<title>Node2&#45;&gt;Node3</title>
<g id="a_edge2_Node000002_Node000003"><a xlink:title=" ">
<path fill="none" stroke="#63b8ff" d="M447.55,-226.14C428.5,-199.25 372.23,-119.83 346.77,-83.89"/>
<polygon fill="#63b8ff" stroke="#63b8ff" points="349.71,-81.99 341.07,-75.85 343.99,-86.04 349.71,-81.99"/>
</a>
</g>
</g>
<!-- Node4 -->
<g id="Node000004" class="node">
<title>Node4</title>
<g id="a_Node000004"><a xlink:href="scene_8h.html" target="_top" xlink:title=" ">
<polygon fill="white" stroke="#666666" points="365.25,-185 314.75,-185 314.75,-165.75 365.25,-165.75 365.25,-185"/>
<text xml:space="preserve" text-anchor="middle" x="340" y="-171.5" font-family="Helvetica,sans-Serif" font-size="10.00">scene.h</text>
</a>
</g>
</g>
<!-- Node2&#45;&gt;Node4 -->
<g id="edge3_Node000002_Node000004" class="edge">
<title>Node2&#45;&gt;Node4</title>
<g id="a_edge3_Node000002_Node000004"><a xlink:title=" ">
<path fill="none" stroke="#63b8ff" d="M436.69,-226.31C418.36,-216.84 389.16,-201.76 367.64,-190.65"/>
<polygon fill="#63b8ff" stroke="#63b8ff" points="369.31,-187.57 358.82,-186.1 366.1,-193.79 369.31,-187.57"/>
</a>
</g>
</g>
<!-- Node5 -->
<g id="Node000005" class="node">
<title>Node5</title>
<g id="a_Node000005"><a xlink:href="utility_8h.html" target="_top" xlink:title=" ">
<polygon fill="white" stroke="#666666" points="441,-129.75 395,-129.75 395,-110.5 441,-110.5 441,-129.75"/>
<text xml:space="preserve" text-anchor="middle" x="418" y="-116.25" font-family="Helvetica,sans-Serif" font-size="10.00">utility.h</text>
</a>
</g>
</g>
<!-- Node2&#45;&gt;Node5 -->
<g id="edge13_Node000002_Node000005" class="edge">
<title>Node2&#45;&gt;Node5</title>
<g id="a_edge13_Node000002_Node000005"><a xlink:title=" ">
<path fill="none" stroke="#63b8ff" d="M451.18,-226.29C445.39,-207.96 432.08,-165.78 424.19,-140.76"/>
<polygon fill="#63b8ff" stroke="#63b8ff" points="427.61,-139.97 421.27,-131.48 420.94,-142.07 427.61,-139.97"/>
</a>
</g>
</g>
<!-- Node8 -->
<g id="Node000008" class="node">
<title>Node8</title>
<g id="a_Node000008"><a xlink:title=" ">
<polygon fill="#e0e0e0" stroke="#999999" points="375.62,-19.25 330.38,-19.25 330.38,0 375.62,0 375.62,-19.25"/>
<text xml:space="preserve" text-anchor="middle" x="353" y="-5.75" font-family="Helvetica,sans-Serif" font-size="10.00">stdio.h</text>
</a>
</g>
</g>
<!-- Node2&#45;&gt;Node8 -->
<g id="edge16_Node000002_Node000008" class="edge">
<title>Node2&#45;&gt;Node8</title>
<g id="a_edge16_Node000002_Node000008"><a xlink:title=" ">
<path fill="none" stroke="#63b8ff" d="M455.1,-226.27C457.36,-205.47 461.4,-152.54 450,-110.5 442.69,-83.53 438.85,-75.88 420,-55.25 408.99,-43.2 394.08,-32.86 381.13,-25.17"/>
<polygon fill="#63b8ff" stroke="#63b8ff" points="383.01,-22.22 372.58,-20.34 379.56,-28.31 383.01,-22.22"/>
</a>
</g>
</g>
<!-- Node9 -->
<g id="Node000009" class="node">
<title>Node9</title>
<g id="a_Node000009"><a xlink:title=" ">
<polygon fill="#e0e0e0" stroke="#999999" points="614,-185 568,-185 568,-165.75 614,-165.75 614,-185"/>
<text xml:space="preserve" text-anchor="middle" x="591" y="-171.5" font-family="Helvetica,sans-Serif" font-size="10.00">math.h</text>
</a>
</g>
</g>
<!-- Node2&#45;&gt;Node9 -->
<g id="edge14_Node000002_Node000009" class="edge">
<title>Node2&#45;&gt;Node9</title>
<g id="a_edge14_Node000002_Node000009"><a xlink:title=" ">
<path fill="none" stroke="#63b8ff" d="M474.21,-226.56C496.62,-216.93 533.04,-201.28 559.26,-190.02"/>
<polygon fill="#63b8ff" stroke="#63b8ff" points="560.6,-193.25 568.41,-186.08 557.84,-186.82 560.6,-193.25"/>
</a>
</g>
</g>
<!-- Node10 -->
<g id="Node000010" class="node">
<title>Node10</title>
<g id="a_Node000010"><a xlink:title=" ">
<polygon fill="#e0e0e0" stroke="#999999" points="297.12,-185 248.88,-185 248.88,-165.75 297.12,-165.75 297.12,-185"/>
<text xml:space="preserve" text-anchor="middle" x="273" y="-171.5" font-family="Helvetica,sans-Serif" font-size="10.00">stdint.h</text>
</a>
</g>
</g>
<!-- Node2&#45;&gt;Node10 -->
<g id="edge15_Node000002_Node000010" class="edge">
<title>Node2&#45;&gt;Node10</title>
<g id="a_edge15_Node000002_Node000010"><a xlink:title=" ">
<path fill="none" stroke="#63b8ff" d="M433.64,-226.32C429.18,-224.47 424.46,-222.61 420,-221 382.29,-207.41 338.19,-194.4 308.2,-185.97"/>
<polygon fill="#63b8ff" stroke="#63b8ff" points="309.47,-182.69 298.9,-183.37 307.59,-189.43 309.47,-182.69"/>
</a>
</g>
</g>
<!-- Node4&#45;&gt;Node3 -->
<g id="edge4_Node000004_Node000003" class="edge">
<title>Node4&#45;&gt;Node3</title>
<g id="a_edge4_Node000004_Node000003"><a xlink:title=" ">
<path fill="none" stroke="#63b8ff" d="M339.51,-165.5C338.56,-148.25 336.43,-109.83 335.12,-86.06"/>
<polygon fill="#63b8ff" stroke="#63b8ff" points="338.63,-86.18 334.58,-76.39 331.64,-86.57 338.63,-86.18"/>
</a>
</g>
</g>
<!-- Node4&#45;&gt;Node5 -->
<g id="edge5_Node000004_Node000005" class="edge">
<title>Node4&#45;&gt;Node5</title>
<g id="a_edge5_Node000004_Node000005"><a xlink:title=" ">
<path fill="none" stroke="#63b8ff" d="M353.23,-165.34C364.77,-157.46 381.77,-145.86 395.45,-136.52"/>
<polygon fill="#63b8ff" stroke="#63b8ff" points="397.17,-139.58 403.45,-131.06 393.22,-133.8 397.17,-139.58"/>
</a>
</g>
</g>
<!-- Node4&#45;&gt;Node8 -->
<g id="edge12_Node000004_Node000008" class="edge">
<title>Node4&#45;&gt;Node8</title>
<g id="a_edge12_Node000004_Node000008"><a xlink:title=" ">
<path fill="none" stroke="#63b8ff" d="M332.3,-165.45C315.87,-145.27 280.36,-94.83 299,-55.25 304.71,-43.12 315.52,-33.16 325.97,-25.75"/>
<polygon fill="#63b8ff" stroke="#63b8ff" points="327.57,-28.89 334.05,-20.5 323.76,-23.02 327.57,-28.89"/>
</a>
</g>
</g>
<!-- Node5&#45;&gt;Node3 -->
<g id="edge9_Node000005_Node000003" class="edge">
<title>Node5&#45;&gt;Node3</title>
<g id="a_edge9_Node000005_Node000003"><a xlink:title=" ">
<path fill="none" stroke="#63b8ff" d="M403.75,-110.09C391.2,-102.14 372.67,-90.39 357.86,-81"/>
<polygon fill="#63b8ff" stroke="#63b8ff" points="359.92,-78.16 349.6,-75.76 356.17,-84.07 359.92,-78.16"/>
</a>
</g>
</g>
<!-- Node6 -->
<g id="Node000006" class="node">
<title>Node6</title>
<g id="a_Node000006"><a xlink:href="array_8h.html" target="_top" xlink:title=" ">
<polygon fill="white" stroke="#666666" points="117.25,-74.5 72.75,-74.5 72.75,-55.25 117.25,-55.25 117.25,-74.5"/>
<text xml:space="preserve" text-anchor="middle" x="95" y="-61" font-family="Helvetica,sans-Serif" font-size="10.00">array.h</text>
</a>
</g>
</g>
<!-- Node5&#45;&gt;Node6 -->
<g id="edge6_Node000005_Node000006" class="edge">
<title>Node5&#45;&gt;Node6</title>
<g id="a_edge6_Node000005_Node000006"><a xlink:title=" ">
<path fill="none" stroke="#63b8ff" d="M394.51,-115.25C338.07,-105.95 194.63,-82.3 128.88,-71.46"/>
<polygon fill="#63b8ff" stroke="#63b8ff" points="129.47,-68.01 119.03,-69.84 128.33,-74.92 129.47,-68.01"/>
</a>
</g>
</g>
<!-- Node7 -->
<g id="Node000007" class="node">
<title>Node7</title>
<g id="a_Node000007"><a xlink:title=" ">
<polygon fill="#e0e0e0" stroke="#999999" points="122.88,-19.25 67.12,-19.25 67.12,0 122.88,0 122.88,-19.25"/>
<text xml:space="preserve" text-anchor="middle" x="95" y="-5.75" font-family="Helvetica,sans-Serif" font-size="10.00">stdbool.h</text>
</a>
</g>
</g>
<!-- Node5&#45;&gt;Node7 -->
<g id="edge10_Node000005_Node000007" class="edge">
<title>Node5&#45;&gt;Node7</title>
<g id="a_edge10_Node000005_Node000007"><a xlink:title=" ">
<path fill="none" stroke="#63b8ff" d="M414.02,-110.4C407.07,-96.27 391.31,-68.59 369,-55.25 330.08,-31.97 200.3,-18.8 134.29,-13.46"/>
<polygon fill="#63b8ff" stroke="#63b8ff" points="134.87,-9.99 124.63,-12.7 134.32,-16.97 134.87,-9.99"/>
</a>
</g>
</g>
<!-- Node5&#45;&gt;Node8 -->
<g id="edge11_Node000005_Node000008" class="edge">
<title>Node5&#45;&gt;Node8</title>
<g id="a_edge11_Node000005_Node000008"><a xlink:title=" ">
<path fill="none" stroke="#63b8ff" d="M417.4,-110.25C416.18,-97.32 412.56,-72.91 402,-55.25 395.36,-44.14 385.09,-34.18 375.67,-26.5"/>
<polygon fill="#63b8ff" stroke="#63b8ff" points="377.96,-23.84 367.89,-20.54 373.7,-29.4 377.96,-23.84"/>
</a>
</g>
</g>
<!-- Node6&#45;&gt;Node7 -->
<g id="edge7_Node000006_Node000007" class="edge">
<title>Node6&#45;&gt;Node7</title>
<g id="a_edge7_Node000006_Node000007"><a xlink:title=" ">
<path fill="none" stroke="#63b8ff" d="M95,-55.08C95,-48.57 95,-39.42 95,-31.12"/>
<polygon fill="#63b8ff" stroke="#63b8ff" points="98.5,-31.12 95,-21.12 91.5,-31.12 98.5,-31.12"/>
</a>
</g>
</g>
<!-- Node6&#45;&gt;Node8 -->
<g id="edge8_Node000006_Node000008" class="edge">
<title>Node6&#45;&gt;Node8</title>
<g id="a_edge8_Node000006_Node000008"><a xlink:title=" ">
<path fill="none" stroke="#63b8ff" d="M117.44,-58.36C121.92,-57.3 126.61,-56.22 131,-55.25 197.29,-40.65 275.15,-25.44 318.82,-17.09"/>
<polygon fill="#63b8ff" stroke="#63b8ff" points="319.28,-20.57 328.44,-15.26 317.97,-13.69 319.28,-20.57"/>
</a>
</g>
</g>
<!-- Node11&#45;&gt;Node10 -->
<g id="edge18_Node000011_Node000010" class="edge">
<title>Node11&#45;&gt;Node10</title>
<g id="a_edge18_Node000011_Node000010"><a xlink:title=" ">
<path fill="none" stroke="#63b8ff" d="M283.54,-220.7C281.8,-213.37 279.66,-204.37 277.76,-196.41"/>
<polygon fill="#63b8ff" stroke="#63b8ff" points="281.23,-195.84 275.51,-186.92 274.42,-197.46 281.23,-195.84"/>
</a>
</g>
</g>
<!-- Node12&#45;&gt;Node7 -->
<g id="edge20_Node000012_Node000007" class="edge">
<title>Node12&#45;&gt;Node7</title>
<g id="a_edge20_Node000012_Node000007"><a xlink:title=" ">
<path fill="none" stroke="#63b8ff" d="M42.69,-54.84C51.7,-47.22 64.83,-36.12 75.68,-26.95"/>
<polygon fill="#63b8ff" stroke="#63b8ff" points="77.94,-29.63 83.31,-20.5 73.42,-24.28 77.94,-29.63"/>
</a>
</g>
</g>
<!-- Node12&#45;&gt;Node8 -->
<g id="edge21_Node000012_Node000008" class="edge">
<title>Node12&#45;&gt;Node8</title>
<g id="a_edge21_Node000012_Node000008"><a xlink:title=" ">
<path fill="none" stroke="#63b8ff" d="M55.35,-57.26C58.25,-56.54 61.19,-55.84 64,-55.25 155.2,-35.98 264.25,-21.4 318.62,-14.69"/>
<polygon fill="#63b8ff" stroke="#63b8ff" points="318.99,-18.17 328.49,-13.49 318.14,-11.22 318.99,-18.17"/>
</a>
</g>
</g>
<!-- Node13&#45;&gt;Node4 -->
<g id="edge38_Node000013_Node000004" class="edge">
<title>Node13&#45;&gt;Node4</title>
<g id="a_edge38_Node000013_Node000004"><a xlink:title=" ">
<path fill="none" stroke="#63b8ff" d="M710.65,-346.25C645.94,-336.52 516.89,-310.79 425,-251.5 398.75,-234.56 372.39,-209.77 356.14,-193.36"/>
<polygon fill="#63b8ff" stroke="#63b8ff" points="358.76,-191.03 349.28,-186.3 353.74,-195.91 358.76,-191.03"/>
</a>
</g>
</g>
<!-- Node13&#45;&gt;Node8 -->
<g id="edge40_Node000013_Node000008" class="edge">
<title>Node13&#45;&gt;Node8</title>
<g id="a_edge40_Node000013_Node000008"><a xlink:title=" ">
<path fill="none" stroke="#63b8ff" d="M791.21,-344.11C870.19,-328.68 1038,-289.73 1038,-237.25 1038,-237.25 1038,-237.25 1038,-119.12 1038,-52.44 524.99,-19.91 386.89,-12.37"/>
<polygon fill="#63b8ff" stroke="#63b8ff" points="387.48,-8.89 377.3,-11.85 387.1,-15.88 387.48,-8.89"/>
</a>
</g>
</g>
<!-- Node13&#45;&gt;Node9 -->
<g id="edge39_Node000013_Node000009" class="edge">
<title>Node13&#45;&gt;Node9</title>
<g id="a_edge39_Node000013_Node000009"><a xlink:title=" ">
<path fill="none" stroke="#63b8ff" d="M769.38,-342.37C810.26,-321.22 902.11,-266.67 863,-221 829.21,-181.54 683.1,-194.35 632,-185 629.85,-184.61 627.65,-184.19 625.42,-183.75"/>
<polygon fill="#63b8ff" stroke="#63b8ff" points="626.35,-180.37 615.86,-181.82 624.96,-187.23 626.35,-180.37"/>
</a>
</g>
</g>
<!-- Node14 -->
<g id="Node000014" class="node">
<title>Node14</title>
<g id="a_Node000014"><a xlink:href="peanut__gb_8h.html" target="_top" xlink:title=" ">
<polygon fill="white" stroke="#666666" points="683.12,-306.75 556.88,-306.75 556.88,-287.5 683.12,-287.5 683.12,-306.75"/>
<text xml:space="preserve" text-anchor="middle" x="620" y="-293.25" font-family="Helvetica,sans-Serif" font-size="10.00">../peanut_gb/peanut_gb.h</text>
</a>
</g>
</g>
<!-- Node13&#45;&gt;Node14 -->
<g id="edge23_Node000013_Node000014" class="edge">
<title>Node13&#45;&gt;Node14</title>
<g id="a_edge23_Node000013_Node000014"><a xlink:title=" ">
<path fill="none" stroke="#63b8ff" d="M728.78,-342.34C707.98,-333.89 676.65,-321.15 652.95,-311.52"/>
<polygon fill="#63b8ff" stroke="#63b8ff" points="654.32,-308.3 643.73,-307.77 651.68,-314.78 654.32,-308.3"/>
</a>
</g>
</g>
<!-- Node13&#45;&gt;Node15 -->
<g id="edge37_Node000013_Node000015" class="edge">
<title>Node13&#45;&gt;Node15</title>
<g id="a_edge37_Node000013_Node000015"><a xlink:title=" ">
<path fill="none" stroke="#63b8ff" d="M791.24,-344.91C821.76,-338.65 863.81,-327.05 896,-306.75 917.17,-293.4 935.84,-271.28 947.47,-255.58"/>
<polygon fill="#63b8ff" stroke="#63b8ff" points="950.22,-257.75 953.17,-247.58 944.52,-253.69 950.22,-257.75"/>
</a>
</g>
</g>
<!-- Node14&#45;&gt;Node2 -->
<g id="edge25_Node000014_Node000002" class="edge">
<title>Node14&#45;&gt;Node2</title>
<g id="a_edge25_Node000014_Node000002"><a xlink:title=" ">
<path fill="none" stroke="#63b8ff" d="M591.21,-287.04C564.33,-278.41 523.19,-264.8 488,-251.5 487.03,-251.13 486.05,-250.76 485.06,-250.37"/>
<polygon fill="#63b8ff" stroke="#63b8ff" points="486.39,-247.13 475.81,-246.64 483.77,-253.63 486.39,-247.13"/>
</a>
</g>
</g>
<!-- Node14&#45;&gt;Node5 -->
<g id="edge30_Node000014_Node000005" class="edge">
<title>Node14&#45;&gt;Node5</title>
<g id="a_edge30_Node000014_Node000005"><a xlink:title=" ">
<path fill="none" stroke="#63b8ff" d="M590.7,-287.1C569.86,-279.73 541.95,-267.86 521,-251.5 499.35,-234.6 452.93,-170.72 430.56,-139.09"/>
<polygon fill="#63b8ff" stroke="#63b8ff" points="433.69,-137.46 425.08,-131.3 427.97,-141.49 433.69,-137.46"/>
</a>
</g>
</g>
<!-- Node14&#45;&gt;Node10 -->
<g id="edge33_Node000014_Node000010" class="edge">
<title>Node14&#45;&gt;Node10</title>
<g id="a_edge33_Node000014_Node000010"><a xlink:title=" ">
<path fill="none" stroke="#63b8ff" d="M564.81,-287.06C525.22,-279.71 470.97,-267.86 425,-251.5 378.32,-234.88 327.31,-207.64 297.85,-190.93"/>
<polygon fill="#63b8ff" stroke="#63b8ff" points="299.74,-187.98 289.33,-186.04 296.26,-194.05 299.74,-187.98"/>
</a>
</g>
</g>
<!-- Node14&#45;&gt;Node11 -->
<g id="edge24_Node000014_Node000011" class="edge">
<title>Node14&#45;&gt;Node11</title>
<g id="a_edge24_Node000014_Node000011"><a xlink:title=" ">
<path fill="none" stroke="#63b8ff" d="M568.7,-287.05C510.27,-276.72 414.71,-259.83 351.34,-248.63"/>
<polygon fill="#63b8ff" stroke="#63b8ff" points="352.24,-245.23 341.78,-246.94 351.02,-252.12 352.24,-245.23"/>
</a>
</g>
</g>
<!-- Node14&#45;&gt;Node15 -->
<g id="edge26_Node000014_Node000015" class="edge">
<title>Node14&#45;&gt;Node15</title>
<g id="a_edge26_Node000014_Node000015"><a xlink:title=" ">
<path fill="none" stroke="#63b8ff" d="M672.38,-287.05C733.18,-276.53 833.35,-259.18 897.99,-247.99"/>
<polygon fill="#63b8ff" stroke="#63b8ff" points="898.48,-251.46 907.74,-246.3 897.29,-244.56 898.48,-251.46"/>
</a>
</g>
</g>
<!-- Node17 -->
<g id="Node000017" class="node">
<title>Node17</title>
<g id="a_Node000017"><a xlink:title=" ">
<polygon fill="#e0e0e0" stroke="#999999" points="784.12,-245.88 723.88,-245.88 723.88,-226.62 784.12,-226.62 784.12,-245.88"/>
<text xml:space="preserve" text-anchor="middle" x="754" y="-232.38" font-family="Helvetica,sans-Serif" font-size="10.00">version.all</text>
</a>
</g>
</g>
<!-- Node14&#45;&gt;Node17 -->
<g id="edge31_Node000014_Node000017" class="edge">
<title>Node14&#45;&gt;Node17</title>
<g id="a_edge31_Node000014_Node000017"><a xlink:title=" ">
<path fill="none" stroke="#63b8ff" d="M640.64,-287.05C662.64,-277.39 697.72,-261.98 723.03,-250.86"/>
<polygon fill="#63b8ff" stroke="#63b8ff" points="724.42,-254.07 732.17,-246.84 721.6,-247.66 724.42,-254.07"/>
</a>
</g>
</g>
<!-- Node18 -->
<g id="Node000018" class="node">
<title>Node18</title>
<g id="a_Node000018"><a xlink:title=" ">
<polygon fill="#e0e0e0" stroke="#999999" points="853.62,-245.88 802.38,-245.88 802.38,-226.62 853.62,-226.62 853.62,-245.88"/>
<text xml:space="preserve" text-anchor="middle" x="828" y="-232.38" font-family="Helvetica,sans-Serif" font-size="10.00">stddef.h</text>
</a>
</g>
</g>
<!-- Node14&#45;&gt;Node18 -->
<g id="edge32_Node000014_Node000018" class="edge">
<title>Node14&#45;&gt;Node18</title>
<g id="a_edge32_Node000014_Node000018"><a xlink:title=" ">
<path fill="none" stroke="#63b8ff" d="M661.7,-287.03C697.03,-278.92 748.83,-266.12 793,-251.5 794.15,-251.12 795.32,-250.72 796.5,-250.3"/>
<polygon fill="#63b8ff" stroke="#63b8ff" points="797.54,-253.65 805.66,-246.84 795.06,-247.1 797.54,-253.65"/>
</a>
</g>
</g>
<!-- Node19 -->
<g id="Node000019" class="node">
<title>Node19</title>
<g id="a_Node000019"><a xlink:title=" ">
<polygon fill="#e0e0e0" stroke="#999999" points="577.75,-245.88 530.25,-245.88 530.25,-226.62 577.75,-226.62 577.75,-245.88"/>
<text xml:space="preserve" text-anchor="middle" x="554" y="-232.38" font-family="Helvetica,sans-Serif" font-size="10.00">stdlib.h</text>
</a>
</g>
</g>
<!-- Node14&#45;&gt;Node19 -->
<g id="edge34_Node000014_Node000019" class="edge">
<title>Node14&#45;&gt;Node19</title>
<g id="a_edge34_Node000014_Node000019"><a xlink:title=" ">
<path fill="none" stroke="#63b8ff" d="M609.98,-287.18C600.09,-278.37 584.74,-264.68 572.62,-253.86"/>
<polygon fill="#63b8ff" stroke="#63b8ff" points="575.04,-251.33 565.25,-247.28 570.38,-256.55 575.04,-251.33"/>
</a>
</g>
</g>
<!-- Node20 -->
<g id="Node000020" class="node">
<title>Node20</title>
<g id="a_Node000020"><a xlink:title=" ">
<polygon fill="#e0e0e0" stroke="#999999" points="644.12,-245.88 595.88,-245.88 595.88,-226.62 644.12,-226.62 644.12,-245.88"/>
<text xml:space="preserve" text-anchor="middle" x="620" y="-232.38" font-family="Helvetica,sans-Serif" font-size="10.00">string.h</text>
</a>
</g>
</g>
<!-- Node14&#45;&gt;Node20 -->
<g id="edge35_Node000014_Node000020" class="edge">
<title>Node14&#45;&gt;Node20</title>
<g id="a_edge35_Node000014_Node000020"><a xlink:title=" ">
<path fill="none" stroke="#63b8ff" d="M620,-287.18C620,-279.4 620,-267.83 620,-257.78"/>
<polygon fill="#63b8ff" stroke="#63b8ff" points="623.5,-257.79 620,-247.79 616.5,-257.79 623.5,-257.79"/>
</a>
</g>
</g>
<!-- Node21 -->
<g id="Node000021" class="node">
<title>Node21</title>
<g id="a_Node000021"><a xlink:title=" ">
<polygon fill="#e0e0e0" stroke="#999999" points="705.5,-245.88 662.5,-245.88 662.5,-226.62 705.5,-226.62 705.5,-245.88"/>
<text xml:space="preserve" text-anchor="middle" x="684" y="-232.38" font-family="Helvetica,sans-Serif" font-size="10.00">time.h</text>
</a>
</g>
</g>
<!-- Node14&#45;&gt;Node21 -->
<g id="edge36_Node000014_Node000021" class="edge">
<title>Node14&#45;&gt;Node21</title>
<g id="a_edge36_Node000014_Node000021"><a xlink:title=" ">
<path fill="none" stroke="#63b8ff" d="M629.72,-287.18C639.31,-278.37 654.19,-264.68 665.94,-253.86"/>
<polygon fill="#63b8ff" stroke="#63b8ff" points="668.08,-256.65 673.07,-247.3 663.35,-251.5 668.08,-256.65"/>
</a>
</g>
</g>
<!-- Node15&#45;&gt;Node5 -->
<g id="edge27_Node000015_Node000005" class="edge">
<title>Node15&#45;&gt;Node5</title>
<g id="a_edge27_Node000015_Node000005"><a xlink:title=" ">
<path fill="none" stroke="#63b8ff" d="M919.73,-226.2C911.87,-224.46 903.68,-222.66 896,-221 730.07,-185.19 531.3,-144.3 452.56,-128.18"/>
<polygon fill="#63b8ff" stroke="#63b8ff" points="453.38,-124.78 442.88,-126.2 451.98,-131.64 453.38,-124.78"/>
</a>
</g>
</g>
<!-- Node15&#45;&gt;Node8 -->
<g id="edge28_Node000015_Node000008" class="edge">
<title>Node15&#45;&gt;Node8</title>
<g id="a_edge28_Node000015_Node000008"><a xlink:title=" ">
<path fill="none" stroke="#63b8ff" d="M935.45,-226.17C840.34,-190.97 495.97,-63.53 386.59,-23.06"/>
<polygon fill="#63b8ff" stroke="#63b8ff" points="387.89,-19.81 377.3,-19.62 385.46,-26.37 387.89,-19.81"/>
</a>
</g>
</g>
<!-- Node16 -->
<g id="Node000016" class="node">
<title>Node16</title>
<g id="a_Node000016"><a xlink:href="prefs_8x.html" target="_top" xlink:title=" ">
<polygon fill="white" stroke="#666666" points="983,-185 937,-185 937,-165.75 983,-165.75 983,-185"/>
<text xml:space="preserve" text-anchor="middle" x="960" y="-171.5" font-family="Helvetica,sans-Serif" font-size="10.00">prefs.x</text>
</a>
</g>
</g>
<!-- Node15&#45;&gt;Node16 -->
<g id="edge29_Node000015_Node000016" class="edge">
<title>Node15&#45;&gt;Node16</title>
<g id="a_edge29_Node000015_Node000016"><a xlink:title=" ">
<path fill="none" stroke="#63b8ff" d="M960,-226.31C960,-218.53 960,-206.95 960,-196.91"/>
<polygon fill="#63b8ff" stroke="#63b8ff" points="963.5,-196.91 960,-186.91 956.5,-196.91 963.5,-196.91"/>
</a>
</g>
</g>
<!-- Node22&#45;&gt;Node4 -->
<g id="edge42_Node000022_Node000004" class="edge">
<title>Node22&#45;&gt;Node4</title>
<g id="a_edge42_Node000022_Node000004"><a xlink:title=" ">
<path fill="none" stroke="#63b8ff" d="M1065.56,-226.15C1050.27,-224.28 1034.09,-222.44 1019,-221 774.37,-197.69 478.98,-182.8 376.84,-178.03"/>
<polygon fill="#63b8ff" stroke="#63b8ff" points="377.3,-174.55 367.15,-177.59 376.97,-181.54 377.3,-174.55"/>
</a>
</g>
</g>
<!-- Node22&#45;&gt;Node8 -->
<g id="edge43_Node000022_Node000008" class="edge">
<title>Node22&#45;&gt;Node8</title>
<g id="a_edge43_Node000022_Node000008"><a xlink:title=" ">
<path fill="none" stroke="#63b8ff" d="M1132.14,-226.53C1128.68,-196.57 1112.85,-97.4 1052,-55.25 997.05,-17.18 520.8,-11.59 387.53,-10.77"/>
<polygon fill="#63b8ff" stroke="#63b8ff" points="387.6,-7.27 377.59,-10.71 387.57,-14.27 387.6,-7.27"/>
</a>
</g>
</g>
<!-- Node23&#45;&gt;Node3 -->
<g id="edge45_Node000023_Node000003" class="edge">
<title>Node23&#45;&gt;Node3</title>
<g id="a_edge45_Node000023_Node000003"><a xlink:title=" ">
<path fill="none" stroke="#63b8ff" d="M162.73,-226.14C191.96,-198.79 279.27,-117.09 316.68,-82.08"/>
<polygon fill="#63b8ff" stroke="#63b8ff" points="318.64,-85.04 323.55,-75.65 313.86,-79.93 318.64,-85.04"/>
</a>
</g>
</g>
<!-- Node23&#45;&gt;Node10 -->
<g id="edge46_Node000023_Node000010" class="edge">
<title>Node23&#45;&gt;Node10</title>
<g id="a_edge46_Node000023_Node000010"><a xlink:title=" ">
<path fill="none" stroke="#63b8ff" d="M171.49,-226.18C191.01,-216.6 222.04,-201.38 244.65,-190.28"/>
<polygon fill="#63b8ff" stroke="#63b8ff" points="245.89,-193.57 253.33,-186.03 242.81,-187.29 245.89,-193.57"/>
</a>
</g>
</g>
<!-- Node24&#45;&gt;Node4 -->
<g id="edge53_Node000024_Node000004" class="edge">
<title>Node24&#45;&gt;Node4</title>
<g id="a_edge53_Node000024_Node000004"><a xlink:title=" ">
<path fill="none" stroke="#63b8ff" d="M99.3,-226.16C105.77,-224.34 112.59,-222.53 119,-221 197.87,-202.21 221.43,-203.28 303.31,-185.49"/>
<polygon fill="#63b8ff" stroke="#63b8ff" points="303.93,-188.93 312.94,-183.36 302.42,-182.1 303.93,-188.93"/>
</a>
</g>
</g>
<!-- Node24&#45;&gt;Node6 -->
<g id="edge48_Node000024_Node000006" class="edge">
<title>Node24&#45;&gt;Node6</title>
<g id="a_edge48_Node000024_Node000006"><a xlink:title=" ">
<path fill="none" stroke="#63b8ff" d="M70.4,-226.14C74.46,-199.71 86.3,-122.54 91.94,-85.78"/>
<polygon fill="#63b8ff" stroke="#63b8ff" points="95.37,-86.53 93.43,-76.11 88.45,-85.47 95.37,-86.53"/>
</a>
</g>
</g>
<!-- Node24&#45;&gt;Node8 -->
<g id="edge54_Node000024_Node000008" class="edge">
<title>Node24&#45;&gt;Node8</title>
<g id="a_edge54_Node000024_Node000008"><a xlink:title=" ">
<path fill="none" stroke="#63b8ff" d="M90.25,-226.17C110.05,-217.19 139.91,-202.32 163,-185 227.55,-136.58 228.61,-107.62 290,-55.25 302.35,-44.72 317.11,-34.16 329.24,-25.97"/>
<polygon fill="#63b8ff" stroke="#63b8ff" points="331.04,-28.97 337.44,-20.52 327.17,-23.14 331.04,-28.97"/>
</a>
</g>
</g>
<!-- Node25 -->
<g id="Node000025" class="node">
<title>Node25</title>
<g id="a_Node000025"><a xlink:href="listview_8h.html" target="_top" xlink:title=" ">
<polygon fill="white" stroke="#666666" points="153.88,-185 98.12,-185 98.12,-165.75 153.88,-165.75 153.88,-185"/>
<text xml:space="preserve" text-anchor="middle" x="126" y="-171.5" font-family="Helvetica,sans-Serif" font-size="10.00">listview.h</text>
</a>
</g>
</g>
<!-- Node24&#45;&gt;Node25 -->
<g id="edge49_Node000024_Node000025" class="edge">
<title>Node24&#45;&gt;Node25</title>
<g id="a_edge49_Node000024_Node000025"><a xlink:title=" ">
<path fill="none" stroke="#63b8ff" d="M77.66,-226.31C86.03,-217.66 98.93,-204.34 109.3,-193.62"/>
<polygon fill="#63b8ff" stroke="#63b8ff" points="111.77,-196.11 116.21,-186.49 106.74,-191.24 111.77,-196.11"/>
</a>
</g>
</g>
<!-- Node25&#45;&gt;Node5 -->
<g id="edge51_Node000025_Node000005" class="edge">
<title>Node25&#45;&gt;Node5</title>
<g id="a_edge51_Node000025_Node000005"><a xlink:title=" ">
<path fill="none" stroke="#63b8ff" d="M154.26,-169.22C208.09,-159.4 325.14,-138.06 383.49,-127.42"/>
<polygon fill="#63b8ff" stroke="#63b8ff" points="383.98,-130.89 393.19,-125.65 382.72,-124 383.98,-130.89"/>
</a>
</g>
</g>
<!-- Node25&#45;&gt;Node6 -->
<g id="edge50_Node000025_Node000006" class="edge">
<title>Node25&#45;&gt;Node6</title>
<g id="a_edge50_Node000025_Node000006"><a xlink:title=" ">
<path fill="none" stroke="#63b8ff" d="M123.46,-165.5C118.51,-148.17 107.46,-109.48 100.67,-85.74"/>
<polygon fill="#63b8ff" stroke="#63b8ff" points="104.1,-84.99 97.99,-76.33 97.37,-86.91 104.1,-84.99"/>
</a>
</g>
</g>
<!-- Node25&#45;&gt;Node8 -->
<g id="edge52_Node000025_Node000008" class="edge">
<title>Node25&#45;&gt;Node8</title>
<g id="a_edge52_Node000025_Node000008"><a xlink:title=" ">
<path fill="none" stroke="#63b8ff" d="M126.47,-165.33C128.13,-143.06 135.61,-85.2 169,-55.25 210.56,-17.97 277.96,-10.52 318.62,-9.72"/>
<polygon fill="#63b8ff" stroke="#63b8ff" points="318.58,-13.22 328.56,-9.67 318.54,-6.22 318.58,-13.22"/>
</a>
</g>
</g>
<!-- Node26&#45;&gt;Node10 -->
<g id="edge57_Node000026_Node000010" class="edge">
<title>Node26&#45;&gt;Node10</title>
<g id="a_edge57_Node000026_Node000010"><a xlink:title=" ">
<path fill="none" stroke="#63b8ff" d="M221.13,-287.31C218.48,-272.75 215.01,-243.12 225,-221 230.2,-209.49 239.91,-199.57 249.25,-192.03"/>
<polygon fill="#63b8ff" stroke="#63b8ff" points="251.13,-194.99 257.07,-186.21 246.95,-189.37 251.13,-194.99"/>
</a>
</g>
</g>
</g>
</svg>
