<?xml version="1.0" encoding="UTF-8" standalone="no"?>
<!DOCTYPE svg PUBLIC "-//W3C//DTD SVG 1.1//EN"
 "http://www.w3.org/Graphics/SVG/1.1/DTD/svg11.dtd">
<!-- Generated by graphviz version 13.1.0 (20250701.0955)
 -->
<!-- Title: PGB_dismiss Pages: 1 -->
<svg width="2730pt" height="340pt"
 viewBox="0.00 0.00 2730.00 340.00" xmlns="http://www.w3.org/2000/svg" xmlns:xlink="http://www.w3.org/1999/xlink">
<g id="graph0" class="graph" transform="scale(1 1) rotate(0) translate(4 335.6)">
<title>PGB_dismiss</title>
<!-- Node1 -->
<g id="Node000001" class="node">
<title>Node1</title>
<g id="a_Node000001"><a xlink:title=" ">
<polygon fill="#999999" stroke="#666666" points="2721.5,-289.6 2645.5,-289.6 2645.5,-270.35 2721.5,-270.35 2721.5,-289.6"/>
<text xml:space="preserve" text-anchor="middle" x="2683.5" y="-276.1" font-family="Helvetica,sans-Serif" font-size="10.00">PGB_dismiss</text>
</a>
</g>
</g>
<!-- Node2 -->
<g id="Node000002" class="node">
<title>Node2</title>
<g id="a_Node000002"><a xlink:href="credits__scene_8c.html#a365a665934b8a44fd598265734bf1ac6" target="_top" xlink:title=" ">
<polygon fill="white" stroke="#666666" points="2609.5,-328.6 2473.5,-328.6 2473.5,-309.35 2609.5,-309.35 2609.5,-328.6"/>
<text xml:space="preserve" text-anchor="middle" x="2541.5" y="-315.1" font-family="Helvetica,sans-Serif" font-size="10.00">PGB_CreditsScene_update</text>
</a>
</g>
</g>
<!-- Node1&#45;&gt;Node2 -->
<g id="edge1_Node000001_Node000002" class="edge">
<title>Node1&#45;&gt;Node2</title>
<g id="a_edge1_Node000001_Node000002"><a xlink:title=" ">
<path fill="none" stroke="#63b8ff" d="M2635.51,-293.07C2616.88,-298.26 2595.81,-304.13 2578.43,-308.97"/>
<polygon fill="#63b8ff" stroke="#63b8ff" points="2636.29,-296.48 2644.99,-290.43 2634.42,-289.74 2636.29,-296.48"/>
</a>
</g>
</g>
<!-- Node14 -->
<g id="Node000014" class="node">
<title>Node14</title>
<g id="a_Node000014"><a xlink:href="modal_8c.html#a1527a479d938bf97d368de70fd7d6e3a" target="_top" xlink:title=" ">
<polygon fill="white" stroke="#666666" points="2593,-211.6 2490,-211.6 2490,-192.35 2593,-192.35 2593,-211.6"/>
<text xml:space="preserve" text-anchor="middle" x="2541.5" y="-198.1" font-family="Helvetica,sans-Serif" font-size="10.00">PGB_Modal_update</text>
</a>
</g>
</g>
<!-- Node1&#45;&gt;Node14 -->
<g id="edge14_Node000001_Node000014" class="edge">
<title>Node1&#45;&gt;Node14</title>
<g id="a_edge14_Node000001_Node000014"><a xlink:title=" ">
<path fill="none" stroke="#63b8ff" d="M2654.51,-264.39C2626.5,-248.78 2584.25,-225.24 2560.45,-211.98"/>
<polygon fill="#63b8ff" stroke="#63b8ff" points="2652.72,-267.4 2663.16,-269.21 2656.13,-261.28 2652.72,-267.4"/>
</a>
</g>
</g>
<!-- Node26 -->
<g id="Node000026" class="node">
<title>Node26</title>
<g id="a_Node000026"><a xlink:href="settings__scene_8c.html#a5cfb11a3e4e6ecfc7430e17d5e8ebc10" target="_top" xlink:title=" ">
<polygon fill="white" stroke="#666666" points="2276.75,-295.23 2132.5,-295.23 2132.5,-264.73 2276.75,-264.73 2276.75,-295.23"/>
<text xml:space="preserve" text-anchor="start" x="2140.5" y="-281.73" font-family="Helvetica,sans-Serif" font-size="10.00">PGB_SettingsScene_attempt</text>
<text xml:space="preserve" text-anchor="middle" x="2204.62" y="-270.48" font-family="Helvetica,sans-Serif" font-size="10.00">Dismiss</text>
</a>
</g>
</g>
<!-- Node1&#45;&gt;Node26 -->
<g id="edge40_Node000001_Node000026" class="edge">
<title>Node1&#45;&gt;Node26</title>
<g id="a_edge40_Node000001_Node000026"><a xlink:title=" ">
<path fill="none" stroke="#63b8ff" d="M2633.77,-279.98C2549.28,-279.98 2375.24,-279.98 2277.07,-279.98"/>
<polygon fill="#63b8ff" stroke="#63b8ff" points="2633.57,-283.48 2643.57,-279.98 2633.57,-276.48 2633.57,-283.48"/>
</a>
</g>
</g>
<!-- Node3 -->
<g id="Node000003" class="node">
<title>Node3</title>
<g id="a_Node000003"><a xlink:href="credits__scene_8c.html#a383fece6abe27ee451fa01b127812a6d" target="_top" xlink:title=" ">
<polygon fill="white" stroke="#666666" points="2437.5,-330.6 2312.75,-330.6 2312.75,-311.35 2437.5,-311.35 2437.5,-330.6"/>
<text xml:space="preserve" text-anchor="middle" x="2375.12" y="-317.1" font-family="Helvetica,sans-Serif" font-size="10.00">PGB_CreditsScene_new</text>
</a>
</g>
</g>
<!-- Node2&#45;&gt;Node3 -->
<g id="edge2_Node000002_Node000003" class="edge">
<title>Node2&#45;&gt;Node3</title>
<g id="a_edge2_Node000002_Node000003"><a xlink:title=" ">
<path fill="none" stroke="#63b8ff" d="M2461.83,-319.94C2453.76,-320.04 2445.65,-320.13 2437.8,-320.23"/>
<polygon fill="#63b8ff" stroke="#63b8ff" points="2461.7,-323.44 2471.65,-319.82 2461.61,-316.44 2461.7,-323.44"/>
</a>
</g>
</g>
<!-- Node4 -->
<g id="Node000004" class="node">
<title>Node4</title>
<g id="a_Node000004"><a xlink:href="library__scene_8c.html#a226d6ce979bacb7e37c185d5b32a7361" target="_top" xlink:title=" ">
<polygon fill="white" stroke="#666666" points="1926.75,-331.6 1767.5,-331.6 1767.5,-312.35 1926.75,-312.35 1926.75,-331.6"/>
<text xml:space="preserve" text-anchor="middle" x="1847.12" y="-318.1" font-family="Helvetica,sans-Serif" font-size="10.00">PGB_LibraryScene_showCredits</text>
</a>
</g>
</g>
<!-- Node3&#45;&gt;Node4 -->
<g id="edge3_Node000003_Node000004" class="edge">
<title>Node3&#45;&gt;Node4</title>
<g id="a_edge3_Node000003_Node000004"><a xlink:title=" ">
<path fill="none" stroke="#63b8ff" d="M2301.18,-321.12C2202.8,-321.31 2028.27,-321.64 1926.96,-321.83"/>
<polygon fill="#63b8ff" stroke="#63b8ff" points="2300.99,-324.62 2310.98,-321.1 2300.98,-317.62 2300.99,-324.62"/>
</a>
</g>
</g>
<!-- Node5 -->
<g id="Node000005" class="node">
<title>Node5</title>
<g id="a_Node000005"><a xlink:href="library__scene_8c.html#ab295872b275c54cb2800b2b71fd163ef" target="_top" xlink:title=" ">
<polygon fill="white" stroke="#666666" points="884.25,-224.6 755.75,-224.6 755.75,-205.35 884.25,-205.35 884.25,-224.6"/>
<text xml:space="preserve" text-anchor="middle" x="820" y="-211.1" font-family="Helvetica,sans-Serif" font-size="10.00">PGB_LibraryScene_menu</text>
</a>
</g>
</g>
<!-- Node4&#45;&gt;Node5 -->
<g id="edge4_Node000004_Node000005" class="edge">
<title>Node4&#45;&gt;Node5</title>
<g id="a_edge4_Node000004_Node000005"><a xlink:title=" ">
<path fill="none" stroke="#63b8ff" d="M1755.79,-321.1C1693.15,-320.56 1607.82,-319.98 1532.62,-319.98 1532.62,-319.98 1532.62,-319.98 1183.62,-319.98 1047.95,-319.98 894.6,-251.33 840.86,-225.05"/>
<polygon fill="#63b8ff" stroke="#63b8ff" points="1755.67,-324.6 1765.7,-321.18 1755.73,-317.6 1755.67,-324.6"/>
</a>
</g>
</g>
<!-- Node6 -->
<g id="Node000006" class="node">
<title>Node6</title>
<g id="a_Node000006"><a xlink:href="library__scene_8c.html#aa5c386d39121b53fba45d899df654188" target="_top" xlink:title=" ">
<polygon fill="white" stroke="#666666" points="719.75,-101.6 597.25,-101.6 597.25,-82.35 719.75,-82.35 719.75,-101.6"/>
<text xml:space="preserve" text-anchor="middle" x="658.5" y="-88.1" font-family="Helvetica,sans-Serif" font-size="10.00">PGB_LibraryScene_new</text>
</a>
</g>
</g>
<!-- Node5&#45;&gt;Node6 -->
<g id="edge5_Node000005_Node000006" class="edge">
<title>Node5&#45;&gt;Node6</title>
<g id="a_edge5_Node000005_Node000006"><a xlink:title=" ">
<path fill="none" stroke="#63b8ff" d="M796.85,-197.9C762.98,-171.78 699.41,-122.76 672.29,-101.84"/>
<polygon fill="#63b8ff" stroke="#63b8ff" points="794.69,-200.65 804.75,-203.99 798.97,-195.11 794.69,-200.65"/>
</a>
</g>
</g>
<!-- Node7 -->
<g id="Node000007" class="node">
<title>Node7</title>
<g id="a_Node000007"><a xlink:href="app_8c.html#ab80501f53b757a79772b96ec99e3dc7e" target="_top" xlink:title=" ">
<polygon fill="white" stroke="#666666" points="534.25,-58.6 441.75,-58.6 441.75,-39.35 534.25,-39.35 534.25,-58.6"/>
<text xml:space="preserve" text-anchor="middle" x="488" y="-45.1" font-family="Helvetica,sans-Serif" font-size="10.00">PGB_goToLibrary</text>
</a>
</g>
</g>
<!-- Node6&#45;&gt;Node7 -->
<g id="edge6_Node000006_Node000007" class="edge">
<title>Node6&#45;&gt;Node7</title>
<g id="a_edge6_Node000006_Node000007"><a xlink:title=" ">
<path fill="none" stroke="#63b8ff" d="M606.84,-79.05C581.76,-72.65 551.92,-65.04 528.55,-59.07"/>
<polygon fill="#63b8ff" stroke="#63b8ff" points="605.97,-82.44 616.53,-81.52 607.7,-75.66 605.97,-82.44"/>
</a>
</g>
</g>
<!-- Node10 -->
<g id="Node000010" class="node">
<title>Node10</title>
<g id="a_Node000010"><a xlink:href="image__conversion__scene_8c.html#a60d0e43ab25a8639bbb6d1f4e758edd3" target="_top" xlink:title=" ">
<polygon fill="white" stroke="#666666" points="561.25,-107.23 414.75,-107.23 414.75,-76.73 561.25,-76.73 561.25,-107.23"/>
<text xml:space="preserve" text-anchor="start" x="422.75" y="-93.73" font-family="Helvetica,sans-Serif" font-size="10.00">PGB_ImageConversionScene</text>
<text xml:space="preserve" text-anchor="middle" x="488" y="-82.48" font-family="Helvetica,sans-Serif" font-size="10.00">_update</text>
</a>
</g>
</g>
<!-- Node6&#45;&gt;Node10 -->
<g id="edge9_Node000006_Node000010" class="edge">
<title>Node6&#45;&gt;Node10</title>
<g id="a_edge9_Node000006_Node000010"><a xlink:title=" ">
<path fill="none" stroke="#63b8ff" d="M585.9,-91.98C577.86,-91.98 569.65,-91.98 561.6,-91.98"/>
<polygon fill="#63b8ff" stroke="#63b8ff" points="585.63,-95.48 595.63,-91.98 585.63,-88.48 585.63,-95.48"/>
</a>
</g>
</g>
<!-- Node12 -->
<g id="Node000012" class="node">
<title>Node12</title>
<g id="a_Node000012"><a xlink:href="app_8c.html#af256ea7a9c51fcbd49cb0007facbb8ea" target="_top" xlink:title=" ">
<polygon fill="white" stroke="#666666" points="166.25,-124.6 111.25,-124.6 111.25,-105.35 166.25,-105.35 166.25,-124.6"/>
<text xml:space="preserve" text-anchor="middle" x="138.75" y="-111.1" font-family="Helvetica,sans-Serif" font-size="10.00">PGB_init</text>
</a>
</g>
</g>
<!-- Node6&#45;&gt;Node12 -->
<g id="edge13_Node000006_Node000012" class="edge">
<title>Node6&#45;&gt;Node12</title>
<g id="a_edge13_Node000006_Node000012"><a xlink:title=" ">
<path fill="none" stroke="#63b8ff" d="M614.41,-105.11C597.95,-109.49 578.89,-113.81 561.25,-115.98 413.08,-134.17 233.4,-122.74 166.52,-117.34"/>
<polygon fill="#63b8ff" stroke="#63b8ff" points="615.18,-108.53 623.89,-102.49 613.32,-101.78 615.18,-108.53"/>
</a>
</g>
</g>
<!-- Node8 -->
<g id="Node000008" class="node">
<title>Node8</title>
<g id="a_Node000008"><a xlink:href="game__scene_8c.html#a6a4a6f0408da311dc566eb187e497889" target="_top" xlink:title=" ">
<polygon fill="white" stroke="#666666" points="360,-58.6 227.75,-58.6 227.75,-39.35 360,-39.35 360,-58.6"/>
<text xml:space="preserve" text-anchor="middle" x="293.88" y="-45.1" font-family="Helvetica,sans-Serif" font-size="10.00">PGB_LibraryConfirmModal</text>
</a>
</g>
</g>
<!-- Node7&#45;&gt;Node8 -->
<g id="edge7_Node000007_Node000008" class="edge">
<title>Node7&#45;&gt;Node8</title>
<g id="a_edge7_Node000007_Node000008"><a xlink:title=" ">
<path fill="none" stroke="#63b8ff" d="M430.03,-48.98C408.17,-48.98 383.05,-48.98 360.44,-48.98"/>
<polygon fill="#63b8ff" stroke="#63b8ff" points="429.96,-52.48 439.96,-48.98 429.96,-45.48 429.96,-52.48"/>
</a>
</g>
</g>
<!-- Node9 -->
<g id="Node000009" class="node">
<title>Node9</title>
<g id="a_Node000009"><a xlink:href="game__scene_8c.html#a113df24bb94bafcdbb9235ec8648e02f" target="_top" xlink:title=" ">
<polygon fill="white" stroke="#666666" points="173,-39.6 104.5,-39.6 104.5,-20.35 173,-20.35 173,-39.6"/>
<text xml:space="preserve" text-anchor="middle" x="138.75" y="-26.1" font-family="Helvetica,sans-Serif" font-size="10.00">__section__</text>
</a>
</g>
</g>
<!-- Node8&#45;&gt;Node9 -->
<g id="edge8_Node000008_Node000009" class="edge">
<title>Node8&#45;&gt;Node9</title>
<g id="a_edge8_Node000008_Node000009"><a xlink:title=" ">
<path fill="none" stroke="#63b8ff" d="M216.47,-39.5C201.28,-37.61 186.08,-35.73 173.27,-34.14"/>
<polygon fill="#63b8ff" stroke="#63b8ff" points="215.64,-42.92 225.99,-40.68 216.5,-35.98 215.64,-42.92"/>
</a>
</g>
</g>
<!-- Node11 -->
<g id="Node000011" class="node">
<title>Node11</title>
<g id="a_Node000011"><a xlink:href="image__conversion__scene_8c.html#aa3559936491ddf78b9cf06fcbdd32d22" target="_top" xlink:title=" ">
<polygon fill="white" stroke="#666666" points="378.75,-103.6 209,-103.6 209,-84.35 378.75,-84.35 378.75,-103.6"/>
<text xml:space="preserve" text-anchor="middle" x="293.88" y="-90.1" font-family="Helvetica,sans-Serif" font-size="10.00">PGB_ImageConversionScene_new</text>
</a>
</g>
</g>
<!-- Node10&#45;&gt;Node11 -->
<g id="edge10_Node000010_Node000011" class="edge">
<title>Node10&#45;&gt;Node11</title>
<g id="a_edge10_Node000010_Node000011"><a xlink:title=" ">
<path fill="none" stroke="#63b8ff" d="M402.94,-92.85C395.07,-92.94 387.09,-93.02 379.22,-93.1"/>
<polygon fill="#63b8ff" stroke="#63b8ff" points="402.89,-96.36 412.85,-92.75 402.82,-89.36 402.89,-96.36"/>
</a>
</g>
</g>
<!-- Node11&#45;&gt;Node12 -->
<g id="edge11_Node000011_Node000012" class="edge">
<title>Node11&#45;&gt;Node12</title>
<g id="a_edge11_Node000011_Node000012"><a xlink:title=" ">
<path fill="none" stroke="#63b8ff" d="M208.39,-105.57C193.26,-107.64 178.55,-109.66 166.65,-111.29"/>
<polygon fill="#63b8ff" stroke="#63b8ff" points="208.52,-109.08 217.95,-104.25 207.57,-102.15 208.52,-109.08"/>
</a>
</g>
</g>
<!-- Node13 -->
<g id="Node000013" class="node">
<title>Node13</title>
<g id="a_Node000013"><a xlink:href="main_8c.html#a77034286b8c64d0735c69535c5e9b732" target="_top" xlink:title=" ">
<polygon fill="white" stroke="#666666" points="68.5,-124.6 0,-124.6 0,-105.35 68.5,-105.35 68.5,-124.6"/>
<text xml:space="preserve" text-anchor="middle" x="34.25" y="-111.1" font-family="Helvetica,sans-Serif" font-size="10.00">__section__</text>
</a>
</g>
</g>
<!-- Node12&#45;&gt;Node13 -->
<g id="edge12_Node000012_Node000013" class="edge">
<title>Node12&#45;&gt;Node13</title>
<g id="a_edge12_Node000012_Node000013"><a xlink:title=" ">
<path fill="none" stroke="#63b8ff" d="M99.48,-114.98C89.46,-114.98 78.74,-114.98 68.97,-114.98"/>
<polygon fill="#63b8ff" stroke="#63b8ff" points="99.31,-118.48 109.31,-114.98 99.31,-111.48 99.31,-118.48"/>
</a>
</g>
</g>
<!-- Node15 -->
<g id="Node000015" class="node">
<title>Node15</title>
<g id="a_Node000015"><a xlink:href="modal_8c.html#a3b0cd5e70689166a33a56d512d8577e5" target="_top" xlink:title=" ">
<polygon fill="white" stroke="#666666" points="2421,-171.6 2329.25,-171.6 2329.25,-152.35 2421,-152.35 2421,-171.6"/>
<text xml:space="preserve" text-anchor="middle" x="2375.12" y="-158.1" font-family="Helvetica,sans-Serif" font-size="10.00">PGB_Modal_new</text>
</a>
</g>
</g>
<!-- Node14&#45;&gt;Node15 -->
<g id="edge15_Node000014_Node000015" class="edge">
<title>Node14&#45;&gt;Node15</title>
<g id="a_edge15_Node000014_Node000015"><a xlink:title=" ">
<path fill="none" stroke="#63b8ff" d="M2487.84,-189.16C2465.11,-183.63 2438.91,-177.26 2417.59,-172.07"/>
<polygon fill="#63b8ff" stroke="#63b8ff" points="2487.01,-192.56 2497.55,-191.53 2488.66,-185.76 2487.01,-192.56"/>
</a>
</g>
</g>
<!-- Node15&#45;&gt;Node9 -->
<g id="edge16_Node000015_Node000009" class="edge">
<title>Node15&#45;&gt;Node9</title>
<g id="a_edge16_Node000015_Node000009"><a xlink:title=" ">
<path fill="none" stroke="#63b8ff" d="M2365.93,-141.9C2352.39,-111.63 2322.25,-55.2 2276.75,-29.98 2180.79,23.21 2140.34,-10.98 2030.62,-10.98 2030.62,-10.98 2030.62,-10.98 487,-10.98 371.68,-10.98 235.14,-21.56 173.24,-26.93"/>
<polygon fill="#63b8ff" stroke="#63b8ff" points="2362.55,-142.89 2369.71,-150.7 2368.98,-140.13 2362.55,-142.89"/>
</a>
</g>
</g>
<!-- Node16 -->
<g id="Node000016" class="node">
<title>Node16</title>
<g id="a_Node000016"><a xlink:href="library__scene_8c.html#ab61f378dd09afd7715687d7917da8d1a" target="_top" xlink:title=" ">
<polygon fill="white" stroke="#666666" points="2250.12,-58.6 2159.12,-58.6 2159.12,-39.35 2250.12,-39.35 2250.12,-58.6"/>
<text xml:space="preserve" text-anchor="middle" x="2204.62" y="-45.1" font-family="Helvetica,sans-Serif" font-size="10.00">CB_updatecheck</text>
</a>
</g>
</g>
<!-- Node15&#45;&gt;Node16 -->
<g id="edge17_Node000015_Node000016" class="edge">
<title>Node15&#45;&gt;Node16</title>
<g id="a_edge17_Node000015_Node000016"><a xlink:title=" ">
<path fill="none" stroke="#63b8ff" d="M2359.86,-142.98C2342.57,-121.32 2311.42,-86.39 2276.75,-66.98 2268.64,-62.44 2259.37,-59.02 2250.26,-56.46"/>
<polygon fill="#63b8ff" stroke="#63b8ff" points="2356.96,-144.96 2365.86,-150.71 2362.49,-140.66 2356.96,-144.96"/>
</a>
</g>
</g>
<!-- Node18 -->
<g id="Node000018" class="node">
<title>Node18</title>
<g id="a_Node000018"><a xlink:href="settings__scene_8c.html#a391e7ae486f08b8455185927863452ed" target="_top" xlink:title=" ">
<polygon fill="white" stroke="#666666" points="2255.38,-171.6 2153.88,-171.6 2153.88,-152.35 2255.38,-152.35 2255.38,-171.6"/>
<text xml:space="preserve" text-anchor="middle" x="2204.62" y="-158.1" font-family="Helvetica,sans-Serif" font-size="10.00">confirm_save_state</text>
</a>
</g>
</g>
<!-- Node15&#45;&gt;Node18 -->
<g id="edge20_Node000015_Node000018" class="edge">
<title>Node15&#45;&gt;Node18</title>
<g id="a_edge20_Node000015_Node000018"><a xlink:title=" ">
<path fill="none" stroke="#63b8ff" d="M2317.49,-161.98C2297.46,-161.98 2275.09,-161.98 2255.65,-161.98"/>
<polygon fill="#63b8ff" stroke="#63b8ff" points="2317.46,-165.48 2327.46,-161.98 2317.46,-158.48 2317.46,-165.48"/>
</a>
</g>
</g>
<!-- Node19 -->
<g id="Node000019" class="node">
<title>Node19</title>
<g id="a_Node000019"><a xlink:href="settings__scene_8c.html#a8057455d49efce21fc559d502d1b65dc" target="_top" xlink:title=" ">
<polygon fill="white" stroke="#666666" points="2083.75,-122.23 1975.5,-122.23 1975.5,-91.73 2083.75,-91.73 2083.75,-122.23"/>
<text xml:space="preserve" text-anchor="start" x="1983.5" y="-108.73" font-family="Helvetica,sans-Serif" font-size="10.00">settings_action_save</text>
<text xml:space="preserve" text-anchor="middle" x="2029.62" y="-97.48" font-family="Helvetica,sans-Serif" font-size="10.00">_state</text>
</a>
</g>
</g>
<!-- Node15&#45;&gt;Node19 -->
<g id="edge35_Node000015_Node000019" class="edge">
<title>Node15&#45;&gt;Node19</title>
<g id="a_edge35_Node000015_Node000019"><a xlink:title=" ">
<path fill="none" stroke="#63b8ff" d="M2318.03,-150.56C2304.54,-147.95 2290.15,-145.27 2276.75,-142.98 2210.55,-131.69 2133.97,-120.83 2084.03,-114.05"/>
<polygon fill="#63b8ff" stroke="#63b8ff" points="2317.15,-153.96 2327.64,-152.44 2318.5,-147.09 2317.15,-153.96"/>
</a>
</g>
</g>
<!-- Node25 -->
<g id="Node000025" class="node">
<title>Node25</title>
<g id="a_Node000025"><a xlink:href="game__scene_8c.html#ab923ed4c6ccad95026e85e252071716d" target="_top" xlink:title=" ">
<polygon fill="white" stroke="#666666" points="2264.38,-95.6 2144.88,-95.6 2144.88,-76.35 2264.38,-76.35 2264.38,-95.6"/>
<text xml:space="preserve" text-anchor="middle" x="2204.62" y="-82.1" font-family="Helvetica,sans-Serif" font-size="10.00">PGB_GameScene_new</text>
</a>
</g>
</g>
<!-- Node15&#45;&gt;Node25 -->
<g id="edge29_Node000015_Node000025" class="edge">
<title>Node15&#45;&gt;Node25</title>
<g id="a_edge29_Node000015_Node000025"><a xlink:title=" ">
<path fill="none" stroke="#63b8ff" d="M2347.46,-146.2C2328.22,-135.19 2301.39,-120.63 2276.75,-109.98 2264.79,-104.81 2251.32,-100.02 2239.34,-96.09"/>
<polygon fill="#63b8ff" stroke="#63b8ff" points="2345.59,-149.16 2356,-151.14 2349.1,-143.1 2345.59,-149.16"/>
</a>
</g>
</g>
<!-- Node15&#45;&gt;Node26 -->
<g id="edge31_Node000015_Node000026" class="edge">
<title>Node15&#45;&gt;Node26</title>
<g id="a_edge31_Node000015_Node000026"><a xlink:title=" ">
<path fill="none" stroke="#63b8ff" d="M2357.74,-180.42C2339.54,-200.02 2308.5,-230.9 2276.75,-250.98 2268.75,-256.04 2259.71,-260.52 2250.83,-264.36"/>
<polygon fill="#63b8ff" stroke="#63b8ff" points="2360.21,-182.91 2364.36,-173.16 2355.04,-178.19 2360.21,-182.91"/>
</a>
</g>
</g>
<!-- Node27 -->
<g id="Node000027" class="node">
<title>Node27</title>
<g id="a_Node000027"><a xlink:href="settings__scene_8c.html#ae138f8df889d309ab5c1474100b5e04e" target="_top" xlink:title=" ">
<polygon fill="white" stroke="#666666" points="1899.75,-212.23 1794.5,-212.23 1794.5,-181.73 1899.75,-181.73 1899.75,-212.23"/>
<text xml:space="preserve" text-anchor="start" x="1802.5" y="-198.73" font-family="Helvetica,sans-Serif" font-size="10.00">settings_action_load</text>
<text xml:space="preserve" text-anchor="middle" x="1847.12" y="-187.48" font-family="Helvetica,sans-Serif" font-size="10.00">_state</text>
</a>
</g>
</g>
<!-- Node15&#45;&gt;Node27 -->
<g id="edge33_Node000015_Node000027" class="edge">
<title>Node15&#45;&gt;Node27</title>
<g id="a_edge33_Node000015_Node000027"><a xlink:title=" ">
<path fill="none" stroke="#63b8ff" d="M2352.73,-178.71C2333.92,-192.29 2305.18,-210.39 2276.75,-217.98 2144.66,-253.25 1981.71,-227.17 1900,-209.57"/>
<polygon fill="#63b8ff" stroke="#63b8ff" points="2354.71,-181.6 2360.64,-172.82 2350.53,-175.99 2354.71,-181.6"/>
</a>
</g>
</g>
<!-- Node28 -->
<g id="Node000028" class="node">
<title>Node28</title>
<g id="a_Node000028"><a xlink:href="settings__scene_8c.html#a498486c7b338f8ace4aebad51faa1bce" target="_top" xlink:title=" ">
<polygon fill="white" stroke="#666666" points="2255,-208.6 2154.25,-208.6 2154.25,-189.35 2255,-189.35 2255,-208.6"/>
<text xml:space="preserve" text-anchor="middle" x="2204.62" y="-195.1" font-family="Helvetica,sans-Serif" font-size="10.00">settings_load_state</text>
</a>
</g>
</g>
<!-- Node15&#45;&gt;Node28 -->
<g id="edge36_Node000015_Node000028" class="edge">
<title>Node15&#45;&gt;Node28</title>
<g id="a_edge36_Node000015_Node000028"><a xlink:title=" ">
<path fill="none" stroke="#63b8ff" d="M2317.97,-174.31C2296.37,-179.05 2272,-184.4 2251.49,-188.91"/>
<polygon fill="#63b8ff" stroke="#63b8ff" points="2318.48,-177.78 2327.49,-172.22 2316.97,-170.95 2318.48,-177.78"/>
</a>
</g>
</g>
<!-- Node17 -->
<g id="Node000017" class="node">
<title>Node17</title>
<g id="a_Node000017"><a xlink:href="library__scene_8c.html#a0728002045c9cbbd68bdd34897b28da6" target="_top" xlink:title=" ">
<polygon fill="white" stroke="#666666" points="2096.5,-73.6 1962.75,-73.6 1962.75,-54.35 2096.5,-54.35 2096.5,-73.6"/>
<text xml:space="preserve" text-anchor="middle" x="2029.62" y="-60.1" font-family="Helvetica,sans-Serif" font-size="10.00">PGB_LibraryScene_update</text>
</a>
</g>
</g>
<!-- Node16&#45;&gt;Node17 -->
<g id="edge18_Node000016_Node000017" class="edge">
<title>Node16&#45;&gt;Node17</title>
<g id="a_edge18_Node000016_Node000017"><a xlink:title=" ">
<path fill="none" stroke="#63b8ff" d="M2147.62,-53.84C2131.44,-55.24 2113.63,-56.78 2096.89,-58.23"/>
<polygon fill="#63b8ff" stroke="#63b8ff" points="2147.91,-57.32 2157.57,-52.97 2147.3,-50.35 2147.91,-57.32"/>
</a>
</g>
</g>
<!-- Node17&#45;&gt;Node6 -->
<g id="edge19_Node000017_Node000006" class="edge">
<title>Node17&#45;&gt;Node6</title>
<g id="a_edge19_Node000017_Node000006"><a xlink:title=" ">
<path fill="none" stroke="#63b8ff" d="M1951.29,-68.94C1881.77,-72.96 1776.85,-77.98 1685.5,-77.98 1685.5,-77.98 1685.5,-77.98 1001.12,-77.98 902.59,-77.98 788.2,-83.87 719.95,-88.01"/>
<polygon fill="#63b8ff" stroke="#63b8ff" points="1951.27,-72.44 1961.05,-68.36 1950.86,-65.46 1951.27,-72.44"/>
</a>
</g>
</g>
<!-- Node18&#45;&gt;Node19 -->
<g id="edge21_Node000018_Node000019" class="edge">
<title>Node18&#45;&gt;Node19</title>
<g id="a_edge21_Node000018_Node000019"><a xlink:title=" ">
<path fill="none" stroke="#63b8ff" d="M2161.14,-148.47C2136.65,-140.69 2105.75,-130.86 2080.16,-122.73"/>
<polygon fill="#63b8ff" stroke="#63b8ff" points="2159.86,-151.74 2170.45,-151.43 2161.98,-145.07 2159.86,-151.74"/>
</a>
</g>
</g>
<!-- Node20 -->
<g id="Node000020" class="node">
<title>Node20</title>
<g id="a_Node000020"><a xlink:href="settings__scene_8c.html#a4b52b1fbb1659ff3a37571a03b66cc5f" target="_top" xlink:title=" ">
<polygon fill="white" stroke="#666666" points="1731.5,-205.6 1637.5,-205.6 1637.5,-186.35 1731.5,-186.35 1731.5,-205.6"/>
<text xml:space="preserve" text-anchor="middle" x="1684.5" y="-192.1" font-family="Helvetica,sans-Serif" font-size="10.00">getOptionsEntries</text>
</a>
</g>
</g>
<!-- Node19&#45;&gt;Node20 -->
<g id="edge22_Node000019_Node000020" class="edge">
<title>Node19&#45;&gt;Node20</title>
<g id="a_edge22_Node000019_Node000020"><a xlink:title=" ">
<path fill="none" stroke="#63b8ff" d="M1964.09,-122.8C1911.17,-135.89 1834.36,-155.16 1767.5,-172.98 1752.07,-177.09 1735.07,-181.83 1720.56,-185.93"/>
<polygon fill="#63b8ff" stroke="#63b8ff" points="1964.67,-126.26 1973.54,-120.46 1962.99,-119.46 1964.67,-126.26"/>
</a>
</g>
</g>
<!-- Node21 -->
<g id="Node000021" class="node">
<title>Node21</title>
<g id="a_Node000021"><a xlink:href="settings__scene_8c.html#a7a2a61c35c00f7990b0a85f16e5c9975" target="_top" xlink:title=" ">
<polygon fill="white" stroke="#666666" points="1249.25,-224.6 1120,-224.6 1120,-205.35 1249.25,-205.35 1249.25,-224.6"/>
<text xml:space="preserve" text-anchor="middle" x="1184.62" y="-211.1" font-family="Helvetica,sans-Serif" font-size="10.00">PGB_SettingsScene_new</text>
</a>
</g>
</g>
<!-- Node20&#45;&gt;Node21 -->
<g id="edge23_Node000020_Node000021" class="edge">
<title>Node20&#45;&gt;Node21</title>
<g id="a_edge23_Node000020_Node000021"><a xlink:title=" ">
<path fill="none" stroke="#63b8ff" d="M1625.86,-198.18C1532.09,-201.76 1347.18,-208.81 1249.52,-212.54"/>
<polygon fill="#63b8ff" stroke="#63b8ff" points="1625.74,-201.69 1635.6,-197.81 1625.47,-194.69 1625.74,-201.69"/>
</a>
</g>
</g>
<!-- Node23 -->
<g id="Node000023" class="node">
<title>Node23</title>
<g id="a_Node000023"><a xlink:href="settings__scene_8c.html#a53cacc500b0aa21588b00f234b5ddd92" target="_top" xlink:title=" ">
<polygon fill="white" stroke="#666666" points="1601.5,-252.23 1461.75,-252.23 1461.75,-221.73 1601.5,-221.73 1601.5,-252.23"/>
<text xml:space="preserve" text-anchor="start" x="1469.75" y="-238.73" font-family="Helvetica,sans-Serif" font-size="10.00">PGB_SettingsScene_rebuild</text>
<text xml:space="preserve" text-anchor="middle" x="1531.62" y="-227.48" font-family="Helvetica,sans-Serif" font-size="10.00">Entries</text>
</a>
</g>
</g>
<!-- Node20&#45;&gt;Node23 -->
<g id="edge26_Node000020_Node000023" class="edge">
<title>Node20&#45;&gt;Node23</title>
<g id="a_edge26_Node000020_Node000023"><a xlink:title=" ">
<path fill="none" stroke="#63b8ff" d="M1635.88,-208.92C1621.42,-212.85 1605.37,-217.21 1590.32,-221.3"/>
<polygon fill="#63b8ff" stroke="#63b8ff" points="1636.4,-212.41 1645.13,-206.41 1634.56,-205.65 1636.4,-212.41"/>
</a>
</g>
</g>
<!-- Node22 -->
<g id="Node000022" class="node">
<title>Node22</title>
<g id="a_Node000022"><a xlink:href="library__scene_8c.html#ae9da6d35e322c1a0896926f6a66c66f1" target="_top" xlink:title=" ">
<polygon fill="white" stroke="#666666" points="1084,-224.6 920.25,-224.6 920.25,-205.35 1084,-205.35 1084,-224.6"/>
<text xml:space="preserve" text-anchor="middle" x="1002.12" y="-211.1" font-family="Helvetica,sans-Serif" font-size="10.00">PGB_LibraryScene_showSettings</text>
</a>
</g>
</g>
<!-- Node21&#45;&gt;Node22 -->
<g id="edge24_Node000021_Node000022" class="edge">
<title>Node21&#45;&gt;Node22</title>
<g id="a_edge24_Node000021_Node000022"><a xlink:title=" ">
<path fill="none" stroke="#63b8ff" d="M1108.28,-214.98C1100.37,-214.98 1092.3,-214.98 1084.32,-214.98"/>
<polygon fill="#63b8ff" stroke="#63b8ff" points="1108.22,-218.48 1118.22,-214.98 1108.22,-211.48 1108.22,-218.48"/>
</a>
</g>
</g>
<!-- Node22&#45;&gt;Node5 -->
<g id="edge25_Node000022_Node000005" class="edge">
<title>Node22&#45;&gt;Node5</title>
<g id="a_edge25_Node000022_Node000005"><a xlink:title=" ">
<path fill="none" stroke="#63b8ff" d="M908.43,-214.98C900.42,-214.98 892.43,-214.98 884.73,-214.98"/>
<polygon fill="#63b8ff" stroke="#63b8ff" points="908.24,-218.48 918.24,-214.98 908.24,-211.48 908.24,-218.48"/>
</a>
</g>
</g>
<!-- Node24 -->
<g id="Node000024" class="node">
<title>Node24</title>
<g id="a_Node000024"><a xlink:href="settings__scene_8c.html#ab2a60c1877e6e9ec3e98c502666c64c2" target="_top" xlink:title=" ">
<polygon fill="white" stroke="#666666" points="1425.75,-246.6 1285.25,-246.6 1285.25,-227.35 1425.75,-227.35 1425.75,-246.6"/>
<text xml:space="preserve" text-anchor="middle" x="1355.5" y="-233.1" font-family="Helvetica,sans-Serif" font-size="10.00">PGB_SettingsScene_update</text>
</a>
</g>
</g>
<!-- Node23&#45;&gt;Node24 -->
<g id="edge27_Node000023_Node000024" class="edge">
<title>Node23&#45;&gt;Node24</title>
<g id="a_edge27_Node000023_Node000024"><a xlink:title=" ">
<path fill="none" stroke="#63b8ff" d="M1449.81,-236.98C1441.9,-236.98 1433.93,-236.98 1426.15,-236.98"/>
<polygon fill="#63b8ff" stroke="#63b8ff" points="1449.79,-240.48 1459.79,-236.98 1449.79,-233.48 1449.79,-240.48"/>
</a>
</g>
</g>
<!-- Node24&#45;&gt;Node21 -->
<g id="edge28_Node000024_Node000021" class="edge">
<title>Node24&#45;&gt;Node21</title>
<g id="a_edge28_Node000024_Node000021"><a xlink:title=" ">
<path fill="none" stroke="#63b8ff" d="M1273.57,-226.44C1265.56,-225.39 1257.51,-224.35 1249.71,-223.33"/>
<polygon fill="#63b8ff" stroke="#63b8ff" points="1272.97,-229.89 1283.34,-227.71 1273.87,-222.95 1272.97,-229.89"/>
</a>
</g>
</g>
<!-- Node25&#45;&gt;Node17 -->
<g id="edge30_Node000025_Node000017" class="edge">
<title>Node25&#45;&gt;Node17</title>
<g id="a_edge30_Node000025_Node000017"><a xlink:title=" ">
<path fill="none" stroke="#63b8ff" d="M2133.21,-77.03C2121.19,-75.5 2108.74,-73.91 2096.84,-72.4"/>
<polygon fill="#63b8ff" stroke="#63b8ff" points="2132.71,-80.49 2143.07,-78.28 2133.59,-73.55 2132.71,-80.49"/>
</a>
</g>
</g>
<!-- Node26&#45;&gt;Node24 -->
<g id="edge32_Node000026_Node000024" class="edge">
<title>Node26&#45;&gt;Node24</title>
<g id="a_edge32_Node000026_Node000024"><a xlink:title=" ">
<path fill="none" stroke="#63b8ff" d="M2120.88,-279.98C2048.83,-279.98 1941.57,-279.98 1848.12,-279.98 1848.12,-279.98 1848.12,-279.98 1683.5,-279.98 1584.58,-279.98 1559.48,-276.23 1461.75,-260.98 1439.34,-257.48 1414.61,-251.93 1394.74,-247.05"/>
<polygon fill="#63b8ff" stroke="#63b8ff" points="2120.62,-283.48 2130.62,-279.98 2120.62,-276.48 2120.62,-283.48"/>
</a>
</g>
</g>
<!-- Node27&#45;&gt;Node20 -->
<g id="edge34_Node000027_Node000020" class="edge">
<title>Node27&#45;&gt;Node20</title>
<g id="a_edge34_Node000027_Node000020"><a xlink:title=" ">
<path fill="none" stroke="#63b8ff" d="M1783.36,-196.59C1766.23,-196.48 1747.99,-196.37 1731.95,-196.27"/>
<polygon fill="#63b8ff" stroke="#63b8ff" points="1782.88,-200.09 1792.9,-196.65 1782.93,-193.09 1782.88,-200.09"/>
</a>
</g>
</g>
<!-- Node28&#45;&gt;Node27 -->
<g id="edge37_Node000028_Node000027" class="edge">
<title>Node28&#45;&gt;Node27</title>
<g id="a_edge37_Node000028_Node000027"><a xlink:title=" ">
<path fill="none" stroke="#63b8ff" d="M2142.39,-198.64C2074.03,-198.25 1964.58,-197.63 1900.19,-197.27"/>
<polygon fill="#63b8ff" stroke="#63b8ff" points="2142.29,-202.13 2152.31,-198.69 2142.33,-195.13 2142.29,-202.13"/>
</a>
</g>
</g>
<!-- Node29 -->
<g id="Node000029" class="node">
<title>Node29</title>
<g id="a_Node000029"><a xlink:href="settings__scene_8c.html#a13b744f6d456f284dbed80dac68c3c7b" target="_top" xlink:title=" ">
<polygon fill="white" stroke="#666666" points="2085.25,-171.23 1974,-171.23 1974,-140.73 2085.25,-140.73 2085.25,-171.23"/>
<text xml:space="preserve" text-anchor="start" x="1982" y="-157.73" font-family="Helvetica,sans-Serif" font-size="10.00">settings_confirm_load</text>
<text xml:space="preserve" text-anchor="middle" x="2029.62" y="-146.48" font-family="Helvetica,sans-Serif" font-size="10.00">_state</text>
</a>
</g>
</g>
<!-- Node28&#45;&gt;Node29 -->
<g id="edge38_Node000028_Node000029" class="edge">
<title>Node28&#45;&gt;Node29</title>
<g id="a_edge38_Node000028_Node000029"><a xlink:title=" ">
<path fill="none" stroke="#63b8ff" d="M2152.13,-186.18C2131.19,-180.98 2106.96,-174.95 2085.67,-169.66"/>
<polygon fill="#63b8ff" stroke="#63b8ff" points="2151.05,-189.52 2161.6,-188.53 2152.73,-182.72 2151.05,-189.52"/>
</a>
</g>
</g>
<!-- Node29&#45;&gt;Node27 -->
<g id="edge39_Node000029_Node000027" class="edge">
<title>Node29&#45;&gt;Node27</title>
<g id="a_edge39_Node000029_Node000027"><a xlink:title=" ">
<path fill="none" stroke="#63b8ff" d="M1963.02,-170.88C1942.32,-175.58 1919.73,-180.71 1900.11,-185.17"/>
<polygon fill="#63b8ff" stroke="#63b8ff" points="1963.53,-174.36 1972.5,-168.73 1961.98,-167.53 1963.53,-174.36"/>
</a>
</g>
</g>
</g>
</svg>
