<?xml version="1.0" encoding="UTF-8" standalone="no"?>
<!DOCTYPE svg PUBLIC "-//W3C//DTD SVG 1.1//EN"
 "http://www.w3.org/Graphics/SVG/1.1/DTD/svg11.dtd">
<!-- Generated by graphviz version 13.1.0 (20250701.0955)
 -->
<!-- Title: src/array.c Pages: 1 -->
<svg width="199pt" height="193pt"
 viewBox="0.00 0.00 199.00 193.00" xmlns="http://www.w3.org/2000/svg" xmlns:xlink="http://www.w3.org/1999/xlink">

<svg id="main" version="1.1" xmlns="http://www.w3.org/2000/svg" xmlns:xlink="http://www.w3.org/1999/xlink" xml:space="preserve">

<style type="text/css"><![CDATA[
.node, .edge {opacity: 0.7;}
.node.selected, .edge.selected {opacity: 1;}
.edge:hover path { stroke: red; }
.edge:hover polygon { stroke: red; fill: red; }
]]></style>
<script type="application/ecmascript" xlink:href="svg.min.js"/>
<svg id="graph" class="graph">
<g id="graph0" class="graph" transform="scale(1 1) rotate(0) translate(4 189)">
<title>src/array.c</title>
<!-- Node1 -->
<g id="Node000001" class="node">
<title>Node1</title>
<g id="a_Node000001"><a xlink:title=" ">
<polygon fill="#999999" stroke="#666666" points="172.88,-185 111.88,-185 111.88,-165.75 172.88,-165.75 172.88,-185"/>
<text xml:space="preserve" text-anchor="middle" x="142.38" y="-171.5" font-family="Helvetica,sans-Serif" font-size="10.00">src/array.c</text>
</a>
</g>
</g>
<!-- Node2 -->
<g id="Node000002" class="node">
<title>Node2</title>
<g id="a_Node000002"><a xlink:href="array_8h.html" target="_top" xlink:title=" ">
<polygon fill="white" stroke="#666666" points="190.62,-74.5 146.12,-74.5 146.12,-55.25 190.62,-55.25 190.62,-74.5"/>
<text xml:space="preserve" text-anchor="middle" x="168.38" y="-61" font-family="Helvetica,sans-Serif" font-size="10.00">array.h</text>
</a>
</g>
</g>
<!-- Node1&#45;&gt;Node2 -->
<g id="edge1_Node000001_Node000002" class="edge">
<title>Node1&#45;&gt;Node2</title>
<g id="a_edge1_Node000001_Node000002"><a xlink:title=" ">
<path fill="none" stroke="#63b8ff" d="M144.5,-165.5C148.64,-148.25 157.84,-109.83 163.54,-86.06"/>
<polygon fill="#63b8ff" stroke="#63b8ff" points="166.94,-86.89 165.87,-76.35 160.13,-85.26 166.94,-86.89"/>
</a>
</g>
</g>
<!-- Node5 -->
<g id="Node000005" class="node">
<title>Node5</title>
<g id="a_Node000005"><a xlink:href="utility_8h.html" target="_top" xlink:title=" ">
<polygon fill="white" stroke="#666666" points="140.38,-129.75 94.38,-129.75 94.38,-110.5 140.38,-110.5 140.38,-129.75"/>
<text xml:space="preserve" text-anchor="middle" x="117.38" y="-116.25" font-family="Helvetica,sans-Serif" font-size="10.00">utility.h</text>
</a>
</g>
</g>
<!-- Node1&#45;&gt;Node5 -->
<g id="edge4_Node000001_Node000005" class="edge">
<title>Node1&#45;&gt;Node5</title>
<g id="a_edge4_Node000001_Node000005"><a xlink:title=" ">
<path fill="none" stroke="#63b8ff" d="M138.25,-165.58C135.05,-158.76 130.49,-149.06 126.45,-140.45"/>
<polygon fill="#63b8ff" stroke="#63b8ff" points="129.65,-139.04 122.24,-131.48 123.32,-142.02 129.65,-139.04"/>
</a>
</g>
</g>
<!-- Node3 -->
<g id="Node000003" class="node">
<title>Node3</title>
<g id="a_Node000003"><a xlink:title=" ">
<polygon fill="#e0e0e0" stroke="#999999" points="191.25,-19.25 135.5,-19.25 135.5,0 191.25,0 191.25,-19.25"/>
<text xml:space="preserve" text-anchor="middle" x="163.38" y="-5.75" font-family="Helvetica,sans-Serif" font-size="10.00">stdbool.h</text>
</a>
</g>
</g>
<!-- Node2&#45;&gt;Node3 -->
<g id="edge2_Node000002_Node000003" class="edge">
<title>Node2&#45;&gt;Node3</title>
<g id="a_edge2_Node000002_Node000003"><a xlink:title=" ">
<path fill="none" stroke="#63b8ff" d="M167.55,-55.08C166.93,-48.49 166.06,-39.21 165.27,-30.82"/>
<polygon fill="#63b8ff" stroke="#63b8ff" points="168.78,-30.75 164.36,-21.12 161.81,-31.4 168.78,-30.75"/>
</a>
</g>
</g>
<!-- Node4 -->
<g id="Node000004" class="node">
<title>Node4</title>
<g id="a_Node000004"><a xlink:title=" ">
<polygon fill="#e0e0e0" stroke="#999999" points="112,-19.25 66.75,-19.25 66.75,0 112,0 112,-19.25"/>
<text xml:space="preserve" text-anchor="middle" x="89.38" y="-5.75" font-family="Helvetica,sans-Serif" font-size="10.00">stdio.h</text>
</a>
</g>
</g>
<!-- Node2&#45;&gt;Node4 -->
<g id="edge3_Node000002_Node000004" class="edge">
<title>Node2&#45;&gt;Node4</title>
<g id="a_edge3_Node000002_Node000004"><a xlink:title=" ">
<path fill="none" stroke="#63b8ff" d="M154.97,-54.84C143.28,-46.96 126.07,-35.36 112.21,-26.02"/>
<polygon fill="#63b8ff" stroke="#63b8ff" points="114.35,-23.24 104.1,-20.55 110.43,-29.04 114.35,-23.24"/>
</a>
</g>
</g>
<!-- Node5&#45;&gt;Node2 -->
<g id="edge5_Node000005_Node000002" class="edge">
<title>Node5&#45;&gt;Node2</title>
<g id="a_edge5_Node000005_Node000002"><a xlink:title=" ">
<path fill="none" stroke="#63b8ff" d="M125.8,-110.33C132.91,-102.9 143.32,-92.04 152.06,-82.91"/>
<polygon fill="#63b8ff" stroke="#63b8ff" points="154.33,-85.6 158.72,-75.95 149.28,-80.75 154.33,-85.6"/>
</a>
</g>
</g>
<!-- Node5&#45;&gt;Node3 -->
<g id="edge7_Node000005_Node000003" class="edge">
<title>Node5&#45;&gt;Node3</title>
<g id="a_edge7_Node000005_Node000003"><a xlink:title=" ">
<path fill="none" stroke="#63b8ff" d="M119.49,-110.22C122.62,-97.66 129.03,-74.17 137.38,-55.25 141.31,-46.34 146.58,-36.96 151.35,-29.11"/>
<polygon fill="#63b8ff" stroke="#63b8ff" points="154.2,-31.15 156.57,-20.82 148.28,-27.42 154.2,-31.15"/>
</a>
</g>
</g>
<!-- Node5&#45;&gt;Node4 -->
<g id="edge8_Node000005_Node000004" class="edge">
<title>Node5&#45;&gt;Node4</title>
<g id="a_edge8_Node000005_Node000004"><a xlink:title=" ">
<path fill="none" stroke="#63b8ff" d="M114.65,-110.27C111.92,-101.3 107.66,-86.99 104.38,-74.5 100.51,-59.79 96.6,-43.05 93.74,-30.4"/>
<polygon fill="#63b8ff" stroke="#63b8ff" points="97.19,-29.81 91.6,-20.82 90.36,-31.34 97.19,-29.81"/>
</a>
</g>
</g>
<!-- Node6 -->
<g id="Node000006" class="node">
<title>Node6</title>
<g id="a_Node000006"><a xlink:title=" ">
<polygon fill="#e0e0e0" stroke="#999999" points="52.75,-74.5 0,-74.5 0,-55.25 52.75,-55.25 52.75,-74.5"/>
<text xml:space="preserve" text-anchor="middle" x="26.38" y="-61" font-family="Helvetica,sans-Serif" font-size="10.00">pd_api.h</text>
</a>
</g>
</g>
<!-- Node5&#45;&gt;Node6 -->
<g id="edge6_Node000005_Node000006" class="edge">
<title>Node5&#45;&gt;Node6</title>
<g id="a_edge6_Node000005_Node000006"><a xlink:title=" ">
<path fill="none" stroke="#63b8ff" d="M101.94,-110.09C88.21,-102.06 67.88,-90.16 51.76,-80.73"/>
<polygon fill="#63b8ff" stroke="#63b8ff" points="53.59,-77.75 43.19,-75.72 50.06,-83.79 53.59,-77.75"/>
</a>
</g>
</g>
</g>
</svg>
</svg>

<style type='text/css'>
<![CDATA[
[data-mouse-over-selected='false'] { opacity: 0.7; }
[data-mouse-over-selected='true']  { opacity: 1.0; }
]]>
</style>
<script type="application/ecmascript"><![CDATA[
document.addEventListener('DOMContentLoaded', (event) => {
  highlightEdges();
  highlightAdjacentNodes();
});
]]></script>
</svg>
