<?xml version="1.0" encoding="UTF-8" standalone="no"?>
<!DOCTYPE svg PUBLIC "-//W3C//DTD SVG 1.1//EN"
 "http://www.w3.org/Graphics/SVG/1.1/DTD/svg11.dtd">
<!-- Generated by graphviz version 13.1.0 (20250701.0955)
 -->
<!-- Title: src/credits_scene.c Pages: 1 -->
<!--zoomable 481 -->

<svg id="main" version="1.1" xmlns="http://www.w3.org/2000/svg" xmlns:xlink="http://www.w3.org/1999/xlink" xml:space="preserve" onload="init(evt)">

<style type="text/css"><![CDATA[
.node, .edge {opacity: 0.7;}
.node.selected, .edge.selected {opacity: 1;}
.edge:hover path { stroke: red; }
.edge:hover polygon { stroke: red; fill: red; }
]]></style>

<defs>
  <circle id="rim" cx="0" cy="0" r="7"/>
  <circle id="rim2" cx="0" cy="0" r="3.5"/>
  <g id="zoomPlus">
    <use xlink:href="#rim" fill="#404040"><set attributeName="fill" to="#808080" begin="zoomplus.mouseover" end="zoomplus.mouseout"/></use>
    <path d="M-4,0h8M0,-4v8" fill="none" stroke="white" stroke-width="1.5" pointer-events="none"/>
  </g>
  <g id="zoomMin">
    <use xlink:href="#rim" fill="#404040"><set attributeName="fill" to="#808080" begin="zoomminus.mouseover" end="zoomminus.mouseout"/></use>
    <path d="M-4,0h8" fill="none" stroke="white" stroke-width="1.5" pointer-events="none"/>
  </g>
  <g id="arrowUp" transform="translate(30 24)">
    <use xlink:href="#rim"/>
    <path pointer-events="none" fill="none" stroke="white" stroke-width="1.5" d="M0,-3.0v7 M-2.5,-0.5L0,-3.0L2.5,-0.5"/>
  </g>
  <g id="arrowRight" transform="rotate(90) translate(36 -43)">
    <use xlink:href="#rim"/>
    <path pointer-events="none" fill="none" stroke="white" stroke-width="1.5" d="M0,-3.0v7 M-2.5,-0.5L0,-3.0L2.5,-0.5"/>
  </g>
  <g id="arrowDown" transform="rotate(180) translate(-30 -48)">
    <use xlink:href="#rim"/>
    <path pointer-events="none" fill="none" stroke="white" stroke-width="1.5" d="M0,-3.0v7 M-2.5,-0.5L0,-3.0L2.5,-0.5"/>
  </g>
  <g id="arrowLeft" transform="rotate(270) translate(-36 17)">
    <use xlink:href="#rim"/>
    <path pointer-events="none" fill="none" stroke="white" stroke-width="1.5" d="M0,-3.0v7 M-2.5,-0.5L0,-3.0L2.5,-0.5"/>
  </g>
  <g id="resetDef">
    <use xlink:href="#rim2" fill="#404040"><set attributeName="fill" to="#808080" begin="reset.mouseover" end="reset.mouseout"/></use>
  </g>
</defs>
<script type="application/ecmascript">
var viewWidth = 1050;
var viewHeight = 481;
var sectionId = 'dynsection-0';
</script>
<script type="application/ecmascript" xlink:href="svg.min.js"/>
<svg id="graph" class="graph">
<g id="viewport">
<title>src/credits_scene.c</title>
<!-- Node1 -->
<g id="Node000001" class="node">
<title>Node1</title>
<g id="a_Node000001"><a xlink:title=" ">
<polygon fill="#999999" stroke="#666666" points="892,-472.5 790.5,-472.5 790.5,-453.25 892,-453.25 892,-472.5"/>
<text xml:space="preserve" text-anchor="middle" x="841.25" y="-459" font-family="Helvetica,sans-Serif" font-size="10.00">src/credits_scene.c</text>
</a>
</g>
</g>
<!-- Node2 -->
<g id="Node000002" class="node">
<title>Node2</title>
<g id="a_Node000002"><a xlink:href="credits__scene_8h.html" target="_top" xlink:title=" ">
<polygon fill="white" stroke="#666666" points="755.75,-417.25 670.75,-417.25 670.75,-398 755.75,-398 755.75,-417.25"/>
<text xml:space="preserve" text-anchor="middle" x="713.25" y="-403.75" font-family="Helvetica,sans-Serif" font-size="10.00">credits_scene.h</text>
</a>
</g>
</g>
<!-- Node1&#45;&gt;Node2 -->
<g id="edge1_Node000001_Node000002" class="edge">
<title>Node1&#45;&gt;Node2</title>
<g id="a_edge1_Node000001_Node000002"><a xlink:title=" ">
<path fill="none" stroke="#63b8ff" d="M819.54,-452.84C799.22,-444.39 768.6,-431.65 745.44,-422.02"/>
<polygon fill="#63b8ff" stroke="#63b8ff" points="747.04,-418.89 736.47,-418.28 744.36,-425.36 747.04,-418.89"/>
</a>
</g>
</g>
<!-- Node7 -->
<g id="Node000007" class="node">
<title>Node7</title>
<g id="a_Node000007"><a xlink:href="app_8h.html" target="_top" xlink:title=" ">
<polygon fill="white" stroke="#666666" points="210,-245.88 144.5,-245.88 144.5,-226.62 210,-226.62 210,-245.88"/>
<text xml:space="preserve" text-anchor="middle" x="177.25" y="-232.38" font-family="Helvetica,sans-Serif" font-size="10.00">../src/app.h</text>
</a>
</g>
</g>
<!-- Node1&#45;&gt;Node7 -->
<g id="edge42_Node000001_Node000007" class="edge">
<title>Node1&#45;&gt;Node7</title>
<g id="a_edge42_Node000001_Node000007"><a xlink:title=" ">
<path fill="none" stroke="#63b8ff" d="M790.26,-460.2C695.02,-455.34 485.56,-436.32 328.25,-362 271.35,-335.11 217.8,-281.9 192.49,-254.48"/>
<polygon fill="#63b8ff" stroke="#63b8ff" points="195.36,-252.42 186.05,-247.36 190.17,-257.13 195.36,-252.42"/>
</a>
</g>
</g>
<!-- Node19 -->
<g id="Node000019" class="node">
<title>Node19</title>
<g id="a_Node000019"><a xlink:title=" ">
<polygon fill="#e0e0e0" stroke="#999999" points="808,-245.88 760.5,-245.88 760.5,-226.62 808,-226.62 808,-245.88"/>
<text xml:space="preserve" text-anchor="middle" x="784.25" y="-232.38" font-family="Helvetica,sans-Serif" font-size="10.00">stdlib.h</text>
</a>
</g>
</g>
<!-- Node1&#45;&gt;Node19 -->
<g id="edge47_Node000001_Node000019" class="edge">
<title>Node1&#45;&gt;Node19</title>
<g id="a_edge47_Node000001_Node000019"><a xlink:title=" ">
<path fill="none" stroke="#63b8ff" d="M838.94,-452.79C830.51,-419.56 801.21,-304.1 789.32,-257.24"/>
<polygon fill="#63b8ff" stroke="#63b8ff" points="792.75,-256.5 786.89,-247.67 785.96,-258.22 792.75,-256.5"/>
</a>
</g>
</g>
<!-- Node21 -->
<g id="Node000021" class="node">
<title>Node21</title>
<g id="a_Node000021"><a xlink:title=" ">
<polygon fill="#e0e0e0" stroke="#999999" points="868.75,-245.88 825.75,-245.88 825.75,-226.62 868.75,-226.62 868.75,-245.88"/>
<text xml:space="preserve" text-anchor="middle" x="847.25" y="-232.38" font-family="Helvetica,sans-Serif" font-size="10.00">time.h</text>
</a>
</g>
</g>
<!-- Node1&#45;&gt;Node21 -->
<g id="edge48_Node000001_Node000021" class="edge">
<title>Node1&#45;&gt;Node21</title>
<g id="a_edge48_Node000001_Node000021"><a xlink:title=" ">
<path fill="none" stroke="#63b8ff" d="M841.49,-452.79C842.38,-419.63 845.45,-304.59 846.71,-257.54"/>
<polygon fill="#63b8ff" stroke="#63b8ff" points="850.2,-257.8 846.97,-247.71 843.2,-257.62 850.2,-257.8"/>
</a>
</g>
</g>
<!-- Node22 -->
<g id="Node000022" class="node">
<title>Node22</title>
<g id="a_Node000022"><a xlink:href="jparse_8h.html" target="_top" xlink:title=" ">
<polygon fill="white" stroke="#666666" points="945.5,-306.75 895,-306.75 895,-287.5 945.5,-287.5 945.5,-306.75"/>
<text xml:space="preserve" text-anchor="middle" x="920.25" y="-293.25" font-family="Helvetica,sans-Serif" font-size="10.00">jparse.h</text>
</a>
</g>
</g>
<!-- Node1&#45;&gt;Node22 -->
<g id="edge43_Node000001_Node000022" class="edge">
<title>Node1&#45;&gt;Node22</title>
<g id="a_edge43_Node000001_Node000022"><a xlink:title=" ">
<path fill="none" stroke="#63b8ff" d="M845.5,-453.07C857.87,-427.42 894.11,-352.3 911.17,-316.94"/>
<polygon fill="#63b8ff" stroke="#63b8ff" points="914.13,-318.86 915.32,-308.34 907.83,-315.82 914.13,-318.86"/>
</a>
</g>
</g>
<!-- Node23 -->
<g id="Node000023" class="node">
<title>Node23</title>
<g id="a_Node000023"><a xlink:href="version_8h.html" target="_top" xlink:title=" ">
<polygon fill="white" stroke="#666666" points="1034.12,-417.25 978.38,-417.25 978.38,-398 1034.12,-398 1034.12,-417.25"/>
<text xml:space="preserve" text-anchor="middle" x="1006.25" y="-403.75" font-family="Helvetica,sans-Serif" font-size="10.00">version.h</text>
</a>
</g>
</g>
<!-- Node1&#45;&gt;Node23 -->
<g id="edge44_Node000001_Node000023" class="edge">
<title>Node1&#45;&gt;Node23</title>
<g id="a_edge44_Node000001_Node000023"><a xlink:title=" ">
<path fill="none" stroke="#63b8ff" d="M869.24,-452.84C896.26,-444.12 937.41,-430.84 967.56,-421.11"/>
<polygon fill="#63b8ff" stroke="#63b8ff" points="968.24,-424.57 976.68,-418.17 966.09,-417.91 968.24,-424.57"/>
</a>
</g>
</g>
<!-- Node3 -->
<g id="Node000003" class="node">
<title>Node3</title>
<g id="a_Node000003"><a xlink:href="game__scene_8h.html" target="_top" xlink:title=" ">
<polygon fill="white" stroke="#666666" points="417.12,-362 337.38,-362 337.38,-342.75 417.12,-342.75 417.12,-362"/>
<text xml:space="preserve" text-anchor="middle" x="377.25" y="-348.5" font-family="Helvetica,sans-Serif" font-size="10.00">game_scene.h</text>
</a>
</g>
</g>
<!-- Node2&#45;&gt;Node3 -->
<g id="edge2_Node000002_Node000003" class="edge">
<title>Node2&#45;&gt;Node3</title>
<g id="a_edge2_Node000002_Node000003"><a xlink:title=" ">
<path fill="none" stroke="#63b8ff" d="M670.35,-399.83C608.56,-390.03 494.66,-371.98 428.52,-361.5"/>
<polygon fill="#63b8ff" stroke="#63b8ff" points="429.45,-358.1 419.03,-360 428.36,-365.02 429.45,-358.1"/>
</a>
</g>
</g>
<!-- Node9 -->
<g id="Node000009" class="node">
<title>Node9</title>
<g id="a_Node000009"><a xlink:href="scene_8h.html" target="_top" xlink:title=" ">
<polygon fill="white" stroke="#666666" points="50.5,-185 0,-185 0,-165.75 50.5,-165.75 50.5,-185"/>
<text xml:space="preserve" text-anchor="middle" x="25.25" y="-171.5" font-family="Helvetica,sans-Serif" font-size="10.00">scene.h</text>
</a>
</g>
</g>
<!-- Node2&#45;&gt;Node9 -->
<g id="edge40_Node000002_Node000009" class="edge">
<title>Node2&#45;&gt;Node9</title>
<g id="a_edge40_Node000002_Node000009"><a xlink:title=" ">
<path fill="none" stroke="#63b8ff" d="M670.27,-407.45C570.43,-407.68 317.32,-398.4 133.25,-306.75 96.83,-288.61 85.82,-283.15 60.25,-251.5 46.85,-234.91 37.23,-212.35 31.51,-196.29"/>
<polygon fill="#63b8ff" stroke="#63b8ff" points="34.87,-195.29 28.38,-186.92 28.23,-197.51 34.87,-195.29"/>
</a>
</g>
</g>
<!-- Node13 -->
<g id="Node000013" class="node">
<title>Node13</title>
<g id="a_Node000013"><a xlink:title=" ">
<polygon fill="#e0e0e0" stroke="#999999" points="494.88,-19.25 449.62,-19.25 449.62,0 494.88,0 494.88,-19.25"/>
<text xml:space="preserve" text-anchor="middle" x="472.25" y="-5.75" font-family="Helvetica,sans-Serif" font-size="10.00">stdio.h</text>
</a>
</g>
</g>
<!-- Node2&#45;&gt;Node13 -->
<g id="edge41_Node000002_Node000013" class="edge">
<title>Node2&#45;&gt;Node13</title>
<g id="a_edge41_Node000002_Node000013"><a xlink:title=" ">
<path fill="none" stroke="#63b8ff" d="M755.82,-400.88C810.09,-391.25 903.02,-366.63 954.25,-306.75 975.07,-282.42 973.25,-269.27 973.25,-237.25 973.25,-237.25 973.25,-237.25 973.25,-119.12 973.25,-23.38 619.35,-11.93 506.43,-10.72"/>
<polygon fill="#63b8ff" stroke="#63b8ff" points="506.62,-7.22 496.59,-10.64 506.56,-14.22 506.62,-7.22"/>
</a>
</g>
</g>
<!-- Node2&#45;&gt;Node22 -->
<g id="edge37_Node000002_Node000022" class="edge">
<title>Node2&#45;&gt;Node22</title>
<g id="a_edge37_Node000002_Node000022"><a xlink:title=" ">
<path fill="none" stroke="#63b8ff" d="M730.54,-397.56C766.46,-378.73 849.41,-335.26 892.75,-312.54"/>
<polygon fill="#63b8ff" stroke="#63b8ff" points="894.29,-315.68 901.52,-307.94 891.04,-309.48 894.29,-315.68"/>
</a>
</g>
</g>
<!-- Node4 -->
<g id="Node000004" class="node">
<title>Node4</title>
<g id="a_Node000004"><a xlink:href="peanut__gb_8h.html" target="_top" xlink:title=" ">
<polygon fill="white" stroke="#666666" points="503.38,-306.75 377.12,-306.75 377.12,-287.5 503.38,-287.5 503.38,-306.75"/>
<text xml:space="preserve" text-anchor="middle" x="440.25" y="-293.25" font-family="Helvetica,sans-Serif" font-size="10.00">../peanut_gb/peanut_gb.h</text>
</a>
</g>
</g>
<!-- Node3&#45;&gt;Node4 -->
<g id="edge3_Node000003_Node000004" class="edge">
<title>Node3&#45;&gt;Node4</title>
<g id="a_edge3_Node000003_Node000004"><a xlink:title=" ">
<path fill="none" stroke="#63b8ff" d="M387.94,-342.34C396.95,-334.72 410.08,-323.62 420.93,-314.45"/>
<polygon fill="#63b8ff" stroke="#63b8ff" points="423.19,-317.13 428.56,-308 418.67,-311.78 423.19,-317.13"/>
</a>
</g>
</g>
<!-- Node3&#45;&gt;Node9 -->
<g id="edge34_Node000003_Node000009" class="edge">
<title>Node3&#45;&gt;Node9</title>
<g id="a_edge34_Node000003_Node000009"><a xlink:title=" ">
<path fill="none" stroke="#63b8ff" d="M337.1,-347.92C294.17,-343.06 224.88,-331.81 170.25,-306.75 113,-280.49 62.37,-223.53 38.98,-194.37"/>
<polygon fill="#63b8ff" stroke="#63b8ff" points="41.74,-192.21 32.82,-186.5 36.23,-196.53 41.74,-192.21"/>
</a>
</g>
</g>
<!-- Node3&#45;&gt;Node13 -->
<g id="edge36_Node000003_Node000013" class="edge">
<title>Node3&#45;&gt;Node13</title>
<g id="a_edge36_Node000003_Node000013"><a xlink:title=" ">
<path fill="none" stroke="#63b8ff" d="M417.28,-347.09C510.12,-336.06 732.25,-302.8 732.25,-237.25 732.25,-237.25 732.25,-237.25 732.25,-119.12 732.25,-22.49 577.39,-10.39 506.7,-9.9"/>
<polygon fill="#63b8ff" stroke="#63b8ff" points="506.83,-6.4 496.84,-9.91 506.84,-13.4 506.83,-6.4"/>
</a>
</g>
</g>
<!-- Node14 -->
<g id="Node000014" class="node">
<title>Node14</title>
<g id="a_Node000014"><a xlink:title=" ">
<polygon fill="#e0e0e0" stroke="#999999" points="152.25,-185 106.25,-185 106.25,-165.75 152.25,-165.75 152.25,-185"/>
<text xml:space="preserve" text-anchor="middle" x="129.25" y="-171.5" font-family="Helvetica,sans-Serif" font-size="10.00">math.h</text>
</a>
</g>
</g>
<!-- Node3&#45;&gt;Node14 -->
<g id="edge35_Node000003_Node000014" class="edge">
<title>Node3&#45;&gt;Node14</title>
<g id="a_edge35_Node000003_Node000014"><a xlink:title=" ">
<path fill="none" stroke="#63b8ff" d="M337.28,-347.49C281.83,-339.76 183.02,-317.08 135.25,-251.5 123.71,-235.66 123.62,-212.63 125.53,-196.25"/>
<polygon fill="#63b8ff" stroke="#63b8ff" points="128.93,-197.16 127,-186.75 122.02,-196.1 128.93,-197.16"/>
</a>
</g>
</g>
<!-- Node15 -->
<g id="Node000015" class="node">
<title>Node15</title>
<g id="a_Node000015"><a xlink:href="preferences_8h.html" target="_top" xlink:title=" ">
<polygon fill="white" stroke="#666666" points="328.62,-245.88 227.88,-245.88 227.88,-226.62 328.62,-226.62 328.62,-245.88"/>
<text xml:space="preserve" text-anchor="middle" x="278.25" y="-232.38" font-family="Helvetica,sans-Serif" font-size="10.00">../src/preferences.h</text>
</a>
</g>
</g>
<!-- Node3&#45;&gt;Node15 -->
<g id="edge33_Node000003_Node000015" class="edge">
<title>Node3&#45;&gt;Node15</title>
<g id="a_edge33_Node000003_Node000015"><a xlink:title=" ">
<path fill="none" stroke="#63b8ff" d="M369.48,-342.42C353.07,-323.5 314.63,-279.19 293.26,-254.55"/>
<polygon fill="#63b8ff" stroke="#63b8ff" points="296.17,-252.57 286.97,-247.31 290.88,-257.15 296.17,-252.57"/>
</a>
</g>
</g>
<!-- Node5 -->
<g id="Node000005" class="node">
<title>Node5</title>
<g id="a_Node000005"><a xlink:href="minigb__apu_8h.html" target="_top" xlink:title=" ">
<polygon fill="white" stroke="#666666" points="666.25,-251.5 560.25,-251.5 560.25,-221 666.25,-221 666.25,-251.5"/>
<text xml:space="preserve" text-anchor="start" x="568.25" y="-238" font-family="Helvetica,sans-Serif" font-size="10.00">../minigb_apu/minigb</text>
<text xml:space="preserve" text-anchor="middle" x="613.25" y="-226.75" font-family="Helvetica,sans-Serif" font-size="10.00">_apu.h</text>
</a>
</g>
</g>
<!-- Node4&#45;&gt;Node5 -->
<g id="edge4_Node000004_Node000005" class="edge">
<title>Node4&#45;&gt;Node5</title>
<g id="a_edge4_Node000004_Node000005"><a xlink:title=" ">
<path fill="none" stroke="#63b8ff" d="M466.9,-287.05C491.49,-278.69 528.73,-266.01 559.49,-255.54"/>
<polygon fill="#63b8ff" stroke="#63b8ff" points="560.3,-258.97 568.64,-252.43 558.04,-252.34 560.3,-258.97"/>
</a>
</g>
</g>
<!-- Node6 -->
<g id="Node000006" class="node">
<title>Node6</title>
<g id="a_Node000006"><a xlink:title=" ">
<polygon fill="#e0e0e0" stroke="#999999" points="704.38,-185 656.12,-185 656.12,-165.75 704.38,-165.75 704.38,-185"/>
<text xml:space="preserve" text-anchor="middle" x="680.25" y="-171.5" font-family="Helvetica,sans-Serif" font-size="10.00">stdint.h</text>
</a>
</g>
</g>
<!-- Node4&#45;&gt;Node6 -->
<g id="edge29_Node000004_Node000006" class="edge">
<title>Node4&#45;&gt;Node6</title>
<g id="a_edge29_Node000004_Node000006"><a xlink:title=" ">
<path fill="none" stroke="#63b8ff" d="M503.87,-292.61C565.58,-287.76 653.05,-276.57 675.25,-251.5 688.37,-236.68 687.72,-213.12 685,-196.33"/>
<polygon fill="#63b8ff" stroke="#63b8ff" points="688.43,-195.66 683.01,-186.56 681.57,-197.05 688.43,-195.66"/>
</a>
</g>
</g>
<!-- Node4&#45;&gt;Node7 -->
<g id="edge6_Node000004_Node000007" class="edge">
<title>Node4&#45;&gt;Node7</title>
<g id="a_edge6_Node000004_Node000007"><a xlink:title=" ">
<path fill="none" stroke="#63b8ff" d="M385.3,-287.05C340.31,-279.13 275.19,-266.57 219.25,-251.5 217.27,-250.97 215.25,-250.39 213.22,-249.79"/>
<polygon fill="#63b8ff" stroke="#63b8ff" points="214.44,-246.5 203.85,-246.82 212.33,-253.18 214.44,-246.5"/>
</a>
</g>
</g>
<!-- Node10 -->
<g id="Node000010" class="node">
<title>Node10</title>
<g id="a_Node000010"><a xlink:href="utility_8h.html" target="_top" xlink:title=" ">
<polygon fill="white" stroke="#666666" points="189.25,-129.75 143.25,-129.75 143.25,-110.5 189.25,-110.5 189.25,-129.75"/>
<text xml:space="preserve" text-anchor="middle" x="166.25" y="-116.25" font-family="Helvetica,sans-Serif" font-size="10.00">utility.h</text>
</a>
</g>
</g>
<!-- Node4&#45;&gt;Node10 -->
<g id="edge26_Node000004_Node000010" class="edge">
<title>Node4&#45;&gt;Node10</title>
<g id="a_edge26_Node000004_Node000010"><a xlink:title=" ">
<path fill="none" stroke="#63b8ff" d="M376.92,-293.32C299.34,-288.79 173.5,-277.58 135.25,-251.5 100.81,-228.02 77.32,-202.37 97.25,-165.75 104.91,-151.67 119.14,-141.35 132.69,-134.21"/>
<polygon fill="#63b8ff" stroke="#63b8ff" points="133.94,-137.49 141.44,-130.01 130.91,-131.18 133.94,-137.49"/>
</a>
</g>
</g>
<!-- Node4&#45;&gt;Node15 -->
<g id="edge22_Node000004_Node000015" class="edge">
<title>Node4&#45;&gt;Node15</title>
<g id="a_edge22_Node000004_Node000015"><a xlink:title=" ">
<path fill="none" stroke="#63b8ff" d="M415.29,-287.05C388.18,-277.2 344.63,-261.38 313.92,-250.21"/>
<polygon fill="#63b8ff" stroke="#63b8ff" points="315.25,-246.97 304.66,-246.85 312.86,-253.55 315.25,-246.97"/>
</a>
</g>
</g>
<!-- Node17 -->
<g id="Node000017" class="node">
<title>Node17</title>
<g id="a_Node000017"><a xlink:title=" ">
<polygon fill="#e0e0e0" stroke="#999999" points="542.38,-245.88 482.12,-245.88 482.12,-226.62 542.38,-226.62 542.38,-245.88"/>
<text xml:space="preserve" text-anchor="middle" x="512.25" y="-232.38" font-family="Helvetica,sans-Serif" font-size="10.00">version.all</text>
</a>
</g>
</g>
<!-- Node4&#45;&gt;Node17 -->
<g id="edge27_Node000004_Node000017" class="edge">
<title>Node4&#45;&gt;Node17</title>
<g id="a_edge27_Node000004_Node000017"><a xlink:title=" ">
<path fill="none" stroke="#63b8ff" d="M451.19,-287.18C462.07,-278.28 479.04,-264.41 492.33,-253.54"/>
<polygon fill="#63b8ff" stroke="#63b8ff" points="494.51,-256.27 500.04,-247.23 490.08,-250.85 494.51,-256.27"/>
</a>
</g>
</g>
<!-- Node18 -->
<g id="Node000018" class="node">
<title>Node18</title>
<g id="a_Node000018"><a xlink:title=" ">
<polygon fill="#e0e0e0" stroke="#999999" points="397.88,-245.88 346.62,-245.88 346.62,-226.62 397.88,-226.62 397.88,-245.88"/>
<text xml:space="preserve" text-anchor="middle" x="372.25" y="-232.38" font-family="Helvetica,sans-Serif" font-size="10.00">stddef.h</text>
</a>
</g>
</g>
<!-- Node4&#45;&gt;Node18 -->
<g id="edge28_Node000004_Node000018" class="edge">
<title>Node4&#45;&gt;Node18</title>
<g id="a_edge28_Node000004_Node000018"><a xlink:title=" ">
<path fill="none" stroke="#63b8ff" d="M429.92,-287.18C419.64,-278.28 403.62,-264.41 391.07,-253.54"/>
<polygon fill="#63b8ff" stroke="#63b8ff" points="393.67,-251.17 383.82,-247.27 389.09,-256.46 393.67,-251.17"/>
</a>
</g>
</g>
<!-- Node4&#45;&gt;Node19 -->
<g id="edge30_Node000004_Node000019" class="edge">
<title>Node4&#45;&gt;Node19</title>
<g id="a_edge30_Node000004_Node000019"><a xlink:title=" ">
<path fill="none" stroke="#63b8ff" d="M497.03,-287.01C551.32,-278.22 635.45,-264.39 708.25,-251.5 721.61,-249.14 736.27,-246.42 749.11,-243.99"/>
<polygon fill="#63b8ff" stroke="#63b8ff" points="749.65,-247.45 758.83,-242.15 748.35,-240.58 749.65,-247.45"/>
</a>
</g>
</g>
<!-- Node20 -->
<g id="Node000020" class="node">
<title>Node20</title>
<g id="a_Node000020"><a xlink:title=" ">
<polygon fill="#e0e0e0" stroke="#999999" points="464.38,-245.88 416.12,-245.88 416.12,-226.62 464.38,-226.62 464.38,-245.88"/>
<text xml:space="preserve" text-anchor="middle" x="440.25" y="-232.38" font-family="Helvetica,sans-Serif" font-size="10.00">string.h</text>
</a>
</g>
</g>
<!-- Node4&#45;&gt;Node20 -->
<g id="edge31_Node000004_Node000020" class="edge">
<title>Node4&#45;&gt;Node20</title>
<g id="a_edge31_Node000004_Node000020"><a xlink:title=" ">
<path fill="none" stroke="#63b8ff" d="M440.25,-287.18C440.25,-279.4 440.25,-267.83 440.25,-257.78"/>
<polygon fill="#63b8ff" stroke="#63b8ff" points="443.75,-257.79 440.25,-247.79 436.75,-257.79 443.75,-257.79"/>
</a>
</g>
</g>
<!-- Node4&#45;&gt;Node21 -->
<g id="edge32_Node000004_Node000021" class="edge">
<title>Node4&#45;&gt;Node21</title>
<g id="a_edge32_Node000004_Node000021"><a xlink:title=" ">
<path fill="none" stroke="#63b8ff" d="M503.86,-294.87C579.82,-291.94 710.06,-282.4 817.25,-251.5 818.24,-251.21 819.25,-250.9 820.25,-250.56"/>
<polygon fill="#63b8ff" stroke="#63b8ff" points="821.48,-253.84 829.41,-246.81 818.83,-247.36 821.48,-253.84"/>
</a>
</g>
</g>
<!-- Node5&#45;&gt;Node6 -->
<g id="edge5_Node000005_Node000006" class="edge">
<title>Node5&#45;&gt;Node6</title>
<g id="a_edge5_Node000005_Node000006"><a xlink:title=" ">
<path fill="none" stroke="#63b8ff" d="M629.81,-220.7C639.42,-212.25 651.56,-201.58 661.52,-192.83"/>
<polygon fill="#63b8ff" stroke="#63b8ff" points="663.58,-195.68 668.78,-186.45 658.96,-190.42 663.58,-195.68"/>
</a>
</g>
</g>
<!-- Node7&#45;&gt;Node6 -->
<g id="edge20_Node000007_Node000006" class="edge">
<title>Node7&#45;&gt;Node6</title>
<g id="a_edge20_Node000007_Node000006"><a xlink:title=" ">
<path fill="none" stroke="#63b8ff" d="M200.97,-226.14C206.87,-224.17 213.23,-222.29 219.25,-221 375.53,-187.4 567.08,-179.07 644.89,-177.03"/>
<polygon fill="#63b8ff" stroke="#63b8ff" points="644.53,-180.54 654.44,-176.8 644.36,-173.54 644.53,-180.54"/>
</a>
</g>
</g>
<!-- Node8 -->
<g id="Node000008" class="node">
<title>Node8</title>
<g id="a_Node000008"><a xlink:title=" ">
<polygon fill="#e0e0e0" stroke="#999999" points="289.62,-74.5 236.88,-74.5 236.88,-55.25 289.62,-55.25 289.62,-74.5"/>
<text xml:space="preserve" text-anchor="middle" x="263.25" y="-61" font-family="Helvetica,sans-Serif" font-size="10.00">pd_api.h</text>
</a>
</g>
</g>
<!-- Node7&#45;&gt;Node8 -->
<g id="edge7_Node000007_Node000008" class="edge">
<title>Node7&#45;&gt;Node8</title>
<g id="a_edge7_Node000007_Node000008"><a xlink:title=" ">
<path fill="none" stroke="#63b8ff" d="M181.87,-226.14C195.41,-199.48 235.16,-121.19 253.63,-84.83"/>
<polygon fill="#63b8ff" stroke="#63b8ff" points="256.72,-86.47 258.13,-75.97 250.48,-83.3 256.72,-86.47"/>
</a>
</g>
</g>
<!-- Node7&#45;&gt;Node9 -->
<g id="edge8_Node000007_Node000009" class="edge">
<title>Node7&#45;&gt;Node9</title>
<g id="a_edge8_Node000007_Node000009"><a xlink:title=" ">
<path fill="none" stroke="#63b8ff" d="M153.83,-226.18C128.51,-216.37 87.89,-200.64 59.1,-189.48"/>
<polygon fill="#63b8ff" stroke="#63b8ff" points="60.69,-186.35 50.1,-186 58.17,-192.88 60.69,-186.35"/>
</a>
</g>
</g>
<!-- Node7&#45;&gt;Node10 -->
<g id="edge18_Node000007_Node000010" class="edge">
<title>Node7&#45;&gt;Node10</title>
<g id="a_edge18_Node000007_Node000010"><a xlink:title=" ">
<path fill="none" stroke="#63b8ff" d="M176.39,-226.29C174.64,-208.13 170.63,-166.54 168.21,-141.45"/>
<polygon fill="#63b8ff" stroke="#63b8ff" points="171.7,-141.16 167.25,-131.55 164.73,-141.83 171.7,-141.16"/>
</a>
</g>
</g>
<!-- Node7&#45;&gt;Node13 -->
<g id="edge21_Node000007_Node000013" class="edge">
<title>Node7&#45;&gt;Node13</title>
<g id="a_edge21_Node000007_Node000013"><a xlink:title=" ">
<path fill="none" stroke="#63b8ff" d="M189.18,-226.17C234.22,-191.87 394.26,-70.01 451.61,-26.34"/>
<polygon fill="#63b8ff" stroke="#63b8ff" points="453.46,-29.34 459.29,-20.49 449.21,-23.77 453.46,-29.34"/>
</a>
</g>
</g>
<!-- Node7&#45;&gt;Node14 -->
<g id="edge19_Node000007_Node000014" class="edge">
<title>Node7&#45;&gt;Node14</title>
<g id="a_edge19_Node000007_Node000014"><a xlink:title=" ">
<path fill="none" stroke="#63b8ff" d="M169.96,-226.31C163.05,-217.84 152.48,-204.87 143.84,-194.27"/>
<polygon fill="#63b8ff" stroke="#63b8ff" points="146.6,-192.11 137.57,-186.57 141.17,-196.54 146.6,-192.11"/>
</a>
</g>
</g>
<!-- Node9&#45;&gt;Node8 -->
<g id="edge9_Node000009_Node000008" class="edge">
<title>Node9&#45;&gt;Node8</title>
<g id="a_edge9_Node000009_Node000008"><a xlink:title=" ">
<path fill="none" stroke="#63b8ff" d="M38.55,-165.42C58.63,-152.16 98.19,-127.11 134.25,-110.5 164.06,-96.77 199.38,-84.84 225.51,-76.77"/>
<polygon fill="#63b8ff" stroke="#63b8ff" points="226.46,-80.14 235.02,-73.89 224.43,-73.44 226.46,-80.14"/>
</a>
</g>
</g>
<!-- Node9&#45;&gt;Node10 -->
<g id="edge10_Node000009_Node000010" class="edge">
<title>Node9&#45;&gt;Node10</title>
<g id="a_edge10_Node000009_Node000010"><a xlink:title=" ">
<path fill="none" stroke="#63b8ff" d="M49.17,-165.34C72.03,-156.71 106.71,-143.61 132.41,-133.91"/>
<polygon fill="#63b8ff" stroke="#63b8ff" points="133.62,-137.19 141.74,-130.38 131.14,-130.64 133.62,-137.19"/>
</a>
</g>
</g>
<!-- Node9&#45;&gt;Node13 -->
<g id="edge17_Node000009_Node000013" class="edge">
<title>Node9&#45;&gt;Node13</title>
<g id="a_edge17_Node000009_Node000013"><a xlink:title=" ">
<path fill="none" stroke="#63b8ff" d="M29.83,-165.57C42.18,-142.81 78.65,-81.93 128.25,-55.25 181.36,-26.68 361.93,-15.5 438.01,-11.99"/>
<polygon fill="#63b8ff" stroke="#63b8ff" points="437.94,-15.49 447.77,-11.55 437.63,-8.5 437.94,-15.49"/>
</a>
</g>
</g>
<!-- Node10&#45;&gt;Node8 -->
<g id="edge14_Node000010_Node000008" class="edge">
<title>Node10&#45;&gt;Node8</title>
<g id="a_edge14_Node000010_Node000008"><a xlink:title=" ">
<path fill="none" stroke="#63b8ff" d="M182.7,-110.09C197.48,-101.98 219.43,-89.93 236.68,-80.46"/>
<polygon fill="#63b8ff" stroke="#63b8ff" points="238.31,-83.56 245.39,-75.68 234.94,-77.43 238.31,-83.56"/>
</a>
</g>
</g>
<!-- Node11 -->
<g id="Node000011" class="node">
<title>Node11</title>
<g id="a_Node000011"><a xlink:href="array_8h.html" target="_top" xlink:title=" ">
<polygon fill="white" stroke="#666666" points="181.5,-74.5 137,-74.5 137,-55.25 181.5,-55.25 181.5,-74.5"/>
<text xml:space="preserve" text-anchor="middle" x="159.25" y="-61" font-family="Helvetica,sans-Serif" font-size="10.00">array.h</text>
</a>
</g>
</g>
<!-- Node10&#45;&gt;Node11 -->
<g id="edge11_Node000010_Node000011" class="edge">
<title>Node10&#45;&gt;Node11</title>
<g id="a_edge11_Node000010_Node000011"><a xlink:title=" ">
<path fill="none" stroke="#63b8ff" d="M165.09,-110.33C164.23,-103.74 163.01,-94.46 161.91,-86.07"/>
<polygon fill="#63b8ff" stroke="#63b8ff" points="165.4,-85.82 160.63,-76.36 158.46,-86.73 165.4,-85.82"/>
</a>
</g>
</g>
<!-- Node12 -->
<g id="Node000012" class="node">
<title>Node12</title>
<g id="a_Node000012"><a xlink:title=" ">
<polygon fill="#e0e0e0" stroke="#999999" points="162.12,-19.25 106.38,-19.25 106.38,0 162.12,0 162.12,-19.25"/>
<text xml:space="preserve" text-anchor="middle" x="134.25" y="-5.75" font-family="Helvetica,sans-Serif" font-size="10.00">stdbool.h</text>
</a>
</g>
</g>
<!-- Node10&#45;&gt;Node12 -->
<g id="edge15_Node000010_Node000012" class="edge">
<title>Node10&#45;&gt;Node12</title>
<g id="a_edge15_Node000010_Node000012"><a xlink:title=" ">
<path fill="none" stroke="#63b8ff" d="M155.18,-110.2C145.99,-102.03 133.59,-89.02 128.25,-74.5 123.06,-60.4 125.01,-43.43 128.01,-30.52"/>
<polygon fill="#63b8ff" stroke="#63b8ff" points="131.33,-31.65 130.61,-21.08 124.58,-29.79 131.33,-31.65"/>
</a>
</g>
</g>
<!-- Node10&#45;&gt;Node13 -->
<g id="edge16_Node000010_Node000013" class="edge">
<title>Node10&#45;&gt;Node13</title>
<g id="a_edge16_Node000010_Node000013"><a xlink:title=" ">
<path fill="none" stroke="#63b8ff" d="M171.93,-110.45C181.65,-96.38 202.9,-68.79 228.25,-55.25 296.33,-18.89 388.67,-11.57 437.94,-10.45"/>
<polygon fill="#63b8ff" stroke="#63b8ff" points="437.75,-13.95 447.7,-10.31 437.65,-6.95 437.75,-13.95"/>
</a>
</g>
</g>
<!-- Node11&#45;&gt;Node12 -->
<g id="edge12_Node000011_Node000012" class="edge">
<title>Node11&#45;&gt;Node12</title>
<g id="a_edge12_Node000011_Node000012"><a xlink:title=" ">
<path fill="none" stroke="#63b8ff" d="M155.12,-55.08C151.92,-48.26 147.36,-38.56 143.32,-29.95"/>
<polygon fill="#63b8ff" stroke="#63b8ff" points="146.53,-28.54 139.11,-20.98 140.19,-31.52 146.53,-28.54"/>
</a>
</g>
</g>
<!-- Node11&#45;&gt;Node13 -->
<g id="edge13_Node000011_Node000013" class="edge">
<title>Node11&#45;&gt;Node13</title>
<g id="a_edge13_Node000011_Node000013"><a xlink:title=" ">
<path fill="none" stroke="#63b8ff" d="M181.66,-58.23C186.15,-57.18 190.84,-56.13 195.25,-55.25 282.1,-37.88 385.33,-22.67 437.84,-15.32"/>
<polygon fill="#63b8ff" stroke="#63b8ff" points="438.24,-18.79 447.66,-13.95 437.28,-11.86 438.24,-18.79"/>
</a>
</g>
</g>
<!-- Node15&#45;&gt;Node10 -->
<g id="edge23_Node000015_Node000010" class="edge">
<title>Node15&#45;&gt;Node10</title>
<g id="a_edge23_Node000015_Node000010"><a xlink:title=" ">
<path fill="none" stroke="#63b8ff" d="M269.46,-226.29C250.81,-207.29 207.03,-162.68 182.91,-138.1"/>
<polygon fill="#63b8ff" stroke="#63b8ff" points="185.56,-135.8 176.06,-131.12 180.56,-140.71 185.56,-135.8"/>
</a>
</g>
</g>
<!-- Node15&#45;&gt;Node13 -->
<g id="edge24_Node000015_Node000013" class="edge">
<title>Node15&#45;&gt;Node13</title>
<g id="a_edge24_Node000015_Node000013"><a xlink:title=" ">
<path fill="none" stroke="#63b8ff" d="M307.33,-226.15C338.92,-215.78 386.72,-198.52 400.25,-185 444.2,-141.08 462.55,-66.5 469.11,-30.82"/>
<polygon fill="#63b8ff" stroke="#63b8ff" points="472.54,-31.49 470.76,-21.05 465.64,-30.33 472.54,-31.49"/>
</a>
</g>
</g>
<!-- Node16 -->
<g id="Node000016" class="node">
<title>Node16</title>
<g id="a_Node000016"><a xlink:href="prefs_8x.html" target="_top" xlink:title=" ">
<polygon fill="white" stroke="#666666" points="391.25,-185 345.25,-185 345.25,-165.75 391.25,-165.75 391.25,-185"/>
<text xml:space="preserve" text-anchor="middle" x="368.25" y="-171.5" font-family="Helvetica,sans-Serif" font-size="10.00">prefs.x</text>
</a>
</g>
</g>
<!-- Node15&#45;&gt;Node16 -->
<g id="edge25_Node000015_Node000016" class="edge">
<title>Node15&#45;&gt;Node16</title>
<g id="a_edge25_Node000015_Node000016"><a xlink:title=" ">
<path fill="none" stroke="#63b8ff" d="M291.92,-226.31C306.06,-217.06 328.39,-202.45 345.26,-191.42"/>
<polygon fill="#63b8ff" stroke="#63b8ff" points="346.73,-194.63 353.19,-186.23 342.9,-188.78 346.73,-194.63"/>
</a>
</g>
</g>
<!-- Node22&#45;&gt;Node6 -->
<g id="edge39_Node000022_Node000006" class="edge">
<title>Node22&#45;&gt;Node6</title>
<g id="a_edge39_Node000022_Node000006"><a xlink:title=" ">
<path fill="none" stroke="#63b8ff" d="M917.85,-287.11C913.12,-271.14 901,-237.99 878.25,-221 830.35,-185.23 758.98,-177.27 716.28,-175.97"/>
<polygon fill="#63b8ff" stroke="#63b8ff" points="716.36,-172.47 706.3,-175.79 716.23,-179.47 716.36,-172.47"/>
</a>
</g>
</g>
<!-- Node22&#45;&gt;Node8 -->
<g id="edge38_Node000022_Node000008" class="edge">
<title>Node22&#45;&gt;Node8</title>
<g id="a_edge38_Node000022_Node000008"><a xlink:title=" ">
<path fill="none" stroke="#63b8ff" d="M921.05,-287.42C921.96,-271.95 921.51,-239.55 904.25,-221 820.46,-130.98 425.93,-82.81 301.17,-69.64"/>
<polygon fill="#63b8ff" stroke="#63b8ff" points="301.77,-66.18 291.46,-68.63 301.05,-73.14 301.77,-66.18"/>
</a>
</g>
</g>
<!-- Node24 -->
<g id="Node000024" class="node">
<title>Node24</title>
<g id="a_Node000024"><a xlink:href="http_8h.html" target="_top" xlink:title=" ">
<polygon fill="white" stroke="#666666" points="1041.62,-129.75 1000.88,-129.75 1000.88,-110.5 1041.62,-110.5 1041.62,-129.75"/>
<text xml:space="preserve" text-anchor="middle" x="1021.25" y="-116.25" font-family="Helvetica,sans-Serif" font-size="10.00">http.h</text>
</a>
</g>
</g>
<!-- Node23&#45;&gt;Node24 -->
<g id="edge45_Node000023_Node000024" class="edge">
<title>Node23&#45;&gt;Node24</title>
<g id="a_edge45_Node000023_Node000024"><a xlink:title=" ">
<path fill="none" stroke="#63b8ff" d="M1007.64,-397.65C1010.39,-379.11 1016.25,-335.2 1016.25,-298.12 1016.25,-298.12 1016.25,-298.12 1016.25,-235.25 1016.25,-202.27 1018.36,-163.98 1019.84,-141.2"/>
<polygon fill="#63b8ff" stroke="#63b8ff" points="1023.31,-141.72 1020.49,-131.51 1016.33,-141.25 1023.31,-141.72"/>
</a>
</g>
</g>
<!-- Node24&#45;&gt;Node13 -->
<g id="edge46_Node000024_Node000013" class="edge">
<title>Node24&#45;&gt;Node13</title>
<g id="a_edge46_Node000024_Node000013"><a xlink:title=" ">
<path fill="none" stroke="#63b8ff" d="M1019.39,-110.3C1015.86,-96.02 1006.74,-68.13 987.25,-55.25 947.24,-28.81 615.05,-15.41 506.45,-11.71"/>
<polygon fill="#63b8ff" stroke="#63b8ff" points="506.83,-8.22 496.72,-11.38 506.6,-15.22 506.83,-8.22"/>
</a>
</g>
</g>
</g>
</svg>

<g id="navigator" transform="translate(0 0)" fill="#404254">
  <rect fill="#f2f5e9" fill-opacity="0.5" stroke="#606060" stroke-width=".5" x="0" y="0" width="60" height="60"/>
  <use id="zoomplus" xlink:href="#zoomPlus" x="17" y="9" onmousedown="handleZoom(evt,'in')"/>
  <use id="zoomminus" xlink:href="#zoomMin" x="42" y="9" onmousedown="handleZoom(evt,'out')"/>
  <use id="reset" xlink:href="#resetDef" x="30" y="36" onmousedown="handleReset()"/>
   <use id="arrowup" xlink:href="#arrowUp" x="0" y="0" onmousedown="handlePan(0,-1)"/>
  <use id="arrowright" xlink:href="#arrowRight" x="0" y="0" onmousedown="handlePan(1,0)"/>
  <use id="arrowdown" xlink:href="#arrowDown" x="0" y="0" onmousedown="handlePan(0,1)"/>
  <use id="arrowleft" xlink:href="#arrowLeft" x="0" y="0" onmousedown="handlePan(-1,0)"/>
</g>
<svg viewBox="0 0 15 15" width="100%" height="30px" preserveAspectRatio="xMaxYMin meet">
 <g id="arrow_out" transform="scale(0.3 0.3)">
  <a xlink:href="credits__scene_8c__incl_org.svg" target="_base">
   <rect id="button" ry="5" rx="5" y="6" x="6" height="38" width="38"
        fill="#f2f5e9" fill-opacity="0.5" stroke="#606060" stroke-width="1.0"/>
   <path id="arrow"
     d="M 11.500037,31.436501 C 11.940474,20.09759 22.043105,11.32322 32.158766,21.979434 L 37.068811,17.246167 C 37.068811,17.246167 37.088388,32 37.088388,32 L 22.160133,31.978069 C 22.160133,31.978069 26.997745,27.140456 26.997745,27.140456 C 18.528582,18.264221 13.291696,25.230495 11.500037,31.436501 z"
     style="fill:#404040;"/>
  </a>
 </g>
</svg>

<style type='text/css'>
<![CDATA[
[data-mouse-over-selected='false'] { opacity: 0.7; }
[data-mouse-over-selected='true']  { opacity: 1.0; }
]]>
</style>
<script type="application/ecmascript"><![CDATA[
document.addEventListener('DOMContentLoaded', (event) => {
  highlightEdges();
  highlightAdjacentNodes();
});
]]></script>
</svg>
