<?xml version="1.0" encoding="UTF-8" standalone="no"?>
<!DOCTYPE svg PUBLIC "-//W3C//DTD SVG 1.1//EN"
 "http://www.w3.org/Graphics/SVG/1.1/DTD/svg11.dtd">
<!-- Generated by graphviz version 13.1.0 (20250701.0955)
 -->
<!-- Title: src/dtcm.c Pages: 1 -->
<svg width="238pt" height="193pt"
 viewBox="0.00 0.00 238.00 193.00" xmlns="http://www.w3.org/2000/svg" xmlns:xlink="http://www.w3.org/1999/xlink">
<g id="graph0" class="graph" transform="scale(1 1) rotate(0) translate(4 189)">
<title>src/dtcm.c</title>
<!-- Node1 -->
<g id="Node000001" class="node">
<title>Node1</title>
<g id="a_Node000001"><a xlink:title=" ">
<polygon fill="#999999" stroke="#666666" points="162.53,-185 100.03,-185 100.03,-165.75 162.53,-165.75 162.53,-185"/>
<text xml:space="preserve" text-anchor="middle" x="131.28" y="-171.5" font-family="Helvetica,sans-Serif" font-size="10.00">src/dtcm.c</text>
</a>
</g>
</g>
<!-- Node2 -->
<g id="Node000002" class="node">
<title>Node2</title>
<g id="a_Node000002"><a xlink:href="dtcm_8h.html" target="_top" xlink:title=" ">
<polygon fill="white" stroke="#666666" points="230.28,-74.5 184.28,-74.5 184.28,-55.25 230.28,-55.25 230.28,-74.5"/>
<text xml:space="preserve" text-anchor="middle" x="207.28" y="-61" font-family="Helvetica,sans-Serif" font-size="10.00">dtcm.h</text>
</a>
</g>
</g>
<!-- Node1&#45;&gt;Node2 -->
<g id="edge1_Node000001_Node000002" class="edge">
<title>Node1&#45;&gt;Node2</title>
<g id="a_edge1_Node000001_Node000002"><a xlink:title=" ">
<path fill="none" stroke="#63b8ff" d="M137.5,-165.5C149.92,-147.77 177.99,-107.69 194.5,-84.13"/>
<polygon fill="#63b8ff" stroke="#63b8ff" points="197.24,-86.31 200.11,-76.12 191.51,-82.3 197.24,-86.31"/>
</a>
</g>
</g>
<!-- Node5 -->
<g id="Node000005" class="node">
<title>Node5</title>
<g id="a_Node000005"><a xlink:href="utility_8h.html" target="_top" xlink:title=" ">
<polygon fill="white" stroke="#666666" points="129.28,-129.75 83.28,-129.75 83.28,-110.5 129.28,-110.5 129.28,-129.75"/>
<text xml:space="preserve" text-anchor="middle" x="106.28" y="-116.25" font-family="Helvetica,sans-Serif" font-size="10.00">utility.h</text>
</a>
</g>
</g>
<!-- Node1&#45;&gt;Node5 -->
<g id="edge4_Node000001_Node000005" class="edge">
<title>Node1&#45;&gt;Node5</title>
<g id="a_edge4_Node000001_Node000005"><a xlink:title=" ">
<path fill="none" stroke="#63b8ff" d="M127.16,-165.58C123.95,-158.76 119.4,-149.06 115.36,-140.45"/>
<polygon fill="#63b8ff" stroke="#63b8ff" points="118.56,-139.04 111.14,-131.48 112.23,-142.02 118.56,-139.04"/>
</a>
</g>
</g>
<!-- Node3 -->
<g id="Node000003" class="node">
<title>Node3</title>
<g id="a_Node000003"><a xlink:title=" ">
<polygon fill="#e0e0e0" stroke="#999999" points="124.16,-19.25 68.41,-19.25 68.41,0 124.16,0 124.16,-19.25"/>
<text xml:space="preserve" text-anchor="middle" x="96.28" y="-5.75" font-family="Helvetica,sans-Serif" font-size="10.00">stdbool.h</text>
</a>
</g>
</g>
<!-- Node2&#45;&gt;Node3 -->
<g id="edge2_Node000002_Node000003" class="edge">
<title>Node2&#45;&gt;Node3</title>
<g id="a_edge2_Node000002_Node000003"><a xlink:title=" ">
<path fill="none" stroke="#63b8ff" d="M188.45,-54.84C171.23,-46.58 145.48,-34.23 125.57,-24.68"/>
<polygon fill="#63b8ff" stroke="#63b8ff" points="127.1,-21.53 116.57,-20.36 124.07,-27.84 127.1,-21.53"/>
</a>
</g>
</g>
<!-- Node4 -->
<g id="Node000004" class="node">
<title>Node4</title>
<g id="a_Node000004"><a xlink:title=" ">
<polygon fill="#e0e0e0" stroke="#999999" points="187.91,-19.25 142.66,-19.25 142.66,0 187.91,0 187.91,-19.25"/>
<text xml:space="preserve" text-anchor="middle" x="165.28" y="-5.75" font-family="Helvetica,sans-Serif" font-size="10.00">stdio.h</text>
</a>
</g>
</g>
<!-- Node2&#45;&gt;Node4 -->
<g id="edge3_Node000002_Node000004" class="edge">
<title>Node2&#45;&gt;Node4</title>
<g id="a_edge3_Node000002_Node000004"><a xlink:title=" ">
<path fill="none" stroke="#63b8ff" d="M200.35,-55.08C194.67,-47.88 186.45,-37.46 179.39,-28.51"/>
<polygon fill="#63b8ff" stroke="#63b8ff" points="182.25,-26.48 173.31,-20.8 176.75,-30.82 182.25,-26.48"/>
</a>
</g>
</g>
<!-- Node5&#45;&gt;Node3 -->
<g id="edge9_Node000005_Node000003" class="edge">
<title>Node5&#45;&gt;Node3</title>
<g id="a_edge9_Node000005_Node000003"><a xlink:title=" ">
<path fill="none" stroke="#63b8ff" d="M82.95,-116.26C58.62,-111.88 21.63,-101.03 4.28,-74.5 -12.23,-49.24 25.09,-31.13 57.04,-20.79"/>
<polygon fill="#63b8ff" stroke="#63b8ff" points="58.03,-24.15 66.58,-17.89 55.99,-17.45 58.03,-24.15"/>
</a>
</g>
</g>
<!-- Node5&#45;&gt;Node4 -->
<g id="edge10_Node000005_Node000004" class="edge">
<title>Node5&#45;&gt;Node4</title>
<g id="a_edge10_Node000005_Node000004"><a xlink:title=" ">
<path fill="none" stroke="#63b8ff" d="M113.23,-110.23C119.9,-101.46 130.01,-87.51 137.28,-74.5 145.34,-60.1 152.76,-42.93 157.93,-30.02"/>
<polygon fill="#63b8ff" stroke="#63b8ff" points="161.08,-31.56 161.45,-20.97 154.56,-29.02 161.08,-31.56"/>
</a>
</g>
</g>
<!-- Node6 -->
<g id="Node000006" class="node">
<title>Node6</title>
<g id="a_Node000006"><a xlink:href="array_8h.html" target="_top" xlink:title=" ">
<polygon fill="white" stroke="#666666" points="128.53,-74.5 84.03,-74.5 84.03,-55.25 128.53,-55.25 128.53,-74.5"/>
<text xml:space="preserve" text-anchor="middle" x="106.28" y="-61" font-family="Helvetica,sans-Serif" font-size="10.00">array.h</text>
</a>
</g>
</g>
<!-- Node5&#45;&gt;Node6 -->
<g id="edge5_Node000005_Node000006" class="edge">
<title>Node5&#45;&gt;Node6</title>
<g id="a_edge5_Node000005_Node000006"><a xlink:title=" ">
<path fill="none" stroke="#63b8ff" d="M106.28,-110.33C106.28,-103.82 106.28,-94.67 106.28,-86.37"/>
<polygon fill="#63b8ff" stroke="#63b8ff" points="109.78,-86.37 106.28,-76.37 102.78,-86.37 109.78,-86.37"/>
</a>
</g>
</g>
<!-- Node7 -->
<g id="Node000007" class="node">
<title>Node7</title>
<g id="a_Node000007"><a xlink:title=" ">
<polygon fill="#e0e0e0" stroke="#999999" points="65.66,-74.5 12.91,-74.5 12.91,-55.25 65.66,-55.25 65.66,-74.5"/>
<text xml:space="preserve" text-anchor="middle" x="39.28" y="-61" font-family="Helvetica,sans-Serif" font-size="10.00">pd_api.h</text>
</a>
</g>
</g>
<!-- Node5&#45;&gt;Node7 -->
<g id="edge8_Node000005_Node000007" class="edge">
<title>Node5&#45;&gt;Node7</title>
<g id="a_edge8_Node000005_Node000007"><a xlink:title=" ">
<path fill="none" stroke="#63b8ff" d="M94.92,-110.09C85.23,-102.4 71.08,-91.15 59.48,-81.93"/>
<polygon fill="#63b8ff" stroke="#63b8ff" points="61.67,-79.2 51.67,-75.72 57.32,-84.68 61.67,-79.2"/>
</a>
</g>
</g>
<!-- Node6&#45;&gt;Node3 -->
<g id="edge6_Node000006_Node000003" class="edge">
<title>Node6&#45;&gt;Node3</title>
<g id="a_edge6_Node000006_Node000003"><a xlink:title=" ">
<path fill="none" stroke="#63b8ff" d="M104.63,-55.08C103.4,-48.49 101.65,-39.21 100.08,-30.82"/>
<polygon fill="#63b8ff" stroke="#63b8ff" points="103.54,-30.28 98.25,-21.1 96.66,-31.57 103.54,-30.28"/>
</a>
</g>
</g>
<!-- Node6&#45;&gt;Node4 -->
<g id="edge7_Node000006_Node000004" class="edge">
<title>Node6&#45;&gt;Node4</title>
<g id="a_edge7_Node000006_Node000004"><a xlink:title=" ">
<path fill="none" stroke="#63b8ff" d="M116.29,-54.84C124.65,-47.3 136.78,-36.35 146.88,-27.23"/>
<polygon fill="#63b8ff" stroke="#63b8ff" points="149.22,-29.84 154.3,-20.54 144.53,-24.64 149.22,-29.84"/>
</a>
</g>
</g>
</g>
</svg>
