<?xml version="1.0" encoding="UTF-8" standalone="no"?>
<!DOCTYPE svg PUBLIC "-//W3C//DTD SVG 1.1//EN"
 "http://www.w3.org/Graphics/SVG/1.1/DTD/svg11.dtd">
<!-- Generated by graphviz version 13.1.0 (20250701.0955)
 -->
<!-- Title: src/dtcm.h Pages: 1 -->
<svg width="791pt" height="83pt"
 viewBox="0.00 0.00 791.00 83.00" xmlns="http://www.w3.org/2000/svg" xmlns:xlink="http://www.w3.org/1999/xlink">
<g id="graph0" class="graph" transform="scale(1 1) rotate(0) translate(4 78.5)">
<title>src/dtcm.h</title>
<!-- Node1 -->
<g id="Node000001" class="node">
<title>Node1</title>
<g id="a_Node000001"><a xlink:title=" ">
<polygon fill="#999999" stroke="#666666" points="392.88,-74.5 330.38,-74.5 330.38,-55.25 392.88,-55.25 392.88,-74.5"/>
<text xml:space="preserve" text-anchor="middle" x="361.62" y="-61" font-family="Helvetica,sans-Serif" font-size="10.00">src/dtcm.h</text>
</a>
</g>
</g>
<!-- Node2 -->
<g id="Node000002" class="node">
<title>Node2</title>
<g id="a_Node000002"><a xlink:href="main_8c.html" target="_top" xlink:title=" ">
<polygon fill="white" stroke="#666666" points="45.25,-19.25 0,-19.25 0,0 45.25,0 45.25,-19.25"/>
<text xml:space="preserve" text-anchor="middle" x="22.62" y="-5.75" font-family="Helvetica,sans-Serif" font-size="10.00">main.c</text>
</a>
</g>
</g>
<!-- Node1&#45;&gt;Node2 -->
<g id="edge1_Node000001_Node000002" class="edge">
<title>Node1&#45;&gt;Node2</title>
<g id="a_edge1_Node000001_Node000002"><a xlink:title=" ">
<path fill="none" stroke="#63b8ff" d="M318.82,-59.28C259.24,-52.52 148.08,-38.57 54.62,-19.25 51.69,-18.64 48.63,-17.93 45.62,-17.17"/>
<polygon fill="#63b8ff" stroke="#63b8ff" points="318.2,-62.73 328.53,-60.37 318.98,-55.78 318.2,-62.73"/>
</a>
</g>
</g>
<!-- Node3 -->
<g id="Node000003" class="node">
<title>Node3</title>
<g id="a_Node000003"><a xlink:href="minigb__apu_8c.html" target="_top" xlink:title=" ">
<polygon fill="white" stroke="#666666" points="189.75,-19.25 63.5,-19.25 63.5,0 189.75,0 189.75,-19.25"/>
<text xml:space="preserve" text-anchor="middle" x="126.62" y="-5.75" font-family="Helvetica,sans-Serif" font-size="10.00">minigb_apu/minigb_apu.c</text>
</a>
</g>
</g>
<!-- Node1&#45;&gt;Node3 -->
<g id="edge2_Node000001_Node000003" class="edge">
<title>Node1&#45;&gt;Node3</title>
<g id="a_edge2_Node000001_Node000003"><a xlink:title=" ">
<path fill="none" stroke="#63b8ff" d="M318.92,-54.2C275.64,-44.39 209.21,-29.34 166.85,-19.74"/>
<polygon fill="#63b8ff" stroke="#63b8ff" points="317.93,-57.56 328.46,-56.36 319.48,-50.74 317.93,-57.56"/>
</a>
</g>
</g>
<!-- Node4 -->
<g id="Node000004" class="node">
<title>Node4</title>
<g id="a_Node000004"><a xlink:href="app_8c.html" target="_top" xlink:title=" ">
<polygon fill="white" stroke="#666666" points="263.88,-19.25 207.38,-19.25 207.38,0 263.88,0 263.88,-19.25"/>
<text xml:space="preserve" text-anchor="middle" x="235.62" y="-5.75" font-family="Helvetica,sans-Serif" font-size="10.00">src/app.c</text>
</a>
</g>
</g>
<!-- Node1&#45;&gt;Node4 -->
<g id="edge3_Node000001_Node000004" class="edge">
<title>Node1&#45;&gt;Node4</title>
<g id="a_edge3_Node000001_Node000004"><a xlink:title=" ">
<path fill="none" stroke="#63b8ff" d="M329.74,-50.4C307.01,-40.79 277.05,-28.13 257.1,-19.7"/>
<polygon fill="#63b8ff" stroke="#63b8ff" points="328.28,-53.58 338.86,-54.25 331.01,-47.14 328.28,-53.58"/>
</a>
</g>
</g>
<!-- Node5 -->
<g id="Node000005" class="node">
<title>Node5</title>
<g id="a_Node000005"><a xlink:href="dtcm_8c.html" target="_top" xlink:title=" ">
<polygon fill="white" stroke="#666666" points="344.88,-19.25 282.38,-19.25 282.38,0 344.88,0 344.88,-19.25"/>
<text xml:space="preserve" text-anchor="middle" x="313.62" y="-5.75" font-family="Helvetica,sans-Serif" font-size="10.00">src/dtcm.c</text>
</a>
</g>
</g>
<!-- Node1&#45;&gt;Node5 -->
<g id="edge4_Node000001_Node000005" class="edge">
<title>Node1&#45;&gt;Node5</title>
<g id="a_edge4_Node000001_Node000005"><a xlink:title=" ">
<path fill="none" stroke="#63b8ff" d="M346.23,-46.79C338.08,-37.75 328.41,-27.02 321.72,-19.61"/>
<polygon fill="#63b8ff" stroke="#63b8ff" points="343.39,-48.87 352.69,-53.96 348.59,-44.19 343.39,-48.87"/>
</a>
</g>
</g>
<!-- Node6 -->
<g id="Node000006" class="node">
<title>Node6</title>
<g id="a_Node000006"><a xlink:href="game__scene_8c.html" target="_top" xlink:title=" ">
<polygon fill="white" stroke="#666666" points="458.75,-19.25 362.5,-19.25 362.5,0 458.75,0 458.75,-19.25"/>
<text xml:space="preserve" text-anchor="middle" x="410.62" y="-5.75" font-family="Helvetica,sans-Serif" font-size="10.00">src/game_scene.c</text>
</a>
</g>
</g>
<!-- Node1&#45;&gt;Node6 -->
<g id="edge5_Node000001_Node000006" class="edge">
<title>Node1&#45;&gt;Node6</title>
<g id="a_edge5_Node000001_Node000006"><a xlink:title=" ">
<path fill="none" stroke="#63b8ff" d="M377.34,-46.79C385.66,-37.75 395.54,-27.02 402.36,-19.61"/>
<polygon fill="#63b8ff" stroke="#63b8ff" points="374.94,-44.24 370.74,-53.97 380.09,-48.98 374.94,-44.24"/>
</a>
</g>
</g>
<!-- Node7 -->
<g id="Node000007" class="node">
<title>Node7</title>
<g id="a_Node000007"><a xlink:href="library__scene_8c.html" target="_top" xlink:title=" ">
<polygon fill="white" stroke="#666666" points="574.88,-19.25 476.38,-19.25 476.38,0 574.88,0 574.88,-19.25"/>
<text xml:space="preserve" text-anchor="middle" x="525.62" y="-5.75" font-family="Helvetica,sans-Serif" font-size="10.00">src/library_scene.c</text>
</a>
</g>
</g>
<!-- Node1&#45;&gt;Node7 -->
<g id="edge6_Node000001_Node000007" class="edge">
<title>Node1&#45;&gt;Node7</title>
<g id="a_edge6_Node000001_Node000007"><a xlink:title=" ">
<path fill="none" stroke="#63b8ff" d="M400.32,-51.31C430.22,-41.6 470.88,-28.4 497.67,-19.7"/>
<polygon fill="#63b8ff" stroke="#63b8ff" points="399.32,-47.96 390.88,-54.37 401.48,-54.62 399.32,-47.96"/>
</a>
</g>
</g>
<!-- Node8 -->
<g id="Node000008" class="node">
<title>Node8</title>
<g id="a_Node000008"><a xlink:href="script_8c.html" target="_top" xlink:title=" ">
<polygon fill="white" stroke="#666666" points="658,-19.25 593.25,-19.25 593.25,0 658,0 658,-19.25"/>
<text xml:space="preserve" text-anchor="middle" x="625.62" y="-5.75" font-family="Helvetica,sans-Serif" font-size="10.00">src/script.c</text>
</a>
</g>
</g>
<!-- Node1&#45;&gt;Node8 -->
<g id="edge7_Node000001_Node000008" class="edge">
<title>Node1&#45;&gt;Node8</title>
<g id="a_edge7_Node000001_Node000008"><a xlink:title=" ">
<path fill="none" stroke="#63b8ff" d="M404.27,-55.36C448.98,-46.42 521.25,-31.92 583.62,-19.25 586.69,-18.63 589.88,-17.98 593.07,-17.32"/>
<polygon fill="#63b8ff" stroke="#63b8ff" points="403.85,-51.87 394.73,-57.26 405.23,-58.74 403.85,-51.87"/>
</a>
</g>
</g>
<!-- Node9 -->
<g id="Node000009" class="node">
<title>Node9</title>
<g id="a_Node000009"><a xlink:href="settings__scene_8c.html" target="_top" xlink:title=" ">
<polygon fill="white" stroke="#666666" points="783,-19.25 676.25,-19.25 676.25,0 783,0 783,-19.25"/>
<text xml:space="preserve" text-anchor="middle" x="729.62" y="-5.75" font-family="Helvetica,sans-Serif" font-size="10.00">src/settings_scene.c</text>
</a>
</g>
</g>
<!-- Node1&#45;&gt;Node9 -->
<g id="edge8_Node000001_Node000009" class="edge">
<title>Node1&#45;&gt;Node9</title>
<g id="a_edge8_Node000001_Node000009"><a xlink:title=" ">
<path fill="none" stroke="#63b8ff" d="M404.34,-57.69C471.65,-47.95 602.28,-29.05 675.87,-18.4"/>
<polygon fill="#63b8ff" stroke="#63b8ff" points="404.21,-54.18 394.82,-59.07 405.22,-61.1 404.21,-54.18"/>
</a>
</g>
</g>
</g>
</svg>
