<?xml version="1.0" encoding="UTF-8" standalone="no"?>
<!DOCTYPE svg PUBLIC "-//W3C//DTD SVG 1.1//EN"
 "http://www.w3.org/Graphics/SVG/1.1/DTD/svg11.dtd">
<!-- Generated by graphviz version 13.1.0 (20250701.0955)
 -->
<!-- Title: src/game_scene.c Pages: 1 -->
<svg width="1099pt" height="481pt"
 viewBox="0.00 0.00 1099.00 481.00" xmlns="http://www.w3.org/2000/svg" xmlns:xlink="http://www.w3.org/1999/xlink">
<g id="graph0" class="graph" transform="scale(1 1) rotate(0) translate(4 476.5)">
<title>src/game_scene.c</title>
<!-- Node1 -->
<g id="Node000001" class="node">
<title>Node1</title>
<g id="a_Node000001"><a xlink:title=" ">
<polygon fill="#999999" stroke="#666666" points="658.12,-472.5 561.88,-472.5 561.88,-453.25 658.12,-453.25 658.12,-472.5"/>
<text xml:space="preserve" text-anchor="middle" x="610" y="-459" font-family="Helvetica,sans-Serif" font-size="10.00">src/game_scene.c</text>
</a>
</g>
</g>
<!-- Node2 -->
<g id="Node000002" class="node">
<title>Node2</title>
<g id="a_Node000002"><a xlink:href="minigb__apu_8h.html" target="_top" xlink:title=" ">
<polygon fill="white" stroke="#666666" points="589,-251.5 483,-251.5 483,-221 589,-221 589,-251.5"/>
<text xml:space="preserve" text-anchor="start" x="491" y="-238" font-family="Helvetica,sans-Serif" font-size="10.00">../minigb_apu/minigb</text>
<text xml:space="preserve" text-anchor="middle" x="536" y="-226.75" font-family="Helvetica,sans-Serif" font-size="10.00">_apu.h</text>
</a>
</g>
</g>
<!-- Node1&#45;&gt;Node2 -->
<g id="edge1_Node000001_Node000002" class="edge">
<title>Node1&#45;&gt;Node2</title>
<g id="a_edge1_Node000001_Node000002"><a xlink:title=" ">
<path fill="none" stroke="#63b8ff" d="M602.6,-452.94C589.27,-436.26 561.43,-398.76 549,-362 537.91,-329.2 535.58,-289.03 535.41,-263.29"/>
<polygon fill="#63b8ff" stroke="#63b8ff" points="538.91,-263.44 535.46,-253.42 531.91,-263.4 538.91,-263.44"/>
</a>
</g>
</g>
<!-- Node4 -->
<g id="Node000004" class="node">
<title>Node4</title>
<g id="a_Node000004"><a xlink:href="peanut__gb_8h.html" target="_top" xlink:title=" ">
<polygon fill="white" stroke="#666666" points="485.12,-306.75 358.88,-306.75 358.88,-287.5 485.12,-287.5 485.12,-306.75"/>
<text xml:space="preserve" text-anchor="middle" x="422" y="-293.25" font-family="Helvetica,sans-Serif" font-size="10.00">../peanut_gb/peanut_gb.h</text>
</a>
</g>
</g>
<!-- Node1&#45;&gt;Node4 -->
<g id="edge3_Node000001_Node000004" class="edge">
<title>Node1&#45;&gt;Node4</title>
<g id="a_edge3_Node000001_Node000004"><a xlink:title=" ">
<path fill="none" stroke="#63b8ff" d="M582.29,-452.81C562.24,-445.35 535.22,-433.39 515,-417.25 478.74,-388.31 448.2,-342.51 432.78,-316.95"/>
<polygon fill="#63b8ff" stroke="#63b8ff" points="435.81,-315.21 427.72,-308.36 429.78,-318.76 435.81,-315.21"/>
</a>
</g>
</g>
<!-- Node5 -->
<g id="Node000005" class="node">
<title>Node5</title>
<g id="a_Node000005"><a xlink:href="app_8h.html" target="_top" xlink:title=" ">
<polygon fill="white" stroke="#666666" points="973.75,-245.88 908.25,-245.88 908.25,-226.62 973.75,-226.62 973.75,-245.88"/>
<text xml:space="preserve" text-anchor="middle" x="941" y="-232.38" font-family="Helvetica,sans-Serif" font-size="10.00">../src/app.h</text>
</a>
</g>
</g>
<!-- Node1&#45;&gt;Node5 -->
<g id="edge32_Node000001_Node000005" class="edge">
<title>Node1&#45;&gt;Node5</title>
<g id="a_edge32_Node000001_Node000005"><a xlink:title=" ">
<path fill="none" stroke="#63b8ff" d="M658.35,-459.56C753.78,-454.49 958.99,-440.94 980,-417.25 1021.32,-370.65 977.19,-290.76 953.72,-255.22"/>
<polygon fill="#63b8ff" stroke="#63b8ff" points="956.85,-253.6 948.32,-247.31 951.07,-257.54 956.85,-253.6"/>
</a>
</g>
</g>
<!-- Node8 -->
<g id="Node000008" class="node">
<title>Node8</title>
<g id="a_Node000008"><a xlink:href="utility_8h.html" target="_top" xlink:title=" ">
<polygon fill="white" stroke="#666666" points="685,-129.75 639,-129.75 639,-110.5 685,-110.5 685,-129.75"/>
<text xml:space="preserve" text-anchor="middle" x="662" y="-116.25" font-family="Helvetica,sans-Serif" font-size="10.00">utility.h</text>
</a>
</g>
</g>
<!-- Node1&#45;&gt;Node8 -->
<g id="edge54_Node000001_Node000008" class="edge">
<title>Node1&#45;&gt;Node8</title>
<g id="a_edge54_Node000001_Node000008"><a xlink:title=" ">
<path fill="none" stroke="#63b8ff" d="M561.72,-457.81C423.82,-445.55 38,-406.5 38,-353.38 38,-353.38 38,-353.38 38,-235.25 38,-174.84 496.33,-134.15 627.38,-123.75"/>
<polygon fill="#63b8ff" stroke="#63b8ff" points="627.47,-127.26 637.17,-122.99 626.93,-120.28 627.47,-127.26"/>
</a>
</g>
</g>
<!-- Node13 -->
<g id="Node000013" class="node">
<title>Node13</title>
<g id="a_Node000013"><a xlink:href="preferences_8h.html" target="_top" xlink:title=" ">
<polygon fill="white" stroke="#666666" points="745.38,-245.88 644.62,-245.88 644.62,-226.62 745.38,-226.62 745.38,-245.88"/>
<text xml:space="preserve" text-anchor="middle" x="695" y="-232.38" font-family="Helvetica,sans-Serif" font-size="10.00">../src/preferences.h</text>
</a>
</g>
</g>
<!-- Node1&#45;&gt;Node13 -->
<g id="edge40_Node000001_Node000013" class="edge">
<title>Node1&#45;&gt;Node13</title>
<g id="a_edge40_Node000001_Node000013"><a xlink:title=" ">
<path fill="none" stroke="#63b8ff" d="M613.44,-452.79C626.04,-419.49 669.89,-303.61 687.55,-256.94"/>
<polygon fill="#63b8ff" stroke="#63b8ff" points="690.81,-258.21 691.08,-247.62 684.26,-255.73 690.81,-258.21"/>
</a>
</g>
</g>
<!-- Node17 -->
<g id="Node000017" class="node">
<title>Node17</title>
<g id="a_Node000017"><a xlink:title=" ">
<polygon fill="#e0e0e0" stroke="#999999" points="113.75,-245.88 66.25,-245.88 66.25,-226.62 113.75,-226.62 113.75,-245.88"/>
<text xml:space="preserve" text-anchor="middle" x="90" y="-232.38" font-family="Helvetica,sans-Serif" font-size="10.00">stdlib.h</text>
</a>
</g>
</g>
<!-- Node1&#45;&gt;Node17 -->
<g id="edge55_Node000001_Node000017" class="edge">
<title>Node1&#45;&gt;Node17</title>
<g id="a_edge55_Node000001_Node000017"><a xlink:title=" ">
<path fill="none" stroke="#63b8ff" d="M569.79,-452.82C537.23,-444.96 490.46,-432.47 451,-417.25 319.98,-366.72 172.73,-284.91 115.06,-251.83"/>
<polygon fill="#63b8ff" stroke="#63b8ff" points="117.08,-248.95 106.66,-246.99 113.58,-255.02 117.08,-248.95"/>
</a>
</g>
</g>
<!-- Node18 -->
<g id="Node000018" class="node">
<title>Node18</title>
<g id="a_Node000018"><a xlink:title=" ">
<polygon fill="#e0e0e0" stroke="#999999" points="180.12,-245.88 131.88,-245.88 131.88,-226.62 180.12,-226.62 180.12,-245.88"/>
<text xml:space="preserve" text-anchor="middle" x="156" y="-232.38" font-family="Helvetica,sans-Serif" font-size="10.00">string.h</text>
</a>
</g>
</g>
<!-- Node1&#45;&gt;Node18 -->
<g id="edge56_Node000001_Node000018" class="edge">
<title>Node1&#45;&gt;Node18</title>
<g id="a_edge56_Node000001_Node000018"><a xlink:title=" ">
<path fill="none" stroke="#63b8ff" d="M582.64,-452.79C558.24,-444.41 521.74,-431.2 491,-417.25 371.5,-363.04 235.63,-284.51 180.84,-252.1"/>
<polygon fill="#63b8ff" stroke="#63b8ff" points="182.68,-249.12 172.29,-247.02 179.1,-255.14 182.68,-249.12"/>
</a>
</g>
</g>
<!-- Node20 -->
<g id="Node000020" class="node">
<title>Node20</title>
<g id="a_Node000020"><a xlink:href="dtcm_8h.html" target="_top" xlink:title=" ">
<polygon fill="white" stroke="#666666" points="567,-74.5 521,-74.5 521,-55.25 567,-55.25 567,-74.5"/>
<text xml:space="preserve" text-anchor="middle" x="544" y="-61" font-family="Helvetica,sans-Serif" font-size="10.00">dtcm.h</text>
</a>
</g>
</g>
<!-- Node1&#45;&gt;Node20 -->
<g id="edge33_Node000001_Node000020" class="edge">
<title>Node1&#45;&gt;Node20</title>
<g id="a_edge33_Node000001_Node000020"><a xlink:title=" ">
<path fill="none" stroke="#63b8ff" d="M561.52,-459.6C456.36,-454.31 210.25,-439.87 130,-417.25 68.04,-399.79 0,-417.75 0,-353.38 0,-353.38 0,-353.38 0,-174.38 0,-70.1 389.3,-64.6 509.25,-65.38"/>
<polygon fill="#63b8ff" stroke="#63b8ff" points="509.08,-68.88 519.11,-65.47 509.14,-61.88 509.08,-68.88"/>
</a>
</g>
</g>
<!-- Node21 -->
<g id="Node000021" class="node">
<title>Node21</title>
<g id="a_Node000021"><a xlink:href="modal_8h.html" target="_top" xlink:title=" ">
<polygon fill="white" stroke="#666666" points="814.25,-245.88 763.75,-245.88 763.75,-226.62 814.25,-226.62 814.25,-245.88"/>
<text xml:space="preserve" text-anchor="middle" x="789" y="-232.38" font-family="Helvetica,sans-Serif" font-size="10.00">modal.h</text>
</a>
</g>
</g>
<!-- Node1&#45;&gt;Node21 -->
<g id="edge36_Node000001_Node000021" class="edge">
<title>Node1&#45;&gt;Node21</title>
<g id="a_edge36_Node000001_Node000021"><a xlink:title=" ">
<path fill="none" stroke="#63b8ff" d="M617.24,-452.79C644.12,-419.06 738.49,-300.64 774.7,-255.19"/>
<polygon fill="#63b8ff" stroke="#63b8ff" points="777.43,-257.39 780.92,-247.38 771.95,-253.02 777.43,-257.39"/>
</a>
</g>
</g>
<!-- Node22 -->
<g id="Node000022" class="node">
<title>Node22</title>
<g id="a_Node000022"><a xlink:href="revcheck_8h.html" target="_top" xlink:title=" ">
<polygon fill="white" stroke="#666666" points="759,-417.25 695,-417.25 695,-398 759,-398 759,-417.25"/>
<text xml:space="preserve" text-anchor="middle" x="727" y="-403.75" font-family="Helvetica,sans-Serif" font-size="10.00">revcheck.h</text>
</a>
</g>
</g>
<!-- Node1&#45;&gt;Node22 -->
<g id="edge41_Node000001_Node000022" class="edge">
<title>Node1&#45;&gt;Node22</title>
<g id="a_edge41_Node000001_Node000022"><a xlink:title=" ">
<path fill="none" stroke="#63b8ff" d="M629.85,-452.84C648.17,-444.5 675.65,-432 696.71,-422.41"/>
<polygon fill="#63b8ff" stroke="#63b8ff" points="698.03,-425.66 705.68,-418.33 695.13,-419.29 698.03,-425.66"/>
</a>
</g>
</g>
<!-- Node23 -->
<g id="Node000023" class="node">
<title>Node23</title>
<g id="a_Node000023"><a xlink:href="script_8h.html" target="_top" xlink:title=" ">
<polygon fill="white" stroke="#666666" points="825.12,-417.25 776.88,-417.25 776.88,-398 825.12,-398 825.12,-417.25"/>
<text xml:space="preserve" text-anchor="middle" x="801" y="-403.75" font-family="Helvetica,sans-Serif" font-size="10.00">script.h</text>
</a>
</g>
</g>
<!-- Node1&#45;&gt;Node23 -->
<g id="edge42_Node000001_Node000023" class="edge">
<title>Node1&#45;&gt;Node23</title>
<g id="a_edge42_Node000001_Node000023"><a xlink:title=" ">
<path fill="none" stroke="#63b8ff" d="M642.4,-452.84C676.69,-443.28 730.61,-428.25 765.89,-418.41"/>
<polygon fill="#63b8ff" stroke="#63b8ff" points="766.49,-421.88 775.18,-415.82 764.61,-415.14 766.49,-421.88"/>
</a>
</g>
</g>
<!-- Node24 -->
<g id="Node000024" class="node">
<title>Node24</title>
<g id="a_Node000024"><a xlink:href="settings__scene_8h.html" target="_top" xlink:title=" ">
<polygon fill="white" stroke="#666666" points="971.12,-417.25 880.88,-417.25 880.88,-398 971.12,-398 971.12,-417.25"/>
<text xml:space="preserve" text-anchor="middle" x="926" y="-403.75" font-family="Helvetica,sans-Serif" font-size="10.00">settings_scene.h</text>
</a>
</g>
</g>
<!-- Node1&#45;&gt;Node24 -->
<g id="edge43_Node000001_Node000024" class="edge">
<title>Node1&#45;&gt;Node24</title>
<g id="a_edge43_Node000001_Node000024"><a xlink:title=" ">
<path fill="none" stroke="#63b8ff" d="M658.34,-453.73C715.1,-444.16 809.14,-428.32 869.3,-418.18"/>
<polygon fill="#63b8ff" stroke="#63b8ff" points="869.72,-421.66 879,-416.55 868.55,-414.76 869.72,-421.66"/>
</a>
</g>
</g>
<!-- Node25 -->
<g id="Node000025" class="node">
<title>Node25</title>
<g id="a_Node000025"><a xlink:href="game__scene_8h.html" target="_top" xlink:title=" ">
<polygon fill="white" stroke="#666666" points="892.88,-362 813.12,-362 813.12,-342.75 892.88,-342.75 892.88,-362"/>
<text xml:space="preserve" text-anchor="middle" x="853" y="-348.5" font-family="Helvetica,sans-Serif" font-size="10.00">game_scene.h</text>
</a>
</g>
</g>
<!-- Node1&#45;&gt;Node25 -->
<g id="edge57_Node000001_Node000025" class="edge">
<title>Node1&#45;&gt;Node25</title>
<g id="a_edge57_Node000001_Node000025"><a xlink:title=" ">
<path fill="none" stroke="#63b8ff" d="M658.38,-458.03C716.34,-452.47 808.8,-440.22 834,-417.25 846.17,-406.16 850.68,-387.66 852.29,-373.42"/>
<polygon fill="#63b8ff" stroke="#63b8ff" points="855.75,-374.02 852.96,-363.8 848.77,-373.53 855.75,-374.02"/>
</a>
</g>
</g>
<!-- Node26 -->
<g id="Node000026" class="node">
<title>Node26</title>
<g id="a_Node000026"><a xlink:href="userstack_8h.html" target="_top" xlink:title=" ">
<polygon fill="white" stroke="#666666" points="624.5,-362 557.5,-362 557.5,-342.75 624.5,-342.75 624.5,-362"/>
<text xml:space="preserve" text-anchor="middle" x="591" y="-348.5" font-family="Helvetica,sans-Serif" font-size="10.00">userstack.h</text>
</a>
</g>
</g>
<!-- Node1&#45;&gt;Node26 -->
<g id="edge52_Node000001_Node000026" class="edge">
<title>Node1&#45;&gt;Node26</title>
<g id="a_edge52_Node000001_Node000026"><a xlink:title=" ">
<path fill="none" stroke="#63b8ff" d="M608.45,-453C605.43,-435.75 598.7,-397.33 594.54,-373.56"/>
<polygon fill="#63b8ff" stroke="#63b8ff" points="598.01,-373.11 592.84,-363.87 591.11,-374.32 598.01,-373.11"/>
</a>
</g>
</g>
<!-- Node3 -->
<g id="Node000003" class="node">
<title>Node3</title>
<g id="a_Node000003"><a xlink:title=" ">
<polygon fill="#e0e0e0" stroke="#999999" points="562.12,-185 513.88,-185 513.88,-165.75 562.12,-165.75 562.12,-185"/>
<text xml:space="preserve" text-anchor="middle" x="538" y="-171.5" font-family="Helvetica,sans-Serif" font-size="10.00">stdint.h</text>
</a>
</g>
</g>
<!-- Node2&#45;&gt;Node3 -->
<g id="edge2_Node000002_Node000003" class="edge">
<title>Node2&#45;&gt;Node3</title>
<g id="a_edge2_Node000002_Node000003"><a xlink:title=" ">
<path fill="none" stroke="#63b8ff" d="M536.49,-220.7C536.74,-213.46 537.04,-204.59 537.31,-196.69"/>
<polygon fill="#63b8ff" stroke="#63b8ff" points="540.8,-197.08 537.64,-186.96 533.8,-196.84 540.8,-197.08"/>
</a>
</g>
</g>
<!-- Node4&#45;&gt;Node2 -->
<g id="edge4_Node000004_Node000002" class="edge">
<title>Node4&#45;&gt;Node2</title>
<g id="a_edge4_Node000004_Node000002"><a xlink:title=" ">
<path fill="none" stroke="#63b8ff" d="M439.31,-287.18C454.8,-279.18 478.05,-267.18 497.87,-256.94"/>
<polygon fill="#63b8ff" stroke="#63b8ff" points="499.24,-260.18 506.52,-252.48 496.03,-253.96 499.24,-260.18"/>
</a>
</g>
</g>
<!-- Node4&#45;&gt;Node3 -->
<g id="edge28_Node000004_Node000003" class="edge">
<title>Node4&#45;&gt;Node3</title>
<g id="a_edge28_Node000004_Node000003"><a xlink:title=" ">
<path fill="none" stroke="#63b8ff" d="M426.87,-287.03C435.16,-272.09 453.17,-241.9 474,-221 485.28,-209.68 499.75,-199.32 512.08,-191.43"/>
<polygon fill="#63b8ff" stroke="#63b8ff" points="513.86,-194.45 520.53,-186.22 510.18,-188.49 513.86,-194.45"/>
</a>
</g>
</g>
<!-- Node4&#45;&gt;Node5 -->
<g id="edge5_Node000004_Node000005" class="edge">
<title>Node4&#45;&gt;Node5</title>
<g id="a_edge5_Node000004_Node000005"><a xlink:title=" ">
<path fill="none" stroke="#63b8ff" d="M485.57,-289.24C564.66,-280.62 703.84,-265.32 823,-251.5 847.32,-248.68 874.45,-245.41 896.56,-242.72"/>
<polygon fill="#63b8ff" stroke="#63b8ff" points="896.94,-246.2 906.45,-241.51 896.1,-239.25 896.94,-246.2"/>
</a>
</g>
</g>
<!-- Node4&#45;&gt;Node8 -->
<g id="edge25_Node000004_Node000008" class="edge">
<title>Node4&#45;&gt;Node8</title>
<g id="a_edge25_Node000004_Node000008"><a xlink:title=" ">
<path fill="none" stroke="#63b8ff" d="M358.38,-292.77C287.76,-286.64 188.46,-269.39 227,-221 277.23,-157.93 533.31,-131.4 627.32,-123.68"/>
<polygon fill="#63b8ff" stroke="#63b8ff" points="627.52,-127.17 637.21,-122.89 626.97,-120.2 627.52,-127.17"/>
</a>
</g>
</g>
<!-- Node4&#45;&gt;Node13 -->
<g id="edge21_Node000004_Node000013" class="edge">
<title>Node4&#45;&gt;Node13</title>
<g id="a_edge21_Node000004_Node000013"><a xlink:title=" ">
<path fill="none" stroke="#63b8ff" d="M464.06,-287.05C511.85,-276.75 589.95,-259.91 641.9,-248.7"/>
<polygon fill="#63b8ff" stroke="#63b8ff" points="642.38,-252.18 651.41,-246.65 640.9,-245.34 642.38,-252.18"/>
</a>
</g>
</g>
<!-- Node15 -->
<g id="Node000015" class="node">
<title>Node15</title>
<g id="a_Node000015"><a xlink:title=" ">
<polygon fill="#e0e0e0" stroke="#999999" points="296.12,-245.88 235.88,-245.88 235.88,-226.62 296.12,-226.62 296.12,-245.88"/>
<text xml:space="preserve" text-anchor="middle" x="266" y="-232.38" font-family="Helvetica,sans-Serif" font-size="10.00">version.all</text>
</a>
</g>
</g>
<!-- Node4&#45;&gt;Node15 -->
<g id="edge26_Node000004_Node000015" class="edge">
<title>Node4&#45;&gt;Node15</title>
<g id="a_edge26_Node000004_Node000015"><a xlink:title=" ">
<path fill="none" stroke="#63b8ff" d="M397.97,-287.05C371.97,-277.24 330.29,-261.51 300.74,-250.36"/>
<polygon fill="#63b8ff" stroke="#63b8ff" points="302.07,-247.12 291.48,-246.86 299.6,-253.67 302.07,-247.12"/>
</a>
</g>
</g>
<!-- Node16 -->
<g id="Node000016" class="node">
<title>Node16</title>
<g id="a_Node000016"><a xlink:title=" ">
<polygon fill="#e0e0e0" stroke="#999999" points="365.62,-245.88 314.38,-245.88 314.38,-226.62 365.62,-226.62 365.62,-245.88"/>
<text xml:space="preserve" text-anchor="middle" x="340" y="-232.38" font-family="Helvetica,sans-Serif" font-size="10.00">stddef.h</text>
</a>
</g>
</g>
<!-- Node4&#45;&gt;Node16 -->
<g id="edge27_Node000004_Node000016" class="edge">
<title>Node4&#45;&gt;Node16</title>
<g id="a_edge27_Node000004_Node000016"><a xlink:title=" ">
<path fill="none" stroke="#63b8ff" d="M409.55,-287.18C396.9,-278.11 377.07,-263.87 361.81,-252.91"/>
<polygon fill="#63b8ff" stroke="#63b8ff" points="363.97,-250.15 353.8,-247.16 359.88,-255.83 363.97,-250.15"/>
</a>
</g>
</g>
<!-- Node4&#45;&gt;Node17 -->
<g id="edge29_Node000004_Node000017" class="edge">
<title>Node4&#45;&gt;Node17</title>
<g id="a_edge29_Node000004_Node000017"><a xlink:title=" ">
<path fill="none" stroke="#63b8ff" d="M358.57,-291.46C297.35,-285.84 202.49,-274.18 123,-251.5 121.65,-251.11 120.28,-250.69 118.91,-250.23"/>
<polygon fill="#63b8ff" stroke="#63b8ff" points="120.54,-247.11 109.95,-246.79 118.04,-253.64 120.54,-247.11"/>
</a>
</g>
</g>
<!-- Node4&#45;&gt;Node18 -->
<g id="edge30_Node000004_Node000018" class="edge">
<title>Node4&#45;&gt;Node18</title>
<g id="a_edge30_Node000004_Node000018"><a xlink:title=" ">
<path fill="none" stroke="#63b8ff" d="M361.35,-287.06C315.04,-279.47 249.88,-267.33 194,-251.5 192.39,-251.04 190.75,-250.55 189.1,-250.03"/>
<polygon fill="#63b8ff" stroke="#63b8ff" points="190.33,-246.75 179.73,-246.81 188.05,-253.37 190.33,-246.75"/>
</a>
</g>
</g>
<!-- Node19 -->
<g id="Node000019" class="node">
<title>Node19</title>
<g id="a_Node000019"><a xlink:title=" ">
<polygon fill="#e0e0e0" stroke="#999999" points="426.5,-245.88 383.5,-245.88 383.5,-226.62 426.5,-226.62 426.5,-245.88"/>
<text xml:space="preserve" text-anchor="middle" x="405" y="-232.38" font-family="Helvetica,sans-Serif" font-size="10.00">time.h</text>
</a>
</g>
</g>
<!-- Node4&#45;&gt;Node19 -->
<g id="edge31_Node000004_Node000019" class="edge">
<title>Node4&#45;&gt;Node19</title>
<g id="a_edge31_Node000004_Node000019"><a xlink:title=" ">
<path fill="none" stroke="#63b8ff" d="M419.42,-287.18C417.12,-279.23 413.68,-267.31 410.74,-257.12"/>
<polygon fill="#63b8ff" stroke="#63b8ff" points="414.16,-256.37 408.03,-247.73 407.44,-258.31 414.16,-256.37"/>
</a>
</g>
</g>
<!-- Node5&#45;&gt;Node3 -->
<g id="edge19_Node000005_Node000003" class="edge">
<title>Node5&#45;&gt;Node3</title>
<g id="a_edge19_Node000005_Node000003"><a xlink:title=" ">
<path fill="none" stroke="#63b8ff" d="M908.02,-230.43C833.1,-219.49 650.62,-192.83 573.42,-181.55"/>
<polygon fill="#63b8ff" stroke="#63b8ff" points="574.29,-178.14 563.89,-180.16 573.28,-185.07 574.29,-178.14"/>
</a>
</g>
</g>
<!-- Node6 -->
<g id="Node000006" class="node">
<title>Node6</title>
<g id="a_Node000006"><a xlink:title=" ">
<polygon fill="#e0e0e0" stroke="#999999" points="816.38,-74.5 763.62,-74.5 763.62,-55.25 816.38,-55.25 816.38,-74.5"/>
<text xml:space="preserve" text-anchor="middle" x="790" y="-61" font-family="Helvetica,sans-Serif" font-size="10.00">pd_api.h</text>
</a>
</g>
</g>
<!-- Node5&#45;&gt;Node6 -->
<g id="edge6_Node000005_Node000006" class="edge">
<title>Node5&#45;&gt;Node6</title>
<g id="a_edge6_Node000005_Node000006"><a xlink:title=" ">
<path fill="none" stroke="#63b8ff" d="M934.33,-226.5C924.05,-213.14 903.58,-186.96 885,-165.75 858.75,-135.78 826.46,-102.54 807.09,-82.97"/>
<polygon fill="#63b8ff" stroke="#63b8ff" points="809.77,-80.7 800.23,-76.07 804.8,-85.63 809.77,-80.7"/>
</a>
</g>
</g>
<!-- Node7 -->
<g id="Node000007" class="node">
<title>Node7</title>
<g id="a_Node000007"><a xlink:href="scene_8h.html" target="_top" xlink:title=" ">
<polygon fill="white" stroke="#666666" points="847.25,-185 796.75,-185 796.75,-165.75 847.25,-165.75 847.25,-185"/>
<text xml:space="preserve" text-anchor="middle" x="822" y="-171.5" font-family="Helvetica,sans-Serif" font-size="10.00">scene.h</text>
</a>
</g>
</g>
<!-- Node5&#45;&gt;Node7 -->
<g id="edge7_Node000005_Node000007" class="edge">
<title>Node5&#45;&gt;Node7</title>
<g id="a_edge7_Node000005_Node000007"><a xlink:title=" ">
<path fill="none" stroke="#63b8ff" d="M922.67,-226.18C903.39,-216.64 872.82,-201.52 850.41,-190.43"/>
<polygon fill="#63b8ff" stroke="#63b8ff" points="852.03,-187.33 841.52,-186.03 848.93,-193.6 852.03,-187.33"/>
</a>
</g>
</g>
<!-- Node5&#45;&gt;Node8 -->
<g id="edge17_Node000005_Node000008" class="edge">
<title>Node5&#45;&gt;Node8</title>
<g id="a_edge17_Node000005_Node000008"><a xlink:title=" ">
<path fill="none" stroke="#63b8ff" d="M933.01,-226.48C918.94,-211.61 888.18,-181.52 856,-165.75 803.86,-140.19 736.59,-128.96 696.52,-124.26"/>
<polygon fill="#63b8ff" stroke="#63b8ff" points="697.07,-120.8 686.75,-123.19 696.31,-127.76 697.07,-120.8"/>
</a>
</g>
</g>
<!-- Node11 -->
<g id="Node000011" class="node">
<title>Node11</title>
<g id="a_Node000011"><a xlink:title=" ">
<polygon fill="#e0e0e0" stroke="#999999" points="811.62,-19.25 766.38,-19.25 766.38,0 811.62,0 811.62,-19.25"/>
<text xml:space="preserve" text-anchor="middle" x="789" y="-5.75" font-family="Helvetica,sans-Serif" font-size="10.00">stdio.h</text>
</a>
</g>
</g>
<!-- Node5&#45;&gt;Node11 -->
<g id="edge20_Node000005_Node000011" class="edge">
<title>Node5&#45;&gt;Node11</title>
<g id="a_edge20_Node000005_Node000011"><a xlink:title=" ">
<path fill="none" stroke="#63b8ff" d="M937.48,-226.26C926.36,-198.62 889.82,-113.22 841,-55.25 832.06,-44.63 820.46,-34.42 810.49,-26.45"/>
<polygon fill="#63b8ff" stroke="#63b8ff" points="812.82,-23.83 802.76,-20.48 808.54,-29.37 812.82,-23.83"/>
</a>
</g>
</g>
<!-- Node12 -->
<g id="Node000012" class="node">
<title>Node12</title>
<g id="a_Node000012"><a xlink:title=" ">
<polygon fill="#e0e0e0" stroke="#999999" points="1025,-185 979,-185 979,-165.75 1025,-165.75 1025,-185"/>
<text xml:space="preserve" text-anchor="middle" x="1002" y="-171.5" font-family="Helvetica,sans-Serif" font-size="10.00">math.h</text>
</a>
</g>
</g>
<!-- Node5&#45;&gt;Node12 -->
<g id="edge18_Node000005_Node000012" class="edge">
<title>Node5&#45;&gt;Node12</title>
<g id="a_edge18_Node000005_Node000012"><a xlink:title=" ">
<path fill="none" stroke="#63b8ff" d="M950.26,-226.31C959.31,-217.58 973.31,-204.07 984.46,-193.3"/>
<polygon fill="#63b8ff" stroke="#63b8ff" points="986.79,-195.92 991.56,-186.45 981.93,-190.88 986.79,-195.92"/>
</a>
</g>
</g>
<!-- Node7&#45;&gt;Node6 -->
<g id="edge8_Node000007_Node000006" class="edge">
<title>Node7&#45;&gt;Node6</title>
<g id="a_edge8_Node000007_Node000006"><a xlink:title=" ">
<path fill="none" stroke="#63b8ff" d="M819.38,-165.5C814.27,-148.17 802.86,-109.48 795.86,-85.74"/>
<polygon fill="#63b8ff" stroke="#63b8ff" points="799.27,-84.93 793.08,-76.33 792.55,-86.91 799.27,-84.93"/>
</a>
</g>
</g>
<!-- Node7&#45;&gt;Node8 -->
<g id="edge9_Node000007_Node000008" class="edge">
<title>Node7&#45;&gt;Node8</title>
<g id="a_edge9_Node000007_Node000008"><a xlink:title=" ">
<path fill="none" stroke="#63b8ff" d="M796.29,-165.82C769.11,-156.77 726.1,-142.46 696.1,-132.47"/>
<polygon fill="#63b8ff" stroke="#63b8ff" points="697.33,-129.19 686.74,-129.36 695.12,-135.84 697.33,-129.19"/>
</a>
</g>
</g>
<!-- Node7&#45;&gt;Node11 -->
<g id="edge16_Node000007_Node000011" class="edge">
<title>Node7&#45;&gt;Node11</title>
<g id="a_edge16_Node000007_Node000011"><a xlink:title=" ">
<path fill="none" stroke="#63b8ff" d="M824.35,-165.37C829.2,-145.03 838.78,-94.27 825,-55.25 821.38,-45 814.29,-35.37 807.36,-27.7"/>
<polygon fill="#63b8ff" stroke="#63b8ff" points="810.06,-25.45 800.56,-20.75 805.06,-30.35 810.06,-25.45"/>
</a>
</g>
</g>
<!-- Node8&#45;&gt;Node6 -->
<g id="edge13_Node000008_Node000006" class="edge">
<title>Node8&#45;&gt;Node6</title>
<g id="a_edge13_Node000008_Node000006"><a xlink:title=" ">
<path fill="none" stroke="#63b8ff" d="M683.71,-110.09C704.03,-101.64 734.65,-88.9 757.81,-79.27"/>
<polygon fill="#63b8ff" stroke="#63b8ff" points="758.89,-82.61 766.78,-75.53 756.21,-76.14 758.89,-82.61"/>
</a>
</g>
</g>
<!-- Node9 -->
<g id="Node000009" class="node">
<title>Node9</title>
<g id="a_Node000009"><a xlink:href="array_8h.html" target="_top" xlink:title=" ">
<polygon fill="white" stroke="#666666" points="667.25,-74.5 622.75,-74.5 622.75,-55.25 667.25,-55.25 667.25,-74.5"/>
<text xml:space="preserve" text-anchor="middle" x="645" y="-61" font-family="Helvetica,sans-Serif" font-size="10.00">array.h</text>
</a>
</g>
</g>
<!-- Node8&#45;&gt;Node9 -->
<g id="edge10_Node000008_Node000009" class="edge">
<title>Node8&#45;&gt;Node9</title>
<g id="a_edge10_Node000008_Node000009"><a xlink:title=" ">
<path fill="none" stroke="#63b8ff" d="M659.19,-110.33C657.06,-103.67 654.06,-94.24 651.36,-85.78"/>
<polygon fill="#63b8ff" stroke="#63b8ff" points="654.7,-84.76 648.33,-76.3 648.04,-86.89 654.7,-84.76"/>
</a>
</g>
</g>
<!-- Node10 -->
<g id="Node000010" class="node">
<title>Node10</title>
<g id="a_Node000010"><a xlink:title=" ">
<polygon fill="#e0e0e0" stroke="#999999" points="622.88,-19.25 567.12,-19.25 567.12,0 622.88,0 622.88,-19.25"/>
<text xml:space="preserve" text-anchor="middle" x="595" y="-5.75" font-family="Helvetica,sans-Serif" font-size="10.00">stdbool.h</text>
</a>
</g>
</g>
<!-- Node8&#45;&gt;Node10 -->
<g id="edge14_Node000008_Node000010" class="edge">
<title>Node8&#45;&gt;Node10</title>
<g id="a_edge14_Node000008_Node000010"><a xlink:title=" ">
<path fill="none" stroke="#63b8ff" d="M649.19,-110.29C638.33,-102.17 623.12,-89.19 614,-74.5 605.68,-61.09 600.83,-43.84 598.12,-30.64"/>
<polygon fill="#63b8ff" stroke="#63b8ff" points="601.6,-30.21 596.39,-20.98 594.7,-31.44 601.6,-30.21"/>
</a>
</g>
</g>
<!-- Node8&#45;&gt;Node11 -->
<g id="edge15_Node000008_Node000011" class="edge">
<title>Node8&#45;&gt;Node11</title>
<g id="a_edge15_Node000008_Node000011"><a xlink:title=" ">
<path fill="none" stroke="#63b8ff" d="M668.7,-110.16C678.72,-97.12 698.62,-72.58 719,-55.25 732.3,-43.94 748.68,-33.34 762.26,-25.31"/>
<polygon fill="#63b8ff" stroke="#63b8ff" points="763.76,-28.49 770.68,-20.46 760.27,-22.42 763.76,-28.49"/>
</a>
</g>
</g>
<!-- Node9&#45;&gt;Node10 -->
<g id="edge11_Node000009_Node000010" class="edge">
<title>Node9&#45;&gt;Node10</title>
<g id="a_edge11_Node000009_Node000010"><a xlink:title=" ">
<path fill="none" stroke="#63b8ff" d="M636.74,-55.08C629.84,-47.73 619.78,-37.01 611.26,-27.94"/>
<polygon fill="#63b8ff" stroke="#63b8ff" points="613.87,-25.61 604.47,-20.71 608.77,-30.4 613.87,-25.61"/>
</a>
</g>
</g>
<!-- Node9&#45;&gt;Node11 -->
<g id="edge12_Node000009_Node000011" class="edge">
<title>Node9&#45;&gt;Node11</title>
<g id="a_edge12_Node000009_Node000011"><a xlink:title=" ">
<path fill="none" stroke="#63b8ff" d="M667.5,-55.55C691.14,-46.81 728.57,-32.97 755.65,-22.96"/>
<polygon fill="#63b8ff" stroke="#63b8ff" points="756.6,-26.34 764.76,-19.59 754.17,-19.77 756.6,-26.34"/>
</a>
</g>
</g>
<!-- Node13&#45;&gt;Node8 -->
<g id="edge22_Node000013_Node000008" class="edge">
<title>Node13&#45;&gt;Node8</title>
<g id="a_edge22_Node000013_Node000008"><a xlink:title=" ">
<path fill="none" stroke="#63b8ff" d="M664.94,-226.16C645.51,-218.55 621.72,-205.55 610,-185 599.66,-166.87 618.01,-148.65 635.71,-136.33"/>
<polygon fill="#63b8ff" stroke="#63b8ff" points="637.52,-139.33 644.01,-130.96 633.71,-133.46 637.52,-139.33"/>
</a>
</g>
</g>
<!-- Node13&#45;&gt;Node11 -->
<g id="edge23_Node000013_Node000011" class="edge">
<title>Node13&#45;&gt;Node11</title>
<g id="a_edge23_Node000013_Node000011"><a xlink:title=" ">
<path fill="none" stroke="#63b8ff" d="M696.9,-226.22C702.82,-199.13 722.51,-116.69 755,-55.25 760.05,-45.7 767.11,-36.05 773.48,-28.18"/>
<polygon fill="#63b8ff" stroke="#63b8ff" points="775.98,-30.64 779.76,-20.74 770.64,-26.12 775.98,-30.64"/>
</a>
</g>
</g>
<!-- Node14 -->
<g id="Node000014" class="node">
<title>Node14</title>
<g id="a_Node000014"><a xlink:href="prefs_8x.html" target="_top" xlink:title=" ">
<polygon fill="white" stroke="#666666" points="665,-185 619,-185 619,-165.75 665,-165.75 665,-185"/>
<text xml:space="preserve" text-anchor="middle" x="642" y="-171.5" font-family="Helvetica,sans-Serif" font-size="10.00">prefs.x</text>
</a>
</g>
</g>
<!-- Node13&#45;&gt;Node14 -->
<g id="edge24_Node000013_Node000014" class="edge">
<title>Node13&#45;&gt;Node14</title>
<g id="a_edge24_Node000013_Node000014"><a xlink:title=" ">
<path fill="none" stroke="#63b8ff" d="M686.95,-226.31C679.25,-217.75 667.41,-204.6 657.82,-193.95"/>
<polygon fill="#63b8ff" stroke="#63b8ff" points="660.43,-191.62 651.14,-186.53 655.23,-196.3 660.43,-191.62"/>
</a>
</g>
</g>
<!-- Node20&#45;&gt;Node10 -->
<g id="edge34_Node000020_Node000010" class="edge">
<title>Node20&#45;&gt;Node10</title>
<g id="a_edge34_Node000020_Node000010"><a xlink:title=" ">
<path fill="none" stroke="#63b8ff" d="M552.42,-55.08C559.54,-47.65 569.94,-36.79 578.69,-27.66"/>
<polygon fill="#63b8ff" stroke="#63b8ff" points="580.96,-30.35 585.35,-20.7 575.9,-25.5 580.96,-30.35"/>
</a>
</g>
</g>
<!-- Node20&#45;&gt;Node11 -->
<g id="edge35_Node000020_Node000011" class="edge">
<title>Node20&#45;&gt;Node11</title>
<g id="a_edge35_Node000020_Node000011"><a xlink:title=" ">
<path fill="none" stroke="#63b8ff" d="M567.49,-58.77C611.05,-49.3 704.48,-28.99 754.97,-18.02"/>
<polygon fill="#63b8ff" stroke="#63b8ff" points="755.43,-21.5 764.46,-15.96 753.94,-14.66 755.43,-21.5"/>
</a>
</g>
</g>
<!-- Node21&#45;&gt;Node6 -->
<g id="edge37_Node000021_Node000006" class="edge">
<title>Node21&#45;&gt;Node6</title>
<g id="a_edge37_Node000021_Node000006"><a xlink:title=" ">
<path fill="none" stroke="#63b8ff" d="M788.77,-226.36C788.52,-216.31 788.14,-199.48 788,-185 787.65,-150.27 788.62,-109.85 789.33,-86.15"/>
<polygon fill="#63b8ff" stroke="#63b8ff" points="792.82,-86.46 789.64,-76.35 785.83,-86.24 792.82,-86.46"/>
</a>
</g>
</g>
<!-- Node21&#45;&gt;Node7 -->
<g id="edge38_Node000021_Node000007" class="edge">
<title>Node21&#45;&gt;Node7</title>
<g id="a_edge38_Node000021_Node000007"><a xlink:title=" ">
<path fill="none" stroke="#63b8ff" d="M794.01,-226.31C798.62,-218.1 805.59,-205.66 811.42,-195.25"/>
<polygon fill="#63b8ff" stroke="#63b8ff" points="814.36,-197.16 816.2,-186.72 808.26,-193.73 814.36,-197.16"/>
</a>
</g>
</g>
<!-- Node21&#45;&gt;Node8 -->
<g id="edge39_Node000021_Node000008" class="edge">
<title>Node21&#45;&gt;Node8</title>
<g id="a_edge39_Node000021_Node000008"><a xlink:title=" ">
<path fill="none" stroke="#63b8ff" d="M779.03,-226.29C757.7,-207.13 707.37,-161.89 680.18,-137.46"/>
<polygon fill="#63b8ff" stroke="#63b8ff" points="682.82,-135.13 673.04,-131.05 678.14,-140.34 682.82,-135.13"/>
</a>
</g>
</g>
<!-- Node24&#45;&gt;Node7 -->
<g id="edge50_Node000024_Node000007" class="edge">
<title>Node24&#45;&gt;Node7</title>
<g id="a_edge50_Node000024_Node000007"><a xlink:title=" ">
<path fill="none" stroke="#63b8ff" d="M922.92,-397.88C918.51,-385.51 910.05,-362.24 902,-342.75 879.32,-287.87 873.76,-274.01 847,-221 842.7,-212.49 837.61,-203.26 833.15,-195.42"/>
<polygon fill="#63b8ff" stroke="#63b8ff" points="836.2,-193.7 828.16,-186.79 830.13,-197.2 836.2,-193.7"/>
</a>
</g>
</g>
<!-- Node24&#45;&gt;Node11 -->
<g id="edge51_Node000024_Node000011" class="edge">
<title>Node24&#45;&gt;Node11</title>
<g id="a_edge51_Node000024_Node000011"><a xlink:title=" ">
<path fill="none" stroke="#63b8ff" d="M970.65,-397.51C1019.52,-384.62 1091,-355.89 1091,-298.12 1091,-298.12 1091,-298.12 1091,-119.12 1091,-84.4 1075.34,-73.83 1046,-55.25 1009.5,-32.14 884.67,-18.69 823.44,-13.34"/>
<polygon fill="#63b8ff" stroke="#63b8ff" points="823.85,-9.86 813.59,-12.5 823.26,-16.84 823.85,-9.86"/>
</a>
</g>
</g>
<!-- Node24&#45;&gt;Node25 -->
<g id="edge44_Node000024_Node000025" class="edge">
<title>Node24&#45;&gt;Node25</title>
<g id="a_edge44_Node000024_Node000025"><a xlink:title=" ">
<path fill="none" stroke="#63b8ff" d="M913.62,-397.59C902.85,-389.74 887.03,-378.2 874.25,-368.87"/>
<polygon fill="#63b8ff" stroke="#63b8ff" points="876.56,-366.23 866.42,-363.17 872.44,-371.89 876.56,-366.23"/>
</a>
</g>
</g>
<!-- Node25&#45;&gt;Node4 -->
<g id="edge45_Node000025_Node000004" class="edge">
<title>Node25&#45;&gt;Node4</title>
<g id="a_edge45_Node000025_Node000004"><a xlink:title=" ">
<path fill="none" stroke="#63b8ff" d="M812.84,-346.41C740.72,-337.5 588.26,-318.67 496.52,-307.33"/>
<polygon fill="#63b8ff" stroke="#63b8ff" points="497.23,-303.89 486.87,-306.14 496.37,-310.84 497.23,-303.89"/>
</a>
</g>
</g>
<!-- Node25&#45;&gt;Node7 -->
<g id="edge47_Node000025_Node000007" class="edge">
<title>Node25&#45;&gt;Node7</title>
<g id="a_edge47_Node000025_Node000007"><a xlink:title=" ">
<path fill="none" stroke="#63b8ff" d="M851.42,-342.46C846.65,-315.55 832.33,-234.69 825.59,-196.62"/>
<polygon fill="#63b8ff" stroke="#63b8ff" points="829.07,-196.21 823.88,-186.98 822.18,-197.43 829.07,-196.21"/>
</a>
</g>
</g>
<!-- Node25&#45;&gt;Node11 -->
<g id="edge49_Node000025_Node000011" class="edge">
<title>Node25&#45;&gt;Node11</title>
<g id="a_edge49_Node000025_Node000011"><a xlink:title=" ">
<path fill="none" stroke="#63b8ff" d="M892.99,-346.6C951.36,-337.14 1053,-310.21 1053,-237.25 1053,-237.25 1053,-237.25 1053,-119.12 1053,-20.99 895.01,-9.76 823.47,-9.7"/>
<polygon fill="#63b8ff" stroke="#63b8ff" points="823.45,-6.2 813.48,-9.78 823.51,-13.2 823.45,-6.2"/>
</a>
</g>
</g>
<!-- Node25&#45;&gt;Node12 -->
<g id="edge48_Node000025_Node000012" class="edge">
<title>Node25&#45;&gt;Node12</title>
<g id="a_edge48_Node000025_Node000012"><a xlink:title=" ">
<path fill="none" stroke="#63b8ff" d="M871.7,-342.26C900.25,-327.35 954.38,-295.02 983,-251.5 993.85,-235 998.5,-212.73 1000.5,-196.73"/>
<polygon fill="#63b8ff" stroke="#63b8ff" points="1003.96,-197.26 1001.45,-186.97 997,-196.58 1003.96,-197.26"/>
</a>
</g>
</g>
<!-- Node25&#45;&gt;Node13 -->
<g id="edge46_Node000025_Node000013" class="edge">
<title>Node25&#45;&gt;Node13</title>
<g id="a_edge46_Node000025_Node000013"><a xlink:title=" ">
<path fill="none" stroke="#63b8ff" d="M840.6,-342.42C813.72,-323 749.8,-276.83 716.3,-252.64"/>
<polygon fill="#63b8ff" stroke="#63b8ff" points="718.72,-250.07 708.57,-247.05 714.62,-255.74 718.72,-250.07"/>
</a>
</g>
</g>
<!-- Node26&#45;&gt;Node3 -->
<g id="edge53_Node000026_Node000003" class="edge">
<title>Node26&#45;&gt;Node3</title>
<g id="a_edge53_Node000026_Node000003"><a xlink:title=" ">
<path fill="none" stroke="#63b8ff" d="M594.32,-342.54C601.99,-320.57 618.76,-262.32 598,-221 591.64,-208.35 579.81,-198.38 568.33,-191.1"/>
<polygon fill="#63b8ff" stroke="#63b8ff" points="570.19,-188.13 559.78,-186.16 566.68,-194.19 570.19,-188.13"/>
</a>
</g>
</g>
</g>
</svg>
