<?xml version="1.0" encoding="UTF-8" standalone="no"?>
<!DOCTYPE svg PUBLIC "-//W3C//DTD SVG 1.1//EN"
 "http://www.w3.org/Graphics/SVG/1.1/DTD/svg11.dtd">
<!-- Generated by graphviz version 13.1.0 (20250701.0955)
 -->
<!-- Title: src/game_scene.h Pages: 1 -->
<svg width="837pt" height="370pt"
 viewBox="0.00 0.00 837.00 370.00" xmlns="http://www.w3.org/2000/svg" xmlns:xlink="http://www.w3.org/1999/xlink">
<g id="graph0" class="graph" transform="scale(1 1) rotate(0) translate(4 366)">
<title>src/game_scene.h</title>
<!-- Node1 -->
<g id="Node000001" class="node">
<title>Node1</title>
<g id="a_Node000001"><a xlink:title=" ">
<polygon fill="#999999" stroke="#666666" points="801.5,-362 705.25,-362 705.25,-342.75 801.5,-342.75 801.5,-362"/>
<text xml:space="preserve" text-anchor="middle" x="753.38" y="-348.5" font-family="Helvetica,sans-Serif" font-size="10.00">src/game_scene.h</text>
</a>
</g>
</g>
<!-- Node2 -->
<g id="Node000002" class="node">
<title>Node2</title>
<g id="a_Node000002"><a xlink:href="peanut__gb_8h.html" target="_top" xlink:title=" ">
<polygon fill="white" stroke="#666666" points="456.5,-306.75 330.25,-306.75 330.25,-287.5 456.5,-287.5 456.5,-306.75"/>
<text xml:space="preserve" text-anchor="middle" x="393.38" y="-293.25" font-family="Helvetica,sans-Serif" font-size="10.00">../peanut_gb/peanut_gb.h</text>
</a>
</g>
</g>
<!-- Node1&#45;&gt;Node2 -->
<g id="edge1_Node000001_Node000002" class="edge">
<title>Node1&#45;&gt;Node2</title>
<g id="a_edge1_Node000001_Node000002"><a xlink:title=" ">
<path fill="none" stroke="#63b8ff" d="M704.82,-344.19C643.43,-335.11 537.18,-319.4 466.09,-308.88"/>
<polygon fill="#63b8ff" stroke="#63b8ff" points="466.89,-305.46 456.49,-307.46 465.87,-312.39 466.89,-305.46"/>
</a>
</g>
</g>
<!-- Node7 -->
<g id="Node000007" class="node">
<title>Node7</title>
<g id="a_Node000007"><a xlink:href="scene_8h.html" target="_top" xlink:title=" ">
<polygon fill="white" stroke="#666666" points="687.62,-185 637.12,-185 637.12,-165.75 687.62,-165.75 687.62,-185"/>
<text xml:space="preserve" text-anchor="middle" x="662.38" y="-171.5" font-family="Helvetica,sans-Serif" font-size="10.00">scene.h</text>
</a>
</g>
</g>
<!-- Node1&#45;&gt;Node7 -->
<g id="edge32_Node000001_Node000007" class="edge">
<title>Node1&#45;&gt;Node7</title>
<g id="a_edge32_Node000001_Node000007"><a xlink:title=" ">
<path fill="none" stroke="#63b8ff" d="M754.51,-342.25C756.83,-319.64 759.96,-260.02 734.38,-221 725.57,-207.57 711.18,-197.48 697.57,-190.32"/>
<polygon fill="#63b8ff" stroke="#63b8ff" points="699.31,-187.28 688.79,-186.07 696.26,-193.58 699.31,-187.28"/>
</a>
</g>
</g>
<!-- Node11 -->
<g id="Node000011" class="node">
<title>Node11</title>
<g id="a_Node000011"><a xlink:title=" ">
<polygon fill="#e0e0e0" stroke="#999999" points="640,-19.25 594.75,-19.25 594.75,0 640,0 640,-19.25"/>
<text xml:space="preserve" text-anchor="middle" x="617.38" y="-5.75" font-family="Helvetica,sans-Serif" font-size="10.00">stdio.h</text>
</a>
</g>
</g>
<!-- Node1&#45;&gt;Node11 -->
<g id="edge34_Node000001_Node000011" class="edge">
<title>Node1&#45;&gt;Node11</title>
<g id="a_edge34_Node000001_Node000011"><a xlink:title=" ">
<path fill="none" stroke="#63b8ff" d="M764.92,-342.39C786.18,-324.73 829.38,-283.19 829.38,-237.25 829.38,-237.25 829.38,-237.25 829.38,-119.12 829.38,-40.24 711.63,-18.68 651.64,-12.8"/>
<polygon fill="#63b8ff" stroke="#63b8ff" points="652.24,-9.34 641.97,-11.96 651.63,-16.32 652.24,-9.34"/>
</a>
</g>
</g>
<!-- Node12 -->
<g id="Node000012" class="node">
<title>Node12</title>
<g id="a_Node000012"><a xlink:title=" ">
<polygon fill="#e0e0e0" stroke="#999999" points="793.38,-185 747.38,-185 747.38,-165.75 793.38,-165.75 793.38,-185"/>
<text xml:space="preserve" text-anchor="middle" x="770.38" y="-171.5" font-family="Helvetica,sans-Serif" font-size="10.00">math.h</text>
</a>
</g>
</g>
<!-- Node1&#45;&gt;Node12 -->
<g id="edge33_Node000001_Node000012" class="edge">
<title>Node1&#45;&gt;Node12</title>
<g id="a_edge33_Node000001_Node000012"><a xlink:title=" ">
<path fill="none" stroke="#63b8ff" d="M757.04,-342.33C760.44,-333.44 765.29,-319.41 767.38,-306.75 773.74,-268.15 772.88,-222.25 771.65,-196.5"/>
<polygon fill="#63b8ff" stroke="#63b8ff" points="775.16,-196.61 771.11,-186.82 768.17,-197 775.16,-196.61"/>
</a>
</g>
</g>
<!-- Node13 -->
<g id="Node000013" class="node">
<title>Node13</title>
<g id="a_Node000013"><a xlink:href="preferences_8h.html" target="_top" xlink:title=" ">
<polygon fill="white" stroke="#666666" points="100.75,-245.88 0,-245.88 0,-226.62 100.75,-226.62 100.75,-245.88"/>
<text xml:space="preserve" text-anchor="middle" x="50.38" y="-232.38" font-family="Helvetica,sans-Serif" font-size="10.00">../src/preferences.h</text>
</a>
</g>
</g>
<!-- Node1&#45;&gt;Node13 -->
<g id="edge31_Node000001_Node000013" class="edge">
<title>Node1&#45;&gt;Node13</title>
<g id="a_edge31_Node000001_Node000013"><a xlink:title=" ">
<path fill="none" stroke="#63b8ff" d="M704.78,-348.71C624.48,-343.78 459.24,-331.41 321.38,-306.75 238.3,-291.89 143.16,-265.19 90.6,-249.56"/>
<polygon fill="#63b8ff" stroke="#63b8ff" points="91.77,-246.26 81.18,-246.74 89.76,-252.96 91.77,-246.26"/>
</a>
</g>
</g>
<!-- Node3 -->
<g id="Node000003" class="node">
<title>Node3</title>
<g id="a_Node000003"><a xlink:href="minigb__apu_8h.html" target="_top" xlink:title=" ">
<polygon fill="white" stroke="#666666" points="641.38,-251.5 535.38,-251.5 535.38,-221 641.38,-221 641.38,-251.5"/>
<text xml:space="preserve" text-anchor="start" x="543.38" y="-238" font-family="Helvetica,sans-Serif" font-size="10.00">../minigb_apu/minigb</text>
<text xml:space="preserve" text-anchor="middle" x="588.38" y="-226.75" font-family="Helvetica,sans-Serif" font-size="10.00">_apu.h</text>
</a>
</g>
</g>
<!-- Node2&#45;&gt;Node3 -->
<g id="edge2_Node000002_Node000003" class="edge">
<title>Node2&#45;&gt;Node3</title>
<g id="a_edge2_Node000002_Node000003"><a xlink:title=" ">
<path fill="none" stroke="#63b8ff" d="M423.42,-287.05C451.37,-278.61 493.84,-265.79 528.69,-255.27"/>
<polygon fill="#63b8ff" stroke="#63b8ff" points="529.69,-258.62 538.26,-252.38 527.67,-251.92 529.69,-258.62"/>
</a>
</g>
</g>
<!-- Node4 -->
<g id="Node000004" class="node">
<title>Node4</title>
<g id="a_Node000004"><a xlink:title=" ">
<polygon fill="#e0e0e0" stroke="#999999" points="535.5,-185 487.25,-185 487.25,-165.75 535.5,-165.75 535.5,-185"/>
<text xml:space="preserve" text-anchor="middle" x="511.38" y="-171.5" font-family="Helvetica,sans-Serif" font-size="10.00">stdint.h</text>
</a>
</g>
</g>
<!-- Node2&#45;&gt;Node4 -->
<g id="edge27_Node000002_Node000004" class="edge">
<title>Node2&#45;&gt;Node4</title>
<g id="a_edge27_Node000002_Node000004"><a xlink:title=" ">
<path fill="none" stroke="#63b8ff" d="M428.5,-287.03C448.29,-280.24 472.04,-269.04 487.38,-251.5 500.88,-236.06 506.79,-212.96 509.38,-196.46"/>
<polygon fill="#63b8ff" stroke="#63b8ff" points="512.81,-197.22 510.59,-186.86 505.87,-196.34 512.81,-197.22"/>
</a>
</g>
</g>
<!-- Node5 -->
<g id="Node000005" class="node">
<title>Node5</title>
<g id="a_Node000005"><a xlink:href="app_8h.html" target="_top" xlink:title=" ">
<polygon fill="white" stroke="#666666" points="725.12,-245.88 659.62,-245.88 659.62,-226.62 725.12,-226.62 725.12,-245.88"/>
<text xml:space="preserve" text-anchor="middle" x="692.38" y="-232.38" font-family="Helvetica,sans-Serif" font-size="10.00">../src/app.h</text>
</a>
</g>
</g>
<!-- Node2&#45;&gt;Node5 -->
<g id="edge4_Node000002_Node000005" class="edge">
<title>Node2&#45;&gt;Node5</title>
<g id="a_edge4_Node000002_Node000005"><a xlink:title=" ">
<path fill="none" stroke="#63b8ff" d="M456.8,-287.91C509.17,-280.46 585.21,-268.11 650.38,-251.5 652.5,-250.96 654.68,-250.36 656.86,-249.73"/>
<polygon fill="#63b8ff" stroke="#63b8ff" points="657.75,-253.11 666.25,-246.79 655.66,-246.43 657.75,-253.11"/>
</a>
</g>
</g>
<!-- Node8 -->
<g id="Node000008" class="node">
<title>Node8</title>
<g id="a_Node000008"><a xlink:href="utility_8h.html" target="_top" xlink:title=" ">
<polygon fill="white" stroke="#666666" points="552.38,-129.75 506.38,-129.75 506.38,-110.5 552.38,-110.5 552.38,-129.75"/>
<text xml:space="preserve" text-anchor="middle" x="529.38" y="-116.25" font-family="Helvetica,sans-Serif" font-size="10.00">utility.h</text>
</a>
</g>
</g>
<!-- Node2&#45;&gt;Node8 -->
<g id="edge24_Node000002_Node000008" class="edge">
<title>Node2&#45;&gt;Node8</title>
<g id="a_edge24_Node000002_Node000008"><a xlink:title=" ">
<path fill="none" stroke="#63b8ff" d="M329.99,-288.85C261.05,-280.3 159.04,-265.47 147.38,-251.5 138.69,-241.09 139.09,-231.73 147.38,-221 190.29,-165.42 409.15,-134.84 494.88,-124.84"/>
<polygon fill="#63b8ff" stroke="#63b8ff" points="495.01,-128.34 504.55,-123.73 494.22,-121.39 495.01,-128.34"/>
</a>
</g>
</g>
<!-- Node2&#45;&gt;Node13 -->
<g id="edge20_Node000002_Node000013" class="edge">
<title>Node2&#45;&gt;Node13</title>
<g id="a_edge20_Node000002_Node000013"><a xlink:title=" ">
<path fill="none" stroke="#63b8ff" d="M330.02,-287.11C273.35,-278.78 188.09,-265.59 114.38,-251.5 109.85,-250.63 105.15,-249.69 100.45,-248.7"/>
<polygon fill="#63b8ff" stroke="#63b8ff" points="101.55,-245.36 91.04,-246.69 100.08,-252.2 101.55,-245.36"/>
</a>
</g>
</g>
<!-- Node15 -->
<g id="Node000015" class="node">
<title>Node15</title>
<g id="a_Node000015"><a xlink:title=" ">
<polygon fill="#e0e0e0" stroke="#999999" points="216.5,-245.88 156.25,-245.88 156.25,-226.62 216.5,-226.62 216.5,-245.88"/>
<text xml:space="preserve" text-anchor="middle" x="186.38" y="-232.38" font-family="Helvetica,sans-Serif" font-size="10.00">version.all</text>
</a>
</g>
</g>
<!-- Node2&#45;&gt;Node15 -->
<g id="edge25_Node000002_Node000015" class="edge">
<title>Node2&#45;&gt;Node15</title>
<g id="a_edge25_Node000002_Node000015"><a xlink:title=" ">
<path fill="none" stroke="#63b8ff" d="M355.4,-287.08C321.16,-278.68 269.56,-265.41 225.38,-251.5 223.83,-251.01 222.25,-250.5 220.66,-249.97"/>
<polygon fill="#63b8ff" stroke="#63b8ff" points="222.21,-246.8 211.61,-246.83 219.91,-253.42 222.21,-246.8"/>
</a>
</g>
</g>
<!-- Node16 -->
<g id="Node000016" class="node">
<title>Node16</title>
<g id="a_Node000016"><a xlink:title=" ">
<polygon fill="#e0e0e0" stroke="#999999" points="286,-245.88 234.75,-245.88 234.75,-226.62 286,-226.62 286,-245.88"/>
<text xml:space="preserve" text-anchor="middle" x="260.38" y="-232.38" font-family="Helvetica,sans-Serif" font-size="10.00">stddef.h</text>
</a>
</g>
</g>
<!-- Node2&#45;&gt;Node16 -->
<g id="edge26_Node000002_Node000016" class="edge">
<title>Node2&#45;&gt;Node16</title>
<g id="a_edge26_Node000002_Node000016"><a xlink:title=" ">
<path fill="none" stroke="#63b8ff" d="M372.89,-287.05C351.05,-277.39 316.24,-261.98 291.11,-250.86"/>
<polygon fill="#63b8ff" stroke="#63b8ff" points="292.61,-247.69 282.05,-246.85 289.78,-254.09 292.61,-247.69"/>
</a>
</g>
</g>
<!-- Node17 -->
<g id="Node000017" class="node">
<title>Node17</title>
<g id="a_Node000017"><a xlink:title=" ">
<polygon fill="#e0e0e0" stroke="#999999" points="351.12,-245.88 303.62,-245.88 303.62,-226.62 351.12,-226.62 351.12,-245.88"/>
<text xml:space="preserve" text-anchor="middle" x="327.38" y="-232.38" font-family="Helvetica,sans-Serif" font-size="10.00">stdlib.h</text>
</a>
</g>
</g>
<!-- Node2&#45;&gt;Node17 -->
<g id="edge28_Node000002_Node000017" class="edge">
<title>Node2&#45;&gt;Node17</title>
<g id="a_edge28_Node000002_Node000017"><a xlink:title=" ">
<path fill="none" stroke="#63b8ff" d="M383.35,-287.18C373.47,-278.37 358.12,-264.68 345.99,-253.86"/>
<polygon fill="#63b8ff" stroke="#63b8ff" points="348.42,-251.33 338.62,-247.28 343.76,-256.55 348.42,-251.33"/>
</a>
</g>
</g>
<!-- Node18 -->
<g id="Node000018" class="node">
<title>Node18</title>
<g id="a_Node000018"><a xlink:title=" ">
<polygon fill="#e0e0e0" stroke="#999999" points="417.5,-245.88 369.25,-245.88 369.25,-226.62 417.5,-226.62 417.5,-245.88"/>
<text xml:space="preserve" text-anchor="middle" x="393.38" y="-232.38" font-family="Helvetica,sans-Serif" font-size="10.00">string.h</text>
</a>
</g>
</g>
<!-- Node2&#45;&gt;Node18 -->
<g id="edge29_Node000002_Node000018" class="edge">
<title>Node2&#45;&gt;Node18</title>
<g id="a_edge29_Node000002_Node000018"><a xlink:title=" ">
<path fill="none" stroke="#63b8ff" d="M393.38,-287.18C393.38,-279.4 393.38,-267.83 393.38,-257.78"/>
<polygon fill="#63b8ff" stroke="#63b8ff" points="396.88,-257.79 393.38,-247.79 389.88,-257.79 396.88,-257.79"/>
</a>
</g>
</g>
<!-- Node19 -->
<g id="Node000019" class="node">
<title>Node19</title>
<g id="a_Node000019"><a xlink:title=" ">
<polygon fill="#e0e0e0" stroke="#999999" points="478.88,-245.88 435.88,-245.88 435.88,-226.62 478.88,-226.62 478.88,-245.88"/>
<text xml:space="preserve" text-anchor="middle" x="457.38" y="-232.38" font-family="Helvetica,sans-Serif" font-size="10.00">time.h</text>
</a>
</g>
</g>
<!-- Node2&#45;&gt;Node19 -->
<g id="edge30_Node000002_Node000019" class="edge">
<title>Node2&#45;&gt;Node19</title>
<g id="a_edge30_Node000002_Node000019"><a xlink:title=" ">
<path fill="none" stroke="#63b8ff" d="M403.1,-287.18C412.68,-278.37 427.56,-264.68 439.32,-253.86"/>
<polygon fill="#63b8ff" stroke="#63b8ff" points="441.46,-256.65 446.45,-247.3 436.72,-251.5 441.46,-256.65"/>
</a>
</g>
</g>
<!-- Node3&#45;&gt;Node4 -->
<g id="edge3_Node000003_Node000004" class="edge">
<title>Node3&#45;&gt;Node4</title>
<g id="a_edge3_Node000003_Node000004"><a xlink:title=" ">
<path fill="none" stroke="#63b8ff" d="M569.34,-220.7C558.07,-212.08 543.77,-201.15 532.2,-192.3"/>
<polygon fill="#63b8ff" stroke="#63b8ff" points="534.52,-189.66 524.45,-186.37 530.27,-195.23 534.52,-189.66"/>
</a>
</g>
</g>
<!-- Node5&#45;&gt;Node4 -->
<g id="edge18_Node000005_Node000004" class="edge">
<title>Node5&#45;&gt;Node4</title>
<g id="a_edge18_Node000005_Node000004"><a xlink:title=" ">
<path fill="none" stroke="#63b8ff" d="M665.74,-226.14C660.64,-224.42 655.35,-222.64 650.38,-221 615.16,-209.37 574.78,-196.46 546.65,-187.52"/>
<polygon fill="#63b8ff" stroke="#63b8ff" points="547.8,-184.22 537.21,-184.53 545.69,-190.89 547.8,-184.22"/>
</a>
</g>
</g>
<!-- Node6 -->
<g id="Node000006" class="node">
<title>Node6</title>
<g id="a_Node000006"><a xlink:title=" ">
<polygon fill="#e0e0e0" stroke="#999999" points="638.75,-74.5 586,-74.5 586,-55.25 638.75,-55.25 638.75,-74.5"/>
<text xml:space="preserve" text-anchor="middle" x="612.38" y="-61" font-family="Helvetica,sans-Serif" font-size="10.00">pd_api.h</text>
</a>
</g>
</g>
<!-- Node5&#45;&gt;Node6 -->
<g id="edge5_Node000005_Node000006" class="edge">
<title>Node5&#45;&gt;Node6</title>
<g id="a_edge5_Node000005_Node000006"><a xlink:title=" ">
<path fill="none" stroke="#63b8ff" d="M674.25,-226.17C659.33,-217.67 638.96,-203.52 628.38,-185 610.65,-153.99 609.47,-111.2 610.64,-86.24"/>
<polygon fill="#63b8ff" stroke="#63b8ff" points="614.12,-86.69 611.29,-76.48 607.13,-86.22 614.12,-86.69"/>
</a>
</g>
</g>
<!-- Node5&#45;&gt;Node7 -->
<g id="edge6_Node000005_Node000007" class="edge">
<title>Node5&#45;&gt;Node7</title>
<g id="a_edge6_Node000005_Node000007"><a xlink:title=" ">
<path fill="none" stroke="#63b8ff" d="M687.82,-226.31C683.68,-218.18 677.43,-205.92 672.16,-195.58"/>
<polygon fill="#63b8ff" stroke="#63b8ff" points="675.32,-194.07 667.66,-186.75 669.08,-197.25 675.32,-194.07"/>
</a>
</g>
</g>
<!-- Node5&#45;&gt;Node8 -->
<g id="edge16_Node000005_Node000008" class="edge">
<title>Node5&#45;&gt;Node8</title>
<g id="a_edge16_Node000005_Node000008"><a xlink:title=" ">
<path fill="none" stroke="#63b8ff" d="M666.67,-226.19C644.41,-217.62 612.01,-203.34 587.38,-185 569.78,-171.9 553.33,-152.88 542.48,-139.01"/>
<polygon fill="#63b8ff" stroke="#63b8ff" points="545.38,-137.03 536.55,-131.18 539.8,-141.26 545.38,-137.03"/>
</a>
</g>
</g>
<!-- Node5&#45;&gt;Node11 -->
<g id="edge19_Node000005_Node000011" class="edge">
<title>Node5&#45;&gt;Node11</title>
<g id="a_edge19_Node000005_Node000011"><a xlink:title=" ">
<path fill="none" stroke="#63b8ff" d="M693.3,-226.37C694.29,-216.34 695.8,-199.52 696.38,-185 698.73,-125.65 695.25,-105.99 664.38,-55.25 657.78,-44.41 647.87,-34.45 638.85,-26.71"/>
<polygon fill="#63b8ff" stroke="#63b8ff" points="641.09,-24.03 631.12,-20.45 636.69,-29.47 641.09,-24.03"/>
</a>
</g>
</g>
<!-- Node5&#45;&gt;Node12 -->
<g id="edge17_Node000005_Node000012" class="edge">
<title>Node5&#45;&gt;Node12</title>
<g id="a_edge17_Node000005_Node000012"><a xlink:title=" ">
<path fill="none" stroke="#63b8ff" d="M704.22,-226.31C716.25,-217.23 735.11,-202.99 749.62,-192.04"/>
<polygon fill="#63b8ff" stroke="#63b8ff" points="751.34,-195.13 757.21,-186.31 747.12,-189.54 751.34,-195.13"/>
</a>
</g>
</g>
<!-- Node7&#45;&gt;Node6 -->
<g id="edge7_Node000007_Node000006" class="edge">
<title>Node7&#45;&gt;Node6</title>
<g id="a_edge7_Node000007_Node000006"><a xlink:title=" ">
<path fill="none" stroke="#63b8ff" d="M658.28,-165.5C650.23,-148.01 632.14,-108.77 621.23,-85.09"/>
<polygon fill="#63b8ff" stroke="#63b8ff" points="624.52,-83.87 617.16,-76.25 618.16,-86.8 624.52,-83.87"/>
</a>
</g>
</g>
<!-- Node7&#45;&gt;Node8 -->
<g id="edge8_Node000007_Node000008" class="edge">
<title>Node7&#45;&gt;Node8</title>
<g id="a_edge8_Node000007_Node000008"><a xlink:title=" ">
<path fill="none" stroke="#63b8ff" d="M639.81,-165.34C618.6,-156.85 586.6,-144.04 562.5,-134.39"/>
<polygon fill="#63b8ff" stroke="#63b8ff" points="564.04,-131.23 553.45,-130.77 561.44,-137.73 564.04,-131.23"/>
</a>
</g>
</g>
<!-- Node7&#45;&gt;Node11 -->
<g id="edge15_Node000007_Node000011" class="edge">
<title>Node7&#45;&gt;Node11</title>
<g id="a_edge15_Node000007_Node000011"><a xlink:title=" ">
<path fill="none" stroke="#63b8ff" d="M662.64,-165.37C662.93,-145.04 662.01,-94.29 647.38,-55.25 643.82,-45.77 637.89,-36.31 632.24,-28.56"/>
<polygon fill="#63b8ff" stroke="#63b8ff" points="635.02,-26.43 626.12,-20.69 629.5,-30.73 635.02,-26.43"/>
</a>
</g>
</g>
<!-- Node8&#45;&gt;Node6 -->
<g id="edge12_Node000008_Node000006" class="edge">
<title>Node8&#45;&gt;Node6</title>
<g id="a_edge12_Node000008_Node000006"><a xlink:title=" ">
<path fill="none" stroke="#63b8ff" d="M543.45,-110.09C555.86,-102.14 574.17,-90.39 588.8,-81"/>
<polygon fill="#63b8ff" stroke="#63b8ff" points="590.43,-84.12 596.95,-75.77 586.65,-78.22 590.43,-84.12"/>
</a>
</g>
</g>
<!-- Node9 -->
<g id="Node000009" class="node">
<title>Node9</title>
<g id="a_Node000009"><a xlink:href="array_8h.html" target="_top" xlink:title=" ">
<polygon fill="white" stroke="#666666" points="530.62,-74.5 486.12,-74.5 486.12,-55.25 530.62,-55.25 530.62,-74.5"/>
<text xml:space="preserve" text-anchor="middle" x="508.38" y="-61" font-family="Helvetica,sans-Serif" font-size="10.00">array.h</text>
</a>
</g>
</g>
<!-- Node8&#45;&gt;Node9 -->
<g id="edge9_Node000008_Node000009" class="edge">
<title>Node8&#45;&gt;Node9</title>
<g id="a_edge9_Node000008_Node000009"><a xlink:title=" ">
<path fill="none" stroke="#63b8ff" d="M525.91,-110.33C523.25,-103.59 519.48,-94.02 516.11,-85.49"/>
<polygon fill="#63b8ff" stroke="#63b8ff" points="519.4,-84.29 512.47,-76.27 512.89,-86.85 519.4,-84.29"/>
</a>
</g>
</g>
<!-- Node10 -->
<g id="Node000010" class="node">
<title>Node10</title>
<g id="a_Node000010"><a xlink:title=" ">
<polygon fill="#e0e0e0" stroke="#999999" points="327.25,-19.25 271.5,-19.25 271.5,0 327.25,0 327.25,-19.25"/>
<text xml:space="preserve" text-anchor="middle" x="299.38" y="-5.75" font-family="Helvetica,sans-Serif" font-size="10.00">stdbool.h</text>
</a>
</g>
</g>
<!-- Node8&#45;&gt;Node10 -->
<g id="edge13_Node000008_Node000010" class="edge">
<title>Node8&#45;&gt;Node10</title>
<g id="a_edge13_Node000008_Node000010"><a xlink:title=" ">
<path fill="none" stroke="#63b8ff" d="M510.16,-110.06C470,-91.11 376.91,-47.2 329.02,-24.61"/>
<polygon fill="#63b8ff" stroke="#63b8ff" points="330.6,-21.49 320.07,-20.39 327.62,-27.82 330.6,-21.49"/>
</a>
</g>
</g>
<!-- Node8&#45;&gt;Node11 -->
<g id="edge14_Node000008_Node000011" class="edge">
<title>Node8&#45;&gt;Node11</title>
<g id="a_edge14_Node000008_Node000011"><a xlink:title=" ">
<path fill="none" stroke="#63b8ff" d="M535.66,-110.26C544.62,-97.76 561.7,-74.33 577.38,-55.25 584.96,-46.02 593.78,-36.09 601.21,-27.95"/>
<polygon fill="#63b8ff" stroke="#63b8ff" points="603.63,-30.49 607.84,-20.76 598.49,-25.74 603.63,-30.49"/>
</a>
</g>
</g>
<!-- Node9&#45;&gt;Node10 -->
<g id="edge10_Node000009_Node000010" class="edge">
<title>Node9&#45;&gt;Node10</title>
<g id="a_edge10_Node000009_Node000010"><a xlink:title=" ">
<path fill="none" stroke="#63b8ff" d="M486.01,-58.18C450.82,-49.21 382.07,-31.7 338.55,-20.61"/>
<polygon fill="#63b8ff" stroke="#63b8ff" points="339.56,-17.25 329,-18.17 337.83,-24.03 339.56,-17.25"/>
</a>
</g>
</g>
<!-- Node9&#45;&gt;Node11 -->
<g id="edge11_Node000009_Node000011" class="edge">
<title>Node9&#45;&gt;Node11</title>
<g id="a_edge11_Node000009_Node000011"><a xlink:title=" ">
<path fill="none" stroke="#63b8ff" d="M526.87,-54.84C543.78,-46.58 569.06,-34.23 588.61,-24.68"/>
<polygon fill="#63b8ff" stroke="#63b8ff" points="589.99,-27.9 597.43,-20.37 586.91,-21.61 589.99,-27.9"/>
</a>
</g>
</g>
<!-- Node13&#45;&gt;Node8 -->
<g id="edge21_Node000013_Node000008" class="edge">
<title>Node13&#45;&gt;Node8</title>
<g id="a_edge21_Node000013_Node000008"><a xlink:title=" ">
<path fill="none" stroke="#63b8ff" d="M60.04,-226.13C77.01,-210.72 113.93,-179.85 151.38,-165.75 213.94,-142.19 413.73,-128 494.75,-123.08"/>
<polygon fill="#63b8ff" stroke="#63b8ff" points="494.75,-126.59 504.52,-122.5 494.33,-119.6 494.75,-126.59"/>
</a>
</g>
</g>
<!-- Node13&#45;&gt;Node11 -->
<g id="edge22_Node000013_Node000011" class="edge">
<title>Node13&#45;&gt;Node11</title>
<g id="a_edge22_Node000013_Node000011"><a xlink:title=" ">
<path fill="none" stroke="#63b8ff" d="M46.2,-226.52C40.06,-212.22 30.69,-183.64 44.38,-165.75 111.68,-77.8 469.83,-28.19 583.04,-14.53"/>
<polygon fill="#63b8ff" stroke="#63b8ff" points="583.4,-18.02 592.91,-13.36 582.57,-11.06 583.4,-18.02"/>
</a>
</g>
</g>
<!-- Node14 -->
<g id="Node000014" class="node">
<title>Node14</title>
<g id="a_Node000014"><a xlink:href="prefs_8x.html" target="_top" xlink:title=" ">
<polygon fill="white" stroke="#666666" points="99.38,-185 53.38,-185 53.38,-165.75 99.38,-165.75 99.38,-185"/>
<text xml:space="preserve" text-anchor="middle" x="76.38" y="-171.5" font-family="Helvetica,sans-Serif" font-size="10.00">prefs.x</text>
</a>
</g>
</g>
<!-- Node13&#45;&gt;Node14 -->
<g id="edge23_Node000013_Node000014" class="edge">
<title>Node13&#45;&gt;Node14</title>
<g id="a_edge23_Node000013_Node000014"><a xlink:title=" ">
<path fill="none" stroke="#63b8ff" d="M54.32,-226.31C57.87,-218.27 63.21,-206.18 67.75,-195.91"/>
<polygon fill="#63b8ff" stroke="#63b8ff" points="70.94,-197.35 71.78,-186.79 64.54,-194.52 70.94,-197.35"/>
</a>
</g>
</g>
</g>
</svg>
