<?xml version="1.0" encoding="UTF-8" standalone="no"?>
<!DOCTYPE svg PUBLIC "-//W3C//DTD SVG 1.1//EN"
 "http://www.w3.org/Graphics/SVG/1.1/DTD/svg11.dtd">
<!-- Generated by graphviz version 13.1.0 (20250701.0955)
 -->
<!-- Title: src/http.h Pages: 1 -->
<svg width="355pt" height="138pt"
 viewBox="0.00 0.00 355.00 138.00" xmlns="http://www.w3.org/2000/svg" xmlns:xlink="http://www.w3.org/1999/xlink">
<g id="graph0" class="graph" transform="scale(1 1) rotate(0) translate(4 133.75)">
<title>src/http.h</title>
<!-- Node1 -->
<g id="Node000001" class="node">
<title>Node1</title>
<g id="a_Node000001"><a xlink:title=" ">
<polygon fill="#999999" stroke="#666666" points="114.25,-129.75 57,-129.75 57,-110.5 114.25,-110.5 114.25,-129.75"/>
<text xml:space="preserve" text-anchor="middle" x="85.62" y="-116.25" font-family="Helvetica,sans-Serif" font-size="10.00">src/http.h</text>
</a>
</g>
</g>
<!-- Node2 -->
<g id="Node000002" class="node">
<title>Node2</title>
<g id="a_Node000002"><a xlink:href="http_8c.html" target="_top" xlink:title=" ">
<polygon fill="white" stroke="#666666" points="57.25,-74.5 0,-74.5 0,-55.25 57.25,-55.25 57.25,-74.5"/>
<text xml:space="preserve" text-anchor="middle" x="28.62" y="-61" font-family="Helvetica,sans-Serif" font-size="10.00">src/http.c</text>
</a>
</g>
</g>
<!-- Node1&#45;&gt;Node2 -->
<g id="edge1_Node000001_Node000002" class="edge">
<title>Node1&#45;&gt;Node2</title>
<g id="a_edge1_Node000001_Node000002"><a xlink:title=" ">
<path fill="none" stroke="#63b8ff" d="M67.68,-102.36C57.89,-93.22 46.18,-82.28 38.15,-74.77"/>
<polygon fill="#63b8ff" stroke="#63b8ff" points="65.15,-104.79 74.85,-109.06 69.93,-99.67 65.15,-104.79"/>
</a>
</g>
</g>
<!-- Node3 -->
<g id="Node000003" class="node">
<title>Node3</title>
<g id="a_Node000003"><a xlink:href="version_8c.html" target="_top" xlink:title=" ">
<polygon fill="white" stroke="#666666" points="110.75,-19.25 38.5,-19.25 38.5,0 110.75,0 110.75,-19.25"/>
<text xml:space="preserve" text-anchor="middle" x="74.62" y="-5.75" font-family="Helvetica,sans-Serif" font-size="10.00">src/version.c</text>
</a>
</g>
</g>
<!-- Node1&#45;&gt;Node3 -->
<g id="edge2_Node000001_Node000003" class="edge">
<title>Node1&#45;&gt;Node3</title>
<g id="a_edge2_Node000001_Node000003"><a xlink:title=" ">
<path fill="none" stroke="#63b8ff" d="M83.6,-99.1C81.19,-75.4 77.3,-36.97 75.54,-19.63"/>
<polygon fill="#63b8ff" stroke="#63b8ff" points="80.08,-99.14 84.57,-108.74 87.05,-98.44 80.08,-99.14"/>
</a>
</g>
</g>
<!-- Node4 -->
<g id="Node000004" class="node">
<title>Node4</title>
<g id="a_Node000004"><a xlink:href="version_8h.html" target="_top" xlink:title=" ">
<polygon fill="white" stroke="#666666" points="205.75,-74.5 133.5,-74.5 133.5,-55.25 205.75,-55.25 205.75,-74.5"/>
<text xml:space="preserve" text-anchor="middle" x="169.62" y="-61" font-family="Helvetica,sans-Serif" font-size="10.00">src/version.h</text>
</a>
</g>
</g>
<!-- Node1&#45;&gt;Node4 -->
<g id="edge3_Node000001_Node000004" class="edge">
<title>Node1&#45;&gt;Node4</title>
<g id="a_edge3_Node000001_Node000004"><a xlink:title=" ">
<path fill="none" stroke="#63b8ff" d="M109.4,-104.05C124.19,-94.67 142.73,-82.92 155.31,-74.95"/>
<polygon fill="#63b8ff" stroke="#63b8ff" points="107.72,-100.97 101.15,-109.28 111.47,-106.88 107.72,-100.97"/>
</a>
</g>
</g>
<!-- Node4&#45;&gt;Node3 -->
<g id="edge6_Node000004_Node000003" class="edge">
<title>Node4&#45;&gt;Node3</title>
<g id="a_edge6_Node000004_Node000003"><a xlink:title=" ">
<path fill="none" stroke="#63b8ff" d="M143.7,-49.34C126.81,-39.88 105.31,-27.83 90.82,-19.7"/>
<polygon fill="#63b8ff" stroke="#63b8ff" points="141.75,-52.27 152.19,-54.1 145.18,-46.16 141.75,-52.27"/>
</a>
</g>
</g>
<!-- Node5 -->
<g id="Node000005" class="node">
<title>Node5</title>
<g id="a_Node000005"><a xlink:href="credits__scene_8c.html" target="_top" xlink:title=" ">
<polygon fill="white" stroke="#666666" points="230.38,-19.25 128.88,-19.25 128.88,0 230.38,0 230.38,-19.25"/>
<text xml:space="preserve" text-anchor="middle" x="179.62" y="-5.75" font-family="Helvetica,sans-Serif" font-size="10.00">src/credits_scene.c</text>
</a>
</g>
</g>
<!-- Node4&#45;&gt;Node5 -->
<g id="edge4_Node000004_Node000005" class="edge">
<title>Node4&#45;&gt;Node5</title>
<g id="a_edge4_Node000004_Node000005"><a xlink:title=" ">
<path fill="none" stroke="#63b8ff" d="M173.37,-43.92C174.94,-35.55 176.69,-26.25 177.94,-19.61"/>
<polygon fill="#63b8ff" stroke="#63b8ff" points="169.96,-43.12 171.56,-53.59 176.84,-44.41 169.96,-43.12"/>
</a>
</g>
</g>
<!-- Node6 -->
<g id="Node000006" class="node">
<title>Node6</title>
<g id="a_Node000006"><a xlink:href="library__scene_8c.html" target="_top" xlink:title=" ">
<polygon fill="white" stroke="#666666" points="346.88,-19.25 248.38,-19.25 248.38,0 346.88,0 346.88,-19.25"/>
<text xml:space="preserve" text-anchor="middle" x="297.62" y="-5.75" font-family="Helvetica,sans-Serif" font-size="10.00">src/library_scene.c</text>
</a>
</g>
</g>
<!-- Node4&#45;&gt;Node6 -->
<g id="edge5_Node000004_Node000006" class="edge">
<title>Node4&#45;&gt;Node6</title>
<g id="a_edge5_Node000004_Node000006"><a xlink:title=" ">
<path fill="none" stroke="#63b8ff" d="M201.7,-50.53C224.83,-40.91 255.45,-28.17 275.81,-19.7"/>
<polygon fill="#63b8ff" stroke="#63b8ff" points="200.62,-47.19 192.74,-54.26 203.31,-53.65 200.62,-47.19"/>
</a>
</g>
</g>
</g>
</svg>
