<?xml version="1.0" encoding="UTF-8" standalone="no"?>
<!DOCTYPE svg PUBLIC "-//W3C//DTD SVG 1.1//EN"
 "http://www.w3.org/Graphics/SVG/1.1/DTD/svg11.dtd">
<!-- Generated by graphviz version 13.1.0 (20250701.0955)
 -->
<!-- Title: http_cleanup Pages: 1 -->
<!--zoomable 141 -->

<svg id="main" version="1.1" xmlns="http://www.w3.org/2000/svg" xmlns:xlink="http://www.w3.org/1999/xlink" xml:space="preserve" onload="init(evt)">

<style type="text/css"><![CDATA[
.node, .edge {opacity: 0.7;}
.node.selected, .edge.selected {opacity: 1;}
.edge:hover path { stroke: red; }
.edge:hover polygon { stroke: red; fill: red; }
]]></style>

<defs>
  <circle id="rim" cx="0" cy="0" r="7"/>
  <circle id="rim2" cx="0" cy="0" r="3.5"/>
  <g id="zoomPlus">
    <use xlink:href="#rim" fill="#404040"><set attributeName="fill" to="#808080" begin="zoomplus.mouseover" end="zoomplus.mouseout"/></use>
    <path d="M-4,0h8M0,-4v8" fill="none" stroke="white" stroke-width="1.5" pointer-events="none"/>
  </g>
  <g id="zoomMin">
    <use xlink:href="#rim" fill="#404040"><set attributeName="fill" to="#808080" begin="zoomminus.mouseover" end="zoomminus.mouseout"/></use>
    <path d="M-4,0h8" fill="none" stroke="white" stroke-width="1.5" pointer-events="none"/>
  </g>
  <g id="arrowUp" transform="translate(30 24)">
    <use xlink:href="#rim"/>
    <path pointer-events="none" fill="none" stroke="white" stroke-width="1.5" d="M0,-3.0v7 M-2.5,-0.5L0,-3.0L2.5,-0.5"/>
  </g>
  <g id="arrowRight" transform="rotate(90) translate(36 -43)">
    <use xlink:href="#rim"/>
    <path pointer-events="none" fill="none" stroke="white" stroke-width="1.5" d="M0,-3.0v7 M-2.5,-0.5L0,-3.0L2.5,-0.5"/>
  </g>
  <g id="arrowDown" transform="rotate(180) translate(-30 -48)">
    <use xlink:href="#rim"/>
    <path pointer-events="none" fill="none" stroke="white" stroke-width="1.5" d="M0,-3.0v7 M-2.5,-0.5L0,-3.0L2.5,-0.5"/>
  </g>
  <g id="arrowLeft" transform="rotate(270) translate(-36 17)">
    <use xlink:href="#rim"/>
    <path pointer-events="none" fill="none" stroke="white" stroke-width="1.5" d="M0,-3.0v7 M-2.5,-0.5L0,-3.0L2.5,-0.5"/>
  </g>
  <g id="resetDef">
    <use xlink:href="#rim2" fill="#404040"><set attributeName="fill" to="#808080" begin="reset.mouseover" end="reset.mouseout"/></use>
  </g>
</defs>
<script type="application/ecmascript">
var viewWidth = 1736;
var viewHeight = 141;
var sectionId = 'dynsection-9';
</script>
<script type="application/ecmascript" xlink:href="svg.min.js"/>
<svg id="graph" class="graph">
<g id="viewport">
<title>http_cleanup</title>
<!-- Node1 -->
<g id="Node000001" class="node">
<title>Node1</title>
<g id="a_Node000001"><a xlink:title=" ">
<polygon fill="#999999" stroke="#666666" points="1728.25,-76.25 1656.75,-76.25 1656.75,-57 1728.25,-57 1728.25,-76.25"/>
<text xml:space="preserve" text-anchor="middle" x="1692.5" y="-62.75" font-family="Helvetica,sans-Serif" font-size="10.00">http_cleanup</text>
</a>
</g>
</g>
<!-- Node2 -->
<g id="Node000002" class="node">
<title>Node2</title>
<g id="a_Node000002"><a xlink:href="http_8c.html#abe3147b7aacaa22339f67aace20ad919" target="_top" xlink:title=" ">
<polygon fill="white" stroke="#666666" points="1493.75,-133.25 1427.5,-133.25 1427.5,-114 1493.75,-114 1493.75,-133.25"/>
<text xml:space="preserve" text-anchor="middle" x="1460.62" y="-119.75" font-family="Helvetica,sans-Serif" font-size="10.00">CB_Closed</text>
</a>
</g>
</g>
<!-- Node1&#45;&gt;Node2 -->
<g id="edge1_Node000001_Node000002" class="edge">
<title>Node1&#45;&gt;Node2</title>
<g id="a_edge1_Node000001_Node000002"><a xlink:title=" ">
<path fill="none" stroke="#63b8ff" d="M1663.76,-81.82C1650.99,-88.22 1635.45,-95.19 1620.75,-99.62 1578.09,-112.5 1526.82,-118.65 1494.22,-121.45"/>
<polygon fill="#63b8ff" stroke="#63b8ff" points="1665.13,-85.05 1672.4,-77.35 1661.91,-78.84 1665.13,-85.05"/>
</a>
</g>
</g>
<!-- Node3 -->
<g id="Node000003" class="node">
<title>Node3</title>
<g id="a_Node000003"><a xlink:href="http_8c.html#a8e91ed7a67470edcae21329cfc9977f8" target="_top" xlink:title=" ">
<polygon fill="white" stroke="#666666" points="1367.5,-76.25 1283.25,-76.25 1283.25,-57 1367.5,-57 1367.5,-76.25"/>
<text xml:space="preserve" text-anchor="middle" x="1325.38" y="-62.75" font-family="Helvetica,sans-Serif" font-size="10.00">CB_Permission</text>
</a>
</g>
</g>
<!-- Node1&#45;&gt;Node3 -->
<g id="edge16_Node000001_Node000003" class="edge">
<title>Node1&#45;&gt;Node3</title>
<g id="a_edge16_Node000001_Node000003"><a xlink:title=" ">
<path fill="none" stroke="#63b8ff" d="M1644.77,-70.4C1636.77,-70.91 1628.52,-71.35 1620.75,-71.62 1530.59,-74.81 1424.82,-71.22 1367.83,-68.69"/>
<polygon fill="#63b8ff" stroke="#63b8ff" points="1645.01,-73.89 1654.75,-69.71 1644.53,-66.9 1645.01,-73.89"/>
</a>
</g>
</g>
<!-- Node16 -->
<g id="Node000016" class="node">
<title>Node16</title>
<g id="a_Node000016"><a xlink:href="http_8c.html#a8a0fcf620ecfa1f0817aa6b4200e8ca6" target="_top" xlink:title=" ">
<polygon fill="white" stroke="#666666" points="1517.75,-57.25 1403.5,-57.25 1403.5,-38 1517.75,-38 1517.75,-57.25"/>
<text xml:space="preserve" text-anchor="middle" x="1460.62" y="-43.75" font-family="Helvetica,sans-Serif" font-size="10.00">CB_RequestComplete</text>
</a>
</g>
</g>
<!-- Node1&#45;&gt;Node16 -->
<g id="edge17_Node000001_Node000016" class="edge">
<title>Node1&#45;&gt;Node16</title>
<g id="a_edge17_Node000001_Node000016"><a xlink:title=" ">
<path fill="none" stroke="#63b8ff" d="M1645,-62.78C1608.39,-59.76 1557.23,-55.53 1518.24,-52.3"/>
<polygon fill="#63b8ff" stroke="#63b8ff" points="1644.57,-66.26 1654.83,-63.59 1645.15,-59.28 1644.57,-66.26"/>
</a>
</g>
</g>
<!-- Node17 -->
<g id="Node000017" class="node">
<title>Node17</title>
<g id="a_Node000017"><a xlink:href="http_8c.html#a4453de03a0555af48fbaf997ad9ebfd6" target="_top" xlink:title=" ">
<polygon fill="white" stroke="#666666" points="1620.75,-19.25 1553.75,-19.25 1553.75,0 1620.75,0 1620.75,-19.25"/>
<text xml:space="preserve" text-anchor="middle" x="1587.25" y="-5.75" font-family="Helvetica,sans-Serif" font-size="10.00">readAllData</text>
</a>
</g>
</g>
<!-- Node1&#45;&gt;Node17 -->
<g id="edge19_Node000001_Node000017" class="edge">
<title>Node1&#45;&gt;Node17</title>
<g id="a_edge19_Node000001_Node000017"><a xlink:title=" ">
<path fill="none" stroke="#63b8ff" d="M1663.48,-51.16C1645.31,-41.13 1622.16,-28.35 1606.38,-19.63"/>
<polygon fill="#63b8ff" stroke="#63b8ff" points="1661.74,-54.2 1672.19,-55.96 1665.13,-48.07 1661.74,-54.2"/>
</a>
</g>
</g>
<!-- Node2&#45;&gt;Node3 -->
<g id="edge2_Node000002_Node000003" class="edge">
<title>Node2&#45;&gt;Node3</title>
<g id="a_edge2_Node000002_Node000003"><a xlink:title=" ">
<path fill="none" stroke="#63b8ff" d="M1425.76,-109.14C1401.94,-98.95 1370.7,-85.59 1349.66,-76.58"/>
<polygon fill="#63b8ff" stroke="#63b8ff" points="1424.15,-112.26 1434.72,-112.97 1426.9,-105.82 1424.15,-112.26"/>
</a>
</g>
</g>
<!-- Node4 -->
<g id="Node000004" class="node">
<title>Node4</title>
<g id="a_Node000004"><a xlink:href="http_8c.html#a59546d1b6bd8302faa60bd79822c96de" target="_top" xlink:title=" ">
<polygon fill="white" stroke="#666666" points="1247.25,-76.25 1196,-76.25 1196,-57 1247.25,-57 1247.25,-76.25"/>
<text xml:space="preserve" text-anchor="middle" x="1221.62" y="-62.75" font-family="Helvetica,sans-Serif" font-size="10.00">http_get</text>
</a>
</g>
</g>
<!-- Node3&#45;&gt;Node4 -->
<g id="edge3_Node000003_Node000004" class="edge">
<title>Node3&#45;&gt;Node4</title>
<g id="a_edge3_Node000003_Node000004"><a xlink:title=" ">
<path fill="none" stroke="#63b8ff" d="M1271.62,-66.62C1263.24,-66.62 1254.94,-66.62 1247.61,-66.62"/>
<polygon fill="#63b8ff" stroke="#63b8ff" points="1271.48,-70.13 1281.48,-66.63 1271.48,-63.13 1271.48,-70.13"/>
</a>
</g>
</g>
<!-- Node5 -->
<g id="Node000005" class="node">
<title>Node5</title>
<g id="a_Node000005"><a xlink:href="version_8c.html#a538d156e8a64fa13958cc535e122d9ba" target="_top" xlink:title=" ">
<polygon fill="white" stroke="#666666" points="1160,-76.25 1061.5,-76.25 1061.5,-57 1160,-57 1160,-76.25"/>
<text xml:space="preserve" text-anchor="middle" x="1110.75" y="-62.75" font-family="Helvetica,sans-Serif" font-size="10.00">check_for_updates</text>
</a>
</g>
</g>
<!-- Node4&#45;&gt;Node5 -->
<g id="edge4_Node000004_Node000005" class="edge">
<title>Node4&#45;&gt;Node5</title>
<g id="a_edge4_Node000004_Node000005"><a xlink:title=" ">
<path fill="none" stroke="#63b8ff" d="M1184.4,-66.62C1176.64,-66.62 1168.33,-66.62 1160.19,-66.62"/>
<polygon fill="#63b8ff" stroke="#63b8ff" points="1184.13,-70.13 1194.13,-66.63 1184.13,-63.13 1184.13,-70.13"/>
</a>
</g>
</g>
<!-- Node6 -->
<g id="Node000006" class="node">
<title>Node6</title>
<g id="a_Node000006"><a xlink:href="version_8c.html#a682d7ece5fc09acfb9192de972cba8f2" target="_top" xlink:title=" ">
<polygon fill="white" stroke="#666666" points="1025.5,-81.88 925.5,-81.88 925.5,-51.38 1025.5,-51.38 1025.5,-81.88"/>
<text xml:space="preserve" text-anchor="start" x="933.5" y="-68.38" font-family="Helvetica,sans-Serif" font-size="10.00">possibly_check_for</text>
<text xml:space="preserve" text-anchor="middle" x="975.5" y="-57.12" font-family="Helvetica,sans-Serif" font-size="10.00">_updates</text>
</a>
</g>
</g>
<!-- Node5&#45;&gt;Node6 -->
<g id="edge5_Node000005_Node000006" class="edge">
<title>Node5&#45;&gt;Node6</title>
<g id="a_edge5_Node000005_Node000006"><a xlink:title=" ">
<path fill="none" stroke="#63b8ff" d="M1049.92,-66.62C1041.79,-66.62 1033.53,-66.62 1025.62,-66.62"/>
<polygon fill="#63b8ff" stroke="#63b8ff" points="1049.75,-70.13 1059.75,-66.63 1049.75,-63.13 1049.75,-70.13"/>
</a>
</g>
</g>
<!-- Node7 -->
<g id="Node000007" class="node">
<title>Node7</title>
<g id="a_Node000007"><a xlink:href="library__scene_8c.html#a0728002045c9cbbd68bdd34897b28da6" target="_top" xlink:title=" ">
<polygon fill="white" stroke="#666666" points="889.5,-76.25 755.75,-76.25 755.75,-57 889.5,-57 889.5,-76.25"/>
<text xml:space="preserve" text-anchor="middle" x="822.62" y="-62.75" font-family="Helvetica,sans-Serif" font-size="10.00">PGB_LibraryScene_update</text>
</a>
</g>
</g>
<!-- Node6&#45;&gt;Node7 -->
<g id="edge6_Node000006_Node000007" class="edge">
<title>Node6&#45;&gt;Node7</title>
<g id="a_edge6_Node000006_Node000007"><a xlink:title=" ">
<path fill="none" stroke="#63b8ff" d="M913.77,-66.62C905.91,-66.62 897.82,-66.62 889.87,-66.62"/>
<polygon fill="#63b8ff" stroke="#63b8ff" points="913.58,-70.13 923.58,-66.63 913.58,-63.13 913.58,-70.13"/>
</a>
</g>
</g>
<!-- Node8 -->
<g id="Node000008" class="node">
<title>Node8</title>
<g id="a_Node000008"><a xlink:href="library__scene_8c.html#aa5c386d39121b53fba45d899df654188" target="_top" xlink:title=" ">
<polygon fill="white" stroke="#666666" points="719.75,-76.25 597.25,-76.25 597.25,-57 719.75,-57 719.75,-76.25"/>
<text xml:space="preserve" text-anchor="middle" x="658.5" y="-62.75" font-family="Helvetica,sans-Serif" font-size="10.00">PGB_LibraryScene_new</text>
</a>
</g>
</g>
<!-- Node7&#45;&gt;Node8 -->
<g id="edge7_Node000007_Node000008" class="edge">
<title>Node7&#45;&gt;Node8</title>
<g id="a_edge7_Node000007_Node000008"><a xlink:title=" ">
<path fill="none" stroke="#63b8ff" d="M744.29,-66.62C736.19,-66.62 728.04,-66.62 720.16,-66.62"/>
<polygon fill="#63b8ff" stroke="#63b8ff" points="744.17,-70.13 754.17,-66.63 744.17,-63.13 744.17,-70.13"/>
</a>
</g>
</g>
<!-- Node9 -->
<g id="Node000009" class="node">
<title>Node9</title>
<g id="a_Node000009"><a xlink:href="app_8c.html#ab80501f53b757a79772b96ec99e3dc7e" target="_top" xlink:title=" ">
<polygon fill="white" stroke="#666666" points="534.25,-119.25 441.75,-119.25 441.75,-100 534.25,-100 534.25,-119.25"/>
<text xml:space="preserve" text-anchor="middle" x="488" y="-105.75" font-family="Helvetica,sans-Serif" font-size="10.00">PGB_goToLibrary</text>
</a>
</g>
</g>
<!-- Node8&#45;&gt;Node9 -->
<g id="edge8_Node000008_Node000009" class="edge">
<title>Node8&#45;&gt;Node9</title>
<g id="a_edge8_Node000008_Node000009"><a xlink:title=" ">
<path fill="none" stroke="#63b8ff" d="M606.84,-79.55C581.76,-85.95 551.92,-93.57 528.55,-99.53"/>
<polygon fill="#63b8ff" stroke="#63b8ff" points="607.7,-82.94 616.53,-77.08 605.97,-76.16 607.7,-82.94"/>
</a>
</g>
</g>
<!-- Node12 -->
<g id="Node000012" class="node">
<title>Node12</title>
<g id="a_Node000012"><a xlink:href="image__conversion__scene_8c.html#a60d0e43ab25a8639bbb6d1f4e758edd3" target="_top" xlink:title=" ">
<polygon fill="white" stroke="#666666" points="561.25,-81.88 414.75,-81.88 414.75,-51.38 561.25,-51.38 561.25,-81.88"/>
<text xml:space="preserve" text-anchor="start" x="422.75" y="-68.38" font-family="Helvetica,sans-Serif" font-size="10.00">PGB_ImageConversionScene</text>
<text xml:space="preserve" text-anchor="middle" x="488" y="-57.12" font-family="Helvetica,sans-Serif" font-size="10.00">_update</text>
</a>
</g>
</g>
<!-- Node8&#45;&gt;Node12 -->
<g id="edge11_Node000008_Node000012" class="edge">
<title>Node8&#45;&gt;Node12</title>
<g id="a_edge11_Node000008_Node000012"><a xlink:title=" ">
<path fill="none" stroke="#63b8ff" d="M585.9,-66.62C577.86,-66.62 569.65,-66.62 561.6,-66.62"/>
<polygon fill="#63b8ff" stroke="#63b8ff" points="585.63,-70.13 595.63,-66.63 585.63,-63.13 585.63,-70.13"/>
</a>
</g>
</g>
<!-- Node14 -->
<g id="Node000014" class="node">
<title>Node14</title>
<g id="a_Node000014"><a xlink:href="app_8c.html#af256ea7a9c51fcbd49cb0007facbb8ea" target="_top" xlink:title=" ">
<polygon fill="white" stroke="#666666" points="166.25,-54.25 111.25,-54.25 111.25,-35 166.25,-35 166.25,-54.25"/>
<text xml:space="preserve" text-anchor="middle" x="138.75" y="-40.75" font-family="Helvetica,sans-Serif" font-size="10.00">PGB_init</text>
</a>
</g>
</g>
<!-- Node8&#45;&gt;Node14 -->
<g id="edge15_Node000008_Node000014" class="edge">
<title>Node8&#45;&gt;Node14</title>
<g id="a_edge15_Node000008_Node000014"><a xlink:title=" ">
<path fill="none" stroke="#63b8ff" d="M614.41,-53.49C597.95,-49.11 578.89,-44.79 561.25,-42.62 413.08,-24.43 233.4,-36.5 166.52,-42.16"/>
<polygon fill="#63b8ff" stroke="#63b8ff" points="613.32,-56.82 623.89,-56.11 615.18,-50.08 613.32,-56.82"/>
</a>
</g>
</g>
<!-- Node10 -->
<g id="Node000010" class="node">
<title>Node10</title>
<g id="a_Node000010"><a xlink:href="game__scene_8c.html#a6a4a6f0408da311dc566eb187e497889" target="_top" xlink:title=" ">
<polygon fill="white" stroke="#666666" points="360,-119.25 227.75,-119.25 227.75,-100 360,-100 360,-119.25"/>
<text xml:space="preserve" text-anchor="middle" x="293.88" y="-105.75" font-family="Helvetica,sans-Serif" font-size="10.00">PGB_LibraryConfirmModal</text>
</a>
</g>
</g>
<!-- Node9&#45;&gt;Node10 -->
<g id="edge9_Node000009_Node000010" class="edge">
<title>Node9&#45;&gt;Node10</title>
<g id="a_edge9_Node000009_Node000010"><a xlink:title=" ">
<path fill="none" stroke="#63b8ff" d="M430.03,-109.62C408.17,-109.62 383.05,-109.62 360.44,-109.62"/>
<polygon fill="#63b8ff" stroke="#63b8ff" points="429.96,-113.13 439.96,-109.63 429.96,-106.13 429.96,-113.13"/>
</a>
</g>
</g>
<!-- Node11 -->
<g id="Node000011" class="node">
<title>Node11</title>
<g id="a_Node000011"><a xlink:href="game__scene_8c.html#a113df24bb94bafcdbb9235ec8648e02f" target="_top" xlink:title=" ">
<polygon fill="white" stroke="#666666" points="173,-119.25 104.5,-119.25 104.5,-100 173,-100 173,-119.25"/>
<text xml:space="preserve" text-anchor="middle" x="138.75" y="-105.75" font-family="Helvetica,sans-Serif" font-size="10.00">__section__</text>
</a>
</g>
</g>
<!-- Node10&#45;&gt;Node11 -->
<g id="edge10_Node000010_Node000011" class="edge">
<title>Node10&#45;&gt;Node11</title>
<g id="a_edge10_Node000010_Node000011"><a xlink:title=" ">
<path fill="none" stroke="#63b8ff" d="M216.03,-109.62C200.98,-109.62 185.96,-109.62 173.27,-109.62"/>
<polygon fill="#63b8ff" stroke="#63b8ff" points="215.98,-113.13 225.98,-109.63 215.98,-106.13 215.98,-113.13"/>
</a>
</g>
</g>
<!-- Node13 -->
<g id="Node000013" class="node">
<title>Node13</title>
<g id="a_Node000013"><a xlink:href="image__conversion__scene_8c.html#aa3559936491ddf78b9cf06fcbdd32d22" target="_top" xlink:title=" ">
<polygon fill="white" stroke="#666666" points="378.75,-74.25 209,-74.25 209,-55 378.75,-55 378.75,-74.25"/>
<text xml:space="preserve" text-anchor="middle" x="293.88" y="-60.75" font-family="Helvetica,sans-Serif" font-size="10.00">PGB_ImageConversionScene_new</text>
</a>
</g>
</g>
<!-- Node12&#45;&gt;Node13 -->
<g id="edge12_Node000012_Node000013" class="edge">
<title>Node12&#45;&gt;Node13</title>
<g id="a_edge12_Node000012_Node000013"><a xlink:title=" ">
<path fill="none" stroke="#63b8ff" d="M402.94,-65.75C395.07,-65.67 387.09,-65.58 379.22,-65.5"/>
<polygon fill="#63b8ff" stroke="#63b8ff" points="402.82,-69.25 412.85,-65.85 402.89,-62.25 402.82,-69.25"/>
</a>
</g>
</g>
<!-- Node13&#45;&gt;Node14 -->
<g id="edge13_Node000013_Node000014" class="edge">
<title>Node13&#45;&gt;Node14</title>
<g id="a_edge13_Node000013_Node000014"><a xlink:title=" ">
<path fill="none" stroke="#63b8ff" d="M204.38,-53.07C190.72,-51.28 177.57,-49.56 166.75,-48.15"/>
<polygon fill="#63b8ff" stroke="#63b8ff" points="203.55,-56.49 213.91,-54.31 204.45,-49.55 203.55,-56.49"/>
</a>
</g>
</g>
<!-- Node15 -->
<g id="Node000015" class="node">
<title>Node15</title>
<g id="a_Node000015"><a xlink:href="main_8c.html#a77034286b8c64d0735c69535c5e9b732" target="_top" xlink:title=" ">
<polygon fill="white" stroke="#666666" points="68.5,-54.25 0,-54.25 0,-35 68.5,-35 68.5,-54.25"/>
<text xml:space="preserve" text-anchor="middle" x="34.25" y="-40.75" font-family="Helvetica,sans-Serif" font-size="10.00">__section__</text>
</a>
</g>
</g>
<!-- Node14&#45;&gt;Node15 -->
<g id="edge14_Node000014_Node000015" class="edge">
<title>Node14&#45;&gt;Node15</title>
<g id="a_edge14_Node000014_Node000015"><a xlink:title=" ">
<path fill="none" stroke="#63b8ff" d="M99.48,-44.62C89.46,-44.62 78.74,-44.62 68.97,-44.62"/>
<polygon fill="#63b8ff" stroke="#63b8ff" points="99.31,-48.13 109.31,-44.63 99.31,-41.13 99.31,-48.13"/>
</a>
</g>
</g>
<!-- Node16&#45;&gt;Node3 -->
<g id="edge18_Node000016_Node000003" class="edge">
<title>Node16&#45;&gt;Node3</title>
<g id="a_edge18_Node000016_Node000003"><a xlink:title=" ">
<path fill="none" stroke="#63b8ff" d="M1391.86,-57.29C1383.58,-58.47 1375.33,-59.64 1367.61,-60.75"/>
<polygon fill="#63b8ff" stroke="#63b8ff" points="1392.21,-60.77 1401.62,-55.9 1391.22,-53.84 1392.21,-60.77"/>
</a>
</g>
</g>
<!-- Node17&#45;&gt;Node3 -->
<g id="edge20_Node000017_Node000003" class="edge">
<title>Node17&#45;&gt;Node3</title>
<g id="a_edge20_Node000017_Node000003"><a xlink:title=" ">
<path fill="none" stroke="#63b8ff" d="M1542.51,-9.86C1504.97,-11.08 1449.75,-15.29 1403.5,-28.62 1381.27,-35.03 1357.68,-47.61 1342.54,-56.54"/>
<polygon fill="#63b8ff" stroke="#63b8ff" points="1542.15,-13.37 1552.06,-9.61 1541.97,-6.37 1542.15,-13.37"/>
</a>
</g>
</g>
<!-- Node17&#45;&gt;Node16 -->
<g id="edge21_Node000017_Node000016" class="edge">
<title>Node17&#45;&gt;Node16</title>
<g id="a_edge21_Node000017_Node000016"><a xlink:title=" ">
<path fill="none" stroke="#63b8ff" d="M1542.88,-22.85C1527.03,-27.68 1509.38,-33.06 1494.58,-37.58"/>
<polygon fill="#63b8ff" stroke="#63b8ff" points="1543.51,-26.31 1552.06,-20.05 1541.47,-19.62 1543.51,-26.31"/>
</a>
</g>
</g>
</g>
</svg>

<g id="navigator" transform="translate(0 0)" fill="#404254">
  <rect fill="#f2f5e9" fill-opacity="0.5" stroke="#606060" stroke-width=".5" x="0" y="0" width="60" height="60"/>
  <use id="zoomplus" xlink:href="#zoomPlus" x="17" y="9" onmousedown="handleZoom(evt,'in')"/>
  <use id="zoomminus" xlink:href="#zoomMin" x="42" y="9" onmousedown="handleZoom(evt,'out')"/>
  <use id="reset" xlink:href="#resetDef" x="30" y="36" onmousedown="handleReset()"/>
   <use id="arrowup" xlink:href="#arrowUp" x="0" y="0" onmousedown="handlePan(0,-1)"/>
  <use id="arrowright" xlink:href="#arrowRight" x="0" y="0" onmousedown="handlePan(1,0)"/>
  <use id="arrowdown" xlink:href="#arrowDown" x="0" y="0" onmousedown="handlePan(0,1)"/>
  <use id="arrowleft" xlink:href="#arrowLeft" x="0" y="0" onmousedown="handlePan(-1,0)"/>
</g>
<svg viewBox="0 0 15 15" width="100%" height="30px" preserveAspectRatio="xMaxYMin meet">
 <g id="arrow_out" transform="scale(0.3 0.3)">
  <a xlink:href="http_8c_a6d9aee86a4ac95df8b7acc28b94208fa_icgraph_org.svg" target="_base">
   <rect id="button" ry="5" rx="5" y="6" x="6" height="38" width="38"
        fill="#f2f5e9" fill-opacity="0.5" stroke="#606060" stroke-width="1.0"/>
   <path id="arrow"
     d="M 11.500037,31.436501 C 11.940474,20.09759 22.043105,11.32322 32.158766,21.979434 L 37.068811,17.246167 C 37.068811,17.246167 37.088388,32 37.088388,32 L 22.160133,31.978069 C 22.160133,31.978069 26.997745,27.140456 26.997745,27.140456 C 18.528582,18.264221 13.291696,25.230495 11.500037,31.436501 z"
     style="fill:#404040;"/>
  </a>
 </g>
</svg>

<style type='text/css'>
<![CDATA[
[data-mouse-over-selected='false'] { opacity: 0.7; }
[data-mouse-over-selected='true']  { opacity: 1.0; }
]]>
</style>
<script type="application/ecmascript"><![CDATA[
document.addEventListener('DOMContentLoaded', (event) => {
  highlightEdges();
  highlightAdjacentNodes();
});
]]></script>
</svg>
