<?xml version="1.0" encoding="UTF-8" standalone="no"?>
<!DOCTYPE svg PUBLIC "-//W3C//DTD SVG 1.1//EN"
 "http://www.w3.org/Graphics/SVG/1.1/DTD/svg11.dtd">
<!-- Generated by graphviz version 13.1.0 (20250701.0955)
 -->
<!-- Title: filename_has_stbi_extension Pages: 1 -->
<svg width="650pt" height="64pt"
 viewBox="0.00 0.00 650.00 64.00" xmlns="http://www.w3.org/2000/svg" xmlns:xlink="http://www.w3.org/1999/xlink">
<g id="graph0" class="graph" transform="scale(1 1) rotate(0) translate(4 60.25)">
<title>filename_has_stbi_extension</title>
<!-- Node1 -->
<g id="Node000001" class="node">
<title>Node1</title>
<g id="a_Node000001"><a xlink:title=" ">
<polygon fill="#999999" stroke="#666666" points="641.75,-38.25 499.75,-38.25 499.75,-19 641.75,-19 641.75,-38.25"/>
<text xml:space="preserve" text-anchor="middle" x="570.75" y="-24.75" font-family="Helvetica,sans-Serif" font-size="10.00">filename_has_stbi_extension</text>
</a>
</g>
</g>
<!-- Node2 -->
<g id="Node000002" class="node">
<title>Node2</title>
<g id="a_Node000002"><a xlink:href="app_8c.html#acfaefb1e9797cdb230c753e8d25daf37" target="_top" xlink:title=" ">
<polygon fill="white" stroke="#666666" points="336.38,-56.25 224.38,-56.25 224.38,-37 336.38,-37 336.38,-56.25"/>
<text xml:space="preserve" text-anchor="middle" x="280.38" y="-42.75" font-family="Helvetica,sans-Serif" font-size="10.00">checkForPngCallback</text>
</a>
</g>
</g>
<!-- Node1&#45;&gt;Node2 -->
<g id="edge1_Node000001_Node000002" class="edge">
<title>Node1&#45;&gt;Node2</title>
<g id="a_edge1_Node000001_Node000002"><a xlink:title=" ">
<path fill="none" stroke="#63b8ff" d="M488.14,-33.72C439.62,-36.75 379.36,-40.51 336.44,-43.19"/>
<polygon fill="#63b8ff" stroke="#63b8ff" points="488.3,-37.22 498.06,-33.1 487.87,-30.23 488.3,-37.22"/>
</a>
</g>
</g>
<!-- Node5 -->
<g id="Node000005" class="node">
<title>Node5</title>
<g id="a_Node000005"><a xlink:href="image__conversion__scene_8c.html#a8392581304565176036b9933060aa3c0" target="_top" xlink:title=" ">
<polygon fill="white" stroke="#666666" points="463.75,-19.25 401.25,-19.25 401.25,0 463.75,0 463.75,-19.25"/>
<text xml:space="preserve" text-anchor="middle" x="432.5" y="-5.75" font-family="Helvetica,sans-Serif" font-size="10.00">on_list_file</text>
</a>
</g>
</g>
<!-- Node1&#45;&gt;Node5 -->
<g id="edge4_Node000001_Node000005" class="edge">
<title>Node1&#45;&gt;Node5</title>
<g id="a_edge4_Node000001_Node000005"><a xlink:title=" ">
<path fill="none" stroke="#63b8ff" d="M488.26,-17.26C479.7,-16.07 471.44,-14.92 464.03,-13.88"/>
<polygon fill="#63b8ff" stroke="#63b8ff" points="487.74,-20.72 498.13,-18.64 488.71,-13.79 487.74,-20.72"/>
</a>
</g>
</g>
<!-- Node3 -->
<g id="Node000003" class="node">
<title>Node3</title>
<g id="a_Node000003"><a xlink:href="app_8c.html#af256ea7a9c51fcbd49cb0007facbb8ea" target="_top" xlink:title=" ">
<polygon fill="white" stroke="#666666" points="159.5,-37.25 104.5,-37.25 104.5,-18 159.5,-18 159.5,-37.25"/>
<text xml:space="preserve" text-anchor="middle" x="132" y="-23.75" font-family="Helvetica,sans-Serif" font-size="10.00">PGB_init</text>
</a>
</g>
</g>
<!-- Node2&#45;&gt;Node3 -->
<g id="edge2_Node000002_Node000003" class="edge">
<title>Node2&#45;&gt;Node3</title>
<g id="a_edge2_Node000002_Node000003"><a xlink:title=" ">
<path fill="none" stroke="#63b8ff" d="M212.79,-37.98C194.03,-35.55 174.68,-33.04 159.74,-31.1"/>
<polygon fill="#63b8ff" stroke="#63b8ff" points="212.17,-41.43 222.54,-39.25 213.07,-34.49 212.17,-41.43"/>
</a>
</g>
</g>
<!-- Node4 -->
<g id="Node000004" class="node">
<title>Node4</title>
<g id="a_Node000004"><a xlink:href="main_8c.html#a77034286b8c64d0735c69535c5e9b732" target="_top" xlink:title=" ">
<polygon fill="white" stroke="#666666" points="68.5,-37.25 0,-37.25 0,-18 68.5,-18 68.5,-37.25"/>
<text xml:space="preserve" text-anchor="middle" x="34.25" y="-23.75" font-family="Helvetica,sans-Serif" font-size="10.00">__section__</text>
</a>
</g>
</g>
<!-- Node3&#45;&gt;Node4 -->
<g id="edge3_Node000003_Node000004" class="edge">
<title>Node3&#45;&gt;Node4</title>
<g id="a_edge3_Node000003_Node000004"><a xlink:title=" ">
<path fill="none" stroke="#63b8ff" d="M92.81,-27.62C84.87,-27.62 76.56,-27.62 68.8,-27.62"/>
<polygon fill="#63b8ff" stroke="#63b8ff" points="92.56,-31.13 102.56,-27.63 92.56,-24.13 92.56,-31.13"/>
</a>
</g>
</g>
<!-- Node6 -->
<g id="Node000006" class="node">
<title>Node6</title>
<g id="a_Node000006"><a xlink:href="image__conversion__scene_8c.html#aa3559936491ddf78b9cf06fcbdd32d22" target="_top" xlink:title=" ">
<polygon fill="white" stroke="#666666" points="365.25,-19.25 195.5,-19.25 195.5,0 365.25,0 365.25,-19.25"/>
<text xml:space="preserve" text-anchor="middle" x="280.38" y="-5.75" font-family="Helvetica,sans-Serif" font-size="10.00">PGB_ImageConversionScene_new</text>
</a>
</g>
</g>
<!-- Node5&#45;&gt;Node6 -->
<g id="edge5_Node000005_Node000006" class="edge">
<title>Node5&#45;&gt;Node6</title>
<g id="a_edge5_Node000005_Node000006"><a xlink:title=" ">
<path fill="none" stroke="#63b8ff" d="M389.49,-9.62C381.99,-9.62 373.94,-9.62 365.75,-9.62"/>
<polygon fill="#63b8ff" stroke="#63b8ff" points="389.24,-13.13 399.24,-9.63 389.24,-6.13 389.24,-13.13"/>
</a>
</g>
</g>
<!-- Node6&#45;&gt;Node3 -->
<g id="edge6_Node000006_Node000003" class="edge">
<title>Node6&#45;&gt;Node3</title>
<g id="a_edge6_Node000006_Node000003"><a xlink:title=" ">
<path fill="none" stroke="#63b8ff" d="M185.91,-21.12C176.44,-22.28 167.47,-23.39 159.69,-24.34"/>
<polygon fill="#63b8ff" stroke="#63b8ff" points="186.2,-24.61 195.7,-19.91 185.35,-17.66 186.2,-24.61"/>
</a>
</g>
</g>
</g>
</svg>
