<?xml version="1.0" encoding="UTF-8" standalone="no"?>
<!DOCTYPE svg PUBLIC "-//W3C//DTD SVG 1.1//EN"
 "http://www.w3.org/Graphics/SVG/1.1/DTD/svg11.dtd">
<!-- Generated by graphviz version 13.1.0 (20250701.0955)
 -->
<!-- Title: src/image_conversion_scene.c Pages: 1 -->
<!--zoomable 315 -->

<svg id="main" version="1.1" xmlns="http://www.w3.org/2000/svg" xmlns:xlink="http://www.w3.org/1999/xlink" xml:space="preserve" onload="init(evt)">

<style type="text/css"><![CDATA[
.node, .edge {opacity: 0.7;}
.node.selected, .edge.selected {opacity: 1;}
.edge:hover path { stroke: red; }
.edge:hover polygon { stroke: red; fill: red; }
]]></style>

<defs>
  <circle id="rim" cx="0" cy="0" r="7"/>
  <circle id="rim2" cx="0" cy="0" r="3.5"/>
  <g id="zoomPlus">
    <use xlink:href="#rim" fill="#404040"><set attributeName="fill" to="#808080" begin="zoomplus.mouseover" end="zoomplus.mouseout"/></use>
    <path d="M-4,0h8M0,-4v8" fill="none" stroke="white" stroke-width="1.5" pointer-events="none"/>
  </g>
  <g id="zoomMin">
    <use xlink:href="#rim" fill="#404040"><set attributeName="fill" to="#808080" begin="zoomminus.mouseover" end="zoomminus.mouseout"/></use>
    <path d="M-4,0h8" fill="none" stroke="white" stroke-width="1.5" pointer-events="none"/>
  </g>
  <g id="arrowUp" transform="translate(30 24)">
    <use xlink:href="#rim"/>
    <path pointer-events="none" fill="none" stroke="white" stroke-width="1.5" d="M0,-3.0v7 M-2.5,-0.5L0,-3.0L2.5,-0.5"/>
  </g>
  <g id="arrowRight" transform="rotate(90) translate(36 -43)">
    <use xlink:href="#rim"/>
    <path pointer-events="none" fill="none" stroke="white" stroke-width="1.5" d="M0,-3.0v7 M-2.5,-0.5L0,-3.0L2.5,-0.5"/>
  </g>
  <g id="arrowDown" transform="rotate(180) translate(-30 -48)">
    <use xlink:href="#rim"/>
    <path pointer-events="none" fill="none" stroke="white" stroke-width="1.5" d="M0,-3.0v7 M-2.5,-0.5L0,-3.0L2.5,-0.5"/>
  </g>
  <g id="arrowLeft" transform="rotate(270) translate(-36 17)">
    <use xlink:href="#rim"/>
    <path pointer-events="none" fill="none" stroke="white" stroke-width="1.5" d="M0,-3.0v7 M-2.5,-0.5L0,-3.0L2.5,-0.5"/>
  </g>
  <g id="resetDef">
    <use xlink:href="#rim2" fill="#404040"><set attributeName="fill" to="#808080" begin="reset.mouseover" end="reset.mouseout"/></use>
  </g>
</defs>
<script type="application/ecmascript">
var viewWidth = 594;
var viewHeight = 315;
var sectionId = 'dynsection-0';
</script>
<script type="application/ecmascript" xlink:href="svg.min.js"/>
<svg id="graph" class="graph">
<g id="viewport">
<title>src/image_conversion_scene.c</title>
<!-- Node1 -->
<g id="Node000001" class="node">
<title>Node1</title>
<g id="a_Node000001"><a xlink:title=" ">
<polygon fill="#999999" stroke="#666666" points="423.88,-306.75 312.62,-306.75 312.62,-276.25 423.88,-276.25 423.88,-306.75"/>
<text xml:space="preserve" text-anchor="start" x="320.62" y="-293.25" font-family="Helvetica,sans-Serif" font-size="10.00">src/image_conversion</text>
<text xml:space="preserve" text-anchor="middle" x="368.25" y="-282" font-family="Helvetica,sans-Serif" font-size="10.00">_scene.c</text>
</a>
</g>
</g>
<!-- Node2 -->
<g id="Node000002" class="node">
<title>Node2</title>
<g id="a_Node000002"><a xlink:href="image__conversion__scene_8h.html" target="_top" xlink:title=" ">
<polygon fill="white" stroke="#666666" points="330.5,-240.25 196,-240.25 196,-221 330.5,-221 330.5,-240.25"/>
<text xml:space="preserve" text-anchor="middle" x="263.25" y="-226.75" font-family="Helvetica,sans-Serif" font-size="10.00">image_conversion_scene.h</text>
</a>
</g>
</g>
<!-- Node1&#45;&gt;Node2 -->
<g id="edge1_Node000001_Node000002" class="edge">
<title>Node1&#45;&gt;Node2</title>
<g id="a_edge1_Node000001_Node000002"><a xlink:title=" ">
<path fill="none" stroke="#63b8ff" d="M342.02,-275.8C325.88,-266.74 305.27,-255.19 289.18,-246.16"/>
<polygon fill="#63b8ff" stroke="#63b8ff" points="291.11,-243.23 280.67,-241.39 287.68,-249.34 291.11,-243.23"/>
</a>
</g>
</g>
<!-- Node9 -->
<g id="Node000009" class="node">
<title>Node9</title>
<g id="a_Node000009"><a xlink:href="app_8h.html" target="_top" xlink:title=" ">
<polygon fill="white" stroke="#666666" points="388.25,-240.25 348.25,-240.25 348.25,-221 388.25,-221 388.25,-240.25"/>
<text xml:space="preserve" text-anchor="middle" x="368.25" y="-226.75" font-family="Helvetica,sans-Serif" font-size="10.00">app.h</text>
</a>
</g>
</g>
<!-- Node1&#45;&gt;Node9 -->
<g id="edge13_Node000001_Node000009" class="edge">
<title>Node1&#45;&gt;Node9</title>
<g id="a_edge13_Node000001_Node000009"><a xlink:title=" ">
<path fill="none" stroke="#63b8ff" d="M368.25,-275.95C368.25,-268.71 368.25,-259.84 368.25,-251.94"/>
<polygon fill="#63b8ff" stroke="#63b8ff" points="371.75,-252.21 368.25,-242.21 364.75,-252.21 371.75,-252.21"/>
</a>
</g>
</g>
<!-- Node12 -->
<g id="Node000012" class="node">
<title>Node12</title>
<g id="a_Node000012"><a xlink:href="library__scene_8h.html" target="_top" xlink:title=" ">
<polygon fill="white" stroke="#666666" points="163.25,-240.25 81.25,-240.25 81.25,-221 163.25,-221 163.25,-240.25"/>
<text xml:space="preserve" text-anchor="middle" x="122.25" y="-226.75" font-family="Helvetica,sans-Serif" font-size="10.00">library_scene.h</text>
</a>
</g>
</g>
<!-- Node1&#45;&gt;Node12 -->
<g id="edge20_Node000001_Node000012" class="edge">
<title>Node1&#45;&gt;Node12</title>
<g id="a_edge20_Node000001_Node000012"><a xlink:title=" ">
<path fill="none" stroke="#63b8ff" d="M312.43,-277.14C269.93,-266.97 211.99,-253.1 171.27,-243.36"/>
<polygon fill="#63b8ff" stroke="#63b8ff" points="172.28,-240 161.74,-241.08 170.65,-246.81 172.28,-240"/>
</a>
</g>
</g>
<!-- Node14 -->
<g id="Node000014" class="node">
<title>Node14</title>
<g id="a_Node000014"><a xlink:href="pdi_8h.html" target="_top" xlink:title=" ">
<polygon fill="white" stroke="#666666" points="450.75,-240.25 413.75,-240.25 413.75,-221 450.75,-221 450.75,-240.25"/>
<text xml:space="preserve" text-anchor="middle" x="432.25" y="-226.75" font-family="Helvetica,sans-Serif" font-size="10.00">pdi.h</text>
</a>
</g>
</g>
<!-- Node1&#45;&gt;Node14 -->
<g id="edge28_Node000001_Node000014" class="edge">
<title>Node1&#45;&gt;Node14</title>
<g id="a_edge28_Node000001_Node000014"><a xlink:title=" ">
<path fill="none" stroke="#63b8ff" d="M384.07,-275.95C393.16,-267.59 404.61,-257.05 414.07,-248.35"/>
<polygon fill="#63b8ff" stroke="#63b8ff" points="416.28,-251.07 421.27,-241.73 411.54,-245.92 416.28,-251.07"/>
</a>
</g>
</g>
<!-- Node15 -->
<g id="Node000015" class="node">
<title>Node15</title>
<g id="a_Node000015"><a xlink:href="stb__image_8h.html" target="_top" xlink:title=" ">
<polygon fill="white" stroke="#666666" points="544.88,-240.25 475.62,-240.25 475.62,-221 544.88,-221 544.88,-240.25"/>
<text xml:space="preserve" text-anchor="middle" x="510.25" y="-226.75" font-family="Helvetica,sans-Serif" font-size="10.00">stb_image.h</text>
</a>
</g>
</g>
<!-- Node1&#45;&gt;Node15 -->
<g id="edge30_Node000001_Node000015" class="edge">
<title>Node1&#45;&gt;Node15</title>
<g id="a_edge30_Node000001_Node000015"><a xlink:title=" ">
<path fill="none" stroke="#63b8ff" d="M403.72,-275.8C426.49,-266.35 455.82,-254.19 477.94,-245.02"/>
<polygon fill="#63b8ff" stroke="#63b8ff" points="479.18,-248.3 487.07,-241.23 476.5,-241.83 479.18,-248.3"/>
</a>
</g>
</g>
<!-- Node3 -->
<g id="Node000003" class="node">
<title>Node3</title>
<g id="a_Node000003"><a xlink:href="scene_8h.html" target="_top" xlink:title=" ">
<polygon fill="white" stroke="#666666" points="200.5,-185 150,-185 150,-165.75 200.5,-165.75 200.5,-185"/>
<text xml:space="preserve" text-anchor="middle" x="175.25" y="-171.5" font-family="Helvetica,sans-Serif" font-size="10.00">scene.h</text>
</a>
</g>
</g>
<!-- Node2&#45;&gt;Node3 -->
<g id="edge2_Node000002_Node000003" class="edge">
<title>Node2&#45;&gt;Node3</title>
<g id="a_edge2_Node000002_Node000003"><a xlink:title=" ">
<path fill="none" stroke="#63b8ff" d="M248.32,-220.59C235.05,-212.56 215.38,-200.66 199.8,-191.23"/>
<polygon fill="#63b8ff" stroke="#63b8ff" points="201.91,-188.42 191.55,-186.24 198.29,-194.41 201.91,-188.42"/>
</a>
</g>
</g>
<!-- Node8 -->
<g id="Node000008" class="node">
<title>Node8</title>
<g id="a_Node000008"><a xlink:title=" ">
<polygon fill="#e0e0e0" stroke="#999999" points="227.88,-19.25 182.62,-19.25 182.62,0 227.88,0 227.88,-19.25"/>
<text xml:space="preserve" text-anchor="middle" x="205.25" y="-5.75" font-family="Helvetica,sans-Serif" font-size="10.00">stdio.h</text>
</a>
</g>
</g>
<!-- Node2&#45;&gt;Node8 -->
<g id="edge12_Node000002_Node000008" class="edge">
<title>Node2&#45;&gt;Node8</title>
<g id="a_edge12_Node000002_Node000008"><a xlink:title=" ">
<path fill="none" stroke="#63b8ff" d="M266.36,-220.55C276.91,-189.65 310.88,-89.59 313.25,-74.5 314.58,-66.05 318.01,-62.36 313.25,-55.25 296.89,-30.79 264.41,-19.72 239.32,-14.72"/>
<polygon fill="#63b8ff" stroke="#63b8ff" points="239.99,-11.29 229.54,-13.03 238.79,-18.19 239.99,-11.29"/>
</a>
</g>
</g>
<!-- Node4 -->
<g id="Node000004" class="node">
<title>Node4</title>
<g id="a_Node000004"><a xlink:title=" ">
<polygon fill="#e0e0e0" stroke="#999999" points="304.62,-74.5 251.88,-74.5 251.88,-55.25 304.62,-55.25 304.62,-74.5"/>
<text xml:space="preserve" text-anchor="middle" x="278.25" y="-61" font-family="Helvetica,sans-Serif" font-size="10.00">pd_api.h</text>
</a>
</g>
</g>
<!-- Node3&#45;&gt;Node4 -->
<g id="edge3_Node000003_Node000004" class="edge">
<title>Node3&#45;&gt;Node4</title>
<g id="a_edge3_Node000003_Node000004"><a xlink:title=" ">
<path fill="none" stroke="#63b8ff" d="M191.61,-165.28C205.19,-157.17 224.44,-144.36 238.25,-129.75 250.89,-116.38 261.71,-98.42 268.9,-84.95"/>
<polygon fill="#63b8ff" stroke="#63b8ff" points="271.92,-86.74 273.35,-76.24 265.68,-83.55 271.92,-86.74"/>
</a>
</g>
</g>
<!-- Node5 -->
<g id="Node000005" class="node">
<title>Node5</title>
<g id="a_Node000005"><a xlink:href="utility_8h.html" target="_top" xlink:title=" ">
<polygon fill="white" stroke="#666666" points="196.25,-129.75 150.25,-129.75 150.25,-110.5 196.25,-110.5 196.25,-129.75"/>
<text xml:space="preserve" text-anchor="middle" x="173.25" y="-116.25" font-family="Helvetica,sans-Serif" font-size="10.00">utility.h</text>
</a>
</g>
</g>
<!-- Node3&#45;&gt;Node5 -->
<g id="edge4_Node000003_Node000005" class="edge">
<title>Node3&#45;&gt;Node5</title>
<g id="a_edge4_Node000003_Node000005"><a xlink:title=" ">
<path fill="none" stroke="#63b8ff" d="M174.92,-165.58C174.67,-158.99 174.32,-149.71 174.01,-141.32"/>
<polygon fill="#63b8ff" stroke="#63b8ff" points="177.52,-141.48 173.64,-131.62 170.52,-141.75 177.52,-141.48"/>
</a>
</g>
</g>
<!-- Node3&#45;&gt;Node8 -->
<g id="edge11_Node000003_Node000008" class="edge">
<title>Node3&#45;&gt;Node8</title>
<g id="a_edge11_Node000003_Node000008"><a xlink:title=" ">
<path fill="none" stroke="#63b8ff" d="M183.75,-165.32C191.05,-156.86 201.06,-143.5 205.25,-129.75 215.48,-96.21 212.16,-54.85 208.75,-30.74"/>
<polygon fill="#63b8ff" stroke="#63b8ff" points="212.24,-30.38 207.22,-21.05 205.32,-31.47 212.24,-30.38"/>
</a>
</g>
</g>
<!-- Node5&#45;&gt;Node4 -->
<g id="edge8_Node000005_Node000004" class="edge">
<title>Node5&#45;&gt;Node4</title>
<g id="a_edge8_Node000005_Node000004"><a xlink:title=" ">
<path fill="none" stroke="#63b8ff" d="M191.06,-110.09C207.28,-101.87 231.49,-89.59 250.28,-80.06"/>
<polygon fill="#63b8ff" stroke="#63b8ff" points="251.67,-83.28 259,-75.64 248.5,-77.04 251.67,-83.28"/>
</a>
</g>
</g>
<!-- Node6 -->
<g id="Node000006" class="node">
<title>Node6</title>
<g id="a_Node000006"><a xlink:href="array_8h.html" target="_top" xlink:title=" ">
<polygon fill="white" stroke="#666666" points="44.5,-74.5 0,-74.5 0,-55.25 44.5,-55.25 44.5,-74.5"/>
<text xml:space="preserve" text-anchor="middle" x="22.25" y="-61" font-family="Helvetica,sans-Serif" font-size="10.00">array.h</text>
</a>
</g>
</g>
<!-- Node5&#45;&gt;Node6 -->
<g id="edge5_Node000005_Node000006" class="edge">
<title>Node5&#45;&gt;Node6</title>
<g id="a_edge5_Node000005_Node000006"><a xlink:title=" ">
<path fill="none" stroke="#63b8ff" d="M149.99,-110.92C124.72,-102.01 84.14,-87.7 55.5,-77.6"/>
<polygon fill="#63b8ff" stroke="#63b8ff" points="56.82,-74.36 46.23,-74.33 54.49,-80.96 56.82,-74.36"/>
</a>
</g>
</g>
<!-- Node7 -->
<g id="Node000007" class="node">
<title>Node7</title>
<g id="a_Node000007"><a xlink:title=" ">
<polygon fill="#e0e0e0" stroke="#999999" points="94.12,-19.25 38.38,-19.25 38.38,0 94.12,0 94.12,-19.25"/>
<text xml:space="preserve" text-anchor="middle" x="66.25" y="-5.75" font-family="Helvetica,sans-Serif" font-size="10.00">stdbool.h</text>
</a>
</g>
</g>
<!-- Node5&#45;&gt;Node7 -->
<g id="edge9_Node000005_Node000007" class="edge">
<title>Node5&#45;&gt;Node7</title>
<g id="a_edge9_Node000005_Node000007"><a xlink:title=" ">
<path fill="none" stroke="#63b8ff" d="M164.49,-110.25C146.7,-92.21 106.06,-51 83.02,-27.63"/>
<polygon fill="#63b8ff" stroke="#63b8ff" points="85.7,-25.37 76.19,-20.7 80.72,-30.28 85.7,-25.37"/>
</a>
</g>
</g>
<!-- Node5&#45;&gt;Node8 -->
<g id="edge10_Node000005_Node000008" class="edge">
<title>Node5&#45;&gt;Node8</title>
<g id="a_edge10_Node000005_Node000008"><a xlink:title=" ">
<path fill="none" stroke="#63b8ff" d="M175.87,-110.25C180.98,-92.92 192.39,-54.23 199.39,-30.49"/>
<polygon fill="#63b8ff" stroke="#63b8ff" points="202.7,-31.66 202.17,-21.08 195.98,-29.68 202.7,-31.66"/>
</a>
</g>
</g>
<!-- Node6&#45;&gt;Node7 -->
<g id="edge6_Node000006_Node000007" class="edge">
<title>Node6&#45;&gt;Node7</title>
<g id="a_edge6_Node000006_Node000007"><a xlink:title=" ">
<path fill="none" stroke="#63b8ff" d="M29.52,-55.08C35.53,-47.8 44.26,-37.23 51.71,-28.23"/>
<polygon fill="#63b8ff" stroke="#63b8ff" points="54.19,-30.71 57.86,-20.78 48.79,-26.26 54.19,-30.71"/>
</a>
</g>
</g>
<!-- Node6&#45;&gt;Node8 -->
<g id="edge7_Node000006_Node000008" class="edge">
<title>Node6&#45;&gt;Node8</title>
<g id="a_edge7_Node000006_Node000008"><a xlink:title=" ">
<path fill="none" stroke="#63b8ff" d="M44.69,-57.35C76.43,-48.11 134.69,-31.16 171.62,-20.41"/>
<polygon fill="#63b8ff" stroke="#63b8ff" points="172.26,-23.87 180.89,-17.71 170.31,-17.15 172.26,-23.87"/>
</a>
</g>
</g>
<!-- Node9&#45;&gt;Node3 -->
<g id="edge15_Node000009_Node000003" class="edge">
<title>Node9&#45;&gt;Node3</title>
<g id="a_edge15_Node000009_Node000003"><a xlink:title=" ">
<path fill="none" stroke="#63b8ff" d="M347.99,-223.53C345.06,-222.67 342.08,-221.81 339.25,-221 295.59,-208.57 245.17,-194.96 211.89,-186.08"/>
<polygon fill="#63b8ff" stroke="#63b8ff" points="212.89,-182.73 202.33,-183.54 211.09,-189.49 212.89,-182.73"/>
</a>
</g>
</g>
<!-- Node9&#45;&gt;Node4 -->
<g id="edge14_Node000009_Node000004" class="edge">
<title>Node9&#45;&gt;Node4</title>
<g id="a_edge14_Node000009_Node000004"><a xlink:title=" ">
<path fill="none" stroke="#63b8ff" d="M366.55,-220.6C363.93,-207.91 358.27,-184.26 349.25,-165.75 334.09,-134.65 309.53,-102.75 293.64,-83.62"/>
<polygon fill="#63b8ff" stroke="#63b8ff" points="296.33,-81.38 287.19,-76.01 290.99,-85.9 296.33,-81.38"/>
</a>
</g>
</g>
<!-- Node9&#45;&gt;Node5 -->
<g id="edge16_Node000009_Node000005" class="edge">
<title>Node9&#45;&gt;Node5</title>
<g id="a_edge16_Node000009_Node000005"><a xlink:title=" ">
<path fill="none" stroke="#63b8ff" d="M351.01,-220.52C334.18,-211.59 307.86,-197.52 285.25,-185 255.33,-168.43 221.23,-148.88 198.59,-135.82"/>
<polygon fill="#63b8ff" stroke="#63b8ff" points="200.48,-132.87 190.07,-130.89 196.98,-138.93 200.48,-132.87"/>
</a>
</g>
</g>
<!-- Node9&#45;&gt;Node8 -->
<g id="edge19_Node000009_Node000008" class="edge">
<title>Node9&#45;&gt;Node8</title>
<g id="a_edge19_Node000009_Node000008"><a xlink:title=" ">
<path fill="none" stroke="#63b8ff" d="M369.15,-220.9C371.56,-192.59 375.04,-102.45 328.25,-55.25 304.46,-31.25 266.79,-20.08 239.4,-14.92"/>
<polygon fill="#63b8ff" stroke="#63b8ff" points="240.3,-11.53 229.85,-13.32 239.13,-18.43 240.3,-11.53"/>
</a>
</g>
</g>
<!-- Node10 -->
<g id="Node000010" class="node">
<title>Node10</title>
<g id="a_Node000010"><a xlink:title=" ">
<polygon fill="#e0e0e0" stroke="#999999" points="340.25,-185 294.25,-185 294.25,-165.75 340.25,-165.75 340.25,-185"/>
<text xml:space="preserve" text-anchor="middle" x="317.25" y="-171.5" font-family="Helvetica,sans-Serif" font-size="10.00">math.h</text>
</a>
</g>
</g>
<!-- Node9&#45;&gt;Node10 -->
<g id="edge17_Node000009_Node000010" class="edge">
<title>Node9&#45;&gt;Node10</title>
<g id="a_edge17_Node000009_Node000010"><a xlink:title=" ">
<path fill="none" stroke="#63b8ff" d="M359.83,-220.83C352.71,-213.4 342.31,-202.54 333.56,-193.41"/>
<polygon fill="#63b8ff" stroke="#63b8ff" points="336.35,-191.25 326.9,-186.45 331.29,-196.1 336.35,-191.25"/>
</a>
</g>
</g>
<!-- Node11 -->
<g id="Node000011" class="node">
<title>Node11</title>
<g id="a_Node000011"><a xlink:title=" ">
<polygon fill="#e0e0e0" stroke="#999999" points="482.38,-185 434.12,-185 434.12,-165.75 482.38,-165.75 482.38,-185"/>
<text xml:space="preserve" text-anchor="middle" x="458.25" y="-171.5" font-family="Helvetica,sans-Serif" font-size="10.00">stdint.h</text>
</a>
</g>
</g>
<!-- Node9&#45;&gt;Node11 -->
<g id="edge18_Node000009_Node000011" class="edge">
<title>Node9&#45;&gt;Node11</title>
<g id="a_edge18_Node000009_Node000011"><a xlink:title=" ">
<path fill="none" stroke="#63b8ff" d="M383.52,-220.59C397.09,-212.56 417.2,-200.66 433.15,-191.23"/>
<polygon fill="#63b8ff" stroke="#63b8ff" points="434.78,-194.33 441.61,-186.22 431.22,-188.3 434.78,-194.33"/>
</a>
</g>
</g>
<!-- Node12&#45;&gt;Node3 -->
<g id="edge26_Node000012_Node000003" class="edge">
<title>Node12&#45;&gt;Node3</title>
<g id="a_edge26_Node000012_Node000003"><a xlink:title=" ">
<path fill="none" stroke="#63b8ff" d="M131,-220.83C138.4,-213.4 149.21,-202.54 158.3,-193.41"/>
<polygon fill="#63b8ff" stroke="#63b8ff" points="160.67,-195.99 165.24,-186.43 155.71,-191.05 160.67,-195.99"/>
</a>
</g>
</g>
<!-- Node12&#45;&gt;Node6 -->
<g id="edge21_Node000012_Node000006" class="edge">
<title>Node12&#45;&gt;Node6</title>
<g id="a_edge21_Node000012_Node000006"><a xlink:title=" ">
<path fill="none" stroke="#63b8ff" d="M82.49,-220.66C63.12,-214.13 41.42,-203.14 29.25,-185 9.3,-155.27 13.09,-111.4 17.67,-86.02"/>
<polygon fill="#63b8ff" stroke="#63b8ff" points="21.06,-86.88 19.64,-76.38 14.2,-85.48 21.06,-86.88"/>
</a>
</g>
</g>
<!-- Node12&#45;&gt;Node8 -->
<g id="edge27_Node000012_Node000008" class="edge">
<title>Node12&#45;&gt;Node8</title>
<g id="a_edge27_Node000012_Node000008"><a xlink:title=" ">
<path fill="none" stroke="#63b8ff" d="M122.44,-220.64C123.13,-200.33 126.34,-149.64 141.25,-110.5 153.18,-79.2 175.78,-47.36 190.68,-28.29"/>
<polygon fill="#63b8ff" stroke="#63b8ff" points="193.21,-30.74 196.73,-20.74 187.75,-26.36 193.21,-30.74"/>
</a>
</g>
</g>
<!-- Node13 -->
<g id="Node000013" class="node">
<title>Node13</title>
<g id="a_Node000013"><a xlink:href="listview_8h.html" target="_top" xlink:title=" ">
<polygon fill="white" stroke="#666666" points="94.12,-185 38.38,-185 38.38,-165.75 94.12,-165.75 94.12,-185"/>
<text xml:space="preserve" text-anchor="middle" x="66.25" y="-171.5" font-family="Helvetica,sans-Serif" font-size="10.00">listview.h</text>
</a>
</g>
</g>
<!-- Node12&#45;&gt;Node13 -->
<g id="edge22_Node000012_Node000013" class="edge">
<title>Node12&#45;&gt;Node13</title>
<g id="a_edge22_Node000012_Node000013"><a xlink:title=" ">
<path fill="none" stroke="#63b8ff" d="M112.75,-220.59C104.82,-213.05 93.3,-202.1 83.71,-192.98"/>
<polygon fill="#63b8ff" stroke="#63b8ff" points="86.36,-190.67 76.71,-186.32 81.54,-195.74 86.36,-190.67"/>
</a>
</g>
</g>
<!-- Node13&#45;&gt;Node5 -->
<g id="edge24_Node000013_Node000005" class="edge">
<title>Node13&#45;&gt;Node5</title>
<g id="a_edge24_Node000013_Node000005"><a xlink:title=" ">
<path fill="none" stroke="#63b8ff" d="M84.4,-165.34C100.93,-157.12 125.59,-144.84 144.75,-135.31"/>
<polygon fill="#63b8ff" stroke="#63b8ff" points="146.26,-138.47 153.65,-130.88 143.14,-132.2 146.26,-138.47"/>
</a>
</g>
</g>
<!-- Node13&#45;&gt;Node6 -->
<g id="edge23_Node000013_Node000006" class="edge">
<title>Node13&#45;&gt;Node6</title>
<g id="a_edge23_Node000013_Node000006"><a xlink:title=" ">
<path fill="none" stroke="#63b8ff" d="M62.65,-165.5C55.59,-148.09 39.79,-109.12 30.17,-85.41"/>
<polygon fill="#63b8ff" stroke="#63b8ff" points="33.47,-84.23 26.47,-76.28 26.98,-86.86 33.47,-84.23"/>
</a>
</g>
</g>
<!-- Node13&#45;&gt;Node8 -->
<g id="edge25_Node000013_Node000008" class="edge">
<title>Node13&#45;&gt;Node8</title>
<g id="a_edge25_Node000013_Node000008"><a xlink:title=" ">
<path fill="none" stroke="#63b8ff" d="M69.61,-165.35C77.87,-144.07 100.96,-89.98 134.25,-55.25 146.05,-42.94 161.92,-32.55 175.66,-24.9"/>
<polygon fill="#63b8ff" stroke="#63b8ff" points="177.12,-28.09 184.31,-20.31 173.84,-21.91 177.12,-28.09"/>
</a>
</g>
</g>
<!-- Node14&#45;&gt;Node11 -->
<g id="edge29_Node000014_Node000011" class="edge">
<title>Node14&#45;&gt;Node11</title>
<g id="a_edge29_Node000014_Node000011"><a xlink:title=" ">
<path fill="none" stroke="#63b8ff" d="M436.54,-220.83C439.87,-214.01 444.61,-204.31 448.81,-195.7"/>
<polygon fill="#63b8ff" stroke="#63b8ff" points="451.96,-197.24 453.2,-186.72 445.67,-194.17 451.96,-197.24"/>
</a>
</g>
</g>
<!-- Node15&#45;&gt;Node8 -->
<g id="edge31_Node000015_Node000008" class="edge">
<title>Node15&#45;&gt;Node8</title>
<g id="a_edge31_Node000015_Node000008"><a xlink:title=" ">
<path fill="none" stroke="#63b8ff" d="M509.33,-220.63C507.62,-207.54 503,-182.95 491.25,-165.75 446.14,-99.72 420.15,-92.24 349.25,-55.25 313.81,-36.76 269.4,-24.45 239.34,-17.53"/>
<polygon fill="#63b8ff" stroke="#63b8ff" points="240.18,-14.13 229.66,-15.38 238.67,-20.96 240.18,-14.13"/>
</a>
</g>
</g>
<!-- Node16 -->
<g id="Node000016" class="node">
<title>Node16</title>
<g id="a_Node000016"><a xlink:title=" ">
<polygon fill="#e0e0e0" stroke="#999999" points="586,-185 538.5,-185 538.5,-165.75 586,-165.75 586,-185"/>
<text xml:space="preserve" text-anchor="middle" x="562.25" y="-171.5" font-family="Helvetica,sans-Serif" font-size="10.00">stdlib.h</text>
</a>
</g>
</g>
<!-- Node15&#45;&gt;Node16 -->
<g id="edge32_Node000015_Node000016" class="edge">
<title>Node15&#45;&gt;Node16</title>
<g id="a_edge32_Node000015_Node000016"><a xlink:title=" ">
<path fill="none" stroke="#63b8ff" d="M518.84,-220.83C526.09,-213.4 536.7,-202.54 545.62,-193.41"/>
<polygon fill="#63b8ff" stroke="#63b8ff" points="547.94,-196.04 552.42,-186.44 542.93,-191.15 547.94,-196.04"/>
</a>
</g>
</g>
</g>
</svg>

<g id="navigator" transform="translate(0 0)" fill="#404254">
  <rect fill="#f2f5e9" fill-opacity="0.5" stroke="#606060" stroke-width=".5" x="0" y="0" width="60" height="60"/>
  <use id="zoomplus" xlink:href="#zoomPlus" x="17" y="9" onmousedown="handleZoom(evt,'in')"/>
  <use id="zoomminus" xlink:href="#zoomMin" x="42" y="9" onmousedown="handleZoom(evt,'out')"/>
  <use id="reset" xlink:href="#resetDef" x="30" y="36" onmousedown="handleReset()"/>
   <use id="arrowup" xlink:href="#arrowUp" x="0" y="0" onmousedown="handlePan(0,-1)"/>
  <use id="arrowright" xlink:href="#arrowRight" x="0" y="0" onmousedown="handlePan(1,0)"/>
  <use id="arrowdown" xlink:href="#arrowDown" x="0" y="0" onmousedown="handlePan(0,1)"/>
  <use id="arrowleft" xlink:href="#arrowLeft" x="0" y="0" onmousedown="handlePan(-1,0)"/>
</g>
<svg viewBox="0 0 15 15" width="100%" height="30px" preserveAspectRatio="xMaxYMin meet">
 <g id="arrow_out" transform="scale(0.3 0.3)">
  <a xlink:href="image__conversion__scene_8c__incl_org.svg" target="_base">
   <rect id="button" ry="5" rx="5" y="6" x="6" height="38" width="38"
        fill="#f2f5e9" fill-opacity="0.5" stroke="#606060" stroke-width="1.0"/>
   <path id="arrow"
     d="M 11.500037,31.436501 C 11.940474,20.09759 22.043105,11.32322 32.158766,21.979434 L 37.068811,17.246167 C 37.068811,17.246167 37.088388,32 37.088388,32 L 22.160133,31.978069 C 22.160133,31.978069 26.997745,27.140456 26.997745,27.140456 C 18.528582,18.264221 13.291696,25.230495 11.500037,31.436501 z"
     style="fill:#404040;"/>
  </a>
 </g>
</svg>

<style type='text/css'>
<![CDATA[
[data-mouse-over-selected='false'] { opacity: 0.7; }
[data-mouse-over-selected='true']  { opacity: 1.0; }
]]>
</style>
<script type="application/ecmascript"><![CDATA[
document.addEventListener('DOMContentLoaded', (event) => {
  highlightEdges();
  highlightAdjacentNodes();
});
]]></script>
</svg>
