<?xml version="1.0" encoding="UTF-8" standalone="no"?>
<!DOCTYPE svg PUBLIC "-//W3C//DTD SVG 1.1//EN"
 "http://www.w3.org/Graphics/SVG/1.1/DTD/svg11.dtd">
<!-- Generated by graphviz version 13.1.0 (20250701.0955)
 -->
<!-- Title: PGB_ImageConversionScene_update Pages: 1 -->
<svg width="556pt" height="39pt"
 viewBox="0.00 0.00 556.00 39.00" xmlns="http://www.w3.org/2000/svg" xmlns:xlink="http://www.w3.org/1999/xlink">
<g id="graph0" class="graph" transform="scale(1 1) rotate(0) translate(4 34.5)">
<title>PGB_ImageConversionScene_update</title>
<!-- Node1 -->
<g id="Node000001" class="node">
<title>Node1</title>
<g id="a_Node000001"><a xlink:title=" ">
<polygon fill="#999999" stroke="#666666" points="547.75,-30.5 401.25,-30.5 401.25,0 547.75,0 547.75,-30.5"/>
<text xml:space="preserve" text-anchor="start" x="409.25" y="-17" font-family="Helvetica,sans-Serif" font-size="10.00">PGB_ImageConversionScene</text>
<text xml:space="preserve" text-anchor="middle" x="474.5" y="-5.75" font-family="Helvetica,sans-Serif" font-size="10.00">_update</text>
</a>
</g>
</g>
<!-- Node2 -->
<g id="Node000002" class="node">
<title>Node2</title>
<g id="a_Node000002"><a xlink:href="image__conversion__scene_8c.html#aa3559936491ddf78b9cf06fcbdd32d22" target="_top" xlink:title=" ">
<polygon fill="white" stroke="#666666" points="365.25,-24.88 195.5,-24.88 195.5,-5.63 365.25,-5.63 365.25,-24.88"/>
<text xml:space="preserve" text-anchor="middle" x="280.38" y="-11.38" font-family="Helvetica,sans-Serif" font-size="10.00">PGB_ImageConversionScene_new</text>
</a>
</g>
</g>
<!-- Node1&#45;&gt;Node2 -->
<g id="edge1_Node000001_Node000002" class="edge">
<title>Node1&#45;&gt;Node2</title>
<g id="a_edge1_Node000001_Node000002"><a xlink:title=" ">
<path fill="none" stroke="#63b8ff" d="M389.44,-15.25C381.57,-15.25 373.59,-15.25 365.72,-15.25"/>
<polygon fill="#63b8ff" stroke="#63b8ff" points="389.35,-18.75 399.35,-15.25 389.35,-11.75 389.35,-18.75"/>
</a>
</g>
</g>
<!-- Node3 -->
<g id="Node000003" class="node">
<title>Node3</title>
<g id="a_Node000003"><a xlink:href="app_8c.html#af256ea7a9c51fcbd49cb0007facbb8ea" target="_top" xlink:title=" ">
<polygon fill="white" stroke="#666666" points="159.5,-24.88 104.5,-24.88 104.5,-5.63 159.5,-5.63 159.5,-24.88"/>
<text xml:space="preserve" text-anchor="middle" x="132" y="-11.38" font-family="Helvetica,sans-Serif" font-size="10.00">PGB_init</text>
</a>
</g>
</g>
<!-- Node2&#45;&gt;Node3 -->
<g id="edge2_Node000002_Node000003" class="edge">
<title>Node2&#45;&gt;Node3</title>
<g id="a_edge2_Node000002_Node000003"><a xlink:title=" ">
<path fill="none" stroke="#63b8ff" d="M183.63,-15.25C175.09,-15.25 167,-15.25 159.9,-15.25"/>
<polygon fill="#63b8ff" stroke="#63b8ff" points="183.56,-18.75 193.56,-15.25 183.56,-11.75 183.56,-18.75"/>
</a>
</g>
</g>
<!-- Node4 -->
<g id="Node000004" class="node">
<title>Node4</title>
<g id="a_Node000004"><a xlink:href="main_8c.html#a77034286b8c64d0735c69535c5e9b732" target="_top" xlink:title=" ">
<polygon fill="white" stroke="#666666" points="68.5,-24.88 0,-24.88 0,-5.63 68.5,-5.63 68.5,-24.88"/>
<text xml:space="preserve" text-anchor="middle" x="34.25" y="-11.38" font-family="Helvetica,sans-Serif" font-size="10.00">__section__</text>
</a>
</g>
</g>
<!-- Node3&#45;&gt;Node4 -->
<g id="edge3_Node000003_Node000004" class="edge">
<title>Node3&#45;&gt;Node4</title>
<g id="a_edge3_Node000003_Node000004"><a xlink:title=" ">
<path fill="none" stroke="#63b8ff" d="M92.81,-15.25C84.87,-15.25 76.56,-15.25 68.8,-15.25"/>
<polygon fill="#63b8ff" stroke="#63b8ff" points="92.56,-18.75 102.56,-15.25 92.56,-11.75 92.56,-18.75"/>
</a>
</g>
</g>
</g>
</svg>
