<?xml version="1.0" encoding="UTF-8" standalone="no"?>
<!DOCTYPE svg PUBLIC "-//W3C//DTD SVG 1.1//EN"
 "http://www.w3.org/Graphics/SVG/1.1/DTD/svg11.dtd">
<!-- Generated by graphviz version 13.1.0 (20250701.0955)
 -->
<!-- Title: PGB_ImageConversionScene_free Pages: 1 -->
<svg width="578pt" height="27pt"
 viewBox="0.00 0.00 578.00 27.00" xmlns="http://www.w3.org/2000/svg" xmlns:xlink="http://www.w3.org/1999/xlink">
<g id="graph0" class="graph" transform="scale(1 1) rotate(0) translate(4 23.25)">
<title>PGB_ImageConversionScene_free</title>
<!-- Node1 -->
<g id="Node000001" class="node">
<title>Node1</title>
<g id="a_Node000001"><a xlink:title=" ">
<polygon fill="#999999" stroke="#666666" points="569.5,-19.25 401.25,-19.25 401.25,0 569.5,0 569.5,-19.25"/>
<text xml:space="preserve" text-anchor="middle" x="485.38" y="-5.75" font-family="Helvetica,sans-Serif" font-size="10.00">PGB_ImageConversionScene_free</text>
</a>
</g>
</g>
<!-- Node2 -->
<g id="Node000002" class="node">
<title>Node2</title>
<g id="a_Node000002"><a xlink:href="image__conversion__scene_8c.html#aa3559936491ddf78b9cf06fcbdd32d22" target="_top" xlink:title=" ">
<polygon fill="white" stroke="#666666" points="365.25,-19.25 195.5,-19.25 195.5,0 365.25,0 365.25,-19.25"/>
<text xml:space="preserve" text-anchor="middle" x="280.38" y="-5.75" font-family="Helvetica,sans-Serif" font-size="10.00">PGB_ImageConversionScene_new</text>
</a>
</g>
</g>
<!-- Node1&#45;&gt;Node2 -->
<g id="edge1_Node000001_Node000002" class="edge">
<title>Node1&#45;&gt;Node2</title>
<g id="a_edge1_Node000001_Node000002"><a xlink:title=" ">
<path fill="none" stroke="#63b8ff" d="M389.6,-9.62C381.55,-9.62 373.44,-9.62 365.48,-9.62"/>
<polygon fill="#63b8ff" stroke="#63b8ff" points="389.41,-13.13 399.41,-9.63 389.41,-6.13 389.41,-13.13"/>
</a>
</g>
</g>
<!-- Node3 -->
<g id="Node000003" class="node">
<title>Node3</title>
<g id="a_Node000003"><a xlink:href="app_8c.html#af256ea7a9c51fcbd49cb0007facbb8ea" target="_top" xlink:title=" ">
<polygon fill="white" stroke="#666666" points="159.5,-19.25 104.5,-19.25 104.5,0 159.5,0 159.5,-19.25"/>
<text xml:space="preserve" text-anchor="middle" x="132" y="-5.75" font-family="Helvetica,sans-Serif" font-size="10.00">PGB_init</text>
</a>
</g>
</g>
<!-- Node2&#45;&gt;Node3 -->
<g id="edge2_Node000002_Node000003" class="edge">
<title>Node2&#45;&gt;Node3</title>
<g id="a_edge2_Node000002_Node000003"><a xlink:title=" ">
<path fill="none" stroke="#63b8ff" d="M183.63,-9.62C175.09,-9.62 167,-9.62 159.9,-9.62"/>
<polygon fill="#63b8ff" stroke="#63b8ff" points="183.56,-13.13 193.56,-9.63 183.56,-6.13 183.56,-13.13"/>
</a>
</g>
</g>
<!-- Node4 -->
<g id="Node000004" class="node">
<title>Node4</title>
<g id="a_Node000004"><a xlink:href="main_8c.html#a77034286b8c64d0735c69535c5e9b732" target="_top" xlink:title=" ">
<polygon fill="white" stroke="#666666" points="68.5,-19.25 0,-19.25 0,0 68.5,0 68.5,-19.25"/>
<text xml:space="preserve" text-anchor="middle" x="34.25" y="-5.75" font-family="Helvetica,sans-Serif" font-size="10.00">__section__</text>
</a>
</g>
</g>
<!-- Node3&#45;&gt;Node4 -->
<g id="edge3_Node000003_Node000004" class="edge">
<title>Node3&#45;&gt;Node4</title>
<g id="a_edge3_Node000003_Node000004"><a xlink:title=" ">
<path fill="none" stroke="#63b8ff" d="M92.81,-9.62C84.87,-9.62 76.56,-9.62 68.8,-9.62"/>
<polygon fill="#63b8ff" stroke="#63b8ff" points="92.56,-13.13 102.56,-9.63 92.56,-6.13 92.56,-13.13"/>
</a>
</g>
</g>
</g>
</svg>
