<?xml version="1.0" encoding="UTF-8" standalone="no"?>
<!DOCTYPE svg PUBLIC "-//W3C//DTD SVG 1.1//EN"
 "http://www.w3.org/Graphics/SVG/1.1/DTD/svg11.dtd">
<!-- Generated by graphviz version 13.1.0 (20250701.0955)
 -->
<!-- Title: src/jparse.c Pages: 1 -->
<svg width="275pt" height="193pt"
 viewBox="0.00 0.00 275.00 193.00" xmlns="http://www.w3.org/2000/svg" xmlns:xlink="http://www.w3.org/1999/xlink">
<g id="graph0" class="graph" transform="scale(1 1) rotate(0) translate(4 189)">
<title>src/jparse.c</title>
<!-- Node1 -->
<g id="Node000001" class="node">
<title>Node1</title>
<g id="a_Node000001"><a xlink:title=" ">
<polygon fill="#999999" stroke="#666666" points="127.62,-185 60.62,-185 60.62,-165.75 127.62,-165.75 127.62,-185"/>
<text xml:space="preserve" text-anchor="middle" x="94.12" y="-171.5" font-family="Helvetica,sans-Serif" font-size="10.00">src/jparse.c</text>
</a>
</g>
</g>
<!-- Node2 -->
<g id="Node000002" class="node">
<title>Node2</title>
<g id="a_Node000002"><a xlink:href="jparse_8h.html" target="_top" xlink:title=" ">
<polygon fill="white" stroke="#666666" points="66.38,-129.75 15.88,-129.75 15.88,-110.5 66.38,-110.5 66.38,-129.75"/>
<text xml:space="preserve" text-anchor="middle" x="41.12" y="-116.25" font-family="Helvetica,sans-Serif" font-size="10.00">jparse.h</text>
</a>
</g>
</g>
<!-- Node1&#45;&gt;Node2 -->
<g id="edge1_Node000001_Node000002" class="edge">
<title>Node1&#45;&gt;Node2</title>
<g id="a_edge1_Node000001_Node000002"><a xlink:title=" ">
<path fill="none" stroke="#63b8ff" d="M85.37,-165.58C77.98,-158.15 67.16,-147.29 58.08,-138.16"/>
<polygon fill="#63b8ff" stroke="#63b8ff" points="60.67,-135.8 51.13,-131.18 55.71,-140.74 60.67,-135.8"/>
</a>
</g>
</g>
<!-- Node3 -->
<g id="Node000003" class="node">
<title>Node3</title>
<g id="a_Node000003"><a xlink:title=" ">
<polygon fill="#e0e0e0" stroke="#999999" points="119.5,-74.5 66.75,-74.5 66.75,-55.25 119.5,-55.25 119.5,-74.5"/>
<text xml:space="preserve" text-anchor="middle" x="93.12" y="-61" font-family="Helvetica,sans-Serif" font-size="10.00">pd_api.h</text>
</a>
</g>
</g>
<!-- Node1&#45;&gt;Node3 -->
<g id="edge4_Node000001_Node000003" class="edge">
<title>Node1&#45;&gt;Node3</title>
<g id="a_edge4_Node000001_Node000003"><a xlink:title=" ">
<path fill="none" stroke="#63b8ff" d="M94.04,-165.5C93.88,-148.25 93.53,-109.83 93.31,-86.06"/>
<polygon fill="#63b8ff" stroke="#63b8ff" points="96.81,-86.36 93.22,-76.39 89.81,-86.42 96.81,-86.36"/>
</a>
</g>
</g>
<!-- Node5 -->
<g id="Node000005" class="node">
<title>Node5</title>
<g id="a_Node000005"><a xlink:href="utility_8h.html" target="_top" xlink:title=" ">
<polygon fill="white" stroke="#666666" points="170.12,-129.75 124.12,-129.75 124.12,-110.5 170.12,-110.5 170.12,-129.75"/>
<text xml:space="preserve" text-anchor="middle" x="147.12" y="-116.25" font-family="Helvetica,sans-Serif" font-size="10.00">utility.h</text>
</a>
</g>
</g>
<!-- Node1&#45;&gt;Node5 -->
<g id="edge5_Node000001_Node000005" class="edge">
<title>Node1&#45;&gt;Node5</title>
<g id="a_edge5_Node000001_Node000005"><a xlink:title=" ">
<path fill="none" stroke="#63b8ff" d="M102.88,-165.58C110.27,-158.15 121.09,-147.29 130.17,-138.16"/>
<polygon fill="#63b8ff" stroke="#63b8ff" points="132.54,-140.74 137.12,-131.18 127.58,-135.8 132.54,-140.74"/>
</a>
</g>
</g>
<!-- Node2&#45;&gt;Node3 -->
<g id="edge2_Node000002_Node000003" class="edge">
<title>Node2&#45;&gt;Node3</title>
<g id="a_edge2_Node000002_Node000003"><a xlink:title=" ">
<path fill="none" stroke="#63b8ff" d="M49.71,-110.33C56.97,-102.9 67.58,-92.04 76.49,-82.91"/>
<polygon fill="#63b8ff" stroke="#63b8ff" points="78.81,-85.54 83.29,-75.94 73.8,-80.65 78.81,-85.54"/>
</a>
</g>
</g>
<!-- Node4 -->
<g id="Node000004" class="node">
<title>Node4</title>
<g id="a_Node000004"><a xlink:title=" ">
<polygon fill="#e0e0e0" stroke="#999999" points="48.25,-74.5 0,-74.5 0,-55.25 48.25,-55.25 48.25,-74.5"/>
<text xml:space="preserve" text-anchor="middle" x="24.12" y="-61" font-family="Helvetica,sans-Serif" font-size="10.00">stdint.h</text>
</a>
</g>
</g>
<!-- Node2&#45;&gt;Node4 -->
<g id="edge3_Node000002_Node000004" class="edge">
<title>Node2&#45;&gt;Node4</title>
<g id="a_edge3_Node000002_Node000004"><a xlink:title=" ">
<path fill="none" stroke="#63b8ff" d="M38.32,-110.33C36.19,-103.67 33.18,-94.24 30.48,-85.78"/>
<polygon fill="#63b8ff" stroke="#63b8ff" points="33.83,-84.76 27.45,-76.3 27.16,-86.89 33.83,-84.76"/>
</a>
</g>
</g>
<!-- Node5&#45;&gt;Node3 -->
<g id="edge9_Node000005_Node000003" class="edge">
<title>Node5&#45;&gt;Node3</title>
<g id="a_edge9_Node000005_Node000003"><a xlink:title=" ">
<path fill="none" stroke="#63b8ff" d="M138.21,-110.33C130.67,-102.9 119.66,-92.04 110.4,-82.91"/>
<polygon fill="#63b8ff" stroke="#63b8ff" points="112.89,-80.45 103.31,-75.92 107.98,-85.44 112.89,-80.45"/>
</a>
</g>
</g>
<!-- Node6 -->
<g id="Node000006" class="node">
<title>Node6</title>
<g id="a_Node000006"><a xlink:href="array_8h.html" target="_top" xlink:title=" ">
<polygon fill="white" stroke="#666666" points="219.38,-74.5 174.88,-74.5 174.88,-55.25 219.38,-55.25 219.38,-74.5"/>
<text xml:space="preserve" text-anchor="middle" x="197.12" y="-61" font-family="Helvetica,sans-Serif" font-size="10.00">array.h</text>
</a>
</g>
</g>
<!-- Node5&#45;&gt;Node6 -->
<g id="edge6_Node000005_Node000006" class="edge">
<title>Node5&#45;&gt;Node6</title>
<g id="a_edge6_Node000005_Node000006"><a xlink:title=" ">
<path fill="none" stroke="#63b8ff" d="M155.38,-110.33C162.29,-102.98 172.35,-92.26 180.86,-83.19"/>
<polygon fill="#63b8ff" stroke="#63b8ff" points="183.36,-85.65 187.65,-75.96 178.26,-80.86 183.36,-85.65"/>
</a>
</g>
</g>
<!-- Node7 -->
<g id="Node000007" class="node">
<title>Node7</title>
<g id="a_Node000007"><a xlink:title=" ">
<polygon fill="#e0e0e0" stroke="#999999" points="267,-19.25 211.25,-19.25 211.25,0 267,0 267,-19.25"/>
<text xml:space="preserve" text-anchor="middle" x="239.12" y="-5.75" font-family="Helvetica,sans-Serif" font-size="10.00">stdbool.h</text>
</a>
</g>
</g>
<!-- Node5&#45;&gt;Node7 -->
<g id="edge10_Node000005_Node000007" class="edge">
<title>Node5&#45;&gt;Node7</title>
<g id="a_edge10_Node000005_Node000007"><a xlink:title=" ">
<path fill="none" stroke="#63b8ff" d="M170.47,-112.47C189.08,-105.91 214.25,-93.99 228.12,-74.5 237.13,-61.86 239.62,-44.3 240.01,-30.79"/>
<polygon fill="#63b8ff" stroke="#63b8ff" points="243.51,-30.84 239.89,-20.88 236.51,-30.92 243.51,-30.84"/>
</a>
</g>
</g>
<!-- Node8 -->
<g id="Node000008" class="node">
<title>Node8</title>
<g id="a_Node000008"><a xlink:title=" ">
<polygon fill="#e0e0e0" stroke="#999999" points="184.75,-19.25 139.5,-19.25 139.5,0 184.75,0 184.75,-19.25"/>
<text xml:space="preserve" text-anchor="middle" x="162.12" y="-5.75" font-family="Helvetica,sans-Serif" font-size="10.00">stdio.h</text>
</a>
</g>
</g>
<!-- Node5&#45;&gt;Node8 -->
<g id="edge11_Node000005_Node000008" class="edge">
<title>Node5&#45;&gt;Node8</title>
<g id="a_edge11_Node000005_Node000008"><a xlink:title=" ">
<path fill="none" stroke="#63b8ff" d="M148.35,-110.25C150.74,-93 156.05,-54.58 159.33,-30.81"/>
<polygon fill="#63b8ff" stroke="#63b8ff" points="162.77,-31.51 160.67,-21.13 155.84,-30.55 162.77,-31.51"/>
</a>
</g>
</g>
<!-- Node6&#45;&gt;Node7 -->
<g id="edge7_Node000006_Node000007" class="edge">
<title>Node6&#45;&gt;Node7</title>
<g id="a_edge7_Node000006_Node000007"><a xlink:title=" ">
<path fill="none" stroke="#63b8ff" d="M204.06,-55.08C209.74,-47.88 217.96,-37.46 225.02,-28.51"/>
<polygon fill="#63b8ff" stroke="#63b8ff" points="227.66,-30.82 231.1,-20.8 222.16,-26.48 227.66,-30.82"/>
</a>
</g>
</g>
<!-- Node6&#45;&gt;Node8 -->
<g id="edge8_Node000006_Node000008" class="edge">
<title>Node6&#45;&gt;Node8</title>
<g id="a_edge8_Node000006_Node000008"><a xlink:title=" ">
<path fill="none" stroke="#63b8ff" d="M191.35,-55.08C186.71,-48.03 180.05,-37.9 174.26,-29.08"/>
<polygon fill="#63b8ff" stroke="#63b8ff" points="177.28,-27.31 168.86,-20.87 171.43,-31.15 177.28,-27.31"/>
</a>
</g>
</g>
</g>
</svg>
