<?xml version="1.0" encoding="UTF-8" standalone="no"?>
<!DOCTYPE svg PUBLIC "-//W3C//DTD SVG 1.1//EN"
 "http://www.w3.org/Graphics/SVG/1.1/DTD/svg11.dtd">
<!-- Generated by graphviz version 13.1.0 (20250701.0955)
 -->
<!-- Title: src/jparse.h Pages: 1 -->
<svg width="589pt" height="138pt"
 viewBox="0.00 0.00 589.00 138.00" xmlns="http://www.w3.org/2000/svg" xmlns:xlink="http://www.w3.org/1999/xlink">
<g id="graph0" class="graph" transform="scale(1 1) rotate(0) translate(4 133.75)">
<title>src/jparse.h</title>
<!-- Node1 -->
<g id="Node000001" class="node">
<title>Node1</title>
<g id="a_Node000001"><a xlink:title=" ">
<polygon fill="#999999" stroke="#666666" points="298.75,-129.75 231.75,-129.75 231.75,-110.5 298.75,-110.5 298.75,-129.75"/>
<text xml:space="preserve" text-anchor="middle" x="265.25" y="-116.25" font-family="Helvetica,sans-Serif" font-size="10.00">src/jparse.h</text>
</a>
</g>
</g>
<!-- Node2 -->
<g id="Node000002" class="node">
<title>Node2</title>
<g id="a_Node000002"><a xlink:href="app_8c.html" target="_top" xlink:title=" ">
<polygon fill="white" stroke="#666666" points="56.5,-74.5 0,-74.5 0,-55.25 56.5,-55.25 56.5,-74.5"/>
<text xml:space="preserve" text-anchor="middle" x="28.25" y="-61" font-family="Helvetica,sans-Serif" font-size="10.00">src/app.c</text>
</a>
</g>
</g>
<!-- Node1&#45;&gt;Node2 -->
<g id="edge1_Node000001_Node000002" class="edge">
<title>Node1&#45;&gt;Node2</title>
<g id="a_edge1_Node000001_Node000002"><a xlink:title=" ">
<path fill="none" stroke="#63b8ff" d="M220.29,-109.02C172.25,-98.23 97.56,-81.45 56.94,-72.32"/>
<polygon fill="#63b8ff" stroke="#63b8ff" points="219.29,-112.39 229.82,-111.16 220.83,-105.56 219.29,-112.39"/>
</a>
</g>
</g>
<!-- Node3 -->
<g id="Node000003" class="node">
<title>Node3</title>
<g id="a_Node000003"><a xlink:href="credits__scene_8c.html" target="_top" xlink:title=" ">
<polygon fill="white" stroke="#666666" points="135,-19.25 33.5,-19.25 33.5,0 135,0 135,-19.25"/>
<text xml:space="preserve" text-anchor="middle" x="84.25" y="-5.75" font-family="Helvetica,sans-Serif" font-size="10.00">src/credits_scene.c</text>
</a>
</g>
</g>
<!-- Node1&#45;&gt;Node3 -->
<g id="edge2_Node000001_Node000003" class="edge">
<title>Node1&#45;&gt;Node3</title>
<g id="a_edge2_Node000001_Node000003"><a xlink:title=" ">
<path fill="none" stroke="#63b8ff" d="M220.19,-118.19C184.01,-115.03 134.27,-104.9 103.25,-74.5 88.04,-59.6 84.88,-33.12 84.31,-19.41"/>
<polygon fill="#63b8ff" stroke="#63b8ff" points="219.69,-121.66 229.92,-118.88 220.19,-114.68 219.69,-121.66"/>
</a>
</g>
</g>
<!-- Node4 -->
<g id="Node000004" class="node">
<title>Node4</title>
<g id="a_Node000004"><a xlink:href="credits__scene_8h.html" target="_top" xlink:title=" ">
<polygon fill="white" stroke="#666666" points="214,-74.5 112.5,-74.5 112.5,-55.25 214,-55.25 214,-74.5"/>
<text xml:space="preserve" text-anchor="middle" x="163.25" y="-61" font-family="Helvetica,sans-Serif" font-size="10.00">src/credits_scene.h</text>
</a>
</g>
</g>
<!-- Node1&#45;&gt;Node4 -->
<g id="edge3_Node000001_Node000004" class="edge">
<title>Node1&#45;&gt;Node4</title>
<g id="a_edge3_Node000001_Node000004"><a xlink:title=" ">
<path fill="none" stroke="#63b8ff" d="M237.92,-104.86C219.72,-95.36 196.34,-83.15 180.64,-74.95"/>
<polygon fill="#63b8ff" stroke="#63b8ff" points="236.12,-107.87 246.61,-109.39 239.36,-101.66 236.12,-107.87"/>
</a>
</g>
</g>
<!-- Node6 -->
<g id="Node000006" class="node">
<title>Node6</title>
<g id="a_Node000006"><a xlink:href="jparse_8c.html" target="_top" xlink:title=" ">
<polygon fill="white" stroke="#666666" points="298.75,-74.5 231.75,-74.5 231.75,-55.25 298.75,-55.25 298.75,-74.5"/>
<text xml:space="preserve" text-anchor="middle" x="265.25" y="-61" font-family="Helvetica,sans-Serif" font-size="10.00">src/jparse.c</text>
</a>
</g>
</g>
<!-- Node1&#45;&gt;Node6 -->
<g id="edge6_Node000001_Node000006" class="edge">
<title>Node1&#45;&gt;Node6</title>
<g id="a_edge6_Node000001_Node000006"><a xlink:title=" ">
<path fill="none" stroke="#63b8ff" d="M265.25,-98.88C265.25,-90.59 265.25,-81.42 265.25,-74.86"/>
<polygon fill="#63b8ff" stroke="#63b8ff" points="261.75,-98.82 265.25,-108.82 268.75,-98.82 261.75,-98.82"/>
</a>
</g>
</g>
<!-- Node7 -->
<g id="Node000007" class="node">
<title>Node7</title>
<g id="a_Node000007"><a xlink:href="preferences_8c.html" target="_top" xlink:title=" ">
<polygon fill="white" stroke="#666666" points="408.12,-74.5 316.38,-74.5 316.38,-55.25 408.12,-55.25 408.12,-74.5"/>
<text xml:space="preserve" text-anchor="middle" x="362.25" y="-61" font-family="Helvetica,sans-Serif" font-size="10.00">src/preferences.c</text>
</a>
</g>
</g>
<!-- Node1&#45;&gt;Node7 -->
<g id="edge7_Node000001_Node000007" class="edge">
<title>Node1&#45;&gt;Node7</title>
<g id="a_edge7_Node000001_Node000007"><a xlink:title=" ">
<path fill="none" stroke="#63b8ff" d="M291.72,-104.59C308.96,-95.13 330.92,-83.08 345.71,-74.95"/>
<polygon fill="#63b8ff" stroke="#63b8ff" points="290.11,-101.48 283.03,-109.36 293.48,-107.62 290.11,-101.48"/>
</a>
</g>
</g>
<!-- Node8 -->
<g id="Node000008" class="node">
<title>Node8</title>
<g id="a_Node000008"><a xlink:href="script_8c.html" target="_top" xlink:title=" ">
<polygon fill="white" stroke="#666666" points="490.62,-74.5 425.88,-74.5 425.88,-55.25 490.62,-55.25 490.62,-74.5"/>
<text xml:space="preserve" text-anchor="middle" x="458.25" y="-61" font-family="Helvetica,sans-Serif" font-size="10.00">src/script.c</text>
</a>
</g>
</g>
<!-- Node1&#45;&gt;Node8 -->
<g id="edge8_Node000001_Node000008" class="edge">
<title>Node1&#45;&gt;Node8</title>
<g id="a_edge8_Node000001_Node000008"><a xlink:title=" ">
<path fill="none" stroke="#63b8ff" d="M308.98,-107.06C344.43,-97.28 393.61,-83.71 425.67,-74.86"/>
<polygon fill="#63b8ff" stroke="#63b8ff" points="308.16,-103.66 299.45,-109.69 310.02,-110.4 308.16,-103.66"/>
</a>
</g>
</g>
<!-- Node9 -->
<g id="Node000009" class="node">
<title>Node9</title>
<g id="a_Node000009"><a xlink:href="version_8c.html" target="_top" xlink:title=" ">
<polygon fill="white" stroke="#666666" points="581.38,-74.5 509.12,-74.5 509.12,-55.25 581.38,-55.25 581.38,-74.5"/>
<text xml:space="preserve" text-anchor="middle" x="545.25" y="-61" font-family="Helvetica,sans-Serif" font-size="10.00">src/version.c</text>
</a>
</g>
</g>
<!-- Node1&#45;&gt;Node9 -->
<g id="edge9_Node000001_Node000009" class="edge">
<title>Node1&#45;&gt;Node9</title>
<g id="a_edge9_Node000001_Node000009"><a xlink:title=" ">
<path fill="none" stroke="#63b8ff" d="M310.19,-110.58C365.32,-100.09 457.71,-82.52 508.69,-72.83"/>
<polygon fill="#63b8ff" stroke="#63b8ff" points="309.68,-107.11 300.51,-112.42 310.99,-113.99 309.68,-107.11"/>
</a>
</g>
</g>
<!-- Node4&#45;&gt;Node3 -->
<g id="edge4_Node000004_Node000003" class="edge">
<title>Node4&#45;&gt;Node3</title>
<g id="a_edge4_Node000004_Node000003"><a xlink:title=" ">
<path fill="none" stroke="#63b8ff" d="M140.49,-48.53C126.64,-39.2 109.43,-27.6 97.72,-19.7"/>
<polygon fill="#63b8ff" stroke="#63b8ff" points="138.35,-51.31 148.59,-54 142.26,-45.5 138.35,-51.31"/>
</a>
</g>
</g>
<!-- Node5 -->
<g id="Node000005" class="node">
<title>Node5</title>
<g id="a_Node000005"><a xlink:href="library__scene_8c.html" target="_top" xlink:title=" ">
<polygon fill="white" stroke="#666666" points="251.5,-19.25 153,-19.25 153,0 251.5,0 251.5,-19.25"/>
<text xml:space="preserve" text-anchor="middle" x="202.25" y="-5.75" font-family="Helvetica,sans-Serif" font-size="10.00">src/library_scene.c</text>
</a>
</g>
</g>
<!-- Node4&#45;&gt;Node5 -->
<g id="edge5_Node000004_Node000005" class="edge">
<title>Node4&#45;&gt;Node5</title>
<g id="a_edge5_Node000004_Node000005"><a xlink:title=" ">
<path fill="none" stroke="#63b8ff" d="M176.39,-45.94C182.87,-37.09 190.41,-26.79 195.67,-19.61"/>
<polygon fill="#63b8ff" stroke="#63b8ff" points="173.67,-43.73 170.58,-53.86 179.32,-47.86 173.67,-43.73"/>
</a>
</g>
</g>
</g>
</svg>
