<?xml version="1.0" encoding="UTF-8" standalone="no"?>
<!DOCTYPE svg PUBLIC "-//W3C//DTD SVG 1.1//EN"
 "http://www.w3.org/Graphics/SVG/1.1/DTD/svg11.dtd">
<!-- Generated by graphviz version 13.1.0 (20250701.0955)
 -->
<!-- Title: free_json_data Pages: 1 -->
<!--zoomable 493 -->

<svg id="main" version="1.1" xmlns="http://www.w3.org/2000/svg" xmlns:xlink="http://www.w3.org/1999/xlink" xml:space="preserve" onload="init(evt)">

<style type="text/css"><![CDATA[
.node, .edge {opacity: 0.7;}
.node.selected, .edge.selected {opacity: 1;}
.edge:hover path { stroke: red; }
.edge:hover polygon { stroke: red; fill: red; }
]]></style>

<defs>
  <circle id="rim" cx="0" cy="0" r="7"/>
  <circle id="rim2" cx="0" cy="0" r="3.5"/>
  <g id="zoomPlus">
    <use xlink:href="#rim" fill="#404040"><set attributeName="fill" to="#808080" begin="zoomplus.mouseover" end="zoomplus.mouseout"/></use>
    <path d="M-4,0h8M0,-4v8" fill="none" stroke="white" stroke-width="1.5" pointer-events="none"/>
  </g>
  <g id="zoomMin">
    <use xlink:href="#rim" fill="#404040"><set attributeName="fill" to="#808080" begin="zoomminus.mouseover" end="zoomminus.mouseout"/></use>
    <path d="M-4,0h8" fill="none" stroke="white" stroke-width="1.5" pointer-events="none"/>
  </g>
  <g id="arrowUp" transform="translate(30 24)">
    <use xlink:href="#rim"/>
    <path pointer-events="none" fill="none" stroke="white" stroke-width="1.5" d="M0,-3.0v7 M-2.5,-0.5L0,-3.0L2.5,-0.5"/>
  </g>
  <g id="arrowRight" transform="rotate(90) translate(36 -43)">
    <use xlink:href="#rim"/>
    <path pointer-events="none" fill="none" stroke="white" stroke-width="1.5" d="M0,-3.0v7 M-2.5,-0.5L0,-3.0L2.5,-0.5"/>
  </g>
  <g id="arrowDown" transform="rotate(180) translate(-30 -48)">
    <use xlink:href="#rim"/>
    <path pointer-events="none" fill="none" stroke="white" stroke-width="1.5" d="M0,-3.0v7 M-2.5,-0.5L0,-3.0L2.5,-0.5"/>
  </g>
  <g id="arrowLeft" transform="rotate(270) translate(-36 17)">
    <use xlink:href="#rim"/>
    <path pointer-events="none" fill="none" stroke="white" stroke-width="1.5" d="M0,-3.0v7 M-2.5,-0.5L0,-3.0L2.5,-0.5"/>
  </g>
  <g id="resetDef">
    <use xlink:href="#rim2" fill="#404040"><set attributeName="fill" to="#808080" begin="reset.mouseover" end="reset.mouseout"/></use>
  </g>
</defs>
<script type="application/ecmascript">
var viewWidth = 2075;
var viewHeight = 493;
var sectionId = 'dynsection-2';
</script>
<script type="application/ecmascript" xlink:href="svg.min.js"/>
<svg id="graph" class="graph">
<g id="viewport">
<title>free_json_data</title>
<!-- Node1 -->
<g id="Node000001" class="node">
<title>Node1</title>
<g id="a_Node000001"><a xlink:title=" ">
<polygon fill="#999999" stroke="#666666" points="2067.25,-180.88 1987.5,-180.88 1987.5,-161.62 2067.25,-161.62 2067.25,-180.88"/>
<text xml:space="preserve" text-anchor="middle" x="2027.38" y="-167.38" font-family="Helvetica,sans-Serif" font-size="10.00">free_json_data</text>
</a>
</g>
</g>
<!-- Node2 -->
<g id="Node000002" class="node">
<title>Node2</title>
<g id="a_Node000002"><a xlink:href="version_8c.html#ac5eb9cffa5ccf602ed84e4ce770a97f2" target="_top" xlink:title=" ">
<polygon fill="white" stroke="#666666" points="1737.12,-67.88 1685.88,-67.88 1685.88,-48.62 1737.12,-48.62 1737.12,-67.88"/>
<text xml:space="preserve" text-anchor="middle" x="1711.5" y="-54.38" font-family="Helvetica,sans-Serif" font-size="10.00">CB_Get</text>
</a>
</g>
</g>
<!-- Node1&#45;&gt;Node2 -->
<g id="edge1_Node000001_Node000002" class="edge">
<title>Node1&#45;&gt;Node2</title>
<g id="a_edge1_Node000001_Node000002"><a xlink:title=" ">
<path fill="none" stroke="#63b8ff" d="M2016.82,-151.27C2004.93,-128.91 1982.39,-93.68 1951.5,-77.25 1881.31,-39.92 1782.81,-47.72 1737.32,-54.08"/>
<polygon fill="#63b8ff" stroke="#63b8ff" points="2013.59,-152.65 2021.23,-159.99 2019.84,-149.49 2013.59,-152.65"/>
</a>
</g>
</g>
<!-- Node12 -->
<g id="Node000012" class="node">
<title>Node12</title>
<g id="a_Node000012"><a xlink:href="app_8c.html#af256ea7a9c51fcbd49cb0007facbb8ea" target="_top" xlink:title=" ">
<polygon fill="white" stroke="#666666" points="166.25,-418.88 111.25,-418.88 111.25,-399.62 166.25,-399.62 166.25,-418.88"/>
<text xml:space="preserve" text-anchor="middle" x="138.75" y="-405.38" font-family="Helvetica,sans-Serif" font-size="10.00">PGB_init</text>
</a>
</g>
</g>
<!-- Node1&#45;&gt;Node12 -->
<g id="edge23_Node000001_Node000012" class="edge">
<title>Node1&#45;&gt;Node12</title>
<g id="a_edge23_Node000001_Node000012"><a xlink:title=" ">
<path fill="none" stroke="#63b8ff" d="M2025.67,-192.53C2023.02,-237.78 2010.49,-344.32 1951.5,-404.25 1872.82,-484.18 1824.66,-485.25 1712.5,-485.25 1712.5,-485.25 1712.5,-485.25 487,-485.25 362.11,-485.25 328.05,-482.02 209,-444.25 189.87,-438.18 169.55,-427.32 155.9,-419.3"/>
<polygon fill="#63b8ff" stroke="#63b8ff" points="2029.16,-192.91 2026.12,-182.76 2022.16,-192.59 2029.16,-192.91"/>
</a>
</g>
</g>
<!-- Node14 -->
<g id="Node000014" class="node">
<title>Node14</title>
<g id="a_Node000014"><a xlink:href="jparse_8c.html#a760c240a32120213079669b91bbe48e4" target="_top" xlink:title=" ">
<polygon fill="white" stroke="#666666" points="1935.75,-394.88 1828.25,-394.88 1828.25,-375.62 1935.75,-375.62 1935.75,-394.88"/>
<text xml:space="preserve" text-anchor="middle" x="1882" y="-381.38" font-family="Helvetica,sans-Serif" font-size="10.00">json_set_table_value</text>
</a>
</g>
</g>
<!-- Node1&#45;&gt;Node14 -->
<g id="edge14_Node000001_Node000014" class="edge">
<title>Node1&#45;&gt;Node14</title>
<g id="a_edge14_Node000001_Node000014"><a xlink:title=" ">
<path fill="none" stroke="#63b8ff" d="M2016.58,-191.33C2003.24,-218 1977.96,-266.17 1951.5,-304.25 1932.58,-331.47 1906.4,-360.46 1892.52,-375.27"/>
<polygon fill="#63b8ff" stroke="#63b8ff" points="2019.57,-193.18 2020.86,-182.67 2013.29,-190.08 2019.57,-193.18"/>
</a>
</g>
</g>
<!-- Node16 -->
<g id="Node000016" class="node">
<title>Node16</title>
<g id="a_Node000016"><a xlink:href="credits__scene_8c.html#ac1dac21cdf7c63243c3dcbe2b2834e69" target="_top" xlink:title=" ">
<polygon fill="white" stroke="#666666" points="1943.62,-142.88 1820.38,-142.88 1820.38,-123.62 1943.62,-123.62 1943.62,-142.88"/>
<text xml:space="preserve" text-anchor="middle" x="1882" y="-129.38" font-family="Helvetica,sans-Serif" font-size="10.00">PGB_CreditsScene_free</text>
</a>
</g>
</g>
<!-- Node1&#45;&gt;Node16 -->
<g id="edge17_Node000001_Node000016" class="edge">
<title>Node1&#45;&gt;Node16</title>
<g id="a_edge17_Node000001_Node000016"><a xlink:title=" ">
<path fill="none" stroke="#63b8ff" d="M1977.42,-158.28C1958.88,-153.36 1938.08,-147.85 1920.73,-143.25"/>
<polygon fill="#63b8ff" stroke="#63b8ff" points="1976.3,-161.6 1986.87,-160.78 1978.1,-154.83 1976.3,-161.6"/>
</a>
</g>
</g>
<!-- Node17 -->
<g id="Node000017" class="node">
<title>Node17</title>
<g id="a_Node000017"><a xlink:href="credits__scene_8c.html#a383fece6abe27ee451fa01b127812a6d" target="_top" xlink:title=" ">
<polygon fill="white" stroke="#666666" points="1249.25,-161.88 1124.5,-161.88 1124.5,-142.62 1249.25,-142.62 1249.25,-161.88"/>
<text xml:space="preserve" text-anchor="middle" x="1186.88" y="-148.38" font-family="Helvetica,sans-Serif" font-size="10.00">PGB_CreditsScene_new</text>
</a>
</g>
</g>
<!-- Node1&#45;&gt;Node17 -->
<g id="edge22_Node000001_Node000017" class="edge">
<title>Node1&#45;&gt;Node17</title>
<g id="a_edge22_Node000001_Node000017"><a xlink:title=" ">
<path fill="none" stroke="#63b8ff" d="M1975.83,-171.25C1913.8,-171.25 1805.42,-171.25 1712.5,-171.25 1712.5,-171.25 1712.5,-171.25 1537.38,-171.25 1436.5,-171.25 1319.49,-163.26 1249.69,-157.64"/>
<polygon fill="#63b8ff" stroke="#63b8ff" points="1975.72,-174.75 1985.72,-171.25 1975.72,-167.75 1975.72,-174.75"/>
</a>
</g>
</g>
<!-- Node20 -->
<g id="Node000020" class="node">
<title>Node20</title>
<g id="a_Node000020"><a xlink:href="preferences_8c.html#a28adce384a8439ecb0959598281c6b71" target="_top" xlink:title=" ">
<polygon fill="white" stroke="#666666" points="1951.5,-294.88 1812.5,-294.88 1812.5,-275.62 1951.5,-275.62 1951.5,-294.88"/>
<text xml:space="preserve" text-anchor="middle" x="1882" y="-281.38" font-family="Helvetica,sans-Serif" font-size="10.00">preferences_read_from_disk</text>
</a>
</g>
</g>
<!-- Node1&#45;&gt;Node20 -->
<g id="edge24_Node000001_Node000020" class="edge">
<title>Node1&#45;&gt;Node20</title>
<g id="a_edge24_Node000001_Node000020"><a xlink:title=" ">
<path fill="none" stroke="#63b8ff" d="M2004.68,-188.5C1974.26,-212.69 1919.91,-255.9 1895.49,-275.32"/>
<polygon fill="#63b8ff" stroke="#63b8ff" points="2006.82,-191.27 2012.47,-182.31 2002.46,-185.79 2006.82,-191.27"/>
</a>
</g>
</g>
<!-- Node29 -->
<g id="Node000029" class="node">
<title>Node29</title>
<g id="a_Node000029"><a xlink:href="version_8c.html#a5374e6a152c844da2e3cceee750683de" target="_top" xlink:title=" ">
<polygon fill="white" stroke="#666666" points="1928.25,-105.88 1835.75,-105.88 1835.75,-86.62 1928.25,-86.62 1928.25,-105.88"/>
<text xml:space="preserve" text-anchor="middle" x="1882" y="-92.38" font-family="Helvetica,sans-Serif" font-size="10.00">read_version_info</text>
</a>
</g>
</g>
<!-- Node1&#45;&gt;Node29 -->
<g id="edge41_Node000001_Node000029" class="edge">
<title>Node1&#45;&gt;Node29</title>
<g id="a_edge41_Node000001_Node000029"><a xlink:title=" ">
<path fill="none" stroke="#63b8ff" d="M2007.68,-153.65C1993.32,-141.02 1972.46,-124.47 1951.5,-114.25 1944.32,-110.75 1936.36,-107.86 1928.5,-105.51"/>
<polygon fill="#63b8ff" stroke="#63b8ff" points="2005.23,-156.15 2014.99,-160.27 2009.93,-150.97 2005.23,-156.15"/>
</a>
</g>
</g>
<!-- Node3 -->
<g id="Node000003" class="node">
<title>Node3</title>
<g id="a_Node000003"><a xlink:href="version_8c.html#a538d156e8a64fa13958cc535e122d9ba" target="_top" xlink:title=" ">
<polygon fill="white" stroke="#666666" points="1587.62,-67.88 1489.12,-67.88 1489.12,-48.62 1587.62,-48.62 1587.62,-67.88"/>
<text xml:space="preserve" text-anchor="middle" x="1538.38" y="-54.38" font-family="Helvetica,sans-Serif" font-size="10.00">check_for_updates</text>
</a>
</g>
</g>
<!-- Node2&#45;&gt;Node3 -->
<g id="edge2_Node000002_Node000003" class="edge">
<title>Node2&#45;&gt;Node3</title>
<g id="a_edge2_Node000002_Node000003"><a xlink:title=" ">
<path fill="none" stroke="#63b8ff" d="M1674.39,-58.25C1649.26,-58.25 1615.47,-58.25 1587.98,-58.25"/>
<polygon fill="#63b8ff" stroke="#63b8ff" points="1674.1,-61.75 1684.1,-58.25 1674.1,-54.75 1674.1,-61.75"/>
</a>
</g>
</g>
<!-- Node4 -->
<g id="Node000004" class="node">
<title>Node4</title>
<g id="a_Node000004"><a xlink:href="version_8c.html#a682d7ece5fc09acfb9192de972cba8f2" target="_top" xlink:title=" ">
<polygon fill="white" stroke="#666666" points="1410,-30.5 1310,-30.5 1310,0 1410,0 1410,-30.5"/>
<text xml:space="preserve" text-anchor="start" x="1318" y="-17" font-family="Helvetica,sans-Serif" font-size="10.00">possibly_check_for</text>
<text xml:space="preserve" text-anchor="middle" x="1360" y="-5.75" font-family="Helvetica,sans-Serif" font-size="10.00">_updates</text>
</a>
</g>
</g>
<!-- Node3&#45;&gt;Node4 -->
<g id="edge3_Node000003_Node000004" class="edge">
<title>Node3&#45;&gt;Node4</title>
<g id="a_edge3_Node000003_Node000004"><a xlink:title=" ">
<path fill="none" stroke="#63b8ff" d="M1485.12,-45.51C1461.43,-39.73 1433.56,-32.94 1410.24,-27.26"/>
<polygon fill="#63b8ff" stroke="#63b8ff" points="1484.01,-48.84 1494.55,-47.81 1485.67,-42.04 1484.01,-48.84"/>
</a>
</g>
</g>
<!-- Node5 -->
<g id="Node000005" class="node">
<title>Node5</title>
<g id="a_Node000005"><a xlink:href="library__scene_8c.html#a0728002045c9cbbd68bdd34897b28da6" target="_top" xlink:title=" ">
<polygon fill="white" stroke="#666666" points="1253.75,-95.88 1120,-95.88 1120,-76.62 1253.75,-76.62 1253.75,-95.88"/>
<text xml:space="preserve" text-anchor="middle" x="1186.88" y="-82.38" font-family="Helvetica,sans-Serif" font-size="10.00">PGB_LibraryScene_update</text>
</a>
</g>
</g>
<!-- Node4&#45;&gt;Node5 -->
<g id="edge4_Node000004_Node000005" class="edge">
<title>Node4&#45;&gt;Node5</title>
<g id="a_edge4_Node000004_Node000005"><a xlink:title=" ">
<path fill="none" stroke="#63b8ff" d="M1301.35,-34.74C1297.41,-36.22 1293.51,-37.73 1289.75,-39.25 1260.84,-50.89 1228.27,-66.34 1207.91,-76.29"/>
<polygon fill="#63b8ff" stroke="#63b8ff" points="1302.23,-38.15 1310.41,-31.42 1299.82,-31.58 1302.23,-38.15"/>
</a>
</g>
</g>
<!-- Node6 -->
<g id="Node000006" class="node">
<title>Node6</title>
<g id="a_Node000006"><a xlink:href="library__scene_8c.html#aa5c386d39121b53fba45d899df654188" target="_top" xlink:title=" ">
<polygon fill="white" stroke="#666666" points="719.75,-294.88 597.25,-294.88 597.25,-275.62 719.75,-275.62 719.75,-294.88"/>
<text xml:space="preserve" text-anchor="middle" x="658.5" y="-281.38" font-family="Helvetica,sans-Serif" font-size="10.00">PGB_LibraryScene_new</text>
</a>
</g>
</g>
<!-- Node5&#45;&gt;Node6 -->
<g id="edge5_Node000005_Node000006" class="edge">
<title>Node5&#45;&gt;Node6</title>
<g id="a_edge5_Node000005_Node000006"><a xlink:title=" ">
<path fill="none" stroke="#63b8ff" d="M1145.89,-100.05C1093.76,-118.15 999.85,-151.15 920.25,-181.25 832.72,-214.34 729.81,-256.3 683.83,-275.21"/>
<polygon fill="#63b8ff" stroke="#63b8ff" points="1146.93,-103.39 1155.23,-96.81 1144.64,-96.78 1146.93,-103.39"/>
</a>
</g>
</g>
<!-- Node7 -->
<g id="Node000007" class="node">
<title>Node7</title>
<g id="a_Node000007"><a xlink:href="app_8c.html#ab80501f53b757a79772b96ec99e3dc7e" target="_top" xlink:title=" ">
<polygon fill="white" stroke="#666666" points="534.25,-294.88 441.75,-294.88 441.75,-275.62 534.25,-275.62 534.25,-294.88"/>
<text xml:space="preserve" text-anchor="middle" x="488" y="-281.38" font-family="Helvetica,sans-Serif" font-size="10.00">PGB_goToLibrary</text>
</a>
</g>
</g>
<!-- Node6&#45;&gt;Node7 -->
<g id="edge6_Node000006_Node000007" class="edge">
<title>Node6&#45;&gt;Node7</title>
<g id="a_edge6_Node000006_Node000007"><a xlink:title=" ">
<path fill="none" stroke="#63b8ff" d="M585.88,-285.25C568.52,-285.25 550.44,-285.25 534.66,-285.25"/>
<polygon fill="#63b8ff" stroke="#63b8ff" points="585.63,-288.75 595.63,-285.25 585.63,-281.75 585.63,-288.75"/>
</a>
</g>
</g>
<!-- Node10 -->
<g id="Node000010" class="node">
<title>Node10</title>
<g id="a_Node000010"><a xlink:href="image__conversion__scene_8c.html#a60d0e43ab25a8639bbb6d1f4e758edd3" target="_top" xlink:title=" ">
<polygon fill="white" stroke="#666666" points="561.25,-343.5 414.75,-343.5 414.75,-313 561.25,-313 561.25,-343.5"/>
<text xml:space="preserve" text-anchor="start" x="422.75" y="-330" font-family="Helvetica,sans-Serif" font-size="10.00">PGB_ImageConversionScene</text>
<text xml:space="preserve" text-anchor="middle" x="488" y="-318.75" font-family="Helvetica,sans-Serif" font-size="10.00">_update</text>
</a>
</g>
</g>
<!-- Node6&#45;&gt;Node10 -->
<g id="edge9_Node000006_Node000010" class="edge">
<title>Node6&#45;&gt;Node10</title>
<g id="a_edge9_Node000006_Node000010"><a xlink:title=" ">
<path fill="none" stroke="#63b8ff" d="M607.02,-298.13C589.31,-302.65 569.21,-307.78 550.68,-312.51"/>
<polygon fill="#63b8ff" stroke="#63b8ff" points="607.7,-301.57 616.53,-295.71 605.97,-294.79 607.7,-301.57"/>
</a>
</g>
</g>
<!-- Node6&#45;&gt;Node12 -->
<g id="edge13_Node000006_Node000012" class="edge">
<title>Node6&#45;&gt;Node12</title>
<g id="a_edge13_Node000006_Node000012"><a xlink:title=" ">
<path fill="none" stroke="#63b8ff" d="M638.44,-302.8C620.11,-318.57 590.89,-340.93 561.25,-352.25 413.91,-408.52 364.69,-370.05 209,-395.25 194.95,-397.52 179.42,-400.61 166.63,-403.31"/>
<polygon fill="#63b8ff" stroke="#63b8ff" points="640.67,-305.49 645.84,-296.25 636.03,-300.25 640.67,-305.49"/>
</a>
</g>
</g>
<!-- Node8 -->
<g id="Node000008" class="node">
<title>Node8</title>
<g id="a_Node000008"><a xlink:href="game__scene_8c.html#a6a4a6f0408da311dc566eb187e497889" target="_top" xlink:title=" ">
<polygon fill="white" stroke="#666666" points="360,-294.88 227.75,-294.88 227.75,-275.62 360,-275.62 360,-294.88"/>
<text xml:space="preserve" text-anchor="middle" x="293.88" y="-281.38" font-family="Helvetica,sans-Serif" font-size="10.00">PGB_LibraryConfirmModal</text>
</a>
</g>
</g>
<!-- Node7&#45;&gt;Node8 -->
<g id="edge7_Node000007_Node000008" class="edge">
<title>Node7&#45;&gt;Node8</title>
<g id="a_edge7_Node000007_Node000008"><a xlink:title=" ">
<path fill="none" stroke="#63b8ff" d="M430.03,-285.25C408.17,-285.25 383.05,-285.25 360.44,-285.25"/>
<polygon fill="#63b8ff" stroke="#63b8ff" points="429.96,-288.75 439.96,-285.25 429.96,-281.75 429.96,-288.75"/>
</a>
</g>
</g>
<!-- Node9 -->
<g id="Node000009" class="node">
<title>Node9</title>
<g id="a_Node000009"><a xlink:href="game__scene_8c.html#a113df24bb94bafcdbb9235ec8648e02f" target="_top" xlink:title=" ">
<polygon fill="white" stroke="#666666" points="173,-294.88 104.5,-294.88 104.5,-275.62 173,-275.62 173,-294.88"/>
<text xml:space="preserve" text-anchor="middle" x="138.75" y="-281.38" font-family="Helvetica,sans-Serif" font-size="10.00">__section__</text>
</a>
</g>
</g>
<!-- Node8&#45;&gt;Node9 -->
<g id="edge8_Node000008_Node000009" class="edge">
<title>Node8&#45;&gt;Node9</title>
<g id="a_edge8_Node000008_Node000009"><a xlink:title=" ">
<path fill="none" stroke="#63b8ff" d="M216.03,-285.25C200.98,-285.25 185.96,-285.25 173.27,-285.25"/>
<polygon fill="#63b8ff" stroke="#63b8ff" points="215.98,-288.75 225.98,-285.25 215.98,-281.75 215.98,-288.75"/>
</a>
</g>
</g>
<!-- Node11 -->
<g id="Node000011" class="node">
<title>Node11</title>
<g id="a_Node000011"><a xlink:href="image__conversion__scene_8c.html#aa3559936491ddf78b9cf06fcbdd32d22" target="_top" xlink:title=" ">
<polygon fill="white" stroke="#666666" points="378.75,-340.88 209,-340.88 209,-321.62 378.75,-321.62 378.75,-340.88"/>
<text xml:space="preserve" text-anchor="middle" x="293.88" y="-327.38" font-family="Helvetica,sans-Serif" font-size="10.00">PGB_ImageConversionScene_new</text>
</a>
</g>
</g>
<!-- Node10&#45;&gt;Node11 -->
<g id="edge10_Node000010_Node000011" class="edge">
<title>Node10&#45;&gt;Node11</title>
<g id="a_edge10_Node000010_Node000011"><a xlink:title=" ">
<path fill="none" stroke="#63b8ff" d="M402.94,-329.56C395.07,-329.69 387.09,-329.81 379.22,-329.93"/>
<polygon fill="#63b8ff" stroke="#63b8ff" points="402.91,-333.06 412.85,-329.41 402.8,-326.06 402.91,-333.06"/>
</a>
</g>
</g>
<!-- Node11&#45;&gt;Node12 -->
<g id="edge11_Node000011_Node000012" class="edge">
<title>Node11&#45;&gt;Node12</title>
<g id="a_edge11_Node000011_Node000012"><a xlink:title=" ">
<path fill="none" stroke="#63b8ff" d="M239.66,-344.72C229.23,-348.19 218.57,-352.36 209,-357.25 186.24,-368.88 163.17,-387.99 150.24,-399.52"/>
<polygon fill="#63b8ff" stroke="#63b8ff" points="240.45,-348.14 248.94,-341.8 238.35,-341.46 240.45,-348.14"/>
</a>
</g>
</g>
<!-- Node13 -->
<g id="Node000013" class="node">
<title>Node13</title>
<g id="a_Node000013"><a xlink:href="main_8c.html#a77034286b8c64d0735c69535c5e9b732" target="_top" xlink:title=" ">
<polygon fill="white" stroke="#666666" points="68.5,-418.88 0,-418.88 0,-399.62 68.5,-399.62 68.5,-418.88"/>
<text xml:space="preserve" text-anchor="middle" x="34.25" y="-405.38" font-family="Helvetica,sans-Serif" font-size="10.00">__section__</text>
</a>
</g>
</g>
<!-- Node12&#45;&gt;Node13 -->
<g id="edge12_Node000012_Node000013" class="edge">
<title>Node12&#45;&gt;Node13</title>
<g id="a_edge12_Node000012_Node000013"><a xlink:title=" ">
<path fill="none" stroke="#63b8ff" d="M99.48,-409.25C89.46,-409.25 78.74,-409.25 68.97,-409.25"/>
<polygon fill="#63b8ff" stroke="#63b8ff" points="99.31,-412.75 109.31,-409.25 99.31,-405.75 99.31,-412.75"/>
</a>
</g>
</g>
<!-- Node15 -->
<g id="Node000015" class="node">
<title>Node15</title>
<g id="a_Node000015"><a xlink:href="app_8c.html#ab8cc8e00f77467c63f5f607d0ba40e7c" target="_top" xlink:title=" ">
<polygon fill="white" stroke="#666666" points="868.12,-456.88 771.88,-456.88 771.88,-437.62 868.12,-437.62 868.12,-456.88"/>
<text xml:space="preserve" text-anchor="middle" x="820" y="-443.38" font-family="Helvetica,sans-Serif" font-size="10.00">copy_file_callback</text>
</a>
</g>
</g>
<!-- Node14&#45;&gt;Node15 -->
<g id="edge15_Node000014_Node000015" class="edge">
<title>Node14&#45;&gt;Node15</title>
<g id="a_edge15_Node000014_Node000015"><a xlink:title=" ">
<path fill="none" stroke="#63b8ff" d="M1836.93,-398.49C1772.29,-416.7 1647.7,-447.25 1539.38,-447.25 1539.38,-447.25 1539.38,-447.25 1185.88,-447.25 1072.01,-447.25 938.16,-447.25 868.52,-447.25"/>
<polygon fill="#63b8ff" stroke="#63b8ff" points="1837.8,-401.88 1846.45,-395.77 1835.87,-395.15 1837.8,-401.88"/>
</a>
</g>
</g>
<!-- Node15&#45;&gt;Node12 -->
<g id="edge16_Node000015_Node000012" class="edge">
<title>Node15&#45;&gt;Node12</title>
<g id="a_edge16_Node000015_Node000012"><a xlink:title=" ">
<path fill="none" stroke="#63b8ff" d="M760.35,-448.05C651.33,-448.86 410.28,-447.4 209,-423.25 194.87,-421.56 179.33,-418.52 166.55,-415.71"/>
<polygon fill="#63b8ff" stroke="#63b8ff" points="760.24,-451.56 770.21,-447.97 760.19,-444.56 760.24,-451.56"/>
</a>
</g>
</g>
<!-- Node16&#45;&gt;Node17 -->
<g id="edge18_Node000016_Node000017" class="edge">
<title>Node16&#45;&gt;Node17</title>
<g id="a_edge18_Node000016_Node000017"><a xlink:title=" ">
<path fill="none" stroke="#63b8ff" d="M1808.95,-135.23C1672.25,-138.97 1377.47,-147.05 1249.38,-150.56"/>
<polygon fill="#63b8ff" stroke="#63b8ff" points="1808.68,-138.73 1818.58,-134.96 1808.49,-131.74 1808.68,-138.73"/>
</a>
</g>
</g>
<!-- Node18 -->
<g id="Node000018" class="node">
<title>Node18</title>
<g id="a_Node000018"><a xlink:href="library__scene_8c.html#a226d6ce979bacb7e37c185d5b32a7361" target="_top" xlink:title=" ">
<polygon fill="white" stroke="#666666" points="1081.75,-209.88 922.5,-209.88 922.5,-190.62 1081.75,-190.62 1081.75,-209.88"/>
<text xml:space="preserve" text-anchor="middle" x="1002.12" y="-196.38" font-family="Helvetica,sans-Serif" font-size="10.00">PGB_LibraryScene_showCredits</text>
</a>
</g>
</g>
<!-- Node17&#45;&gt;Node18 -->
<g id="edge19_Node000017_Node000018" class="edge">
<title>Node17&#45;&gt;Node18</title>
<g id="a_edge19_Node000017_Node000018"><a xlink:title=" ">
<path fill="none" stroke="#63b8ff" d="M1136.52,-165.21C1106.61,-173.07 1069.03,-182.94 1041.38,-190.2"/>
<polygon fill="#63b8ff" stroke="#63b8ff" points="1137.32,-168.62 1146.1,-162.7 1135.54,-161.85 1137.32,-168.62"/>
</a>
</g>
</g>
<!-- Node19 -->
<g id="Node000019" class="node">
<title>Node19</title>
<g id="a_Node000019"><a xlink:href="library__scene_8c.html#ab295872b275c54cb2800b2b71fd163ef" target="_top" xlink:title=" ">
<polygon fill="white" stroke="#666666" points="884.25,-294.88 755.75,-294.88 755.75,-275.62 884.25,-275.62 884.25,-294.88"/>
<text xml:space="preserve" text-anchor="middle" x="820" y="-281.38" font-family="Helvetica,sans-Serif" font-size="10.00">PGB_LibraryScene_menu</text>
</a>
</g>
</g>
<!-- Node18&#45;&gt;Node19 -->
<g id="edge20_Node000018_Node000019" class="edge">
<title>Node18&#45;&gt;Node19</title>
<g id="a_edge20_Node000018_Node000019"><a xlink:title=" ">
<path fill="none" stroke="#63b8ff" d="M969.65,-215.1C933.12,-232.34 873.88,-260.3 842.34,-275.18"/>
<polygon fill="#63b8ff" stroke="#63b8ff" points="970.84,-218.41 978.39,-210.98 967.85,-212.08 970.84,-218.41"/>
</a>
</g>
</g>
<!-- Node19&#45;&gt;Node6 -->
<g id="edge21_Node000019_Node000006" class="edge">
<title>Node19&#45;&gt;Node6</title>
<g id="a_edge21_Node000019_Node000006"><a xlink:title=" ">
<path fill="none" stroke="#63b8ff" d="M744.2,-285.25C736.15,-285.25 728.04,-285.25 720.18,-285.25"/>
<polygon fill="#63b8ff" stroke="#63b8ff" points="743.99,-288.75 753.99,-285.25 743.99,-281.75 743.99,-288.75"/>
</a>
</g>
</g>
<!-- Node21 -->
<g id="Node000021" class="node">
<title>Node21</title>
<g id="a_Node000021"><a xlink:href="game__scene_8c.html#a963582a448d4e4e2953e59d75b9d9f64" target="_top" xlink:title=" ">
<polygon fill="white" stroke="#666666" points="1770.5,-218.88 1652.5,-218.88 1652.5,-199.62 1770.5,-199.62 1770.5,-218.88"/>
<text xml:space="preserve" text-anchor="middle" x="1711.5" y="-205.38" font-family="Helvetica,sans-Serif" font-size="10.00">PGB_GameScene_free</text>
</a>
</g>
</g>
<!-- Node20&#45;&gt;Node21 -->
<g id="edge25_Node000020_Node000021" class="edge">
<title>Node20&#45;&gt;Node21</title>
<g id="a_edge25_Node000020_Node000021"><a xlink:title=" ">
<path fill="none" stroke="#63b8ff" d="M1852.33,-269.98C1831.54,-259.16 1802.61,-244.61 1776.5,-233.25 1765.07,-228.28 1752.25,-223.35 1741.11,-219.26"/>
<polygon fill="#63b8ff" stroke="#63b8ff" points="1850.58,-273.02 1861.06,-274.56 1853.83,-266.82 1850.58,-273.02"/>
</a>
</g>
</g>
<!-- Node22 -->
<g id="Node000022" class="node">
<title>Node22</title>
<g id="a_Node000022"><a xlink:href="game__scene_8c.html#ab923ed4c6ccad95026e85e252071716d" target="_top" xlink:title=" ">
<polygon fill="white" stroke="#666666" points="1598.12,-218.88 1478.62,-218.88 1478.62,-199.62 1598.12,-199.62 1598.12,-218.88"/>
<text xml:space="preserve" text-anchor="middle" x="1538.38" y="-205.38" font-family="Helvetica,sans-Serif" font-size="10.00">PGB_GameScene_new</text>
</a>
</g>
</g>
<!-- Node20&#45;&gt;Node22 -->
<g id="edge28_Node000020_Node000022" class="edge">
<title>Node20&#45;&gt;Node22</title>
<g id="a_edge28_Node000020_Node000022"><a xlink:title=" ">
<path fill="none" stroke="#63b8ff" d="M1824.43,-272.66C1757.22,-257.71 1646.46,-233.07 1584.66,-219.32"/>
<polygon fill="#63b8ff" stroke="#63b8ff" points="1823.64,-276.07 1834.16,-274.83 1825.16,-269.24 1823.64,-276.07"/>
</a>
</g>
</g>
<!-- Node23 -->
<g id="Node000023" class="node">
<title>Node23</title>
<g id="a_Node000023"><a xlink:href="settings__scene_8c.html#a7a2a61c35c00f7990b0a85f16e5c9975" target="_top" xlink:title=" ">
<polygon fill="white" stroke="#666666" points="1251.5,-294.88 1122.25,-294.88 1122.25,-275.62 1251.5,-275.62 1251.5,-294.88"/>
<text xml:space="preserve" text-anchor="middle" x="1186.88" y="-281.38" font-family="Helvetica,sans-Serif" font-size="10.00">PGB_SettingsScene_new</text>
</a>
</g>
</g>
<!-- Node20&#45;&gt;Node23 -->
<g id="edge29_Node000020_Node000023" class="edge">
<title>Node20&#45;&gt;Node23</title>
<g id="a_edge29_Node000020_Node000023"><a xlink:title=" ">
<path fill="none" stroke="#63b8ff" d="M1859.18,-301.97C1838.97,-316.41 1807.44,-336.3 1776.5,-345.25 1567.31,-405.78 1300.92,-324.91 1215.52,-295.32"/>
<polygon fill="#63b8ff" stroke="#63b8ff" points="1861.19,-304.84 1867.18,-296.1 1857.05,-299.2 1861.19,-304.84"/>
</a>
</g>
</g>
<!-- Node25 -->
<g id="Node000025" class="node">
<title>Node25</title>
<g id="a_Node000025"><a xlink:href="settings__scene_8c.html#ab2a60c1877e6e9ec3e98c502666c64c2" target="_top" xlink:title=" ">
<polygon fill="white" stroke="#666666" points="1430.25,-294.88 1289.75,-294.88 1289.75,-275.62 1430.25,-275.62 1430.25,-294.88"/>
<text xml:space="preserve" text-anchor="middle" x="1360" y="-281.38" font-family="Helvetica,sans-Serif" font-size="10.00">PGB_SettingsScene_update</text>
</a>
</g>
</g>
<!-- Node20&#45;&gt;Node25 -->
<g id="edge32_Node000020_Node000025" class="edge">
<title>Node20&#45;&gt;Node25</title>
<g id="a_edge32_Node000020_Node000025"><a xlink:title=" ">
<path fill="none" stroke="#63b8ff" d="M1800.82,-285.25C1699.4,-285.25 1526.44,-285.25 1430.42,-285.25"/>
<polygon fill="#63b8ff" stroke="#63b8ff" points="1800.7,-288.75 1810.7,-285.25 1800.7,-281.75 1800.7,-288.75"/>
</a>
</g>
</g>
<!-- Node26 -->
<g id="Node000026" class="node">
<title>Node26</title>
<g id="a_Node000026"><a xlink:href="preferences_8c.html#aa547383a93cb50b718912336cddccd12" target="_top" xlink:title=" ">
<polygon fill="white" stroke="#666666" points="1580.88,-418.88 1495.88,-418.88 1495.88,-399.62 1580.88,-399.62 1580.88,-418.88"/>
<text xml:space="preserve" text-anchor="middle" x="1538.38" y="-405.38" font-family="Helvetica,sans-Serif" font-size="10.00">preferences_init</text>
</a>
</g>
</g>
<!-- Node20&#45;&gt;Node26 -->
<g id="edge34_Node000020_Node000026" class="edge">
<title>Node20&#45;&gt;Node26</title>
<g id="a_edge34_Node000020_Node000026"><a xlink:title=" ">
<path fill="none" stroke="#63b8ff" d="M1867.69,-304.13C1849.9,-327.67 1816.01,-367.03 1776.5,-385.25 1713.19,-414.45 1630.49,-415.61 1581.35,-412.99"/>
<polygon fill="#63b8ff" stroke="#63b8ff" points="1870.31,-306.47 1873.4,-296.34 1864.66,-302.33 1870.31,-306.47"/>
</a>
</g>
</g>
<!-- Node27 -->
<g id="Node000027" class="node">
<title>Node27</title>
<g id="a_Node000027"><a xlink:href="preferences_8c.html#a4978d89645874b14ef5d1db49c0a465f" target="_top" xlink:title=" ">
<polygon fill="white" stroke="#666666" points="1776.5,-335.88 1646.5,-335.88 1646.5,-316.62 1776.5,-316.62 1776.5,-335.88"/>
<text xml:space="preserve" text-anchor="middle" x="1711.5" y="-322.38" font-family="Helvetica,sans-Serif" font-size="10.00">preferences_save_to_disk</text>
</a>
</g>
</g>
<!-- Node20&#45;&gt;Node27 -->
<g id="edge36_Node000020_Node000027" class="edge">
<title>Node20&#45;&gt;Node27</title>
<g id="a_edge36_Node000020_Node000027"><a xlink:title=" ">
<path fill="none" stroke="#63b8ff" d="M1828.69,-297.98C1804.61,-303.84 1776.45,-310.69 1753.88,-316.18"/>
<polygon fill="#63b8ff" stroke="#63b8ff" points="1829.42,-301.4 1838.31,-295.64 1827.77,-294.6 1829.42,-301.4"/>
</a>
</g>
</g>
<!-- Node21&#45;&gt;Node22 -->
<g id="edge26_Node000021_Node000022" class="edge">
<title>Node21&#45;&gt;Node22</title>
<g id="a_edge26_Node000021_Node000022"><a xlink:title=" ">
<path fill="none" stroke="#63b8ff" d="M1640.93,-209.25C1626.82,-209.25 1612.1,-209.25 1598.4,-209.25"/>
<polygon fill="#63b8ff" stroke="#63b8ff" points="1640.57,-212.75 1650.57,-209.25 1640.57,-205.75 1640.57,-212.75"/>
</a>
</g>
</g>
<!-- Node22&#45;&gt;Node5 -->
<g id="edge27_Node000022_Node000005" class="edge">
<title>Node22&#45;&gt;Node5</title>
<g id="a_edge27_Node000022_Node000005"><a xlink:title=" ">
<path fill="none" stroke="#63b8ff" d="M1498.05,-195.41C1426.96,-170.39 1278.66,-118.2 1216.38,-96.28"/>
<polygon fill="#63b8ff" stroke="#63b8ff" points="1496.75,-198.66 1507.35,-198.68 1499.08,-192.06 1496.75,-198.66"/>
</a>
</g>
</g>
<!-- Node24 -->
<g id="Node000024" class="node">
<title>Node24</title>
<g id="a_Node000024"><a xlink:href="library__scene_8c.html#ae9da6d35e322c1a0896926f6a66c66f1" target="_top" xlink:title=" ">
<polygon fill="white" stroke="#666666" points="1084,-294.88 920.25,-294.88 920.25,-275.62 1084,-275.62 1084,-294.88"/>
<text xml:space="preserve" text-anchor="middle" x="1002.12" y="-281.38" font-family="Helvetica,sans-Serif" font-size="10.00">PGB_LibraryScene_showSettings</text>
</a>
</g>
</g>
<!-- Node23&#45;&gt;Node24 -->
<g id="edge30_Node000023_Node000024" class="edge">
<title>Node23&#45;&gt;Node24</title>
<g id="a_edge30_Node000023_Node000024"><a xlink:title=" ">
<path fill="none" stroke="#63b8ff" d="M1110.68,-285.25C1102,-285.25 1093.11,-285.25 1084.35,-285.25"/>
<polygon fill="#63b8ff" stroke="#63b8ff" points="1110.44,-288.75 1120.44,-285.25 1110.44,-281.75 1110.44,-288.75"/>
</a>
</g>
</g>
<!-- Node24&#45;&gt;Node19 -->
<g id="edge31_Node000024_Node000019" class="edge">
<title>Node24&#45;&gt;Node19</title>
<g id="a_edge31_Node000024_Node000019"><a xlink:title=" ">
<path fill="none" stroke="#63b8ff" d="M908.43,-285.25C900.42,-285.25 892.43,-285.25 884.73,-285.25"/>
<polygon fill="#63b8ff" stroke="#63b8ff" points="908.24,-288.75 918.24,-285.25 908.24,-281.75 908.24,-288.75"/>
</a>
</g>
</g>
<!-- Node25&#45;&gt;Node23 -->
<g id="edge33_Node000025_Node000023" class="edge">
<title>Node25&#45;&gt;Node23</title>
<g id="a_edge33_Node000025_Node000023"><a xlink:title=" ">
<path fill="none" stroke="#63b8ff" d="M1277.96,-285.25C1269.22,-285.25 1260.41,-285.25 1251.9,-285.25"/>
<polygon fill="#63b8ff" stroke="#63b8ff" points="1277.88,-288.75 1287.88,-285.25 1277.88,-281.75 1277.88,-288.75"/>
</a>
</g>
</g>
<!-- Node26&#45;&gt;Node12 -->
<g id="edge35_Node000026_Node000012" class="edge">
<title>Node26&#45;&gt;Node12</title>
<g id="a_edge35_Node000026_Node000012"><a xlink:title=" ">
<path fill="none" stroke="#63b8ff" d="M1484.08,-409.25C1415.54,-409.25 1292.84,-409.25 1187.88,-409.25 1187.88,-409.25 1187.88,-409.25 487,-409.25 367.33,-409.25 224.47,-409.25 166.32,-409.25"/>
<polygon fill="#63b8ff" stroke="#63b8ff" points="1483.9,-412.75 1493.9,-409.25 1483.9,-405.75 1483.9,-412.75"/>
</a>
</g>
</g>
<!-- Node27&#45;&gt;Node25 -->
<g id="edge39_Node000027_Node000025" class="edge">
<title>Node27&#45;&gt;Node25</title>
<g id="a_edge39_Node000027_Node000025"><a xlink:title=" ">
<path fill="none" stroke="#63b8ff" d="M1659.75,-313.64C1644.04,-310.13 1626.63,-306.63 1610.5,-304.25 1550.12,-295.35 1480.86,-290.5 1430.66,-287.93"/>
<polygon fill="#63b8ff" stroke="#63b8ff" points="1658.83,-317.02 1669.36,-315.84 1660.4,-310.19 1658.83,-317.02"/>
</a>
</g>
</g>
<!-- Node27&#45;&gt;Node26 -->
<g id="edge40_Node000027_Node000026" class="edge">
<title>Node27&#45;&gt;Node26</title>
<g id="a_edge40_Node000027_Node000026"><a xlink:title=" ">
<path fill="none" stroke="#63b8ff" d="M1679.84,-341.12C1645.25,-357.9 1589.94,-384.73 1560.09,-399.2"/>
<polygon fill="#63b8ff" stroke="#63b8ff" points="1681.03,-344.44 1688.5,-336.92 1677.97,-338.14 1681.03,-344.44"/>
</a>
</g>
</g>
<!-- Node28 -->
<g id="Node000028" class="node">
<title>Node28</title>
<g id="a_Node000028"><a xlink:href="settings__scene_8c.html#a5cfb11a3e4e6ecfc7430e17d5e8ebc10" target="_top" xlink:title=" ">
<polygon fill="white" stroke="#666666" points="1610.5,-343.5 1466.25,-343.5 1466.25,-313 1610.5,-313 1610.5,-343.5"/>
<text xml:space="preserve" text-anchor="start" x="1474.25" y="-330" font-family="Helvetica,sans-Serif" font-size="10.00">PGB_SettingsScene_attempt</text>
<text xml:space="preserve" text-anchor="middle" x="1538.38" y="-318.75" font-family="Helvetica,sans-Serif" font-size="10.00">Dismiss</text>
</a>
</g>
</g>
<!-- Node27&#45;&gt;Node28 -->
<g id="edge37_Node000027_Node000028" class="edge">
<title>Node27&#45;&gt;Node28</title>
<g id="a_edge37_Node000027_Node000028"><a xlink:title=" ">
<path fill="none" stroke="#63b8ff" d="M1635.03,-327.13C1626.99,-327.23 1618.83,-327.32 1610.83,-327.41"/>
<polygon fill="#63b8ff" stroke="#63b8ff" points="1634.82,-330.63 1644.78,-327.02 1634.74,-323.64 1634.82,-330.63"/>
</a>
</g>
</g>
<!-- Node28&#45;&gt;Node25 -->
<g id="edge38_Node000028_Node000025" class="edge">
<title>Node28&#45;&gt;Node25</title>
<g id="a_edge38_Node000028_Node000025"><a xlink:title=" ">
<path fill="none" stroke="#63b8ff" d="M1462.25,-309.93C1441.72,-304.93 1420.22,-299.69 1402.34,-295.33"/>
<polygon fill="#63b8ff" stroke="#63b8ff" points="1461.19,-313.28 1471.73,-312.25 1462.84,-306.48 1461.19,-313.28"/>
</a>
</g>
</g>
<!-- Node30 -->
<g id="Node000030" class="node">
<title>Node30</title>
<g id="a_Node000030"><a xlink:href="version_8c.html#a15f9da9138cbc84cf2d686857683fa6e" target="_top" xlink:title=" ">
<polygon fill="white" stroke="#666666" points="1760,-104.88 1663,-104.88 1663,-85.62 1760,-85.62 1760,-104.88"/>
<text xml:space="preserve" text-anchor="middle" x="1711.5" y="-91.38" font-family="Helvetica,sans-Serif" font-size="10.00">read_local_version</text>
</a>
</g>
</g>
<!-- Node29&#45;&gt;Node30 -->
<g id="edge42_Node000029_Node000030" class="edge">
<title>Node29&#45;&gt;Node30</title>
<g id="a_edge42_Node000029_Node000030"><a xlink:title=" ">
<path fill="none" stroke="#63b8ff" d="M1823.91,-95.91C1803.3,-95.79 1780.25,-95.65 1760.49,-95.53"/>
<polygon fill="#63b8ff" stroke="#63b8ff" points="1823.87,-99.41 1833.89,-95.97 1823.91,-92.41 1823.87,-99.41"/>
</a>
</g>
</g>
<!-- Node30&#45;&gt;Node3 -->
<g id="edge43_Node000030_Node000003" class="edge">
<title>Node30&#45;&gt;Node3</title>
<g id="a_edge43_Node000030_Node000003"><a xlink:title=" ">
<path fill="none" stroke="#63b8ff" d="M1652.68,-82.75C1630.99,-78.06 1606.63,-72.79 1586.08,-68.35"/>
<polygon fill="#63b8ff" stroke="#63b8ff" points="1651.75,-86.13 1662.26,-84.82 1653.23,-79.29 1651.75,-86.13"/>
</a>
</g>
</g>
<!-- Node31 -->
<g id="Node000031" class="node">
<title>Node31</title>
<g id="a_Node000031"><a xlink:href="version_8c.html#a41758f76e8a3f185811180a3860583fb" target="_top" xlink:title=" ">
<polygon fill="white" stroke="#666666" points="1589.12,-104.88 1487.62,-104.88 1487.62,-85.62 1589.12,-85.62 1589.12,-104.88"/>
<text xml:space="preserve" text-anchor="middle" x="1538.38" y="-91.38" font-family="Helvetica,sans-Serif" font-size="10.00">get_current_version</text>
</a>
</g>
</g>
<!-- Node30&#45;&gt;Node31 -->
<g id="edge44_Node000030_Node000031" class="edge">
<title>Node30&#45;&gt;Node31</title>
<g id="a_edge44_Node000030_Node000031"><a xlink:title=" ">
<path fill="none" stroke="#63b8ff" d="M1651.54,-95.25C1631.33,-95.25 1608.92,-95.25 1589.47,-95.25"/>
<polygon fill="#63b8ff" stroke="#63b8ff" points="1651.32,-98.75 1661.32,-95.25 1651.32,-91.75 1651.32,-98.75"/>
</a>
</g>
</g>
<!-- Node32 -->
<g id="Node000032" class="node">
<title>Node32</title>
<g id="a_Node000032"><a xlink:href="library__scene_8c.html#ab61f378dd09afd7715687d7917da8d1a" target="_top" xlink:title=" ">
<polygon fill="white" stroke="#666666" points="1405.5,-67.88 1314.5,-67.88 1314.5,-48.62 1405.5,-48.62 1405.5,-67.88"/>
<text xml:space="preserve" text-anchor="middle" x="1360" y="-54.38" font-family="Helvetica,sans-Serif" font-size="10.00">CB_updatecheck</text>
</a>
</g>
</g>
<!-- Node31&#45;&gt;Node32 -->
<g id="edge45_Node000031_Node000032" class="edge">
<title>Node31&#45;&gt;Node32</title>
<g id="a_edge45_Node000031_Node000032"><a xlink:title=" ">
<path fill="none" stroke="#63b8ff" d="M1478.21,-82.84C1454.57,-77.88 1427.79,-72.26 1405.81,-67.65"/>
<polygon fill="#63b8ff" stroke="#63b8ff" points="1477.19,-86.2 1487.7,-84.83 1478.63,-79.35 1477.19,-86.2"/>
</a>
</g>
</g>
<!-- Node33 -->
<g id="Node000033" class="node">
<title>Node33</title>
<g id="a_Node000033"><a xlink:href="credits__scene_8c.html#a365a665934b8a44fd598265734bf1ac6" target="_top" xlink:title=" ">
<polygon fill="white" stroke="#666666" points="1428,-104.88 1292,-104.88 1292,-85.62 1428,-85.62 1428,-104.88"/>
<text xml:space="preserve" text-anchor="middle" x="1360" y="-91.38" font-family="Helvetica,sans-Serif" font-size="10.00">PGB_CreditsScene_update</text>
</a>
</g>
</g>
<!-- Node31&#45;&gt;Node33 -->
<g id="edge47_Node000031_Node000033" class="edge">
<title>Node31&#45;&gt;Node33</title>
<g id="a_edge47_Node000031_Node000033"><a xlink:title=" ">
<path fill="none" stroke="#63b8ff" d="M1475.83,-95.25C1460.48,-95.25 1443.94,-95.25 1428.32,-95.25"/>
<polygon fill="#63b8ff" stroke="#63b8ff" points="1475.79,-98.75 1485.79,-95.25 1475.79,-91.75 1475.79,-98.75"/>
</a>
</g>
</g>
<!-- Node32&#45;&gt;Node5 -->
<g id="edge46_Node000032_Node000005" class="edge">
<title>Node32&#45;&gt;Node5</title>
<g id="a_edge46_Node000032_Node000005"><a xlink:title=" ">
<path fill="none" stroke="#63b8ff" d="M1303.09,-67.4C1285.98,-70.2 1267.06,-73.29 1249.58,-76.15"/>
<polygon fill="#63b8ff" stroke="#63b8ff" points="1303.24,-70.92 1312.55,-65.85 1302.11,-64.01 1303.24,-70.92"/>
</a>
</g>
</g>
<!-- Node33&#45;&gt;Node17 -->
<g id="edge48_Node000033_Node000017" class="edge">
<title>Node33&#45;&gt;Node17</title>
<g id="a_edge48_Node000033_Node000017"><a xlink:title=" ">
<path fill="none" stroke="#63b8ff" d="M1318,-108.91C1287.24,-119.15 1245.83,-132.95 1218.06,-142.2"/>
<polygon fill="#63b8ff" stroke="#63b8ff" points="1318.98,-112.27 1327.36,-105.79 1316.77,-105.63 1318.98,-112.27"/>
</a>
</g>
</g>
</g>
</svg>

<g id="navigator" transform="translate(0 0)" fill="#404254">
  <rect fill="#f2f5e9" fill-opacity="0.5" stroke="#606060" stroke-width=".5" x="0" y="0" width="60" height="60"/>
  <use id="zoomplus" xlink:href="#zoomPlus" x="17" y="9" onmousedown="handleZoom(evt,'in')"/>
  <use id="zoomminus" xlink:href="#zoomMin" x="42" y="9" onmousedown="handleZoom(evt,'out')"/>
  <use id="reset" xlink:href="#resetDef" x="30" y="36" onmousedown="handleReset()"/>
   <use id="arrowup" xlink:href="#arrowUp" x="0" y="0" onmousedown="handlePan(0,-1)"/>
  <use id="arrowright" xlink:href="#arrowRight" x="0" y="0" onmousedown="handlePan(1,0)"/>
  <use id="arrowdown" xlink:href="#arrowDown" x="0" y="0" onmousedown="handlePan(0,1)"/>
  <use id="arrowleft" xlink:href="#arrowLeft" x="0" y="0" onmousedown="handlePan(-1,0)"/>
</g>
<svg viewBox="0 0 15 15" width="100%" height="30px" preserveAspectRatio="xMaxYMin meet">
 <g id="arrow_out" transform="scale(0.3 0.3)">
  <a xlink:href="jparse_8h_a71c01bd1a770ca2a7b1cb512d398af96_icgraph_org.svg" target="_base">
   <rect id="button" ry="5" rx="5" y="6" x="6" height="38" width="38"
        fill="#f2f5e9" fill-opacity="0.5" stroke="#606060" stroke-width="1.0"/>
   <path id="arrow"
     d="M 11.500037,31.436501 C 11.940474,20.09759 22.043105,11.32322 32.158766,21.979434 L 37.068811,17.246167 C 37.068811,17.246167 37.088388,32 37.088388,32 L 22.160133,31.978069 C 22.160133,31.978069 26.997745,27.140456 26.997745,27.140456 C 18.528582,18.264221 13.291696,25.230495 11.500037,31.436501 z"
     style="fill:#404040;"/>
  </a>
 </g>
</svg>

<style type='text/css'>
<![CDATA[
[data-mouse-over-selected='false'] { opacity: 0.7; }
[data-mouse-over-selected='true']  { opacity: 1.0; }
]]>
</style>
<script type="application/ecmascript"><![CDATA[
document.addEventListener('DOMContentLoaded', (event) => {
  highlightEdges();
  highlightAdjacentNodes();
});
]]></script>
</svg>
