<?xml version="1.0" encoding="UTF-8" standalone="no"?>
<!DOCTYPE svg PUBLIC "-//W3C//DTD SVG 1.1//EN"
 "http://www.w3.org/Graphics/SVG/1.1/DTD/svg11.dtd">
<!-- Generated by graphviz version 13.1.0 (20250701.0955)
 -->
<!-- Title: json_set_table_value Pages: 1 -->
<svg width="443pt" height="27pt"
 viewBox="0.00 0.00 443.00 27.00" xmlns="http://www.w3.org/2000/svg" xmlns:xlink="http://www.w3.org/1999/xlink">
<g id="graph0" class="graph" transform="scale(1 1) rotate(0) translate(4 23.25)">
<title>json_set_table_value</title>
<!-- Node1 -->
<g id="Node000001" class="node">
<title>Node1</title>
<g id="a_Node000001"><a xlink:title=" ">
<polygon fill="#999999" stroke="#666666" points="435.25,-19.25 327.75,-19.25 327.75,0 435.25,0 435.25,-19.25"/>
<text xml:space="preserve" text-anchor="middle" x="381.5" y="-5.75" font-family="Helvetica,sans-Serif" font-size="10.00">json_set_table_value</text>
</a>
</g>
</g>
<!-- Node2 -->
<g id="Node000002" class="node">
<title>Node2</title>
<g id="a_Node000002"><a xlink:href="app_8c.html#ab8cc8e00f77467c63f5f607d0ba40e7c" target="_top" xlink:title=" ">
<polygon fill="white" stroke="#666666" points="291.75,-19.25 195.5,-19.25 195.5,0 291.75,0 291.75,-19.25"/>
<text xml:space="preserve" text-anchor="middle" x="243.62" y="-5.75" font-family="Helvetica,sans-Serif" font-size="10.00">copy_file_callback</text>
</a>
</g>
</g>
<!-- Node1&#45;&gt;Node2 -->
<g id="edge1_Node000001_Node000002" class="edge">
<title>Node1&#45;&gt;Node2</title>
<g id="a_edge1_Node000001_Node000002"><a xlink:title=" ">
<path fill="none" stroke="#63b8ff" d="M316.12,-9.62C307.95,-9.62 299.71,-9.62 291.87,-9.62"/>
<polygon fill="#63b8ff" stroke="#63b8ff" points="316.06,-13.13 326.06,-9.63 316.06,-6.13 316.06,-13.13"/>
</a>
</g>
</g>
<!-- Node3 -->
<g id="Node000003" class="node">
<title>Node3</title>
<g id="a_Node000003"><a xlink:href="app_8c.html#af256ea7a9c51fcbd49cb0007facbb8ea" target="_top" xlink:title=" ">
<polygon fill="white" stroke="#666666" points="159.5,-19.25 104.5,-19.25 104.5,0 159.5,0 159.5,-19.25"/>
<text xml:space="preserve" text-anchor="middle" x="132" y="-5.75" font-family="Helvetica,sans-Serif" font-size="10.00">PGB_init</text>
</a>
</g>
</g>
<!-- Node2&#45;&gt;Node3 -->
<g id="edge2_Node000002_Node000003" class="edge">
<title>Node2&#45;&gt;Node3</title>
<g id="a_edge2_Node000002_Node000003"><a xlink:title=" ">
<path fill="none" stroke="#63b8ff" d="M183.72,-9.62C175.32,-9.62 167.04,-9.62 159.7,-9.62"/>
<polygon fill="#63b8ff" stroke="#63b8ff" points="183.67,-13.13 193.67,-9.63 183.67,-6.13 183.67,-13.13"/>
</a>
</g>
</g>
<!-- Node4 -->
<g id="Node000004" class="node">
<title>Node4</title>
<g id="a_Node000004"><a xlink:href="main_8c.html#a77034286b8c64d0735c69535c5e9b732" target="_top" xlink:title=" ">
<polygon fill="white" stroke="#666666" points="68.5,-19.25 0,-19.25 0,0 68.5,0 68.5,-19.25"/>
<text xml:space="preserve" text-anchor="middle" x="34.25" y="-5.75" font-family="Helvetica,sans-Serif" font-size="10.00">__section__</text>
</a>
</g>
</g>
<!-- Node3&#45;&gt;Node4 -->
<g id="edge3_Node000003_Node000004" class="edge">
<title>Node3&#45;&gt;Node4</title>
<g id="a_edge3_Node000003_Node000004"><a xlink:title=" ">
<path fill="none" stroke="#63b8ff" d="M92.81,-9.62C84.87,-9.62 76.56,-9.62 68.8,-9.62"/>
<polygon fill="#63b8ff" stroke="#63b8ff" points="92.56,-13.13 102.56,-9.63 92.56,-6.13 92.56,-13.13"/>
</a>
</g>
</g>
</g>
</svg>
