<?xml version="1.0" encoding="UTF-8" standalone="no"?>
<!DOCTYPE svg PUBLIC "-//W3C//DTD SVG 1.1//EN"
 "http://www.w3.org/Graphics/SVG/1.1/DTD/svg11.dtd">
<!-- Generated by graphviz version 13.1.0 (20250701.0955)
 -->
<!-- Title: parse_json_string Pages: 1 -->
<svg width="1957pt" height="118pt"
 viewBox="0.00 0.00 1957.00 118.00" xmlns="http://www.w3.org/2000/svg" xmlns:xlink="http://www.w3.org/1999/xlink">
<g id="graph0" class="graph" transform="scale(1 1) rotate(0) translate(4 114.15)">
<title>parse_json_string</title>
<!-- Node1 -->
<g id="Node000001" class="node">
<title>Node1</title>
<g id="a_Node000001"><a xlink:title=" ">
<polygon fill="#999999" stroke="#666666" points="1948.75,-82.53 1856.25,-82.53 1856.25,-63.28 1948.75,-63.28 1948.75,-82.53"/>
<text xml:space="preserve" text-anchor="middle" x="1902.5" y="-69.03" font-family="Helvetica,sans-Serif" font-size="10.00">parse_json_string</text>
</a>
</g>
</g>
<!-- Node2 -->
<g id="Node000002" class="node">
<title>Node2</title>
<g id="a_Node000002"><a xlink:href="version_8c.html#ac5eb9cffa5ccf602ed84e4ce770a97f2" target="_top" xlink:title=" ">
<polygon fill="white" stroke="#666666" points="1668.88,-101.53 1617.62,-101.53 1617.62,-82.28 1668.88,-82.28 1668.88,-101.53"/>
<text xml:space="preserve" text-anchor="middle" x="1643.25" y="-88.03" font-family="Helvetica,sans-Serif" font-size="10.00">CB_Get</text>
</a>
</g>
</g>
<!-- Node1&#45;&gt;Node2 -->
<g id="edge1_Node000001_Node000002" class="edge">
<title>Node1&#45;&gt;Node2</title>
<g id="a_edge1_Node000001_Node000002"><a xlink:title=" ">
<path fill="none" stroke="#63b8ff" d="M1844.53,-77.11C1789.76,-81.16 1709.54,-87.08 1669.26,-90.05"/>
<polygon fill="#63b8ff" stroke="#63b8ff" points="1844.58,-80.62 1854.3,-76.39 1844.07,-73.63 1844.58,-80.62"/>
</a>
</g>
</g>
<!-- Node14 -->
<g id="Node000014" class="node">
<title>Node14</title>
<g id="a_Node000014"><a xlink:href="version_8c.html#a5374e6a152c844da2e3cceee750683de" target="_top" xlink:title=" ">
<polygon fill="white" stroke="#666666" points="1820.25,-63.53 1727.75,-63.53 1727.75,-44.28 1820.25,-44.28 1820.25,-63.53"/>
<text xml:space="preserve" text-anchor="middle" x="1774" y="-50.03" font-family="Helvetica,sans-Serif" font-size="10.00">read_version_info</text>
</a>
</g>
</g>
<!-- Node1&#45;&gt;Node14 -->
<g id="edge14_Node000001_Node000014" class="edge">
<title>Node1&#45;&gt;Node14</title>
<g id="a_edge14_Node000001_Node000014"><a xlink:title=" ">
<path fill="none" stroke="#63b8ff" d="M1844.61,-64.36C1836.57,-63.15 1828.39,-61.92 1820.6,-60.75"/>
<polygon fill="#63b8ff" stroke="#63b8ff" points="1843.92,-67.79 1854.33,-65.82 1844.96,-60.87 1843.92,-67.79"/>
</a>
</g>
</g>
<!-- Node3 -->
<g id="Node000003" class="node">
<title>Node3</title>
<g id="a_Node000003"><a xlink:href="version_8c.html#a538d156e8a64fa13958cc535e122d9ba" target="_top" xlink:title=" ">
<polygon fill="white" stroke="#666666" points="1557.25,-101.53 1458.75,-101.53 1458.75,-82.28 1557.25,-82.28 1557.25,-101.53"/>
<text xml:space="preserve" text-anchor="middle" x="1508" y="-88.03" font-family="Helvetica,sans-Serif" font-size="10.00">check_for_updates</text>
</a>
</g>
</g>
<!-- Node2&#45;&gt;Node3 -->
<g id="edge2_Node000002_Node000003" class="edge">
<title>Node2&#45;&gt;Node3</title>
<g id="a_edge2_Node000002_Node000003"><a xlink:title=" ">
<path fill="none" stroke="#63b8ff" d="M1605.89,-91.9C1591.04,-91.9 1573.63,-91.9 1557.7,-91.9"/>
<polygon fill="#63b8ff" stroke="#63b8ff" points="1605.67,-95.4 1615.67,-91.9 1605.67,-88.4 1605.67,-95.4"/>
</a>
</g>
</g>
<!-- Node4 -->
<g id="Node000004" class="node">
<title>Node4</title>
<g id="a_Node000004"><a xlink:href="version_8c.html#a682d7ece5fc09acfb9192de972cba8f2" target="_top" xlink:title=" ">
<polygon fill="white" stroke="#666666" points="1403.25,-110.15 1303.25,-110.15 1303.25,-79.65 1403.25,-79.65 1403.25,-110.15"/>
<text xml:space="preserve" text-anchor="start" x="1311.25" y="-96.65" font-family="Helvetica,sans-Serif" font-size="10.00">possibly_check_for</text>
<text xml:space="preserve" text-anchor="middle" x="1353.25" y="-85.4" font-family="Helvetica,sans-Serif" font-size="10.00">_updates</text>
</a>
</g>
</g>
<!-- Node3&#45;&gt;Node4 -->
<g id="edge3_Node000003_Node000004" class="edge">
<title>Node3&#45;&gt;Node4</title>
<g id="a_edge3_Node000003_Node000004"><a xlink:title=" ">
<path fill="none" stroke="#63b8ff" d="M1447.29,-93.08C1432.82,-93.36 1417.51,-93.66 1403.58,-93.93"/>
<polygon fill="#63b8ff" stroke="#63b8ff" points="1447.23,-96.58 1457.16,-92.88 1447.09,-89.58 1447.23,-96.58"/>
</a>
</g>
</g>
<!-- Node5 -->
<g id="Node000005" class="node">
<title>Node5</title>
<g id="a_Node000005"><a xlink:href="library__scene_8c.html#a0728002045c9cbbd68bdd34897b28da6" target="_top" xlink:title=" ">
<polygon fill="white" stroke="#666666" points="1249.25,-62.53 1115.5,-62.53 1115.5,-43.28 1249.25,-43.28 1249.25,-62.53"/>
<text xml:space="preserve" text-anchor="middle" x="1182.38" y="-49.03" font-family="Helvetica,sans-Serif" font-size="10.00">PGB_LibraryScene_update</text>
</a>
</g>
</g>
<!-- Node4&#45;&gt;Node5 -->
<g id="edge4_Node000004_Node000005" class="edge">
<title>Node4&#45;&gt;Node5</title>
<g id="a_edge4_Node000004_Node000005"><a xlink:title=" ">
<path fill="none" stroke="#63b8ff" d="M1291.78,-79.86C1269.25,-74.26 1244.23,-68.04 1223.92,-62.99"/>
<polygon fill="#63b8ff" stroke="#63b8ff" points="1290.93,-83.26 1301.48,-82.28 1292.62,-76.47 1290.93,-83.26"/>
</a>
</g>
</g>
<!-- Node6 -->
<g id="Node000006" class="node">
<title>Node6</title>
<g id="a_Node000006"><a xlink:href="library__scene_8c.html#aa5c386d39121b53fba45d899df654188" target="_top" xlink:title=" ">
<polygon fill="white" stroke="#666666" points="719.75,-43.53 597.25,-43.53 597.25,-24.28 719.75,-24.28 719.75,-43.53"/>
<text xml:space="preserve" text-anchor="middle" x="658.5" y="-30.03" font-family="Helvetica,sans-Serif" font-size="10.00">PGB_LibraryScene_new</text>
</a>
</g>
</g>
<!-- Node5&#45;&gt;Node6 -->
<g id="edge5_Node000005_Node000006" class="edge">
<title>Node5&#45;&gt;Node6</title>
<g id="a_edge5_Node000005_Node000006"><a xlink:title=" ">
<path fill="none" stroke="#63b8ff" d="M1103.59,-50.07C998.98,-46.26 815.14,-39.57 720.14,-36.11"/>
<polygon fill="#63b8ff" stroke="#63b8ff" points="1103.38,-53.56 1113.5,-50.43 1103.64,-46.57 1103.38,-53.56"/>
</a>
</g>
</g>
<!-- Node7 -->
<g id="Node000007" class="node">
<title>Node7</title>
<g id="a_Node000007"><a xlink:href="app_8c.html#ab80501f53b757a79772b96ec99e3dc7e" target="_top" xlink:title=" ">
<polygon fill="white" stroke="#666666" points="534.25,-86.53 441.75,-86.53 441.75,-67.28 534.25,-67.28 534.25,-86.53"/>
<text xml:space="preserve" text-anchor="middle" x="488" y="-73.03" font-family="Helvetica,sans-Serif" font-size="10.00">PGB_goToLibrary</text>
</a>
</g>
</g>
<!-- Node6&#45;&gt;Node7 -->
<g id="edge6_Node000006_Node000007" class="edge">
<title>Node6&#45;&gt;Node7</title>
<g id="a_edge6_Node000006_Node000007"><a xlink:title=" ">
<path fill="none" stroke="#63b8ff" d="M606.84,-46.83C581.76,-53.23 551.92,-60.84 528.55,-66.81"/>
<polygon fill="#63b8ff" stroke="#63b8ff" points="607.7,-50.22 616.53,-44.36 605.97,-43.44 607.7,-50.22"/>
</a>
</g>
</g>
<!-- Node10 -->
<g id="Node000010" class="node">
<title>Node10</title>
<g id="a_Node000010"><a xlink:href="image__conversion__scene_8c.html#a60d0e43ab25a8639bbb6d1f4e758edd3" target="_top" xlink:title=" ">
<polygon fill="white" stroke="#666666" points="561.25,-49.15 414.75,-49.15 414.75,-18.65 561.25,-18.65 561.25,-49.15"/>
<text xml:space="preserve" text-anchor="start" x="422.75" y="-35.65" font-family="Helvetica,sans-Serif" font-size="10.00">PGB_ImageConversionScene</text>
<text xml:space="preserve" text-anchor="middle" x="488" y="-24.4" font-family="Helvetica,sans-Serif" font-size="10.00">_update</text>
</a>
</g>
</g>
<!-- Node6&#45;&gt;Node10 -->
<g id="edge9_Node000006_Node000010" class="edge">
<title>Node6&#45;&gt;Node10</title>
<g id="a_edge9_Node000006_Node000010"><a xlink:title=" ">
<path fill="none" stroke="#63b8ff" d="M585.9,-33.9C577.86,-33.9 569.65,-33.9 561.6,-33.9"/>
<polygon fill="#63b8ff" stroke="#63b8ff" points="585.63,-37.4 595.63,-33.9 585.63,-30.4 585.63,-37.4"/>
</a>
</g>
</g>
<!-- Node12 -->
<g id="Node000012" class="node">
<title>Node12</title>
<g id="a_Node000012"><a xlink:href="app_8c.html#af256ea7a9c51fcbd49cb0007facbb8ea" target="_top" xlink:title=" ">
<polygon fill="white" stroke="#666666" points="166.25,-21.53 111.25,-21.53 111.25,-2.28 166.25,-2.28 166.25,-21.53"/>
<text xml:space="preserve" text-anchor="middle" x="138.75" y="-8.03" font-family="Helvetica,sans-Serif" font-size="10.00">PGB_init</text>
</a>
</g>
</g>
<!-- Node6&#45;&gt;Node12 -->
<g id="edge13_Node000006_Node000012" class="edge">
<title>Node6&#45;&gt;Node12</title>
<g id="a_edge13_Node000006_Node000012"><a xlink:title=" ">
<path fill="none" stroke="#63b8ff" d="M614.41,-20.77C597.95,-16.39 578.89,-12.07 561.25,-9.9 413.08,8.29 233.4,-3.78 166.52,-9.44"/>
<polygon fill="#63b8ff" stroke="#63b8ff" points="613.32,-24.1 623.89,-23.39 615.18,-17.35 613.32,-24.1"/>
</a>
</g>
</g>
<!-- Node8 -->
<g id="Node000008" class="node">
<title>Node8</title>
<g id="a_Node000008"><a xlink:href="game__scene_8c.html#a6a4a6f0408da311dc566eb187e497889" target="_top" xlink:title=" ">
<polygon fill="white" stroke="#666666" points="360,-86.53 227.75,-86.53 227.75,-67.28 360,-67.28 360,-86.53"/>
<text xml:space="preserve" text-anchor="middle" x="293.88" y="-73.03" font-family="Helvetica,sans-Serif" font-size="10.00">PGB_LibraryConfirmModal</text>
</a>
</g>
</g>
<!-- Node7&#45;&gt;Node8 -->
<g id="edge7_Node000007_Node000008" class="edge">
<title>Node7&#45;&gt;Node8</title>
<g id="a_edge7_Node000007_Node000008"><a xlink:title=" ">
<path fill="none" stroke="#63b8ff" d="M430.03,-76.9C408.17,-76.9 383.05,-76.9 360.44,-76.9"/>
<polygon fill="#63b8ff" stroke="#63b8ff" points="429.96,-80.4 439.96,-76.9 429.96,-73.4 429.96,-80.4"/>
</a>
</g>
</g>
<!-- Node9 -->
<g id="Node000009" class="node">
<title>Node9</title>
<g id="a_Node000009"><a xlink:href="game__scene_8c.html#a113df24bb94bafcdbb9235ec8648e02f" target="_top" xlink:title=" ">
<polygon fill="white" stroke="#666666" points="173,-86.53 104.5,-86.53 104.5,-67.28 173,-67.28 173,-86.53"/>
<text xml:space="preserve" text-anchor="middle" x="138.75" y="-73.03" font-family="Helvetica,sans-Serif" font-size="10.00">__section__</text>
</a>
</g>
</g>
<!-- Node8&#45;&gt;Node9 -->
<g id="edge8_Node000008_Node000009" class="edge">
<title>Node8&#45;&gt;Node9</title>
<g id="a_edge8_Node000008_Node000009"><a xlink:title=" ">
<path fill="none" stroke="#63b8ff" d="M216.03,-76.9C200.98,-76.9 185.96,-76.9 173.27,-76.9"/>
<polygon fill="#63b8ff" stroke="#63b8ff" points="215.98,-80.4 225.98,-76.9 215.98,-73.4 215.98,-80.4"/>
</a>
</g>
</g>
<!-- Node11 -->
<g id="Node000011" class="node">
<title>Node11</title>
<g id="a_Node000011"><a xlink:href="image__conversion__scene_8c.html#aa3559936491ddf78b9cf06fcbdd32d22" target="_top" xlink:title=" ">
<polygon fill="white" stroke="#666666" points="378.75,-41.53 209,-41.53 209,-22.28 378.75,-22.28 378.75,-41.53"/>
<text xml:space="preserve" text-anchor="middle" x="293.88" y="-28.03" font-family="Helvetica,sans-Serif" font-size="10.00">PGB_ImageConversionScene_new</text>
</a>
</g>
</g>
<!-- Node10&#45;&gt;Node11 -->
<g id="edge10_Node000010_Node000011" class="edge">
<title>Node10&#45;&gt;Node11</title>
<g id="a_edge10_Node000010_Node000011"><a xlink:title=" ">
<path fill="none" stroke="#63b8ff" d="M402.94,-33.03C395.07,-32.95 387.09,-32.86 379.22,-32.78"/>
<polygon fill="#63b8ff" stroke="#63b8ff" points="402.82,-36.53 412.85,-33.13 402.89,-29.53 402.82,-36.53"/>
</a>
</g>
</g>
<!-- Node11&#45;&gt;Node12 -->
<g id="edge11_Node000011_Node000012" class="edge">
<title>Node11&#45;&gt;Node12</title>
<g id="a_edge11_Node000011_Node000012"><a xlink:title=" ">
<path fill="none" stroke="#63b8ff" d="M204.38,-20.34C190.72,-18.56 177.57,-16.84 166.75,-15.43"/>
<polygon fill="#63b8ff" stroke="#63b8ff" points="203.55,-23.76 213.91,-21.59 204.45,-16.82 203.55,-23.76"/>
</a>
</g>
</g>
<!-- Node13 -->
<g id="Node000013" class="node">
<title>Node13</title>
<g id="a_Node000013"><a xlink:href="main_8c.html#a77034286b8c64d0735c69535c5e9b732" target="_top" xlink:title=" ">
<polygon fill="white" stroke="#666666" points="68.5,-21.53 0,-21.53 0,-2.28 68.5,-2.28 68.5,-21.53"/>
<text xml:space="preserve" text-anchor="middle" x="34.25" y="-8.03" font-family="Helvetica,sans-Serif" font-size="10.00">__section__</text>
</a>
</g>
</g>
<!-- Node12&#45;&gt;Node13 -->
<g id="edge12_Node000012_Node000013" class="edge">
<title>Node12&#45;&gt;Node13</title>
<g id="a_edge12_Node000012_Node000013"><a xlink:title=" ">
<path fill="none" stroke="#63b8ff" d="M99.48,-11.9C89.46,-11.9 78.74,-11.9 68.97,-11.9"/>
<polygon fill="#63b8ff" stroke="#63b8ff" points="99.31,-15.4 109.31,-11.9 99.31,-8.4 99.31,-15.4"/>
</a>
</g>
</g>
<!-- Node15 -->
<g id="Node000015" class="node">
<title>Node15</title>
<g id="a_Node000015"><a xlink:href="version_8c.html#a15f9da9138cbc84cf2d686857683fa6e" target="_top" xlink:title=" ">
<polygon fill="white" stroke="#666666" points="1691.75,-63.53 1594.75,-63.53 1594.75,-44.28 1691.75,-44.28 1691.75,-63.53"/>
<text xml:space="preserve" text-anchor="middle" x="1643.25" y="-50.03" font-family="Helvetica,sans-Serif" font-size="10.00">read_local_version</text>
</a>
</g>
</g>
<!-- Node14&#45;&gt;Node15 -->
<g id="edge15_Node000014_Node000015" class="edge">
<title>Node14&#45;&gt;Node15</title>
<g id="a_edge15_Node000014_Node000015"><a xlink:title=" ">
<path fill="none" stroke="#63b8ff" d="M1716.25,-53.9C1708.11,-53.9 1699.79,-53.9 1691.85,-53.9"/>
<polygon fill="#63b8ff" stroke="#63b8ff" points="1716.09,-57.4 1726.09,-53.9 1716.09,-50.4 1716.09,-57.4"/>
</a>
</g>
</g>
<!-- Node15&#45;&gt;Node3 -->
<g id="edge16_Node000015_Node000003" class="edge">
<title>Node15&#45;&gt;Node3</title>
<g id="a_edge16_Node000015_Node000003"><a xlink:title=" ">
<path fill="none" stroke="#63b8ff" d="M1596.03,-67.08C1578.98,-71.95 1559.96,-77.37 1544.06,-81.9"/>
<polygon fill="#63b8ff" stroke="#63b8ff" points="1596.78,-70.51 1605.44,-64.4 1594.86,-63.78 1596.78,-70.51"/>
</a>
</g>
</g>
<!-- Node16 -->
<g id="Node000016" class="node">
<title>Node16</title>
<g id="a_Node000016"><a xlink:href="version_8c.html#a41758f76e8a3f185811180a3860583fb" target="_top" xlink:title=" ">
<polygon fill="white" stroke="#666666" points="1558.75,-61.53 1457.25,-61.53 1457.25,-42.28 1558.75,-42.28 1558.75,-61.53"/>
<text xml:space="preserve" text-anchor="middle" x="1508" y="-48.03" font-family="Helvetica,sans-Serif" font-size="10.00">get_current_version</text>
</a>
</g>
</g>
<!-- Node15&#45;&gt;Node16 -->
<g id="edge17_Node000015_Node000016" class="edge">
<title>Node15&#45;&gt;Node16</title>
<g id="a_edge17_Node000015_Node000016"><a xlink:title=" ">
<path fill="none" stroke="#63b8ff" d="M1583.27,-53.02C1575.2,-52.9 1566.98,-52.77 1559.1,-52.65"/>
<polygon fill="#63b8ff" stroke="#63b8ff" points="1582.96,-56.51 1593.01,-53.16 1583.06,-49.51 1582.96,-56.51"/>
</a>
</g>
</g>
<!-- Node17 -->
<g id="Node000017" class="node">
<title>Node17</title>
<g id="a_Node000017"><a xlink:href="library__scene_8c.html#ab61f378dd09afd7715687d7917da8d1a" target="_top" xlink:title=" ">
<polygon fill="white" stroke="#666666" points="1398.75,-61.53 1307.75,-61.53 1307.75,-42.28 1398.75,-42.28 1398.75,-61.53"/>
<text xml:space="preserve" text-anchor="middle" x="1353.25" y="-48.03" font-family="Helvetica,sans-Serif" font-size="10.00">CB_updatecheck</text>
</a>
</g>
</g>
<!-- Node16&#45;&gt;Node17 -->
<g id="edge18_Node000016_Node000017" class="edge">
<title>Node16&#45;&gt;Node17</title>
<g id="a_edge18_Node000016_Node000017"><a xlink:title=" ">
<path fill="none" stroke="#63b8ff" d="M1445.84,-51.9C1430.27,-51.9 1413.82,-51.9 1399.22,-51.9"/>
<polygon fill="#63b8ff" stroke="#63b8ff" points="1445.47,-55.4 1455.47,-51.9 1445.47,-48.4 1445.47,-55.4"/>
</a>
</g>
</g>
<!-- Node18 -->
<g id="Node000018" class="node">
<title>Node18</title>
<g id="a_Node000018"><a xlink:href="credits__scene_8c.html#a365a665934b8a44fd598265734bf1ac6" target="_top" xlink:title=" ">
<polygon fill="white" stroke="#666666" points="1421.25,-24.53 1285.25,-24.53 1285.25,-5.28 1421.25,-5.28 1421.25,-24.53"/>
<text xml:space="preserve" text-anchor="middle" x="1353.25" y="-11.03" font-family="Helvetica,sans-Serif" font-size="10.00">PGB_CreditsScene_update</text>
</a>
</g>
</g>
<!-- Node16&#45;&gt;Node18 -->
<g id="edge20_Node000016_Node000018" class="edge">
<title>Node16&#45;&gt;Node18</title>
<g id="a_edge20_Node000016_Node000018"><a xlink:title=" ">
<path fill="none" stroke="#63b8ff" d="M1454.32,-39.14C1435.23,-34.52 1413.95,-29.36 1395.94,-25"/>
<polygon fill="#63b8ff" stroke="#63b8ff" points="1453.25,-42.48 1463.79,-41.44 1454.89,-35.68 1453.25,-42.48"/>
</a>
</g>
</g>
<!-- Node17&#45;&gt;Node5 -->
<g id="edge19_Node000017_Node000005" class="edge">
<title>Node17&#45;&gt;Node5</title>
<g id="a_edge19_Node000017_Node000005"><a xlink:title=" ">
<path fill="none" stroke="#63b8ff" d="M1296.33,-52.23C1281.4,-52.32 1265.13,-52.42 1249.71,-52.51"/>
<polygon fill="#63b8ff" stroke="#63b8ff" points="1295.95,-55.74 1305.92,-52.18 1295.9,-48.74 1295.95,-55.74"/>
</a>
</g>
</g>
<!-- Node19 -->
<g id="Node000019" class="node">
<title>Node19</title>
<g id="a_Node000019"><a xlink:href="credits__scene_8c.html#a383fece6abe27ee451fa01b127812a6d" target="_top" xlink:title=" ">
<polygon fill="white" stroke="#666666" points="1244.75,-24.53 1120,-24.53 1120,-5.28 1244.75,-5.28 1244.75,-24.53"/>
<text xml:space="preserve" text-anchor="middle" x="1182.38" y="-11.03" font-family="Helvetica,sans-Serif" font-size="10.00">PGB_CreditsScene_new</text>
</a>
</g>
</g>
<!-- Node18&#45;&gt;Node19 -->
<g id="edge21_Node000018_Node000019" class="edge">
<title>Node18&#45;&gt;Node19</title>
<g id="a_edge21_Node000018_Node000019"><a xlink:title=" ">
<path fill="none" stroke="#63b8ff" d="M1273.81,-14.9C1264.2,-14.9 1254.49,-14.9 1245.17,-14.9"/>
<polygon fill="#63b8ff" stroke="#63b8ff" points="1273.51,-18.4 1283.51,-14.9 1273.51,-11.4 1273.51,-18.4"/>
</a>
</g>
</g>
<!-- Node20 -->
<g id="Node000020" class="node">
<title>Node20</title>
<g id="a_Node000020"><a xlink:href="library__scene_8c.html#a226d6ce979bacb7e37c185d5b32a7361" target="_top" xlink:title=" ">
<polygon fill="white" stroke="#666666" points="1079.5,-24.53 920.25,-24.53 920.25,-5.28 1079.5,-5.28 1079.5,-24.53"/>
<text xml:space="preserve" text-anchor="middle" x="999.88" y="-11.03" font-family="Helvetica,sans-Serif" font-size="10.00">PGB_LibraryScene_showCredits</text>
</a>
</g>
</g>
<!-- Node19&#45;&gt;Node20 -->
<g id="edge22_Node000019_Node000020" class="edge">
<title>Node19&#45;&gt;Node20</title>
<g id="a_edge22_Node000019_Node000020"><a xlink:title=" ">
<path fill="none" stroke="#63b8ff" d="M1108.26,-14.9C1098.92,-14.9 1089.32,-14.9 1079.88,-14.9"/>
<polygon fill="#63b8ff" stroke="#63b8ff" points="1108,-18.4 1118,-14.9 1108,-11.4 1108,-18.4"/>
</a>
</g>
</g>
<!-- Node21 -->
<g id="Node000021" class="node">
<title>Node21</title>
<g id="a_Node000021"><a xlink:href="library__scene_8c.html#ab295872b275c54cb2800b2b71fd163ef" target="_top" xlink:title=" ">
<polygon fill="white" stroke="#666666" points="884.25,-24.53 755.75,-24.53 755.75,-5.28 884.25,-5.28 884.25,-24.53"/>
<text xml:space="preserve" text-anchor="middle" x="820" y="-11.03" font-family="Helvetica,sans-Serif" font-size="10.00">PGB_LibraryScene_menu</text>
</a>
</g>
</g>
<!-- Node20&#45;&gt;Node21 -->
<g id="edge23_Node000020_Node000021" class="edge">
<title>Node20&#45;&gt;Node21</title>
<g id="a_edge23_Node000020_Node000021"><a xlink:title=" ">
<path fill="none" stroke="#63b8ff" d="M908.45,-14.9C900.4,-14.9 892.36,-14.9 884.61,-14.9"/>
<polygon fill="#63b8ff" stroke="#63b8ff" points="908.31,-18.4 918.31,-14.9 908.31,-11.4 908.31,-18.4"/>
</a>
</g>
</g>
<!-- Node21&#45;&gt;Node6 -->
<g id="edge24_Node000021_Node000006" class="edge">
<title>Node21&#45;&gt;Node6</title>
<g id="a_edge24_Node000021_Node000006"><a xlink:title=" ">
<path fill="none" stroke="#63b8ff" d="M744.2,-23.81C736.15,-24.77 728.04,-25.74 720.18,-26.67"/>
<polygon fill="#63b8ff" stroke="#63b8ff" points="744.48,-27.3 754,-22.65 743.66,-20.35 744.48,-27.3"/>
</a>
</g>
</g>
</g>
</svg>
