<?xml version="1.0" encoding="UTF-8" standalone="no"?>
<!DOCTYPE svg PUBLIC "-//W3C//DTD SVG 1.1//EN"
 "http://www.w3.org/Graphics/SVG/1.1/DTD/svg11.dtd">
<!-- Generated by graphviz version 13.1.0 (20250701.0955)
 -->
<!-- Title: src/jparse.h Pages: 1 -->
<svg width="128pt" height="83pt"
 viewBox="0.00 0.00 128.00 83.00" xmlns="http://www.w3.org/2000/svg" xmlns:xlink="http://www.w3.org/1999/xlink">
<g id="graph0" class="graph" transform="scale(1 1) rotate(0) translate(4 78.5)">
<title>src/jparse.h</title>
<!-- Node1 -->
<g id="Node000001" class="node">
<title>Node1</title>
<g id="a_Node000001"><a xlink:title=" ">
<polygon fill="#999999" stroke="#666666" points="93.88,-74.5 26.88,-74.5 26.88,-55.25 93.88,-55.25 93.88,-74.5"/>
<text xml:space="preserve" text-anchor="middle" x="60.38" y="-61" font-family="Helvetica,sans-Serif" font-size="10.00">src/jparse.h</text>
</a>
</g>
</g>
<!-- Node2 -->
<g id="Node000002" class="node">
<title>Node2</title>
<g id="a_Node000002"><a xlink:title=" ">
<polygon fill="#e0e0e0" stroke="#999999" points="52.75,-19.25 0,-19.25 0,0 52.75,0 52.75,-19.25"/>
<text xml:space="preserve" text-anchor="middle" x="26.38" y="-5.75" font-family="Helvetica,sans-Serif" font-size="10.00">pd_api.h</text>
</a>
</g>
</g>
<!-- Node1&#45;&gt;Node2 -->
<g id="edge1_Node000001_Node000002" class="edge">
<title>Node1&#45;&gt;Node2</title>
<g id="a_edge1_Node000001_Node000002"><a xlink:title=" ">
<path fill="none" stroke="#63b8ff" d="M54.76,-55.08C50.26,-48.03 43.79,-37.9 38.16,-29.08"/>
<polygon fill="#63b8ff" stroke="#63b8ff" points="41.26,-27.43 32.93,-20.88 35.36,-31.2 41.26,-27.43"/>
</a>
</g>
</g>
<!-- Node3 -->
<g id="Node000003" class="node">
<title>Node3</title>
<g id="a_Node000003"><a xlink:title=" ">
<polygon fill="#e0e0e0" stroke="#999999" points="119.5,-19.25 71.25,-19.25 71.25,0 119.5,0 119.5,-19.25"/>
<text xml:space="preserve" text-anchor="middle" x="95.38" y="-5.75" font-family="Helvetica,sans-Serif" font-size="10.00">stdint.h</text>
</a>
</g>
</g>
<!-- Node1&#45;&gt;Node3 -->
<g id="edge2_Node000001_Node000003" class="edge">
<title>Node1&#45;&gt;Node3</title>
<g id="a_edge2_Node000001_Node000003"><a xlink:title=" ">
<path fill="none" stroke="#63b8ff" d="M66.15,-55.08C70.79,-48.03 77.45,-37.9 83.24,-29.08"/>
<polygon fill="#63b8ff" stroke="#63b8ff" points="86.07,-31.15 88.64,-20.87 80.22,-27.31 86.07,-31.15"/>
</a>
</g>
</g>
</g>
</svg>
