<?xml version="1.0" encoding="UTF-8" standalone="no"?>
<!DOCTYPE svg PUBLIC "-//W3C//DTD SVG 1.1//EN"
 "http://www.w3.org/Graphics/SVG/1.1/DTD/svg11.dtd">
<!-- Generated by graphviz version 13.1.0 (20250701.0955)
 -->
<!-- Title: parse_json Pages: 1 -->
<svg width="2059pt" height="437pt"
 viewBox="0.00 0.00 2059.00 437.00" xmlns="http://www.w3.org/2000/svg" xmlns:xlink="http://www.w3.org/1999/xlink">
<g id="graph0" class="graph" transform="scale(1 1) rotate(0) translate(4 433.25)">
<title>parse_json</title>
<!-- Node1 -->
<g id="Node000001" class="node">
<title>Node1</title>
<g id="a_Node000001"><a xlink:title=" ">
<polygon fill="#999999" stroke="#666666" points="2050.75,-228.62 1987.5,-228.62 1987.5,-209.38 2050.75,-209.38 2050.75,-228.62"/>
<text xml:space="preserve" text-anchor="middle" x="2019.12" y="-215.12" font-family="Helvetica,sans-Serif" font-size="10.00">parse_json</text>
</a>
</g>
</g>
<!-- Node2 -->
<g id="Node000002" class="node">
<title>Node2</title>
<g id="a_Node000002"><a xlink:href="credits__scene_8c.html#a383fece6abe27ee451fa01b127812a6d" target="_top" xlink:title=" ">
<polygon fill="white" stroke="#666666" points="1249.25,-266.62 1124.5,-266.62 1124.5,-247.38 1249.25,-247.38 1249.25,-266.62"/>
<text xml:space="preserve" text-anchor="middle" x="1186.88" y="-253.12" font-family="Helvetica,sans-Serif" font-size="10.00">PGB_CreditsScene_new</text>
</a>
</g>
</g>
<!-- Node1&#45;&gt;Node2 -->
<g id="edge1_Node000001_Node000002" class="edge">
<title>Node1&#45;&gt;Node2</title>
<g id="a_edge1_Node000001_Node000002"><a xlink:title=" ">
<path fill="none" stroke="#63b8ff" d="M1976.02,-223.37C1927.83,-228.34 1846.5,-236.57 1776.5,-243 1702.77,-249.77 1684.47,-253.89 1610.5,-257 1482.21,-262.4 1331.82,-260.42 1249.5,-258.62"/>
<polygon fill="#63b8ff" stroke="#63b8ff" points="1976.15,-226.88 1985.74,-222.37 1975.43,-219.92 1976.15,-226.88"/>
</a>
</g>
</g>
<!-- Node11 -->
<g id="Node000011" class="node">
<title>Node11</title>
<g id="a_Node000011"><a xlink:href="app_8c.html#af256ea7a9c51fcbd49cb0007facbb8ea" target="_top" xlink:title=" ">
<polygon fill="white" stroke="#666666" points="166.25,-85.62 111.25,-85.62 111.25,-66.38 166.25,-66.38 166.25,-85.62"/>
<text xml:space="preserve" text-anchor="middle" x="138.75" y="-72.12" font-family="Helvetica,sans-Serif" font-size="10.00">PGB_init</text>
</a>
</g>
</g>
<!-- Node1&#45;&gt;Node11 -->
<g id="edge13_Node000001_Node000011" class="edge">
<title>Node1&#45;&gt;Node11</title>
<g id="a_edge13_Node000001_Node000011"><a xlink:title=" ">
<path fill="none" stroke="#63b8ff" d="M2004.83,-199.61C1966.37,-146.06 1848.97,0 1712.5,0 1712.5,0 1712.5,0 487,0 364.81,0 223.9,-45.46 166.33,-66.06"/>
<polygon fill="#63b8ff" stroke="#63b8ff" points="2001.97,-201.62 2010.58,-207.78 2007.69,-197.59 2001.97,-201.62"/>
</a>
</g>
</g>
<!-- Node13 -->
<g id="Node000013" class="node">
<title>Node13</title>
<g id="a_Node000013"><a xlink:href="preferences_8c.html#a28adce384a8439ecb0959598281c6b71" target="_top" xlink:title=" ">
<polygon fill="white" stroke="#666666" points="1951.5,-171.62 1812.5,-171.62 1812.5,-152.38 1951.5,-152.38 1951.5,-171.62"/>
<text xml:space="preserve" text-anchor="middle" x="1882" y="-158.12" font-family="Helvetica,sans-Serif" font-size="10.00">preferences_read_from_disk</text>
</a>
</g>
</g>
<!-- Node1&#45;&gt;Node13 -->
<g id="edge14_Node000001_Node000013" class="edge">
<title>Node1&#45;&gt;Node13</title>
<g id="a_edge14_Node000001_Node000013"><a xlink:title=" ">
<path fill="none" stroke="#63b8ff" d="M1983.78,-204.51C1959.63,-194.33 1927.95,-180.96 1906.61,-171.96"/>
<polygon fill="#63b8ff" stroke="#63b8ff" points="1982.31,-207.69 1992.88,-208.35 1985.03,-201.24 1982.31,-207.69"/>
</a>
</g>
</g>
<!-- Node23 -->
<g id="Node000023" class="node">
<title>Node23</title>
<g id="a_Node000023"><a xlink:href="version_8c.html#a5374e6a152c844da2e3cceee750683de" target="_top" xlink:title=" ">
<polygon fill="white" stroke="#666666" points="1928.25,-342.62 1835.75,-342.62 1835.75,-323.38 1928.25,-323.38 1928.25,-342.62"/>
<text xml:space="preserve" text-anchor="middle" x="1882" y="-329.12" font-family="Helvetica,sans-Serif" font-size="10.00">read_version_info</text>
</a>
</g>
</g>
<!-- Node1&#45;&gt;Node23 -->
<g id="edge32_Node000001_Node000023" class="edge">
<title>Node1&#45;&gt;Node23</title>
<g id="a_edge32_Node000001_Node000023"><a xlink:title=" ">
<path fill="none" stroke="#63b8ff" d="M2003.14,-237.43C1990.34,-252.55 1970.95,-273.98 1951.5,-290 1935.89,-302.85 1916.17,-314.85 1901.9,-322.89"/>
<polygon fill="#63b8ff" stroke="#63b8ff" points="2005.53,-240.03 2009.24,-230.11 2000.15,-235.56 2005.53,-240.03"/>
</a>
</g>
</g>
<!-- Node3 -->
<g id="Node000003" class="node">
<title>Node3</title>
<g id="a_Node000003"><a xlink:href="library__scene_8c.html#a226d6ce979bacb7e37c185d5b32a7361" target="_top" xlink:title=" ">
<polygon fill="white" stroke="#666666" points="1081.75,-247.62 922.5,-247.62 922.5,-228.38 1081.75,-228.38 1081.75,-247.62"/>
<text xml:space="preserve" text-anchor="middle" x="1002.12" y="-234.12" font-family="Helvetica,sans-Serif" font-size="10.00">PGB_LibraryScene_showCredits</text>
</a>
</g>
</g>
<!-- Node2&#45;&gt;Node3 -->
<g id="edge2_Node000002_Node000003" class="edge">
<title>Node2&#45;&gt;Node3</title>
<g id="a_edge2_Node000002_Node000003"><a xlink:title=" ">
<path fill="none" stroke="#63b8ff" d="M1112.77,-249.4C1102.69,-248.35 1092.29,-247.27 1082.1,-246.21"/>
<polygon fill="#63b8ff" stroke="#63b8ff" points="1112.19,-252.86 1122.5,-250.41 1112.91,-245.9 1112.19,-252.86"/>
</a>
</g>
</g>
<!-- Node4 -->
<g id="Node000004" class="node">
<title>Node4</title>
<g id="a_Node000004"><a xlink:href="library__scene_8c.html#ab295872b275c54cb2800b2b71fd163ef" target="_top" xlink:title=" ">
<polygon fill="white" stroke="#666666" points="884.25,-207.62 755.75,-207.62 755.75,-188.38 884.25,-188.38 884.25,-207.62"/>
<text xml:space="preserve" text-anchor="middle" x="820" y="-194.12" font-family="Helvetica,sans-Serif" font-size="10.00">PGB_LibraryScene_menu</text>
</a>
</g>
</g>
<!-- Node3&#45;&gt;Node4 -->
<g id="edge3_Node000003_Node000004" class="edge">
<title>Node3&#45;&gt;Node4</title>
<g id="a_edge3_Node000003_Node000004"><a xlink:title=" ">
<path fill="none" stroke="#63b8ff" d="M944.44,-225.41C919.3,-219.83 890.12,-213.35 866.44,-208.09"/>
<polygon fill="#63b8ff" stroke="#63b8ff" points="943.67,-228.83 954.19,-227.58 945.19,-221.99 943.67,-228.83"/>
</a>
</g>
</g>
<!-- Node5 -->
<g id="Node000005" class="node">
<title>Node5</title>
<g id="a_Node000005"><a xlink:href="library__scene_8c.html#aa5c386d39121b53fba45d899df654188" target="_top" xlink:title=" ">
<polygon fill="white" stroke="#666666" points="719.75,-206.62 597.25,-206.62 597.25,-187.38 719.75,-187.38 719.75,-206.62"/>
<text xml:space="preserve" text-anchor="middle" x="658.5" y="-193.12" font-family="Helvetica,sans-Serif" font-size="10.00">PGB_LibraryScene_new</text>
</a>
</g>
</g>
<!-- Node4&#45;&gt;Node5 -->
<g id="edge4_Node000004_Node000005" class="edge">
<title>Node4&#45;&gt;Node5</title>
<g id="a_edge4_Node000004_Node000005"><a xlink:title=" ">
<path fill="none" stroke="#63b8ff" d="M744.2,-197.53C736.15,-197.48 728.04,-197.43 720.18,-197.38"/>
<polygon fill="#63b8ff" stroke="#63b8ff" points="743.97,-201.03 753.99,-197.59 744.01,-194.03 743.97,-201.03"/>
</a>
</g>
</g>
<!-- Node6 -->
<g id="Node000006" class="node">
<title>Node6</title>
<g id="a_Node000006"><a xlink:href="app_8c.html#ab80501f53b757a79772b96ec99e3dc7e" target="_top" xlink:title=" ">
<polygon fill="white" stroke="#666666" points="534.25,-206.62 441.75,-206.62 441.75,-187.38 534.25,-187.38 534.25,-206.62"/>
<text xml:space="preserve" text-anchor="middle" x="488" y="-193.12" font-family="Helvetica,sans-Serif" font-size="10.00">PGB_goToLibrary</text>
</a>
</g>
</g>
<!-- Node5&#45;&gt;Node6 -->
<g id="edge5_Node000005_Node000006" class="edge">
<title>Node5&#45;&gt;Node6</title>
<g id="a_edge5_Node000005_Node000006"><a xlink:title=" ">
<path fill="none" stroke="#63b8ff" d="M585.88,-197C568.52,-197 550.44,-197 534.66,-197"/>
<polygon fill="#63b8ff" stroke="#63b8ff" points="585.63,-200.5 595.63,-197 585.63,-193.5 585.63,-200.5"/>
</a>
</g>
</g>
<!-- Node9 -->
<g id="Node000009" class="node">
<title>Node9</title>
<g id="a_Node000009"><a xlink:href="image__conversion__scene_8c.html#a60d0e43ab25a8639bbb6d1f4e758edd3" target="_top" xlink:title=" ">
<polygon fill="white" stroke="#666666" points="561.25,-164.25 414.75,-164.25 414.75,-133.75 561.25,-133.75 561.25,-164.25"/>
<text xml:space="preserve" text-anchor="start" x="422.75" y="-150.75" font-family="Helvetica,sans-Serif" font-size="10.00">PGB_ImageConversionScene</text>
<text xml:space="preserve" text-anchor="middle" x="488" y="-139.5" font-family="Helvetica,sans-Serif" font-size="10.00">_update</text>
</a>
</g>
</g>
<!-- Node5&#45;&gt;Node9 -->
<g id="edge8_Node000005_Node000009" class="edge">
<title>Node5&#45;&gt;Node9</title>
<g id="a_edge8_Node000005_Node000009"><a xlink:title=" ">
<path fill="none" stroke="#63b8ff" d="M611.11,-183.78C590.4,-177.88 565.83,-170.89 544.18,-164.72"/>
<polygon fill="#63b8ff" stroke="#63b8ff" points="610.14,-187.15 620.72,-186.52 612.06,-180.42 610.14,-187.15"/>
</a>
</g>
</g>
<!-- Node5&#45;&gt;Node11 -->
<g id="edge12_Node000005_Node000011" class="edge">
<title>Node5&#45;&gt;Node11</title>
<g id="a_edge12_Node000005_Node000011"><a xlink:title=" ">
<path fill="none" stroke="#63b8ff" d="M640.08,-179.38C622.05,-162.34 592.24,-137.34 561.25,-125 420.94,-69.12 235.06,-71.32 166.56,-74.41"/>
<polygon fill="#63b8ff" stroke="#63b8ff" points="637.24,-181.5 646.85,-185.96 642.12,-176.48 637.24,-181.5"/>
</a>
</g>
</g>
<!-- Node7 -->
<g id="Node000007" class="node">
<title>Node7</title>
<g id="a_Node000007"><a xlink:href="game__scene_8c.html#a6a4a6f0408da311dc566eb187e497889" target="_top" xlink:title=" ">
<polygon fill="white" stroke="#666666" points="360,-206.62 227.75,-206.62 227.75,-187.38 360,-187.38 360,-206.62"/>
<text xml:space="preserve" text-anchor="middle" x="293.88" y="-193.12" font-family="Helvetica,sans-Serif" font-size="10.00">PGB_LibraryConfirmModal</text>
</a>
</g>
</g>
<!-- Node6&#45;&gt;Node7 -->
<g id="edge6_Node000006_Node000007" class="edge">
<title>Node6&#45;&gt;Node7</title>
<g id="a_edge6_Node000006_Node000007"><a xlink:title=" ">
<path fill="none" stroke="#63b8ff" d="M430.03,-197C408.17,-197 383.05,-197 360.44,-197"/>
<polygon fill="#63b8ff" stroke="#63b8ff" points="429.96,-200.5 439.96,-197 429.96,-193.5 429.96,-200.5"/>
</a>
</g>
</g>
<!-- Node8 -->
<g id="Node000008" class="node">
<title>Node8</title>
<g id="a_Node000008"><a xlink:href="game__scene_8c.html#a113df24bb94bafcdbb9235ec8648e02f" target="_top" xlink:title=" ">
<polygon fill="white" stroke="#666666" points="173,-206.62 104.5,-206.62 104.5,-187.38 173,-187.38 173,-206.62"/>
<text xml:space="preserve" text-anchor="middle" x="138.75" y="-193.12" font-family="Helvetica,sans-Serif" font-size="10.00">__section__</text>
</a>
</g>
</g>
<!-- Node7&#45;&gt;Node8 -->
<g id="edge7_Node000007_Node000008" class="edge">
<title>Node7&#45;&gt;Node8</title>
<g id="a_edge7_Node000007_Node000008"><a xlink:title=" ">
<path fill="none" stroke="#63b8ff" d="M216.03,-197C200.98,-197 185.96,-197 173.27,-197"/>
<polygon fill="#63b8ff" stroke="#63b8ff" points="215.98,-200.5 225.98,-197 215.98,-193.5 215.98,-200.5"/>
</a>
</g>
</g>
<!-- Node10 -->
<g id="Node000010" class="node">
<title>Node10</title>
<g id="a_Node000010"><a xlink:href="image__conversion__scene_8c.html#aa3559936491ddf78b9cf06fcbdd32d22" target="_top" xlink:title=" ">
<polygon fill="white" stroke="#666666" points="378.75,-151.62 209,-151.62 209,-132.38 378.75,-132.38 378.75,-151.62"/>
<text xml:space="preserve" text-anchor="middle" x="293.88" y="-138.12" font-family="Helvetica,sans-Serif" font-size="10.00">PGB_ImageConversionScene_new</text>
</a>
</g>
</g>
<!-- Node9&#45;&gt;Node10 -->
<g id="edge9_Node000009_Node000010" class="edge">
<title>Node9&#45;&gt;Node10</title>
<g id="a_edge9_Node000009_Node000010"><a xlink:title=" ">
<path fill="none" stroke="#63b8ff" d="M402.94,-145.94C395.07,-145.65 387.09,-145.36 379.22,-145.07"/>
<polygon fill="#63b8ff" stroke="#63b8ff" points="402.73,-149.43 412.85,-146.3 402.99,-142.44 402.73,-149.43"/>
</a>
</g>
</g>
<!-- Node10&#45;&gt;Node11 -->
<g id="edge10_Node000010_Node000011" class="edge">
<title>Node10&#45;&gt;Node11</title>
<g id="a_edge10_Node000010_Node000011"><a xlink:title=" ">
<path fill="none" stroke="#63b8ff" d="M252.34,-128.07C238.46,-123.03 222.92,-117.07 209,-111 191.46,-103.36 172.08,-93.42 158.28,-86.09"/>
<polygon fill="#63b8ff" stroke="#63b8ff" points="251.03,-131.32 261.62,-131.4 253.39,-124.73 251.03,-131.32"/>
</a>
</g>
</g>
<!-- Node12 -->
<g id="Node000012" class="node">
<title>Node12</title>
<g id="a_Node000012"><a xlink:href="main_8c.html#a77034286b8c64d0735c69535c5e9b732" target="_top" xlink:title=" ">
<polygon fill="white" stroke="#666666" points="68.5,-85.62 0,-85.62 0,-66.38 68.5,-66.38 68.5,-85.62"/>
<text xml:space="preserve" text-anchor="middle" x="34.25" y="-72.12" font-family="Helvetica,sans-Serif" font-size="10.00">__section__</text>
</a>
</g>
</g>
<!-- Node11&#45;&gt;Node12 -->
<g id="edge11_Node000011_Node000012" class="edge">
<title>Node11&#45;&gt;Node12</title>
<g id="a_edge11_Node000011_Node000012"><a xlink:title=" ">
<path fill="none" stroke="#63b8ff" d="M99.48,-76C89.46,-76 78.74,-76 68.97,-76"/>
<polygon fill="#63b8ff" stroke="#63b8ff" points="99.31,-79.5 109.31,-76 99.31,-72.5 99.31,-79.5"/>
</a>
</g>
</g>
<!-- Node14 -->
<g id="Node000014" class="node">
<title>Node14</title>
<g id="a_Node000014"><a xlink:href="game__scene_8c.html#a963582a448d4e4e2953e59d75b9d9f64" target="_top" xlink:title=" ">
<polygon fill="white" stroke="#666666" points="1770.5,-209.62 1652.5,-209.62 1652.5,-190.38 1770.5,-190.38 1770.5,-209.62"/>
<text xml:space="preserve" text-anchor="middle" x="1711.5" y="-196.12" font-family="Helvetica,sans-Serif" font-size="10.00">PGB_GameScene_free</text>
</a>
</g>
</g>
<!-- Node13&#45;&gt;Node14 -->
<g id="edge15_Node000013_Node000014" class="edge">
<title>Node13&#45;&gt;Node14</title>
<g id="a_edge15_Node000013_Node000014"><a xlink:title=" ">
<path fill="none" stroke="#63b8ff" d="M1825.35,-174.55C1803.2,-179.55 1778.05,-185.22 1757.13,-189.94"/>
<polygon fill="#63b8ff" stroke="#63b8ff" points="1825.83,-178.03 1834.81,-172.42 1824.29,-171.2 1825.83,-178.03"/>
</a>
</g>
</g>
<!-- Node15 -->
<g id="Node000015" class="node">
<title>Node15</title>
<g id="a_Node000015"><a xlink:href="game__scene_8c.html#ab923ed4c6ccad95026e85e252071716d" target="_top" xlink:title=" ">
<polygon fill="white" stroke="#666666" points="1598.12,-247.62 1478.62,-247.62 1478.62,-228.38 1598.12,-228.38 1598.12,-247.62"/>
<text xml:space="preserve" text-anchor="middle" x="1538.38" y="-234.12" font-family="Helvetica,sans-Serif" font-size="10.00">PGB_GameScene_new</text>
</a>
</g>
</g>
<!-- Node13&#45;&gt;Node15 -->
<g id="edge19_Node000013_Node000015" class="edge">
<title>Node13&#45;&gt;Node15</title>
<g id="a_edge19_Node000013_Node000015"><a xlink:title=" ">
<path fill="none" stroke="#63b8ff" d="M1857.94,-178.29C1837.56,-191.76 1806.49,-210.06 1776.5,-219 1717.73,-236.52 1647.35,-240.1 1598.61,-240.03"/>
<polygon fill="#63b8ff" stroke="#63b8ff" points="1859.73,-181.31 1866.05,-172.8 1855.81,-175.51 1859.73,-181.31"/>
</a>
</g>
</g>
<!-- Node17 -->
<g id="Node000017" class="node">
<title>Node17</title>
<g id="a_Node000017"><a xlink:href="settings__scene_8c.html#a7a2a61c35c00f7990b0a85f16e5c9975" target="_top" xlink:title=" ">
<polygon fill="white" stroke="#666666" points="1251.5,-207.62 1122.25,-207.62 1122.25,-188.38 1251.5,-188.38 1251.5,-207.62"/>
<text xml:space="preserve" text-anchor="middle" x="1186.88" y="-194.12" font-family="Helvetica,sans-Serif" font-size="10.00">PGB_SettingsScene_new</text>
</a>
</g>
</g>
<!-- Node13&#45;&gt;Node17 -->
<g id="edge20_Node000013_Node000017" class="edge">
<title>Node13&#45;&gt;Node17</title>
<g id="a_edge20_Node000013_Node000017"><a xlink:title=" ">
<path fill="none" stroke="#63b8ff" d="M1800.61,-166.18C1661.39,-173.41 1378.17,-188.12 1251.54,-194.69"/>
<polygon fill="#63b8ff" stroke="#63b8ff" points="1800.69,-169.68 1810.49,-165.66 1800.33,-162.69 1800.69,-169.68"/>
</a>
</g>
</g>
<!-- Node19 -->
<g id="Node000019" class="node">
<title>Node19</title>
<g id="a_Node000019"><a xlink:href="settings__scene_8c.html#ab2a60c1877e6e9ec3e98c502666c64c2" target="_top" xlink:title=" ">
<polygon fill="white" stroke="#666666" points="1430.25,-149.62 1289.75,-149.62 1289.75,-130.38 1430.25,-130.38 1430.25,-149.62"/>
<text xml:space="preserve" text-anchor="middle" x="1360" y="-136.12" font-family="Helvetica,sans-Serif" font-size="10.00">PGB_SettingsScene_update</text>
</a>
</g>
</g>
<!-- Node13&#45;&gt;Node19 -->
<g id="edge23_Node000013_Node000019" class="edge">
<title>Node13&#45;&gt;Node19</title>
<g id="a_edge23_Node000013_Node000019"><a xlink:title=" ">
<path fill="none" stroke="#63b8ff" d="M1858.79,-145.36C1838.52,-131.22 1807.15,-111.85 1776.5,-103 1643.98,-64.74 1601.38,-67.32 1466.25,-95 1433.74,-101.66 1398.85,-118.78 1378.53,-129.88"/>
<polygon fill="#63b8ff" stroke="#63b8ff" points="1856.65,-148.14 1866.82,-151.12 1860.73,-142.45 1856.65,-148.14"/>
</a>
</g>
</g>
<!-- Node20 -->
<g id="Node000020" class="node">
<title>Node20</title>
<g id="a_Node000020"><a xlink:href="preferences_8c.html#aa547383a93cb50b718912336cddccd12" target="_top" xlink:title=" ">
<polygon fill="white" stroke="#666666" points="1580.88,-47.62 1495.88,-47.62 1495.88,-28.38 1580.88,-28.38 1580.88,-47.62"/>
<text xml:space="preserve" text-anchor="middle" x="1538.38" y="-34.12" font-family="Helvetica,sans-Serif" font-size="10.00">preferences_init</text>
</a>
</g>
</g>
<!-- Node13&#45;&gt;Node20 -->
<g id="edge25_Node000013_Node000020" class="edge">
<title>Node13&#45;&gt;Node20</title>
<g id="a_edge25_Node000013_Node000020"><a xlink:title=" ">
<path fill="none" stroke="#63b8ff" d="M1867.69,-143.12C1849.9,-119.58 1816.01,-80.22 1776.5,-62 1713.19,-32.8 1630.49,-31.64 1581.35,-34.26"/>
<polygon fill="#63b8ff" stroke="#63b8ff" points="1864.66,-144.92 1873.4,-150.91 1870.31,-140.78 1864.66,-144.92"/>
</a>
</g>
</g>
<!-- Node21 -->
<g id="Node000021" class="node">
<title>Node21</title>
<g id="a_Node000021"><a xlink:href="preferences_8c.html#a4978d89645874b14ef5d1db49c0a465f" target="_top" xlink:title=" ">
<polygon fill="white" stroke="#666666" points="1776.5,-131.62 1646.5,-131.62 1646.5,-112.38 1776.5,-112.38 1776.5,-131.62"/>
<text xml:space="preserve" text-anchor="middle" x="1711.5" y="-118.12" font-family="Helvetica,sans-Serif" font-size="10.00">preferences_save_to_disk</text>
</a>
</g>
</g>
<!-- Node13&#45;&gt;Node21 -->
<g id="edge27_Node000013_Node000021" class="edge">
<title>Node13&#45;&gt;Node21</title>
<g id="a_edge27_Node000013_Node000021"><a xlink:title=" ">
<path fill="none" stroke="#63b8ff" d="M1827.34,-149.26C1803.96,-143.71 1776.96,-137.3 1755.01,-132.09"/>
<polygon fill="#63b8ff" stroke="#63b8ff" points="1826.47,-152.65 1837.01,-151.56 1828.09,-145.84 1826.47,-152.65"/>
</a>
</g>
</g>
<!-- Node14&#45;&gt;Node15 -->
<g id="edge16_Node000014_Node000015" class="edge">
<title>Node14&#45;&gt;Node15</title>
<g id="a_edge16_Node000014_Node000015"><a xlink:title=" ">
<path fill="none" stroke="#63b8ff" d="M1653.98,-212.55C1631.49,-217.55 1605.95,-223.22 1584.7,-227.94"/>
<polygon fill="#63b8ff" stroke="#63b8ff" points="1654.61,-216 1663.61,-210.41 1653.09,-209.16 1654.61,-216"/>
</a>
</g>
</g>
<!-- Node16 -->
<g id="Node000016" class="node">
<title>Node16</title>
<g id="a_Node000016"><a xlink:href="library__scene_8c.html#a0728002045c9cbbd68bdd34897b28da6" target="_top" xlink:title=" ">
<polygon fill="white" stroke="#666666" points="1253.75,-361.62 1120,-361.62 1120,-342.38 1253.75,-342.38 1253.75,-361.62"/>
<text xml:space="preserve" text-anchor="middle" x="1186.88" y="-348.12" font-family="Helvetica,sans-Serif" font-size="10.00">PGB_LibraryScene_update</text>
</a>
</g>
</g>
<!-- Node15&#45;&gt;Node16 -->
<g id="edge17_Node000015_Node000016" class="edge">
<title>Node15&#45;&gt;Node16</title>
<g id="a_edge17_Node000015_Node000016"><a xlink:title=" ">
<path fill="none" stroke="#63b8ff" d="M1518.28,-255.77C1498.04,-273.53 1464.35,-300.13 1430.25,-314 1373.53,-337.07 1304.09,-346.21 1254.09,-349.79"/>
<polygon fill="#63b8ff" stroke="#63b8ff" points="1520.61,-258.39 1525.71,-249.1 1515.93,-253.18 1520.61,-258.39"/>
</a>
</g>
</g>
<!-- Node16&#45;&gt;Node5 -->
<g id="edge18_Node000016_Node000005" class="edge">
<title>Node16&#45;&gt;Node5</title>
<g id="a_edge18_Node000016_Node000005"><a xlink:title=" ">
<path fill="none" stroke="#63b8ff" d="M1140.76,-338.72C1037.39,-308.28 785.25,-234.03 693.55,-207.03"/>
<polygon fill="#63b8ff" stroke="#63b8ff" points="1139.71,-342.05 1150.29,-341.52 1141.69,-335.34 1139.71,-342.05"/>
</a>
</g>
</g>
<!-- Node18 -->
<g id="Node000018" class="node">
<title>Node18</title>
<g id="a_Node000018"><a xlink:href="library__scene_8c.html#ae9da6d35e322c1a0896926f6a66c66f1" target="_top" xlink:title=" ">
<polygon fill="white" stroke="#666666" points="1084,-207.62 920.25,-207.62 920.25,-188.38 1084,-188.38 1084,-207.62"/>
<text xml:space="preserve" text-anchor="middle" x="1002.12" y="-194.12" font-family="Helvetica,sans-Serif" font-size="10.00">PGB_LibraryScene_showSettings</text>
</a>
</g>
</g>
<!-- Node17&#45;&gt;Node18 -->
<g id="edge21_Node000017_Node000018" class="edge">
<title>Node17&#45;&gt;Node18</title>
<g id="a_edge21_Node000017_Node000018"><a xlink:title=" ">
<path fill="none" stroke="#63b8ff" d="M1110.68,-198C1102,-198 1093.11,-198 1084.35,-198"/>
<polygon fill="#63b8ff" stroke="#63b8ff" points="1110.44,-201.5 1120.44,-198 1110.44,-194.5 1110.44,-201.5"/>
</a>
</g>
</g>
<!-- Node18&#45;&gt;Node4 -->
<g id="edge22_Node000018_Node000004" class="edge">
<title>Node18&#45;&gt;Node4</title>
<g id="a_edge22_Node000018_Node000004"><a xlink:title=" ">
<path fill="none" stroke="#63b8ff" d="M908.43,-198C900.42,-198 892.43,-198 884.73,-198"/>
<polygon fill="#63b8ff" stroke="#63b8ff" points="908.24,-201.5 918.24,-198 908.24,-194.5 908.24,-201.5"/>
</a>
</g>
</g>
<!-- Node19&#45;&gt;Node17 -->
<g id="edge24_Node000019_Node000017" class="edge">
<title>Node19&#45;&gt;Node17</title>
<g id="a_edge24_Node000019_Node000017"><a xlink:title=" ">
<path fill="none" stroke="#63b8ff" d="M1318.33,-153.78C1287.38,-164.27 1245.5,-178.47 1217.63,-187.92"/>
<polygon fill="#63b8ff" stroke="#63b8ff" points="1319.41,-157.11 1327.76,-150.59 1317.16,-150.48 1319.41,-157.11"/>
</a>
</g>
</g>
<!-- Node20&#45;&gt;Node11 -->
<g id="edge26_Node000020_Node000011" class="edge">
<title>Node20&#45;&gt;Node11</title>
<g id="a_edge26_Node000020_Node000011"><a xlink:title=" ">
<path fill="none" stroke="#63b8ff" d="M1484.12,-42.7C1415.64,-48.32 1293,-57 1187.88,-57 1187.88,-57 1187.88,-57 487,-57 367.45,-57 225.1,-68.37 166.74,-73.52"/>
<polygon fill="#63b8ff" stroke="#63b8ff" points="1484.27,-46.2 1493.94,-41.88 1483.69,-39.22 1484.27,-46.2"/>
</a>
</g>
</g>
<!-- Node21&#45;&gt;Node19 -->
<g id="edge30_Node000021_Node000019" class="edge">
<title>Node21&#45;&gt;Node19</title>
<g id="a_edge30_Node000021_Node000019"><a xlink:title=" ">
<path fill="none" stroke="#63b8ff" d="M1660.64,-134.59C1644.72,-138.03 1626.97,-141.29 1610.5,-143 1549.96,-149.29 1480.72,-147.77 1430.57,-145.12"/>
<polygon fill="#63b8ff" stroke="#63b8ff" points="1661.39,-138.01 1670.38,-132.4 1659.85,-131.18 1661.39,-138.01"/>
</a>
</g>
</g>
<!-- Node21&#45;&gt;Node20 -->
<g id="edge31_Node000021_Node000020" class="edge">
<title>Node21&#45;&gt;Node20</title>
<g id="a_edge31_Node000021_Node000020"><a xlink:title=" ">
<path fill="none" stroke="#63b8ff" d="M1680.18,-107.12C1645.55,-90.12 1589.82,-62.76 1559.92,-48.08"/>
<polygon fill="#63b8ff" stroke="#63b8ff" points="1678.32,-110.1 1688.84,-111.37 1681.4,-103.82 1678.32,-110.1"/>
</a>
</g>
</g>
<!-- Node22 -->
<g id="Node000022" class="node">
<title>Node22</title>
<g id="a_Node000022"><a xlink:href="settings__scene_8c.html#a5cfb11a3e4e6ecfc7430e17d5e8ebc10" target="_top" xlink:title=" ">
<polygon fill="white" stroke="#666666" points="1610.5,-134.25 1466.25,-134.25 1466.25,-103.75 1610.5,-103.75 1610.5,-134.25"/>
<text xml:space="preserve" text-anchor="start" x="1474.25" y="-120.75" font-family="Helvetica,sans-Serif" font-size="10.00">PGB_SettingsScene_attempt</text>
<text xml:space="preserve" text-anchor="middle" x="1538.38" y="-109.5" font-family="Helvetica,sans-Serif" font-size="10.00">Dismiss</text>
</a>
</g>
</g>
<!-- Node21&#45;&gt;Node22 -->
<g id="edge28_Node000021_Node000022" class="edge">
<title>Node21&#45;&gt;Node22</title>
<g id="a_edge28_Node000021_Node000022"><a xlink:title=" ">
<path fill="none" stroke="#63b8ff" d="M1635.03,-120.68C1626.99,-120.54 1618.83,-120.39 1610.83,-120.25"/>
<polygon fill="#63b8ff" stroke="#63b8ff" points="1634.72,-124.17 1644.78,-120.85 1634.84,-117.17 1634.72,-124.17"/>
</a>
</g>
</g>
<!-- Node22&#45;&gt;Node19 -->
<g id="edge29_Node000022_Node000019" class="edge">
<title>Node22&#45;&gt;Node19</title>
<g id="a_edge29_Node000022_Node000019"><a xlink:title=" ">
<path fill="none" stroke="#63b8ff" d="M1454.6,-128.86C1446.57,-129.81 1438.47,-130.78 1430.58,-131.71"/>
<polygon fill="#63b8ff" stroke="#63b8ff" points="1454.87,-132.35 1464.39,-127.69 1454.04,-125.4 1454.87,-132.35"/>
</a>
</g>
</g>
<!-- Node24 -->
<g id="Node000024" class="node">
<title>Node24</title>
<g id="a_Node000024"><a xlink:href="version_8c.html#a15f9da9138cbc84cf2d686857683fa6e" target="_top" xlink:title=" ">
<polygon fill="white" stroke="#666666" points="1760,-361.62 1663,-361.62 1663,-342.38 1760,-342.38 1760,-361.62"/>
<text xml:space="preserve" text-anchor="middle" x="1711.5" y="-348.12" font-family="Helvetica,sans-Serif" font-size="10.00">read_local_version</text>
</a>
</g>
</g>
<!-- Node23&#45;&gt;Node24 -->
<g id="edge33_Node000023_Node000024" class="edge">
<title>Node23&#45;&gt;Node24</title>
<g id="a_edge33_Node000023_Node000024"><a xlink:title=" ">
<path fill="none" stroke="#63b8ff" d="M1824.2,-339.4C1803.51,-341.74 1780.34,-344.35 1760.49,-346.59"/>
<polygon fill="#63b8ff" stroke="#63b8ff" points="1824.35,-342.91 1833.9,-338.31 1823.57,-335.95 1824.35,-342.91"/>
</a>
</g>
</g>
<!-- Node25 -->
<g id="Node000025" class="node">
<title>Node25</title>
<g id="a_Node000025"><a xlink:href="version_8c.html#a538d156e8a64fa13958cc535e122d9ba" target="_top" xlink:title=" ">
<polygon fill="white" stroke="#666666" points="1587.62,-420.62 1489.12,-420.62 1489.12,-401.38 1587.62,-401.38 1587.62,-420.62"/>
<text xml:space="preserve" text-anchor="middle" x="1538.38" y="-407.12" font-family="Helvetica,sans-Serif" font-size="10.00">check_for_updates</text>
</a>
</g>
</g>
<!-- Node24&#45;&gt;Node25 -->
<g id="edge34_Node000024_Node000025" class="edge">
<title>Node24&#45;&gt;Node25</title>
<g id="a_edge34_Node000024_Node000025"><a xlink:title=" ">
<path fill="none" stroke="#63b8ff" d="M1670.94,-365.64C1639.68,-376.42 1596.75,-391.22 1568.55,-400.94"/>
<polygon fill="#63b8ff" stroke="#63b8ff" points="1671.73,-369.07 1680.04,-362.5 1669.45,-362.45 1671.73,-369.07"/>
</a>
</g>
</g>
<!-- Node27 -->
<g id="Node000027" class="node">
<title>Node27</title>
<g id="a_Node000027"><a xlink:href="version_8c.html#a41758f76e8a3f185811180a3860583fb" target="_top" xlink:title=" ">
<polygon fill="white" stroke="#666666" points="1589.12,-361.62 1487.62,-361.62 1487.62,-342.38 1589.12,-342.38 1589.12,-361.62"/>
<text xml:space="preserve" text-anchor="middle" x="1538.38" y="-348.12" font-family="Helvetica,sans-Serif" font-size="10.00">get_current_version</text>
</a>
</g>
</g>
<!-- Node24&#45;&gt;Node27 -->
<g id="edge37_Node000024_Node000027" class="edge">
<title>Node24&#45;&gt;Node27</title>
<g id="a_edge37_Node000024_Node000027"><a xlink:title=" ">
<path fill="none" stroke="#63b8ff" d="M1651.54,-352C1631.33,-352 1608.92,-352 1589.47,-352"/>
<polygon fill="#63b8ff" stroke="#63b8ff" points="1651.32,-355.5 1661.32,-352 1651.32,-348.5 1651.32,-355.5"/>
</a>
</g>
</g>
<!-- Node26 -->
<g id="Node000026" class="node">
<title>Node26</title>
<g id="a_Node000026"><a xlink:href="version_8c.html#a682d7ece5fc09acfb9192de972cba8f2" target="_top" xlink:title=" ">
<polygon fill="white" stroke="#666666" points="1410,-429.25 1310,-429.25 1310,-398.75 1410,-398.75 1410,-429.25"/>
<text xml:space="preserve" text-anchor="start" x="1318" y="-415.75" font-family="Helvetica,sans-Serif" font-size="10.00">possibly_check_for</text>
<text xml:space="preserve" text-anchor="middle" x="1360" y="-404.5" font-family="Helvetica,sans-Serif" font-size="10.00">_updates</text>
</a>
</g>
</g>
<!-- Node25&#45;&gt;Node26 -->
<g id="edge35_Node000025_Node000026" class="edge">
<title>Node25&#45;&gt;Node26</title>
<g id="a_edge35_Node000025_Node000026"><a xlink:title=" ">
<path fill="none" stroke="#63b8ff" d="M1477.26,-412.02C1455.49,-412.39 1431.17,-412.81 1410.42,-413.16"/>
<polygon fill="#63b8ff" stroke="#63b8ff" points="1477.26,-415.52 1487.2,-411.85 1477.14,-408.52 1477.26,-415.52"/>
</a>
</g>
</g>
<!-- Node26&#45;&gt;Node16 -->
<g id="edge36_Node000026_Node000016" class="edge">
<title>Node26&#45;&gt;Node16</title>
<g id="a_edge36_Node000026_Node000016"><a xlink:title=" ">
<path fill="none" stroke="#63b8ff" d="M1302.44,-394.52C1298.14,-393 1293.88,-391.48 1289.75,-390 1263.99,-380.73 1234.73,-369.77 1214.2,-362.01"/>
<polygon fill="#63b8ff" stroke="#63b8ff" points="1301.11,-397.76 1311.7,-397.77 1303.42,-391.16 1301.11,-397.76"/>
</a>
</g>
</g>
<!-- Node28 -->
<g id="Node000028" class="node">
<title>Node28</title>
<g id="a_Node000028"><a xlink:href="library__scene_8c.html#ab61f378dd09afd7715687d7917da8d1a" target="_top" xlink:title=" ">
<polygon fill="white" stroke="#666666" points="1405.5,-380.62 1314.5,-380.62 1314.5,-361.38 1405.5,-361.38 1405.5,-380.62"/>
<text xml:space="preserve" text-anchor="middle" x="1360" y="-367.12" font-family="Helvetica,sans-Serif" font-size="10.00">CB_updatecheck</text>
</a>
</g>
</g>
<!-- Node27&#45;&gt;Node28 -->
<g id="edge38_Node000027_Node000028" class="edge">
<title>Node27&#45;&gt;Node28</title>
<g id="a_edge38_Node000027_Node000028"><a xlink:title=" ">
<path fill="none" stroke="#63b8ff" d="M1475.88,-358.62C1452.81,-361.11 1427.05,-363.88 1405.78,-366.18"/>
<polygon fill="#63b8ff" stroke="#63b8ff" points="1476.23,-362.11 1485.8,-357.56 1475.48,-355.15 1476.23,-362.11"/>
</a>
</g>
</g>
<!-- Node29 -->
<g id="Node000029" class="node">
<title>Node29</title>
<g id="a_Node000029"><a xlink:href="credits__scene_8c.html#a365a665934b8a44fd598265734bf1ac6" target="_top" xlink:title=" ">
<polygon fill="white" stroke="#666666" points="1428,-304.62 1292,-304.62 1292,-285.38 1428,-285.38 1428,-304.62"/>
<text xml:space="preserve" text-anchor="middle" x="1360" y="-291.12" font-family="Helvetica,sans-Serif" font-size="10.00">PGB_CreditsScene_update</text>
</a>
</g>
</g>
<!-- Node27&#45;&gt;Node29 -->
<g id="edge40_Node000027_Node000029" class="edge">
<title>Node27&#45;&gt;Node29</title>
<g id="a_edge40_Node000027_Node000029"><a xlink:title=" ">
<path fill="none" stroke="#63b8ff" d="M1495.53,-338.48C1463.79,-328.22 1420.86,-314.34 1392.11,-305.05"/>
<polygon fill="#63b8ff" stroke="#63b8ff" points="1494.22,-341.73 1504.81,-341.48 1496.37,-335.07 1494.22,-341.73"/>
</a>
</g>
</g>
<!-- Node28&#45;&gt;Node16 -->
<g id="edge39_Node000028_Node000016" class="edge">
<title>Node28&#45;&gt;Node16</title>
<g id="a_edge39_Node000028_Node000016"><a xlink:title=" ">
<path fill="none" stroke="#63b8ff" d="M1302.97,-364.78C1287.36,-363.05 1270.25,-361.15 1254.11,-359.35"/>
<polygon fill="#63b8ff" stroke="#63b8ff" points="1302.21,-368.22 1312.53,-365.84 1302.98,-361.26 1302.21,-368.22"/>
</a>
</g>
</g>
<!-- Node29&#45;&gt;Node2 -->
<g id="edge41_Node000029_Node000002" class="edge">
<title>Node29&#45;&gt;Node2</title>
<g id="a_edge41_Node000029_Node000002"><a xlink:title=" ">
<path fill="none" stroke="#63b8ff" d="M1302.48,-282.45C1279.99,-277.45 1254.45,-271.78 1233.2,-267.06"/>
<polygon fill="#63b8ff" stroke="#63b8ff" points="1301.59,-285.84 1312.11,-284.59 1303.11,-279 1301.59,-285.84"/>
</a>
</g>
</g>
</g>
</svg>
