<?xml version="1.0" encoding="UTF-8" standalone="no"?>
<!DOCTYPE svg PUBLIC "-//W3C//DTD SVG 1.1//EN"
 "http://www.w3.org/Graphics/SVG/1.1/DTD/svg11.dtd">
<!-- Generated by graphviz version 13.1.0 (20250701.0955)
 -->
<!-- Title: lua_status Pages: 1 -->
<svg width="297pt" height="101pt"
 viewBox="0.00 0.00 297.00 101.00" xmlns="http://www.w3.org/2000/svg" xmlns:xlink="http://www.w3.org/1999/xlink">
<g id="graph0" class="graph" transform="scale(1 1) rotate(0) translate(4 97.25)">
<title>lua_status</title>
<!-- Node1 -->
<g id="Node000001" class="node">
<title>Node1</title>
<g id="a_Node000001"><a xlink:title=" ">
<polygon fill="#999999" stroke="#666666" points="288.75,-37.25 227.75,-37.25 227.75,-18 288.75,-18 288.75,-37.25"/>
<text xml:space="preserve" text-anchor="middle" x="258.25" y="-23.75" font-family="Helvetica,sans-Serif" font-size="10.00">lua_status</text>
</a>
</g>
</g>
<!-- Node2 -->
<g id="Node000002" class="node">
<title>Node2</title>
<g id="a_Node000002"><a xlink:href="lcorolib_8c.html#abc457c5c23f83972c1b822fdc7c35d01" target="_top" xlink:title=" ">
<polygon fill="white" stroke="#666666" points="182.38,-56.25 123.62,-56.25 123.62,-37 182.38,-37 182.38,-56.25"/>
<text xml:space="preserve" text-anchor="middle" x="153" y="-42.75" font-family="Helvetica,sans-Serif" font-size="10.00">auxstatus</text>
</a>
</g>
</g>
<!-- Node1&#45;&gt;Node2 -->
<g id="edge1_Node000001_Node000002" class="edge">
<title>Node1&#45;&gt;Node2</title>
<g id="a_edge1_Node000001_Node000002"><a xlink:title=" ">
<path fill="none" stroke="#63b8ff" d="M216.08,-35.2C204.91,-37.26 193.05,-39.44 182.73,-41.34"/>
<polygon fill="#63b8ff" stroke="#63b8ff" points="216.7,-38.65 225.9,-33.39 215.43,-31.76 216.7,-38.65"/>
</a>
</g>
</g>
<!-- Node5 -->
<g id="Node000005" class="node">
<title>Node5</title>
<g id="a_Node000005"><a xlink:href="lcorolib_8c.html#a777abb20385a69ce4787f72bd90375a7" target="_top" xlink:title=" ">
<polygon fill="white" stroke="#666666" points="191.75,-19.25 114.25,-19.25 114.25,0 191.75,0 191.75,-19.25"/>
<text xml:space="preserve" text-anchor="middle" x="153" y="-5.75" font-family="Helvetica,sans-Serif" font-size="10.00">luaB_auxwrap</text>
</a>
</g>
</g>
<!-- Node1&#45;&gt;Node5 -->
<g id="edge4_Node000001_Node000005" class="edge">
<title>Node1&#45;&gt;Node5</title>
<g id="a_edge4_Node000001_Node000005"><a xlink:title=" ">
<path fill="none" stroke="#63b8ff" d="M216.05,-20.44C208.07,-19.05 199.76,-17.6 191.89,-16.23"/>
<polygon fill="#63b8ff" stroke="#63b8ff" points="215.44,-23.89 225.89,-22.16 216.64,-16.99 215.44,-23.89"/>
</a>
</g>
</g>
<!-- Node3 -->
<g id="Node000003" class="node">
<title>Node3</title>
<g id="a_Node000003"><a xlink:href="lcorolib_8c.html#a3c6a70201b343432bfeb1f3e09cdde6f" target="_top" xlink:title=" ">
<polygon fill="white" stroke="#666666" points="71.12,-93.25 7.12,-93.25 7.12,-74 71.12,-74 71.12,-93.25"/>
<text xml:space="preserve" text-anchor="middle" x="39.12" y="-79.75" font-family="Helvetica,sans-Serif" font-size="10.00">luaB_close</text>
</a>
</g>
</g>
<!-- Node2&#45;&gt;Node3 -->
<g id="edge2_Node000002_Node000003" class="edge">
<title>Node2&#45;&gt;Node3</title>
<g id="a_edge2_Node000002_Node000003"><a xlink:title=" ">
<path fill="none" stroke="#63b8ff" d="M112.49,-59.69C98.66,-64.27 83.36,-69.33 70.4,-73.61"/>
<polygon fill="#63b8ff" stroke="#63b8ff" points="113.36,-63.09 121.75,-56.63 111.16,-56.45 113.36,-63.09"/>
</a>
</g>
</g>
<!-- Node4 -->
<g id="Node000004" class="node">
<title>Node4</title>
<g id="a_Node000004"><a xlink:href="lcorolib_8c.html#a174dfb2852a7d04964e4a1426fff93f8" target="_top" xlink:title=" ">
<polygon fill="white" stroke="#666666" points="78.25,-56.25 0,-56.25 0,-37 78.25,-37 78.25,-56.25"/>
<text xml:space="preserve" text-anchor="middle" x="39.12" y="-42.75" font-family="Helvetica,sans-Serif" font-size="10.00">luaB_costatus</text>
</a>
</g>
</g>
<!-- Node2&#45;&gt;Node4 -->
<g id="edge3_Node000002_Node000004" class="edge">
<title>Node2&#45;&gt;Node4</title>
<g id="a_edge3_Node000002_Node000004"><a xlink:title=" ">
<path fill="none" stroke="#63b8ff" d="M111.84,-46.62C101,-46.62 89.29,-46.62 78.54,-46.62"/>
<polygon fill="#63b8ff" stroke="#63b8ff" points="111.68,-50.13 121.68,-46.63 111.68,-43.13 111.68,-50.13"/>
</a>
</g>
</g>
<!-- Node6 -->
<g id="Node000006" class="node">
<title>Node6</title>
<g id="a_Node000006"><a xlink:href="lcorolib_8c.html#a1c0429e27f504b08e25f437f733edad1" target="_top" xlink:title=" ">
<polygon fill="white" stroke="#666666" points="75.25,-19.25 3,-19.25 3,0 75.25,0 75.25,-19.25"/>
<text xml:space="preserve" text-anchor="middle" x="39.12" y="-5.75" font-family="Helvetica,sans-Serif" font-size="10.00">luaB_cowrap</text>
</a>
</g>
</g>
<!-- Node5&#45;&gt;Node6 -->
<g id="edge5_Node000005_Node000006" class="edge">
<title>Node5&#45;&gt;Node6</title>
<g id="a_edge5_Node000005_Node000006"><a xlink:title=" ">
<path fill="none" stroke="#63b8ff" d="M102.49,-9.62C93.4,-9.62 84.08,-9.62 75.51,-9.62"/>
<polygon fill="#63b8ff" stroke="#63b8ff" points="102.3,-13.13 112.3,-9.63 102.3,-6.13 102.3,-13.13"/>
</a>
</g>
</g>
</g>
</svg>
