<?xml version="1.0" encoding="UTF-8" standalone="no"?>
<!DOCTYPE svg PUBLIC "-//W3C//DTD SVG 1.1//EN"
 "http://www.w3.org/Graphics/SVG/1.1/DTD/svg11.dtd">
<!-- Generated by graphviz version 13.1.0 (20250701.0955)
 -->
<!-- Title: getupvalref Pages: 1 -->
<svg width="419pt" height="65pt"
 viewBox="0.00 0.00 419.00 65.00" xmlns="http://www.w3.org/2000/svg" xmlns:xlink="http://www.w3.org/1999/xlink">
<g id="graph0" class="graph" transform="scale(1 1) rotate(0) translate(4 61.25)">
<title>getupvalref</title>
<!-- Node1 -->
<g id="Node000001" class="node">
<title>Node1</title>
<g id="a_Node000001"><a xlink:title=" ">
<polygon fill="#999999" stroke="#666666" points="410.5,-38.25 346.5,-38.25 346.5,-19 410.5,-19 410.5,-38.25"/>
<text xml:space="preserve" text-anchor="middle" x="378.5" y="-24.75" font-family="Helvetica,sans-Serif" font-size="10.00">getupvalref</text>
</a>
</g>
</g>
<!-- Node2 -->
<g id="Node000002" class="node">
<title>Node2</title>
<g id="a_Node000002"><a xlink:href="lapi_8c.html#ab4051dd78d060726b49988a7b2238f16" target="_top" xlink:title=" ">
<polygon fill="white" stroke="#666666" points="310.5,-57.25 235.25,-57.25 235.25,-38 310.5,-38 310.5,-57.25"/>
<text xml:space="preserve" text-anchor="middle" x="272.88" y="-43.75" font-family="Helvetica,sans-Serif" font-size="10.00">lua_upvalueid</text>
</a>
</g>
</g>
<!-- Node1&#45;&gt;Node2 -->
<g id="edge1_Node000001_Node000002" class="edge">
<title>Node1&#45;&gt;Node2</title>
<g id="a_edge1_Node000001_Node000002"><a xlink:title=" ">
<path fill="none" stroke="#63b8ff" d="M334.83,-36.45C326.92,-37.9 318.71,-39.4 310.97,-40.82"/>
<polygon fill="#63b8ff" stroke="#63b8ff" points="335.43,-39.9 344.64,-34.65 334.17,-33.01 335.43,-39.9"/>
</a>
</g>
</g>
<!-- Node6 -->
<g id="Node000006" class="node">
<title>Node6</title>
<g id="a_Node000006"><a xlink:href="lapi_8c.html#a9ce27da3bd8232ac4a0d383e924a0c7a" target="_top" xlink:title=" ">
<polygon fill="white" stroke="#666666" points="199.25,-19.25 116.5,-19.25 116.5,0 199.25,0 199.25,-19.25"/>
<text xml:space="preserve" text-anchor="middle" x="157.88" y="-5.75" font-family="Helvetica,sans-Serif" font-size="10.00">lua_upvaluejoin</text>
</a>
</g>
</g>
<!-- Node1&#45;&gt;Node6 -->
<g id="edge5_Node000001_Node000006" class="edge">
<title>Node1&#45;&gt;Node6</title>
<g id="a_edge5_Node000001_Node000006"><a xlink:title=" ">
<path fill="none" stroke="#63b8ff" d="M334.9,-24.92C295.7,-21.52 237.98,-16.5 199.44,-13.15"/>
<polygon fill="#63b8ff" stroke="#63b8ff" points="334.4,-28.39 344.67,-25.77 335.01,-21.42 334.4,-28.39"/>
</a>
</g>
</g>
<!-- Node3 -->
<g id="Node000003" class="node">
<title>Node3</title>
<g id="a_Node000003"><a xlink:href="ldblib_8c.html#a50755daee98335f9fd9317ab6ff7e1ce" target="_top" xlink:title=" ">
<polygon fill="white" stroke="#666666" points="190.62,-56.25 125.12,-56.25 125.12,-37 190.62,-37 190.62,-56.25"/>
<text xml:space="preserve" text-anchor="middle" x="157.88" y="-42.75" font-family="Helvetica,sans-Serif" font-size="10.00">checkupval</text>
</a>
</g>
</g>
<!-- Node2&#45;&gt;Node3 -->
<g id="edge2_Node000002_Node000003" class="edge">
<title>Node2&#45;&gt;Node3</title>
<g id="a_edge2_Node000002_Node000003"><a xlink:title=" ">
<path fill="none" stroke="#63b8ff" d="M223.62,-47.2C212.61,-47.1 201.17,-47 191.02,-46.91"/>
<polygon fill="#63b8ff" stroke="#63b8ff" points="223.33,-50.7 233.36,-47.28 223.39,-43.7 223.33,-50.7"/>
</a>
</g>
</g>
<!-- Node4 -->
<g id="Node000004" class="node">
<title>Node4</title>
<g id="a_Node000004"><a xlink:href="ldblib_8c.html#ade86533c6188a941aae1be4396a20393" target="_top" xlink:title=" ">
<polygon fill="white" stroke="#666666" points="76.75,-56.25 3.75,-56.25 3.75,-37 76.75,-37 76.75,-56.25"/>
<text xml:space="preserve" text-anchor="middle" x="40.25" y="-42.75" font-family="Helvetica,sans-Serif" font-size="10.00">db_upvalueid</text>
</a>
</g>
</g>
<!-- Node3&#45;&gt;Node4 -->
<g id="edge3_Node000003_Node000004" class="edge">
<title>Node3&#45;&gt;Node4</title>
<g id="a_edge3_Node000003_Node000004"><a xlink:title=" ">
<path fill="none" stroke="#63b8ff" d="M113.47,-46.62C101.42,-46.62 88.49,-46.62 76.94,-46.62"/>
<polygon fill="#63b8ff" stroke="#63b8ff" points="113.15,-50.13 123.15,-46.63 113.15,-43.13 113.15,-50.13"/>
</a>
</g>
</g>
<!-- Node5 -->
<g id="Node000005" class="node">
<title>Node5</title>
<g id="a_Node000005"><a xlink:href="ldblib_8c.html#acd80bdb3262b3580eb6955f6f3eb3549" target="_top" xlink:title=" ">
<polygon fill="white" stroke="#666666" points="80.5,-19.25 0,-19.25 0,0 80.5,0 80.5,-19.25"/>
<text xml:space="preserve" text-anchor="middle" x="40.25" y="-5.75" font-family="Helvetica,sans-Serif" font-size="10.00">db_upvaluejoin</text>
</a>
</g>
</g>
<!-- Node3&#45;&gt;Node5 -->
<g id="edge4_Node000003_Node000005" class="edge">
<title>Node3&#45;&gt;Node5</title>
<g id="a_edge4_Node000003_Node000005"><a xlink:title=" ">
<path fill="none" stroke="#63b8ff" d="M114.55,-33.08C100.75,-28.66 85.68,-23.84 72.81,-19.72"/>
<polygon fill="#63b8ff" stroke="#63b8ff" points="113.25,-36.34 123.84,-36.05 115.38,-29.67 113.25,-36.34"/>
</a>
</g>
</g>
<!-- Node6&#45;&gt;Node5 -->
<g id="edge6_Node000006_Node000005" class="edge">
<title>Node6&#45;&gt;Node5</title>
<g id="a_edge6_Node000006_Node000005"><a xlink:title=" ">
<path fill="none" stroke="#63b8ff" d="M104.6,-9.62C96.63,-9.62 88.51,-9.62 80.87,-9.62"/>
<polygon fill="#63b8ff" stroke="#63b8ff" points="104.6,-13.13 114.6,-9.63 104.6,-6.13 104.6,-13.13"/>
</a>
</g>
</g>
</g>
</svg>
