<?xml version="1.0" encoding="UTF-8" standalone="no"?>
<!DOCTYPE svg PUBLIC "-//W3C//DTD SVG 1.1//EN"
 "http://www.w3.org/Graphics/SVG/1.1/DTD/svg11.dtd">
<!-- Generated by graphviz version 13.1.0 (20250701.0955)
 -->
<!-- Title: lua_seti Pages: 1 -->
<svg width="384pt" height="193pt"
 viewBox="0.00 0.00 384.00 193.00" xmlns="http://www.w3.org/2000/svg" xmlns:xlink="http://www.w3.org/1999/xlink">

<svg id="main" version="1.1" xmlns="http://www.w3.org/2000/svg" xmlns:xlink="http://www.w3.org/1999/xlink" xml:space="preserve">

<style type="text/css"><![CDATA[
.node, .edge {opacity: 0.7;}
.node.selected, .edge.selected {opacity: 1;}
.edge:hover path { stroke: red; }
.edge:hover polygon { stroke: red; fill: red; }
]]></style>
<script type="application/ecmascript" xlink:href="svg.min.js"/>
<svg id="graph" class="graph">
<g id="graph0" class="graph" transform="scale(1 1) rotate(0) translate(4 189.25)">
<title>lua_seti</title>
<!-- Node1 -->
<g id="Node000001" class="node">
<title>Node1</title>
<g id="a_Node000001"><a xlink:title=" ">
<polygon fill="#999999" stroke="#666666" points="376.25,-93.25 326.5,-93.25 326.5,-74 376.25,-74 376.25,-93.25"/>
<text xml:space="preserve" text-anchor="middle" x="351.38" y="-79.75" font-family="Helvetica,sans-Serif" font-size="10.00">lua_seti</text>
</a>
</g>
</g>
<!-- Node2 -->
<g id="Node000002" class="node">
<title>Node2</title>
<g id="a_Node000002"><a xlink:href="ltablib_8c.html#a66d39e7dbcc639daedcc8618fd2a18e1" target="_top" xlink:title=" ">
<polygon fill="white" stroke="#666666" points="282.25,-167.25 247.5,-167.25 247.5,-148 282.25,-148 282.25,-167.25"/>
<text xml:space="preserve" text-anchor="middle" x="264.88" y="-153.75" font-family="Helvetica,sans-Serif" font-size="10.00">set2</text>
</a>
</g>
</g>
<!-- Node1&#45;&gt;Node2 -->
<g id="edge1_Node000001_Node000002" class="edge">
<title>Node1&#45;&gt;Node2</title>
<g id="a_edge1_Node000001_Node000002"><a xlink:title=" ">
<path fill="none" stroke="#63b8ff" d="M332.52,-101.4C320.88,-112.72 305.18,-127.47 290.5,-139.62 287.24,-142.33 283.61,-145.1 280.16,-147.63"/>
<polygon fill="#63b8ff" stroke="#63b8ff" points="334.78,-104.09 339.46,-94.58 329.88,-99.09 334.78,-104.09"/>
</a>
</g>
</g>
<!-- Node6 -->
<g id="Node000006" class="node">
<title>Node6</title>
<g id="a_Node000006"><a xlink:href="ltablib_8c.html#a214ed6966e2b1b4c376ab0de0d09032e" target="_top" xlink:title=" ">
<polygon fill="white" stroke="#666666" points="286.38,-130.25 243.38,-130.25 243.38,-111 286.38,-111 286.38,-130.25"/>
<text xml:space="preserve" text-anchor="middle" x="264.88" y="-116.75" font-family="Helvetica,sans-Serif" font-size="10.00">tinsert</text>
</a>
</g>
</g>
<!-- Node1&#45;&gt;Node6 -->
<g id="edge7_Node000001_Node000006" class="edge">
<title>Node1&#45;&gt;Node6</title>
<g id="a_edge7_Node000001_Node000006"><a xlink:title=" ">
<path fill="none" stroke="#63b8ff" d="M316.98,-98.25C306.74,-102.73 295.77,-107.54 286.63,-111.54"/>
<polygon fill="#63b8ff" stroke="#63b8ff" points="318.14,-101.56 325.9,-94.34 315.33,-95.15 318.14,-101.56"/>
</a>
</g>
</g>
<!-- Node7 -->
<g id="Node000007" class="node">
<title>Node7</title>
<g id="a_Node000007"><a xlink:href="ltablib_8c.html#a2206b11cc9a180fbc33aabb81308fd74" target="_top" xlink:title=" ">
<polygon fill="white" stroke="#666666" points="286.38,-93.25 243.38,-93.25 243.38,-74 286.38,-74 286.38,-93.25"/>
<text xml:space="preserve" text-anchor="middle" x="264.88" y="-79.75" font-family="Helvetica,sans-Serif" font-size="10.00">tmove</text>
</a>
</g>
</g>
<!-- Node1&#45;&gt;Node7 -->
<g id="edge8_Node000001_Node000007" class="edge">
<title>Node1&#45;&gt;Node7</title>
<g id="a_edge8_Node000001_Node000007"><a xlink:title=" ">
<path fill="none" stroke="#63b8ff" d="M315.03,-83.62C305.41,-83.62 295.3,-83.62 286.76,-83.62"/>
<polygon fill="#63b8ff" stroke="#63b8ff" points="314.87,-87.13 324.87,-83.63 314.87,-80.13 314.87,-87.13"/>
</a>
</g>
</g>
<!-- Node8 -->
<g id="Node000008" class="node">
<title>Node8</title>
<g id="a_Node000008"><a xlink:href="ltablib_8c.html#a33b59fd5ba7dbaddc6109c692a9d5dd0" target="_top" xlink:title=" ">
<polygon fill="white" stroke="#666666" points="284.88,-56.25 244.88,-56.25 244.88,-37 284.88,-37 284.88,-56.25"/>
<text xml:space="preserve" text-anchor="middle" x="264.88" y="-42.75" font-family="Helvetica,sans-Serif" font-size="10.00">tpack</text>
</a>
</g>
</g>
<!-- Node1&#45;&gt;Node8 -->
<g id="edge9_Node000001_Node000008" class="edge">
<title>Node1&#45;&gt;Node8</title>
<g id="a_edge9_Node000001_Node000008"><a xlink:title=" ">
<path fill="none" stroke="#63b8ff" d="M316.91,-68.97C306.15,-64.26 294.61,-59.21 285.22,-55.1"/>
<polygon fill="#63b8ff" stroke="#63b8ff" points="315.33,-72.1 325.9,-72.91 318.14,-65.69 315.33,-72.1"/>
</a>
</g>
</g>
<!-- Node9 -->
<g id="Node000009" class="node">
<title>Node9</title>
<g id="a_Node000009"><a xlink:href="ltablib_8c.html#ad8c41fe887a472709c6fdf075ba39d56" target="_top" xlink:title=" ">
<polygon fill="white" stroke="#666666" points="290.5,-19.25 239.25,-19.25 239.25,0 290.5,0 290.5,-19.25"/>
<text xml:space="preserve" text-anchor="middle" x="264.88" y="-5.75" font-family="Helvetica,sans-Serif" font-size="10.00">tremove</text>
</a>
</g>
</g>
<!-- Node1&#45;&gt;Node9 -->
<g id="edge10_Node000001_Node000009" class="edge">
<title>Node1&#45;&gt;Node9</title>
<g id="a_edge10_Node000001_Node000009"><a xlink:title=" ">
<path fill="none" stroke="#63b8ff" d="M332.52,-65.85C320.88,-54.53 305.18,-39.78 290.5,-27.62 287.24,-24.92 283.61,-22.15 280.16,-19.62"/>
<polygon fill="#63b8ff" stroke="#63b8ff" points="329.88,-68.16 339.46,-72.67 334.78,-63.16 329.88,-68.16"/>
</a>
</g>
</g>
<!-- Node3 -->
<g id="Node000003" class="node">
<title>Node3</title>
<g id="a_Node000003"><a xlink:href="ltablib_8c.html#a151c51c8905acb3db7d6f1e58265b709" target="_top" xlink:title=" ">
<polygon fill="white" stroke="#666666" points="116.75,-167.25 68.5,-167.25 68.5,-148 116.75,-148 116.75,-167.25"/>
<text xml:space="preserve" text-anchor="middle" x="92.62" y="-153.75" font-family="Helvetica,sans-Serif" font-size="10.00">auxsort</text>
</a>
</g>
</g>
<!-- Node2&#45;&gt;Node3 -->
<g id="edge2_Node000002_Node000003" class="edge">
<title>Node2&#45;&gt;Node3</title>
<g id="a_edge2_Node000002_Node000003"><a xlink:title=" ">
<path fill="none" stroke="#63b8ff" d="M236.1,-157.62C202.97,-157.62 148.17,-157.62 117.08,-157.62"/>
<polygon fill="#63b8ff" stroke="#63b8ff" points="235.73,-161.13 245.73,-157.63 235.73,-154.13 235.73,-161.13"/>
</a>
</g>
</g>
<!-- Node5 -->
<g id="Node000005" class="node">
<title>Node5</title>
<g id="a_Node000005"><a xlink:href="ltablib_8c.html#a1d53059f696e353656cd98be725ffbd2" target="_top" xlink:title=" ">
<polygon fill="white" stroke="#666666" points="203.25,-148.25 152.75,-148.25 152.75,-129 203.25,-129 203.25,-148.25"/>
<text xml:space="preserve" text-anchor="middle" x="178" y="-134.75" font-family="Helvetica,sans-Serif" font-size="10.00">partition</text>
</a>
</g>
</g>
<!-- Node2&#45;&gt;Node5 -->
<g id="edge5_Node000002_Node000005" class="edge">
<title>Node2&#45;&gt;Node5</title>
<g id="a_edge5_Node000002_Node000005"><a xlink:title=" ">
<path fill="none" stroke="#63b8ff" d="M235.98,-151.38C225.48,-149.03 213.62,-146.37 203.45,-144.1"/>
<polygon fill="#63b8ff" stroke="#63b8ff" points="235.11,-154.77 245.63,-153.54 236.64,-147.94 235.11,-154.77"/>
</a>
</g>
</g>
<!-- Node3&#45;&gt;Node3 -->
<g id="edge3_Node000003_Node000003" class="edge">
<title>Node3&#45;&gt;Node3</title>
<g id="a_edge3_Node000003_Node000003"><a xlink:title=" ">
<path fill="none" stroke="#63b8ff" d="M106.18,-178.65C104.49,-182.53 99.97,-185.25 92.62,-185.25 79.2,-185.25 75.21,-176.15 80.67,-167.54"/>
<polygon fill="#63b8ff" stroke="#63b8ff" points="109.69,-178.44 104.8,-169.04 102.76,-179.43 109.69,-178.44"/>
</a>
</g>
</g>
<!-- Node4 -->
<g id="Node000004" class="node">
<title>Node4</title>
<g id="a_Node000004"><a xlink:href="ltablib_8c.html#ae7d3f892e2605bf102dce63de388e626" target="_top" xlink:title=" ">
<polygon fill="white" stroke="#666666" points="32.5,-167.25 0,-167.25 0,-148 32.5,-148 32.5,-167.25"/>
<text xml:space="preserve" text-anchor="middle" x="16.25" y="-153.75" font-family="Helvetica,sans-Serif" font-size="10.00">sort</text>
</a>
</g>
</g>
<!-- Node3&#45;&gt;Node4 -->
<g id="edge4_Node000003_Node000004" class="edge">
<title>Node3&#45;&gt;Node4</title>
<g id="a_edge4_Node000003_Node000004"><a xlink:title=" ">
<path fill="none" stroke="#63b8ff" d="M56.81,-157.62C48.33,-157.62 39.69,-157.62 32.66,-157.62"/>
<polygon fill="#63b8ff" stroke="#63b8ff" points="56.58,-161.13 66.58,-157.63 56.58,-154.13 56.58,-161.13"/>
</a>
</g>
</g>
<!-- Node5&#45;&gt;Node3 -->
<g id="edge6_Node000005_Node000003" class="edge">
<title>Node5&#45;&gt;Node3</title>
<g id="a_edge6_Node000005_Node000003"><a xlink:title=" ">
<path fill="none" stroke="#63b8ff" d="M141.25,-146.77C133.1,-148.63 124.64,-150.56 117.15,-152.26"/>
<polygon fill="#63b8ff" stroke="#63b8ff" points="141.99,-150.19 150.96,-144.56 140.43,-143.37 141.99,-150.19"/>
</a>
</g>
</g>
</g>
</svg>
</svg>

<style type='text/css'>
<![CDATA[
[data-mouse-over-selected='false'] { opacity: 0.7; }
[data-mouse-over-selected='true']  { opacity: 1.0; }
]]>
</style>
<script type="application/ecmascript"><![CDATA[
document.addEventListener('DOMContentLoaded', (event) => {
  highlightEdges();
  highlightAdjacentNodes();
});
]]></script>
</svg>
