<?xml version="1.0" encoding="UTF-8" standalone="no"?>
<!DOCTYPE svg PUBLIC "-//W3C//DTD SVG 1.1//EN"
 "http://www.w3.org/Graphics/SVG/1.1/DTD/svg11.dtd">
<!-- Generated by graphviz version 13.1.0 (20250701.0955)
 -->
<!-- Title: lua&#45;5.4.7/lapi.h Pages: 1 -->
<!--zoomable 138 -->

<svg id="main" version="1.1" xmlns="http://www.w3.org/2000/svg" xmlns:xlink="http://www.w3.org/1999/xlink" xml:space="preserve" onload="init(evt)">

<style type="text/css"><![CDATA[
.node, .edge {opacity: 0.7;}
.node.selected, .edge.selected {opacity: 1;}
.edge:hover path { stroke: red; }
.edge:hover polygon { stroke: red; fill: red; }
]]></style>

<defs>
  <circle id="rim" cx="0" cy="0" r="7"/>
  <circle id="rim2" cx="0" cy="0" r="3.5"/>
  <g id="zoomPlus">
    <use xlink:href="#rim" fill="#404040"><set attributeName="fill" to="#808080" begin="zoomplus.mouseover" end="zoomplus.mouseout"/></use>
    <path d="M-4,0h8M0,-4v8" fill="none" stroke="white" stroke-width="1.5" pointer-events="none"/>
  </g>
  <g id="zoomMin">
    <use xlink:href="#rim" fill="#404040"><set attributeName="fill" to="#808080" begin="zoomminus.mouseover" end="zoomminus.mouseout"/></use>
    <path d="M-4,0h8" fill="none" stroke="white" stroke-width="1.5" pointer-events="none"/>
  </g>
  <g id="arrowUp" transform="translate(30 24)">
    <use xlink:href="#rim"/>
    <path pointer-events="none" fill="none" stroke="white" stroke-width="1.5" d="M0,-3.0v7 M-2.5,-0.5L0,-3.0L2.5,-0.5"/>
  </g>
  <g id="arrowRight" transform="rotate(90) translate(36 -43)">
    <use xlink:href="#rim"/>
    <path pointer-events="none" fill="none" stroke="white" stroke-width="1.5" d="M0,-3.0v7 M-2.5,-0.5L0,-3.0L2.5,-0.5"/>
  </g>
  <g id="arrowDown" transform="rotate(180) translate(-30 -48)">
    <use xlink:href="#rim"/>
    <path pointer-events="none" fill="none" stroke="white" stroke-width="1.5" d="M0,-3.0v7 M-2.5,-0.5L0,-3.0L2.5,-0.5"/>
  </g>
  <g id="arrowLeft" transform="rotate(270) translate(-36 17)">
    <use xlink:href="#rim"/>
    <path pointer-events="none" fill="none" stroke="white" stroke-width="1.5" d="M0,-3.0v7 M-2.5,-0.5L0,-3.0L2.5,-0.5"/>
  </g>
  <g id="resetDef">
    <use xlink:href="#rim2" fill="#404040"><set attributeName="fill" to="#808080" begin="reset.mouseover" end="reset.mouseout"/></use>
  </g>
</defs>
<script type="application/ecmascript">
var viewWidth = 508;
var viewHeight = 138;
var sectionId = 'dynsection-1';
</script>
<script type="application/ecmascript" xlink:href="svg.min.js"/>
<svg id="graph" class="graph">
<g id="viewport">
<title>lua&#45;5.4.7/lapi.h</title>
<!-- Node1 -->
<g id="Node000001" class="node">
<title>Node1</title>
<g id="a_Node000001"><a xlink:title=" ">
<polygon fill="#999999" stroke="#666666" points="287.75,-129.75 208,-129.75 208,-110.5 287.75,-110.5 287.75,-129.75"/>
<text xml:space="preserve" text-anchor="middle" x="247.88" y="-116.25" font-family="Helvetica,sans-Serif" font-size="10.00">lua&#45;5.4.7/lapi.h</text>
</a>
</g>
</g>
<!-- Node2 -->
<g id="Node000002" class="node">
<title>Node2</title>
<g id="a_Node000002"><a xlink:href="lapi_8c.html" target="_top" xlink:title=" ">
<polygon fill="white" stroke="#666666" points="79.75,-74.5 0,-74.5 0,-55.25 79.75,-55.25 79.75,-74.5"/>
<text xml:space="preserve" text-anchor="middle" x="39.88" y="-61" font-family="Helvetica,sans-Serif" font-size="10.00">lua&#45;5.4.7/lapi.c</text>
</a>
</g>
</g>
<!-- Node1&#45;&gt;Node2 -->
<g id="edge1_Node000001_Node000002" class="edge">
<title>Node1&#45;&gt;Node2</title>
<g id="a_edge1_Node000001_Node000002"><a xlink:title=" ">
<path fill="none" stroke="#63b8ff" d="M201.77,-107.32C163.62,-97.55 110.21,-83.88 75.33,-74.95"/>
<polygon fill="#63b8ff" stroke="#63b8ff" points="200.57,-110.63 211.12,-109.72 202.3,-103.85 200.57,-110.63"/>
</a>
</g>
</g>
<!-- Node4 -->
<g id="Node000004" class="node">
<title>Node4</title>
<g id="a_Node000004"><a xlink:href="ldebug_8c.html" target="_top" xlink:title=" ">
<polygon fill="white" stroke="#666666" points="191.5,-74.5 98.25,-74.5 98.25,-55.25 191.5,-55.25 191.5,-74.5"/>
<text xml:space="preserve" text-anchor="middle" x="144.88" y="-61" font-family="Helvetica,sans-Serif" font-size="10.00">lua&#45;5.4.7/ldebug.c</text>
</a>
</g>
</g>
<!-- Node1&#45;&gt;Node4 -->
<g id="edge3_Node000001_Node000004" class="edge">
<title>Node1&#45;&gt;Node4</title>
<g id="a_edge3_Node000001_Node000004"><a xlink:title=" ">
<path fill="none" stroke="#63b8ff" d="M220.28,-104.86C201.9,-95.36 178.29,-83.15 162.43,-74.95"/>
<polygon fill="#63b8ff" stroke="#63b8ff" points="218.57,-107.91 229.06,-109.4 221.78,-101.7 218.57,-107.91"/>
</a>
</g>
</g>
<!-- Node5 -->
<g id="Node000005" class="node">
<title>Node5</title>
<g id="a_Node000005"><a xlink:href="ldo_8c.html" target="_top" xlink:title=" ">
<polygon fill="white" stroke="#666666" points="286.62,-74.5 209.12,-74.5 209.12,-55.25 286.62,-55.25 286.62,-74.5"/>
<text xml:space="preserve" text-anchor="middle" x="247.88" y="-61" font-family="Helvetica,sans-Serif" font-size="10.00">lua&#45;5.4.7/ldo.c</text>
</a>
</g>
</g>
<!-- Node1&#45;&gt;Node5 -->
<g id="edge5_Node000001_Node000005" class="edge">
<title>Node1&#45;&gt;Node5</title>
<g id="a_edge5_Node000001_Node000005"><a xlink:title=" ">
<path fill="none" stroke="#63b8ff" d="M247.88,-98.88C247.88,-90.59 247.88,-81.42 247.88,-74.86"/>
<polygon fill="#63b8ff" stroke="#63b8ff" points="244.38,-98.82 247.88,-108.82 251.38,-98.82 244.38,-98.82"/>
</a>
</g>
</g>
<!-- Node6 -->
<g id="Node000006" class="node">
<title>Node6</title>
<g id="a_Node000006"><a xlink:href="lstate_8c.html" target="_top" xlink:title=" ">
<polygon fill="white" stroke="#666666" points="393.25,-74.5 304.5,-74.5 304.5,-55.25 393.25,-55.25 393.25,-74.5"/>
<text xml:space="preserve" text-anchor="middle" x="348.88" y="-61" font-family="Helvetica,sans-Serif" font-size="10.00">lua&#45;5.4.7/lstate.c</text>
</a>
</g>
</g>
<!-- Node1&#45;&gt;Node6 -->
<g id="edge7_Node000001_Node000006" class="edge">
<title>Node1&#45;&gt;Node6</title>
<g id="a_edge7_Node000001_Node000006"><a xlink:title=" ">
<path fill="none" stroke="#63b8ff" d="M275.19,-104.73C293.17,-95.24 316.18,-83.11 331.66,-74.95"/>
<polygon fill="#63b8ff" stroke="#63b8ff" points="273.56,-101.63 266.35,-109.39 276.83,-107.82 273.56,-101.63"/>
</a>
</g>
</g>
<!-- Node7 -->
<g id="Node000007" class="node">
<title>Node7</title>
<g id="a_Node000007"><a xlink:href="ltests_8c.html" target="_top" xlink:title=" ">
<polygon fill="white" stroke="#666666" points="500.25,-74.5 411.5,-74.5 411.5,-55.25 500.25,-55.25 500.25,-74.5"/>
<text xml:space="preserve" text-anchor="middle" x="455.88" y="-61" font-family="Helvetica,sans-Serif" font-size="10.00">lua&#45;5.4.7/ltests.c</text>
</a>
</g>
</g>
<!-- Node1&#45;&gt;Node7 -->
<g id="edge9_Node000001_Node000007" class="edge">
<title>Node1&#45;&gt;Node7</title>
<g id="a_edge9_Node000001_Node000007"><a xlink:title=" ">
<path fill="none" stroke="#63b8ff" d="M293.98,-107.32C332.13,-97.55 385.54,-83.88 420.42,-74.95"/>
<polygon fill="#63b8ff" stroke="#63b8ff" points="293.45,-103.85 284.63,-109.72 295.18,-110.63 293.45,-103.85"/>
</a>
</g>
</g>
<!-- Node3 -->
<g id="Node000003" class="node">
<title>Node3</title>
<g id="a_Node000003"><a xlink:href="onelua_8c.html" target="_top" xlink:title=" ">
<polygon fill="white" stroke="#666666" points="242.5,-19.25 149.25,-19.25 149.25,0 242.5,0 242.5,-19.25"/>
<text xml:space="preserve" text-anchor="middle" x="195.88" y="-5.75" font-family="Helvetica,sans-Serif" font-size="10.00">lua&#45;5.4.7/onelua.c</text>
</a>
</g>
</g>
<!-- Node2&#45;&gt;Node3 -->
<g id="edge2_Node000002_Node000003" class="edge">
<title>Node2&#45;&gt;Node3</title>
<g id="a_edge2_Node000002_Node000003"><a xlink:title=" ">
<path fill="none" stroke="#63b8ff" d="M77.06,-51.18C105.46,-41.49 143.91,-28.36 169.28,-19.7"/>
<polygon fill="#63b8ff" stroke="#63b8ff" points="76.1,-47.81 67.77,-54.35 78.37,-54.43 76.1,-47.81"/>
</a>
</g>
</g>
<!-- Node4&#45;&gt;Node3 -->
<g id="edge4_Node000004_Node000003" class="edge">
<title>Node4&#45;&gt;Node3</title>
<g id="a_edge4_Node000004_Node000003"><a xlink:title=" ">
<path fill="none" stroke="#63b8ff" d="M161.24,-46.79C169.89,-37.75 180.17,-27.02 187.27,-19.61"/>
<polygon fill="#63b8ff" stroke="#63b8ff" points="158.73,-44.35 154.34,-53.99 163.79,-49.19 158.73,-44.35"/>
</a>
</g>
</g>
<!-- Node5&#45;&gt;Node3 -->
<g id="edge6_Node000005_Node000003" class="edge">
<title>Node5&#45;&gt;Node3</title>
<g id="a_edge6_Node000005_Node000003"><a xlink:title=" ">
<path fill="none" stroke="#63b8ff" d="M231.47,-47.07C222.58,-37.98 211.96,-27.1 204.65,-19.61"/>
<polygon fill="#63b8ff" stroke="#63b8ff" points="228.74,-49.29 238.23,-54 233.75,-44.4 228.74,-49.29"/>
</a>
</g>
</g>
<!-- Node6&#45;&gt;Node3 -->
<g id="edge8_Node000006_Node000003" class="edge">
<title>Node6&#45;&gt;Node3</title>
<g id="a_edge8_Node000006_Node000003"><a xlink:title=" ">
<path fill="none" stroke="#63b8ff" d="M312.4,-51.18C284.55,-41.49 246.84,-28.36 221.96,-19.7"/>
<polygon fill="#63b8ff" stroke="#63b8ff" points="310.9,-54.36 321.49,-54.34 313.2,-47.75 310.9,-54.36"/>
</a>
</g>
</g>
</g>
</svg>

<g id="navigator" transform="translate(0 0)" fill="#404254">
  <rect fill="#f2f5e9" fill-opacity="0.5" stroke="#606060" stroke-width=".5" x="0" y="0" width="60" height="60"/>
  <use id="zoomplus" xlink:href="#zoomPlus" x="17" y="9" onmousedown="handleZoom(evt,'in')"/>
  <use id="zoomminus" xlink:href="#zoomMin" x="42" y="9" onmousedown="handleZoom(evt,'out')"/>
  <use id="reset" xlink:href="#resetDef" x="30" y="36" onmousedown="handleReset()"/>
   <use id="arrowup" xlink:href="#arrowUp" x="0" y="0" onmousedown="handlePan(0,-1)"/>
  <use id="arrowright" xlink:href="#arrowRight" x="0" y="0" onmousedown="handlePan(1,0)"/>
  <use id="arrowdown" xlink:href="#arrowDown" x="0" y="0" onmousedown="handlePan(0,1)"/>
  <use id="arrowleft" xlink:href="#arrowLeft" x="0" y="0" onmousedown="handlePan(-1,0)"/>
</g>
<svg viewBox="0 0 15 15" width="100%" height="30px" preserveAspectRatio="xMaxYMin meet">
 <g id="arrow_out" transform="scale(0.3 0.3)">
  <a xlink:href="lapi_8h__dep__incl_org.svg" target="_base">
   <rect id="button" ry="5" rx="5" y="6" x="6" height="38" width="38"
        fill="#f2f5e9" fill-opacity="0.5" stroke="#606060" stroke-width="1.0"/>
   <path id="arrow"
     d="M 11.500037,31.436501 C 11.940474,20.09759 22.043105,11.32322 32.158766,21.979434 L 37.068811,17.246167 C 37.068811,17.246167 37.088388,32 37.088388,32 L 22.160133,31.978069 C 22.160133,31.978069 26.997745,27.140456 26.997745,27.140456 C 18.528582,18.264221 13.291696,25.230495 11.500037,31.436501 z"
     style="fill:#404040;"/>
  </a>
 </g>
</svg>

<style type='text/css'>
<![CDATA[
[data-mouse-over-selected='false'] { opacity: 0.7; }
[data-mouse-over-selected='true']  { opacity: 1.0; }
]]>
</style>
<script type="application/ecmascript"><![CDATA[
document.addEventListener('DOMContentLoaded', (event) => {
  highlightEdges();
  highlightAdjacentNodes();
});
]]></script>
</svg>
