<?xml version="1.0" encoding="UTF-8" standalone="no"?>
<!DOCTYPE svg PUBLIC "-//W3C//DTD SVG 1.1//EN"
 "http://www.w3.org/Graphics/SVG/1.1/DTD/svg11.dtd">
<!-- Generated by graphviz version 13.1.0 (20250701.0955)
 -->
<!-- Title: lua_setwarnf Pages: 1 -->
<!--zoomable 123 -->

<svg id="main" version="1.1" xmlns="http://www.w3.org/2000/svg" xmlns:xlink="http://www.w3.org/1999/xlink" xml:space="preserve" onload="init(evt)">

<style type="text/css"><![CDATA[
.node, .edge {opacity: 0.7;}
.node.selected, .edge.selected {opacity: 1;}
.edge:hover path { stroke: red; }
.edge:hover polygon { stroke: red; fill: red; }
]]></style>

<defs>
  <circle id="rim" cx="0" cy="0" r="7"/>
  <circle id="rim2" cx="0" cy="0" r="3.5"/>
  <g id="zoomPlus">
    <use xlink:href="#rim" fill="#404040"><set attributeName="fill" to="#808080" begin="zoomplus.mouseover" end="zoomplus.mouseout"/></use>
    <path d="M-4,0h8M0,-4v8" fill="none" stroke="white" stroke-width="1.5" pointer-events="none"/>
  </g>
  <g id="zoomMin">
    <use xlink:href="#rim" fill="#404040"><set attributeName="fill" to="#808080" begin="zoomminus.mouseover" end="zoomminus.mouseout"/></use>
    <path d="M-4,0h8" fill="none" stroke="white" stroke-width="1.5" pointer-events="none"/>
  </g>
  <g id="arrowUp" transform="translate(30 24)">
    <use xlink:href="#rim"/>
    <path pointer-events="none" fill="none" stroke="white" stroke-width="1.5" d="M0,-3.0v7 M-2.5,-0.5L0,-3.0L2.5,-0.5"/>
  </g>
  <g id="arrowRight" transform="rotate(90) translate(36 -43)">
    <use xlink:href="#rim"/>
    <path pointer-events="none" fill="none" stroke="white" stroke-width="1.5" d="M0,-3.0v7 M-2.5,-0.5L0,-3.0L2.5,-0.5"/>
  </g>
  <g id="arrowDown" transform="rotate(180) translate(-30 -48)">
    <use xlink:href="#rim"/>
    <path pointer-events="none" fill="none" stroke="white" stroke-width="1.5" d="M0,-3.0v7 M-2.5,-0.5L0,-3.0L2.5,-0.5"/>
  </g>
  <g id="arrowLeft" transform="rotate(270) translate(-36 17)">
    <use xlink:href="#rim"/>
    <path pointer-events="none" fill="none" stroke="white" stroke-width="1.5" d="M0,-3.0v7 M-2.5,-0.5L0,-3.0L2.5,-0.5"/>
  </g>
  <g id="resetDef">
    <use xlink:href="#rim2" fill="#404040"><set attributeName="fill" to="#808080" begin="reset.mouseover" end="reset.mouseout"/></use>
  </g>
</defs>
<script type="application/ecmascript">
var viewWidth = 1575;
var viewHeight = 123;
var sectionId = 'dynsection-70';
</script>
<script type="application/ecmascript" xlink:href="svg.min.js"/>
<svg id="graph" class="graph">
<g id="viewport">
<title>lua_setwarnf</title>
<!-- Node1 -->
<g id="Node000001" class="node">
<title>Node1</title>
<g id="a_Node000001"><a xlink:title=" ">
<polygon fill="#999999" stroke="#666666" points="1566.75,-49.15 1495.25,-49.15 1495.25,-29.9 1566.75,-29.9 1566.75,-49.15"/>
<text xml:space="preserve" text-anchor="middle" x="1531" y="-35.65" font-family="Helvetica,sans-Serif" font-size="10.00">lua_setwarnf</text>
</a>
</g>
</g>
<!-- Node2 -->
<g id="Node000002" class="node">
<title>Node2</title>
<g id="a_Node000002"><a xlink:href="lauxlib_8c.html#a7495a600adbb32914fda94c0b5eea1ad" target="_top" xlink:title=" ">
<polygon fill="white" stroke="#666666" points="1459.25,-49.15 1387.75,-49.15 1387.75,-29.9 1459.25,-29.9 1459.25,-49.15"/>
<text xml:space="preserve" text-anchor="middle" x="1423.5" y="-35.65" font-family="Helvetica,sans-Serif" font-size="10.00">checkcontrol</text>
</a>
</g>
</g>
<!-- Node1&#45;&gt;Node2 -->
<g id="edge1_Node000001_Node000002" class="edge">
<title>Node1&#45;&gt;Node2</title>
<g id="a_edge1_Node000001_Node000002"><a xlink:title=" ">
<path fill="none" stroke="#63b8ff" d="M1483.63,-39.52C1475.52,-39.52 1467.21,-39.52 1459.48,-39.52"/>
<polygon fill="#63b8ff" stroke="#63b8ff" points="1483.36,-43.03 1493.36,-39.52 1483.36,-36.03 1483.36,-43.03"/>
</a>
</g>
</g>
<!-- Node4 -->
<g id="Node000004" class="node">
<title>Node4</title>
<g id="a_Node000004"><a xlink:href="lauxlib_8c.html#abe0d4e1d9eb077cdeca0f58e80174f89" target="_top" xlink:title=" ">
<polygon fill="white" stroke="#666666" points="1264.5,-96.15 1185.5,-96.15 1185.5,-76.9 1264.5,-76.9 1264.5,-96.15"/>
<text xml:space="preserve" text-anchor="middle" x="1225" y="-82.65" font-family="Helvetica,sans-Serif" font-size="10.00">luaL_newstate</text>
</a>
</g>
</g>
<!-- Node1&#45;&gt;Node4 -->
<g id="edge23_Node000001_Node000004" class="edge">
<title>Node1&#45;&gt;Node4</title>
<g id="a_edge23_Node000001_Node000004"><a xlink:title=" ">
<path fill="none" stroke="#63b8ff" d="M1483.95,-52.51C1475.75,-54.65 1467.27,-56.74 1459.25,-58.52 1411.89,-69.05 1399.9,-71.56 1351.75,-77.52 1322.75,-81.12 1289.8,-83.41 1264.91,-84.78"/>
<polygon fill="#63b8ff" stroke="#63b8ff" points="1484.66,-55.95 1493.42,-50 1482.86,-49.18 1484.66,-55.95"/>
</a>
</g>
</g>
<!-- Node18 -->
<g id="Node000018" class="node">
<title>Node18</title>
<g id="a_Node000018"><a xlink:href="lauxlib_8c.html#ad1aefe736600eec70417cbad247abb28" target="_top" xlink:title=" ">
<polygon fill="white" stroke="#666666" points="1254.38,-31.15 1195.62,-31.15 1195.62,-11.9 1254.38,-11.9 1254.38,-31.15"/>
<text xml:space="preserve" text-anchor="middle" x="1225" y="-17.65" font-family="Helvetica,sans-Serif" font-size="10.00">warnfcont</text>
</a>
</g>
</g>
<!-- Node1&#45;&gt;Node18 -->
<g id="edge24_Node000001_Node000018" class="edge">
<title>Node1&#45;&gt;Node18</title>
<g id="a_edge24_Node000001_Node000018"><a xlink:title=" ">
<path fill="none" stroke="#63b8ff" d="M1489.82,-26.03C1444.11,-12.3 1367.13,5.84 1300.5,-2.52 1285.14,-4.45 1268.4,-8.54 1254.69,-12.42"/>
<polygon fill="#63b8ff" stroke="#63b8ff" points="1488.72,-29.35 1499.3,-28.95 1490.78,-22.66 1488.72,-29.35"/>
</a>
</g>
</g>
<!-- Node3 -->
<g id="Node000003" class="node">
<title>Node3</title>
<g id="a_Node000003"><a xlink:href="lauxlib_8c.html#a5f33ecbe92de777050827fe763a7fa59" target="_top" xlink:title=" ">
<polygon fill="white" stroke="#666666" points="1351.75,-68.15 1300.5,-68.15 1300.5,-48.9 1351.75,-48.9 1351.75,-68.15"/>
<text xml:space="preserve" text-anchor="middle" x="1326.12" y="-54.65" font-family="Helvetica,sans-Serif" font-size="10.00">warnfoff</text>
</a>
</g>
</g>
<!-- Node2&#45;&gt;Node3 -->
<g id="edge2_Node000002_Node000003" class="edge">
<title>Node2&#45;&gt;Node3</title>
<g id="a_edge2_Node000002_Node000003"><a xlink:title=" ">
<path fill="none" stroke="#63b8ff" d="M1376.21,-42C1366.69,-43.86 1357.09,-46.1 1348.94,-48.4"/>
<polygon fill="#63b8ff" stroke="#63b8ff" points="1376.55,-45.49 1385.77,-40.27 1375.3,-38.61 1376.55,-45.49"/>
</a>
</g>
</g>
<!-- Node17 -->
<g id="Node000017" class="node">
<title>Node17</title>
<g id="a_Node000017"><a xlink:href="lauxlib_8c.html#af68f58c7a0198c5b7c1781093bf820e0" target="_top" xlink:title=" ">
<polygon fill="white" stroke="#666666" points="1351.38,-31.15 1300.88,-31.15 1300.88,-11.9 1351.38,-11.9 1351.38,-31.15"/>
<text xml:space="preserve" text-anchor="middle" x="1326.12" y="-17.65" font-family="Helvetica,sans-Serif" font-size="10.00">warnfon</text>
</a>
</g>
</g>
<!-- Node2&#45;&gt;Node17 -->
<g id="edge18_Node000002_Node000017" class="edge">
<title>Node2&#45;&gt;Node17</title>
<g id="a_edge18_Node000002_Node000017"><a xlink:title=" ">
<path fill="none" stroke="#63b8ff" d="M1389.06,-26.74C1376.72,-23.92 1362.97,-21.49 1351.57,-20.16"/>
<polygon fill="#63b8ff" stroke="#63b8ff" points="1387.88,-30.05 1398.43,-29.06 1389.56,-23.26 1387.88,-30.05"/>
</a>
</g>
</g>
<!-- Node3&#45;&gt;Node2 -->
<g id="edge3_Node000003_Node000002" class="edge">
<title>Node3&#45;&gt;Node2</title>
<g id="a_edge3_Node000003_Node000002"><a xlink:title=" ">
<path fill="none" stroke="#63b8ff" d="M1363.25,-57.9C1375.92,-55.78 1389.75,-52.75 1400.86,-49.6"/>
<polygon fill="#63b8ff" stroke="#63b8ff" points="1362.92,-54.41 1353.55,-59.35 1363.96,-61.33 1362.92,-54.41"/>
</a>
</g>
</g>
<!-- Node3&#45;&gt;Node4 -->
<g id="edge4_Node000003_Node000004" class="edge">
<title>Node3&#45;&gt;Node4</title>
<g id="a_edge4_Node000003_Node000004"><a xlink:title=" ">
<path fill="none" stroke="#63b8ff" d="M1289.15,-68.69C1280.13,-71.23 1270.48,-73.96 1261.49,-76.5"/>
<polygon fill="#63b8ff" stroke="#63b8ff" points="1289.98,-72.09 1298.66,-66 1288.08,-65.35 1289.98,-72.09"/>
</a>
</g>
</g>
<!-- Node5 -->
<g id="Node000005" class="node">
<title>Node5</title>
<g id="a_Node000005"><a xlink:href="lua_8c.html#a3c04138a5bfe5d72780bb7e82a18e627" target="_top" xlink:title=" ">
<polygon fill="white" stroke="#666666" points="1133.75,-114.15 1096.75,-114.15 1096.75,-94.9 1133.75,-94.9 1133.75,-114.15"/>
<text xml:space="preserve" text-anchor="middle" x="1115.25" y="-100.65" font-family="Helvetica,sans-Serif" font-size="10.00">main</text>
</a>
</g>
</g>
<!-- Node4&#45;&gt;Node5 -->
<g id="edge5_Node000004_Node000005" class="edge">
<title>Node4&#45;&gt;Node5</title>
<g id="a_edge5_Node000004_Node000005"><a xlink:title=" ">
<path fill="none" stroke="#63b8ff" d="M1173.81,-94.91C1159.54,-97.29 1144.93,-99.73 1134,-101.56"/>
<polygon fill="#63b8ff" stroke="#63b8ff" points="1174.32,-98.37 1183.61,-93.27 1173.17,-91.47 1174.32,-98.37"/>
</a>
</g>
</g>
<!-- Node6 -->
<g id="Node000006" class="node">
<title>Node6</title>
<g id="a_Node000006"><a xlink:href="script_8c.html#a84508ce31c18af8792081eb1cdfc77b8" target="_top" xlink:title=" ">
<polygon fill="white" stroke="#666666" points="1149.5,-77.15 1081,-77.15 1081,-57.9 1149.5,-57.9 1149.5,-77.15"/>
<text xml:space="preserve" text-anchor="middle" x="1115.25" y="-63.65" font-family="Helvetica,sans-Serif" font-size="10.00">script_begin</text>
</a>
</g>
</g>
<!-- Node4&#45;&gt;Node6 -->
<g id="edge6_Node000004_Node000006" class="edge">
<title>Node4&#45;&gt;Node6</title>
<g id="a_edge6_Node000004_Node000006"><a xlink:title=" ">
<path fill="none" stroke="#63b8ff" d="M1174.03,-77.71C1165.8,-76.26 1157.45,-74.79 1149.75,-73.43"/>
<polygon fill="#63b8ff" stroke="#63b8ff" points="1173.15,-81.11 1183.61,-79.4 1174.37,-74.22 1173.15,-81.11"/>
</a>
</g>
</g>
<!-- Node7 -->
<g id="Node000007" class="node">
<title>Node7</title>
<g id="a_Node000007"><a xlink:href="game__scene_8c.html#ab923ed4c6ccad95026e85e252071716d" target="_top" xlink:title=" ">
<polygon fill="white" stroke="#666666" points="1045,-77.15 925.5,-77.15 925.5,-57.9 1045,-57.9 1045,-77.15"/>
<text xml:space="preserve" text-anchor="middle" x="985.25" y="-63.65" font-family="Helvetica,sans-Serif" font-size="10.00">PGB_GameScene_new</text>
</a>
</g>
</g>
<!-- Node6&#45;&gt;Node7 -->
<g id="edge7_Node000006_Node000007" class="edge">
<title>Node6&#45;&gt;Node7</title>
<g id="a_edge7_Node000006_Node000007"><a xlink:title=" ">
<path fill="none" stroke="#63b8ff" d="M1069.28,-67.52C1061.55,-67.52 1053.42,-67.52 1045.4,-67.52"/>
<polygon fill="#63b8ff" stroke="#63b8ff" points="1069.11,-71.03 1079.11,-67.52 1069.11,-64.03 1069.11,-71.03"/>
</a>
</g>
</g>
<!-- Node8 -->
<g id="Node000008" class="node">
<title>Node8</title>
<g id="a_Node000008"><a xlink:href="library__scene_8c.html#a0728002045c9cbbd68bdd34897b28da6" target="_top" xlink:title=" ">
<polygon fill="white" stroke="#666666" points="889.5,-77.15 755.75,-77.15 755.75,-57.9 889.5,-57.9 889.5,-77.15"/>
<text xml:space="preserve" text-anchor="middle" x="822.62" y="-63.65" font-family="Helvetica,sans-Serif" font-size="10.00">PGB_LibraryScene_update</text>
</a>
</g>
</g>
<!-- Node7&#45;&gt;Node8 -->
<g id="edge8_Node000007_Node000008" class="edge">
<title>Node7&#45;&gt;Node8</title>
<g id="a_edge8_Node000007_Node000008"><a xlink:title=" ">
<path fill="none" stroke="#63b8ff" d="M914.09,-67.52C906.04,-67.52 897.84,-67.52 889.84,-67.52"/>
<polygon fill="#63b8ff" stroke="#63b8ff" points="913.84,-71.03 923.84,-67.52 913.84,-64.03 913.84,-71.03"/>
</a>
</g>
</g>
<!-- Node9 -->
<g id="Node000009" class="node">
<title>Node9</title>
<g id="a_Node000009"><a xlink:href="library__scene_8c.html#aa5c386d39121b53fba45d899df654188" target="_top" xlink:title=" ">
<polygon fill="white" stroke="#666666" points="719.75,-77.15 597.25,-77.15 597.25,-57.9 719.75,-57.9 719.75,-77.15"/>
<text xml:space="preserve" text-anchor="middle" x="658.5" y="-63.65" font-family="Helvetica,sans-Serif" font-size="10.00">PGB_LibraryScene_new</text>
</a>
</g>
</g>
<!-- Node8&#45;&gt;Node9 -->
<g id="edge9_Node000008_Node000009" class="edge">
<title>Node8&#45;&gt;Node9</title>
<g id="a_edge9_Node000008_Node000009"><a xlink:title=" ">
<path fill="none" stroke="#63b8ff" d="M744.29,-67.52C736.19,-67.52 728.04,-67.52 720.16,-67.52"/>
<polygon fill="#63b8ff" stroke="#63b8ff" points="744.17,-71.03 754.17,-67.52 744.17,-64.03 744.17,-71.03"/>
</a>
</g>
</g>
<!-- Node10 -->
<g id="Node000010" class="node">
<title>Node10</title>
<g id="a_Node000010"><a xlink:href="app_8c.html#ab80501f53b757a79772b96ec99e3dc7e" target="_top" xlink:title=" ">
<polygon fill="white" stroke="#666666" points="534.25,-115.15 441.75,-115.15 441.75,-95.9 534.25,-95.9 534.25,-115.15"/>
<text xml:space="preserve" text-anchor="middle" x="488" y="-101.65" font-family="Helvetica,sans-Serif" font-size="10.00">PGB_goToLibrary</text>
</a>
</g>
</g>
<!-- Node9&#45;&gt;Node10 -->
<g id="edge10_Node000009_Node000010" class="edge">
<title>Node9&#45;&gt;Node10</title>
<g id="a_edge10_Node000009_Node000010"><a xlink:title=" ">
<path fill="none" stroke="#63b8ff" d="M601.85,-80.07C579.7,-85.07 554.55,-90.74 533.63,-95.46"/>
<polygon fill="#63b8ff" stroke="#63b8ff" points="602.33,-83.56 611.31,-77.94 600.79,-76.73 602.33,-83.56"/>
</a>
</g>
</g>
<!-- Node13 -->
<g id="Node000013" class="node">
<title>Node13</title>
<g id="a_Node000013"><a xlink:href="image__conversion__scene_8c.html#a60d0e43ab25a8639bbb6d1f4e758edd3" target="_top" xlink:title=" ">
<polygon fill="white" stroke="#666666" points="561.25,-39.77 414.75,-39.77 414.75,-9.27 561.25,-9.27 561.25,-39.77"/>
<text xml:space="preserve" text-anchor="start" x="422.75" y="-26.27" font-family="Helvetica,sans-Serif" font-size="10.00">PGB_ImageConversionScene</text>
<text xml:space="preserve" text-anchor="middle" x="488" y="-15.02" font-family="Helvetica,sans-Serif" font-size="10.00">_update</text>
</a>
</g>
</g>
<!-- Node9&#45;&gt;Node13 -->
<g id="edge13_Node000009_Node000013" class="edge">
<title>Node9&#45;&gt;Node13</title>
<g id="a_edge13_Node000009_Node000013"><a xlink:title=" ">
<path fill="none" stroke="#63b8ff" d="M607.02,-54.64C589.31,-50.12 569.21,-44.99 550.68,-40.27"/>
<polygon fill="#63b8ff" stroke="#63b8ff" points="605.97,-57.99 616.53,-57.07 607.7,-51.21 605.97,-57.99"/>
</a>
</g>
</g>
<!-- Node15 -->
<g id="Node000015" class="node">
<title>Node15</title>
<g id="a_Node000015"><a xlink:href="app_8c.html#af256ea7a9c51fcbd49cb0007facbb8ea" target="_top" xlink:title=" ">
<polygon fill="white" stroke="#666666" points="166.25,-58.15 111.25,-58.15 111.25,-38.9 166.25,-38.9 166.25,-58.15"/>
<text xml:space="preserve" text-anchor="middle" x="138.75" y="-44.65" font-family="Helvetica,sans-Serif" font-size="10.00">PGB_init</text>
</a>
</g>
</g>
<!-- Node9&#45;&gt;Node15 -->
<g id="edge17_Node000009_Node000015" class="edge">
<title>Node9&#45;&gt;Node15</title>
<g id="a_edge17_Node000009_Node000015"><a xlink:title=" ">
<path fill="none" stroke="#63b8ff" d="M585.57,-64.89C469.01,-60.61 244.13,-52.36 166.71,-49.51"/>
<polygon fill="#63b8ff" stroke="#63b8ff" points="585.21,-68.37 595.33,-65.24 585.46,-61.38 585.21,-68.37"/>
</a>
</g>
</g>
<!-- Node11 -->
<g id="Node000011" class="node">
<title>Node11</title>
<g id="a_Node000011"><a xlink:href="game__scene_8c.html#a6a4a6f0408da311dc566eb187e497889" target="_top" xlink:title=" ">
<polygon fill="white" stroke="#666666" points="360,-115.15 227.75,-115.15 227.75,-95.9 360,-95.9 360,-115.15"/>
<text xml:space="preserve" text-anchor="middle" x="293.88" y="-101.65" font-family="Helvetica,sans-Serif" font-size="10.00">PGB_LibraryConfirmModal</text>
</a>
</g>
</g>
<!-- Node10&#45;&gt;Node11 -->
<g id="edge11_Node000010_Node000011" class="edge">
<title>Node10&#45;&gt;Node11</title>
<g id="a_edge11_Node000010_Node000011"><a xlink:title=" ">
<path fill="none" stroke="#63b8ff" d="M430.03,-105.52C408.17,-105.52 383.05,-105.52 360.44,-105.52"/>
<polygon fill="#63b8ff" stroke="#63b8ff" points="429.96,-109.03 439.96,-105.52 429.96,-102.03 429.96,-109.03"/>
</a>
</g>
</g>
<!-- Node12 -->
<g id="Node000012" class="node">
<title>Node12</title>
<g id="a_Node000012"><a xlink:href="game__scene_8c.html#a113df24bb94bafcdbb9235ec8648e02f" target="_top" xlink:title=" ">
<polygon fill="white" stroke="#666666" points="173,-115.15 104.5,-115.15 104.5,-95.9 173,-95.9 173,-115.15"/>
<text xml:space="preserve" text-anchor="middle" x="138.75" y="-101.65" font-family="Helvetica,sans-Serif" font-size="10.00">__section__</text>
</a>
</g>
</g>
<!-- Node11&#45;&gt;Node12 -->
<g id="edge12_Node000011_Node000012" class="edge">
<title>Node11&#45;&gt;Node12</title>
<g id="a_edge12_Node000011_Node000012"><a xlink:title=" ">
<path fill="none" stroke="#63b8ff" d="M216.03,-105.52C200.98,-105.52 185.96,-105.52 173.27,-105.52"/>
<polygon fill="#63b8ff" stroke="#63b8ff" points="215.98,-109.03 225.98,-105.52 215.98,-102.03 215.98,-109.03"/>
</a>
</g>
</g>
<!-- Node14 -->
<g id="Node000014" class="node">
<title>Node14</title>
<g id="a_Node000014"><a xlink:href="image__conversion__scene_8c.html#aa3559936491ddf78b9cf06fcbdd32d22" target="_top" xlink:title=" ">
<polygon fill="white" stroke="#666666" points="378.75,-37.15 209,-37.15 209,-17.9 378.75,-17.9 378.75,-37.15"/>
<text xml:space="preserve" text-anchor="middle" x="293.88" y="-23.65" font-family="Helvetica,sans-Serif" font-size="10.00">PGB_ImageConversionScene_new</text>
</a>
</g>
</g>
<!-- Node13&#45;&gt;Node14 -->
<g id="edge14_Node000013_Node000014" class="edge">
<title>Node13&#45;&gt;Node14</title>
<g id="a_edge14_Node000013_Node000014"><a xlink:title=" ">
<path fill="none" stroke="#63b8ff" d="M402.94,-25.84C395.07,-25.96 387.09,-26.08 379.22,-26.21"/>
<polygon fill="#63b8ff" stroke="#63b8ff" points="402.91,-29.34 412.85,-25.68 402.8,-22.34 402.91,-29.34"/>
</a>
</g>
</g>
<!-- Node14&#45;&gt;Node15 -->
<g id="edge15_Node000014_Node000015" class="edge">
<title>Node14&#45;&gt;Node15</title>
<g id="a_edge15_Node000014_Node000015"><a xlink:title=" ">
<path fill="none" stroke="#63b8ff" d="M208.39,-39.11C193.26,-41.19 178.55,-43.2 166.65,-44.84"/>
<polygon fill="#63b8ff" stroke="#63b8ff" points="208.52,-42.63 217.95,-37.8 207.57,-35.69 208.52,-42.63"/>
</a>
</g>
</g>
<!-- Node16 -->
<g id="Node000016" class="node">
<title>Node16</title>
<g id="a_Node000016"><a xlink:href="main_8c.html#a77034286b8c64d0735c69535c5e9b732" target="_top" xlink:title=" ">
<polygon fill="white" stroke="#666666" points="68.5,-58.15 0,-58.15 0,-38.9 68.5,-38.9 68.5,-58.15"/>
<text xml:space="preserve" text-anchor="middle" x="34.25" y="-44.65" font-family="Helvetica,sans-Serif" font-size="10.00">__section__</text>
</a>
</g>
</g>
<!-- Node15&#45;&gt;Node16 -->
<g id="edge16_Node000015_Node000016" class="edge">
<title>Node15&#45;&gt;Node16</title>
<g id="a_edge16_Node000015_Node000016"><a xlink:title=" ">
<path fill="none" stroke="#63b8ff" d="M99.48,-48.52C89.46,-48.52 78.74,-48.52 68.97,-48.52"/>
<polygon fill="#63b8ff" stroke="#63b8ff" points="99.31,-52.03 109.31,-48.52 99.31,-45.03 99.31,-52.03"/>
</a>
</g>
</g>
<!-- Node17&#45;&gt;Node2 -->
<g id="edge19_Node000017_Node000002" class="edge">
<title>Node17&#45;&gt;Node2</title>
<g id="a_edge19_Node000017_Node000002"><a xlink:title=" ">
<path fill="none" stroke="#63b8ff" d="M1360.92,-34.39C1369.46,-36.33 1378.65,-38.08 1387.26,-39.42"/>
<polygon fill="#63b8ff" stroke="#63b8ff" points="1361.81,-31.01 1351.26,-32.01 1360.13,-37.8 1361.81,-31.01"/>
</a>
</g>
</g>
<!-- Node17&#45;&gt;Node18 -->
<g id="edge20_Node000017_Node000018" class="edge">
<title>Node17&#45;&gt;Node18</title>
<g id="a_edge20_Node000017_Node000018"><a xlink:title=" ">
<path fill="none" stroke="#63b8ff" d="M1289.29,-15.01C1277.95,-14.61 1265.57,-14.72 1254.79,-15.33"/>
<polygon fill="#63b8ff" stroke="#63b8ff" points="1288.94,-18.5 1299.11,-15.53 1289.31,-11.51 1288.94,-18.5"/>
</a>
</g>
</g>
<!-- Node18&#45;&gt;Node17 -->
<g id="edge22_Node000018_Node000017" class="edge">
<title>Node18&#45;&gt;Node17</title>
<g id="a_edge22_Node000018_Node000017"><a xlink:title=" ">
<path fill="none" stroke="#63b8ff" d="M1266.13,-28.17C1277.81,-28.44 1290.22,-28.2 1300.62,-27.44"/>
<polygon fill="#63b8ff" stroke="#63b8ff" points="1266.44,-24.67 1256.31,-27.78 1266.16,-31.67 1266.44,-24.67"/>
</a>
</g>
</g>
<!-- Node18&#45;&gt;Node18 -->
<g id="edge21_Node000018_Node000018" class="edge">
<title>Node18&#45;&gt;Node18</title>
<g id="a_edge21_Node000018_Node000018"><a xlink:title=" ">
<path fill="none" stroke="#63b8ff" d="M1242.95,-42.55C1240.7,-46.43 1234.72,-49.15 1225,-49.15 1207.22,-49.15 1201.95,-40.05 1209.17,-31.44"/>
<polygon fill="#63b8ff" stroke="#63b8ff" points="1246.43,-42.09 1241.11,-32.92 1239.55,-43.4 1246.43,-42.09"/>
</a>
</g>
</g>
</g>
</svg>

<g id="navigator" transform="translate(0 0)" fill="#404254">
  <rect fill="#f2f5e9" fill-opacity="0.5" stroke="#606060" stroke-width=".5" x="0" y="0" width="60" height="60"/>
  <use id="zoomplus" xlink:href="#zoomPlus" x="17" y="9" onmousedown="handleZoom(evt,'in')"/>
  <use id="zoomminus" xlink:href="#zoomMin" x="42" y="9" onmousedown="handleZoom(evt,'out')"/>
  <use id="reset" xlink:href="#resetDef" x="30" y="36" onmousedown="handleReset()"/>
   <use id="arrowup" xlink:href="#arrowUp" x="0" y="0" onmousedown="handlePan(0,-1)"/>
  <use id="arrowright" xlink:href="#arrowRight" x="0" y="0" onmousedown="handlePan(1,0)"/>
  <use id="arrowdown" xlink:href="#arrowDown" x="0" y="0" onmousedown="handlePan(0,1)"/>
  <use id="arrowleft" xlink:href="#arrowLeft" x="0" y="0" onmousedown="handlePan(-1,0)"/>
</g>
<svg viewBox="0 0 15 15" width="100%" height="30px" preserveAspectRatio="xMaxYMin meet">
 <g id="arrow_out" transform="scale(0.3 0.3)">
  <a xlink:href="lapi_8c_a708d3ea569d1e7174f06281ecba5a091_icgraph_org.svg" target="_base">
   <rect id="button" ry="5" rx="5" y="6" x="6" height="38" width="38"
        fill="#f2f5e9" fill-opacity="0.5" stroke="#606060" stroke-width="1.0"/>
   <path id="arrow"
     d="M 11.500037,31.436501 C 11.940474,20.09759 22.043105,11.32322 32.158766,21.979434 L 37.068811,17.246167 C 37.068811,17.246167 37.088388,32 37.088388,32 L 22.160133,31.978069 C 22.160133,31.978069 26.997745,27.140456 26.997745,27.140456 C 18.528582,18.264221 13.291696,25.230495 11.500037,31.436501 z"
     style="fill:#404040;"/>
  </a>
 </g>
</svg>

<style type='text/css'>
<![CDATA[
[data-mouse-over-selected='false'] { opacity: 0.7; }
[data-mouse-over-selected='true']  { opacity: 1.0; }
]]>
</style>
<script type="application/ecmascript"><![CDATA[
document.addEventListener('DOMContentLoaded', (event) => {
  highlightEdges();
  highlightAdjacentNodes();
});
]]></script>
</svg>
