<?xml version="1.0" encoding="UTF-8" standalone="no"?>
<!DOCTYPE svg PUBLIC "-//W3C//DTD SVG 1.1//EN"
 "http://www.w3.org/Graphics/SVG/1.1/DTD/svg11.dtd">
<!-- Generated by graphviz version 13.1.0 (20250701.0955)
 -->
<!-- Title: lua_tonumberx Pages: 1 -->
<!--zoomable 695 -->

<svg id="main" version="1.1" xmlns="http://www.w3.org/2000/svg" xmlns:xlink="http://www.w3.org/1999/xlink" xml:space="preserve" onload="init(evt)">

<style type="text/css"><![CDATA[
.node, .edge {opacity: 0.7;}
.node.selected, .edge.selected {opacity: 1;}
.edge:hover path { stroke: red; }
.edge:hover polygon { stroke: red; fill: red; }
]]></style>

<defs>
  <circle id="rim" cx="0" cy="0" r="7"/>
  <circle id="rim2" cx="0" cy="0" r="3.5"/>
  <g id="zoomPlus">
    <use xlink:href="#rim" fill="#404040"><set attributeName="fill" to="#808080" begin="zoomplus.mouseover" end="zoomplus.mouseout"/></use>
    <path d="M-4,0h8M0,-4v8" fill="none" stroke="white" stroke-width="1.5" pointer-events="none"/>
  </g>
  <g id="zoomMin">
    <use xlink:href="#rim" fill="#404040"><set attributeName="fill" to="#808080" begin="zoomminus.mouseover" end="zoomminus.mouseout"/></use>
    <path d="M-4,0h8" fill="none" stroke="white" stroke-width="1.5" pointer-events="none"/>
  </g>
  <g id="arrowUp" transform="translate(30 24)">
    <use xlink:href="#rim"/>
    <path pointer-events="none" fill="none" stroke="white" stroke-width="1.5" d="M0,-3.0v7 M-2.5,-0.5L0,-3.0L2.5,-0.5"/>
  </g>
  <g id="arrowRight" transform="rotate(90) translate(36 -43)">
    <use xlink:href="#rim"/>
    <path pointer-events="none" fill="none" stroke="white" stroke-width="1.5" d="M0,-3.0v7 M-2.5,-0.5L0,-3.0L2.5,-0.5"/>
  </g>
  <g id="arrowDown" transform="rotate(180) translate(-30 -48)">
    <use xlink:href="#rim"/>
    <path pointer-events="none" fill="none" stroke="white" stroke-width="1.5" d="M0,-3.0v7 M-2.5,-0.5L0,-3.0L2.5,-0.5"/>
  </g>
  <g id="arrowLeft" transform="rotate(270) translate(-36 17)">
    <use xlink:href="#rim"/>
    <path pointer-events="none" fill="none" stroke="white" stroke-width="1.5" d="M0,-3.0v7 M-2.5,-0.5L0,-3.0L2.5,-0.5"/>
  </g>
  <g id="resetDef">
    <use xlink:href="#rim2" fill="#404040"><set attributeName="fill" to="#808080" begin="reset.mouseover" end="reset.mouseout"/></use>
  </g>
</defs>
<script type="application/ecmascript">
var viewWidth = 440;
var viewHeight = 695;
var sectionId = 'dynsection-77';
</script>
<script type="application/ecmascript" xlink:href="svg.min.js"/>
<svg id="graph" class="graph">
<g id="viewport">
<title>lua_tonumberx</title>
<!-- Node1 -->
<g id="Node000001" class="node">
<title>Node1</title>
<g id="a_Node000001"><a xlink:title=" ">
<polygon fill="#999999" stroke="#666666" points="432.25,-352.25 352.5,-352.25 352.5,-333 432.25,-333 432.25,-352.25"/>
<text xml:space="preserve" text-anchor="middle" x="392.38" y="-338.75" font-family="Helvetica,sans-Serif" font-size="10.00">lua_tonumberx</text>
</a>
</g>
</g>
<!-- Node2 -->
<g id="Node000002" class="node">
<title>Node2</title>
<g id="a_Node000002"><a xlink:href="lauxlib_8c.html#a9f2c941bb5eb7d3a7746f35c4fe3cced" target="_top" xlink:title=" ">
<polygon fill="white" stroke="#666666" points="316.5,-352.25 218.75,-352.25 218.75,-333 316.5,-333 316.5,-352.25"/>
<text xml:space="preserve" text-anchor="middle" x="267.62" y="-338.75" font-family="Helvetica,sans-Serif" font-size="10.00">luaL_checknumber</text>
</a>
</g>
</g>
<!-- Node1&#45;&gt;Node2 -->
<g id="edge1_Node000001_Node000002" class="edge">
<title>Node1&#45;&gt;Node2</title>
<g id="a_edge1_Node000001_Node000002"><a xlink:title=" ">
<path fill="none" stroke="#63b8ff" d="M340.84,-342.62C332.93,-342.62 324.76,-342.62 316.9,-342.62"/>
<polygon fill="#63b8ff" stroke="#63b8ff" points="340.69,-346.13 350.69,-342.63 340.69,-339.13 340.69,-346.13"/>
</a>
</g>
</g>
<!-- Node3 -->
<g id="Node000003" class="node">
<title>Node3</title>
<g id="a_Node000003"><a xlink:href="lauxlib_8c.html#afa696696945ee6215c0033656ee64e97" target="_top" xlink:title=" ">
<polygon fill="white" stroke="#666666" points="182.75,-687.25 97.75,-687.25 97.75,-668 182.75,-668 182.75,-687.25"/>
<text xml:space="preserve" text-anchor="middle" x="140.25" y="-673.75" font-family="Helvetica,sans-Serif" font-size="10.00">luaL_optnumber</text>
</a>
</g>
</g>
<!-- Node2&#45;&gt;Node3 -->
<g id="edge2_Node000002_Node000003" class="edge">
<title>Node2&#45;&gt;Node3</title>
<g id="a_edge2_Node000002_Node000003"><a xlink:title=" ">
<path fill="none" stroke="#63b8ff" d="M266.28,-363.86C264.36,-417.89 252.6,-562.68 182.75,-653.62 178.29,-659.43 171.99,-664.08 165.65,-667.69"/>
<polygon fill="#63b8ff" stroke="#63b8ff" points="269.77,-364.3 266.54,-354.21 262.77,-364.11 269.77,-364.3"/>
</a>
</g>
</g>
<!-- Node4 -->
<g id="Node000004" class="node">
<title>Node4</title>
<g id="a_Node000004"><a xlink:href="lmathlib_8c.html#a70217d6c0312477f3e257a584518424c" target="_top" xlink:title=" ">
<polygon fill="white" stroke="#666666" points="61.75,-668.25 0,-668.25 0,-649 61.75,-649 61.75,-668.25"/>
<text xml:space="preserve" text-anchor="middle" x="30.88" y="-654.75" font-family="Helvetica,sans-Serif" font-size="10.00">math_atan</text>
</a>
</g>
</g>
<!-- Node2&#45;&gt;Node4 -->
<g id="edge7_Node000002_Node000004" class="edge">
<title>Node2&#45;&gt;Node4</title>
<g id="a_edge7_Node000002_Node000004"><a xlink:title=" ">
<path fill="none" stroke="#63b8ff" d="M266.85,-363.79C266.21,-415.59 257.04,-549.7 182.75,-620.62 150.12,-651.78 95.86,-658.46 62.07,-659.33"/>
<polygon fill="#63b8ff" stroke="#63b8ff" points="270.35,-364 266.87,-353.99 263.35,-363.99 270.35,-364"/>
</a>
</g>
</g>
<!-- Node5 -->
<g id="Node000005" class="node">
<title>Node5</title>
<g id="a_Node000005"><a xlink:href="lmathlib_8c.html#a9545dd3926974393ff34e33a108df628" target="_top" xlink:title=" ">
<polygon fill="white" stroke="#666666" points="169.62,-611.25 110.88,-611.25 110.88,-592 169.62,-592 169.62,-611.25"/>
<text xml:space="preserve" text-anchor="middle" x="140.25" y="-597.75" font-family="Helvetica,sans-Serif" font-size="10.00">math_abs</text>
</a>
</g>
</g>
<!-- Node2&#45;&gt;Node5 -->
<g id="edge4_Node000002_Node000005" class="edge">
<title>Node2&#45;&gt;Node5</title>
<g id="a_edge4_Node000002_Node000005"><a xlink:title=" ">
<path fill="none" stroke="#63b8ff" d="M264.91,-363.65C260.11,-409.4 242.68,-519.06 182.75,-583.62 179.22,-587.42 174.76,-590.46 170.07,-592.87"/>
<polygon fill="#63b8ff" stroke="#63b8ff" points="268.39,-364.09 265.83,-353.81 261.42,-363.44 268.39,-364.09"/>
</a>
</g>
</g>
<!-- Node6 -->
<g id="Node000006" class="node">
<title>Node6</title>
<g id="a_Node000006"><a xlink:href="lmathlib_8c.html#a9f983fa3cca14d69429cebc95be4fab1" target="_top" xlink:title=" ">
<polygon fill="white" stroke="#666666" points="172.25,-574.25 108.25,-574.25 108.25,-555 172.25,-555 172.25,-574.25"/>
<text xml:space="preserve" text-anchor="middle" x="140.25" y="-560.75" font-family="Helvetica,sans-Serif" font-size="10.00">math_acos</text>
</a>
</g>
</g>
<!-- Node2&#45;&gt;Node6 -->
<g id="edge5_Node000002_Node000006" class="edge">
<title>Node2&#45;&gt;Node6</title>
<g id="a_edge5_Node000002_Node000006"><a xlink:title=" ">
<path fill="none" stroke="#63b8ff" d="M263.35,-363.7C256.01,-404.23 234.65,-493.73 182.75,-546.62 179.67,-549.76 175.95,-552.39 172.02,-554.58"/>
<polygon fill="#63b8ff" stroke="#63b8ff" points="266.76,-364.51 264.97,-354.06 259.86,-363.34 266.76,-364.51"/>
</a>
</g>
</g>
<!-- Node7 -->
<g id="Node000007" class="node">
<title>Node7</title>
<g id="a_Node000007"><a xlink:href="lmathlib_8c.html#aa44ea66108bb38acbe5c8cb2ce6de33f" target="_top" xlink:title=" ">
<polygon fill="white" stroke="#666666" points="170.75,-537.25 109.75,-537.25 109.75,-518 170.75,-518 170.75,-537.25"/>
<text xml:space="preserve" text-anchor="middle" x="140.25" y="-523.75" font-family="Helvetica,sans-Serif" font-size="10.00">math_asin</text>
</a>
</g>
</g>
<!-- Node2&#45;&gt;Node7 -->
<g id="edge6_Node000002_Node000007" class="edge">
<title>Node2&#45;&gt;Node7</title>
<g id="a_edge6_Node000002_Node000007"><a xlink:title=" ">
<path fill="none" stroke="#63b8ff" d="M261.23,-363.42C251.26,-398.08 226.83,-467.96 182.75,-509.62 179.33,-512.86 175.23,-515.57 170.96,-517.82"/>
<polygon fill="#63b8ff" stroke="#63b8ff" points="264.49,-364.76 263.76,-354.19 257.74,-362.91 264.49,-364.76"/>
</a>
</g>
</g>
<!-- Node8 -->
<g id="Node000008" class="node">
<title>Node8</title>
<g id="a_Node000008"><a xlink:href="lmathlib_8c.html#ae4f0dc771c626a9badef237db9d433da" target="_top" xlink:title=" ">
<polygon fill="white" stroke="#666666" points="169.25,-500.25 111.25,-500.25 111.25,-481 169.25,-481 169.25,-500.25"/>
<text xml:space="preserve" text-anchor="middle" x="140.25" y="-486.75" font-family="Helvetica,sans-Serif" font-size="10.00">math_ceil</text>
</a>
</g>
</g>
<!-- Node2&#45;&gt;Node8 -->
<g id="edge8_Node000002_Node000008" class="edge">
<title>Node2&#45;&gt;Node8</title>
<g id="a_edge8_Node000002_Node000008"><a xlink:title=" ">
<path fill="none" stroke="#63b8ff" d="M258.08,-363.04C245.41,-391.14 219.13,-441.76 182.75,-472.62 178.8,-475.98 174.12,-478.8 169.37,-481.14"/>
<polygon fill="#63b8ff" stroke="#63b8ff" points="261.29,-364.45 262.07,-353.89 254.87,-361.66 261.29,-364.45"/>
</a>
</g>
</g>
<!-- Node9 -->
<g id="Node000009" class="node">
<title>Node9</title>
<g id="a_Node000009"><a xlink:href="lmathlib_8c.html#a5db2cf8c6e7a331d7daf259f305e057c" target="_top" xlink:title=" ">
<polygon fill="white" stroke="#666666" points="169.62,-463.25 110.88,-463.25 110.88,-444 169.62,-444 169.62,-463.25"/>
<text xml:space="preserve" text-anchor="middle" x="140.25" y="-449.75" font-family="Helvetica,sans-Serif" font-size="10.00">math_cos</text>
</a>
</g>
</g>
<!-- Node2&#45;&gt;Node9 -->
<g id="edge9_Node000002_Node000009" class="edge">
<title>Node2&#45;&gt;Node9</title>
<g id="a_edge9_Node000002_Node000009"><a xlink:title=" ">
<path fill="none" stroke="#63b8ff" d="M253.2,-361.87C238.06,-382.4 211.75,-414.79 182.75,-435.62 178.54,-438.65 173.74,-441.31 168.94,-443.6"/>
<polygon fill="#63b8ff" stroke="#63b8ff" points="256,-363.98 258.99,-353.82 250.31,-359.89 256,-363.98"/>
</a>
</g>
</g>
<!-- Node10 -->
<g id="Node000010" class="node">
<title>Node10</title>
<g id="a_Node000010"><a xlink:href="lmathlib_8c.html#ad9bd03062009a4aba15739a1630b2a25" target="_top" xlink:title=" ">
<polygon fill="white" stroke="#666666" points="169.62,-426.25 110.88,-426.25 110.88,-407 169.62,-407 169.62,-426.25"/>
<text xml:space="preserve" text-anchor="middle" x="140.25" y="-412.75" font-family="Helvetica,sans-Serif" font-size="10.00">math_deg</text>
</a>
</g>
</g>
<!-- Node2&#45;&gt;Node10 -->
<g id="edge10_Node000002_Node000010" class="edge">
<title>Node2&#45;&gt;Node10</title>
<g id="a_edge10_Node000002_Node000010"><a xlink:title=" ">
<path fill="none" stroke="#63b8ff" d="M244.27,-359.15C227.76,-370.96 204.47,-386.79 182.75,-398.62 177.51,-401.48 171.72,-404.23 166.18,-406.68"/>
<polygon fill="#63b8ff" stroke="#63b8ff" points="245.88,-362.31 251.92,-353.61 241.77,-356.64 245.88,-362.31"/>
</a>
</g>
</g>
<!-- Node11 -->
<g id="Node000011" class="node">
<title>Node11</title>
<g id="a_Node000011"><a xlink:href="lmathlib_8c.html#a7c971c680cdad8e4e833f8a3db9d065d" target="_top" xlink:title=" ">
<polygon fill="white" stroke="#666666" points="169.62,-389.25 110.88,-389.25 110.88,-370 169.62,-370 169.62,-389.25"/>
<text xml:space="preserve" text-anchor="middle" x="140.25" y="-375.75" font-family="Helvetica,sans-Serif" font-size="10.00">math_exp</text>
</a>
</g>
</g>
<!-- Node2&#45;&gt;Node11 -->
<g id="edge11_Node000002_Node000011" class="edge">
<title>Node2&#45;&gt;Node11</title>
<g id="a_edge11_Node000002_Node000011"><a xlink:title=" ">
<path fill="none" stroke="#63b8ff" d="M221.42,-355.97C204.25,-361.03 185.19,-366.66 169.95,-371.15"/>
<polygon fill="#63b8ff" stroke="#63b8ff" points="222.31,-359.35 230.91,-353.16 220.33,-352.64 222.31,-359.35"/>
</a>
</g>
</g>
<!-- Node12 -->
<g id="Node000012" class="node">
<title>Node12</title>
<g id="a_Node000012"><a xlink:href="lmathlib_8c.html#aa063dcd93e924af13c5e311f89b18d03" target="_top" xlink:title=" ">
<polygon fill="white" stroke="#666666" points="171.12,-352.25 109.38,-352.25 109.38,-333 171.12,-333 171.12,-352.25"/>
<text xml:space="preserve" text-anchor="middle" x="140.25" y="-338.75" font-family="Helvetica,sans-Serif" font-size="10.00">math_floor</text>
</a>
</g>
</g>
<!-- Node2&#45;&gt;Node12 -->
<g id="edge12_Node000002_Node000012" class="edge">
<title>Node2&#45;&gt;Node12</title>
<g id="a_edge12_Node000002_Node000012"><a xlink:title=" ">
<path fill="none" stroke="#63b8ff" d="M207.18,-342.62C194.73,-342.62 182.11,-342.62 171.29,-342.62"/>
<polygon fill="#63b8ff" stroke="#63b8ff" points="207,-346.13 217,-342.63 207,-339.13 207,-346.13"/>
</a>
</g>
</g>
<!-- Node13 -->
<g id="Node000013" class="node">
<title>Node13</title>
<g id="a_Node000013"><a xlink:href="lmathlib_8c.html#a25b3f7d30cf85b8248a72de20049564e" target="_top" xlink:title=" ">
<polygon fill="white" stroke="#666666" points="172.62,-315.25 107.88,-315.25 107.88,-296 172.62,-296 172.62,-315.25"/>
<text xml:space="preserve" text-anchor="middle" x="140.25" y="-301.75" font-family="Helvetica,sans-Serif" font-size="10.00">math_fmod</text>
</a>
</g>
</g>
<!-- Node2&#45;&gt;Node13 -->
<g id="edge13_Node000002_Node000013" class="edge">
<title>Node2&#45;&gt;Node13</title>
<g id="a_edge13_Node000002_Node000013"><a xlink:title=" ">
<path fill="none" stroke="#63b8ff" d="M221.54,-329.32C205.43,-324.56 187.63,-319.31 172.89,-314.96"/>
<polygon fill="#63b8ff" stroke="#63b8ff" points="220.33,-332.61 230.91,-332.09 222.31,-325.9 220.33,-332.61"/>
</a>
</g>
</g>
<!-- Node14 -->
<g id="Node000014" class="node">
<title>Node14</title>
<g id="a_Node000014"><a xlink:href="lmathlib_8c.html#a7cb92978495484adbfc9d0cb0ace2cc2" target="_top" xlink:title=" ">
<polygon fill="white" stroke="#666666" points="168.12,-278.25 112.38,-278.25 112.38,-259 168.12,-259 168.12,-278.25"/>
<text xml:space="preserve" text-anchor="middle" x="140.25" y="-264.75" font-family="Helvetica,sans-Serif" font-size="10.00">math_log</text>
</a>
</g>
</g>
<!-- Node2&#45;&gt;Node14 -->
<g id="edge14_Node000002_Node000014" class="edge">
<title>Node2&#45;&gt;Node14</title>
<g id="a_edge14_Node000002_Node000014"><a xlink:title=" ">
<path fill="none" stroke="#63b8ff" d="M244.27,-326.1C227.76,-314.29 204.47,-298.46 182.75,-286.62 177.51,-283.77 171.72,-281.02 166.18,-278.57"/>
<polygon fill="#63b8ff" stroke="#63b8ff" points="241.77,-328.61 251.92,-331.64 245.88,-322.94 241.77,-328.61"/>
</a>
</g>
</g>
<!-- Node15 -->
<g id="Node000015" class="node">
<title>Node15</title>
<g id="a_Node000015"><a xlink:href="lmathlib_8c.html#adff369706deb34be360be3103f31d4c4" target="_top" xlink:title=" ">
<polygon fill="white" stroke="#666666" points="172.62,-241.25 107.88,-241.25 107.88,-222 172.62,-222 172.62,-241.25"/>
<text xml:space="preserve" text-anchor="middle" x="140.25" y="-227.75" font-family="Helvetica,sans-Serif" font-size="10.00">math_modf</text>
</a>
</g>
</g>
<!-- Node2&#45;&gt;Node15 -->
<g id="edge15_Node000002_Node000015" class="edge">
<title>Node2&#45;&gt;Node15</title>
<g id="a_edge15_Node000002_Node000015"><a xlink:title=" ">
<path fill="none" stroke="#63b8ff" d="M253.2,-323.38C238.06,-302.85 211.75,-270.46 182.75,-249.62 178.54,-246.6 173.74,-243.94 168.94,-241.65"/>
<polygon fill="#63b8ff" stroke="#63b8ff" points="250.31,-325.36 258.99,-331.43 256,-321.27 250.31,-325.36"/>
</a>
</g>
</g>
<!-- Node16 -->
<g id="Node000016" class="node">
<title>Node16</title>
<g id="a_Node000016"><a xlink:href="lmathlib_8c.html#a5d8eec19cea59d1ce1012a705f70dc8d" target="_top" xlink:title=" ">
<polygon fill="white" stroke="#666666" points="168.5,-204.25 112,-204.25 112,-185 168.5,-185 168.5,-204.25"/>
<text xml:space="preserve" text-anchor="middle" x="140.25" y="-190.75" font-family="Helvetica,sans-Serif" font-size="10.00">math_rad</text>
</a>
</g>
</g>
<!-- Node2&#45;&gt;Node16 -->
<g id="edge16_Node000002_Node000016" class="edge">
<title>Node2&#45;&gt;Node16</title>
<g id="a_edge16_Node000002_Node000016"><a xlink:title=" ">
<path fill="none" stroke="#63b8ff" d="M258.08,-322.21C245.41,-294.11 219.13,-243.49 182.75,-212.62 178.68,-209.17 173.84,-206.28 168.93,-203.9"/>
<polygon fill="#63b8ff" stroke="#63b8ff" points="254.87,-323.59 262.07,-331.36 261.29,-320.8 254.87,-323.59"/>
</a>
</g>
</g>
<!-- Node17 -->
<g id="Node000017" class="node">
<title>Node17</title>
<g id="a_Node000017"><a xlink:href="lmathlib_8c.html#adb460e2b01df47afcaa823ecc1846a24" target="_top" xlink:title=" ">
<polygon fill="white" stroke="#666666" points="168.12,-167.25 112.38,-167.25 112.38,-148 168.12,-148 168.12,-167.25"/>
<text xml:space="preserve" text-anchor="middle" x="140.25" y="-153.75" font-family="Helvetica,sans-Serif" font-size="10.00">math_sin</text>
</a>
</g>
</g>
<!-- Node2&#45;&gt;Node17 -->
<g id="edge17_Node000002_Node000017" class="edge">
<title>Node2&#45;&gt;Node17</title>
<g id="a_edge17_Node000002_Node000017"><a xlink:title=" ">
<path fill="none" stroke="#63b8ff" d="M261.23,-321.83C251.26,-287.17 226.83,-217.29 182.75,-175.62 178.64,-171.74 173.56,-168.62 168.38,-166.13"/>
<polygon fill="#63b8ff" stroke="#63b8ff" points="257.74,-322.34 263.76,-331.06 264.49,-320.49 257.74,-322.34"/>
</a>
</g>
</g>
<!-- Node18 -->
<g id="Node000018" class="node">
<title>Node18</title>
<g id="a_Node000018"><a xlink:href="lmathlib_8c.html#a8f4c386bafe8ae7269476ed3ed94d1d8" target="_top" xlink:title=" ">
<polygon fill="white" stroke="#666666" points="170,-130.25 110.5,-130.25 110.5,-111 170,-111 170,-130.25"/>
<text xml:space="preserve" text-anchor="middle" x="140.25" y="-116.75" font-family="Helvetica,sans-Serif" font-size="10.00">math_sqrt</text>
</a>
</g>
</g>
<!-- Node2&#45;&gt;Node18 -->
<g id="edge18_Node000002_Node000018" class="edge">
<title>Node2&#45;&gt;Node18</title>
<g id="a_edge18_Node000002_Node000018"><a xlink:title=" ">
<path fill="none" stroke="#63b8ff" d="M263.35,-321.55C256.01,-281.02 234.65,-191.52 182.75,-138.62 179.23,-135.04 174.88,-132.12 170.33,-129.76"/>
<polygon fill="#63b8ff" stroke="#63b8ff" points="259.86,-321.91 264.97,-331.19 266.76,-320.74 259.86,-321.91"/>
</a>
</g>
</g>
<!-- Node19 -->
<g id="Node000019" class="node">
<title>Node19</title>
<g id="a_Node000019"><a xlink:href="lmathlib_8c.html#a06bc9b8c610e00759bb99c3db6128f18" target="_top" xlink:title=" ">
<polygon fill="white" stroke="#666666" points="168.5,-93.25 112,-93.25 112,-74 168.5,-74 168.5,-93.25"/>
<text xml:space="preserve" text-anchor="middle" x="140.25" y="-79.75" font-family="Helvetica,sans-Serif" font-size="10.00">math_tan</text>
</a>
</g>
</g>
<!-- Node2&#45;&gt;Node19 -->
<g id="edge19_Node000002_Node000019" class="edge">
<title>Node2&#45;&gt;Node19</title>
<g id="a_edge19_Node000002_Node000019"><a xlink:title=" ">
<path fill="none" stroke="#63b8ff" d="M264.91,-321.6C260.11,-275.85 242.68,-166.19 182.75,-101.62 178.9,-97.48 173.94,-94.24 168.79,-91.73"/>
<polygon fill="#63b8ff" stroke="#63b8ff" points="261.42,-321.81 265.83,-331.44 268.39,-321.16 261.42,-321.81"/>
</a>
</g>
</g>
<!-- Node20 -->
<g id="Node000020" class="node">
<title>Node20</title>
<g id="a_Node000020"><a xlink:href="lstrlib_8c.html#ae26a9374857058119e59d0328208c2f2" target="_top" xlink:title=" ">
<polygon fill="white" stroke="#666666" points="170.38,-56.25 110.12,-56.25 110.12,-37 170.38,-37 170.38,-56.25"/>
<text xml:space="preserve" text-anchor="middle" x="140.25" y="-42.75" font-family="Helvetica,sans-Serif" font-size="10.00">str_format</text>
</a>
</g>
</g>
<!-- Node2&#45;&gt;Node20 -->
<g id="edge20_Node000002_Node000020" class="edge">
<title>Node2&#45;&gt;Node20</title>
<g id="a_edge20_Node000002_Node000020"><a xlink:title=" ">
<path fill="none" stroke="#63b8ff" d="M266.05,-321.18C263.58,-270.29 250.58,-140.84 182.75,-64.62 179.41,-60.87 175.14,-57.87 170.63,-55.48"/>
<polygon fill="#63b8ff" stroke="#63b8ff" points="262.55,-321.22 266.43,-331.08 269.55,-320.95 262.55,-321.22"/>
</a>
</g>
</g>
<!-- Node21 -->
<g id="Node000021" class="node">
<title>Node21</title>
<g id="a_Node000021"><a xlink:href="lstrlib_8c.html#abcf8553ae8937fd4f4bf85c72f528710" target="_top" xlink:title=" ">
<polygon fill="white" stroke="#666666" points="167,-19.25 113.5,-19.25 113.5,0 167,0 167,-19.25"/>
<text xml:space="preserve" text-anchor="middle" x="140.25" y="-5.75" font-family="Helvetica,sans-Serif" font-size="10.00">str_pack</text>
</a>
</g>
</g>
<!-- Node2&#45;&gt;Node21 -->
<g id="edge21_Node000002_Node000021" class="edge">
<title>Node2&#45;&gt;Node21</title>
<g id="a_edge21_Node000002_Node000021"><a xlink:title=" ">
<path fill="none" stroke="#63b8ff" d="M266.98,-321.37C266.77,-266.08 258.82,-115.96 182.75,-27.62 178.65,-22.86 173.06,-19.32 167.31,-16.7"/>
<polygon fill="#63b8ff" stroke="#63b8ff" points="263.48,-321.22 266.92,-331.24 270.48,-321.26 263.48,-321.22"/>
</a>
</g>
</g>
<!-- Node3&#45;&gt;Node4 -->
<g id="edge3_Node000003_Node000004" class="edge">
<title>Node3&#45;&gt;Node4</title>
<g id="a_edge3_Node000003_Node000004"><a xlink:title=" ">
<path fill="none" stroke="#63b8ff" d="M86.23,-668.24C77.95,-666.78 69.65,-665.31 62.12,-663.98"/>
<polygon fill="#63b8ff" stroke="#63b8ff" points="85.48,-671.66 95.94,-669.96 86.7,-664.77 85.48,-671.66"/>
</a>
</g>
</g>
</g>
</svg>

<g id="navigator" transform="translate(0 0)" fill="#404254">
  <rect fill="#f2f5e9" fill-opacity="0.5" stroke="#606060" stroke-width=".5" x="0" y="0" width="60" height="60"/>
  <use id="zoomplus" xlink:href="#zoomPlus" x="17" y="9" onmousedown="handleZoom(evt,'in')"/>
  <use id="zoomminus" xlink:href="#zoomMin" x="42" y="9" onmousedown="handleZoom(evt,'out')"/>
  <use id="reset" xlink:href="#resetDef" x="30" y="36" onmousedown="handleReset()"/>
   <use id="arrowup" xlink:href="#arrowUp" x="0" y="0" onmousedown="handlePan(0,-1)"/>
  <use id="arrowright" xlink:href="#arrowRight" x="0" y="0" onmousedown="handlePan(1,0)"/>
  <use id="arrowdown" xlink:href="#arrowDown" x="0" y="0" onmousedown="handlePan(0,1)"/>
  <use id="arrowleft" xlink:href="#arrowLeft" x="0" y="0" onmousedown="handlePan(-1,0)"/>
</g>
<svg viewBox="0 0 15 15" width="100%" height="30px" preserveAspectRatio="xMaxYMin meet">
 <g id="arrow_out" transform="scale(0.3 0.3)">
  <a xlink:href="lapi_8c_a375da41304604b0cba0b8c798499e673_icgraph_org.svg" target="_base">
   <rect id="button" ry="5" rx="5" y="6" x="6" height="38" width="38"
        fill="#f2f5e9" fill-opacity="0.5" stroke="#606060" stroke-width="1.0"/>
   <path id="arrow"
     d="M 11.500037,31.436501 C 11.940474,20.09759 22.043105,11.32322 32.158766,21.979434 L 37.068811,17.246167 C 37.068811,17.246167 37.088388,32 37.088388,32 L 22.160133,31.978069 C 22.160133,31.978069 26.997745,27.140456 26.997745,27.140456 C 18.528582,18.264221 13.291696,25.230495 11.500037,31.436501 z"
     style="fill:#404040;"/>
  </a>
 </g>
</svg>

<style type='text/css'>
<![CDATA[
[data-mouse-over-selected='false'] { opacity: 0.7; }
[data-mouse-over-selected='true']  { opacity: 1.0; }
]]>
</style>
<script type="application/ecmascript"><![CDATA[
document.addEventListener('DOMContentLoaded', (event) => {
  highlightEdges();
  highlightAdjacentNodes();
});
]]></script>
</svg>
