<?xml version="1.0" encoding="UTF-8" standalone="no"?>
<!DOCTYPE svg PUBLIC "-//W3C//DTD SVG 1.1//EN"
 "http://www.w3.org/Graphics/SVG/1.1/DTD/svg11.dtd">
<!-- Generated by graphviz version 13.1.0 (20250701.0955)
 -->
<!-- Title: lua_upvalueid Pages: 1 -->
<svg width="301pt" height="64pt"
 viewBox="0.00 0.00 301.00 64.00" xmlns="http://www.w3.org/2000/svg" xmlns:xlink="http://www.w3.org/1999/xlink">
<g id="graph0" class="graph" transform="scale(1 1) rotate(0) translate(4 60.25)">
<title>lua_upvalueid</title>
<!-- Node1 -->
<g id="Node000001" class="node">
<title>Node1</title>
<g id="a_Node000001"><a xlink:title=" ">
<polygon fill="#999999" stroke="#666666" points="293.25,-37.25 218,-37.25 218,-18 293.25,-18 293.25,-37.25"/>
<text xml:space="preserve" text-anchor="middle" x="255.62" y="-23.75" font-family="Helvetica,sans-Serif" font-size="10.00">lua_upvalueid</text>
</a>
</g>
</g>
<!-- Node2 -->
<g id="Node000002" class="node">
<title>Node2</title>
<g id="a_Node000002"><a xlink:href="ldblib_8c.html#a50755daee98335f9fd9317ab6ff7e1ce" target="_top" xlink:title=" ">
<polygon fill="white" stroke="#666666" points="182,-37.25 116.5,-37.25 116.5,-18 182,-18 182,-37.25"/>
<text xml:space="preserve" text-anchor="middle" x="149.25" y="-23.75" font-family="Helvetica,sans-Serif" font-size="10.00">checkupval</text>
</a>
</g>
</g>
<!-- Node1&#45;&gt;Node2 -->
<g id="edge1_Node000001_Node000002" class="edge">
<title>Node1&#45;&gt;Node2</title>
<g id="a_edge1_Node000001_Node000002"><a xlink:title=" ">
<path fill="none" stroke="#63b8ff" d="M206.25,-27.62C198.15,-27.62 189.93,-27.62 182.38,-27.62"/>
<polygon fill="#63b8ff" stroke="#63b8ff" points="206.02,-31.13 216.02,-27.63 206.02,-24.13 206.02,-31.13"/>
</a>
</g>
</g>
<!-- Node3 -->
<g id="Node000003" class="node">
<title>Node3</title>
<g id="a_Node000003"><a xlink:href="ldblib_8c.html#ade86533c6188a941aae1be4396a20393" target="_top" xlink:title=" ">
<polygon fill="white" stroke="#666666" points="76.75,-56.25 3.75,-56.25 3.75,-37 76.75,-37 76.75,-56.25"/>
<text xml:space="preserve" text-anchor="middle" x="40.25" y="-42.75" font-family="Helvetica,sans-Serif" font-size="10.00">db_upvalueid</text>
</a>
</g>
</g>
<!-- Node2&#45;&gt;Node3 -->
<g id="edge2_Node000002_Node000003" class="edge">
<title>Node2&#45;&gt;Node3</title>
<g id="a_edge2_Node000002_Node000003"><a xlink:title=" ">
<path fill="none" stroke="#63b8ff" d="M105.1,-35.29C95.79,-36.94 86.06,-38.67 77.07,-40.26"/>
<polygon fill="#63b8ff" stroke="#63b8ff" points="105.42,-38.78 114.66,-33.59 104.2,-31.89 105.42,-38.78"/>
</a>
</g>
</g>
<!-- Node4 -->
<g id="Node000004" class="node">
<title>Node4</title>
<g id="a_Node000004"><a xlink:href="ldblib_8c.html#acd80bdb3262b3580eb6955f6f3eb3549" target="_top" xlink:title=" ">
<polygon fill="white" stroke="#666666" points="80.5,-19.25 0,-19.25 0,0 80.5,0 80.5,-19.25"/>
<text xml:space="preserve" text-anchor="middle" x="40.25" y="-5.75" font-family="Helvetica,sans-Serif" font-size="10.00">db_upvaluejoin</text>
</a>
</g>
</g>
<!-- Node2&#45;&gt;Node4 -->
<g id="edge3_Node000002_Node000004" class="edge">
<title>Node2&#45;&gt;Node4</title>
<g id="a_edge3_Node000002_Node000004"><a xlink:title=" ">
<path fill="none" stroke="#63b8ff" d="M104.85,-20.32C96.93,-18.99 88.71,-17.61 80.91,-16.3"/>
<polygon fill="#63b8ff" stroke="#63b8ff" points="104.21,-23.77 114.65,-21.97 105.37,-16.86 104.21,-23.77"/>
</a>
</g>
</g>
</g>
</svg>
