<?xml version="1.0" encoding="UTF-8" standalone="no"?>
<!DOCTYPE svg PUBLIC "-//W3C//DTD SVG 1.1//EN"
 "http://www.w3.org/Graphics/SVG/1.1/DTD/svg11.dtd">
<!-- Generated by graphviz version 13.1.0 (20250701.0955)
 -->
<!-- Title: lua_touserdata Pages: 1 -->
<!--zoomable 719 -->

<svg id="main" version="1.1" xmlns="http://www.w3.org/2000/svg" xmlns:xlink="http://www.w3.org/1999/xlink" xml:space="preserve" onload="init(evt)">

<style type="text/css"><![CDATA[
.node, .edge {opacity: 0.7;}
.node.selected, .edge.selected {opacity: 1;}
.edge:hover path { stroke: red; }
.edge:hover polygon { stroke: red; fill: red; }
]]></style>

<defs>
  <circle id="rim" cx="0" cy="0" r="7"/>
  <circle id="rim2" cx="0" cy="0" r="3.5"/>
  <g id="zoomPlus">
    <use xlink:href="#rim" fill="#404040"><set attributeName="fill" to="#808080" begin="zoomplus.mouseover" end="zoomplus.mouseout"/></use>
    <path d="M-4,0h8M0,-4v8" fill="none" stroke="white" stroke-width="1.5" pointer-events="none"/>
  </g>
  <g id="zoomMin">
    <use xlink:href="#rim" fill="#404040"><set attributeName="fill" to="#808080" begin="zoomminus.mouseover" end="zoomminus.mouseout"/></use>
    <path d="M-4,0h8" fill="none" stroke="white" stroke-width="1.5" pointer-events="none"/>
  </g>
  <g id="arrowUp" transform="translate(30 24)">
    <use xlink:href="#rim"/>
    <path pointer-events="none" fill="none" stroke="white" stroke-width="1.5" d="M0,-3.0v7 M-2.5,-0.5L0,-3.0L2.5,-0.5"/>
  </g>
  <g id="arrowRight" transform="rotate(90) translate(36 -43)">
    <use xlink:href="#rim"/>
    <path pointer-events="none" fill="none" stroke="white" stroke-width="1.5" d="M0,-3.0v7 M-2.5,-0.5L0,-3.0L2.5,-0.5"/>
  </g>
  <g id="arrowDown" transform="rotate(180) translate(-30 -48)">
    <use xlink:href="#rim"/>
    <path pointer-events="none" fill="none" stroke="white" stroke-width="1.5" d="M0,-3.0v7 M-2.5,-0.5L0,-3.0L2.5,-0.5"/>
  </g>
  <g id="arrowLeft" transform="rotate(270) translate(-36 17)">
    <use xlink:href="#rim"/>
    <path pointer-events="none" fill="none" stroke="white" stroke-width="1.5" d="M0,-3.0v7 M-2.5,-0.5L0,-3.0L2.5,-0.5"/>
  </g>
  <g id="resetDef">
    <use xlink:href="#rim2" fill="#404040"><set attributeName="fill" to="#808080" begin="reset.mouseover" end="reset.mouseout"/></use>
  </g>
</defs>
<script type="application/ecmascript">
var viewWidth = 746;
var viewHeight = 719;
var sectionId = 'dynsection-80';
</script>
<script type="application/ecmascript" xlink:href="svg.min.js"/>
<svg id="graph" class="graph">
<g id="viewport">
<title>lua_touserdata</title>
<!-- Node1 -->
<g id="Node000001" class="node">
<title>Node1</title>
<g id="a_Node000001"><a xlink:title=" ">
<polygon fill="#999999" stroke="#666666" points="738,-296.25 658.25,-296.25 658.25,-277 738,-277 738,-296.25"/>
<text xml:space="preserve" text-anchor="middle" x="698.12" y="-282.75" font-family="Helvetica,sans-Serif" font-size="10.00">lua_touserdata</text>
</a>
</g>
</g>
<!-- Node2 -->
<g id="Node000002" class="node">
<title>Node2</title>
<g id="a_Node000002"><a xlink:href="loadlib_8c.html#ac0600b0f7e00d52a90c3ff67a6b4c114" target="_top" xlink:title=" ">
<polygon fill="white" stroke="#666666" points="602.75,-657.25 545.5,-657.25 545.5,-638 602.75,-638 602.75,-657.25"/>
<text xml:space="preserve" text-anchor="middle" x="574.12" y="-643.75" font-family="Helvetica,sans-Serif" font-size="10.00">checkclib</text>
</a>
</g>
</g>
<!-- Node1&#45;&gt;Node2 -->
<g id="edge1_Node000001_Node000002" class="edge">
<title>Node1&#45;&gt;Node2</title>
<g id="a_edge1_Node000001_Node000002"><a xlink:title=" ">
<path fill="none" stroke="#63b8ff" d="M695.74,-308.13C691.59,-360.64 675.98,-498.34 622.25,-597.62 613.51,-613.78 598.23,-628.59 587.44,-637.83"/>
<polygon fill="#63b8ff" stroke="#63b8ff" points="699.23,-308.43 696.46,-298.2 692.25,-307.93 699.23,-308.43"/>
</a>
</g>
</g>
<!-- Node22 -->
<g id="Node000022" class="node">
<title>Node22</title>
<g id="a_Node000022"><a xlink:href="loadlib_8c.html#a59926ced6bee14c7b952ef79d3520084" target="_top" xlink:title=" ">
<polygon fill="white" stroke="#666666" points="593,-588.25 555.25,-588.25 555.25,-569 593,-569 593,-588.25"/>
<text xml:space="preserve" text-anchor="middle" x="574.12" y="-574.75" font-family="Helvetica,sans-Serif" font-size="10.00">gctm</text>
</a>
</g>
</g>
<!-- Node1&#45;&gt;Node22 -->
<g id="edge7_Node000001_Node000022" class="edge">
<title>Node1&#45;&gt;Node22</title>
<g id="a_edge7_Node000001_Node000022"><a xlink:title=" ">
<path fill="none" stroke="#63b8ff" d="M691.14,-307.2C679.73,-345.37 653.25,-429.38 622.25,-496.62 609.81,-523.61 591.4,-553.43 581.68,-568.58"/>
<polygon fill="#63b8ff" stroke="#63b8ff" points="694.39,-308.53 693.87,-297.95 687.68,-306.55 694.39,-308.53"/>
</a>
</g>
</g>
<!-- Node24 -->
<g id="Node000024" class="node">
<title>Node24</title>
<g id="a_Node000024"><a xlink:href="script_8c.html#a4bdcb17ddcfb96f9eb59a7c2f99becc6" target="_top" xlink:title=" ">
<polygon fill="white" stroke="#666666" points="619.25,-487.25 529,-487.25 529,-468 619.25,-468 619.25,-487.25"/>
<text xml:space="preserve" text-anchor="middle" x="574.12" y="-473.75" font-family="Helvetica,sans-Serif" font-size="10.00">get_game_scene</text>
</a>
</g>
</g>
<!-- Node1&#45;&gt;Node24 -->
<g id="edge11_Node000001_Node000024" class="edge">
<title>Node1&#45;&gt;Node24</title>
<g id="a_edge11_Node000001_Node000024"><a xlink:title=" ">
<path fill="none" stroke="#63b8ff" d="M684.67,-306.13C658.94,-346.41 600.72,-437.56 581.45,-467.72"/>
<polygon fill="#63b8ff" stroke="#63b8ff" points="687.49,-308.21 689.92,-297.9 681.59,-304.44 687.49,-308.21"/>
</a>
</g>
</g>
<!-- Node36 -->
<g id="Node000036" class="node">
<title>Node36</title>
<g id="a_Node000036"><a xlink:href="liolib_8c.html#a7be26d6fbb09f09a189f3719777ff8a9" target="_top" xlink:title=" ">
<polygon fill="white" stroke="#666666" points="599,-388.25 549.25,-388.25 549.25,-369 599,-369 599,-388.25"/>
<text xml:space="preserve" text-anchor="middle" x="574.12" y="-374.75" font-family="Helvetica,sans-Serif" font-size="10.00">getiofile</text>
</a>
</g>
</g>
<!-- Node1&#45;&gt;Node36 -->
<g id="edge23_Node000001_Node000036" class="edge">
<title>Node1&#45;&gt;Node36</title>
<g id="a_edge23_Node000001_Node000036"><a xlink:title=" ">
<path fill="none" stroke="#63b8ff" d="M674.89,-303.39C649.64,-322.43 609.25,-352.89 588.46,-368.57"/>
<polygon fill="#63b8ff" stroke="#63b8ff" points="676.98,-306.2 682.86,-297.38 672.77,-300.61 676.98,-306.2"/>
</a>
</g>
</g>
<!-- Node40 -->
<g id="Node000040" class="node">
<title>Node40</title>
<g id="a_Node000040"><a xlink:href="lstrlib_8c.html#ab7cb0ba6191e1aa9455f6522d3483a02" target="_top" xlink:title=" ">
<polygon fill="white" stroke="#666666" points="608.75,-333.25 539.5,-333.25 539.5,-314 608.75,-314 608.75,-333.25"/>
<text xml:space="preserve" text-anchor="middle" x="574.12" y="-319.75" font-family="Helvetica,sans-Serif" font-size="10.00">gmatch_aux</text>
</a>
</g>
</g>
<!-- Node1&#45;&gt;Node40 -->
<g id="edge27_Node000001_Node000040" class="edge">
<title>Node1&#45;&gt;Node40</title>
<g id="a_edge27_Node000001_Node000040"><a xlink:title=" ">
<path fill="none" stroke="#63b8ff" d="M652.9,-300.04C638.22,-304.49 622.13,-309.37 608.42,-313.53"/>
<polygon fill="#63b8ff" stroke="#63b8ff" points="653.79,-303.43 662.34,-297.17 651.75,-296.73 653.79,-303.43"/>
</a>
</g>
</g>
<!-- Node42 -->
<g id="Node000042" class="node">
<title>Node42</title>
<g id="a_Node000042"><a xlink:href="liolib_8c.html#ac37d80ee2cc364b4adafcb6f7c20f28b" target="_top" xlink:title=" ">
<polygon fill="white" stroke="#666666" points="605.38,-296.25 542.88,-296.25 542.88,-277 605.38,-277 605.38,-296.25"/>
<text xml:space="preserve" text-anchor="middle" x="574.12" y="-282.75" font-family="Helvetica,sans-Serif" font-size="10.00">io_readline</text>
</a>
</g>
</g>
<!-- Node1&#45;&gt;Node42 -->
<g id="edge29_Node000001_Node000042" class="edge">
<title>Node1&#45;&gt;Node42</title>
<g id="a_edge29_Node000001_Node000042"><a xlink:title=" ">
<path fill="none" stroke="#63b8ff" d="M646.49,-286.62C632.68,-286.62 618.14,-286.62 605.81,-286.62"/>
<polygon fill="#63b8ff" stroke="#63b8ff" points="646.34,-290.13 656.34,-286.63 646.34,-283.13 646.34,-290.13"/>
</a>
</g>
</g>
<!-- Node46 -->
<g id="Node000046" class="node">
<title>Node46</title>
<g id="a_Node000046"><a xlink:href="lauxlib_8c.html#a002893351c161d943c16a31ae957c6d0" target="_top" xlink:title=" ">
<polygon fill="white" stroke="#666666" points="614,-259.25 534.25,-259.25 534.25,-240 614,-240 614,-259.25"/>
<text xml:space="preserve" text-anchor="middle" x="574.12" y="-245.75" font-family="Helvetica,sans-Serif" font-size="10.00">luaL_testudata</text>
</a>
</g>
</g>
<!-- Node1&#45;&gt;Node46 -->
<g id="edge33_Node000001_Node000046" class="edge">
<title>Node1&#45;&gt;Node46</title>
<g id="a_edge33_Node000001_Node000046"><a xlink:title=" ">
<path fill="none" stroke="#63b8ff" d="M652.9,-273.21C638.22,-268.76 622.13,-263.88 608.42,-259.72"/>
<polygon fill="#63b8ff" stroke="#63b8ff" points="651.75,-276.52 662.34,-276.08 653.79,-269.82 651.75,-276.52"/>
</a>
</g>
</g>
<!-- Node49 -->
<g id="Node000049" class="node">
<title>Node49</title>
<g id="a_Node000049"><a xlink:href="lmathlib_8c.html#aa3ad02d4204d21d35a0825281915fb22" target="_top" xlink:title=" ">
<polygon fill="white" stroke="#666666" points="611.75,-222.25 536.5,-222.25 536.5,-203 611.75,-203 611.75,-222.25"/>
<text xml:space="preserve" text-anchor="middle" x="574.12" y="-208.75" font-family="Helvetica,sans-Serif" font-size="10.00">math_random</text>
</a>
</g>
</g>
<!-- Node1&#45;&gt;Node49 -->
<g id="edge36_Node000001_Node000049" class="edge">
<title>Node1&#45;&gt;Node49</title>
<g id="a_edge36_Node000001_Node000049"><a xlink:title=" ">
<path fill="none" stroke="#63b8ff" d="M677.54,-269.59C663,-257.56 642.31,-241.68 622.25,-230.62 616.88,-227.67 610.92,-224.98 605.1,-222.64"/>
<polygon fill="#63b8ff" stroke="#63b8ff" points="675.08,-272.09 684.97,-275.87 679.59,-266.74 675.08,-272.09"/>
</a>
</g>
</g>
<!-- Node50 -->
<g id="Node000050" class="node">
<title>Node50</title>
<g id="a_Node000050"><a xlink:href="lmathlib_8c.html#a55540667178ac717a1c6283b58b00ce7" target="_top" xlink:title=" ">
<polygon fill="white" stroke="#666666" points="622.25,-185.25 526,-185.25 526,-166 622.25,-166 622.25,-185.25"/>
<text xml:space="preserve" text-anchor="middle" x="574.12" y="-171.75" font-family="Helvetica,sans-Serif" font-size="10.00">math_randomseed</text>
</a>
</g>
</g>
<!-- Node1&#45;&gt;Node50 -->
<g id="edge37_Node000001_Node000050" class="edge">
<title>Node1&#45;&gt;Node50</title>
<g id="a_edge37_Node000001_Node000050"><a xlink:title=" ">
<path fill="none" stroke="#63b8ff" d="M685.8,-267.11C672.84,-246.31 649.8,-213.67 622.25,-193.62 618,-190.53 613.15,-187.9 608.22,-185.69"/>
<polygon fill="#63b8ff" stroke="#63b8ff" points="682.69,-268.72 690.85,-275.48 688.68,-265.11 682.69,-268.72"/>
</a>
</g>
</g>
<!-- Node51 -->
<g id="Node000051" class="node">
<title>Node51</title>
<g id="a_Node000051"><a xlink:href="lua_8c.html#aa0f8bc082ef913cb0a4df437bf5f5019" target="_top" xlink:title=" ">
<polygon fill="white" stroke="#666666" points="595.25,-148.25 553,-148.25 553,-129 595.25,-129 595.25,-148.25"/>
<text xml:space="preserve" text-anchor="middle" x="574.12" y="-134.75" font-family="Helvetica,sans-Serif" font-size="10.00">pmain</text>
</a>
</g>
</g>
<!-- Node1&#45;&gt;Node51 -->
<g id="edge38_Node000001_Node000051" class="edge">
<title>Node1&#45;&gt;Node51</title>
<g id="a_edge38_Node000001_Node000051"><a xlink:title=" ">
<path fill="none" stroke="#63b8ff" d="M690.26,-265.98C679.84,-237.6 657.44,-186.66 622.25,-156.62 614.66,-150.14 604.48,-145.86 595.53,-143.11"/>
<polygon fill="#63b8ff" stroke="#63b8ff" points="686.89,-266.92 693.5,-275.2 693.49,-264.61 686.89,-266.92"/>
</a>
</g>
</g>
<!-- Node53 -->
<g id="Node000053" class="node">
<title>Node53</title>
<g id="a_Node000053"><a xlink:href="lauxlib_8c.html#a64fb8e1637f53256510afac8a3039455" target="_top" xlink:title=" ">
<polygon fill="white" stroke="#666666" points="603.12,-111.25 545.12,-111.25 545.12,-92 603.12,-92 603.12,-111.25"/>
<text xml:space="preserve" text-anchor="middle" x="574.12" y="-97.75" font-family="Helvetica,sans-Serif" font-size="10.00">resizebox</text>
</a>
</g>
</g>
<!-- Node1&#45;&gt;Node53 -->
<g id="edge40_Node000001_Node000053" class="edge">
<title>Node1&#45;&gt;Node53</title>
<g id="a_edge40_Node000001_Node000053"><a xlink:title=" ">
<path fill="none" stroke="#63b8ff" d="M693.15,-265.68C685.49,-230.76 665.44,-160.44 622.25,-119.62 617.03,-114.69 610.32,-111.07 603.61,-108.43"/>
<polygon fill="#63b8ff" stroke="#63b8ff" points="689.7,-266.25 695.14,-275.34 696.56,-264.84 689.7,-266.25"/>
</a>
</g>
</g>
<!-- Node3 -->
<g id="Node000003" class="node">
<title>Node3</title>
<g id="a_Node000003"><a xlink:href="loadlib_8c.html#ad7ea39bad1ff41ec6a7f95c1e23722be" target="_top" xlink:title=" ">
<polygon fill="white" stroke="#666666" points="477.25,-674.25 413.25,-674.25 413.25,-655 477.25,-655 477.25,-674.25"/>
<text xml:space="preserve" text-anchor="middle" x="445.25" y="-660.75" font-family="Helvetica,sans-Serif" font-size="10.00">lookforfunc</text>
</a>
</g>
</g>
<!-- Node2&#45;&gt;Node3 -->
<g id="edge2_Node000002_Node000003" class="edge">
<title>Node2&#45;&gt;Node3</title>
<g id="a_edge2_Node000002_Node000003"><a xlink:title=" ">
<path fill="none" stroke="#63b8ff" d="M533.91,-652.88C515.81,-655.3 494.61,-658.15 477.6,-660.42"/>
<polygon fill="#63b8ff" stroke="#63b8ff" points="534.34,-656.35 543.78,-651.56 533.41,-649.42 534.34,-656.35"/>
</a>
</g>
</g>
<!-- Node4 -->
<g id="Node000004" class="node">
<title>Node4</title>
<g id="a_Node000004"><a xlink:href="loadlib_8c.html#aac7e69bc5b4403e49e2609425f0fb7b0" target="_top" xlink:title=" ">
<polygon fill="white" stroke="#666666" points="330,-711.25 276.5,-711.25 276.5,-692 330,-692 330,-711.25"/>
<text xml:space="preserve" text-anchor="middle" x="303.25" y="-697.75" font-family="Helvetica,sans-Serif" font-size="10.00">ll_loadlib</text>
</a>
</g>
</g>
<!-- Node3&#45;&gt;Node4 -->
<g id="edge3_Node000003_Node000004" class="edge">
<title>Node3&#45;&gt;Node4</title>
<g id="a_edge3_Node000003_Node000004"><a xlink:title=" ">
<path fill="none" stroke="#63b8ff" d="M401.85,-675.83C378.58,-681.98 350.47,-689.41 330.4,-694.71"/>
<polygon fill="#63b8ff" stroke="#63b8ff" points="402.59,-679.25 411.37,-673.32 400.81,-672.49 402.59,-679.25"/>
</a>
</g>
</g>
<!-- Node5 -->
<g id="Node000005" class="node">
<title>Node5</title>
<g id="a_Node000005"><a xlink:href="loadlib_8c.html#a91ac5b5231cf039af46226806dcc3884" target="_top" xlink:title=" ">
<polygon fill="white" stroke="#666666" points="329.62,-674.25 276.88,-674.25 276.88,-655 329.62,-655 329.62,-674.25"/>
<text xml:space="preserve" text-anchor="middle" x="303.25" y="-660.75" font-family="Helvetica,sans-Serif" font-size="10.00">loadfunc</text>
</a>
</g>
</g>
<!-- Node3&#45;&gt;Node5 -->
<g id="edge4_Node000003_Node000005" class="edge">
<title>Node3&#45;&gt;Node5</title>
<g id="a_edge4_Node000003_Node000005"><a xlink:title=" ">
<path fill="none" stroke="#63b8ff" d="M401.46,-664.62C378.09,-664.62 349.93,-664.62 329.95,-664.62"/>
<polygon fill="#63b8ff" stroke="#63b8ff" points="401.32,-668.13 411.32,-664.63 401.32,-661.13 401.32,-668.13"/>
</a>
</g>
</g>
<!-- Node6 -->
<g id="Node000006" class="node">
<title>Node6</title>
<g id="a_Node000006"><a xlink:href="loadlib_8c.html#a9a915ea950c831cee2f1e7b0a3bd9005" target="_top" xlink:title=" ">
<polygon fill="#fff0f0" stroke="red" points="184.25,-711.25 118,-711.25 118,-692 184.25,-692 184.25,-711.25"/>
<text xml:space="preserve" text-anchor="middle" x="151.12" y="-697.75" font-family="Helvetica,sans-Serif" font-size="10.00">searcher_C</text>
</a>
</g>
</g>
<!-- Node5&#45;&gt;Node6 -->
<g id="edge5_Node000005_Node000006" class="edge">
<title>Node5&#45;&gt;Node6</title>
<g id="a_edge5_Node000005_Node000006"><a xlink:title=" ">
<path fill="none" stroke="#63b8ff" d="M265.33,-673.72C240.62,-679.81 208.41,-687.75 184.66,-693.61"/>
<polygon fill="#63b8ff" stroke="#63b8ff" points="266.1,-677.14 274.97,-671.35 264.43,-670.34 266.1,-677.14"/>
</a>
</g>
</g>
<!-- Node21 -->
<g id="Node000021" class="node">
<title>Node21</title>
<g id="a_Node000021"><a xlink:href="loadlib_8c.html#a1ec05cd98a045c271aeda9f9c6041e1c" target="_top" xlink:title=" ">
<polygon fill="#fff0f0" stroke="red" points="192.5,-674.25 109.75,-674.25 109.75,-655 192.5,-655 192.5,-674.25"/>
<text xml:space="preserve" text-anchor="middle" x="151.12" y="-660.75" font-family="Helvetica,sans-Serif" font-size="10.00">searcher_Croot</text>
</a>
</g>
</g>
<!-- Node5&#45;&gt;Node21 -->
<g id="edge6_Node000005_Node000021" class="edge">
<title>Node5&#45;&gt;Node21</title>
<g id="a_edge6_Node000005_Node000021"><a xlink:title=" ">
<path fill="none" stroke="#63b8ff" d="M264.94,-664.62C243.03,-664.62 215.32,-664.62 192.85,-664.62"/>
<polygon fill="#63b8ff" stroke="#63b8ff" points="264.93,-668.13 274.93,-664.63 264.93,-661.13 264.93,-668.13"/>
</a>
</g>
</g>
<!-- Node23 -->
<g id="Node000023" class="node">
<title>Node23</title>
<g id="a_Node000023"><a xlink:href="loadlib_8c.html#a5988b4ef518a60291ed34e836f549b34" target="_top" xlink:title=" ">
<polygon fill="white" stroke="#666666" points="487.38,-610.25 403.12,-610.25 403.12,-591 487.38,-591 487.38,-610.25"/>
<text xml:space="preserve" text-anchor="middle" x="445.25" y="-596.75" font-family="Helvetica,sans-Serif" font-size="10.00">createclibstable</text>
</a>
</g>
</g>
<!-- Node22&#45;&gt;Node23 -->
<g id="edge8_Node000022_Node000023" class="edge">
<title>Node22&#45;&gt;Node23</title>
<g id="a_edge8_Node000022_Node000023"><a xlink:title=" ">
<path fill="none" stroke="#63b8ff" d="M543.72,-583.72C527.08,-586.61 506,-590.26 487.71,-593.44"/>
<polygon fill="#63b8ff" stroke="#63b8ff" points="544.2,-587.19 553.46,-582.04 543,-580.3 544.2,-587.19"/>
</a>
</g>
</g>
<!-- Node8 -->
<g id="Node000008" class="node">
<title>Node8</title>
<g id="a_Node000008"><a xlink:href="loadlib_8c.html#ab732e1ec253c9b8dc0c2ce4d74cb0083" target="_top" xlink:title=" ">
<polygon fill="white" stroke="#666666" points="349.12,-637.25 257.38,-637.25 257.38,-618 349.12,-618 349.12,-637.25"/>
<text xml:space="preserve" text-anchor="middle" x="303.25" y="-623.75" font-family="Helvetica,sans-Serif" font-size="10.00">luaopen_package</text>
</a>
</g>
</g>
<!-- Node23&#45;&gt;Node8 -->
<g id="edge9_Node000023_Node000008" class="edge">
<title>Node23&#45;&gt;Node8</title>
<g id="a_edge9_Node000023_Node000008"><a xlink:title=" ">
<path fill="none" stroke="#63b8ff" d="M392.08,-610.69C378.12,-613.38 363.16,-616.26 349.61,-618.88"/>
<polygon fill="#63b8ff" stroke="#63b8ff" points="392.36,-614.2 401.52,-608.87 391.03,-607.32 392.36,-614.2"/>
</a>
</g>
</g>
<!-- Node9 -->
<g id="Node000009" class="node">
<title>Node9</title>
<g id="a_Node000009"><a xlink:href="script_8c.html#a5ae0734cc912e06c627951a52d735418" target="_top" xlink:title=" ">
<polygon fill="#fff0f0" stroke="red" points="206,-637.25 96.25,-637.25 96.25,-618 206,-618 206,-637.25"/>
<text xml:space="preserve" text-anchor="middle" x="151.12" y="-623.75" font-family="Helvetica,sans-Serif" font-size="10.00">open_sandboxed_libs</text>
</a>
</g>
</g>
<!-- Node8&#45;&gt;Node9 -->
<g id="edge10_Node000008_Node000009" class="edge">
<title>Node8&#45;&gt;Node9</title>
<g id="a_edge10_Node000008_Node000009"><a xlink:title=" ">
<path fill="none" stroke="#63b8ff" d="M246.06,-627.62C233.08,-627.62 219.3,-627.62 206.41,-627.62"/>
<polygon fill="#63b8ff" stroke="#63b8ff" points="245.69,-631.13 255.69,-627.63 245.69,-624.13 245.69,-631.13"/>
</a>
</g>
</g>
<!-- Node25 -->
<g id="Node000025" class="node">
<title>Node25</title>
<g id="a_Node000025"><a xlink:href="script_8c.html#a113df24bb94bafcdbb9235ec8648e02f" target="_top" xlink:title=" ">
<polygon fill="white" stroke="#666666" points="479.5,-545.25 411,-545.25 411,-526 479.5,-526 479.5,-545.25"/>
<text xml:space="preserve" text-anchor="middle" x="445.25" y="-531.75" font-family="Helvetica,sans-Serif" font-size="10.00">__section__</text>
</a>
</g>
</g>
<!-- Node24&#45;&gt;Node25 -->
<g id="edge12_Node000024_Node000025" class="edge">
<title>Node24&#45;&gt;Node25</title>
<g id="a_edge12_Node000024_Node000025"><a xlink:title=" ">
<path fill="none" stroke="#63b8ff" d="M542.95,-492.67C527.26,-500.36 507.71,-509.73 490,-517.62 484,-520.3 477.48,-523.06 471.34,-525.59"/>
<polygon fill="#63b8ff" stroke="#63b8ff" points="544.34,-495.88 551.76,-488.32 541.25,-489.6 544.34,-495.88"/>
</a>
</g>
</g>
<!-- Node26 -->
<g id="Node000026" class="node">
<title>Node26</title>
<g id="a_Node000026"><a xlink:href="script_8c.html#ae6a8f44abb2de3334c5fe35bf4da0b2c" target="_top" xlink:title=" ">
<polygon fill="white" stroke="#666666" points="467.88,-508.25 422.62,-508.25 422.62,-489 467.88,-489 467.88,-508.25"/>
<text xml:space="preserve" text-anchor="middle" x="445.25" y="-494.75" font-family="Helvetica,sans-Serif" font-size="10.00">get_gb</text>
</a>
</g>
</g>
<!-- Node24&#45;&gt;Node26 -->
<g id="edge13_Node000024_Node000026" class="edge">
<title>Node24&#45;&gt;Node26</title>
<g id="a_edge13_Node000024_Node000026"><a xlink:title=" ">
<path fill="none" stroke="#63b8ff" d="M517.51,-486.83C500.14,-489.71 481.98,-492.71 468.34,-494.97"/>
<polygon fill="#63b8ff" stroke="#63b8ff" points="517.96,-490.3 527.26,-485.22 516.82,-483.4 517.96,-490.3"/>
</a>
</g>
</g>
<!-- Node35 -->
<g id="Node000035" class="node">
<title>Node35</title>
<g id="a_Node000035"><a xlink:href="script_8c.html#a9b16a5d3f9becb90bf7f42a34e3d4533" target="_top" xlink:title=" ">
<polygon fill="white" stroke="#666666" points="475.38,-471.25 415.12,-471.25 415.12,-452 475.38,-452 475.38,-471.25"/>
<text xml:space="preserve" text-anchor="middle" x="445.25" y="-457.75" font-family="Helvetica,sans-Serif" font-size="10.00">pgb_close</text>
</a>
</g>
</g>
<!-- Node24&#45;&gt;Node35 -->
<g id="edge22_Node000024_Node000035" class="edge">
<title>Node24&#45;&gt;Node35</title>
<g id="a_edge22_Node000024_Node000035"><a xlink:title=" ">
<path fill="none" stroke="#63b8ff" d="M517.4,-470.6C503.02,-468.78 488.12,-466.9 475.68,-465.34"/>
<polygon fill="#63b8ff" stroke="#63b8ff" points="516.89,-474.06 527.25,-471.84 517.77,-467.12 516.89,-474.06"/>
</a>
</g>
</g>
<!-- Node27 -->
<g id="Node000027" class="node">
<title>Node27</title>
<g id="a_Node000027"><a xlink:href="script_8c.html#a5e72bc8081c11f95a9a27f9a99cbfa06" target="_top" xlink:title=" ">
<polygon fill="white" stroke="#666666" points="355.12,-600.25 251.38,-600.25 251.38,-581 355.12,-581 355.12,-600.25"/>
<text xml:space="preserve" text-anchor="middle" x="303.25" y="-586.75" font-family="Helvetica,sans-Serif" font-size="10.00">pgb_get_gb_buttons</text>
</a>
</g>
</g>
<!-- Node26&#45;&gt;Node27 -->
<g id="edge14_Node000026_Node000027" class="edge">
<title>Node26&#45;&gt;Node27</title>
<g id="a_edge14_Node000026_Node000027"><a xlink:title=" ">
<path fill="none" stroke="#63b8ff" d="M412.04,-509.18C407.92,-511.28 403.95,-513.75 400.5,-516.62 377.77,-535.57 388.15,-554.84 364.5,-572.62 360.31,-575.77 355.58,-578.38 350.65,-580.52"/>
<polygon fill="#63b8ff" stroke="#63b8ff" points="413.19,-512.49 420.95,-505.28 410.39,-506.08 413.19,-512.49"/>
</a>
</g>
</g>
<!-- Node28 -->
<g id="Node000028" class="node">
<title>Node28</title>
<g id="a_Node000028"><a xlink:href="script_8c.html#a747d811c0a732534f1fe0b4a39ed056c" target="_top" xlink:title=" ">
<polygon fill="white" stroke="#666666" points="343.12,-563.25 263.38,-563.25 263.38,-544 343.12,-544 343.12,-563.25"/>
<text xml:space="preserve" text-anchor="middle" x="303.25" y="-549.75" font-family="Helvetica,sans-Serif" font-size="10.00">pgb_ram_peek</text>
</a>
</g>
</g>
<!-- Node26&#45;&gt;Node28 -->
<g id="edge15_Node000026_Node000028" class="edge">
<title>Node26&#45;&gt;Node28</title>
<g id="a_edge15_Node000026_Node000028"><a xlink:title=" ">
<path fill="none" stroke="#63b8ff" d="M411.72,-511.61C407.91,-513.24 404.11,-514.94 400.5,-516.62 384.12,-524.3 381.25,-528.78 364.5,-535.62 357.43,-538.52 349.72,-541.17 342.25,-543.5"/>
<polygon fill="#63b8ff" stroke="#63b8ff" points="412.99,-514.87 420.87,-507.78 410.29,-508.41 412.99,-514.87"/>
</a>
</g>
</g>
<!-- Node29 -->
<g id="Node000029" class="node">
<title>Node29</title>
<g id="a_Node000029"><a xlink:href="script_8c.html#aa415f31ecbe23501318dfb0085e0342a" target="_top" xlink:title=" ">
<polygon fill="white" stroke="#666666" points="343.12,-526.25 263.38,-526.25 263.38,-507 343.12,-507 343.12,-526.25"/>
<text xml:space="preserve" text-anchor="middle" x="303.25" y="-512.75" font-family="Helvetica,sans-Serif" font-size="10.00">pgb_ram_poke</text>
</a>
</g>
</g>
<!-- Node26&#45;&gt;Node29 -->
<g id="edge16_Node000026_Node000029" class="edge">
<title>Node26&#45;&gt;Node29</title>
<g id="a_edge16_Node000026_Node000029"><a xlink:title=" ">
<path fill="none" stroke="#63b8ff" d="M411.17,-502.88C390.87,-505.49 364.77,-508.84 343.43,-511.59"/>
<polygon fill="#63b8ff" stroke="#63b8ff" points="411.4,-506.38 420.87,-501.63 410.51,-499.43 411.4,-506.38"/>
</a>
</g>
</g>
<!-- Node30 -->
<g id="Node000030" class="node">
<title>Node30</title>
<g id="a_Node000030"><a xlink:href="script_8c.html#af03005ac8771f7f9494f67590ee87d2b" target="_top" xlink:title=" ">
<polygon fill="white" stroke="#666666" points="343.12,-489.25 263.38,-489.25 263.38,-470 343.12,-470 343.12,-489.25"/>
<text xml:space="preserve" text-anchor="middle" x="303.25" y="-475.75" font-family="Helvetica,sans-Serif" font-size="10.00">pgb_rom_peek</text>
</a>
</g>
</g>
<!-- Node26&#45;&gt;Node30 -->
<g id="edge17_Node000026_Node000030" class="edge">
<title>Node26&#45;&gt;Node30</title>
<g id="a_edge17_Node000026_Node000030"><a xlink:title=" ">
<path fill="none" stroke="#63b8ff" d="M411.17,-494.14C390.87,-491.38 364.77,-487.84 343.43,-484.94"/>
<polygon fill="#63b8ff" stroke="#63b8ff" points="410.5,-497.58 420.88,-495.45 411.44,-490.64 410.5,-497.58"/>
</a>
</g>
</g>
<!-- Node31 -->
<g id="Node000031" class="node">
<title>Node31</title>
<g id="a_Node000031"><a xlink:href="script_8c.html#a11fae39160755680ea88fa1f8ff781b8" target="_top" xlink:title=" ">
<polygon fill="white" stroke="#666666" points="343.12,-452.25 263.38,-452.25 263.38,-433 343.12,-433 343.12,-452.25"/>
<text xml:space="preserve" text-anchor="middle" x="303.25" y="-438.75" font-family="Helvetica,sans-Serif" font-size="10.00">pgb_rom_poke</text>
</a>
</g>
</g>
<!-- Node26&#45;&gt;Node31 -->
<g id="edge18_Node000026_Node000031" class="edge">
<title>Node26&#45;&gt;Node31</title>
<g id="a_edge18_Node000026_Node000031"><a xlink:title=" ">
<path fill="none" stroke="#63b8ff" d="M411.68,-485.72C407.88,-484.07 404.09,-482.35 400.5,-480.62 384.01,-472.68 381.37,-467.73 364.5,-460.62 357.56,-457.7 349.98,-455.05 342.62,-452.73"/>
<polygon fill="#63b8ff" stroke="#63b8ff" points="410.25,-488.92 420.83,-489.56 412.96,-482.46 410.25,-488.92"/>
</a>
</g>
</g>
<!-- Node32 -->
<g id="Node000032" class="node">
<title>Node32</title>
<g id="a_Node000032"><a xlink:href="script_8c.html#a5bec5abaaaa437e70c9f4046a62a2875" target="_top" xlink:title=" ">
<polygon fill="white" stroke="#666666" points="364.5,-415.25 242,-415.25 242,-396 364.5,-396 364.5,-415.25"/>
<text xml:space="preserve" text-anchor="middle" x="303.25" y="-401.75" font-family="Helvetica,sans-Serif" font-size="10.00">pgb_rom_set_breakpoint</text>
</a>
</g>
</g>
<!-- Node26&#45;&gt;Node32 -->
<g id="edge19_Node000026_Node000032" class="edge">
<title>Node26&#45;&gt;Node32</title>
<g id="a_edge19_Node000026_Node000032"><a xlink:title=" ">
<path fill="none" stroke="#63b8ff" d="M412.02,-488.1C407.9,-485.99 403.94,-483.51 400.5,-480.62 377.56,-461.35 388.37,-441.73 364.5,-423.62 360.32,-420.46 355.6,-417.85 350.67,-415.69"/>
<polygon fill="#63b8ff" stroke="#63b8ff" points="410.37,-491.2 420.93,-492 413.17,-484.78 410.37,-491.2"/>
</a>
</g>
</g>
<!-- Node33 -->
<g id="Node000033" class="node">
<title>Node33</title>
<g id="a_Node000033"><a xlink:href="script_8c.html#ab098756023c80d3fa1b5b1229be94740" target="_top" xlink:title=" ">
<polygon fill="white" stroke="#666666" points="341.62,-378.25 264.88,-378.25 264.88,-359 341.62,-359 341.62,-378.25"/>
<text xml:space="preserve" text-anchor="middle" x="303.25" y="-364.75" font-family="Helvetica,sans-Serif" font-size="10.00">pgb_rom_size</text>
</a>
</g>
</g>
<!-- Node26&#45;&gt;Node33 -->
<g id="edge20_Node000026_Node000033" class="edge">
<title>Node26&#45;&gt;Node33</title>
<g id="a_edge20_Node000026_Node000033"><a xlink:title=" ">
<path fill="none" stroke="#63b8ff" d="M411.7,-488.83C407.58,-486.61 403.7,-483.9 400.5,-480.62 369.26,-448.61 397.3,-417.04 364.5,-386.62 358.26,-380.84 350.22,-376.9 342.07,-374.23"/>
<polygon fill="#63b8ff" stroke="#63b8ff" points="410.2,-492 420.77,-492.82 413.02,-485.59 410.2,-492"/>
</a>
</g>
</g>
<!-- Node34 -->
<g id="Node000034" class="node">
<title>Node34</title>
<g id="a_Node000034"><a xlink:href="script_8c.html#a4435c0300eb674d5bbeab62e807d7f5f" target="_top" xlink:title=" ">
<polygon fill="white" stroke="#666666" points="341.62,-341.25 264.88,-341.25 264.88,-322 341.62,-322 341.62,-341.25"/>
<text xml:space="preserve" text-anchor="middle" x="303.25" y="-327.75" font-family="Helvetica,sans-Serif" font-size="10.00">pgb_step_cpu</text>
</a>
</g>
</g>
<!-- Node26&#45;&gt;Node34 -->
<g id="edge21_Node000026_Node000034" class="edge">
<title>Node26&#45;&gt;Node34</title>
<g id="a_edge21_Node000026_Node000034"><a xlink:title=" ">
<path fill="none" stroke="#63b8ff" d="M411.99,-489.44C407.7,-487.12 403.68,-484.22 400.5,-480.62 360.49,-435.4 406.72,-392.79 364.5,-349.62 358.39,-343.38 350.22,-339.28 341.87,-336.6"/>
<polygon fill="#63b8ff" stroke="#63b8ff" points="410.32,-492.53 420.89,-493.29 413.1,-486.11 410.32,-492.53"/>
</a>
</g>
</g>
<!-- Node37 -->
<g id="Node000037" class="node">
<title>Node37</title>
<g id="a_Node000037"><a xlink:href="liolib_8c.html#a2f93672e01db50e1e5361f5f01c71bd6" target="_top" xlink:title=" ">
<polygon fill="white" stroke="#666666" points="470.12,-434.25 420.38,-434.25 420.38,-415 470.12,-415 470.12,-434.25"/>
<text xml:space="preserve" text-anchor="middle" x="445.25" y="-420.75" font-family="Helvetica,sans-Serif" font-size="10.00">io_flush</text>
</a>
</g>
</g>
<!-- Node36&#45;&gt;Node37 -->
<g id="edge24_Node000036_Node000037" class="edge">
<title>Node36&#45;&gt;Node37</title>
<g id="a_edge24_Node000036_Node000037"><a xlink:title=" ">
<path fill="none" stroke="#63b8ff" d="M538.26,-391.27C516.68,-399.09 489.52,-408.94 470.32,-415.9"/>
<polygon fill="#63b8ff" stroke="#63b8ff" points="539.33,-394.6 547.54,-387.9 536.95,-388.02 539.33,-394.6"/>
</a>
</g>
</g>
<!-- Node38 -->
<g id="Node000038" class="node">
<title>Node38</title>
<g id="a_Node000038"><a xlink:href="liolib_8c.html#a45307aa59a628966c6ea270e9b476d9a" target="_top" xlink:title=" ">
<polygon fill="white" stroke="#666666" points="469,-397.25 421.5,-397.25 421.5,-378 469,-378 469,-397.25"/>
<text xml:space="preserve" text-anchor="middle" x="445.25" y="-383.75" font-family="Helvetica,sans-Serif" font-size="10.00">io_read</text>
</a>
</g>
</g>
<!-- Node36&#45;&gt;Node38 -->
<g id="edge25_Node000036_Node000038" class="edge">
<title>Node36&#45;&gt;Node38</title>
<g id="a_edge25_Node000036_Node000038"><a xlink:title=" ">
<path fill="none" stroke="#63b8ff" d="M537.51,-381.15C515.73,-382.7 488.49,-384.63 469.47,-385.98"/>
<polygon fill="#63b8ff" stroke="#63b8ff" points="537.73,-384.65 547.45,-380.45 537.23,-377.66 537.73,-384.65"/>
</a>
</g>
</g>
<!-- Node39 -->
<g id="Node000039" class="node">
<title>Node39</title>
<g id="a_Node000039"><a xlink:href="liolib_8c.html#ada35daf906cc262cc6944cad92b93ac3" target="_top" xlink:title=" ">
<polygon fill="white" stroke="#666666" points="470.12,-360.25 420.38,-360.25 420.38,-341 470.12,-341 470.12,-360.25"/>
<text xml:space="preserve" text-anchor="middle" x="445.25" y="-346.75" font-family="Helvetica,sans-Serif" font-size="10.00">io_write</text>
</a>
</g>
</g>
<!-- Node36&#45;&gt;Node39 -->
<g id="edge26_Node000036_Node000039" class="edge">
<title>Node36&#45;&gt;Node39</title>
<g id="a_edge26_Node000036_Node000039"><a xlink:title=" ">
<path fill="none" stroke="#63b8ff" d="M537.96,-370.86C516.43,-366.11 489.43,-360.16 470.32,-355.94"/>
<polygon fill="#63b8ff" stroke="#63b8ff" points="536.96,-374.23 547.48,-372.97 538.47,-367.39 536.96,-374.23"/>
</a>
</g>
</g>
<!-- Node41 -->
<g id="Node000041" class="node">
<title>Node41</title>
<g id="a_Node000041"><a xlink:href="lstrlib_8c.html#ab55a72bb412d6186c82fd75de44cd031" target="_top" xlink:title=" ">
<polygon fill="white" stroke="#666666" points="469.38,-323.25 421.12,-323.25 421.12,-304 469.38,-304 469.38,-323.25"/>
<text xml:space="preserve" text-anchor="middle" x="445.25" y="-309.75" font-family="Helvetica,sans-Serif" font-size="10.00">gmatch</text>
</a>
</g>
</g>
<!-- Node40&#45;&gt;Node41 -->
<g id="edge28_Node000040_Node000041" class="edge">
<title>Node40&#45;&gt;Node41</title>
<g id="a_edge28_Node000040_Node000041"><a xlink:title=" ">
<path fill="none" stroke="#63b8ff" d="M527.86,-320.06C508.12,-318.5 485.8,-316.74 469.51,-315.46"/>
<polygon fill="#63b8ff" stroke="#63b8ff" points="527.37,-323.53 537.62,-320.83 527.92,-316.55 527.37,-323.53"/>
</a>
</g>
</g>
<!-- Node43 -->
<g id="Node000043" class="node">
<title>Node43</title>
<g id="a_Node000043"><a xlink:href="liolib_8c.html#a66325940a0248cee288153edb061c0c4" target="_top" xlink:title=" ">
<polygon fill="white" stroke="#666666" points="473.88,-286.25 416.62,-286.25 416.62,-267 473.88,-267 473.88,-286.25"/>
<text xml:space="preserve" text-anchor="middle" x="445.25" y="-272.75" font-family="Helvetica,sans-Serif" font-size="10.00">aux_lines</text>
</a>
</g>
</g>
<!-- Node42&#45;&gt;Node43 -->
<g id="edge30_Node000042_Node000043" class="edge">
<title>Node42&#45;&gt;Node43</title>
<g id="a_edge30_Node000042_Node000043"><a xlink:title=" ">
<path fill="none" stroke="#63b8ff" d="M531.17,-283.32C512.41,-281.84 490.8,-280.14 474.08,-278.82"/>
<polygon fill="#63b8ff" stroke="#63b8ff" points="530.66,-286.79 540.9,-284.09 531.21,-279.81 530.66,-286.79"/>
</a>
</g>
</g>
<!-- Node44 -->
<g id="Node000044" class="node">
<title>Node44</title>
<g id="a_Node000044"><a xlink:href="liolib_8c.html#a6a36f72d8b3966c1ebafab8a4791cb6c" target="_top" xlink:title=" ">
<polygon fill="white" stroke="#666666" points="325.5,-295.25 281,-295.25 281,-276 325.5,-276 325.5,-295.25"/>
<text xml:space="preserve" text-anchor="middle" x="303.25" y="-281.75" font-family="Helvetica,sans-Serif" font-size="10.00">f_lines</text>
</a>
</g>
</g>
<!-- Node43&#45;&gt;Node44 -->
<g id="edge31_Node000043_Node000044" class="edge">
<title>Node43&#45;&gt;Node44</title>
<g id="a_edge31_Node000043_Node000044"><a xlink:title=" ">
<path fill="none" stroke="#63b8ff" d="M405.02,-279.15C379.37,-280.8 346.84,-282.89 325.79,-284.24"/>
<polygon fill="#63b8ff" stroke="#63b8ff" points="404.99,-282.66 414.74,-278.52 404.54,-275.67 404.99,-282.66"/>
</a>
</g>
</g>
<!-- Node45 -->
<g id="Node000045" class="node">
<title>Node45</title>
<g id="a_Node000045"><a xlink:href="liolib_8c.html#ab08031b51605d4ef676ec33a3b96a286" target="_top" xlink:title=" ">
<polygon fill="white" stroke="#666666" points="327.75,-258.25 278.75,-258.25 278.75,-239 327.75,-239 327.75,-258.25"/>
<text xml:space="preserve" text-anchor="middle" x="303.25" y="-244.75" font-family="Helvetica,sans-Serif" font-size="10.00">io_lines</text>
</a>
</g>
</g>
<!-- Node43&#45;&gt;Node45 -->
<g id="edge32_Node000043_Node000045" class="edge">
<title>Node43&#45;&gt;Node45</title>
<g id="a_edge32_Node000043_Node000045"><a xlink:title=" ">
<path fill="none" stroke="#63b8ff" d="M405.04,-268.78C380.27,-263.83 349.08,-257.59 328.01,-253.38"/>
<polygon fill="#63b8ff" stroke="#63b8ff" points="404.28,-272.2 414.77,-270.73 405.65,-265.34 404.28,-272.2"/>
</a>
</g>
</g>
<!-- Node47 -->
<g id="Node000047" class="node">
<title>Node47</title>
<g id="a_Node000047"><a xlink:href="liolib_8c.html#a2bd80ae170dce6c29d385b71398fd7c2" target="_top" xlink:title=" ">
<polygon fill="white" stroke="#666666" points="469,-249.25 421.5,-249.25 421.5,-230 469,-230 469,-249.25"/>
<text xml:space="preserve" text-anchor="middle" x="445.25" y="-235.75" font-family="Helvetica,sans-Serif" font-size="10.00">io_type</text>
</a>
</g>
</g>
<!-- Node46&#45;&gt;Node47 -->
<g id="edge34_Node000046_Node000047" class="edge">
<title>Node46&#45;&gt;Node47</title>
<g id="a_edge34_Node000046_Node000047"><a xlink:title=" ">
<path fill="none" stroke="#63b8ff" d="M522.74,-245.65C504.2,-244.19 484.1,-242.61 469.16,-241.43"/>
<polygon fill="#63b8ff" stroke="#63b8ff" points="522.27,-249.13 532.51,-246.42 522.82,-242.15 522.27,-249.13"/>
</a>
</g>
</g>
<!-- Node48 -->
<g id="Node000048" class="node">
<title>Node48</title>
<g id="a_Node000048"><a xlink:href="lauxlib_8c.html#a4be5678b50e3688ce06f874b5bb14bce" target="_top" xlink:title=" ">
<polygon fill="white" stroke="#666666" points="490,-212.25 400.5,-212.25 400.5,-193 490,-193 490,-212.25"/>
<text xml:space="preserve" text-anchor="middle" x="445.25" y="-198.75" font-family="Helvetica,sans-Serif" font-size="10.00">luaL_checkudata</text>
</a>
</g>
</g>
<!-- Node46&#45;&gt;Node48 -->
<g id="edge35_Node000046_Node000048" class="edge">
<title>Node46&#45;&gt;Node48</title>
<g id="a_edge35_Node000046_Node000048"><a xlink:title=" ">
<path fill="none" stroke="#63b8ff" d="M535.33,-235.62C515.43,-228.25 491.48,-219.38 473.42,-212.69"/>
<polygon fill="#63b8ff" stroke="#63b8ff" points="533.89,-238.82 544.49,-239.02 536.33,-232.26 533.89,-238.82"/>
</a>
</g>
</g>
<!-- Node52 -->
<g id="Node000052" class="node">
<title>Node52</title>
<g id="a_Node000052"><a xlink:href="lua_8c.html#a3c04138a5bfe5d72780bb7e82a18e627" target="_top" xlink:title=" ">
<polygon fill="white" stroke="#666666" points="463.75,-148.25 426.75,-148.25 426.75,-129 463.75,-129 463.75,-148.25"/>
<text xml:space="preserve" text-anchor="middle" x="445.25" y="-134.75" font-family="Helvetica,sans-Serif" font-size="10.00">main</text>
</a>
</g>
</g>
<!-- Node51&#45;&gt;Node52 -->
<g id="edge39_Node000051_Node000052" class="edge">
<title>Node51&#45;&gt;Node52</title>
<g id="a_edge39_Node000051_Node000052"><a xlink:title=" ">
<path fill="none" stroke="#63b8ff" d="M541.53,-138.62C517.1,-138.62 484.18,-138.62 464.12,-138.62"/>
<polygon fill="#63b8ff" stroke="#63b8ff" points="541.23,-142.13 551.23,-138.63 541.23,-135.13 541.23,-142.13"/>
</a>
</g>
</g>
<!-- Node54 -->
<g id="Node000054" class="node">
<title>Node54</title>
<g id="a_Node000054"><a xlink:href="lauxlib_8c.html#a1957766835de815798e07848d3d14810" target="_top" xlink:title=" ">
<polygon fill="white" stroke="#666666" points="466.38,-111.25 424.12,-111.25 424.12,-92 466.38,-92 466.38,-111.25"/>
<text xml:space="preserve" text-anchor="middle" x="445.25" y="-97.75" font-family="Helvetica,sans-Serif" font-size="10.00">boxgc</text>
</a>
</g>
</g>
<!-- Node53&#45;&gt;Node54 -->
<g id="edge41_Node000053_Node000054" class="edge">
<title>Node53&#45;&gt;Node54</title>
<g id="a_edge41_Node000053_Node000054"><a xlink:title=" ">
<path fill="none" stroke="#63b8ff" d="M533.25,-101.62C511.17,-101.62 484.64,-101.62 466.73,-101.62"/>
<polygon fill="#63b8ff" stroke="#63b8ff" points="533.14,-105.13 543.14,-101.63 533.14,-98.13 533.14,-105.13"/>
</a>
</g>
</g>
<!-- Node55 -->
<g id="Node000055" class="node">
<title>Node55</title>
<g id="a_Node000055"><a xlink:href="lauxlib_8c.html#a116dcd8139c9decb4b5d194dd69fd886" target="_top" xlink:title=" ">
<polygon fill="white" stroke="#666666" points="479.88,-74.25 410.62,-74.25 410.62,-55 479.88,-55 479.88,-74.25"/>
<text xml:space="preserve" text-anchor="middle" x="445.25" y="-60.75" font-family="Helvetica,sans-Serif" font-size="10.00">prepbuffsize</text>
</a>
</g>
</g>
<!-- Node53&#45;&gt;Node55 -->
<g id="edge42_Node000053_Node000055" class="edge">
<title>Node53&#45;&gt;Node55</title>
<g id="a_edge42_Node000053_Node000055"><a xlink:title=" ">
<path fill="none" stroke="#63b8ff" d="M533.8,-90.16C516.58,-85.13 496.57,-79.3 480.03,-74.48"/>
<polygon fill="#63b8ff" stroke="#63b8ff" points="532.62,-93.46 543.2,-92.9 534.58,-86.74 532.62,-93.46"/>
</a>
</g>
</g>
<!-- Node56 -->
<g id="Node000056" class="node">
<title>Node56</title>
<g id="a_Node000056"><a xlink:href="lauxlib_8c.html#a0d56993399c45ae61ebb9b448dc30538" target="_top" xlink:title=" ">
<polygon fill="#fff0f0" stroke="red" points="343.88,-130.25 262.62,-130.25 262.62,-111 343.88,-111 343.88,-130.25"/>
<text xml:space="preserve" text-anchor="middle" x="303.25" y="-116.75" font-family="Helvetica,sans-Serif" font-size="10.00">luaL_addlstring</text>
</a>
</g>
</g>
<!-- Node55&#45;&gt;Node56 -->
<g id="edge43_Node000055_Node000056" class="edge">
<title>Node55&#45;&gt;Node56</title>
<g id="a_edge43_Node000055_Node000056"><a xlink:title=" ">
<path fill="none" stroke="#63b8ff" d="M408.03,-79.14C405.47,-80.28 402.94,-81.45 400.5,-82.62 384.01,-90.57 381.37,-95.52 364.5,-102.62 357.56,-105.55 349.98,-108.2 342.62,-110.52"/>
<polygon fill="#63b8ff" stroke="#63b8ff" points="409.39,-82.36 417.19,-75.2 406.62,-75.93 409.39,-82.36"/>
</a>
</g>
</g>
<!-- Node91 -->
<g id="Node000091" class="node">
<title>Node91</title>
<g id="a_Node000091"><a xlink:href="lauxlib_8c.html#a59a8ac34826fee305ad56101d97aee18" target="_top" xlink:title=" ">
<polygon fill="#fff0f0" stroke="red" points="342.38,-93.25 264.12,-93.25 264.12,-74 342.38,-74 342.38,-93.25"/>
<text xml:space="preserve" text-anchor="middle" x="303.25" y="-79.75" font-family="Helvetica,sans-Serif" font-size="10.00">luaL_addvalue</text>
</a>
</g>
</g>
<!-- Node55&#45;&gt;Node91 -->
<g id="edge48_Node000055_Node000091" class="edge">
<title>Node55&#45;&gt;Node91</title>
<g id="a_edge48_Node000055_Node000091"><a xlink:title=" ">
<path fill="none" stroke="#63b8ff" d="M399.14,-70.75C380.97,-73.21 360.22,-76.03 342.77,-78.4"/>
<polygon fill="#63b8ff" stroke="#63b8ff" points="399.42,-74.24 408.86,-69.43 398.48,-67.3 399.42,-74.24"/>
</a>
</g>
</g>
<!-- Node94 -->
<g id="Node000094" class="node">
<title>Node94</title>
<g id="a_Node000094"><a xlink:href="lauxlib_8c.html#a392923321d3058f7cdd17b60dfcfab41" target="_top" xlink:title=" ">
<polygon fill="#fff0f0" stroke="red" points="346.5,-56.25 260,-56.25 260,-37 346.5,-37 346.5,-56.25"/>
<text xml:space="preserve" text-anchor="middle" x="303.25" y="-42.75" font-family="Helvetica,sans-Serif" font-size="10.00">luaL_buffinitsize</text>
</a>
</g>
</g>
<!-- Node55&#45;&gt;Node94 -->
<g id="edge51_Node000055_Node000094" class="edge">
<title>Node55&#45;&gt;Node94</title>
<g id="a_edge51_Node000055_Node000094"><a xlink:title=" ">
<path fill="none" stroke="#63b8ff" d="M399.15,-58.83C382.38,-56.67 363.41,-54.23 346.86,-52.1"/>
<polygon fill="#63b8ff" stroke="#63b8ff" points="398.49,-62.27 408.86,-60.07 399.39,-55.33 398.49,-62.27"/>
</a>
</g>
</g>
<!-- Node100 -->
<g id="Node000100" class="node">
<title>Node100</title>
<g id="a_Node000100"><a xlink:href="lauxlib_8c.html#a082637c5dec7407810f30dee5ff842b9" target="_top" xlink:title=" ">
<polygon fill="#fff0f0" stroke="red" points="349.5,-19.25 257,-19.25 257,0 349.5,0 349.5,-19.25"/>
<text xml:space="preserve" text-anchor="middle" x="303.25" y="-5.75" font-family="Helvetica,sans-Serif" font-size="10.00">luaL_prepbuffsize</text>
</a>
</g>
</g>
<!-- Node55&#45;&gt;Node100 -->
<g id="edge52_Node000055_Node000100" class="edge">
<title>Node55&#45;&gt;Node100</title>
<g id="a_edge52_Node000055_Node000100"><a xlink:title=" ">
<path fill="none" stroke="#63b8ff" d="M414.5,-49.58C399.69,-42.41 381.38,-34.02 364.5,-27.62 357.05,-24.8 348.95,-22.12 341.17,-19.74"/>
<polygon fill="#63b8ff" stroke="#63b8ff" points="412.72,-52.6 423.24,-53.87 415.81,-46.32 412.72,-52.6"/>
</a>
</g>
</g>
<!-- Node57 -->
<g id="Node000057" class="node">
<title>Node57</title>
<g id="a_Node000057"><a xlink:href="lstrlib_8c.html#ad5f7e3fbcadc8825f7f650ecf458fc72" target="_top" xlink:title=" ">
<polygon fill="white" stroke="#666666" points="172.25,-93.25 130,-93.25 130,-74 172.25,-74 172.25,-93.25"/>
<text xml:space="preserve" text-anchor="middle" x="151.12" y="-79.75" font-family="Helvetica,sans-Serif" font-size="10.00">add_s</text>
</a>
</g>
</g>
<!-- Node56&#45;&gt;Node57 -->
<g id="edge44_Node000056_Node000057" class="edge">
<title>Node56&#45;&gt;Node57</title>
<g id="a_edge44_Node000056_Node000057"><a xlink:title=" ">
<path fill="none" stroke="#63b8ff" d="M251.58,-108.14C224.63,-101.5 192.97,-93.69 172.74,-88.71"/>
<polygon fill="#63b8ff" stroke="#63b8ff" points="250.4,-111.45 260.94,-110.44 252.07,-104.65 250.4,-111.45"/>
</a>
</g>
</g>
<!-- Node58 -->
<g id="Node000058" class="node">
<title>Node58</title>
<g id="a_Node000058"><a xlink:href="lstrlib_8c.html#a853703c83ab694a70212461d5cfe7843" target="_top" xlink:title=" ">
<polygon fill="#fff0f0" stroke="red" points="60.25,-93.25 0,-93.25 0,-74 60.25,-74 60.25,-93.25"/>
<text xml:space="preserve" text-anchor="middle" x="30.12" y="-79.75" font-family="Helvetica,sans-Serif" font-size="10.00">add_value</text>
</a>
</g>
</g>
<!-- Node56&#45;&gt;Node58 -->
<g id="edge46_Node000056_Node000058" class="edge">
<title>Node56&#45;&gt;Node58</title>
<g id="a_edge46_Node000056_Node000058"><a xlink:title=" ">
<path fill="none" stroke="#63b8ff" d="M263.28,-134.06C220.84,-146.48 151.62,-160.16 96.25,-139.62 71.36,-130.4 49.6,-106.93 38.65,-93.48"/>
<polygon fill="#63b8ff" stroke="#63b8ff" points="264.27,-137.42 272.8,-131.15 262.22,-130.73 264.27,-137.42"/>
</a>
</g>
</g>
<!-- Node60 -->
<g id="Node000060" class="node">
<title>Node60</title>
<g id="a_Node000060"><a xlink:href="lauxlib_8c.html#a5dcf12b98ab3ef52b7885a27f48fadea" target="_top" xlink:title=" ">
<polygon fill="#fff0f0" stroke="red" points="189.12,-130.25 113.12,-130.25 113.12,-111 189.12,-111 189.12,-130.25"/>
<text xml:space="preserve" text-anchor="middle" x="151.12" y="-116.75" font-family="Helvetica,sans-Serif" font-size="10.00">luaL_addgsub</text>
</a>
</g>
</g>
<!-- Node56&#45;&gt;Node60 -->
<g id="edge47_Node000056_Node000060" class="edge">
<title>Node56&#45;&gt;Node60</title>
<g id="a_edge47_Node000056_Node000060"><a xlink:title=" ">
<path fill="none" stroke="#63b8ff" d="M250.9,-120.62C230.77,-120.62 208.1,-120.62 189.56,-120.62"/>
<polygon fill="#63b8ff" stroke="#63b8ff" points="250.9,-124.13 260.9,-120.63 250.9,-117.13 250.9,-124.13"/>
</a>
</g>
</g>
<!-- Node57&#45;&gt;Node58 -->
<g id="edge45_Node000057_Node000058" class="edge">
<title>Node57&#45;&gt;Node58</title>
<g id="a_edge45_Node000057_Node000058"><a xlink:title=" ">
<path fill="none" stroke="#63b8ff" d="M118.34,-83.62C100.43,-83.62 78.2,-83.62 60.67,-83.62"/>
<polygon fill="#63b8ff" stroke="#63b8ff" points="118.15,-87.13 128.15,-83.63 118.15,-80.13 118.15,-87.13"/>
</a>
</g>
</g>
<!-- Node91&#45;&gt;Node57 -->
<g id="edge49_Node000091_Node000057" class="edge">
<title>Node91&#45;&gt;Node57</title>
<g id="a_edge49_Node000091_Node000057"><a xlink:title=" ">
<path fill="none" stroke="#63b8ff" d="M252.62,-83.62C225.27,-83.62 192.82,-83.62 172.34,-83.62"/>
<polygon fill="#63b8ff" stroke="#63b8ff" points="252.47,-87.13 262.47,-83.63 252.47,-80.13 252.47,-87.13"/>
</a>
</g>
</g>
<!-- Node91&#45;&gt;Node58 -->
<g id="edge50_Node000091_Node000058" class="edge">
<title>Node91&#45;&gt;Node58</title>
<g id="a_edge50_Node000091_Node000058"><a xlink:title=" ">
<path fill="none" stroke="#63b8ff" d="M252.59,-71.9C237.7,-68.91 221.26,-66.12 206,-64.62 157.45,-59.88 144.54,-57.73 96.25,-64.62 83.89,-66.39 70.6,-69.95 59.27,-73.52"/>
<polygon fill="#63b8ff" stroke="#63b8ff" points="251.65,-75.28 262.15,-73.91 253.08,-68.43 251.65,-75.28"/>
</a>
</g>
</g>
</g>
</svg>

<g id="navigator" transform="translate(0 0)" fill="#404254">
  <rect fill="#f2f5e9" fill-opacity="0.5" stroke="#606060" stroke-width=".5" x="0" y="0" width="60" height="60"/>
  <use id="zoomplus" xlink:href="#zoomPlus" x="17" y="9" onmousedown="handleZoom(evt,'in')"/>
  <use id="zoomminus" xlink:href="#zoomMin" x="42" y="9" onmousedown="handleZoom(evt,'out')"/>
  <use id="reset" xlink:href="#resetDef" x="30" y="36" onmousedown="handleReset()"/>
   <use id="arrowup" xlink:href="#arrowUp" x="0" y="0" onmousedown="handlePan(0,-1)"/>
  <use id="arrowright" xlink:href="#arrowRight" x="0" y="0" onmousedown="handlePan(1,0)"/>
  <use id="arrowdown" xlink:href="#arrowDown" x="0" y="0" onmousedown="handlePan(0,1)"/>
  <use id="arrowleft" xlink:href="#arrowLeft" x="0" y="0" onmousedown="handlePan(-1,0)"/>
</g>
<svg viewBox="0 0 15 15" width="100%" height="30px" preserveAspectRatio="xMaxYMin meet">
 <g id="arrow_out" transform="scale(0.3 0.3)">
  <a xlink:href="lapi_8c_ac3856ea479475afddd0b2b85c6da116d_icgraph_org.svg" target="_base">
   <rect id="button" ry="5" rx="5" y="6" x="6" height="38" width="38"
        fill="#f2f5e9" fill-opacity="0.5" stroke="#606060" stroke-width="1.0"/>
   <path id="arrow"
     d="M 11.500037,31.436501 C 11.940474,20.09759 22.043105,11.32322 32.158766,21.979434 L 37.068811,17.246167 C 37.068811,17.246167 37.088388,32 37.088388,32 L 22.160133,31.978069 C 22.160133,31.978069 26.997745,27.140456 26.997745,27.140456 C 18.528582,18.264221 13.291696,25.230495 11.500037,31.436501 z"
     style="fill:#404040;"/>
  </a>
 </g>
</svg>

<style type='text/css'>
<![CDATA[
[data-mouse-over-selected='false'] { opacity: 0.7; }
[data-mouse-over-selected='true']  { opacity: 1.0; }
]]>
</style>
<script type="application/ecmascript"><![CDATA[
document.addEventListener('DOMContentLoaded', (event) => {
  highlightEdges();
  highlightAdjacentNodes();
});
]]></script>
</svg>
