<?xml version="1.0" encoding="UTF-8" standalone="no"?>
<!DOCTYPE svg PUBLIC "-//W3C//DTD SVG 1.1//EN"
 "http://www.w3.org/Graphics/SVG/1.1/DTD/svg11.dtd">
<!-- Generated by graphviz version 13.1.0 (20250701.0955)
 -->
<!-- Title: lua_rawlen Pages: 1 -->
<svg width="534pt" height="156pt"
 viewBox="0.00 0.00 534.00 156.00" xmlns="http://www.w3.org/2000/svg" xmlns:xlink="http://www.w3.org/1999/xlink">
<g id="graph0" class="graph" transform="scale(1 1) rotate(0) translate(4 152.25)">
<title>lua_rawlen</title>
<!-- Node1 -->
<g id="Node000001" class="node">
<title>Node1</title>
<g id="a_Node000001"><a xlink:title=" ">
<polygon fill="#999999" stroke="#666666" points="525.75,-111.25 463.25,-111.25 463.25,-92 525.75,-92 525.75,-111.25"/>
<text xml:space="preserve" text-anchor="middle" x="494.5" y="-97.75" font-family="Helvetica,sans-Serif" font-size="10.00">lua_rawlen</text>
</a>
</g>
</g>
<!-- Node2 -->
<g id="Node000002" class="node">
<title>Node2</title>
<g id="a_Node000002"><a xlink:href="lbaselib_8c.html#a68b39dfb2717573478ca211e9785dc6a" target="_top" xlink:title=" ">
<polygon fill="white" stroke="#666666" points="427.25,-148.25 358,-148.25 358,-129 427.25,-129 427.25,-148.25"/>
<text xml:space="preserve" text-anchor="middle" x="392.62" y="-134.75" font-family="Helvetica,sans-Serif" font-size="10.00">luaB_rawlen</text>
</a>
</g>
</g>
<!-- Node1&#45;&gt;Node2 -->
<g id="edge1_Node000001_Node000002" class="edge">
<title>Node1&#45;&gt;Node2</title>
<g id="a_edge1_Node000001_Node000002"><a xlink:title=" ">
<path fill="none" stroke="#63b8ff" d="M455.52,-115.7C443.99,-119.97 431.56,-124.57 420.88,-128.53"/>
<polygon fill="#63b8ff" stroke="#63b8ff" points="456.63,-119.02 464.79,-112.26 454.2,-112.45 456.63,-119.02"/>
</a>
</g>
</g>
<!-- Node3 -->
<g id="Node000003" class="node">
<title>Node3</title>
<g id="a_Node000003"><a xlink:href="lauxlib_8c.html#a1adeae26be7c2e3001c3583f43f70720" target="_top" xlink:title=" ">
<polygon fill="white" stroke="#666666" points="417.88,-111.25 367.38,-111.25 367.38,-92 417.88,-92 417.88,-111.25"/>
<text xml:space="preserve" text-anchor="middle" x="392.62" y="-97.75" font-family="Helvetica,sans-Serif" font-size="10.00">luaL_ref</text>
</a>
</g>
</g>
<!-- Node1&#45;&gt;Node3 -->
<g id="edge2_Node000001_Node000003" class="edge">
<title>Node1&#45;&gt;Node3</title>
<g id="a_edge2_Node000001_Node000003"><a xlink:title=" ">
<path fill="none" stroke="#63b8ff" d="M451.5,-101.62C440.17,-101.62 428.29,-101.62 418.26,-101.62"/>
<polygon fill="#63b8ff" stroke="#63b8ff" points="451.48,-105.13 461.48,-101.63 451.48,-98.13 451.48,-105.13"/>
</a>
</g>
</g>
<!-- Node4 -->
<g id="Node000004" class="node">
<title>Node4</title>
<g id="a_Node000004"><a xlink:href="liolib_8c.html#ae697e23c2b1ea23d8935f579aa21200c" target="_top" xlink:title=" ">
<polygon fill="white" stroke="#666666" points="420.12,-74.25 365.12,-74.25 365.12,-55 420.12,-55 420.12,-74.25"/>
<text xml:space="preserve" text-anchor="middle" x="392.62" y="-60.75" font-family="Helvetica,sans-Serif" font-size="10.00">read_line</text>
</a>
</g>
</g>
<!-- Node1&#45;&gt;Node4 -->
<g id="edge3_Node000001_Node000004" class="edge">
<title>Node1&#45;&gt;Node4</title>
<g id="a_edge3_Node000001_Node000004"><a xlink:title=" ">
<path fill="none" stroke="#63b8ff" d="M455.43,-87.52C443.8,-83.21 431.26,-78.57 420.54,-74.6"/>
<polygon fill="#63b8ff" stroke="#63b8ff" points="454.2,-90.8 464.79,-90.99 456.63,-84.23 454.2,-90.8"/>
</a>
</g>
</g>
<!-- Node5 -->
<g id="Node000005" class="node">
<title>Node5</title>
<g id="a_Node000005"><a xlink:href="liolib_8c.html#addece2406777a40f0f591e3518293932" target="_top" xlink:title=" ">
<polygon fill="white" stroke="#666666" points="322,-74.25 276.75,-74.25 276.75,-55 322,-55 322,-74.25"/>
<text xml:space="preserve" text-anchor="middle" x="299.38" y="-60.75" font-family="Helvetica,sans-Serif" font-size="10.00">g_read</text>
</a>
</g>
</g>
<!-- Node4&#45;&gt;Node5 -->
<g id="edge4_Node000004_Node000005" class="edge">
<title>Node4&#45;&gt;Node5</title>
<g id="a_edge4_Node000004_Node000005"><a xlink:title=" ">
<path fill="none" stroke="#63b8ff" d="M353.23,-64.62C342.73,-64.62 331.71,-64.62 322.46,-64.62"/>
<polygon fill="#63b8ff" stroke="#63b8ff" points="353.23,-68.13 363.23,-64.63 353.23,-61.13 353.23,-68.13"/>
</a>
</g>
</g>
<!-- Node6 -->
<g id="Node000006" class="node">
<title>Node6</title>
<g id="a_Node000006"><a xlink:href="liolib_8c.html#add5250a74576076467531e4eb8f5f68e" target="_top" xlink:title=" ">
<polygon fill="white" stroke="#666666" points="231,-111.25 188,-111.25 188,-92 231,-92 231,-111.25"/>
<text xml:space="preserve" text-anchor="middle" x="209.5" y="-97.75" font-family="Helvetica,sans-Serif" font-size="10.00">f_read</text>
</a>
</g>
</g>
<!-- Node5&#45;&gt;Node6 -->
<g id="edge5_Node000005_Node000006" class="edge">
<title>Node5&#45;&gt;Node6</title>
<g id="a_edge5_Node000005_Node000006"><a xlink:title=" ">
<path fill="none" stroke="#63b8ff" d="M266.38,-78.1C254.71,-83.01 241.82,-88.44 231.37,-92.84"/>
<polygon fill="#63b8ff" stroke="#63b8ff" points="267.4,-81.46 275.26,-74.36 264.68,-75.01 267.4,-81.46"/>
</a>
</g>
</g>
<!-- Node7 -->
<g id="Node000007" class="node">
<title>Node7</title>
<g id="a_Node000007"><a xlink:href="liolib_8c.html#a45307aa59a628966c6ea270e9b476d9a" target="_top" xlink:title=" ">
<polygon fill="white" stroke="#666666" points="233.25,-74.25 185.75,-74.25 185.75,-55 233.25,-55 233.25,-74.25"/>
<text xml:space="preserve" text-anchor="middle" x="209.5" y="-60.75" font-family="Helvetica,sans-Serif" font-size="10.00">io_read</text>
</a>
</g>
</g>
<!-- Node5&#45;&gt;Node7 -->
<g id="edge6_Node000005_Node000007" class="edge">
<title>Node5&#45;&gt;Node7</title>
<g id="a_edge6_Node000005_Node000007"><a xlink:title=" ">
<path fill="none" stroke="#63b8ff" d="M265.23,-64.62C254.66,-64.62 243.2,-64.62 233.51,-64.62"/>
<polygon fill="#63b8ff" stroke="#63b8ff" points="265.14,-68.13 275.14,-64.63 265.14,-61.13 265.14,-68.13"/>
</a>
</g>
</g>
<!-- Node8 -->
<g id="Node000008" class="node">
<title>Node8</title>
<g id="a_Node000008"><a xlink:href="liolib_8c.html#ac37d80ee2cc364b4adafcb6f7c20f28b" target="_top" xlink:title=" ">
<polygon fill="white" stroke="#666666" points="240.75,-37.25 178.25,-37.25 178.25,-18 240.75,-18 240.75,-37.25"/>
<text xml:space="preserve" text-anchor="middle" x="209.5" y="-23.75" font-family="Helvetica,sans-Serif" font-size="10.00">io_readline</text>
</a>
</g>
</g>
<!-- Node5&#45;&gt;Node8 -->
<g id="edge7_Node000005_Node000008" class="edge">
<title>Node5&#45;&gt;Node8</title>
<g id="a_edge7_Node000005_Node000008"><a xlink:title=" ">
<path fill="none" stroke="#63b8ff" d="M266.18,-51.07C255.68,-46.65 244.22,-41.82 234.44,-37.71"/>
<polygon fill="#63b8ff" stroke="#63b8ff" points="264.68,-54.24 275.26,-54.89 267.4,-47.79 264.68,-54.24"/>
</a>
</g>
</g>
<!-- Node9 -->
<g id="Node000009" class="node">
<title>Node9</title>
<g id="a_Node000009"><a xlink:href="liolib_8c.html#a66325940a0248cee288153edb061c0c4" target="_top" xlink:title=" ">
<polygon fill="white" stroke="#666666" points="142.25,-37.25 85,-37.25 85,-18 142.25,-18 142.25,-37.25"/>
<text xml:space="preserve" text-anchor="middle" x="113.62" y="-23.75" font-family="Helvetica,sans-Serif" font-size="10.00">aux_lines</text>
</a>
</g>
</g>
<!-- Node8&#45;&gt;Node9 -->
<g id="edge8_Node000008_Node000009" class="edge">
<title>Node8&#45;&gt;Node9</title>
<g id="a_edge8_Node000008_Node000009"><a xlink:title=" ">
<path fill="none" stroke="#63b8ff" d="M166.25,-27.62C158.23,-27.62 150.02,-27.62 142.58,-27.62"/>
<polygon fill="#63b8ff" stroke="#63b8ff" points="166.25,-31.13 176.25,-27.63 166.25,-24.13 166.25,-31.13"/>
</a>
</g>
</g>
<!-- Node10 -->
<g id="Node000010" class="node">
<title>Node10</title>
<g id="a_Node000010"><a xlink:href="liolib_8c.html#a6a36f72d8b3966c1ebafab8a4791cb6c" target="_top" xlink:title=" ">
<polygon fill="white" stroke="#666666" points="46.75,-56.25 2.25,-56.25 2.25,-37 46.75,-37 46.75,-56.25"/>
<text xml:space="preserve" text-anchor="middle" x="24.5" y="-42.75" font-family="Helvetica,sans-Serif" font-size="10.00">f_lines</text>
</a>
</g>
</g>
<!-- Node9&#45;&gt;Node10 -->
<g id="edge9_Node000009_Node000010" class="edge">
<title>Node9&#45;&gt;Node10</title>
<g id="a_edge9_Node000009_Node000010"><a xlink:title=" ">
<path fill="none" stroke="#63b8ff" d="M73.4,-36.18C64.37,-38.15 55.09,-40.17 47.14,-41.91"/>
<polygon fill="#63b8ff" stroke="#63b8ff" points="74.08,-39.61 83.1,-34.06 72.58,-32.77 74.08,-39.61"/>
</a>
</g>
</g>
<!-- Node11 -->
<g id="Node000011" class="node">
<title>Node11</title>
<g id="a_Node000011"><a xlink:href="liolib_8c.html#ab08031b51605d4ef676ec33a3b96a286" target="_top" xlink:title=" ">
<polygon fill="white" stroke="#666666" points="49,-19.25 0,-19.25 0,0 49,0 49,-19.25"/>
<text xml:space="preserve" text-anchor="middle" x="24.5" y="-5.75" font-family="Helvetica,sans-Serif" font-size="10.00">io_lines</text>
</a>
</g>
</g>
<!-- Node9&#45;&gt;Node11 -->
<g id="edge10_Node000009_Node000011" class="edge">
<title>Node9&#45;&gt;Node11</title>
<g id="a_edge10_Node000009_Node000011"><a xlink:title=" ">
<path fill="none" stroke="#63b8ff" d="M73.3,-19.5C65.15,-17.82 56.79,-16.09 49.4,-14.56"/>
<polygon fill="#63b8ff" stroke="#63b8ff" points="72.59,-22.93 83.1,-21.52 74.01,-16.07 72.59,-22.93"/>
</a>
</g>
</g>
</g>
</svg>
