<?xml version="1.0" encoding="UTF-8" standalone="no"?>
<!DOCTYPE svg PUBLIC "-//W3C//DTD SVG 1.1//EN"
 "http://www.w3.org/Graphics/SVG/1.1/DTD/svg11.dtd">
<!-- Generated by graphviz version 13.1.0 (20250701.0955)
 -->
<!-- Title: lua_getglobal Pages: 1 -->
<svg width="1406pt" height="258pt"
 viewBox="0.00 0.00 1406.00 258.00" xmlns="http://www.w3.org/2000/svg" xmlns:xlink="http://www.w3.org/1999/xlink">
<g id="graph0" class="graph" transform="scale(1 1) rotate(0) translate(4 253.53)">
<title>lua_getglobal</title>
<!-- Node1 -->
<g id="Node000001" class="node">
<title>Node1</title>
<g id="a_Node000001"><a xlink:title=" ">
<polygon fill="#999999" stroke="#666666" points="1397.5,-136.53 1324.5,-136.53 1324.5,-117.28 1397.5,-117.28 1397.5,-136.53"/>
<text xml:space="preserve" text-anchor="middle" x="1361" y="-123.03" font-family="Helvetica,sans-Serif" font-size="10.00">lua_getglobal</text>
</a>
</g>
</g>
<!-- Node2 -->
<g id="Node000002" class="node">
<title>Node2</title>
<g id="a_Node000002"><a xlink:href="lua_8c.html#ac62266d27f3bed2d1e0a7c9393b95c22" target="_top" xlink:title=" ">
<polygon fill="white" stroke="#666666" points="1263.38,-249.53 1210.62,-249.53 1210.62,-230.28 1263.38,-230.28 1263.38,-249.53"/>
<text xml:space="preserve" text-anchor="middle" x="1237" y="-236.03" font-family="Helvetica,sans-Serif" font-size="10.00">dolibrary</text>
</a>
</g>
</g>
<!-- Node1&#45;&gt;Node2 -->
<g id="edge1_Node000001_Node000002" class="edge">
<title>Node1&#45;&gt;Node2</title>
<g id="a_edge1_Node000001_Node000002"><a xlink:title=" ">
<path fill="none" stroke="#63b8ff" d="M1344.44,-145.26C1330.51,-161.24 1309.15,-184.64 1288.5,-202.9 1277.26,-212.84 1263.47,-222.81 1253.14,-229.9"/>
<polygon fill="#63b8ff" stroke="#63b8ff" points="1346.86,-147.81 1350.73,-137.95 1341.56,-143.25 1346.86,-147.81"/>
</a>
</g>
</g>
<!-- Node6 -->
<g id="Node000006" class="node">
<title>Node6</title>
<g id="a_Node000006"><a xlink:href="lua_8c.html#a00e95c21ddceedb9bbff9717f82f812c" target="_top" xlink:title=" ">
<polygon fill="white" stroke="#666666" points="1269.38,-193.53 1204.62,-193.53 1204.62,-174.28 1269.38,-174.28 1269.38,-193.53"/>
<text xml:space="preserve" text-anchor="middle" x="1237" y="-180.03" font-family="Helvetica,sans-Serif" font-size="10.00">get_prompt</text>
</a>
</g>
</g>
<!-- Node1&#45;&gt;Node6 -->
<g id="edge5_Node000001_Node000006" class="edge">
<title>Node1&#45;&gt;Node6</title>
<g id="a_edge5_Node000001_Node000006"><a xlink:title=" ">
<path fill="none" stroke="#63b8ff" d="M1328.1,-141.81C1306.42,-151.94 1278.32,-165.06 1259.32,-173.94"/>
<polygon fill="#63b8ff" stroke="#63b8ff" points="1329.52,-145.01 1337.1,-137.6 1326.56,-138.66 1329.52,-145.01"/>
</a>
</g>
</g>
<!-- Node11 -->
<g id="Node000011" class="node">
<title>Node11</title>
<g id="a_Node000011"><a xlink:href="lua_8c.html#aa6faba0570416a2dfe7783da2dcbf6df" target="_top" xlink:title=" ">
<polygon fill="white" stroke="#666666" points="1006.38,-155.53 964.12,-155.53 964.12,-136.28 1006.38,-136.28 1006.38,-155.53"/>
<text xml:space="preserve" text-anchor="middle" x="985.25" y="-142.03" font-family="Helvetica,sans-Serif" font-size="10.00">l_print</text>
</a>
</g>
</g>
<!-- Node1&#45;&gt;Node11 -->
<g id="edge12_Node000001_Node000011" class="edge">
<title>Node1&#45;&gt;Node11</title>
<g id="a_edge12_Node000001_Node000011"><a xlink:title=" ">
<path fill="none" stroke="#63b8ff" d="M1312.67,-129.31C1230.49,-133.49 1064.65,-141.92 1006.76,-144.86"/>
<polygon fill="#63b8ff" stroke="#63b8ff" points="1312.84,-132.8 1322.65,-128.8 1312.49,-125.81 1312.84,-132.8"/>
</a>
</g>
</g>
<!-- Node12 -->
<g id="Node000012" class="node">
<title>Node12</title>
<g id="a_Node000012"><a xlink:href="lua_8c.html#a1e73bab660617a11ddcbb7d647980d40" target="_top" xlink:title=" ">
<polygon fill="white" stroke="#666666" points="1264.88,-117.53 1209.12,-117.53 1209.12,-98.28 1264.88,-98.28 1264.88,-117.53"/>
<text xml:space="preserve" text-anchor="middle" x="1237" y="-104.03" font-family="Helvetica,sans-Serif" font-size="10.00">pushargs</text>
</a>
</g>
</g>
<!-- Node1&#45;&gt;Node12 -->
<g id="edge14_Node000001_Node000012" class="edge">
<title>Node1&#45;&gt;Node12</title>
<g id="a_edge14_Node000001_Node000012"><a xlink:title=" ">
<path fill="none" stroke="#63b8ff" d="M1313.11,-119.6C1296.9,-117.07 1279.27,-114.33 1265.17,-112.13"/>
<polygon fill="#63b8ff" stroke="#63b8ff" points="1312.14,-122.99 1322.56,-121.07 1313.22,-116.07 1312.14,-122.99"/>
</a>
</g>
</g>
<!-- Node14 -->
<g id="Node000014" class="node">
<title>Node14</title>
<g id="a_Node000014"><a xlink:href="script_8c.html#a9eb7613f3cdeb758e59dc1988584a674" target="_top" xlink:title=" ">
<polygon fill="white" stroke="#666666" points="1267.5,-80.53 1206.5,-80.53 1206.5,-61.28 1267.5,-61.28 1267.5,-80.53"/>
<text xml:space="preserve" text-anchor="middle" x="1237" y="-67.03" font-family="Helvetica,sans-Serif" font-size="10.00">script_tick</text>
</a>
</g>
</g>
<!-- Node1&#45;&gt;Node14 -->
<g id="edge17_Node000001_Node000014" class="edge">
<title>Node1&#45;&gt;Node14</title>
<g id="a_edge17_Node000001_Node000014"><a xlink:title=" ">
<path fill="none" stroke="#63b8ff" d="M1332.89,-111.29C1319.72,-104.02 1303.52,-95.53 1288.5,-88.9 1281.94,-86.01 1274.76,-83.23 1267.92,-80.75"/>
<polygon fill="#63b8ff" stroke="#63b8ff" points="1330.97,-114.23 1341.4,-116.06 1334.39,-108.12 1330.97,-114.23"/>
</a>
</g>
</g>
<!-- Node15 -->
<g id="Node000015" class="node">
<title>Node15</title>
<g id="a_Node000015"><a xlink:href="script_8c.html#a7f46b814d26ae8dc0cf41ac19e952352" target="_top" xlink:title=" ">
<polygon fill="white" stroke="#666666" points="1288.5,-43.53 1185.5,-43.53 1185.5,-24.28 1288.5,-24.28 1288.5,-43.53"/>
<text xml:space="preserve" text-anchor="middle" x="1237" y="-30.03" font-family="Helvetica,sans-Serif" font-size="10.00">set_package_path_l</text>
</a>
</g>
</g>
<!-- Node1&#45;&gt;Node15 -->
<g id="edge18_Node000001_Node000015" class="edge">
<title>Node1&#45;&gt;Node15</title>
<g id="a_edge18_Node000001_Node000015"><a xlink:title=" ">
<path fill="none" stroke="#63b8ff" d="M1346.23,-108.07C1333.07,-91.27 1311.83,-67.05 1288.5,-51.9 1283.74,-48.81 1278.38,-46.17 1272.98,-43.94"/>
<polygon fill="#63b8ff" stroke="#63b8ff" points="1343.24,-109.93 1352.08,-115.77 1348.82,-105.69 1343.24,-109.93"/>
</a>
</g>
</g>
<!-- Node3 -->
<g id="Node000003" class="node">
<title>Node3</title>
<g id="a_Node000003"><a xlink:href="lua_8c.html#a95a376c847572def6b3f78d33a7bc881" target="_top" xlink:title=" ">
<polygon fill="white" stroke="#666666" points="682.62,-239.53 634.38,-239.53 634.38,-220.28 682.62,-220.28 682.62,-239.53"/>
<text xml:space="preserve" text-anchor="middle" x="658.5" y="-226.03" font-family="Helvetica,sans-Serif" font-size="10.00">runargs</text>
</a>
</g>
</g>
<!-- Node2&#45;&gt;Node3 -->
<g id="edge2_Node000002_Node000003" class="edge">
<title>Node2&#45;&gt;Node3</title>
<g id="a_edge2_Node000002_Node000003"><a xlink:title=" ">
<path fill="none" stroke="#63b8ff" d="M1199.15,-239.26C1090.34,-237.38 772.48,-231.86 683.12,-230.31"/>
<polygon fill="#63b8ff" stroke="#63b8ff" points="1198.91,-242.76 1208.97,-239.43 1199.03,-235.76 1198.91,-242.76"/>
</a>
</g>
</g>
<!-- Node4 -->
<g id="Node000004" class="node">
<title>Node4</title>
<g id="a_Node000004"><a xlink:href="lua_8c.html#aa0f8bc082ef913cb0a4df437bf5f5019" target="_top" xlink:title=" ">
<polygon fill="white" stroke="#666666" points="509.12,-174.53 466.88,-174.53 466.88,-155.28 509.12,-155.28 509.12,-174.53"/>
<text xml:space="preserve" text-anchor="middle" x="488" y="-161.03" font-family="Helvetica,sans-Serif" font-size="10.00">pmain</text>
</a>
</g>
</g>
<!-- Node3&#45;&gt;Node4 -->
<g id="edge3_Node000003_Node000004" class="edge">
<title>Node3&#45;&gt;Node4</title>
<g id="a_edge3_Node000003_Node000004"><a xlink:title=" ">
<path fill="none" stroke="#63b8ff" d="M623.66,-216.85C589.54,-203.69 537.99,-183.8 509.59,-172.84"/>
<polygon fill="#63b8ff" stroke="#63b8ff" points="622.07,-219.99 632.66,-220.32 624.59,-213.45 622.07,-219.99"/>
</a>
</g>
</g>
<!-- Node5 -->
<g id="Node000005" class="node">
<title>Node5</title>
<g id="a_Node000005"><a xlink:href="lua_8c.html#a3c04138a5bfe5d72780bb7e82a18e627" target="_top" xlink:title=" ">
<polygon fill="white" stroke="#666666" points="312.38,-174.53 275.38,-174.53 275.38,-155.28 312.38,-155.28 312.38,-174.53"/>
<text xml:space="preserve" text-anchor="middle" x="293.88" y="-161.03" font-family="Helvetica,sans-Serif" font-size="10.00">main</text>
</a>
</g>
</g>
<!-- Node4&#45;&gt;Node5 -->
<g id="edge4_Node000004_Node000005" class="edge">
<title>Node4&#45;&gt;Node5</title>
<g id="a_edge4_Node000004_Node000005"><a xlink:title=" ">
<path fill="none" stroke="#63b8ff" d="M455.01,-164.9C414.26,-164.9 345.21,-164.9 312.75,-164.9"/>
<polygon fill="#63b8ff" stroke="#63b8ff" points="454.93,-168.4 464.93,-164.9 454.93,-161.4 454.93,-168.4"/>
</a>
</g>
</g>
<!-- Node7 -->
<g id="Node000007" class="node">
<title>Node7</title>
<g id="a_Node000007"><a xlink:href="lua_8c.html#a83a7cb21b34095ca93f2a2a863f58fda" target="_top" xlink:title=" ">
<polygon fill="white" stroke="#666666" points="1141.25,-193.53 1089.25,-193.53 1089.25,-174.28 1141.25,-174.28 1141.25,-193.53"/>
<text xml:space="preserve" text-anchor="middle" x="1115.25" y="-180.03" font-family="Helvetica,sans-Serif" font-size="10.00">pushline</text>
</a>
</g>
</g>
<!-- Node6&#45;&gt;Node7 -->
<g id="edge6_Node000006_Node000007" class="edge">
<title>Node6&#45;&gt;Node7</title>
<g id="a_edge6_Node000006_Node000007"><a xlink:title=" ">
<path fill="none" stroke="#63b8ff" d="M1192.76,-183.9C1175.65,-183.9 1156.56,-183.9 1141.73,-183.9"/>
<polygon fill="#63b8ff" stroke="#63b8ff" points="1192.71,-187.4 1202.71,-183.9 1192.71,-180.4 1192.71,-187.4"/>
</a>
</g>
</g>
<!-- Node8 -->
<g id="Node000008" class="node">
<title>Node8</title>
<g id="a_Node000008"><a xlink:href="lua_8c.html#ad7e840f79b193c164616ed9748e68ec6" target="_top" xlink:title=" ">
<polygon fill="white" stroke="#666666" points="847.12,-193.53 798.12,-193.53 798.12,-174.28 847.12,-174.28 847.12,-193.53"/>
<text xml:space="preserve" text-anchor="middle" x="822.62" y="-180.03" font-family="Helvetica,sans-Serif" font-size="10.00">loadline</text>
</a>
</g>
</g>
<!-- Node7&#45;&gt;Node8 -->
<g id="edge7_Node000007_Node000008" class="edge">
<title>Node7&#45;&gt;Node8</title>
<g id="a_edge7_Node000007_Node000008"><a xlink:title=" ">
<path fill="none" stroke="#63b8ff" d="M1077.98,-195.18C1067.45,-197.95 1055.86,-200.51 1045,-201.9 992.32,-208.64 978.41,-206.54 925.5,-201.9 898.48,-199.53 867.89,-193.7 847.35,-189.31"/>
<polygon fill="#63b8ff" stroke="#63b8ff" points="1078.75,-198.6 1087.44,-192.55 1076.87,-191.86 1078.75,-198.6"/>
</a>
</g>
</g>
<!-- Node10 -->
<g id="Node000010" class="node">
<title>Node10</title>
<g id="a_Node000010"><a xlink:href="lua_8c.html#affef5a04b31963c2c3f5028518777e12" target="_top" xlink:title=" ">
<polygon fill="white" stroke="#666666" points="1011.25,-192.53 959.25,-192.53 959.25,-173.28 1011.25,-173.28 1011.25,-192.53"/>
<text xml:space="preserve" text-anchor="middle" x="985.25" y="-179.03" font-family="Helvetica,sans-Serif" font-size="10.00">multiline</text>
</a>
</g>
</g>
<!-- Node7&#45;&gt;Node10 -->
<g id="edge10_Node000007_Node000010" class="edge">
<title>Node7&#45;&gt;Node10</title>
<g id="a_edge10_Node000007_Node000010"><a xlink:title=" ">
<path fill="none" stroke="#63b8ff" d="M1077.48,-183.61C1056.34,-183.45 1030.32,-183.25 1011.49,-183.1"/>
<polygon fill="#63b8ff" stroke="#63b8ff" points="1077.42,-187.11 1087.45,-183.69 1077.48,-180.11 1077.42,-187.11"/>
</a>
</g>
</g>
<!-- Node9 -->
<g id="Node000009" class="node">
<title>Node9</title>
<g id="a_Node000009"><a xlink:href="lua_8c.html#a946f2675cba972bd3580d9046abf2b6b" target="_top" xlink:title=" ">
<polygon fill="white" stroke="#666666" points="684.88,-174.53 632.12,-174.53 632.12,-155.28 684.88,-155.28 684.88,-174.53"/>
<text xml:space="preserve" text-anchor="middle" x="658.5" y="-161.03" font-family="Helvetica,sans-Serif" font-size="10.00">doREPL</text>
</a>
</g>
</g>
<!-- Node8&#45;&gt;Node9 -->
<g id="edge8_Node000008_Node000009" class="edge">
<title>Node8&#45;&gt;Node9</title>
<g id="a_edge8_Node000008_Node000009"><a xlink:title=" ">
<path fill="none" stroke="#63b8ff" d="M786.3,-179.76C755.78,-176.19 712.41,-171.1 685.13,-167.91"/>
<polygon fill="#63b8ff" stroke="#63b8ff" points="785.86,-183.23 796.2,-180.92 786.68,-176.28 785.86,-183.23"/>
</a>
</g>
</g>
<!-- Node9&#45;&gt;Node4 -->
<g id="edge9_Node000009_Node000004" class="edge">
<title>Node9&#45;&gt;Node4</title>
<g id="a_edge9_Node000009_Node000004"><a xlink:title=" ">
<path fill="none" stroke="#63b8ff" d="M620.55,-164.9C586.45,-164.9 537.06,-164.9 509.52,-164.9"/>
<polygon fill="#63b8ff" stroke="#63b8ff" points="620.39,-168.4 630.39,-164.9 620.39,-161.4 620.39,-168.4"/>
</a>
</g>
</g>
<!-- Node10&#45;&gt;Node8 -->
<g id="edge11_Node000010_Node000008" class="edge">
<title>Node10&#45;&gt;Node8</title>
<g id="a_edge11_Node000010_Node000008"><a xlink:title=" ">
<path fill="none" stroke="#63b8ff" d="M947.67,-183.13C916.91,-183.32 873.84,-183.59 847.39,-183.75"/>
<polygon fill="#63b8ff" stroke="#63b8ff" points="947.31,-186.63 957.28,-183.07 947.26,-179.63 947.31,-186.63"/>
</a>
</g>
</g>
<!-- Node11&#45;&gt;Node9 -->
<g id="edge13_Node000011_Node000009" class="edge">
<title>Node11&#45;&gt;Node9</title>
<g id="a_edge13_Node000011_Node000009"><a xlink:title=" ">
<path fill="none" stroke="#63b8ff" d="M952.56,-147.76C888.3,-151.52 743.81,-159.97 685.07,-163.41"/>
<polygon fill="#63b8ff" stroke="#63b8ff" points="952.65,-151.26 962.42,-147.18 952.24,-144.27 952.65,-151.26"/>
</a>
</g>
</g>
<!-- Node13 -->
<g id="Node000013" class="node">
<title>Node13</title>
<g id="a_Node000013"><a xlink:href="lua_8c.html#a5a944babaacde1035f1aa8b4156cc06a" target="_top" xlink:title=" ">
<polygon fill="white" stroke="#666666" points="859.5,-117.53 785.75,-117.53 785.75,-98.28 859.5,-98.28 859.5,-117.53"/>
<text xml:space="preserve" text-anchor="middle" x="822.62" y="-104.03" font-family="Helvetica,sans-Serif" font-size="10.00">handle_script</text>
</a>
</g>
</g>
<!-- Node12&#45;&gt;Node13 -->
<g id="edge15_Node000012_Node000013" class="edge">
<title>Node12&#45;&gt;Node13</title>
<g id="a_edge15_Node000012_Node000013"><a xlink:title=" ">
<path fill="none" stroke="#63b8ff" d="M1197.56,-107.9C1118.25,-107.9 937.45,-107.9 859.97,-107.9"/>
<polygon fill="#63b8ff" stroke="#63b8ff" points="1197.43,-111.4 1207.43,-107.9 1197.43,-104.4 1197.43,-111.4"/>
</a>
</g>
</g>
<!-- Node13&#45;&gt;Node4 -->
<g id="edge16_Node000013_Node000004" class="edge">
<title>Node13&#45;&gt;Node4</title>
<g id="a_edge16_Node000013_Node000004"><a xlink:title=" ">
<path fill="none" stroke="#63b8ff" d="M774.2,-115.85C728.78,-123.48 658.32,-135.37 597.25,-145.9 566.6,-151.19 531.1,-157.44 509.34,-161.29"/>
<polygon fill="#63b8ff" stroke="#63b8ff" points="774.7,-119.31 783.98,-114.21 773.54,-112.41 774.7,-119.31"/>
</a>
</g>
</g>
<!-- Node16 -->
<g id="Node000016" class="node">
<title>Node16</title>
<g id="a_Node000016"><a xlink:href="script_8c.html#a84508ce31c18af8792081eb1cdfc77b8" target="_top" xlink:title=" ">
<polygon fill="white" stroke="#666666" points="1149.5,-43.53 1081,-43.53 1081,-24.28 1149.5,-24.28 1149.5,-43.53"/>
<text xml:space="preserve" text-anchor="middle" x="1115.25" y="-30.03" font-family="Helvetica,sans-Serif" font-size="10.00">script_begin</text>
</a>
</g>
</g>
<!-- Node15&#45;&gt;Node16 -->
<g id="edge19_Node000015_Node000016" class="edge">
<title>Node15&#45;&gt;Node16</title>
<g id="a_edge19_Node000015_Node000016"><a xlink:title=" ">
<path fill="none" stroke="#63b8ff" d="M1173.89,-33.9C1165.57,-33.9 1157.31,-33.9 1149.75,-33.9"/>
<polygon fill="#63b8ff" stroke="#63b8ff" points="1173.7,-37.4 1183.7,-33.9 1173.7,-30.4 1173.7,-37.4"/>
</a>
</g>
</g>
<!-- Node17 -->
<g id="Node000017" class="node">
<title>Node17</title>
<g id="a_Node000017"><a xlink:href="game__scene_8c.html#ab923ed4c6ccad95026e85e252071716d" target="_top" xlink:title=" ">
<polygon fill="white" stroke="#666666" points="1045,-43.53 925.5,-43.53 925.5,-24.28 1045,-24.28 1045,-43.53"/>
<text xml:space="preserve" text-anchor="middle" x="985.25" y="-30.03" font-family="Helvetica,sans-Serif" font-size="10.00">PGB_GameScene_new</text>
</a>
</g>
</g>
<!-- Node16&#45;&gt;Node17 -->
<g id="edge20_Node000016_Node000017" class="edge">
<title>Node16&#45;&gt;Node17</title>
<g id="a_edge20_Node000016_Node000017"><a xlink:title=" ">
<path fill="none" stroke="#63b8ff" d="M1069.28,-33.9C1061.55,-33.9 1053.42,-33.9 1045.4,-33.9"/>
<polygon fill="#63b8ff" stroke="#63b8ff" points="1069.11,-37.4 1079.11,-33.9 1069.11,-30.4 1069.11,-37.4"/>
</a>
</g>
</g>
<!-- Node18 -->
<g id="Node000018" class="node">
<title>Node18</title>
<g id="a_Node000018"><a xlink:href="library__scene_8c.html#a0728002045c9cbbd68bdd34897b28da6" target="_top" xlink:title=" ">
<polygon fill="white" stroke="#666666" points="889.5,-43.53 755.75,-43.53 755.75,-24.28 889.5,-24.28 889.5,-43.53"/>
<text xml:space="preserve" text-anchor="middle" x="822.62" y="-30.03" font-family="Helvetica,sans-Serif" font-size="10.00">PGB_LibraryScene_update</text>
</a>
</g>
</g>
<!-- Node17&#45;&gt;Node18 -->
<g id="edge21_Node000017_Node000018" class="edge">
<title>Node17&#45;&gt;Node18</title>
<g id="a_edge21_Node000017_Node000018"><a xlink:title=" ">
<path fill="none" stroke="#63b8ff" d="M914.09,-33.9C906.04,-33.9 897.84,-33.9 889.84,-33.9"/>
<polygon fill="#63b8ff" stroke="#63b8ff" points="913.84,-37.4 923.84,-33.9 913.84,-30.4 913.84,-37.4"/>
</a>
</g>
</g>
<!-- Node19 -->
<g id="Node000019" class="node">
<title>Node19</title>
<g id="a_Node000019"><a xlink:href="library__scene_8c.html#aa5c386d39121b53fba45d899df654188" target="_top" xlink:title=" ">
<polygon fill="white" stroke="#666666" points="719.75,-43.53 597.25,-43.53 597.25,-24.28 719.75,-24.28 719.75,-43.53"/>
<text xml:space="preserve" text-anchor="middle" x="658.5" y="-30.03" font-family="Helvetica,sans-Serif" font-size="10.00">PGB_LibraryScene_new</text>
</a>
</g>
</g>
<!-- Node18&#45;&gt;Node19 -->
<g id="edge22_Node000018_Node000019" class="edge">
<title>Node18&#45;&gt;Node19</title>
<g id="a_edge22_Node000018_Node000019"><a xlink:title=" ">
<path fill="none" stroke="#63b8ff" d="M744.29,-33.9C736.19,-33.9 728.04,-33.9 720.16,-33.9"/>
<polygon fill="#63b8ff" stroke="#63b8ff" points="744.17,-37.4 754.17,-33.9 744.17,-30.4 744.17,-37.4"/>
</a>
</g>
</g>
<!-- Node20 -->
<g id="Node000020" class="node">
<title>Node20</title>
<g id="a_Node000020"><a xlink:href="app_8c.html#ab80501f53b757a79772b96ec99e3dc7e" target="_top" xlink:title=" ">
<polygon fill="white" stroke="#666666" points="534.25,-86.53 441.75,-86.53 441.75,-67.28 534.25,-67.28 534.25,-86.53"/>
<text xml:space="preserve" text-anchor="middle" x="488" y="-73.03" font-family="Helvetica,sans-Serif" font-size="10.00">PGB_goToLibrary</text>
</a>
</g>
</g>
<!-- Node19&#45;&gt;Node20 -->
<g id="edge23_Node000019_Node000020" class="edge">
<title>Node19&#45;&gt;Node20</title>
<g id="a_edge23_Node000019_Node000020"><a xlink:title=" ">
<path fill="none" stroke="#63b8ff" d="M606.84,-46.83C581.76,-53.23 551.92,-60.84 528.55,-66.81"/>
<polygon fill="#63b8ff" stroke="#63b8ff" points="607.7,-50.22 616.53,-44.36 605.97,-43.44 607.7,-50.22"/>
</a>
</g>
</g>
<!-- Node23 -->
<g id="Node000023" class="node">
<title>Node23</title>
<g id="a_Node000023"><a xlink:href="image__conversion__scene_8c.html#a60d0e43ab25a8639bbb6d1f4e758edd3" target="_top" xlink:title=" ">
<polygon fill="white" stroke="#666666" points="561.25,-49.15 414.75,-49.15 414.75,-18.65 561.25,-18.65 561.25,-49.15"/>
<text xml:space="preserve" text-anchor="start" x="422.75" y="-35.65" font-family="Helvetica,sans-Serif" font-size="10.00">PGB_ImageConversionScene</text>
<text xml:space="preserve" text-anchor="middle" x="488" y="-24.4" font-family="Helvetica,sans-Serif" font-size="10.00">_update</text>
</a>
</g>
</g>
<!-- Node19&#45;&gt;Node23 -->
<g id="edge26_Node000019_Node000023" class="edge">
<title>Node19&#45;&gt;Node23</title>
<g id="a_edge26_Node000019_Node000023"><a xlink:title=" ">
<path fill="none" stroke="#63b8ff" d="M585.9,-33.9C577.86,-33.9 569.65,-33.9 561.6,-33.9"/>
<polygon fill="#63b8ff" stroke="#63b8ff" points="585.63,-37.4 595.63,-33.9 585.63,-30.4 585.63,-37.4"/>
</a>
</g>
</g>
<!-- Node25 -->
<g id="Node000025" class="node">
<title>Node25</title>
<g id="a_Node000025"><a xlink:href="app_8c.html#af256ea7a9c51fcbd49cb0007facbb8ea" target="_top" xlink:title=" ">
<polygon fill="white" stroke="#666666" points="166.25,-21.53 111.25,-21.53 111.25,-2.28 166.25,-2.28 166.25,-21.53"/>
<text xml:space="preserve" text-anchor="middle" x="138.75" y="-8.03" font-family="Helvetica,sans-Serif" font-size="10.00">PGB_init</text>
</a>
</g>
</g>
<!-- Node19&#45;&gt;Node25 -->
<g id="edge30_Node000019_Node000025" class="edge">
<title>Node19&#45;&gt;Node25</title>
<g id="a_edge30_Node000019_Node000025"><a xlink:title=" ">
<path fill="none" stroke="#63b8ff" d="M614.41,-20.77C597.95,-16.39 578.89,-12.07 561.25,-9.9 413.08,8.29 233.4,-3.78 166.52,-9.44"/>
<polygon fill="#63b8ff" stroke="#63b8ff" points="613.32,-24.1 623.89,-23.39 615.18,-17.35 613.32,-24.1"/>
</a>
</g>
</g>
<!-- Node21 -->
<g id="Node000021" class="node">
<title>Node21</title>
<g id="a_Node000021"><a xlink:href="game__scene_8c.html#a6a4a6f0408da311dc566eb187e497889" target="_top" xlink:title=" ">
<polygon fill="white" stroke="#666666" points="360,-86.53 227.75,-86.53 227.75,-67.28 360,-67.28 360,-86.53"/>
<text xml:space="preserve" text-anchor="middle" x="293.88" y="-73.03" font-family="Helvetica,sans-Serif" font-size="10.00">PGB_LibraryConfirmModal</text>
</a>
</g>
</g>
<!-- Node20&#45;&gt;Node21 -->
<g id="edge24_Node000020_Node000021" class="edge">
<title>Node20&#45;&gt;Node21</title>
<g id="a_edge24_Node000020_Node000021"><a xlink:title=" ">
<path fill="none" stroke="#63b8ff" d="M430.03,-76.9C408.17,-76.9 383.05,-76.9 360.44,-76.9"/>
<polygon fill="#63b8ff" stroke="#63b8ff" points="429.96,-80.4 439.96,-76.9 429.96,-73.4 429.96,-80.4"/>
</a>
</g>
</g>
<!-- Node22 -->
<g id="Node000022" class="node">
<title>Node22</title>
<g id="a_Node000022"><a xlink:href="game__scene_8c.html#a113df24bb94bafcdbb9235ec8648e02f" target="_top" xlink:title=" ">
<polygon fill="white" stroke="#666666" points="173,-86.53 104.5,-86.53 104.5,-67.28 173,-67.28 173,-86.53"/>
<text xml:space="preserve" text-anchor="middle" x="138.75" y="-73.03" font-family="Helvetica,sans-Serif" font-size="10.00">__section__</text>
</a>
</g>
</g>
<!-- Node21&#45;&gt;Node22 -->
<g id="edge25_Node000021_Node000022" class="edge">
<title>Node21&#45;&gt;Node22</title>
<g id="a_edge25_Node000021_Node000022"><a xlink:title=" ">
<path fill="none" stroke="#63b8ff" d="M216.03,-76.9C200.98,-76.9 185.96,-76.9 173.27,-76.9"/>
<polygon fill="#63b8ff" stroke="#63b8ff" points="215.98,-80.4 225.98,-76.9 215.98,-73.4 215.98,-80.4"/>
</a>
</g>
</g>
<!-- Node24 -->
<g id="Node000024" class="node">
<title>Node24</title>
<g id="a_Node000024"><a xlink:href="image__conversion__scene_8c.html#aa3559936491ddf78b9cf06fcbdd32d22" target="_top" xlink:title=" ">
<polygon fill="white" stroke="#666666" points="378.75,-41.53 209,-41.53 209,-22.28 378.75,-22.28 378.75,-41.53"/>
<text xml:space="preserve" text-anchor="middle" x="293.88" y="-28.03" font-family="Helvetica,sans-Serif" font-size="10.00">PGB_ImageConversionScene_new</text>
</a>
</g>
</g>
<!-- Node23&#45;&gt;Node24 -->
<g id="edge27_Node000023_Node000024" class="edge">
<title>Node23&#45;&gt;Node24</title>
<g id="a_edge27_Node000023_Node000024"><a xlink:title=" ">
<path fill="none" stroke="#63b8ff" d="M402.94,-33.03C395.07,-32.95 387.09,-32.86 379.22,-32.78"/>
<polygon fill="#63b8ff" stroke="#63b8ff" points="402.82,-36.53 412.85,-33.13 402.89,-29.53 402.82,-36.53"/>
</a>
</g>
</g>
<!-- Node24&#45;&gt;Node25 -->
<g id="edge28_Node000024_Node000025" class="edge">
<title>Node24&#45;&gt;Node25</title>
<g id="a_edge28_Node000024_Node000025"><a xlink:title=" ">
<path fill="none" stroke="#63b8ff" d="M204.38,-20.34C190.72,-18.56 177.57,-16.84 166.75,-15.43"/>
<polygon fill="#63b8ff" stroke="#63b8ff" points="203.55,-23.76 213.91,-21.59 204.45,-16.82 203.55,-23.76"/>
</a>
</g>
</g>
<!-- Node26 -->
<g id="Node000026" class="node">
<title>Node26</title>
<g id="a_Node000026"><a xlink:href="main_8c.html#a77034286b8c64d0735c69535c5e9b732" target="_top" xlink:title=" ">
<polygon fill="white" stroke="#666666" points="68.5,-21.53 0,-21.53 0,-2.28 68.5,-2.28 68.5,-21.53"/>
<text xml:space="preserve" text-anchor="middle" x="34.25" y="-8.03" font-family="Helvetica,sans-Serif" font-size="10.00">__section__</text>
</a>
</g>
</g>
<!-- Node25&#45;&gt;Node26 -->
<g id="edge29_Node000025_Node000026" class="edge">
<title>Node25&#45;&gt;Node26</title>
<g id="a_edge29_Node000025_Node000026"><a xlink:title=" ">
<path fill="none" stroke="#63b8ff" d="M99.48,-11.9C89.46,-11.9 78.74,-11.9 68.97,-11.9"/>
<polygon fill="#63b8ff" stroke="#63b8ff" points="99.31,-15.4 109.31,-11.9 99.31,-8.4 99.31,-15.4"/>
</a>
</g>
</g>
</g>
</svg>
