<?xml version="1.0" encoding="UTF-8" standalone="no"?>
<!DOCTYPE svg PUBLIC "-//W3C//DTD SVG 1.1//EN"
 "http://www.w3.org/Graphics/SVG/1.1/DTD/svg11.dtd">
<!-- Generated by graphviz version 13.1.0 (20250701.0955)
 -->
<!-- Title: lua_isstring Pages: 1 -->
<svg width="808pt" height="362pt"
 viewBox="0.00 0.00 808.00 362.00" xmlns="http://www.w3.org/2000/svg" xmlns:xlink="http://www.w3.org/1999/xlink">
<g id="graph0" class="graph" transform="scale(1 1) rotate(0) translate(4 358.25)">
<title>lua_isstring</title>
<!-- Node1 -->
<g id="Node000001" class="node">
<title>Node1</title>
<g id="a_Node000001"><a xlink:title=" ">
<polygon fill="#999999" stroke="#666666" points="799.5,-280.25 734,-280.25 734,-261 799.5,-261 799.5,-280.25"/>
<text xml:space="preserve" text-anchor="middle" x="766.75" y="-266.75" font-family="Helvetica,sans-Serif" font-size="10.00">lua_isstring</text>
</a>
</g>
</g>
<!-- Node2 -->
<g id="Node000002" class="node">
<title>Node2</title>
<g id="a_Node000002"><a xlink:href="lstrlib_8c.html#a853703c83ab694a70212461d5cfe7843" target="_top" xlink:title=" ">
<polygon fill="white" stroke="#666666" points="688.25,-354.25 628,-354.25 628,-335 688.25,-335 688.25,-354.25"/>
<text xml:space="preserve" text-anchor="middle" x="658.12" y="-340.75" font-family="Helvetica,sans-Serif" font-size="10.00">add_value</text>
</a>
</g>
</g>
<!-- Node1&#45;&gt;Node2 -->
<g id="edge1_Node000001_Node000002" class="edge">
<title>Node1&#45;&gt;Node2</title>
<g id="a_edge1_Node000001_Node000002"><a xlink:title=" ">
<path fill="none" stroke="#63b8ff" d="M747.23,-288.16C734.15,-299.98 715.83,-315.39 698,-326.62 693.47,-329.48 688.41,-332.15 683.48,-334.52"/>
<polygon fill="#63b8ff" stroke="#63b8ff" points="749.28,-291.03 754.27,-281.68 744.54,-285.88 749.28,-291.03"/>
</a>
</g>
</g>
<!-- Node4 -->
<g id="Node000004" class="node">
<title>Node4</title>
<g id="a_Node000004"><a xlink:href="ltablib_8c.html#a598479e00f1b316a182b1582012df5d0" target="_top" xlink:title=" ">
<polygon fill="white" stroke="#666666" points="683,-317.25 633.25,-317.25 633.25,-298 683,-298 683,-317.25"/>
<text xml:space="preserve" text-anchor="middle" x="658.12" y="-303.75" font-family="Helvetica,sans-Serif" font-size="10.00">addfield</text>
</a>
</g>
</g>
<!-- Node1&#45;&gt;Node4 -->
<g id="edge3_Node000001_Node000004" class="edge">
<title>Node1&#45;&gt;Node4</title>
<g id="a_edge3_Node000001_Node000004"><a xlink:title=" ">
<path fill="none" stroke="#63b8ff" d="M725.97,-284.43C711.59,-289.42 695.81,-294.9 683.19,-299.28"/>
<polygon fill="#63b8ff" stroke="#63b8ff" points="726.88,-287.82 735.18,-281.23 724.59,-281.2 726.88,-287.82"/>
</a>
</g>
</g>
<!-- Node6 -->
<g id="Node000006" class="node">
<title>Node6</title>
<g id="a_Node000006"><a xlink:href="loadlib_8c.html#aeea4101591c7cab25273f4dfe7d811d6" target="_top" xlink:title=" ">
<polygon fill="white" stroke="#666666" points="687.12,-280.25 629.12,-280.25 629.12,-261 687.12,-261 687.12,-280.25"/>
<text xml:space="preserve" text-anchor="middle" x="658.12" y="-266.75" font-family="Helvetica,sans-Serif" font-size="10.00">findloader</text>
</a>
</g>
</g>
<!-- Node1&#45;&gt;Node6 -->
<g id="edge5_Node000001_Node000006" class="edge">
<title>Node1&#45;&gt;Node6</title>
<g id="a_edge5_Node000001_Node000006"><a xlink:title=" ">
<path fill="none" stroke="#63b8ff" d="M722.32,-270.62C710.57,-270.62 698.16,-270.62 687.47,-270.62"/>
<polygon fill="#63b8ff" stroke="#63b8ff" points="722.25,-274.13 732.25,-270.63 722.25,-267.13 722.25,-274.13"/>
</a>
</g>
</g>
<!-- Node8 -->
<g id="Node000008" class="node">
<title>Node8</title>
<g id="a_Node000008"><a xlink:href="lbaselib_8c.html#a9112b62ef9c37047581bf2576374bcef" target="_top" xlink:title=" ">
<polygon fill="white" stroke="#666666" points="698,-243.25 618.25,-243.25 618.25,-224 698,-224 698,-243.25"/>
<text xml:space="preserve" text-anchor="middle" x="658.12" y="-229.75" font-family="Helvetica,sans-Serif" font-size="10.00">generic_reader</text>
</a>
</g>
</g>
<!-- Node1&#45;&gt;Node8 -->
<g id="edge7_Node000001_Node000008" class="edge">
<title>Node1&#45;&gt;Node8</title>
<g id="a_edge7_Node000001_Node000008"><a xlink:title=" ">
<path fill="none" stroke="#63b8ff" d="M725.96,-256.82C713.44,-252.47 699.86,-247.76 688.23,-243.72"/>
<polygon fill="#63b8ff" stroke="#63b8ff" points="724.59,-260.05 735.18,-260.02 726.88,-253.43 724.59,-260.05"/>
</a>
</g>
</g>
<!-- Node10 -->
<g id="Node000010" class="node">
<title>Node10</title>
<g id="a_Node000010"><a xlink:href="lauxlib_8c.html#a64d366034d114de946f1b93199847dab" target="_top" xlink:title=" ">
<polygon fill="white" stroke="#666666" points="695,-130.25 621.25,-130.25 621.25,-111 695,-111 695,-130.25"/>
<text xml:space="preserve" text-anchor="middle" x="658.12" y="-116.75" font-family="Helvetica,sans-Serif" font-size="10.00">luaL_tolstring</text>
</a>
</g>
</g>
<!-- Node1&#45;&gt;Node10 -->
<g id="edge9_Node000001_Node000010" class="edge">
<title>Node1&#45;&gt;Node10</title>
<g id="a_edge9_Node000001_Node000010"><a xlink:title=" ">
<path fill="none" stroke="#63b8ff" d="M752.19,-251.54C729.31,-219.37 683.85,-155.41 666.29,-130.7"/>
<polygon fill="#63b8ff" stroke="#63b8ff" points="749.23,-253.43 757.88,-259.55 754.94,-249.37 749.23,-253.43"/>
</a>
</g>
</g>
<!-- Node3 -->
<g id="Node000003" class="node">
<title>Node3</title>
<g id="a_Node000003"><a xlink:href="lstrlib_8c.html#a42337c674d265175bcc2b2f3809c7339" target="_top" xlink:title=" ">
<polygon fill="white" stroke="#666666" points="572.5,-354.25 519,-354.25 519,-335 572.5,-335 572.5,-354.25"/>
<text xml:space="preserve" text-anchor="middle" x="545.75" y="-340.75" font-family="Helvetica,sans-Serif" font-size="10.00">str_gsub</text>
</a>
</g>
</g>
<!-- Node2&#45;&gt;Node3 -->
<g id="edge2_Node000002_Node000003" class="edge">
<title>Node2&#45;&gt;Node3</title>
<g id="a_edge2_Node000002_Node000003"><a xlink:title=" ">
<path fill="none" stroke="#63b8ff" d="M616.24,-344.62C601.65,-344.62 585.63,-344.62 572.65,-344.62"/>
<polygon fill="#63b8ff" stroke="#63b8ff" points="616.03,-348.13 626.03,-344.63 616.03,-341.13 616.03,-348.13"/>
</a>
</g>
</g>
<!-- Node5 -->
<g id="Node000005" class="node">
<title>Node5</title>
<g id="a_Node000005"><a xlink:href="ltablib_8c.html#add6973c515a288f41265aca8e0ae6412" target="_top" xlink:title=" ">
<polygon fill="white" stroke="#666666" points="569.88,-317.25 521.62,-317.25 521.62,-298 569.88,-298 569.88,-317.25"/>
<text xml:space="preserve" text-anchor="middle" x="545.75" y="-303.75" font-family="Helvetica,sans-Serif" font-size="10.00">tconcat</text>
</a>
</g>
</g>
<!-- Node4&#45;&gt;Node5 -->
<g id="edge4_Node000004_Node000005" class="edge">
<title>Node4&#45;&gt;Node5</title>
<g id="a_edge4_Node000004_Node000005"><a xlink:title=" ">
<path fill="none" stroke="#63b8ff" d="M621.77,-307.62C604.88,-307.62 585.15,-307.62 570.16,-307.62"/>
<polygon fill="#63b8ff" stroke="#63b8ff" points="621.39,-311.13 631.39,-307.63 621.39,-304.13 621.39,-311.13"/>
</a>
</g>
</g>
<!-- Node7 -->
<g id="Node000007" class="node">
<title>Node7</title>
<g id="a_Node000007"><a xlink:href="loadlib_8c.html#a136874f5faa236dc52fb50109281e157" target="_top" xlink:title=" ">
<polygon fill="white" stroke="#666666" points="573.25,-280.25 518.25,-280.25 518.25,-261 573.25,-261 573.25,-280.25"/>
<text xml:space="preserve" text-anchor="middle" x="545.75" y="-266.75" font-family="Helvetica,sans-Serif" font-size="10.00">ll_require</text>
</a>
</g>
</g>
<!-- Node6&#45;&gt;Node7 -->
<g id="edge6_Node000006_Node000007" class="edge">
<title>Node6&#45;&gt;Node7</title>
<g id="a_edge6_Node000006_Node000007"><a xlink:title=" ">
<path fill="none" stroke="#63b8ff" d="M617.44,-270.62C602.87,-270.62 586.73,-270.62 573.56,-270.62"/>
<polygon fill="#63b8ff" stroke="#63b8ff" points="617.19,-274.13 627.19,-270.63 617.19,-267.13 617.19,-274.13"/>
</a>
</g>
</g>
<!-- Node9 -->
<g id="Node000009" class="node">
<title>Node9</title>
<g id="a_Node000009"><a xlink:href="lbaselib_8c.html#a4a9a3613fcf80fe033e044f7e19bed69" target="_top" xlink:title=" ">
<polygon fill="white" stroke="#666666" points="575.12,-243.25 516.38,-243.25 516.38,-224 575.12,-224 575.12,-243.25"/>
<text xml:space="preserve" text-anchor="middle" x="545.75" y="-229.75" font-family="Helvetica,sans-Serif" font-size="10.00">luaB_load</text>
</a>
</g>
</g>
<!-- Node8&#45;&gt;Node9 -->
<g id="edge8_Node000008_Node000009" class="edge">
<title>Node8&#45;&gt;Node9</title>
<g id="a_edge8_Node000008_Node000009"><a xlink:title=" ">
<path fill="none" stroke="#63b8ff" d="M606.5,-233.62C595.84,-233.62 584.95,-233.62 575.44,-233.62"/>
<polygon fill="#63b8ff" stroke="#63b8ff" points="606.39,-237.13 616.39,-233.63 606.39,-230.13 606.39,-237.13"/>
</a>
</g>
</g>
<!-- Node11 -->
<g id="Node000011" class="node">
<title>Node11</title>
<g id="a_Node000011"><a xlink:href="lstrlib_8c.html#a2ff59847baa24a18f7d78d47dc1d3220" target="_top" xlink:title=" ">
<polygon fill="white" stroke="#666666" points="573.25,-206.25 518.25,-206.25 518.25,-187 573.25,-187 573.25,-206.25"/>
<text xml:space="preserve" text-anchor="middle" x="545.75" y="-192.75" font-family="Helvetica,sans-Serif" font-size="10.00">addliteral</text>
</a>
</g>
</g>
<!-- Node10&#45;&gt;Node11 -->
<g id="edge10_Node000010_Node000011" class="edge">
<title>Node10&#45;&gt;Node11</title>
<g id="a_edge10_Node000010_Node000011"><a xlink:title=" ">
<path fill="none" stroke="#63b8ff" d="M633.45,-137.18C618.74,-147.44 599.43,-160.85 582.25,-172.62 575.5,-177.25 568,-182.33 561.63,-186.62"/>
<polygon fill="#63b8ff" stroke="#63b8ff" points="635.37,-140.11 641.57,-131.51 631.36,-134.37 635.37,-140.11"/>
</a>
</g>
</g>
<!-- Node12 -->
<g id="Node000012" class="node">
<title>Node12</title>
<g id="a_Node000012"><a xlink:href="lstrlib_8c.html#ae26a9374857058119e59d0328208c2f2" target="_top" xlink:title=" ">
<polygon fill="white" stroke="#666666" points="473.25,-187.25 413,-187.25 413,-168 473.25,-168 473.25,-187.25"/>
<text xml:space="preserve" text-anchor="middle" x="443.12" y="-173.75" font-family="Helvetica,sans-Serif" font-size="10.00">str_format</text>
</a>
</g>
</g>
<!-- Node10&#45;&gt;Node12 -->
<g id="edge23_Node000010_Node000012" class="edge">
<title>Node10&#45;&gt;Node12</title>
<g id="a_edge23_Node000010_Node000012"><a xlink:title=" ">
<path fill="none" stroke="#63b8ff" d="M610.01,-133.23C568.33,-144.39 508.82,-160.31 473.56,-169.75"/>
<polygon fill="#63b8ff" stroke="#63b8ff" points="610.78,-136.65 619.53,-130.69 608.97,-129.89 610.78,-136.65"/>
</a>
</g>
</g>
<!-- Node13 -->
<g id="Node000013" class="node">
<title>Node13</title>
<g id="a_Node000013"><a xlink:href="ldblib_8c.html#ad72cc206e90f6ebc343460376c950a14" target="_top" xlink:title=" ">
<polygon fill="white" stroke="#666666" points="574.75,-130.25 516.75,-130.25 516.75,-111 574.75,-111 574.75,-130.25"/>
<text xml:space="preserve" text-anchor="middle" x="545.75" y="-116.75" font-family="Helvetica,sans-Serif" font-size="10.00">db_debug</text>
</a>
</g>
</g>
<!-- Node10&#45;&gt;Node13 -->
<g id="edge12_Node000010_Node000013" class="edge">
<title>Node10&#45;&gt;Node13</title>
<g id="a_edge12_Node000010_Node000013"><a xlink:title=" ">
<path fill="none" stroke="#63b8ff" d="M609.81,-120.62C597.92,-120.62 585.54,-120.62 574.92,-120.62"/>
<polygon fill="#63b8ff" stroke="#63b8ff" points="609.47,-124.13 619.47,-120.63 609.47,-117.13 609.47,-124.13"/>
</a>
</g>
</g>
<!-- Node14 -->
<g id="Node000014" class="node">
<title>Node14</title>
<g id="a_Node000014"><a xlink:href="lua_8c.html#a00e95c21ddceedb9bbff9717f82f812c" target="_top" xlink:title=" ">
<polygon fill="white" stroke="#666666" points="578.12,-93.25 513.38,-93.25 513.38,-74 578.12,-74 578.12,-93.25"/>
<text xml:space="preserve" text-anchor="middle" x="545.75" y="-79.75" font-family="Helvetica,sans-Serif" font-size="10.00">get_prompt</text>
</a>
</g>
</g>
<!-- Node10&#45;&gt;Node14 -->
<g id="edge13_Node000010_Node000014" class="edge">
<title>Node10&#45;&gt;Node14</title>
<g id="a_edge13_Node000010_Node000014"><a xlink:title=" ">
<path fill="none" stroke="#63b8ff" d="M616.33,-106.95C603.26,-102.57 589.04,-97.8 576.87,-93.72"/>
<polygon fill="#63b8ff" stroke="#63b8ff" points="614.94,-110.17 625.53,-110.03 617.16,-103.54 614.94,-110.17"/>
</a>
</g>
</g>
<!-- Node21 -->
<g id="Node000021" class="node">
<title>Node21</title>
<g id="a_Node000021"><a xlink:href="lbaselib_8c.html#a865eb761a305c588d6940da5272375b7" target="_top" xlink:title=" ">
<polygon fill="white" stroke="#666666" points="575.5,-56.25 516,-56.25 516,-37 575.5,-37 575.5,-56.25"/>
<text xml:space="preserve" text-anchor="middle" x="545.75" y="-42.75" font-family="Helvetica,sans-Serif" font-size="10.00">luaB_print</text>
</a>
</g>
</g>
<!-- Node10&#45;&gt;Node21 -->
<g id="edge21_Node000010_Node000021" class="edge">
<title>Node10&#45;&gt;Node21</title>
<g id="a_edge21_Node000010_Node000021"><a xlink:title=" ">
<path fill="none" stroke="#63b8ff" d="M636.4,-103.59C621.74,-91.93 601.37,-76.5 582.25,-64.62 577.79,-61.85 572.85,-59.14 568.1,-56.7"/>
<polygon fill="#63b8ff" stroke="#63b8ff" points="633.97,-106.13 643.96,-109.68 638.37,-100.68 633.97,-106.13"/>
</a>
</g>
</g>
<!-- Node22 -->
<g id="Node000022" class="node">
<title>Node22</title>
<g id="a_Node000022"><a xlink:href="lbaselib_8c.html#a15bd8ce3f719c87883bcb578c60677e7" target="_top" xlink:title=" ">
<polygon fill="white" stroke="#666666" points="582.25,-19.25 509.25,-19.25 509.25,0 582.25,0 582.25,-19.25"/>
<text xml:space="preserve" text-anchor="middle" x="545.75" y="-5.75" font-family="Helvetica,sans-Serif" font-size="10.00">luaB_tostring</text>
</a>
</g>
</g>
<!-- Node10&#45;&gt;Node22 -->
<g id="edge22_Node000010_Node000022" class="edge">
<title>Node10&#45;&gt;Node22</title>
<g id="a_edge22_Node000010_Node000022"><a xlink:title=" ">
<path fill="none" stroke="#63b8ff" d="M644.97,-101.01C631.58,-80.65 608.44,-48.85 582.25,-27.62 578.6,-24.67 574.38,-22.01 570.16,-19.7"/>
<polygon fill="#63b8ff" stroke="#63b8ff" points="641.89,-102.7 650.23,-109.23 647.78,-98.92 641.89,-102.7"/>
</a>
</g>
</g>
<!-- Node11&#45;&gt;Node12 -->
<g id="edge11_Node000011_Node000012" class="edge">
<title>Node11&#45;&gt;Node12</title>
<g id="a_edge11_Node000011_Node000012"><a xlink:title=" ">
<path fill="none" stroke="#63b8ff" d="M506.76,-189.45C495.8,-187.38 484.01,-185.16 473.64,-183.2"/>
<polygon fill="#63b8ff" stroke="#63b8ff" points="505.82,-192.84 516.3,-191.25 507.12,-185.96 505.82,-192.84"/>
</a>
</g>
</g>
<!-- Node15 -->
<g id="Node000015" class="node">
<title>Node15</title>
<g id="a_Node000015"><a xlink:href="lua_8c.html#a83a7cb21b34095ca93f2a2a863f58fda" target="_top" xlink:title=" ">
<polygon fill="white" stroke="#666666" points="469.12,-93.25 417.12,-93.25 417.12,-74 469.12,-74 469.12,-93.25"/>
<text xml:space="preserve" text-anchor="middle" x="443.12" y="-79.75" font-family="Helvetica,sans-Serif" font-size="10.00">pushline</text>
</a>
</g>
</g>
<!-- Node14&#45;&gt;Node15 -->
<g id="edge14_Node000014_Node000015" class="edge">
<title>Node14&#45;&gt;Node15</title>
<g id="a_edge14_Node000014_Node000015"><a xlink:title=" ">
<path fill="none" stroke="#63b8ff" d="M501.69,-83.62C490.67,-83.62 479.18,-83.62 469.39,-83.62"/>
<polygon fill="#63b8ff" stroke="#63b8ff" points="501.4,-87.13 511.4,-83.63 501.4,-80.13 501.4,-87.13"/>
</a>
</g>
</g>
<!-- Node16 -->
<g id="Node000016" class="node">
<title>Node16</title>
<g id="a_Node000016"><a xlink:href="lua_8c.html#ad7e840f79b193c164616ed9748e68ec6" target="_top" xlink:title=" ">
<polygon fill="white" stroke="#666666" points="289,-93.25 240,-93.25 240,-74 289,-74 289,-93.25"/>
<text xml:space="preserve" text-anchor="middle" x="264.5" y="-79.75" font-family="Helvetica,sans-Serif" font-size="10.00">loadline</text>
</a>
</g>
</g>
<!-- Node15&#45;&gt;Node16 -->
<g id="edge15_Node000015_Node000016" class="edge">
<title>Node15&#45;&gt;Node16</title>
<g id="a_edge15_Node000015_Node000016"><a xlink:title=" ">
<path fill="none" stroke="#63b8ff" d="M405.69,-83.62C370.83,-83.62 319.25,-83.62 289.34,-83.62"/>
<polygon fill="#63b8ff" stroke="#63b8ff" points="405.31,-87.13 415.31,-83.63 405.31,-80.13 405.31,-87.13"/>
</a>
</g>
</g>
<!-- Node20 -->
<g id="Node000020" class="node">
<title>Node20</title>
<g id="a_Node000020"><a xlink:href="lua_8c.html#affef5a04b31963c2c3f5028518777e12" target="_top" xlink:title=" ">
<polygon fill="white" stroke="#666666" points="377,-74.25 325,-74.25 325,-55 377,-55 377,-74.25"/>
<text xml:space="preserve" text-anchor="middle" x="351" y="-60.75" font-family="Helvetica,sans-Serif" font-size="10.00">multiline</text>
</a>
</g>
</g>
<!-- Node15&#45;&gt;Node20 -->
<g id="edge19_Node000015_Node000020" class="edge">
<title>Node15&#45;&gt;Node20</title>
<g id="a_edge19_Node000015_Node000020"><a xlink:title=" ">
<path fill="none" stroke="#63b8ff" d="M405.76,-75.96C396.21,-73.94 386.11,-71.82 377.28,-69.96"/>
<polygon fill="#63b8ff" stroke="#63b8ff" points="405.03,-79.38 415.54,-78.02 406.48,-72.53 405.03,-79.38"/>
</a>
</g>
</g>
<!-- Node17 -->
<g id="Node000017" class="node">
<title>Node17</title>
<g id="a_Node000017"><a xlink:href="lua_8c.html#a946f2675cba972bd3580d9046abf2b6b" target="_top" xlink:title=" ">
<polygon fill="white" stroke="#666666" points="204,-93.25 151.25,-93.25 151.25,-74 204,-74 204,-93.25"/>
<text xml:space="preserve" text-anchor="middle" x="177.62" y="-79.75" font-family="Helvetica,sans-Serif" font-size="10.00">doREPL</text>
</a>
</g>
</g>
<!-- Node16&#45;&gt;Node17 -->
<g id="edge16_Node000016_Node000017" class="edge">
<title>Node16&#45;&gt;Node17</title>
<g id="a_edge16_Node000016_Node000017"><a xlink:title=" ">
<path fill="none" stroke="#63b8ff" d="M228.4,-83.62C220.3,-83.62 211.83,-83.62 204.22,-83.62"/>
<polygon fill="#63b8ff" stroke="#63b8ff" points="228.34,-87.13 238.34,-83.63 228.34,-80.13 228.34,-87.13"/>
</a>
</g>
</g>
<!-- Node18 -->
<g id="Node000018" class="node">
<title>Node18</title>
<g id="a_Node000018"><a xlink:href="lua_8c.html#aa0f8bc082ef913cb0a4df437bf5f5019" target="_top" xlink:title=" ">
<polygon fill="white" stroke="#666666" points="115.25,-93.25 73,-93.25 73,-74 115.25,-74 115.25,-93.25"/>
<text xml:space="preserve" text-anchor="middle" x="94.12" y="-79.75" font-family="Helvetica,sans-Serif" font-size="10.00">pmain</text>
</a>
</g>
</g>
<!-- Node17&#45;&gt;Node18 -->
<g id="edge17_Node000017_Node000018" class="edge">
<title>Node17&#45;&gt;Node18</title>
<g id="a_edge17_Node000017_Node000018"><a xlink:title=" ">
<path fill="none" stroke="#63b8ff" d="M139.49,-83.62C131.27,-83.62 122.85,-83.62 115.59,-83.62"/>
<polygon fill="#63b8ff" stroke="#63b8ff" points="139.32,-87.13 149.32,-83.63 139.32,-80.13 139.32,-87.13"/>
</a>
</g>
</g>
<!-- Node19 -->
<g id="Node000019" class="node">
<title>Node19</title>
<g id="a_Node000019"><a xlink:href="lua_8c.html#a3c04138a5bfe5d72780bb7e82a18e627" target="_top" xlink:title=" ">
<polygon fill="white" stroke="#666666" points="37,-93.25 0,-93.25 0,-74 37,-74 37,-93.25"/>
<text xml:space="preserve" text-anchor="middle" x="18.5" y="-79.75" font-family="Helvetica,sans-Serif" font-size="10.00">main</text>
</a>
</g>
</g>
<!-- Node18&#45;&gt;Node19 -->
<g id="edge18_Node000018_Node000019" class="edge">
<title>Node18&#45;&gt;Node19</title>
<g id="a_edge18_Node000018_Node000019"><a xlink:title=" ">
<path fill="none" stroke="#63b8ff" d="M61.12,-83.62C52.99,-83.62 44.54,-83.62 37.4,-83.62"/>
<polygon fill="#63b8ff" stroke="#63b8ff" points="61.1,-87.13 71.1,-83.63 61.1,-80.13 61.1,-87.13"/>
</a>
</g>
</g>
<!-- Node20&#45;&gt;Node16 -->
<g id="edge20_Node000020_Node000016" class="edge">
<title>Node20&#45;&gt;Node16</title>
<g id="a_edge20_Node000020_Node000016"><a xlink:title=" ">
<path fill="none" stroke="#63b8ff" d="M313.45,-72.84C305.3,-74.67 296.87,-76.57 289.39,-78.25"/>
<polygon fill="#63b8ff" stroke="#63b8ff" points="314.18,-76.27 323.17,-70.66 312.65,-69.44 314.18,-76.27"/>
</a>
</g>
</g>
</g>
</svg>
