<?xml version="1.0" encoding="UTF-8" standalone="no"?>
<!DOCTYPE svg PUBLIC "-//W3C//DTD SVG 1.1//EN"
 "http://www.w3.org/Graphics/SVG/1.1/DTD/svg11.dtd">
<!-- Generated by graphviz version 13.1.0 (20250701.0955)
 -->
<!-- Title: reverse Pages: 1 -->
<svg width="370pt" height="193pt"
 viewBox="0.00 0.00 370.00 193.00" xmlns="http://www.w3.org/2000/svg" xmlns:xlink="http://www.w3.org/1999/xlink">

<svg id="main" version="1.1" xmlns="http://www.w3.org/2000/svg" xmlns:xlink="http://www.w3.org/1999/xlink" xml:space="preserve">

<style type="text/css"><![CDATA[
.node, .edge {opacity: 0.7;}
.node.selected, .edge.selected {opacity: 1;}
.edge:hover path { stroke: red; }
.edge:hover polygon { stroke: red; fill: red; }
]]></style>
<script type="application/ecmascript" xlink:href="svg.min.js"/>
<svg id="graph" class="graph">
<g id="graph0" class="graph" transform="scale(1 1) rotate(0) translate(4 189.25)">
<title>reverse</title>
<!-- Node1 -->
<g id="Node000001" class="node">
<title>Node1</title>
<g id="a_Node000001"><a xlink:title=" ">
<polygon fill="#999999" stroke="#666666" points="361.75,-93.25 313.5,-93.25 313.5,-74 361.75,-74 361.75,-93.25"/>
<text xml:space="preserve" text-anchor="middle" x="337.62" y="-79.75" font-family="Helvetica,sans-Serif" font-size="10.00">reverse</text>
</a>
</g>
</g>
<!-- Node2 -->
<g id="Node000002" class="node">
<title>Node2</title>
<g id="a_Node000002"><a xlink:href="lapi_8c.html#af680e24129c0e021b4fbb7700cf185dc" target="_top" xlink:title=" ">
<polygon fill="white" stroke="#666666" points="277.5,-93.25 218.75,-93.25 218.75,-74 277.5,-74 277.5,-93.25"/>
<text xml:space="preserve" text-anchor="middle" x="248.12" y="-79.75" font-family="Helvetica,sans-Serif" font-size="10.00">lua_rotate</text>
</a>
</g>
</g>
<!-- Node1&#45;&gt;Node2 -->
<g id="edge1_Node000001_Node000002" class="edge">
<title>Node1&#45;&gt;Node2</title>
<g id="a_edge1_Node000001_Node000002"><a xlink:title=" ">
<path fill="none" stroke="#63b8ff" d="M301.68,-83.62C293.81,-83.62 285.54,-83.62 277.95,-83.62"/>
<polygon fill="#63b8ff" stroke="#63b8ff" points="301.66,-87.13 311.66,-83.63 301.66,-80.13 301.66,-87.13"/>
</a>
</g>
</g>
<!-- Node3 -->
<g id="Node000003" class="node">
<title>Node3</title>
<g id="a_Node000003"><a xlink:href="liolib_8c.html#a66325940a0248cee288153edb061c0c4" target="_top" xlink:title=" ">
<polygon fill="white" stroke="#666666" points="168.5,-167.25 111.25,-167.25 111.25,-148 168.5,-148 168.5,-167.25"/>
<text xml:space="preserve" text-anchor="middle" x="139.88" y="-153.75" font-family="Helvetica,sans-Serif" font-size="10.00">aux_lines</text>
</a>
</g>
</g>
<!-- Node2&#45;&gt;Node3 -->
<g id="edge2_Node000002_Node000003" class="edge">
<title>Node2&#45;&gt;Node3</title>
<g id="a_edge2_Node000002_Node000003"><a xlink:title=" ">
<path fill="none" stroke="#63b8ff" d="M229.84,-101.31C217.52,-113.24 200.11,-128.72 182.75,-139.62 178.06,-142.57 172.8,-145.25 167.64,-147.59"/>
<polygon fill="#63b8ff" stroke="#63b8ff" points="232.14,-103.97 236.77,-94.44 227.21,-99 232.14,-103.97"/>
</a>
</g>
</g>
<!-- Node6 -->
<g id="Node000006" class="node">
<title>Node6</title>
<g id="a_Node000006"><a xlink:href="ldblib_8c.html#ae802ce7397e9ebb08a90b69976578ecc" target="_top" xlink:title=" ">
<polygon fill="white" stroke="#666666" points="172.62,-130.25 107.12,-130.25 107.12,-111 172.62,-111 172.62,-130.25"/>
<text xml:space="preserve" text-anchor="middle" x="139.88" y="-116.75" font-family="Helvetica,sans-Serif" font-size="10.00">db_getlocal</text>
</a>
</g>
</g>
<!-- Node2&#45;&gt;Node6 -->
<g id="edge5_Node000002_Node000006" class="edge">
<title>Node2&#45;&gt;Node6</title>
<g id="a_edge5_Node000002_Node000006"><a xlink:title=" ">
<path fill="none" stroke="#63b8ff" d="M207.66,-97.37C195.05,-101.76 181.35,-106.53 169.65,-110.6"/>
<polygon fill="#63b8ff" stroke="#63b8ff" points="208.65,-100.73 216.94,-94.14 206.35,-94.12 208.65,-100.73"/>
</a>
</g>
</g>
<!-- Node7 -->
<g id="Node000007" class="node">
<title>Node7</title>
<g id="a_Node000007"><a xlink:href="loadlib_8c.html#a136874f5faa236dc52fb50109281e157" target="_top" xlink:title=" ">
<polygon fill="white" stroke="#666666" points="167.38,-93.25 112.38,-93.25 112.38,-74 167.38,-74 167.38,-93.25"/>
<text xml:space="preserve" text-anchor="middle" x="139.88" y="-79.75" font-family="Helvetica,sans-Serif" font-size="10.00">ll_require</text>
</a>
</g>
</g>
<!-- Node2&#45;&gt;Node7 -->
<g id="edge6_Node000002_Node000007" class="edge">
<title>Node2&#45;&gt;Node7</title>
<g id="a_edge6_Node000002_Node000007"><a xlink:title=" ">
<path fill="none" stroke="#63b8ff" d="M207.21,-83.62C194.06,-83.62 179.77,-83.62 167.82,-83.62"/>
<polygon fill="#63b8ff" stroke="#63b8ff" points="206.86,-87.13 216.86,-83.63 206.86,-80.13 206.86,-87.13"/>
</a>
</g>
</g>
<!-- Node8 -->
<g id="Node000008" class="node">
<title>Node8</title>
<g id="a_Node000008"><a xlink:href="lbaselib_8c.html#a5fbb0094fa1a56f0a4c2547f1ec4c5ab" target="_top" xlink:title=" ">
<polygon fill="white" stroke="#666666" points="173,-56.25 106.75,-56.25 106.75,-37 173,-37 173,-56.25"/>
<text xml:space="preserve" text-anchor="middle" x="139.88" y="-42.75" font-family="Helvetica,sans-Serif" font-size="10.00">luaB_xpcall</text>
</a>
</g>
</g>
<!-- Node2&#45;&gt;Node8 -->
<g id="edge7_Node000002_Node000008" class="edge">
<title>Node2&#45;&gt;Node8</title>
<g id="a_edge7_Node000002_Node000008"><a xlink:title=" ">
<path fill="none" stroke="#63b8ff" d="M207.66,-69.88C195.05,-65.49 181.35,-60.72 169.65,-56.65"/>
<polygon fill="#63b8ff" stroke="#63b8ff" points="206.35,-73.13 216.94,-73.11 208.65,-66.52 206.35,-73.13"/>
</a>
</g>
</g>
<!-- Node9 -->
<g id="Node000009" class="node">
<title>Node9</title>
<g id="a_Node000009"><a xlink:href="ldblib_8c.html#a6269322ee4ae931654d7442fe2be6a46" target="_top" xlink:title=" ">
<polygon fill="white" stroke="#666666" points="182.75,-19.25 97,-19.25 97,0 182.75,0 182.75,-19.25"/>
<text xml:space="preserve" text-anchor="middle" x="139.88" y="-5.75" font-family="Helvetica,sans-Serif" font-size="10.00">treatstackoption</text>
</a>
</g>
</g>
<!-- Node2&#45;&gt;Node9 -->
<g id="edge8_Node000002_Node000009" class="edge">
<title>Node2&#45;&gt;Node9</title>
<g id="a_edge8_Node000002_Node000009"><a xlink:title=" ">
<path fill="none" stroke="#63b8ff" d="M229.84,-65.94C217.52,-54.01 200.11,-38.53 182.75,-27.62 178.06,-24.68 172.8,-22 167.64,-19.66"/>
<polygon fill="#63b8ff" stroke="#63b8ff" points="227.21,-68.25 236.77,-72.81 232.14,-63.28 227.21,-68.25"/>
</a>
</g>
</g>
<!-- Node4 -->
<g id="Node000004" class="node">
<title>Node4</title>
<g id="a_Node000004"><a xlink:href="liolib_8c.html#a6a36f72d8b3966c1ebafab8a4791cb6c" target="_top" xlink:title=" ">
<polygon fill="white" stroke="#666666" points="52.75,-185.25 8.25,-185.25 8.25,-166 52.75,-166 52.75,-185.25"/>
<text xml:space="preserve" text-anchor="middle" x="30.5" y="-171.75" font-family="Helvetica,sans-Serif" font-size="10.00">f_lines</text>
</a>
</g>
</g>
<!-- Node3&#45;&gt;Node4 -->
<g id="edge3_Node000003_Node000004" class="edge">
<title>Node3&#45;&gt;Node4</title>
<g id="a_edge3_Node000003_Node000004"><a xlink:title=" ">
<path fill="none" stroke="#63b8ff" d="M99.89,-164.16C84.15,-166.8 66.58,-169.74 53.19,-171.99"/>
<polygon fill="#63b8ff" stroke="#63b8ff" points="100.17,-167.66 109.45,-162.56 99.01,-160.76 100.17,-167.66"/>
</a>
</g>
</g>
<!-- Node5 -->
<g id="Node000005" class="node">
<title>Node5</title>
<g id="a_Node000005"><a xlink:href="liolib_8c.html#ab08031b51605d4ef676ec33a3b96a286" target="_top" xlink:title=" ">
<polygon fill="white" stroke="#666666" points="55,-148.25 6,-148.25 6,-129 55,-129 55,-148.25"/>
<text xml:space="preserve" text-anchor="middle" x="30.5" y="-134.75" font-family="Helvetica,sans-Serif" font-size="10.00">io_lines</text>
</a>
</g>
</g>
<!-- Node3&#45;&gt;Node5 -->
<g id="edge4_Node000003_Node000005" class="edge">
<title>Node3&#45;&gt;Node5</title>
<g id="a_edge4_Node000003_Node000005"><a xlink:title=" ">
<path fill="none" stroke="#63b8ff" d="M99.93,-150.73C84.98,-148.09 68.39,-145.15 55.29,-142.83"/>
<polygon fill="#63b8ff" stroke="#63b8ff" points="99,-154.12 109.45,-152.42 100.22,-147.23 99,-154.12"/>
</a>
</g>
</g>
<!-- Node10 -->
<g id="Node000010" class="node">
<title>Node10</title>
<g id="a_Node000010"><a xlink:href="ldblib_8c.html#a4eb57e66c2efb2d31c9b9e1b01d27e13" target="_top" xlink:title=" ">
<polygon fill="white" stroke="#666666" points="61,-19.25 0,-19.25 0,0 61,0 61,-19.25"/>
<text xml:space="preserve" text-anchor="middle" x="30.5" y="-5.75" font-family="Helvetica,sans-Serif" font-size="10.00">db_getinfo</text>
</a>
</g>
</g>
<!-- Node9&#45;&gt;Node10 -->
<g id="edge9_Node000009_Node000010" class="edge">
<title>Node9&#45;&gt;Node10</title>
<g id="a_edge9_Node000009_Node000010"><a xlink:title=" ">
<path fill="none" stroke="#63b8ff" d="M85.46,-9.62C77.13,-9.62 68.79,-9.62 61.24,-9.62"/>
<polygon fill="#63b8ff" stroke="#63b8ff" points="85.23,-13.13 95.23,-9.63 85.23,-6.13 85.23,-13.13"/>
</a>
</g>
</g>
</g>
</svg>
</svg>

<style type='text/css'>
<![CDATA[
[data-mouse-over-selected='false'] { opacity: 0.7; }
[data-mouse-over-selected='true']  { opacity: 1.0; }
]]>
</style>
<script type="application/ecmascript"><![CDATA[
document.addEventListener('DOMContentLoaded', (event) => {
  highlightEdges();
  highlightAdjacentNodes();
});
]]></script>
</svg>
