<?xml version="1.0" encoding="UTF-8" standalone="no"?>
<!DOCTYPE svg PUBLIC "-//W3C//DTD SVG 1.1//EN"
 "http://www.w3.org/Graphics/SVG/1.1/DTD/svg11.dtd">
<!-- Generated by graphviz version 13.1.0 (20250701.0955)
 -->
<!-- Title: lua_gettable Pages: 1 -->
<svg width="262pt" height="27pt"
 viewBox="0.00 0.00 262.00 27.00" xmlns="http://www.w3.org/2000/svg" xmlns:xlink="http://www.w3.org/1999/xlink">
<g id="graph0" class="graph" transform="scale(1 1) rotate(0) translate(4 23.25)">
<title>lua_gettable</title>
<!-- Node1 -->
<g id="Node000001" class="node">
<title>Node1</title>
<g id="a_Node000001"><a xlink:title=" ">
<polygon fill="#999999" stroke="#666666" points="254.25,-19.25 185.75,-19.25 185.75,0 254.25,0 254.25,-19.25"/>
<text xml:space="preserve" text-anchor="middle" x="220" y="-5.75" font-family="Helvetica,sans-Serif" font-size="10.00">lua_gettable</text>
</a>
</g>
</g>
<!-- Node2 -->
<g id="Node000002" class="node">
<title>Node2</title>
<g id="a_Node000002"><a xlink:href="lstrlib_8c.html#a853703c83ab694a70212461d5cfe7843" target="_top" xlink:title=" ">
<polygon fill="white" stroke="#666666" points="149.75,-19.25 89.5,-19.25 89.5,0 149.75,0 149.75,-19.25"/>
<text xml:space="preserve" text-anchor="middle" x="119.62" y="-5.75" font-family="Helvetica,sans-Serif" font-size="10.00">add_value</text>
</a>
</g>
</g>
<!-- Node1&#45;&gt;Node2 -->
<g id="edge1_Node000001_Node000002" class="edge">
<title>Node1&#45;&gt;Node2</title>
<g id="a_edge1_Node000001_Node000002"><a xlink:title=" ">
<path fill="none" stroke="#63b8ff" d="M174.11,-9.62C165.96,-9.62 157.66,-9.62 150.11,-9.62"/>
<polygon fill="#63b8ff" stroke="#63b8ff" points="173.91,-13.13 183.91,-9.63 173.91,-6.13 173.91,-13.13"/>
</a>
</g>
</g>
<!-- Node3 -->
<g id="Node000003" class="node">
<title>Node3</title>
<g id="a_Node000003"><a xlink:href="lstrlib_8c.html#a42337c674d265175bcc2b2f3809c7339" target="_top" xlink:title=" ">
<polygon fill="white" stroke="#666666" points="53.5,-19.25 0,-19.25 0,0 53.5,0 53.5,-19.25"/>
<text xml:space="preserve" text-anchor="middle" x="26.75" y="-5.75" font-family="Helvetica,sans-Serif" font-size="10.00">str_gsub</text>
</a>
</g>
</g>
<!-- Node2&#45;&gt;Node3 -->
<g id="edge2_Node000002_Node000003" class="edge">
<title>Node2&#45;&gt;Node3</title>
<g id="a_edge2_Node000002_Node000003"><a xlink:title=" ">
<path fill="none" stroke="#63b8ff" d="M77.8,-9.62C69.63,-9.62 61.25,-9.62 53.74,-9.62"/>
<polygon fill="#63b8ff" stroke="#63b8ff" points="77.61,-13.13 87.61,-9.63 77.61,-6.13 77.61,-13.13"/>
</a>
</g>
</g>
</g>
</svg>
