<?xml version="1.0" encoding="UTF-8" standalone="no"?>
<!DOCTYPE svg PUBLIC "-//W3C//DTD SVG 1.1//EN"
 "http://www.w3.org/Graphics/SVG/1.1/DTD/svg11.dtd">
<!-- Generated by graphviz version 13.1.0 (20250701.0955)
 -->
<!-- Title: lua_stringtonumber Pages: 1 -->
<!--zoomable 397 -->

<svg id="main" version="1.1" xmlns="http://www.w3.org/2000/svg" xmlns:xlink="http://www.w3.org/1999/xlink" xml:space="preserve" onload="init(evt)">

<style type="text/css"><![CDATA[
.node, .edge {opacity: 0.7;}
.node.selected, .edge.selected {opacity: 1;}
.edge:hover path { stroke: red; }
.edge:hover polygon { stroke: red; fill: red; }
]]></style>

<defs>
  <circle id="rim" cx="0" cy="0" r="7"/>
  <circle id="rim2" cx="0" cy="0" r="3.5"/>
  <g id="zoomPlus">
    <use xlink:href="#rim" fill="#404040"><set attributeName="fill" to="#808080" begin="zoomplus.mouseover" end="zoomplus.mouseout"/></use>
    <path d="M-4,0h8M0,-4v8" fill="none" stroke="white" stroke-width="1.5" pointer-events="none"/>
  </g>
  <g id="zoomMin">
    <use xlink:href="#rim" fill="#404040"><set attributeName="fill" to="#808080" begin="zoomminus.mouseover" end="zoomminus.mouseout"/></use>
    <path d="M-4,0h8" fill="none" stroke="white" stroke-width="1.5" pointer-events="none"/>
  </g>
  <g id="arrowUp" transform="translate(30 24)">
    <use xlink:href="#rim"/>
    <path pointer-events="none" fill="none" stroke="white" stroke-width="1.5" d="M0,-3.0v7 M-2.5,-0.5L0,-3.0L2.5,-0.5"/>
  </g>
  <g id="arrowRight" transform="rotate(90) translate(36 -43)">
    <use xlink:href="#rim"/>
    <path pointer-events="none" fill="none" stroke="white" stroke-width="1.5" d="M0,-3.0v7 M-2.5,-0.5L0,-3.0L2.5,-0.5"/>
  </g>
  <g id="arrowDown" transform="rotate(180) translate(-30 -48)">
    <use xlink:href="#rim"/>
    <path pointer-events="none" fill="none" stroke="white" stroke-width="1.5" d="M0,-3.0v7 M-2.5,-0.5L0,-3.0L2.5,-0.5"/>
  </g>
  <g id="arrowLeft" transform="rotate(270) translate(-36 17)">
    <use xlink:href="#rim"/>
    <path pointer-events="none" fill="none" stroke="white" stroke-width="1.5" d="M0,-3.0v7 M-2.5,-0.5L0,-3.0L2.5,-0.5"/>
  </g>
  <g id="resetDef">
    <use xlink:href="#rim2" fill="#404040"><set attributeName="fill" to="#808080" begin="reset.mouseover" end="reset.mouseout"/></use>
  </g>
</defs>
<script type="application/ecmascript">
var viewWidth = 582;
var viewHeight = 397;
var sectionId = 'dynsection-72';
</script>
<script type="application/ecmascript" xlink:href="svg.min.js"/>
<svg id="graph" class="graph">
<g id="viewport">
<title>lua_stringtonumber</title>
<!-- Node1 -->
<g id="Node000001" class="node">
<title>Node1</title>
<g id="a_Node000001"><a xlink:title=" ">
<polygon fill="#999999" stroke="#666666" points="573.75,-305.25 475.25,-305.25 475.25,-286 573.75,-286 573.75,-305.25"/>
<text xml:space="preserve" text-anchor="middle" x="524.5" y="-291.75" font-family="Helvetica,sans-Serif" font-size="10.00">lua_stringtonumber</text>
</a>
</g>
</g>
<!-- Node2 -->
<g id="Node000002" class="node">
<title>Node2</title>
<g id="a_Node000002"><a xlink:href="lbaselib_8c.html#a6224f7b7c4485996e1c22eae32de990d" target="_top" xlink:title=" ">
<polygon fill="white" stroke="#666666" points="439.25,-342.25 358,-342.25 358,-323 439.25,-323 439.25,-342.25"/>
<text xml:space="preserve" text-anchor="middle" x="398.62" y="-328.75" font-family="Helvetica,sans-Serif" font-size="10.00">luaB_tonumber</text>
</a>
</g>
</g>
<!-- Node1&#45;&gt;Node2 -->
<g id="edge1_Node000001_Node000002" class="edge">
<title>Node1&#45;&gt;Node2</title>
<g id="a_edge1_Node000001_Node000002"><a xlink:title=" ">
<path fill="none" stroke="#63b8ff" d="M479.03,-308.91C464.01,-313.39 447.49,-318.33 433.43,-322.53"/>
<polygon fill="#63b8ff" stroke="#63b8ff" points="479.62,-312.38 488.2,-306.17 477.62,-305.68 479.62,-312.38"/>
</a>
</g>
</g>
<!-- Node3 -->
<g id="Node000003" class="node">
<title>Node3</title>
<g id="a_Node000003"><a xlink:href="liolib_8c.html#a5345908bf60e4bd37d768b052ac26ec7" target="_top" xlink:title=" ">
<polygon fill="white" stroke="#666666" points="434.75,-305.25 362.5,-305.25 362.5,-286 434.75,-286 434.75,-305.25"/>
<text xml:space="preserve" text-anchor="middle" x="398.62" y="-291.75" font-family="Helvetica,sans-Serif" font-size="10.00">read_number</text>
</a>
</g>
</g>
<!-- Node1&#45;&gt;Node3 -->
<g id="edge2_Node000001_Node000003" class="edge">
<title>Node1&#45;&gt;Node3</title>
<g id="a_edge2_Node000001_Node000003"><a xlink:title=" ">
<path fill="none" stroke="#63b8ff" d="M463.54,-295.62C453.79,-295.62 443.98,-295.62 435.07,-295.62"/>
<polygon fill="#63b8ff" stroke="#63b8ff" points="463.38,-299.13 473.38,-295.63 463.38,-292.13 463.38,-299.13"/>
</a>
</g>
</g>
<!-- Node11 -->
<g id="Node000011" class="node">
<title>Node11</title>
<g id="a_Node000011"><a xlink:href="lstrlib_8c.html#a29c672037c89ca25af99c1694e04c294" target="_top" xlink:title=" ">
<polygon fill="white" stroke="#666666" points="420.12,-213.25 377.12,-213.25 377.12,-194 420.12,-194 420.12,-213.25"/>
<text xml:space="preserve" text-anchor="middle" x="398.62" y="-199.75" font-family="Helvetica,sans-Serif" font-size="10.00">tonum</text>
</a>
</g>
</g>
<!-- Node1&#45;&gt;Node11 -->
<g id="edge10_Node000001_Node000011" class="edge">
<title>Node1&#45;&gt;Node11</title>
<g id="a_edge10_Node000001_Node000011"><a xlink:title=" ">
<path fill="none" stroke="#63b8ff" d="M501.27,-279.11C475.65,-260.09 434.37,-229.43 413.16,-213.68"/>
<polygon fill="#63b8ff" stroke="#63b8ff" points="498.91,-281.72 509.03,-284.88 503.09,-276.1 498.91,-281.72"/>
</a>
</g>
</g>
<!-- Node4 -->
<g id="Node000004" class="node">
<title>Node4</title>
<g id="a_Node000004"><a xlink:href="liolib_8c.html#addece2406777a40f0f591e3518293932" target="_top" xlink:title=" ">
<polygon fill="white" stroke="#666666" points="322,-333.25 276.75,-333.25 276.75,-314 322,-314 322,-333.25"/>
<text xml:space="preserve" text-anchor="middle" x="299.38" y="-319.75" font-family="Helvetica,sans-Serif" font-size="10.00">g_read</text>
</a>
</g>
</g>
<!-- Node3&#45;&gt;Node4 -->
<g id="edge3_Node000003_Node000004" class="edge">
<title>Node3&#45;&gt;Node4</title>
<g id="a_edge3_Node000003_Node000004"><a xlink:title=" ">
<path fill="none" stroke="#63b8ff" d="M351.62,-308.87C341.45,-311.8 331.12,-314.77 322.43,-317.28"/>
<polygon fill="#63b8ff" stroke="#63b8ff" points="352.42,-312.28 361.06,-306.15 350.48,-305.56 352.42,-312.28"/>
</a>
</g>
</g>
<!-- Node5 -->
<g id="Node000005" class="node">
<title>Node5</title>
<g id="a_Node000005"><a xlink:href="liolib_8c.html#add5250a74576076467531e4eb8f5f68e" target="_top" xlink:title=" ">
<polygon fill="white" stroke="#666666" points="231,-389.25 188,-389.25 188,-370 231,-370 231,-389.25"/>
<text xml:space="preserve" text-anchor="middle" x="209.5" y="-375.75" font-family="Helvetica,sans-Serif" font-size="10.00">f_read</text>
</a>
</g>
</g>
<!-- Node4&#45;&gt;Node5 -->
<g id="edge4_Node000004_Node000005" class="edge">
<title>Node4&#45;&gt;Node5</title>
<g id="a_edge4_Node000004_Node000005"><a xlink:title=" ">
<path fill="none" stroke="#63b8ff" d="M274.28,-339.87C264.02,-346.7 251.87,-354.66 240.75,-361.62 236.5,-364.29 231.87,-367.09 227.54,-369.67"/>
<polygon fill="#63b8ff" stroke="#63b8ff" points="276.19,-342.81 282.55,-334.34 272.3,-336.99 276.19,-342.81"/>
</a>
</g>
</g>
<!-- Node6 -->
<g id="Node000006" class="node">
<title>Node6</title>
<g id="a_Node000006"><a xlink:href="liolib_8c.html#a45307aa59a628966c6ea270e9b476d9a" target="_top" xlink:title=" ">
<polygon fill="white" stroke="#666666" points="233.25,-352.25 185.75,-352.25 185.75,-333 233.25,-333 233.25,-352.25"/>
<text xml:space="preserve" text-anchor="middle" x="209.5" y="-338.75" font-family="Helvetica,sans-Serif" font-size="10.00">io_read</text>
</a>
</g>
</g>
<!-- Node4&#45;&gt;Node6 -->
<g id="edge5_Node000004_Node000006" class="edge">
<title>Node4&#45;&gt;Node6</title>
<g id="a_edge5_Node000004_Node000006"><a xlink:title=" ">
<path fill="none" stroke="#63b8ff" d="M265.58,-330.72C254.91,-333.02 243.3,-335.53 233.51,-337.65"/>
<polygon fill="#63b8ff" stroke="#63b8ff" points="266.14,-334.18 275.17,-328.64 264.66,-327.33 266.14,-334.18"/>
</a>
</g>
</g>
<!-- Node7 -->
<g id="Node000007" class="node">
<title>Node7</title>
<g id="a_Node000007"><a xlink:href="liolib_8c.html#ac37d80ee2cc364b4adafcb6f7c20f28b" target="_top" xlink:title=" ">
<polygon fill="white" stroke="#666666" points="240.75,-315.25 178.25,-315.25 178.25,-296 240.75,-296 240.75,-315.25"/>
<text xml:space="preserve" text-anchor="middle" x="209.5" y="-301.75" font-family="Helvetica,sans-Serif" font-size="10.00">io_readline</text>
</a>
</g>
</g>
<!-- Node4&#45;&gt;Node7 -->
<g id="edge6_Node000004_Node000007" class="edge">
<title>Node4&#45;&gt;Node7</title>
<g id="a_edge6_Node000004_Node000007"><a xlink:title=" ">
<path fill="none" stroke="#63b8ff" d="M265.4,-316.87C257.37,-315.23 248.83,-313.48 240.92,-311.86"/>
<polygon fill="#63b8ff" stroke="#63b8ff" points="264.67,-320.29 275.17,-318.87 266.08,-313.44 264.67,-320.29"/>
</a>
</g>
</g>
<!-- Node8 -->
<g id="Node000008" class="node">
<title>Node8</title>
<g id="a_Node000008"><a xlink:href="liolib_8c.html#a66325940a0248cee288153edb061c0c4" target="_top" xlink:title=" ">
<polygon fill="white" stroke="#666666" points="142.25,-315.25 85,-315.25 85,-296 142.25,-296 142.25,-315.25"/>
<text xml:space="preserve" text-anchor="middle" x="113.62" y="-301.75" font-family="Helvetica,sans-Serif" font-size="10.00">aux_lines</text>
</a>
</g>
</g>
<!-- Node7&#45;&gt;Node8 -->
<g id="edge7_Node000007_Node000008" class="edge">
<title>Node7&#45;&gt;Node8</title>
<g id="a_edge7_Node000007_Node000008"><a xlink:title=" ">
<path fill="none" stroke="#63b8ff" d="M166.25,-305.62C158.23,-305.62 150.02,-305.62 142.58,-305.62"/>
<polygon fill="#63b8ff" stroke="#63b8ff" points="166.25,-309.13 176.25,-305.63 166.25,-302.13 166.25,-309.13"/>
</a>
</g>
</g>
<!-- Node9 -->
<g id="Node000009" class="node">
<title>Node9</title>
<g id="a_Node000009"><a xlink:href="liolib_8c.html#a6a36f72d8b3966c1ebafab8a4791cb6c" target="_top" xlink:title=" ">
<polygon fill="white" stroke="#666666" points="46.75,-334.25 2.25,-334.25 2.25,-315 46.75,-315 46.75,-334.25"/>
<text xml:space="preserve" text-anchor="middle" x="24.5" y="-320.75" font-family="Helvetica,sans-Serif" font-size="10.00">f_lines</text>
</a>
</g>
</g>
<!-- Node8&#45;&gt;Node9 -->
<g id="edge8_Node000008_Node000009" class="edge">
<title>Node8&#45;&gt;Node9</title>
<g id="a_edge8_Node000008_Node000009"><a xlink:title=" ">
<path fill="none" stroke="#63b8ff" d="M73.4,-314.18C64.37,-316.15 55.09,-318.17 47.14,-319.91"/>
<polygon fill="#63b8ff" stroke="#63b8ff" points="74.08,-317.61 83.1,-312.06 72.58,-310.77 74.08,-317.61"/>
</a>
</g>
</g>
<!-- Node10 -->
<g id="Node000010" class="node">
<title>Node10</title>
<g id="a_Node000010"><a xlink:href="liolib_8c.html#ab08031b51605d4ef676ec33a3b96a286" target="_top" xlink:title=" ">
<polygon fill="white" stroke="#666666" points="49,-297.25 0,-297.25 0,-278 49,-278 49,-297.25"/>
<text xml:space="preserve" text-anchor="middle" x="24.5" y="-283.75" font-family="Helvetica,sans-Serif" font-size="10.00">io_lines</text>
</a>
</g>
</g>
<!-- Node8&#45;&gt;Node10 -->
<g id="edge9_Node000008_Node000010" class="edge">
<title>Node8&#45;&gt;Node10</title>
<g id="a_edge9_Node000008_Node000010"><a xlink:title=" ">
<path fill="none" stroke="#63b8ff" d="M73.3,-297.5C65.15,-295.82 56.79,-294.09 49.4,-292.56"/>
<polygon fill="#63b8ff" stroke="#63b8ff" points="72.59,-300.93 83.1,-299.52 74.01,-294.07 72.59,-300.93"/>
</a>
</g>
</g>
<!-- Node12 -->
<g id="Node000012" class="node">
<title>Node12</title>
<g id="a_Node000012"><a xlink:href="lstrlib_8c.html#afa2c944dafe82820f6f04dff68703634" target="_top" xlink:title=" ">
<polygon fill="white" stroke="#666666" points="316.75,-167.25 282,-167.25 282,-148 316.75,-148 316.75,-167.25"/>
<text xml:space="preserve" text-anchor="middle" x="299.38" y="-153.75" font-family="Helvetica,sans-Serif" font-size="10.00">arith</text>
</a>
</g>
</g>
<!-- Node11&#45;&gt;Node12 -->
<g id="edge11_Node000011_Node000012" class="edge">
<title>Node11&#45;&gt;Node12</title>
<g id="a_edge11_Node000011_Node000012"><a xlink:title=" ">
<path fill="none" stroke="#63b8ff" d="M366.74,-189.02C350.29,-181.24 330.71,-171.97 317.09,-165.53"/>
<polygon fill="#63b8ff" stroke="#63b8ff" points="365.1,-192.11 375.63,-193.22 368.09,-185.78 365.1,-192.11"/>
</a>
</g>
</g>
<!-- Node13 -->
<g id="Node000013" class="node">
<title>Node13</title>
<g id="a_Node000013"><a xlink:href="lstrlib_8c.html#a83cdf2094cab994d34c18858a990e555" target="_top" xlink:title=" ">
<polygon fill="white" stroke="#666666" points="237.38,-278.25 181.62,-278.25 181.62,-259 237.38,-259 237.38,-278.25"/>
<text xml:space="preserve" text-anchor="middle" x="209.5" y="-264.75" font-family="Helvetica,sans-Serif" font-size="10.00">arith_add</text>
</a>
</g>
</g>
<!-- Node12&#45;&gt;Node13 -->
<g id="edge12_Node000012_Node000013" class="edge">
<title>Node12&#45;&gt;Node13</title>
<g id="a_edge12_Node000012_Node000013"><a xlink:title=" ">
<path fill="none" stroke="#63b8ff" d="M289.36,-177.91C279.61,-198.17 262.49,-229.27 240.75,-250.62 237.7,-253.62 234.05,-256.33 230.37,-258.67"/>
<polygon fill="#63b8ff" stroke="#63b8ff" points="292.45,-179.57 293.49,-169.02 286.1,-176.62 292.45,-179.57"/>
</a>
</g>
</g>
<!-- Node14 -->
<g id="Node000014" class="node">
<title>Node14</title>
<g id="a_Node000014"><a xlink:href="lstrlib_8c.html#afd1d2f5e7f8c83185c68d20fc5dc8600" target="_top" xlink:title=" ">
<polygon fill="white" stroke="#666666" points="235.88,-241.25 183.12,-241.25 183.12,-222 235.88,-222 235.88,-241.25"/>
<text xml:space="preserve" text-anchor="middle" x="209.5" y="-227.75" font-family="Helvetica,sans-Serif" font-size="10.00">arith_div</text>
</a>
</g>
</g>
<!-- Node12&#45;&gt;Node14 -->
<g id="edge13_Node000012_Node000014" class="edge">
<title>Node12&#45;&gt;Node14</title>
<g id="a_edge13_Node000012_Node000014"><a xlink:title=" ">
<path fill="none" stroke="#63b8ff" d="M282.06,-175.53C271.01,-187.12 255.75,-202.13 240.75,-213.62 237.06,-216.45 232.9,-219.18 228.87,-221.63"/>
<polygon fill="#63b8ff" stroke="#63b8ff" points="284.3,-178.26 288.57,-168.56 279.19,-173.48 284.3,-178.26"/>
</a>
</g>
</g>
<!-- Node15 -->
<g id="Node000015" class="node">
<title>Node15</title>
<g id="a_Node000015"><a xlink:href="lstrlib_8c.html#a86a1afce81f747da4c0cf708065acd92" target="_top" xlink:title=" ">
<polygon fill="white" stroke="#666666" points="237,-204.25 182,-204.25 182,-185 237,-185 237,-204.25"/>
<text xml:space="preserve" text-anchor="middle" x="209.5" y="-190.75" font-family="Helvetica,sans-Serif" font-size="10.00">arith_idiv</text>
</a>
</g>
</g>
<!-- Node12&#45;&gt;Node15 -->
<g id="edge14_Node000012_Node000015" class="edge">
<title>Node12&#45;&gt;Node15</title>
<g id="a_edge14_Node000012_Node000015"><a xlink:title=" ">
<path fill="none" stroke="#63b8ff" d="M271.6,-168.9C259.69,-173.91 245.79,-179.77 234.25,-184.62"/>
<polygon fill="#63b8ff" stroke="#63b8ff" points="272.59,-172.28 280.45,-165.17 269.88,-165.83 272.59,-172.28"/>
</a>
</g>
</g>
<!-- Node16 -->
<g id="Node000016" class="node">
<title>Node16</title>
<g id="a_Node000016"><a xlink:href="lstrlib_8c.html#a2a1f4d692fc02d6586bc12a07924f488" target="_top" xlink:title=" ">
<polygon fill="white" stroke="#666666" points="238.88,-167.25 180.12,-167.25 180.12,-148 238.88,-148 238.88,-167.25"/>
<text xml:space="preserve" text-anchor="middle" x="209.5" y="-153.75" font-family="Helvetica,sans-Serif" font-size="10.00">arith_mod</text>
</a>
</g>
</g>
<!-- Node12&#45;&gt;Node16 -->
<g id="edge15_Node000012_Node000016" class="edge">
<title>Node12&#45;&gt;Node16</title>
<g id="a_edge15_Node000012_Node000016"><a xlink:title=" ">
<path fill="none" stroke="#63b8ff" d="M270.44,-157.62C260.42,-157.62 249.12,-157.62 239.06,-157.62"/>
<polygon fill="#63b8ff" stroke="#63b8ff" points="270.33,-161.13 280.33,-157.63 270.33,-154.13 270.33,-161.13"/>
</a>
</g>
</g>
<!-- Node17 -->
<g id="Node000017" class="node">
<title>Node17</title>
<g id="a_Node000017"><a xlink:href="lstrlib_8c.html#a9162078e35bac5d03f26e9473a0ebf37" target="_top" xlink:title=" ">
<polygon fill="white" stroke="#666666" points="237.38,-130.25 181.62,-130.25 181.62,-111 237.38,-111 237.38,-130.25"/>
<text xml:space="preserve" text-anchor="middle" x="209.5" y="-116.75" font-family="Helvetica,sans-Serif" font-size="10.00">arith_mul</text>
</a>
</g>
</g>
<!-- Node12&#45;&gt;Node17 -->
<g id="edge16_Node000012_Node000017" class="edge">
<title>Node12&#45;&gt;Node17</title>
<g id="a_edge16_Node000012_Node000017"><a xlink:title=" ">
<path fill="none" stroke="#63b8ff" d="M271.6,-146.35C259.69,-141.34 245.79,-135.48 234.25,-130.63"/>
<polygon fill="#63b8ff" stroke="#63b8ff" points="269.88,-149.42 280.45,-150.08 272.59,-142.97 269.88,-149.42"/>
</a>
</g>
</g>
<!-- Node18 -->
<g id="Node000018" class="node">
<title>Node18</title>
<g id="a_Node000018"><a xlink:href="lstrlib_8c.html#ad8c2b27458937cc9a19a949872938fc6" target="_top" xlink:title=" ">
<polygon fill="white" stroke="#666666" points="238.5,-93.25 180.5,-93.25 180.5,-74 238.5,-74 238.5,-93.25"/>
<text xml:space="preserve" text-anchor="middle" x="209.5" y="-79.75" font-family="Helvetica,sans-Serif" font-size="10.00">arith_pow</text>
</a>
</g>
</g>
<!-- Node12&#45;&gt;Node18 -->
<g id="edge17_Node000012_Node000018" class="edge">
<title>Node12&#45;&gt;Node18</title>
<g id="a_edge17_Node000012_Node000018"><a xlink:title=" ">
<path fill="none" stroke="#63b8ff" d="M282.06,-139.72C271.01,-128.13 255.75,-113.12 240.75,-101.62 237.06,-98.8 232.9,-96.07 228.87,-93.62"/>
<polygon fill="#63b8ff" stroke="#63b8ff" points="279.19,-141.77 288.57,-146.69 284.3,-136.99 279.19,-141.77"/>
</a>
</g>
</g>
<!-- Node19 -->
<g id="Node000019" class="node">
<title>Node19</title>
<g id="a_Node000019"><a xlink:href="lstrlib_8c.html#a2c0d2a7efd64b03bb81a22f2dd974fc3" target="_top" xlink:title=" ">
<polygon fill="white" stroke="#666666" points="237.38,-56.25 181.62,-56.25 181.62,-37 237.38,-37 237.38,-56.25"/>
<text xml:space="preserve" text-anchor="middle" x="209.5" y="-42.75" font-family="Helvetica,sans-Serif" font-size="10.00">arith_sub</text>
</a>
</g>
</g>
<!-- Node12&#45;&gt;Node19 -->
<g id="edge18_Node000012_Node000019" class="edge">
<title>Node12&#45;&gt;Node19</title>
<g id="a_edge18_Node000012_Node000019"><a xlink:title=" ">
<path fill="none" stroke="#63b8ff" d="M289.36,-137.34C279.61,-117.08 262.49,-85.98 240.75,-64.62 237.7,-61.63 234.05,-58.92 230.37,-56.58"/>
<polygon fill="#63b8ff" stroke="#63b8ff" points="286.1,-138.63 293.49,-146.23 292.45,-135.68 286.1,-138.63"/>
</a>
</g>
</g>
<!-- Node20 -->
<g id="Node000020" class="node">
<title>Node20</title>
<g id="a_Node000020"><a xlink:href="lstrlib_8c.html#ac78f63c6c1908d139ffadb3f28d14c21" target="_top" xlink:title=" ">
<polygon fill="white" stroke="#666666" points="238.88,-19.25 180.12,-19.25 180.12,0 238.88,0 238.88,-19.25"/>
<text xml:space="preserve" text-anchor="middle" x="209.5" y="-5.75" font-family="Helvetica,sans-Serif" font-size="10.00">arith_unm</text>
</a>
</g>
</g>
<!-- Node12&#45;&gt;Node20 -->
<g id="edge19_Node000012_Node000020" class="edge">
<title>Node12&#45;&gt;Node20</title>
<g id="a_edge19_Node000012_Node000020"><a xlink:title=" ">
<path fill="none" stroke="#63b8ff" d="M293.35,-136.61C285.85,-108.92 269.45,-59.98 240.75,-27.62 238.07,-24.61 234.77,-21.95 231.33,-19.67"/>
<polygon fill="#63b8ff" stroke="#63b8ff" points="289.94,-137.4 295.81,-146.23 296.73,-135.67 289.94,-137.4"/>
</a>
</g>
</g>
</g>
</svg>

<g id="navigator" transform="translate(0 0)" fill="#404254">
  <rect fill="#f2f5e9" fill-opacity="0.5" stroke="#606060" stroke-width=".5" x="0" y="0" width="60" height="60"/>
  <use id="zoomplus" xlink:href="#zoomPlus" x="17" y="9" onmousedown="handleZoom(evt,'in')"/>
  <use id="zoomminus" xlink:href="#zoomMin" x="42" y="9" onmousedown="handleZoom(evt,'out')"/>
  <use id="reset" xlink:href="#resetDef" x="30" y="36" onmousedown="handleReset()"/>
   <use id="arrowup" xlink:href="#arrowUp" x="0" y="0" onmousedown="handlePan(0,-1)"/>
  <use id="arrowright" xlink:href="#arrowRight" x="0" y="0" onmousedown="handlePan(1,0)"/>
  <use id="arrowdown" xlink:href="#arrowDown" x="0" y="0" onmousedown="handlePan(0,1)"/>
  <use id="arrowleft" xlink:href="#arrowLeft" x="0" y="0" onmousedown="handlePan(-1,0)"/>
</g>
<svg viewBox="0 0 15 15" width="100%" height="30px" preserveAspectRatio="xMaxYMin meet">
 <g id="arrow_out" transform="scale(0.3 0.3)">
  <a xlink:href="lapi_8c_ab9c2fb9e2b2c7dad7474dd4b6f1bbcd0_icgraph_org.svg" target="_base">
   <rect id="button" ry="5" rx="5" y="6" x="6" height="38" width="38"
        fill="#f2f5e9" fill-opacity="0.5" stroke="#606060" stroke-width="1.0"/>
   <path id="arrow"
     d="M 11.500037,31.436501 C 11.940474,20.09759 22.043105,11.32322 32.158766,21.979434 L 37.068811,17.246167 C 37.068811,17.246167 37.088388,32 37.088388,32 L 22.160133,31.978069 C 22.160133,31.978069 26.997745,27.140456 26.997745,27.140456 C 18.528582,18.264221 13.291696,25.230495 11.500037,31.436501 z"
     style="fill:#404040;"/>
  </a>
 </g>
</svg>

<style type='text/css'>
<![CDATA[
[data-mouse-over-selected='false'] { opacity: 0.7; }
[data-mouse-over-selected='true']  { opacity: 1.0; }
]]>
</style>
<script type="application/ecmascript"><![CDATA[
document.addEventListener('DOMContentLoaded', (event) => {
  highlightEdges();
  highlightAdjacentNodes();
});
]]></script>
</svg>
