<?xml version="1.0" encoding="UTF-8" standalone="no"?>
<!DOCTYPE svg PUBLIC "-//W3C//DTD SVG 1.1//EN"
 "http://www.w3.org/Graphics/SVG/1.1/DTD/svg11.dtd">
<!-- Generated by graphviz version 13.1.0 (20250701.0955)
 -->
<!-- Title: aux_rawset Pages: 1 -->
<svg width="285pt" height="82pt"
 viewBox="0.00 0.00 285.00 82.00" xmlns="http://www.w3.org/2000/svg" xmlns:xlink="http://www.w3.org/1999/xlink">

<svg id="main" version="1.1" xmlns="http://www.w3.org/2000/svg" xmlns:xlink="http://www.w3.org/1999/xlink" xml:space="preserve">

<style type="text/css"><![CDATA[
.node, .edge {opacity: 0.7;}
.node.selected, .edge.selected {opacity: 1;}
.edge:hover path { stroke: red; }
.edge:hover polygon { stroke: red; fill: red; }
]]></style>
<script type="application/ecmascript" xlink:href="svg.min.js"/>
<svg id="graph" class="graph">
<g id="graph0" class="graph" transform="scale(1 1) rotate(0) translate(4 78.25)">
<title>aux_rawset</title>
<!-- Node1 -->
<g id="Node000001" class="node">
<title>Node1</title>
<g id="a_Node000001"><a xlink:title=" ">
<polygon fill="#999999" stroke="#666666" points="276.75,-37.25 210.5,-37.25 210.5,-18 276.75,-18 276.75,-37.25"/>
<text xml:space="preserve" text-anchor="middle" x="243.62" y="-23.75" font-family="Helvetica,sans-Serif" font-size="10.00">aux_rawset</text>
</a>
</g>
</g>
<!-- Node2 -->
<g id="Node000002" class="node">
<title>Node2</title>
<g id="a_Node000002"><a xlink:href="lapi_8c.html#afb2d27f421677ef40425f9054ae216a7" target="_top" xlink:title=" ">
<polygon fill="white" stroke="#666666" points="171.88,-56.25 108.62,-56.25 108.62,-37 171.88,-37 171.88,-56.25"/>
<text xml:space="preserve" text-anchor="middle" x="140.25" y="-42.75" font-family="Helvetica,sans-Serif" font-size="10.00">lua_rawset</text>
</a>
</g>
</g>
<!-- Node1&#45;&gt;Node2 -->
<g id="edge1_Node000001_Node000002" class="edge">
<title>Node1&#45;&gt;Node2</title>
<g id="a_edge1_Node000001_Node000002"><a xlink:title=" ">
<path fill="none" stroke="#63b8ff" d="M199.09,-35.78C190.06,-37.48 180.73,-39.23 172.26,-40.81"/>
<polygon fill="#63b8ff" stroke="#63b8ff" points="199.6,-39.25 208.78,-33.97 198.31,-32.37 199.6,-39.25"/>
</a>
</g>
</g>
<!-- Node5 -->
<g id="Node000005" class="node">
<title>Node5</title>
<g id="a_Node000005"><a xlink:href="lapi_8c.html#aef5ff7d32a6e275fa0b8305f013bee9d" target="_top" xlink:title=" ">
<polygon fill="white" stroke="#666666" points="174.5,-19.25 106,-19.25 106,0 174.5,0 174.5,-19.25"/>
<text xml:space="preserve" text-anchor="middle" x="140.25" y="-5.75" font-family="Helvetica,sans-Serif" font-size="10.00">lua_rawsetp</text>
</a>
</g>
</g>
<!-- Node1&#45;&gt;Node5 -->
<g id="edge4_Node000001_Node000005" class="edge">
<title>Node1&#45;&gt;Node5</title>
<g id="a_edge4_Node000001_Node000005"><a xlink:title=" ">
<path fill="none" stroke="#63b8ff" d="M199.01,-19.88C190.86,-18.43 182.47,-16.94 174.69,-15.56"/>
<polygon fill="#63b8ff" stroke="#63b8ff" points="198.32,-23.31 208.78,-21.62 199.55,-16.42 198.32,-23.31"/>
</a>
</g>
</g>
<!-- Node3 -->
<g id="Node000003" class="node">
<title>Node3</title>
<g id="a_Node000003"><a xlink:href="ldblib_8c.html#aa0c362d361f8f9bd8a002c34c393e2b0" target="_top" xlink:title=" ">
<polygon fill="white" stroke="#666666" points="68.12,-74.25 1.88,-74.25 1.88,-55 68.12,-55 68.12,-74.25"/>
<text xml:space="preserve" text-anchor="middle" x="35" y="-60.75" font-family="Helvetica,sans-Serif" font-size="10.00">db_sethook</text>
</a>
</g>
</g>
<!-- Node2&#45;&gt;Node3 -->
<g id="edge2_Node000002_Node000003" class="edge">
<title>Node2&#45;&gt;Node3</title>
<g id="a_edge2_Node000002_Node000003"><a xlink:title=" ">
<path fill="none" stroke="#63b8ff" d="M96.95,-54C87.42,-55.66 77.44,-57.4 68.39,-58.98"/>
<polygon fill="#63b8ff" stroke="#63b8ff" points="97.53,-57.45 106.78,-52.29 96.33,-50.56 97.53,-57.45"/>
</a>
</g>
</g>
<!-- Node4 -->
<g id="Node000004" class="node">
<title>Node4</title>
<g id="a_Node000004"><a xlink:href="lbaselib_8c.html#a7b7225051c25127792f30eadd3498cc3" target="_top" xlink:title=" ">
<polygon fill="white" stroke="#666666" points="70,-37.25 0,-37.25 0,-18 70,-18 70,-37.25"/>
<text xml:space="preserve" text-anchor="middle" x="35" y="-23.75" font-family="Helvetica,sans-Serif" font-size="10.00">luaB_rawset</text>
</a>
</g>
</g>
<!-- Node2&#45;&gt;Node4 -->
<g id="edge3_Node000002_Node000004" class="edge">
<title>Node2&#45;&gt;Node4</title>
<g id="a_edge3_Node000002_Node000004"><a xlink:title=" ">
<path fill="none" stroke="#63b8ff" d="M97.2,-38.89C88.22,-37.23 78.84,-35.51 70.2,-33.92"/>
<polygon fill="#63b8ff" stroke="#63b8ff" points="96.31,-42.28 106.78,-40.65 97.58,-35.4 96.31,-42.28"/>
</a>
</g>
</g>
</g>
</svg>
</svg>

<style type='text/css'>
<![CDATA[
[data-mouse-over-selected='false'] { opacity: 0.7; }
[data-mouse-over-selected='true']  { opacity: 1.0; }
]]>
</style>
<script type="application/ecmascript"><![CDATA[
document.addEventListener('DOMContentLoaded', (event) => {
  highlightEdges();
  highlightAdjacentNodes();
});
]]></script>
</svg>
