<?xml version="1.0" encoding="UTF-8" standalone="no"?>
<!DOCTYPE svg PUBLIC "-//W3C//DTD SVG 1.1//EN"
 "http://www.w3.org/Graphics/SVG/1.1/DTD/svg11.dtd">
<!-- Generated by graphviz version 13.1.0 (20250701.0955)
 -->
<!-- Title: luaL_fileresult Pages: 1 -->
<!--zoomable 477 -->

<svg id="main" version="1.1" xmlns="http://www.w3.org/2000/svg" xmlns:xlink="http://www.w3.org/1999/xlink" xml:space="preserve" onload="init(evt)">

<style type="text/css"><![CDATA[
.node, .edge {opacity: 0.7;}
.node.selected, .edge.selected {opacity: 1;}
.edge:hover path { stroke: red; }
.edge:hover polygon { stroke: red; fill: red; }
]]></style>

<defs>
  <circle id="rim" cx="0" cy="0" r="7"/>
  <circle id="rim2" cx="0" cy="0" r="3.5"/>
  <g id="zoomPlus">
    <use xlink:href="#rim" fill="#404040"><set attributeName="fill" to="#808080" begin="zoomplus.mouseover" end="zoomplus.mouseout"/></use>
    <path d="M-4,0h8M0,-4v8" fill="none" stroke="white" stroke-width="1.5" pointer-events="none"/>
  </g>
  <g id="zoomMin">
    <use xlink:href="#rim" fill="#404040"><set attributeName="fill" to="#808080" begin="zoomminus.mouseover" end="zoomminus.mouseout"/></use>
    <path d="M-4,0h8" fill="none" stroke="white" stroke-width="1.5" pointer-events="none"/>
  </g>
  <g id="arrowUp" transform="translate(30 24)">
    <use xlink:href="#rim"/>
    <path pointer-events="none" fill="none" stroke="white" stroke-width="1.5" d="M0,-3.0v7 M-2.5,-0.5L0,-3.0L2.5,-0.5"/>
  </g>
  <g id="arrowRight" transform="rotate(90) translate(36 -43)">
    <use xlink:href="#rim"/>
    <path pointer-events="none" fill="none" stroke="white" stroke-width="1.5" d="M0,-3.0v7 M-2.5,-0.5L0,-3.0L2.5,-0.5"/>
  </g>
  <g id="arrowDown" transform="rotate(180) translate(-30 -48)">
    <use xlink:href="#rim"/>
    <path pointer-events="none" fill="none" stroke="white" stroke-width="1.5" d="M0,-3.0v7 M-2.5,-0.5L0,-3.0L2.5,-0.5"/>
  </g>
  <g id="arrowLeft" transform="rotate(270) translate(-36 17)">
    <use xlink:href="#rim"/>
    <path pointer-events="none" fill="none" stroke="white" stroke-width="1.5" d="M0,-3.0v7 M-2.5,-0.5L0,-3.0L2.5,-0.5"/>
  </g>
  <g id="resetDef">
    <use xlink:href="#rim2" fill="#404040"><set attributeName="fill" to="#808080" begin="reset.mouseover" end="reset.mouseout"/></use>
  </g>
</defs>
<script type="application/ecmascript">
var viewWidth = 583;
var viewHeight = 477;
var sectionId = 'dynsection-26';
</script>
<script type="application/ecmascript" xlink:href="svg.min.js"/>
<svg id="graph" class="graph">
<g id="viewport">
<title>luaL_fileresult</title>
<!-- Node1 -->
<g id="Node000001" class="node">
<title>Node1</title>
<g id="a_Node000001"><a xlink:title=" ">
<polygon fill="#999999" stroke="#666666" points="574.5,-245.25 498.5,-245.25 498.5,-226 574.5,-226 574.5,-245.25"/>
<text xml:space="preserve" text-anchor="middle" x="536.5" y="-231.75" font-family="Helvetica,sans-Serif" font-size="10.00">luaL_fileresult</text>
</a>
</g>
</g>
<!-- Node2 -->
<g id="Node000002" class="node">
<title>Node2</title>
<g id="a_Node000002"><a xlink:href="liolib_8c.html#ad45f522bd561c05889799a66d9ffdb33" target="_top" xlink:title=" ">
<polygon fill="white" stroke="#666666" points="443,-469.25 397.75,-469.25 397.75,-450 443,-450 443,-469.25"/>
<text xml:space="preserve" text-anchor="middle" x="420.38" y="-455.75" font-family="Helvetica,sans-Serif" font-size="10.00">f_flush</text>
</a>
</g>
</g>
<!-- Node1&#45;&gt;Node2 -->
<g id="edge1_Node000001_Node000002" class="edge">
<title>Node1&#45;&gt;Node2</title>
<g id="a_edge1_Node000001_Node000002"><a xlink:title=" ">
<path fill="none" stroke="#63b8ff" d="M533.52,-256.84C528.63,-297.67 512.52,-387.87 462.5,-441.62 457.3,-447.22 450.05,-451.17 443.09,-453.91"/>
<polygon fill="#63b8ff" stroke="#63b8ff" points="536.97,-257.46 534.56,-247.14 530.01,-256.71 536.97,-257.46"/>
</a>
</g>
</g>
<!-- Node3 -->
<g id="Node000003" class="node">
<title>Node3</title>
<g id="a_Node000003"><a xlink:href="liolib_8c.html#ace5e1a23cc9e2ffe7ae6cc523e54de73" target="_top" xlink:title=" ">
<polygon fill="white" stroke="#666666" points="443,-432.25 397.75,-432.25 397.75,-413 443,-413 443,-432.25"/>
<text xml:space="preserve" text-anchor="middle" x="420.38" y="-418.75" font-family="Helvetica,sans-Serif" font-size="10.00">f_seek</text>
</a>
</g>
</g>
<!-- Node1&#45;&gt;Node3 -->
<g id="edge2_Node000001_Node000003" class="edge">
<title>Node1&#45;&gt;Node3</title>
<g id="a_edge2_Node000001_Node000003"><a xlink:title=" ">
<path fill="none" stroke="#63b8ff" d="M531.64,-256.59C524.18,-291.59 504.67,-362.26 462.5,-404.62 457.22,-409.93 450.12,-413.79 443.3,-416.54"/>
<polygon fill="#63b8ff" stroke="#63b8ff" points="535.05,-257.4 533.57,-246.91 528.18,-256.03 535.05,-257.4"/>
</a>
</g>
</g>
<!-- Node4 -->
<g id="Node000004" class="node">
<title>Node4</title>
<g id="a_Node000004"><a xlink:href="liolib_8c.html#aa7d559e7d43a6133ec495d6b4e5d68f2" target="_top" xlink:title=" ">
<polygon fill="white" stroke="#666666" points="448.62,-395.25 392.12,-395.25 392.12,-376 448.62,-376 448.62,-395.25"/>
<text xml:space="preserve" text-anchor="middle" x="420.38" y="-381.75" font-family="Helvetica,sans-Serif" font-size="10.00">f_setvbuf</text>
</a>
</g>
</g>
<!-- Node1&#45;&gt;Node4 -->
<g id="edge3_Node000001_Node000004" class="edge">
<title>Node1&#45;&gt;Node4</title>
<g id="a_edge3_Node000001_Node000004"><a xlink:title=" ">
<path fill="none" stroke="#63b8ff" d="M528.83,-256.36C518.69,-284.89 496.88,-336.29 462.5,-367.62 458.58,-371.2 453.85,-374.14 449,-376.54"/>
<polygon fill="#63b8ff" stroke="#63b8ff" points="532.08,-257.68 531.97,-247.08 525.45,-255.43 532.08,-257.68"/>
</a>
</g>
</g>
<!-- Node5 -->
<g id="Node000005" class="node">
<title>Node5</title>
<g id="a_Node000005"><a xlink:href="liolib_8c.html#addece2406777a40f0f591e3518293932" target="_top" xlink:title=" ">
<polygon fill="white" stroke="#666666" points="443,-358.25 397.75,-358.25 397.75,-339 443,-339 443,-358.25"/>
<text xml:space="preserve" text-anchor="middle" x="420.38" y="-344.75" font-family="Helvetica,sans-Serif" font-size="10.00">g_read</text>
</a>
</g>
</g>
<!-- Node1&#45;&gt;Node5 -->
<g id="edge4_Node000001_Node000005" class="edge">
<title>Node1&#45;&gt;Node5</title>
<g id="a_edge4_Node000001_Node000005"><a xlink:title=" ">
<path fill="none" stroke="#63b8ff" d="M524.48,-255.33C511.86,-276.38 489.42,-309.56 462.5,-330.62 456.85,-335.04 449.95,-338.61 443.43,-341.37"/>
<polygon fill="#63b8ff" stroke="#63b8ff" points="527.4,-257.27 529.4,-246.87 521.35,-253.76 527.4,-257.27"/>
</a>
</g>
</g>
<!-- Node12 -->
<g id="Node000012" class="node">
<title>Node12</title>
<g id="a_Node000012"><a xlink:href="liolib_8c.html#a88c73a30c7d135dfb4958b7bfaa90cc7" target="_top" xlink:title=" ">
<polygon fill="white" stroke="#666666" points="444.12,-321.25 396.62,-321.25 396.62,-302 444.12,-302 444.12,-321.25"/>
<text xml:space="preserve" text-anchor="middle" x="420.38" y="-307.75" font-family="Helvetica,sans-Serif" font-size="10.00">g_write</text>
</a>
</g>
</g>
<!-- Node1&#45;&gt;Node12 -->
<g id="edge11_Node000001_Node000012" class="edge">
<title>Node1&#45;&gt;Node12</title>
<g id="a_edge11_Node000001_Node000012"><a xlink:title=" ">
<path fill="none" stroke="#63b8ff" d="M513.26,-252.27C498.98,-262.75 479.92,-276.37 462.5,-287.62 455,-292.47 446.51,-297.5 439.2,-301.69"/>
<polygon fill="#63b8ff" stroke="#63b8ff" points="515.12,-255.24 521.08,-246.48 510.96,-249.61 515.12,-255.24"/>
</a>
</g>
</g>
<!-- Node15 -->
<g id="Node000015" class="node">
<title>Node15</title>
<g id="a_Node000015"><a xlink:href="liolib_8c.html#a693d26c59aa9f6a298ac288cb1a5c38d" target="_top" xlink:title=" ">
<polygon fill="white" stroke="#666666" points="447.88,-245.25 392.88,-245.25 392.88,-226 447.88,-226 447.88,-245.25"/>
<text xml:space="preserve" text-anchor="middle" x="420.38" y="-231.75" font-family="Helvetica,sans-Serif" font-size="10.00">io_fclose</text>
</a>
</g>
</g>
<!-- Node1&#45;&gt;Node15 -->
<g id="edge14_Node000001_Node000015" class="edge">
<title>Node1&#45;&gt;Node15</title>
<g id="a_edge14_Node000001_Node000015"><a xlink:title=" ">
<path fill="none" stroke="#63b8ff" d="M486.78,-235.62C473.61,-235.62 459.83,-235.62 448.34,-235.62"/>
<polygon fill="#63b8ff" stroke="#63b8ff" points="486.62,-239.13 496.62,-235.63 486.62,-232.13 486.62,-239.13"/>
</a>
</g>
</g>
<!-- Node17 -->
<g id="Node000017" class="node">
<title>Node17</title>
<g id="a_Node000017"><a xlink:href="liolib_8c.html#ab4a969d43dbe0f89e98307e5b421f8a7" target="_top" xlink:title=" ">
<polygon fill="white" stroke="#666666" points="233.25,-282.25 183.5,-282.25 183.5,-263 233.25,-263 233.25,-282.25"/>
<text xml:space="preserve" text-anchor="middle" x="208.38" y="-268.75" font-family="Helvetica,sans-Serif" font-size="10.00">io_open</text>
</a>
</g>
</g>
<!-- Node1&#45;&gt;Node17 -->
<g id="edge24_Node000001_Node000017" class="edge">
<title>Node1&#45;&gt;Node17</title>
<g id="a_edge24_Node000001_Node000017"><a xlink:title=" ">
<path fill="none" stroke="#63b8ff" d="M490.92,-248.61C481.6,-250.94 471.78,-253.1 462.5,-254.62 379.25,-268.3 278.91,-271.59 233.63,-272.38"/>
<polygon fill="#63b8ff" stroke="#63b8ff" points="491.72,-252.02 500.51,-246.11 489.95,-245.25 491.72,-252.02"/>
</a>
</g>
</g>
<!-- Node18 -->
<g id="Node000018" class="node">
<title>Node18</title>
<g id="a_Node000018"><a xlink:href="liolib_8c.html#a0347de9dda8be02044075c96482eddb3" target="_top" xlink:title=" ">
<polygon fill="white" stroke="#666666" points="237.38,-207.25 179.38,-207.25 179.38,-188 237.38,-188 237.38,-207.25"/>
<text xml:space="preserve" text-anchor="middle" x="208.38" y="-193.75" font-family="Helvetica,sans-Serif" font-size="10.00">io_tmpfile</text>
</a>
</g>
</g>
<!-- Node1&#45;&gt;Node18 -->
<g id="edge26_Node000001_Node000018" class="edge">
<title>Node1&#45;&gt;Node18</title>
<g id="a_edge26_Node000001_Node000018"><a xlink:title=" ">
<path fill="none" stroke="#63b8ff" d="M490.91,-222.67C481.59,-220.34 471.78,-218.17 462.5,-216.62 381.64,-203.18 284.66,-199.24 237.67,-198.09"/>
<polygon fill="#63b8ff" stroke="#63b8ff" points="489.95,-226.03 500.51,-225.17 491.71,-219.26 489.95,-226.03"/>
</a>
</g>
</g>
<!-- Node23 -->
<g id="Node000023" class="node">
<title>Node23</title>
<g id="a_Node000023"><a xlink:href="liolib_8c.html#a2f93672e01db50e1e5361f5f01c71bd6" target="_top" xlink:title=" ">
<polygon fill="white" stroke="#666666" points="445.25,-169.25 395.5,-169.25 395.5,-150 445.25,-150 445.25,-169.25"/>
<text xml:space="preserve" text-anchor="middle" x="420.38" y="-155.75" font-family="Helvetica,sans-Serif" font-size="10.00">io_flush</text>
</a>
</g>
</g>
<!-- Node1&#45;&gt;Node23 -->
<g id="edge23_Node000001_Node000023" class="edge">
<title>Node1&#45;&gt;Node23</title>
<g id="a_edge23_Node000001_Node000023"><a xlink:title=" ">
<path fill="none" stroke="#63b8ff" d="M513.26,-218.98C498.98,-208.5 479.92,-194.88 462.5,-183.62 455,-178.78 446.51,-173.75 439.2,-169.56"/>
<polygon fill="#63b8ff" stroke="#63b8ff" points="510.96,-221.64 521.08,-224.77 515.12,-216.01 510.96,-221.64"/>
</a>
</g>
</g>
<!-- Node24 -->
<g id="Node000024" class="node">
<title>Node24</title>
<g id="a_Node000024"><a xlink:href="liolib_8c.html#a8cc0b2b08409fb97e5cc80a0caf9b5fd" target="_top" xlink:title=" ">
<polygon fill="white" stroke="#666666" points="235.88,-112.25 180.88,-112.25 180.88,-93 235.88,-93 235.88,-112.25"/>
<text xml:space="preserve" text-anchor="middle" x="208.38" y="-98.75" font-family="Helvetica,sans-Serif" font-size="10.00">io_popen</text>
</a>
</g>
</g>
<!-- Node1&#45;&gt;Node24 -->
<g id="edge25_Node000001_Node000024" class="edge">
<title>Node1&#45;&gt;Node24</title>
<g id="a_edge25_Node000001_Node000024"><a xlink:title=" ">
<path fill="none" stroke="#63b8ff" d="M525.98,-215.48C514.33,-193.23 492.4,-158.24 462.5,-140.62 424.5,-118.24 293.24,-107.72 236.2,-104.13"/>
<polygon fill="#63b8ff" stroke="#63b8ff" points="522.72,-216.78 530.32,-224.17 528.98,-213.66 522.72,-216.78"/>
</a>
</g>
</g>
<!-- Node25 -->
<g id="Node000025" class="node">
<title>Node25</title>
<g id="a_Node000025"><a xlink:href="lauxlib_8c.html#a3db3f3a0c7de522b5e494c3ad06186d8" target="_top" xlink:title=" ">
<polygon fill="white" stroke="#666666" points="462.5,-93.25 378.25,-93.25 378.25,-74 462.5,-74 462.5,-93.25"/>
<text xml:space="preserve" text-anchor="middle" x="420.38" y="-79.75" font-family="Helvetica,sans-Serif" font-size="10.00">luaL_execresult</text>
</a>
</g>
</g>
<!-- Node1&#45;&gt;Node25 -->
<g id="edge27_Node000001_Node000025" class="edge">
<title>Node1&#45;&gt;Node25</title>
<g id="a_edge27_Node000001_Node000025"><a xlink:title=" ">
<path fill="none" stroke="#63b8ff" d="M527.84,-215.29C516.79,-188.1 494.17,-139.61 462.5,-107.62 457.03,-102.1 450.04,-97.4 443.37,-93.66"/>
<polygon fill="#63b8ff" stroke="#63b8ff" points="524.52,-216.4 531.43,-224.43 531.03,-213.85 524.52,-216.4"/>
</a>
</g>
</g>
<!-- Node28 -->
<g id="Node000028" class="node">
<title>Node28</title>
<g id="a_Node000028"><a xlink:href="loslib_8c.html#aff1386a6722ad488ced309e2fcdebe13" target="_top" xlink:title=" ">
<polygon fill="white" stroke="#666666" points="452.38,-56.25 388.38,-56.25 388.38,-37 452.38,-37 452.38,-56.25"/>
<text xml:space="preserve" text-anchor="middle" x="420.38" y="-42.75" font-family="Helvetica,sans-Serif" font-size="10.00">os_remove</text>
</a>
</g>
</g>
<!-- Node1&#45;&gt;Node28 -->
<g id="edge31_Node000001_Node000028" class="edge">
<title>Node1&#45;&gt;Node28</title>
<g id="a_edge31_Node000001_Node000028"><a xlink:title=" ">
<path fill="none" stroke="#63b8ff" d="M531.71,-214.42C524.36,-179 505,-107.51 462.5,-64.62 459.43,-61.52 455.73,-58.92 451.83,-56.74"/>
<polygon fill="#63b8ff" stroke="#63b8ff" points="528.27,-215.07 533.61,-224.22 535.15,-213.74 528.27,-215.07"/>
</a>
</g>
</g>
<!-- Node29 -->
<g id="Node000029" class="node">
<title>Node29</title>
<g id="a_Node000029"><a xlink:href="loslib_8c.html#a9e0e5e5a06a8a1aa797e15034070b405" target="_top" xlink:title=" ">
<polygon fill="white" stroke="#666666" points="452.38,-19.25 388.38,-19.25 388.38,0 452.38,0 452.38,-19.25"/>
<text xml:space="preserve" text-anchor="middle" x="420.38" y="-5.75" font-family="Helvetica,sans-Serif" font-size="10.00">os_rename</text>
</a>
</g>
</g>
<!-- Node1&#45;&gt;Node29 -->
<g id="edge32_Node000001_Node000029" class="edge">
<title>Node1&#45;&gt;Node29</title>
<g id="a_edge32_Node000001_Node000029"><a xlink:title=" ">
<path fill="none" stroke="#63b8ff" d="M533.58,-214.21C528.8,-172.99 512.87,-81.92 462.5,-27.62 459.53,-24.43 455.89,-21.76 452.02,-19.56"/>
<polygon fill="#63b8ff" stroke="#63b8ff" points="530.08,-214.42 534.59,-224.01 537.04,-213.7 530.08,-214.42"/>
</a>
</g>
</g>
<!-- Node6 -->
<g id="Node000006" class="node">
<title>Node6</title>
<g id="a_Node000006"><a xlink:href="liolib_8c.html#add5250a74576076467531e4eb8f5f68e" target="_top" xlink:title=" ">
<polygon fill="white" stroke="#666666" points="330.62,-469.25 287.62,-469.25 287.62,-450 330.62,-450 330.62,-469.25"/>
<text xml:space="preserve" text-anchor="middle" x="309.12" y="-455.75" font-family="Helvetica,sans-Serif" font-size="10.00">f_read</text>
</a>
</g>
</g>
<!-- Node5&#45;&gt;Node6 -->
<g id="edge5_Node000005_Node000006" class="edge">
<title>Node5&#45;&gt;Node6</title>
<g id="a_edge5_Node000005_Node000006"><a xlink:title=" ">
<path fill="none" stroke="#63b8ff" d="M387.37,-359.82C384.07,-361.77 380.94,-364.03 378.25,-366.62 351.65,-392.31 367.56,-414.67 342.25,-441.62 339.01,-445.07 334.96,-448.03 330.84,-450.5"/>
<polygon fill="#63b8ff" stroke="#63b8ff" points="388.76,-363.04 396.21,-355.5 385.69,-356.75 388.76,-363.04"/>
</a>
</g>
</g>
<!-- Node7 -->
<g id="Node000007" class="node">
<title>Node7</title>
<g id="a_Node000007"><a xlink:href="liolib_8c.html#a45307aa59a628966c6ea270e9b476d9a" target="_top" xlink:title=" ">
<polygon fill="white" stroke="#666666" points="332.88,-432.25 285.38,-432.25 285.38,-413 332.88,-413 332.88,-432.25"/>
<text xml:space="preserve" text-anchor="middle" x="309.12" y="-418.75" font-family="Helvetica,sans-Serif" font-size="10.00">io_read</text>
</a>
</g>
</g>
<!-- Node5&#45;&gt;Node7 -->
<g id="edge6_Node000005_Node000007" class="edge">
<title>Node5&#45;&gt;Node7</title>
<g id="a_edge6_Node000005_Node000007"><a xlink:title=" ">
<path fill="none" stroke="#63b8ff" d="M387.37,-361.09C384.19,-362.78 381.09,-364.63 378.25,-366.62 359.21,-380 360.61,-390.33 342.25,-404.62 338.52,-407.53 334.26,-410.26 330.09,-412.67"/>
<polygon fill="#63b8ff" stroke="#63b8ff" points="388.69,-364.34 396.22,-356.89 385.69,-358.02 388.69,-364.34"/>
</a>
</g>
</g>
<!-- Node8 -->
<g id="Node000008" class="node">
<title>Node8</title>
<g id="a_Node000008"><a xlink:href="liolib_8c.html#ac37d80ee2cc364b4adafcb6f7c20f28b" target="_top" xlink:title=" ">
<polygon fill="white" stroke="#666666" points="340.38,-395.25 277.88,-395.25 277.88,-376 340.38,-376 340.38,-395.25"/>
<text xml:space="preserve" text-anchor="middle" x="309.12" y="-381.75" font-family="Helvetica,sans-Serif" font-size="10.00">io_readline</text>
</a>
</g>
</g>
<!-- Node5&#45;&gt;Node8 -->
<g id="edge7_Node000005_Node000008" class="edge">
<title>Node5&#45;&gt;Node8</title>
<g id="a_edge7_Node000005_Node000008"><a xlink:title=" ">
<path fill="none" stroke="#63b8ff" d="M386.47,-359.77C371.58,-364.81 354.12,-370.72 339.66,-375.62"/>
<polygon fill="#63b8ff" stroke="#63b8ff" points="387.48,-363.12 395.83,-356.6 385.24,-356.49 387.48,-363.12"/>
</a>
</g>
</g>
<!-- Node9 -->
<g id="Node000009" class="node">
<title>Node9</title>
<g id="a_Node000009"><a xlink:href="liolib_8c.html#a66325940a0248cee288153edb061c0c4" target="_top" xlink:title=" ">
<polygon fill="white" stroke="#666666" points="237,-319.25 179.75,-319.25 179.75,-300 237,-300 237,-319.25"/>
<text xml:space="preserve" text-anchor="middle" x="208.38" y="-305.75" font-family="Helvetica,sans-Serif" font-size="10.00">aux_lines</text>
</a>
</g>
</g>
<!-- Node8&#45;&gt;Node9 -->
<g id="edge8_Node000008_Node000009" class="edge">
<title>Node8&#45;&gt;Node9</title>
<g id="a_edge8_Node000008_Node000009"><a xlink:title=" ">
<path fill="none" stroke="#63b8ff" d="M279.06,-369.71C278.02,-369.02 276.99,-368.32 276,-367.62 254.43,-352.44 231.77,-331.48 219.22,-319.36"/>
<polygon fill="#63b8ff" stroke="#63b8ff" points="277.05,-372.58 287.41,-374.8 280.7,-366.61 277.05,-372.58"/>
</a>
</g>
</g>
<!-- Node10 -->
<g id="Node000010" class="node">
<title>Node10</title>
<g id="a_Node000010"><a xlink:href="liolib_8c.html#a6a36f72d8b3966c1ebafab8a4791cb6c" target="_top" xlink:title=" ">
<polygon fill="white" stroke="#666666" points="138.5,-319.25 94,-319.25 94,-300 138.5,-300 138.5,-319.25"/>
<text xml:space="preserve" text-anchor="middle" x="116.25" y="-305.75" font-family="Helvetica,sans-Serif" font-size="10.00">f_lines</text>
</a>
</g>
</g>
<!-- Node9&#45;&gt;Node10 -->
<g id="edge9_Node000009_Node000010" class="edge">
<title>Node9&#45;&gt;Node10</title>
<g id="a_edge9_Node000009_Node000010"><a xlink:title=" ">
<path fill="none" stroke="#63b8ff" d="M167.96,-309.62C158,-309.62 147.67,-309.62 138.96,-309.62"/>
<polygon fill="#63b8ff" stroke="#63b8ff" points="167.84,-313.13 177.84,-309.63 167.84,-306.13 167.84,-313.13"/>
</a>
</g>
</g>
<!-- Node11 -->
<g id="Node000011" class="node">
<title>Node11</title>
<g id="a_Node000011"><a xlink:href="liolib_8c.html#ab08031b51605d4ef676ec33a3b96a286" target="_top" xlink:title=" ">
<polygon fill="white" stroke="#666666" points="140.75,-282.25 91.75,-282.25 91.75,-263 140.75,-263 140.75,-282.25"/>
<text xml:space="preserve" text-anchor="middle" x="116.25" y="-268.75" font-family="Helvetica,sans-Serif" font-size="10.00">io_lines</text>
</a>
</g>
</g>
<!-- Node9&#45;&gt;Node11 -->
<g id="edge10_Node000009_Node000011" class="edge">
<title>Node9&#45;&gt;Node11</title>
<g id="a_edge10_Node000009_Node000011"><a xlink:title=" ">
<path fill="none" stroke="#63b8ff" d="M172.28,-295.22C161.89,-290.95 150.74,-286.38 141.22,-282.47"/>
<polygon fill="#63b8ff" stroke="#63b8ff" points="170.77,-298.38 181.35,-298.94 173.43,-291.9 170.77,-298.38"/>
</a>
</g>
</g>
<!-- Node13 -->
<g id="Node000013" class="node">
<title>Node13</title>
<g id="a_Node000013"><a xlink:href="liolib_8c.html#adba67ef94aaa532d9224ca04f8126ac2" target="_top" xlink:title=" ">
<polygon fill="white" stroke="#666666" points="331.75,-358.25 286.5,-358.25 286.5,-339 331.75,-339 331.75,-358.25"/>
<text xml:space="preserve" text-anchor="middle" x="309.12" y="-344.75" font-family="Helvetica,sans-Serif" font-size="10.00">f_write</text>
</a>
</g>
</g>
<!-- Node12&#45;&gt;Node13 -->
<g id="edge12_Node000012_Node000013" class="edge">
<title>Node12&#45;&gt;Node13</title>
<g id="a_edge12_Node000012_Node000013"><a xlink:title=" ">
<path fill="none" stroke="#63b8ff" d="M385.36,-323.14C368.01,-329.02 347.4,-336 332.14,-341.17"/>
<polygon fill="#63b8ff" stroke="#63b8ff" points="386.42,-326.48 394.77,-319.96 384.18,-319.85 386.42,-326.48"/>
</a>
</g>
</g>
<!-- Node14 -->
<g id="Node000014" class="node">
<title>Node14</title>
<g id="a_Node000014"><a xlink:href="liolib_8c.html#ada35daf906cc262cc6944cad92b93ac3" target="_top" xlink:title=" ">
<polygon fill="white" stroke="#666666" points="334,-321.25 284.25,-321.25 284.25,-302 334,-302 334,-321.25"/>
<text xml:space="preserve" text-anchor="middle" x="309.12" y="-307.75" font-family="Helvetica,sans-Serif" font-size="10.00">io_write</text>
</a>
</g>
</g>
<!-- Node12&#45;&gt;Node14 -->
<g id="edge13_Node000012_Node000014" class="edge">
<title>Node12&#45;&gt;Node14</title>
<g id="a_edge13_Node000012_Node000014"><a xlink:title=" ">
<path fill="none" stroke="#63b8ff" d="M384.86,-311.62C368.45,-311.62 349.24,-311.62 334.4,-311.62"/>
<polygon fill="#63b8ff" stroke="#63b8ff" points="384.69,-315.13 394.69,-311.63 384.69,-308.13 384.69,-315.13"/>
</a>
</g>
</g>
<!-- Node16 -->
<g id="Node000016" class="node">
<title>Node16</title>
<g id="a_Node000016"><a xlink:href="liolib_8c.html#ab876ac8a07024ee4d85f8671d05ce80f" target="_top" xlink:title=" ">
<polygon fill="white" stroke="#666666" points="332.5,-245.25 285.75,-245.25 285.75,-226 332.5,-226 332.5,-245.25"/>
<text xml:space="preserve" text-anchor="middle" x="309.12" y="-231.75" font-family="Helvetica,sans-Serif" font-size="10.00">newfile</text>
</a>
</g>
</g>
<!-- Node15&#45;&gt;Node16 -->
<g id="edge15_Node000015_Node000016" class="edge">
<title>Node15&#45;&gt;Node16</title>
<g id="a_edge15_Node000015_Node000016"><a xlink:title=" ">
<path fill="none" stroke="#63b8ff" d="M381.35,-235.62C365.19,-235.62 346.89,-235.62 332.88,-235.62"/>
<polygon fill="#63b8ff" stroke="#63b8ff" points="381.14,-239.13 391.14,-235.63 381.14,-232.13 381.14,-239.13"/>
</a>
</g>
</g>
<!-- Node16&#45;&gt;Node17 -->
<g id="edge16_Node000016_Node000017" class="edge">
<title>Node16&#45;&gt;Node17</title>
<g id="a_edge16_Node000016_Node000017"><a xlink:title=" ">
<path fill="none" stroke="#63b8ff" d="M275.25,-247.94C261.58,-253.07 246,-258.9 233.42,-263.62"/>
<polygon fill="#63b8ff" stroke="#63b8ff" points="276.16,-251.34 284.3,-244.55 273.71,-244.78 276.16,-251.34"/>
</a>
</g>
</g>
<!-- Node16&#45;&gt;Node18 -->
<g id="edge17_Node000016_Node000018" class="edge">
<title>Node16&#45;&gt;Node18</title>
<g id="a_edge17_Node000016_Node000018"><a xlink:title=" ">
<path fill="none" stroke="#63b8ff" d="M275.35,-223.01C262.41,-218.03 247.75,-212.39 235.54,-207.69"/>
<polygon fill="#63b8ff" stroke="#63b8ff" points="273.71,-226.13 284.3,-226.46 276.23,-219.6 273.71,-226.13"/>
</a>
</g>
</g>
<!-- Node19 -->
<g id="Node000019" class="node">
<title>Node19</title>
<g id="a_Node000019"><a xlink:href="liolib_8c.html#a91ec9c6fa0ef33085f29a15532ac80a7" target="_top" xlink:title=" ">
<polygon fill="white" stroke="#666666" points="240,-245.25 176.75,-245.25 176.75,-226 240,-226 240,-245.25"/>
<text xml:space="preserve" text-anchor="middle" x="208.38" y="-231.75" font-family="Helvetica,sans-Serif" font-size="10.00">opencheck</text>
</a>
</g>
</g>
<!-- Node16&#45;&gt;Node19 -->
<g id="edge18_Node000016_Node000019" class="edge">
<title>Node16&#45;&gt;Node19</title>
<g id="a_edge18_Node000016_Node000019"><a xlink:title=" ">
<path fill="none" stroke="#63b8ff" d="M274.32,-235.62C263.29,-235.62 251.11,-235.62 240.3,-235.62"/>
<polygon fill="#63b8ff" stroke="#63b8ff" points="274.2,-239.13 284.2,-235.63 274.2,-232.13 274.2,-239.13"/>
</a>
</g>
</g>
<!-- Node19&#45;&gt;Node11 -->
<g id="edge22_Node000019_Node000011" class="edge">
<title>Node19&#45;&gt;Node11</title>
<g id="a_edge22_Node000019_Node000011"><a xlink:title=" ">
<path fill="none" stroke="#63b8ff" d="M172.28,-250.03C161.89,-254.3 150.74,-258.87 141.22,-262.78"/>
<polygon fill="#63b8ff" stroke="#63b8ff" points="173.43,-253.35 181.35,-246.31 170.77,-246.87 173.43,-253.35"/>
</a>
</g>
</g>
<!-- Node20 -->
<g id="Node000020" class="node">
<title>Node20</title>
<g id="a_Node000020"><a xlink:href="liolib_8c.html#aae942558ff528b4e1a483297c64e6886" target="_top" xlink:title=" ">
<polygon fill="white" stroke="#666666" points="139.62,-245.25 92.88,-245.25 92.88,-226 139.62,-226 139.62,-245.25"/>
<text xml:space="preserve" text-anchor="middle" x="116.25" y="-231.75" font-family="Helvetica,sans-Serif" font-size="10.00">g_iofile</text>
</a>
</g>
</g>
<!-- Node19&#45;&gt;Node20 -->
<g id="edge19_Node000019_Node000020" class="edge">
<title>Node19&#45;&gt;Node20</title>
<g id="a_edge19_Node000019_Node000020"><a xlink:title=" ">
<path fill="none" stroke="#63b8ff" d="M164.88,-235.62C156.32,-235.62 147.63,-235.62 140.07,-235.62"/>
<polygon fill="#63b8ff" stroke="#63b8ff" points="164.85,-239.13 174.85,-235.63 164.85,-232.13 164.85,-239.13"/>
</a>
</g>
</g>
<!-- Node21 -->
<g id="Node000021" class="node">
<title>Node21</title>
<g id="a_Node000021"><a xlink:href="liolib_8c.html#a827044fde6f2c21ab965ba3d729f6a0f" target="_top" xlink:title=" ">
<polygon fill="white" stroke="#666666" points="52.75,-264.25 3,-264.25 3,-245 52.75,-245 52.75,-264.25"/>
<text xml:space="preserve" text-anchor="middle" x="27.88" y="-250.75" font-family="Helvetica,sans-Serif" font-size="10.00">io_input</text>
</a>
</g>
</g>
<!-- Node20&#45;&gt;Node21 -->
<g id="edge20_Node000020_Node000021" class="edge">
<title>Node20&#45;&gt;Node21</title>
<g id="a_edge20_Node000020_Node000021"><a xlink:title=" ">
<path fill="none" stroke="#63b8ff" d="M81.5,-243.05C72.07,-245.12 62.01,-247.34 53.23,-249.27"/>
<polygon fill="#63b8ff" stroke="#63b8ff" points="82.06,-246.51 91.08,-240.94 80.56,-239.67 82.06,-246.51"/>
</a>
</g>
</g>
<!-- Node22 -->
<g id="Node000022" class="node">
<title>Node22</title>
<g id="a_Node000022"><a xlink:href="liolib_8c.html#a4464f89f0151ad432557b0a51258582c" target="_top" xlink:title=" ">
<polygon fill="white" stroke="#666666" points="55.75,-227.25 0,-227.25 0,-208 55.75,-208 55.75,-227.25"/>
<text xml:space="preserve" text-anchor="middle" x="27.88" y="-213.75" font-family="Helvetica,sans-Serif" font-size="10.00">io_output</text>
</a>
</g>
</g>
<!-- Node20&#45;&gt;Node22 -->
<g id="edge21_Node000020_Node000022" class="edge">
<title>Node20&#45;&gt;Node22</title>
<g id="a_edge21_Node000020_Node000022"><a xlink:title=" ">
<path fill="none" stroke="#63b8ff" d="M81.49,-228.59C73.05,-226.83 64.1,-224.97 56.03,-223.28"/>
<polygon fill="#63b8ff" stroke="#63b8ff" points="80.57,-231.97 91.07,-230.59 82,-225.12 80.57,-231.97"/>
</a>
</g>
</g>
<!-- Node26 -->
<g id="Node000026" class="node">
<title>Node26</title>
<g id="a_Node000026"><a xlink:href="liolib_8c.html#ac885ae15fd14fc88058b0b8c1cf2b1d9" target="_top" xlink:title=" ">
<polygon fill="white" stroke="#666666" points="337.75,-93.25 280.5,-93.25 280.5,-74 337.75,-74 337.75,-93.25"/>
<text xml:space="preserve" text-anchor="middle" x="309.12" y="-79.75" font-family="Helvetica,sans-Serif" font-size="10.00">io_pclose</text>
</a>
</g>
</g>
<!-- Node25&#45;&gt;Node26 -->
<g id="edge28_Node000025_Node000026" class="edge">
<title>Node25&#45;&gt;Node26</title>
<g id="a_edge28_Node000025_Node000026"><a xlink:title=" ">
<path fill="none" stroke="#63b8ff" d="M366.38,-83.62C356.6,-83.62 346.75,-83.62 338.08,-83.62"/>
<polygon fill="#63b8ff" stroke="#63b8ff" points="366.25,-87.13 376.25,-83.63 366.25,-80.13 366.25,-87.13"/>
</a>
</g>
</g>
<!-- Node27 -->
<g id="Node000027" class="node">
<title>Node27</title>
<g id="a_Node000027"><a xlink:href="loslib_8c.html#a2da7b72413e7abbb84043eeb7988ba36" target="_top" xlink:title=" ">
<polygon fill="white" stroke="#666666" points="342.25,-56.25 276,-56.25 276,-37 342.25,-37 342.25,-56.25"/>
<text xml:space="preserve" text-anchor="middle" x="309.12" y="-42.75" font-family="Helvetica,sans-Serif" font-size="10.00">os_execute</text>
</a>
</g>
</g>
<!-- Node25&#45;&gt;Node27 -->
<g id="edge30_Node000025_Node000027" class="edge">
<title>Node25&#45;&gt;Node27</title>
<g id="a_edge30_Node000025_Node000027"><a xlink:title=" ">
<path fill="none" stroke="#63b8ff" d="M379,-69.95C366.06,-65.57 351.98,-60.8 339.94,-56.72"/>
<polygon fill="#63b8ff" stroke="#63b8ff" points="377.49,-73.14 388.09,-73.03 379.74,-66.51 377.49,-73.14"/>
</a>
</g>
</g>
<!-- Node26&#45;&gt;Node24 -->
<g id="edge29_Node000026_Node000024" class="edge">
<title>Node26&#45;&gt;Node24</title>
<g id="a_edge29_Node000026_Node000024"><a xlink:title=" ">
<path fill="none" stroke="#63b8ff" d="M268.97,-91.16C257.95,-93.28 246.23,-95.53 236.12,-97.48"/>
<polygon fill="#63b8ff" stroke="#63b8ff" points="269.45,-94.63 278.61,-89.3 268.12,-87.76 269.45,-94.63"/>
</a>
</g>
</g>
</g>
</svg>

<g id="navigator" transform="translate(0 0)" fill="#404254">
  <rect fill="#f2f5e9" fill-opacity="0.5" stroke="#606060" stroke-width=".5" x="0" y="0" width="60" height="60"/>
  <use id="zoomplus" xlink:href="#zoomPlus" x="17" y="9" onmousedown="handleZoom(evt,'in')"/>
  <use id="zoomminus" xlink:href="#zoomMin" x="42" y="9" onmousedown="handleZoom(evt,'out')"/>
  <use id="reset" xlink:href="#resetDef" x="30" y="36" onmousedown="handleReset()"/>
   <use id="arrowup" xlink:href="#arrowUp" x="0" y="0" onmousedown="handlePan(0,-1)"/>
  <use id="arrowright" xlink:href="#arrowRight" x="0" y="0" onmousedown="handlePan(1,0)"/>
  <use id="arrowdown" xlink:href="#arrowDown" x="0" y="0" onmousedown="handlePan(0,1)"/>
  <use id="arrowleft" xlink:href="#arrowLeft" x="0" y="0" onmousedown="handlePan(-1,0)"/>
</g>
<svg viewBox="0 0 15 15" width="100%" height="30px" preserveAspectRatio="xMaxYMin meet">
 <g id="arrow_out" transform="scale(0.3 0.3)">
  <a xlink:href="lauxlib_8c_a86309080a5d45b232bcc240b45d06942_icgraph_org.svg" target="_base">
   <rect id="button" ry="5" rx="5" y="6" x="6" height="38" width="38"
        fill="#f2f5e9" fill-opacity="0.5" stroke="#606060" stroke-width="1.0"/>
   <path id="arrow"
     d="M 11.500037,31.436501 C 11.940474,20.09759 22.043105,11.32322 32.158766,21.979434 L 37.068811,17.246167 C 37.068811,17.246167 37.088388,32 37.088388,32 L 22.160133,31.978069 C 22.160133,31.978069 26.997745,27.140456 26.997745,27.140456 C 18.528582,18.264221 13.291696,25.230495 11.500037,31.436501 z"
     style="fill:#404040;"/>
  </a>
 </g>
</svg>

<style type='text/css'>
<![CDATA[
[data-mouse-over-selected='false'] { opacity: 0.7; }
[data-mouse-over-selected='true']  { opacity: 1.0; }
]]>
</style>
<script type="application/ecmascript"><![CDATA[
document.addEventListener('DOMContentLoaded', (event) => {
  highlightEdges();
  highlightAdjacentNodes();
});
]]></script>
</svg>
