<?xml version="1.0" encoding="UTF-8" standalone="no"?>
<!DOCTYPE svg PUBLIC "-//W3C//DTD SVG 1.1//EN"
 "http://www.w3.org/Graphics/SVG/1.1/DTD/svg11.dtd">
<!-- Generated by graphviz version 13.1.0 (20250701.0955)
 -->
<!-- Title: luaL_addvalue Pages: 1 -->
<!--zoomable 347 -->

<svg id="main" version="1.1" xmlns="http://www.w3.org/2000/svg" xmlns:xlink="http://www.w3.org/1999/xlink" xml:space="preserve" onload="init(evt)">

<style type="text/css"><![CDATA[
.node, .edge {opacity: 0.7;}
.node.selected, .edge.selected {opacity: 1;}
.edge:hover path { stroke: red; }
.edge:hover polygon { stroke: red; fill: red; }
]]></style>

<defs>
  <circle id="rim" cx="0" cy="0" r="7"/>
  <circle id="rim2" cx="0" cy="0" r="3.5"/>
  <g id="zoomPlus">
    <use xlink:href="#rim" fill="#404040"><set attributeName="fill" to="#808080" begin="zoomplus.mouseover" end="zoomplus.mouseout"/></use>
    <path d="M-4,0h8M0,-4v8" fill="none" stroke="white" stroke-width="1.5" pointer-events="none"/>
  </g>
  <g id="zoomMin">
    <use xlink:href="#rim" fill="#404040"><set attributeName="fill" to="#808080" begin="zoomminus.mouseover" end="zoomminus.mouseout"/></use>
    <path d="M-4,0h8" fill="none" stroke="white" stroke-width="1.5" pointer-events="none"/>
  </g>
  <g id="arrowUp" transform="translate(30 24)">
    <use xlink:href="#rim"/>
    <path pointer-events="none" fill="none" stroke="white" stroke-width="1.5" d="M0,-3.0v7 M-2.5,-0.5L0,-3.0L2.5,-0.5"/>
  </g>
  <g id="arrowRight" transform="rotate(90) translate(36 -43)">
    <use xlink:href="#rim"/>
    <path pointer-events="none" fill="none" stroke="white" stroke-width="1.5" d="M0,-3.0v7 M-2.5,-0.5L0,-3.0L2.5,-0.5"/>
  </g>
  <g id="arrowDown" transform="rotate(180) translate(-30 -48)">
    <use xlink:href="#rim"/>
    <path pointer-events="none" fill="none" stroke="white" stroke-width="1.5" d="M0,-3.0v7 M-2.5,-0.5L0,-3.0L2.5,-0.5"/>
  </g>
  <g id="arrowLeft" transform="rotate(270) translate(-36 17)">
    <use xlink:href="#rim"/>
    <path pointer-events="none" fill="none" stroke="white" stroke-width="1.5" d="M0,-3.0v7 M-2.5,-0.5L0,-3.0L2.5,-0.5"/>
  </g>
  <g id="resetDef">
    <use xlink:href="#rim2" fill="#404040"><set attributeName="fill" to="#808080" begin="reset.mouseover" end="reset.mouseout"/></use>
  </g>
</defs>
<script type="application/ecmascript">
var viewWidth = 844;
var viewHeight = 347;
var sectionId = 'dynsection-5';
</script>
<script type="application/ecmascript" xlink:href="svg.min.js"/>
<svg id="graph" class="graph">
<g id="viewport">
<title>luaL_addvalue</title>
<!-- Node1 -->
<g id="Node000001" class="node">
<title>Node1</title>
<g id="a_Node000001"><a xlink:title=" ">
<polygon fill="#999999" stroke="#666666" points="836.25,-207.25 758,-207.25 758,-188 836.25,-188 836.25,-207.25"/>
<text xml:space="preserve" text-anchor="middle" x="797.12" y="-193.75" font-family="Helvetica,sans-Serif" font-size="10.00">luaL_addvalue</text>
</a>
</g>
</g>
<!-- Node2 -->
<g id="Node000002" class="node">
<title>Node2</title>
<g id="a_Node000002"><a xlink:href="lstrlib_8c.html#ad5f7e3fbcadc8825f7f650ecf458fc72" target="_top" xlink:title=" ">
<polygon fill="white" stroke="#666666" points="702.12,-339.25 659.88,-339.25 659.88,-320 702.12,-320 702.12,-339.25"/>
<text xml:space="preserve" text-anchor="middle" x="681" y="-325.75" font-family="Helvetica,sans-Serif" font-size="10.00">add_s</text>
</a>
</g>
</g>
<!-- Node1&#45;&gt;Node2 -->
<g id="edge1_Node000001_Node000002" class="edge">
<title>Node1&#45;&gt;Node2</title>
<g id="a_edge1_Node000001_Node000002"><a xlink:title=" ">
<path fill="none" stroke="#63b8ff" d="M785.83,-217.68C773.18,-240.92 749.9,-279.38 722,-305.62 716.22,-311.06 709,-315.85 702.3,-319.7"/>
<polygon fill="#63b8ff" stroke="#63b8ff" points="788.87,-219.42 790.46,-208.95 782.68,-216.14 788.87,-219.42"/>
</a>
</g>
</g>
<!-- Node3 -->
<g id="Node000003" class="node">
<title>Node3</title>
<g id="a_Node000003"><a xlink:href="lstrlib_8c.html#a853703c83ab694a70212461d5cfe7843" target="_top" xlink:title=" ">
<polygon fill="white" stroke="#666666" points="596.88,-320.25 536.62,-320.25 536.62,-301 596.88,-301 596.88,-320.25"/>
<text xml:space="preserve" text-anchor="middle" x="566.75" y="-306.75" font-family="Helvetica,sans-Serif" font-size="10.00">add_value</text>
</a>
</g>
</g>
<!-- Node1&#45;&gt;Node3 -->
<g id="edge4_Node000001_Node000003" class="edge">
<title>Node1&#45;&gt;Node3</title>
<g id="a_edge4_Node000001_Node000003"><a xlink:title=" ">
<path fill="none" stroke="#63b8ff" d="M782.26,-216.73C768.78,-233.92 746.75,-258.57 722,-272.62 682.43,-295.09 629.79,-304.39 597.36,-308.15"/>
<polygon fill="#63b8ff" stroke="#63b8ff" points="785.01,-218.9 788.26,-208.82 779.43,-214.68 785.01,-218.9"/>
</a>
</g>
</g>
<!-- Node5 -->
<g id="Node000005" class="node">
<title>Node5</title>
<g id="a_Node000005"><a xlink:href="ltablib_8c.html#a598479e00f1b316a182b1582012df5d0" target="_top" xlink:title=" ">
<polygon fill="white" stroke="#666666" points="705.88,-263.25 656.12,-263.25 656.12,-244 705.88,-244 705.88,-263.25"/>
<text xml:space="preserve" text-anchor="middle" x="681" y="-249.75" font-family="Helvetica,sans-Serif" font-size="10.00">addfield</text>
</a>
</g>
</g>
<!-- Node1&#45;&gt;Node5 -->
<g id="edge5_Node000001_Node000005" class="edge">
<title>Node1&#45;&gt;Node5</title>
<g id="a_edge5_Node000001_Node000005"><a xlink:title=" ">
<path fill="none" stroke="#63b8ff" d="M766.87,-213.06C753.3,-220.1 736.91,-228.45 722,-235.62 716.51,-238.27 710.54,-241.01 704.94,-243.54"/>
<polygon fill="#63b8ff" stroke="#63b8ff" points="768.47,-216.17 775.72,-208.44 765.23,-209.96 768.47,-216.17"/>
</a>
</g>
</g>
<!-- Node7 -->
<g id="Node000007" class="node">
<title>Node7</title>
<g id="a_Node000007"><a xlink:href="lstrlib_8c.html#a2ff59847baa24a18f7d78d47dc1d3220" target="_top" xlink:title=" ">
<polygon fill="white" stroke="#666666" points="708.5,-226.25 653.5,-226.25 653.5,-207 708.5,-207 708.5,-226.25"/>
<text xml:space="preserve" text-anchor="middle" x="681" y="-212.75" font-family="Helvetica,sans-Serif" font-size="10.00">addliteral</text>
</a>
</g>
</g>
<!-- Node1&#45;&gt;Node7 -->
<g id="edge7_Node000001_Node000007" class="edge">
<title>Node1&#45;&gt;Node7</title>
<g id="a_edge7_Node000001_Node000007"><a xlink:title=" ">
<path fill="none" stroke="#63b8ff" d="M746.62,-205.87C733.65,-208.03 720.15,-210.27 708.87,-212.15"/>
<polygon fill="#63b8ff" stroke="#63b8ff" points="747.02,-209.35 756.31,-204.25 745.87,-202.44 747.02,-209.35"/>
</a>
</g>
</g>
<!-- Node8 -->
<g id="Node000008" class="node">
<title>Node8</title>
<g id="a_Node000008"><a xlink:href="lstrlib_8c.html#ae26a9374857058119e59d0328208c2f2" target="_top" xlink:title=" ">
<polygon fill="white" stroke="#666666" points="596.88,-207.25 536.62,-207.25 536.62,-188 596.88,-188 596.88,-207.25"/>
<text xml:space="preserve" text-anchor="middle" x="566.75" y="-193.75" font-family="Helvetica,sans-Serif" font-size="10.00">str_format</text>
</a>
</g>
</g>
<!-- Node1&#45;&gt;Node8 -->
<g id="edge31_Node000001_Node000008" class="edge">
<title>Node1&#45;&gt;Node8</title>
<g id="a_edge31_Node000001_Node000008"><a xlink:title=" ">
<path fill="none" stroke="#63b8ff" d="M746.25,-197.62C700.73,-197.62 634.98,-197.62 597.29,-197.62"/>
<polygon fill="#63b8ff" stroke="#63b8ff" points="746.13,-201.13 756.13,-197.63 746.13,-194.13 746.13,-201.13"/>
</a>
</g>
</g>
<!-- Node9 -->
<g id="Node000009" class="node">
<title>Node9</title>
<g id="a_Node000009"><a xlink:href="loadlib_8c.html#aeea4101591c7cab25273f4dfe7d811d6" target="_top" xlink:title=" ">
<polygon fill="white" stroke="#666666" points="710,-150.25 652,-150.25 652,-131 710,-131 710,-150.25"/>
<text xml:space="preserve" text-anchor="middle" x="681" y="-136.75" font-family="Helvetica,sans-Serif" font-size="10.00">findloader</text>
</a>
</g>
</g>
<!-- Node1&#45;&gt;Node9 -->
<g id="edge9_Node000001_Node000009" class="edge">
<title>Node1&#45;&gt;Node9</title>
<g id="a_edge9_Node000001_Node000009"><a xlink:title=" ">
<path fill="none" stroke="#63b8ff" d="M765.73,-182.44C745.52,-172.35 719.56,-159.38 701.94,-150.58"/>
<polygon fill="#63b8ff" stroke="#63b8ff" points="764.12,-185.55 774.63,-186.89 767.25,-179.29 764.12,-185.55"/>
</a>
</g>
</g>
<!-- Node11 -->
<g id="Node000011" class="node">
<title>Node11</title>
<g id="a_Node000011"><a xlink:href="lauxlib_8c.html#a67bf3728d34d2c9badb2bd2f57c75233" target="_top" xlink:title=" ">
<polygon fill="white" stroke="#666666" points="722,-113.25 640,-113.25 640,-94 722,-94 722,-113.25"/>
<text xml:space="preserve" text-anchor="middle" x="681" y="-99.75" font-family="Helvetica,sans-Serif" font-size="10.00">luaL_traceback</text>
</a>
</g>
</g>
<!-- Node1&#45;&gt;Node11 -->
<g id="edge11_Node000001_Node000011" class="edge">
<title>Node1&#45;&gt;Node11</title>
<g id="a_edge11_Node000001_Node000011"><a xlink:title=" ">
<path fill="none" stroke="#63b8ff" d="M781.23,-178.73C767.3,-162.03 745.23,-137.87 722,-121.62 717.76,-118.66 712.95,-116 708.17,-113.69"/>
<polygon fill="#63b8ff" stroke="#63b8ff" points="778.45,-180.86 787.47,-186.41 783.88,-176.44 778.45,-180.86"/>
</a>
</g>
</g>
<!-- Node25 -->
<g id="Node000025" class="node">
<title>Node25</title>
<g id="a_Node000025"><a xlink:href="lutf8lib_8c.html#a7269a837d8746044cb3f33e6db94b00f" target="_top" xlink:title=" ">
<polygon fill="white" stroke="#666666" points="704,-76.25 658,-76.25 658,-57 704,-57 704,-76.25"/>
<text xml:space="preserve" text-anchor="middle" x="681" y="-62.75" font-family="Helvetica,sans-Serif" font-size="10.00">utfchar</text>
</a>
</g>
</g>
<!-- Node1&#45;&gt;Node25 -->
<g id="edge32_Node000001_Node000025" class="edge">
<title>Node1&#45;&gt;Node25</title>
<g id="a_edge32_Node000001_Node000025"><a xlink:title=" ">
<path fill="none" stroke="#63b8ff" d="M787.29,-177.48C775.55,-152.73 752.66,-110.79 722,-84.62 716.9,-80.27 710.58,-76.79 704.48,-74.09"/>
<polygon fill="#63b8ff" stroke="#63b8ff" points="784.05,-178.81 791.39,-186.45 790.41,-175.9 784.05,-178.81"/>
</a>
</g>
</g>
<!-- Node2&#45;&gt;Node3 -->
<g id="edge2_Node000002_Node000003" class="edge">
<title>Node2&#45;&gt;Node3</title>
<g id="a_edge2_Node000002_Node000003"><a xlink:title=" ">
<path fill="none" stroke="#63b8ff" d="M648.38,-324.27C632.29,-321.55 612.85,-318.26 597.09,-315.59"/>
<polygon fill="#63b8ff" stroke="#63b8ff" points="647.48,-327.67 657.92,-325.89 648.64,-320.77 647.48,-327.67"/>
</a>
</g>
</g>
<!-- Node4 -->
<g id="Node000004" class="node">
<title>Node4</title>
<g id="a_Node000004"><a xlink:href="lstrlib_8c.html#a42337c674d265175bcc2b2f3809c7339" target="_top" xlink:title=" ">
<polygon fill="white" stroke="#666666" points="493.5,-320.25 440,-320.25 440,-301 493.5,-301 493.5,-320.25"/>
<text xml:space="preserve" text-anchor="middle" x="466.75" y="-306.75" font-family="Helvetica,sans-Serif" font-size="10.00">str_gsub</text>
</a>
</g>
</g>
<!-- Node3&#45;&gt;Node4 -->
<g id="edge3_Node000003_Node000004" class="edge">
<title>Node3&#45;&gt;Node4</title>
<g id="a_edge3_Node000003_Node000004"><a xlink:title=" ">
<path fill="none" stroke="#63b8ff" d="M525.16,-310.62C514.56,-310.62 503.42,-310.62 493.8,-310.62"/>
<polygon fill="#63b8ff" stroke="#63b8ff" points="524.83,-314.13 534.83,-310.63 524.83,-307.13 524.83,-314.13"/>
</a>
</g>
</g>
<!-- Node6 -->
<g id="Node000006" class="node">
<title>Node6</title>
<g id="a_Node000006"><a xlink:href="ltablib_8c.html#add6973c515a288f41265aca8e0ae6412" target="_top" xlink:title=" ">
<polygon fill="white" stroke="#666666" points="590.88,-263.25 542.62,-263.25 542.62,-244 590.88,-244 590.88,-263.25"/>
<text xml:space="preserve" text-anchor="middle" x="566.75" y="-249.75" font-family="Helvetica,sans-Serif" font-size="10.00">tconcat</text>
</a>
</g>
</g>
<!-- Node5&#45;&gt;Node6 -->
<g id="edge6_Node000005_Node000006" class="edge">
<title>Node5&#45;&gt;Node6</title>
<g id="a_edge6_Node000005_Node000006"><a xlink:title=" ">
<path fill="none" stroke="#63b8ff" d="M644.23,-253.62C626.92,-253.62 606.62,-253.62 591.29,-253.62"/>
<polygon fill="#63b8ff" stroke="#63b8ff" points="644.13,-257.13 654.13,-253.63 644.13,-250.13 644.13,-257.13"/>
</a>
</g>
</g>
<!-- Node7&#45;&gt;Node8 -->
<g id="edge8_Node000007_Node000008" class="edge">
<title>Node7&#45;&gt;Node8</title>
<g id="a_edge8_Node000007_Node000008"><a xlink:title=" ">
<path fill="none" stroke="#63b8ff" d="M641.88,-210.17C627.27,-207.7 610.85,-204.92 597.18,-202.61"/>
<polygon fill="#63b8ff" stroke="#63b8ff" points="641.18,-213.6 651.62,-211.82 642.35,-206.7 641.18,-213.6"/>
</a>
</g>
</g>
<!-- Node10 -->
<g id="Node000010" class="node">
<title>Node10</title>
<g id="a_Node000010"><a xlink:href="loadlib_8c.html#a136874f5faa236dc52fb50109281e157" target="_top" xlink:title=" ">
<polygon fill="white" stroke="#666666" points="594.25,-150.25 539.25,-150.25 539.25,-131 594.25,-131 594.25,-150.25"/>
<text xml:space="preserve" text-anchor="middle" x="566.75" y="-136.75" font-family="Helvetica,sans-Serif" font-size="10.00">ll_require</text>
</a>
</g>
</g>
<!-- Node9&#45;&gt;Node10 -->
<g id="edge10_Node000009_Node000010" class="edge">
<title>Node9&#45;&gt;Node10</title>
<g id="a_edge10_Node000009_Node000010"><a xlink:title=" ">
<path fill="none" stroke="#63b8ff" d="M640.47,-140.62C625.26,-140.62 608.26,-140.62 594.52,-140.62"/>
<polygon fill="#63b8ff" stroke="#63b8ff" points="640.16,-144.13 650.16,-140.63 640.16,-137.13 640.16,-144.13"/>
</a>
</g>
</g>
<!-- Node12 -->
<g id="Node000012" class="node">
<title>Node12</title>
<g id="a_Node000012"><a xlink:href="ldblib_8c.html#ae0792d4f3f6eedd535895e05426b82df" target="_top" xlink:title=" ">
<polygon fill="white" stroke="#666666" points="604,-113.25 529.5,-113.25 529.5,-94 604,-94 604,-113.25"/>
<text xml:space="preserve" text-anchor="middle" x="566.75" y="-99.75" font-family="Helvetica,sans-Serif" font-size="10.00">db_traceback</text>
</a>
</g>
</g>
<!-- Node11&#45;&gt;Node12 -->
<g id="edge12_Node000011_Node000012" class="edge">
<title>Node11&#45;&gt;Node12</title>
<g id="a_edge12_Node000011_Node000012"><a xlink:title=" ">
<path fill="none" stroke="#63b8ff" d="M628.44,-103.62C620.3,-103.62 612.02,-103.62 604.32,-103.62"/>
<polygon fill="#63b8ff" stroke="#63b8ff" points="628.28,-107.13 638.28,-103.63 628.28,-100.13 628.28,-107.13"/>
</a>
</g>
</g>
<!-- Node13 -->
<g id="Node000013" class="node">
<title>Node13</title>
<g id="a_Node000013"><a xlink:href="lua_8c.html#aaf236b6f4e03469c893b4a32e9a02ab2" target="_top" xlink:title=" ">
<polygon fill="white" stroke="#666666" points="599.88,-76.25 533.62,-76.25 533.62,-57 599.88,-57 599.88,-76.25"/>
<text xml:space="preserve" text-anchor="middle" x="566.75" y="-62.75" font-family="Helvetica,sans-Serif" font-size="10.00">msghandler</text>
</a>
</g>
</g>
<!-- Node11&#45;&gt;Node13 -->
<g id="edge13_Node000011_Node000013" class="edge">
<title>Node11&#45;&gt;Node13</title>
<g id="a_edge13_Node000011_Node000013"><a xlink:title=" ">
<path fill="none" stroke="#63b8ff" d="M638.51,-89.95C625.22,-85.57 610.76,-80.8 598.39,-76.72"/>
<polygon fill="#63b8ff" stroke="#63b8ff" points="637.3,-93.23 647.89,-93.04 639.49,-86.59 637.3,-93.23"/>
</a>
</g>
</g>
<!-- Node14 -->
<g id="Node000014" class="node">
<title>Node14</title>
<g id="a_Node000014"><a xlink:href="lua_8c.html#a49e04420c2846b52e378ef6272bbf75b" target="_top" xlink:title=" ">
<polygon fill="white" stroke="#666666" points="487.5,-76.25 446,-76.25 446,-57 487.5,-57 487.5,-76.25"/>
<text xml:space="preserve" text-anchor="middle" x="466.75" y="-62.75" font-family="Helvetica,sans-Serif" font-size="10.00">docall</text>
</a>
</g>
</g>
<!-- Node13&#45;&gt;Node14 -->
<g id="edge14_Node000013_Node000014" class="edge">
<title>Node13&#45;&gt;Node14</title>
<g id="a_edge14_Node000013_Node000014"><a xlink:title=" ">
<path fill="none" stroke="#63b8ff" d="M522.13,-66.62C510.15,-66.62 497.73,-66.62 487.79,-66.62"/>
<polygon fill="#63b8ff" stroke="#63b8ff" points="521.88,-70.13 531.88,-66.63 521.88,-63.13 521.88,-70.13"/>
</a>
</g>
</g>
<!-- Node15 -->
<g id="Node000015" class="node">
<title>Node15</title>
<g id="a_Node000015"><a xlink:href="lua_8c.html#a84103428a06a64ccca2c23a8045f3291" target="_top" xlink:title=" ">
<polygon fill="white" stroke="#666666" points="404,-133.25 351.25,-133.25 351.25,-114 404,-114 404,-133.25"/>
<text xml:space="preserve" text-anchor="middle" x="377.62" y="-119.75" font-family="Helvetica,sans-Serif" font-size="10.00">dochunk</text>
</a>
</g>
</g>
<!-- Node14&#45;&gt;Node15 -->
<g id="edge15_Node000014_Node000015" class="edge">
<title>Node14&#45;&gt;Node15</title>
<g id="a_edge15_Node000014_Node000015"><a xlink:title=" ">
<path fill="none" stroke="#63b8ff" d="M441.24,-82.66C426.05,-92.6 406.99,-105.07 393.92,-113.62"/>
<polygon fill="#63b8ff" stroke="#63b8ff" points="442.86,-85.79 449.31,-77.38 439.02,-79.93 442.86,-85.79"/>
</a>
</g>
</g>
<!-- Node22 -->
<g id="Node000022" class="node">
<title>Node22</title>
<g id="a_Node000022"><a xlink:href="lua_8c.html#ac62266d27f3bed2d1e0a7c9393b95c22" target="_top" xlink:title=" ">
<polygon fill="white" stroke="#666666" points="404,-95.25 351.25,-95.25 351.25,-76 404,-76 404,-95.25"/>
<text xml:space="preserve" text-anchor="middle" x="377.62" y="-81.75" font-family="Helvetica,sans-Serif" font-size="10.00">dolibrary</text>
</a>
</g>
</g>
<!-- Node14&#45;&gt;Node22 -->
<g id="edge25_Node000014_Node000022" class="edge">
<title>Node14&#45;&gt;Node22</title>
<g id="a_edge25_Node000014_Node000022"><a xlink:title=" ">
<path fill="none" stroke="#63b8ff" d="M434.5,-73.44C424.61,-75.6 413.81,-77.95 404.35,-80.01"/>
<polygon fill="#63b8ff" stroke="#63b8ff" points="435.04,-76.9 444.06,-71.35 433.55,-70.07 435.04,-76.9"/>
</a>
</g>
</g>
<!-- Node23 -->
<g id="Node000023" class="node">
<title>Node23</title>
<g id="a_Node000023"><a xlink:href="lua_8c.html#a946f2675cba972bd3580d9046abf2b6b" target="_top" xlink:title=" ">
<polygon fill="white" stroke="#666666" points="315.25,-57.25 262.5,-57.25 262.5,-38 315.25,-38 315.25,-57.25"/>
<text xml:space="preserve" text-anchor="middle" x="288.88" y="-43.75" font-family="Helvetica,sans-Serif" font-size="10.00">doREPL</text>
</a>
</g>
</g>
<!-- Node14&#45;&gt;Node23 -->
<g id="edge27_Node000014_Node000023" class="edge">
<title>Node14&#45;&gt;Node23</title>
<g id="a_edge27_Node000014_Node000023"><a xlink:title=" ">
<path fill="none" stroke="#63b8ff" d="M434.46,-63.24C400.53,-59.58 347.01,-53.8 315.48,-50.39"/>
<polygon fill="#63b8ff" stroke="#63b8ff" points="433.75,-66.69 444.07,-64.28 434.5,-59.73 433.75,-66.69"/>
</a>
</g>
</g>
<!-- Node24 -->
<g id="Node000024" class="node">
<title>Node24</title>
<g id="a_Node000024"><a xlink:href="lua_8c.html#a5a944babaacde1035f1aa8b4156cc06a" target="_top" xlink:title=" ">
<polygon fill="white" stroke="#666666" points="225.75,-19.25 152,-19.25 152,0 225.75,0 225.75,-19.25"/>
<text xml:space="preserve" text-anchor="middle" x="188.88" y="-5.75" font-family="Helvetica,sans-Serif" font-size="10.00">handle_script</text>
</a>
</g>
</g>
<!-- Node14&#45;&gt;Node24 -->
<g id="edge29_Node000014_Node000024" class="edge">
<title>Node14&#45;&gt;Node24</title>
<g id="a_edge29_Node000014_Node000024"><a xlink:title=" ">
<path fill="none" stroke="#63b8ff" d="M434.81,-58.54C424.97,-55.99 414.03,-53.17 404,-50.62 364.61,-40.64 355.1,-36.57 315.25,-28.62 285.46,-22.69 251.35,-17.63 226.24,-14.23"/>
<polygon fill="#63b8ff" stroke="#63b8ff" points="433.72,-61.87 444.28,-61 435.48,-55.1 433.72,-61.87"/>
</a>
</g>
</g>
<!-- Node16 -->
<g id="Node000016" class="node">
<title>Node16</title>
<g id="a_Node000016"><a xlink:href="lua_8c.html#a9708ea7bd36bee3c2d952cdd787246cc" target="_top" xlink:title=" ">
<polygon fill="white" stroke="#666666" points="308.5,-170.25 269.25,-170.25 269.25,-151 308.5,-151 308.5,-170.25"/>
<text xml:space="preserve" text-anchor="middle" x="288.88" y="-156.75" font-family="Helvetica,sans-Serif" font-size="10.00">dofile</text>
</a>
</g>
</g>
<!-- Node15&#45;&gt;Node16 -->
<g id="edge16_Node000015_Node000016" class="edge">
<title>Node15&#45;&gt;Node16</title>
<g id="a_edge16_Node000015_Node000016"><a xlink:title=" ">
<path fill="none" stroke="#63b8ff" d="M342.37,-138.23C330.98,-143.09 318.7,-148.33 308.89,-152.52"/>
<polygon fill="#63b8ff" stroke="#63b8ff" points="343.7,-141.47 351.53,-134.33 340.96,-135.03 343.7,-141.47"/>
</a>
</g>
</g>
<!-- Node20 -->
<g id="Node000020" class="node">
<title>Node20</title>
<g id="a_Node000020"><a xlink:href="lua_8c.html#ae8312476ab6a3db74a9a5b1a981d023f" target="_top" xlink:title=" ">
<polygon fill="white" stroke="#666666" points="314.12,-133.25 263.62,-133.25 263.62,-114 314.12,-114 314.12,-133.25"/>
<text xml:space="preserve" text-anchor="middle" x="288.88" y="-119.75" font-family="Helvetica,sans-Serif" font-size="10.00">dostring</text>
</a>
</g>
</g>
<!-- Node15&#45;&gt;Node20 -->
<g id="edge21_Node000015_Node000020" class="edge">
<title>Node15&#45;&gt;Node20</title>
<g id="a_edge21_Node000015_Node000020"><a xlink:title=" ">
<path fill="none" stroke="#63b8ff" d="M339.72,-123.62C331.15,-123.62 322.24,-123.62 314.36,-123.62"/>
<polygon fill="#63b8ff" stroke="#63b8ff" points="339.55,-127.13 349.55,-123.63 339.55,-120.13 339.55,-127.13"/>
</a>
</g>
</g>
<!-- Node17 -->
<g id="Node000017" class="node">
<title>Node17</title>
<g id="a_Node000017"><a xlink:href="lua_8c.html#a5d9d02779b2853fbef2aa54e2f8e017e" target="_top" xlink:title=" ">
<polygon fill="white" stroke="#666666" points="226.5,-132.25 151.25,-132.25 151.25,-113 226.5,-113 226.5,-132.25"/>
<text xml:space="preserve" text-anchor="middle" x="188.88" y="-118.75" font-family="Helvetica,sans-Serif" font-size="10.00">handle_luainit</text>
</a>
</g>
</g>
<!-- Node16&#45;&gt;Node17 -->
<g id="edge17_Node000016_Node000017" class="edge">
<title>Node16&#45;&gt;Node17</title>
<g id="a_edge17_Node000016_Node000017"><a xlink:title=" ">
<path fill="none" stroke="#63b8ff" d="M258.27,-149.14C244.72,-143.89 228.81,-137.72 215.75,-132.66"/>
<polygon fill="#63b8ff" stroke="#63b8ff" points="256.98,-152.4 267.57,-152.75 259.51,-145.87 256.98,-152.4"/>
</a>
</g>
</g>
<!-- Node18 -->
<g id="Node000018" class="node">
<title>Node18</title>
<g id="a_Node000018"><a xlink:href="lua_8c.html#aa0f8bc082ef913cb0a4df437bf5f5019" target="_top" xlink:title=" ">
<polygon fill="white" stroke="#666666" points="115.25,-95.25 73,-95.25 73,-76 115.25,-76 115.25,-95.25"/>
<text xml:space="preserve" text-anchor="middle" x="94.12" y="-81.75" font-family="Helvetica,sans-Serif" font-size="10.00">pmain</text>
</a>
</g>
</g>
<!-- Node16&#45;&gt;Node18 -->
<g id="edge20_Node000016_Node000018" class="edge">
<title>Node16&#45;&gt;Node18</title>
<g id="a_edge20_Node000016_Node000018"><a xlink:title=" ">
<path fill="none" stroke="#63b8ff" d="M257.76,-161.81C228.96,-161.73 185.03,-158.41 151.25,-141.62 129.56,-130.84 111.16,-108.42 101.79,-95.45"/>
<polygon fill="#63b8ff" stroke="#63b8ff" points="257.64,-165.31 267.59,-161.69 257.55,-158.31 257.64,-165.31"/>
</a>
</g>
</g>
<!-- Node17&#45;&gt;Node18 -->
<g id="edge18_Node000017_Node000018" class="edge">
<title>Node17&#45;&gt;Node18</title>
<g id="a_edge18_Node000017_Node000018"><a xlink:title=" ">
<path fill="none" stroke="#63b8ff" d="M152.01,-108.32C139.61,-103.37 126.16,-98.01 115.45,-93.73"/>
<polygon fill="#63b8ff" stroke="#63b8ff" points="150.54,-111.5 161.12,-111.95 153.13,-105 150.54,-111.5"/>
</a>
</g>
</g>
<!-- Node19 -->
<g id="Node000019" class="node">
<title>Node19</title>
<g id="a_Node000019"><a xlink:href="lua_8c.html#a3c04138a5bfe5d72780bb7e82a18e627" target="_top" xlink:title=" ">
<polygon fill="white" stroke="#666666" points="37,-95.25 0,-95.25 0,-76 37,-76 37,-95.25"/>
<text xml:space="preserve" text-anchor="middle" x="18.5" y="-81.75" font-family="Helvetica,sans-Serif" font-size="10.00">main</text>
</a>
</g>
</g>
<!-- Node18&#45;&gt;Node19 -->
<g id="edge19_Node000018_Node000019" class="edge">
<title>Node18&#45;&gt;Node19</title>
<g id="a_edge19_Node000018_Node000019"><a xlink:title=" ">
<path fill="none" stroke="#63b8ff" d="M61.12,-85.62C52.99,-85.62 44.54,-85.62 37.4,-85.62"/>
<polygon fill="#63b8ff" stroke="#63b8ff" points="61.1,-89.13 71.1,-85.63 61.1,-82.13 61.1,-89.13"/>
</a>
</g>
</g>
<!-- Node20&#45;&gt;Node17 -->
<g id="edge22_Node000020_Node000017" class="edge">
<title>Node20&#45;&gt;Node17</title>
<g id="a_edge22_Node000020_Node000017"><a xlink:title=" ">
<path fill="none" stroke="#63b8ff" d="M251.73,-123.26C243.61,-123.17 234.98,-123.09 226.83,-123"/>
<polygon fill="#63b8ff" stroke="#63b8ff" points="251.6,-126.75 261.63,-123.36 251.67,-119.76 251.6,-126.75"/>
</a>
</g>
</g>
<!-- Node21 -->
<g id="Node000021" class="node">
<title>Node21</title>
<g id="a_Node000021"><a xlink:href="lua_8c.html#a95a376c847572def6b3f78d33a7bc881" target="_top" xlink:title=" ">
<polygon fill="white" stroke="#666666" points="213,-95.25 164.75,-95.25 164.75,-76 213,-76 213,-95.25"/>
<text xml:space="preserve" text-anchor="middle" x="188.88" y="-81.75" font-family="Helvetica,sans-Serif" font-size="10.00">runargs</text>
</a>
</g>
</g>
<!-- Node20&#45;&gt;Node21 -->
<g id="edge23_Node000020_Node000021" class="edge">
<title>Node20&#45;&gt;Node21</title>
<g id="a_edge23_Node000020_Node000021"><a xlink:title=" ">
<path fill="none" stroke="#63b8ff" d="M252.58,-109.94C239.5,-104.87 225,-99.25 213.25,-94.69"/>
<polygon fill="#63b8ff" stroke="#63b8ff" points="251.15,-113.14 261.73,-113.49 253.68,-106.61 251.15,-113.14"/>
</a>
</g>
</g>
<!-- Node21&#45;&gt;Node18 -->
<g id="edge24_Node000021_Node000018" class="edge">
<title>Node21&#45;&gt;Node18</title>
<g id="a_edge24_Node000021_Node000018"><a xlink:title=" ">
<path fill="none" stroke="#63b8ff" d="M153.31,-85.62C140.65,-85.62 126.73,-85.62 115.68,-85.62"/>
<polygon fill="#63b8ff" stroke="#63b8ff" points="152.96,-89.13 162.96,-85.63 152.96,-82.13 152.96,-89.13"/>
</a>
</g>
</g>
<!-- Node22&#45;&gt;Node21 -->
<g id="edge26_Node000022_Node000021" class="edge">
<title>Node22&#45;&gt;Node21</title>
<g id="a_edge26_Node000022_Node000021"><a xlink:title=" ">
<path fill="none" stroke="#63b8ff" d="M339.6,-85.62C302.07,-85.62 245.13,-85.62 213.38,-85.62"/>
<polygon fill="#63b8ff" stroke="#63b8ff" points="339.54,-89.13 349.54,-85.63 339.54,-82.13 339.54,-89.13"/>
</a>
</g>
</g>
<!-- Node23&#45;&gt;Node18 -->
<g id="edge28_Node000023_Node000018" class="edge">
<title>Node23&#45;&gt;Node18</title>
<g id="a_edge28_Node000023_Node000018"><a xlink:title=" ">
<path fill="none" stroke="#63b8ff" d="M251.03,-50.85C223.33,-53.73 184.59,-58.74 151.25,-66.62 139.24,-69.47 126.15,-73.82 115.64,-77.64"/>
<polygon fill="#63b8ff" stroke="#63b8ff" points="251.07,-54.36 260.67,-49.89 250.37,-47.4 251.07,-54.36"/>
</a>
</g>
</g>
<!-- Node24&#45;&gt;Node18 -->
<g id="edge30_Node000024_Node000018" class="edge">
<title>Node24&#45;&gt;Node18</title>
<g id="a_edge30_Node000024_Node000018"><a xlink:title=" ">
<path fill="none" stroke="#63b8ff" d="M161.94,-25.84C158.28,-28.35 154.62,-30.99 151.25,-33.62 134.09,-47.04 115.88,-64.61 105.01,-75.5"/>
<polygon fill="#63b8ff" stroke="#63b8ff" points="163.75,-28.84 170.16,-20.41 159.89,-23 163.75,-28.84"/>
</a>
</g>
</g>
</g>
</svg>

<g id="navigator" transform="translate(0 0)" fill="#404254">
  <rect fill="#f2f5e9" fill-opacity="0.5" stroke="#606060" stroke-width=".5" x="0" y="0" width="60" height="60"/>
  <use id="zoomplus" xlink:href="#zoomPlus" x="17" y="9" onmousedown="handleZoom(evt,'in')"/>
  <use id="zoomminus" xlink:href="#zoomMin" x="42" y="9" onmousedown="handleZoom(evt,'out')"/>
  <use id="reset" xlink:href="#resetDef" x="30" y="36" onmousedown="handleReset()"/>
   <use id="arrowup" xlink:href="#arrowUp" x="0" y="0" onmousedown="handlePan(0,-1)"/>
  <use id="arrowright" xlink:href="#arrowRight" x="0" y="0" onmousedown="handlePan(1,0)"/>
  <use id="arrowdown" xlink:href="#arrowDown" x="0" y="0" onmousedown="handlePan(0,1)"/>
  <use id="arrowleft" xlink:href="#arrowLeft" x="0" y="0" onmousedown="handlePan(-1,0)"/>
</g>
<svg viewBox="0 0 15 15" width="100%" height="30px" preserveAspectRatio="xMaxYMin meet">
 <g id="arrow_out" transform="scale(0.3 0.3)">
  <a xlink:href="lauxlib_8h_a59a8ac34826fee305ad56101d97aee18_icgraph_org.svg" target="_base">
   <rect id="button" ry="5" rx="5" y="6" x="6" height="38" width="38"
        fill="#f2f5e9" fill-opacity="0.5" stroke="#606060" stroke-width="1.0"/>
   <path id="arrow"
     d="M 11.500037,31.436501 C 11.940474,20.09759 22.043105,11.32322 32.158766,21.979434 L 37.068811,17.246167 C 37.068811,17.246167 37.088388,32 37.088388,32 L 22.160133,31.978069 C 22.160133,31.978069 26.997745,27.140456 26.997745,27.140456 C 18.528582,18.264221 13.291696,25.230495 11.500037,31.436501 z"
     style="fill:#404040;"/>
  </a>
 </g>
</svg>

<style type='text/css'>
<![CDATA[
[data-mouse-over-selected='false'] { opacity: 0.7; }
[data-mouse-over-selected='true']  { opacity: 1.0; }
]]>
</style>
<script type="application/ecmascript"><![CDATA[
document.addEventListener('DOMContentLoaded', (event) => {
  highlightEdges();
  highlightAdjacentNodes();
});
]]></script>
</svg>
