<?xml version="1.0" encoding="UTF-8" standalone="no"?>
<!DOCTYPE svg PUBLIC "-//W3C//DTD SVG 1.1//EN"
 "http://www.w3.org/Graphics/SVG/1.1/DTD/svg11.dtd">
<!-- Generated by graphviz version 13.1.0 (20250701.0955)
 -->
<!-- Title: luaL_callmeta Pages: 1 -->
<svg width="860pt" height="328pt"
 viewBox="0.00 0.00 860.00 328.00" xmlns="http://www.w3.org/2000/svg" xmlns:xlink="http://www.w3.org/1999/xlink">
<g id="graph0" class="graph" transform="scale(1 1) rotate(0) translate(4 324.25)">
<title>luaL_callmeta</title>
<!-- Node1 -->
<g id="Node000001" class="node">
<title>Node1</title>
<g id="a_Node000001"><a xlink:title=" ">
<polygon fill="#999999" stroke="#666666" points="852,-151.25 776,-151.25 776,-132 852,-132 852,-151.25"/>
<text xml:space="preserve" text-anchor="middle" x="814" y="-137.75" font-family="Helvetica,sans-Serif" font-size="10.00">luaL_callmeta</text>
</a>
</g>
</g>
<!-- Node2 -->
<g id="Node000002" class="node">
<title>Node2</title>
<g id="a_Node000002"><a xlink:href="lauxlib_8c.html#a64d366034d114de946f1b93199847dab" target="_top" xlink:title=" ">
<polygon fill="white" stroke="#666666" points="740,-207.25 666.25,-207.25 666.25,-188 740,-188 740,-207.25"/>
<text xml:space="preserve" text-anchor="middle" x="703.12" y="-193.75" font-family="Helvetica,sans-Serif" font-size="10.00">luaL_tolstring</text>
</a>
</g>
</g>
<!-- Node1&#45;&gt;Node2 -->
<g id="edge1_Node000001_Node000002" class="edge">
<title>Node1&#45;&gt;Node2</title>
<g id="a_edge1_Node000001_Node000002"><a xlink:title=" ">
<path fill="none" stroke="#63b8ff" d="M783.34,-156.88C764.41,-166.62 740.39,-178.97 723.79,-187.51"/>
<polygon fill="#63b8ff" stroke="#63b8ff" points="784.9,-160.02 792.19,-152.33 781.7,-153.79 784.9,-160.02"/>
</a>
</g>
</g>
<!-- Node15 -->
<g id="Node000015" class="node">
<title>Node15</title>
<g id="a_Node000015"><a xlink:href="lua_8c.html#aaf236b6f4e03469c893b4a32e9a02ab2" target="_top" xlink:title=" ">
<polygon fill="white" stroke="#666666" points="736.25,-133.25 670,-133.25 670,-114 736.25,-114 736.25,-133.25"/>
<text xml:space="preserve" text-anchor="middle" x="703.12" y="-119.75" font-family="Helvetica,sans-Serif" font-size="10.00">msghandler</text>
</a>
</g>
</g>
<!-- Node1&#45;&gt;Node15 -->
<g id="edge16_Node000001_Node000015" class="edge">
<title>Node1&#45;&gt;Node15</title>
<g id="a_edge16_Node000001_Node000015"><a xlink:title=" ">
<path fill="none" stroke="#63b8ff" d="M764.28,-133.57C754.9,-132.02 745.29,-130.43 736.58,-128.99"/>
<polygon fill="#63b8ff" stroke="#63b8ff" points="763.6,-137.01 774.04,-135.18 764.74,-130.1 763.6,-137.01"/>
</a>
</g>
</g>
<!-- Node3 -->
<g id="Node000003" class="node">
<title>Node3</title>
<g id="a_Node000003"><a xlink:href="lstrlib_8c.html#a2ff59847baa24a18f7d78d47dc1d3220" target="_top" xlink:title=" ">
<polygon fill="white" stroke="#666666" points="621.25,-320.25 566.25,-320.25 566.25,-301 621.25,-301 621.25,-320.25"/>
<text xml:space="preserve" text-anchor="middle" x="593.75" y="-306.75" font-family="Helvetica,sans-Serif" font-size="10.00">addliteral</text>
</a>
</g>
</g>
<!-- Node2&#45;&gt;Node3 -->
<g id="edge2_Node000002_Node000003" class="edge">
<title>Node2&#45;&gt;Node3</title>
<g id="a_edge2_Node000002_Node000003"><a xlink:title=" ">
<path fill="none" stroke="#63b8ff" d="M689.12,-216.91C675.73,-235.93 653.58,-265.2 630.25,-286.62 624.66,-291.76 617.89,-296.61 611.77,-300.59"/>
<polygon fill="#63b8ff" stroke="#63b8ff" points="691.95,-218.97 694.75,-208.75 686.19,-214.99 691.95,-218.97"/>
</a>
</g>
</g>
<!-- Node4 -->
<g id="Node000004" class="node">
<title>Node4</title>
<g id="a_Node000004"><a xlink:href="lstrlib_8c.html#ae26a9374857058119e59d0328208c2f2" target="_top" xlink:title=" ">
<polygon fill="white" stroke="#666666" points="521.25,-301.25 461,-301.25 461,-282 521.25,-282 521.25,-301.25"/>
<text xml:space="preserve" text-anchor="middle" x="491.12" y="-287.75" font-family="Helvetica,sans-Serif" font-size="10.00">str_format</text>
</a>
</g>
</g>
<!-- Node2&#45;&gt;Node4 -->
<g id="edge15_Node000002_Node000004" class="edge">
<title>Node2&#45;&gt;Node4</title>
<g id="a_edge15_Node000002_Node000004"><a xlink:title=" ">
<path fill="none" stroke="#63b8ff" d="M684.22,-214.86C670.45,-227.25 650.43,-243.5 630.25,-253.62 595.02,-271.31 550.47,-281.66 521.64,-286.98"/>
<polygon fill="#63b8ff" stroke="#63b8ff" points="686.23,-217.77 691.19,-208.41 681.47,-212.63 686.23,-217.77"/>
</a>
</g>
</g>
<!-- Node5 -->
<g id="Node000005" class="node">
<title>Node5</title>
<g id="a_Node000005"><a xlink:href="ldblib_8c.html#ad72cc206e90f6ebc343460376c950a14" target="_top" xlink:title=" ">
<polygon fill="white" stroke="#666666" points="622.75,-244.25 564.75,-244.25 564.75,-225 622.75,-225 622.75,-244.25"/>
<text xml:space="preserve" text-anchor="middle" x="593.75" y="-230.75" font-family="Helvetica,sans-Serif" font-size="10.00">db_debug</text>
</a>
</g>
</g>
<!-- Node2&#45;&gt;Node5 -->
<g id="edge4_Node000002_Node000005" class="edge">
<title>Node2&#45;&gt;Node5</title>
<g id="a_edge4_Node000002_Node000005"><a xlink:title=" ">
<path fill="none" stroke="#63b8ff" d="M662.18,-211.39C649.14,-215.88 634.93,-220.78 622.94,-224.91"/>
<polygon fill="#63b8ff" stroke="#63b8ff" points="663.04,-214.8 671.35,-208.23 660.76,-208.18 663.04,-214.8"/>
</a>
</g>
</g>
<!-- Node6 -->
<g id="Node000006" class="node">
<title>Node6</title>
<g id="a_Node000006"><a xlink:href="lua_8c.html#a00e95c21ddceedb9bbff9717f82f812c" target="_top" xlink:title=" ">
<polygon fill="white" stroke="#666666" points="626.12,-207.25 561.38,-207.25 561.38,-188 626.12,-188 626.12,-207.25"/>
<text xml:space="preserve" text-anchor="middle" x="593.75" y="-193.75" font-family="Helvetica,sans-Serif" font-size="10.00">get_prompt</text>
</a>
</g>
</g>
<!-- Node2&#45;&gt;Node6 -->
<g id="edge5_Node000002_Node000006" class="edge">
<title>Node2&#45;&gt;Node6</title>
<g id="a_edge5_Node000002_Node000006"><a xlink:title=" ">
<path fill="none" stroke="#63b8ff" d="M654.41,-197.62C644.92,-197.62 635.18,-197.62 626.39,-197.62"/>
<polygon fill="#63b8ff" stroke="#63b8ff" points="654.26,-201.13 664.26,-197.63 654.26,-194.13 654.26,-201.13"/>
</a>
</g>
</g>
<!-- Node13 -->
<g id="Node000013" class="node">
<title>Node13</title>
<g id="a_Node000013"><a xlink:href="lbaselib_8c.html#a865eb761a305c588d6940da5272375b7" target="_top" xlink:title=" ">
<polygon fill="white" stroke="#666666" points="623.5,-170.25 564,-170.25 564,-151 623.5,-151 623.5,-170.25"/>
<text xml:space="preserve" text-anchor="middle" x="593.75" y="-156.75" font-family="Helvetica,sans-Serif" font-size="10.00">luaB_print</text>
</a>
</g>
</g>
<!-- Node2&#45;&gt;Node13 -->
<g id="edge13_Node000002_Node000013" class="edge">
<title>Node2&#45;&gt;Node13</title>
<g id="a_edge13_Node000002_Node000013"><a xlink:title=" ">
<path fill="none" stroke="#63b8ff" d="M661.97,-183.79C649.25,-179.41 635.45,-174.65 623.68,-170.6"/>
<polygon fill="#63b8ff" stroke="#63b8ff" points="660.76,-187.07 671.35,-187.02 663.04,-180.45 660.76,-187.07"/>
</a>
</g>
</g>
<!-- Node14 -->
<g id="Node000014" class="node">
<title>Node14</title>
<g id="a_Node000014"><a xlink:href="lbaselib_8c.html#a15bd8ce3f719c87883bcb578c60677e7" target="_top" xlink:title=" ">
<polygon fill="white" stroke="#666666" points="630.25,-133.25 557.25,-133.25 557.25,-114 630.25,-114 630.25,-133.25"/>
<text xml:space="preserve" text-anchor="middle" x="593.75" y="-119.75" font-family="Helvetica,sans-Serif" font-size="10.00">luaB_tostring</text>
</a>
</g>
</g>
<!-- Node2&#45;&gt;Node14 -->
<g id="edge14_Node000002_Node000014" class="edge">
<title>Node2&#45;&gt;Node14</title>
<g id="a_edge14_Node000002_Node000014"><a xlink:title=" ">
<path fill="none" stroke="#63b8ff" d="M682.18,-180.39C668.16,-168.71 648.7,-153.33 630.25,-141.62 625.82,-138.81 620.89,-136.08 616.15,-133.63"/>
<polygon fill="#63b8ff" stroke="#63b8ff" points="679.88,-183.03 689.77,-186.81 684.4,-177.68 679.88,-183.03"/>
</a>
</g>
</g>
<!-- Node3&#45;&gt;Node4 -->
<g id="edge3_Node000003_Node000004" class="edge">
<title>Node3&#45;&gt;Node4</title>
<g id="a_edge3_Node000003_Node000004"><a xlink:title=" ">
<path fill="none" stroke="#63b8ff" d="M554.76,-303.45C543.8,-301.38 532.01,-299.16 521.64,-297.2"/>
<polygon fill="#63b8ff" stroke="#63b8ff" points="553.82,-306.84 564.3,-305.25 555.12,-299.96 553.82,-306.84"/>
</a>
</g>
</g>
<!-- Node7 -->
<g id="Node000007" class="node">
<title>Node7</title>
<g id="a_Node000007"><a xlink:href="lua_8c.html#a83a7cb21b34095ca93f2a2a863f58fda" target="_top" xlink:title=" ">
<polygon fill="white" stroke="#666666" points="517.12,-207.25 465.12,-207.25 465.12,-188 517.12,-188 517.12,-207.25"/>
<text xml:space="preserve" text-anchor="middle" x="491.12" y="-193.75" font-family="Helvetica,sans-Serif" font-size="10.00">pushline</text>
</a>
</g>
</g>
<!-- Node6&#45;&gt;Node7 -->
<g id="edge6_Node000006_Node000007" class="edge">
<title>Node6&#45;&gt;Node7</title>
<g id="a_edge6_Node000006_Node000007"><a xlink:title=" ">
<path fill="none" stroke="#63b8ff" d="M549.69,-197.62C538.67,-197.62 527.18,-197.62 517.39,-197.62"/>
<polygon fill="#63b8ff" stroke="#63b8ff" points="549.4,-201.13 559.4,-197.63 549.4,-194.13 549.4,-201.13"/>
</a>
</g>
</g>
<!-- Node8 -->
<g id="Node000008" class="node">
<title>Node8</title>
<g id="a_Node000008"><a xlink:href="lua_8c.html#ad7e840f79b193c164616ed9748e68ec6" target="_top" xlink:title=" ">
<polygon fill="white" stroke="#666666" points="313.38,-207.25 264.38,-207.25 264.38,-188 313.38,-188 313.38,-207.25"/>
<text xml:space="preserve" text-anchor="middle" x="288.88" y="-193.75" font-family="Helvetica,sans-Serif" font-size="10.00">loadline</text>
</a>
</g>
</g>
<!-- Node7&#45;&gt;Node8 -->
<g id="edge7_Node000007_Node000008" class="edge">
<title>Node7&#45;&gt;Node8</title>
<g id="a_edge7_Node000007_Node000008"><a xlink:title=" ">
<path fill="none" stroke="#63b8ff" d="M453.93,-210.16C444.62,-212.83 434.53,-215.26 425,-216.62 392.55,-221.26 383.66,-221.53 351.25,-216.62 338.57,-214.71 324.89,-210.68 313.68,-206.82"/>
<polygon fill="#63b8ff" stroke="#63b8ff" points="454.84,-213.54 463.37,-207.27 452.79,-206.85 454.84,-213.54"/>
</a>
</g>
</g>
<!-- Node12 -->
<g id="Node000012" class="node">
<title>Node12</title>
<g id="a_Node000012"><a xlink:href="lua_8c.html#affef5a04b31963c2c3f5028518777e12" target="_top" xlink:title=" ">
<polygon fill="white" stroke="#666666" points="414.12,-207.25 362.12,-207.25 362.12,-188 414.12,-188 414.12,-207.25"/>
<text xml:space="preserve" text-anchor="middle" x="388.12" y="-193.75" font-family="Helvetica,sans-Serif" font-size="10.00">multiline</text>
</a>
</g>
</g>
<!-- Node7&#45;&gt;Node12 -->
<g id="edge11_Node000007_Node000012" class="edge">
<title>Node7&#45;&gt;Node12</title>
<g id="a_edge11_Node000007_Node000012"><a xlink:title=" ">
<path fill="none" stroke="#63b8ff" d="M453.3,-197.62C440.45,-197.62 426.32,-197.62 414.6,-197.62"/>
<polygon fill="#63b8ff" stroke="#63b8ff" points="453.12,-201.13 463.12,-197.63 453.12,-194.13 453.12,-201.13"/>
</a>
</g>
</g>
<!-- Node9 -->
<g id="Node000009" class="node">
<title>Node9</title>
<g id="a_Node000009"><a xlink:href="lua_8c.html#a946f2675cba972bd3580d9046abf2b6b" target="_top" xlink:title=" ">
<polygon fill="white" stroke="#666666" points="215.25,-170.25 162.5,-170.25 162.5,-151 215.25,-151 215.25,-170.25"/>
<text xml:space="preserve" text-anchor="middle" x="188.88" y="-156.75" font-family="Helvetica,sans-Serif" font-size="10.00">doREPL</text>
</a>
</g>
</g>
<!-- Node8&#45;&gt;Node9 -->
<g id="edge8_Node000008_Node000009" class="edge">
<title>Node8&#45;&gt;Node9</title>
<g id="a_edge8_Node000008_Node000009"><a xlink:title=" ">
<path fill="none" stroke="#63b8ff" d="M253.43,-184.62C241.01,-179.93 227.21,-174.72 215.66,-170.36"/>
<polygon fill="#63b8ff" stroke="#63b8ff" points="251.89,-187.78 262.49,-188.04 254.37,-181.23 251.89,-187.78"/>
</a>
</g>
</g>
<!-- Node10 -->
<g id="Node000010" class="node">
<title>Node10</title>
<g id="a_Node000010"><a xlink:href="lua_8c.html#aa0f8bc082ef913cb0a4df437bf5f5019" target="_top" xlink:title=" ">
<polygon fill="white" stroke="#666666" points="115.25,-94.25 73,-94.25 73,-75 115.25,-75 115.25,-94.25"/>
<text xml:space="preserve" text-anchor="middle" x="94.12" y="-80.75" font-family="Helvetica,sans-Serif" font-size="10.00">pmain</text>
</a>
</g>
</g>
<!-- Node9&#45;&gt;Node10 -->
<g id="edge9_Node000009_Node000010" class="edge">
<title>Node9&#45;&gt;Node10</title>
<g id="a_edge9_Node000009_Node000010"><a xlink:title=" ">
<path fill="none" stroke="#63b8ff" d="M161.94,-144.41C158.28,-141.9 154.62,-139.26 151.25,-136.62 134.09,-123.21 115.88,-105.64 105.01,-94.75"/>
<polygon fill="#63b8ff" stroke="#63b8ff" points="159.89,-147.25 170.16,-149.84 163.75,-141.41 159.89,-147.25"/>
</a>
</g>
</g>
<!-- Node11 -->
<g id="Node000011" class="node">
<title>Node11</title>
<g id="a_Node000011"><a xlink:href="lua_8c.html#a3c04138a5bfe5d72780bb7e82a18e627" target="_top" xlink:title=" ">
<polygon fill="white" stroke="#666666" points="37,-94.25 0,-94.25 0,-75 37,-75 37,-94.25"/>
<text xml:space="preserve" text-anchor="middle" x="18.5" y="-80.75" font-family="Helvetica,sans-Serif" font-size="10.00">main</text>
</a>
</g>
</g>
<!-- Node10&#45;&gt;Node11 -->
<g id="edge10_Node000010_Node000011" class="edge">
<title>Node10&#45;&gt;Node11</title>
<g id="a_edge10_Node000010_Node000011"><a xlink:title=" ">
<path fill="none" stroke="#63b8ff" d="M61.12,-84.62C52.99,-84.62 44.54,-84.62 37.4,-84.62"/>
<polygon fill="#63b8ff" stroke="#63b8ff" points="61.1,-88.13 71.1,-84.63 61.1,-81.13 61.1,-88.13"/>
</a>
</g>
</g>
<!-- Node12&#45;&gt;Node8 -->
<g id="edge12_Node000012_Node000008" class="edge">
<title>Node12&#45;&gt;Node8</title>
<g id="a_edge12_Node000012_Node000008"><a xlink:title=" ">
<path fill="none" stroke="#63b8ff" d="M350.47,-197.62C338.17,-197.62 324.77,-197.62 313.71,-197.62"/>
<polygon fill="#63b8ff" stroke="#63b8ff" points="350.31,-201.13 360.31,-197.63 350.31,-194.13 350.31,-201.13"/>
</a>
</g>
</g>
<!-- Node16 -->
<g id="Node000016" class="node">
<title>Node16</title>
<g id="a_Node000016"><a xlink:href="lua_8c.html#a49e04420c2846b52e378ef6272bbf75b" target="_top" xlink:title=" ">
<polygon fill="white" stroke="#666666" points="511.88,-95.25 470.38,-95.25 470.38,-76 511.88,-76 511.88,-95.25"/>
<text xml:space="preserve" text-anchor="middle" x="491.12" y="-81.75" font-family="Helvetica,sans-Serif" font-size="10.00">docall</text>
</a>
</g>
</g>
<!-- Node15&#45;&gt;Node16 -->
<g id="edge17_Node000015_Node000016" class="edge">
<title>Node15&#45;&gt;Node16</title>
<g id="a_edge17_Node000015_Node000016"><a xlink:title=" ">
<path fill="none" stroke="#63b8ff" d="M658.7,-111.24C649.36,-108.83 639.52,-106.48 630.25,-104.62 588.48,-96.26 538.86,-90.42 511.92,-87.58"/>
<polygon fill="#63b8ff" stroke="#63b8ff" points="657.74,-114.6 668.3,-113.78 659.53,-107.84 657.74,-114.6"/>
</a>
</g>
</g>
<!-- Node16&#45;&gt;Node9 -->
<g id="edge29_Node000016_Node000009" class="edge">
<title>Node16&#45;&gt;Node9</title>
<g id="a_edge29_Node000016_Node000009"><a xlink:title=" ">
<path fill="none" stroke="#63b8ff" d="M459.12,-96.9C424.45,-109.14 366.46,-128.56 315.25,-140.62 281.14,-148.66 241.04,-154.43 215.54,-157.65"/>
<polygon fill="#63b8ff" stroke="#63b8ff" points="460.26,-100.2 468.51,-93.55 457.91,-93.61 460.26,-100.2"/>
</a>
</g>
</g>
<!-- Node17 -->
<g id="Node000017" class="node">
<title>Node17</title>
<g id="a_Node000017"><a xlink:href="lua_8c.html#a84103428a06a64ccca2c23a8045f3291" target="_top" xlink:title=" ">
<polygon fill="white" stroke="#666666" points="414.5,-95.25 361.75,-95.25 361.75,-76 414.5,-76 414.5,-95.25"/>
<text xml:space="preserve" text-anchor="middle" x="388.12" y="-81.75" font-family="Helvetica,sans-Serif" font-size="10.00">dochunk</text>
</a>
</g>
</g>
<!-- Node16&#45;&gt;Node17 -->
<g id="edge18_Node000016_Node000017" class="edge">
<title>Node16&#45;&gt;Node17</title>
<g id="a_edge18_Node000016_Node000017"><a xlink:title=" ">
<path fill="none" stroke="#63b8ff" d="M458.95,-85.62C444.79,-85.62 428.23,-85.62 414.8,-85.62"/>
<polygon fill="#63b8ff" stroke="#63b8ff" points="458.66,-89.13 468.66,-85.63 458.66,-82.13 458.66,-89.13"/>
</a>
</g>
</g>
<!-- Node22 -->
<g id="Node000022" class="node">
<title>Node22</title>
<g id="a_Node000022"><a xlink:href="lua_8c.html#ac62266d27f3bed2d1e0a7c9393b95c22" target="_top" xlink:title=" ">
<polygon fill="white" stroke="#666666" points="315.25,-57.25 262.5,-57.25 262.5,-38 315.25,-38 315.25,-57.25"/>
<text xml:space="preserve" text-anchor="middle" x="288.88" y="-43.75" font-family="Helvetica,sans-Serif" font-size="10.00">dolibrary</text>
</a>
</g>
</g>
<!-- Node16&#45;&gt;Node22 -->
<g id="edge27_Node000016_Node000022" class="edge">
<title>Node16&#45;&gt;Node22</title>
<g id="a_edge27_Node000016_Node000022"><a xlink:title=" ">
<path fill="none" stroke="#63b8ff" d="M459.11,-75.59C448.39,-72.38 436.25,-69.04 425,-66.62 387.36,-58.53 343.06,-53.06 315.72,-50.14"/>
<polygon fill="#63b8ff" stroke="#63b8ff" points="458.04,-78.92 468.63,-78.52 460.1,-72.23 458.04,-78.92"/>
</a>
</g>
</g>
<!-- Node23 -->
<g id="Node000023" class="node">
<title>Node23</title>
<g id="a_Node000023"><a xlink:href="lua_8c.html#a5a944babaacde1035f1aa8b4156cc06a" target="_top" xlink:title=" ">
<polygon fill="white" stroke="#666666" points="425,-19.25 351.25,-19.25 351.25,0 425,0 425,-19.25"/>
<text xml:space="preserve" text-anchor="middle" x="388.12" y="-5.75" font-family="Helvetica,sans-Serif" font-size="10.00">handle_script</text>
</a>
</g>
</g>
<!-- Node16&#45;&gt;Node23 -->
<g id="edge30_Node000016_Node000023" class="edge">
<title>Node16&#45;&gt;Node23</title>
<g id="a_edge30_Node000016_Node000023"><a xlink:title=" ">
<path fill="none" stroke="#63b8ff" d="M469.56,-68.47C456.91,-58.11 440.26,-44.79 425,-33.62 418.47,-28.85 411.06,-23.83 404.68,-19.62"/>
<polygon fill="#63b8ff" stroke="#63b8ff" points="467.25,-71.1 477.19,-74.77 471.71,-65.71 467.25,-71.1"/>
</a>
</g>
</g>
<!-- Node18 -->
<g id="Node000018" class="node">
<title>Node18</title>
<g id="a_Node000018"><a xlink:href="lua_8c.html#a9708ea7bd36bee3c2d952cdd787246cc" target="_top" xlink:title=" ">
<polygon fill="white" stroke="#666666" points="308.5,-131.25 269.25,-131.25 269.25,-112 308.5,-112 308.5,-131.25"/>
<text xml:space="preserve" text-anchor="middle" x="288.88" y="-117.75" font-family="Helvetica,sans-Serif" font-size="10.00">dofile</text>
</a>
</g>
</g>
<!-- Node17&#45;&gt;Node18 -->
<g id="edge19_Node000017_Node000018" class="edge">
<title>Node17&#45;&gt;Node18</title>
<g id="a_edge19_Node000017_Node000018"><a xlink:title=" ">
<path fill="none" stroke="#63b8ff" d="M350.76,-99.09C336.46,-104.38 320.63,-110.24 308.7,-114.65"/>
<polygon fill="#63b8ff" stroke="#63b8ff" points="351.74,-102.46 359.9,-95.7 349.31,-95.89 351.74,-102.46"/>
</a>
</g>
</g>
<!-- Node20 -->
<g id="Node000020" class="node">
<title>Node20</title>
<g id="a_Node000020"><a xlink:href="lua_8c.html#ae8312476ab6a3db74a9a5b1a981d023f" target="_top" xlink:title=" ">
<polygon fill="white" stroke="#666666" points="314.12,-94.25 263.62,-94.25 263.62,-75 314.12,-75 314.12,-94.25"/>
<text xml:space="preserve" text-anchor="middle" x="288.88" y="-80.75" font-family="Helvetica,sans-Serif" font-size="10.00">dostring</text>
</a>
</g>
</g>
<!-- Node17&#45;&gt;Node20 -->
<g id="edge23_Node000017_Node000020" class="edge">
<title>Node17&#45;&gt;Node20</title>
<g id="a_edge23_Node000017_Node000020"><a xlink:title=" ">
<path fill="none" stroke="#63b8ff" d="M349.89,-85.24C338.02,-85.12 325.19,-84.99 314.46,-84.88"/>
<polygon fill="#63b8ff" stroke="#63b8ff" points="349.77,-88.74 359.81,-85.34 349.84,-81.74 349.77,-88.74"/>
</a>
</g>
</g>
<!-- Node18&#45;&gt;Node10 -->
<g id="edge22_Node000018_Node000010" class="edge">
<title>Node18&#45;&gt;Node10</title>
<g id="a_edge22_Node000018_Node000010"><a xlink:title=" ">
<path fill="none" stroke="#63b8ff" d="M257.75,-119.36C229.86,-116.86 187.38,-112.04 151.25,-103.62 139.23,-100.83 126.14,-96.48 115.64,-92.64"/>
<polygon fill="#63b8ff" stroke="#63b8ff" points="257.34,-122.84 267.6,-120.19 257.93,-115.86 257.34,-122.84"/>
</a>
</g>
</g>
<!-- Node19 -->
<g id="Node000019" class="node">
<title>Node19</title>
<g id="a_Node000019"><a xlink:href="lua_8c.html#a5d9d02779b2853fbef2aa54e2f8e017e" target="_top" xlink:title=" ">
<polygon fill="white" stroke="#666666" points="226.5,-94.25 151.25,-94.25 151.25,-75 226.5,-75 226.5,-94.25"/>
<text xml:space="preserve" text-anchor="middle" x="188.88" y="-80.75" font-family="Helvetica,sans-Serif" font-size="10.00">handle_luainit</text>
</a>
</g>
</g>
<!-- Node18&#45;&gt;Node19 -->
<g id="edge20_Node000018_Node000019" class="edge">
<title>Node18&#45;&gt;Node19</title>
<g id="a_edge20_Node000018_Node000019"><a xlink:title=" ">
<path fill="none" stroke="#63b8ff" d="M258.44,-110.51C245.11,-105.48 229.47,-99.57 216.49,-94.67"/>
<polygon fill="#63b8ff" stroke="#63b8ff" points="256.97,-113.7 267.56,-113.96 259.44,-107.15 256.97,-113.7"/>
</a>
</g>
</g>
<!-- Node19&#45;&gt;Node10 -->
<g id="edge21_Node000019_Node000010" class="edge">
<title>Node19&#45;&gt;Node10</title>
<g id="a_edge21_Node000019_Node000010"><a xlink:title=" ">
<path fill="none" stroke="#63b8ff" d="M139.52,-84.62C131.11,-84.62 122.78,-84.62 115.65,-84.62"/>
<polygon fill="#63b8ff" stroke="#63b8ff" points="139.44,-88.13 149.44,-84.63 139.44,-81.13 139.44,-88.13"/>
</a>
</g>
</g>
<!-- Node20&#45;&gt;Node19 -->
<g id="edge24_Node000020_Node000019" class="edge">
<title>Node20&#45;&gt;Node19</title>
<g id="a_edge24_Node000020_Node000019"><a xlink:title=" ">
<path fill="none" stroke="#63b8ff" d="M251.73,-84.62C243.61,-84.62 234.98,-84.62 226.83,-84.62"/>
<polygon fill="#63b8ff" stroke="#63b8ff" points="251.63,-88.13 261.63,-84.63 251.63,-81.13 251.63,-88.13"/>
</a>
</g>
</g>
<!-- Node21 -->
<g id="Node000021" class="node">
<title>Node21</title>
<g id="a_Node000021"><a xlink:href="lua_8c.html#a95a376c847572def6b3f78d33a7bc881" target="_top" xlink:title=" ">
<polygon fill="white" stroke="#666666" points="213,-57.25 164.75,-57.25 164.75,-38 213,-38 213,-57.25"/>
<text xml:space="preserve" text-anchor="middle" x="188.88" y="-43.75" font-family="Helvetica,sans-Serif" font-size="10.00">runargs</text>
</a>
</g>
</g>
<!-- Node20&#45;&gt;Node21 -->
<g id="edge25_Node000020_Node000021" class="edge">
<title>Node20&#45;&gt;Node21</title>
<g id="a_edge25_Node000020_Node000021"><a xlink:title=" ">
<path fill="none" stroke="#63b8ff" d="M252.58,-71.3C239.5,-66.36 225,-60.89 213.25,-56.45"/>
<polygon fill="#63b8ff" stroke="#63b8ff" points="251.14,-74.5 261.73,-74.75 253.61,-67.95 251.14,-74.5"/>
</a>
</g>
</g>
<!-- Node21&#45;&gt;Node10 -->
<g id="edge26_Node000021_Node000010" class="edge">
<title>Node21&#45;&gt;Node10</title>
<g id="a_edge26_Node000021_Node000010"><a xlink:title=" ">
<path fill="none" stroke="#63b8ff" d="M154.09,-61.1C141.22,-66.24 126.96,-71.93 115.68,-76.42"/>
<polygon fill="#63b8ff" stroke="#63b8ff" points="155.07,-64.48 163.06,-57.52 152.48,-57.98 155.07,-64.48"/>
</a>
</g>
</g>
<!-- Node22&#45;&gt;Node21 -->
<g id="edge28_Node000022_Node000021" class="edge">
<title>Node22&#45;&gt;Node21</title>
<g id="a_edge28_Node000022_Node000021"><a xlink:title=" ">
<path fill="none" stroke="#63b8ff" d="M250.99,-47.62C238.41,-47.62 224.69,-47.62 213.44,-47.62"/>
<polygon fill="#63b8ff" stroke="#63b8ff" points="250.61,-51.13 260.61,-47.63 250.61,-44.13 250.61,-51.13"/>
</a>
</g>
</g>
<!-- Node23&#45;&gt;Node10 -->
<g id="edge31_Node000023_Node000010" class="edge">
<title>Node23&#45;&gt;Node10</title>
<g id="a_edge31_Node000023_Node000010"><a xlink:title=" ">
<path fill="none" stroke="#63b8ff" d="M339.53,-4.15C290.1,-0.54 211.69,-0.74 151.25,-28.62 129.25,-38.78 110.97,-61.44 101.7,-74.61"/>
<polygon fill="#63b8ff" stroke="#63b8ff" points="339.07,-7.62 349.32,-4.96 339.64,-0.65 339.07,-7.62"/>
</a>
</g>
</g>
</g>
</svg>
