<?xml version="1.0" encoding="UTF-8" standalone="no"?>
<!DOCTYPE svg PUBLIC "-//W3C//DTD SVG 1.1//EN"
 "http://www.w3.org/Graphics/SVG/1.1/DTD/svg11.dtd">
<!-- Generated by graphviz version 13.1.0 (20250701.0955)
 -->
<!-- Title: luaL_getsubtable Pages: 1 -->
<!--zoomable 140 -->

<svg id="main" version="1.1" xmlns="http://www.w3.org/2000/svg" xmlns:xlink="http://www.w3.org/1999/xlink" xml:space="preserve" onload="init(evt)">

<style type="text/css"><![CDATA[
.node, .edge {opacity: 0.7;}
.node.selected, .edge.selected {opacity: 1;}
.edge:hover path { stroke: red; }
.edge:hover polygon { stroke: red; fill: red; }
]]></style>

<defs>
  <circle id="rim" cx="0" cy="0" r="7"/>
  <circle id="rim2" cx="0" cy="0" r="3.5"/>
  <g id="zoomPlus">
    <use xlink:href="#rim" fill="#404040"><set attributeName="fill" to="#808080" begin="zoomplus.mouseover" end="zoomplus.mouseout"/></use>
    <path d="M-4,0h8M0,-4v8" fill="none" stroke="white" stroke-width="1.5" pointer-events="none"/>
  </g>
  <g id="zoomMin">
    <use xlink:href="#rim" fill="#404040"><set attributeName="fill" to="#808080" begin="zoomminus.mouseover" end="zoomminus.mouseout"/></use>
    <path d="M-4,0h8" fill="none" stroke="white" stroke-width="1.5" pointer-events="none"/>
  </g>
  <g id="arrowUp" transform="translate(30 24)">
    <use xlink:href="#rim"/>
    <path pointer-events="none" fill="none" stroke="white" stroke-width="1.5" d="M0,-3.0v7 M-2.5,-0.5L0,-3.0L2.5,-0.5"/>
  </g>
  <g id="arrowRight" transform="rotate(90) translate(36 -43)">
    <use xlink:href="#rim"/>
    <path pointer-events="none" fill="none" stroke="white" stroke-width="1.5" d="M0,-3.0v7 M-2.5,-0.5L0,-3.0L2.5,-0.5"/>
  </g>
  <g id="arrowDown" transform="rotate(180) translate(-30 -48)">
    <use xlink:href="#rim"/>
    <path pointer-events="none" fill="none" stroke="white" stroke-width="1.5" d="M0,-3.0v7 M-2.5,-0.5L0,-3.0L2.5,-0.5"/>
  </g>
  <g id="arrowLeft" transform="rotate(270) translate(-36 17)">
    <use xlink:href="#rim"/>
    <path pointer-events="none" fill="none" stroke="white" stroke-width="1.5" d="M0,-3.0v7 M-2.5,-0.5L0,-3.0L2.5,-0.5"/>
  </g>
  <g id="resetDef">
    <use xlink:href="#rim2" fill="#404040"><set attributeName="fill" to="#808080" begin="reset.mouseover" end="reset.mouseout"/></use>
  </g>
</defs>
<script type="application/ecmascript">
var viewWidth = 1677;
var viewHeight = 140;
var sectionId = 'dynsection-28';
</script>
<script type="application/ecmascript" xlink:href="svg.min.js"/>
<svg id="graph" class="graph">
<g id="viewport">
<title>luaL_getsubtable</title>
<!-- Node1 -->
<g id="Node000001" class="node">
<title>Node1</title>
<g id="a_Node000001"><a xlink:title=" ">
<polygon fill="#999999" stroke="#666666" points="1668.75,-75.25 1579.25,-75.25 1579.25,-56 1668.75,-56 1668.75,-75.25"/>
<text xml:space="preserve" text-anchor="middle" x="1624" y="-61.75" font-family="Helvetica,sans-Serif" font-size="10.00">luaL_getsubtable</text>
</a>
</g>
</g>
<!-- Node2 -->
<g id="Node000002" class="node">
<title>Node2</title>
<g id="a_Node000002"><a xlink:href="loadlib_8c.html#a5988b4ef518a60291ed34e836f549b34" target="_top" xlink:title=" ">
<polygon fill="white" stroke="#666666" points="1543.25,-132.25 1459,-132.25 1459,-113 1543.25,-113 1543.25,-132.25"/>
<text xml:space="preserve" text-anchor="middle" x="1501.12" y="-118.75" font-family="Helvetica,sans-Serif" font-size="10.00">createclibstable</text>
</a>
</g>
</g>
<!-- Node1&#45;&gt;Node2 -->
<g id="edge1_Node000001_Node000002" class="edge">
<title>Node1&#45;&gt;Node2</title>
<g id="a_edge1_Node000001_Node000002"><a xlink:title=" ">
<path fill="none" stroke="#63b8ff" d="M1591.4,-80.53C1569.91,-90.66 1542.08,-103.79 1523.24,-112.67"/>
<polygon fill="#63b8ff" stroke="#63b8ff" points="1592.75,-83.76 1600.3,-76.33 1589.76,-77.43 1592.75,-83.76"/>
</a>
</g>
</g>
<!-- Node3 -->
<g id="Node000003" class="node">
<title>Node3</title>
<g id="a_Node000003"><a xlink:href="loadlib_8c.html#ab732e1ec253c9b8dc0c2ce4d74cb0083" target="_top" xlink:title=" ">
<polygon fill="white" stroke="#666666" points="1423,-95.25 1331.25,-95.25 1331.25,-76 1423,-76 1423,-95.25"/>
<text xml:space="preserve" text-anchor="middle" x="1377.12" y="-81.75" font-family="Helvetica,sans-Serif" font-size="10.00">luaopen_package</text>
</a>
</g>
</g>
<!-- Node1&#45;&gt;Node3 -->
<g id="edge22_Node000001_Node000003" class="edge">
<title>Node1&#45;&gt;Node3</title>
<g id="a_edge22_Node000001_Node000003"><a xlink:title=" ">
<path fill="none" stroke="#63b8ff" d="M1567.69,-70.14C1524.15,-73.7 1464.23,-78.59 1423.49,-81.92"/>
<polygon fill="#63b8ff" stroke="#63b8ff" points="1567.75,-73.65 1577.43,-69.35 1567.18,-66.67 1567.75,-73.65"/>
</a>
</g>
</g>
<!-- Node16 -->
<g id="Node000016" class="node">
<title>Node16</title>
<g id="a_Node000016"><a xlink:href="ldblib_8c.html#aa0c362d361f8f9bd8a002c34c393e2b0" target="_top" xlink:title=" ">
<polygon fill="white" stroke="#666666" points="1534.25,-56.25 1468,-56.25 1468,-37 1534.25,-37 1534.25,-56.25"/>
<text xml:space="preserve" text-anchor="middle" x="1501.12" y="-42.75" font-family="Helvetica,sans-Serif" font-size="10.00">db_sethook</text>
</a>
</g>
</g>
<!-- Node1&#45;&gt;Node16 -->
<g id="edge16_Node000001_Node000016" class="edge">
<title>Node1&#45;&gt;Node16</title>
<g id="a_edge16_Node000001_Node000016"><a xlink:title=" ">
<path fill="none" stroke="#63b8ff" d="M1567.78,-56.94C1556.4,-55.16 1544.76,-53.33 1534.51,-51.72"/>
<polygon fill="#63b8ff" stroke="#63b8ff" points="1567.1,-60.38 1577.52,-58.48 1568.19,-53.47 1567.1,-60.38"/>
</a>
</g>
</g>
<!-- Node17 -->
<g id="Node000017" class="node">
<title>Node17</title>
<g id="a_Node000017"><a xlink:href="lauxlib_8c.html#a3cb8205f86c838d8f82b7d2360b1b0f4" target="_top" xlink:title=" ">
<polygon fill="white" stroke="#666666" points="1536.88,-19.25 1465.38,-19.25 1465.38,0 1536.88,0 1536.88,-19.25"/>
<text xml:space="preserve" text-anchor="middle" x="1501.12" y="-5.75" font-family="Helvetica,sans-Serif" font-size="10.00">luaL_requiref</text>
</a>
</g>
</g>
<!-- Node1&#45;&gt;Node17 -->
<g id="edge17_Node000001_Node000017" class="edge">
<title>Node1&#45;&gt;Node17</title>
<g id="a_edge17_Node000001_Node000017"><a xlink:title=" ">
<path fill="none" stroke="#63b8ff" d="M1592.31,-50.72C1577.53,-43.61 1559.53,-35.06 1543.25,-27.62 1537.44,-24.97 1531.13,-22.17 1525.24,-19.59"/>
<polygon fill="#63b8ff" stroke="#63b8ff" points="1590.54,-53.75 1601.07,-54.94 1593.58,-47.45 1590.54,-53.75"/>
</a>
</g>
</g>
<!-- Node2&#45;&gt;Node3 -->
<g id="edge2_Node000002_Node000003" class="edge">
<title>Node2&#45;&gt;Node3</title>
<g id="a_edge2_Node000002_Node000003"><a xlink:title=" ">
<path fill="none" stroke="#63b8ff" d="M1455.9,-109.21C1441.22,-104.76 1425.13,-99.88 1411.42,-95.72"/>
<polygon fill="#63b8ff" stroke="#63b8ff" points="1454.75,-112.52 1465.34,-112.08 1456.79,-105.82 1454.75,-112.52"/>
</a>
</g>
</g>
<!-- Node4 -->
<g id="Node000004" class="node">
<title>Node4</title>
<g id="a_Node000004"><a xlink:href="script_8c.html#a5ae0734cc912e06c627951a52d735418" target="_top" xlink:title=" ">
<polygon fill="white" stroke="#666666" points="1295.25,-76.25 1185.5,-76.25 1185.5,-57 1295.25,-57 1295.25,-76.25"/>
<text xml:space="preserve" text-anchor="middle" x="1240.38" y="-62.75" font-family="Helvetica,sans-Serif" font-size="10.00">open_sandboxed_libs</text>
</a>
</g>
</g>
<!-- Node3&#45;&gt;Node4 -->
<g id="edge3_Node000003_Node000004" class="edge">
<title>Node3&#45;&gt;Node4</title>
<g id="a_edge3_Node000003_Node000004"><a xlink:title=" ">
<path fill="none" stroke="#63b8ff" d="M1319.49,-77.64C1311.58,-76.52 1303.47,-75.38 1295.61,-74.27"/>
<polygon fill="#63b8ff" stroke="#63b8ff" points="1318.99,-81.1 1329.38,-79.03 1319.97,-74.17 1318.99,-81.1"/>
</a>
</g>
</g>
<!-- Node5 -->
<g id="Node000005" class="node">
<title>Node5</title>
<g id="a_Node000005"><a xlink:href="script_8c.html#a84508ce31c18af8792081eb1cdfc77b8" target="_top" xlink:title=" ">
<polygon fill="white" stroke="#666666" points="1149.5,-76.25 1081,-76.25 1081,-57 1149.5,-57 1149.5,-76.25"/>
<text xml:space="preserve" text-anchor="middle" x="1115.25" y="-62.75" font-family="Helvetica,sans-Serif" font-size="10.00">script_begin</text>
</a>
</g>
</g>
<!-- Node4&#45;&gt;Node5 -->
<g id="edge4_Node000004_Node000005" class="edge">
<title>Node4&#45;&gt;Node5</title>
<g id="a_edge4_Node000004_Node000005"><a xlink:title=" ">
<path fill="none" stroke="#63b8ff" d="M1173.73,-66.62C1165.45,-66.62 1157.28,-66.62 1149.81,-66.62"/>
<polygon fill="#63b8ff" stroke="#63b8ff" points="1173.5,-70.13 1183.5,-66.63 1173.5,-63.13 1173.5,-70.13"/>
</a>
</g>
</g>
<!-- Node6 -->
<g id="Node000006" class="node">
<title>Node6</title>
<g id="a_Node000006"><a xlink:href="game__scene_8c.html#ab923ed4c6ccad95026e85e252071716d" target="_top" xlink:title=" ">
<polygon fill="white" stroke="#666666" points="1045,-76.25 925.5,-76.25 925.5,-57 1045,-57 1045,-76.25"/>
<text xml:space="preserve" text-anchor="middle" x="985.25" y="-62.75" font-family="Helvetica,sans-Serif" font-size="10.00">PGB_GameScene_new</text>
</a>
</g>
</g>
<!-- Node5&#45;&gt;Node6 -->
<g id="edge5_Node000005_Node000006" class="edge">
<title>Node5&#45;&gt;Node6</title>
<g id="a_edge5_Node000005_Node000006"><a xlink:title=" ">
<path fill="none" stroke="#63b8ff" d="M1069.28,-66.62C1061.55,-66.62 1053.42,-66.62 1045.4,-66.62"/>
<polygon fill="#63b8ff" stroke="#63b8ff" points="1069.11,-70.13 1079.11,-66.63 1069.11,-63.13 1069.11,-70.13"/>
</a>
</g>
</g>
<!-- Node7 -->
<g id="Node000007" class="node">
<title>Node7</title>
<g id="a_Node000007"><a xlink:href="library__scene_8c.html#a0728002045c9cbbd68bdd34897b28da6" target="_top" xlink:title=" ">
<polygon fill="white" stroke="#666666" points="889.5,-76.25 755.75,-76.25 755.75,-57 889.5,-57 889.5,-76.25"/>
<text xml:space="preserve" text-anchor="middle" x="822.62" y="-62.75" font-family="Helvetica,sans-Serif" font-size="10.00">PGB_LibraryScene_update</text>
</a>
</g>
</g>
<!-- Node6&#45;&gt;Node7 -->
<g id="edge6_Node000006_Node000007" class="edge">
<title>Node6&#45;&gt;Node7</title>
<g id="a_edge6_Node000006_Node000007"><a xlink:title=" ">
<path fill="none" stroke="#63b8ff" d="M914.09,-66.62C906.04,-66.62 897.84,-66.62 889.84,-66.62"/>
<polygon fill="#63b8ff" stroke="#63b8ff" points="913.84,-70.13 923.84,-66.63 913.84,-63.13 913.84,-70.13"/>
</a>
</g>
</g>
<!-- Node8 -->
<g id="Node000008" class="node">
<title>Node8</title>
<g id="a_Node000008"><a xlink:href="library__scene_8c.html#aa5c386d39121b53fba45d899df654188" target="_top" xlink:title=" ">
<polygon fill="white" stroke="#666666" points="719.75,-76.25 597.25,-76.25 597.25,-57 719.75,-57 719.75,-76.25"/>
<text xml:space="preserve" text-anchor="middle" x="658.5" y="-62.75" font-family="Helvetica,sans-Serif" font-size="10.00">PGB_LibraryScene_new</text>
</a>
</g>
</g>
<!-- Node7&#45;&gt;Node8 -->
<g id="edge7_Node000007_Node000008" class="edge">
<title>Node7&#45;&gt;Node8</title>
<g id="a_edge7_Node000007_Node000008"><a xlink:title=" ">
<path fill="none" stroke="#63b8ff" d="M744.29,-66.62C736.19,-66.62 728.04,-66.62 720.16,-66.62"/>
<polygon fill="#63b8ff" stroke="#63b8ff" points="744.17,-70.13 754.17,-66.63 744.17,-63.13 744.17,-70.13"/>
</a>
</g>
</g>
<!-- Node9 -->
<g id="Node000009" class="node">
<title>Node9</title>
<g id="a_Node000009"><a xlink:href="app_8c.html#ab80501f53b757a79772b96ec99e3dc7e" target="_top" xlink:title=" ">
<polygon fill="white" stroke="#666666" points="534.25,-119.25 441.75,-119.25 441.75,-100 534.25,-100 534.25,-119.25"/>
<text xml:space="preserve" text-anchor="middle" x="488" y="-105.75" font-family="Helvetica,sans-Serif" font-size="10.00">PGB_goToLibrary</text>
</a>
</g>
</g>
<!-- Node8&#45;&gt;Node9 -->
<g id="edge8_Node000008_Node000009" class="edge">
<title>Node8&#45;&gt;Node9</title>
<g id="a_edge8_Node000008_Node000009"><a xlink:title=" ">
<path fill="none" stroke="#63b8ff" d="M606.84,-79.55C581.76,-85.95 551.92,-93.57 528.55,-99.53"/>
<polygon fill="#63b8ff" stroke="#63b8ff" points="607.7,-82.94 616.53,-77.08 605.97,-76.16 607.7,-82.94"/>
</a>
</g>
</g>
<!-- Node12 -->
<g id="Node000012" class="node">
<title>Node12</title>
<g id="a_Node000012"><a xlink:href="image__conversion__scene_8c.html#a60d0e43ab25a8639bbb6d1f4e758edd3" target="_top" xlink:title=" ">
<polygon fill="white" stroke="#666666" points="561.25,-81.88 414.75,-81.88 414.75,-51.38 561.25,-51.38 561.25,-81.88"/>
<text xml:space="preserve" text-anchor="start" x="422.75" y="-68.38" font-family="Helvetica,sans-Serif" font-size="10.00">PGB_ImageConversionScene</text>
<text xml:space="preserve" text-anchor="middle" x="488" y="-57.12" font-family="Helvetica,sans-Serif" font-size="10.00">_update</text>
</a>
</g>
</g>
<!-- Node8&#45;&gt;Node12 -->
<g id="edge11_Node000008_Node000012" class="edge">
<title>Node8&#45;&gt;Node12</title>
<g id="a_edge11_Node000008_Node000012"><a xlink:title=" ">
<path fill="none" stroke="#63b8ff" d="M585.9,-66.62C577.86,-66.62 569.65,-66.62 561.6,-66.62"/>
<polygon fill="#63b8ff" stroke="#63b8ff" points="585.63,-70.13 595.63,-66.63 585.63,-63.13 585.63,-70.13"/>
</a>
</g>
</g>
<!-- Node14 -->
<g id="Node000014" class="node">
<title>Node14</title>
<g id="a_Node000014"><a xlink:href="app_8c.html#af256ea7a9c51fcbd49cb0007facbb8ea" target="_top" xlink:title=" ">
<polygon fill="white" stroke="#666666" points="166.25,-54.25 111.25,-54.25 111.25,-35 166.25,-35 166.25,-54.25"/>
<text xml:space="preserve" text-anchor="middle" x="138.75" y="-40.75" font-family="Helvetica,sans-Serif" font-size="10.00">PGB_init</text>
</a>
</g>
</g>
<!-- Node8&#45;&gt;Node14 -->
<g id="edge15_Node000008_Node000014" class="edge">
<title>Node8&#45;&gt;Node14</title>
<g id="a_edge15_Node000008_Node000014"><a xlink:title=" ">
<path fill="none" stroke="#63b8ff" d="M614.41,-53.49C597.95,-49.11 578.89,-44.79 561.25,-42.62 413.08,-24.43 233.4,-36.5 166.52,-42.16"/>
<polygon fill="#63b8ff" stroke="#63b8ff" points="613.32,-56.82 623.89,-56.11 615.18,-50.08 613.32,-56.82"/>
</a>
</g>
</g>
<!-- Node10 -->
<g id="Node000010" class="node">
<title>Node10</title>
<g id="a_Node000010"><a xlink:href="game__scene_8c.html#a6a4a6f0408da311dc566eb187e497889" target="_top" xlink:title=" ">
<polygon fill="white" stroke="#666666" points="360,-119.25 227.75,-119.25 227.75,-100 360,-100 360,-119.25"/>
<text xml:space="preserve" text-anchor="middle" x="293.88" y="-105.75" font-family="Helvetica,sans-Serif" font-size="10.00">PGB_LibraryConfirmModal</text>
</a>
</g>
</g>
<!-- Node9&#45;&gt;Node10 -->
<g id="edge9_Node000009_Node000010" class="edge">
<title>Node9&#45;&gt;Node10</title>
<g id="a_edge9_Node000009_Node000010"><a xlink:title=" ">
<path fill="none" stroke="#63b8ff" d="M430.03,-109.62C408.17,-109.62 383.05,-109.62 360.44,-109.62"/>
<polygon fill="#63b8ff" stroke="#63b8ff" points="429.96,-113.13 439.96,-109.63 429.96,-106.13 429.96,-113.13"/>
</a>
</g>
</g>
<!-- Node11 -->
<g id="Node000011" class="node">
<title>Node11</title>
<g id="a_Node000011"><a xlink:href="game__scene_8c.html#a113df24bb94bafcdbb9235ec8648e02f" target="_top" xlink:title=" ">
<polygon fill="white" stroke="#666666" points="173,-119.25 104.5,-119.25 104.5,-100 173,-100 173,-119.25"/>
<text xml:space="preserve" text-anchor="middle" x="138.75" y="-105.75" font-family="Helvetica,sans-Serif" font-size="10.00">__section__</text>
</a>
</g>
</g>
<!-- Node10&#45;&gt;Node11 -->
<g id="edge10_Node000010_Node000011" class="edge">
<title>Node10&#45;&gt;Node11</title>
<g id="a_edge10_Node000010_Node000011"><a xlink:title=" ">
<path fill="none" stroke="#63b8ff" d="M216.03,-109.62C200.98,-109.62 185.96,-109.62 173.27,-109.62"/>
<polygon fill="#63b8ff" stroke="#63b8ff" points="215.98,-113.13 225.98,-109.63 215.98,-106.13 215.98,-113.13"/>
</a>
</g>
</g>
<!-- Node13 -->
<g id="Node000013" class="node">
<title>Node13</title>
<g id="a_Node000013"><a xlink:href="image__conversion__scene_8c.html#aa3559936491ddf78b9cf06fcbdd32d22" target="_top" xlink:title=" ">
<polygon fill="white" stroke="#666666" points="378.75,-74.25 209,-74.25 209,-55 378.75,-55 378.75,-74.25"/>
<text xml:space="preserve" text-anchor="middle" x="293.88" y="-60.75" font-family="Helvetica,sans-Serif" font-size="10.00">PGB_ImageConversionScene_new</text>
</a>
</g>
</g>
<!-- Node12&#45;&gt;Node13 -->
<g id="edge12_Node000012_Node000013" class="edge">
<title>Node12&#45;&gt;Node13</title>
<g id="a_edge12_Node000012_Node000013"><a xlink:title=" ">
<path fill="none" stroke="#63b8ff" d="M402.94,-65.75C395.07,-65.67 387.09,-65.58 379.22,-65.5"/>
<polygon fill="#63b8ff" stroke="#63b8ff" points="402.82,-69.25 412.85,-65.85 402.89,-62.25 402.82,-69.25"/>
</a>
</g>
</g>
<!-- Node13&#45;&gt;Node14 -->
<g id="edge13_Node000013_Node000014" class="edge">
<title>Node13&#45;&gt;Node14</title>
<g id="a_edge13_Node000013_Node000014"><a xlink:title=" ">
<path fill="none" stroke="#63b8ff" d="M204.38,-53.07C190.72,-51.28 177.57,-49.56 166.75,-48.15"/>
<polygon fill="#63b8ff" stroke="#63b8ff" points="203.55,-56.49 213.91,-54.31 204.45,-49.55 203.55,-56.49"/>
</a>
</g>
</g>
<!-- Node15 -->
<g id="Node000015" class="node">
<title>Node15</title>
<g id="a_Node000015"><a xlink:href="main_8c.html#a77034286b8c64d0735c69535c5e9b732" target="_top" xlink:title=" ">
<polygon fill="white" stroke="#666666" points="68.5,-54.25 0,-54.25 0,-35 68.5,-35 68.5,-54.25"/>
<text xml:space="preserve" text-anchor="middle" x="34.25" y="-40.75" font-family="Helvetica,sans-Serif" font-size="10.00">__section__</text>
</a>
</g>
</g>
<!-- Node14&#45;&gt;Node15 -->
<g id="edge14_Node000014_Node000015" class="edge">
<title>Node14&#45;&gt;Node15</title>
<g id="a_edge14_Node000014_Node000015"><a xlink:title=" ">
<path fill="none" stroke="#63b8ff" d="M99.48,-44.62C89.46,-44.62 78.74,-44.62 68.97,-44.62"/>
<polygon fill="#63b8ff" stroke="#63b8ff" points="99.31,-48.13 109.31,-44.63 99.31,-41.13 99.31,-48.13"/>
</a>
</g>
</g>
<!-- Node17&#45;&gt;Node4 -->
<g id="edge21_Node000017_Node000004" class="edge">
<title>Node17&#45;&gt;Node4</title>
<g id="a_edge21_Node000017_Node000004"><a xlink:title=" ">
<path fill="none" stroke="#63b8ff" d="M1454.37,-21.18C1444.06,-23.7 1433.17,-26.31 1423,-28.62 1378.87,-38.67 1328.47,-49.14 1291.98,-56.54"/>
<polygon fill="#63b8ff" stroke="#63b8ff" points="1454.91,-24.65 1463.78,-18.86 1453.23,-17.86 1454.91,-24.65"/>
</a>
</g>
</g>
<!-- Node18 -->
<g id="Node000018" class="node">
<title>Node18</title>
<g id="a_Node000018"><a xlink:href="linit_8c.html#a975e179a76941267d2fa773a703d6199" target="_top" xlink:title=" ">
<polygon fill="white" stroke="#666666" points="1414.75,-19.25 1339.5,-19.25 1339.5,0 1414.75,0 1414.75,-19.25"/>
<text xml:space="preserve" text-anchor="middle" x="1377.12" y="-5.75" font-family="Helvetica,sans-Serif" font-size="10.00">luaL_openlibs</text>
</a>
</g>
</g>
<!-- Node17&#45;&gt;Node18 -->
<g id="edge18_Node000017_Node000018" class="edge">
<title>Node17&#45;&gt;Node18</title>
<g id="a_edge18_Node000017_Node000018"><a xlink:title=" ">
<path fill="none" stroke="#63b8ff" d="M1453.78,-9.62C1441.03,-9.62 1427.37,-9.62 1415.22,-9.62"/>
<polygon fill="#63b8ff" stroke="#63b8ff" points="1453.65,-13.13 1463.65,-9.63 1453.65,-6.13 1453.65,-13.13"/>
</a>
</g>
</g>
<!-- Node19 -->
<g id="Node000019" class="node">
<title>Node19</title>
<g id="a_Node000019"><a xlink:href="lua_8c.html#aa0f8bc082ef913cb0a4df437bf5f5019" target="_top" xlink:title=" ">
<polygon fill="white" stroke="#666666" points="1261.5,-19.25 1219.25,-19.25 1219.25,0 1261.5,0 1261.5,-19.25"/>
<text xml:space="preserve" text-anchor="middle" x="1240.38" y="-5.75" font-family="Helvetica,sans-Serif" font-size="10.00">pmain</text>
</a>
</g>
</g>
<!-- Node18&#45;&gt;Node19 -->
<g id="edge19_Node000018_Node000019" class="edge">
<title>Node18&#45;&gt;Node19</title>
<g id="a_edge19_Node000018_Node000019"><a xlink:title=" ">
<path fill="none" stroke="#63b8ff" d="M1327.79,-9.62C1305.12,-9.62 1279.3,-9.62 1261.84,-9.62"/>
<polygon fill="#63b8ff" stroke="#63b8ff" points="1327.79,-13.13 1337.79,-9.63 1327.79,-6.13 1327.79,-13.13"/>
</a>
</g>
</g>
<!-- Node20 -->
<g id="Node000020" class="node">
<title>Node20</title>
<g id="a_Node000020"><a xlink:href="lua_8c.html#a3c04138a5bfe5d72780bb7e82a18e627" target="_top" xlink:title=" ">
<polygon fill="white" stroke="#666666" points="1133.75,-19.25 1096.75,-19.25 1096.75,0 1133.75,0 1133.75,-19.25"/>
<text xml:space="preserve" text-anchor="middle" x="1115.25" y="-5.75" font-family="Helvetica,sans-Serif" font-size="10.00">main</text>
</a>
</g>
</g>
<!-- Node19&#45;&gt;Node20 -->
<g id="edge20_Node000019_Node000020" class="edge">
<title>Node19&#45;&gt;Node20</title>
<g id="a_edge20_Node000019_Node000020"><a xlink:title=" ">
<path fill="none" stroke="#63b8ff" d="M1207.34,-9.62C1184.01,-9.62 1153.25,-9.62 1134.12,-9.62"/>
<polygon fill="#63b8ff" stroke="#63b8ff" points="1207.25,-13.13 1217.25,-9.63 1207.25,-6.13 1207.25,-13.13"/>
</a>
</g>
</g>
</g>
</svg>

<g id="navigator" transform="translate(0 0)" fill="#404254">
  <rect fill="#f2f5e9" fill-opacity="0.5" stroke="#606060" stroke-width=".5" x="0" y="0" width="60" height="60"/>
  <use id="zoomplus" xlink:href="#zoomPlus" x="17" y="9" onmousedown="handleZoom(evt,'in')"/>
  <use id="zoomminus" xlink:href="#zoomMin" x="42" y="9" onmousedown="handleZoom(evt,'out')"/>
  <use id="reset" xlink:href="#resetDef" x="30" y="36" onmousedown="handleReset()"/>
   <use id="arrowup" xlink:href="#arrowUp" x="0" y="0" onmousedown="handlePan(0,-1)"/>
  <use id="arrowright" xlink:href="#arrowRight" x="0" y="0" onmousedown="handlePan(1,0)"/>
  <use id="arrowdown" xlink:href="#arrowDown" x="0" y="0" onmousedown="handlePan(0,1)"/>
  <use id="arrowleft" xlink:href="#arrowLeft" x="0" y="0" onmousedown="handlePan(-1,0)"/>
</g>
<svg viewBox="0 0 15 15" width="100%" height="30px" preserveAspectRatio="xMaxYMin meet">
 <g id="arrow_out" transform="scale(0.3 0.3)">
  <a xlink:href="lauxlib_8c_a4cd66d7b986316711233243a268e8e04_icgraph_org.svg" target="_base">
   <rect id="button" ry="5" rx="5" y="6" x="6" height="38" width="38"
        fill="#f2f5e9" fill-opacity="0.5" stroke="#606060" stroke-width="1.0"/>
   <path id="arrow"
     d="M 11.500037,31.436501 C 11.940474,20.09759 22.043105,11.32322 32.158766,21.979434 L 37.068811,17.246167 C 37.068811,17.246167 37.088388,32 37.088388,32 L 22.160133,31.978069 C 22.160133,31.978069 26.997745,27.140456 26.997745,27.140456 C 18.528582,18.264221 13.291696,25.230495 11.500037,31.436501 z"
     style="fill:#404040;"/>
  </a>
 </g>
</svg>

<style type='text/css'>
<![CDATA[
[data-mouse-over-selected='false'] { opacity: 0.7; }
[data-mouse-over-selected='true']  { opacity: 1.0; }
]]>
</style>
<script type="application/ecmascript"><![CDATA[
document.addEventListener('DOMContentLoaded', (event) => {
  highlightEdges();
  highlightAdjacentNodes();
});
]]></script>
</svg>
