<?xml version="1.0" encoding="UTF-8" standalone="no"?>
<!DOCTYPE svg PUBLIC "-//W3C//DTD SVG 1.1//EN"
 "http://www.w3.org/Graphics/SVG/1.1/DTD/svg11.dtd">
<!-- Generated by graphviz version 13.1.0 (20250701.0955)
 -->
<!-- Title: checkcontrol Pages: 1 -->
<!--zoomable 106 -->

<svg id="main" version="1.1" xmlns="http://www.w3.org/2000/svg" xmlns:xlink="http://www.w3.org/1999/xlink" xml:space="preserve" onload="init(evt)">

<style type="text/css"><![CDATA[
.node, .edge {opacity: 0.7;}
.node.selected, .edge.selected {opacity: 1;}
.edge:hover path { stroke: red; }
.edge:hover polygon { stroke: red; fill: red; }
]]></style>

<defs>
  <circle id="rim" cx="0" cy="0" r="7"/>
  <circle id="rim2" cx="0" cy="0" r="3.5"/>
  <g id="zoomPlus">
    <use xlink:href="#rim" fill="#404040"><set attributeName="fill" to="#808080" begin="zoomplus.mouseover" end="zoomplus.mouseout"/></use>
    <path d="M-4,0h8M0,-4v8" fill="none" stroke="white" stroke-width="1.5" pointer-events="none"/>
  </g>
  <g id="zoomMin">
    <use xlink:href="#rim" fill="#404040"><set attributeName="fill" to="#808080" begin="zoomminus.mouseover" end="zoomminus.mouseout"/></use>
    <path d="M-4,0h8" fill="none" stroke="white" stroke-width="1.5" pointer-events="none"/>
  </g>
  <g id="arrowUp" transform="translate(30 24)">
    <use xlink:href="#rim"/>
    <path pointer-events="none" fill="none" stroke="white" stroke-width="1.5" d="M0,-3.0v7 M-2.5,-0.5L0,-3.0L2.5,-0.5"/>
  </g>
  <g id="arrowRight" transform="rotate(90) translate(36 -43)">
    <use xlink:href="#rim"/>
    <path pointer-events="none" fill="none" stroke="white" stroke-width="1.5" d="M0,-3.0v7 M-2.5,-0.5L0,-3.0L2.5,-0.5"/>
  </g>
  <g id="arrowDown" transform="rotate(180) translate(-30 -48)">
    <use xlink:href="#rim"/>
    <path pointer-events="none" fill="none" stroke="white" stroke-width="1.5" d="M0,-3.0v7 M-2.5,-0.5L0,-3.0L2.5,-0.5"/>
  </g>
  <g id="arrowLeft" transform="rotate(270) translate(-36 17)">
    <use xlink:href="#rim"/>
    <path pointer-events="none" fill="none" stroke="white" stroke-width="1.5" d="M0,-3.0v7 M-2.5,-0.5L0,-3.0L2.5,-0.5"/>
  </g>
  <g id="resetDef">
    <use xlink:href="#rim2" fill="#404040"><set attributeName="fill" to="#808080" begin="reset.mouseover" end="reset.mouseout"/></use>
  </g>
</defs>
<script type="application/ecmascript">
var viewWidth = 1467;
var viewHeight = 106;
var sectionId = 'dynsection-2';
</script>
<script type="application/ecmascript" xlink:href="svg.min.js"/>
<svg id="graph" class="graph">
<g id="viewport">
<title>checkcontrol</title>
<!-- Node1 -->
<g id="Node000001" class="node">
<title>Node1</title>
<g id="a_Node000001"><a xlink:title=" ">
<polygon fill="#999999" stroke="#666666" points="1459.25,-37.25 1387.75,-37.25 1387.75,-18 1459.25,-18 1459.25,-37.25"/>
<text xml:space="preserve" text-anchor="middle" x="1423.5" y="-23.75" font-family="Helvetica,sans-Serif" font-size="10.00">checkcontrol</text>
</a>
</g>
</g>
<!-- Node2 -->
<g id="Node000002" class="node">
<title>Node2</title>
<g id="a_Node000002"><a xlink:href="lauxlib_8c.html#a5f33ecbe92de777050827fe763a7fa59" target="_top" xlink:title=" ">
<polygon fill="white" stroke="#666666" points="1351.75,-56.25 1300.5,-56.25 1300.5,-37 1351.75,-37 1351.75,-56.25"/>
<text xml:space="preserve" text-anchor="middle" x="1326.12" y="-42.75" font-family="Helvetica,sans-Serif" font-size="10.00">warnfoff</text>
</a>
</g>
</g>
<!-- Node1&#45;&gt;Node2 -->
<g id="edge1_Node000001_Node000002" class="edge">
<title>Node1&#45;&gt;Node2</title>
<g id="a_edge1_Node000001_Node000002"><a xlink:title=" ">
<path fill="none" stroke="#63b8ff" d="M1376.21,-30.1C1366.69,-31.96 1357.09,-34.2 1348.94,-36.5"/>
<polygon fill="#63b8ff" stroke="#63b8ff" points="1376.55,-33.59 1385.77,-28.37 1375.3,-26.71 1376.55,-33.59"/>
</a>
</g>
</g>
<!-- Node16 -->
<g id="Node000016" class="node">
<title>Node16</title>
<g id="a_Node000016"><a xlink:href="lauxlib_8c.html#af68f58c7a0198c5b7c1781093bf820e0" target="_top" xlink:title=" ">
<polygon fill="white" stroke="#666666" points="1351.38,-19.25 1300.88,-19.25 1300.88,0 1351.38,0 1351.38,-19.25"/>
<text xml:space="preserve" text-anchor="middle" x="1326.12" y="-5.75" font-family="Helvetica,sans-Serif" font-size="10.00">warnfon</text>
</a>
</g>
</g>
<!-- Node1&#45;&gt;Node16 -->
<g id="edge17_Node000001_Node000016" class="edge">
<title>Node1&#45;&gt;Node16</title>
<g id="a_edge17_Node000001_Node000016"><a xlink:title=" ">
<path fill="none" stroke="#63b8ff" d="M1389.06,-14.84C1376.72,-12.02 1362.97,-9.59 1351.57,-8.26"/>
<polygon fill="#63b8ff" stroke="#63b8ff" points="1387.88,-18.15 1398.43,-17.16 1389.56,-11.36 1387.88,-18.15"/>
</a>
</g>
</g>
<!-- Node2&#45;&gt;Node1 -->
<g id="edge2_Node000002_Node000001" class="edge">
<title>Node2&#45;&gt;Node1</title>
<g id="a_edge2_Node000002_Node000001"><a xlink:title=" ">
<path fill="none" stroke="#63b8ff" d="M1363.25,-46C1375.92,-43.88 1389.75,-40.85 1400.86,-37.7"/>
<polygon fill="#63b8ff" stroke="#63b8ff" points="1362.92,-42.51 1353.55,-47.45 1363.96,-49.43 1362.92,-42.51"/>
</a>
</g>
</g>
<!-- Node3 -->
<g id="Node000003" class="node">
<title>Node3</title>
<g id="a_Node000003"><a xlink:href="lauxlib_8c.html#abe0d4e1d9eb077cdeca0f58e80174f89" target="_top" xlink:title=" ">
<polygon fill="white" stroke="#666666" points="1264.5,-74.25 1185.5,-74.25 1185.5,-55 1264.5,-55 1264.5,-74.25"/>
<text xml:space="preserve" text-anchor="middle" x="1225" y="-60.75" font-family="Helvetica,sans-Serif" font-size="10.00">luaL_newstate</text>
</a>
</g>
</g>
<!-- Node2&#45;&gt;Node3 -->
<g id="edge3_Node000002_Node000003" class="edge">
<title>Node2&#45;&gt;Node3</title>
<g id="a_edge3_Node000002_Node000003"><a xlink:title=" ">
<path fill="none" stroke="#63b8ff" d="M1289.06,-53.17C1281.2,-54.6 1272.86,-56.12 1264.9,-57.56"/>
<polygon fill="#63b8ff" stroke="#63b8ff" points="1289.41,-56.67 1298.62,-51.44 1288.16,-49.78 1289.41,-56.67"/>
</a>
</g>
</g>
<!-- Node4 -->
<g id="Node000004" class="node">
<title>Node4</title>
<g id="a_Node000004"><a xlink:href="lua_8c.html#a3c04138a5bfe5d72780bb7e82a18e627" target="_top" xlink:title=" ">
<polygon fill="white" stroke="#666666" points="1133.75,-92.25 1096.75,-92.25 1096.75,-73 1133.75,-73 1133.75,-92.25"/>
<text xml:space="preserve" text-anchor="middle" x="1115.25" y="-78.75" font-family="Helvetica,sans-Serif" font-size="10.00">main</text>
</a>
</g>
</g>
<!-- Node3&#45;&gt;Node4 -->
<g id="edge4_Node000003_Node000004" class="edge">
<title>Node3&#45;&gt;Node4</title>
<g id="a_edge4_Node000003_Node000004"><a xlink:title=" ">
<path fill="none" stroke="#63b8ff" d="M1173.81,-73.01C1159.54,-75.39 1144.93,-77.83 1134,-79.66"/>
<polygon fill="#63b8ff" stroke="#63b8ff" points="1174.32,-76.47 1183.61,-71.37 1173.17,-69.57 1174.32,-76.47"/>
</a>
</g>
</g>
<!-- Node5 -->
<g id="Node000005" class="node">
<title>Node5</title>
<g id="a_Node000005"><a xlink:href="script_8c.html#a84508ce31c18af8792081eb1cdfc77b8" target="_top" xlink:title=" ">
<polygon fill="white" stroke="#666666" points="1149.5,-55.25 1081,-55.25 1081,-36 1149.5,-36 1149.5,-55.25"/>
<text xml:space="preserve" text-anchor="middle" x="1115.25" y="-41.75" font-family="Helvetica,sans-Serif" font-size="10.00">script_begin</text>
</a>
</g>
</g>
<!-- Node3&#45;&gt;Node5 -->
<g id="edge5_Node000003_Node000005" class="edge">
<title>Node3&#45;&gt;Node5</title>
<g id="a_edge5_Node000003_Node000005"><a xlink:title=" ">
<path fill="none" stroke="#63b8ff" d="M1174.03,-55.81C1165.8,-54.36 1157.45,-52.89 1149.75,-51.53"/>
<polygon fill="#63b8ff" stroke="#63b8ff" points="1173.15,-59.21 1183.61,-57.5 1174.37,-52.32 1173.15,-59.21"/>
</a>
</g>
</g>
<!-- Node6 -->
<g id="Node000006" class="node">
<title>Node6</title>
<g id="a_Node000006"><a xlink:href="game__scene_8c.html#ab923ed4c6ccad95026e85e252071716d" target="_top" xlink:title=" ">
<polygon fill="white" stroke="#666666" points="1045,-55.25 925.5,-55.25 925.5,-36 1045,-36 1045,-55.25"/>
<text xml:space="preserve" text-anchor="middle" x="985.25" y="-41.75" font-family="Helvetica,sans-Serif" font-size="10.00">PGB_GameScene_new</text>
</a>
</g>
</g>
<!-- Node5&#45;&gt;Node6 -->
<g id="edge6_Node000005_Node000006" class="edge">
<title>Node5&#45;&gt;Node6</title>
<g id="a_edge6_Node000005_Node000006"><a xlink:title=" ">
<path fill="none" stroke="#63b8ff" d="M1069.28,-45.62C1061.55,-45.62 1053.42,-45.62 1045.4,-45.62"/>
<polygon fill="#63b8ff" stroke="#63b8ff" points="1069.11,-49.13 1079.11,-45.63 1069.11,-42.13 1069.11,-49.13"/>
</a>
</g>
</g>
<!-- Node7 -->
<g id="Node000007" class="node">
<title>Node7</title>
<g id="a_Node000007"><a xlink:href="library__scene_8c.html#a0728002045c9cbbd68bdd34897b28da6" target="_top" xlink:title=" ">
<polygon fill="white" stroke="#666666" points="889.5,-55.25 755.75,-55.25 755.75,-36 889.5,-36 889.5,-55.25"/>
<text xml:space="preserve" text-anchor="middle" x="822.62" y="-41.75" font-family="Helvetica,sans-Serif" font-size="10.00">PGB_LibraryScene_update</text>
</a>
</g>
</g>
<!-- Node6&#45;&gt;Node7 -->
<g id="edge7_Node000006_Node000007" class="edge">
<title>Node6&#45;&gt;Node7</title>
<g id="a_edge7_Node000006_Node000007"><a xlink:title=" ">
<path fill="none" stroke="#63b8ff" d="M914.09,-45.62C906.04,-45.62 897.84,-45.62 889.84,-45.62"/>
<polygon fill="#63b8ff" stroke="#63b8ff" points="913.84,-49.13 923.84,-45.63 913.84,-42.13 913.84,-49.13"/>
</a>
</g>
</g>
<!-- Node8 -->
<g id="Node000008" class="node">
<title>Node8</title>
<g id="a_Node000008"><a xlink:href="library__scene_8c.html#aa5c386d39121b53fba45d899df654188" target="_top" xlink:title=" ">
<polygon fill="white" stroke="#666666" points="719.75,-55.25 597.25,-55.25 597.25,-36 719.75,-36 719.75,-55.25"/>
<text xml:space="preserve" text-anchor="middle" x="658.5" y="-41.75" font-family="Helvetica,sans-Serif" font-size="10.00">PGB_LibraryScene_new</text>
</a>
</g>
</g>
<!-- Node7&#45;&gt;Node8 -->
<g id="edge8_Node000007_Node000008" class="edge">
<title>Node7&#45;&gt;Node8</title>
<g id="a_edge8_Node000007_Node000008"><a xlink:title=" ">
<path fill="none" stroke="#63b8ff" d="M744.29,-45.62C736.19,-45.62 728.04,-45.62 720.16,-45.62"/>
<polygon fill="#63b8ff" stroke="#63b8ff" points="744.17,-49.13 754.17,-45.63 744.17,-42.13 744.17,-49.13"/>
</a>
</g>
</g>
<!-- Node9 -->
<g id="Node000009" class="node">
<title>Node9</title>
<g id="a_Node000009"><a xlink:href="app_8c.html#ab80501f53b757a79772b96ec99e3dc7e" target="_top" xlink:title=" ">
<polygon fill="white" stroke="#666666" points="534.25,-98.25 441.75,-98.25 441.75,-79 534.25,-79 534.25,-98.25"/>
<text xml:space="preserve" text-anchor="middle" x="488" y="-84.75" font-family="Helvetica,sans-Serif" font-size="10.00">PGB_goToLibrary</text>
</a>
</g>
</g>
<!-- Node8&#45;&gt;Node9 -->
<g id="edge9_Node000008_Node000009" class="edge">
<title>Node8&#45;&gt;Node9</title>
<g id="a_edge9_Node000008_Node000009"><a xlink:title=" ">
<path fill="none" stroke="#63b8ff" d="M606.84,-58.55C581.76,-64.95 551.92,-72.57 528.55,-78.53"/>
<polygon fill="#63b8ff" stroke="#63b8ff" points="607.7,-61.94 616.53,-56.08 605.97,-55.16 607.7,-61.94"/>
</a>
</g>
</g>
<!-- Node12 -->
<g id="Node000012" class="node">
<title>Node12</title>
<g id="a_Node000012"><a xlink:href="image__conversion__scene_8c.html#a60d0e43ab25a8639bbb6d1f4e758edd3" target="_top" xlink:title=" ">
<polygon fill="white" stroke="#666666" points="561.25,-60.88 414.75,-60.88 414.75,-30.38 561.25,-30.38 561.25,-60.88"/>
<text xml:space="preserve" text-anchor="start" x="422.75" y="-47.38" font-family="Helvetica,sans-Serif" font-size="10.00">PGB_ImageConversionScene</text>
<text xml:space="preserve" text-anchor="middle" x="488" y="-36.12" font-family="Helvetica,sans-Serif" font-size="10.00">_update</text>
</a>
</g>
</g>
<!-- Node8&#45;&gt;Node12 -->
<g id="edge12_Node000008_Node000012" class="edge">
<title>Node8&#45;&gt;Node12</title>
<g id="a_edge12_Node000008_Node000012"><a xlink:title=" ">
<path fill="none" stroke="#63b8ff" d="M585.9,-45.62C577.86,-45.62 569.65,-45.62 561.6,-45.62"/>
<polygon fill="#63b8ff" stroke="#63b8ff" points="585.63,-49.13 595.63,-45.63 585.63,-42.13 585.63,-49.13"/>
</a>
</g>
</g>
<!-- Node14 -->
<g id="Node000014" class="node">
<title>Node14</title>
<g id="a_Node000014"><a xlink:href="app_8c.html#af256ea7a9c51fcbd49cb0007facbb8ea" target="_top" xlink:title=" ">
<polygon fill="white" stroke="#666666" points="166.25,-33.25 111.25,-33.25 111.25,-14 166.25,-14 166.25,-33.25"/>
<text xml:space="preserve" text-anchor="middle" x="138.75" y="-19.75" font-family="Helvetica,sans-Serif" font-size="10.00">PGB_init</text>
</a>
</g>
</g>
<!-- Node8&#45;&gt;Node14 -->
<g id="edge16_Node000008_Node000014" class="edge">
<title>Node8&#45;&gt;Node14</title>
<g id="a_edge16_Node000008_Node000014"><a xlink:title=" ">
<path fill="none" stroke="#63b8ff" d="M614.41,-32.49C597.95,-28.11 578.89,-23.79 561.25,-21.62 413.08,-3.43 233.4,-15.5 166.52,-21.16"/>
<polygon fill="#63b8ff" stroke="#63b8ff" points="613.32,-35.82 623.89,-35.11 615.18,-29.08 613.32,-35.82"/>
</a>
</g>
</g>
<!-- Node10 -->
<g id="Node000010" class="node">
<title>Node10</title>
<g id="a_Node000010"><a xlink:href="game__scene_8c.html#a6a4a6f0408da311dc566eb187e497889" target="_top" xlink:title=" ">
<polygon fill="white" stroke="#666666" points="360,-98.25 227.75,-98.25 227.75,-79 360,-79 360,-98.25"/>
<text xml:space="preserve" text-anchor="middle" x="293.88" y="-84.75" font-family="Helvetica,sans-Serif" font-size="10.00">PGB_LibraryConfirmModal</text>
</a>
</g>
</g>
<!-- Node9&#45;&gt;Node10 -->
<g id="edge10_Node000009_Node000010" class="edge">
<title>Node9&#45;&gt;Node10</title>
<g id="a_edge10_Node000009_Node000010"><a xlink:title=" ">
<path fill="none" stroke="#63b8ff" d="M430.03,-88.62C408.17,-88.62 383.05,-88.62 360.44,-88.62"/>
<polygon fill="#63b8ff" stroke="#63b8ff" points="429.96,-92.13 439.96,-88.63 429.96,-85.13 429.96,-92.13"/>
</a>
</g>
</g>
<!-- Node11 -->
<g id="Node000011" class="node">
<title>Node11</title>
<g id="a_Node000011"><a xlink:href="game__scene_8c.html#a113df24bb94bafcdbb9235ec8648e02f" target="_top" xlink:title=" ">
<polygon fill="white" stroke="#666666" points="173,-98.25 104.5,-98.25 104.5,-79 173,-79 173,-98.25"/>
<text xml:space="preserve" text-anchor="middle" x="138.75" y="-84.75" font-family="Helvetica,sans-Serif" font-size="10.00">__section__</text>
</a>
</g>
</g>
<!-- Node10&#45;&gt;Node11 -->
<g id="edge11_Node000010_Node000011" class="edge">
<title>Node10&#45;&gt;Node11</title>
<g id="a_edge11_Node000010_Node000011"><a xlink:title=" ">
<path fill="none" stroke="#63b8ff" d="M216.03,-88.62C200.98,-88.62 185.96,-88.62 173.27,-88.62"/>
<polygon fill="#63b8ff" stroke="#63b8ff" points="215.98,-92.13 225.98,-88.63 215.98,-85.13 215.98,-92.13"/>
</a>
</g>
</g>
<!-- Node13 -->
<g id="Node000013" class="node">
<title>Node13</title>
<g id="a_Node000013"><a xlink:href="image__conversion__scene_8c.html#aa3559936491ddf78b9cf06fcbdd32d22" target="_top" xlink:title=" ">
<polygon fill="white" stroke="#666666" points="378.75,-53.25 209,-53.25 209,-34 378.75,-34 378.75,-53.25"/>
<text xml:space="preserve" text-anchor="middle" x="293.88" y="-39.75" font-family="Helvetica,sans-Serif" font-size="10.00">PGB_ImageConversionScene_new</text>
</a>
</g>
</g>
<!-- Node12&#45;&gt;Node13 -->
<g id="edge13_Node000012_Node000013" class="edge">
<title>Node12&#45;&gt;Node13</title>
<g id="a_edge13_Node000012_Node000013"><a xlink:title=" ">
<path fill="none" stroke="#63b8ff" d="M402.94,-44.75C395.07,-44.67 387.09,-44.58 379.22,-44.5"/>
<polygon fill="#63b8ff" stroke="#63b8ff" points="402.82,-48.25 412.85,-44.85 402.89,-41.25 402.82,-48.25"/>
</a>
</g>
</g>
<!-- Node13&#45;&gt;Node14 -->
<g id="edge14_Node000013_Node000014" class="edge">
<title>Node13&#45;&gt;Node14</title>
<g id="a_edge14_Node000013_Node000014"><a xlink:title=" ">
<path fill="none" stroke="#63b8ff" d="M204.38,-32.07C190.72,-30.28 177.57,-28.56 166.75,-27.15"/>
<polygon fill="#63b8ff" stroke="#63b8ff" points="203.55,-35.49 213.91,-33.31 204.45,-28.55 203.55,-35.49"/>
</a>
</g>
</g>
<!-- Node15 -->
<g id="Node000015" class="node">
<title>Node15</title>
<g id="a_Node000015"><a xlink:href="main_8c.html#a77034286b8c64d0735c69535c5e9b732" target="_top" xlink:title=" ">
<polygon fill="white" stroke="#666666" points="68.5,-33.25 0,-33.25 0,-14 68.5,-14 68.5,-33.25"/>
<text xml:space="preserve" text-anchor="middle" x="34.25" y="-19.75" font-family="Helvetica,sans-Serif" font-size="10.00">__section__</text>
</a>
</g>
</g>
<!-- Node14&#45;&gt;Node15 -->
<g id="edge15_Node000014_Node000015" class="edge">
<title>Node14&#45;&gt;Node15</title>
<g id="a_edge15_Node000014_Node000015"><a xlink:title=" ">
<path fill="none" stroke="#63b8ff" d="M99.48,-23.62C89.46,-23.62 78.74,-23.62 68.97,-23.62"/>
<polygon fill="#63b8ff" stroke="#63b8ff" points="99.31,-27.13 109.31,-23.63 99.31,-20.13 99.31,-27.13"/>
</a>
</g>
</g>
<!-- Node16&#45;&gt;Node1 -->
<g id="edge18_Node000016_Node000001" class="edge">
<title>Node16&#45;&gt;Node1</title>
<g id="a_edge18_Node000016_Node000001"><a xlink:title=" ">
<path fill="none" stroke="#63b8ff" d="M1360.92,-22.49C1369.46,-24.43 1378.65,-26.18 1387.26,-27.52"/>
<polygon fill="#63b8ff" stroke="#63b8ff" points="1361.81,-19.11 1351.26,-20.11 1360.13,-25.9 1361.81,-19.11"/>
</a>
</g>
</g>
<!-- Node17 -->
<g id="Node000017" class="node">
<title>Node17</title>
<g id="a_Node000017"><a xlink:href="lauxlib_8c.html#ad1aefe736600eec70417cbad247abb28" target="_top" xlink:title=" ">
<polygon fill="white" stroke="#666666" points="1254.38,-19.25 1195.62,-19.25 1195.62,0 1254.38,0 1254.38,-19.25"/>
<text xml:space="preserve" text-anchor="middle" x="1225" y="-5.75" font-family="Helvetica,sans-Serif" font-size="10.00">warnfcont</text>
</a>
</g>
</g>
<!-- Node16&#45;&gt;Node17 -->
<g id="edge19_Node000016_Node000017" class="edge">
<title>Node16&#45;&gt;Node17</title>
<g id="a_edge19_Node000016_Node000017"><a xlink:title=" ">
<path fill="none" stroke="#63b8ff" d="M1289.29,-3.11C1277.95,-2.71 1265.57,-2.82 1254.79,-3.43"/>
<polygon fill="#63b8ff" stroke="#63b8ff" points="1288.94,-6.6 1299.11,-3.63 1289.31,0.39 1288.94,-6.6"/>
</a>
</g>
</g>
<!-- Node17&#45;&gt;Node16 -->
<g id="edge21_Node000017_Node000016" class="edge">
<title>Node17&#45;&gt;Node16</title>
<g id="a_edge21_Node000017_Node000016"><a xlink:title=" ">
<path fill="none" stroke="#63b8ff" d="M1266.13,-16.27C1277.81,-16.54 1290.22,-16.3 1300.62,-15.54"/>
<polygon fill="#63b8ff" stroke="#63b8ff" points="1266.44,-12.77 1256.31,-15.88 1266.16,-19.77 1266.44,-12.77"/>
</a>
</g>
</g>
<!-- Node17&#45;&gt;Node17 -->
<g id="edge20_Node000017_Node000017" class="edge">
<title>Node17&#45;&gt;Node17</title>
<g id="a_edge20_Node000017_Node000017"><a xlink:title=" ">
<path fill="none" stroke="#63b8ff" d="M1242.95,-30.65C1240.7,-34.53 1234.72,-37.25 1225,-37.25 1207.22,-37.25 1201.95,-28.15 1209.17,-19.54"/>
<polygon fill="#63b8ff" stroke="#63b8ff" points="1246.43,-30.19 1241.11,-21.02 1239.55,-31.5 1246.43,-30.19"/>
</a>
</g>
</g>
</g>
</svg>

<g id="navigator" transform="translate(0 0)" fill="#404254">
  <rect fill="#f2f5e9" fill-opacity="0.5" stroke="#606060" stroke-width=".5" x="0" y="0" width="60" height="60"/>
  <use id="zoomplus" xlink:href="#zoomPlus" x="17" y="9" onmousedown="handleZoom(evt,'in')"/>
  <use id="zoomminus" xlink:href="#zoomMin" x="42" y="9" onmousedown="handleZoom(evt,'out')"/>
  <use id="reset" xlink:href="#resetDef" x="30" y="36" onmousedown="handleReset()"/>
   <use id="arrowup" xlink:href="#arrowUp" x="0" y="0" onmousedown="handlePan(0,-1)"/>
  <use id="arrowright" xlink:href="#arrowRight" x="0" y="0" onmousedown="handlePan(1,0)"/>
  <use id="arrowdown" xlink:href="#arrowDown" x="0" y="0" onmousedown="handlePan(0,1)"/>
  <use id="arrowleft" xlink:href="#arrowLeft" x="0" y="0" onmousedown="handlePan(-1,0)"/>
</g>
<svg viewBox="0 0 15 15" width="100%" height="30px" preserveAspectRatio="xMaxYMin meet">
 <g id="arrow_out" transform="scale(0.3 0.3)">
  <a xlink:href="lauxlib_8c_a7495a600adbb32914fda94c0b5eea1ad_icgraph_org.svg" target="_base">
   <rect id="button" ry="5" rx="5" y="6" x="6" height="38" width="38"
        fill="#f2f5e9" fill-opacity="0.5" stroke="#606060" stroke-width="1.0"/>
   <path id="arrow"
     d="M 11.500037,31.436501 C 11.940474,20.09759 22.043105,11.32322 32.158766,21.979434 L 37.068811,17.246167 C 37.068811,17.246167 37.088388,32 37.088388,32 L 22.160133,31.978069 C 22.160133,31.978069 26.997745,27.140456 26.997745,27.140456 C 18.528582,18.264221 13.291696,25.230495 11.500037,31.436501 z"
     style="fill:#404040;"/>
  </a>
 </g>
</svg>

<style type='text/css'>
<![CDATA[
[data-mouse-over-selected='false'] { opacity: 0.7; }
[data-mouse-over-selected='true']  { opacity: 1.0; }
]]>
</style>
<script type="application/ecmascript"><![CDATA[
document.addEventListener('DOMContentLoaded', (event) => {
  highlightEdges();
  highlightAdjacentNodes();
});
]]></script>
</svg>
