<?xml version="1.0" encoding="UTF-8" standalone="no"?>
<!DOCTYPE svg PUBLIC "-//W3C//DTD SVG 1.1//EN"
 "http://www.w3.org/Graphics/SVG/1.1/DTD/svg11.dtd">
<!-- Generated by graphviz version 13.1.0 (20250701.0955)
 -->
<!-- Title: luaL_pushresultsize Pages: 1 -->
<svg width="211pt" height="175pt"
 viewBox="0.00 0.00 211.00 175.00" xmlns="http://www.w3.org/2000/svg" xmlns:xlink="http://www.w3.org/1999/xlink">
<g id="graph0" class="graph" transform="scale(1 1) rotate(0) translate(4 171.25)">
<title>luaL_pushresultsize</title>
<!-- Node1 -->
<g id="Node000001" class="node">
<title>Node1</title>
<g id="a_Node000001"><a xlink:title=" ">
<polygon fill="#999999" stroke="#666666" points="203,-93.25 100.75,-93.25 100.75,-74 203,-74 203,-93.25"/>
<text xml:space="preserve" text-anchor="middle" x="151.88" y="-79.75" font-family="Helvetica,sans-Serif" font-size="10.00">luaL_pushresultsize</text>
</a>
</g>
</g>
<!-- Node2 -->
<g id="Node000002" class="node">
<title>Node2</title>
<g id="a_Node000002"><a xlink:href="lstrlib_8c.html#a3f7db8b2258dca5459ad52d2cbf9f28c" target="_top" xlink:title=" ">
<polygon fill="white" stroke="#666666" points="58,-167.25 6.75,-167.25 6.75,-148 58,-148 58,-167.25"/>
<text xml:space="preserve" text-anchor="middle" x="32.38" y="-153.75" font-family="Helvetica,sans-Serif" font-size="10.00">str_char</text>
</a>
</g>
</g>
<!-- Node1&#45;&gt;Node2 -->
<g id="edge1_Node000001_Node000002" class="edge">
<title>Node1&#45;&gt;Node2</title>
<g id="a_edge1_Node000001_Node000002"><a xlink:title=" ">
<path fill="none" stroke="#63b8ff" d="M126.83,-99.77C109.68,-111.16 85.99,-126.64 64.75,-139.62 60.46,-142.25 55.79,-144.99 51.4,-147.52"/>
<polygon fill="#63b8ff" stroke="#63b8ff" points="128.46,-102.89 134.84,-94.43 124.58,-97.07 128.46,-102.89"/>
</a>
</g>
</g>
<!-- Node3 -->
<g id="Node000003" class="node">
<title>Node3</title>
<g id="a_Node000003"><a xlink:href="lstrlib_8c.html#ab2235f81205d0482d03c8ae456a98992" target="_top" xlink:title=" ">
<polygon fill="white" stroke="#666666" points="60.25,-130.25 4.5,-130.25 4.5,-111 60.25,-111 60.25,-130.25"/>
<text xml:space="preserve" text-anchor="middle" x="32.38" y="-116.75" font-family="Helvetica,sans-Serif" font-size="10.00">str_lower</text>
</a>
</g>
</g>
<!-- Node1&#45;&gt;Node3 -->
<g id="edge2_Node000001_Node000003" class="edge">
<title>Node1&#45;&gt;Node3</title>
<g id="a_edge2_Node000001_Node000003"><a xlink:title=" ">
<path fill="none" stroke="#63b8ff" d="M108.13,-97.09C92.29,-102.07 74.76,-107.59 60.66,-112.03"/>
<polygon fill="#63b8ff" stroke="#63b8ff" points="108.84,-100.53 117.32,-94.19 106.73,-93.86 108.84,-100.53"/>
</a>
</g>
</g>
<!-- Node4 -->
<g id="Node000004" class="node">
<title>Node4</title>
<g id="a_Node000004"><a xlink:href="lstrlib_8c.html#acaee4c84f29e2ec7366728ca04d3569c" target="_top" xlink:title=" ">
<polygon fill="white" stroke="#666666" points="55.38,-93.25 9.38,-93.25 9.38,-74 55.38,-74 55.38,-93.25"/>
<text xml:space="preserve" text-anchor="middle" x="32.38" y="-79.75" font-family="Helvetica,sans-Serif" font-size="10.00">str_rep</text>
</a>
</g>
</g>
<!-- Node1&#45;&gt;Node4 -->
<g id="edge3_Node000001_Node000004" class="edge">
<title>Node1&#45;&gt;Node4</title>
<g id="a_edge3_Node000001_Node000004"><a xlink:title=" ">
<path fill="none" stroke="#63b8ff" d="M88.99,-83.62C77.12,-83.62 65.41,-83.62 55.83,-83.62"/>
<polygon fill="#63b8ff" stroke="#63b8ff" points="88.85,-87.13 98.85,-83.63 88.85,-80.13 88.85,-87.13"/>
</a>
</g>
</g>
<!-- Node5 -->
<g id="Node000005" class="node">
<title>Node5</title>
<g id="a_Node000005"><a xlink:href="lstrlib_8c.html#a4b2ffac60e817b9bfc54b32f8da3a6b4" target="_top" xlink:title=" ">
<polygon fill="white" stroke="#666666" points="64.75,-56.25 0,-56.25 0,-37 64.75,-37 64.75,-56.25"/>
<text xml:space="preserve" text-anchor="middle" x="32.38" y="-42.75" font-family="Helvetica,sans-Serif" font-size="10.00">str_reverse</text>
</a>
</g>
</g>
<!-- Node1&#45;&gt;Node5 -->
<g id="edge4_Node000001_Node000005" class="edge">
<title>Node1&#45;&gt;Node5</title>
<g id="a_edge4_Node000001_Node000005"><a xlink:title=" ">
<path fill="none" stroke="#63b8ff" d="M108.19,-70.18C93.93,-65.69 78.3,-60.77 65.04,-56.6"/>
<polygon fill="#63b8ff" stroke="#63b8ff" points="106.73,-73.39 117.32,-73.06 108.84,-66.72 106.73,-73.39"/>
</a>
</g>
</g>
<!-- Node6 -->
<g id="Node000006" class="node">
<title>Node6</title>
<g id="a_Node000006"><a xlink:href="lstrlib_8c.html#a38ed99b74af58070449ca344a7351f6a" target="_top" xlink:title=" ">
<polygon fill="white" stroke="#666666" points="60.62,-19.25 4.12,-19.25 4.12,0 60.62,0 60.62,-19.25"/>
<text xml:space="preserve" text-anchor="middle" x="32.38" y="-5.75" font-family="Helvetica,sans-Serif" font-size="10.00">str_upper</text>
</a>
</g>
</g>
<!-- Node1&#45;&gt;Node6 -->
<g id="edge5_Node000001_Node000006" class="edge">
<title>Node1&#45;&gt;Node6</title>
<g id="a_edge5_Node000001_Node000006"><a xlink:title=" ">
<path fill="none" stroke="#63b8ff" d="M126.83,-67.48C109.68,-56.09 85.99,-40.61 64.75,-27.62 60.46,-25 55.79,-22.26 51.4,-19.73"/>
<polygon fill="#63b8ff" stroke="#63b8ff" points="124.58,-70.18 134.84,-72.82 128.46,-64.36 124.58,-70.18"/>
</a>
</g>
</g>
</g>
</svg>
