<?xml version="1.0" encoding="UTF-8" standalone="no"?>
<!DOCTYPE svg PUBLIC "-//W3C//DTD SVG 1.1//EN"
 "http://www.w3.org/Graphics/SVG/1.1/DTD/svg11.dtd">
<!-- Generated by graphviz version 13.1.0 (20250701.0955)
 -->
<!-- Title: luaL_checklstring Pages: 1 -->
<!--zoomable 695 -->

<svg id="main" version="1.1" xmlns="http://www.w3.org/2000/svg" xmlns:xlink="http://www.w3.org/1999/xlink" xml:space="preserve" onload="init(evt)">

<style type="text/css"><![CDATA[
.node, .edge {opacity: 0.7;}
.node.selected, .edge.selected {opacity: 1;}
.edge:hover path { stroke: red; }
.edge:hover polygon { stroke: red; fill: red; }
]]></style>

<defs>
  <circle id="rim" cx="0" cy="0" r="7"/>
  <circle id="rim2" cx="0" cy="0" r="3.5"/>
  <g id="zoomPlus">
    <use xlink:href="#rim" fill="#404040"><set attributeName="fill" to="#808080" begin="zoomplus.mouseover" end="zoomplus.mouseout"/></use>
    <path d="M-4,0h8M0,-4v8" fill="none" stroke="white" stroke-width="1.5" pointer-events="none"/>
  </g>
  <g id="zoomMin">
    <use xlink:href="#rim" fill="#404040"><set attributeName="fill" to="#808080" begin="zoomminus.mouseover" end="zoomminus.mouseout"/></use>
    <path d="M-4,0h8" fill="none" stroke="white" stroke-width="1.5" pointer-events="none"/>
  </g>
  <g id="arrowUp" transform="translate(30 24)">
    <use xlink:href="#rim"/>
    <path pointer-events="none" fill="none" stroke="white" stroke-width="1.5" d="M0,-3.0v7 M-2.5,-0.5L0,-3.0L2.5,-0.5"/>
  </g>
  <g id="arrowRight" transform="rotate(90) translate(36 -43)">
    <use xlink:href="#rim"/>
    <path pointer-events="none" fill="none" stroke="white" stroke-width="1.5" d="M0,-3.0v7 M-2.5,-0.5L0,-3.0L2.5,-0.5"/>
  </g>
  <g id="arrowDown" transform="rotate(180) translate(-30 -48)">
    <use xlink:href="#rim"/>
    <path pointer-events="none" fill="none" stroke="white" stroke-width="1.5" d="M0,-3.0v7 M-2.5,-0.5L0,-3.0L2.5,-0.5"/>
  </g>
  <g id="arrowLeft" transform="rotate(270) translate(-36 17)">
    <use xlink:href="#rim"/>
    <path pointer-events="none" fill="none" stroke="white" stroke-width="1.5" d="M0,-3.0v7 M-2.5,-0.5L0,-3.0L2.5,-0.5"/>
  </g>
  <g id="resetDef">
    <use xlink:href="#rim2" fill="#404040"><set attributeName="fill" to="#808080" begin="reset.mouseover" end="reset.mouseout"/></use>
  </g>
</defs>
<script type="application/ecmascript">
var viewWidth = 1001;
var viewHeight = 695;
var sectionId = 'dynsection-12';
</script>
<script type="application/ecmascript" xlink:href="svg.min.js"/>
<svg id="graph" class="graph">
<g id="viewport">
<title>luaL_checklstring</title>
<!-- Node1 -->
<g id="Node000001" class="node">
<title>Node1</title>
<g id="a_Node000001"><a xlink:title=" ">
<polygon fill="#999999" stroke="#666666" points="992.75,-352.25 901,-352.25 901,-333 992.75,-333 992.75,-352.25"/>
<text xml:space="preserve" text-anchor="middle" x="946.88" y="-338.75" font-family="Helvetica,sans-Serif" font-size="10.00">luaL_checklstring</text>
</a>
</g>
</g>
<!-- Node2 -->
<g id="Node000002" class="node">
<title>Node2</title>
<g id="a_Node000002"><a xlink:href="lutf8lib_8c.html#a805a182cc5dde6d73e07922e8454eaf7" target="_top" xlink:title=" ">
<polygon fill="white" stroke="#666666" points="855.25,-687.25 795.75,-687.25 795.75,-668 855.25,-668 855.25,-687.25"/>
<text xml:space="preserve" text-anchor="middle" x="825.5" y="-673.75" font-family="Helvetica,sans-Serif" font-size="10.00">byteoffset</text>
</a>
</g>
</g>
<!-- Node1&#45;&gt;Node2 -->
<g id="edge1_Node000001_Node000002" class="edge">
<title>Node1&#45;&gt;Node2</title>
<g id="a_edge1_Node000001_Node000002"><a xlink:title=" ">
<path fill="none" stroke="#63b8ff" d="M946.36,-363.88C946.52,-419.18 939.62,-569.51 865,-659.62 862.36,-662.81 859.04,-665.46 855.45,-667.66"/>
<polygon fill="#63b8ff" stroke="#63b8ff" points="949.87,-363.96 946.24,-354 942.87,-364.05 949.87,-363.96"/>
</a>
</g>
</g>
<!-- Node3 -->
<g id="Node000003" class="node">
<title>Node3</title>
<g id="a_Node000003"><a xlink:href="lutf8lib_8c.html#af4280cee645f392590f2ed63a6301320" target="_top" xlink:title=" ">
<polygon fill="white" stroke="#666666" points="854.5,-650.25 796.5,-650.25 796.5,-631 854.5,-631 854.5,-650.25"/>
<text xml:space="preserve" text-anchor="middle" x="825.5" y="-636.75" font-family="Helvetica,sans-Serif" font-size="10.00">codepoint</text>
</a>
</g>
</g>
<!-- Node1&#45;&gt;Node3 -->
<g id="edge2_Node000001_Node000003" class="edge">
<title>Node1&#45;&gt;Node3</title>
<g id="a_edge2_Node000001_Node000003"><a xlink:title=" ">
<path fill="none" stroke="#63b8ff" d="M945.47,-364.08C943.42,-415.03 931.54,-544.79 865,-622.62 862.22,-625.88 858.72,-628.58 854.98,-630.82"/>
<polygon fill="#63b8ff" stroke="#63b8ff" points="948.97,-364.27 945.77,-354.17 941.97,-364.06 948.97,-364.27"/>
</a>
</g>
</g>
<!-- Node4 -->
<g id="Node000004" class="node">
<title>Node4</title>
<g id="a_Node000004"><a xlink:href="liolib_8c.html#a88c73a30c7d135dfb4958b7bfaa90cc7" target="_top" xlink:title=" ">
<polygon fill="white" stroke="#666666" points="849.25,-613.25 801.75,-613.25 801.75,-594 849.25,-594 849.25,-613.25"/>
<text xml:space="preserve" text-anchor="middle" x="825.5" y="-599.75" font-family="Helvetica,sans-Serif" font-size="10.00">g_write</text>
</a>
</g>
</g>
<!-- Node1&#45;&gt;Node4 -->
<g id="edge3_Node000001_Node000004" class="edge">
<title>Node1&#45;&gt;Node4</title>
<g id="a_edge3_Node000001_Node000004"><a xlink:title=" ">
<path fill="none" stroke="#63b8ff" d="M944.37,-363.68C940.04,-409.54 923.78,-519.59 865,-585.62 860.88,-590.25 855.32,-593.78 849.7,-596.44"/>
<polygon fill="#63b8ff" stroke="#63b8ff" points="947.85,-364.08 945.19,-353.82 940.87,-363.5 947.85,-364.08"/>
</a>
</g>
</g>
<!-- Node7 -->
<g id="Node000007" class="node">
<title>Node7</title>
<g id="a_Node000007"><a xlink:href="lstrlib_8c.html#ab55a72bb412d6186c82fd75de44cd031" target="_top" xlink:title=" ">
<polygon fill="white" stroke="#666666" points="849.62,-576.25 801.38,-576.25 801.38,-557 849.62,-557 849.62,-576.25"/>
<text xml:space="preserve" text-anchor="middle" x="825.5" y="-562.75" font-family="Helvetica,sans-Serif" font-size="10.00">gmatch</text>
</a>
</g>
</g>
<!-- Node1&#45;&gt;Node7 -->
<g id="edge6_Node000001_Node000007" class="edge">
<title>Node1&#45;&gt;Node7</title>
<g id="a_edge6_Node000001_Node000007"><a xlink:title=" ">
<path fill="none" stroke="#63b8ff" d="M942.87,-363.76C936.05,-404.45 915.89,-494.41 865,-548.62 860.86,-553.04 855.42,-556.47 849.94,-559.1"/>
<polygon fill="#63b8ff" stroke="#63b8ff" points="946.29,-364.51 944.37,-354.09 939.38,-363.44 946.29,-364.51"/>
</a>
</g>
</g>
<!-- Node8 -->
<g id="Node000008" class="node">
<title>Node8</title>
<g id="a_Node000008"><a xlink:href="lutf8lib_8c.html#ad5fc4a8936de51af672e82150c82a49a" target="_top" xlink:title=" ">
<polygon fill="white" stroke="#666666" points="850.75,-539.25 800.25,-539.25 800.25,-520 850.75,-520 850.75,-539.25"/>
<text xml:space="preserve" text-anchor="middle" x="825.5" y="-525.75" font-family="Helvetica,sans-Serif" font-size="10.00">iter_aux</text>
</a>
</g>
</g>
<!-- Node1&#45;&gt;Node8 -->
<g id="edge7_Node000001_Node000008" class="edge">
<title>Node1&#45;&gt;Node8</title>
<g id="a_edge7_Node000001_Node000008"><a xlink:title=" ">
<path fill="none" stroke="#63b8ff" d="M940.84,-363.49C931.45,-398.35 908.21,-468.8 865,-511.62 861.02,-515.57 856.01,-518.76 850.93,-521.3"/>
<polygon fill="#63b8ff" stroke="#63b8ff" points="944.22,-364.4 943.3,-353.84 937.44,-362.66 944.22,-364.4"/>
</a>
</g>
</g>
<!-- Node12 -->
<g id="Node000012" class="node">
<title>Node12</title>
<g id="a_Node000012"><a xlink:href="lauxlib_8c.html#a01a929d867927a2ffb2ed558ccb761be" target="_top" xlink:title=" ">
<polygon fill="white" stroke="#666666" points="865,-502.25 786,-502.25 786,-483 865,-483 865,-502.25"/>
<text xml:space="preserve" text-anchor="middle" x="825.5" y="-488.75" font-family="Helvetica,sans-Serif" font-size="10.00">luaL_optlstring</text>
</a>
</g>
</g>
<!-- Node1&#45;&gt;Node12 -->
<g id="edge12_Node000001_Node000012" class="edge">
<title>Node1&#45;&gt;Node12</title>
<g id="a_edge12_Node000001_Node000012"><a xlink:title=" ">
<path fill="none" stroke="#63b8ff" d="M936.45,-362.85C923.31,-389.48 897.39,-436.66 865,-468.62 859.51,-474.05 852.58,-478.83 846.12,-482.68"/>
<polygon fill="#63b8ff" stroke="#63b8ff" points="939.6,-364.39 940.77,-353.86 933.29,-361.35 939.6,-364.39"/>
</a>
</g>
</g>
<!-- Node14 -->
<g id="Node000014" class="node">
<title>Node14</title>
<g id="a_Node000014"><a xlink:href="lstrlib_8c.html#acaee4c84f29e2ec7366728ca04d3569c" target="_top" xlink:title=" ">
<polygon fill="white" stroke="#666666" points="736.88,-428.25 690.88,-428.25 690.88,-409 736.88,-409 736.88,-428.25"/>
<text xml:space="preserve" text-anchor="middle" x="713.88" y="-414.75" font-family="Helvetica,sans-Serif" font-size="10.00">str_rep</text>
</a>
</g>
</g>
<!-- Node1&#45;&gt;Node14 -->
<g id="edge36_Node000001_Node000014" class="edge">
<title>Node1&#45;&gt;Node14</title>
<g id="a_edge36_Node000001_Node000014"><a xlink:title=" ">
<path fill="none" stroke="#63b8ff" d="M935.47,-362.58C922.45,-385.14 897.8,-420.68 865,-435.62 822.87,-454.82 767.47,-439.47 737.13,-428.08"/>
<polygon fill="#63b8ff" stroke="#63b8ff" points="938.43,-364.46 940.19,-354.02 932.3,-361.09 938.43,-364.46"/>
</a>
</g>
</g>
<!-- Node16 -->
<g id="Node000016" class="node">
<title>Node16</title>
<g id="a_Node000016"><a xlink:href="lstrlib_8c.html#ae561770420cfd1894054415df9d4c423" target="_top" xlink:title=" ">
<polygon fill="white" stroke="#666666" points="851.12,-426.25 799.88,-426.25 799.88,-407 851.12,-407 851.12,-426.25"/>
<text xml:space="preserve" text-anchor="middle" x="825.5" y="-412.75" font-family="Helvetica,sans-Serif" font-size="10.00">str_byte</text>
</a>
</g>
</g>
<!-- Node1&#45;&gt;Node16 -->
<g id="edge16_Node000001_Node000016" class="edge">
<title>Node1&#45;&gt;Node16</title>
<g id="a_edge16_Node000001_Node000016"><a xlink:title=" ">
<path fill="none" stroke="#63b8ff" d="M923.86,-359.37C907.96,-371.09 885.72,-386.72 865,-398.62 860.14,-401.42 854.77,-404.14 849.62,-406.59"/>
<polygon fill="#63b8ff" stroke="#63b8ff" points="925.74,-362.34 931.66,-353.56 921.55,-356.73 925.74,-362.34"/>
</a>
</g>
</g>
<!-- Node17 -->
<g id="Node000017" class="node">
<title>Node17</title>
<g id="a_Node000017"><a xlink:href="lstrlib_8c.html#a692514aa32ae2668683a4db15259d26b" target="_top" xlink:title=" ">
<polygon fill="white" stroke="#666666" points="860.12,-389.25 790.88,-389.25 790.88,-370 860.12,-370 860.12,-389.25"/>
<text xml:space="preserve" text-anchor="middle" x="825.5" y="-375.75" font-family="Helvetica,sans-Serif" font-size="10.00">str_find_aux</text>
</a>
</g>
</g>
<!-- Node1&#45;&gt;Node17 -->
<g id="edge17_Node000001_Node000017" class="edge">
<title>Node1&#45;&gt;Node17</title>
<g id="a_edge17_Node000001_Node000017"><a xlink:title=" ">
<path fill="none" stroke="#63b8ff" d="M902.6,-356.04C888.24,-360.49 872.5,-365.37 859.08,-369.53"/>
<polygon fill="#63b8ff" stroke="#63b8ff" points="903.29,-359.49 911.81,-353.18 901.22,-352.8 903.29,-359.49"/>
</a>
</g>
</g>
<!-- Node20 -->
<g id="Node000020" class="node">
<title>Node20</title>
<g id="a_Node000020"><a xlink:href="lstrlib_8c.html#ae26a9374857058119e59d0328208c2f2" target="_top" xlink:title=" ">
<polygon fill="white" stroke="#666666" points="855.62,-352.25 795.38,-352.25 795.38,-333 855.62,-333 855.62,-352.25"/>
<text xml:space="preserve" text-anchor="middle" x="825.5" y="-338.75" font-family="Helvetica,sans-Serif" font-size="10.00">str_format</text>
</a>
</g>
</g>
<!-- Node1&#45;&gt;Node20 -->
<g id="edge20_Node000001_Node000020" class="edge">
<title>Node1&#45;&gt;Node20</title>
<g id="a_edge20_Node000001_Node000020"><a xlink:title=" ">
<path fill="none" stroke="#63b8ff" d="M889.27,-342.62C877.68,-342.62 865.94,-342.62 855.79,-342.62"/>
<polygon fill="#63b8ff" stroke="#63b8ff" points="889.23,-346.13 899.23,-342.63 889.23,-339.13 889.23,-346.13"/>
</a>
</g>
</g>
<!-- Node21 -->
<g id="Node000021" class="node">
<title>Node21</title>
<g id="a_Node000021"><a xlink:href="lstrlib_8c.html#a42337c674d265175bcc2b2f3809c7339" target="_top" xlink:title=" ">
<polygon fill="white" stroke="#666666" points="852.25,-315.25 798.75,-315.25 798.75,-296 852.25,-296 852.25,-315.25"/>
<text xml:space="preserve" text-anchor="middle" x="825.5" y="-301.75" font-family="Helvetica,sans-Serif" font-size="10.00">str_gsub</text>
</a>
</g>
</g>
<!-- Node1&#45;&gt;Node21 -->
<g id="edge21_Node000001_Node000021" class="edge">
<title>Node1&#45;&gt;Node21</title>
<g id="a_edge21_Node000001_Node000021"><a xlink:title=" ">
<path fill="none" stroke="#63b8ff" d="M902.59,-329.21C885.87,-324.03 867.28,-318.26 852.66,-313.73"/>
<polygon fill="#63b8ff" stroke="#63b8ff" points="901.22,-332.45 911.81,-332.07 903.29,-325.76 901.22,-332.45"/>
</a>
</g>
</g>
<!-- Node22 -->
<g id="Node000022" class="node">
<title>Node22</title>
<g id="a_Node000022"><a xlink:href="lstrlib_8c.html#a357ce37478dde24252724e3c4c66ce11" target="_top" xlink:title=" ">
<polygon fill="white" stroke="#666666" points="848.12,-278.25 802.88,-278.25 802.88,-259 848.12,-259 848.12,-278.25"/>
<text xml:space="preserve" text-anchor="middle" x="825.5" y="-264.75" font-family="Helvetica,sans-Serif" font-size="10.00">str_len</text>
</a>
</g>
</g>
<!-- Node1&#45;&gt;Node22 -->
<g id="edge22_Node000001_Node000022" class="edge">
<title>Node1&#45;&gt;Node22</title>
<g id="a_edge22_Node000001_Node000022"><a xlink:title=" ">
<path fill="none" stroke="#63b8ff" d="M923.86,-325.88C907.96,-314.16 885.72,-298.53 865,-286.62 859.75,-283.61 853.92,-280.68 848.41,-278.09"/>
<polygon fill="#63b8ff" stroke="#63b8ff" points="921.55,-328.52 931.66,-331.69 925.74,-322.91 921.55,-328.52"/>
</a>
</g>
</g>
<!-- Node33 -->
<g id="Node000033" class="node">
<title>Node33</title>
<g id="a_Node000033"><a xlink:href="lstrlib_8c.html#ab2235f81205d0482d03c8ae456a98992" target="_top" xlink:title=" ">
<polygon fill="white" stroke="#666666" points="853.38,-241.25 797.62,-241.25 797.62,-222 853.38,-222 853.38,-241.25"/>
<text xml:space="preserve" text-anchor="middle" x="825.5" y="-227.75" font-family="Helvetica,sans-Serif" font-size="10.00">str_lower</text>
</a>
</g>
</g>
<!-- Node1&#45;&gt;Node33 -->
<g id="edge34_Node000001_Node000033" class="edge">
<title>Node1&#45;&gt;Node33</title>
<g id="a_edge34_Node000001_Node000033"><a xlink:title=" ">
<path fill="none" stroke="#63b8ff" d="M932.97,-323.51C918.41,-303.08 893.06,-270.79 865,-249.62 860.99,-246.6 856.4,-243.92 851.81,-241.6"/>
<polygon fill="#63b8ff" stroke="#63b8ff" points="929.94,-325.28 938.52,-331.49 935.69,-321.28 929.94,-325.28"/>
</a>
</g>
</g>
<!-- Node34 -->
<g id="Node000034" class="node">
<title>Node34</title>
<g id="a_Node000034"><a xlink:href="lstrlib_8c.html#abcf8553ae8937fd4f4bf85c72f528710" target="_top" xlink:title=" ">
<polygon fill="white" stroke="#666666" points="852.25,-204.25 798.75,-204.25 798.75,-185 852.25,-185 852.25,-204.25"/>
<text xml:space="preserve" text-anchor="middle" x="825.5" y="-190.75" font-family="Helvetica,sans-Serif" font-size="10.00">str_pack</text>
</a>
</g>
</g>
<!-- Node1&#45;&gt;Node34 -->
<g id="edge35_Node000001_Node000034" class="edge">
<title>Node1&#45;&gt;Node34</title>
<g id="a_edge35_Node000001_Node000034"><a xlink:title=" ">
<path fill="none" stroke="#63b8ff" d="M937.71,-322.34C925.56,-294.4 900.31,-243.96 865,-212.62 861.36,-209.39 857.03,-206.63 852.62,-204.31"/>
<polygon fill="#63b8ff" stroke="#63b8ff" points="934.42,-323.56 941.52,-331.43 940.87,-320.85 934.42,-323.56"/>
</a>
</g>
</g>
<!-- Node35 -->
<g id="Node000035" class="node">
<title>Node35</title>
<g id="a_Node000035"><a xlink:href="lstrlib_8c.html#a4b2ffac60e817b9bfc54b32f8da3a6b4" target="_top" xlink:title=" ">
<polygon fill="white" stroke="#666666" points="857.88,-167.25 793.12,-167.25 793.12,-148 857.88,-148 857.88,-167.25"/>
<text xml:space="preserve" text-anchor="middle" x="825.5" y="-153.75" font-family="Helvetica,sans-Serif" font-size="10.00">str_reverse</text>
</a>
</g>
</g>
<!-- Node1&#45;&gt;Node35 -->
<g id="edge37_Node000001_Node000035" class="edge">
<title>Node1&#45;&gt;Node35</title>
<g id="a_edge37_Node000001_Node000035"><a xlink:title=" ">
<path fill="none" stroke="#63b8ff" d="M940.63,-321.51C931.06,-286.9 907.69,-217.73 865,-175.62 861.85,-172.52 858.06,-169.88 854.1,-167.65"/>
<polygon fill="#63b8ff" stroke="#63b8ff" points="937.23,-322.34 943.16,-331.12 944,-320.56 937.23,-322.34"/>
</a>
</g>
</g>
<!-- Node36 -->
<g id="Node000036" class="node">
<title>Node36</title>
<g id="a_Node000036"><a xlink:href="lstrlib_8c.html#a039b391d5f43533a0ce750c5e40d7752" target="_top" xlink:title=" ">
<polygon fill="white" stroke="#666666" points="849.62,-130.25 801.38,-130.25 801.38,-111 849.62,-111 849.62,-130.25"/>
<text xml:space="preserve" text-anchor="middle" x="825.5" y="-116.75" font-family="Helvetica,sans-Serif" font-size="10.00">str_sub</text>
</a>
</g>
</g>
<!-- Node1&#45;&gt;Node36 -->
<g id="edge38_Node000001_Node000036" class="edge">
<title>Node1&#45;&gt;Node36</title>
<g id="a_edge38_Node000001_Node000036"><a xlink:title=" ">
<path fill="none" stroke="#63b8ff" d="M942.76,-321.43C935.8,-281.01 915.44,-192.18 865,-138.62 860.85,-134.22 855.41,-130.79 849.93,-128.16"/>
<polygon fill="#63b8ff" stroke="#63b8ff" points="939.3,-321.93 944.33,-331.25 946.21,-320.82 939.3,-321.93"/>
</a>
</g>
</g>
<!-- Node37 -->
<g id="Node000037" class="node">
<title>Node37</title>
<g id="a_Node000037"><a xlink:href="lstrlib_8c.html#a3f3c1925e7829cbe972a744fa9168ec3" target="_top" xlink:title=" ">
<polygon fill="white" stroke="#666666" points="857.5,-93.25 793.5,-93.25 793.5,-74 857.5,-74 857.5,-93.25"/>
<text xml:space="preserve" text-anchor="middle" x="825.5" y="-79.75" font-family="Helvetica,sans-Serif" font-size="10.00">str_unpack</text>
</a>
</g>
</g>
<!-- Node1&#45;&gt;Node37 -->
<g id="edge39_Node000001_Node000037" class="edge">
<title>Node1&#45;&gt;Node37</title>
<g id="a_edge39_Node000001_Node000037"><a xlink:title=" ">
<path fill="none" stroke="#63b8ff" d="M944.26,-321.11C939.73,-275.26 923.16,-166.8 865,-101.62 862.15,-98.43 858.62,-95.76 854.85,-93.54"/>
<polygon fill="#63b8ff" stroke="#63b8ff" points="940.77,-321.36 945.12,-331.02 947.74,-320.75 940.77,-321.36"/>
</a>
</g>
</g>
<!-- Node38 -->
<g id="Node000038" class="node">
<title>Node38</title>
<g id="a_Node000038"><a xlink:href="lstrlib_8c.html#a38ed99b74af58070449ca344a7351f6a" target="_top" xlink:title=" ">
<polygon fill="white" stroke="#666666" points="853.75,-56.25 797.25,-56.25 797.25,-37 853.75,-37 853.75,-56.25"/>
<text xml:space="preserve" text-anchor="middle" x="825.5" y="-42.75" font-family="Helvetica,sans-Serif" font-size="10.00">str_upper</text>
</a>
</g>
</g>
<!-- Node1&#45;&gt;Node38 -->
<g id="edge40_Node000001_Node000038" class="edge">
<title>Node1&#45;&gt;Node38</title>
<g id="a_edge40_Node000001_Node000038"><a xlink:title=" ">
<path fill="none" stroke="#63b8ff" d="M945.43,-321.32C943.27,-270.73 931.18,-141.88 865,-64.62 862.02,-61.15 858.23,-58.3 854.19,-55.98"/>
<polygon fill="#63b8ff" stroke="#63b8ff" points="941.92,-321.27 945.75,-331.15 948.92,-321.04 941.92,-321.27"/>
</a>
</g>
</g>
<!-- Node39 -->
<g id="Node000039" class="node">
<title>Node39</title>
<g id="a_Node000039"><a xlink:href="lutf8lib_8c.html#a840e09db1ade39da79b0b4dece0e46eb" target="_top" xlink:title=" ">
<polygon fill="white" stroke="#666666" points="845.5,-19.25 805.5,-19.25 805.5,0 845.5,0 845.5,-19.25"/>
<text xml:space="preserve" text-anchor="middle" x="825.5" y="-5.75" font-family="Helvetica,sans-Serif" font-size="10.00">utflen</text>
</a>
</g>
</g>
<!-- Node1&#45;&gt;Node39 -->
<g id="edge41_Node000001_Node000039" class="edge">
<title>Node1&#45;&gt;Node39</title>
<g id="a_edge41_Node000001_Node000039"><a xlink:title=" ">
<path fill="none" stroke="#63b8ff" d="M946.32,-321.13C946.34,-265.87 939.08,-116.94 865,-27.62 860.1,-21.72 852.83,-17.64 845.92,-14.88"/>
<polygon fill="#63b8ff" stroke="#63b8ff" points="942.82,-320.99 946.22,-331.02 949.82,-321.06 942.82,-320.99"/>
</a>
</g>
</g>
<!-- Node5 -->
<g id="Node000005" class="node">
<title>Node5</title>
<g id="a_Node000005"><a xlink:href="liolib_8c.html#adba67ef94aaa532d9224ca04f8126ac2" target="_top" xlink:title=" ">
<polygon fill="white" stroke="#666666" points="736.5,-650.25 691.25,-650.25 691.25,-631 736.5,-631 736.5,-650.25"/>
<text xml:space="preserve" text-anchor="middle" x="713.88" y="-636.75" font-family="Helvetica,sans-Serif" font-size="10.00">f_write</text>
</a>
</g>
</g>
<!-- Node4&#45;&gt;Node5 -->
<g id="edge4_Node000004_Node000005" class="edge">
<title>Node4&#45;&gt;Node5</title>
<g id="a_edge4_Node000004_Node000005"><a xlink:title=" ">
<path fill="none" stroke="#63b8ff" d="M790.37,-615.14C772.95,-621.02 752.28,-628 736.97,-633.17"/>
<polygon fill="#63b8ff" stroke="#63b8ff" points="791.46,-618.47 799.82,-611.96 789.22,-611.84 791.46,-618.47"/>
</a>
</g>
</g>
<!-- Node6 -->
<g id="Node000006" class="node">
<title>Node6</title>
<g id="a_Node000006"><a xlink:href="liolib_8c.html#ada35daf906cc262cc6944cad92b93ac3" target="_top" xlink:title=" ">
<polygon fill="white" stroke="#666666" points="738.75,-613.25 689,-613.25 689,-594 738.75,-594 738.75,-613.25"/>
<text xml:space="preserve" text-anchor="middle" x="713.88" y="-599.75" font-family="Helvetica,sans-Serif" font-size="10.00">io_write</text>
</a>
</g>
</g>
<!-- Node4&#45;&gt;Node6 -->
<g id="edge5_Node000004_Node000006" class="edge">
<title>Node4&#45;&gt;Node6</title>
<g id="a_edge5_Node000004_Node000006"><a xlink:title=" ">
<path fill="none" stroke="#63b8ff" d="M789.87,-603.62C773.4,-603.62 754.12,-603.62 739.23,-603.62"/>
<polygon fill="#63b8ff" stroke="#63b8ff" points="789.74,-607.13 799.74,-603.63 789.74,-600.13 789.74,-607.13"/>
</a>
</g>
</g>
<!-- Node9 -->
<g id="Node000009" class="node">
<title>Node9</title>
<g id="a_Node000009"><a xlink:href="lutf8lib_8c.html#a7e953afe12aba1463b511c39ce46586d" target="_top" xlink:title=" ">
<polygon fill="white" stroke="#666666" points="745.5,-576.25 682.25,-576.25 682.25,-557 745.5,-557 745.5,-576.25"/>
<text xml:space="preserve" text-anchor="middle" x="713.88" y="-562.75" font-family="Helvetica,sans-Serif" font-size="10.00">iter_auxlax</text>
</a>
</g>
</g>
<!-- Node8&#45;&gt;Node9 -->
<g id="edge8_Node000008_Node000009" class="edge">
<title>Node8&#45;&gt;Node9</title>
<g id="a_edge8_Node000008_Node000009"><a xlink:title=" ">
<path fill="none" stroke="#63b8ff" d="M789.41,-541.47C775.06,-546.31 758.64,-551.85 744.86,-556.5"/>
<polygon fill="#63b8ff" stroke="#63b8ff" points="790.11,-544.93 798.46,-538.41 787.87,-538.29 790.11,-544.93"/>
</a>
</g>
</g>
<!-- Node11 -->
<g id="Node000011" class="node">
<title>Node11</title>
<g id="a_Node000011"><a xlink:href="lutf8lib_8c.html#afe5c5d5c71be22b9feefda4fe9e48ac9" target="_top" xlink:title=" ">
<polygon fill="white" stroke="#666666" points="750,-539.25 677.75,-539.25 677.75,-520 750,-520 750,-539.25"/>
<text xml:space="preserve" text-anchor="middle" x="713.88" y="-525.75" font-family="Helvetica,sans-Serif" font-size="10.00">iter_auxstrict</text>
</a>
</g>
</g>
<!-- Node8&#45;&gt;Node11 -->
<g id="edge10_Node000008_Node000011" class="edge">
<title>Node8&#45;&gt;Node11</title>
<g id="a_edge10_Node000008_Node000011"><a xlink:title=" ">
<path fill="none" stroke="#63b8ff" d="M788.62,-529.62C776.29,-529.62 762.5,-529.62 750.21,-529.62"/>
<polygon fill="#63b8ff" stroke="#63b8ff" points="788.38,-533.13 798.38,-529.63 788.38,-526.13 788.38,-533.13"/>
</a>
</g>
</g>
<!-- Node10 -->
<g id="Node000010" class="node">
<title>Node10</title>
<g id="a_Node000010"><a xlink:href="lutf8lib_8c.html#aaead346d7a9236dc0d97fe7914cae6e5" target="_top" xlink:title=" ">
<polygon fill="white" stroke="#666666" points="601.25,-557.25 540.25,-557.25 540.25,-538 601.25,-538 601.25,-557.25"/>
<text xml:space="preserve" text-anchor="middle" x="570.75" y="-543.75" font-family="Helvetica,sans-Serif" font-size="10.00">iter_codes</text>
</a>
</g>
</g>
<!-- Node9&#45;&gt;Node10 -->
<g id="edge9_Node000009_Node000010" class="edge">
<title>Node9&#45;&gt;Node10</title>
<g id="a_edge9_Node000009_Node000010"><a xlink:title=" ">
<path fill="none" stroke="#63b8ff" d="M670.75,-560.95C648.52,-557.96 621.77,-554.36 601.68,-551.65"/>
<polygon fill="#63b8ff" stroke="#63b8ff" points="670.03,-564.39 680.4,-562.25 670.96,-557.45 670.03,-564.39"/>
</a>
</g>
</g>
<!-- Node11&#45;&gt;Node10 -->
<g id="edge11_Node000011_Node000010" class="edge">
<title>Node11&#45;&gt;Node10</title>
<g id="a_edge11_Node000011_Node000010"><a xlink:title=" ">
<path fill="none" stroke="#63b8ff" d="M665.87,-535.62C644.67,-538.32 620.27,-541.44 601.63,-543.81"/>
<polygon fill="#63b8ff" stroke="#63b8ff" points="666.29,-539.1 675.76,-534.36 665.4,-532.15 666.29,-539.1"/>
</a>
</g>
</g>
<!-- Node13 -->
<g id="Node000013" class="node">
<title>Node13</title>
<g id="a_Node000013"><a xlink:href="loslib_8c.html#a6520f2562b500aee87a6a475995adefb" target="_top" xlink:title=" ">
<polygon fill="white" stroke="#666666" points="739.12,-502.25 688.62,-502.25 688.62,-483 739.12,-483 739.12,-502.25"/>
<text xml:space="preserve" text-anchor="middle" x="713.88" y="-488.75" font-family="Helvetica,sans-Serif" font-size="10.00">os_date</text>
</a>
</g>
</g>
<!-- Node12&#45;&gt;Node13 -->
<g id="edge13_Node000012_Node000013" class="edge">
<title>Node12&#45;&gt;Node13</title>
<g id="a_edge13_Node000012_Node000013"><a xlink:title=" ">
<path fill="none" stroke="#63b8ff" d="M774.12,-492.62C762.03,-492.62 749.66,-492.62 739.36,-492.62"/>
<polygon fill="#63b8ff" stroke="#63b8ff" points="774.03,-496.13 784.03,-492.63 774.03,-489.13 774.03,-496.13"/>
</a>
</g>
</g>
<!-- Node12&#45;&gt;Node14 -->
<g id="edge14_Node000012_Node000014" class="edge">
<title>Node12&#45;&gt;Node14</title>
<g id="a_edge14_Node000012_Node000014"><a xlink:title=" ">
<path fill="none" stroke="#63b8ff" d="M797.59,-476.67C793.63,-474.09 789.66,-471.36 786,-468.62 768.86,-455.81 767.67,-448.71 750,-436.62 745.82,-433.76 741.11,-431.05 736.55,-428.64"/>
<polygon fill="#63b8ff" stroke="#63b8ff" points="795.61,-479.56 805.94,-481.91 799.33,-473.63 795.61,-479.56"/>
</a>
</g>
</g>
<!-- Node15 -->
<g id="Node000015" class="node">
<title>Node15</title>
<g id="a_Node000015"><a xlink:href="ltablib_8c.html#add6973c515a288f41265aca8e0ae6412" target="_top" xlink:title=" ">
<polygon fill="white" stroke="#666666" points="738,-465.25 689.75,-465.25 689.75,-446 738,-446 738,-465.25"/>
<text xml:space="preserve" text-anchor="middle" x="713.88" y="-451.75" font-family="Helvetica,sans-Serif" font-size="10.00">tconcat</text>
</a>
</g>
</g>
<!-- Node12&#45;&gt;Node15 -->
<g id="edge15_Node000012_Node000015" class="edge">
<title>Node12&#45;&gt;Node15</title>
<g id="a_edge15_Node000012_Node000015"><a xlink:title=" ">
<path fill="none" stroke="#63b8ff" d="M783.71,-478.86C768.35,-473.68 751.42,-467.96 738.19,-463.49"/>
<polygon fill="#63b8ff" stroke="#63b8ff" points="782.52,-482.15 793.11,-482.03 784.75,-475.52 782.52,-482.15"/>
</a>
</g>
</g>
<!-- Node18 -->
<g id="Node000018" class="node">
<title>Node18</title>
<g id="a_Node000018"><a xlink:href="lstrlib_8c.html#a362a4bc9ba81ce87253cc3d74f015808" target="_top" xlink:title=" ">
<polygon fill="white" stroke="#666666" points="738,-391.25 689.75,-391.25 689.75,-372 738,-372 738,-391.25"/>
<text xml:space="preserve" text-anchor="middle" x="713.88" y="-377.75" font-family="Helvetica,sans-Serif" font-size="10.00">str_find</text>
</a>
</g>
</g>
<!-- Node17&#45;&gt;Node18 -->
<g id="edge18_Node000017_Node000018" class="edge">
<title>Node17&#45;&gt;Node18</title>
<g id="a_edge18_Node000017_Node000018"><a xlink:title=" ">
<path fill="none" stroke="#63b8ff" d="M778.92,-380.46C764.89,-380.71 750.04,-380.98 738.18,-381.2"/>
<polygon fill="#63b8ff" stroke="#63b8ff" points="778.97,-383.96 788.9,-380.27 778.84,-376.96 778.97,-383.96"/>
</a>
</g>
</g>
<!-- Node19 -->
<g id="Node000019" class="node">
<title>Node19</title>
<g id="a_Node000019"><a xlink:href="lstrlib_8c.html#a4b605e43b8f5738db9eae902bbc00f00" target="_top" xlink:title=" ">
<polygon fill="white" stroke="#666666" points="743.62,-354.25 684.12,-354.25 684.12,-335 743.62,-335 743.62,-354.25"/>
<text xml:space="preserve" text-anchor="middle" x="713.88" y="-340.75" font-family="Helvetica,sans-Serif" font-size="10.00">str_match</text>
</a>
</g>
</g>
<!-- Node17&#45;&gt;Node19 -->
<g id="edge19_Node000017_Node000019" class="edge">
<title>Node17&#45;&gt;Node19</title>
<g id="a_edge19_Node000017_Node000019"><a xlink:title=" ">
<path fill="none" stroke="#63b8ff" d="M781.92,-366.03C769.19,-361.97 755.53,-357.61 743.89,-353.89"/>
<polygon fill="#63b8ff" stroke="#63b8ff" points="780.76,-369.33 791.35,-369.04 782.89,-362.67 780.76,-369.33"/>
</a>
</g>
</g>
<!-- Node23 -->
<g id="Node000023" class="node">
<title>Node23</title>
<g id="a_Node000023"><a xlink:href="utility_8c.html#a316a5515038fc56d1914d12c054223da" target="_top" xlink:title=" ">
<polygon fill="white" stroke="#666666" points="741.38,-316.25 686.38,-316.25 686.38,-297 741.38,-297 741.38,-316.25"/>
<text xml:space="preserve" text-anchor="middle" x="713.88" y="-302.75" font-family="Helvetica,sans-Serif" font-size="10.00">endswith</text>
</a>
</g>
</g>
<!-- Node22&#45;&gt;Node23 -->
<g id="edge23_Node000022_Node000023" class="edge">
<title>Node22&#45;&gt;Node23</title>
<g id="a_edge23_Node000022_Node000023"><a xlink:title=" ">
<path fill="none" stroke="#63b8ff" d="M792.08,-279.86C776.07,-285.41 756.99,-292.03 741.8,-297.29"/>
<polygon fill="#63b8ff" stroke="#63b8ff" points="792.85,-283.3 801.15,-276.72 790.55,-276.69 792.85,-283.3"/>
</a>
</g>
</g>
<!-- Node24 -->
<g id="Node000024" class="node">
<title>Node24</title>
<g id="a_Node000024"><a xlink:href="utility_8c.html#af36a738df8c954d27fb58de383f9acbd" target="_top" xlink:title=" ">
<polygon fill="white" stroke="#666666" points="742.5,-279.25 685.25,-279.25 685.25,-260 742.5,-260 742.5,-279.25"/>
<text xml:space="preserve" text-anchor="middle" x="713.88" y="-265.75" font-family="Helvetica,sans-Serif" font-size="10.00">endswithi</text>
</a>
</g>
</g>
<!-- Node22&#45;&gt;Node24 -->
<g id="edge24_Node000022_Node000024" class="edge">
<title>Node22&#45;&gt;Node24</title>
<g id="a_edge24_Node000022_Node000024"><a xlink:title=" ">
<path fill="none" stroke="#63b8ff" d="M791.32,-268.93C775.76,-269.07 757.42,-269.24 742.61,-269.37"/>
<polygon fill="#63b8ff" stroke="#63b8ff" points="791.1,-272.43 801.07,-268.84 791.03,-265.43 791.1,-272.43"/>
</a>
</g>
</g>
<!-- Node31 -->
<g id="Node000031" class="node">
<title>Node31</title>
<g id="a_Node000031"><a xlink:href="utility_8c.html#ae8ae32b882f51850917493400e015736" target="_top" xlink:title=" ">
<polygon fill="white" stroke="#666666" points="743.25,-242.25 684.5,-242.25 684.5,-223 743.25,-223 743.25,-242.25"/>
<text xml:space="preserve" text-anchor="middle" x="713.88" y="-228.75" font-family="Helvetica,sans-Serif" font-size="10.00">startswith</text>
</a>
</g>
</g>
<!-- Node22&#45;&gt;Node31 -->
<g id="edge32_Node000022_Node000031" class="edge">
<title>Node22&#45;&gt;Node31</title>
<g id="a_edge32_Node000022_Node000031"><a xlink:title=" ">
<path fill="none" stroke="#63b8ff" d="M791.94,-257.93C776.53,-252.87 758.29,-246.88 743.42,-242"/>
<polygon fill="#63b8ff" stroke="#63b8ff" points="790.55,-261.16 801.14,-260.95 792.73,-254.51 790.55,-261.16"/>
</a>
</g>
</g>
<!-- Node32 -->
<g id="Node000032" class="node">
<title>Node32</title>
<g id="a_Node000032"><a xlink:href="utility_8c.html#aae9c5005552775c617334d385867a4a6" target="_top" xlink:title=" ">
<polygon fill="white" stroke="#666666" points="744.38,-205.25 683.38,-205.25 683.38,-186 744.38,-186 744.38,-205.25"/>
<text xml:space="preserve" text-anchor="middle" x="713.88" y="-191.75" font-family="Helvetica,sans-Serif" font-size="10.00">startswithi</text>
</a>
</g>
</g>
<!-- Node22&#45;&gt;Node32 -->
<g id="edge33_Node000022_Node000032" class="edge">
<title>Node22&#45;&gt;Node32</title>
<g id="a_edge33_Node000022_Node000032"><a xlink:title=" ">
<path fill="none" stroke="#63b8ff" d="M792.49,-254.79C790.24,-253.47 788.05,-252.08 786,-250.62 767.3,-237.33 768.45,-227.26 750,-213.62 746.03,-210.69 741.52,-207.99 737.08,-205.61"/>
<polygon fill="#63b8ff" stroke="#63b8ff" points="790.73,-257.81 801.21,-259.33 793.96,-251.61 790.73,-257.81"/>
</a>
</g>
</g>
<!-- Node25 -->
<g id="Node000025" class="node">
<title>Node25</title>
<g id="a_Node000025"><a xlink:href="image__conversion__scene_8c.html#a34fe104e7bb576f1cfb34ccce4d792f0" target="_top" xlink:title=" ">
<polygon fill="white" stroke="#666666" points="641.75,-279.25 499.75,-279.25 499.75,-260 641.75,-260 641.75,-279.25"/>
<text xml:space="preserve" text-anchor="middle" x="570.75" y="-265.75" font-family="Helvetica,sans-Serif" font-size="10.00">filename_has_stbi_extension</text>
</a>
</g>
</g>
<!-- Node24&#45;&gt;Node25 -->
<g id="edge25_Node000024_Node000025" class="edge">
<title>Node24&#45;&gt;Node25</title>
<g id="a_edge25_Node000024_Node000025"><a xlink:title=" ">
<path fill="none" stroke="#63b8ff" d="M673.55,-269.62C663.7,-269.62 652.84,-269.62 641.98,-269.62"/>
<polygon fill="#63b8ff" stroke="#63b8ff" points="673.48,-273.13 683.48,-269.63 673.48,-266.13 673.48,-273.13"/>
</a>
</g>
</g>
<!-- Node26 -->
<g id="Node000026" class="node">
<title>Node26</title>
<g id="a_Node000026"><a xlink:href="app_8c.html#acfaefb1e9797cdb230c753e8d25daf37" target="_top" xlink:title=" ">
<polygon fill="white" stroke="#666666" points="336.38,-297.25 224.38,-297.25 224.38,-278 336.38,-278 336.38,-297.25"/>
<text xml:space="preserve" text-anchor="middle" x="280.38" y="-283.75" font-family="Helvetica,sans-Serif" font-size="10.00">checkForPngCallback</text>
</a>
</g>
</g>
<!-- Node25&#45;&gt;Node26 -->
<g id="edge26_Node000025_Node000026" class="edge">
<title>Node25&#45;&gt;Node26</title>
<g id="a_edge26_Node000025_Node000026"><a xlink:title=" ">
<path fill="none" stroke="#63b8ff" d="M488.14,-274.72C439.62,-277.75 379.36,-281.51 336.44,-284.19"/>
<polygon fill="#63b8ff" stroke="#63b8ff" points="488.3,-278.22 498.06,-274.1 487.87,-271.23 488.3,-278.22"/>
</a>
</g>
</g>
<!-- Node29 -->
<g id="Node000029" class="node">
<title>Node29</title>
<g id="a_Node000029"><a xlink:href="image__conversion__scene_8c.html#a8392581304565176036b9933060aa3c0" target="_top" xlink:title=" ">
<polygon fill="white" stroke="#666666" points="463.75,-260.25 401.25,-260.25 401.25,-241 463.75,-241 463.75,-260.25"/>
<text xml:space="preserve" text-anchor="middle" x="432.5" y="-246.75" font-family="Helvetica,sans-Serif" font-size="10.00">on_list_file</text>
</a>
</g>
</g>
<!-- Node25&#45;&gt;Node29 -->
<g id="edge29_Node000025_Node000029" class="edge">
<title>Node25&#45;&gt;Node29</title>
<g id="a_edge29_Node000025_Node000029"><a xlink:title=" ">
<path fill="none" stroke="#63b8ff" d="M488.26,-258.26C479.7,-257.07 471.44,-255.92 464.03,-254.88"/>
<polygon fill="#63b8ff" stroke="#63b8ff" points="487.74,-261.72 498.13,-259.64 488.71,-254.79 487.74,-261.72"/>
</a>
</g>
</g>
<!-- Node27 -->
<g id="Node000027" class="node">
<title>Node27</title>
<g id="a_Node000027"><a xlink:href="app_8c.html#af256ea7a9c51fcbd49cb0007facbb8ea" target="_top" xlink:title=" ">
<polygon fill="white" stroke="#666666" points="159.5,-278.25 104.5,-278.25 104.5,-259 159.5,-259 159.5,-278.25"/>
<text xml:space="preserve" text-anchor="middle" x="132" y="-264.75" font-family="Helvetica,sans-Serif" font-size="10.00">PGB_init</text>
</a>
</g>
</g>
<!-- Node26&#45;&gt;Node27 -->
<g id="edge27_Node000026_Node000027" class="edge">
<title>Node26&#45;&gt;Node27</title>
<g id="a_edge27_Node000026_Node000027"><a xlink:title=" ">
<path fill="none" stroke="#63b8ff" d="M212.79,-278.98C194.03,-276.55 174.68,-274.04 159.74,-272.1"/>
<polygon fill="#63b8ff" stroke="#63b8ff" points="212.17,-282.43 222.54,-280.25 213.07,-275.49 212.17,-282.43"/>
</a>
</g>
</g>
<!-- Node28 -->
<g id="Node000028" class="node">
<title>Node28</title>
<g id="a_Node000028"><a xlink:href="main_8c.html#a77034286b8c64d0735c69535c5e9b732" target="_top" xlink:title=" ">
<polygon fill="white" stroke="#666666" points="68.5,-278.25 0,-278.25 0,-259 68.5,-259 68.5,-278.25"/>
<text xml:space="preserve" text-anchor="middle" x="34.25" y="-264.75" font-family="Helvetica,sans-Serif" font-size="10.00">__section__</text>
</a>
</g>
</g>
<!-- Node27&#45;&gt;Node28 -->
<g id="edge28_Node000027_Node000028" class="edge">
<title>Node27&#45;&gt;Node28</title>
<g id="a_edge28_Node000027_Node000028"><a xlink:title=" ">
<path fill="none" stroke="#63b8ff" d="M92.81,-268.62C84.87,-268.62 76.56,-268.62 68.8,-268.62"/>
<polygon fill="#63b8ff" stroke="#63b8ff" points="92.56,-272.13 102.56,-268.63 92.56,-265.13 92.56,-272.13"/>
</a>
</g>
</g>
<!-- Node30 -->
<g id="Node000030" class="node">
<title>Node30</title>
<g id="a_Node000030"><a xlink:href="image__conversion__scene_8c.html#aa3559936491ddf78b9cf06fcbdd32d22" target="_top" xlink:title=" ">
<polygon fill="white" stroke="#666666" points="365.25,-260.25 195.5,-260.25 195.5,-241 365.25,-241 365.25,-260.25"/>
<text xml:space="preserve" text-anchor="middle" x="280.38" y="-246.75" font-family="Helvetica,sans-Serif" font-size="10.00">PGB_ImageConversionScene_new</text>
</a>
</g>
</g>
<!-- Node29&#45;&gt;Node30 -->
<g id="edge30_Node000029_Node000030" class="edge">
<title>Node29&#45;&gt;Node30</title>
<g id="a_edge30_Node000029_Node000030"><a xlink:title=" ">
<path fill="none" stroke="#63b8ff" d="M389.49,-250.62C381.99,-250.62 373.94,-250.62 365.75,-250.62"/>
<polygon fill="#63b8ff" stroke="#63b8ff" points="389.24,-254.13 399.24,-250.63 389.24,-247.13 389.24,-254.13"/>
</a>
</g>
</g>
<!-- Node30&#45;&gt;Node27 -->
<g id="edge31_Node000030_Node000027" class="edge">
<title>Node30&#45;&gt;Node27</title>
<g id="a_edge31_Node000030_Node000027"><a xlink:title=" ">
<path fill="none" stroke="#63b8ff" d="M185.91,-262.12C176.44,-263.28 167.47,-264.39 159.69,-265.34"/>
<polygon fill="#63b8ff" stroke="#63b8ff" points="186.2,-265.61 195.7,-260.91 185.35,-258.66 186.2,-265.61"/>
</a>
</g>
</g>
</g>
</svg>

<g id="navigator" transform="translate(0 0)" fill="#404254">
  <rect fill="#f2f5e9" fill-opacity="0.5" stroke="#606060" stroke-width=".5" x="0" y="0" width="60" height="60"/>
  <use id="zoomplus" xlink:href="#zoomPlus" x="17" y="9" onmousedown="handleZoom(evt,'in')"/>
  <use id="zoomminus" xlink:href="#zoomMin" x="42" y="9" onmousedown="handleZoom(evt,'out')"/>
  <use id="reset" xlink:href="#resetDef" x="30" y="36" onmousedown="handleReset()"/>
   <use id="arrowup" xlink:href="#arrowUp" x="0" y="0" onmousedown="handlePan(0,-1)"/>
  <use id="arrowright" xlink:href="#arrowRight" x="0" y="0" onmousedown="handlePan(1,0)"/>
  <use id="arrowdown" xlink:href="#arrowDown" x="0" y="0" onmousedown="handlePan(0,1)"/>
  <use id="arrowleft" xlink:href="#arrowLeft" x="0" y="0" onmousedown="handlePan(-1,0)"/>
</g>
<svg viewBox="0 0 15 15" width="100%" height="30px" preserveAspectRatio="xMaxYMin meet">
 <g id="arrow_out" transform="scale(0.3 0.3)">
  <a xlink:href="lauxlib_8h_afd30f08bd397c584ea503c124035103c_icgraph_org.svg" target="_base">
   <rect id="button" ry="5" rx="5" y="6" x="6" height="38" width="38"
        fill="#f2f5e9" fill-opacity="0.5" stroke="#606060" stroke-width="1.0"/>
   <path id="arrow"
     d="M 11.500037,31.436501 C 11.940474,20.09759 22.043105,11.32322 32.158766,21.979434 L 37.068811,17.246167 C 37.068811,17.246167 37.088388,32 37.088388,32 L 22.160133,31.978069 C 22.160133,31.978069 26.997745,27.140456 26.997745,27.140456 C 18.528582,18.264221 13.291696,25.230495 11.500037,31.436501 z"
     style="fill:#404040;"/>
  </a>
 </g>
</svg>

<style type='text/css'>
<![CDATA[
[data-mouse-over-selected='false'] { opacity: 0.7; }
[data-mouse-over-selected='true']  { opacity: 1.0; }
]]>
</style>
<script type="application/ecmascript"><![CDATA[
document.addEventListener('DOMContentLoaded', (event) => {
  highlightEdges();
  highlightAdjacentNodes();
});
]]></script>
</svg>
