<?xml version="1.0" encoding="UTF-8" standalone="no"?>
<!DOCTYPE svg PUBLIC "-//W3C//DTD SVG 1.1//EN"
 "http://www.w3.org/Graphics/SVG/1.1/DTD/svg11.dtd">
<!-- Generated by graphviz version 13.1.0 (20250701.0955)
 -->
<!-- Title: luaL_optinteger Pages: 1 -->
<!--zoomable 806 -->

<svg id="main" version="1.1" xmlns="http://www.w3.org/2000/svg" xmlns:xlink="http://www.w3.org/1999/xlink" xml:space="preserve" onload="init(evt)">

<style type="text/css"><![CDATA[
.node, .edge {opacity: 0.7;}
.node.selected, .edge.selected {opacity: 1;}
.edge:hover path { stroke: red; }
.edge:hover polygon { stroke: red; fill: red; }
]]></style>

<defs>
  <circle id="rim" cx="0" cy="0" r="7"/>
  <circle id="rim2" cx="0" cy="0" r="3.5"/>
  <g id="zoomPlus">
    <use xlink:href="#rim" fill="#404040"><set attributeName="fill" to="#808080" begin="zoomplus.mouseover" end="zoomplus.mouseout"/></use>
    <path d="M-4,0h8M0,-4v8" fill="none" stroke="white" stroke-width="1.5" pointer-events="none"/>
  </g>
  <g id="zoomMin">
    <use xlink:href="#rim" fill="#404040"><set attributeName="fill" to="#808080" begin="zoomminus.mouseover" end="zoomminus.mouseout"/></use>
    <path d="M-4,0h8" fill="none" stroke="white" stroke-width="1.5" pointer-events="none"/>
  </g>
  <g id="arrowUp" transform="translate(30 24)">
    <use xlink:href="#rim"/>
    <path pointer-events="none" fill="none" stroke="white" stroke-width="1.5" d="M0,-3.0v7 M-2.5,-0.5L0,-3.0L2.5,-0.5"/>
  </g>
  <g id="arrowRight" transform="rotate(90) translate(36 -43)">
    <use xlink:href="#rim"/>
    <path pointer-events="none" fill="none" stroke="white" stroke-width="1.5" d="M0,-3.0v7 M-2.5,-0.5L0,-3.0L2.5,-0.5"/>
  </g>
  <g id="arrowDown" transform="rotate(180) translate(-30 -48)">
    <use xlink:href="#rim"/>
    <path pointer-events="none" fill="none" stroke="white" stroke-width="1.5" d="M0,-3.0v7 M-2.5,-0.5L0,-3.0L2.5,-0.5"/>
  </g>
  <g id="arrowLeft" transform="rotate(270) translate(-36 17)">
    <use xlink:href="#rim"/>
    <path pointer-events="none" fill="none" stroke="white" stroke-width="1.5" d="M0,-3.0v7 M-2.5,-0.5L0,-3.0L2.5,-0.5"/>
  </g>
  <g id="resetDef">
    <use xlink:href="#rim2" fill="#404040"><set attributeName="fill" to="#808080" begin="reset.mouseover" end="reset.mouseout"/></use>
  </g>
</defs>
<script type="application/ecmascript">
var viewWidth = 334;
var viewHeight = 806;
var sectionId = 'dynsection-27';
</script>
<script type="application/ecmascript" xlink:href="svg.min.js"/>
<svg id="graph" class="graph">
<g id="viewport">
<title>luaL_optinteger</title>
<!-- Node1 -->
<g id="Node000001" class="node">
<title>Node1</title>
<g id="a_Node000001"><a xlink:title=" ">
<polygon fill="#999999" stroke="#666666" points="325.5,-407.25 243.5,-407.25 243.5,-388 325.5,-388 325.5,-407.25"/>
<text xml:space="preserve" text-anchor="middle" x="284.5" y="-393.75" font-family="Helvetica,sans-Serif" font-size="10.00">luaL_optinteger</text>
</a>
</g>
</g>
<!-- Node2 -->
<g id="Node000002" class="node">
<title>Node2</title>
<g id="a_Node000002"><a xlink:href="lutf8lib_8c.html#a805a182cc5dde6d73e07922e8454eaf7" target="_top" xlink:title=" ">
<polygon fill="white" stroke="#666666" points="185.38,-798.25 125.88,-798.25 125.88,-779 185.38,-779 185.38,-798.25"/>
<text xml:space="preserve" text-anchor="middle" x="155.62" y="-784.75" font-family="Helvetica,sans-Serif" font-size="10.00">byteoffset</text>
</a>
</g>
</g>
<!-- Node1&#45;&gt;Node2 -->
<g id="edge1_Node000001_Node000002" class="edge">
<title>Node1&#45;&gt;Node2</title>
<g id="a_edge1_Node000001_Node000002"><a xlink:title=" ">
<path fill="none" stroke="#63b8ff" d="M281.87,-419.03C276.06,-490.13 254.15,-716.99 207.5,-770.62 201.9,-777.06 193.86,-781.19 185.81,-783.85"/>
<polygon fill="#63b8ff" stroke="#63b8ff" points="285.35,-419.39 282.65,-409.15 278.38,-418.84 285.35,-419.39"/>
</a>
</g>
</g>
<!-- Node3 -->
<g id="Node000003" class="node">
<title>Node3</title>
<g id="a_Node000003"><a xlink:href="lutf8lib_8c.html#af4280cee645f392590f2ed63a6301320" target="_top" xlink:title=" ">
<polygon fill="white" stroke="#666666" points="184.62,-761.25 126.62,-761.25 126.62,-742 184.62,-742 184.62,-761.25"/>
<text xml:space="preserve" text-anchor="middle" x="155.62" y="-747.75" font-family="Helvetica,sans-Serif" font-size="10.00">codepoint</text>
</a>
</g>
</g>
<!-- Node1&#45;&gt;Node3 -->
<g id="edge2_Node000001_Node000003" class="edge">
<title>Node1&#45;&gt;Node3</title>
<g id="a_edge2_Node000001_Node000003"><a xlink:title=" ">
<path fill="none" stroke="#63b8ff" d="M281.35,-419.03C274.28,-485.38 249.78,-686.06 207.5,-733.62 201.65,-740.21 193.24,-744.38 184.93,-747.03"/>
<polygon fill="#63b8ff" stroke="#63b8ff" points="284.83,-419.44 282.38,-409.14 277.86,-418.72 284.83,-419.44"/>
</a>
</g>
</g>
<!-- Node4 -->
<g id="Node000004" class="node">
<title>Node4</title>
<g id="a_Node000004"><a xlink:href="ldblib_8c.html#a129f5b6b3a5f37b1b05a6db5b3a1e0be" target="_top" xlink:title=" ">
<polygon fill="white" stroke="#666666" points="199.25,-724.25 112,-724.25 112,-705 199.25,-705 199.25,-724.25"/>
<text xml:space="preserve" text-anchor="middle" x="155.62" y="-710.75" font-family="Helvetica,sans-Serif" font-size="10.00">db_getuservalue</text>
</a>
</g>
</g>
<!-- Node1&#45;&gt;Node4 -->
<g id="edge3_Node000001_Node000004" class="edge">
<title>Node1&#45;&gt;Node4</title>
<g id="a_edge3_Node000001_Node000004"><a xlink:title=" ">
<path fill="none" stroke="#63b8ff" d="M280.76,-418.64C272.4,-479.62 245.51,-654.98 207.5,-696.62 204.59,-699.81 201.09,-702.43 197.3,-704.59"/>
<polygon fill="#63b8ff" stroke="#63b8ff" points="284.19,-419.32 282.05,-408.95 277.26,-418.39 284.19,-419.32"/>
</a>
</g>
</g>
<!-- Node5 -->
<g id="Node000005" class="node">
<title>Node5</title>
<g id="a_Node000005"><a xlink:href="ldblib_8c.html#aa0c362d361f8f9bd8a002c34c393e2b0" target="_top" xlink:title=" ">
<polygon fill="white" stroke="#666666" points="188.75,-687.25 122.5,-687.25 122.5,-668 188.75,-668 188.75,-687.25"/>
<text xml:space="preserve" text-anchor="middle" x="155.62" y="-673.75" font-family="Helvetica,sans-Serif" font-size="10.00">db_sethook</text>
</a>
</g>
</g>
<!-- Node1&#45;&gt;Node5 -->
<g id="edge4_Node000001_Node000005" class="edge">
<title>Node1&#45;&gt;Node5</title>
<g id="a_edge4_Node000001_Node000005"><a xlink:title=" ">
<path fill="none" stroke="#63b8ff" d="M283.53,-419.1C282.43,-468.32 272.85,-590.38 207.5,-659.62 202.55,-664.87 195.97,-668.59 189.2,-671.23"/>
<polygon fill="#63b8ff" stroke="#63b8ff" points="287.03,-419.29 283.64,-409.25 280.03,-419.21 287.03,-419.29"/>
</a>
</g>
</g>
<!-- Node6 -->
<g id="Node000006" class="node">
<title>Node6</title>
<g id="a_Node000006"><a xlink:href="ldblib_8c.html#a233c3c4d12bda0fdbf515a18b8961461" target="_top" xlink:title=" ">
<polygon fill="white" stroke="#666666" points="199.25,-650.25 112,-650.25 112,-631 199.25,-631 199.25,-650.25"/>
<text xml:space="preserve" text-anchor="middle" x="155.62" y="-636.75" font-family="Helvetica,sans-Serif" font-size="10.00">db_setuservalue</text>
</a>
</g>
</g>
<!-- Node1&#45;&gt;Node6 -->
<g id="edge5_Node000001_Node000006" class="edge">
<title>Node1&#45;&gt;Node6</title>
<g id="a_edge5_Node000001_Node000006"><a xlink:title=" ">
<path fill="none" stroke="#63b8ff" d="M282.31,-419.02C278.73,-463.14 264.4,-564.9 207.5,-622.62 204.34,-625.83 200.58,-628.46 196.55,-630.63"/>
<polygon fill="#63b8ff" stroke="#63b8ff" points="285.79,-419.47 282.99,-409.25 278.81,-418.99 285.79,-419.47"/>
</a>
</g>
</g>
<!-- Node7 -->
<g id="Node000007" class="node">
<title>Node7</title>
<g id="a_Node000007"><a xlink:href="ldblib_8c.html#ae0792d4f3f6eedd535895e05426b82df" target="_top" xlink:title=" ">
<polygon fill="white" stroke="#666666" points="192.88,-613.25 118.38,-613.25 118.38,-594 192.88,-594 192.88,-613.25"/>
<text xml:space="preserve" text-anchor="middle" x="155.62" y="-599.75" font-family="Helvetica,sans-Serif" font-size="10.00">db_traceback</text>
</a>
</g>
</g>
<!-- Node1&#45;&gt;Node7 -->
<g id="edge6_Node000001_Node000007" class="edge">
<title>Node1&#45;&gt;Node7</title>
<g id="a_edge6_Node000001_Node000007"><a xlink:title=" ">
<path fill="none" stroke="#63b8ff" d="M280.72,-418.62C274.55,-457.05 256.18,-539.05 207.5,-585.62 203.44,-589.51 198.49,-592.56 193.28,-594.96"/>
<polygon fill="#63b8ff" stroke="#63b8ff" points="284.16,-419.27 282.15,-408.87 277.24,-418.25 284.16,-419.27"/>
</a>
</g>
</g>
<!-- Node8 -->
<g id="Node000008" class="node">
<title>Node8</title>
<g id="a_Node000008"><a xlink:href="liolib_8c.html#ace5e1a23cc9e2ffe7ae6cc523e54de73" target="_top" xlink:title=" ">
<polygon fill="white" stroke="#666666" points="178.25,-576.25 133,-576.25 133,-557 178.25,-557 178.25,-576.25"/>
<text xml:space="preserve" text-anchor="middle" x="155.62" y="-562.75" font-family="Helvetica,sans-Serif" font-size="10.00">f_seek</text>
</a>
</g>
</g>
<!-- Node1&#45;&gt;Node8 -->
<g id="edge7_Node000001_Node000008" class="edge">
<title>Node1&#45;&gt;Node8</title>
<g id="a_edge7_Node000001_Node000008"><a xlink:title=" ">
<path fill="none" stroke="#63b8ff" d="M278.4,-418.5C269.45,-450.84 247.92,-513.01 207.5,-548.62 199.42,-555.75 188.33,-560.1 178.57,-562.74"/>
<polygon fill="#63b8ff" stroke="#63b8ff" points="281.7,-419.71 280.84,-409.15 274.92,-417.94 281.7,-419.71"/>
</a>
</g>
</g>
<!-- Node9 -->
<g id="Node000009" class="node">
<title>Node9</title>
<g id="a_Node000009"><a xlink:href="liolib_8c.html#aa7d559e7d43a6133ec495d6b4e5d68f2" target="_top" xlink:title=" ">
<polygon fill="white" stroke="#666666" points="183.88,-539.25 127.38,-539.25 127.38,-520 183.88,-520 183.88,-539.25"/>
<text xml:space="preserve" text-anchor="middle" x="155.62" y="-525.75" font-family="Helvetica,sans-Serif" font-size="10.00">f_setvbuf</text>
</a>
</g>
</g>
<!-- Node1&#45;&gt;Node9 -->
<g id="edge8_Node000001_Node000009" class="edge">
<title>Node1&#45;&gt;Node9</title>
<g id="a_edge8_Node000001_Node000009"><a xlink:title=" ">
<path fill="none" stroke="#63b8ff" d="M273.65,-417.48C261.08,-441.11 237.34,-480.53 207.5,-505.62 200.7,-511.34 192.3,-516.03 184.31,-519.69"/>
<polygon fill="#63b8ff" stroke="#63b8ff" points="276.6,-419.4 278.07,-408.9 270.37,-416.19 276.6,-419.4"/>
</a>
</g>
</g>
<!-- Node10 -->
<g id="Node000010" class="node">
<title>Node10</title>
<g id="a_Node000010"><a xlink:href="lstrlib_8c.html#a9ed9b9b49334e68a83251eeff8427a5a" target="_top" xlink:title=" ">
<polygon fill="white" stroke="#666666" points="186.12,-463.25 125.12,-463.25 125.12,-444 186.12,-444 186.12,-463.25"/>
<text xml:space="preserve" text-anchor="middle" x="155.62" y="-449.75" font-family="Helvetica,sans-Serif" font-size="10.00">getendpos</text>
</a>
</g>
</g>
<!-- Node1&#45;&gt;Node10 -->
<g id="edge9_Node000001_Node000010" class="edge">
<title>Node1&#45;&gt;Node10</title>
<g id="a_edge9_Node000001_Node000010"><a xlink:title=" ">
<path fill="none" stroke="#63b8ff" d="M255,-412.92C240.9,-420.22 223.51,-428.82 207.5,-435.62 200.77,-438.48 193.42,-441.27 186.45,-443.77"/>
<polygon fill="#63b8ff" stroke="#63b8ff" points="256.49,-416.09 263.72,-408.35 253.24,-409.89 256.49,-416.09"/>
</a>
</g>
</g>
<!-- Node11 -->
<g id="Node000011" class="node">
<title>Node11</title>
<g id="a_Node000011"><a xlink:href="lstrlib_8c.html#ae561770420cfd1894054415df9d4c423" target="_top" xlink:title=" ">
<polygon fill="white" stroke="#666666" points="59.5,-500.25 8.25,-500.25 8.25,-481 59.5,-481 59.5,-500.25"/>
<text xml:space="preserve" text-anchor="middle" x="33.88" y="-486.75" font-family="Helvetica,sans-Serif" font-size="10.00">str_byte</text>
</a>
</g>
</g>
<!-- Node1&#45;&gt;Node11 -->
<g id="edge18_Node000001_Node000011" class="edge">
<title>Node1&#45;&gt;Node11</title>
<g id="a_edge18_Node000001_Node000011"><a xlink:title=" ">
<path fill="none" stroke="#63b8ff" d="M270.23,-416.72C256.69,-434.51 233.96,-460.12 207.5,-472.62 159.14,-495.47 94.85,-495.29 59.97,-493.03"/>
<polygon fill="#63b8ff" stroke="#63b8ff" points="272.97,-418.9 276.04,-408.76 267.32,-414.77 272.97,-418.9"/>
</a>
</g>
</g>
<!-- Node13 -->
<g id="Node000013" class="node">
<title>Node13</title>
<g id="a_Node000013"><a xlink:href="lstrlib_8c.html#ab55a72bb412d6186c82fd75de44cd031" target="_top" xlink:title=" ">
<polygon fill="white" stroke="#666666" points="179.75,-426.25 131.5,-426.25 131.5,-407 179.75,-407 179.75,-426.25"/>
<text xml:space="preserve" text-anchor="middle" x="155.62" y="-412.75" font-family="Helvetica,sans-Serif" font-size="10.00">gmatch</text>
</a>
</g>
</g>
<!-- Node1&#45;&gt;Node13 -->
<g id="edge12_Node000001_Node000013" class="edge">
<title>Node1&#45;&gt;Node13</title>
<g id="a_edge12_Node000001_Node000013"><a xlink:title=" ">
<path fill="none" stroke="#63b8ff" d="M231.78,-405.37C213.86,-408.05 194.65,-410.93 180.14,-413.1"/>
<polygon fill="#63b8ff" stroke="#63b8ff" points="232.14,-408.86 241.51,-403.91 231.1,-401.93 232.14,-408.86"/>
</a>
</g>
</g>
<!-- Node14 -->
<g id="Node000014" class="node">
<title>Node14</title>
<g id="a_Node000014"><a xlink:href="lbaselib_8c.html#a07f71966c943cc9761ab129f64d4ac80" target="_top" xlink:title=" ">
<polygon fill="white" stroke="#666666" points="207.5,-389.25 103.75,-389.25 103.75,-370 207.5,-370 207.5,-389.25"/>
<text xml:space="preserve" text-anchor="middle" x="155.62" y="-375.75" font-family="Helvetica,sans-Serif" font-size="10.00">luaB_collectgarbage</text>
</a>
</g>
</g>
<!-- Node1&#45;&gt;Node14 -->
<g id="edge13_Node000001_Node000014" class="edge">
<title>Node1&#45;&gt;Node14</title>
<g id="a_edge13_Node000001_Node000014"><a xlink:title=" ">
<path fill="none" stroke="#63b8ff" d="M231.72,-390.28C223.85,-389.16 215.74,-388.01 207.88,-386.9"/>
<polygon fill="#63b8ff" stroke="#63b8ff" points="231.12,-393.73 241.51,-391.67 232.1,-386.8 231.12,-393.73"/>
</a>
</g>
</g>
<!-- Node15 -->
<g id="Node000015" class="node">
<title>Node15</title>
<g id="a_Node000015"><a xlink:href="lbaselib_8c.html#a2ecfa987569d0b4c1063f3e204e42dd2" target="_top" xlink:title=" ">
<polygon fill="white" stroke="#666666" points="185.75,-352.25 125.5,-352.25 125.5,-333 185.75,-333 185.75,-352.25"/>
<text xml:space="preserve" text-anchor="middle" x="155.62" y="-338.75" font-family="Helvetica,sans-Serif" font-size="10.00">luaB_error</text>
</a>
</g>
</g>
<!-- Node1&#45;&gt;Node15 -->
<g id="edge14_Node000001_Node000015" class="edge">
<title>Node1&#45;&gt;Node15</title>
<g id="a_edge14_Node000001_Node000015"><a xlink:title=" ">
<path fill="none" stroke="#63b8ff" d="M254.38,-382.49C240.38,-375.46 223.25,-367.22 207.5,-360.62 200.67,-357.77 193.21,-354.96 186.16,-352.44"/>
<polygon fill="#63b8ff" stroke="#63b8ff" points="252.56,-385.49 263.06,-386.9 255.73,-379.25 252.56,-385.49"/>
</a>
</g>
</g>
<!-- Node17 -->
<g id="Node000017" class="node">
<title>Node17</title>
<g id="a_Node000017"><a xlink:href="lmathlib_8c.html#a55540667178ac717a1c6283b58b00ce7" target="_top" xlink:title=" ">
<polygon fill="white" stroke="#666666" points="203.75,-315.25 107.5,-315.25 107.5,-296 203.75,-296 203.75,-315.25"/>
<text xml:space="preserve" text-anchor="middle" x="155.62" y="-301.75" font-family="Helvetica,sans-Serif" font-size="10.00">math_randomseed</text>
</a>
</g>
</g>
<!-- Node1&#45;&gt;Node17 -->
<g id="edge16_Node000001_Node000017" class="edge">
<title>Node1&#45;&gt;Node17</title>
<g id="a_edge16_Node000001_Node000017"><a xlink:title=" ">
<path fill="none" stroke="#63b8ff" d="M268.34,-378.81C254.14,-362.28 231.56,-338.58 207.5,-323.62 202.57,-320.56 197.04,-317.92 191.49,-315.69"/>
<polygon fill="#63b8ff" stroke="#63b8ff" points="265.61,-381.01 274.71,-386.44 270.98,-376.52 265.61,-381.01"/>
</a>
</g>
</g>
<!-- Node18 -->
<g id="Node000018" class="node">
<title>Node18</title>
<g id="a_Node000018"><a xlink:href="loslib_8c.html#a905e81425fe3d6d0b363c10162a2a37b" target="_top" xlink:title=" ">
<polygon fill="white" stroke="#666666" points="179.38,-278.25 131.88,-278.25 131.88,-259 179.38,-259 179.38,-278.25"/>
<text xml:space="preserve" text-anchor="middle" x="155.62" y="-264.75" font-family="Helvetica,sans-Serif" font-size="10.00">os_exit</text>
</a>
</g>
</g>
<!-- Node1&#45;&gt;Node18 -->
<g id="edge17_Node000001_Node000018" class="edge">
<title>Node1&#45;&gt;Node18</title>
<g id="a_edge17_Node000001_Node000018"><a xlink:title=" ">
<path fill="none" stroke="#63b8ff" d="M274.57,-377.43C262.65,-352.7 239.31,-311.07 207.5,-286.62 199.4,-280.4 188.98,-276.22 179.68,-273.46"/>
<polygon fill="#63b8ff" stroke="#63b8ff" points="271.34,-378.8 278.72,-386.41 277.7,-375.86 271.34,-378.8"/>
</a>
</g>
</g>
<!-- Node19 -->
<g id="Node000019" class="node">
<title>Node19</title>
<g id="a_Node000019"><a xlink:href="lstrlib_8c.html#a692514aa32ae2668683a4db15259d26b" target="_top" xlink:title=" ">
<polygon fill="white" stroke="#666666" points="190.25,-241.25 121,-241.25 121,-222 190.25,-222 190.25,-241.25"/>
<text xml:space="preserve" text-anchor="middle" x="155.62" y="-227.75" font-family="Helvetica,sans-Serif" font-size="10.00">str_find_aux</text>
</a>
</g>
</g>
<!-- Node1&#45;&gt;Node19 -->
<g id="edge19_Node000001_Node000019" class="edge">
<title>Node1&#45;&gt;Node19</title>
<g id="a_edge19_Node000001_Node000019"><a xlink:title=" ">
<path fill="none" stroke="#63b8ff" d="M278.16,-376.74C268.97,-344.92 247.24,-284.36 207.5,-249.62 202.63,-245.37 196.69,-242.1 190.61,-239.6"/>
<polygon fill="#63b8ff" stroke="#63b8ff" points="274.76,-377.57 280.76,-386.3 281.51,-375.73 274.76,-377.57"/>
</a>
</g>
</g>
<!-- Node22 -->
<g id="Node000022" class="node">
<title>Node22</title>
<g id="a_Node000022"><a xlink:href="lstrlib_8c.html#a42337c674d265175bcc2b2f3809c7339" target="_top" xlink:title=" ">
<polygon fill="white" stroke="#666666" points="182.38,-204.25 128.88,-204.25 128.88,-185 182.38,-185 182.38,-204.25"/>
<text xml:space="preserve" text-anchor="middle" x="155.62" y="-190.75" font-family="Helvetica,sans-Serif" font-size="10.00">str_gsub</text>
</a>
</g>
</g>
<!-- Node1&#45;&gt;Node22 -->
<g id="edge22_Node000001_Node000022" class="edge">
<title>Node1&#45;&gt;Node22</title>
<g id="a_edge22_Node000001_Node000022"><a xlink:title=" ">
<path fill="none" stroke="#63b8ff" d="M280.53,-376.43C274.1,-338.37 255.41,-258.21 207.5,-212.62 200.71,-206.17 191.46,-202.01 182.71,-199.34"/>
<polygon fill="#63b8ff" stroke="#63b8ff" points="277.04,-376.76 282.03,-386.11 283.96,-375.69 277.04,-376.76"/>
</a>
</g>
</g>
<!-- Node23 -->
<g id="Node000023" class="node">
<title>Node23</title>
<g id="a_Node000023"><a xlink:href="lstrlib_8c.html#a3f3c1925e7829cbe972a744fa9168ec3" target="_top" xlink:title=" ">
<polygon fill="white" stroke="#666666" points="187.62,-167.25 123.62,-167.25 123.62,-148 187.62,-148 187.62,-167.25"/>
<text xml:space="preserve" text-anchor="middle" x="155.62" y="-153.75" font-family="Helvetica,sans-Serif" font-size="10.00">str_unpack</text>
</a>
</g>
</g>
<!-- Node1&#45;&gt;Node23 -->
<g id="edge23_Node000001_Node000023" class="edge">
<title>Node1&#45;&gt;Node23</title>
<g id="a_edge23_Node000001_Node000023"><a xlink:title=" ">
<path fill="none" stroke="#63b8ff" d="M282.2,-376.22C278.41,-332.53 263.72,-232.42 207.5,-175.62 202.16,-170.23 195.11,-166.45 187.96,-163.8"/>
<polygon fill="#63b8ff" stroke="#63b8ff" points="278.7,-376.42 282.94,-386.13 285.68,-375.9 278.7,-376.42"/>
</a>
</g>
</g>
<!-- Node24 -->
<g id="Node000024" class="node">
<title>Node24</title>
<g id="a_Node000024"><a xlink:href="ltablib_8c.html#add6973c515a288f41265aca8e0ae6412" target="_top" xlink:title=" ">
<polygon fill="white" stroke="#666666" points="179.75,-130.25 131.5,-130.25 131.5,-111 179.75,-111 179.75,-130.25"/>
<text xml:space="preserve" text-anchor="middle" x="155.62" y="-116.75" font-family="Helvetica,sans-Serif" font-size="10.00">tconcat</text>
</a>
</g>
</g>
<!-- Node1&#45;&gt;Node24 -->
<g id="edge24_Node000001_Node000024" class="edge">
<title>Node1&#45;&gt;Node24</title>
<g id="a_edge24_Node000001_Node000024"><a xlink:title=" ">
<path fill="none" stroke="#63b8ff" d="M283.45,-376.39C282.18,-327.72 272.27,-207.03 207.5,-138.62 200.35,-131.07 189.84,-126.69 180.22,-124.14"/>
<polygon fill="#63b8ff" stroke="#63b8ff" points="279.95,-376.17 283.6,-386.11 286.95,-376.06 279.95,-376.17"/>
</a>
</g>
</g>
<!-- Node25 -->
<g id="Node000025" class="node">
<title>Node25</title>
<g id="a_Node000025"><a xlink:href="ltablib_8c.html#ad8c41fe887a472709c6fdf075ba39d56" target="_top" xlink:title=" ">
<polygon fill="white" stroke="#666666" points="181.25,-93.25 130,-93.25 130,-74 181.25,-74 181.25,-93.25"/>
<text xml:space="preserve" text-anchor="middle" x="155.62" y="-79.75" font-family="Helvetica,sans-Serif" font-size="10.00">tremove</text>
</a>
</g>
</g>
<!-- Node1&#45;&gt;Node25 -->
<g id="edge25_Node000001_Node000025" class="edge">
<title>Node1&#45;&gt;Node25</title>
<g id="a_edge25_Node000001_Node000025"><a xlink:title=" ">
<path fill="none" stroke="#63b8ff" d="M280.67,-376.42C272.17,-315.67 245.12,-142.74 207.5,-101.62 200.8,-94.3 190.92,-89.95 181.65,-87.38"/>
<polygon fill="#63b8ff" stroke="#63b8ff" points="277.17,-376.66 281.99,-386.09 284.11,-375.71 277.17,-376.66"/>
</a>
</g>
</g>
<!-- Node26 -->
<g id="Node000026" class="node">
<title>Node26</title>
<g id="a_Node000026"><a xlink:href="ltablib_8c.html#ae37fc20bd47c2a4385a87a12090f4e9b" target="_top" xlink:title=" ">
<polygon fill="white" stroke="#666666" points="180.88,-56.25 130.38,-56.25 130.38,-37 180.88,-37 180.88,-56.25"/>
<text xml:space="preserve" text-anchor="middle" x="155.62" y="-42.75" font-family="Helvetica,sans-Serif" font-size="10.00">tunpack</text>
</a>
</g>
</g>
<!-- Node1&#45;&gt;Node26 -->
<g id="edge26_Node000001_Node000026" class="edge">
<title>Node1&#45;&gt;Node26</title>
<g id="a_edge26_Node000001_Node000026"><a xlink:title=" ">
<path fill="none" stroke="#63b8ff" d="M281.32,-376.41C274.18,-310.65 249.46,-111.75 207.5,-64.62 200.77,-57.07 190.66,-52.68 181.23,-50.14"/>
<polygon fill="#63b8ff" stroke="#63b8ff" points="277.83,-376.63 282.36,-386.2 284.79,-375.89 277.83,-376.63"/>
</a>
</g>
</g>
<!-- Node27 -->
<g id="Node000027" class="node">
<title>Node27</title>
<g id="a_Node000027"><a xlink:href="lutf8lib_8c.html#a840e09db1ade39da79b0b4dece0e46eb" target="_top" xlink:title=" ">
<polygon fill="white" stroke="#666666" points="175.62,-19.25 135.62,-19.25 135.62,0 175.62,0 175.62,-19.25"/>
<text xml:space="preserve" text-anchor="middle" x="155.62" y="-5.75" font-family="Helvetica,sans-Serif" font-size="10.00">utflen</text>
</a>
</g>
</g>
<!-- Node1&#45;&gt;Node27 -->
<g id="edge27_Node000001_Node000027" class="edge">
<title>Node1&#45;&gt;Node27</title>
<g id="a_edge27_Node000001_Node000027"><a xlink:title=" ">
<path fill="none" stroke="#63b8ff" d="M281.85,-376.39C275.96,-305.86 253.83,-80.81 207.5,-27.62 199.5,-18.44 186.51,-13.94 175.65,-11.74"/>
<polygon fill="#63b8ff" stroke="#63b8ff" points="278.35,-376.49 282.64,-386.18 285.32,-375.93 278.35,-376.49"/>
</a>
</g>
</g>
<!-- Node10&#45;&gt;Node11 -->
<g id="edge10_Node000010_Node000011" class="edge">
<title>Node10&#45;&gt;Node11</title>
<g id="a_edge10_Node000010_Node000011"><a xlink:title=" ">
<path fill="none" stroke="#63b8ff" d="M113.96,-466.19C96.06,-471.72 75.59,-478.05 59.96,-482.87"/>
<polygon fill="#63b8ff" stroke="#63b8ff" points="114.75,-469.61 123.27,-463.31 112.68,-462.92 114.75,-469.61"/>
</a>
</g>
</g>
<!-- Node12 -->
<g id="Node000012" class="node">
<title>Node12</title>
<g id="a_Node000012"><a xlink:href="lstrlib_8c.html#a039b391d5f43533a0ce750c5e40d7752" target="_top" xlink:title=" ">
<polygon fill="white" stroke="#666666" points="58,-463.25 9.75,-463.25 9.75,-444 58,-444 58,-463.25"/>
<text xml:space="preserve" text-anchor="middle" x="33.88" y="-449.75" font-family="Helvetica,sans-Serif" font-size="10.00">str_sub</text>
</a>
</g>
</g>
<!-- Node10&#45;&gt;Node12 -->
<g id="edge11_Node000010_Node000012" class="edge">
<title>Node10&#45;&gt;Node12</title>
<g id="a_edge11_Node000010_Node000012"><a xlink:title=" ">
<path fill="none" stroke="#63b8ff" d="M113.39,-453.62C95.02,-453.62 74.05,-453.62 58.4,-453.62"/>
<polygon fill="#63b8ff" stroke="#63b8ff" points="113.2,-457.13 123.2,-453.63 113.2,-450.13 113.2,-457.13"/>
</a>
</g>
</g>
<!-- Node16 -->
<g id="Node000016" class="node">
<title>Node16</title>
<g id="a_Node000016"><a xlink:href="lbaselib_8c.html#a8ba9378d5d46ef34a7429d52c3f3e4c7" target="_top" xlink:title=" ">
<polygon fill="white" stroke="#666666" points="67.75,-352.25 0,-352.25 0,-333 67.75,-333 67.75,-352.25"/>
<text xml:space="preserve" text-anchor="middle" x="33.88" y="-338.75" font-family="Helvetica,sans-Serif" font-size="10.00">luaB_assert</text>
</a>
</g>
</g>
<!-- Node15&#45;&gt;Node16 -->
<g id="edge15_Node000015_Node000016" class="edge">
<title>Node15&#45;&gt;Node16</title>
<g id="a_edge15_Node000015_Node000016"><a xlink:title=" ">
<path fill="none" stroke="#63b8ff" d="M113.54,-342.62C98.65,-342.62 82.04,-342.62 67.93,-342.62"/>
<polygon fill="#63b8ff" stroke="#63b8ff" points="113.51,-346.13 123.51,-342.63 113.51,-339.13 113.51,-346.13"/>
</a>
</g>
</g>
<!-- Node20 -->
<g id="Node000020" class="node">
<title>Node20</title>
<g id="a_Node000020"><a xlink:href="lstrlib_8c.html#a362a4bc9ba81ce87253cc3d74f015808" target="_top" xlink:title=" ">
<polygon fill="white" stroke="#666666" points="58,-259.25 9.75,-259.25 9.75,-240 58,-240 58,-259.25"/>
<text xml:space="preserve" text-anchor="middle" x="33.88" y="-245.75" font-family="Helvetica,sans-Serif" font-size="10.00">str_find</text>
</a>
</g>
</g>
<!-- Node19&#45;&gt;Node20 -->
<g id="edge20_Node000019_Node000020" class="edge">
<title>Node19&#45;&gt;Node20</title>
<g id="a_edge20_Node000019_Node000020"><a xlink:title=" ">
<path fill="none" stroke="#63b8ff" d="M109.5,-238.41C92.08,-241.03 72.88,-243.91 58.32,-246.1"/>
<polygon fill="#63b8ff" stroke="#63b8ff" points="109.76,-241.91 119.13,-236.96 108.72,-234.99 109.76,-241.91"/>
</a>
</g>
</g>
<!-- Node21 -->
<g id="Node000021" class="node">
<title>Node21</title>
<g id="a_Node000021"><a xlink:href="lstrlib_8c.html#a4b605e43b8f5738db9eae902bbc00f00" target="_top" xlink:title=" ">
<polygon fill="white" stroke="#666666" points="63.62,-222.25 4.12,-222.25 4.12,-203 63.62,-203 63.62,-222.25"/>
<text xml:space="preserve" text-anchor="middle" x="33.88" y="-208.75" font-family="Helvetica,sans-Serif" font-size="10.00">str_match</text>
</a>
</g>
</g>
<!-- Node19&#45;&gt;Node21 -->
<g id="edge21_Node000019_Node000021" class="edge">
<title>Node19&#45;&gt;Node21</title>
<g id="a_edge21_Node000019_Node000021"><a xlink:title=" ">
<path fill="none" stroke="#63b8ff" d="M109.36,-224.44C94.19,-222.04 77.69,-219.42 64.08,-217.26"/>
<polygon fill="#63b8ff" stroke="#63b8ff" points="108.71,-227.88 119.13,-225.99 109.81,-220.97 108.71,-227.88"/>
</a>
</g>
</g>
</g>
</svg>

<g id="navigator" transform="translate(0 0)" fill="#404254">
  <rect fill="#f2f5e9" fill-opacity="0.5" stroke="#606060" stroke-width=".5" x="0" y="0" width="60" height="60"/>
  <use id="zoomplus" xlink:href="#zoomPlus" x="17" y="9" onmousedown="handleZoom(evt,'in')"/>
  <use id="zoomminus" xlink:href="#zoomMin" x="42" y="9" onmousedown="handleZoom(evt,'out')"/>
  <use id="reset" xlink:href="#resetDef" x="30" y="36" onmousedown="handleReset()"/>
   <use id="arrowup" xlink:href="#arrowUp" x="0" y="0" onmousedown="handlePan(0,-1)"/>
  <use id="arrowright" xlink:href="#arrowRight" x="0" y="0" onmousedown="handlePan(1,0)"/>
  <use id="arrowdown" xlink:href="#arrowDown" x="0" y="0" onmousedown="handlePan(0,1)"/>
  <use id="arrowleft" xlink:href="#arrowLeft" x="0" y="0" onmousedown="handlePan(-1,0)"/>
</g>
<svg viewBox="0 0 15 15" width="100%" height="30px" preserveAspectRatio="xMaxYMin meet">
 <g id="arrow_out" transform="scale(0.3 0.3)">
  <a xlink:href="lauxlib_8h_ab10ff110a5ba19b4385947de7834ee3c_icgraph_org.svg" target="_base">
   <rect id="button" ry="5" rx="5" y="6" x="6" height="38" width="38"
        fill="#f2f5e9" fill-opacity="0.5" stroke="#606060" stroke-width="1.0"/>
   <path id="arrow"
     d="M 11.500037,31.436501 C 11.940474,20.09759 22.043105,11.32322 32.158766,21.979434 L 37.068811,17.246167 C 37.068811,17.246167 37.088388,32 37.088388,32 L 22.160133,31.978069 C 22.160133,31.978069 26.997745,27.140456 26.997745,27.140456 C 18.528582,18.264221 13.291696,25.230495 11.500037,31.436501 z"
     style="fill:#404040;"/>
  </a>
 </g>
</svg>

<style type='text/css'>
<![CDATA[
[data-mouse-over-selected='false'] { opacity: 0.7; }
[data-mouse-over-selected='true']  { opacity: 1.0; }
]]>
</style>
<script type="application/ecmascript"><![CDATA[
document.addEventListener('DOMContentLoaded', (event) => {
  highlightEdges();
  highlightAdjacentNodes();
});
]]></script>
</svg>
