<?xml version="1.0" encoding="UTF-8" standalone="no"?>
<!DOCTYPE svg PUBLIC "-//W3C//DTD SVG 1.1//EN"
 "http://www.w3.org/Graphics/SVG/1.1/DTD/svg11.dtd">
<!-- Generated by graphviz version 13.1.0 (20250701.0955)
 -->
<!-- Title: luaL_buffinitsize Pages: 1 -->
<svg width="195pt" height="175pt"
 viewBox="0.00 0.00 195.00 175.00" xmlns="http://www.w3.org/2000/svg" xmlns:xlink="http://www.w3.org/1999/xlink">

<svg id="main" version="1.1" xmlns="http://www.w3.org/2000/svg" xmlns:xlink="http://www.w3.org/1999/xlink" xml:space="preserve">

<style type="text/css"><![CDATA[
.node, .edge {opacity: 0.7;}
.node.selected, .edge.selected {opacity: 1;}
.edge:hover path { stroke: red; }
.edge:hover polygon { stroke: red; fill: red; }
]]></style>
<script type="application/ecmascript" xlink:href="svg.min.js"/>
<svg id="graph" class="graph">
<g id="graph0" class="graph" transform="scale(1 1) rotate(0) translate(4 171.25)">
<title>luaL_buffinitsize</title>
<!-- Node1 -->
<g id="Node000001" class="node">
<title>Node1</title>
<g id="a_Node000001"><a xlink:title=" ">
<polygon fill="#999999" stroke="#666666" points="187.25,-93.25 100.75,-93.25 100.75,-74 187.25,-74 187.25,-93.25"/>
<text xml:space="preserve" text-anchor="middle" x="144" y="-79.75" font-family="Helvetica,sans-Serif" font-size="10.00">luaL_buffinitsize</text>
</a>
</g>
</g>
<!-- Node2 -->
<g id="Node000002" class="node">
<title>Node2</title>
<g id="a_Node000002"><a xlink:href="lstrlib_8c.html#a3f7db8b2258dca5459ad52d2cbf9f28c" target="_top" xlink:title=" ">
<polygon fill="white" stroke="#666666" points="58,-167.25 6.75,-167.25 6.75,-148 58,-148 58,-167.25"/>
<text xml:space="preserve" text-anchor="middle" x="32.38" y="-153.75" font-family="Helvetica,sans-Serif" font-size="10.00">str_char</text>
</a>
</g>
</g>
<!-- Node1&#45;&gt;Node2 -->
<g id="edge1_Node000001_Node000002" class="edge">
<title>Node1&#45;&gt;Node2</title>
<g id="a_edge1_Node000001_Node000002"><a xlink:title=" ">
<path fill="none" stroke="#63b8ff" d="M121.19,-100.13C105.72,-111.62 84.3,-127.06 64.75,-139.62 60.52,-142.34 55.87,-145.12 51.48,-147.65"/>
<polygon fill="#63b8ff" stroke="#63b8ff" points="122.86,-103.25 128.78,-94.46 118.67,-97.64 122.86,-103.25"/>
</a>
</g>
</g>
<!-- Node3 -->
<g id="Node000003" class="node">
<title>Node3</title>
<g id="a_Node000003"><a xlink:href="lstrlib_8c.html#ab2235f81205d0482d03c8ae456a98992" target="_top" xlink:title=" ">
<polygon fill="white" stroke="#666666" points="60.25,-130.25 4.5,-130.25 4.5,-111 60.25,-111 60.25,-130.25"/>
<text xml:space="preserve" text-anchor="middle" x="32.38" y="-116.75" font-family="Helvetica,sans-Serif" font-size="10.00">str_lower</text>
</a>
</g>
</g>
<!-- Node1&#45;&gt;Node3 -->
<g id="edge2_Node000001_Node000003" class="edge">
<title>Node1&#45;&gt;Node3</title>
<g id="a_edge2_Node000001_Node000003"><a xlink:title=" ">
<path fill="none" stroke="#63b8ff" d="M102.27,-97.37C88.39,-102.06 73.23,-107.17 60.67,-111.41"/>
<polygon fill="#63b8ff" stroke="#63b8ff" points="103.25,-100.73 111.61,-94.22 101.02,-94.1 103.25,-100.73"/>
</a>
</g>
</g>
<!-- Node4 -->
<g id="Node000004" class="node">
<title>Node4</title>
<g id="a_Node000004"><a xlink:href="lstrlib_8c.html#acaee4c84f29e2ec7366728ca04d3569c" target="_top" xlink:title=" ">
<polygon fill="white" stroke="#666666" points="55.38,-93.25 9.38,-93.25 9.38,-74 55.38,-74 55.38,-93.25"/>
<text xml:space="preserve" text-anchor="middle" x="32.38" y="-79.75" font-family="Helvetica,sans-Serif" font-size="10.00">str_rep</text>
</a>
</g>
</g>
<!-- Node1&#45;&gt;Node4 -->
<g id="edge3_Node000001_Node000004" class="edge">
<title>Node1&#45;&gt;Node4</title>
<g id="a_edge3_Node000001_Node000004"><a xlink:title=" ">
<path fill="none" stroke="#63b8ff" d="M89.05,-83.62C77.22,-83.62 65.33,-83.62 55.6,-83.62"/>
<polygon fill="#63b8ff" stroke="#63b8ff" points="88.79,-87.13 98.79,-83.63 88.79,-80.13 88.79,-87.13"/>
</a>
</g>
</g>
<!-- Node5 -->
<g id="Node000005" class="node">
<title>Node5</title>
<g id="a_Node000005"><a xlink:href="lstrlib_8c.html#a4b2ffac60e817b9bfc54b32f8da3a6b4" target="_top" xlink:title=" ">
<polygon fill="white" stroke="#666666" points="64.75,-56.25 0,-56.25 0,-37 64.75,-37 64.75,-56.25"/>
<text xml:space="preserve" text-anchor="middle" x="32.38" y="-42.75" font-family="Helvetica,sans-Serif" font-size="10.00">str_reverse</text>
</a>
</g>
</g>
<!-- Node1&#45;&gt;Node5 -->
<g id="edge4_Node000001_Node000005" class="edge">
<title>Node1&#45;&gt;Node5</title>
<g id="a_edge4_Node000001_Node000005"><a xlink:title=" ">
<path fill="none" stroke="#63b8ff" d="M102.48,-69.95C89.5,-65.57 75.37,-60.8 63.29,-56.72"/>
<polygon fill="#63b8ff" stroke="#63b8ff" points="101.02,-73.15 111.61,-73.03 103.25,-66.52 101.02,-73.15"/>
</a>
</g>
</g>
<!-- Node6 -->
<g id="Node000006" class="node">
<title>Node6</title>
<g id="a_Node000006"><a xlink:href="lstrlib_8c.html#a38ed99b74af58070449ca344a7351f6a" target="_top" xlink:title=" ">
<polygon fill="white" stroke="#666666" points="60.62,-19.25 4.12,-19.25 4.12,0 60.62,0 60.62,-19.25"/>
<text xml:space="preserve" text-anchor="middle" x="32.38" y="-5.75" font-family="Helvetica,sans-Serif" font-size="10.00">str_upper</text>
</a>
</g>
</g>
<!-- Node1&#45;&gt;Node6 -->
<g id="edge5_Node000001_Node000006" class="edge">
<title>Node1&#45;&gt;Node6</title>
<g id="a_edge5_Node000001_Node000006"><a xlink:title=" ">
<path fill="none" stroke="#63b8ff" d="M121.19,-67.12C105.72,-55.63 84.3,-40.19 64.75,-27.62 60.52,-24.91 55.87,-22.13 51.48,-19.6"/>
<polygon fill="#63b8ff" stroke="#63b8ff" points="118.67,-69.61 128.78,-72.79 122.86,-64 118.67,-69.61"/>
</a>
</g>
</g>
</g>
</svg>
</svg>

<style type='text/css'>
<![CDATA[
[data-mouse-over-selected='false'] { opacity: 0.7; }
[data-mouse-over-selected='true']  { opacity: 1.0; }
]]>
</style>
<script type="application/ecmascript"><![CDATA[
document.addEventListener('DOMContentLoaded', (event) => {
  highlightEdges();
  highlightAdjacentNodes();
});
]]></script>
</svg>
