<?xml version="1.0" encoding="UTF-8" standalone="no"?>
<!DOCTYPE svg PUBLIC "-//W3C//DTD SVG 1.1//EN"
 "http://www.w3.org/Graphics/SVG/1.1/DTD/svg11.dtd">
<!-- Generated by graphviz version 13.1.0 (20250701.0955)
 -->
<!-- Title: lua&#45;5.4.7/lauxlib.h Pages: 1 -->
<!--zoomable 138 -->

<svg id="main" version="1.1" xmlns="http://www.w3.org/2000/svg" xmlns:xlink="http://www.w3.org/1999/xlink" xml:space="preserve" onload="init(evt)">

<style type="text/css"><![CDATA[
.node, .edge {opacity: 0.7;}
.node.selected, .edge.selected {opacity: 1;}
.edge:hover path { stroke: red; }
.edge:hover polygon { stroke: red; fill: red; }
]]></style>

<defs>
  <circle id="rim" cx="0" cy="0" r="7"/>
  <circle id="rim2" cx="0" cy="0" r="3.5"/>
  <g id="zoomPlus">
    <use xlink:href="#rim" fill="#404040"><set attributeName="fill" to="#808080" begin="zoomplus.mouseover" end="zoomplus.mouseout"/></use>
    <path d="M-4,0h8M0,-4v8" fill="none" stroke="white" stroke-width="1.5" pointer-events="none"/>
  </g>
  <g id="zoomMin">
    <use xlink:href="#rim" fill="#404040"><set attributeName="fill" to="#808080" begin="zoomminus.mouseover" end="zoomminus.mouseout"/></use>
    <path d="M-4,0h8" fill="none" stroke="white" stroke-width="1.5" pointer-events="none"/>
  </g>
  <g id="arrowUp" transform="translate(30 24)">
    <use xlink:href="#rim"/>
    <path pointer-events="none" fill="none" stroke="white" stroke-width="1.5" d="M0,-3.0v7 M-2.5,-0.5L0,-3.0L2.5,-0.5"/>
  </g>
  <g id="arrowRight" transform="rotate(90) translate(36 -43)">
    <use xlink:href="#rim"/>
    <path pointer-events="none" fill="none" stroke="white" stroke-width="1.5" d="M0,-3.0v7 M-2.5,-0.5L0,-3.0L2.5,-0.5"/>
  </g>
  <g id="arrowDown" transform="rotate(180) translate(-30 -48)">
    <use xlink:href="#rim"/>
    <path pointer-events="none" fill="none" stroke="white" stroke-width="1.5" d="M0,-3.0v7 M-2.5,-0.5L0,-3.0L2.5,-0.5"/>
  </g>
  <g id="arrowLeft" transform="rotate(270) translate(-36 17)">
    <use xlink:href="#rim"/>
    <path pointer-events="none" fill="none" stroke="white" stroke-width="1.5" d="M0,-3.0v7 M-2.5,-0.5L0,-3.0L2.5,-0.5"/>
  </g>
  <g id="resetDef">
    <use xlink:href="#rim2" fill="#404040"><set attributeName="fill" to="#808080" begin="reset.mouseover" end="reset.mouseout"/></use>
  </g>
</defs>
<script type="application/ecmascript">
var viewWidth = 1579;
var viewHeight = 138;
var sectionId = 'dynsection-1';
</script>
<script type="application/ecmascript" xlink:href="svg.min.js"/>
<svg id="graph" class="graph">
<g id="viewport">
<title>lua&#45;5.4.7/lauxlib.h</title>
<!-- Node1 -->
<g id="Node000001" class="node">
<title>Node1</title>
<g id="a_Node000001"><a xlink:title=" ">
<polygon fill="#999999" stroke="#666666" points="854.5,-129.75 762,-129.75 762,-110.5 854.5,-110.5 854.5,-129.75"/>
<text xml:space="preserve" text-anchor="middle" x="808.25" y="-116.25" font-family="Helvetica,sans-Serif" font-size="10.00">lua&#45;5.4.7/lauxlib.h</text>
</a>
</g>
</g>
<!-- Node2 -->
<g id="Node000002" class="node">
<title>Node2</title>
<g id="a_Node000002"><a xlink:href="lauxlib_8c.html" target="_top" xlink:title=" ">
<polygon fill="white" stroke="#666666" points="92.5,-74.5 0,-74.5 0,-55.25 92.5,-55.25 92.5,-74.5"/>
<text xml:space="preserve" text-anchor="middle" x="46.25" y="-61" font-family="Helvetica,sans-Serif" font-size="10.00">lua&#45;5.4.7/lauxlib.c</text>
</a>
</g>
</g>
<!-- Node1&#45;&gt;Node2 -->
<g id="edge1_Node000001_Node000002" class="edge">
<title>Node1&#45;&gt;Node2</title>
<g id="a_edge1_Node000001_Node000002"><a xlink:title=" ">
<path fill="none" stroke="#63b8ff" d="M750.65,-117.3C629.92,-113.06 341.67,-100.88 101.25,-74.5 98.46,-74.19 95.6,-73.85 92.72,-73.47"/>
<polygon fill="#63b8ff" stroke="#63b8ff" points="750.17,-120.78 760.29,-117.63 750.41,-113.79 750.17,-120.78"/>
</a>
</g>
</g>
<!-- Node4 -->
<g id="Node000004" class="node">
<title>Node4</title>
<g id="a_Node000004"><a xlink:href="lbaselib_8c.html" target="_top" xlink:title=" ">
<polygon fill="white" stroke="#666666" points="208.12,-74.5 110.38,-74.5 110.38,-55.25 208.12,-55.25 208.12,-74.5"/>
<text xml:space="preserve" text-anchor="middle" x="159.25" y="-61" font-family="Helvetica,sans-Serif" font-size="10.00">lua&#45;5.4.7/lbaselib.c</text>
</a>
</g>
</g>
<!-- Node1&#45;&gt;Node4 -->
<g id="edge3_Node000001_Node000004" class="edge">
<title>Node1&#45;&gt;Node4</title>
<g id="a_edge3_Node000001_Node000004"><a xlink:title=" ">
<path fill="none" stroke="#63b8ff" d="M750.41,-116.15C644.45,-110.39 412.16,-96.32 217.25,-74.5 214.42,-74.18 211.51,-73.83 208.58,-73.46"/>
<polygon fill="#63b8ff" stroke="#63b8ff" points="750.1,-119.64 760.28,-116.68 750.48,-112.65 750.1,-119.64"/>
</a>
</g>
</g>
<!-- Node5 -->
<g id="Node000005" class="node">
<title>Node5</title>
<g id="a_Node000005"><a xlink:href="lcorolib_8c.html" target="_top" xlink:title=" ">
<polygon fill="white" stroke="#666666" points="322,-74.5 226.5,-74.5 226.5,-55.25 322,-55.25 322,-74.5"/>
<text xml:space="preserve" text-anchor="middle" x="274.25" y="-61" font-family="Helvetica,sans-Serif" font-size="10.00">lua&#45;5.4.7/lcorolib.c</text>
</a>
</g>
</g>
<!-- Node1&#45;&gt;Node5 -->
<g id="edge5_Node000001_Node000005" class="edge">
<title>Node1&#45;&gt;Node5</title>
<g id="a_edge5_Node000001_Node000005"><a xlink:title=" ">
<path fill="none" stroke="#63b8ff" d="M750.36,-114.84C660.33,-107.93 481.41,-93.18 330.25,-74.5 327.71,-74.19 325.11,-73.85 322.49,-73.49"/>
<polygon fill="#63b8ff" stroke="#63b8ff" points="749.92,-118.32 760.16,-115.59 750.46,-111.34 749.92,-118.32"/>
</a>
</g>
</g>
<!-- Node6 -->
<g id="Node000006" class="node">
<title>Node6</title>
<g id="a_Node000006"><a xlink:href="ldblib_8c.html" target="_top" xlink:title=" ">
<polygon fill="white" stroke="#666666" points="426.88,-74.5 339.62,-74.5 339.62,-55.25 426.88,-55.25 426.88,-74.5"/>
<text xml:space="preserve" text-anchor="middle" x="383.25" y="-61" font-family="Helvetica,sans-Serif" font-size="10.00">lua&#45;5.4.7/ldblib.c</text>
</a>
</g>
</g>
<!-- Node1&#45;&gt;Node6 -->
<g id="edge7_Node000001_Node000006" class="edge">
<title>Node1&#45;&gt;Node6</title>
<g id="a_edge7_Node000001_Node000006"><a xlink:title=" ">
<path fill="none" stroke="#63b8ff" d="M750.52,-112.96C677.3,-104.96 547.21,-90.18 436.25,-74.5 433.3,-74.08 430.25,-73.63 427.19,-73.17"/>
<polygon fill="#63b8ff" stroke="#63b8ff" points="749.95,-116.42 760.27,-114.02 750.71,-109.46 749.95,-116.42"/>
</a>
</g>
</g>
<!-- Node7 -->
<g id="Node000007" class="node">
<title>Node7</title>
<g id="a_Node000007"><a xlink:href="linit_8c.html" target="_top" xlink:title=" ">
<polygon fill="white" stroke="#666666" points="525.12,-74.5 445.38,-74.5 445.38,-55.25 525.12,-55.25 525.12,-74.5"/>
<text xml:space="preserve" text-anchor="middle" x="485.25" y="-61" font-family="Helvetica,sans-Serif" font-size="10.00">lua&#45;5.4.7/linit.c</text>
</a>
</g>
</g>
<!-- Node1&#45;&gt;Node7 -->
<g id="edge9_Node000001_Node000007" class="edge">
<title>Node1&#45;&gt;Node7</title>
<g id="a_edge9_Node000001_Node000007"><a xlink:title=" ">
<path fill="none" stroke="#63b8ff" d="M750.32,-109.91C694.84,-101.03 608.78,-87.13 534.25,-74.5 531.44,-74.02 528.54,-73.53 525.62,-73.02"/>
<polygon fill="#63b8ff" stroke="#63b8ff" points="749.76,-113.36 760.18,-111.49 750.86,-106.45 749.76,-113.36"/>
</a>
</g>
</g>
<!-- Node8 -->
<g id="Node000008" class="node">
<title>Node8</title>
<g id="a_Node000008"><a xlink:href="liolib_8c.html" target="_top" xlink:title=" ">
<polygon fill="white" stroke="#666666" points="627.38,-74.5 543.12,-74.5 543.12,-55.25 627.38,-55.25 627.38,-74.5"/>
<text xml:space="preserve" text-anchor="middle" x="585.25" y="-61" font-family="Helvetica,sans-Serif" font-size="10.00">lua&#45;5.4.7/liolib.c</text>
</a>
</g>
</g>
<!-- Node1&#45;&gt;Node8 -->
<g id="edge11_Node000001_Node000008" class="edge">
<title>Node1&#45;&gt;Node8</title>
<g id="a_edge11_Node000001_Node000008"><a xlink:title=" ">
<path fill="none" stroke="#63b8ff" d="M759.09,-107.39C718.13,-97.61 660.64,-83.88 623.17,-74.93"/>
<polygon fill="#63b8ff" stroke="#63b8ff" points="758.16,-110.76 768.7,-109.68 759.78,-103.95 758.16,-110.76"/>
</a>
</g>
</g>
<!-- Node9 -->
<g id="Node000009" class="node">
<title>Node9</title>
<g id="a_Node000009"><a xlink:href="lmathlib_8c.html" target="_top" xlink:title=" ">
<polygon fill="white" stroke="#666666" points="743.5,-74.5 645,-74.5 645,-55.25 743.5,-55.25 743.5,-74.5"/>
<text xml:space="preserve" text-anchor="middle" x="694.25" y="-61" font-family="Helvetica,sans-Serif" font-size="10.00">lua&#45;5.4.7/lmathlib.c</text>
</a>
</g>
</g>
<!-- Node1&#45;&gt;Node9 -->
<g id="edge13_Node000001_Node000009" class="edge">
<title>Node1&#45;&gt;Node9</title>
<g id="a_edge13_Node000001_Node000009"><a xlink:title=" ">
<path fill="none" stroke="#63b8ff" d="M778.56,-105.26C758.1,-95.7 731.48,-83.27 713.68,-74.95"/>
<polygon fill="#63b8ff" stroke="#63b8ff" points="777,-108.39 787.54,-109.45 779.96,-102.05 777,-108.39"/>
</a>
</g>
</g>
<!-- Node10 -->
<g id="Node000010" class="node">
<title>Node10</title>
<g id="a_Node000010"><a xlink:href="loadlib_8c.html" target="_top" xlink:title=" ">
<polygon fill="white" stroke="#666666" points="854.5,-74.5 762,-74.5 762,-55.25 854.5,-55.25 854.5,-74.5"/>
<text xml:space="preserve" text-anchor="middle" x="808.25" y="-61" font-family="Helvetica,sans-Serif" font-size="10.00">lua&#45;5.4.7/loadlib.c</text>
</a>
</g>
</g>
<!-- Node1&#45;&gt;Node10 -->
<g id="edge15_Node000001_Node000010" class="edge">
<title>Node1&#45;&gt;Node10</title>
<g id="a_edge15_Node000001_Node000010"><a xlink:title=" ">
<path fill="none" stroke="#63b8ff" d="M808.25,-98.88C808.25,-90.59 808.25,-81.42 808.25,-74.86"/>
<polygon fill="#63b8ff" stroke="#63b8ff" points="804.75,-98.82 808.25,-108.82 811.75,-98.82 804.75,-98.82"/>
</a>
</g>
</g>
<!-- Node11 -->
<g id="Node000011" class="node">
<title>Node11</title>
<g id="a_Node000011"><a xlink:href="loslib_8c.html" target="_top" xlink:title=" ">
<polygon fill="white" stroke="#666666" points="959.88,-74.5 872.62,-74.5 872.62,-55.25 959.88,-55.25 959.88,-74.5"/>
<text xml:space="preserve" text-anchor="middle" x="916.25" y="-61" font-family="Helvetica,sans-Serif" font-size="10.00">lua&#45;5.4.7/loslib.c</text>
</a>
</g>
</g>
<!-- Node1&#45;&gt;Node11 -->
<g id="edge17_Node000001_Node000011" class="edge">
<title>Node1&#45;&gt;Node11</title>
<g id="a_edge17_Node000001_Node000011"><a xlink:title=" ">
<path fill="none" stroke="#63b8ff" d="M836.64,-105.12C856,-95.58 881.05,-83.23 897.84,-74.95"/>
<polygon fill="#63b8ff" stroke="#63b8ff" points="835.35,-101.86 827.93,-109.42 838.45,-108.14 835.35,-101.86"/>
</a>
</g>
</g>
<!-- Node12 -->
<g id="Node000012" class="node">
<title>Node12</title>
<g id="a_Node000012"><a xlink:href="lstrlib_8c.html" target="_top" xlink:title=" ">
<polygon fill="white" stroke="#666666" points="1066.25,-74.5 978.25,-74.5 978.25,-55.25 1066.25,-55.25 1066.25,-74.5"/>
<text xml:space="preserve" text-anchor="middle" x="1022.25" y="-61" font-family="Helvetica,sans-Serif" font-size="10.00">lua&#45;5.4.7/lstrlib.c</text>
</a>
</g>
</g>
<!-- Node1&#45;&gt;Node12 -->
<g id="edge19_Node000001_Node000012" class="edge">
<title>Node1&#45;&gt;Node12</title>
<g id="a_edge19_Node000001_Node000012"><a xlink:title=" ">
<path fill="none" stroke="#63b8ff" d="M855.68,-107.32C894.94,-97.55 949.89,-83.88 985.77,-74.95"/>
<polygon fill="#63b8ff" stroke="#63b8ff" points="854.88,-103.92 846.02,-109.73 856.57,-110.71 854.88,-103.92"/>
</a>
</g>
</g>
<!-- Node13 -->
<g id="Node000013" class="node">
<title>Node13</title>
<g id="a_Node000013"><a xlink:href="ltablib_8c.html" target="_top" xlink:title=" ">
<polygon fill="white" stroke="#666666" points="1174.38,-74.5 1084.12,-74.5 1084.12,-55.25 1174.38,-55.25 1174.38,-74.5"/>
<text xml:space="preserve" text-anchor="middle" x="1129.25" y="-61" font-family="Helvetica,sans-Serif" font-size="10.00">lua&#45;5.4.7/ltablib.c</text>
</a>
</g>
</g>
<!-- Node1&#45;&gt;Node13 -->
<g id="edge21_Node000001_Node000013" class="edge">
<title>Node1&#45;&gt;Node13</title>
<g id="a_edge21_Node000001_Node000013"><a xlink:title=" ">
<path fill="none" stroke="#63b8ff" d="M866.15,-109.52C928.59,-99.16 1026.7,-82.89 1083.82,-73.41"/>
<polygon fill="#63b8ff" stroke="#63b8ff" points="865.71,-106.04 856.42,-111.13 866.86,-112.95 865.71,-106.04"/>
</a>
</g>
</g>
<!-- Node14 -->
<g id="Node000014" class="node">
<title>Node14</title>
<g id="a_Node000014"><a xlink:href="ltests_8c.html" target="_top" xlink:title=" ">
<polygon fill="white" stroke="#666666" points="1281.62,-74.5 1192.88,-74.5 1192.88,-55.25 1281.62,-55.25 1281.62,-74.5"/>
<text xml:space="preserve" text-anchor="middle" x="1237.25" y="-61" font-family="Helvetica,sans-Serif" font-size="10.00">lua&#45;5.4.7/ltests.c</text>
</a>
</g>
</g>
<!-- Node1&#45;&gt;Node14 -->
<g id="edge23_Node000001_Node000014" class="edge">
<title>Node1&#45;&gt;Node14</title>
<g id="a_edge23_Node000001_Node000014"><a xlink:title=" ">
<path fill="none" stroke="#63b8ff" d="M866.13,-112.96C939.88,-104.94 1071.22,-90.11 1183.25,-74.5 1186.26,-74.08 1189.36,-73.63 1192.48,-73.17"/>
<polygon fill="#63b8ff" stroke="#63b8ff" points="865.87,-109.47 856.31,-114.03 866.63,-116.43 865.87,-109.47"/>
</a>
</g>
</g>
<!-- Node15 -->
<g id="Node000015" class="node">
<title>Node15</title>
<g id="a_Node000015"><a xlink:href="lua_8c.html" target="_top" xlink:title=" ">
<polygon fill="white" stroke="#666666" points="1377,-74.5 1299.5,-74.5 1299.5,-55.25 1377,-55.25 1377,-74.5"/>
<text xml:space="preserve" text-anchor="middle" x="1338.25" y="-61" font-family="Helvetica,sans-Serif" font-size="10.00">lua&#45;5.4.7/lua.c</text>
</a>
</g>
</g>
<!-- Node1&#45;&gt;Node15 -->
<g id="edge24_Node000001_Node000015" class="edge">
<title>Node1&#45;&gt;Node15</title>
<g id="a_edge24_Node000001_Node000015"><a xlink:title=" ">
<path fill="none" stroke="#63b8ff" d="M866.33,-115.36C957.08,-109.11 1137.88,-95.2 1290.25,-74.5 1293.1,-74.11 1296.04,-73.68 1299,-73.21"/>
<polygon fill="#63b8ff" stroke="#63b8ff" points="866.18,-111.86 856.44,-116.03 866.66,-118.84 866.18,-111.86"/>
</a>
</g>
</g>
<!-- Node16 -->
<g id="Node000016" class="node">
<title>Node16</title>
<g id="a_Node000016"><a xlink:href="lutf8lib_8c.html" target="_top" xlink:title=" ">
<polygon fill="white" stroke="#666666" points="1487.88,-74.5 1394.62,-74.5 1394.62,-55.25 1487.88,-55.25 1487.88,-74.5"/>
<text xml:space="preserve" text-anchor="middle" x="1441.25" y="-61" font-family="Helvetica,sans-Serif" font-size="10.00">lua&#45;5.4.7/lutf8lib.c</text>
</a>
</g>
</g>
<!-- Node1&#45;&gt;Node16 -->
<g id="edge26_Node000001_Node000016" class="edge">
<title>Node1&#45;&gt;Node16</title>
<g id="a_edge26_Node000001_Node000016"><a xlink:title=" ">
<path fill="none" stroke="#63b8ff" d="M866.02,-116.17C970.21,-110.51 1196.43,-96.68 1386.25,-74.5 1388.84,-74.2 1391.5,-73.86 1394.18,-73.51"/>
<polygon fill="#63b8ff" stroke="#63b8ff" points="866.13,-112.66 856.33,-116.69 866.51,-119.65 866.13,-112.66"/>
</a>
</g>
</g>
<!-- Node17 -->
<g id="Node000017" class="node">
<title>Node17</title>
<g id="a_Node000017"><a xlink:href="script_8c.html" target="_top" xlink:title=" ">
<polygon fill="white" stroke="#666666" points="1570.62,-74.5 1505.88,-74.5 1505.88,-55.25 1570.62,-55.25 1570.62,-74.5"/>
<text xml:space="preserve" text-anchor="middle" x="1538.25" y="-61" font-family="Helvetica,sans-Serif" font-size="10.00">src/script.c</text>
</a>
</g>
</g>
<!-- Node1&#45;&gt;Node17 -->
<g id="edge28_Node000001_Node000017" class="edge">
<title>Node1&#45;&gt;Node17</title>
<g id="a_edge28_Node000001_Node000017"><a xlink:title=" ">
<path fill="none" stroke="#63b8ff" d="M866.18,-118.16C985.02,-115.57 1264.8,-106.31 1497.25,-74.5 1499.99,-74.13 1502.82,-73.67 1505.65,-73.17"/>
<polygon fill="#63b8ff" stroke="#63b8ff" points="866.29,-114.66 856.36,-118.36 866.43,-121.65 866.29,-114.66"/>
</a>
</g>
</g>
<!-- Node3 -->
<g id="Node000003" class="node">
<title>Node3</title>
<g id="a_Node000003"><a xlink:href="onelua_8c.html" target="_top" xlink:title=" ">
<polygon fill="white" stroke="#666666" points="740.88,-19.25 647.62,-19.25 647.62,0 740.88,0 740.88,-19.25"/>
<text xml:space="preserve" text-anchor="middle" x="694.25" y="-5.75" font-family="Helvetica,sans-Serif" font-size="10.00">lua&#45;5.4.7/onelua.c</text>
</a>
</g>
</g>
<!-- Node2&#45;&gt;Node3 -->
<g id="edge2_Node000002_Node000003" class="edge">
<title>Node2&#45;&gt;Node3</title>
<g id="a_edge2_Node000002_Node000003"><a xlink:title=" ">
<path fill="none" stroke="#63b8ff" d="M103.88,-55.03C312.3,-31.3 548.53,-17.88 647.24,-12.87"/>
<polygon fill="#63b8ff" stroke="#63b8ff" points="103.76,-51.52 94.23,-56.14 104.56,-58.48 103.76,-51.52"/>
</a>
</g>
</g>
<!-- Node4&#45;&gt;Node3 -->
<g id="edge4_Node000004_Node000003" class="edge">
<title>Node4&#45;&gt;Node3</title>
<g id="a_edge4_Node000004_Node000003"><a xlink:title=" ">
<path fill="none" stroke="#63b8ff" d="M219.8,-55C382.91,-35.52 563.8,-20.65 647.44,-14.15"/>
<polygon fill="#63b8ff" stroke="#63b8ff" points="219.6,-51.5 210.09,-56.17 220.44,-58.45 219.6,-51.5"/>
</a>
</g>
</g>
<!-- Node5&#45;&gt;Node3 -->
<g id="edge6_Node000005_Node000003" class="edge">
<title>Node5&#45;&gt;Node3</title>
<g id="a_edge6_Node000005_Node000003"><a xlink:title=" ">
<path fill="none" stroke="#63b8ff" d="M333.56,-54.82C451.99,-38.59 580.08,-23.58 647.36,-15.91"/>
<polygon fill="#63b8ff" stroke="#63b8ff" points="333.43,-51.31 324,-56.14 334.38,-58.24 333.43,-51.31"/>
</a>
</g>
</g>
<!-- Node6&#45;&gt;Node3 -->
<g id="edge8_Node000006_Node000003" class="edge">
<title>Node6&#45;&gt;Node3</title>
<g id="a_edge8_Node000006_Node000003"><a xlink:title=" ">
<path fill="none" stroke="#63b8ff" d="M438.18,-54.47C497.56,-44.3 591.19,-28.27 647.27,-18.67"/>
<polygon fill="#63b8ff" stroke="#63b8ff" points="437.91,-50.97 428.64,-56.1 439.09,-57.87 437.91,-50.97"/>
</a>
</g>
</g>
<!-- Node7&#45;&gt;Node3 -->
<g id="edge10_Node000007_Node000003" class="edge">
<title>Node7&#45;&gt;Node3</title>
<g id="a_edge10_Node000007_Node000003"><a xlink:title=" ">
<path fill="none" stroke="#63b8ff" d="M531.58,-52.07C569.91,-42.3 623.58,-28.63 658.62,-19.7"/>
<polygon fill="#63b8ff" stroke="#63b8ff" points="531,-48.61 522.17,-54.47 532.73,-55.39 531,-48.61"/>
</a>
</g>
</g>
<!-- Node8&#45;&gt;Node3 -->
<g id="edge12_Node000008_Node000003" class="edge">
<title>Node8&#45;&gt;Node3</title>
<g id="a_edge12_Node000008_Node000003"><a xlink:title=" ">
<path fill="none" stroke="#63b8ff" d="M613.91,-49.87C633.44,-40.33 658.73,-27.98 675.67,-19.7"/>
<polygon fill="#63b8ff" stroke="#63b8ff" points="612.55,-46.64 605.1,-54.18 615.62,-52.93 612.55,-46.64"/>
</a>
</g>
</g>
<!-- Node9&#45;&gt;Node3 -->
<g id="edge14_Node000009_Node000003" class="edge">
<title>Node9&#45;&gt;Node3</title>
<g id="a_edge14_Node000009_Node000003"><a xlink:title=" ">
<path fill="none" stroke="#63b8ff" d="M694.25,-43.63C694.25,-35.34 694.25,-26.17 694.25,-19.61"/>
<polygon fill="#63b8ff" stroke="#63b8ff" points="690.75,-43.57 694.25,-53.57 697.75,-43.57 690.75,-43.57"/>
</a>
</g>
</g>
<!-- Node10&#45;&gt;Node3 -->
<g id="edge16_Node000010_Node000003" class="edge">
<title>Node10&#45;&gt;Node3</title>
<g id="a_edge16_Node000010_Node000003"><a xlink:title=" ">
<path fill="none" stroke="#63b8ff" d="M778.56,-50.01C758.1,-40.45 731.48,-28.02 713.68,-19.7"/>
<polygon fill="#63b8ff" stroke="#63b8ff" points="777,-53.14 787.54,-54.2 779.96,-46.8 777,-53.14"/>
</a>
</g>
</g>
<!-- Node11&#45;&gt;Node3 -->
<g id="edge18_Node000011_Node000003" class="edge">
<title>Node11&#45;&gt;Node3</title>
<g id="a_edge18_Node000011_Node000003"><a xlink:title=" ">
<path fill="none" stroke="#63b8ff" d="M867.31,-52.14C826.53,-42.36 769.3,-28.63 732,-19.68"/>
<polygon fill="#63b8ff" stroke="#63b8ff" points="866.33,-55.5 876.87,-54.43 867.96,-48.69 866.33,-55.5"/>
</a>
</g>
</g>
<!-- Node12&#45;&gt;Node3 -->
<g id="edge20_Node000012_Node000003" class="edge">
<title>Node12&#45;&gt;Node3</title>
<g id="a_edge20_Node000012_Node000003"><a xlink:title=" ">
<path fill="none" stroke="#63b8ff" d="M966.78,-54.85C881.27,-40.96 793.38,-26.7 740.96,-18.2"/>
<polygon fill="#63b8ff" stroke="#63b8ff" points="966.08,-58.28 976.51,-56.43 967.2,-51.37 966.08,-58.28"/>
</a>
</g>
</g>
<!-- Node13&#45;&gt;Node3 -->
<g id="edge22_Node000013_Node000003" class="edge">
<title>Node13&#45;&gt;Node3</title>
<g id="a_edge22_Node000013_Node000003"><a xlink:title=" ">
<path fill="none" stroke="#63b8ff" d="M1072.55,-54.93C946.93,-37.73 811.16,-22.87 741.25,-15.49"/>
<polygon fill="#63b8ff" stroke="#63b8ff" points="1072.01,-58.39 1082.4,-56.28 1072.97,-51.45 1072.01,-58.39"/>
</a>
</g>
</g>
<!-- Node15&#45;&gt;Node3 -->
<g id="edge25_Node000015_Node000003" class="edge">
<title>Node15&#45;&gt;Node3</title>
<g id="a_edge25_Node000015_Node000003"><a xlink:title=" ">
<path fill="none" stroke="#63b8ff" d="M1287.78,-55.07C1078.14,-28.97 840.21,-16.79 741.16,-12.49"/>
<polygon fill="#63b8ff" stroke="#63b8ff" points="1287.15,-58.52 1297.51,-56.29 1288.02,-51.57 1287.15,-58.52"/>
</a>
</g>
</g>
<!-- Node16&#45;&gt;Node3 -->
<g id="edge27_Node000016_Node000003" class="edge">
<title>Node16&#45;&gt;Node3</title>
<g id="a_edge27_Node000016_Node000003"><a xlink:title=" ">
<path fill="none" stroke="#63b8ff" d="M1382.82,-54.96C1135.76,-28.19 851.73,-16.14 741.37,-12.18"/>
<polygon fill="#63b8ff" stroke="#63b8ff" points="1382.36,-58.43 1392.68,-56.04 1383.12,-51.47 1382.36,-58.43"/>
</a>
</g>
</g>
</g>
</svg>

<g id="navigator" transform="translate(0 0)" fill="#404254">
  <rect fill="#f2f5e9" fill-opacity="0.5" stroke="#606060" stroke-width=".5" x="0" y="0" width="60" height="60"/>
  <use id="zoomplus" xlink:href="#zoomPlus" x="17" y="9" onmousedown="handleZoom(evt,'in')"/>
  <use id="zoomminus" xlink:href="#zoomMin" x="42" y="9" onmousedown="handleZoom(evt,'out')"/>
  <use id="reset" xlink:href="#resetDef" x="30" y="36" onmousedown="handleReset()"/>
   <use id="arrowup" xlink:href="#arrowUp" x="0" y="0" onmousedown="handlePan(0,-1)"/>
  <use id="arrowright" xlink:href="#arrowRight" x="0" y="0" onmousedown="handlePan(1,0)"/>
  <use id="arrowdown" xlink:href="#arrowDown" x="0" y="0" onmousedown="handlePan(0,1)"/>
  <use id="arrowleft" xlink:href="#arrowLeft" x="0" y="0" onmousedown="handlePan(-1,0)"/>
</g>
<svg viewBox="0 0 15 15" width="100%" height="30px" preserveAspectRatio="xMaxYMin meet">
 <g id="arrow_out" transform="scale(0.3 0.3)">
  <a xlink:href="lauxlib_8h__dep__incl_org.svg" target="_base">
   <rect id="button" ry="5" rx="5" y="6" x="6" height="38" width="38"
        fill="#f2f5e9" fill-opacity="0.5" stroke="#606060" stroke-width="1.0"/>
   <path id="arrow"
     d="M 11.500037,31.436501 C 11.940474,20.09759 22.043105,11.32322 32.158766,21.979434 L 37.068811,17.246167 C 37.068811,17.246167 37.088388,32 37.088388,32 L 22.160133,31.978069 C 22.160133,31.978069 26.997745,27.140456 26.997745,27.140456 C 18.528582,18.264221 13.291696,25.230495 11.500037,31.436501 z"
     style="fill:#404040;"/>
  </a>
 </g>
</svg>

<style type='text/css'>
<![CDATA[
[data-mouse-over-selected='false'] { opacity: 0.7; }
[data-mouse-over-selected='true']  { opacity: 1.0; }
]]>
</style>
<script type="application/ecmascript"><![CDATA[
document.addEventListener('DOMContentLoaded', (event) => {
  highlightEdges();
  highlightAdjacentNodes();
});
]]></script>
</svg>
