<?xml version="1.0" encoding="UTF-8" standalone="no"?>
<!DOCTYPE svg PUBLIC "-//W3C//DTD SVG 1.1//EN"
 "http://www.w3.org/Graphics/SVG/1.1/DTD/svg11.dtd">
<!-- Generated by graphviz version 13.1.0 (20250701.0955)
 -->
<!-- Title: lua&#45;5.4.7/lbaselib.c Pages: 1 -->
<svg width="466pt" height="248pt"
 viewBox="0.00 0.00 466.00 248.00" xmlns="http://www.w3.org/2000/svg" xmlns:xlink="http://www.w3.org/1999/xlink">

<svg id="main" version="1.1" xmlns="http://www.w3.org/2000/svg" xmlns:xlink="http://www.w3.org/1999/xlink" xml:space="preserve">

<style type="text/css"><![CDATA[
.node, .edge {opacity: 0.7;}
.node.selected, .edge.selected {opacity: 1;}
.edge:hover path { stroke: red; }
.edge:hover polygon { stroke: red; fill: red; }
]]></style>
<script type="application/ecmascript" xlink:href="svg.min.js"/>
<svg id="graph" class="graph">
<g id="graph0" class="graph" transform="scale(1 1) rotate(0) translate(4 244.25)">
<title>lua&#45;5.4.7/lbaselib.c</title>
<!-- Node1 -->
<g id="Node000001" class="node">
<title>Node1</title>
<g id="a_Node000001"><a xlink:title=" ">
<polygon fill="#999999" stroke="#666666" points="274.12,-240.25 176.38,-240.25 176.38,-221 274.12,-221 274.12,-240.25"/>
<text xml:space="preserve" text-anchor="middle" x="225.25" y="-226.75" font-family="Helvetica,sans-Serif" font-size="10.00">lua&#45;5.4.7/lbaselib.c</text>
</a>
</g>
</g>
<!-- Node2 -->
<g id="Node000002" class="node">
<title>Node2</title>
<g id="a_Node000002"><a xlink:href="lprefix_8h.html" target="_top" xlink:title=" ">
<polygon fill="white" stroke="#666666" points="50.5,-185 0,-185 0,-165.75 50.5,-165.75 50.5,-185"/>
<text xml:space="preserve" text-anchor="middle" x="25.25" y="-171.5" font-family="Helvetica,sans-Serif" font-size="10.00">lprefix.h</text>
</a>
</g>
</g>
<!-- Node1&#45;&gt;Node2 -->
<g id="edge1_Node000001_Node000002" class="edge">
<title>Node1&#45;&gt;Node2</title>
<g id="a_edge1_Node000001_Node000002"><a xlink:title=" ">
<path fill="none" stroke="#63b8ff" d="M191.32,-220.59C155.27,-210.99 98.47,-195.87 61.53,-186.04"/>
<polygon fill="#63b8ff" stroke="#63b8ff" points="62.78,-182.75 52.22,-183.56 60.98,-189.51 62.78,-182.75"/>
</a>
</g>
</g>
<!-- Node3 -->
<g id="Node000003" class="node">
<title>Node3</title>
<g id="a_Node000003"><a xlink:title=" ">
<polygon fill="#e0e0e0" stroke="#999999" points="116.38,-185 68.12,-185 68.12,-165.75 116.38,-165.75 116.38,-185"/>
<text xml:space="preserve" text-anchor="middle" x="92.25" y="-171.5" font-family="Helvetica,sans-Serif" font-size="10.00">ctype.h</text>
</a>
</g>
</g>
<!-- Node1&#45;&gt;Node3 -->
<g id="edge2_Node000001_Node000003" class="edge">
<title>Node1&#45;&gt;Node3</title>
<g id="a_edge2_Node000001_Node000003"><a xlink:title=" ">
<path fill="none" stroke="#63b8ff" d="M202.69,-220.59C181.48,-212.1 149.48,-199.29 125.37,-189.64"/>
<polygon fill="#63b8ff" stroke="#63b8ff" points="126.91,-186.48 116.33,-186.02 124.31,-192.98 126.91,-186.48"/>
</a>
</g>
</g>
<!-- Node4 -->
<g id="Node000004" class="node">
<title>Node4</title>
<g id="a_Node000004"><a xlink:title=" ">
<polygon fill="#e0e0e0" stroke="#999999" points="166.88,-129.75 121.62,-129.75 121.62,-110.5 166.88,-110.5 166.88,-129.75"/>
<text xml:space="preserve" text-anchor="middle" x="144.25" y="-116.25" font-family="Helvetica,sans-Serif" font-size="10.00">stdio.h</text>
</a>
</g>
</g>
<!-- Node1&#45;&gt;Node4 -->
<g id="edge3_Node000001_Node000004" class="edge">
<title>Node1&#45;&gt;Node4</title>
<g id="a_edge3_Node000001_Node000004"><a xlink:title=" ">
<path fill="none" stroke="#63b8ff" d="M206.67,-220.57C192.8,-212.91 174.39,-200.67 163.25,-185 154.11,-172.14 149.31,-154.85 146.83,-141.5"/>
<polygon fill="#63b8ff" stroke="#63b8ff" points="150.3,-141.03 145.32,-131.68 143.38,-142.1 150.3,-141.03"/>
</a>
</g>
</g>
<!-- Node5 -->
<g id="Node000005" class="node">
<title>Node5</title>
<g id="a_Node000005"><a xlink:title=" ">
<polygon fill="#e0e0e0" stroke="#999999" points="392,-185 344.5,-185 344.5,-165.75 392,-165.75 392,-185"/>
<text xml:space="preserve" text-anchor="middle" x="368.25" y="-171.5" font-family="Helvetica,sans-Serif" font-size="10.00">stdlib.h</text>
</a>
</g>
</g>
<!-- Node1&#45;&gt;Node5 -->
<g id="edge4_Node000001_Node000005" class="edge">
<title>Node1&#45;&gt;Node5</title>
<g id="a_edge4_Node000001_Node000005"><a xlink:title=" ">
<path fill="none" stroke="#63b8ff" d="M249.51,-220.59C272.66,-211.97 307.76,-198.9 333.81,-189.2"/>
<polygon fill="#63b8ff" stroke="#63b8ff" points="334.78,-192.57 342.93,-185.8 332.34,-186.01 334.78,-192.57"/>
</a>
</g>
</g>
<!-- Node6 -->
<g id="Node000006" class="node">
<title>Node6</title>
<g id="a_Node000006"><a xlink:title=" ">
<polygon fill="#e0e0e0" stroke="#999999" points="458.38,-185 410.12,-185 410.12,-165.75 458.38,-165.75 458.38,-185"/>
<text xml:space="preserve" text-anchor="middle" x="434.25" y="-171.5" font-family="Helvetica,sans-Serif" font-size="10.00">string.h</text>
</a>
</g>
</g>
<!-- Node1&#45;&gt;Node6 -->
<g id="edge5_Node000001_Node000006" class="edge">
<title>Node1&#45;&gt;Node6</title>
<g id="a_edge5_Node000001_Node000006"><a xlink:title=" ">
<path fill="none" stroke="#63b8ff" d="M261.34,-220.56C294.63,-212.17 345.74,-199.26 398.77,-185.63"/>
<polygon fill="#63b8ff" stroke="#63b8ff" points="399.47,-189.06 408.28,-183.18 397.72,-182.28 399.47,-189.06"/>
</a>
</g>
</g>
<!-- Node7 -->
<g id="Node000007" class="node">
<title>Node7</title>
<g id="a_Node000007"><a xlink:href="lua_8h.html" target="_top" xlink:title=" ">
<polygon fill="white" stroke="#666666" points="302.75,-129.75 265.75,-129.75 265.75,-110.5 302.75,-110.5 302.75,-129.75"/>
<text xml:space="preserve" text-anchor="middle" x="284.25" y="-116.25" font-family="Helvetica,sans-Serif" font-size="10.00">lua.h</text>
</a>
</g>
</g>
<!-- Node1&#45;&gt;Node7 -->
<g id="edge6_Node000001_Node000007" class="edge">
<title>Node1&#45;&gt;Node7</title>
<g id="a_edge6_Node000001_Node000007"><a xlink:title=" ">
<path fill="none" stroke="#63b8ff" d="M230.08,-220.75C239.63,-203.18 261.12,-163.66 273.98,-140.02"/>
<polygon fill="#63b8ff" stroke="#63b8ff" points="276.93,-141.91 278.63,-131.46 270.78,-138.57 276.93,-141.91"/>
</a>
</g>
</g>
<!-- Node12 -->
<g id="Node000012" class="node">
<title>Node12</title>
<g id="a_Node000012"><a xlink:href="lauxlib_8h.html" target="_top" xlink:title=" ">
<polygon fill="white" stroke="#666666" points="224.25,-185 172.25,-185 172.25,-165.75 224.25,-165.75 224.25,-185"/>
<text xml:space="preserve" text-anchor="middle" x="198.25" y="-171.5" font-family="Helvetica,sans-Serif" font-size="10.00">lauxlib.h</text>
</a>
</g>
</g>
<!-- Node1&#45;&gt;Node12 -->
<g id="edge12_Node000001_Node000012" class="edge">
<title>Node1&#45;&gt;Node12</title>
<g id="a_edge12_Node000001_Node000012"><a xlink:title=" ">
<path fill="none" stroke="#63b8ff" d="M220.79,-220.83C217.3,-213.94 212.3,-204.09 207.9,-195.41"/>
<polygon fill="#63b8ff" stroke="#63b8ff" points="211.13,-194.05 203.49,-186.71 204.89,-197.21 211.13,-194.05"/>
</a>
</g>
</g>
<!-- Node13 -->
<g id="Node000013" class="node">
<title>Node13</title>
<g id="a_Node000013"><a xlink:href="lualib_8h.html" target="_top" xlink:title=" ">
<polygon fill="white" stroke="#666666" points="326.62,-185 279.88,-185 279.88,-165.75 326.62,-165.75 326.62,-185"/>
<text xml:space="preserve" text-anchor="middle" x="303.25" y="-171.5" font-family="Helvetica,sans-Serif" font-size="10.00">lualib.h</text>
</a>
</g>
</g>
<!-- Node1&#45;&gt;Node13 -->
<g id="edge17_Node000001_Node000013" class="edge">
<title>Node1&#45;&gt;Node13</title>
<g id="a_edge17_Node000001_Node000013"><a xlink:title=" ">
<path fill="none" stroke="#63b8ff" d="M238.48,-220.59C250.02,-212.71 267.02,-201.11 280.7,-191.77"/>
<polygon fill="#63b8ff" stroke="#63b8ff" points="282.42,-194.83 288.7,-186.31 278.47,-189.05 282.42,-194.83"/>
</a>
</g>
</g>
<!-- Node8 -->
<g id="Node000008" class="node">
<title>Node8</title>
<g id="a_Node000008"><a xlink:title=" ">
<polygon fill="#e0e0e0" stroke="#999999" points="312.88,-74.5 261.62,-74.5 261.62,-55.25 312.88,-55.25 312.88,-74.5"/>
<text xml:space="preserve" text-anchor="middle" x="287.25" y="-61" font-family="Helvetica,sans-Serif" font-size="10.00">stdarg.h</text>
</a>
</g>
</g>
<!-- Node7&#45;&gt;Node8 -->
<g id="edge7_Node000007_Node000008" class="edge">
<title>Node7&#45;&gt;Node8</title>
<g id="a_edge7_Node000007_Node000008"><a xlink:title=" ">
<path fill="none" stroke="#63b8ff" d="M284.75,-110.33C285.12,-103.74 285.64,-94.46 286.11,-86.07"/>
<polygon fill="#63b8ff" stroke="#63b8ff" points="289.59,-86.55 286.66,-76.37 282.6,-86.16 289.59,-86.55"/>
</a>
</g>
</g>
<!-- Node9 -->
<g id="Node000009" class="node">
<title>Node9</title>
<g id="a_Node000009"><a xlink:title=" ">
<polygon fill="#e0e0e0" stroke="#999999" points="264.88,-19.25 213.62,-19.25 213.62,0 264.88,0 264.88,-19.25"/>
<text xml:space="preserve" text-anchor="middle" x="239.25" y="-5.75" font-family="Helvetica,sans-Serif" font-size="10.00">stddef.h</text>
</a>
</g>
</g>
<!-- Node7&#45;&gt;Node9 -->
<g id="edge8_Node000007_Node000009" class="edge">
<title>Node7&#45;&gt;Node9</title>
<g id="a_edge8_Node000007_Node000009"><a xlink:title=" ">
<path fill="none" stroke="#63b8ff" d="M296.48,-110.02C311.57,-97.62 333.9,-74.74 322.25,-55.25 312.1,-38.27 293.03,-27.38 275.72,-20.61"/>
<polygon fill="#63b8ff" stroke="#63b8ff" points="277.29,-17.45 266.69,-17.41 274.95,-24.05 277.29,-17.45"/>
</a>
</g>
</g>
<!-- Node10 -->
<g id="Node000010" class="node">
<title>Node10</title>
<g id="a_Node000010"><a xlink:href="luaconf_8h.html" target="_top" xlink:title=" ">
<polygon fill="white" stroke="#666666" points="205.12,-74.5 149.38,-74.5 149.38,-55.25 205.12,-55.25 205.12,-74.5"/>
<text xml:space="preserve" text-anchor="middle" x="177.25" y="-61" font-family="Helvetica,sans-Serif" font-size="10.00">luaconf.h</text>
</a>
</g>
</g>
<!-- Node7&#45;&gt;Node10 -->
<g id="edge9_Node000007_Node000010" class="edge">
<title>Node7&#45;&gt;Node10</title>
<g id="a_edge9_Node000007_Node000010"><a xlink:title=" ">
<path fill="none" stroke="#63b8ff" d="M266.1,-110.09C249.57,-101.87 224.91,-89.59 205.75,-80.06"/>
<polygon fill="#63b8ff" stroke="#63b8ff" points="207.36,-76.95 196.85,-75.63 204.24,-83.22 207.36,-76.95"/>
</a>
</g>
</g>
<!-- Node10&#45;&gt;Node9 -->
<g id="edge11_Node000010_Node000009" class="edge">
<title>Node10&#45;&gt;Node9</title>
<g id="a_edge11_Node000010_Node000009"><a xlink:title=" ">
<path fill="none" stroke="#63b8ff" d="M187.77,-54.84C196.64,-47.22 209.56,-36.12 220.24,-26.95"/>
<polygon fill="#63b8ff" stroke="#63b8ff" points="222.43,-29.68 227.74,-20.51 217.87,-24.37 222.43,-29.68"/>
</a>
</g>
</g>
<!-- Node11 -->
<g id="Node000011" class="node">
<title>Node11</title>
<g id="a_Node000011"><a xlink:title=" ">
<polygon fill="#e0e0e0" stroke="#999999" points="196,-19.25 148.5,-19.25 148.5,0 196,0 196,-19.25"/>
<text xml:space="preserve" text-anchor="middle" x="172.25" y="-5.75" font-family="Helvetica,sans-Serif" font-size="10.00">limits.h</text>
</a>
</g>
</g>
<!-- Node10&#45;&gt;Node11 -->
<g id="edge10_Node000010_Node000011" class="edge">
<title>Node10&#45;&gt;Node11</title>
<g id="a_edge10_Node000010_Node000011"><a xlink:title=" ">
<path fill="none" stroke="#63b8ff" d="M176.42,-55.08C175.81,-48.49 174.93,-39.21 174.15,-30.82"/>
<polygon fill="#63b8ff" stroke="#63b8ff" points="177.65,-30.75 173.24,-21.12 170.69,-31.4 177.65,-30.75"/>
</a>
</g>
</g>
<!-- Node12&#45;&gt;Node4 -->
<g id="edge14_Node000012_Node000004" class="edge">
<title>Node12&#45;&gt;Node4</title>
<g id="a_edge14_Node000012_Node000004"><a xlink:title=" ">
<path fill="none" stroke="#63b8ff" d="M189.33,-165.58C181.8,-158.15 170.78,-147.29 161.52,-138.16"/>
<polygon fill="#63b8ff" stroke="#63b8ff" points="164.02,-135.7 154.44,-131.17 159.1,-140.69 164.02,-135.7"/>
</a>
</g>
</g>
<!-- Node12&#45;&gt;Node7 -->
<g id="edge16_Node000012_Node000007" class="edge">
<title>Node12&#45;&gt;Node7</title>
<g id="a_edge16_Node000012_Node000007"><a xlink:title=" ">
<path fill="none" stroke="#63b8ff" d="M212.84,-165.34C225.69,-157.39 244.66,-145.64 259.82,-136.25"/>
<polygon fill="#63b8ff" stroke="#63b8ff" points="261.64,-139.24 268.3,-131 257.96,-133.29 261.64,-139.24"/>
</a>
</g>
</g>
<!-- Node12&#45;&gt;Node9 -->
<g id="edge13_Node000012_Node000009" class="edge">
<title>Node12&#45;&gt;Node9</title>
<g id="a_edge13_Node000012_Node000009"><a xlink:title=" ">
<path fill="none" stroke="#63b8ff" d="M200.45,-165.57C206.82,-140.14 225.36,-66.1 234.31,-30.37"/>
<polygon fill="#63b8ff" stroke="#63b8ff" points="237.63,-31.49 236.67,-20.94 230.84,-29.79 237.63,-31.49"/>
</a>
</g>
</g>
<!-- Node12&#45;&gt;Node10 -->
<g id="edge15_Node000012_Node000010" class="edge">
<title>Node12&#45;&gt;Node10</title>
<g id="a_edge15_Node000012_Node000010"><a xlink:title=" ">
<path fill="none" stroke="#63b8ff" d="M196.53,-165.5C193.19,-148.25 185.76,-109.83 181.16,-86.06"/>
<polygon fill="#63b8ff" stroke="#63b8ff" points="184.62,-85.52 179.28,-76.36 177.74,-86.85 184.62,-85.52"/>
</a>
</g>
</g>
<!-- Node13&#45;&gt;Node7 -->
<g id="edge18_Node000013_Node000007" class="edge">
<title>Node13&#45;&gt;Node7</title>
<g id="a_edge18_Node000013_Node000007"><a xlink:title=" ">
<path fill="none" stroke="#63b8ff" d="M300.11,-165.58C297.71,-158.84 294.29,-149.27 291.25,-140.74"/>
<polygon fill="#63b8ff" stroke="#63b8ff" points="294.62,-139.78 287.96,-131.53 288.03,-142.13 294.62,-139.78"/>
</a>
</g>
</g>
</g>
</svg>
</svg>

<style type='text/css'>
<![CDATA[
[data-mouse-over-selected='false'] { opacity: 0.7; }
[data-mouse-over-selected='true']  { opacity: 1.0; }
]]>
</style>
<script type="application/ecmascript"><![CDATA[
document.addEventListener('DOMContentLoaded', (event) => {
  highlightEdges();
  highlightAdjacentNodes();
});
]]></script>
</svg>
