<?xml version="1.0" encoding="UTF-8" standalone="no"?>
<!DOCTYPE svg PUBLIC "-//W3C//DTD SVG 1.1//EN"
 "http://www.w3.org/Graphics/SVG/1.1/DTD/svg11.dtd">
<!-- Generated by graphviz version 13.1.0 (20250701.0955)
 -->
<!-- Title: lua&#45;5.4.7/lcode.h Pages: 1 -->
<svg width="356pt" height="414pt"
 viewBox="0.00 0.00 356.00 414.00" xmlns="http://www.w3.org/2000/svg" xmlns:xlink="http://www.w3.org/1999/xlink">
<g id="graph0" class="graph" transform="scale(1 1) rotate(0) translate(4 410)">
<title>lua&#45;5.4.7/lcode.h</title>
<!-- Node1 -->
<g id="Node000001" class="node">
<title>Node1</title>
<g id="a_Node000001"><a xlink:title=" ">
<polygon fill="#999999" stroke="#666666" points="201.2,-406 113.2,-406 113.2,-386.75 201.2,-386.75 201.2,-406"/>
<text xml:space="preserve" text-anchor="middle" x="157.2" y="-392.5" font-family="Helvetica,sans-Serif" font-size="10.00">lua&#45;5.4.7/lcode.h</text>
</a>
</g>
</g>
<!-- Node2 -->
<g id="Node000002" class="node">
<title>Node2</title>
<g id="a_Node000002"><a xlink:href="llex_8h.html" target="_top" xlink:title=" ">
<polygon fill="white" stroke="#666666" points="101.83,-350.75 62.58,-350.75 62.58,-331.5 101.83,-331.5 101.83,-350.75"/>
<text xml:space="preserve" text-anchor="middle" x="82.2" y="-337.25" font-family="Helvetica,sans-Serif" font-size="10.00">llex.h</text>
</a>
</g>
</g>
<!-- Node1&#45;&gt;Node2 -->
<g id="edge1_Node000001_Node000002" class="edge">
<title>Node1&#45;&gt;Node2</title>
<g id="a_edge1_Node000001_Node000002"><a xlink:title=" ">
<path fill="none" stroke="#63b8ff" d="M144.48,-386.34C133.49,-378.54 117.36,-367.09 104.27,-357.79"/>
<polygon fill="#63b8ff" stroke="#63b8ff" points="106.4,-355.01 96.22,-352.08 102.35,-360.72 106.4,-355.01"/>
</a>
</g>
</g>
<!-- Node4 -->
<g id="Node000004" class="node">
<title>Node4</title>
<g id="a_Node000004"><a xlink:href="lobject_8h.html" target="_top" xlink:title=" ">
<polygon fill="white" stroke="#666666" points="124.58,-295.5 71.83,-295.5 71.83,-276.25 124.58,-276.25 124.58,-295.5"/>
<text xml:space="preserve" text-anchor="middle" x="98.2" y="-282" font-family="Helvetica,sans-Serif" font-size="10.00">lobject.h</text>
</a>
</g>
</g>
<!-- Node1&#45;&gt;Node4 -->
<g id="edge21_Node000001_Node000004" class="edge">
<title>Node1&#45;&gt;Node4</title>
<g id="a_edge21_Node000001_Node000004"><a xlink:title=" ">
<path fill="none" stroke="#63b8ff" d="M152.37,-386.5C142.82,-368.93 121.33,-329.41 108.47,-305.77"/>
<polygon fill="#63b8ff" stroke="#63b8ff" points="111.67,-304.32 103.82,-297.21 105.52,-307.66 111.67,-304.32"/>
</a>
</g>
</g>
<!-- Node12 -->
<g id="Node000012" class="node">
<title>Node12</title>
<g id="a_Node000012"><a xlink:href="lopcodes_8h.html" target="_top" xlink:title=" ">
<polygon fill="white" stroke="#666666" points="347.83,-240.25 284.58,-240.25 284.58,-221 347.83,-221 347.83,-240.25"/>
<text xml:space="preserve" text-anchor="middle" x="316.2" y="-226.75" font-family="Helvetica,sans-Serif" font-size="10.00">lopcodes.h</text>
</a>
</g>
</g>
<!-- Node1&#45;&gt;Node12 -->
<g id="edge22_Node000001_Node000012" class="edge">
<title>Node1&#45;&gt;Node12</title>
<g id="a_edge22_Node000001_Node000012"><a xlink:title=" ">
<path fill="none" stroke="#63b8ff" d="M172.06,-386.27C185.17,-377.89 204.43,-364.66 219.2,-350.75 253.34,-318.58 286.35,-274.39 303.68,-249.88"/>
<polygon fill="#63b8ff" stroke="#63b8ff" points="306.38,-252.11 309.23,-241.91 300.64,-248.11 306.38,-252.11"/>
</a>
</g>
</g>
<!-- Node13 -->
<g id="Node000013" class="node">
<title>Node13</title>
<g id="a_Node000013"><a xlink:href="lparser_8h.html" target="_top" xlink:title=" ">
<polygon fill="white" stroke="#666666" points="210.58,-350.75 157.83,-350.75 157.83,-331.5 210.58,-331.5 210.58,-350.75"/>
<text xml:space="preserve" text-anchor="middle" x="184.2" y="-337.25" font-family="Helvetica,sans-Serif" font-size="10.00">lparser.h</text>
</a>
</g>
</g>
<!-- Node1&#45;&gt;Node13 -->
<g id="edge24_Node000001_Node000013" class="edge">
<title>Node1&#45;&gt;Node13</title>
<g id="a_edge24_Node000001_Node000013"><a xlink:title=" ">
<path fill="none" stroke="#63b8ff" d="M161.66,-386.58C165.16,-379.69 170.15,-369.84 174.55,-361.16"/>
<polygon fill="#63b8ff" stroke="#63b8ff" points="177.56,-362.96 178.96,-352.46 171.32,-359.8 177.56,-362.96"/>
</a>
</g>
</g>
<!-- Node3 -->
<g id="Node000003" class="node">
<title>Node3</title>
<g id="a_Node000003"><a xlink:title=" ">
<polygon fill="#e0e0e0" stroke="#999999" points="149.95,-19.25 102.45,-19.25 102.45,0 149.95,0 149.95,-19.25"/>
<text xml:space="preserve" text-anchor="middle" x="126.2" y="-5.75" font-family="Helvetica,sans-Serif" font-size="10.00">limits.h</text>
</a>
</g>
</g>
<!-- Node2&#45;&gt;Node3 -->
<g id="edge2_Node000002_Node000003" class="edge">
<title>Node2&#45;&gt;Node3</title>
<g id="a_edge2_Node000002_Node000003"><a xlink:title=" ">
<path fill="none" stroke="#63b8ff" d="M68.66,-331.15C45.37,-314.52 0.2,-276.49 0.2,-231.62 0.2,-231.62 0.2,-231.62 0.2,-119.12 0.2,-89.51 -0.6,-77.27 19.2,-55.25 37.94,-34.41 67.94,-23.04 91.41,-17"/>
<polygon fill="#63b8ff" stroke="#63b8ff" points="91.92,-20.48 100.86,-14.79 90.33,-13.66 91.92,-20.48"/>
</a>
</g>
</g>
<!-- Node2&#45;&gt;Node4 -->
<g id="edge3_Node000002_Node000004" class="edge">
<title>Node2&#45;&gt;Node4</title>
<g id="a_edge3_Node000002_Node000004"><a xlink:title=" ">
<path fill="none" stroke="#63b8ff" d="M84.84,-331.33C86.85,-324.67 89.68,-315.24 92.22,-306.78"/>
<polygon fill="#63b8ff" stroke="#63b8ff" points="95.54,-307.89 95.07,-297.31 88.84,-305.88 95.54,-307.89"/>
</a>
</g>
</g>
<!-- Node10 -->
<g id="Node000010" class="node">
<title>Node10</title>
<g id="a_Node000010"><a xlink:href="lzio_8h.html" target="_top" xlink:title=" ">
<polygon fill="white" stroke="#666666" points="187.83,-295.5 148.58,-295.5 148.58,-276.25 187.83,-276.25 187.83,-295.5"/>
<text xml:space="preserve" text-anchor="middle" x="168.2" y="-282" font-family="Helvetica,sans-Serif" font-size="10.00">lzio.h</text>
</a>
</g>
</g>
<!-- Node2&#45;&gt;Node10 -->
<g id="edge15_Node000002_Node000010" class="edge">
<title>Node2&#45;&gt;Node10</title>
<g id="a_edge15_Node000002_Node000010"><a xlink:title=" ">
<path fill="none" stroke="#63b8ff" d="M96.79,-331.09C109.64,-323.14 128.61,-311.39 143.78,-302"/>
<polygon fill="#63b8ff" stroke="#63b8ff" points="145.59,-304.99 152.25,-296.75 141.91,-299.04 145.59,-304.99"/>
</a>
</g>
</g>
<!-- Node5 -->
<g id="Node000005" class="node">
<title>Node5</title>
<g id="a_Node000005"><a xlink:title=" ">
<polygon fill="#e0e0e0" stroke="#999999" points="79.83,-74.5 28.58,-74.5 28.58,-55.25 79.83,-55.25 79.83,-74.5"/>
<text xml:space="preserve" text-anchor="middle" x="54.2" y="-61" font-family="Helvetica,sans-Serif" font-size="10.00">stdarg.h</text>
</a>
</g>
</g>
<!-- Node4&#45;&gt;Node5 -->
<g id="edge4_Node000004_Node000005" class="edge">
<title>Node4&#45;&gt;Node5</title>
<g id="a_edge4_Node000004_Node000005"><a xlink:title=" ">
<path fill="none" stroke="#63b8ff" d="M96.42,-276.02C89.93,-243.69 67.39,-131.53 58.18,-85.66"/>
<polygon fill="#63b8ff" stroke="#63b8ff" points="61.65,-85.2 56.25,-76.09 54.79,-86.58 61.65,-85.2"/>
</a>
</g>
</g>
<!-- Node6 -->
<g id="Node000006" class="node">
<title>Node6</title>
<g id="a_Node000006"><a xlink:href="llimits_8h.html" target="_top" xlink:title=" ">
<polygon fill="white" stroke="#666666" points="298.08,-185 248.33,-185 248.33,-165.75 298.08,-165.75 298.08,-185"/>
<text xml:space="preserve" text-anchor="middle" x="273.2" y="-171.5" font-family="Helvetica,sans-Serif" font-size="10.00">llimits.h</text>
</a>
</g>
</g>
<!-- Node4&#45;&gt;Node6 -->
<g id="edge5_Node000004_Node000006" class="edge">
<title>Node4&#45;&gt;Node6</title>
<g id="a_edge5_Node000004_Node000006"><a xlink:title=" ">
<path fill="none" stroke="#63b8ff" d="M106.49,-276.07C119.35,-262.78 145.33,-237.43 171.2,-221 191.99,-207.8 217.35,-196.69 237.58,-188.85"/>
<polygon fill="#63b8ff" stroke="#63b8ff" points="238.69,-192.17 246.82,-185.38 236.23,-185.62 238.69,-192.17"/>
</a>
</g>
</g>
<!-- Node8 -->
<g id="Node000008" class="node">
<title>Node8</title>
<g id="a_Node000008"><a xlink:href="lua_8h.html" target="_top" xlink:title=" ">
<polygon fill="white" stroke="#666666" points="162.7,-129.75 125.7,-129.75 125.7,-110.5 162.7,-110.5 162.7,-129.75"/>
<text xml:space="preserve" text-anchor="middle" x="144.2" y="-116.25" font-family="Helvetica,sans-Serif" font-size="10.00">lua.h</text>
</a>
</g>
</g>
<!-- Node4&#45;&gt;Node8 -->
<g id="edge14_Node000004_Node000008" class="edge">
<title>Node4&#45;&gt;Node8</title>
<g id="a_edge14_Node000004_Node000008"><a xlink:title=" ">
<path fill="none" stroke="#63b8ff" d="M100.67,-276.07C107.82,-250.64 128.62,-176.6 138.65,-140.87"/>
<polygon fill="#63b8ff" stroke="#63b8ff" points="141.97,-142 141.31,-131.43 135.23,-140.11 141.97,-142"/>
</a>
</g>
</g>
<!-- Node6&#45;&gt;Node3 -->
<g id="edge6_Node000006_Node000003" class="edge">
<title>Node6&#45;&gt;Node3</title>
<g id="a_edge6_Node000006_Node000003"><a xlink:title=" ">
<path fill="none" stroke="#63b8ff" d="M265.3,-165.57C241.87,-139.47 172.49,-62.19 141.48,-27.64"/>
<polygon fill="#63b8ff" stroke="#63b8ff" points="144.44,-25.7 135.15,-20.6 139.23,-30.38 144.44,-25.7"/>
</a>
</g>
</g>
<!-- Node7 -->
<g id="Node000007" class="node">
<title>Node7</title>
<g id="a_Node000007"><a xlink:title=" ">
<polygon fill="#e0e0e0" stroke="#999999" points="250.83,-19.25 199.58,-19.25 199.58,0 250.83,0 250.83,-19.25"/>
<text xml:space="preserve" text-anchor="middle" x="225.2" y="-5.75" font-family="Helvetica,sans-Serif" font-size="10.00">stddef.h</text>
</a>
</g>
</g>
<!-- Node6&#45;&gt;Node7 -->
<g id="edge7_Node000006_Node000007" class="edge">
<title>Node6&#45;&gt;Node7</title>
<g id="a_edge7_Node000006_Node000007"><a xlink:title=" ">
<path fill="none" stroke="#63b8ff" d="M275.38,-165.52C279.94,-145.07 288.77,-93.38 272.2,-55.25 267.28,-43.91 257.92,-34.09 248.85,-26.57"/>
<polygon fill="#63b8ff" stroke="#63b8ff" points="250.98,-23.79 240.9,-20.51 246.73,-29.36 250.98,-23.79"/>
</a>
</g>
</g>
<!-- Node6&#45;&gt;Node8 -->
<g id="edge8_Node000006_Node000008" class="edge">
<title>Node6&#45;&gt;Node8</title>
<g id="a_edge8_Node000006_Node000008"><a xlink:title=" ">
<path fill="none" stroke="#63b8ff" d="M251.32,-165.34C229.85,-156.48 196.97,-142.91 173.31,-133.14"/>
<polygon fill="#63b8ff" stroke="#63b8ff" points="174.81,-129.98 164.24,-129.39 172.14,-136.45 174.81,-129.98"/>
</a>
</g>
</g>
<!-- Node8&#45;&gt;Node5 -->
<g id="edge9_Node000008_Node000005" class="edge">
<title>Node8&#45;&gt;Node5</title>
<g id="a_edge9_Node000008_Node000005"><a xlink:title=" ">
<path fill="none" stroke="#63b8ff" d="M128.93,-110.09C115.36,-102.06 95.25,-90.16 79.31,-80.73"/>
<polygon fill="#63b8ff" stroke="#63b8ff" points="81.23,-77.8 70.85,-75.72 77.67,-83.83 81.23,-77.8"/>
</a>
</g>
</g>
<!-- Node8&#45;&gt;Node7 -->
<g id="edge10_Node000008_Node000007" class="edge">
<title>Node8&#45;&gt;Node7</title>
<g id="a_edge10_Node000008_Node000007"><a xlink:title=" ">
<path fill="none" stroke="#63b8ff" d="M150.83,-110.25C164.12,-92.44 194.25,-52.08 211.81,-28.56"/>
<polygon fill="#63b8ff" stroke="#63b8ff" points="214.4,-30.95 217.58,-20.84 208.79,-26.76 214.4,-30.95"/>
</a>
</g>
</g>
<!-- Node9 -->
<g id="Node000009" class="node">
<title>Node9</title>
<g id="a_Node000009"><a xlink:href="luaconf_8h.html" target="_top" xlink:title=" ">
<polygon fill="white" stroke="#666666" points="154.08,-74.5 98.33,-74.5 98.33,-55.25 154.08,-55.25 154.08,-74.5"/>
<text xml:space="preserve" text-anchor="middle" x="126.2" y="-61" font-family="Helvetica,sans-Serif" font-size="10.00">luaconf.h</text>
</a>
</g>
</g>
<!-- Node8&#45;&gt;Node9 -->
<g id="edge11_Node000008_Node000009" class="edge">
<title>Node8&#45;&gt;Node9</title>
<g id="a_edge11_Node000008_Node000009"><a xlink:title=" ">
<path fill="none" stroke="#63b8ff" d="M141.23,-110.33C138.95,-103.59 135.72,-94.02 132.83,-85.49"/>
<polygon fill="#63b8ff" stroke="#63b8ff" points="136.24,-84.65 129.72,-76.29 129.61,-86.89 136.24,-84.65"/>
</a>
</g>
</g>
<!-- Node9&#45;&gt;Node3 -->
<g id="edge12_Node000009_Node000003" class="edge">
<title>Node9&#45;&gt;Node3</title>
<g id="a_edge12_Node000009_Node000003"><a xlink:title=" ">
<path fill="none" stroke="#63b8ff" d="M126.2,-55.08C126.2,-48.57 126.2,-39.42 126.2,-31.12"/>
<polygon fill="#63b8ff" stroke="#63b8ff" points="129.7,-31.12 126.2,-21.12 122.7,-31.12 129.7,-31.12"/>
</a>
</g>
</g>
<!-- Node9&#45;&gt;Node7 -->
<g id="edge13_Node000009_Node000007" class="edge">
<title>Node9&#45;&gt;Node7</title>
<g id="a_edge13_Node000009_Node000007"><a xlink:title=" ">
<path fill="none" stroke="#63b8ff" d="M143,-54.84C158.21,-46.66 180.9,-34.46 198.58,-24.94"/>
<polygon fill="#63b8ff" stroke="#63b8ff" points="199.84,-28.24 206.99,-20.42 196.53,-22.07 199.84,-28.24"/>
</a>
</g>
</g>
<!-- Node10&#45;&gt;Node8 -->
<g id="edge16_Node000010_Node000008" class="edge">
<title>Node10&#45;&gt;Node8</title>
<g id="a_edge16_Node000010_Node000008"><a xlink:title=" ">
<path fill="none" stroke="#63b8ff" d="M166.91,-276.07C163.2,-250.75 152.43,-177.25 147.16,-141.34"/>
<polygon fill="#63b8ff" stroke="#63b8ff" points="150.63,-140.86 145.72,-131.47 143.7,-141.87 150.63,-140.86"/>
</a>
</g>
</g>
<!-- Node11 -->
<g id="Node000011" class="node">
<title>Node11</title>
<g id="a_Node000011"><a xlink:href="lmem_8h.html" target="_top" xlink:title=" ">
<polygon fill="white" stroke="#666666" points="228.33,-240.25 180.08,-240.25 180.08,-221 228.33,-221 228.33,-240.25"/>
<text xml:space="preserve" text-anchor="middle" x="204.2" y="-226.75" font-family="Helvetica,sans-Serif" font-size="10.00">lmem.h</text>
</a>
</g>
</g>
<!-- Node10&#45;&gt;Node11 -->
<g id="edge17_Node000010_Node000011" class="edge">
<title>Node10&#45;&gt;Node11</title>
<g id="a_edge17_Node000010_Node000011"><a xlink:title=" ">
<path fill="none" stroke="#63b8ff" d="M174.15,-276.08C178.91,-269.03 185.76,-258.9 191.72,-250.08"/>
<polygon fill="#63b8ff" stroke="#63b8ff" points="194.58,-252.11 197.28,-241.86 188.78,-248.19 194.58,-252.11"/>
</a>
</g>
</g>
<!-- Node11&#45;&gt;Node6 -->
<g id="edge19_Node000011_Node000006" class="edge">
<title>Node11&#45;&gt;Node6</title>
<g id="a_edge19_Node000011_Node000006"><a xlink:title=" ">
<path fill="none" stroke="#63b8ff" d="M215.91,-220.59C225.98,-212.82 240.74,-201.42 252.76,-192.15"/>
<polygon fill="#63b8ff" stroke="#63b8ff" points="254.69,-195.08 260.47,-186.2 250.42,-189.54 254.69,-195.08"/>
</a>
</g>
</g>
<!-- Node11&#45;&gt;Node7 -->
<g id="edge18_Node000011_Node000007" class="edge">
<title>Node11&#45;&gt;Node7</title>
<g id="a_edge18_Node000011_Node000007"><a xlink:title=" ">
<path fill="none" stroke="#63b8ff" d="M205.05,-220.77C208.14,-188.51 218.86,-76.76 223.28,-30.71"/>
<polygon fill="#63b8ff" stroke="#63b8ff" points="226.75,-31.15 224.22,-20.86 219.78,-30.48 226.75,-31.15"/>
</a>
</g>
</g>
<!-- Node11&#45;&gt;Node8 -->
<g id="edge20_Node000011_Node000008" class="edge">
<title>Node11&#45;&gt;Node8</title>
<g id="a_edge20_Node000011_Node000008"><a xlink:title=" ">
<path fill="none" stroke="#63b8ff" d="M199.29,-220.75C189.58,-203.18 167.72,-163.66 154.65,-140.02"/>
<polygon fill="#63b8ff" stroke="#63b8ff" points="157.81,-138.51 149.91,-131.45 151.69,-141.9 157.81,-138.51"/>
</a>
</g>
</g>
<!-- Node12&#45;&gt;Node6 -->
<g id="edge23_Node000012_Node000006" class="edge">
<title>Node12&#45;&gt;Node6</title>
<g id="a_edge23_Node000012_Node000006"><a xlink:title=" ">
<path fill="none" stroke="#63b8ff" d="M309.1,-220.83C303.28,-213.63 294.87,-203.21 287.64,-194.26"/>
<polygon fill="#63b8ff" stroke="#63b8ff" points="290.41,-192.12 281.41,-186.54 284.97,-196.52 290.41,-192.12"/>
</a>
</g>
</g>
<!-- Node13&#45;&gt;Node4 -->
<g id="edge26_Node000013_Node000004" class="edge">
<title>Node13&#45;&gt;Node4</title>
<g id="a_edge26_Node000013_Node000004"><a xlink:title=" ">
<path fill="none" stroke="#63b8ff" d="M169.61,-331.09C156.76,-323.14 137.79,-311.39 122.63,-302"/>
<polygon fill="#63b8ff" stroke="#63b8ff" points="124.49,-299.04 114.15,-296.75 120.81,-304.99 124.49,-299.04"/>
</a>
</g>
</g>
<!-- Node13&#45;&gt;Node6 -->
<g id="edge25_Node000013_Node000006" class="edge">
<title>Node13&#45;&gt;Node6</title>
<g id="a_edge25_Node000013_Node000006"><a xlink:title=" ">
<path fill="none" stroke="#63b8ff" d="M188.99,-331.32C202.93,-305.67 243.75,-230.55 262.97,-195.19"/>
<polygon fill="#63b8ff" stroke="#63b8ff" points="265.97,-197.01 267.67,-186.55 259.82,-193.67 265.97,-197.01"/>
</a>
</g>
</g>
<!-- Node13&#45;&gt;Node10 -->
<g id="edge27_Node000013_Node000010" class="edge">
<title>Node13&#45;&gt;Node10</title>
<g id="a_edge27_Node000013_Node000010"><a xlink:title=" ">
<path fill="none" stroke="#63b8ff" d="M181.56,-331.33C179.56,-324.67 176.72,-315.24 174.18,-306.78"/>
<polygon fill="#63b8ff" stroke="#63b8ff" points="177.57,-305.88 171.34,-297.31 170.86,-307.89 177.57,-305.88"/>
</a>
</g>
</g>
</g>
</svg>
