<?xml version="1.0" encoding="UTF-8" standalone="no"?>
<!DOCTYPE svg PUBLIC "-//W3C//DTD SVG 1.1//EN"
 "http://www.w3.org/Graphics/SVG/1.1/DTD/svg11.dtd">
<!-- Generated by graphviz version 13.1.0 (20250701.0955)
 -->
<!-- Title: getco Pages: 1 -->
<svg width="168pt" height="138pt"
 viewBox="0.00 0.00 168.00 138.00" xmlns="http://www.w3.org/2000/svg" xmlns:xlink="http://www.w3.org/1999/xlink">
<g id="graph0" class="graph" transform="scale(1 1) rotate(0) translate(4 134.25)">
<title>getco</title>
<!-- Node1 -->
<g id="Node000001" class="node">
<title>Node1</title>
<g id="a_Node000001"><a xlink:title=" ">
<polygon fill="#999999" stroke="#666666" points="159.5,-74.25 119.5,-74.25 119.5,-55 159.5,-55 159.5,-74.25"/>
<text xml:space="preserve" text-anchor="middle" x="139.5" y="-60.75" font-family="Helvetica,sans-Serif" font-size="10.00">getco</text>
</a>
</g>
</g>
<!-- Node2 -->
<g id="Node000002" class="node">
<title>Node2</title>
<g id="a_Node000002"><a xlink:href="lcorolib_8c.html#a3c6a70201b343432bfeb1f3e09cdde6f" target="_top" xlink:title=" ">
<polygon fill="white" stroke="#666666" points="73.75,-130.25 9.75,-130.25 9.75,-111 73.75,-111 73.75,-130.25"/>
<text xml:space="preserve" text-anchor="middle" x="41.75" y="-116.75" font-family="Helvetica,sans-Serif" font-size="10.00">luaB_close</text>
</a>
</g>
</g>
<!-- Node1&#45;&gt;Node2 -->
<g id="edge1_Node000001_Node000002" class="edge">
<title>Node1&#45;&gt;Node2</title>
<g id="a_edge1_Node000001_Node000002"><a xlink:title=" ">
<path fill="none" stroke="#63b8ff" d="M116.37,-81.33C106.57,-88.35 94.74,-96.33 83.5,-102.62 78.51,-105.42 72.99,-108.1 67.68,-110.51"/>
<polygon fill="#63b8ff" stroke="#63b8ff" points="118.17,-84.35 124.17,-75.62 114.04,-78.7 118.17,-84.35"/>
</a>
</g>
</g>
<!-- Node3 -->
<g id="Node000003" class="node">
<title>Node3</title>
<g id="a_Node000003"><a xlink:href="lcorolib_8c.html#a76f5d80387eeb1c7d31eb5f9cb6c9392" target="_top" xlink:title=" ">
<polygon fill="white" stroke="#666666" points="83.5,-93.25 0,-93.25 0,-74 83.5,-74 83.5,-93.25"/>
<text xml:space="preserve" text-anchor="middle" x="41.75" y="-79.75" font-family="Helvetica,sans-Serif" font-size="10.00">luaB_coresume</text>
</a>
</g>
</g>
<!-- Node1&#45;&gt;Node3 -->
<g id="edge2_Node000001_Node000003" class="edge">
<title>Node1&#45;&gt;Node3</title>
<g id="a_edge2_Node000001_Node000003"><a xlink:title=" ">
<path fill="none" stroke="#63b8ff" d="M108.09,-70.66C100.39,-72.19 91.98,-73.86 83.85,-75.47"/>
<polygon fill="#63b8ff" stroke="#63b8ff" points="108.51,-74.14 117.64,-68.76 107.15,-67.28 108.51,-74.14"/>
</a>
</g>
</g>
<!-- Node4 -->
<g id="Node000004" class="node">
<title>Node4</title>
<g id="a_Node000004"><a xlink:href="lcorolib_8c.html#a174dfb2852a7d04964e4a1426fff93f8" target="_top" xlink:title=" ">
<polygon fill="white" stroke="#666666" points="80.88,-56.25 2.62,-56.25 2.62,-37 80.88,-37 80.88,-56.25"/>
<text xml:space="preserve" text-anchor="middle" x="41.75" y="-42.75" font-family="Helvetica,sans-Serif" font-size="10.00">luaB_costatus</text>
</a>
</g>
</g>
<!-- Node1&#45;&gt;Node4 -->
<g id="edge3_Node000001_Node000004" class="edge">
<title>Node1&#45;&gt;Node4</title>
<g id="a_edge3_Node000001_Node000004"><a xlink:title=" ">
<path fill="none" stroke="#63b8ff" d="M108.09,-58.91C99.51,-57.3 90.07,-55.52 81.09,-53.83"/>
<polygon fill="#63b8ff" stroke="#63b8ff" points="107.16,-62.29 117.64,-60.7 108.45,-55.42 107.16,-62.29"/>
</a>
</g>
</g>
<!-- Node5 -->
<g id="Node000005" class="node">
<title>Node5</title>
<g id="a_Node000005"><a xlink:href="lcorolib_8c.html#a692ce6ad2c6f43a5c7d521cbcc56af5d" target="_top" xlink:title=" ">
<polygon fill="white" stroke="#666666" points="81.25,-19.25 2.25,-19.25 2.25,0 81.25,0 81.25,-19.25"/>
<text xml:space="preserve" text-anchor="middle" x="41.75" y="-5.75" font-family="Helvetica,sans-Serif" font-size="10.00">luaB_yieldable</text>
</a>
</g>
</g>
<!-- Node1&#45;&gt;Node5 -->
<g id="edge4_Node000001_Node000005" class="edge">
<title>Node1&#45;&gt;Node5</title>
<g id="a_edge4_Node000001_Node000005"><a xlink:title=" ">
<path fill="none" stroke="#63b8ff" d="M116.01,-48.19C106.26,-41.41 94.57,-33.73 83.5,-27.62 78.35,-24.79 72.67,-22.05 67.22,-19.6"/>
<polygon fill="#63b8ff" stroke="#63b8ff" points="113.94,-51.01 124.12,-53.94 117.99,-45.3 113.94,-51.01"/>
</a>
</g>
</g>
</g>
</svg>
