<?xml version="1.0" encoding="UTF-8" standalone="no"?>
<!DOCTYPE svg PUBLIC "-//W3C//DTD SVG 1.1//EN"
 "http://www.w3.org/Graphics/SVG/1.1/DTD/svg11.dtd">
<!-- Generated by graphviz version 13.1.0 (20250701.0955)
 -->
<!-- Title: lua&#45;5.4.7/lctype.h Pages: 1 -->
<svg width="415pt" height="138pt"
 viewBox="0.00 0.00 415.00 138.00" xmlns="http://www.w3.org/2000/svg" xmlns:xlink="http://www.w3.org/1999/xlink">

<svg id="main" version="1.1" xmlns="http://www.w3.org/2000/svg" xmlns:xlink="http://www.w3.org/1999/xlink" xml:space="preserve">

<style type="text/css"><![CDATA[
.node, .edge {opacity: 0.7;}
.node.selected, .edge.selected {opacity: 1;}
.edge:hover path { stroke: red; }
.edge:hover polygon { stroke: red; fill: red; }
]]></style>
<script type="application/ecmascript" xlink:href="svg.min.js"/>
<svg id="graph" class="graph">
<g id="graph0" class="graph" transform="scale(1 1) rotate(0) translate(4 133.75)">
<title>lua&#45;5.4.7/lctype.h</title>
<!-- Node1 -->
<g id="Node000001" class="node">
<title>Node1</title>
<g id="a_Node000001"><a xlink:title=" ">
<polygon fill="#999999" stroke="#666666" points="246,-129.75 155,-129.75 155,-110.5 246,-110.5 246,-129.75"/>
<text xml:space="preserve" text-anchor="middle" x="200.5" y="-116.25" font-family="Helvetica,sans-Serif" font-size="10.00">lua&#45;5.4.7/lctype.h</text>
</a>
</g>
</g>
<!-- Node2 -->
<g id="Node000002" class="node">
<title>Node2</title>
<g id="a_Node000002"><a xlink:href="lctype_8c.html" target="_top" xlink:title=" ">
<polygon fill="white" stroke="#666666" points="91,-74.5 0,-74.5 0,-55.25 91,-55.25 91,-74.5"/>
<text xml:space="preserve" text-anchor="middle" x="45.5" y="-61" font-family="Helvetica,sans-Serif" font-size="10.00">lua&#45;5.4.7/lctype.c</text>
</a>
</g>
</g>
<!-- Node1&#45;&gt;Node2 -->
<g id="edge1_Node000001_Node000002" class="edge">
<title>Node1&#45;&gt;Node2</title>
<g id="a_edge1_Node000001_Node000002"><a xlink:title=" ">
<path fill="none" stroke="#63b8ff" d="M163.55,-106.43C135.33,-96.74 97.13,-83.61 71.92,-74.95"/>
<polygon fill="#63b8ff" stroke="#63b8ff" points="162.18,-109.66 172.77,-109.6 164.45,-103.04 162.18,-109.66"/>
</a>
</g>
</g>
<!-- Node4 -->
<g id="Node000004" class="node">
<title>Node4</title>
<g id="a_Node000004"><a xlink:href="llex_8c.html" target="_top" xlink:title=" ">
<polygon fill="white" stroke="#666666" points="188.38,-74.5 108.62,-74.5 108.62,-55.25 188.38,-55.25 188.38,-74.5"/>
<text xml:space="preserve" text-anchor="middle" x="148.5" y="-61" font-family="Helvetica,sans-Serif" font-size="10.00">lua&#45;5.4.7/llex.c</text>
</a>
</g>
</g>
<!-- Node1&#45;&gt;Node4 -->
<g id="edge3_Node000001_Node000004" class="edge">
<title>Node1&#45;&gt;Node4</title>
<g id="a_edge3_Node000001_Node000004"><a xlink:title=" ">
<path fill="none" stroke="#63b8ff" d="M184.09,-102.32C175.21,-93.23 164.59,-82.35 157.27,-74.86"/>
<polygon fill="#63b8ff" stroke="#63b8ff" points="181.37,-104.54 190.86,-109.25 186.37,-99.65 181.37,-104.54"/>
</a>
</g>
</g>
<!-- Node5 -->
<g id="Node000005" class="node">
<title>Node5</title>
<g id="a_Node000005"><a xlink:href="lobject_8c.html" target="_top" xlink:title=" ">
<polygon fill="white" stroke="#666666" points="300.12,-74.5 206.88,-74.5 206.88,-55.25 300.12,-55.25 300.12,-74.5"/>
<text xml:space="preserve" text-anchor="middle" x="253.5" y="-61" font-family="Helvetica,sans-Serif" font-size="10.00">lua&#45;5.4.7/lobject.c</text>
</a>
</g>
</g>
<!-- Node1&#45;&gt;Node5 -->
<g id="edge5_Node000001_Node000005" class="edge">
<title>Node1&#45;&gt;Node5</title>
<g id="a_edge5_Node000001_Node000005"><a xlink:title=" ">
<path fill="none" stroke="#63b8ff" d="M217.22,-102.32C226.28,-93.23 237.1,-82.35 244.56,-74.86"/>
<polygon fill="#63b8ff" stroke="#63b8ff" points="214.89,-99.7 210.32,-109.26 219.85,-104.64 214.89,-99.7"/>
</a>
</g>
</g>
<!-- Node6 -->
<g id="Node000006" class="node">
<title>Node6</title>
<g id="a_Node000006"><a xlink:href="ltests_8c.html" target="_top" xlink:title=" ">
<polygon fill="white" stroke="#666666" points="406.88,-74.5 318.12,-74.5 318.12,-55.25 406.88,-55.25 406.88,-74.5"/>
<text xml:space="preserve" text-anchor="middle" x="362.5" y="-61" font-family="Helvetica,sans-Serif" font-size="10.00">lua&#45;5.4.7/ltests.c</text>
</a>
</g>
</g>
<!-- Node1&#45;&gt;Node6 -->
<g id="edge7_Node000001_Node000006" class="edge">
<title>Node1&#45;&gt;Node6</title>
<g id="a_edge7_Node000001_Node000006"><a xlink:title=" ">
<path fill="none" stroke="#63b8ff" d="M238.73,-106.56C268.26,-96.85 308.42,-83.65 334.88,-74.95"/>
<polygon fill="#63b8ff" stroke="#63b8ff" points="237.83,-103.17 229.42,-109.62 240.01,-109.82 237.83,-103.17"/>
</a>
</g>
</g>
<!-- Node3 -->
<g id="Node000003" class="node">
<title>Node3</title>
<g id="a_Node000003"><a xlink:href="onelua_8c.html" target="_top" xlink:title=" ">
<polygon fill="white" stroke="#666666" points="195.12,-19.25 101.88,-19.25 101.88,0 195.12,0 195.12,-19.25"/>
<text xml:space="preserve" text-anchor="middle" x="148.5" y="-5.75" font-family="Helvetica,sans-Serif" font-size="10.00">lua&#45;5.4.7/onelua.c</text>
</a>
</g>
</g>
<!-- Node2&#45;&gt;Node3 -->
<g id="edge2_Node000002_Node000003" class="edge">
<title>Node2&#45;&gt;Node3</title>
<g id="a_edge2_Node000002_Node000003"><a xlink:title=" ">
<path fill="none" stroke="#63b8ff" d="M73.09,-49.61C91.48,-40.11 115.08,-27.9 130.94,-19.7"/>
<polygon fill="#63b8ff" stroke="#63b8ff" points="71.59,-46.45 64.32,-54.15 74.81,-52.66 71.59,-46.45"/>
</a>
</g>
</g>
<!-- Node4&#45;&gt;Node3 -->
<g id="edge4_Node000004_Node000003" class="edge">
<title>Node4&#45;&gt;Node3</title>
<g id="a_edge4_Node000004_Node000003"><a xlink:title=" ">
<path fill="none" stroke="#63b8ff" d="M148.5,-43.63C148.5,-35.34 148.5,-26.17 148.5,-19.61"/>
<polygon fill="#63b8ff" stroke="#63b8ff" points="145,-43.57 148.5,-53.57 152,-43.57 145,-43.57"/>
</a>
</g>
</g>
<!-- Node5&#45;&gt;Node3 -->
<g id="edge6_Node000005_Node000003" class="edge">
<title>Node5&#45;&gt;Node3</title>
<g id="a_edge6_Node000005_Node000003"><a xlink:title=" ">
<path fill="none" stroke="#63b8ff" d="M225.63,-49.74C206.86,-40.22 182.64,-27.94 166.4,-19.7"/>
<polygon fill="#63b8ff" stroke="#63b8ff" points="223.84,-52.76 234.34,-54.16 227,-46.51 223.84,-52.76"/>
</a>
</g>
</g>
</g>
</svg>
</svg>

<style type='text/css'>
<![CDATA[
[data-mouse-over-selected='false'] { opacity: 0.7; }
[data-mouse-over-selected='true']  { opacity: 1.0; }
]]>
</style>
<script type="application/ecmascript"><![CDATA[
document.addEventListener('DOMContentLoaded', (event) => {
  highlightEdges();
  highlightAdjacentNodes();
});
]]></script>
</svg>
