<?xml version="1.0" encoding="UTF-8" standalone="no"?>
<!DOCTYPE svg PUBLIC "-//W3C//DTD SVG 1.1//EN"
 "http://www.w3.org/Graphics/SVG/1.1/DTD/svg11.dtd">
<!-- Generated by graphviz version 13.1.0 (20250701.0955)
 -->
<!-- Title: lua&#45;5.4.7/lctype.c Pages: 1 -->
<svg width="292pt" height="304pt"
 viewBox="0.00 0.00 292.00 304.00" xmlns="http://www.w3.org/2000/svg" xmlns:xlink="http://www.w3.org/1999/xlink">

<svg id="main" version="1.1" xmlns="http://www.w3.org/2000/svg" xmlns:xlink="http://www.w3.org/1999/xlink" xml:space="preserve">

<style type="text/css"><![CDATA[
.node, .edge {opacity: 0.7;}
.node.selected, .edge.selected {opacity: 1;}
.edge:hover path { stroke: red; }
.edge:hover polygon { stroke: red; fill: red; }
]]></style>
<script type="application/ecmascript" xlink:href="svg.min.js"/>
<svg id="graph" class="graph">
<g id="graph0" class="graph" transform="scale(1 1) rotate(0) translate(4 299.5)">
<title>lua&#45;5.4.7/lctype.c</title>
<!-- Node1 -->
<g id="Node000001" class="node">
<title>Node1</title>
<g id="a_Node000001"><a xlink:title=" ">
<polygon fill="#999999" stroke="#666666" points="265.12,-295.5 174.12,-295.5 174.12,-276.25 265.12,-276.25 265.12,-295.5"/>
<text xml:space="preserve" text-anchor="middle" x="219.62" y="-282" font-family="Helvetica,sans-Serif" font-size="10.00">lua&#45;5.4.7/lctype.c</text>
</a>
</g>
</g>
<!-- Node2 -->
<g id="Node000002" class="node">
<title>Node2</title>
<g id="a_Node000002"><a xlink:href="lprefix_8h.html" target="_top" xlink:title=" ">
<polygon fill="white" stroke="#666666" points="175.88,-240.25 125.38,-240.25 125.38,-221 175.88,-221 175.88,-240.25"/>
<text xml:space="preserve" text-anchor="middle" x="150.62" y="-226.75" font-family="Helvetica,sans-Serif" font-size="10.00">lprefix.h</text>
</a>
</g>
</g>
<!-- Node1&#45;&gt;Node2 -->
<g id="edge1_Node000001_Node000002" class="edge">
<title>Node1&#45;&gt;Node2</title>
<g id="a_edge1_Node000001_Node000002"><a xlink:title=" ">
<path fill="none" stroke="#63b8ff" d="M207.92,-275.84C197.85,-268.07 183.08,-256.67 171.06,-247.4"/>
<polygon fill="#63b8ff" stroke="#63b8ff" points="173.41,-244.79 163.36,-241.45 169.13,-250.33 173.41,-244.79"/>
</a>
</g>
</g>
<!-- Node3 -->
<g id="Node000003" class="node">
<title>Node3</title>
<g id="a_Node000003"><a xlink:href="lctype_8h.html" target="_top" xlink:title=" ">
<polygon fill="white" stroke="#666666" points="244.88,-240.25 194.38,-240.25 194.38,-221 244.88,-221 244.88,-240.25"/>
<text xml:space="preserve" text-anchor="middle" x="219.62" y="-226.75" font-family="Helvetica,sans-Serif" font-size="10.00">lctype.h</text>
</a>
</g>
</g>
<!-- Node1&#45;&gt;Node3 -->
<g id="edge2_Node000001_Node000003" class="edge">
<title>Node1&#45;&gt;Node3</title>
<g id="a_edge2_Node000001_Node000003"><a xlink:title=" ">
<path fill="none" stroke="#63b8ff" d="M219.62,-276.08C219.62,-269.57 219.62,-260.42 219.62,-252.12"/>
<polygon fill="#63b8ff" stroke="#63b8ff" points="223.13,-252.12 219.63,-242.12 216.13,-252.12 223.13,-252.12"/>
</a>
</g>
</g>
<!-- Node8 -->
<g id="Node000008" class="node">
<title>Node8</title>
<g id="a_Node000008"><a xlink:title=" ">
<polygon fill="#e0e0e0" stroke="#999999" points="250.38,-19.25 202.88,-19.25 202.88,0 250.38,0 250.38,-19.25"/>
<text xml:space="preserve" text-anchor="middle" x="226.62" y="-5.75" font-family="Helvetica,sans-Serif" font-size="10.00">limits.h</text>
</a>
</g>
</g>
<!-- Node1&#45;&gt;Node8 -->
<g id="edge14_Node000001_Node000008" class="edge">
<title>Node1&#45;&gt;Node8</title>
<g id="a_edge14_Node000001_Node000008"><a xlink:title=" ">
<path fill="none" stroke="#63b8ff" d="M229.62,-275.79C247.62,-258.4 283.62,-218.36 283.62,-176.38 283.62,-176.38 283.62,-176.38 283.62,-119.12 283.62,-83.67 259.48,-48.41 242.62,-28.1"/>
<polygon fill="#63b8ff" stroke="#63b8ff" points="245.47,-26.05 236.27,-20.79 240.18,-30.63 245.47,-26.05"/>
</a>
</g>
</g>
<!-- Node4 -->
<g id="Node000004" class="node">
<title>Node4</title>
<g id="a_Node000004"><a xlink:href="lua_8h.html" target="_top" xlink:title=" ">
<polygon fill="white" stroke="#666666" points="172.12,-129.75 135.12,-129.75 135.12,-110.5 172.12,-110.5 172.12,-129.75"/>
<text xml:space="preserve" text-anchor="middle" x="153.62" y="-116.25" font-family="Helvetica,sans-Serif" font-size="10.00">lua.h</text>
</a>
</g>
</g>
<!-- Node3&#45;&gt;Node4 -->
<g id="edge3_Node000003_Node000004" class="edge">
<title>Node3&#45;&gt;Node4</title>
<g id="a_edge3_Node000003_Node000004"><a xlink:title=" ">
<path fill="none" stroke="#63b8ff" d="M215.98,-220.63C210.7,-207.97 200.25,-184.36 188.62,-165.75 182.76,-156.37 175.31,-146.63 168.79,-138.65"/>
<polygon fill="#63b8ff" stroke="#63b8ff" points="171.55,-136.5 162.43,-131.1 166.19,-141 171.55,-136.5"/>
</a>
</g>
</g>
<!-- Node3&#45;&gt;Node8 -->
<g id="edge9_Node000003_Node000008" class="edge">
<title>Node3&#45;&gt;Node8</title>
<g id="a_edge9_Node000003_Node000008"><a xlink:title=" ">
<path fill="none" stroke="#63b8ff" d="M219.91,-220.77C220.94,-188.51 224.51,-76.76 225.98,-30.71"/>
<polygon fill="#63b8ff" stroke="#63b8ff" points="229.48,-30.97 226.3,-20.86 222.48,-30.75 229.48,-30.97"/>
</a>
</g>
</g>
<!-- Node9 -->
<g id="Node000009" class="node">
<title>Node9</title>
<g id="a_Node000009"><a xlink:href="llimits_8h.html" target="_top" xlink:title=" ">
<polygon fill="white" stroke="#666666" points="179.5,-185 129.75,-185 129.75,-165.75 179.5,-165.75 179.5,-185"/>
<text xml:space="preserve" text-anchor="middle" x="154.62" y="-171.5" font-family="Helvetica,sans-Serif" font-size="10.00">llimits.h</text>
</a>
</g>
</g>
<!-- Node3&#45;&gt;Node9 -->
<g id="edge10_Node000003_Node000009" class="edge">
<title>Node3&#45;&gt;Node9</title>
<g id="a_edge10_Node000003_Node000009"><a xlink:title=" ">
<path fill="none" stroke="#63b8ff" d="M208.6,-220.59C199.2,-212.9 185.48,-201.65 174.22,-192.43"/>
<polygon fill="#63b8ff" stroke="#63b8ff" points="176.61,-189.86 166.66,-186.23 172.18,-195.28 176.61,-189.86"/>
</a>
</g>
</g>
<!-- Node5 -->
<g id="Node000005" class="node">
<title>Node5</title>
<g id="a_Node000005"><a xlink:title=" ">
<polygon fill="#e0e0e0" stroke="#999999" points="179.25,-74.5 128,-74.5 128,-55.25 179.25,-55.25 179.25,-74.5"/>
<text xml:space="preserve" text-anchor="middle" x="153.62" y="-61" font-family="Helvetica,sans-Serif" font-size="10.00">stdarg.h</text>
</a>
</g>
</g>
<!-- Node4&#45;&gt;Node5 -->
<g id="edge4_Node000004_Node000005" class="edge">
<title>Node4&#45;&gt;Node5</title>
<g id="a_edge4_Node000004_Node000005"><a xlink:title=" ">
<path fill="none" stroke="#63b8ff" d="M153.62,-110.33C153.62,-103.82 153.62,-94.67 153.62,-86.37"/>
<polygon fill="#63b8ff" stroke="#63b8ff" points="157.13,-86.37 153.63,-76.37 150.13,-86.37 157.13,-86.37"/>
</a>
</g>
</g>
<!-- Node6 -->
<g id="Node000006" class="node">
<title>Node6</title>
<g id="a_Node000006"><a xlink:title=" ">
<polygon fill="#e0e0e0" stroke="#999999" points="51.25,-19.25 0,-19.25 0,0 51.25,0 51.25,-19.25"/>
<text xml:space="preserve" text-anchor="middle" x="25.62" y="-5.75" font-family="Helvetica,sans-Serif" font-size="10.00">stddef.h</text>
</a>
</g>
</g>
<!-- Node4&#45;&gt;Node6 -->
<g id="edge5_Node000004_Node000006" class="edge">
<title>Node4&#45;&gt;Node6</title>
<g id="a_edge5_Node000004_Node000006"><a xlink:title=" ">
<path fill="none" stroke="#63b8ff" d="M135.01,-116.52C110.76,-112.14 68.64,-101.03 44.62,-74.5 33.81,-62.55 29.14,-44.68 27.13,-30.88"/>
<polygon fill="#63b8ff" stroke="#63b8ff" points="30.63,-30.72 26.09,-21.14 23.67,-31.46 30.63,-30.72"/>
</a>
</g>
</g>
<!-- Node7 -->
<g id="Node000007" class="node">
<title>Node7</title>
<g id="a_Node000007"><a xlink:href="luaconf_8h.html" target="_top" xlink:title=" ">
<polygon fill="white" stroke="#666666" points="109.5,-74.5 53.75,-74.5 53.75,-55.25 109.5,-55.25 109.5,-74.5"/>
<text xml:space="preserve" text-anchor="middle" x="81.62" y="-61" font-family="Helvetica,sans-Serif" font-size="10.00">luaconf.h</text>
</a>
</g>
</g>
<!-- Node4&#45;&gt;Node7 -->
<g id="edge6_Node000004_Node000007" class="edge">
<title>Node4&#45;&gt;Node7</title>
<g id="a_edge6_Node000004_Node000007"><a xlink:title=" ">
<path fill="none" stroke="#63b8ff" d="M141.41,-110.09C130.8,-102.24 115.19,-90.7 102.58,-81.37"/>
<polygon fill="#63b8ff" stroke="#63b8ff" points="105,-78.81 94.88,-75.67 100.83,-84.44 105,-78.81"/>
</a>
</g>
</g>
<!-- Node7&#45;&gt;Node6 -->
<g id="edge8_Node000007_Node000006" class="edge">
<title>Node7&#45;&gt;Node6</title>
<g id="a_edge8_Node000007_Node000006"><a xlink:title=" ">
<path fill="none" stroke="#63b8ff" d="M72.13,-54.84C64.19,-47.3 52.68,-36.35 43.09,-27.23"/>
<polygon fill="#63b8ff" stroke="#63b8ff" points="45.74,-24.92 36.08,-20.57 40.92,-29.99 45.74,-24.92"/>
</a>
</g>
</g>
<!-- Node7&#45;&gt;Node8 -->
<g id="edge7_Node000007_Node000008" class="edge">
<title>Node7&#45;&gt;Node8</title>
<g id="a_edge7_Node000007_Node000008"><a xlink:title=" ">
<path fill="none" stroke="#63b8ff" d="M106.22,-54.84C129.69,-46.22 165.29,-33.15 191.7,-23.45"/>
<polygon fill="#63b8ff" stroke="#63b8ff" points="192.79,-26.78 200.97,-20.05 190.38,-20.21 192.79,-26.78"/>
</a>
</g>
</g>
<!-- Node9&#45;&gt;Node4 -->
<g id="edge13_Node000009_Node000004" class="edge">
<title>Node9&#45;&gt;Node4</title>
<g id="a_edge13_Node000009_Node000004"><a xlink:title=" ">
<path fill="none" stroke="#63b8ff" d="M154.46,-165.58C154.34,-159.07 154.17,-149.92 154.01,-141.62"/>
<polygon fill="#63b8ff" stroke="#63b8ff" points="157.51,-141.55 153.82,-131.62 150.51,-141.69 157.51,-141.55"/>
</a>
</g>
</g>
<!-- Node9&#45;&gt;Node6 -->
<g id="edge12_Node000009_Node000006" class="edge">
<title>Node9&#45;&gt;Node6</title>
<g id="a_edge12_Node000009_Node000006"><a xlink:title=" ">
<path fill="none" stroke="#63b8ff" d="M135.18,-165.41C106.29,-150.91 52.95,-119.35 29.62,-74.5 22.63,-61.05 21.96,-43.8 22.85,-30.62"/>
<polygon fill="#63b8ff" stroke="#63b8ff" points="26.3,-31.3 23.87,-20.98 19.34,-30.56 26.3,-31.3"/>
</a>
</g>
</g>
<!-- Node9&#45;&gt;Node8 -->
<g id="edge11_Node000009_Node000008" class="edge">
<title>Node9&#45;&gt;Node8</title>
<g id="a_edge11_Node000009_Node000008"><a xlink:title=" ">
<path fill="none" stroke="#63b8ff" d="M160.71,-165.42C166.55,-156.6 175.37,-142.62 181.62,-129.75 198.09,-95.89 212.57,-54.36 220.41,-30.35"/>
<polygon fill="#63b8ff" stroke="#63b8ff" points="223.7,-31.56 223.42,-20.97 217.03,-29.42 223.7,-31.56"/>
</a>
</g>
</g>
</g>
</svg>
</svg>

<style type='text/css'>
<![CDATA[
[data-mouse-over-selected='false'] { opacity: 0.7; }
[data-mouse-over-selected='true']  { opacity: 1.0; }
]]>
</style>
<script type="application/ecmascript"><![CDATA[
document.addEventListener('DOMContentLoaded', (event) => {
  highlightEdges();
  highlightAdjacentNodes();
});
]]></script>
</svg>
