<?xml version="1.0" encoding="UTF-8" standalone="no"?>
<!DOCTYPE svg PUBLIC "-//W3C//DTD SVG 1.1//EN"
 "http://www.w3.org/Graphics/SVG/1.1/DTD/svg11.dtd">
<!-- Generated by graphviz version 13.1.0 (20250701.0955)
 -->
<!-- Title: hookf Pages: 1 -->
<svg width="150pt" height="64pt"
 viewBox="0.00 0.00 150.00 64.00" xmlns="http://www.w3.org/2000/svg" xmlns:xlink="http://www.w3.org/1999/xlink">
<g id="graph0" class="graph" transform="scale(1 1) rotate(0) translate(4 60.25)">
<title>hookf</title>
<!-- Node1 -->
<g id="Node000001" class="node">
<title>Node1</title>
<g id="a_Node000001"><a xlink:title=" ">
<polygon fill="#999999" stroke="#666666" points="142.25,-37.25 102.25,-37.25 102.25,-18 142.25,-18 142.25,-37.25"/>
<text xml:space="preserve" text-anchor="middle" x="122.25" y="-23.75" font-family="Helvetica,sans-Serif" font-size="10.00">hookf</text>
</a>
</g>
</g>
<!-- Node2 -->
<g id="Node000002" class="node">
<title>Node2</title>
<g id="a_Node000002"><a xlink:href="ldblib_8c.html#a6a624ae8d8ff673e72a317b280ed008d" target="_top" xlink:title=" ">
<polygon fill="white" stroke="#666666" points="66.25,-56.25 0,-56.25 0,-37 66.25,-37 66.25,-56.25"/>
<text xml:space="preserve" text-anchor="middle" x="33.12" y="-42.75" font-family="Helvetica,sans-Serif" font-size="10.00">db_gethook</text>
</a>
</g>
</g>
<!-- Node1&#45;&gt;Node2 -->
<g id="edge1_Node000001_Node000002" class="edge">
<title>Node1&#45;&gt;Node2</title>
<g id="a_edge1_Node000001_Node000002"><a xlink:title=" ">
<path fill="none" stroke="#63b8ff" d="M90.91,-34.24C82.99,-35.97 74.43,-37.84 66.41,-39.58"/>
<polygon fill="#63b8ff" stroke="#63b8ff" points="91.41,-37.71 100.44,-32.16 89.92,-30.88 91.41,-37.71"/>
</a>
</g>
</g>
<!-- Node3 -->
<g id="Node000003" class="node">
<title>Node3</title>
<g id="a_Node000003"><a xlink:href="ldblib_8c.html#aa0c362d361f8f9bd8a002c34c393e2b0" target="_top" xlink:title=" ">
<polygon fill="white" stroke="#666666" points="66.25,-19.25 0,-19.25 0,0 66.25,0 66.25,-19.25"/>
<text xml:space="preserve" text-anchor="middle" x="33.12" y="-5.75" font-family="Helvetica,sans-Serif" font-size="10.00">db_sethook</text>
</a>
</g>
</g>
<!-- Node1&#45;&gt;Node3 -->
<g id="edge2_Node000001_Node000003" class="edge">
<title>Node1&#45;&gt;Node3</title>
<g id="a_edge2_Node000001_Node000003"><a xlink:title=" ">
<path fill="none" stroke="#63b8ff" d="M90.91,-21.36C82.99,-19.72 74.43,-17.95 66.41,-16.3"/>
<polygon fill="#63b8ff" stroke="#63b8ff" points="89.93,-24.73 100.43,-23.32 91.35,-17.87 89.93,-24.73"/>
</a>
</g>
</g>
</g>
</svg>
