<?xml version="1.0" encoding="UTF-8" standalone="no"?>
<!DOCTYPE svg PUBLIC "-//W3C//DTD SVG 1.1//EN"
 "http://www.w3.org/Graphics/SVG/1.1/DTD/svg11.dtd">
<!-- Generated by graphviz version 13.1.0 (20250701.0955)
 -->
<!-- Title: lua&#45;5.4.7/ldblib.c Pages: 1 -->
<svg width="400pt" height="248pt"
 viewBox="0.00 0.00 400.00 248.00" xmlns="http://www.w3.org/2000/svg" xmlns:xlink="http://www.w3.org/1999/xlink">
<g id="graph0" class="graph" transform="scale(1 1) rotate(0) translate(4 244.25)">
<title>lua&#45;5.4.7/ldblib.c</title>
<!-- Node1 -->
<g id="Node000001" class="node">
<title>Node1</title>
<g id="a_Node000001"><a xlink:title=" ">
<polygon fill="#999999" stroke="#666666" points="242.88,-240.25 155.62,-240.25 155.62,-221 242.88,-221 242.88,-240.25"/>
<text xml:space="preserve" text-anchor="middle" x="199.25" y="-226.75" font-family="Helvetica,sans-Serif" font-size="10.00">lua&#45;5.4.7/ldblib.c</text>
</a>
</g>
</g>
<!-- Node2 -->
<g id="Node000002" class="node">
<title>Node2</title>
<g id="a_Node000002"><a xlink:href="lprefix_8h.html" target="_top" xlink:title=" ">
<polygon fill="white" stroke="#666666" points="50.5,-185 0,-185 0,-165.75 50.5,-165.75 50.5,-185"/>
<text xml:space="preserve" text-anchor="middle" x="25.25" y="-171.5" font-family="Helvetica,sans-Serif" font-size="10.00">lprefix.h</text>
</a>
</g>
</g>
<!-- Node1&#45;&gt;Node2 -->
<g id="edge1_Node000001_Node000002" class="edge">
<title>Node1&#45;&gt;Node2</title>
<g id="a_edge1_Node000001_Node000002"><a xlink:title=" ">
<path fill="none" stroke="#63b8ff" d="M169.73,-220.59C139.9,-211.46 93.74,-197.33 61.65,-187.51"/>
<polygon fill="#63b8ff" stroke="#63b8ff" points="62.97,-184.26 52.38,-184.68 60.92,-190.95 62.97,-184.26"/>
</a>
</g>
</g>
<!-- Node3 -->
<g id="Node000003" class="node">
<title>Node3</title>
<g id="a_Node000003"><a xlink:title=" ">
<polygon fill="#e0e0e0" stroke="#999999" points="100.88,-129.75 55.62,-129.75 55.62,-110.5 100.88,-110.5 100.88,-129.75"/>
<text xml:space="preserve" text-anchor="middle" x="78.25" y="-116.25" font-family="Helvetica,sans-Serif" font-size="10.00">stdio.h</text>
</a>
</g>
</g>
<!-- Node1&#45;&gt;Node3 -->
<g id="edge2_Node000001_Node000003" class="edge">
<title>Node1&#45;&gt;Node3</title>
<g id="a_edge2_Node000001_Node000003"><a xlink:title=" ">
<path fill="none" stroke="#63b8ff" d="M158.27,-220.51C137.35,-213.9 113.06,-202.89 97.25,-185 86.57,-172.92 81.89,-155.07 79.84,-141.3"/>
<polygon fill="#63b8ff" stroke="#63b8ff" points="83.35,-141.15 78.77,-131.6 76.39,-141.92 83.35,-141.15"/>
</a>
</g>
</g>
<!-- Node4 -->
<g id="Node000004" class="node">
<title>Node4</title>
<g id="a_Node000004"><a xlink:title=" ">
<polygon fill="#e0e0e0" stroke="#999999" points="326,-185 278.5,-185 278.5,-165.75 326,-165.75 326,-185"/>
<text xml:space="preserve" text-anchor="middle" x="302.25" y="-171.5" font-family="Helvetica,sans-Serif" font-size="10.00">stdlib.h</text>
</a>
</g>
</g>
<!-- Node1&#45;&gt;Node4 -->
<g id="edge3_Node000001_Node000004" class="edge">
<title>Node1&#45;&gt;Node4</title>
<g id="a_edge3_Node000001_Node000004"><a xlink:title=" ">
<path fill="none" stroke="#63b8ff" d="M216.72,-220.59C232.56,-212.41 256.16,-200.21 274.56,-190.69"/>
<polygon fill="#63b8ff" stroke="#63b8ff" points="276.07,-193.85 283.35,-186.15 272.86,-187.63 276.07,-193.85"/>
</a>
</g>
</g>
<!-- Node5 -->
<g id="Node000005" class="node">
<title>Node5</title>
<g id="a_Node000005"><a xlink:title=" ">
<polygon fill="#e0e0e0" stroke="#999999" points="392.38,-185 344.12,-185 344.12,-165.75 392.38,-165.75 392.38,-185"/>
<text xml:space="preserve" text-anchor="middle" x="368.25" y="-171.5" font-family="Helvetica,sans-Serif" font-size="10.00">string.h</text>
</a>
</g>
</g>
<!-- Node1&#45;&gt;Node5 -->
<g id="edge4_Node000001_Node000005" class="edge">
<title>Node1&#45;&gt;Node5</title>
<g id="a_edge4_Node000001_Node000005"><a xlink:title=" ">
<path fill="none" stroke="#63b8ff" d="M227.92,-220.59C256.94,-211.45 301.86,-197.29 333.03,-187.47"/>
<polygon fill="#63b8ff" stroke="#63b8ff" points="333.91,-190.87 342.39,-184.52 331.8,-184.19 333.91,-190.87"/>
</a>
</g>
</g>
<!-- Node6 -->
<g id="Node000006" class="node">
<title>Node6</title>
<g id="a_Node000006"><a xlink:href="lua_8h.html" target="_top" xlink:title=" ">
<polygon fill="white" stroke="#666666" points="236.75,-129.75 199.75,-129.75 199.75,-110.5 236.75,-110.5 236.75,-129.75"/>
<text xml:space="preserve" text-anchor="middle" x="218.25" y="-116.25" font-family="Helvetica,sans-Serif" font-size="10.00">lua.h</text>
</a>
</g>
</g>
<!-- Node1&#45;&gt;Node6 -->
<g id="edge5_Node000001_Node000006" class="edge">
<title>Node1&#45;&gt;Node6</title>
<g id="a_edge5_Node000001_Node000006"><a xlink:title=" ">
<path fill="none" stroke="#63b8ff" d="M208.3,-220.67C216.09,-212.29 226.76,-198.98 231.25,-185 235.97,-170.32 231.98,-153.17 227.22,-140.33"/>
<polygon fill="#63b8ff" stroke="#63b8ff" points="230.54,-139.22 223.44,-131.36 224.09,-141.93 230.54,-139.22"/>
</a>
</g>
</g>
<!-- Node11 -->
<g id="Node000011" class="node">
<title>Node11</title>
<g id="a_Node000011"><a xlink:href="lauxlib_8h.html" target="_top" xlink:title=" ">
<polygon fill="white" stroke="#666666" points="158.25,-185 106.25,-185 106.25,-165.75 158.25,-165.75 158.25,-185"/>
<text xml:space="preserve" text-anchor="middle" x="132.25" y="-171.5" font-family="Helvetica,sans-Serif" font-size="10.00">lauxlib.h</text>
</a>
</g>
</g>
<!-- Node1&#45;&gt;Node11 -->
<g id="edge11_Node000001_Node000011" class="edge">
<title>Node1&#45;&gt;Node11</title>
<g id="a_edge11_Node000001_Node000011"><a xlink:title=" ">
<path fill="none" stroke="#63b8ff" d="M187.88,-220.59C178.2,-212.9 164.05,-201.65 152.44,-192.43"/>
<polygon fill="#63b8ff" stroke="#63b8ff" points="154.64,-189.7 144.63,-186.22 150.28,-195.18 154.64,-189.7"/>
</a>
</g>
</g>
<!-- Node12 -->
<g id="Node000012" class="node">
<title>Node12</title>
<g id="a_Node000012"><a xlink:href="lualib_8h.html" target="_top" xlink:title=" ">
<polygon fill="white" stroke="#666666" points="222.62,-185 175.88,-185 175.88,-165.75 222.62,-165.75 222.62,-185"/>
<text xml:space="preserve" text-anchor="middle" x="199.25" y="-171.5" font-family="Helvetica,sans-Serif" font-size="10.00">lualib.h</text>
</a>
</g>
</g>
<!-- Node1&#45;&gt;Node12 -->
<g id="edge16_Node000001_Node000012" class="edge">
<title>Node1&#45;&gt;Node12</title>
<g id="a_edge16_Node000001_Node000012"><a xlink:title=" ">
<path fill="none" stroke="#63b8ff" d="M199.25,-220.83C199.25,-214.32 199.25,-205.17 199.25,-196.87"/>
<polygon fill="#63b8ff" stroke="#63b8ff" points="202.75,-196.87 199.25,-186.87 195.75,-196.87 202.75,-196.87"/>
</a>
</g>
</g>
<!-- Node7 -->
<g id="Node000007" class="node">
<title>Node7</title>
<g id="a_Node000007"><a xlink:title=" ">
<polygon fill="#e0e0e0" stroke="#999999" points="246.88,-74.5 195.62,-74.5 195.62,-55.25 246.88,-55.25 246.88,-74.5"/>
<text xml:space="preserve" text-anchor="middle" x="221.25" y="-61" font-family="Helvetica,sans-Serif" font-size="10.00">stdarg.h</text>
</a>
</g>
</g>
<!-- Node6&#45;&gt;Node7 -->
<g id="edge6_Node000006_Node000007" class="edge">
<title>Node6&#45;&gt;Node7</title>
<g id="a_edge6_Node000006_Node000007"><a xlink:title=" ">
<path fill="none" stroke="#63b8ff" d="M218.75,-110.33C219.12,-103.74 219.64,-94.46 220.11,-86.07"/>
<polygon fill="#63b8ff" stroke="#63b8ff" points="223.59,-86.55 220.66,-76.37 216.6,-86.16 223.59,-86.55"/>
</a>
</g>
</g>
<!-- Node8 -->
<g id="Node000008" class="node">
<title>Node8</title>
<g id="a_Node000008"><a xlink:title=" ">
<polygon fill="#e0e0e0" stroke="#999999" points="198.88,-19.25 147.62,-19.25 147.62,0 198.88,0 198.88,-19.25"/>
<text xml:space="preserve" text-anchor="middle" x="173.25" y="-5.75" font-family="Helvetica,sans-Serif" font-size="10.00">stddef.h</text>
</a>
</g>
</g>
<!-- Node6&#45;&gt;Node8 -->
<g id="edge7_Node000006_Node000008" class="edge">
<title>Node6&#45;&gt;Node8</title>
<g id="a_edge7_Node000006_Node000008"><a xlink:title=" ">
<path fill="none" stroke="#63b8ff" d="M230.48,-110.02C245.57,-97.62 267.9,-74.74 256.25,-55.25 246.1,-38.27 227.03,-27.38 209.72,-20.61"/>
<polygon fill="#63b8ff" stroke="#63b8ff" points="211.29,-17.45 200.69,-17.41 208.95,-24.05 211.29,-17.45"/>
</a>
</g>
</g>
<!-- Node9 -->
<g id="Node000009" class="node">
<title>Node9</title>
<g id="a_Node000009"><a xlink:href="luaconf_8h.html" target="_top" xlink:title=" ">
<polygon fill="white" stroke="#666666" points="139.12,-74.5 83.38,-74.5 83.38,-55.25 139.12,-55.25 139.12,-74.5"/>
<text xml:space="preserve" text-anchor="middle" x="111.25" y="-61" font-family="Helvetica,sans-Serif" font-size="10.00">luaconf.h</text>
</a>
</g>
</g>
<!-- Node6&#45;&gt;Node9 -->
<g id="edge8_Node000006_Node000009" class="edge">
<title>Node6&#45;&gt;Node9</title>
<g id="a_edge8_Node000006_Node000009"><a xlink:title=" ">
<path fill="none" stroke="#63b8ff" d="M200.1,-110.09C183.57,-101.87 158.91,-89.59 139.75,-80.06"/>
<polygon fill="#63b8ff" stroke="#63b8ff" points="141.36,-76.95 130.85,-75.63 138.24,-83.22 141.36,-76.95"/>
</a>
</g>
</g>
<!-- Node9&#45;&gt;Node8 -->
<g id="edge10_Node000009_Node000008" class="edge">
<title>Node9&#45;&gt;Node8</title>
<g id="a_edge10_Node000009_Node000008"><a xlink:title=" ">
<path fill="none" stroke="#63b8ff" d="M121.77,-54.84C130.64,-47.22 143.56,-36.12 154.24,-26.95"/>
<polygon fill="#63b8ff" stroke="#63b8ff" points="156.43,-29.68 161.74,-20.51 151.87,-24.37 156.43,-29.68"/>
</a>
</g>
</g>
<!-- Node10 -->
<g id="Node000010" class="node">
<title>Node10</title>
<g id="a_Node000010"><a xlink:title=" ">
<polygon fill="#e0e0e0" stroke="#999999" points="130,-19.25 82.5,-19.25 82.5,0 130,0 130,-19.25"/>
<text xml:space="preserve" text-anchor="middle" x="106.25" y="-5.75" font-family="Helvetica,sans-Serif" font-size="10.00">limits.h</text>
</a>
</g>
</g>
<!-- Node9&#45;&gt;Node10 -->
<g id="edge9_Node000009_Node000010" class="edge">
<title>Node9&#45;&gt;Node10</title>
<g id="a_edge9_Node000009_Node000010"><a xlink:title=" ">
<path fill="none" stroke="#63b8ff" d="M110.42,-55.08C109.81,-48.49 108.93,-39.21 108.15,-30.82"/>
<polygon fill="#63b8ff" stroke="#63b8ff" points="111.65,-30.75 107.24,-21.12 104.69,-31.4 111.65,-30.75"/>
</a>
</g>
</g>
<!-- Node11&#45;&gt;Node3 -->
<g id="edge13_Node000011_Node000003" class="edge">
<title>Node11&#45;&gt;Node3</title>
<g id="a_edge13_Node000011_Node000003"><a xlink:title=" ">
<path fill="none" stroke="#63b8ff" d="M123.33,-165.58C115.8,-158.15 104.78,-147.29 95.52,-138.16"/>
<polygon fill="#63b8ff" stroke="#63b8ff" points="98.02,-135.7 88.44,-131.17 93.1,-140.69 98.02,-135.7"/>
</a>
</g>
</g>
<!-- Node11&#45;&gt;Node6 -->
<g id="edge15_Node000011_Node000006" class="edge">
<title>Node11&#45;&gt;Node6</title>
<g id="a_edge15_Node000011_Node000006"><a xlink:title=" ">
<path fill="none" stroke="#63b8ff" d="M146.84,-165.34C159.69,-157.39 178.66,-145.64 193.82,-136.25"/>
<polygon fill="#63b8ff" stroke="#63b8ff" points="195.64,-139.24 202.3,-131 191.96,-133.29 195.64,-139.24"/>
</a>
</g>
</g>
<!-- Node11&#45;&gt;Node8 -->
<g id="edge12_Node000011_Node000008" class="edge">
<title>Node11&#45;&gt;Node8</title>
<g id="a_edge12_Node000011_Node000008"><a xlink:title=" ">
<path fill="none" stroke="#63b8ff" d="M134.45,-165.57C140.82,-140.14 159.36,-66.1 168.31,-30.37"/>
<polygon fill="#63b8ff" stroke="#63b8ff" points="171.63,-31.49 170.67,-20.94 164.84,-29.79 171.63,-31.49"/>
</a>
</g>
</g>
<!-- Node11&#45;&gt;Node9 -->
<g id="edge14_Node000011_Node000009" class="edge">
<title>Node11&#45;&gt;Node9</title>
<g id="a_edge14_Node000011_Node000009"><a xlink:title=" ">
<path fill="none" stroke="#63b8ff" d="M130.53,-165.5C127.19,-148.25 119.76,-109.83 115.16,-86.06"/>
<polygon fill="#63b8ff" stroke="#63b8ff" points="118.62,-85.52 113.28,-76.36 111.74,-86.85 118.62,-85.52"/>
</a>
</g>
</g>
<!-- Node12&#45;&gt;Node6 -->
<g id="edge17_Node000012_Node000006" class="edge">
<title>Node12&#45;&gt;Node6</title>
<g id="a_edge17_Node000012_Node000006"><a xlink:title=" ">
<path fill="none" stroke="#63b8ff" d="M202.39,-165.58C204.79,-158.84 208.21,-149.27 211.25,-140.74"/>
<polygon fill="#63b8ff" stroke="#63b8ff" points="214.47,-142.13 214.54,-131.53 207.88,-139.78 214.47,-142.13"/>
</a>
</g>
</g>
</g>
</svg>
