<?xml version="1.0" encoding="UTF-8" standalone="no"?>
<!DOCTYPE svg PUBLIC "-//W3C//DTD SVG 1.1//EN"
 "http://www.w3.org/Graphics/SVG/1.1/DTD/svg11.dtd">
<!-- Generated by graphviz version 13.1.0 (20250701.0955)
 -->
<!-- Title: lua&#45;5.4.7/ldebug.c Pages: 1 -->
<!--zoomable 525 -->

<svg id="main" version="1.1" xmlns="http://www.w3.org/2000/svg" xmlns:xlink="http://www.w3.org/1999/xlink" xml:space="preserve" onload="init(evt)">

<style type="text/css"><![CDATA[
.node, .edge {opacity: 0.7;}
.node.selected, .edge.selected {opacity: 1;}
.edge:hover path { stroke: red; }
.edge:hover polygon { stroke: red; fill: red; }
]]></style>

<defs>
  <circle id="rim" cx="0" cy="0" r="7"/>
  <circle id="rim2" cx="0" cy="0" r="3.5"/>
  <g id="zoomPlus">
    <use xlink:href="#rim" fill="#404040"><set attributeName="fill" to="#808080" begin="zoomplus.mouseover" end="zoomplus.mouseout"/></use>
    <path d="M-4,0h8M0,-4v8" fill="none" stroke="white" stroke-width="1.5" pointer-events="none"/>
  </g>
  <g id="zoomMin">
    <use xlink:href="#rim" fill="#404040"><set attributeName="fill" to="#808080" begin="zoomminus.mouseover" end="zoomminus.mouseout"/></use>
    <path d="M-4,0h8" fill="none" stroke="white" stroke-width="1.5" pointer-events="none"/>
  </g>
  <g id="arrowUp" transform="translate(30 24)">
    <use xlink:href="#rim"/>
    <path pointer-events="none" fill="none" stroke="white" stroke-width="1.5" d="M0,-3.0v7 M-2.5,-0.5L0,-3.0L2.5,-0.5"/>
  </g>
  <g id="arrowRight" transform="rotate(90) translate(36 -43)">
    <use xlink:href="#rim"/>
    <path pointer-events="none" fill="none" stroke="white" stroke-width="1.5" d="M0,-3.0v7 M-2.5,-0.5L0,-3.0L2.5,-0.5"/>
  </g>
  <g id="arrowDown" transform="rotate(180) translate(-30 -48)">
    <use xlink:href="#rim"/>
    <path pointer-events="none" fill="none" stroke="white" stroke-width="1.5" d="M0,-3.0v7 M-2.5,-0.5L0,-3.0L2.5,-0.5"/>
  </g>
  <g id="arrowLeft" transform="rotate(270) translate(-36 17)">
    <use xlink:href="#rim"/>
    <path pointer-events="none" fill="none" stroke="white" stroke-width="1.5" d="M0,-3.0v7 M-2.5,-0.5L0,-3.0L2.5,-0.5"/>
  </g>
  <g id="resetDef">
    <use xlink:href="#rim2" fill="#404040"><set attributeName="fill" to="#808080" begin="reset.mouseover" end="reset.mouseout"/></use>
  </g>
</defs>
<script type="application/ecmascript">
var viewWidth = 1068;
var viewHeight = 525;
var sectionId = 'dynsection-0';
</script>
<script type="application/ecmascript" xlink:href="svg.min.js"/>
<svg id="graph" class="graph">
<g id="viewport">
<title>lua&#45;5.4.7/ldebug.c</title>
<!-- Node1 -->
<g id="Node000001" class="node">
<title>Node1</title>
<g id="a_Node000001"><a xlink:title=" ">
<polygon fill="#999999" stroke="#666666" points="431.88,-516.5 338.62,-516.5 338.62,-497.25 431.88,-497.25 431.88,-516.5"/>
<text xml:space="preserve" text-anchor="middle" x="385.25" y="-503" font-family="Helvetica,sans-Serif" font-size="10.00">lua&#45;5.4.7/ldebug.c</text>
</a>
</g>
</g>
<!-- Node2 -->
<g id="Node000002" class="node">
<title>Node2</title>
<g id="a_Node000002"><a xlink:href="lprefix_8h.html" target="_top" xlink:title=" ">
<polygon fill="white" stroke="#666666" points="50.5,-461.25 0,-461.25 0,-442 50.5,-442 50.5,-461.25"/>
<text xml:space="preserve" text-anchor="middle" x="25.25" y="-447.75" font-family="Helvetica,sans-Serif" font-size="10.00">lprefix.h</text>
</a>
</g>
</g>
<!-- Node1&#45;&gt;Node2 -->
<g id="edge1_Node000001_Node000002" class="edge">
<title>Node1&#45;&gt;Node2</title>
<g id="a_edge1_Node000001_Node000002"><a xlink:title=" ">
<path fill="none" stroke="#63b8ff" d="M338.28,-500.53C275.58,-493.13 161.16,-478.67 64.25,-461.25 63.43,-461.1 62.6,-460.95 61.77,-460.79"/>
<polygon fill="#63b8ff" stroke="#63b8ff" points="62.76,-457.42 52.27,-458.88 61.38,-464.29 62.76,-457.42"/>
</a>
</g>
</g>
<!-- Node3 -->
<g id="Node000003" class="node">
<title>Node3</title>
<g id="a_Node000003"><a xlink:title=" ">
<polygon fill="#e0e0e0" stroke="#999999" points="179.88,-74.5 128.62,-74.5 128.62,-55.25 179.88,-55.25 179.88,-74.5"/>
<text xml:space="preserve" text-anchor="middle" x="154.25" y="-61" font-family="Helvetica,sans-Serif" font-size="10.00">stdarg.h</text>
</a>
</g>
</g>
<!-- Node1&#45;&gt;Node3 -->
<g id="edge2_Node000001_Node000003" class="edge">
<title>Node1&#45;&gt;Node3</title>
<g id="a_edge2_Node000001_Node000003"><a xlink:title=" ">
<path fill="none" stroke="#63b8ff" d="M338.21,-501.1C298.02,-495.61 239.54,-484.21 193.25,-461.25 153.42,-441.49 116.25,-441.84 116.25,-397.38 116.25,-397.38 116.25,-397.38 116.25,-174.38 116.25,-141.38 132.09,-105.76 143.32,-84.66"/>
<polygon fill="#63b8ff" stroke="#63b8ff" points="146.27,-86.55 148.07,-76.11 140.15,-83.15 146.27,-86.55"/>
</a>
</g>
</g>
<!-- Node4 -->
<g id="Node000004" class="node">
<title>Node4</title>
<g id="a_Node000004"><a xlink:title=" ">
<polygon fill="#e0e0e0" stroke="#999999" points="783.88,-19.25 732.62,-19.25 732.62,0 783.88,0 783.88,-19.25"/>
<text xml:space="preserve" text-anchor="middle" x="758.25" y="-5.75" font-family="Helvetica,sans-Serif" font-size="10.00">stddef.h</text>
</a>
</g>
</g>
<!-- Node1&#45;&gt;Node4 -->
<g id="edge3_Node000001_Node000004" class="edge">
<title>Node1&#45;&gt;Node4</title>
<g id="a_edge3_Node000001_Node000004"><a xlink:title=" ">
<path fill="none" stroke="#63b8ff" d="M338.5,-505.27C287.75,-502.85 205.6,-493.67 143.25,-461.25 107.31,-442.56 78.25,-437.88 78.25,-397.38 78.25,-397.38 78.25,-397.38 78.25,-119.12 78.25,-85.39 90.23,-72.45 119.25,-55.25 171.03,-24.57 592.22,-13.87 720.99,-11.29"/>
<polygon fill="#63b8ff" stroke="#63b8ff" points="720.73,-14.8 730.66,-11.11 720.59,-7.8 720.73,-14.8"/>
</a>
</g>
</g>
<!-- Node5 -->
<g id="Node000005" class="node">
<title>Node5</title>
<g id="a_Node000005"><a xlink:title=" ">
<polygon fill="#e0e0e0" stroke="#999999" points="947.38,-461.25 899.12,-461.25 899.12,-442 947.38,-442 947.38,-461.25"/>
<text xml:space="preserve" text-anchor="middle" x="923.25" y="-447.75" font-family="Helvetica,sans-Serif" font-size="10.00">string.h</text>
</a>
</g>
</g>
<!-- Node1&#45;&gt;Node5 -->
<g id="edge4_Node000001_Node000005" class="edge">
<title>Node1&#45;&gt;Node5</title>
<g id="a_edge4_Node000001_Node000005"><a xlink:title=" ">
<path fill="none" stroke="#63b8ff" d="M432.04,-503.8C520.84,-499.39 719.74,-487.3 885.25,-461.25 886.08,-461.12 886.91,-460.98 887.75,-460.84"/>
<polygon fill="#63b8ff" stroke="#63b8ff" points="888.18,-464.32 897.33,-458.97 886.84,-457.45 888.18,-464.32"/>
</a>
</g>
</g>
<!-- Node6 -->
<g id="Node000006" class="node">
<title>Node6</title>
<g id="a_Node000006"><a xlink:href="lua_8h.html" target="_top" xlink:title=" ">
<polygon fill="white" stroke="#666666" points="720.75,-129.75 683.75,-129.75 683.75,-110.5 720.75,-110.5 720.75,-129.75"/>
<text xml:space="preserve" text-anchor="middle" x="702.25" y="-116.25" font-family="Helvetica,sans-Serif" font-size="10.00">lua.h</text>
</a>
</g>
</g>
<!-- Node1&#45;&gt;Node6 -->
<g id="edge5_Node000001_Node000006" class="edge">
<title>Node1&#45;&gt;Node6</title>
<g id="a_edge5_Node000001_Node000006"><a xlink:title=" ">
<path fill="none" stroke="#63b8ff" d="M338.31,-499.23C293.79,-491.97 231.24,-478.96 214.25,-461.25 156.96,-401.54 144,-342.75 193.25,-276.25 252.43,-196.35 571.94,-141.14 672.16,-125.59"/>
<polygon fill="#63b8ff" stroke="#63b8ff" points="672.41,-129.09 681.77,-124.12 671.36,-122.18 672.41,-129.09"/>
</a>
</g>
</g>
<!-- Node9 -->
<g id="Node000009" class="node">
<title>Node9</title>
<g id="a_Node000009"><a xlink:href="lapi_8h.html" target="_top" xlink:title=" ">
<polygon fill="white" stroke="#666666" points="739.88,-406 700.62,-406 700.62,-386.75 739.88,-386.75 739.88,-406"/>
<text xml:space="preserve" text-anchor="middle" x="720.25" y="-392.5" font-family="Helvetica,sans-Serif" font-size="10.00">lapi.h</text>
</a>
</g>
</g>
<!-- Node1&#45;&gt;Node9 -->
<g id="edge11_Node000001_Node000009" class="edge">
<title>Node1&#45;&gt;Node9</title>
<g id="a_edge11_Node000001_Node000009"><a xlink:title=" ">
<path fill="none" stroke="#63b8ff" d="M432.12,-500.71C477.67,-494.71 548.26,-482.75 606.25,-461.25 639.86,-448.79 675.4,-427.39 697.69,-412.82"/>
<polygon fill="#63b8ff" stroke="#63b8ff" points="699.58,-415.77 705.96,-407.31 695.7,-409.94 699.58,-415.77"/>
</a>
</g>
</g>
<!-- Node11 -->
<g id="Node000011" class="node">
<title>Node11</title>
<g id="a_Node000011"><a xlink:href="lstate_8h.html" target="_top" xlink:title=" ">
<polygon fill="white" stroke="#666666" points="562.38,-350.75 514.12,-350.75 514.12,-331.5 562.38,-331.5 562.38,-350.75"/>
<text xml:space="preserve" text-anchor="middle" x="538.25" y="-337.25" font-family="Helvetica,sans-Serif" font-size="10.00">lstate.h</text>
</a>
</g>
</g>
<!-- Node1&#45;&gt;Node11 -->
<g id="edge54_Node000001_Node000011" class="edge">
<title>Node1&#45;&gt;Node11</title>
<g id="a_edge54_Node000001_Node000011"><a xlink:title=" ">
<path fill="none" stroke="#63b8ff" d="M432.2,-498.95C473.74,-491.75 529.79,-479.04 543.25,-461.25 565.14,-432.32 554.72,-387.18 545.96,-361.57"/>
<polygon fill="#63b8ff" stroke="#63b8ff" points="549.34,-360.61 542.59,-352.44 542.77,-363.03 549.34,-360.61"/>
</a>
</g>
</g>
<!-- Node12 -->
<g id="Node000012" class="node">
<title>Node12</title>
<g id="a_Node000012"><a xlink:href="lobject_8h.html" target="_top" xlink:title=" ">
<polygon fill="white" stroke="#666666" points="510.62,-240.25 457.88,-240.25 457.88,-221 510.62,-221 510.62,-240.25"/>
<text xml:space="preserve" text-anchor="middle" x="484.25" y="-226.75" font-family="Helvetica,sans-Serif" font-size="10.00">lobject.h</text>
</a>
</g>
</g>
<!-- Node1&#45;&gt;Node12 -->
<g id="edge52_Node000001_Node000012" class="edge">
<title>Node1&#45;&gt;Node12</title>
<g id="a_edge52_Node000001_Node000012"><a xlink:title=" ">
<path fill="none" stroke="#63b8ff" d="M372.2,-496.79C349.77,-479.97 306.25,-441.65 306.25,-397.38 306.25,-397.38 306.25,-397.38 306.25,-340.12 306.25,-310.51 304.15,-297.03 325.25,-276.25 357.46,-244.53 410.31,-234.96 446.16,-232.28"/>
<polygon fill="#63b8ff" stroke="#63b8ff" points="446.32,-235.78 456.1,-231.7 445.91,-228.79 446.32,-235.78"/>
</a>
</g>
</g>
<!-- Node13 -->
<g id="Node000013" class="node">
<title>Node13</title>
<g id="a_Node000013"><a xlink:href="ltm_8h.html" target="_top" xlink:title=" ">
<polygon fill="white" stroke="#666666" points="240.12,-295.5 202.38,-295.5 202.38,-276.25 240.12,-276.25 240.12,-295.5"/>
<text xml:space="preserve" text-anchor="middle" x="221.25" y="-282" font-family="Helvetica,sans-Serif" font-size="10.00">ltm.h</text>
</a>
</g>
</g>
<!-- Node1&#45;&gt;Node13 -->
<g id="edge63_Node000001_Node000013" class="edge">
<title>Node1&#45;&gt;Node13</title>
<g id="a_edge63_Node000001_Node000013"><a xlink:title=" ">
<path fill="none" stroke="#63b8ff" d="M338.28,-498.59C297.47,-491.2 242.83,-478.43 229.25,-461.25 193.44,-415.96 206.5,-341.49 215.53,-306.37"/>
<polygon fill="#63b8ff" stroke="#63b8ff" points="218.78,-307.73 218.06,-297.15 212.03,-305.87 218.78,-307.73"/>
</a>
</g>
</g>
<!-- Node17 -->
<g id="Node000017" class="node">
<title>Node17</title>
<g id="a_Node000017"><a xlink:href="lcode_8h.html" target="_top" xlink:title=" ">
<polygon fill="white" stroke="#666666" points="843,-406 795.5,-406 795.5,-386.75 843,-386.75 843,-406"/>
<text xml:space="preserve" text-anchor="middle" x="819.25" y="-392.5" font-family="Helvetica,sans-Serif" font-size="10.00">lcode.h</text>
</a>
</g>
</g>
<!-- Node1&#45;&gt;Node17 -->
<g id="edge31_Node000001_Node000017" class="edge">
<title>Node1&#45;&gt;Node17</title>
<g id="a_edge31_Node000001_Node000017"><a xlink:title=" ">
<path fill="none" stroke="#63b8ff" d="M432.3,-500.08C483.86,-493.16 568.76,-480.11 640.25,-461.25 692.64,-447.42 751.48,-425.05 786.93,-410.79"/>
<polygon fill="#63b8ff" stroke="#63b8ff" points="788.23,-414.04 796.18,-407.03 785.6,-407.55 788.23,-414.04"/>
</a>
</g>
</g>
<!-- Node19 -->
<g id="Node000019" class="node">
<title>Node19</title>
<g id="a_Node000019"><a xlink:href="lopcodes_8h.html" target="_top" xlink:title=" ">
<polygon fill="white" stroke="#666666" points="1059.88,-350.75 996.62,-350.75 996.62,-331.5 1059.88,-331.5 1059.88,-350.75"/>
<text xml:space="preserve" text-anchor="middle" x="1028.25" y="-337.25" font-family="Helvetica,sans-Serif" font-size="10.00">lopcodes.h</text>
</a>
</g>
</g>
<!-- Node1&#45;&gt;Node19 -->
<g id="edge53_Node000001_Node000019" class="edge">
<title>Node1&#45;&gt;Node19</title>
<g id="a_edge53_Node000001_Node000019"><a xlink:title=" ">
<path fill="none" stroke="#63b8ff" d="M432.33,-501.35C491.63,-495.07 596.41,-482.09 684.25,-461.25 760.73,-443.11 777.97,-431.69 852.25,-406 901.32,-389.03 957.66,-368.37 993.11,-355.23"/>
<polygon fill="#63b8ff" stroke="#63b8ff" points="994.27,-358.54 1002.43,-351.77 991.84,-351.97 994.27,-358.54"/>
</a>
</g>
</g>
<!-- Node21 -->
<g id="Node000021" class="node">
<title>Node21</title>
<g id="a_Node000021"><a xlink:href="ldebug_8h.html" target="_top" xlink:title=" ">
<polygon fill="white" stroke="#666666" points="465.62,-461.25 412.88,-461.25 412.88,-442 465.62,-442 465.62,-461.25"/>
<text xml:space="preserve" text-anchor="middle" x="439.25" y="-447.75" font-family="Helvetica,sans-Serif" font-size="10.00">ldebug.h</text>
</a>
</g>
</g>
<!-- Node1&#45;&gt;Node21 -->
<g id="edge43_Node000001_Node000021" class="edge">
<title>Node1&#45;&gt;Node21</title>
<g id="a_edge43_Node000001_Node000021"><a xlink:title=" ">
<path fill="none" stroke="#63b8ff" d="M394.17,-497.08C401.7,-489.65 412.72,-478.79 421.98,-469.66"/>
<polygon fill="#63b8ff" stroke="#63b8ff" points="424.4,-472.19 429.06,-462.67 419.48,-467.2 424.4,-472.19"/>
</a>
</g>
</g>
<!-- Node22 -->
<g id="Node000022" class="node">
<title>Node22</title>
<g id="a_Node000022"><a xlink:href="ldo_8h.html" target="_top" xlink:title=" ">
<polygon fill="white" stroke="#666666" points="682.75,-406 645.75,-406 645.75,-386.75 682.75,-386.75 682.75,-406"/>
<text xml:space="preserve" text-anchor="middle" x="664.25" y="-392.5" font-family="Helvetica,sans-Serif" font-size="10.00">ldo.h</text>
</a>
</g>
</g>
<!-- Node1&#45;&gt;Node22 -->
<g id="edge45_Node000001_Node000022" class="edge">
<title>Node1&#45;&gt;Node22</title>
<g id="a_edge45_Node000001_Node000022"><a xlink:title=" ">
<path fill="none" stroke="#63b8ff" d="M432.08,-500.24C471.82,-494.23 529.64,-482.55 576.25,-461.25 602.76,-449.13 629.31,-428.4 646.2,-413.84"/>
<polygon fill="#63b8ff" stroke="#63b8ff" points="648.21,-416.73 653.39,-407.49 643.58,-411.49 648.21,-416.73"/>
</a>
</g>
</g>
<!-- Node23 -->
<g id="Node000023" class="node">
<title>Node23</title>
<g id="a_Node000023"><a xlink:href="lfunc_8h.html" target="_top" xlink:title=" ">
<polygon fill="white" stroke="#666666" points="379.88,-295.5 334.62,-295.5 334.62,-276.25 379.88,-276.25 379.88,-295.5"/>
<text xml:space="preserve" text-anchor="middle" x="357.25" y="-282" font-family="Helvetica,sans-Serif" font-size="10.00">lfunc.h</text>
</a>
</g>
</g>
<!-- Node1&#45;&gt;Node23 -->
<g id="edge50_Node000001_Node000023" class="edge">
<title>Node1&#45;&gt;Node23</title>
<g id="a_edge50_Node000001_Node000023"><a xlink:title=" ">
<path fill="none" stroke="#63b8ff" d="M382.74,-496.88C378,-479.48 367.81,-439.96 363.25,-406 358.62,-371.54 357.48,-331.04 357.25,-307.24"/>
<polygon fill="#63b8ff" stroke="#63b8ff" points="360.75,-307.38 357.2,-297.4 353.75,-307.42 360.75,-307.38"/>
</a>
</g>
</g>
<!-- Node24 -->
<g id="Node000024" class="node">
<title>Node24</title>
<g id="a_Node000024"><a xlink:href="lstring_8h.html" target="_top" xlink:title=" ">
<polygon fill="white" stroke="#666666" points="534.5,-461.25 484,-461.25 484,-442 534.5,-442 534.5,-461.25"/>
<text xml:space="preserve" text-anchor="middle" x="509.25" y="-447.75" font-family="Helvetica,sans-Serif" font-size="10.00">lstring.h</text>
</a>
</g>
</g>
<!-- Node1&#45;&gt;Node24 -->
<g id="edge55_Node000001_Node000024" class="edge">
<title>Node1&#45;&gt;Node24</title>
<g id="a_edge55_Node000001_Node000024"><a xlink:title=" ">
<path fill="none" stroke="#63b8ff" d="M406.28,-496.84C425.88,-488.43 455.36,-475.77 477.76,-466.15"/>
<polygon fill="#63b8ff" stroke="#63b8ff" points="478.91,-469.46 486.72,-462.3 476.15,-463.03 478.91,-469.46"/>
</a>
</g>
</g>
<!-- Node26 -->
<g id="Node000026" class="node">
<title>Node26</title>
<g id="a_Node000026"><a xlink:href="ltable_8h.html" target="_top" xlink:title=" ">
<polygon fill="white" stroke="#666666" points="420,-406 372.5,-406 372.5,-386.75 420,-386.75 420,-406"/>
<text xml:space="preserve" text-anchor="middle" x="396.25" y="-392.5" font-family="Helvetica,sans-Serif" font-size="10.00">ltable.h</text>
</a>
</g>
</g>
<!-- Node1&#45;&gt;Node26 -->
<g id="edge61_Node000001_Node000026" class="edge">
<title>Node1&#45;&gt;Node26</title>
<g id="a_edge61_Node000001_Node000026"><a xlink:title=" ">
<path fill="none" stroke="#63b8ff" d="M386.15,-497C387.9,-479.75 391.79,-441.33 394.2,-417.56"/>
<polygon fill="#63b8ff" stroke="#63b8ff" points="397.66,-418.18 395.18,-407.88 390.69,-417.48 397.66,-418.18"/>
</a>
</g>
</g>
<!-- Node27 -->
<g id="Node000027" class="node">
<title>Node27</title>
<g id="a_Node000027"><a xlink:href="lvm_8h.html" target="_top" xlink:title=" ">
<polygon fill="white" stroke="#666666" points="278.25,-461.25 238.25,-461.25 238.25,-442 278.25,-442 278.25,-461.25"/>
<text xml:space="preserve" text-anchor="middle" x="258.25" y="-447.75" font-family="Helvetica,sans-Serif" font-size="10.00">lvm.h</text>
</a>
</g>
</g>
<!-- Node1&#45;&gt;Node27 -->
<g id="edge64_Node000001_Node000027" class="edge">
<title>Node1&#45;&gt;Node27</title>
<g id="a_edge64_Node000001_Node000027"><a xlink:title=" ">
<path fill="none" stroke="#63b8ff" d="M363.71,-496.84C343.18,-488.23 312.06,-475.19 288.95,-465.5"/>
<polygon fill="#63b8ff" stroke="#63b8ff" points="290.61,-462.4 280.03,-461.76 287.9,-468.85 290.61,-462.4"/>
</a>
</g>
</g>
<!-- Node6&#45;&gt;Node3 -->
<g id="edge6_Node000006_Node000003" class="edge">
<title>Node6&#45;&gt;Node3</title>
<g id="a_edge6_Node000006_Node000003"><a xlink:title=" ">
<path fill="none" stroke="#63b8ff" d="M683.39,-117.29C604.29,-109.61 298.56,-79.9 191.52,-69.5"/>
<polygon fill="#63b8ff" stroke="#63b8ff" points="192.14,-66.04 181.85,-68.56 191.46,-73.01 192.14,-66.04"/>
</a>
</g>
</g>
<!-- Node6&#45;&gt;Node4 -->
<g id="edge7_Node000006_Node000004" class="edge">
<title>Node6&#45;&gt;Node4</title>
<g id="a_edge7_Node000006_Node000004"><a xlink:title=" ">
<path fill="none" stroke="#63b8ff" d="M703.76,-110.01C706.15,-97.2 711.55,-73.41 721.25,-55.25 726.5,-45.42 734.13,-35.75 741.09,-27.94"/>
<polygon fill="#63b8ff" stroke="#63b8ff" points="743.47,-30.52 747.75,-20.83 738.36,-25.73 743.47,-30.52"/>
</a>
</g>
</g>
<!-- Node7 -->
<g id="Node000007" class="node">
<title>Node7</title>
<g id="a_Node000007"><a xlink:href="luaconf_8h.html" target="_top" xlink:title=" ">
<polygon fill="white" stroke="#666666" points="786.12,-74.5 730.38,-74.5 730.38,-55.25 786.12,-55.25 786.12,-74.5"/>
<text xml:space="preserve" text-anchor="middle" x="758.25" y="-61" font-family="Helvetica,sans-Serif" font-size="10.00">luaconf.h</text>
</a>
</g>
</g>
<!-- Node6&#45;&gt;Node7 -->
<g id="edge8_Node000006_Node000007" class="edge">
<title>Node6&#45;&gt;Node7</title>
<g id="a_edge8_Node000006_Node000007"><a xlink:title=" ">
<path fill="none" stroke="#63b8ff" d="M711.75,-110.09C719.68,-102.55 731.2,-91.6 740.79,-82.48"/>
<polygon fill="#63b8ff" stroke="#63b8ff" points="742.96,-85.24 747.79,-75.82 738.14,-80.17 742.96,-85.24"/>
</a>
</g>
</g>
<!-- Node7&#45;&gt;Node4 -->
<g id="edge10_Node000007_Node000004" class="edge">
<title>Node7&#45;&gt;Node4</title>
<g id="a_edge10_Node000007_Node000004"><a xlink:title=" ">
<path fill="none" stroke="#63b8ff" d="M758.25,-55.08C758.25,-48.57 758.25,-39.42 758.25,-31.12"/>
<polygon fill="#63b8ff" stroke="#63b8ff" points="761.75,-31.12 758.25,-21.12 754.75,-31.12 761.75,-31.12"/>
</a>
</g>
</g>
<!-- Node8 -->
<g id="Node000008" class="node">
<title>Node8</title>
<g id="a_Node000008"><a xlink:title=" ">
<polygon fill="#e0e0e0" stroke="#999999" points="914,-19.25 866.5,-19.25 866.5,0 914,0 914,-19.25"/>
<text xml:space="preserve" text-anchor="middle" x="890.25" y="-5.75" font-family="Helvetica,sans-Serif" font-size="10.00">limits.h</text>
</a>
</g>
</g>
<!-- Node7&#45;&gt;Node8 -->
<g id="edge9_Node000007_Node000008" class="edge">
<title>Node7&#45;&gt;Node8</title>
<g id="a_edge9_Node000007_Node000008"><a xlink:title=" ">
<path fill="none" stroke="#63b8ff" d="M780.64,-54.84C801.69,-46.35 833.45,-33.54 857.37,-23.89"/>
<polygon fill="#63b8ff" stroke="#63b8ff" points="858.38,-27.26 866.34,-20.27 855.76,-20.76 858.38,-27.26"/>
</a>
</g>
</g>
<!-- Node10 -->
<g id="Node000010" class="node">
<title>Node10</title>
<g id="a_Node000010"><a xlink:href="llimits_8h.html" target="_top" xlink:title=" ">
<polygon fill="white" stroke="#666666" points="892.12,-185 842.38,-185 842.38,-165.75 892.12,-165.75 892.12,-185"/>
<text xml:space="preserve" text-anchor="middle" x="867.25" y="-171.5" font-family="Helvetica,sans-Serif" font-size="10.00">llimits.h</text>
</a>
</g>
</g>
<!-- Node9&#45;&gt;Node10 -->
<g id="edge12_Node000009_Node000010" class="edge">
<title>Node9&#45;&gt;Node10</title>
<g id="a_edge12_Node000009_Node000010"><a xlink:title=" ">
<path fill="none" stroke="#63b8ff" d="M740.17,-393.22C781.36,-388.32 873.61,-374.84 892.25,-350.75 928.22,-304.26 896.09,-229.29 877.84,-194.81"/>
<polygon fill="#63b8ff" stroke="#63b8ff" points="881.12,-193.52 873.23,-186.45 874.99,-196.89 881.12,-193.52"/>
</a>
</g>
</g>
<!-- Node9&#45;&gt;Node11 -->
<g id="edge16_Node000009_Node000011" class="edge">
<title>Node9&#45;&gt;Node11</title>
<g id="a_edge16_Node000009_Node000011"><a xlink:title=" ">
<path fill="none" stroke="#63b8ff" d="M700.38,-389.21C697.65,-388.38 694.88,-387.54 692.25,-386.75 651.63,-374.61 604.84,-361.12 573.59,-352.18"/>
<polygon fill="#63b8ff" stroke="#63b8ff" points="574.86,-348.91 564.28,-349.52 572.93,-355.64 574.86,-348.91"/>
</a>
</g>
</g>
<!-- Node10&#45;&gt;Node4 -->
<g id="edge14_Node000010_Node000004" class="edge">
<title>Node10&#45;&gt;Node4</title>
<g id="a_edge14_Node000010_Node000004"><a xlink:title=" ">
<path fill="none" stroke="#63b8ff" d="M866.37,-165.35C863.9,-144.07 855.2,-89.98 828.25,-55.25 818.25,-42.36 803.42,-32.15 789.97,-24.77"/>
<polygon fill="#63b8ff" stroke="#63b8ff" points="791.91,-21.82 781.41,-20.36 788.71,-28.05 791.91,-21.82"/>
</a>
</g>
</g>
<!-- Node10&#45;&gt;Node6 -->
<g id="edge15_Node000010_Node000006" class="edge">
<title>Node10&#45;&gt;Node6</title>
<g id="a_edge15_Node000010_Node000006"><a xlink:title=" ">
<path fill="none" stroke="#63b8ff" d="M842.19,-166.29C812.48,-156.7 763.05,-140.75 731.58,-130.59"/>
<polygon fill="#63b8ff" stroke="#63b8ff" points="732.91,-127.34 722.31,-127.6 730.76,-134 732.91,-127.34"/>
</a>
</g>
</g>
<!-- Node10&#45;&gt;Node8 -->
<g id="edge13_Node000010_Node000008" class="edge">
<title>Node10&#45;&gt;Node8</title>
<g id="a_edge13_Node000010_Node000008"><a xlink:title=" ">
<path fill="none" stroke="#63b8ff" d="M868.49,-165.57C872.04,-140.25 882.37,-66.75 887.41,-30.84"/>
<polygon fill="#63b8ff" stroke="#63b8ff" points="890.87,-31.36 888.8,-20.97 883.94,-30.39 890.87,-31.36"/>
</a>
</g>
</g>
<!-- Node11&#45;&gt;Node6 -->
<g id="edge17_Node000011_Node000006" class="edge">
<title>Node11&#45;&gt;Node6</title>
<g id="a_edge17_Node000011_Node000006"><a xlink:title=" ">
<path fill="none" stroke="#63b8ff" d="M544.88,-331.27C569.46,-298.45 655.61,-183.41 688.94,-138.9"/>
<polygon fill="#63b8ff" stroke="#63b8ff" points="691.62,-141.17 694.81,-131.06 686.01,-136.97 691.62,-141.17"/>
</a>
</g>
</g>
<!-- Node11&#45;&gt;Node12 -->
<g id="edge18_Node000011_Node000012" class="edge">
<title>Node11&#45;&gt;Node12</title>
<g id="a_edge18_Node000011_Node000012"><a xlink:title=" ">
<path fill="none" stroke="#63b8ff" d="M529.63,-331.26C521.76,-322.73 510.3,-309.14 503.25,-295.5 496.08,-281.64 491.19,-264.65 488.17,-251.68"/>
<polygon fill="#63b8ff" stroke="#63b8ff" points="491.66,-251.24 486.15,-242.19 484.81,-252.7 491.66,-251.24"/>
</a>
</g>
</g>
<!-- Node11&#45;&gt;Node13 -->
<g id="edge22_Node000011_Node000013" class="edge">
<title>Node11&#45;&gt;Node13</title>
<g id="a_edge22_Node000011_Node000013"><a xlink:title=" ">
<path fill="none" stroke="#63b8ff" d="M513.64,-335.99C456.24,-326.35 313.66,-302.4 251.28,-291.92"/>
<polygon fill="#63b8ff" stroke="#63b8ff" points="252.2,-288.52 241.75,-290.32 251.04,-295.43 252.2,-288.52"/>
</a>
</g>
</g>
<!-- Node14 -->
<g id="Node000014" class="node">
<title>Node14</title>
<g id="a_Node000014"><a xlink:href="lzio_8h.html" target="_top" xlink:title=" ">
<polygon fill="white" stroke="#666666" points="809.88,-295.5 770.62,-295.5 770.62,-276.25 809.88,-276.25 809.88,-295.5"/>
<text xml:space="preserve" text-anchor="middle" x="790.25" y="-282" font-family="Helvetica,sans-Serif" font-size="10.00">lzio.h</text>
</a>
</g>
</g>
<!-- Node11&#45;&gt;Node14 -->
<g id="edge24_Node000011_Node000014" class="edge">
<title>Node11&#45;&gt;Node14</title>
<g id="a_edge24_Node000011_Node000014"><a xlink:title=" ">
<path fill="none" stroke="#63b8ff" d="M562.87,-334.92C608.96,-325.18 708.19,-304.22 758.95,-293.49"/>
<polygon fill="#63b8ff" stroke="#63b8ff" points="759.63,-296.92 768.69,-291.43 758.18,-290.07 759.63,-296.92"/>
</a>
</g>
</g>
<!-- Node16 -->
<g id="Node000016" class="node">
<title>Node16</title>
<g id="a_Node000016"><a xlink:title=" ">
<polygon fill="#e0e0e0" stroke="#999999" points="562.12,-295.5 512.38,-295.5 512.38,-276.25 562.12,-276.25 562.12,-295.5"/>
<text xml:space="preserve" text-anchor="middle" x="537.25" y="-282" font-family="Helvetica,sans-Serif" font-size="10.00">signal.h</text>
</a>
</g>
</g>
<!-- Node11&#45;&gt;Node16 -->
<g id="edge30_Node000011_Node000016" class="edge">
<title>Node11&#45;&gt;Node16</title>
<g id="a_edge30_Node000011_Node000016"><a xlink:title=" ">
<path fill="none" stroke="#63b8ff" d="M538.08,-331.33C537.96,-324.82 537.79,-315.67 537.63,-307.37"/>
<polygon fill="#63b8ff" stroke="#63b8ff" points="541.13,-307.3 537.45,-297.37 534.14,-307.44 541.13,-307.3"/>
</a>
</g>
</g>
<!-- Node12&#45;&gt;Node3 -->
<g id="edge19_Node000012_Node000003" class="edge">
<title>Node12&#45;&gt;Node3</title>
<g id="a_edge19_Node000012_Node000003"><a xlink:title=" ">
<path fill="none" stroke="#63b8ff" d="M466.04,-220.59C411.38,-193.47 248.49,-112.64 182.49,-79.89"/>
<polygon fill="#63b8ff" stroke="#63b8ff" points="184.28,-76.87 173.76,-75.56 181.16,-83.14 184.28,-76.87"/>
</a>
</g>
</g>
<!-- Node12&#45;&gt;Node6 -->
<g id="edge21_Node000012_Node000006" class="edge">
<title>Node12&#45;&gt;Node6</title>
<g id="a_edge21_Node000012_Node000006"><a xlink:title=" ">
<path fill="none" stroke="#63b8ff" d="M502.46,-220.56C540.45,-201.65 628.39,-157.89 673.87,-135.25"/>
<polygon fill="#63b8ff" stroke="#63b8ff" points="675.19,-138.5 682.58,-130.91 672.07,-132.24 675.19,-138.5"/>
</a>
</g>
</g>
<!-- Node12&#45;&gt;Node10 -->
<g id="edge20_Node000012_Node000010" class="edge">
<title>Node12&#45;&gt;Node10</title>
<g id="a_edge20_Node000012_Node000010"><a xlink:title=" ">
<path fill="none" stroke="#63b8ff" d="M510.88,-225.92C578.03,-216.59 754.34,-192.07 830.9,-181.43"/>
<polygon fill="#63b8ff" stroke="#63b8ff" points="831.38,-184.9 840.8,-180.05 830.42,-177.96 831.38,-184.9"/>
</a>
</g>
</g>
<!-- Node13&#45;&gt;Node12 -->
<g id="edge23_Node000013_Node000012" class="edge">
<title>Node13&#45;&gt;Node12</title>
<g id="a_edge23_Node000013_Node000012"><a xlink:title=" ">
<path fill="none" stroke="#63b8ff" d="M240.39,-279.65C244.92,-278.48 249.75,-277.27 254.25,-276.25 321.57,-260.94 400.72,-246.31 446.43,-238.2"/>
<polygon fill="#63b8ff" stroke="#63b8ff" points="446.84,-241.68 456.08,-236.49 445.63,-234.78 446.84,-241.68"/>
</a>
</g>
</g>
<!-- Node14&#45;&gt;Node6 -->
<g id="edge25_Node000014_Node000006" class="edge">
<title>Node14&#45;&gt;Node6</title>
<g id="a_edge25_Node000014_Node000006"><a xlink:title=" ">
<path fill="none" stroke="#63b8ff" d="M782.85,-276.02C775.76,-267.28 765.01,-253.35 757.25,-240.25 737.39,-206.71 719.51,-164.8 709.83,-140.68"/>
<polygon fill="#63b8ff" stroke="#63b8ff" points="713.14,-139.53 706.22,-131.51 706.63,-142.1 713.14,-139.53"/>
</a>
</g>
</g>
<!-- Node15 -->
<g id="Node000015" class="node">
<title>Node15</title>
<g id="a_Node000015"><a xlink:href="lmem_8h.html" target="_top" xlink:title=" ">
<polygon fill="white" stroke="#666666" points="814.38,-240.25 766.12,-240.25 766.12,-221 814.38,-221 814.38,-240.25"/>
<text xml:space="preserve" text-anchor="middle" x="790.25" y="-226.75" font-family="Helvetica,sans-Serif" font-size="10.00">lmem.h</text>
</a>
</g>
</g>
<!-- Node14&#45;&gt;Node15 -->
<g id="edge26_Node000014_Node000015" class="edge">
<title>Node14&#45;&gt;Node15</title>
<g id="a_edge26_Node000014_Node000015"><a xlink:title=" ">
<path fill="none" stroke="#63b8ff" d="M790.25,-276.08C790.25,-269.57 790.25,-260.42 790.25,-252.12"/>
<polygon fill="#63b8ff" stroke="#63b8ff" points="793.75,-252.12 790.25,-242.12 786.75,-252.12 793.75,-252.12"/>
</a>
</g>
</g>
<!-- Node15&#45;&gt;Node4 -->
<g id="edge27_Node000015_Node000004" class="edge">
<title>Node15&#45;&gt;Node4</title>
<g id="a_edge27_Node000015_Node000004"><a xlink:title=" ">
<path fill="none" stroke="#63b8ff" d="M792.77,-220.55C799.64,-194.09 816.83,-115.08 795.25,-55.25 791.52,-44.91 784.23,-35.26 777.11,-27.61"/>
<polygon fill="#63b8ff" stroke="#63b8ff" points="779.68,-25.23 770.11,-20.68 774.75,-30.2 779.68,-25.23"/>
</a>
</g>
</g>
<!-- Node15&#45;&gt;Node6 -->
<g id="edge29_Node000015_Node000006" class="edge">
<title>Node15&#45;&gt;Node6</title>
<g id="a_edge29_Node000015_Node000006"><a xlink:title=" ">
<path fill="none" stroke="#63b8ff" d="M786.1,-220.82C779.81,-207.97 767.02,-183.67 752.25,-165.75 743.7,-155.38 732.69,-145.28 723.18,-137.33"/>
<polygon fill="#63b8ff" stroke="#63b8ff" points="725.46,-134.67 715.49,-131.1 721.06,-140.11 725.46,-134.67"/>
</a>
</g>
</g>
<!-- Node15&#45;&gt;Node10 -->
<g id="edge28_Node000015_Node000010" class="edge">
<title>Node15&#45;&gt;Node10</title>
<g id="a_edge28_Node000015_Node000010"><a xlink:title=" ">
<path fill="none" stroke="#63b8ff" d="M803.31,-220.59C814.71,-212.71 831.48,-201.11 844.99,-191.77"/>
<polygon fill="#63b8ff" stroke="#63b8ff" points="846.65,-194.88 852.88,-186.31 842.66,-189.12 846.65,-194.88"/>
</a>
</g>
</g>
<!-- Node17&#45;&gt;Node12 -->
<g id="edge36_Node000017_Node000012" class="edge">
<title>Node17&#45;&gt;Node12</title>
<g id="a_edge36_Node000017_Node000012"><a xlink:title=" ">
<path fill="none" stroke="#63b8ff" d="M805.83,-386.32C773.79,-365 689.88,-310.8 614.25,-276.25 583.96,-262.41 548.06,-250.4 521.67,-242.33"/>
<polygon fill="#63b8ff" stroke="#63b8ff" points="523.02,-239.08 512.43,-239.56 521,-245.79 523.02,-239.08"/>
</a>
</g>
</g>
<!-- Node18 -->
<g id="Node000018" class="node">
<title>Node18</title>
<g id="a_Node000018"><a xlink:href="llex_8h.html" target="_top" xlink:title=" ">
<polygon fill="white" stroke="#666666" points="978.88,-350.75 939.62,-350.75 939.62,-331.5 978.88,-331.5 978.88,-350.75"/>
<text xml:space="preserve" text-anchor="middle" x="959.25" y="-337.25" font-family="Helvetica,sans-Serif" font-size="10.00">llex.h</text>
</a>
</g>
</g>
<!-- Node17&#45;&gt;Node18 -->
<g id="edge32_Node000017_Node000018" class="edge">
<title>Node17&#45;&gt;Node18</title>
<g id="a_edge32_Node000017_Node000018"><a xlink:title=" ">
<path fill="none" stroke="#63b8ff" d="M843,-386.34C866.65,-377.35 903.04,-363.5 928.8,-353.71"/>
<polygon fill="#63b8ff" stroke="#63b8ff" points="929.95,-357.01 938.05,-350.19 927.46,-350.47 929.95,-357.01"/>
</a>
</g>
</g>
<!-- Node17&#45;&gt;Node19 -->
<g id="edge37_Node000017_Node000019" class="edge">
<title>Node17&#45;&gt;Node19</title>
<g id="a_edge37_Node000017_Node000019"><a xlink:title=" ">
<path fill="none" stroke="#63b8ff" d="M843.22,-389.27C877.87,-380.44 942.48,-363.98 985.43,-353.03"/>
<polygon fill="#63b8ff" stroke="#63b8ff" points="986.1,-356.48 994.93,-350.62 984.37,-349.69 986.1,-356.48"/>
</a>
</g>
</g>
<!-- Node20 -->
<g id="Node000020" class="node">
<title>Node20</title>
<g id="a_Node000020"><a xlink:href="lparser_8h.html" target="_top" xlink:title=" ">
<polygon fill="white" stroke="#666666" points="883.62,-350.75 830.88,-350.75 830.88,-331.5 883.62,-331.5 883.62,-350.75"/>
<text xml:space="preserve" text-anchor="middle" x="857.25" y="-337.25" font-family="Helvetica,sans-Serif" font-size="10.00">lparser.h</text>
</a>
</g>
</g>
<!-- Node17&#45;&gt;Node20 -->
<g id="edge39_Node000017_Node000020" class="edge">
<title>Node17&#45;&gt;Node20</title>
<g id="a_edge39_Node000017_Node000020"><a xlink:title=" ">
<path fill="none" stroke="#63b8ff" d="M825.52,-386.58C830.61,-379.46 837.95,-369.18 844.28,-360.3"/>
<polygon fill="#63b8ff" stroke="#63b8ff" points="847,-362.51 849.96,-352.34 841.3,-358.45 847,-362.51"/>
</a>
</g>
</g>
<!-- Node18&#45;&gt;Node8 -->
<g id="edge33_Node000018_Node000008" class="edge">
<title>Node18&#45;&gt;Node8</title>
<g id="a_edge33_Node000018_Node000008"><a xlink:title=" ">
<path fill="none" stroke="#63b8ff" d="M966.12,-331.1C983.57,-307.23 1028.25,-239.93 1028.25,-176.38 1028.25,-176.38 1028.25,-176.38 1028.25,-119.12 1028.25,-66.75 966.07,-35.8 925.18,-21.11"/>
<polygon fill="#63b8ff" stroke="#63b8ff" points="926.31,-17.8 915.72,-17.88 924.06,-24.43 926.31,-17.8"/>
</a>
</g>
</g>
<!-- Node18&#45;&gt;Node12 -->
<g id="edge34_Node000018_Node000012" class="edge">
<title>Node18&#45;&gt;Node12</title>
<g id="a_edge34_Node000018_Node000012"><a xlink:title=" ">
<path fill="none" stroke="#63b8ff" d="M943.47,-331.04C918.15,-316.9 866.49,-289.85 819.25,-276.25 714.37,-246.06 585.04,-236.18 522.16,-233.04"/>
<polygon fill="#63b8ff" stroke="#63b8ff" points="522.52,-229.55 512.37,-232.58 522.19,-236.54 522.52,-229.55"/>
</a>
</g>
</g>
<!-- Node18&#45;&gt;Node14 -->
<g id="edge35_Node000018_Node000014" class="edge">
<title>Node18&#45;&gt;Node14</title>
<g id="a_edge35_Node000018_Node000014"><a xlink:title=" ">
<path fill="none" stroke="#63b8ff" d="M939.2,-333.81C909.98,-324.6 855.44,-307.41 821.08,-296.59"/>
<polygon fill="#63b8ff" stroke="#63b8ff" points="822.31,-293.31 811.72,-293.64 820.2,-299.98 822.31,-293.31"/>
</a>
</g>
</g>
<!-- Node19&#45;&gt;Node10 -->
<g id="edge38_Node000019_Node000010" class="edge">
<title>Node19&#45;&gt;Node10</title>
<g id="a_edge38_Node000019_Node000010"><a xlink:title=" ">
<path fill="none" stroke="#63b8ff" d="M1025.8,-331.1C1019.48,-309.37 1000.65,-253.51 966.25,-221 948.56,-204.28 923.54,-193.08 903.08,-186.08"/>
<polygon fill="#63b8ff" stroke="#63b8ff" points="904.28,-182.79 893.69,-183.07 902.15,-189.46 904.28,-182.79"/>
</a>
</g>
</g>
<!-- Node20&#45;&gt;Node10 -->
<g id="edge40_Node000020_Node000010" class="edge">
<title>Node20&#45;&gt;Node10</title>
<g id="a_edge40_Node000020_Node000010"><a xlink:title=" ">
<path fill="none" stroke="#63b8ff" d="M857.79,-331.32C859.33,-306 863.82,-232.5 866.02,-196.59"/>
<polygon fill="#63b8ff" stroke="#63b8ff" points="869.5,-196.93 866.62,-186.73 862.51,-196.5 869.5,-196.93"/>
</a>
</g>
</g>
<!-- Node20&#45;&gt;Node12 -->
<g id="edge41_Node000020_Node000012" class="edge">
<title>Node20&#45;&gt;Node12</title>
<g id="a_edge41_Node000020_Node000012"><a xlink:title=" ">
<path fill="none" stroke="#63b8ff" d="M834.91,-331.06C801.62,-317.79 736.84,-292.83 680.25,-276.25 625.96,-260.34 561.83,-246.68 522.09,-238.81"/>
<polygon fill="#63b8ff" stroke="#63b8ff" points="522.8,-235.38 512.31,-236.89 521.45,-242.25 522.8,-235.38"/>
</a>
</g>
</g>
<!-- Node20&#45;&gt;Node14 -->
<g id="edge42_Node000020_Node000014" class="edge">
<title>Node20&#45;&gt;Node14</title>
<g id="a_edge42_Node000020_Node000014"><a xlink:title=" ">
<path fill="none" stroke="#63b8ff" d="M845.88,-331.09C836.2,-323.4 822.05,-312.15 810.44,-302.93"/>
<polygon fill="#63b8ff" stroke="#63b8ff" points="812.64,-300.2 802.63,-296.72 808.28,-305.68 812.64,-300.2"/>
</a>
</g>
</g>
<!-- Node21&#45;&gt;Node11 -->
<g id="edge44_Node000021_Node000011" class="edge">
<title>Node21&#45;&gt;Node11</title>
<g id="a_edge44_Node000021_Node000011"><a xlink:title=" ">
<path fill="none" stroke="#63b8ff" d="M447.35,-441.75C463.74,-423.78 501.08,-382.86 522.46,-359.44"/>
<polygon fill="#63b8ff" stroke="#63b8ff" points="524.86,-361.99 529.02,-352.24 519.69,-357.27 524.86,-361.99"/>
</a>
</g>
</g>
<!-- Node22&#45;&gt;Node10 -->
<g id="edge46_Node000022_Node000010" class="edge">
<title>Node22&#45;&gt;Node10</title>
<g id="a_edge46_Node000022_Node000010"><a xlink:title=" ">
<path fill="none" stroke="#63b8ff" d="M683.09,-388.08C715.48,-374.62 781.84,-342.84 819.25,-295.5 843.14,-265.27 856.65,-221.57 862.91,-196.36"/>
<polygon fill="#63b8ff" stroke="#63b8ff" points="866.27,-197.33 865.13,-186.8 859.46,-195.75 866.27,-197.33"/>
</a>
</g>
</g>
<!-- Node22&#45;&gt;Node11 -->
<g id="edge48_Node000022_Node000011" class="edge">
<title>Node22&#45;&gt;Node11</title>
<g id="a_edge48_Node000022_Node000011"><a xlink:title=" ">
<path fill="none" stroke="#63b8ff" d="M645.39,-387.4C625.5,-379 593.83,-365.61 570.07,-355.57"/>
<polygon fill="#63b8ff" stroke="#63b8ff" points="571.75,-352.48 561.17,-351.81 569.02,-358.93 571.75,-352.48"/>
</a>
</g>
</g>
<!-- Node22&#45;&gt;Node12 -->
<g id="edge47_Node000022_Node000012" class="edge">
<title>Node22&#45;&gt;Node12</title>
<g id="a_edge47_Node000022_Node000012"><a xlink:title=" ">
<path fill="none" stroke="#63b8ff" d="M660.97,-386.29C652.64,-364.42 628.65,-308.27 591.25,-276.25 571.33,-259.2 543.97,-247.94 521.9,-241"/>
<polygon fill="#63b8ff" stroke="#63b8ff" points="522.95,-237.66 512.37,-238.19 520.97,-244.37 522.95,-237.66"/>
</a>
</g>
</g>
<!-- Node22&#45;&gt;Node14 -->
<g id="edge49_Node000022_Node000014" class="edge">
<title>Node22&#45;&gt;Node14</title>
<g id="a_edge49_Node000022_Node000014"><a xlink:title=" ">
<path fill="none" stroke="#63b8ff" d="M674.56,-386.5C695.7,-368.3 744.21,-326.52 771.22,-303.26"/>
<polygon fill="#63b8ff" stroke="#63b8ff" points="773.36,-306.04 778.65,-296.86 768.79,-300.74 773.36,-306.04"/>
</a>
</g>
</g>
<!-- Node23&#45;&gt;Node12 -->
<g id="edge51_Node000023_Node000012" class="edge">
<title>Node23&#45;&gt;Node12</title>
<g id="a_edge51_Node000023_Node000012"><a xlink:title=" ">
<path fill="none" stroke="#63b8ff" d="M378.79,-275.84C398.86,-267.43 429.05,-254.77 452,-245.15"/>
<polygon fill="#63b8ff" stroke="#63b8ff" points="453.34,-248.38 461.2,-241.29 450.63,-241.93 453.34,-248.38"/>
</a>
</g>
</g>
<!-- Node24&#45;&gt;Node11 -->
<g id="edge60_Node000024_Node000011" class="edge">
<title>Node24&#45;&gt;Node11</title>
<g id="a_edge60_Node000024_Node000011"><a xlink:title=" ">
<path fill="none" stroke="#63b8ff" d="M511.62,-441.75C516.25,-424.42 526.6,-385.73 532.94,-361.99"/>
<polygon fill="#63b8ff" stroke="#63b8ff" points="536.25,-363.15 535.45,-352.59 529.49,-361.35 536.25,-363.15"/>
</a>
</g>
</g>
<!-- Node24&#45;&gt;Node12 -->
<g id="edge59_Node000024_Node000012" class="edge">
<title>Node24&#45;&gt;Node12</title>
<g id="a_edge59_Node000024_Node000012"><a xlink:title=" ">
<path fill="none" stroke="#63b8ff" d="M508.17,-441.54C505.35,-417.63 497.51,-351 491.25,-295.5 489.62,-281.02 487.83,-264.69 486.47,-252.16"/>
<polygon fill="#63b8ff" stroke="#63b8ff" points="489.95,-251.79 485.39,-242.23 482.99,-252.55 489.95,-251.79"/>
</a>
</g>
</g>
<!-- Node25 -->
<g id="Node000025" class="node">
<title>Node25</title>
<g id="a_Node000025"><a xlink:href="lgc_8h.html" target="_top" xlink:title=" ">
<polygon fill="white" stroke="#666666" points="627.75,-406 590.75,-406 590.75,-386.75 627.75,-386.75 627.75,-406"/>
<text xml:space="preserve" text-anchor="middle" x="609.25" y="-392.5" font-family="Helvetica,sans-Serif" font-size="10.00">lgc.h</text>
</a>
</g>
</g>
<!-- Node24&#45;&gt;Node25 -->
<g id="edge56_Node000024_Node000025" class="edge">
<title>Node24&#45;&gt;Node25</title>
<g id="a_edge56_Node000024_Node000025"><a xlink:title=" ">
<path fill="none" stroke="#63b8ff" d="M526.21,-441.59C541.51,-433.44 564.28,-421.32 582.11,-411.83"/>
<polygon fill="#63b8ff" stroke="#63b8ff" points="583.69,-414.95 590.87,-407.16 580.4,-408.77 583.69,-414.95"/>
</a>
</g>
</g>
<!-- Node25&#45;&gt;Node11 -->
<g id="edge58_Node000025_Node000011" class="edge">
<title>Node25&#45;&gt;Node11</title>
<g id="a_edge58_Node000025_Node000011"><a xlink:title=" ">
<path fill="none" stroke="#63b8ff" d="M597.21,-386.34C586.84,-378.57 571.65,-367.17 559.28,-357.9"/>
<polygon fill="#63b8ff" stroke="#63b8ff" points="561.43,-355.13 551.33,-351.93 557.23,-360.73 561.43,-355.13"/>
</a>
</g>
</g>
<!-- Node25&#45;&gt;Node12 -->
<g id="edge57_Node000025_Node000012" class="edge">
<title>Node25&#45;&gt;Node12</title>
<g id="a_edge57_Node000025_Node000012"><a xlink:title=" ">
<path fill="none" stroke="#63b8ff" d="M608.7,-386.5C606.94,-365.08 599.73,-309.87 571.25,-276.25 558.26,-260.91 538.67,-250.21 521.37,-243.15"/>
<polygon fill="#63b8ff" stroke="#63b8ff" points="522.97,-240.01 512.38,-239.74 520.49,-246.56 522.97,-240.01"/>
</a>
</g>
</g>
<!-- Node26&#45;&gt;Node12 -->
<g id="edge62_Node000026_Node000012" class="edge">
<title>Node26&#45;&gt;Node12</title>
<g id="a_edge62_Node000026_Node000012"><a xlink:title=" ">
<path fill="none" stroke="#63b8ff" d="M397.24,-386.28C399.87,-365.32 408.54,-312.63 432.25,-276.25 439.63,-264.92 450.71,-254.85 460.75,-247.16"/>
<polygon fill="#63b8ff" stroke="#63b8ff" points="462.62,-250.13 468.67,-241.44 458.52,-244.46 462.62,-250.13"/>
</a>
</g>
</g>
<!-- Node27&#45;&gt;Node12 -->
<g id="edge66_Node000027_Node000012" class="edge">
<title>Node27&#45;&gt;Node12</title>
<g id="a_edge66_Node000027_Node000012"><a xlink:title=" ">
<path fill="none" stroke="#63b8ff" d="M256.94,-441.52C253.39,-412.85 246.63,-323.53 292.25,-276.25 313.2,-254.53 396.41,-241.56 446.15,-235.59"/>
<polygon fill="#63b8ff" stroke="#63b8ff" points="446.38,-239.09 455.92,-234.46 445.58,-232.13 446.38,-239.09"/>
</a>
</g>
</g>
<!-- Node27&#45;&gt;Node13 -->
<g id="edge67_Node000027_Node000013" class="edge">
<title>Node27&#45;&gt;Node13</title>
<g id="a_edge67_Node000027_Node000013"><a xlink:title=" ">
<path fill="none" stroke="#63b8ff" d="M256.26,-441.82C250.51,-416.39 233.78,-342.35 225.71,-306.62"/>
<polygon fill="#63b8ff" stroke="#63b8ff" points="229.2,-306.18 223.58,-297.2 222.37,-307.72 229.2,-306.18"/>
</a>
</g>
</g>
<!-- Node27&#45;&gt;Node22 -->
<g id="edge65_Node000027_Node000022" class="edge">
<title>Node27&#45;&gt;Node22</title>
<g id="a_edge65_Node000027_Node000022"><a xlink:title=" ">
<path fill="none" stroke="#63b8ff" d="M278.61,-449.6C334.29,-446.53 493.86,-435.79 634.54,-406.22"/>
<polygon fill="#63b8ff" stroke="#63b8ff" points="634.97,-409.71 644.01,-404.19 633.5,-402.87 634.97,-409.71"/>
</a>
</g>
</g>
</g>
</svg>

<g id="navigator" transform="translate(0 0)" fill="#404254">
  <rect fill="#f2f5e9" fill-opacity="0.5" stroke="#606060" stroke-width=".5" x="0" y="0" width="60" height="60"/>
  <use id="zoomplus" xlink:href="#zoomPlus" x="17" y="9" onmousedown="handleZoom(evt,'in')"/>
  <use id="zoomminus" xlink:href="#zoomMin" x="42" y="9" onmousedown="handleZoom(evt,'out')"/>
  <use id="reset" xlink:href="#resetDef" x="30" y="36" onmousedown="handleReset()"/>
   <use id="arrowup" xlink:href="#arrowUp" x="0" y="0" onmousedown="handlePan(0,-1)"/>
  <use id="arrowright" xlink:href="#arrowRight" x="0" y="0" onmousedown="handlePan(1,0)"/>
  <use id="arrowdown" xlink:href="#arrowDown" x="0" y="0" onmousedown="handlePan(0,1)"/>
  <use id="arrowleft" xlink:href="#arrowLeft" x="0" y="0" onmousedown="handlePan(-1,0)"/>
</g>
<svg viewBox="0 0 15 15" width="100%" height="30px" preserveAspectRatio="xMaxYMin meet">
 <g id="arrow_out" transform="scale(0.3 0.3)">
  <a xlink:href="ldebug_8c__incl_org.svg" target="_base">
   <rect id="button" ry="5" rx="5" y="6" x="6" height="38" width="38"
        fill="#f2f5e9" fill-opacity="0.5" stroke="#606060" stroke-width="1.0"/>
   <path id="arrow"
     d="M 11.500037,31.436501 C 11.940474,20.09759 22.043105,11.32322 32.158766,21.979434 L 37.068811,17.246167 C 37.068811,17.246167 37.088388,32 37.088388,32 L 22.160133,31.978069 C 22.160133,31.978069 26.997745,27.140456 26.997745,27.140456 C 18.528582,18.264221 13.291696,25.230495 11.500037,31.436501 z"
     style="fill:#404040;"/>
  </a>
 </g>
</svg>

<style type='text/css'>
<![CDATA[
[data-mouse-over-selected='false'] { opacity: 0.7; }
[data-mouse-over-selected='true']  { opacity: 1.0; }
]]>
</style>
<script type="application/ecmascript"><![CDATA[
document.addEventListener('DOMContentLoaded', (event) => {
  highlightEdges();
  highlightAdjacentNodes();
});
]]></script>
</svg>
