<?xml version="1.0" encoding="UTF-8" standalone="no"?>
<!DOCTYPE svg PUBLIC "-//W3C//DTD SVG 1.1//EN"
 "http://www.w3.org/Graphics/SVG/1.1/DTD/svg11.dtd">
<!-- Generated by graphviz version 13.1.0 (20250701.0955)
 -->
<!-- Title: lua&#45;5.4.7/ldebug.h Pages: 1 -->
<svg width="1771pt" height="138pt"
 viewBox="0.00 0.00 1771.00 138.00" xmlns="http://www.w3.org/2000/svg" xmlns:xlink="http://www.w3.org/1999/xlink">
<g id="graph0" class="graph" transform="scale(1 1) rotate(0) translate(4 133.75)">
<title>lua&#45;5.4.7/ldebug.h</title>
<!-- Node1 -->
<g id="Node000001" class="node">
<title>Node1</title>
<g id="a_Node000001"><a xlink:title=" ">
<polygon fill="#999999" stroke="#666666" points="908.5,-129.75 815.25,-129.75 815.25,-110.5 908.5,-110.5 908.5,-129.75"/>
<text xml:space="preserve" text-anchor="middle" x="861.88" y="-116.25" font-family="Helvetica,sans-Serif" font-size="10.00">lua&#45;5.4.7/ldebug.h</text>
</a>
</g>
</g>
<!-- Node2 -->
<g id="Node000002" class="node">
<title>Node2</title>
<g id="a_Node000002"><a xlink:href="lapi_8c.html" target="_top" xlink:title=" ">
<polygon fill="white" stroke="#666666" points="79.75,-74.5 0,-74.5 0,-55.25 79.75,-55.25 79.75,-74.5"/>
<text xml:space="preserve" text-anchor="middle" x="39.88" y="-61" font-family="Helvetica,sans-Serif" font-size="10.00">lua&#45;5.4.7/lapi.c</text>
</a>
</g>
</g>
<!-- Node1&#45;&gt;Node2 -->
<g id="edge1_Node000001_Node000002" class="edge">
<title>Node1&#45;&gt;Node2</title>
<g id="a_edge1_Node000001_Node000002"><a xlink:title=" ">
<path fill="none" stroke="#63b8ff" d="M803.95,-118.09C675.06,-115.27 354.9,-105.48 88.88,-74.5 86.04,-74.17 83.13,-73.78 80.2,-73.36"/>
<polygon fill="#63b8ff" stroke="#63b8ff" points="803.51,-121.58 813.58,-118.29 803.66,-114.58 803.51,-121.58"/>
</a>
</g>
</g>
<!-- Node4 -->
<g id="Node000004" class="node">
<title>Node4</title>
<g id="a_Node000004"><a xlink:href="lcode_8c.html" target="_top" xlink:title=" ">
<polygon fill="white" stroke="#666666" points="185.88,-74.5 97.88,-74.5 97.88,-55.25 185.88,-55.25 185.88,-74.5"/>
<text xml:space="preserve" text-anchor="middle" x="141.88" y="-61" font-family="Helvetica,sans-Serif" font-size="10.00">lua&#45;5.4.7/lcode.c</text>
</a>
</g>
</g>
<!-- Node1&#45;&gt;Node4 -->
<g id="edge3_Node000001_Node000004" class="edge">
<title>Node1&#45;&gt;Node4</title>
<g id="a_edge3_Node000001_Node000004"><a xlink:title=" ">
<path fill="none" stroke="#63b8ff" d="M803.4,-117.07C687.17,-112.58 418.94,-100.17 194.88,-74.5 192.1,-74.18 189.24,-73.82 186.37,-73.43"/>
<polygon fill="#63b8ff" stroke="#63b8ff" points="803.2,-120.57 813.32,-117.45 803.46,-113.57 803.2,-120.57"/>
</a>
</g>
</g>
<!-- Node5 -->
<g id="Node000005" class="node">
<title>Node5</title>
<g id="a_Node000005"><a xlink:href="ldebug_8c.html" target="_top" xlink:title=" ">
<polygon fill="white" stroke="#666666" points="297.5,-74.5 204.25,-74.5 204.25,-55.25 297.5,-55.25 297.5,-74.5"/>
<text xml:space="preserve" text-anchor="middle" x="250.88" y="-61" font-family="Helvetica,sans-Serif" font-size="10.00">lua&#45;5.4.7/ldebug.c</text>
</a>
</g>
</g>
<!-- Node1&#45;&gt;Node5 -->
<g id="edge5_Node000001_Node000005" class="edge">
<title>Node1&#45;&gt;Node5</title>
<g id="a_edge5_Node000001_Node000005"><a xlink:title=" ">
<path fill="none" stroke="#63b8ff" d="M803.69,-115.9C702.34,-109.97 486.9,-95.93 305.88,-74.5 303.28,-74.19 300.63,-73.86 297.95,-73.5"/>
<polygon fill="#63b8ff" stroke="#63b8ff" points="803.2,-119.38 813.38,-116.47 803.6,-112.39 803.2,-119.38"/>
</a>
</g>
</g>
<!-- Node6 -->
<g id="Node000006" class="node">
<title>Node6</title>
<g id="a_Node000006"><a xlink:href="ldo_8c.html" target="_top" xlink:title=" ">
<polygon fill="white" stroke="#666666" points="392.62,-74.5 315.12,-74.5 315.12,-55.25 392.62,-55.25 392.62,-74.5"/>
<text xml:space="preserve" text-anchor="middle" x="353.88" y="-61" font-family="Helvetica,sans-Serif" font-size="10.00">lua&#45;5.4.7/ldo.c</text>
</a>
</g>
</g>
<!-- Node1&#45;&gt;Node6 -->
<g id="edge7_Node000001_Node000006" class="edge">
<title>Node1&#45;&gt;Node6</title>
<g id="a_edge7_Node000001_Node000006"><a xlink:title=" ">
<path fill="none" stroke="#63b8ff" d="M803.78,-115.01C716.34,-108.47 545.83,-94.38 401.88,-74.5 398.94,-74.09 395.91,-73.64 392.87,-73.15"/>
<polygon fill="#63b8ff" stroke="#63b8ff" points="803.3,-118.48 813.53,-115.73 803.82,-111.5 803.3,-118.48"/>
</a>
</g>
</g>
<!-- Node7 -->
<g id="Node000007" class="node">
<title>Node7</title>
<g id="a_Node000007"><a xlink:href="lfunc_8c.html" target="_top" xlink:title=" ">
<polygon fill="white" stroke="#666666" points="496.75,-74.5 411,-74.5 411,-55.25 496.75,-55.25 496.75,-74.5"/>
<text xml:space="preserve" text-anchor="middle" x="453.88" y="-61" font-family="Helvetica,sans-Serif" font-size="10.00">lua&#45;5.4.7/lfunc.c</text>
</a>
</g>
</g>
<!-- Node1&#45;&gt;Node7 -->
<g id="edge9_Node000001_Node000007" class="edge">
<title>Node1&#45;&gt;Node7</title>
<g id="a_edge9_Node000001_Node000007"><a xlink:title=" ">
<path fill="none" stroke="#63b8ff" d="M803.56,-112.53C732.98,-104.39 610.54,-89.73 505.88,-74.5 502.98,-74.08 499.99,-73.63 496.98,-73.16"/>
<polygon fill="#63b8ff" stroke="#63b8ff" points="803.02,-116 813.36,-113.66 803.82,-109.04 803.02,-116"/>
</a>
</g>
</g>
<!-- Node8 -->
<g id="Node000008" class="node">
<title>Node8</title>
<g id="a_Node000008"><a xlink:href="lgc_8c.html" target="_top" xlink:title=" ">
<polygon fill="white" stroke="#666666" points="592.62,-74.5 515.12,-74.5 515.12,-55.25 592.62,-55.25 592.62,-74.5"/>
<text xml:space="preserve" text-anchor="middle" x="553.88" y="-61" font-family="Helvetica,sans-Serif" font-size="10.00">lua&#45;5.4.7/lgc.c</text>
</a>
</g>
</g>
<!-- Node1&#45;&gt;Node8 -->
<g id="edge11_Node000001_Node000008" class="edge">
<title>Node1&#45;&gt;Node8</title>
<g id="a_edge11_Node000001_Node000008"><a xlink:title=" ">
<path fill="none" stroke="#63b8ff" d="M803.74,-109.28C751.03,-100.32 671.22,-86.68 601.88,-74.5 598.96,-73.99 595.94,-73.45 592.9,-72.91"/>
<polygon fill="#63b8ff" stroke="#63b8ff" points="802.95,-112.7 813.39,-110.92 804.12,-105.8 802.95,-112.7"/>
</a>
</g>
</g>
<!-- Node9 -->
<g id="Node000009" class="node">
<title>Node9</title>
<g id="a_Node000009"><a xlink:href="llex_8c.html" target="_top" xlink:title=" ">
<polygon fill="white" stroke="#666666" points="690.75,-74.5 611,-74.5 611,-55.25 690.75,-55.25 690.75,-74.5"/>
<text xml:space="preserve" text-anchor="middle" x="650.88" y="-61" font-family="Helvetica,sans-Serif" font-size="10.00">lua&#45;5.4.7/llex.c</text>
</a>
</g>
</g>
<!-- Node1&#45;&gt;Node9 -->
<g id="edge13_Node000001_Node000009" class="edge">
<title>Node1&#45;&gt;Node9</title>
<g id="a_edge13_Node000001_Node000009"><a xlink:title=" ">
<path fill="none" stroke="#63b8ff" d="M815.11,-107.32C776.4,-97.55 722.22,-83.88 686.84,-74.95"/>
<polygon fill="#63b8ff" stroke="#63b8ff" points="814.06,-110.67 824.61,-109.72 815.77,-103.88 814.06,-110.67"/>
</a>
</g>
</g>
<!-- Node10 -->
<g id="Node000010" class="node">
<title>Node10</title>
<g id="a_Node000010"><a xlink:href="lmem_8c.html" target="_top" xlink:title=" ">
<polygon fill="white" stroke="#666666" points="797.25,-74.5 708.5,-74.5 708.5,-55.25 797.25,-55.25 797.25,-74.5"/>
<text xml:space="preserve" text-anchor="middle" x="752.88" y="-61" font-family="Helvetica,sans-Serif" font-size="10.00">lua&#45;5.4.7/lmem.c</text>
</a>
</g>
</g>
<!-- Node1&#45;&gt;Node10 -->
<g id="edge15_Node000001_Node000010" class="edge">
<title>Node1&#45;&gt;Node10</title>
<g id="a_edge15_Node000001_Node000010"><a xlink:title=" ">
<path fill="none" stroke="#63b8ff" d="M833.22,-105.12C813.69,-95.58 788.4,-83.23 771.46,-74.95"/>
<polygon fill="#63b8ff" stroke="#63b8ff" points="831.5,-108.18 842.02,-109.43 834.58,-101.89 831.5,-108.18"/>
</a>
</g>
</g>
<!-- Node11 -->
<g id="Node000011" class="node">
<title>Node11</title>
<g id="a_Node000011"><a xlink:href="lobject_8c.html" target="_top" xlink:title=" ">
<polygon fill="white" stroke="#666666" points="908.5,-74.5 815.25,-74.5 815.25,-55.25 908.5,-55.25 908.5,-74.5"/>
<text xml:space="preserve" text-anchor="middle" x="861.88" y="-61" font-family="Helvetica,sans-Serif" font-size="10.00">lua&#45;5.4.7/lobject.c</text>
</a>
</g>
</g>
<!-- Node1&#45;&gt;Node11 -->
<g id="edge17_Node000001_Node000011" class="edge">
<title>Node1&#45;&gt;Node11</title>
<g id="a_edge17_Node000001_Node000011"><a xlink:title=" ">
<path fill="none" stroke="#63b8ff" d="M861.88,-98.88C861.88,-90.59 861.88,-81.42 861.88,-74.86"/>
<polygon fill="#63b8ff" stroke="#63b8ff" points="858.38,-98.82 861.88,-108.82 865.38,-98.82 858.38,-98.82"/>
</a>
</g>
</g>
<!-- Node12 -->
<g id="Node000012" class="node">
<title>Node12</title>
<g id="a_Node000012"><a xlink:href="lparser_8c.html" target="_top" xlink:title=" ">
<polygon fill="white" stroke="#666666" points="1019.5,-74.5 926.25,-74.5 926.25,-55.25 1019.5,-55.25 1019.5,-74.5"/>
<text xml:space="preserve" text-anchor="middle" x="972.88" y="-61" font-family="Helvetica,sans-Serif" font-size="10.00">lua&#45;5.4.7/lparser.c</text>
</a>
</g>
</g>
<!-- Node1&#45;&gt;Node12 -->
<g id="edge19_Node000001_Node000012" class="edge">
<title>Node1&#45;&gt;Node12</title>
<g id="a_edge19_Node000001_Node000012"><a xlink:title=" ">
<path fill="none" stroke="#63b8ff" d="M891.06,-105.12C910.95,-95.58 936.7,-83.23 953.95,-74.95"/>
<polygon fill="#63b8ff" stroke="#63b8ff" points="889.57,-101.96 882.07,-109.44 892.6,-108.27 889.57,-101.96"/>
</a>
</g>
</g>
<!-- Node13 -->
<g id="Node000013" class="node">
<title>Node13</title>
<g id="a_Node000013"><a xlink:href="lstate_8c.html" target="_top" xlink:title=" ">
<polygon fill="white" stroke="#666666" points="1126.25,-74.5 1037.5,-74.5 1037.5,-55.25 1126.25,-55.25 1126.25,-74.5"/>
<text xml:space="preserve" text-anchor="middle" x="1081.88" y="-61" font-family="Helvetica,sans-Serif" font-size="10.00">lua&#45;5.4.7/lstate.c</text>
</a>
</g>
</g>
<!-- Node1&#45;&gt;Node13 -->
<g id="edge21_Node000001_Node000013" class="edge">
<title>Node1&#45;&gt;Node13</title>
<g id="a_edge21_Node000001_Node000013"><a xlink:title=" ">
<path fill="none" stroke="#63b8ff" d="M910.38,-107.38C950.75,-97.61 1007.41,-83.9 1044.37,-74.95"/>
<polygon fill="#63b8ff" stroke="#63b8ff" points="909.56,-103.98 900.67,-109.74 911.21,-110.78 909.56,-103.98"/>
</a>
</g>
</g>
<!-- Node14 -->
<g id="Node000014" class="node">
<title>Node14</title>
<g id="a_Node000014"><a xlink:href="lstring_8c.html" target="_top" xlink:title=" ">
<polygon fill="white" stroke="#666666" points="1235.38,-74.5 1144.38,-74.5 1144.38,-55.25 1235.38,-55.25 1235.38,-74.5"/>
<text xml:space="preserve" text-anchor="middle" x="1189.88" y="-61" font-family="Helvetica,sans-Serif" font-size="10.00">lua&#45;5.4.7/lstring.c</text>
</a>
</g>
</g>
<!-- Node1&#45;&gt;Node14 -->
<g id="edge23_Node000001_Node000014" class="edge">
<title>Node1&#45;&gt;Node14</title>
<g id="a_edge23_Node000001_Node000014"><a xlink:title=" ">
<path fill="none" stroke="#63b8ff" d="M919.97,-109.69C983.92,-99.31 1085.42,-82.83 1144.03,-73.32"/>
<polygon fill="#63b8ff" stroke="#63b8ff" points="919.67,-106.2 910.36,-111.25 920.8,-113.11 919.67,-106.2"/>
</a>
</g>
</g>
<!-- Node15 -->
<g id="Node000015" class="node">
<title>Node15</title>
<g id="a_Node000015"><a xlink:href="ltable_8c.html" target="_top" xlink:title=" ">
<polygon fill="white" stroke="#666666" points="1341.88,-74.5 1253.88,-74.5 1253.88,-55.25 1341.88,-55.25 1341.88,-74.5"/>
<text xml:space="preserve" text-anchor="middle" x="1297.88" y="-61" font-family="Helvetica,sans-Serif" font-size="10.00">lua&#45;5.4.7/ltable.c</text>
</a>
</g>
</g>
<!-- Node1&#45;&gt;Node15 -->
<g id="edge25_Node000001_Node000015" class="edge">
<title>Node1&#45;&gt;Node15</title>
<g id="a_edge25_Node000001_Node000015"><a xlink:title=" ">
<path fill="none" stroke="#63b8ff" d="M919.92,-113.19C995.04,-105.32 1129.94,-90.54 1244.88,-74.5 1247.74,-74.1 1250.68,-73.67 1253.65,-73.23"/>
<polygon fill="#63b8ff" stroke="#63b8ff" points="919.92,-109.67 910.34,-114.19 920.65,-116.63 919.92,-109.67"/>
</a>
</g>
</g>
<!-- Node16 -->
<g id="Node000016" class="node">
<title>Node16</title>
<g id="a_Node000016"><a xlink:href="ltests_8c.html" target="_top" xlink:title=" ">
<polygon fill="white" stroke="#666666" points="1448.25,-74.5 1359.5,-74.5 1359.5,-55.25 1448.25,-55.25 1448.25,-74.5"/>
<text xml:space="preserve" text-anchor="middle" x="1403.88" y="-61" font-family="Helvetica,sans-Serif" font-size="10.00">lua&#45;5.4.7/ltests.c</text>
</a>
</g>
</g>
<!-- Node1&#45;&gt;Node16 -->
<g id="edge27_Node000001_Node000016" class="edge">
<title>Node1&#45;&gt;Node16</title>
<g id="a_edge27_Node000001_Node000016"><a xlink:title=" ">
<path fill="none" stroke="#63b8ff" d="M920.12,-115.14C1011.92,-108.56 1195.77,-94.17 1350.88,-74.5 1353.56,-74.16 1356.31,-73.79 1359.09,-73.39"/>
<polygon fill="#63b8ff" stroke="#63b8ff" points="920.09,-111.63 910.37,-115.83 920.59,-118.62 920.09,-111.63"/>
</a>
</g>
</g>
<!-- Node17 -->
<g id="Node000017" class="node">
<title>Node17</title>
<g id="a_Node000017"><a xlink:href="ltm_8c.html" target="_top" xlink:title=" ">
<polygon fill="white" stroke="#666666" points="1545,-74.5 1466.75,-74.5 1466.75,-55.25 1545,-55.25 1545,-74.5"/>
<text xml:space="preserve" text-anchor="middle" x="1505.88" y="-61" font-family="Helvetica,sans-Serif" font-size="10.00">lua&#45;5.4.7/ltm.c</text>
</a>
</g>
</g>
<!-- Node1&#45;&gt;Node17 -->
<g id="edge28_Node000001_Node000017" class="edge">
<title>Node1&#45;&gt;Node17</title>
<g id="a_edge28_Node000001_Node000017"><a xlink:title=" ">
<path fill="none" stroke="#63b8ff" d="M920.17,-116.68C1026.94,-111.77 1260.96,-99.03 1456.88,-74.5 1459.96,-74.11 1463.15,-73.67 1466.35,-73.18"/>
<polygon fill="#63b8ff" stroke="#63b8ff" points="920.05,-113.18 910.21,-117.13 920.36,-120.17 920.05,-113.18"/>
</a>
</g>
</g>
<!-- Node18 -->
<g id="Node000018" class="node">
<title>Node18</title>
<g id="a_Node000018"><a xlink:href="lundump_8c.html" target="_top" xlink:title=" ">
<polygon fill="white" stroke="#666666" points="1664.62,-74.5 1563.12,-74.5 1563.12,-55.25 1664.62,-55.25 1664.62,-74.5"/>
<text xml:space="preserve" text-anchor="middle" x="1613.88" y="-61" font-family="Helvetica,sans-Serif" font-size="10.00">lua&#45;5.4.7/lundump.c</text>
</a>
</g>
</g>
<!-- Node1&#45;&gt;Node18 -->
<g id="edge30_Node000001_Node000018" class="edge">
<title>Node1&#45;&gt;Node18</title>
<g id="a_edge30_Node000001_Node000018"><a xlink:title=" ">
<path fill="none" stroke="#63b8ff" d="M920.35,-116.9C1039.68,-112.03 1319.79,-98.83 1553.88,-74.5 1556.81,-74.2 1559.81,-73.85 1562.85,-73.49"/>
<polygon fill="#63b8ff" stroke="#63b8ff" points="920.33,-113.4 910.48,-117.3 920.61,-120.39 920.33,-113.4"/>
</a>
</g>
</g>
<!-- Node19 -->
<g id="Node000019" class="node">
<title>Node19</title>
<g id="a_Node000019"><a xlink:href="lvm_8c.html" target="_top" xlink:title=" ">
<polygon fill="white" stroke="#666666" points="1763.12,-74.5 1682.62,-74.5 1682.62,-55.25 1763.12,-55.25 1763.12,-74.5"/>
<text xml:space="preserve" text-anchor="middle" x="1722.88" y="-61" font-family="Helvetica,sans-Serif" font-size="10.00">lua&#45;5.4.7/lvm.c</text>
</a>
</g>
</g>
<!-- Node1&#45;&gt;Node19 -->
<g id="edge32_Node000001_Node000019" class="edge">
<title>Node1&#45;&gt;Node19</title>
<g id="a_edge32_Node000001_Node000019"><a xlink:title=" ">
<path fill="none" stroke="#63b8ff" d="M919.87,-118.31C1053.34,-115.92 1392.44,-106.89 1673.88,-74.5 1676.62,-74.18 1679.45,-73.81 1682.29,-73.4"/>
<polygon fill="#63b8ff" stroke="#63b8ff" points="920.18,-114.8 910.24,-118.48 920.3,-121.8 920.18,-114.8"/>
</a>
</g>
</g>
<!-- Node3 -->
<g id="Node000003" class="node">
<title>Node3</title>
<g id="a_Node000003"><a xlink:href="onelua_8c.html" target="_top" xlink:title=" ">
<polygon fill="white" stroke="#666666" points="853.5,-19.25 760.25,-19.25 760.25,0 853.5,0 853.5,-19.25"/>
<text xml:space="preserve" text-anchor="middle" x="806.88" y="-5.75" font-family="Helvetica,sans-Serif" font-size="10.00">lua&#45;5.4.7/onelua.c</text>
</a>
</g>
</g>
<!-- Node2&#45;&gt;Node3 -->
<g id="edge2_Node000002_Node000003" class="edge">
<title>Node2&#45;&gt;Node3</title>
<g id="a_edge2_Node000002_Node000003"><a xlink:title=" ">
<path fill="none" stroke="#63b8ff" d="M91.3,-55.1C349.53,-25.03 646.97,-14.75 760.09,-11.72"/>
<polygon fill="#63b8ff" stroke="#63b8ff" points="91.22,-51.58 81.7,-56.23 92.04,-58.54 91.22,-51.58"/>
</a>
</g>
</g>
<!-- Node4&#45;&gt;Node3 -->
<g id="edge4_Node000004_Node000003" class="edge">
<title>Node4&#45;&gt;Node3</title>
<g id="a_edge4_Node000004_Node000003"><a xlink:title=" ">
<path fill="none" stroke="#63b8ff" d="M197.6,-55.03C413.47,-30.1 658.93,-17.25 759.91,-12.63"/>
<polygon fill="#63b8ff" stroke="#63b8ff" points="197.4,-51.53 187.87,-56.17 198.21,-58.48 197.4,-51.53"/>
</a>
</g>
</g>
<!-- Node5&#45;&gt;Node3 -->
<g id="edge6_Node000005_Node000003" class="edge">
<title>Node5&#45;&gt;Node3</title>
<g id="a_edge6_Node000005_Node000003"><a xlink:title=" ">
<path fill="none" stroke="#63b8ff" d="M309.22,-54.91C480.77,-34.18 672.8,-19.8 759.8,-13.77"/>
<polygon fill="#63b8ff" stroke="#63b8ff" points="308.96,-51.41 299.45,-56.1 309.8,-58.36 308.96,-51.41"/>
</a>
</g>
</g>
<!-- Node6&#45;&gt;Node3 -->
<g id="edge8_Node000006_Node000003" class="edge">
<title>Node6&#45;&gt;Node3</title>
<g id="a_edge8_Node000006_Node000003"><a xlink:title=" ">
<path fill="none" stroke="#63b8ff" d="M404.24,-55C539.37,-35.74 686.45,-21.44 759.97,-14.75"/>
<polygon fill="#63b8ff" stroke="#63b8ff" points="403.77,-51.53 394.37,-56.42 404.77,-58.46 403.77,-51.53"/>
</a>
</g>
</g>
<!-- Node7&#45;&gt;Node3 -->
<g id="edge10_Node000007_Node000003" class="edge">
<title>Node7&#45;&gt;Node3</title>
<g id="a_edge10_Node000007_Node000003"><a xlink:title=" ">
<path fill="none" stroke="#63b8ff" d="M508.29,-54.89C603.57,-40 702.92,-25.53 759.91,-17.33"/>
<polygon fill="#63b8ff" stroke="#63b8ff" points="507.83,-51.42 498.49,-56.43 508.91,-58.34 507.83,-51.42"/>
</a>
</g>
</g>
<!-- Node8&#45;&gt;Node3 -->
<g id="edge12_Node000008_Node000003" class="edge">
<title>Node8&#45;&gt;Node3</title>
<g id="a_edge12_Node000008_Node000003"><a xlink:title=" ">
<path fill="none" stroke="#63b8ff" d="M603.9,-53.35C650.52,-43.53 719.31,-29.05 763.61,-19.73"/>
<polygon fill="#63b8ff" stroke="#63b8ff" points="603.4,-49.87 594.33,-55.36 604.84,-56.72 603.4,-49.87"/>
</a>
</g>
</g>
<!-- Node9&#45;&gt;Node3 -->
<g id="edge14_Node000009_Node000003" class="edge">
<title>Node9&#45;&gt;Node3</title>
<g id="a_edge14_Node000009_Node000003"><a xlink:title=" ">
<path fill="none" stroke="#63b8ff" d="M688.06,-51.18C716.46,-41.49 754.91,-28.36 780.28,-19.7"/>
<polygon fill="#63b8ff" stroke="#63b8ff" points="687.1,-47.81 678.77,-54.35 689.37,-54.43 687.1,-47.81"/>
</a>
</g>
</g>
<!-- Node10&#45;&gt;Node3 -->
<g id="edge16_Node000010_Node000003" class="edge">
<title>Node10&#45;&gt;Node3</title>
<g id="a_edge16_Node000010_Node000003"><a xlink:title=" ">
<path fill="none" stroke="#63b8ff" d="M769.91,-47.07C779.14,-37.98 790.17,-27.1 797.76,-19.61"/>
<polygon fill="#63b8ff" stroke="#63b8ff" points="767.53,-44.51 762.87,-54.02 772.45,-49.49 767.53,-44.51"/>
</a>
</g>
</g>
<!-- Node11&#45;&gt;Node3 -->
<g id="edge18_Node000011_Node000003" class="edge">
<title>Node11&#45;&gt;Node3</title>
<g id="a_edge18_Node000011_Node000003"><a xlink:title=" ">
<path fill="none" stroke="#63b8ff" d="M844.52,-47.07C835.13,-37.98 823.89,-27.1 816.15,-19.61"/>
<polygon fill="#63b8ff" stroke="#63b8ff" points="842.09,-49.59 851.71,-54.03 846.96,-44.56 842.09,-49.59"/>
</a>
</g>
</g>
<!-- Node12&#45;&gt;Node3 -->
<g id="edge20_Node000012_Node000003" class="edge">
<title>Node12&#45;&gt;Node3</title>
<g id="a_edge20_Node000012_Node000003"><a xlink:title=" ">
<path fill="none" stroke="#63b8ff" d="M934.1,-51.44C903.81,-41.72 862.41,-28.44 835.17,-19.7"/>
<polygon fill="#63b8ff" stroke="#63b8ff" points="932.68,-54.66 943.27,-54.38 934.82,-47.99 932.68,-54.66"/>
</a>
</g>
</g>
<!-- Node13&#45;&gt;Node3 -->
<g id="edge22_Node000013_Node000003" class="edge">
<title>Node13&#45;&gt;Node3</title>
<g id="a_edge22_Node000013_Node000003"><a xlink:title=" ">
<path fill="none" stroke="#63b8ff" d="M1026.01,-53.06C975.4,-43.26 901.64,-28.98 853.96,-19.74"/>
<polygon fill="#63b8ff" stroke="#63b8ff" points="1025.11,-56.45 1035.59,-54.91 1026.44,-49.58 1025.11,-56.45"/>
</a>
</g>
</g>
<!-- Node14&#45;&gt;Node3 -->
<g id="edge24_Node000014_Node000003" class="edge">
<title>Node14&#45;&gt;Node3</title>
<g id="a_edge24_Node000014_Node000003"><a xlink:title=" ">
<path fill="none" stroke="#63b8ff" d="M1132.76,-54.97C1026.98,-39.56 915.45,-24.76 853.9,-16.72"/>
<polygon fill="#63b8ff" stroke="#63b8ff" points="1132.07,-58.4 1142.47,-56.39 1133.08,-51.48 1132.07,-58.4"/>
</a>
</g>
</g>
<!-- Node15&#45;&gt;Node3 -->
<g id="edge26_Node000015_Node000003" class="edge">
<title>Node15&#45;&gt;Node3</title>
<g id="a_edge26_Node000015_Node000003"><a xlink:title=" ">
<path fill="none" stroke="#63b8ff" d="M1242.59,-55.02C1094.8,-35.76 932.37,-21.13 853.98,-14.49"/>
<polygon fill="#63b8ff" stroke="#63b8ff" points="1241.79,-58.45 1252.16,-56.28 1242.7,-51.51 1241.79,-58.45"/>
</a>
</g>
</g>
<!-- Node17&#45;&gt;Node3 -->
<g id="edge29_Node000017_Node000003" class="edge">
<title>Node17&#45;&gt;Node3</title>
<g id="a_edge29_Node000017_Node000003"><a xlink:title=" ">
<path fill="none" stroke="#63b8ff" d="M1454.99,-55.17C1223.35,-27.44 959.5,-15.94 853.94,-12.15"/>
<polygon fill="#63b8ff" stroke="#63b8ff" points="1454.5,-58.64 1464.85,-56.37 1455.34,-51.69 1454.5,-58.64"/>
</a>
</g>
</g>
<!-- Node18&#45;&gt;Node3 -->
<g id="edge31_Node000018_Node000003" class="edge">
<title>Node18&#45;&gt;Node3</title>
<g id="a_edge31_Node000018_Node000003"><a xlink:title=" ">
<path fill="none" stroke="#63b8ff" d="M1551.63,-55.11C1281.21,-28.1 970.01,-15.95 853.75,-12.07"/>
<polygon fill="#63b8ff" stroke="#63b8ff" points="1551.04,-58.57 1561.34,-56.09 1551.74,-51.61 1551.04,-58.57"/>
</a>
</g>
</g>
<!-- Node19&#45;&gt;Node3 -->
<g id="edge33_Node000019_Node000003" class="edge">
<title>Node19&#45;&gt;Node3</title>
<g id="a_edge33_Node000019_Node000003"><a xlink:title=" ">
<path fill="none" stroke="#63b8ff" d="M1671.01,-55.07C1353.17,-19.74 982.27,-12.52 853.56,-11.01"/>
<polygon fill="#63b8ff" stroke="#63b8ff" points="1670.46,-58.53 1680.78,-56.17 1671.24,-51.57 1670.46,-58.53"/>
</a>
</g>
</g>
</g>
</svg>
