<?xml version="1.0" encoding="UTF-8" standalone="no"?>
<!DOCTYPE svg PUBLIC "-//W3C//DTD SVG 1.1//EN"
 "http://www.w3.org/Graphics/SVG/1.1/DTD/svg11.dtd">
<!-- Generated by graphviz version 13.1.0 (20250701.0955)
 -->
<!-- Title: luaD_reallocstack Pages: 1 -->
<svg width="1010pt" height="945pt"
 viewBox="0.00 0.00 1010.00 945.00" xmlns="http://www.w3.org/2000/svg" xmlns:xlink="http://www.w3.org/1999/xlink">
<g id="graph0" class="graph" transform="scale(1 1) rotate(0) translate(4 941.25)">
<title>luaD_reallocstack</title>
<!-- Node1 -->
<g id="Node000001" class="node">
<title>Node1</title>
<g id="a_Node000001"><a xlink:title=" ">
<polygon fill="#999999" stroke="#666666" points="1001.75,-344.25 907.75,-344.25 907.75,-325 1001.75,-325 1001.75,-344.25"/>
<text xml:space="preserve" text-anchor="middle" x="954.75" y="-330.75" font-family="Helvetica,sans-Serif" font-size="10.00">luaD_reallocstack</text>
</a>
</g>
</g>
<!-- Node2 -->
<g id="Node000002" class="node">
<title>Node2</title>
<g id="a_Node000002"><a xlink:href="ldo_8c.html#a728937587ac9d9e316bd410991f11221" target="_top" xlink:title=" ">
<polygon fill="white" stroke="#666666" points="612.5,-576.25 526,-576.25 526,-557 612.5,-557 612.5,-576.25"/>
<text xml:space="preserve" text-anchor="middle" x="569.25" y="-562.75" font-family="Helvetica,sans-Serif" font-size="10.00">luaD_growstack</text>
</a>
</g>
</g>
<!-- Node1&#45;&gt;Node2 -->
<g id="edge1_Node000001_Node000002" class="edge">
<title>Node1&#45;&gt;Node2</title>
<g id="a_edge1_Node000001_Node000002"><a xlink:title=" ">
<path fill="none" stroke="#63b8ff" d="M932.1,-351.45C880.97,-390.55 747.66,-488.78 623.75,-548.62 617.66,-551.57 610.97,-554.23 604.44,-556.55"/>
<polygon fill="#63b8ff" stroke="#63b8ff" points="933.95,-354.44 939.74,-345.57 929.68,-348.9 933.95,-354.44"/>
</a>
</g>
</g>
<!-- Node217 -->
<g id="Node000217" class="node">
<title>Node217</title>
<g id="a_Node000217"><a xlink:href="ldo_8c.html#a219aa86777779dccae2c1bf9008db70a" target="_top" xlink:title=" ">
<polygon fill="white" stroke="#666666" points="871.75,-140.25 780,-140.25 780,-121 871.75,-121 871.75,-140.25"/>
<text xml:space="preserve" text-anchor="middle" x="825.88" y="-126.75" font-family="Helvetica,sans-Serif" font-size="10.00">luaD_shrinkstack</text>
</a>
</g>
</g>
<!-- Node1&#45;&gt;Node217 -->
<g id="edge26_Node000001_Node000217" class="edge">
<title>Node1&#45;&gt;Node217</title>
<g id="a_edge26_Node000001_Node000217"><a xlink:title=" ">
<path fill="none" stroke="#63b8ff" d="M941.51,-314.94C914.88,-272.13 852.54,-171.89 832.91,-140.32"/>
<polygon fill="#63b8ff" stroke="#63b8ff" points="938.41,-316.58 946.66,-323.22 944.35,-312.88 938.41,-316.58"/>
</a>
</g>
</g>
<!-- Node427 -->
<g id="Node000427" class="node">
<title>Node427</title>
<g id="a_Node000427"><a xlink:href="lstate_8c.html#a3363b8b529d3f7d76cb31aae2494bf7e" target="_top" xlink:title=" ">
<polygon fill="white" stroke="#666666" points="870.62,-344.25 781.12,-344.25 781.12,-325 870.62,-325 870.62,-344.25"/>
<text xml:space="preserve" text-anchor="middle" x="825.88" y="-330.75" font-family="Helvetica,sans-Serif" font-size="10.00">luaE_resetthread</text>
</a>
</g>
</g>
<!-- Node1&#45;&gt;Node427 -->
<g id="edge39_Node000001_Node000427" class="edge">
<title>Node1&#45;&gt;Node427</title>
<g id="a_edge39_Node000001_Node000427"><a xlink:title=" ">
<path fill="none" stroke="#63b8ff" d="M896.23,-334.62C887.79,-334.62 879.21,-334.62 871.1,-334.62"/>
<polygon fill="#63b8ff" stroke="#63b8ff" points="896.07,-338.13 906.07,-334.63 896.07,-331.13 896.07,-338.13"/>
</a>
</g>
</g>
<!-- Node3 -->
<g id="Node000003" class="node">
<title>Node3</title>
<g id="a_Node000003"><a xlink:href="lapi_8c.html#a1d762b92d5d82d6fa9f54ccf5c89d6a2" target="_top" xlink:title=" ">
<polygon fill="white" stroke="#666666" points="464.12,-571.25 379.88,-571.25 379.88,-552 464.12,-552 464.12,-571.25"/>
<text xml:space="preserve" text-anchor="middle" x="422" y="-557.75" font-family="Helvetica,sans-Serif" font-size="10.00">lua_checkstack</text>
</a>
</g>
</g>
<!-- Node2&#45;&gt;Node3 -->
<g id="edge2_Node000002_Node000003" class="edge">
<title>Node2&#45;&gt;Node3</title>
<g id="a_edge2_Node000002_Node000003"><a xlink:title=" ">
<path fill="none" stroke="#63b8ff" d="M514.65,-564.78C498.07,-564.21 480.08,-563.59 464.45,-563.05"/>
<polygon fill="#63b8ff" stroke="#63b8ff" points="514.22,-568.27 524.33,-565.11 514.46,-561.27 514.22,-568.27"/>
</a>
</g>
</g>
<!-- Node4 -->
<g id="Node000004" class="node">
<title>Node4</title>
<g id="a_Node000004"><a xlink:href="lcorolib_8c.html#aaa37b3a30ab0c6daef7fae8951fef3e7" target="_top" xlink:title=" ">
<polygon fill="white" stroke="#666666" points="316.5,-326.25 252.5,-326.25 252.5,-307 316.5,-307 316.5,-326.25"/>
<text xml:space="preserve" text-anchor="middle" x="284.5" y="-312.75" font-family="Helvetica,sans-Serif" font-size="10.00">auxresume</text>
</a>
</g>
</g>
<!-- Node3&#45;&gt;Node4 -->
<g id="edge3_Node000003_Node000004" class="edge">
<title>Node3&#45;&gt;Node4</title>
<g id="a_edge3_Node000003_Node000004"><a xlink:title=" ">
<path fill="none" stroke="#63b8ff" d="M410.08,-541.89C382.63,-492.25 311.46,-363.56 291.05,-326.66"/>
<polygon fill="#63b8ff" stroke="#63b8ff" points="406.89,-543.34 414.79,-550.39 413.01,-539.95 406.89,-543.34"/>
</a>
</g>
</g>
<!-- Node8 -->
<g id="Node000008" class="node">
<title>Node8</title>
<g id="a_Node000008"><a xlink:href="ldblib_8c.html#aef541490d49259cf4cb14e7f9597600e" target="_top" xlink:title=" ">
<polygon fill="white" stroke="#666666" points="317.62,-844.25 251.38,-844.25 251.38,-825 317.62,-825 317.62,-844.25"/>
<text xml:space="preserve" text-anchor="middle" x="284.5" y="-830.75" font-family="Helvetica,sans-Serif" font-size="10.00">checkstack</text>
</a>
</g>
</g>
<!-- Node3&#45;&gt;Node8 -->
<g id="edge6_Node000003_Node000008" class="edge">
<title>Node3&#45;&gt;Node8</title>
<g id="a_edge6_Node000003_Node000008"><a xlink:title=" ">
<path fill="none" stroke="#63b8ff" d="M410.99,-581.79C383.94,-636.29 310.09,-785.08 290.39,-824.78"/>
<polygon fill="#63b8ff" stroke="#63b8ff" points="414.03,-583.53 415.34,-573.02 407.76,-580.42 414.03,-583.53"/>
</a>
</g>
</g>
<!-- Node14 -->
<g id="Node000014" class="node">
<title>Node14</title>
<g id="a_Node000014"><a xlink:href="lauxlib_8c.html#a7c46517055e0e8cb25e61b959709083a" target="_top" xlink:title=" ">
<polygon fill="white" stroke="#666666" points="329.25,-571.25 239.75,-571.25 239.75,-552 329.25,-552 329.25,-571.25"/>
<text xml:space="preserve" text-anchor="middle" x="284.5" y="-557.75" font-family="Helvetica,sans-Serif" font-size="10.00">luaL_checkstack</text>
</a>
</g>
</g>
<!-- Node3&#45;&gt;Node14 -->
<g id="edge12_Node000003_Node000014" class="edge">
<title>Node3&#45;&gt;Node14</title>
<g id="a_edge12_Node000003_Node000014"><a xlink:title=" ">
<path fill="none" stroke="#63b8ff" d="M368.12,-561.62C355.33,-561.62 341.79,-561.62 329.46,-561.62"/>
<polygon fill="#63b8ff" stroke="#63b8ff" points="368.1,-565.13 378.1,-561.63 368.1,-558.13 368.1,-565.13"/>
</a>
</g>
</g>
<!-- Node145 -->
<g id="Node000145" class="node">
<title>Node145</title>
<g id="a_Node000145"><a xlink:href="ltablib_8c.html#ae37fc20bd47c2a4385a87a12090f4e9b" target="_top" xlink:title=" ">
<polygon fill="white" stroke="#666666" points="309.75,-534.25 259.25,-534.25 259.25,-515 309.75,-515 309.75,-534.25"/>
<text xml:space="preserve" text-anchor="middle" x="284.5" y="-520.75" font-family="Helvetica,sans-Serif" font-size="10.00">tunpack</text>
</a>
</g>
</g>
<!-- Node3&#45;&gt;Node145 -->
<g id="edge25_Node000003_Node000145" class="edge">
<title>Node3&#45;&gt;Node145</title>
<g id="a_edge25_Node000003_Node000145"><a xlink:title=" ">
<path fill="none" stroke="#63b8ff" d="M373.14,-548.56C351.83,-542.74 327.64,-536.13 310.08,-531.34"/>
<polygon fill="#63b8ff" stroke="#63b8ff" points="371.95,-551.86 382.51,-551.12 373.79,-545.11 371.95,-551.86"/>
</a>
</g>
</g>
<!-- Node5 -->
<g id="Node000005" class="node">
<title>Node5</title>
<g id="a_Node000005"><a xlink:href="lcorolib_8c.html#a777abb20385a69ce4787f72bd90375a7" target="_top" xlink:title=" ">
<polygon fill="#fff0f0" stroke="red" points="189.88,-289.25 112.38,-289.25 112.38,-270 189.88,-270 189.88,-289.25"/>
<text xml:space="preserve" text-anchor="middle" x="151.12" y="-275.75" font-family="Helvetica,sans-Serif" font-size="10.00">luaB_auxwrap</text>
</a>
</g>
</g>
<!-- Node4&#45;&gt;Node5 -->
<g id="edge4_Node000004_Node000005" class="edge">
<title>Node4&#45;&gt;Node5</title>
<g id="a_edge4_Node000004_Node000005"><a xlink:title=" ">
<path fill="none" stroke="#63b8ff" d="M241.17,-304.7C224.01,-299.87 204.41,-294.35 187.98,-289.72"/>
<polygon fill="#63b8ff" stroke="#63b8ff" points="240,-308.01 250.58,-307.35 241.9,-301.27 240,-308.01"/>
</a>
</g>
</g>
<!-- Node7 -->
<g id="Node000007" class="node">
<title>Node7</title>
<g id="a_Node000007"><a xlink:href="lcorolib_8c.html#a76f5d80387eeb1c7d31eb5f9cb6c9392" target="_top" xlink:title=" ">
<polygon fill="white" stroke="#666666" points="192.88,-326.25 109.38,-326.25 109.38,-307 192.88,-307 192.88,-326.25"/>
<text xml:space="preserve" text-anchor="middle" x="151.12" y="-312.75" font-family="Helvetica,sans-Serif" font-size="10.00">luaB_coresume</text>
</a>
</g>
</g>
<!-- Node4&#45;&gt;Node7 -->
<g id="edge5_Node000004_Node000007" class="edge">
<title>Node4&#45;&gt;Node7</title>
<g id="a_edge5_Node000004_Node000007"><a xlink:title=" ">
<path fill="none" stroke="#63b8ff" d="M240.8,-316.62C225.55,-316.62 208.4,-316.62 193.28,-316.62"/>
<polygon fill="#63b8ff" stroke="#63b8ff" points="240.52,-320.13 250.52,-316.63 240.52,-313.13 240.52,-320.13"/>
</a>
</g>
</g>
<!-- Node9 -->
<g id="Node000009" class="node">
<title>Node9</title>
<g id="a_Node000009"><a xlink:href="ldblib_8c.html#a6a624ae8d8ff673e72a317b280ed008d" target="_top" xlink:title=" ">
<polygon fill="white" stroke="#666666" points="184.25,-863.25 118,-863.25 118,-844 184.25,-844 184.25,-863.25"/>
<text xml:space="preserve" text-anchor="middle" x="151.12" y="-849.75" font-family="Helvetica,sans-Serif" font-size="10.00">db_gethook</text>
</a>
</g>
</g>
<!-- Node8&#45;&gt;Node9 -->
<g id="edge7_Node000008_Node000009" class="edge">
<title>Node8&#45;&gt;Node9</title>
<g id="a_edge7_Node000008_Node000009"><a xlink:title=" ">
<path fill="none" stroke="#63b8ff" d="M239.64,-840.97C221.69,-843.56 201.27,-846.52 184.68,-848.92"/>
<polygon fill="#63b8ff" stroke="#63b8ff" points="240.13,-844.43 249.53,-839.54 239.13,-837.51 240.13,-844.43"/>
</a>
</g>
</g>
<!-- Node10 -->
<g id="Node000010" class="node">
<title>Node10</title>
<g id="a_Node000010"><a xlink:href="ldblib_8c.html#a4eb57e66c2efb2d31c9b9e1b01d27e13" target="_top" xlink:title=" ">
<polygon fill="white" stroke="#666666" points="181.62,-826.25 120.62,-826.25 120.62,-807 181.62,-807 181.62,-826.25"/>
<text xml:space="preserve" text-anchor="middle" x="151.12" y="-812.75" font-family="Helvetica,sans-Serif" font-size="10.00">db_getinfo</text>
</a>
</g>
</g>
<!-- Node8&#45;&gt;Node10 -->
<g id="edge8_Node000008_Node000010" class="edge">
<title>Node8&#45;&gt;Node10</title>
<g id="a_edge8_Node000008_Node000010"><a xlink:title=" ">
<path fill="none" stroke="#63b8ff" d="M239.65,-828.62C220.7,-826.02 199.02,-823.05 181.98,-820.72"/>
<polygon fill="#63b8ff" stroke="#63b8ff" points="239.14,-832.08 249.53,-829.97 240.09,-825.14 239.14,-832.08"/>
</a>
</g>
</g>
<!-- Node11 -->
<g id="Node000011" class="node">
<title>Node11</title>
<g id="a_Node000011"><a xlink:href="ldblib_8c.html#ae802ce7397e9ebb08a90b69976578ecc" target="_top" xlink:title=" ">
<polygon fill="white" stroke="#666666" points="183.88,-789.25 118.38,-789.25 118.38,-770 183.88,-770 183.88,-789.25"/>
<text xml:space="preserve" text-anchor="middle" x="151.12" y="-775.75" font-family="Helvetica,sans-Serif" font-size="10.00">db_getlocal</text>
</a>
</g>
</g>
<!-- Node8&#45;&gt;Node11 -->
<g id="edge9_Node000008_Node000011" class="edge">
<title>Node8&#45;&gt;Node11</title>
<g id="a_edge9_Node000008_Node000011"><a xlink:title=" ">
<path fill="none" stroke="#63b8ff" d="M253.32,-819.76C238.53,-812.7 220.37,-804.36 203.75,-797.62 196.98,-794.88 189.61,-792.16 182.61,-789.69"/>
<polygon fill="#63b8ff" stroke="#63b8ff" points="251.53,-822.79 262.06,-823.98 254.57,-816.48 251.53,-822.79"/>
</a>
</g>
</g>
<!-- Node12 -->
<g id="Node000012" class="node">
<title>Node12</title>
<g id="a_Node000012"><a xlink:href="ldblib_8c.html#aa0c362d361f8f9bd8a002c34c393e2b0" target="_top" xlink:title=" ">
<polygon fill="white" stroke="#666666" points="184.25,-937.25 118,-937.25 118,-918 184.25,-918 184.25,-937.25"/>
<text xml:space="preserve" text-anchor="middle" x="151.12" y="-923.75" font-family="Helvetica,sans-Serif" font-size="10.00">db_sethook</text>
</a>
</g>
</g>
<!-- Node8&#45;&gt;Node12 -->
<g id="edge10_Node000008_Node000012" class="edge">
<title>Node8&#45;&gt;Node12</title>
<g id="a_edge10_Node000008_Node000012"><a xlink:title=" ">
<path fill="none" stroke="#63b8ff" d="M268.13,-852.95C253.2,-869.73 229.12,-894.24 203.75,-909.62 197.91,-913.17 191.27,-916.14 184.74,-918.59"/>
<polygon fill="#63b8ff" stroke="#63b8ff" points="270.54,-855.52 274.45,-845.67 265.25,-850.93 270.54,-855.52"/>
</a>
</g>
</g>
<!-- Node13 -->
<g id="Node000013" class="node">
<title>Node13</title>
<g id="a_Node000013"><a xlink:href="ldblib_8c.html#a11cfe90e96e7ea907a767f5109f7ef4b" target="_top" xlink:title=" ">
<polygon fill="white" stroke="#666666" points="183.88,-900.25 118.38,-900.25 118.38,-881 183.88,-881 183.88,-900.25"/>
<text xml:space="preserve" text-anchor="middle" x="151.12" y="-886.75" font-family="Helvetica,sans-Serif" font-size="10.00">db_setlocal</text>
</a>
</g>
</g>
<!-- Node8&#45;&gt;Node13 -->
<g id="edge11_Node000008_Node000013" class="edge">
<title>Node8&#45;&gt;Node13</title>
<g id="a_edge11_Node000008_Node000013"><a xlink:title=" ">
<path fill="none" stroke="#63b8ff" d="M253.96,-849.65C239.08,-856.97 220.64,-865.68 203.75,-872.62 197.08,-875.37 189.82,-878.07 182.91,-880.51"/>
<polygon fill="#63b8ff" stroke="#63b8ff" points="255.36,-852.86 262.75,-845.27 252.24,-846.6 255.36,-852.86"/>
</a>
</g>
</g>
<!-- Node15 -->
<g id="Node000015" class="node">
<title>Node15</title>
<g id="a_Node000015"><a xlink:href="lutf8lib_8c.html#af4280cee645f392590f2ed63a6301320" target="_top" xlink:title=" ">
<polygon fill="white" stroke="#666666" points="180.12,-567.25 122.12,-567.25 122.12,-548 180.12,-548 180.12,-567.25"/>
<text xml:space="preserve" text-anchor="middle" x="151.12" y="-553.75" font-family="Helvetica,sans-Serif" font-size="10.00">codepoint</text>
</a>
</g>
</g>
<!-- Node14&#45;&gt;Node15 -->
<g id="edge13_Node000014_Node000015" class="edge">
<title>Node14&#45;&gt;Node15</title>
<g id="a_edge13_Node000014_Node000015"><a xlink:title=" ">
<path fill="none" stroke="#63b8ff" d="M228.15,-559.94C211.64,-559.44 194.24,-558.91 180.25,-558.48"/>
<polygon fill="#63b8ff" stroke="#63b8ff" points="227.77,-563.43 237.88,-560.24 227.99,-556.43 227.77,-563.43"/>
</a>
</g>
</g>
<!-- Node16 -->
<g id="Node000016" class="node">
<title>Node16</title>
<g id="a_Node000016"><a xlink:href="liolib_8c.html#addece2406777a40f0f591e3518293932" target="_top" xlink:title=" ">
<polygon fill="#fff0f0" stroke="red" points="173.75,-491.25 128.5,-491.25 128.5,-472 173.75,-472 173.75,-491.25"/>
<text xml:space="preserve" text-anchor="middle" x="151.12" y="-477.75" font-family="Helvetica,sans-Serif" font-size="10.00">g_read</text>
</a>
</g>
</g>
<!-- Node14&#45;&gt;Node16 -->
<g id="edge14_Node000014_Node000016" class="edge">
<title>Node14&#45;&gt;Node16</title>
<g id="a_edge14_Node000014_Node000016"><a xlink:title=" ">
<path fill="none" stroke="#63b8ff" d="M244.55,-546.65C242.89,-545.69 241.29,-544.68 239.75,-543.62 220.57,-530.46 222.63,-519.21 203.75,-505.62 194.76,-499.16 183.76,-493.76 174.22,-489.73"/>
<polygon fill="#63b8ff" stroke="#63b8ff" points="242.52,-549.54 253.01,-550.98 245.7,-543.31 242.52,-549.54"/>
</a>
</g>
</g>
<!-- Node19 -->
<g id="Node000019" class="node">
<title>Node19</title>
<g id="a_Node000019"><a xlink:href="liolib_8c.html#ac37d80ee2cc364b4adafcb6f7c20f28b" target="_top" xlink:title=" ">
<polygon fill="#fff0f0" stroke="red" points="62.5,-510.25 0,-510.25 0,-491 62.5,-491 62.5,-510.25"/>
<text xml:space="preserve" text-anchor="middle" x="31.25" y="-496.75" font-family="Helvetica,sans-Serif" font-size="10.00">io_readline</text>
</a>
</g>
</g>
<!-- Node14&#45;&gt;Node19 -->
<g id="edge17_Node000014_Node000019" class="edge">
<title>Node14&#45;&gt;Node19</title>
<g id="a_edge17_Node000014_Node000019"><a xlink:title=" ">
<path fill="none" stroke="#63b8ff" d="M239.49,-548.4C227.91,-545.06 215.39,-541.59 203.75,-538.62 154.69,-526.13 97.15,-513.86 62.75,-506.78"/>
<polygon fill="#63b8ff" stroke="#63b8ff" points="238.22,-551.67 248.8,-551.11 240.18,-544.95 238.22,-551.67"/>
</a>
</g>
</g>
<!-- Node23 -->
<g id="Node000023" class="node">
<title>Node23</title>
<g id="a_Node000023"><a xlink:href="lbaselib_8c.html#a9112b62ef9c37047581bf2576374bcef" target="_top" xlink:title=" ">
<polygon fill="#fff0f0" stroke="red" points="191,-454.25 111.25,-454.25 111.25,-435 191,-435 191,-454.25"/>
<text xml:space="preserve" text-anchor="middle" x="151.12" y="-440.75" font-family="Helvetica,sans-Serif" font-size="10.00">generic_reader</text>
</a>
</g>
</g>
<!-- Node14&#45;&gt;Node23 -->
<g id="edge16_Node000014_Node000023" class="edge">
<title>Node14&#45;&gt;Node23</title>
<g id="a_edge16_Node000014_Node000023"><a xlink:title=" ">
<path fill="none" stroke="#63b8ff" d="M241.67,-545.37C241.01,-544.81 240.37,-544.23 239.75,-543.62 211.51,-516.16 232.73,-489.31 203.75,-462.62 200.12,-459.28 195.83,-456.55 191.31,-454.33"/>
<polygon fill="#63b8ff" stroke="#63b8ff" points="239.63,-548.22 249.89,-550.86 243.52,-542.4 239.63,-548.22"/>
</a>
</g>
</g>
<!-- Node25 -->
<g id="Node000025" class="node">
<title>Node25</title>
<g id="a_Node000025"><a xlink:href="lua_8c.html#aa6faba0570416a2dfe7783da2dcbf6df" target="_top" xlink:title=" ">
<polygon fill="#fff0f0" stroke="red" points="172.25,-417.25 130,-417.25 130,-398 172.25,-398 172.25,-417.25"/>
<text xml:space="preserve" text-anchor="middle" x="151.12" y="-403.75" font-family="Helvetica,sans-Serif" font-size="10.00">l_print</text>
</a>
</g>
</g>
<!-- Node14&#45;&gt;Node25 -->
<g id="edge18_Node000014_Node000025" class="edge">
<title>Node14&#45;&gt;Node25</title>
<g id="a_edge18_Node000014_Node000025"><a xlink:title=" ">
<path fill="none" stroke="#63b8ff" d="M240.86,-544.78C240.48,-544.41 240.11,-544.02 239.75,-543.62 202.85,-503.07 241.75,-465.15 203.75,-425.62 195.59,-417.14 183.23,-412.65 172.64,-410.28"/>
<polygon fill="#63b8ff" stroke="#63b8ff" points="238.6,-547.46 248.7,-550.66 242.79,-541.86 238.6,-547.46"/>
</a>
</g>
</g>
<!-- Node29 -->
<g id="Node000029" class="node">
<title>Node29</title>
<g id="a_Node000029"><a xlink:href="lauxlib_8c.html#a4cab22d0cb403fa6b94f2542f4303096" target="_top" xlink:title=" ">
<polygon fill="#fff0f0" stroke="red" points="189.5,-380.25 112.75,-380.25 112.75,-361 189.5,-361 189.5,-380.25"/>
<text xml:space="preserve" text-anchor="middle" x="151.12" y="-366.75" font-family="Helvetica,sans-Serif" font-size="10.00">luaL_setfuncs</text>
</a>
</g>
</g>
<!-- Node14&#45;&gt;Node29 -->
<g id="edge19_Node000014_Node000029" class="edge">
<title>Node14&#45;&gt;Node29</title>
<g id="a_edge19_Node000014_Node000029"><a xlink:title=" ">
<path fill="none" stroke="#63b8ff" d="M240.82,-544.82C240.45,-544.43 240.1,-544.03 239.75,-543.62 193.95,-489.73 251.01,-441.24 203.75,-388.62 199.94,-384.39 195.09,-381.15 189.88,-378.67"/>
<polygon fill="#63b8ff" stroke="#63b8ff" points="238.47,-547.43 248.51,-550.82 242.78,-541.91 238.47,-547.43"/>
</a>
</g>
</g>
<!-- Node103 -->
<g id="Node000103" class="node">
<title>Node103</title>
<g id="a_Node000103"><a xlink:href="lstrlib_8c.html#ad14703c4bc40d7c1951dedb7bc7554f7" target="_top" xlink:title=" ">
<polygon fill="#fff0f0" stroke="red" points="191,-752.25 111.25,-752.25 111.25,-733 191,-733 191,-752.25"/>
<text xml:space="preserve" text-anchor="middle" x="151.12" y="-738.75" font-family="Helvetica,sans-Serif" font-size="10.00">push_captures</text>
</a>
</g>
</g>
<!-- Node14&#45;&gt;Node103 -->
<g id="edge20_Node000014_Node000103" class="edge">
<title>Node14&#45;&gt;Node103</title>
<g id="a_edge20_Node000014_Node000103"><a xlink:title=" ">
<path fill="none" stroke="#63b8ff" d="M278.73,-582.72C269.86,-617.21 247.62,-685.71 203.75,-724.62 200.13,-727.84 195.9,-730.48 191.45,-732.66"/>
<polygon fill="#63b8ff" stroke="#63b8ff" points="282.09,-583.69 281.05,-573.14 275.29,-582.04 282.09,-583.69"/>
</a>
</g>
</g>
<!-- Node109 -->
<g id="Node000109" class="node">
<title>Node109</title>
<g id="a_Node000109"><a xlink:href="lua_8c.html#a1e73bab660617a11ddcbb7d647980d40" target="_top" xlink:title=" ">
<polygon fill="#fff0f0" stroke="red" points="179,-715.25 123.25,-715.25 123.25,-696 179,-696 179,-715.25"/>
<text xml:space="preserve" text-anchor="middle" x="151.12" y="-701.75" font-family="Helvetica,sans-Serif" font-size="10.00">pushargs</text>
</a>
</g>
</g>
<!-- Node14&#45;&gt;Node109 -->
<g id="edge21_Node000014_Node000109" class="edge">
<title>Node14&#45;&gt;Node109</title>
<g id="a_edge21_Node000014_Node000109"><a xlink:title=" ">
<path fill="none" stroke="#63b8ff" d="M275.61,-582.19C263.95,-609.95 239.59,-659.17 203.75,-687.62 196.69,-693.23 187.76,-697.16 179.32,-699.87"/>
<polygon fill="#63b8ff" stroke="#63b8ff" points="278.76,-583.73 279.25,-573.14 272.27,-581.11 278.76,-583.73"/>
</a>
</g>
</g>
<!-- Node110 -->
<g id="Node000110" class="node">
<title>Node110</title>
<g id="a_Node000110"><a xlink:href="lauxlib_8c.html#a4f35430f7ecfcbd5f507e550937046b4" target="_top" xlink:title=" ">
<polygon fill="#fff0f0" stroke="red" points="203.75,-678.25 98.5,-678.25 98.5,-659 203.75,-659 203.75,-678.25"/>
<text xml:space="preserve" text-anchor="middle" x="151.12" y="-664.75" font-family="Helvetica,sans-Serif" font-size="10.00">pushglobalfuncname</text>
</a>
</g>
</g>
<!-- Node14&#45;&gt;Node110 -->
<g id="edge22_Node000014_Node000110" class="edge">
<title>Node14&#45;&gt;Node110</title>
<g id="a_edge22_Node000014_Node000110"><a xlink:title=" ">
<path fill="none" stroke="#63b8ff" d="M270.62,-581.03C256.42,-601.05 231.83,-631.91 203.75,-650.62 199.09,-653.73 193.84,-656.36 188.51,-658.57"/>
<polygon fill="#63b8ff" stroke="#63b8ff" points="273.42,-583.14 276.21,-572.92 267.65,-579.17 273.42,-583.14"/>
</a>
</g>
</g>
<!-- Node137 -->
<g id="Node000137" class="node">
<title>Node137</title>
<g id="a_Node000137"><a xlink:href="lstrlib_8c.html#ae561770420cfd1894054415df9d4c423" target="_top" xlink:title=" ">
<polygon fill="white" stroke="#666666" points="176.75,-641.25 125.5,-641.25 125.5,-622 176.75,-622 176.75,-641.25"/>
<text xml:space="preserve" text-anchor="middle" x="151.12" y="-627.75" font-family="Helvetica,sans-Serif" font-size="10.00">str_byte</text>
</a>
</g>
</g>
<!-- Node14&#45;&gt;Node137 -->
<g id="edge23_Node000014_Node000137" class="edge">
<title>Node14&#45;&gt;Node137</title>
<g id="a_edge23_Node000014_Node000137"><a xlink:title=" ">
<path fill="none" stroke="#63b8ff" d="M261,-578.42C245.48,-589.45 224.07,-603.64 203.75,-613.62 195.32,-617.77 185.68,-621.4 177.04,-624.29"/>
<polygon fill="#63b8ff" stroke="#63b8ff" points="263,-581.29 269.04,-572.58 258.89,-575.62 263,-581.29"/>
</a>
</g>
</g>
<!-- Node115 -->
<g id="Node000115" class="node">
<title>Node115</title>
<g id="a_Node000115"><a xlink:href="lstrlib_8c.html#a3f3c1925e7829cbe972a744fa9168ec3" target="_top" xlink:title=" ">
<polygon fill="white" stroke="#666666" points="183.12,-604.25 119.12,-604.25 119.12,-585 183.12,-585 183.12,-604.25"/>
<text xml:space="preserve" text-anchor="middle" x="151.12" y="-590.75" font-family="Helvetica,sans-Serif" font-size="10.00">str_unpack</text>
</a>
</g>
</g>
<!-- Node14&#45;&gt;Node115 -->
<g id="edge24_Node000014_Node000115" class="edge">
<title>Node14&#45;&gt;Node115</title>
<g id="a_edge24_Node000014_Node000115"><a xlink:title=" ">
<path fill="none" stroke="#63b8ff" d="M232.67,-574.39C216.01,-578.58 198.01,-583.1 183.26,-586.8"/>
<polygon fill="#63b8ff" stroke="#63b8ff" points="233.06,-577.9 241.9,-572.07 231.35,-571.12 233.06,-577.9"/>
</a>
</g>
</g>
<!-- Node16&#45;&gt;Node19 -->
<g id="edge15_Node000016_Node000019" class="edge">
<title>Node16&#45;&gt;Node19</title>
<g id="a_edge15_Node000016_Node000019"><a xlink:title=" ">
<path fill="none" stroke="#63b8ff" d="M117.13,-486.94C100.14,-489.68 79.56,-493 62.91,-495.68"/>
<polygon fill="#63b8ff" stroke="#63b8ff" points="117.42,-490.44 126.74,-485.4 116.31,-483.53 117.42,-490.44"/>
</a>
</g>
</g>
<!-- Node218 -->
<g id="Node000218" class="node">
<title>Node218</title>
<g id="a_Node000218"><a xlink:href="ldo_8c.html#af44d6f238191494fb9fbb39c2876e5d2" target="_top" xlink:title=" ">
<polygon fill="white" stroke="#666666" points="734.25,-158.25 669.5,-158.25 669.5,-139 734.25,-139 734.25,-158.25"/>
<text xml:space="preserve" text-anchor="middle" x="701.88" y="-144.75" font-family="Helvetica,sans-Serif" font-size="10.00">finishpcallk</text>
</a>
</g>
</g>
<!-- Node217&#45;&gt;Node218 -->
<g id="edge27_Node000217_Node000218" class="edge">
<title>Node217&#45;&gt;Node218</title>
<g id="a_edge27_Node000217_Node000218"><a xlink:title=" ">
<path fill="none" stroke="#63b8ff" d="M768.66,-138.92C756.91,-140.65 744.92,-142.42 734.45,-143.97"/>
<polygon fill="#63b8ff" stroke="#63b8ff" points="768.91,-142.42 778.3,-137.5 767.89,-135.49 768.91,-142.42"/>
</a>
</g>
</g>
<!-- Node224 -->
<g id="Node000224" class="node">
<title>Node224</title>
<g id="a_Node000224"><a xlink:href="ldo_8c.html#a1ad7f845cc62b110e3fcc0ae187d7c85" target="_top" xlink:title=" ">
<polygon fill="white" stroke="#666666" points="732.75,-112.25 671,-112.25 671,-93 732.75,-93 732.75,-112.25"/>
<text xml:space="preserve" text-anchor="middle" x="701.88" y="-98.75" font-family="Helvetica,sans-Serif" font-size="10.00">luaD_pcall</text>
</a>
</g>
</g>
<!-- Node217&#45;&gt;Node224 -->
<g id="edge30_Node000217_Node000224" class="edge">
<title>Node217&#45;&gt;Node224</title>
<g id="a_edge30_Node000217_Node000224"><a xlink:title=" ">
<path fill="none" stroke="#63b8ff" d="M769.87,-118C757.23,-115.1 744.24,-112.12 733.11,-109.56"/>
<polygon fill="#63b8ff" stroke="#63b8ff" points="768.83,-121.35 779.36,-120.18 770.39,-114.53 768.83,-121.35"/>
</a>
</g>
</g>
<!-- Node698 -->
<g id="Node000698" class="node">
<title>Node698</title>
<g id="a_Node000698"><a xlink:href="lgc_8c.html#a5759d7a25445fd28e24980d7f35a99b2" target="_top" xlink:title=" ">
<polygon fill="white" stroke="#666666" points="741,-38.25 662.75,-38.25 662.75,-19 741,-19 741,-38.25"/>
<text xml:space="preserve" text-anchor="middle" x="701.88" y="-24.75" font-family="Helvetica,sans-Serif" font-size="10.00">traversethread</text>
</a>
</g>
</g>
<!-- Node217&#45;&gt;Node698 -->
<g id="edge37_Node000217_Node000698" class="edge">
<title>Node217&#45;&gt;Node698</title>
<g id="a_edge37_Node000217_Node000698"><a xlink:title=" ">
<path fill="none" stroke="#63b8ff" d="M804.59,-113.67C778.92,-92.2 735.54,-55.93 714.72,-38.53"/>
<polygon fill="#63b8ff" stroke="#63b8ff" points="802.1,-116.14 812.02,-119.87 806.59,-110.77 802.1,-116.14"/>
</a>
</g>
</g>
<!-- Node219 -->
<g id="Node000219" class="node">
<title>Node219</title>
<g id="a_Node000219"><a xlink:href="ldo_8c.html#a26a3f3248d1a5d66da6ac8cd4e0a7eeb" target="_top" xlink:title=" ">
<polygon fill="white" stroke="#666666" points="600.12,-167.25 538.38,-167.25 538.38,-148 600.12,-148 600.12,-167.25"/>
<text xml:space="preserve" text-anchor="middle" x="569.25" y="-153.75" font-family="Helvetica,sans-Serif" font-size="10.00">finishCcall</text>
</a>
</g>
</g>
<!-- Node218&#45;&gt;Node219 -->
<g id="edge28_Node000218_Node000219" class="edge">
<title>Node218&#45;&gt;Node219</title>
<g id="a_edge28_Node000218_Node000219"><a xlink:title=" ">
<path fill="none" stroke="#63b8ff" d="M657.93,-151.58C639.05,-152.88 617.33,-154.38 600.23,-155.56"/>
<polygon fill="#63b8ff" stroke="#63b8ff" points="658.01,-155.09 667.74,-150.91 657.53,-148.1 658.01,-155.09"/>
</a>
</g>
</g>
<!-- Node220 -->
<g id="Node000220" class="node">
<title>Node220</title>
<g id="a_Node000220"><a xlink:href="ldo_8c.html#a3baab9d298c0c32cb74a9a079d7244de" target="_top" xlink:title=" ">
<polygon fill="#fff0f0" stroke="red" points="441.62,-185.25 402.38,-185.25 402.38,-166 441.62,-166 441.62,-185.25"/>
<text xml:space="preserve" text-anchor="middle" x="422" y="-171.75" font-family="Helvetica,sans-Serif" font-size="10.00">unroll</text>
</a>
</g>
</g>
<!-- Node219&#45;&gt;Node220 -->
<g id="edge29_Node000219_Node000220" class="edge">
<title>Node219&#45;&gt;Node220</title>
<g id="a_edge29_Node000219_Node000220"><a xlink:title=" ">
<path fill="none" stroke="#63b8ff" d="M527.1,-162.73C499.14,-166.19 463.47,-170.61 441.97,-173.27"/>
<polygon fill="#63b8ff" stroke="#63b8ff" points="527.16,-166.24 536.65,-161.54 526.3,-159.3 527.16,-166.24"/>
</a>
</g>
</g>
<!-- Node225 -->
<g id="Node000225" class="node">
<title>Node225</title>
<g id="a_Node000225"><a xlink:href="lgc_8c.html#aaf7c6e9e6a93da6bb64ffe7654668ba3" target="_top" xlink:title=" ">
<polygon fill="white" stroke="#666666" points="591.88,-130.25 546.62,-130.25 546.62,-111 591.88,-111 591.88,-130.25"/>
<text xml:space="preserve" text-anchor="middle" x="569.25" y="-116.75" font-family="Helvetica,sans-Serif" font-size="10.00">GCTM</text>
</a>
</g>
</g>
<!-- Node224&#45;&gt;Node225 -->
<g id="edge31_Node000224_Node000225" class="edge">
<title>Node224&#45;&gt;Node225</title>
<g id="a_edge31_Node000224_Node000225"><a xlink:title=" ">
<path fill="none" stroke="#63b8ff" d="M659.38,-108.34C637.1,-111.41 610.52,-115.08 592.22,-117.6"/>
<polygon fill="#63b8ff" stroke="#63b8ff" points="659.65,-111.84 669.08,-107.01 658.7,-104.9 659.65,-111.84"/>
</a>
</g>
</g>
<!-- Node678 -->
<g id="Node000678" class="node">
<title>Node678</title>
<g id="a_Node000678"><a xlink:href="lapi_8c.html#a624df4cb2312b762c4fb528ecc889385" target="_top" xlink:title=" ">
<polygon fill="#fff0f0" stroke="red" points="599,-93.25 539.5,-93.25 539.5,-74 599,-74 599,-93.25"/>
<text xml:space="preserve" text-anchor="middle" x="569.25" y="-79.75" font-family="Helvetica,sans-Serif" font-size="10.00">lua_pcallk</text>
</a>
</g>
</g>
<!-- Node224&#45;&gt;Node678 -->
<g id="edge34_Node000224_Node000678" class="edge">
<title>Node224&#45;&gt;Node678</title>
<g id="a_edge34_Node000224_Node000678"><a xlink:title=" ">
<path fill="none" stroke="#63b8ff" d="M659.26,-96.57C639.8,-93.74 617.09,-90.44 599.48,-87.88"/>
<polygon fill="#63b8ff" stroke="#63b8ff" points="658.68,-100.02 669.08,-98 659.69,-93.1 658.68,-100.02"/>
</a>
</g>
</g>
<!-- Node244 -->
<g id="Node000244" class="node">
<title>Node244</title>
<g id="a_Node000244"><a xlink:href="ldo_8c.html#a451f5a18e45a63e1da2eed7d8a2060f5" target="_top" xlink:title=" ">
<polygon fill="#fff0f0" stroke="red" points="623.75,-56.25 514.75,-56.25 514.75,-37 623.75,-37 623.75,-56.25"/>
<text xml:space="preserve" text-anchor="middle" x="569.25" y="-42.75" font-family="Helvetica,sans-Serif" font-size="10.00">luaD_protectedparser</text>
</a>
</g>
</g>
<!-- Node224&#45;&gt;Node244 -->
<g id="edge36_Node000224_Node000244" class="edge">
<title>Node224&#45;&gt;Node244</title>
<g id="a_edge36_Node000224_Node000244"><a xlink:title=" ">
<path fill="none" stroke="#63b8ff" d="M671.97,-87.25C657.67,-79.93 640.02,-71.34 623.75,-64.62 616.96,-61.82 609.55,-59.12 602.47,-56.69"/>
<polygon fill="#63b8ff" stroke="#63b8ff" points="670.35,-90.35 680.84,-91.84 673.57,-84.13 670.35,-90.35"/>
</a>
</g>
</g>
<!-- Node226 -->
<g id="Node000226" class="node">
<title>Node226</title>
<g id="a_Node000226"><a xlink:href="lgc_8c.html#a3c6f43e1b63924361ed0ce31b6d30f8b" target="_top" xlink:title=" ">
<polygon fill="#fff0f0" stroke="red" points="478.75,-111.25 365.25,-111.25 365.25,-92 478.75,-92 478.75,-111.25"/>
<text xml:space="preserve" text-anchor="middle" x="422" y="-97.75" font-family="Helvetica,sans-Serif" font-size="10.00">callallpendingfinalizers</text>
</a>
</g>
</g>
<!-- Node225&#45;&gt;Node226 -->
<g id="edge32_Node000225_Node000226" class="edge">
<title>Node225&#45;&gt;Node226</title>
<g id="a_edge32_Node000225_Node000226"><a xlink:title=" ">
<path fill="none" stroke="#63b8ff" d="M534.93,-116.27C518.43,-114.11 498.04,-111.44 479.21,-108.98"/>
<polygon fill="#63b8ff" stroke="#63b8ff" points="534.32,-119.72 544.69,-117.54 535.23,-112.78 534.32,-119.72"/>
</a>
</g>
</g>
<!-- Node693 -->
<g id="Node000693" class="node">
<title>Node693</title>
<g id="a_Node000693"><a xlink:href="lgc_8c.html#a5ba38781fc577f890c6f97af9beef40a" target="_top" xlink:title=" ">
<polygon fill="#fff0f0" stroke="red" points="466.75,-148.25 377.25,-148.25 377.25,-129 466.75,-129 466.75,-148.25"/>
<text xml:space="preserve" text-anchor="middle" x="422" y="-134.75" font-family="Helvetica,sans-Serif" font-size="10.00">runafewfinalizers</text>
</a>
</g>
</g>
<!-- Node225&#45;&gt;Node693 -->
<g id="edge33_Node000225_Node000693" class="edge">
<title>Node225&#45;&gt;Node693</title>
<g id="a_edge33_Node000225_Node000693"><a xlink:title=" ">
<path fill="none" stroke="#63b8ff" d="M534.77,-124.77C514.62,-127.27 488.74,-130.48 466.96,-133.18"/>
<polygon fill="#63b8ff" stroke="#63b8ff" points="535.19,-128.25 544.69,-123.54 534.33,-121.3 535.19,-128.25"/>
</a>
</g>
</g>
<!-- Node162 -->
<g id="Node000162" class="node">
<title>Node162</title>
<g id="a_Node000162"><a xlink:href="lbaselib_8c.html#a1fb2725eed679431d070b2e9e7abc223" target="_top" xlink:title=" ">
<polygon fill="white" stroke="#666666" points="452.5,-74.25 391.5,-74.25 391.5,-55 452.5,-55 452.5,-74.25"/>
<text xml:space="preserve" text-anchor="middle" x="422" y="-60.75" font-family="Helvetica,sans-Serif" font-size="10.00">luaB_pcall</text>
</a>
</g>
</g>
<!-- Node678&#45;&gt;Node162 -->
<g id="edge35_Node000678_Node000162" class="edge">
<title>Node678&#45;&gt;Node162</title>
<g id="a_edge35_Node000678_Node000162"><a xlink:title=" ">
<path fill="none" stroke="#63b8ff" d="M528.07,-78.37C504.31,-75.26 474.71,-71.39 452.99,-68.55"/>
<polygon fill="#63b8ff" stroke="#63b8ff" points="527.34,-81.8 537.7,-79.63 528.24,-74.86 527.34,-81.8"/>
</a>
</g>
</g>
<!-- Node699 -->
<g id="Node000699" class="node">
<title>Node699</title>
<g id="a_Node000699"><a xlink:href="lgc_8c.html#a817005bec4f6438093ec8bff63363f25" target="_top" xlink:title=" ">
<polygon fill="#fff0f0" stroke="red" points="609.5,-19.25 529,-19.25 529,0 609.5,0 609.5,-19.25"/>
<text xml:space="preserve" text-anchor="middle" x="569.25" y="-5.75" font-family="Helvetica,sans-Serif" font-size="10.00">propagatemark</text>
</a>
</g>
</g>
<!-- Node698&#45;&gt;Node699 -->
<g id="edge38_Node000698_Node000699" class="edge">
<title>Node698&#45;&gt;Node699</title>
<g id="a_edge38_Node000698_Node000699"><a xlink:title=" ">
<path fill="none" stroke="#63b8ff" d="M651.18,-21.4C637.5,-19.41 622.85,-17.28 609.82,-15.38"/>
<polygon fill="#63b8ff" stroke="#63b8ff" points="650.49,-24.83 660.89,-22.81 651.5,-17.91 650.49,-24.83"/>
</a>
</g>
</g>
<!-- Node428 -->
<g id="Node000428" class="node">
<title>Node428</title>
<g id="a_Node000428"><a xlink:href="lstate_8c.html#a95ab7e493b56dfead9aac2d2fcbcb408" target="_top" xlink:title=" ">
<polygon fill="white" stroke="#666666" points="744,-260.25 659.75,-260.25 659.75,-241 744,-241 744,-260.25"/>
<text xml:space="preserve" text-anchor="middle" x="701.88" y="-246.75" font-family="Helvetica,sans-Serif" font-size="10.00">lua_closethread</text>
</a>
</g>
</g>
<!-- Node427&#45;&gt;Node428 -->
<g id="edge40_Node000427_Node000428" class="edge">
<title>Node427&#45;&gt;Node428</title>
<g id="a_edge40_Node000427_Node000428"><a xlink:title=" ">
<path fill="none" stroke="#63b8ff" d="M800.96,-318.16C776.08,-301.03 737.96,-274.78 717.33,-260.58"/>
<polygon fill="#63b8ff" stroke="#63b8ff" points="798.93,-321.01 809.15,-323.8 802.9,-315.25 798.93,-321.01"/>
</a>
</g>
</g>
<!-- Node430 -->
<g id="Node000430" class="node">
<title>Node430</title>
<g id="a_Node000430"><a xlink:href="ldo_8c.html#a2b46d9db5b9ca3d5402a0c2ac640a6b0" target="_top" xlink:title=" ">
<polygon fill="white" stroke="#666666" points="734.62,-428.25 669.12,-428.25 669.12,-409 734.62,-409 734.62,-428.25"/>
<text xml:space="preserve" text-anchor="middle" x="701.88" y="-414.75" font-family="Helvetica,sans-Serif" font-size="10.00">luaD_throw</text>
</a>
</g>
</g>
<!-- Node427&#45;&gt;Node430 -->
<g id="edge44_Node000427_Node000430" class="edge">
<title>Node427&#45;&gt;Node430</title>
<g id="a_edge44_Node000427_Node000430"><a xlink:title=" ">
<path fill="none" stroke="#63b8ff" d="M800.96,-351.09C776.08,-368.22 737.96,-394.47 717.33,-408.67"/>
<polygon fill="#63b8ff" stroke="#63b8ff" points="802.9,-354 809.15,-345.45 798.93,-348.24 802.9,-354"/>
</a>
</g>
</g>
<!-- Node428&#45;&gt;Node5 -->
<g id="edge42_Node000428_Node000005" class="edge">
<title>Node428&#45;&gt;Node5</title>
<g id="a_edge42_Node000428_Node000005"><a xlink:title=" ">
<path fill="none" stroke="#63b8ff" d="M648.18,-253.41C538.12,-259.23 286.11,-272.54 190.16,-277.61"/>
<polygon fill="#63b8ff" stroke="#63b8ff" points="648.32,-256.91 658.12,-252.88 647.95,-249.92 648.32,-256.91"/>
</a>
</g>
</g>
<!-- Node429 -->
<g id="Node000429" class="node">
<title>Node429</title>
<g id="a_Node000429"><a xlink:href="lstate_8c.html#afd03e385a4f4f8fcc25230c0e04f48ff" target="_top" xlink:title=" ">
<polygon fill="white" stroke="#666666" points="610.62,-241.25 527.88,-241.25 527.88,-222 610.62,-222 610.62,-241.25"/>
<text xml:space="preserve" text-anchor="middle" x="569.25" y="-227.75" font-family="Helvetica,sans-Serif" font-size="10.00">lua_resetthread</text>
</a>
</g>
</g>
<!-- Node428&#45;&gt;Node429 -->
<g id="edge41_Node000428_Node000429" class="edge">
<title>Node428&#45;&gt;Node429</title>
<g id="a_edge41_Node000428_Node000429"><a xlink:title=" ">
<path fill="none" stroke="#63b8ff" d="M648.32,-242.98C635.84,-241.17 622.72,-239.26 610.86,-237.53"/>
<polygon fill="#63b8ff" stroke="#63b8ff" points="647.65,-246.42 658.05,-244.4 648.65,-239.49 647.65,-246.42"/>
</a>
</g>
</g>
<!-- Node275 -->
<g id="Node000275" class="node">
<title>Node275</title>
<g id="a_Node000275"><a xlink:href="lcorolib_8c.html#a3c6a70201b343432bfeb1f3e09cdde6f" target="_top" xlink:title=" ">
<polygon fill="white" stroke="#666666" points="601.25,-204.25 537.25,-204.25 537.25,-185 601.25,-185 601.25,-204.25"/>
<text xml:space="preserve" text-anchor="middle" x="569.25" y="-190.75" font-family="Helvetica,sans-Serif" font-size="10.00">luaB_close</text>
</a>
</g>
</g>
<!-- Node428&#45;&gt;Node275 -->
<g id="edge43_Node000428_Node000275" class="edge">
<title>Node428&#45;&gt;Node275</title>
<g id="a_edge43_Node000428_Node000275"><a xlink:title=" ">
<path fill="none" stroke="#63b8ff" d="M671.97,-235.25C657.67,-227.93 640.02,-219.34 623.75,-212.62 616.68,-209.71 608.96,-206.9 601.63,-204.4"/>
<polygon fill="#63b8ff" stroke="#63b8ff" points="670.35,-238.35 680.84,-239.84 673.57,-232.13 670.35,-238.35"/>
</a>
</g>
</g>
<!-- Node430&#45;&gt;Node2 -->
<g id="edge49_Node000430_Node000002" class="edge">
<title>Node430&#45;&gt;Node2</title>
<g id="a_edge49_Node000430_Node000002"><a xlink:title=" ">
<path fill="none" stroke="#63b8ff" d="M691.23,-438.53C675.17,-470.97 642.83,-533.2 623.75,-548.62 619.86,-551.77 615.4,-554.37 610.75,-556.53"/>
<polygon fill="#63b8ff" stroke="#63b8ff" points="694.26,-440.3 695.52,-429.78 687.98,-437.22 694.26,-440.3"/>
</a>
</g>
</g>
<!-- Node430&#45;&gt;Node430 -->
<g id="edge50_Node000430_Node000430" class="edge">
<title>Node430&#45;&gt;Node430</title>
<g id="a_edge50_Node000430_Node000430"><a xlink:title=" ">
<path fill="none" stroke="#63b8ff" d="M723.88,-439.65C721.13,-443.53 713.8,-446.25 701.88,-446.25 680.08,-446.25 673.61,-437.15 682.46,-428.54"/>
<polygon fill="#63b8ff" stroke="#63b8ff" points="727.32,-438.95 721.63,-430.01 720.5,-440.55 727.32,-438.95"/>
</a>
</g>
</g>
<!-- Node431 -->
<g id="Node000431" class="node">
<title>Node431</title>
<g id="a_Node000431"><a xlink:href="ldo_8c.html#a47f3a8ae373112059c6cf957958c70a6" target="_top" xlink:title=" ">
<polygon fill="#fff0f0" stroke="red" points="602.38,-317.25 536.12,-317.25 536.12,-298 602.38,-298 602.38,-317.25"/>
<text xml:space="preserve" text-anchor="middle" x="569.25" y="-303.75" font-family="Helvetica,sans-Serif" font-size="10.00">checkmode</text>
</a>
</g>
</g>
<!-- Node430&#45;&gt;Node431 -->
<g id="edge45_Node000430_Node000431" class="edge">
<title>Node430&#45;&gt;Node431</title>
<g id="a_edge45_Node000430_Node000431"><a xlink:title=" ">
<path fill="none" stroke="#63b8ff" d="M689.23,-398.9C675.89,-377.92 652.17,-345.13 623.75,-325.62 617.45,-321.3 610.02,-317.94 602.74,-315.36"/>
<polygon fill="#63b8ff" stroke="#63b8ff" points="686.22,-400.69 694.43,-407.37 692.18,-397.02 686.22,-400.69"/>
</a>
</g>
</g>
<!-- Node432 -->
<g id="Node000432" class="node">
<title>Node432</title>
<g id="a_Node000432"><a xlink:href="lundump_8c.html#a4359a67dfcb96fbedf2becab47365599" target="_top" xlink:title=" ">
<polygon fill="#fff0f0" stroke="red" points="587,-539.25 551.5,-539.25 551.5,-520 587,-520 587,-539.25"/>
<text xml:space="preserve" text-anchor="middle" x="569.25" y="-525.75" font-family="Helvetica,sans-Serif" font-size="10.00">error</text>
</a>
</g>
</g>
<!-- Node430&#45;&gt;Node432 -->
<g id="edge46_Node000430_Node000432" class="edge">
<title>Node430&#45;&gt;Node432</title>
<g id="a_edge46_Node000430_Node000432"><a xlink:title=" ">
<path fill="none" stroke="#63b8ff" d="M689.23,-438.35C675.89,-459.33 652.17,-492.12 623.75,-511.62 612.76,-519.17 598.35,-523.78 587.25,-526.44"/>
<polygon fill="#63b8ff" stroke="#63b8ff" points="692.18,-440.23 694.43,-429.88 686.22,-436.56 692.18,-440.23"/>
</a>
</g>
</g>
<!-- Node453 -->
<g id="Node000453" class="node">
<title>Node453</title>
<g id="a_Node000453"><a xlink:href="llex_8c.html#a67bb1f3225ffe5738fef1c3d34879735" target="_top" xlink:title=" ">
<polygon fill="#fff0f0" stroke="red" points="593.38,-502.25 545.12,-502.25 545.12,-483 593.38,-483 593.38,-502.25"/>
<text xml:space="preserve" text-anchor="middle" x="569.25" y="-488.75" font-family="Helvetica,sans-Serif" font-size="10.00">lexerror</text>
</a>
</g>
</g>
<!-- Node430&#45;&gt;Node453 -->
<g id="edge47_Node000430_Node000453" class="edge">
<title>Node430&#45;&gt;Node453</title>
<g id="a_edge47_Node000430_Node000453"><a xlink:title=" ">
<path fill="none" stroke="#63b8ff" d="M680.75,-435.87C665.8,-448.01 644.5,-463.92 623.75,-474.62 614.34,-479.48 603.35,-483.44 593.79,-486.4"/>
<polygon fill="#63b8ff" stroke="#63b8ff" points="682.96,-438.59 688.42,-429.51 678.49,-433.2 682.96,-438.59"/>
</a>
</g>
</g>
<!-- Node559 -->
<g id="Node000559" class="node">
<title>Node559</title>
<g id="a_Node000559"><a xlink:href="ldo_8c.html#a40d0ec26d9da8d2913c90158a788d019" target="_top" xlink:title=" ">
<polygon fill="white" stroke="#666666" points="599,-465.25 539.5,-465.25 539.5,-446 599,-446 599,-465.25"/>
<text xml:space="preserve" text-anchor="middle" x="569.25" y="-451.75" font-family="Helvetica,sans-Serif" font-size="10.00">lua_yieldk</text>
</a>
</g>
</g>
<!-- Node430&#45;&gt;Node559 -->
<g id="edge48_Node000430_Node000559" class="edge">
<title>Node430&#45;&gt;Node559</title>
<g id="a_edge48_Node000430_Node000559"><a xlink:title=" ">
<path fill="none" stroke="#63b8ff" d="M657.97,-430.78C638.7,-436.24 616.46,-442.53 599.2,-447.42"/>
<polygon fill="#63b8ff" stroke="#63b8ff" points="658.8,-434.18 667.46,-428.09 656.89,-427.45 658.8,-434.18"/>
</a>
</g>
</g>
<!-- Node560 -->
<g id="Node000560" class="node">
<title>Node560</title>
<g id="a_Node000560"><a xlink:href="lstate_8c.html#a3da163a7316194f3a2cb950ee2b4e614" target="_top" xlink:title=" ">
<polygon fill="#fff0f0" stroke="red" points="617.38,-428.25 521.12,-428.25 521.12,-409 617.38,-409 617.38,-428.25"/>
<text xml:space="preserve" text-anchor="middle" x="569.25" y="-414.75" font-family="Helvetica,sans-Serif" font-size="10.00">luaE_checkcstack</text>
</a>
</g>
</g>
<!-- Node430&#45;&gt;Node560 -->
<g id="edge51_Node000430_Node000560" class="edge">
<title>Node430&#45;&gt;Node560</title>
<g id="a_edge51_Node000430_Node000560"><a xlink:title=" ">
<path fill="none" stroke="#63b8ff" d="M657.59,-418.62C644.8,-418.62 630.73,-418.62 617.68,-418.62"/>
<polygon fill="#63b8ff" stroke="#63b8ff" points="657.41,-422.13 667.41,-418.63 657.41,-415.13 657.41,-422.13"/>
</a>
</g>
</g>
<!-- Node562 -->
<g id="Node000562" class="node">
<title>Node562</title>
<g id="a_Node000562"><a xlink:href="ldebug_8c.html#af7366920f8408bb33ed01b1d6c0e1238" target="_top" xlink:title=" ">
<polygon fill="#fff0f0" stroke="red" points="609.12,-391.25 529.38,-391.25 529.38,-372 609.12,-372 609.12,-391.25"/>
<text xml:space="preserve" text-anchor="middle" x="569.25" y="-377.75" font-family="Helvetica,sans-Serif" font-size="10.00">luaG_errormsg</text>
</a>
</g>
</g>
<!-- Node430&#45;&gt;Node562 -->
<g id="edge52_Node000430_Node000562" class="edge">
<title>Node430&#45;&gt;Node562</title>
<g id="a_edge52_Node000430_Node000562"><a xlink:title=" ">
<path fill="none" stroke="#63b8ff" d="M658.13,-406.52C641.11,-401.7 621.75,-396.21 605.55,-391.62"/>
<polygon fill="#63b8ff" stroke="#63b8ff" points="656.89,-409.8 667.46,-409.16 658.8,-403.07 656.89,-409.8"/>
</a>
</g>
</g>
<!-- Node670 -->
<g id="Node000670" class="node">
<title>Node670</title>
<g id="a_Node000670"><a xlink:href="ldebug_8c.html#aa85fcb28f50397f11ac54ed47be24f8b" target="_top" xlink:title=" ">
<polygon fill="white" stroke="#666666" points="611.38,-354.25 527.12,-354.25 527.12,-335 611.38,-335 611.38,-354.25"/>
<text xml:space="preserve" text-anchor="middle" x="569.25" y="-340.75" font-family="Helvetica,sans-Serif" font-size="10.00">luaG_traceexec</text>
</a>
</g>
</g>
<!-- Node430&#45;&gt;Node670 -->
<g id="edge53_Node000430_Node000670" class="edge">
<title>Node430&#45;&gt;Node670</title>
<g id="a_edge53_Node000430_Node000670"><a xlink:title=" ">
<path fill="none" stroke="#63b8ff" d="M680.75,-401.38C665.8,-389.24 644.5,-373.33 623.75,-362.62 617.91,-359.61 611.47,-356.95 605.13,-354.65"/>
<polygon fill="#63b8ff" stroke="#63b8ff" points="678.49,-404.05 688.42,-407.74 682.96,-398.66 678.49,-404.05"/>
</a>
</g>
</g>
</g>
</svg>
