<?xml version="1.0" encoding="UTF-8" standalone="no"?>
<!DOCTYPE svg PUBLIC "-//W3C//DTD SVG 1.1//EN"
 "http://www.w3.org/Graphics/SVG/1.1/DTD/svg11.dtd">
<!-- Generated by graphviz version 13.1.0 (20250701.0955)
 -->
<!-- Title: closepaux Pages: 1 -->
<svg width="1428pt" height="707pt"
 viewBox="0.00 0.00 1428.00 707.00" xmlns="http://www.w3.org/2000/svg" xmlns:xlink="http://www.w3.org/1999/xlink">
<g id="graph0" class="graph" transform="scale(1 1) rotate(0) translate(4 703.25)">
<title>closepaux</title>
<!-- Node1 -->
<g id="Node000001" class="node">
<title>Node1</title>
<g id="a_Node000001"><a xlink:title=" ">
<polygon fill="#999999" stroke="#666666" points="1419.5,-483.25 1359.25,-483.25 1359.25,-464 1419.5,-464 1419.5,-483.25"/>
<text xml:space="preserve" text-anchor="middle" x="1389.38" y="-469.75" font-family="Helvetica,sans-Serif" font-size="10.00">closepaux</text>
</a>
</g>
</g>
<!-- Node2 -->
<g id="Node000002" class="node">
<title>Node2</title>
<g id="a_Node000002"><a xlink:href="ldo_8c.html#a962876d7917caa6bd6e30649fcbb2ab7" target="_top" xlink:title=" ">
<polygon fill="white" stroke="#666666" points="1323.25,-483.25 1218,-483.25 1218,-464 1323.25,-464 1323.25,-483.25"/>
<text xml:space="preserve" text-anchor="middle" x="1270.62" y="-469.75" font-family="Helvetica,sans-Serif" font-size="10.00">luaD_closeprotected</text>
</a>
</g>
</g>
<!-- Node1&#45;&gt;Node2 -->
<g id="edge1_Node000001_Node000002" class="edge">
<title>Node1&#45;&gt;Node2</title>
<g id="a_edge1_Node000001_Node000002"><a xlink:title=" ">
<path fill="none" stroke="#63b8ff" d="M1347.5,-473.62C1339.7,-473.62 1331.43,-473.62 1323.34,-473.62"/>
<polygon fill="#63b8ff" stroke="#63b8ff" points="1347.4,-477.13 1357.4,-473.63 1347.4,-470.13 1347.4,-477.13"/>
</a>
</g>
</g>
<!-- Node3 -->
<g id="Node000003" class="node">
<title>Node3</title>
<g id="a_Node000003"><a xlink:href="lstate_8c.html#a4940327dfa3b86df0ef008180bb3fcb3" target="_top" xlink:title=" ">
<polygon fill="white" stroke="#666666" points="630.12,-604.25 563.88,-604.25 563.88,-585 630.12,-585 630.12,-604.25"/>
<text xml:space="preserve" text-anchor="middle" x="597" y="-590.75" font-family="Helvetica,sans-Serif" font-size="10.00">close_state</text>
</a>
</g>
</g>
<!-- Node2&#45;&gt;Node3 -->
<g id="edge2_Node000002_Node000003" class="edge">
<title>Node2&#45;&gt;Node3</title>
<g id="a_edge2_Node000002_Node000003"><a xlink:title=" ">
<path fill="none" stroke="#63b8ff" d="M1251.04,-491.19C1211.22,-526.9 1113.29,-604.62 1015.38,-604.62 1015.38,-604.62 1015.38,-604.62 878.5,-604.62 788.6,-604.62 682.58,-599.43 630.38,-596.53"/>
<polygon fill="#63b8ff" stroke="#63b8ff" points="1253.34,-493.83 1258.35,-484.49 1248.61,-488.67 1253.34,-493.83"/>
</a>
</g>
</g>
<!-- Node23 -->
<g id="Node000023" class="node">
<title>Node23</title>
<g id="a_Node000023"><a xlink:href="ldo_8c.html#a1ad7f845cc62b110e3fcc0ae187d7c85" target="_top" xlink:title=" ">
<polygon fill="white" stroke="#666666" points="1168.12,-483.25 1106.38,-483.25 1106.38,-464 1168.12,-464 1168.12,-483.25"/>
<text xml:space="preserve" text-anchor="middle" x="1137.25" y="-469.75" font-family="Helvetica,sans-Serif" font-size="10.00">luaD_pcall</text>
</a>
</g>
</g>
<!-- Node2&#45;&gt;Node23 -->
<g id="edge17_Node000002_Node000023" class="edge">
<title>Node2&#45;&gt;Node23</title>
<g id="a_edge17_Node000002_Node000023"><a xlink:title=" ">
<path fill="none" stroke="#63b8ff" d="M1206.26,-473.62C1193.13,-473.62 1179.89,-473.62 1168.62,-473.62"/>
<polygon fill="#63b8ff" stroke="#63b8ff" points="1206.19,-477.13 1216.19,-473.63 1206.19,-470.13 1206.19,-477.13"/>
</a>
</g>
</g>
<!-- Node691 -->
<g id="Node000691" class="node">
<title>Node691</title>
<g id="a_Node000691"><a xlink:href="lstate_8c.html#a3363b8b529d3f7d76cb31aae2494bf7e" target="_top" xlink:title=" ">
<polygon fill="white" stroke="#666666" points="1182,-260.25 1092.5,-260.25 1092.5,-241 1182,-241 1182,-260.25"/>
<text xml:space="preserve" text-anchor="middle" x="1137.25" y="-246.75" font-family="Helvetica,sans-Serif" font-size="10.00">luaE_resetthread</text>
</a>
</g>
</g>
<!-- Node2&#45;&gt;Node691 -->
<g id="edge34_Node000002_Node000691" class="edge">
<title>Node2&#45;&gt;Node691</title>
<g id="a_edge34_Node000002_Node000691"><a xlink:title=" ">
<path fill="none" stroke="#63b8ff" d="M1258.12,-454.1C1231.11,-408.25 1164.36,-294.95 1144.15,-260.63"/>
<polygon fill="#63b8ff" stroke="#63b8ff" points="1254.95,-455.61 1263.04,-462.45 1260.98,-452.06 1254.95,-455.61"/>
</a>
</g>
</g>
<!-- Node4 -->
<g id="Node000004" class="node">
<title>Node4</title>
<g id="a_Node000004"><a xlink:href="lstate_8c.html#a5d903983f1497b2fc58fba9df09e354d" target="_top" xlink:title=" ">
<polygon fill="white" stroke="#666666" points="498.25,-586.25 441,-586.25 441,-567 498.25,-567 498.25,-586.25"/>
<text xml:space="preserve" text-anchor="middle" x="469.62" y="-572.75" font-family="Helvetica,sans-Serif" font-size="10.00">lua_close</text>
</a>
</g>
</g>
<!-- Node3&#45;&gt;Node4 -->
<g id="edge3_Node000003_Node000004" class="edge">
<title>Node3&#45;&gt;Node4</title>
<g id="a_edge3_Node000003_Node000004"><a xlink:title=" ">
<path fill="none" stroke="#63b8ff" d="M552.05,-588.32C534.22,-585.76 514.15,-582.87 498.4,-580.61"/>
<polygon fill="#63b8ff" stroke="#63b8ff" points="551.49,-591.77 561.89,-589.73 552.49,-584.84 551.49,-591.77"/>
</a>
</g>
</g>
<!-- Node20 -->
<g id="Node000020" class="node">
<title>Node20</title>
<g id="a_Node000020"><a xlink:href="lstate_8c.html#a02f761396ac35439932f4f0a7ff90b31" target="_top" xlink:title=" ">
<polygon fill="white" stroke="#666666" points="506.5,-680.25 432.75,-680.25 432.75,-661 506.5,-661 506.5,-680.25"/>
<text xml:space="preserve" text-anchor="middle" x="469.62" y="-666.75" font-family="Helvetica,sans-Serif" font-size="10.00">lua_newstate</text>
</a>
</g>
</g>
<!-- Node3&#45;&gt;Node20 -->
<g id="edge11_Node000003_Node000020" class="edge">
<title>Node3&#45;&gt;Node20</title>
<g id="a_edge11_Node000003_Node000020"><a xlink:title=" ">
<path fill="none" stroke="#63b8ff" d="M569.77,-610.52C544.79,-625.67 507.97,-647.98 486.94,-660.73"/>
<polygon fill="#63b8ff" stroke="#63b8ff" points="571.32,-613.68 578.06,-605.5 567.69,-607.69 571.32,-613.68"/>
</a>
</g>
</g>
<!-- Node5 -->
<g id="Node000005" class="node">
<title>Node5</title>
<g id="a_Node000005"><a xlink:href="lua_8c.html#a3c04138a5bfe5d72780bb7e82a18e627" target="_top" xlink:title=" ">
<polygon fill="white" stroke="#666666" points="233,-577.25 196,-577.25 196,-558 233,-558 233,-577.25"/>
<text xml:space="preserve" text-anchor="middle" x="214.5" y="-563.75" font-family="Helvetica,sans-Serif" font-size="10.00">main</text>
</a>
</g>
</g>
<!-- Node4&#45;&gt;Node5 -->
<g id="edge4_Node000004_Node000005" class="edge">
<title>Node4&#45;&gt;Node5</title>
<g id="a_edge4_Node000004_Node000005"><a xlink:title=" ">
<path fill="none" stroke="#63b8ff" d="M429.62,-564.36C419.06,-561.58 407.56,-559.03 396.75,-557.62 337.21,-549.89 265.92,-559.2 233.33,-564.48"/>
<polygon fill="#63b8ff" stroke="#63b8ff" points="428.6,-567.71 439.17,-567.02 430.48,-560.96 428.6,-567.71"/>
</a>
</g>
</g>
<!-- Node6 -->
<g id="Node000006" class="node">
<title>Node6</title>
<g id="a_Node000006"><a xlink:href="loslib_8c.html#a905e81425fe3d6d0b363c10162a2a37b" target="_top" xlink:title=" ">
<polygon fill="white" stroke="#666666" points="376.88,-586.25 329.38,-586.25 329.38,-567 376.88,-567 376.88,-586.25"/>
<text xml:space="preserve" text-anchor="middle" x="353.12" y="-572.75" font-family="Helvetica,sans-Serif" font-size="10.00">os_exit</text>
</a>
</g>
</g>
<!-- Node4&#45;&gt;Node6 -->
<g id="edge5_Node000004_Node000006" class="edge">
<title>Node4&#45;&gt;Node6</title>
<g id="a_edge5_Node000004_Node000006"><a xlink:title=" ">
<path fill="none" stroke="#63b8ff" d="M429.11,-576.62C411.8,-576.62 392.09,-576.62 377.23,-576.62"/>
<polygon fill="#63b8ff" stroke="#63b8ff" points="429.1,-580.13 439.1,-576.63 429.1,-573.13 429.1,-580.13"/>
</a>
</g>
</g>
<!-- Node7 -->
<g id="Node000007" class="node">
<title>Node7</title>
<g id="a_Node000007"><a xlink:href="script_8c.html#a84508ce31c18af8792081eb1cdfc77b8" target="_top" xlink:title=" ">
<polygon fill="white" stroke="#666666" points="248.75,-624.25 180.25,-624.25 180.25,-605 248.75,-605 248.75,-624.25"/>
<text xml:space="preserve" text-anchor="middle" x="214.5" y="-610.75" font-family="Helvetica,sans-Serif" font-size="10.00">script_begin</text>
</a>
</g>
</g>
<!-- Node4&#45;&gt;Node7 -->
<g id="edge6_Node000004_Node000007" class="edge">
<title>Node4&#45;&gt;Node7</title>
<g id="a_edge6_Node000004_Node000007"><a xlink:title=" ">
<path fill="none" stroke="#63b8ff" d="M429.5,-588.14C418.94,-590.92 407.47,-593.66 396.75,-595.62 345.71,-604.99 285.68,-610.15 249.13,-612.65"/>
<polygon fill="#63b8ff" stroke="#63b8ff" points="430.33,-591.54 439.06,-585.53 428.49,-584.78 430.33,-591.54"/>
</a>
</g>
</g>
<!-- Node18 -->
<g id="Node000018" class="node">
<title>Node18</title>
<g id="a_Node000018"><a xlink:href="script_8c.html#a9e80871e044f7380196e6504f58f479b" target="_top" xlink:title=" ">
<polygon fill="white" stroke="#666666" points="383.62,-510.25 322.62,-510.25 322.62,-491 383.62,-491 383.62,-510.25"/>
<text xml:space="preserve" text-anchor="middle" x="353.12" y="-496.75" font-family="Helvetica,sans-Serif" font-size="10.00">script_end</text>
</a>
</g>
</g>
<!-- Node4&#45;&gt;Node18 -->
<g id="edge8_Node000004_Node000018" class="edge">
<title>Node4&#45;&gt;Node18</title>
<g id="a_edge8_Node000004_Node000018"><a xlink:title=" ">
<path fill="none" stroke="#63b8ff" d="M446.82,-559.86C432.8,-549.33 414.03,-535.69 396.75,-524.62 389.17,-519.77 380.56,-514.82 373.07,-510.69"/>
<polygon fill="#63b8ff" stroke="#63b8ff" points="444.4,-562.42 454.48,-565.67 448.63,-556.84 444.4,-562.42"/>
</a>
</g>
</g>
<!-- Node8 -->
<g id="Node000008" class="node">
<title>Node8</title>
<g id="a_Node000008"><a xlink:href="game__scene_8c.html#ab923ed4c6ccad95026e85e252071716d" target="_top" xlink:title=" ">
<polygon fill="#fff0f0" stroke="red" points="119.5,-572.25 0,-572.25 0,-553 119.5,-553 119.5,-572.25"/>
<text xml:space="preserve" text-anchor="middle" x="59.75" y="-558.75" font-family="Helvetica,sans-Serif" font-size="10.00">PGB_GameScene_new</text>
</a>
</g>
</g>
<!-- Node7&#45;&gt;Node8 -->
<g id="edge7_Node000007_Node000008" class="edge">
<title>Node7&#45;&gt;Node8</title>
<g id="a_edge7_Node000007_Node000008"><a xlink:title=" ">
<path fill="none" stroke="#63b8ff" d="M173.39,-600.97C147.36,-592.11 114.01,-580.76 90.37,-572.71"/>
<polygon fill="#63b8ff" stroke="#63b8ff" points="172.02,-604.2 182.62,-604.11 174.28,-597.58 172.02,-604.2"/>
</a>
</g>
</g>
<!-- Node19 -->
<g id="Node000019" class="node">
<title>Node19</title>
<g id="a_Node000019"><a xlink:href="game__scene_8c.html#a963582a448d4e4e2953e59d75b9d9f64" target="_top" xlink:title=" ">
<polygon fill="white" stroke="#666666" points="273.5,-520.25 155.5,-520.25 155.5,-501 273.5,-501 273.5,-520.25"/>
<text xml:space="preserve" text-anchor="middle" x="214.5" y="-506.75" font-family="Helvetica,sans-Serif" font-size="10.00">PGB_GameScene_free</text>
</a>
</g>
</g>
<!-- Node18&#45;&gt;Node19 -->
<g id="edge9_Node000018_Node000019" class="edge">
<title>Node18&#45;&gt;Node19</title>
<g id="a_edge9_Node000018_Node000019"><a xlink:title=" ">
<path fill="none" stroke="#63b8ff" d="M310.93,-503.64C299.23,-504.5 286.26,-505.45 273.76,-506.36"/>
<polygon fill="#63b8ff" stroke="#63b8ff" points="310.91,-507.15 320.63,-502.93 310.4,-500.17 310.91,-507.15"/>
</a>
</g>
</g>
<!-- Node19&#45;&gt;Node8 -->
<g id="edge10_Node000019_Node000008" class="edge">
<title>Node19&#45;&gt;Node8</title>
<g id="a_edge10_Node000019_Node000008"><a xlink:title=" ">
<path fill="none" stroke="#63b8ff" d="M173.39,-524.28C147.36,-533.14 114.01,-544.49 90.37,-552.54"/>
<polygon fill="#63b8ff" stroke="#63b8ff" points="174.28,-527.67 182.62,-521.14 172.02,-521.05 174.28,-527.67"/>
</a>
</g>
</g>
<!-- Node21 -->
<g id="Node000021" class="node">
<title>Node21</title>
<g id="a_Node000021"><a xlink:href="lstate_8c.html#a2fb9ffd0e5e6ea178123879892e87681" target="_top" xlink:title=" ">
<polygon fill="white" stroke="#666666" points="393.75,-699.25 312.5,-699.25 312.5,-680 393.75,-680 393.75,-699.25"/>
<text xml:space="preserve" text-anchor="middle" x="353.12" y="-685.75" font-family="Helvetica,sans-Serif" font-size="10.00">luai_makeseed</text>
</a>
</g>
</g>
<!-- Node20&#45;&gt;Node21 -->
<g id="edge12_Node000020_Node000021" class="edge">
<title>Node20&#45;&gt;Node21</title>
<g id="a_edge12_Node000020_Node000021"><a xlink:title=" ">
<path fill="none" stroke="#63b8ff" d="M421.39,-671.81C407.36,-673.87 392.5,-676.63 380.32,-679.5"/>
<polygon fill="#63b8ff" stroke="#63b8ff" points="421.46,-675.33 430.9,-670.51 420.52,-668.39 421.46,-675.33"/>
</a>
</g>
</g>
<!-- Node22 -->
<g id="Node000022" class="node">
<title>Node22</title>
<g id="a_Node000022"><a xlink:href="lauxlib_8c.html#abe0d4e1d9eb077cdeca0f58e80174f89" target="_top" xlink:title=" ">
<polygon fill="white" stroke="#666666" points="392.62,-662.25 313.62,-662.25 313.62,-643 392.62,-643 392.62,-662.25"/>
<text xml:space="preserve" text-anchor="middle" x="353.12" y="-648.75" font-family="Helvetica,sans-Serif" font-size="10.00">luaL_newstate</text>
</a>
</g>
</g>
<!-- Node20&#45;&gt;Node22 -->
<g id="edge14_Node000020_Node000022" class="edge">
<title>Node20&#45;&gt;Node22</title>
<g id="a_edge14_Node000020_Node000022"><a xlink:title=" ">
<path fill="none" stroke="#63b8ff" d="M421.16,-663.16C411.75,-661.68 401.97,-660.15 392.89,-658.72"/>
<polygon fill="#63b8ff" stroke="#63b8ff" points="420.48,-666.6 430.9,-664.69 421.57,-659.68 420.48,-666.6"/>
</a>
</g>
</g>
<!-- Node21&#45;&gt;Node20 -->
<g id="edge13_Node000021_Node000020" class="edge">
<title>Node21&#45;&gt;Node20</title>
<g id="a_edge13_Node000021_Node000020"><a xlink:title=" ">
<path fill="none" stroke="#63b8ff" d="M405.15,-687.87C418.12,-685.87 431.52,-683.33 442.64,-680.7"/>
<polygon fill="#63b8ff" stroke="#63b8ff" points="404.84,-684.38 395.44,-689.27 405.83,-691.31 404.84,-684.38"/>
</a>
</g>
</g>
<!-- Node22&#45;&gt;Node5 -->
<g id="edge15_Node000022_Node000005" class="edge">
<title>Node22&#45;&gt;Node5</title>
<g id="a_edge15_Node000022_Node000005"><a xlink:title=" ">
<path fill="none" stroke="#63b8ff" d="M331.06,-635.78C315.62,-623.82 293.88,-607.8 273.5,-595.62 260.54,-587.88 245.12,-580.52 233.44,-575.29"/>
<polygon fill="#63b8ff" stroke="#63b8ff" points="328.58,-638.28 338.61,-641.69 332.9,-632.77 328.58,-638.28"/>
</a>
</g>
</g>
<!-- Node22&#45;&gt;Node7 -->
<g id="edge16_Node000022_Node000007" class="edge">
<title>Node22&#45;&gt;Node7</title>
<g id="a_edge16_Node000022_Node000007"><a xlink:title=" ">
<path fill="none" stroke="#63b8ff" d="M304.79,-639.46C286.45,-634.36 265.88,-628.64 249.11,-623.97"/>
<polygon fill="#63b8ff" stroke="#63b8ff" points="303.84,-642.83 314.41,-642.14 305.72,-636.08 303.84,-642.83"/>
</a>
</g>
</g>
<!-- Node24 -->
<g id="Node000024" class="node">
<title>Node24</title>
<g id="a_Node000024"><a xlink:href="lgc_8c.html#aaf7c6e9e6a93da6bb64ffe7654668ba3" target="_top" xlink:title=" ">
<polygon fill="white" stroke="#666666" points="1037,-539.25 991.75,-539.25 991.75,-520 1037,-520 1037,-539.25"/>
<text xml:space="preserve" text-anchor="middle" x="1014.38" y="-525.75" font-family="Helvetica,sans-Serif" font-size="10.00">GCTM</text>
</a>
</g>
</g>
<!-- Node23&#45;&gt;Node24 -->
<g id="edge18_Node000023_Node000024" class="edge">
<title>Node23&#45;&gt;Node24</title>
<g id="a_edge18_Node000023_Node000024"><a xlink:title=" ">
<path fill="none" stroke="#63b8ff" d="M1104.2,-488.47C1083.05,-498.27 1055.89,-510.85 1037.21,-519.51"/>
<polygon fill="#63b8ff" stroke="#63b8ff" points="1105.66,-491.65 1113.27,-484.27 1102.72,-485.3 1105.66,-491.65"/>
</a>
</g>
</g>
<!-- Node433 -->
<g id="Node000433" class="node">
<title>Node433</title>
<g id="a_Node000433"><a xlink:href="lapi_8c.html#a624df4cb2312b762c4fb528ecc889385" target="_top" xlink:title=" ">
<polygon fill="white" stroke="#666666" points="1044.12,-483.25 984.62,-483.25 984.62,-464 1044.12,-464 1044.12,-483.25"/>
<text xml:space="preserve" text-anchor="middle" x="1014.38" y="-469.75" font-family="Helvetica,sans-Serif" font-size="10.00">lua_pcallk</text>
</a>
</g>
</g>
<!-- Node23&#45;&gt;Node433 -->
<g id="edge25_Node000023_Node000433" class="edge">
<title>Node23&#45;&gt;Node433</title>
<g id="a_edge25_Node000023_Node000433"><a xlink:title=" ">
<path fill="none" stroke="#63b8ff" d="M1094.95,-473.62C1078.3,-473.62 1059.5,-473.62 1044.35,-473.62"/>
<polygon fill="#63b8ff" stroke="#63b8ff" points="1094.55,-477.13 1104.55,-473.63 1094.55,-470.13 1094.55,-477.13"/>
</a>
</g>
</g>
<!-- Node45 -->
<g id="Node000045" class="node">
<title>Node45</title>
<g id="a_Node000045"><a xlink:href="ldo_8c.html#a451f5a18e45a63e1da2eed7d8a2060f5" target="_top" xlink:title=" ">
<polygon fill="white" stroke="#666666" points="651.5,-398.25 542.5,-398.25 542.5,-379 651.5,-379 651.5,-398.25"/>
<text xml:space="preserve" text-anchor="middle" x="597" y="-384.75" font-family="Helvetica,sans-Serif" font-size="10.00">luaD_protectedparser</text>
</a>
</g>
</g>
<!-- Node23&#45;&gt;Node45 -->
<g id="edge28_Node000023_Node000045" class="edge">
<title>Node23&#45;&gt;Node45</title>
<g id="a_edge28_Node000023_Node000045"><a xlink:title=" ">
<path fill="none" stroke="#63b8ff" d="M1095.14,-463.12C1082.77,-460.15 1069.12,-457.07 1056.5,-454.62 911.22,-426.5 737.92,-404.71 651.93,-394.68"/>
<polygon fill="#63b8ff" stroke="#63b8ff" points="1094.07,-466.46 1104.62,-465.44 1095.73,-459.66 1094.07,-466.46"/>
</a>
</g>
</g>
<!-- Node25 -->
<g id="Node000025" class="node">
<title>Node25</title>
<g id="a_Node000025"><a xlink:href="lgc_8c.html#a3c6f43e1b63924361ed0ce31b6d30f8b" target="_top" xlink:title=" ">
<polygon fill="white" stroke="#666666" points="936.25,-539.25 822.75,-539.25 822.75,-520 936.25,-520 936.25,-539.25"/>
<text xml:space="preserve" text-anchor="middle" x="879.5" y="-525.75" font-family="Helvetica,sans-Serif" font-size="10.00">callallpendingfinalizers</text>
</a>
</g>
</g>
<!-- Node24&#45;&gt;Node25 -->
<g id="edge19_Node000024_Node000025" class="edge">
<title>Node24&#45;&gt;Node25</title>
<g id="a_edge19_Node000024_Node000025"><a xlink:title=" ">
<path fill="none" stroke="#63b8ff" d="M980.08,-529.62C966.91,-529.62 951.4,-529.62 936.6,-529.62"/>
<polygon fill="#63b8ff" stroke="#63b8ff" points="979.92,-533.13 989.92,-529.63 979.92,-526.13 979.92,-533.13"/>
</a>
</g>
</g>
<!-- Node686 -->
<g id="Node000686" class="node">
<title>Node686</title>
<g id="a_Node000686"><a xlink:href="lgc_8c.html#a5ba38781fc577f890c6f97af9beef40a" target="_top" xlink:title=" ">
<polygon fill="white" stroke="#666666" points="924.25,-576.25 834.75,-576.25 834.75,-557 924.25,-557 924.25,-576.25"/>
<text xml:space="preserve" text-anchor="middle" x="879.5" y="-562.75" font-family="Helvetica,sans-Serif" font-size="10.00">runafewfinalizers</text>
</a>
</g>
</g>
<!-- Node24&#45;&gt;Node686 -->
<g id="edge23_Node000024_Node000686" class="edge">
<title>Node24&#45;&gt;Node686</title>
<g id="a_edge23_Node000024_Node000686"><a xlink:title=" ">
<path fill="none" stroke="#63b8ff" d="M980.43,-538.8C961.1,-544.18 936.65,-550.99 916.77,-556.52"/>
<polygon fill="#63b8ff" stroke="#63b8ff" points="981.28,-542.2 989.98,-536.14 979.4,-535.45 981.28,-542.2"/>
</a>
</g>
</g>
<!-- Node26 -->
<g id="Node000026" class="node">
<title>Node26</title>
<g id="a_Node000026"><a xlink:href="lgc_8c.html#ad14690f3e78fd31ce7eddc3acdbeec5b" target="_top" xlink:title=" ">
<polygon fill="#fff0f0" stroke="red" points="776.25,-502.25 698,-502.25 698,-483 776.25,-483 776.25,-502.25"/>
<text xml:space="preserve" text-anchor="middle" x="737.12" y="-488.75" font-family="Helvetica,sans-Serif" font-size="10.00">finishgencycle</text>
</a>
</g>
</g>
<!-- Node25&#45;&gt;Node26 -->
<g id="edge20_Node000025_Node000026" class="edge">
<title>Node25&#45;&gt;Node26</title>
<g id="a_edge20_Node000025_Node000026"><a xlink:title=" ">
<path fill="none" stroke="#63b8ff" d="M829.1,-516.6C811.81,-512.05 792.68,-507 776.44,-502.72"/>
<polygon fill="#63b8ff" stroke="#63b8ff" points="828.12,-519.96 838.68,-519.13 829.9,-513.2 828.12,-519.96"/>
</a>
</g>
</g>
<!-- Node683 -->
<g id="Node000683" class="node">
<title>Node683</title>
<g id="a_Node000683"><a xlink:href="lgc_8c.html#abad938b33f011ec1088d1a79508c6ac9" target="_top" xlink:title=" ">
<polygon fill="white" stroke="#666666" points="786.75,-539.25 687.5,-539.25 687.5,-520 786.75,-520 786.75,-539.25"/>
<text xml:space="preserve" text-anchor="middle" x="737.12" y="-525.75" font-family="Helvetica,sans-Serif" font-size="10.00">luaC_freeallobjects</text>
</a>
</g>
</g>
<!-- Node25&#45;&gt;Node683 -->
<g id="edge21_Node000025_Node000683" class="edge">
<title>Node25&#45;&gt;Node683</title>
<g id="a_edge21_Node000025_Node000683"><a xlink:title=" ">
<path fill="none" stroke="#63b8ff" d="M811.18,-529.62C803.03,-529.62 794.83,-529.62 787.01,-529.62"/>
<polygon fill="#63b8ff" stroke="#63b8ff" points="811.1,-533.13 821.1,-529.63 811.1,-526.13 811.1,-533.13"/>
</a>
</g>
</g>
<!-- Node683&#45;&gt;Node3 -->
<g id="edge22_Node000683_Node000003" class="edge">
<title>Node683&#45;&gt;Node3</title>
<g id="a_edge22_Node000683_Node000003"><a xlink:title=" ">
<path fill="none" stroke="#63b8ff" d="M696.58,-543.78C693.49,-545.03 690.43,-546.32 687.5,-547.62 661.85,-559.05 633.3,-574.55 615.5,-584.57"/>
<polygon fill="#63b8ff" stroke="#63b8ff" points="697.63,-547.12 705.67,-540.23 695.08,-540.6 697.63,-547.12"/>
</a>
</g>
</g>
<!-- Node687 -->
<g id="Node000687" class="node">
<title>Node687</title>
<g id="a_Node000687"><a xlink:href="lgc_8c.html#ae34e22198155f5d365fe500d3735c150" target="_top" xlink:title=" ">
<polygon fill="#fff0f0" stroke="red" points="767.25,-576.25 707,-576.25 707,-557 767.25,-557 767.25,-576.25"/>
<text xml:space="preserve" text-anchor="middle" x="737.12" y="-562.75" font-family="Helvetica,sans-Serif" font-size="10.00">singlestep</text>
</a>
</g>
</g>
<!-- Node686&#45;&gt;Node687 -->
<g id="edge24_Node000686_Node000687" class="edge">
<title>Node686&#45;&gt;Node687</title>
<g id="a_edge24_Node000686_Node000687"><a xlink:title=" ">
<path fill="none" stroke="#63b8ff" d="M823.16,-566.62C804.11,-566.62 783.52,-566.62 767.37,-566.62"/>
<polygon fill="#63b8ff" stroke="#63b8ff" points="822.96,-570.13 832.96,-566.63 822.96,-563.13 822.96,-570.13"/>
</a>
</g>
</g>
<!-- Node131 -->
<g id="Node000131" class="node">
<title>Node131</title>
<g id="a_Node000131"><a xlink:href="lbaselib_8c.html#a1fb2725eed679431d070b2e9e7abc223" target="_top" xlink:title=" ">
<polygon fill="white" stroke="#666666" points="910,-465.25 849,-465.25 849,-446 910,-446 910,-465.25"/>
<text xml:space="preserve" text-anchor="middle" x="879.5" y="-451.75" font-family="Helvetica,sans-Serif" font-size="10.00">luaB_pcall</text>
</a>
</g>
</g>
<!-- Node433&#45;&gt;Node131 -->
<g id="edge26_Node000433_Node000131" class="edge">
<title>Node433&#45;&gt;Node131</title>
<g id="a_edge26_Node000433_Node000131"><a xlink:title=" ">
<path fill="none" stroke="#63b8ff" d="M972.81,-468.13C952.56,-465.39 928.52,-462.13 910.05,-459.63"/>
<polygon fill="#63b8ff" stroke="#63b8ff" points="972.34,-471.6 982.72,-469.47 973.28,-464.66 972.34,-471.6"/>
</a>
</g>
</g>
<!-- Node186 -->
<g id="Node000186" class="node">
<title>Node186</title>
<g id="a_Node000186"><a xlink:href="lbaselib_8c.html#a5fbb0094fa1a56f0a4c2547f1ec4c5ab" target="_top" xlink:title=" ">
<polygon fill="white" stroke="#666666" points="912.62,-502.25 846.38,-502.25 846.38,-483 912.62,-483 912.62,-502.25"/>
<text xml:space="preserve" text-anchor="middle" x="879.5" y="-488.75" font-family="Helvetica,sans-Serif" font-size="10.00">luaB_xpcall</text>
</a>
</g>
</g>
<!-- Node433&#45;&gt;Node186 -->
<g id="edge27_Node000433_Node000186" class="edge">
<title>Node433&#45;&gt;Node186</title>
<g id="a_edge27_Node000433_Node000186"><a xlink:title=" ">
<path fill="none" stroke="#63b8ff" d="M973.03,-479.39C953.75,-482.15 930.98,-485.41 912.85,-488"/>
<polygon fill="#63b8ff" stroke="#63b8ff" points="973.31,-482.89 982.72,-478.01 972.32,-475.96 973.31,-482.89"/>
</a>
</g>
</g>
<!-- Node46 -->
<g id="Node000046" class="node">
<title>Node46</title>
<g id="a_Node000046"><a xlink:href="lapi_8c.html#aa7a94c45f3eec251e5b258d7482ffe87" target="_top" xlink:title=" ">
<polygon fill="white" stroke="#666666" points="495.62,-398.25 443.62,-398.25 443.62,-379 495.62,-379 495.62,-398.25"/>
<text xml:space="preserve" text-anchor="middle" x="469.62" y="-384.75" font-family="Helvetica,sans-Serif" font-size="10.00">lua_load</text>
</a>
</g>
</g>
<!-- Node45&#45;&gt;Node46 -->
<g id="edge29_Node000045_Node000046" class="edge">
<title>Node45&#45;&gt;Node46</title>
<g id="a_edge29_Node000045_Node000046"><a xlink:title=" ">
<path fill="none" stroke="#63b8ff" d="M530.74,-388.62C518.34,-388.62 506.08,-388.62 495.89,-388.62"/>
<polygon fill="#63b8ff" stroke="#63b8ff" points="530.59,-392.13 540.59,-388.63 530.59,-385.13 530.59,-392.13"/>
</a>
</g>
</g>
<!-- Node47 -->
<g id="Node000047" class="node">
<title>Node47</title>
<g id="a_Node000047"><a xlink:href="lbaselib_8c.html#a4a9a3613fcf80fe033e044f7e19bed69" target="_top" xlink:title=" ">
<polygon fill="white" stroke="#666666" points="243.88,-417.25 185.12,-417.25 185.12,-398 243.88,-398 243.88,-417.25"/>
<text xml:space="preserve" text-anchor="middle" x="214.5" y="-403.75" font-family="Helvetica,sans-Serif" font-size="10.00">luaB_load</text>
</a>
</g>
</g>
<!-- Node46&#45;&gt;Node47 -->
<g id="edge30_Node000046_Node000047" class="edge">
<title>Node46&#45;&gt;Node47</title>
<g id="a_edge30_Node000046_Node000047"><a xlink:title=" ">
<path fill="none" stroke="#63b8ff" d="M432.02,-391.37C381.16,-395.19 290.21,-402.02 244.06,-405.48"/>
<polygon fill="#63b8ff" stroke="#63b8ff" points="432.21,-394.87 441.92,-390.63 431.69,-387.89 432.21,-394.87"/>
</a>
</g>
</g>
<!-- Node48 -->
<g id="Node000048" class="node">
<title>Node48</title>
<g id="a_Node000048"><a xlink:href="lauxlib_8c.html#a867ca33afe2cb3d07bfc238cbb438f61" target="_top" xlink:title=" ">
<polygon fill="white" stroke="#666666" points="396.75,-436.25 309.5,-436.25 309.5,-417 396.75,-417 396.75,-436.25"/>
<text xml:space="preserve" text-anchor="middle" x="353.12" y="-422.75" font-family="Helvetica,sans-Serif" font-size="10.00">luaL_loadbufferx</text>
</a>
</g>
</g>
<!-- Node46&#45;&gt;Node48 -->
<g id="edge31_Node000046_Node000048" class="edge">
<title>Node46&#45;&gt;Node48</title>
<g id="a_edge31_Node000046_Node000048"><a xlink:title=" ">
<path fill="none" stroke="#63b8ff" d="M432.44,-400.63C416.96,-405.77 399.1,-411.7 384.34,-416.6"/>
<polygon fill="#63b8ff" stroke="#63b8ff" points="433.39,-404.01 441.78,-397.54 431.18,-397.36 433.39,-404.01"/>
</a>
</g>
</g>
<!-- Node49 -->
<g id="Node000049" class="node">
<title>Node49</title>
<g id="a_Node000049"><a xlink:href="lauxlib_8c.html#a6ac3b2572d5ce635c4617aed2a0eb649" target="_top" xlink:title=" ">
<polygon fill="#fff0f0" stroke="red" points="390.75,-360.25 315.5,-360.25 315.5,-341 390.75,-341 390.75,-360.25"/>
<text xml:space="preserve" text-anchor="middle" x="353.12" y="-346.75" font-family="Helvetica,sans-Serif" font-size="10.00">luaL_loadfilex</text>
</a>
</g>
</g>
<!-- Node46&#45;&gt;Node49 -->
<g id="edge33_Node000046_Node000049" class="edge">
<title>Node46&#45;&gt;Node49</title>
<g id="a_edge33_Node000046_Node000049"><a xlink:title=" ">
<path fill="none" stroke="#63b8ff" d="M432.44,-376.62C416.96,-371.48 399.1,-365.55 384.34,-360.65"/>
<polygon fill="#63b8ff" stroke="#63b8ff" points="431.18,-379.89 441.78,-379.71 433.39,-373.24 431.18,-379.89"/>
</a>
</g>
</g>
<!-- Node48&#45;&gt;Node47 -->
<g id="edge32_Node000048_Node000047" class="edge">
<title>Node48&#45;&gt;Node47</title>
<g id="a_edge32_Node000048_Node000047"><a xlink:title=" ">
<path fill="none" stroke="#63b8ff" d="M298.01,-419.1C279.53,-416.53 259.6,-413.76 243.96,-411.58"/>
<polygon fill="#63b8ff" stroke="#63b8ff" points="297.38,-422.55 307.77,-420.46 298.35,-415.61 297.38,-422.55"/>
</a>
</g>
</g>
<!-- Node692 -->
<g id="Node000692" class="node">
<title>Node692</title>
<g id="a_Node000692"><a xlink:href="lstate_8c.html#a95ab7e493b56dfead9aac2d2fcbcb408" target="_top" xlink:title=" ">
<polygon fill="white" stroke="#666666" points="1056.5,-75.25 972.25,-75.25 972.25,-56 1056.5,-56 1056.5,-75.25"/>
<text xml:space="preserve" text-anchor="middle" x="1014.38" y="-61.75" font-family="Helvetica,sans-Serif" font-size="10.00">lua_closethread</text>
</a>
</g>
</g>
<!-- Node691&#45;&gt;Node692 -->
<g id="edge35_Node000691_Node000692" class="edge">
<title>Node691&#45;&gt;Node692</title>
<g id="a_edge35_Node000691_Node000692"><a xlink:title=" ">
<path fill="none" stroke="#63b8ff" d="M1123.57,-231.21C1098.02,-192.12 1041.17,-105.11 1021.91,-75.62"/>
<polygon fill="#63b8ff" stroke="#63b8ff" points="1120.52,-232.95 1128.92,-239.41 1126.38,-229.13 1120.52,-232.95"/>
</a>
</g>
</g>
<!-- Node694 -->
<g id="Node000694" class="node">
<title>Node694</title>
<g id="a_Node000694"><a xlink:href="ldo_8c.html#a2b46d9db5b9ca3d5402a0c2ac640a6b0" target="_top" xlink:title=" ">
<polygon fill="white" stroke="#666666" points="1047.12,-260.25 981.62,-260.25 981.62,-241 1047.12,-241 1047.12,-260.25"/>
<text xml:space="preserve" text-anchor="middle" x="1014.38" y="-246.75" font-family="Helvetica,sans-Serif" font-size="10.00">luaD_throw</text>
</a>
</g>
</g>
<!-- Node691&#45;&gt;Node694 -->
<g id="edge40_Node000691_Node000694" class="edge">
<title>Node691&#45;&gt;Node694</title>
<g id="a_edge40_Node000691_Node000694"><a xlink:title=" ">
<path fill="none" stroke="#63b8ff" d="M1080.92,-250.62C1069.43,-250.62 1057.7,-250.62 1047.39,-250.62"/>
<polygon fill="#63b8ff" stroke="#63b8ff" points="1080.76,-254.13 1090.76,-250.63 1080.76,-247.13 1080.76,-254.13"/>
</a>
</g>
</g>
<!-- Node693 -->
<g id="Node000693" class="node">
<title>Node693</title>
<g id="a_Node000693"><a xlink:href="lstate_8c.html#afd03e385a4f4f8fcc25230c0e04f48ff" target="_top" xlink:title=" ">
<polygon fill="white" stroke="#666666" points="920.88,-93.25 838.12,-93.25 838.12,-74 920.88,-74 920.88,-93.25"/>
<text xml:space="preserve" text-anchor="middle" x="879.5" y="-79.75" font-family="Helvetica,sans-Serif" font-size="10.00">lua_resetthread</text>
</a>
</g>
</g>
<!-- Node692&#45;&gt;Node693 -->
<g id="edge36_Node000692_Node000693" class="edge">
<title>Node692&#45;&gt;Node693</title>
<g id="a_edge36_Node000692_Node000693"><a xlink:title=" ">
<path fill="none" stroke="#63b8ff" d="M960.78,-72.75C947.66,-74.53 933.79,-76.41 921.33,-78.09"/>
<polygon fill="#63b8ff" stroke="#63b8ff" points="961.12,-76.24 970.56,-71.42 960.18,-69.3 961.12,-76.24"/>
</a>
</g>
</g>
<!-- Node202 -->
<g id="Node000202" class="node">
<title>Node202</title>
<g id="a_Node000202"><a xlink:href="lcorolib_8c.html#a777abb20385a69ce4787f72bd90375a7" target="_top" xlink:title=" ">
<polygon fill="white" stroke="#666666" points="918.25,-56.25 840.75,-56.25 840.75,-37 918.25,-37 918.25,-56.25"/>
<text xml:space="preserve" text-anchor="middle" x="879.5" y="-42.75" font-family="Helvetica,sans-Serif" font-size="10.00">luaB_auxwrap</text>
</a>
</g>
</g>
<!-- Node692&#45;&gt;Node202 -->
<g id="edge37_Node000692_Node000202" class="edge">
<title>Node692&#45;&gt;Node202</title>
<g id="a_edge37_Node000692_Node000202"><a xlink:title=" ">
<path fill="none" stroke="#63b8ff" d="M960.97,-58.13C946.83,-56.11 931.81,-53.96 918.62,-52.08"/>
<polygon fill="#63b8ff" stroke="#63b8ff" points="960.17,-61.55 970.56,-59.5 961.16,-54.62 960.17,-61.55"/>
</a>
</g>
</g>
<!-- Node242 -->
<g id="Node000242" class="node">
<title>Node242</title>
<g id="a_Node000242"><a xlink:href="lcorolib_8c.html#a3c6a70201b343432bfeb1f3e09cdde6f" target="_top" xlink:title=" ">
<polygon fill="white" stroke="#666666" points="911.5,-19.25 847.5,-19.25 847.5,0 911.5,0 911.5,-19.25"/>
<text xml:space="preserve" text-anchor="middle" x="879.5" y="-5.75" font-family="Helvetica,sans-Serif" font-size="10.00">luaB_close</text>
</a>
</g>
</g>
<!-- Node692&#45;&gt;Node242 -->
<g id="edge39_Node000692_Node000242" class="edge">
<title>Node692&#45;&gt;Node242</title>
<g id="a_edge39_Node000692_Node000242"><a xlink:title=" ">
<path fill="none" stroke="#63b8ff" d="M985.22,-50.52C970.8,-43.11 952.84,-34.35 936.25,-27.62 928.43,-24.45 919.82,-21.45 911.75,-18.83"/>
<polygon fill="#63b8ff" stroke="#63b8ff" points="983.19,-53.41 993.68,-54.94 986.43,-47.21 983.19,-53.41"/>
</a>
</g>
</g>
<!-- Node183 -->
<g id="Node000183" class="node">
<title>Node183</title>
<g id="a_Node000183"><a xlink:href="lcorolib_8c.html#a1c0429e27f504b08e25f437f733edad1" target="_top" xlink:title=" ">
<polygon fill="white" stroke="#666666" points="773.25,-56.25 701,-56.25 701,-37 773.25,-37 773.25,-56.25"/>
<text xml:space="preserve" text-anchor="middle" x="737.12" y="-42.75" font-family="Helvetica,sans-Serif" font-size="10.00">luaB_cowrap</text>
</a>
</g>
</g>
<!-- Node202&#45;&gt;Node183 -->
<g id="edge38_Node000202_Node000183" class="edge">
<title>Node202&#45;&gt;Node183</title>
<g id="a_edge38_Node000202_Node000183"><a xlink:title=" ">
<path fill="none" stroke="#63b8ff" d="M829.16,-46.62C810.89,-46.62 790.54,-46.62 773.73,-46.62"/>
<polygon fill="#63b8ff" stroke="#63b8ff" points="829,-50.13 839,-46.63 829,-43.13 829,-50.13"/>
</a>
</g>
</g>
<!-- Node694&#45;&gt;Node694 -->
<g id="edge57_Node000694_Node000694" class="edge">
<title>Node694&#45;&gt;Node694</title>
<g id="a_edge57_Node000694_Node000694"><a xlink:title=" ">
<path fill="none" stroke="#63b8ff" d="M1036.19,-271.65C1033.46,-275.53 1026.19,-278.25 1014.38,-278.25 992.78,-278.25 986.36,-269.15 995.14,-260.54"/>
<polygon fill="#63b8ff" stroke="#63b8ff" points="1039.62,-270.97 1033.95,-262.01 1032.8,-272.54 1039.62,-270.97"/>
</a>
</g>
</g>
<!-- Node602 -->
<g id="Node000602" class="node">
<title>Node602</title>
<g id="a_Node000602"><a xlink:href="ldo_8c.html#a47f3a8ae373112059c6cf957958c70a6" target="_top" xlink:title=" ">
<polygon fill="white" stroke="#666666" points="912.62,-389.25 846.38,-389.25 846.38,-370 912.62,-370 912.62,-389.25"/>
<text xml:space="preserve" text-anchor="middle" x="879.5" y="-375.75" font-family="Helvetica,sans-Serif" font-size="10.00">checkmode</text>
</a>
</g>
</g>
<!-- Node694&#45;&gt;Node602 -->
<g id="edge41_Node000694_Node000602" class="edge">
<title>Node694&#45;&gt;Node602</title>
<g id="a_edge41_Node000694_Node000602"><a xlink:title=" ">
<path fill="none" stroke="#63b8ff" d="M1004.34,-270.96C992.29,-295.84 968.63,-337.62 936.25,-361.62 929.39,-366.71 921.03,-370.4 912.89,-373.06"/>
<polygon fill="#63b8ff" stroke="#63b8ff" points="1007.5,-272.46 1008.55,-261.92 1001.16,-269.51 1007.5,-272.46"/>
</a>
</g>
</g>
<!-- Node604 -->
<g id="Node000604" class="node">
<title>Node604</title>
<g id="a_Node000604"><a xlink:href="lundump_8c.html#a4359a67dfcb96fbedf2becab47365599" target="_top" xlink:title=" ">
<polygon fill="#fff0f0" stroke="red" points="897.25,-241.25 861.75,-241.25 861.75,-222 897.25,-222 897.25,-241.25"/>
<text xml:space="preserve" text-anchor="middle" x="879.5" y="-227.75" font-family="Helvetica,sans-Serif" font-size="10.00">error</text>
</a>
</g>
</g>
<!-- Node694&#45;&gt;Node604 -->
<g id="edge44_Node000694_Node000604" class="edge">
<title>Node694&#45;&gt;Node604</title>
<g id="a_edge44_Node000694_Node000604"><a xlink:title=" ">
<path fill="none" stroke="#63b8ff" d="M969.95,-244.42C945.35,-240.9 915.95,-236.69 897.75,-234.09"/>
<polygon fill="#63b8ff" stroke="#63b8ff" points="969.32,-247.86 979.71,-245.81 970.31,-240.93 969.32,-247.86"/>
</a>
</g>
</g>
<!-- Node641 -->
<g id="Node000641" class="node">
<title>Node641</title>
<g id="a_Node000641"><a xlink:href="llex_8c.html#a67bb1f3225ffe5738fef1c3d34879735" target="_top" xlink:title=" ">
<polygon fill="#fff0f0" stroke="red" points="903.62,-204.25 855.38,-204.25 855.38,-185 903.62,-185 903.62,-204.25"/>
<text xml:space="preserve" text-anchor="middle" x="879.5" y="-190.75" font-family="Helvetica,sans-Serif" font-size="10.00">lexerror</text>
</a>
</g>
</g>
<!-- Node694&#45;&gt;Node641 -->
<g id="edge54_Node000694_Node000641" class="edge">
<title>Node694&#45;&gt;Node641</title>
<g id="a_edge54_Node000694_Node000641"><a xlink:title=" ">
<path fill="none" stroke="#63b8ff" d="M985.22,-235.52C970.8,-228.11 952.84,-219.35 936.25,-212.62 925.88,-208.42 914.13,-204.51 904.1,-201.41"/>
<polygon fill="#63b8ff" stroke="#63b8ff" points="983.19,-238.41 993.68,-239.94 986.43,-232.21 983.19,-238.41"/>
</a>
</g>
</g>
<!-- Node475 -->
<g id="Node000475" class="node">
<title>Node475</title>
<g id="a_Node000475"><a xlink:href="ldo_8c.html#a40d0ec26d9da8d2913c90158a788d019" target="_top" xlink:title=" ">
<polygon fill="white" stroke="#666666" points="909.25,-167.25 849.75,-167.25 849.75,-148 909.25,-148 909.25,-167.25"/>
<text xml:space="preserve" text-anchor="middle" x="879.5" y="-153.75" font-family="Helvetica,sans-Serif" font-size="10.00">lua_yieldk</text>
</a>
</g>
</g>
<!-- Node694&#45;&gt;Node475 -->
<g id="edge55_Node000694_Node000475" class="edge">
<title>Node694&#45;&gt;Node475</title>
<g id="a_edge55_Node000694_Node000475"><a xlink:title=" ">
<path fill="none" stroke="#63b8ff" d="M998.72,-232.14C984.42,-215.24 961.23,-190.66 936.25,-175.62 928.15,-170.75 918.57,-167.04 909.67,-164.29"/>
<polygon fill="#63b8ff" stroke="#63b8ff" points="995.68,-233.96 1004.74,-239.46 1001.09,-229.52 995.68,-233.96"/>
</a>
</g>
</g>
<!-- Node476 -->
<g id="Node000476" class="node">
<title>Node476</title>
<g id="a_Node000476"><a xlink:href="ldo_8c.html#a728937587ac9d9e316bd410991f11221" target="_top" xlink:title=" ">
<polygon fill="#fff0f0" stroke="red" points="922.75,-130.25 836.25,-130.25 836.25,-111 922.75,-111 922.75,-130.25"/>
<text xml:space="preserve" text-anchor="middle" x="879.5" y="-116.75" font-family="Helvetica,sans-Serif" font-size="10.00">luaD_growstack</text>
</a>
</g>
</g>
<!-- Node694&#45;&gt;Node476 -->
<g id="edge56_Node000694_Node000476" class="edge">
<title>Node694&#45;&gt;Node476</title>
<g id="a_edge56_Node000694_Node000476"><a xlink:title=" ">
<path fill="none" stroke="#63b8ff" d="M1004.55,-230.44C992.6,-205.38 968.93,-162.96 936.25,-138.62 932.01,-135.47 927.19,-132.85 922.2,-130.68"/>
<polygon fill="#63b8ff" stroke="#63b8ff" points="1001.23,-231.6 1008.58,-239.24 1007.6,-228.69 1001.23,-231.6"/>
</a>
</g>
</g>
<!-- Node478 -->
<g id="Node000478" class="node">
<title>Node478</title>
<g id="a_Node000478"><a xlink:href="lstate_8c.html#a3da163a7316194f3a2cb950ee2b4e614" target="_top" xlink:title=" ">
<polygon fill="#fff0f0" stroke="red" points="927.62,-352.25 831.38,-352.25 831.38,-333 927.62,-333 927.62,-352.25"/>
<text xml:space="preserve" text-anchor="middle" x="879.5" y="-338.75" font-family="Helvetica,sans-Serif" font-size="10.00">luaE_checkcstack</text>
</a>
</g>
</g>
<!-- Node694&#45;&gt;Node478 -->
<g id="edge58_Node000694_Node000478" class="edge">
<title>Node694&#45;&gt;Node478</title>
<g id="a_edge58_Node000694_Node000478"><a xlink:title=" ">
<path fill="none" stroke="#63b8ff" d="M998.43,-269.12C984.08,-285.78 960.98,-309.85 936.25,-324.62 931.1,-327.7 925.36,-330.32 919.58,-332.52"/>
<polygon fill="#63b8ff" stroke="#63b8ff" points="1000.75,-271.81 1004.49,-261.9 995.38,-267.31 1000.75,-271.81"/>
</a>
</g>
</g>
<!-- Node675 -->
<g id="Node000675" class="node">
<title>Node675</title>
<g id="a_Node000675"><a xlink:href="ldebug_8c.html#af7366920f8408bb33ed01b1d6c0e1238" target="_top" xlink:title=" ">
<polygon fill="#fff0f0" stroke="red" points="919.38,-315.25 839.62,-315.25 839.62,-296 919.38,-296 919.38,-315.25"/>
<text xml:space="preserve" text-anchor="middle" x="879.5" y="-301.75" font-family="Helvetica,sans-Serif" font-size="10.00">luaG_errormsg</text>
</a>
</g>
</g>
<!-- Node694&#45;&gt;Node675 -->
<g id="edge59_Node000694_Node000675" class="edge">
<title>Node694&#45;&gt;Node675</title>
<g id="a_edge59_Node000694_Node000675"><a xlink:title=" ">
<path fill="none" stroke="#63b8ff" d="M984.18,-265.78C969.93,-272.88 952.41,-281.18 936.25,-287.62 929.17,-290.45 921.45,-293.17 914.07,-295.6"/>
<polygon fill="#63b8ff" stroke="#63b8ff" points="985.67,-268.95 993.01,-261.32 982.51,-262.7 985.67,-268.95"/>
</a>
</g>
</g>
<!-- Node695 -->
<g id="Node000695" class="node">
<title>Node695</title>
<g id="a_Node000695"><a xlink:href="ldebug_8c.html#aa85fcb28f50397f11ac54ed47be24f8b" target="_top" xlink:title=" ">
<polygon fill="white" stroke="#666666" points="921.62,-278.25 837.38,-278.25 837.38,-259 921.62,-259 921.62,-278.25"/>
<text xml:space="preserve" text-anchor="middle" x="879.5" y="-264.75" font-family="Helvetica,sans-Serif" font-size="10.00">luaG_traceexec</text>
</a>
</g>
</g>
<!-- Node694&#45;&gt;Node695 -->
<g id="edge60_Node000694_Node000695" class="edge">
<title>Node694&#45;&gt;Node695</title>
<g id="a_edge60_Node000694_Node000695"><a xlink:title=" ">
<path fill="none" stroke="#63b8ff" d="M969.86,-256.52C954.45,-258.61 937.16,-260.95 921.93,-263.01"/>
<polygon fill="#63b8ff" stroke="#63b8ff" points="970.27,-260 979.71,-255.19 969.33,-253.06 970.27,-260"/>
</a>
</g>
</g>
<!-- Node44 -->
<g id="Node000044" class="node">
<title>Node44</title>
<g id="a_Node000044"><a xlink:href="ldo_8c.html#a14df0fa118ab124dfcc6d227bdd38ca5" target="_top" xlink:title=" ">
<polygon fill="white" stroke="#666666" points="762.75,-389.25 711.5,-389.25 711.5,-370 762.75,-370 762.75,-389.25"/>
<text xml:space="preserve" text-anchor="middle" x="737.12" y="-375.75" font-family="Helvetica,sans-Serif" font-size="10.00">f_parser</text>
</a>
</g>
</g>
<!-- Node602&#45;&gt;Node44 -->
<g id="edge42_Node000602_Node000044" class="edge">
<title>Node602&#45;&gt;Node44</title>
<g id="a_edge42_Node000602_Node000044"><a xlink:title=" ">
<path fill="none" stroke="#63b8ff" d="M834.47,-379.62C810.94,-379.62 782.82,-379.62 763.06,-379.62"/>
<polygon fill="#63b8ff" stroke="#63b8ff" points="834.43,-383.13 844.43,-379.63 834.43,-376.13 834.43,-383.13"/>
</a>
</g>
</g>
<!-- Node44&#45;&gt;Node45 -->
<g id="edge43_Node000044_Node000045" class="edge">
<title>Node44&#45;&gt;Node45</title>
<g id="a_edge43_Node000044_Node000045"><a xlink:title=" ">
<path fill="none" stroke="#63b8ff" d="M699.93,-381.98C685.2,-382.94 667.88,-384.07 651.73,-385.12"/>
<polygon fill="#63b8ff" stroke="#63b8ff" points="699.85,-385.5 709.6,-381.35 699.39,-378.51 699.85,-385.5"/>
</a>
</g>
</g>
<!-- Node605 -->
<g id="Node000605" class="node">
<title>Node605</title>
<g id="a_Node000605"><a xlink:href="lundump_8c.html#aef0399a03c281a51786c05a14b74b637" target="_top" xlink:title=" ">
<polygon fill="#fff0f0" stroke="red" points="633.88,-185.25 560.12,-185.25 560.12,-166 633.88,-166 633.88,-185.25"/>
<text xml:space="preserve" text-anchor="middle" x="597" y="-171.75" font-family="Helvetica,sans-Serif" font-size="10.00">checkHeader</text>
</a>
</g>
</g>
<!-- Node604&#45;&gt;Node605 -->
<g id="edge45_Node000604_Node000605" class="edge">
<title>Node604&#45;&gt;Node605</title>
<g id="a_edge45_Node000604_Node000605"><a xlink:title=" ">
<path fill="none" stroke="#63b8ff" d="M850.44,-226.63C840.95,-223.93 830.75,-219.83 822.75,-213.62 799.08,-195.26 812.99,-171.09 786.75,-156.62 733.1,-127.06 657.77,-150.48 620.59,-165.51"/>
<polygon fill="#63b8ff" stroke="#63b8ff" points="849.45,-229.99 859.99,-228.91 851.08,-223.18 849.45,-229.99"/>
</a>
</g>
</g>
<!-- Node606 -->
<g id="Node000606" class="node">
<title>Node606</title>
<g id="a_Node000606"><a xlink:href="lundump_8c.html#a005ddaa01fdc44c5223b2b641fcb1653" target="_top" xlink:title=" ">
<polygon fill="white" stroke="#666666" points="769.88,-185.25 704.38,-185.25 704.38,-166 769.88,-166 769.88,-185.25"/>
<text xml:space="preserve" text-anchor="middle" x="737.12" y="-171.75" font-family="Helvetica,sans-Serif" font-size="10.00">checkliteral</text>
</a>
</g>
</g>
<!-- Node604&#45;&gt;Node606 -->
<g id="edge46_Node000604_Node000606" class="edge">
<title>Node604&#45;&gt;Node606</title>
<g id="a_edge46_Node000604_Node000606"><a xlink:title=" ">
<path fill="none" stroke="#63b8ff" d="M850.58,-223.78C841.56,-220.94 831.61,-217.47 822.75,-213.62 805.96,-206.33 803.38,-201.27 786.75,-193.62 780.62,-190.81 773.9,-188.09 767.48,-185.67"/>
<polygon fill="#63b8ff" stroke="#63b8ff" points="849.32,-227.06 859.9,-226.59 851.34,-220.35 849.32,-227.06"/>
</a>
</g>
</g>
<!-- Node607 -->
<g id="Node000607" class="node">
<title>Node607</title>
<g id="a_Node000607"><a xlink:href="image__conversion__scene_8c.html#a7b7ba03e7978ac2c114e3ff4f535004c" target="_top" xlink:title=" ">
<polygon fill="#fff0f0" stroke="red" points="772.12,-296.25 702.12,-296.25 702.12,-277 772.12,-277 772.12,-296.25"/>
<text xml:space="preserve" text-anchor="middle" x="737.12" y="-282.75" font-family="Helvetica,sans-Serif" font-size="10.00">errdiff_dither</text>
</a>
</g>
</g>
<!-- Node604&#45;&gt;Node607 -->
<g id="edge48_Node000604_Node000607" class="edge">
<title>Node604&#45;&gt;Node607</title>
<g id="a_edge48_Node000604_Node000607"><a xlink:title=" ">
<path fill="none" stroke="#63b8ff" d="M850.63,-239.58C841.61,-242.43 831.65,-245.87 822.75,-249.62 806.08,-256.65 803.27,-261.25 786.75,-268.62 780.5,-271.42 773.68,-274.14 767.17,-276.58"/>
<polygon fill="#63b8ff" stroke="#63b8ff" points="851.39,-243.01 859.94,-236.75 849.36,-236.31 851.39,-243.01"/>
</a>
</g>
</g>
<!-- Node610 -->
<g id="Node000610" class="node">
<title>Node610</title>
<g id="a_Node000610"><a xlink:href="lundump_8c.html#adc6b144eed9f7f11d35f27ef83901e99" target="_top" xlink:title=" ">
<polygon fill="white" stroke="#666666" points="628.62,-278.25 565.38,-278.25 565.38,-259 628.62,-259 628.62,-278.25"/>
<text xml:space="preserve" text-anchor="middle" x="597" y="-264.75" font-family="Helvetica,sans-Serif" font-size="10.00">fchecksize</text>
</a>
</g>
</g>
<!-- Node604&#45;&gt;Node610 -->
<g id="edge49_Node000604_Node000610" class="edge">
<title>Node604&#45;&gt;Node610</title>
<g id="a_edge49_Node000604_Node000610"><a xlink:title=" ">
<path fill="none" stroke="#63b8ff" d="M850.47,-236.66C840.98,-239.36 830.77,-243.45 822.75,-249.62 799.3,-267.67 812.72,-291.45 786.75,-305.62 729.01,-337.15 648.36,-298.24 614.26,-278.64"/>
<polygon fill="#63b8ff" stroke="#63b8ff" points="851.11,-240.11 860.01,-234.37 849.47,-233.3 851.11,-240.11"/>
</a>
</g>
</g>
<!-- Node611 -->
<g id="Node000611" class="node">
<title>Node611</title>
<g id="a_Node000611"><a xlink:href="lundump_8c.html#a4670431cdf12dffe51a41446256a537f" target="_top" xlink:title=" ">
<polygon fill="white" stroke="#666666" points="766.5,-259.25 707.75,-259.25 707.75,-240 766.5,-240 766.5,-259.25"/>
<text xml:space="preserve" text-anchor="middle" x="737.12" y="-245.75" font-family="Helvetica,sans-Serif" font-size="10.00">loadBlock</text>
</a>
</g>
</g>
<!-- Node604&#45;&gt;Node611 -->
<g id="edge50_Node000604_Node000611" class="edge">
<title>Node604&#45;&gt;Node611</title>
<g id="a_edge50_Node000604_Node000611"><a xlink:title=" ">
<path fill="none" stroke="#63b8ff" d="M850.01,-235.28C825.81,-238.38 791.24,-242.81 766.94,-245.93"/>
<polygon fill="#63b8ff" stroke="#63b8ff" points="850.31,-238.77 859.79,-234.02 849.42,-231.83 850.31,-238.77"/>
</a>
</g>
</g>
<!-- Node612 -->
<g id="Node000612" class="node">
<title>Node612</title>
<g id="a_Node000612"><a xlink:href="lundump_8c.html#a42ccd2fdd0830eda677e6b0b4bb5ec5a" target="_top" xlink:title=" ">
<polygon fill="#fff0f0" stroke="red" points="764.25,-222.25 710,-222.25 710,-203 764.25,-203 764.25,-222.25"/>
<text xml:space="preserve" text-anchor="middle" x="737.12" y="-208.75" font-family="Helvetica,sans-Serif" font-size="10.00">loadByte</text>
</a>
</g>
</g>
<!-- Node604&#45;&gt;Node612 -->
<g id="edge51_Node000604_Node000612" class="edge">
<title>Node604&#45;&gt;Node612</title>
<g id="a_edge51_Node000604_Node000612"><a xlink:title=" ">
<path fill="none" stroke="#63b8ff" d="M850.01,-227.77C825.01,-224.39 788.96,-219.51 764.59,-216.21"/>
<polygon fill="#63b8ff" stroke="#63b8ff" points="849.41,-231.22 859.79,-229.09 850.35,-224.28 849.41,-231.22"/>
</a>
</g>
</g>
<!-- Node606&#45;&gt;Node605 -->
<g id="edge47_Node000606_Node000605" class="edge">
<title>Node606&#45;&gt;Node605</title>
<g id="a_edge47_Node000606_Node000605"><a xlink:title=" ">
<path fill="none" stroke="#63b8ff" d="M692.82,-175.62C673.99,-175.62 652.19,-175.62 634.25,-175.62"/>
<polygon fill="#63b8ff" stroke="#63b8ff" points="692.58,-179.13 702.58,-175.63 692.58,-172.13 692.58,-179.13"/>
</a>
</g>
</g>
<!-- Node612&#45;&gt;Node605 -->
<g id="edge52_Node000612_Node000605" class="edge">
<title>Node612&#45;&gt;Node605</title>
<g id="a_edge52_Node000612_Node000605"><a xlink:title=" ">
<path fill="none" stroke="#63b8ff" d="M698.88,-202.65C678.77,-197.26 654.06,-190.64 634.12,-185.3"/>
<polygon fill="#63b8ff" stroke="#63b8ff" points="697.79,-205.98 708.36,-205.19 699.6,-199.22 697.79,-205.98"/>
</a>
</g>
</g>
<!-- Node612&#45;&gt;Node610 -->
<g id="edge53_Node000612_Node000610" class="edge">
<title>Node612&#45;&gt;Node610</title>
<g id="a_edge53_Node000612_Node000610"><a xlink:title=" ">
<path fill="none" stroke="#63b8ff" d="M698.84,-226.22C695,-227.68 691.17,-229.17 687.5,-230.62 664.59,-239.72 638.7,-250.8 620.69,-258.64"/>
<polygon fill="#63b8ff" stroke="#63b8ff" points="699.99,-229.53 708.12,-222.74 697.53,-222.98 699.99,-229.53"/>
</a>
</g>
</g>
</g>
</svg>
