<?xml version="1.0" encoding="UTF-8" standalone="no"?>
<!DOCTYPE svg PUBLIC "-//W3C//DTD SVG 1.1//EN"
 "http://www.w3.org/Graphics/SVG/1.1/DTD/svg11.dtd">
<!-- Generated by graphviz version 13.1.0 (20250701.0955)
 -->
<!-- Title: lua&#45;5.4.7/ldo.c Pages: 1 -->
<svg width="1210pt" height="525pt"
 viewBox="0.00 0.00 1210.00 525.00" xmlns="http://www.w3.org/2000/svg" xmlns:xlink="http://www.w3.org/1999/xlink">
<g id="graph0" class="graph" transform="scale(1 1) rotate(0) translate(4 520.5)">
<title>lua&#45;5.4.7/ldo.c</title>
<!-- Node1 -->
<g id="Node000001" class="node">
<title>Node1</title>
<g id="a_Node000001"><a xlink:title=" ">
<polygon fill="#999999" stroke="#666666" points="599,-516.5 521.5,-516.5 521.5,-497.25 599,-497.25 599,-516.5"/>
<text xml:space="preserve" text-anchor="middle" x="560.25" y="-503" font-family="Helvetica,sans-Serif" font-size="10.00">lua&#45;5.4.7/ldo.c</text>
</a>
</g>
</g>
<!-- Node2 -->
<g id="Node000002" class="node">
<title>Node2</title>
<g id="a_Node000002"><a xlink:href="lprefix_8h.html" target="_top" xlink:title=" ">
<polygon fill="white" stroke="#666666" points="50.5,-461.25 0,-461.25 0,-442 50.5,-442 50.5,-461.25"/>
<text xml:space="preserve" text-anchor="middle" x="25.25" y="-447.75" font-family="Helvetica,sans-Serif" font-size="10.00">lprefix.h</text>
</a>
</g>
</g>
<!-- Node1&#45;&gt;Node2 -->
<g id="edge1_Node000001_Node000002" class="edge">
<title>Node1&#45;&gt;Node2</title>
<g id="a_edge1_Node000001_Node000002"><a xlink:title=" ">
<path fill="none" stroke="#63b8ff" d="M521,-504.51C437.97,-501.17 238.32,-490.72 62.08,-461.47"/>
<polygon fill="#63b8ff" stroke="#63b8ff" points="62.71,-458.03 52.27,-459.82 61.55,-464.93 62.71,-458.03"/>
</a>
</g>
</g>
<!-- Node3 -->
<g id="Node000003" class="node">
<title>Node3</title>
<g id="a_Node000003"><a xlink:title=" ">
<polygon fill="#e0e0e0" stroke="#999999" points="122,-461.25 68.5,-461.25 68.5,-442 122,-442 122,-461.25"/>
<text xml:space="preserve" text-anchor="middle" x="95.25" y="-447.75" font-family="Helvetica,sans-Serif" font-size="10.00">setjmp.h</text>
</a>
</g>
</g>
<!-- Node1&#45;&gt;Node3 -->
<g id="edge2_Node000001_Node000003" class="edge">
<title>Node1&#45;&gt;Node3</title>
<g id="a_edge2_Node000001_Node000003"><a xlink:title=" ">
<path fill="none" stroke="#63b8ff" d="M521.27,-503.54C447.49,-498.76 282.22,-486.28 133.43,-461.4"/>
<polygon fill="#63b8ff" stroke="#63b8ff" points="134.23,-457.99 123.79,-459.76 133.06,-464.89 134.23,-457.99"/>
</a>
</g>
</g>
<!-- Node4 -->
<g id="Node000004" class="node">
<title>Node4</title>
<g id="a_Node000004"><a xlink:title=" ">
<polygon fill="#e0e0e0" stroke="#999999" points="188,-461.25 140.5,-461.25 140.5,-442 188,-442 188,-461.25"/>
<text xml:space="preserve" text-anchor="middle" x="164.25" y="-447.75" font-family="Helvetica,sans-Serif" font-size="10.00">stdlib.h</text>
</a>
</g>
</g>
<!-- Node1&#45;&gt;Node4 -->
<g id="edge3_Node000001_Node000004" class="edge">
<title>Node1&#45;&gt;Node4</title>
<g id="a_edge3_Node000001_Node000004"><a xlink:title=" ">
<path fill="none" stroke="#63b8ff" d="M521.04,-502.78C456.14,-497.29 322.18,-484.37 199.4,-461.42"/>
<polygon fill="#63b8ff" stroke="#63b8ff" points="200.28,-458.02 189.8,-459.59 198.97,-464.9 200.28,-458.02"/>
</a>
</g>
</g>
<!-- Node5 -->
<g id="Node000005" class="node">
<title>Node5</title>
<g id="a_Node000005"><a xlink:title=" ">
<polygon fill="#e0e0e0" stroke="#999999" points="254.38,-461.25 206.12,-461.25 206.12,-442 254.38,-442 254.38,-461.25"/>
<text xml:space="preserve" text-anchor="middle" x="230.25" y="-447.75" font-family="Helvetica,sans-Serif" font-size="10.00">string.h</text>
</a>
</g>
</g>
<!-- Node1&#45;&gt;Node5 -->
<g id="edge4_Node000001_Node000005" class="edge">
<title>Node1&#45;&gt;Node5</title>
<g id="a_edge4_Node000001_Node000005"><a xlink:title=" ">
<path fill="none" stroke="#63b8ff" d="M521.37,-500.83C465.27,-493.36 358.44,-478.35 268.25,-461.25 267.43,-461.09 266.6,-460.93 265.76,-460.77"/>
<polygon fill="#63b8ff" stroke="#63b8ff" points="266.71,-457.39 256.21,-458.76 265.27,-464.24 266.71,-457.39"/>
</a>
</g>
</g>
<!-- Node6 -->
<g id="Node000006" class="node">
<title>Node6</title>
<g id="a_Node000006"><a xlink:href="lua_8h.html" target="_top" xlink:title=" ">
<polygon fill="white" stroke="#666666" points="916.75,-129.75 879.75,-129.75 879.75,-110.5 916.75,-110.5 916.75,-129.75"/>
<text xml:space="preserve" text-anchor="middle" x="898.25" y="-116.25" font-family="Helvetica,sans-Serif" font-size="10.00">lua.h</text>
</a>
</g>
</g>
<!-- Node1&#45;&gt;Node6 -->
<g id="edge5_Node000001_Node000006" class="edge">
<title>Node1&#45;&gt;Node6</title>
<g id="a_edge5_Node000001_Node000006"><a xlink:title=" ">
<path fill="none" stroke="#63b8ff" d="M599.14,-505.49C709.09,-503.98 1020.37,-496.61 1115.25,-461.25 1160.2,-444.5 1202.25,-445.34 1202.25,-397.38 1202.25,-397.38 1202.25,-397.38 1202.25,-229.62 1202.25,-171.78 1004.53,-136.67 928,-125.24"/>
<polygon fill="#63b8ff" stroke="#63b8ff" points="928.71,-121.81 918.31,-123.83 927.7,-128.74 928.71,-121.81"/>
</a>
</g>
</g>
<!-- Node11 -->
<g id="Node000011" class="node">
<title>Node11</title>
<g id="a_Node000011"><a xlink:href="lapi_8h.html" target="_top" xlink:title=" ">
<polygon fill="white" stroke="#666666" points="768.88,-406 729.62,-406 729.62,-386.75 768.88,-386.75 768.88,-406"/>
<text xml:space="preserve" text-anchor="middle" x="749.25" y="-392.5" font-family="Helvetica,sans-Serif" font-size="10.00">lapi.h</text>
</a>
</g>
</g>
<!-- Node1&#45;&gt;Node11 -->
<g id="edge11_Node000001_Node000011" class="edge">
<title>Node1&#45;&gt;Node11</title>
<g id="a_edge11_Node000001_Node000011"><a xlink:title=" ">
<path fill="none" stroke="#63b8ff" d="M576.09,-496.83C591.86,-487.82 616.73,-473.6 638.25,-461.25 667.55,-444.44 701.17,-425.08 723.66,-412.12"/>
<polygon fill="#63b8ff" stroke="#63b8ff" points="725.22,-415.27 732.14,-407.24 721.73,-409.2 725.22,-415.27"/>
</a>
</g>
</g>
<!-- Node13 -->
<g id="Node000013" class="node">
<title>Node13</title>
<g id="a_Node000013"><a xlink:href="lstate_8h.html" target="_top" xlink:title=" ">
<polygon fill="white" stroke="#666666" points="608.38,-350.75 560.12,-350.75 560.12,-331.5 608.38,-331.5 608.38,-350.75"/>
<text xml:space="preserve" text-anchor="middle" x="584.25" y="-337.25" font-family="Helvetica,sans-Serif" font-size="10.00">lstate.h</text>
</a>
</g>
</g>
<!-- Node1&#45;&gt;Node13 -->
<g id="edge51_Node000001_Node000013" class="edge">
<title>Node1&#45;&gt;Node13</title>
<g id="a_edge51_Node000001_Node000013"><a xlink:title=" ">
<path fill="none" stroke="#63b8ff" d="M544.19,-496.81C511.46,-477.16 442.5,-429.01 471.25,-386.75 488.51,-361.38 522.64,-350.43 548.9,-345.71"/>
<polygon fill="#63b8ff" stroke="#63b8ff" points="549.12,-349.22 558.46,-344.23 548.04,-342.3 549.12,-349.22"/>
</a>
</g>
</g>
<!-- Node14 -->
<g id="Node000014" class="node">
<title>Node14</title>
<g id="a_Node000014"><a xlink:href="lobject_8h.html" target="_top" xlink:title=" ">
<polygon fill="white" stroke="#666666" points="700.62,-240.25 647.88,-240.25 647.88,-221 700.62,-221 700.62,-240.25"/>
<text xml:space="preserve" text-anchor="middle" x="674.25" y="-226.75" font-family="Helvetica,sans-Serif" font-size="10.00">lobject.h</text>
</a>
</g>
</g>
<!-- Node1&#45;&gt;Node14 -->
<g id="edge44_Node000001_Node000014" class="edge">
<title>Node1&#45;&gt;Node14</title>
<g id="a_edge44_Node000001_Node000014"><a xlink:title=" ">
<path fill="none" stroke="#63b8ff" d="M521.19,-501.88C463.7,-495.42 359.71,-481.34 328.25,-461.25 298.77,-442.42 282.25,-432.36 282.25,-397.38 282.25,-397.38 282.25,-397.38 282.25,-340.12 282.25,-267.17 537.64,-241.3 636.14,-234.03"/>
<polygon fill="#63b8ff" stroke="#63b8ff" points="636.38,-237.53 646.1,-233.33 635.88,-230.54 636.38,-237.53"/>
</a>
</g>
</g>
<!-- Node15 -->
<g id="Node000015" class="node">
<title>Node15</title>
<g id="a_Node000015"><a xlink:href="ltm_8h.html" target="_top" xlink:title=" ">
<polygon fill="white" stroke="#666666" points="502.12,-295.5 464.38,-295.5 464.38,-276.25 502.12,-276.25 502.12,-295.5"/>
<text xml:space="preserve" text-anchor="middle" x="483.25" y="-282" font-family="Helvetica,sans-Serif" font-size="10.00">ltm.h</text>
</a>
</g>
</g>
<!-- Node1&#45;&gt;Node15 -->
<g id="edge58_Node000001_Node000015" class="edge">
<title>Node1&#45;&gt;Node15</title>
<g id="a_edge58_Node000001_Node000015"><a xlink:title=" ">
<path fill="none" stroke="#63b8ff" d="M521.12,-500.23C491.06,-494.39 449.67,-482.94 419.25,-461.25 394.35,-443.5 387.85,-435.03 378.25,-406 363.09,-360.14 417.86,-321.25 453.95,-301.28"/>
<polygon fill="#63b8ff" stroke="#63b8ff" points="455.48,-304.43 462.66,-296.64 452.19,-298.25 455.48,-304.43"/>
</a>
</g>
</g>
<!-- Node16 -->
<g id="Node000016" class="node">
<title>Node16</title>
<g id="a_Node000016"><a xlink:href="lzio_8h.html" target="_top" xlink:title=" ">
<polygon fill="white" stroke="#666666" points="1083.88,-295.5 1044.62,-295.5 1044.62,-276.25 1083.88,-276.25 1083.88,-295.5"/>
<text xml:space="preserve" text-anchor="middle" x="1064.25" y="-282" font-family="Helvetica,sans-Serif" font-size="10.00">lzio.h</text>
</a>
</g>
</g>
<!-- Node1&#45;&gt;Node16 -->
<g id="edge67_Node000001_Node000016" class="edge">
<title>Node1&#45;&gt;Node16</title>
<g id="a_edge67_Node000001_Node000016"><a xlink:title=" ">
<path fill="none" stroke="#63b8ff" d="M599.34,-505.98C660.76,-504.92 782.73,-497.88 878.25,-461.25 960.31,-429.78 988.73,-420.46 1042.25,-350.75 1052.09,-337.93 1057.71,-320.4 1060.81,-306.95"/>
<polygon fill="#63b8ff" stroke="#63b8ff" points="1064.17,-307.97 1062.69,-297.48 1057.31,-306.6 1064.17,-307.97"/>
</a>
</g>
</g>
<!-- Node17 -->
<g id="Node000017" class="node">
<title>Node17</title>
<g id="a_Node000017"><a xlink:href="lmem_8h.html" target="_top" xlink:title=" ">
<polygon fill="white" stroke="#666666" points="1174.38,-240.25 1126.12,-240.25 1126.12,-221 1174.38,-221 1174.38,-240.25"/>
<text xml:space="preserve" text-anchor="middle" x="1150.25" y="-226.75" font-family="Helvetica,sans-Serif" font-size="10.00">lmem.h</text>
</a>
</g>
</g>
<!-- Node1&#45;&gt;Node17 -->
<g id="edge43_Node000001_Node000017" class="edge">
<title>Node1&#45;&gt;Node17</title>
<g id="a_edge43_Node000001_Node000017"><a xlink:title=" ">
<path fill="none" stroke="#63b8ff" d="M599.32,-505.63C704.59,-504.48 991.98,-497.97 1078.25,-461.25 1117.92,-444.37 1151.25,-440.49 1151.25,-397.38 1151.25,-397.38 1151.25,-397.38 1151.25,-340.12 1151.25,-309.4 1150.84,-273.79 1150.55,-251.99"/>
<polygon fill="#63b8ff" stroke="#63b8ff" points="1154.05,-252.09 1150.41,-242.14 1147.05,-252.19 1154.05,-252.09"/>
</a>
</g>
</g>
<!-- Node19 -->
<g id="Node000019" class="node">
<title>Node19</title>
<g id="a_Node000019"><a xlink:href="ldebug_8h.html" target="_top" xlink:title=" ">
<polygon fill="white" stroke="#666666" points="532.62,-406 479.88,-406 479.88,-386.75 532.62,-386.75 532.62,-406"/>
<text xml:space="preserve" text-anchor="middle" x="506.25" y="-392.5" font-family="Helvetica,sans-Serif" font-size="10.00">ldebug.h</text>
</a>
</g>
</g>
<!-- Node1&#45;&gt;Node19 -->
<g id="edge31_Node000001_Node000019" class="edge">
<title>Node1&#45;&gt;Node19</title>
<g id="a_edge31_Node000001_Node000019"><a xlink:title=" ">
<path fill="none" stroke="#63b8ff" d="M551.93,-496.95C544.33,-488.36 533.23,-474.75 526.25,-461.25 519.05,-447.33 513.88,-430.34 510.61,-417.39"/>
<polygon fill="#63b8ff" stroke="#63b8ff" points="514.08,-416.85 508.39,-407.91 507.26,-418.44 514.08,-416.85"/>
</a>
</g>
</g>
<!-- Node20 -->
<g id="Node000020" class="node">
<title>Node20</title>
<g id="a_Node000020"><a xlink:href="ldo_8h.html" target="_top" xlink:title=" ">
<polygon fill="white" stroke="#666666" points="862.75,-406 825.75,-406 825.75,-386.75 862.75,-386.75 862.75,-406"/>
<text xml:space="preserve" text-anchor="middle" x="844.25" y="-392.5" font-family="Helvetica,sans-Serif" font-size="10.00">ldo.h</text>
</a>
</g>
</g>
<!-- Node1&#45;&gt;Node20 -->
<g id="edge33_Node000001_Node000020" class="edge">
<title>Node1&#45;&gt;Node20</title>
<g id="a_edge33_Node000001_Node000020"><a xlink:title=" ">
<path fill="none" stroke="#63b8ff" d="M599.06,-502.2C657.99,-496.03 766.66,-482.18 799.25,-461.25 815.99,-450.5 828.31,-431.11 835.79,-416.51"/>
<polygon fill="#63b8ff" stroke="#63b8ff" points="838.77,-418.39 839.91,-407.86 832.45,-415.38 838.77,-418.39"/>
</a>
</g>
</g>
<!-- Node21 -->
<g id="Node000021" class="node">
<title>Node21</title>
<g id="a_Node000021"><a xlink:href="lfunc_8h.html" target="_top" xlink:title=" ">
<polygon fill="white" stroke="#666666" points="355.88,-350.75 310.62,-350.75 310.62,-331.5 355.88,-331.5 355.88,-350.75"/>
<text xml:space="preserve" text-anchor="middle" x="333.25" y="-337.25" font-family="Helvetica,sans-Serif" font-size="10.00">lfunc.h</text>
</a>
</g>
</g>
<!-- Node1&#45;&gt;Node21 -->
<g id="edge38_Node000001_Node000021" class="edge">
<title>Node1&#45;&gt;Node21</title>
<g id="a_edge38_Node000001_Node000021"><a xlink:title=" ">
<path fill="none" stroke="#63b8ff" d="M521.44,-503.28C465.76,-498.69 367.35,-487.08 344.25,-461.25 319.98,-434.11 323.79,-388.27 328.61,-362.08"/>
<polygon fill="#63b8ff" stroke="#63b8ff" points="332,-362.95 330.62,-352.45 325.15,-361.52 332,-362.95"/>
</a>
</g>
</g>
<!-- Node22 -->
<g id="Node000022" class="node">
<title>Node22</title>
<g id="a_Node000022"><a xlink:href="lgc_8h.html" target="_top" xlink:title=" ">
<polygon fill="white" stroke="#666666" points="423.75,-406 386.75,-406 386.75,-386.75 423.75,-386.75 423.75,-406"/>
<text xml:space="preserve" text-anchor="middle" x="405.25" y="-392.5" font-family="Helvetica,sans-Serif" font-size="10.00">lgc.h</text>
</a>
</g>
</g>
<!-- Node1&#45;&gt;Node22 -->
<g id="edge40_Node000001_Node000022" class="edge">
<title>Node1&#45;&gt;Node22</title>
<g id="a_edge40_Node000001_Node000022"><a xlink:title=" ">
<path fill="none" stroke="#63b8ff" d="M521.27,-499.29C495.23,-493.19 461.6,-481.83 438.25,-461.25 424.79,-449.39 416.04,-430.71 410.96,-416.61"/>
<polygon fill="#63b8ff" stroke="#63b8ff" points="414.42,-415.95 407.99,-407.53 407.77,-418.12 414.42,-415.95"/>
</a>
</g>
</g>
<!-- Node23 -->
<g id="Node000023" class="node">
<title>Node23</title>
<g id="a_Node000023"><a xlink:href="lopcodes_8h.html" target="_top" xlink:title=" ">
<polygon fill="white" stroke="#666666" points="1107.88,-240.25 1044.62,-240.25 1044.62,-221 1107.88,-221 1107.88,-240.25"/>
<text xml:space="preserve" text-anchor="middle" x="1076.25" y="-226.75" font-family="Helvetica,sans-Serif" font-size="10.00">lopcodes.h</text>
</a>
</g>
</g>
<!-- Node1&#45;&gt;Node23 -->
<g id="edge45_Node000001_Node000023" class="edge">
<title>Node1&#45;&gt;Node23</title>
<g id="a_edge45_Node000001_Node000023"><a xlink:title=" ">
<path fill="none" stroke="#63b8ff" d="M599.14,-506.52C725.01,-507.57 1113.25,-502.31 1113.25,-397.38 1113.25,-397.38 1113.25,-397.38 1113.25,-340.12 1113.25,-307.23 1097.82,-271.58 1086.89,-250.45"/>
<polygon fill="#63b8ff" stroke="#63b8ff" points="1090.1,-249.03 1082.27,-241.89 1083.95,-252.35 1090.1,-249.03"/>
</a>
</g>
</g>
<!-- Node24 -->
<g id="Node000024" class="node">
<title>Node24</title>
<g id="a_Node000024"><a xlink:href="lparser_8h.html" target="_top" xlink:title=" ">
<polygon fill="white" stroke="#666666" points="929.62,-350.75 876.88,-350.75 876.88,-331.5 929.62,-331.5 929.62,-350.75"/>
<text xml:space="preserve" text-anchor="middle" x="903.25" y="-337.25" font-family="Helvetica,sans-Serif" font-size="10.00">lparser.h</text>
</a>
</g>
</g>
<!-- Node1&#45;&gt;Node24 -->
<g id="edge47_Node000001_Node000024" class="edge">
<title>Node1&#45;&gt;Node24</title>
<g id="a_edge47_Node000001_Node000024"><a xlink:title=" ">
<path fill="none" stroke="#63b8ff" d="M599.27,-502.45C662.84,-496.35 785.44,-482.24 823.25,-461.25 862.34,-439.56 885.93,-389.74 896.55,-361.89"/>
<polygon fill="#63b8ff" stroke="#63b8ff" points="899.82,-363.15 899.91,-352.56 893.23,-360.78 899.82,-363.15"/>
</a>
</g>
</g>
<!-- Node25 -->
<g id="Node000025" class="node">
<title>Node25</title>
<g id="a_Node000025"><a xlink:href="lstring_8h.html" target="_top" xlink:title=" ">
<polygon fill="white" stroke="#666666" points="585.5,-461.25 535,-461.25 535,-442 585.5,-442 585.5,-461.25"/>
<text xml:space="preserve" text-anchor="middle" x="560.25" y="-447.75" font-family="Helvetica,sans-Serif" font-size="10.00">lstring.h</text>
</a>
</g>
</g>
<!-- Node1&#45;&gt;Node25 -->
<g id="edge52_Node000001_Node000025" class="edge">
<title>Node1&#45;&gt;Node25</title>
<g id="a_edge52_Node000001_Node000025"><a xlink:title=" ">
<path fill="none" stroke="#63b8ff" d="M560.25,-497.08C560.25,-490.57 560.25,-481.42 560.25,-473.12"/>
<polygon fill="#63b8ff" stroke="#63b8ff" points="563.75,-473.12 560.25,-463.12 556.75,-473.12 563.75,-473.12"/>
</a>
</g>
</g>
<!-- Node26 -->
<g id="Node000026" class="node">
<title>Node26</title>
<g id="a_Node000026"><a xlink:href="ltable_8h.html" target="_top" xlink:title=" ">
<polygon fill="white" stroke="#666666" points="712,-406 664.5,-406 664.5,-386.75 712,-386.75 712,-406"/>
<text xml:space="preserve" text-anchor="middle" x="688.25" y="-392.5" font-family="Helvetica,sans-Serif" font-size="10.00">ltable.h</text>
</a>
</g>
</g>
<!-- Node1&#45;&gt;Node26 -->
<g id="edge56_Node000001_Node000026" class="edge">
<title>Node1&#45;&gt;Node26</title>
<g id="a_edge56_Node000001_Node000026"><a xlink:title=" ">
<path fill="none" stroke="#63b8ff" d="M570.72,-497C592.2,-478.8 641.48,-437.02 668.92,-413.76"/>
<polygon fill="#63b8ff" stroke="#63b8ff" points="671.11,-416.49 676.48,-407.36 666.58,-411.15 671.11,-416.49"/>
</a>
</g>
</g>
<!-- Node27 -->
<g id="Node000027" class="node">
<title>Node27</title>
<g id="a_Node000027"><a xlink:href="lundump_8h.html" target="_top" xlink:title=" ">
<polygon fill="white" stroke="#666666" points="1008.75,-350.75 947.75,-350.75 947.75,-331.5 1008.75,-331.5 1008.75,-350.75"/>
<text xml:space="preserve" text-anchor="middle" x="978.25" y="-337.25" font-family="Helvetica,sans-Serif" font-size="10.00">lundump.h</text>
</a>
</g>
</g>
<!-- Node1&#45;&gt;Node27 -->
<g id="edge59_Node000001_Node000027" class="edge">
<title>Node1&#45;&gt;Node27</title>
<g id="a_edge59_Node000001_Node000027"><a xlink:title=" ">
<path fill="none" stroke="#63b8ff" d="M599.31,-502.68C667.66,-496.64 805.81,-482.2 849.25,-461.25 899.16,-437.18 943.23,-387.23 964.59,-360.29"/>
<polygon fill="#63b8ff" stroke="#63b8ff" points="967.35,-362.44 970.71,-352.39 961.82,-358.16 967.35,-362.44"/>
</a>
</g>
</g>
<!-- Node28 -->
<g id="Node000028" class="node">
<title>Node28</title>
<g id="a_Node000028"><a xlink:href="lvm_8h.html" target="_top" xlink:title=" ">
<polygon fill="white" stroke="#666666" points="790.25,-461.25 750.25,-461.25 750.25,-442 790.25,-442 790.25,-461.25"/>
<text xml:space="preserve" text-anchor="middle" x="770.25" y="-447.75" font-family="Helvetica,sans-Serif" font-size="10.00">lvm.h</text>
</a>
</g>
</g>
<!-- Node1&#45;&gt;Node28 -->
<g id="edge63_Node000001_Node000028" class="edge">
<title>Node1&#45;&gt;Node28</title>
<g id="a_edge63_Node000001_Node000028"><a xlink:title=" ">
<path fill="none" stroke="#63b8ff" d="M595.87,-496.84C635.96,-486.68 700.47,-470.32 738.77,-460.61"/>
<polygon fill="#63b8ff" stroke="#63b8ff" points="739.46,-464.04 748.29,-458.19 737.74,-457.26 739.46,-464.04"/>
</a>
</g>
</g>
<!-- Node7 -->
<g id="Node000007" class="node">
<title>Node7</title>
<g id="a_Node000007"><a xlink:title=" ">
<polygon fill="#e0e0e0" stroke="#999999" points="739.88,-74.5 688.62,-74.5 688.62,-55.25 739.88,-55.25 739.88,-74.5"/>
<text xml:space="preserve" text-anchor="middle" x="714.25" y="-61" font-family="Helvetica,sans-Serif" font-size="10.00">stdarg.h</text>
</a>
</g>
</g>
<!-- Node6&#45;&gt;Node7 -->
<g id="edge6_Node000006_Node000007" class="edge">
<title>Node6&#45;&gt;Node7</title>
<g id="a_edge6_Node000006_Node000007"><a xlink:title=" ">
<path fill="none" stroke="#63b8ff" d="M879.25,-113.63C849.08,-104.9 789.68,-87.71 750.99,-76.51"/>
<polygon fill="#63b8ff" stroke="#63b8ff" points="752.22,-73.22 741.64,-73.8 750.28,-79.95 752.22,-73.22"/>
</a>
</g>
</g>
<!-- Node8 -->
<g id="Node000008" class="node">
<title>Node8</title>
<g id="a_Node000008"><a xlink:title=" ">
<polygon fill="#e0e0e0" stroke="#999999" points="951.88,-19.25 900.62,-19.25 900.62,0 951.88,0 951.88,-19.25"/>
<text xml:space="preserve" text-anchor="middle" x="926.25" y="-5.75" font-family="Helvetica,sans-Serif" font-size="10.00">stddef.h</text>
</a>
</g>
</g>
<!-- Node6&#45;&gt;Node8 -->
<g id="edge7_Node000006_Node000008" class="edge">
<title>Node6&#45;&gt;Node8</title>
<g id="a_edge7_Node000006_Node000008"><a xlink:title=" ">
<path fill="none" stroke="#63b8ff" d="M900.54,-110.25C905.01,-92.92 915,-54.23 921.12,-30.49"/>
<polygon fill="#63b8ff" stroke="#63b8ff" points="924.44,-31.65 923.55,-21.09 917.66,-29.9 924.44,-31.65"/>
</a>
</g>
</g>
<!-- Node9 -->
<g id="Node000009" class="node">
<title>Node9</title>
<g id="a_Node000009"><a xlink:href="luaconf_8h.html" target="_top" xlink:title=" ">
<polygon fill="white" stroke="#666666" points="879.12,-74.5 823.38,-74.5 823.38,-55.25 879.12,-55.25 879.12,-74.5"/>
<text xml:space="preserve" text-anchor="middle" x="851.25" y="-61" font-family="Helvetica,sans-Serif" font-size="10.00">luaconf.h</text>
</a>
</g>
</g>
<!-- Node6&#45;&gt;Node9 -->
<g id="edge8_Node000006_Node000009" class="edge">
<title>Node6&#45;&gt;Node9</title>
<g id="a_edge8_Node000006_Node000009"><a xlink:title=" ">
<path fill="none" stroke="#63b8ff" d="M890.49,-110.33C884.06,-103.05 874.74,-92.48 866.79,-83.48"/>
<polygon fill="#63b8ff" stroke="#63b8ff" points="869.42,-81.18 860.18,-75.99 864.17,-85.81 869.42,-81.18"/>
</a>
</g>
</g>
<!-- Node9&#45;&gt;Node8 -->
<g id="edge10_Node000009_Node000008" class="edge">
<title>Node9&#45;&gt;Node8</title>
<g id="a_edge10_Node000009_Node000008"><a xlink:title=" ">
<path fill="none" stroke="#63b8ff" d="M863.97,-54.84C874.96,-47.04 891.09,-35.59 904.18,-26.29"/>
<polygon fill="#63b8ff" stroke="#63b8ff" points="906.1,-29.22 912.23,-20.58 902.05,-23.51 906.1,-29.22"/>
</a>
</g>
</g>
<!-- Node10 -->
<g id="Node000010" class="node">
<title>Node10</title>
<g id="a_Node000010"><a xlink:title=" ">
<polygon fill="#e0e0e0" stroke="#999999" points="760,-19.25 712.5,-19.25 712.5,0 760,0 760,-19.25"/>
<text xml:space="preserve" text-anchor="middle" x="736.25" y="-5.75" font-family="Helvetica,sans-Serif" font-size="10.00">limits.h</text>
</a>
</g>
</g>
<!-- Node9&#45;&gt;Node10 -->
<g id="edge9_Node000009_Node000010" class="edge">
<title>Node9&#45;&gt;Node10</title>
<g id="a_edge9_Node000009_Node000010"><a xlink:title=" ">
<path fill="none" stroke="#63b8ff" d="M831.74,-54.84C813.73,-46.5 786.73,-34 766.02,-24.41"/>
<polygon fill="#63b8ff" stroke="#63b8ff" points="767.77,-21.36 757.23,-20.34 764.83,-27.72 767.77,-21.36"/>
</a>
</g>
</g>
<!-- Node12 -->
<g id="Node000012" class="node">
<title>Node12</title>
<g id="a_Node000012"><a xlink:href="llimits_8h.html" target="_top" xlink:title=" ">
<polygon fill="white" stroke="#666666" points="946.12,-185 896.38,-185 896.38,-165.75 946.12,-165.75 946.12,-185"/>
<text xml:space="preserve" text-anchor="middle" x="921.25" y="-171.5" font-family="Helvetica,sans-Serif" font-size="10.00">llimits.h</text>
</a>
</g>
</g>
<!-- Node11&#45;&gt;Node12 -->
<g id="edge12_Node000011_Node000012" class="edge">
<title>Node11&#45;&gt;Node12</title>
<g id="a_edge12_Node000011_Node000012"><a xlink:title=" ">
<path fill="none" stroke="#63b8ff" d="M756.21,-386.52C781.98,-353.7 872.33,-238.66 907.29,-194.15"/>
<polygon fill="#63b8ff" stroke="#63b8ff" points="910.04,-196.32 913.46,-186.29 904.53,-191.99 910.04,-196.32"/>
</a>
</g>
</g>
<!-- Node11&#45;&gt;Node13 -->
<g id="edge16_Node000011_Node000013" class="edge">
<title>Node11&#45;&gt;Node13</title>
<g id="a_edge16_Node000011_Node000013"><a xlink:title=" ">
<path fill="none" stroke="#63b8ff" d="M729.35,-388.95C702.16,-380.18 652.98,-364.31 619.49,-353.5"/>
<polygon fill="#63b8ff" stroke="#63b8ff" points="620.82,-350.25 610.22,-350.51 618.67,-356.91 620.82,-350.25"/>
</a>
</g>
</g>
<!-- Node12&#45;&gt;Node6 -->
<g id="edge15_Node000012_Node000006" class="edge">
<title>Node12&#45;&gt;Node6</title>
<g id="a_edge15_Node000012_Node000006"><a xlink:title=" ">
<path fill="none" stroke="#63b8ff" d="M917.45,-165.58C914.51,-158.76 910.31,-149.06 906.6,-140.45"/>
<polygon fill="#63b8ff" stroke="#63b8ff" points="909.91,-139.29 902.73,-131.5 903.48,-142.07 909.91,-139.29"/>
</a>
</g>
</g>
<!-- Node12&#45;&gt;Node8 -->
<g id="edge14_Node000012_Node000008" class="edge">
<title>Node12&#45;&gt;Node8</title>
<g id="a_edge14_Node000012_Node000008"><a xlink:title=" ">
<path fill="none" stroke="#63b8ff" d="M922.54,-165.51C923.78,-156.52 925.55,-142.2 926.25,-129.75 928.19,-95.08 927.58,-54.64 926.94,-30.92"/>
<polygon fill="#63b8ff" stroke="#63b8ff" points="930.44,-31 926.64,-21.11 923.45,-31.22 930.44,-31"/>
</a>
</g>
</g>
<!-- Node12&#45;&gt;Node10 -->
<g id="edge13_Node000012_Node000010" class="edge">
<title>Node12&#45;&gt;Node10</title>
<g id="a_edge13_Node000012_Node000010"><a xlink:title=" ">
<path fill="none" stroke="#63b8ff" d="M896.16,-172.73C844.92,-167.85 728.92,-148.73 679.25,-74.5 667.02,-56.22 687.98,-37.73 707.84,-25.38"/>
<polygon fill="#63b8ff" stroke="#63b8ff" points="709.46,-28.49 716.34,-20.44 705.94,-22.44 709.46,-28.49"/>
</a>
</g>
</g>
<!-- Node13&#45;&gt;Node6 -->
<g id="edge17_Node000013_Node000006" class="edge">
<title>Node13&#45;&gt;Node6</title>
<g id="a_edge17_Node000013_Node000006"><a xlink:title=" ">
<path fill="none" stroke="#63b8ff" d="M596.95,-331.27C644.88,-297.84 815.17,-179.07 876.25,-136.47"/>
<polygon fill="#63b8ff" stroke="#63b8ff" points="877.95,-139.55 884.15,-130.96 873.95,-133.81 877.95,-139.55"/>
</a>
</g>
</g>
<!-- Node13&#45;&gt;Node14 -->
<g id="edge18_Node000013_Node000014" class="edge">
<title>Node13&#45;&gt;Node14</title>
<g id="a_edge18_Node000013_Node000014"><a xlink:title=" ">
<path fill="none" stroke="#63b8ff" d="M572.87,-331.07C558.27,-318.34 536.28,-294.65 549.25,-276.25 568.73,-248.6 606.97,-237.99 636.04,-233.97"/>
<polygon fill="#63b8ff" stroke="#63b8ff" points="636.43,-237.44 645.97,-232.82 635.63,-230.49 636.43,-237.44"/>
</a>
</g>
</g>
<!-- Node13&#45;&gt;Node15 -->
<g id="edge22_Node000013_Node000015" class="edge">
<title>Node13&#45;&gt;Node15</title>
<g id="a_edge22_Node000013_Node000015"><a xlink:title=" ">
<path fill="none" stroke="#63b8ff" d="M567.12,-331.09C551.59,-322.91 528.45,-310.71 510.41,-301.19"/>
<polygon fill="#63b8ff" stroke="#63b8ff" points="512.28,-298.23 501.81,-296.66 509.02,-304.42 512.28,-298.23"/>
</a>
</g>
</g>
<!-- Node13&#45;&gt;Node16 -->
<g id="edge24_Node000013_Node000016" class="edge">
<title>Node13&#45;&gt;Node16</title>
<g id="a_edge24_Node000013_Node000016"><a xlink:title=" ">
<path fill="none" stroke="#63b8ff" d="M608.71,-337.41C688.9,-328.52 943.73,-300.25 1033,-290.34"/>
<polygon fill="#63b8ff" stroke="#63b8ff" points="1033.17,-293.84 1042.72,-289.26 1032.39,-286.89 1033.17,-293.84"/>
</a>
</g>
</g>
<!-- Node18 -->
<g id="Node000018" class="node">
<title>Node18</title>
<g id="a_Node000018"><a xlink:title=" ">
<polygon fill="#e0e0e0" stroke="#999999" points="608.12,-295.5 558.38,-295.5 558.38,-276.25 608.12,-276.25 608.12,-295.5"/>
<text xml:space="preserve" text-anchor="middle" x="583.25" y="-282" font-family="Helvetica,sans-Serif" font-size="10.00">signal.h</text>
</a>
</g>
</g>
<!-- Node13&#45;&gt;Node18 -->
<g id="edge30_Node000013_Node000018" class="edge">
<title>Node13&#45;&gt;Node18</title>
<g id="a_edge30_Node000013_Node000018"><a xlink:title=" ">
<path fill="none" stroke="#63b8ff" d="M584.08,-331.33C583.96,-324.82 583.79,-315.67 583.63,-307.37"/>
<polygon fill="#63b8ff" stroke="#63b8ff" points="587.13,-307.3 583.45,-297.37 580.14,-307.44 587.13,-307.3"/>
</a>
</g>
</g>
<!-- Node14&#45;&gt;Node6 -->
<g id="edge21_Node000014_Node000006" class="edge">
<title>Node14&#45;&gt;Node6</title>
<g id="a_edge21_Node000014_Node000006"><a xlink:title=" ">
<path fill="none" stroke="#63b8ff" d="M680.4,-220.75C690.46,-206.9 711.78,-180.24 736.25,-165.75 778.13,-140.96 834.22,-129.53 868.22,-124.57"/>
<polygon fill="#63b8ff" stroke="#63b8ff" points="868.32,-128.09 877.76,-123.28 867.39,-121.15 868.32,-128.09"/>
</a>
</g>
</g>
<!-- Node14&#45;&gt;Node7 -->
<g id="edge19_Node000014_Node000007" class="edge">
<title>Node14&#45;&gt;Node7</title>
<g id="a_edge19_Node000014_Node000007"><a xlink:title=" ">
<path fill="none" stroke="#63b8ff" d="M676.4,-220.82C682.61,-195.39 700.7,-121.35 709.43,-85.62"/>
<polygon fill="#63b8ff" stroke="#63b8ff" points="712.76,-86.74 711.73,-76.19 705.96,-85.08 712.76,-86.74"/>
</a>
</g>
</g>
<!-- Node14&#45;&gt;Node12 -->
<g id="edge20_Node000014_Node000012" class="edge">
<title>Node14&#45;&gt;Node12</title>
<g id="a_edge20_Node000014_Node000012"><a xlink:title=" ">
<path fill="none" stroke="#63b8ff" d="M700.68,-223.93C745.13,-214.34 834.91,-194.99 885.14,-184.16"/>
<polygon fill="#63b8ff" stroke="#63b8ff" points="885.6,-187.64 894.63,-182.11 884.12,-180.8 885.6,-187.64"/>
</a>
</g>
</g>
<!-- Node15&#45;&gt;Node14 -->
<g id="edge23_Node000015_Node000014" class="edge">
<title>Node15&#45;&gt;Node14</title>
<g id="a_edge23_Node000015_Node000014"><a xlink:title=" ">
<path fill="none" stroke="#63b8ff" d="M502.62,-279.48C533.93,-270.75 596.24,-253.38 636.54,-242.14"/>
<polygon fill="#63b8ff" stroke="#63b8ff" points="637.38,-245.54 646.07,-239.48 635.5,-238.8 637.38,-245.54"/>
</a>
</g>
</g>
<!-- Node16&#45;&gt;Node6 -->
<g id="edge25_Node000016_Node000006" class="edge">
<title>Node16&#45;&gt;Node6</title>
<g id="a_edge25_Node000016_Node000006"><a xlink:title=" ">
<path fill="none" stroke="#63b8ff" d="M1057.04,-276.04C1040.21,-255.64 996.59,-204.03 955.25,-165.75 944.24,-155.55 931.09,-145.16 920.2,-136.97"/>
<polygon fill="#63b8ff" stroke="#63b8ff" points="922.3,-134.17 912.18,-131.03 918.14,-139.79 922.3,-134.17"/>
</a>
</g>
</g>
<!-- Node16&#45;&gt;Node17 -->
<g id="edge26_Node000016_Node000017" class="edge">
<title>Node16&#45;&gt;Node17</title>
<g id="a_edge26_Node000016_Node000017"><a xlink:title=" ">
<path fill="none" stroke="#63b8ff" d="M1078.84,-275.84C1091.69,-267.89 1110.66,-256.14 1125.82,-246.75"/>
<polygon fill="#63b8ff" stroke="#63b8ff" points="1127.64,-249.74 1134.3,-241.5 1123.96,-243.79 1127.64,-249.74"/>
</a>
</g>
</g>
<!-- Node17&#45;&gt;Node6 -->
<g id="edge29_Node000017_Node000006" class="edge">
<title>Node17&#45;&gt;Node6</title>
<g id="a_edge29_Node000017_Node000006"><a xlink:title=" ">
<path fill="none" stroke="#63b8ff" d="M1135.11,-220.53C1112.73,-207.33 1069.25,-182.59 1030.25,-165.75 995.85,-150.9 954.76,-137.68 927.67,-129.56"/>
<polygon fill="#63b8ff" stroke="#63b8ff" points="929.01,-126.31 918.42,-126.83 927.02,-133.02 929.01,-126.31"/>
</a>
</g>
</g>
<!-- Node17&#45;&gt;Node8 -->
<g id="edge27_Node000017_Node000008" class="edge">
<title>Node17&#45;&gt;Node8</title>
<g id="a_edge27_Node000017_Node000008"><a xlink:title=" ">
<path fill="none" stroke="#63b8ff" d="M1141.19,-220.77C1107.35,-187.68 987.97,-70.97 943.29,-27.29"/>
<polygon fill="#63b8ff" stroke="#63b8ff" points="945.86,-24.9 936.26,-20.41 940.96,-29.9 945.86,-24.9"/>
</a>
</g>
</g>
<!-- Node17&#45;&gt;Node12 -->
<g id="edge28_Node000017_Node000012" class="edge">
<title>Node17&#45;&gt;Node12</title>
<g id="a_edge28_Node000017_Node000012"><a xlink:title=" ">
<path fill="none" stroke="#63b8ff" d="M1125.76,-223.13C1122.9,-222.4 1120.01,-221.67 1117.25,-221 1061.68,-207.41 996.91,-192.93 957.51,-184.27"/>
<polygon fill="#63b8ff" stroke="#63b8ff" points="958.37,-180.87 947.85,-182.15 956.87,-187.71 958.37,-180.87"/>
</a>
</g>
</g>
<!-- Node19&#45;&gt;Node13 -->
<g id="edge32_Node000019_Node000013" class="edge">
<title>Node19&#45;&gt;Node13</title>
<g id="a_edge32_Node000019_Node000013"><a xlink:title=" ">
<path fill="none" stroke="#63b8ff" d="M519.48,-386.34C531.02,-378.46 548.02,-366.86 561.7,-357.52"/>
<polygon fill="#63b8ff" stroke="#63b8ff" points="563.42,-360.58 569.7,-352.06 559.47,-354.8 563.42,-360.58"/>
</a>
</g>
</g>
<!-- Node20&#45;&gt;Node12 -->
<g id="edge34_Node000020_Node000012" class="edge">
<title>Node20&#45;&gt;Node12</title>
<g id="a_edge34_Node000020_Node000012"><a xlink:title=" ">
<path fill="none" stroke="#63b8ff" d="M847.36,-386.52C858.76,-354.12 898.33,-241.55 914.4,-195.87"/>
<polygon fill="#63b8ff" stroke="#63b8ff" points="917.66,-197.12 917.68,-186.53 911.06,-194.8 917.66,-197.12"/>
</a>
</g>
</g>
<!-- Node20&#45;&gt;Node13 -->
<g id="edge36_Node000020_Node000013" class="edge">
<title>Node20&#45;&gt;Node13</title>
<g id="a_edge36_Node000020_Node000013"><a xlink:title=" ">
<path fill="none" stroke="#63b8ff" d="M825.55,-391.55C782.5,-382.73 675.81,-360.88 619.83,-349.41"/>
<polygon fill="#63b8ff" stroke="#63b8ff" points="620.68,-346.01 610.18,-347.44 619.27,-352.87 620.68,-346.01"/>
</a>
</g>
</g>
<!-- Node20&#45;&gt;Node14 -->
<g id="edge35_Node000020_Node000014" class="edge">
<title>Node20&#45;&gt;Node14</title>
<g id="a_edge35_Node000020_Node000014"><a xlink:title=" ">
<path fill="none" stroke="#63b8ff" d="M836.79,-386.43C826.16,-373.82 805.89,-350.28 787.25,-331.5 761.48,-305.54 753.69,-300.44 726.25,-276.25 715.43,-266.71 703.19,-256.2 693.31,-247.77"/>
<polygon fill="#63b8ff" stroke="#63b8ff" points="695.72,-245.22 685.83,-241.41 691.19,-250.56 695.72,-245.22"/>
</a>
</g>
</g>
<!-- Node20&#45;&gt;Node16 -->
<g id="edge37_Node000020_Node000016" class="edge">
<title>Node20&#45;&gt;Node16</title>
<g id="a_edge37_Node000020_Node000016"><a xlink:title=" ">
<path fill="none" stroke="#63b8ff" d="M863.22,-394.67C897.17,-392.55 969.31,-384.15 1018.25,-350.75 1034.8,-339.45 1047.48,-320.14 1055.3,-305.71"/>
<polygon fill="#63b8ff" stroke="#63b8ff" points="1058.22,-307.68 1059.62,-297.18 1051.98,-304.51 1058.22,-307.68"/>
</a>
</g>
</g>
<!-- Node21&#45;&gt;Node14 -->
<g id="edge39_Node000021_Node000014" class="edge">
<title>Node21&#45;&gt;Node14</title>
<g id="a_edge39_Node000021_Node000014"><a xlink:title=" ">
<path fill="none" stroke="#63b8ff" d="M341.4,-331.45C355.17,-317.39 384.55,-289.82 415.25,-276.25 489.01,-243.65 584.36,-234.79 636.35,-232.43"/>
<polygon fill="#63b8ff" stroke="#63b8ff" points="636.31,-235.94 646.16,-232.05 636.03,-228.94 636.31,-235.94"/>
</a>
</g>
</g>
<!-- Node22&#45;&gt;Node13 -->
<g id="edge42_Node000022_Node000013" class="edge">
<title>Node22&#45;&gt;Node13</title>
<g id="a_edge42_Node000022_Node000013"><a xlink:title=" ">
<path fill="none" stroke="#63b8ff" d="M424.07,-389.78C453.6,-380.99 511.31,-363.82 548.8,-352.67"/>
<polygon fill="#63b8ff" stroke="#63b8ff" points="549.69,-356.06 558.28,-349.85 547.69,-349.35 549.69,-356.06"/>
</a>
</g>
</g>
<!-- Node22&#45;&gt;Node14 -->
<g id="edge41_Node000022_Node000014" class="edge">
<title>Node22&#45;&gt;Node14</title>
<g id="a_edge41_Node000022_Node000014"><a xlink:title=" ">
<path fill="none" stroke="#63b8ff" d="M406.18,-386.55C409.03,-364.26 419.71,-305.42 455.25,-276.25 482.43,-253.95 580.85,-240.86 636.05,-235.12"/>
<polygon fill="#63b8ff" stroke="#63b8ff" points="636.35,-238.6 645.95,-234.12 635.65,-231.64 636.35,-238.6"/>
</a>
</g>
</g>
<!-- Node23&#45;&gt;Node12 -->
<g id="edge46_Node000023_Node000012" class="edge">
<title>Node23&#45;&gt;Node12</title>
<g id="a_edge46_Node000023_Node000012"><a xlink:title=" ">
<path fill="none" stroke="#63b8ff" d="M1049.96,-220.59C1024.41,-211.82 985.44,-198.43 957.07,-188.68"/>
<polygon fill="#63b8ff" stroke="#63b8ff" points="958.41,-185.44 947.82,-185.5 956.14,-192.06 958.41,-185.44"/>
</a>
</g>
</g>
<!-- Node24&#45;&gt;Node12 -->
<g id="edge48_Node000024_Node000012" class="edge">
<title>Node24&#45;&gt;Node12</title>
<g id="a_edge48_Node000024_Node000012"><a xlink:title=" ">
<path fill="none" stroke="#63b8ff" d="M906.6,-331.04C909.72,-322.13 914.18,-308.08 916.25,-295.5 921.88,-261.2 922.28,-220.65 921.88,-196.8"/>
<polygon fill="#63b8ff" stroke="#63b8ff" points="925.38,-196.84 921.65,-186.93 918.39,-197.01 925.38,-196.84"/>
</a>
</g>
</g>
<!-- Node24&#45;&gt;Node14 -->
<g id="edge49_Node000024_Node000014" class="edge">
<title>Node24&#45;&gt;Node14</title>
<g id="a_edge49_Node000024_Node000014"><a xlink:title=" ">
<path fill="none" stroke="#63b8ff" d="M891.03,-331.09C872.55,-317.75 836.07,-292.57 802.25,-276.25 772.9,-262.08 737.84,-250.18 711.84,-242.24"/>
<polygon fill="#63b8ff" stroke="#63b8ff" points="712.97,-238.93 702.39,-239.42 710.97,-245.64 712.97,-238.93"/>
</a>
</g>
</g>
<!-- Node24&#45;&gt;Node16 -->
<g id="edge50_Node000024_Node000016" class="edge">
<title>Node24&#45;&gt;Node16</title>
<g id="a_edge50_Node000024_Node000016"><a xlink:title=" ">
<path fill="none" stroke="#63b8ff" d="M929.84,-331.33C958.35,-321.9 1003.56,-306.95 1033.56,-297.03"/>
<polygon fill="#63b8ff" stroke="#63b8ff" points="1034.41,-300.43 1042.81,-293.97 1032.22,-293.78 1034.41,-300.43"/>
</a>
</g>
</g>
<!-- Node25&#45;&gt;Node13 -->
<g id="edge55_Node000025_Node000013" class="edge">
<title>Node25&#45;&gt;Node13</title>
<g id="a_edge55_Node000025_Node000013"><a xlink:title=" ">
<path fill="none" stroke="#63b8ff" d="M562.21,-441.75C566.03,-424.5 574.53,-386.08 579.78,-362.31"/>
<polygon fill="#63b8ff" stroke="#63b8ff" points="583.19,-363.12 581.93,-352.6 576.35,-361.61 583.19,-363.12"/>
</a>
</g>
</g>
<!-- Node25&#45;&gt;Node14 -->
<g id="edge54_Node000025_Node000014" class="edge">
<title>Node25&#45;&gt;Node14</title>
<g id="a_edge54_Node000025_Node000014"><a xlink:title=" ">
<path fill="none" stroke="#63b8ff" d="M565.47,-441.76C570.75,-432.77 579.13,-418.45 586.25,-406 600.23,-381.56 604.28,-375.74 617.25,-350.75 635.23,-316.11 654.5,-274.86 665.4,-251.11"/>
<polygon fill="#63b8ff" stroke="#63b8ff" points="668.56,-252.62 669.53,-242.07 662.19,-249.71 668.56,-252.62"/>
</a>
</g>
</g>
<!-- Node25&#45;&gt;Node22 -->
<g id="edge53_Node000025_Node000022" class="edge">
<title>Node25&#45;&gt;Node22</title>
<g id="a_edge53_Node000025_Node000022"><a xlink:title=" ">
<path fill="none" stroke="#63b8ff" d="M534.65,-441.83C507.18,-432.39 463.58,-417.42 434.7,-407.49"/>
<polygon fill="#63b8ff" stroke="#63b8ff" points="436.07,-404.26 425.48,-404.32 433.8,-410.88 436.07,-404.26"/>
</a>
</g>
</g>
<!-- Node26&#45;&gt;Node14 -->
<g id="edge57_Node000026_Node000014" class="edge">
<title>Node26&#45;&gt;Node14</title>
<g id="a_edge57_Node000026_Node000014"><a xlink:title=" ">
<path fill="none" stroke="#63b8ff" d="M687.5,-386.57C685.33,-361.25 679.05,-287.75 675.98,-251.84"/>
<polygon fill="#63b8ff" stroke="#63b8ff" points="679.47,-251.65 675.14,-241.98 672.5,-252.24 679.47,-251.65"/>
</a>
</g>
</g>
<!-- Node27&#45;&gt;Node12 -->
<g id="edge60_Node000027_Node000012" class="edge">
<title>Node27&#45;&gt;Node12</title>
<g id="a_edge60_Node000027_Node000012"><a xlink:title=" ">
<path fill="none" stroke="#63b8ff" d="M975.19,-331.32C966.29,-305.78 940.34,-231.2 927.96,-195.65"/>
<polygon fill="#63b8ff" stroke="#63b8ff" points="931.42,-194.95 924.83,-186.65 924.81,-197.25 931.42,-194.95"/>
</a>
</g>
</g>
<!-- Node27&#45;&gt;Node14 -->
<g id="edge61_Node000027_Node000014" class="edge">
<title>Node27&#45;&gt;Node14</title>
<g id="a_edge61_Node000027_Node000014"><a xlink:title=" ">
<path fill="none" stroke="#63b8ff" d="M960.27,-331.22C933.2,-318.03 880.12,-293.05 833.25,-276.25 792.45,-261.62 744.39,-248.71 711.87,-240.59"/>
<polygon fill="#63b8ff" stroke="#63b8ff" points="713.07,-237.28 702.53,-238.28 711.4,-244.07 713.07,-237.28"/>
</a>
</g>
</g>
<!-- Node27&#45;&gt;Node16 -->
<g id="edge62_Node000027_Node000016" class="edge">
<title>Node27&#45;&gt;Node16</title>
<g id="a_edge62_Node000027_Node000016"><a xlink:title=" ">
<path fill="none" stroke="#63b8ff" d="M992.84,-331.09C1005.69,-323.14 1024.66,-311.39 1039.82,-302"/>
<polygon fill="#63b8ff" stroke="#63b8ff" points="1041.64,-304.99 1048.3,-296.75 1037.96,-299.04 1041.64,-304.99"/>
</a>
</g>
</g>
<!-- Node28&#45;&gt;Node14 -->
<g id="edge65_Node000028_Node000014" class="edge">
<title>Node28&#45;&gt;Node14</title>
<g id="a_edge65_Node000028_Node000014"><a xlink:title=" ">
<path fill="none" stroke="#63b8ff" d="M773.64,-441.75C777.91,-429.23 784.04,-405.78 778.25,-386.75 769.1,-356.68 714.17,-283.19 688.04,-249.29"/>
<polygon fill="#63b8ff" stroke="#63b8ff" points="691.04,-247.44 682.14,-241.68 685.5,-251.73 691.04,-247.44"/>
</a>
</g>
</g>
<!-- Node28&#45;&gt;Node15 -->
<g id="edge66_Node000028_Node000015" class="edge">
<title>Node28&#45;&gt;Node15</title>
<g id="a_edge66_Node000028_Node000015"><a xlink:title=" ">
<path fill="none" stroke="#63b8ff" d="M749.85,-444.29C709.42,-431.13 617.34,-398.06 551.25,-350.75 531.8,-336.83 512.17,-317.72 499.03,-304.03"/>
<polygon fill="#63b8ff" stroke="#63b8ff" points="501.84,-301.92 492.44,-297.04 496.75,-306.72 501.84,-301.92"/>
</a>
</g>
</g>
<!-- Node28&#45;&gt;Node20 -->
<g id="edge64_Node000028_Node000020" class="edge">
<title>Node28&#45;&gt;Node20</title>
<g id="a_edge64_Node000028_Node000020"><a xlink:title=" ">
<path fill="none" stroke="#63b8ff" d="M782.8,-441.59C793.71,-433.74 809.75,-422.2 822.71,-412.87"/>
<polygon fill="#63b8ff" stroke="#63b8ff" points="824.58,-415.84 830.65,-407.16 820.49,-410.16 824.58,-415.84"/>
</a>
</g>
</g>
</g>
</svg>
