<?xml version="1.0" encoding="UTF-8" standalone="no"?>
<!DOCTYPE svg PUBLIC "-//W3C//DTD SVG 1.1//EN"
 "http://www.w3.org/Graphics/SVG/1.1/DTD/svg11.dtd">
<!-- Generated by graphviz version 13.1.0 (20250701.0955)
 -->
<!-- Title: lua&#45;5.4.7/ldo.h Pages: 1 -->
<!--zoomable 193 -->

<svg id="main" version="1.1" xmlns="http://www.w3.org/2000/svg" xmlns:xlink="http://www.w3.org/1999/xlink" xml:space="preserve" onload="init(evt)">

<style type="text/css"><![CDATA[
.node, .edge {opacity: 0.7;}
.node.selected, .edge.selected {opacity: 1;}
.edge:hover path { stroke: red; }
.edge:hover polygon { stroke: red; fill: red; }
]]></style>

<defs>
  <circle id="rim" cx="0" cy="0" r="7"/>
  <circle id="rim2" cx="0" cy="0" r="3.5"/>
  <g id="zoomPlus">
    <use xlink:href="#rim" fill="#404040"><set attributeName="fill" to="#808080" begin="zoomplus.mouseover" end="zoomplus.mouseout"/></use>
    <path d="M-4,0h8M0,-4v8" fill="none" stroke="white" stroke-width="1.5" pointer-events="none"/>
  </g>
  <g id="zoomMin">
    <use xlink:href="#rim" fill="#404040"><set attributeName="fill" to="#808080" begin="zoomminus.mouseover" end="zoomminus.mouseout"/></use>
    <path d="M-4,0h8" fill="none" stroke="white" stroke-width="1.5" pointer-events="none"/>
  </g>
  <g id="arrowUp" transform="translate(30 24)">
    <use xlink:href="#rim"/>
    <path pointer-events="none" fill="none" stroke="white" stroke-width="1.5" d="M0,-3.0v7 M-2.5,-0.5L0,-3.0L2.5,-0.5"/>
  </g>
  <g id="arrowRight" transform="rotate(90) translate(36 -43)">
    <use xlink:href="#rim"/>
    <path pointer-events="none" fill="none" stroke="white" stroke-width="1.5" d="M0,-3.0v7 M-2.5,-0.5L0,-3.0L2.5,-0.5"/>
  </g>
  <g id="arrowDown" transform="rotate(180) translate(-30 -48)">
    <use xlink:href="#rim"/>
    <path pointer-events="none" fill="none" stroke="white" stroke-width="1.5" d="M0,-3.0v7 M-2.5,-0.5L0,-3.0L2.5,-0.5"/>
  </g>
  <g id="arrowLeft" transform="rotate(270) translate(-36 17)">
    <use xlink:href="#rim"/>
    <path pointer-events="none" fill="none" stroke="white" stroke-width="1.5" d="M0,-3.0v7 M-2.5,-0.5L0,-3.0L2.5,-0.5"/>
  </g>
  <g id="resetDef">
    <use xlink:href="#rim2" fill="#404040"><set attributeName="fill" to="#808080" begin="reset.mouseover" end="reset.mouseout"/></use>
  </g>
</defs>
<script type="application/ecmascript">
var viewWidth = 1546;
var viewHeight = 193;
var sectionId = 'dynsection-1';
</script>
<script type="application/ecmascript" xlink:href="svg.min.js"/>
<svg id="graph" class="graph">
<g id="viewport">
<title>lua&#45;5.4.7/ldo.h</title>
<!-- Node1 -->
<g id="Node000001" class="node">
<title>Node1</title>
<g id="a_Node000001"><a xlink:title=" ">
<polygon fill="#999999" stroke="#666666" points="694.62,-185 617.12,-185 617.12,-165.75 694.62,-165.75 694.62,-185"/>
<text xml:space="preserve" text-anchor="middle" x="655.88" y="-171.5" font-family="Helvetica,sans-Serif" font-size="10.00">lua&#45;5.4.7/ldo.h</text>
</a>
</g>
</g>
<!-- Node2 -->
<g id="Node000002" class="node">
<title>Node2</title>
<g id="a_Node000002"><a xlink:href="lapi_8c.html" target="_top" xlink:title=" ">
<polygon fill="white" stroke="#666666" points="183.75,-74.5 104,-74.5 104,-55.25 183.75,-55.25 183.75,-74.5"/>
<text xml:space="preserve" text-anchor="middle" x="143.88" y="-61" font-family="Helvetica,sans-Serif" font-size="10.00">lua&#45;5.4.7/lapi.c</text>
</a>
</g>
</g>
<!-- Node1&#45;&gt;Node2 -->
<g id="edge1_Node000001_Node000002" class="edge">
<title>Node1&#45;&gt;Node2</title>
<g id="a_edge1_Node000001_Node000002"><a xlink:title=" ">
<path fill="none" stroke="#63b8ff" d="M605.5,-169.84C543.25,-163.63 434.34,-150.79 342.88,-129.75 278.34,-114.9 204.68,-88.76 167.71,-74.98"/>
<polygon fill="#63b8ff" stroke="#63b8ff" points="605.14,-173.32 615.43,-170.81 605.82,-166.35 605.14,-173.32"/>
</a>
</g>
</g>
<!-- Node4 -->
<g id="Node000004" class="node">
<title>Node4</title>
<g id="a_Node000004"><a xlink:href="lcode_8c.html" target="_top" xlink:title=" ">
<polygon fill="white" stroke="#666666" points="289.88,-74.5 201.88,-74.5 201.88,-55.25 289.88,-55.25 289.88,-74.5"/>
<text xml:space="preserve" text-anchor="middle" x="245.88" y="-61" font-family="Helvetica,sans-Serif" font-size="10.00">lua&#45;5.4.7/lcode.c</text>
</a>
</g>
</g>
<!-- Node1&#45;&gt;Node4 -->
<g id="edge3_Node000001_Node000004" class="edge">
<title>Node1&#45;&gt;Node4</title>
<g id="a_edge3_Node000001_Node000004"><a xlink:title=" ">
<path fill="none" stroke="#63b8ff" d="M605.63,-169.02C553.27,-162.66 469.2,-150.26 398.88,-129.75 348.31,-115.01 291.85,-88.7 263.77,-74.9"/>
<polygon fill="#63b8ff" stroke="#63b8ff" points="605.1,-172.48 615.44,-170.18 605.92,-165.53 605.1,-172.48"/>
</a>
</g>
</g>
<!-- Node5 -->
<g id="Node000005" class="node">
<title>Node5</title>
<g id="a_Node000005"><a xlink:href="ldebug_8c.html" target="_top" xlink:title=" ">
<polygon fill="white" stroke="#666666" points="401.5,-74.5 308.25,-74.5 308.25,-55.25 401.5,-55.25 401.5,-74.5"/>
<text xml:space="preserve" text-anchor="middle" x="354.88" y="-61" font-family="Helvetica,sans-Serif" font-size="10.00">lua&#45;5.4.7/ldebug.c</text>
</a>
</g>
</g>
<!-- Node1&#45;&gt;Node5 -->
<g id="edge5_Node000001_Node000005" class="edge">
<title>Node1&#45;&gt;Node5</title>
<g id="a_edge5_Node000001_Node000005"><a xlink:title=" ">
<path fill="none" stroke="#63b8ff" d="M605.53,-171.15C559.08,-166.6 489.15,-155.71 433.88,-129.75 404.5,-115.95 376.54,-88.99 363.14,-74.92"/>
<polygon fill="#63b8ff" stroke="#63b8ff" points="605.03,-174.61 615.3,-172.03 605.66,-167.64 605.03,-174.61"/>
</a>
</g>
</g>
<!-- Node6 -->
<g id="Node000006" class="node">
<title>Node6</title>
<g id="a_Node000006"><a xlink:href="ldo_8c.html" target="_top" xlink:title=" ">
<polygon fill="white" stroke="#666666" points="496.62,-74.5 419.12,-74.5 419.12,-55.25 496.62,-55.25 496.62,-74.5"/>
<text xml:space="preserve" text-anchor="middle" x="457.88" y="-61" font-family="Helvetica,sans-Serif" font-size="10.00">lua&#45;5.4.7/ldo.c</text>
</a>
</g>
</g>
<!-- Node1&#45;&gt;Node6 -->
<g id="edge7_Node000001_Node000006" class="edge">
<title>Node1&#45;&gt;Node6</title>
<g id="a_edge7_Node000001_Node000006"><a xlink:title=" ">
<path fill="none" stroke="#63b8ff" d="M605.87,-170.96C549.74,-165.95 463.88,-154.41 443.88,-129.75 430.86,-113.71 443.42,-88.19 451.78,-74.78"/>
<polygon fill="#63b8ff" stroke="#63b8ff" points="605.25,-174.42 615.51,-171.77 605.84,-167.44 605.25,-174.42"/>
</a>
</g>
</g>
<!-- Node7 -->
<g id="Node000007" class="node">
<title>Node7</title>
<g id="a_Node000007"><a xlink:href="lfunc_8c.html" target="_top" xlink:title=" ">
<polygon fill="white" stroke="#666666" points="85.75,-74.5 0,-74.5 0,-55.25 85.75,-55.25 85.75,-74.5"/>
<text xml:space="preserve" text-anchor="middle" x="42.88" y="-61" font-family="Helvetica,sans-Serif" font-size="10.00">lua&#45;5.4.7/lfunc.c</text>
</a>
</g>
</g>
<!-- Node1&#45;&gt;Node7 -->
<g id="edge9_Node000001_Node000007" class="edge">
<title>Node1&#45;&gt;Node7</title>
<g id="a_edge9_Node000001_Node000007"><a xlink:title=" ">
<path fill="none" stroke="#63b8ff" d="M605.63,-171.05C531.91,-165.61 390.34,-153.01 271.88,-129.75 197.76,-115.2 112.59,-88.81 70.04,-74.95"/>
<polygon fill="#63b8ff" stroke="#63b8ff" points="605.13,-174.53 615.36,-171.76 605.63,-167.54 605.13,-174.53"/>
</a>
</g>
</g>
<!-- Node8 -->
<g id="Node000008" class="node">
<title>Node8</title>
<g id="a_Node000008"><a xlink:href="lgc_8c.html" target="_top" xlink:title=" ">
<polygon fill="white" stroke="#666666" points="780.62,-129.75 703.12,-129.75 703.12,-110.5 780.62,-110.5 780.62,-129.75"/>
<text xml:space="preserve" text-anchor="middle" x="741.88" y="-116.25" font-family="Helvetica,sans-Serif" font-size="10.00">lua&#45;5.4.7/lgc.c</text>
</a>
</g>
</g>
<!-- Node1&#45;&gt;Node8 -->
<g id="edge11_Node000001_Node000008" class="edge">
<title>Node1&#45;&gt;Node8</title>
<g id="a_edge11_Node000001_Node000008"><a xlink:title=" ">
<path fill="none" stroke="#63b8ff" d="M680.22,-159.3C695.36,-149.92 714.34,-138.17 727.21,-130.2"/>
<polygon fill="#63b8ff" stroke="#63b8ff" points="678.41,-156.3 671.75,-164.55 682.1,-162.26 678.41,-156.3"/>
</a>
</g>
</g>
<!-- Node9 -->
<g id="Node000009" class="node">
<title>Node9</title>
<g id="a_Node000009"><a xlink:href="llex_8c.html" target="_top" xlink:title=" ">
<polygon fill="white" stroke="#666666" points="878.75,-129.75 799,-129.75 799,-110.5 878.75,-110.5 878.75,-129.75"/>
<text xml:space="preserve" text-anchor="middle" x="838.88" y="-116.25" font-family="Helvetica,sans-Serif" font-size="10.00">lua&#45;5.4.7/llex.c</text>
</a>
</g>
</g>
<!-- Node1&#45;&gt;Node9 -->
<g id="edge13_Node000001_Node000009" class="edge">
<title>Node1&#45;&gt;Node9</title>
<g id="a_edge13_Node000001_Node000009"><a xlink:title=" ">
<path fill="none" stroke="#63b8ff" d="M697.74,-162.19C731.21,-152.45 777.39,-139.02 807.68,-130.2"/>
<polygon fill="#63b8ff" stroke="#63b8ff" points="697,-158.76 688.37,-164.92 698.95,-165.49 697,-158.76"/>
</a>
</g>
</g>
<!-- Node10 -->
<g id="Node000010" class="node">
<title>Node10</title>
<g id="a_Node000010"><a xlink:href="lmem_8c.html" target="_top" xlink:title=" ">
<polygon fill="white" stroke="#666666" points="985.25,-129.75 896.5,-129.75 896.5,-110.5 985.25,-110.5 985.25,-129.75"/>
<text xml:space="preserve" text-anchor="middle" x="940.88" y="-116.25" font-family="Helvetica,sans-Serif" font-size="10.00">lua&#45;5.4.7/lmem.c</text>
</a>
</g>
</g>
<!-- Node1&#45;&gt;Node10 -->
<g id="edge15_Node000001_Node000010" class="edge">
<title>Node1&#45;&gt;Node10</title>
<g id="a_edge15_Node000001_Node000010"><a xlink:title=" ">
<path fill="none" stroke="#63b8ff" d="M705.9,-165.03C759.74,-154.97 844.57,-139.12 896.23,-129.47"/>
<polygon fill="#63b8ff" stroke="#63b8ff" points="705.58,-161.53 696.39,-166.8 706.87,-168.41 705.58,-161.53"/>
</a>
</g>
</g>
<!-- Node11 -->
<g id="Node000011" class="node">
<title>Node11</title>
<g id="a_Node000011"><a xlink:href="lobject_8c.html" target="_top" xlink:title=" ">
<polygon fill="white" stroke="#666666" points="607.5,-74.5 514.25,-74.5 514.25,-55.25 607.5,-55.25 607.5,-74.5"/>
<text xml:space="preserve" text-anchor="middle" x="560.88" y="-61" font-family="Helvetica,sans-Serif" font-size="10.00">lua&#45;5.4.7/lobject.c</text>
</a>
</g>
</g>
<!-- Node1&#45;&gt;Node11 -->
<g id="edge17_Node000001_Node000011" class="edge">
<title>Node1&#45;&gt;Node11</title>
<g id="a_edge17_Node000001_Node000011"><a xlink:title=" ">
<path fill="none" stroke="#63b8ff" d="M640.59,-156.91C620.1,-133.52 584.5,-92.86 568.76,-74.88"/>
<polygon fill="#63b8ff" stroke="#63b8ff" points="637.88,-159.14 647.1,-164.36 643.15,-154.53 637.88,-159.14"/>
</a>
</g>
</g>
<!-- Node12 -->
<g id="Node000012" class="node">
<title>Node12</title>
<g id="a_Node000012"><a xlink:href="lparser_8c.html" target="_top" xlink:title=" ">
<polygon fill="white" stroke="#666666" points="1096.5,-129.75 1003.25,-129.75 1003.25,-110.5 1096.5,-110.5 1096.5,-129.75"/>
<text xml:space="preserve" text-anchor="middle" x="1049.88" y="-116.25" font-family="Helvetica,sans-Serif" font-size="10.00">lua&#45;5.4.7/lparser.c</text>
</a>
</g>
</g>
<!-- Node1&#45;&gt;Node12 -->
<g id="edge19_Node000001_Node000012" class="edge">
<title>Node1&#45;&gt;Node12</title>
<g id="a_edge19_Node000001_Node000012"><a xlink:title=" ">
<path fill="none" stroke="#63b8ff" d="M706.26,-168.07C772.35,-159.71 891.89,-144.33 993.88,-129.75 996.8,-129.33 999.8,-128.89 1002.83,-128.45"/>
<polygon fill="#63b8ff" stroke="#63b8ff" points="705.93,-164.58 696.45,-169.3 706.81,-171.53 705.93,-164.58"/>
</a>
</g>
</g>
<!-- Node13 -->
<g id="Node000013" class="node">
<title>Node13</title>
<g id="a_Node000013"><a xlink:href="lstate_8c.html" target="_top" xlink:title=" ">
<polygon fill="white" stroke="#666666" points="1203.25,-129.75 1114.5,-129.75 1114.5,-110.5 1203.25,-110.5 1203.25,-129.75"/>
<text xml:space="preserve" text-anchor="middle" x="1158.88" y="-116.25" font-family="Helvetica,sans-Serif" font-size="10.00">lua&#45;5.4.7/lstate.c</text>
</a>
</g>
</g>
<!-- Node1&#45;&gt;Node13 -->
<g id="edge21_Node000001_Node000013" class="edge">
<title>Node1&#45;&gt;Node13</title>
<g id="a_edge21_Node000001_Node000013"><a xlink:title=" ">
<path fill="none" stroke="#63b8ff" d="M706.51,-170.39C789.93,-163.6 961.42,-148.65 1105.88,-129.75 1108.56,-129.4 1111.31,-129.02 1114.08,-128.62"/>
<polygon fill="#63b8ff" stroke="#63b8ff" points="706.29,-166.9 696.6,-171.19 706.85,-173.88 706.29,-166.9"/>
</a>
</g>
</g>
<!-- Node14 -->
<g id="Node000014" class="node">
<title>Node14</title>
<g id="a_Node000014"><a xlink:href="lstring_8c.html" target="_top" xlink:title=" ">
<polygon fill="white" stroke="#666666" points="1312.38,-129.75 1221.38,-129.75 1221.38,-110.5 1312.38,-110.5 1312.38,-129.75"/>
<text xml:space="preserve" text-anchor="middle" x="1266.88" y="-116.25" font-family="Helvetica,sans-Serif" font-size="10.00">lua&#45;5.4.7/lstring.c</text>
</a>
</g>
</g>
<!-- Node1&#45;&gt;Node14 -->
<g id="edge23_Node000001_Node000014" class="edge">
<title>Node1&#45;&gt;Node14</title>
<g id="a_edge23_Node000001_Node000014"><a xlink:title=" ">
<path fill="none" stroke="#63b8ff" d="M706.37,-171.6C804.17,-165.95 1026.13,-151.74 1211.88,-129.75 1214.85,-129.4 1217.91,-129 1220.99,-128.59"/>
<polygon fill="#63b8ff" stroke="#63b8ff" points="706.37,-168.1 696.58,-172.16 706.77,-175.09 706.37,-168.1"/>
</a>
</g>
</g>
<!-- Node15 -->
<g id="Node000015" class="node">
<title>Node15</title>
<g id="a_Node000015"><a xlink:href="ltable_8c.html" target="_top" xlink:title=" ">
<polygon fill="white" stroke="#666666" points="713.88,-74.5 625.88,-74.5 625.88,-55.25 713.88,-55.25 713.88,-74.5"/>
<text xml:space="preserve" text-anchor="middle" x="669.88" y="-61" font-family="Helvetica,sans-Serif" font-size="10.00">lua&#45;5.4.7/ltable.c</text>
</a>
</g>
</g>
<!-- Node1&#45;&gt;Node15 -->
<g id="edge25_Node000001_Node000015" class="edge">
<title>Node1&#45;&gt;Node15</title>
<g id="a_edge25_Node000001_Node000015"><a xlink:title=" ">
<path fill="none" stroke="#63b8ff" d="M637.82,-157.24C626.74,-144.56 615.9,-126.74 622.88,-110.5 629.45,-95.2 644.13,-82.67 655.35,-74.83"/>
<polygon fill="#63b8ff" stroke="#63b8ff" points="635.2,-159.56 644.64,-164.38 640.26,-154.73 635.2,-159.56"/>
</a>
</g>
</g>
<!-- Node16 -->
<g id="Node000016" class="node">
<title>Node16</title>
<g id="a_Node000016"><a xlink:href="ltests_8c.html" target="_top" xlink:title=" ">
<polygon fill="white" stroke="#666666" points="1538.25,-129.75 1449.5,-129.75 1449.5,-110.5 1538.25,-110.5 1538.25,-129.75"/>
<text xml:space="preserve" text-anchor="middle" x="1493.88" y="-116.25" font-family="Helvetica,sans-Serif" font-size="10.00">lua&#45;5.4.7/ltests.c</text>
</a>
</g>
</g>
<!-- Node1&#45;&gt;Node16 -->
<g id="edge27_Node000001_Node000016" class="edge">
<title>Node1&#45;&gt;Node16</title>
<g id="a_edge27_Node000001_Node000016"><a xlink:title=" ">
<path fill="none" stroke="#63b8ff" d="M706.21,-173.34C830.99,-170.37 1164.49,-160.01 1440.88,-129.75 1443.56,-129.46 1446.32,-129.12 1449.1,-128.75"/>
<polygon fill="#63b8ff" stroke="#63b8ff" points="706.22,-169.84 696.31,-173.57 706.38,-176.83 706.22,-169.84"/>
</a>
</g>
</g>
<!-- Node17 -->
<g id="Node000017" class="node">
<title>Node17</title>
<g id="a_Node000017"><a xlink:href="ltm_8c.html" target="_top" xlink:title=" ">
<polygon fill="white" stroke="#666666" points="810,-74.5 731.75,-74.5 731.75,-55.25 810,-55.25 810,-74.5"/>
<text xml:space="preserve" text-anchor="middle" x="770.88" y="-61" font-family="Helvetica,sans-Serif" font-size="10.00">lua&#45;5.4.7/ltm.c</text>
</a>
</g>
</g>
<!-- Node1&#45;&gt;Node17 -->
<g id="edge28_Node000001_Node000017" class="edge">
<title>Node1&#45;&gt;Node17</title>
<g id="a_edge28_Node000001_Node000017"><a xlink:title=" ">
<path fill="none" stroke="#63b8ff" d="M652.34,-154.46C651.05,-140.82 651.72,-123.01 660.88,-110.5 670.4,-97.49 709.39,-83.71 738.26,-74.96"/>
<polygon fill="#63b8ff" stroke="#63b8ff" points="648.83,-154.63 653.68,-164.05 655.76,-153.66 648.83,-154.63"/>
</a>
</g>
</g>
<!-- Node18 -->
<g id="Node000018" class="node">
<title>Node18</title>
<g id="a_Node000018"><a xlink:href="lundump_8c.html" target="_top" xlink:title=" ">
<polygon fill="white" stroke="#666666" points="1431.62,-129.75 1330.12,-129.75 1330.12,-110.5 1431.62,-110.5 1431.62,-129.75"/>
<text xml:space="preserve" text-anchor="middle" x="1380.88" y="-116.25" font-family="Helvetica,sans-Serif" font-size="10.00">lua&#45;5.4.7/lundump.c</text>
</a>
</g>
</g>
<!-- Node1&#45;&gt;Node18 -->
<g id="edge30_Node000001_Node000018" class="edge">
<title>Node1&#45;&gt;Node18</title>
<g id="a_edge30_Node000001_Node000018"><a xlink:title=" ">
<path fill="none" stroke="#63b8ff" d="M706.19,-172.35C817.43,-167.58 1092.61,-154.15 1321.88,-129.75 1324.45,-129.48 1327.08,-129.17 1329.74,-128.85"/>
<polygon fill="#63b8ff" stroke="#63b8ff" points="706.36,-168.84 696.51,-172.76 706.65,-175.83 706.36,-168.84"/>
</a>
</g>
</g>
<!-- Node19 -->
<g id="Node000019" class="node">
<title>Node19</title>
<g id="a_Node000019"><a xlink:href="lvm_8c.html" target="_top" xlink:title=" ">
<polygon fill="white" stroke="#666666" points="908.12,-74.5 827.62,-74.5 827.62,-55.25 908.12,-55.25 908.12,-74.5"/>
<text xml:space="preserve" text-anchor="middle" x="867.88" y="-61" font-family="Helvetica,sans-Serif" font-size="10.00">lua&#45;5.4.7/lvm.c</text>
</a>
</g>
</g>
<!-- Node1&#45;&gt;Node19 -->
<g id="edge32_Node000001_Node000019" class="edge">
<title>Node1&#45;&gt;Node19</title>
<g id="a_edge32_Node000001_Node000019"><a xlink:title=" ">
<path fill="none" stroke="#63b8ff" d="M662.82,-154.71C668.87,-140.39 679.03,-121.62 693.88,-110.5 704.61,-102.46 779.47,-85.08 827.43,-74.54"/>
<polygon fill="#63b8ff" stroke="#63b8ff" points="659.56,-153.43 659.24,-164.02 666.1,-155.95 659.56,-153.43"/>
</a>
</g>
</g>
<!-- Node20 -->
<g id="Node000020" class="node">
<title>Node20</title>
<g id="a_Node000020"><a xlink:href="lvm_8h.html" target="_top" xlink:title=" ">
<polygon fill="white" stroke="#666666" points="533.12,-129.75 452.62,-129.75 452.62,-110.5 533.12,-110.5 533.12,-129.75"/>
<text xml:space="preserve" text-anchor="middle" x="492.88" y="-116.25" font-family="Helvetica,sans-Serif" font-size="10.00">lua&#45;5.4.7/lvm.h</text>
</a>
</g>
</g>
<!-- Node1&#45;&gt;Node20 -->
<g id="edge34_Node000001_Node000020" class="edge">
<title>Node1&#45;&gt;Node20</title>
<g id="a_edge34_Node000001_Node000020"><a xlink:title=" ">
<path fill="none" stroke="#63b8ff" d="M617.41,-161.81C587.7,-152.1 547.29,-138.9 520.66,-130.2"/>
<polygon fill="#63b8ff" stroke="#63b8ff" points="616.19,-165.09 626.79,-164.87 618.37,-158.44 616.19,-165.09"/>
</a>
</g>
</g>
<!-- Node3 -->
<g id="Node000003" class="node">
<title>Node3</title>
<g id="a_Node000003"><a xlink:href="onelua_8c.html" target="_top" xlink:title=" ">
<polygon fill="white" stroke="#666666" points="865.5,-19.25 772.25,-19.25 772.25,0 865.5,0 865.5,-19.25"/>
<text xml:space="preserve" text-anchor="middle" x="818.88" y="-5.75" font-family="Helvetica,sans-Serif" font-size="10.00">lua&#45;5.4.7/onelua.c</text>
</a>
</g>
</g>
<!-- Node2&#45;&gt;Node3 -->
<g id="edge2_Node000002_Node000003" class="edge">
<title>Node2&#45;&gt;Node3</title>
<g id="a_edge2_Node000002_Node000003"><a xlink:title=" ">
<path fill="none" stroke="#63b8ff" d="M195.39,-55.07C416.9,-28.27 669.36,-16.37 771.99,-12.31"/>
<polygon fill="#63b8ff" stroke="#63b8ff" points="195.21,-51.56 185.7,-56.25 196.06,-58.51 195.21,-51.56"/>
</a>
</g>
</g>
<!-- Node4&#45;&gt;Node3 -->
<g id="edge4_Node000004_Node000003" class="edge">
<title>Node4&#45;&gt;Node3</title>
<g id="a_edge4_Node000004_Node000003"><a xlink:title=" ">
<path fill="none" stroke="#63b8ff" d="M301.62,-55C481.12,-33.1 682.26,-19.13 771.78,-13.47"/>
<polygon fill="#63b8ff" stroke="#63b8ff" points="301.37,-51.5 291.88,-56.2 302.23,-58.45 301.37,-51.5"/>
</a>
</g>
</g>
<!-- Node5&#45;&gt;Node3 -->
<g id="edge6_Node000005_Node000003" class="edge">
<title>Node5&#45;&gt;Node3</title>
<g id="a_edge6_Node000005_Node000003"><a xlink:title=" ">
<path fill="none" stroke="#63b8ff" d="M412.96,-54.89C548.81,-37.05 697.72,-22.14 771.86,-15.03"/>
<polygon fill="#63b8ff" stroke="#63b8ff" points="412.91,-51.36 403.46,-56.14 413.83,-58.3 412.91,-51.36"/>
</a>
</g>
</g>
<!-- Node6&#45;&gt;Node3 -->
<g id="edge8_Node000006_Node000003" class="edge">
<title>Node6&#45;&gt;Node3</title>
<g id="a_edge8_Node000006_Node000003"><a xlink:title=" ">
<path fill="none" stroke="#63b8ff" d="M508.22,-54.75C607.4,-38.78 712.74,-24.48 771.97,-16.69"/>
<polygon fill="#63b8ff" stroke="#63b8ff" points="507.9,-51.26 498.59,-56.31 509.02,-58.17 507.9,-51.26"/>
</a>
</g>
</g>
<!-- Node7&#45;&gt;Node3 -->
<g id="edge10_Node000007_Node000003" class="edge">
<title>Node7&#45;&gt;Node3</title>
<g id="a_edge10_Node000007_Node000003"><a xlink:title=" ">
<path fill="none" stroke="#63b8ff" d="M97.45,-55.08C358.18,-26.05 658.45,-15.16 772.14,-11.84"/>
<polygon fill="#63b8ff" stroke="#63b8ff" points="97.29,-51.57 87.74,-56.17 98.07,-58.53 97.29,-51.57"/>
</a>
</g>
</g>
<!-- Node8&#45;&gt;Node3 -->
<g id="edge12_Node000008_Node000003" class="edge">
<title>Node8&#45;&gt;Node3</title>
<g id="a_edge12_Node000008_Node000003"><a xlink:title=" ">
<path fill="none" stroke="#63b8ff" d="M791.86,-109.61C840.78,-99.8 909.07,-84.55 916.88,-74.5 937,-48.6 892.73,-29.96 857.3,-19.72"/>
<polygon fill="#63b8ff" stroke="#63b8ff" points="791.43,-106.13 782.3,-111.51 792.79,-113 791.43,-106.13"/>
</a>
</g>
</g>
<!-- Node9&#45;&gt;Node3 -->
<g id="edge14_Node000009_Node000003" class="edge">
<title>Node9&#45;&gt;Node3</title>
<g id="a_edge14_Node000009_Node000003"><a xlink:title=" ">
<path fill="none" stroke="#63b8ff" d="M890.06,-109.32C927.74,-99.68 969.31,-82.4 949.88,-55.25 930.86,-28.68 895.07,-17.75 865.71,-13.33"/>
<polygon fill="#63b8ff" stroke="#63b8ff" points="889.45,-105.87 880.55,-111.6 891.09,-112.68 889.45,-105.87"/>
</a>
</g>
</g>
<!-- Node10&#45;&gt;Node3 -->
<g id="edge16_Node000010_Node000003" class="edge">
<title>Node10&#45;&gt;Node3</title>
<g id="a_edge16_Node000010_Node000003"><a xlink:title=" ">
<path fill="none" stroke="#63b8ff" d="M956.73,-101.29C966.79,-87.73 976.15,-69.11 965.88,-55.25 943.08,-24.51 899.65,-14.21 865.88,-11.09"/>
<polygon fill="#63b8ff" stroke="#63b8ff" points="954.09,-98.99 950.51,-108.96 959.53,-103.4 954.09,-98.99"/>
</a>
</g>
</g>
<!-- Node11&#45;&gt;Node3 -->
<g id="edge18_Node000011_Node000003" class="edge">
<title>Node11&#45;&gt;Node3</title>
<g id="a_edge18_Node000011_Node000003"><a xlink:title=" ">
<path fill="none" stroke="#63b8ff" d="M615.94,-52.51C663.43,-42.71 731.09,-28.74 775,-19.68"/>
<polygon fill="#63b8ff" stroke="#63b8ff" points="615.5,-49.03 606.42,-54.48 616.92,-55.88 615.5,-49.03"/>
</a>
</g>
</g>
<!-- Node12&#45;&gt;Node3 -->
<g id="edge20_Node000012_Node000003" class="edge">
<title>Node12&#45;&gt;Node3</title>
<g id="a_edge20_Node000012_Node000003"><a xlink:title=" ">
<path fill="none" stroke="#63b8ff" d="M1035.69,-101.72C1023.02,-87.26 1003.2,-67.2 981.88,-55.25 945.66,-34.96 899.68,-23.46 865.79,-17.24"/>
<polygon fill="#63b8ff" stroke="#63b8ff" points="1032.82,-103.74 1041.96,-109.11 1038.16,-99.22 1032.82,-103.74"/>
</a>
</g>
</g>
<!-- Node13&#45;&gt;Node3 -->
<g id="edge22_Node000013_Node000003" class="edge">
<title>Node13&#45;&gt;Node3</title>
<g id="a_edge22_Node000013_Node000003"><a xlink:title=" ">
<path fill="none" stroke="#63b8ff" d="M1130.03,-105.2C1100.05,-91.14 1051.49,-69.51 1007.88,-55.25 960.29,-39.69 904.31,-27.17 865.69,-19.39"/>
<polygon fill="#63b8ff" stroke="#63b8ff" points="1128.29,-108.25 1138.83,-109.37 1131.29,-101.92 1128.29,-108.25"/>
</a>
</g>
</g>
<!-- Node14&#45;&gt;Node3 -->
<g id="edge24_Node000014_Node000003" class="edge">
<title>Node14&#45;&gt;Node3</title>
<g id="a_edge24_Node000014_Node000003"><a xlink:title=" ">
<path fill="none" stroke="#63b8ff" d="M1227.88,-106.66C1184.13,-92.94 1110.88,-70.77 1046.88,-55.25 984.75,-40.18 912.15,-26.67 865.86,-18.56"/>
<polygon fill="#63b8ff" stroke="#63b8ff" points="1226.58,-109.92 1237.17,-109.59 1228.68,-103.24 1226.58,-109.92"/>
</a>
</g>
</g>
<!-- Node15&#45;&gt;Node3 -->
<g id="edge26_Node000015_Node000003" class="edge">
<title>Node15&#45;&gt;Node3</title>
<g id="a_edge26_Node000015_Node000003"><a xlink:title=" ">
<path fill="none" stroke="#63b8ff" d="M705.75,-51.05C732.84,-41.37 769.35,-28.32 793.48,-19.7"/>
<polygon fill="#63b8ff" stroke="#63b8ff" points="704.81,-47.67 696.58,-54.33 707.17,-54.26 704.81,-47.67"/>
</a>
</g>
</g>
<!-- Node17&#45;&gt;Node3 -->
<g id="edge29_Node000017_Node000003" class="edge">
<title>Node17&#45;&gt;Node3</title>
<g id="a_edge29_Node000017_Node000003"><a xlink:title=" ">
<path fill="none" stroke="#63b8ff" d="M786.27,-46.79C794.42,-37.75 804.09,-27.02 810.78,-19.61"/>
<polygon fill="#63b8ff" stroke="#63b8ff" points="783.91,-44.19 779.81,-53.96 789.11,-48.87 783.91,-44.19"/>
</a>
</g>
</g>
<!-- Node18&#45;&gt;Node3 -->
<g id="edge31_Node000018_Node000003" class="edge">
<title>Node18&#45;&gt;Node3</title>
<g id="a_edge31_Node000018_Node000003"><a xlink:title=" ">
<path fill="none" stroke="#63b8ff" d="M1332.23,-107.39C1275.29,-93.87 1178.05,-71.43 1093.88,-55.25 1014.08,-39.91 920.58,-25.48 865.73,-17.38"/>
<polygon fill="#63b8ff" stroke="#63b8ff" points="1331.4,-110.79 1341.94,-109.71 1333.02,-103.98 1331.4,-110.79"/>
</a>
</g>
</g>
<!-- Node19&#45;&gt;Node3 -->
<g id="edge33_Node000019_Node000003" class="edge">
<title>Node19&#45;&gt;Node3</title>
<g id="a_edge33_Node000019_Node000003"><a xlink:title=" ">
<path fill="none" stroke="#63b8ff" d="M852.16,-46.79C843.84,-37.75 833.96,-27.02 827.14,-19.61"/>
<polygon fill="#63b8ff" stroke="#63b8ff" points="849.41,-48.98 858.76,-53.97 854.56,-44.24 849.41,-48.98"/>
</a>
</g>
</g>
<!-- Node20&#45;&gt;Node2 -->
<g id="edge35_Node000020_Node000002" class="edge">
<title>Node20&#45;&gt;Node2</title>
<g id="a_edge35_Node000020_Node000002"><a xlink:title=" ">
<path fill="none" stroke="#63b8ff" d="M441.15,-111.86C381.31,-103.35 279.85,-88.62 192.88,-74.5 190.06,-74.04 187.16,-73.56 184.24,-73.07"/>
<polygon fill="#63b8ff" stroke="#63b8ff" points="440.66,-115.32 451.05,-113.26 441.64,-108.39 440.66,-115.32"/>
</a>
</g>
</g>
<!-- Node20&#45;&gt;Node4 -->
<g id="edge36_Node000020_Node000004" class="edge">
<title>Node20&#45;&gt;Node4</title>
<g id="a_edge36_Node000020_Node000004"><a xlink:title=" ">
<path fill="none" stroke="#63b8ff" d="M441.27,-108C395.82,-98.2 330.44,-84.11 288.06,-74.97"/>
<polygon fill="#63b8ff" stroke="#63b8ff" points="440.37,-111.39 450.89,-110.07 441.85,-104.54 440.37,-111.39"/>
</a>
</g>
</g>
<!-- Node20&#45;&gt;Node5 -->
<g id="edge37_Node000020_Node000005" class="edge">
<title>Node20&#45;&gt;Node5</title>
<g id="a_edge37_Node000020_Node000005"><a xlink:title=" ">
<path fill="none" stroke="#63b8ff" d="M458.97,-106.04C433.95,-96.39 400.54,-83.5 378.4,-74.95"/>
<polygon fill="#63b8ff" stroke="#63b8ff" points="457.46,-109.21 468.05,-109.55 459.98,-102.68 457.46,-109.21"/>
</a>
</g>
</g>
<!-- Node20&#45;&gt;Node6 -->
<g id="edge38_Node000020_Node000006" class="edge">
<title>Node20&#45;&gt;Node6</title>
<g id="a_edge38_Node000020_Node000006"><a xlink:title=" ">
<path fill="none" stroke="#63b8ff" d="M480.9,-100.9C475.12,-92.11 468.45,-81.96 463.78,-74.86"/>
<polygon fill="#63b8ff" stroke="#63b8ff" points="477.85,-102.63 486.26,-109.07 483.7,-98.79 477.85,-102.63"/>
</a>
</g>
</g>
<!-- Node20&#45;&gt;Node11 -->
<g id="edge39_Node000020_Node000011" class="edge">
<title>Node20&#45;&gt;Node11</title>
<g id="a_edge39_Node000020_Node000011"><a xlink:title=" ">
<path fill="none" stroke="#63b8ff" d="M513.22,-103.19C525.1,-93.89 539.64,-82.51 549.51,-74.77"/>
<polygon fill="#63b8ff" stroke="#63b8ff" points="511.32,-100.24 505.6,-109.16 515.63,-105.75 511.32,-100.24"/>
</a>
</g>
</g>
<!-- Node20&#45;&gt;Node15 -->
<g id="edge40_Node000020_Node000015" class="edge">
<title>Node20&#45;&gt;Node15</title>
<g id="a_edge40_Node000020_Node000015"><a xlink:title=" ">
<path fill="none" stroke="#63b8ff" d="M533.79,-106.82C566.13,-97.09 610.54,-83.73 639.7,-74.95"/>
<polygon fill="#63b8ff" stroke="#63b8ff" points="532.92,-103.42 524.35,-109.66 534.93,-110.13 532.92,-103.42"/>
</a>
</g>
</g>
<!-- Node20&#45;&gt;Node17 -->
<g id="edge41_Node000020_Node000017" class="edge">
<title>Node20&#45;&gt;Node17</title>
<g id="a_edge41_Node000020_Node000017"><a xlink:title=" ">
<path fill="none" stroke="#63b8ff" d="M544.67,-109.2C598.76,-98.84 682.41,-82.82 731.39,-73.44"/>
<polygon fill="#63b8ff" stroke="#63b8ff" points="544.25,-105.72 535.08,-111.04 545.56,-112.6 544.25,-105.72"/>
</a>
</g>
</g>
<!-- Node20&#45;&gt;Node19 -->
<g id="edge42_Node000020_Node000019" class="edge">
<title>Node20&#45;&gt;Node19</title>
<g id="a_edge42_Node000020_Node000019"><a xlink:title=" ">
<path fill="none" stroke="#63b8ff" d="M544.66,-112.66C609.04,-104.47 722.24,-89.61 818.88,-74.5 821.61,-74.07 824.42,-73.62 827.25,-73.15"/>
<polygon fill="#63b8ff" stroke="#63b8ff" points="544.59,-109.14 535.11,-113.87 545.47,-116.08 544.59,-109.14"/>
</a>
</g>
</g>
</g>
</svg>

<g id="navigator" transform="translate(0 0)" fill="#404254">
  <rect fill="#f2f5e9" fill-opacity="0.5" stroke="#606060" stroke-width=".5" x="0" y="0" width="60" height="60"/>
  <use id="zoomplus" xlink:href="#zoomPlus" x="17" y="9" onmousedown="handleZoom(evt,'in')"/>
  <use id="zoomminus" xlink:href="#zoomMin" x="42" y="9" onmousedown="handleZoom(evt,'out')"/>
  <use id="reset" xlink:href="#resetDef" x="30" y="36" onmousedown="handleReset()"/>
   <use id="arrowup" xlink:href="#arrowUp" x="0" y="0" onmousedown="handlePan(0,-1)"/>
  <use id="arrowright" xlink:href="#arrowRight" x="0" y="0" onmousedown="handlePan(1,0)"/>
  <use id="arrowdown" xlink:href="#arrowDown" x="0" y="0" onmousedown="handlePan(0,1)"/>
  <use id="arrowleft" xlink:href="#arrowLeft" x="0" y="0" onmousedown="handlePan(-1,0)"/>
</g>
<svg viewBox="0 0 15 15" width="100%" height="30px" preserveAspectRatio="xMaxYMin meet">
 <g id="arrow_out" transform="scale(0.3 0.3)">
  <a xlink:href="ldo_8h__dep__incl_org.svg" target="_base">
   <rect id="button" ry="5" rx="5" y="6" x="6" height="38" width="38"
        fill="#f2f5e9" fill-opacity="0.5" stroke="#606060" stroke-width="1.0"/>
   <path id="arrow"
     d="M 11.500037,31.436501 C 11.940474,20.09759 22.043105,11.32322 32.158766,21.979434 L 37.068811,17.246167 C 37.068811,17.246167 37.088388,32 37.088388,32 L 22.160133,31.978069 C 22.160133,31.978069 26.997745,27.140456 26.997745,27.140456 C 18.528582,18.264221 13.291696,25.230495 11.500037,31.436501 z"
     style="fill:#404040;"/>
  </a>
 </g>
</svg>

<style type='text/css'>
<![CDATA[
[data-mouse-over-selected='false'] { opacity: 0.7; }
[data-mouse-over-selected='true']  { opacity: 1.0; }
]]>
</style>
<script type="application/ecmascript"><![CDATA[
document.addEventListener('DOMContentLoaded', (event) => {
  highlightEdges();
  highlightAdjacentNodes();
});
]]></script>
</svg>
