<?xml version="1.0" encoding="UTF-8" standalone="no"?>
<!DOCTYPE svg PUBLIC "-//W3C//DTD SVG 1.1//EN"
 "http://www.w3.org/Graphics/SVG/1.1/DTD/svg11.dtd">
<!-- Generated by graphviz version 13.1.0 (20250701.0955)
 -->
<!-- Title: luaD_seterrorobj Pages: 1 -->
<svg width="1319pt" height="839pt"
 viewBox="0.00 0.00 1319.00 839.00" xmlns="http://www.w3.org/2000/svg" xmlns:xlink="http://www.w3.org/1999/xlink">
<g id="graph0" class="graph" transform="scale(1 1) rotate(0) translate(4 834.62)">
<title>luaD_seterrorobj</title>
<!-- Node1 -->
<g id="Node000001" class="node">
<title>Node1</title>
<g id="a_Node000001"><a xlink:title=" ">
<polygon fill="#999999" stroke="#666666" points="1310.75,-709.25 1223.5,-709.25 1223.5,-690 1310.75,-690 1310.75,-709.25"/>
<text xml:space="preserve" text-anchor="middle" x="1267.12" y="-695.75" font-family="Helvetica,sans-Serif" font-size="10.00">luaD_seterrorobj</text>
</a>
</g>
</g>
<!-- Node2 -->
<g id="Node000002" class="node">
<title>Node2</title>
<g id="a_Node000002"><a xlink:href="ldo_8c.html#af44d6f238191494fb9fbb39c2876e5d2" target="_top" xlink:title=" ">
<polygon fill="white" stroke="#666666" points="917.38,-802.25 852.62,-802.25 852.62,-783 917.38,-783 917.38,-802.25"/>
<text xml:space="preserve" text-anchor="middle" x="885" y="-788.75" font-family="Helvetica,sans-Serif" font-size="10.00">finishpcallk</text>
</a>
</g>
</g>
<!-- Node1&#45;&gt;Node2 -->
<g id="edge1_Node000001_Node000002" class="edge">
<title>Node1&#45;&gt;Node2</title>
<g id="a_edge1_Node000001_Node000002"><a xlink:title=" ">
<path fill="none" stroke="#63b8ff" d="M1214.3,-712.31C1134.39,-731.86 983.48,-768.77 917.84,-784.84"/>
<polygon fill="#63b8ff" stroke="#63b8ff" points="1214.73,-715.8 1223.61,-710.03 1213.07,-709 1214.73,-715.8"/>
</a>
</g>
</g>
<!-- Node6 -->
<g id="Node000006" class="node">
<title>Node6</title>
<g id="a_Node000006"><a xlink:href="ldo_8c.html#ad07756c576e4e989a7ca417c1d691d2a" target="_top" xlink:title=" ">
<polygon fill="white" stroke="#666666" points="404.5,-729.25 338.25,-729.25 338.25,-710 404.5,-710 404.5,-729.25"/>
<text xml:space="preserve" text-anchor="middle" x="371.38" y="-715.75" font-family="Helvetica,sans-Serif" font-size="10.00">lua_resume</text>
</a>
</g>
</g>
<!-- Node1&#45;&gt;Node6 -->
<g id="edge12_Node000001_Node000006" class="edge">
<title>Node1&#45;&gt;Node6</title>
<g id="a_edge12_Node000001_Node000006"><a xlink:title=" ">
<path fill="none" stroke="#63b8ff" d="M1248.31,-717.19C1210.12,-752.9 1116.06,-830.62 1020.88,-830.62 1020.88,-830.62 1020.88,-830.62 601.5,-830.62 509.12,-830.62 414.86,-756.64 383.37,-729.48"/>
<polygon fill="#63b8ff" stroke="#63b8ff" points="1250.49,-719.95 1255.3,-710.52 1245.65,-714.89 1250.49,-719.95"/>
</a>
</g>
</g>
<!-- Node12 -->
<g id="Node000012" class="node">
<title>Node12</title>
<g id="a_Node000012"><a xlink:href="ldo_8c.html#a1ad7f845cc62b110e3fcc0ae187d7c85" target="_top" xlink:title=" ">
<polygon fill="white" stroke="#666666" points="1173.62,-149.25 1111.88,-149.25 1111.88,-130 1173.62,-130 1173.62,-149.25"/>
<text xml:space="preserve" text-anchor="middle" x="1142.75" y="-135.75" font-family="Helvetica,sans-Serif" font-size="10.00">luaD_pcall</text>
</a>
</g>
</g>
<!-- Node1&#45;&gt;Node12 -->
<g id="edge13_Node000001_Node000012" class="edge">
<title>Node1&#45;&gt;Node12</title>
<g id="a_edge13_Node000001_Node000012"><a xlink:title=" ">
<path fill="none" stroke="#63b8ff" d="M1261.57,-678.77C1241.37,-586.36 1160.3,-215.37 1145.93,-149.61"/>
<polygon fill="#63b8ff" stroke="#63b8ff" points="1258.12,-679.4 1263.68,-688.43 1264.96,-677.91 1258.12,-679.4"/>
</a>
</g>
</g>
<!-- Node424 -->
<g id="Node000424" class="node">
<title>Node424</title>
<g id="a_Node000424"><a xlink:href="lstate_8c.html#a3363b8b529d3f7d76cb31aae2494bf7e" target="_top" xlink:title=" ">
<polygon fill="white" stroke="#666666" points="1187.5,-447.25 1098,-447.25 1098,-428 1187.5,-428 1187.5,-447.25"/>
<text xml:space="preserve" text-anchor="middle" x="1142.75" y="-433.75" font-family="Helvetica,sans-Serif" font-size="10.00">luaE_resetthread</text>
</a>
</g>
</g>
<!-- Node1&#45;&gt;Node424 -->
<g id="edge29_Node000001_Node000424" class="edge">
<title>Node1&#45;&gt;Node424</title>
<g id="a_edge29_Node000001_Node000424"><a xlink:title=" ">
<path fill="none" stroke="#63b8ff" d="M1256.61,-679.26C1231.92,-626.39 1166.43,-486.19 1148.4,-447.59"/>
<polygon fill="#63b8ff" stroke="#63b8ff" points="1253.43,-680.72 1260.84,-688.3 1259.78,-677.76 1253.43,-680.72"/>
</a>
</g>
</g>
<!-- Node416 -->
<g id="Node000416" class="node">
<title>Node416</title>
<g id="a_Node000416"><a xlink:href="lfunc_8c.html#a3441ab653f9f3df6a2512eb83d9dce09" target="_top" xlink:title=" ">
<polygon fill="white" stroke="#666666" points="1187.5,-709.25 1098,-709.25 1098,-690 1187.5,-690 1187.5,-709.25"/>
<text xml:space="preserve" text-anchor="middle" x="1142.75" y="-695.75" font-family="Helvetica,sans-Serif" font-size="10.00">prepcallclosemth</text>
</a>
</g>
</g>
<!-- Node1&#45;&gt;Node416 -->
<g id="edge50_Node000001_Node000416" class="edge">
<title>Node1&#45;&gt;Node416</title>
<g id="a_edge50_Node000001_Node000416"><a xlink:title=" ">
<path fill="none" stroke="#63b8ff" d="M1211.82,-699.62C1203.85,-699.62 1195.72,-699.62 1187.98,-699.62"/>
<polygon fill="#63b8ff" stroke="#63b8ff" points="1211.81,-703.13 1221.81,-699.63 1211.81,-696.13 1211.81,-703.13"/>
</a>
</g>
</g>
<!-- Node3 -->
<g id="Node000003" class="node">
<title>Node3</title>
<g id="a_Node000003"><a xlink:href="ldo_8c.html#a26a3f3248d1a5d66da6ac8cd4e0a7eeb" target="_top" xlink:title=" ">
<polygon fill="white" stroke="#666666" points="773.5,-802.25 711.75,-802.25 711.75,-783 773.5,-783 773.5,-802.25"/>
<text xml:space="preserve" text-anchor="middle" x="742.62" y="-788.75" font-family="Helvetica,sans-Serif" font-size="10.00">finishCcall</text>
</a>
</g>
</g>
<!-- Node2&#45;&gt;Node3 -->
<g id="edge2_Node000002_Node000003" class="edge">
<title>Node2&#45;&gt;Node3</title>
<g id="a_edge2_Node000002_Node000003"><a xlink:title=" ">
<path fill="none" stroke="#63b8ff" d="M840.91,-792.62C819.23,-792.62 793.47,-792.62 773.91,-792.62"/>
<polygon fill="#63b8ff" stroke="#63b8ff" points="840.63,-796.13 850.63,-792.63 840.63,-789.13 840.63,-796.13"/>
</a>
</g>
</g>
<!-- Node4 -->
<g id="Node000004" class="node">
<title>Node4</title>
<g id="a_Node000004"><a xlink:href="ldo_8c.html#a3baab9d298c0c32cb74a9a079d7244de" target="_top" xlink:title=" ">
<polygon fill="white" stroke="#666666" points="622.12,-747.25 582.88,-747.25 582.88,-728 622.12,-728 622.12,-747.25"/>
<text xml:space="preserve" text-anchor="middle" x="602.5" y="-733.75" font-family="Helvetica,sans-Serif" font-size="10.00">unroll</text>
</a>
</g>
</g>
<!-- Node3&#45;&gt;Node4 -->
<g id="edge3_Node000003_Node000004" class="edge">
<title>Node3&#45;&gt;Node4</title>
<g id="a_edge3_Node000003_Node000004"><a xlink:title=" ">
<path fill="none" stroke="#63b8ff" d="M705.83,-778.37C679.19,-767.76 643.87,-753.7 622.46,-745.18"/>
<polygon fill="#63b8ff" stroke="#63b8ff" points="704.3,-781.53 714.88,-781.98 706.89,-775.03 704.3,-781.53"/>
</a>
</g>
</g>
<!-- Node5 -->
<g id="Node000005" class="node">
<title>Node5</title>
<g id="a_Node000005"><a xlink:href="ldo_8c.html#a92ab6959f4581b978af1a0a3a7cd74b2" target="_top" xlink:title=" ">
<polygon fill="white" stroke="#666666" points="508.25,-747.25 454.75,-747.25 454.75,-728 508.25,-728 508.25,-747.25"/>
<text xml:space="preserve" text-anchor="middle" x="481.5" y="-733.75" font-family="Helvetica,sans-Serif" font-size="10.00">precover</text>
</a>
</g>
</g>
<!-- Node4&#45;&gt;Node5 -->
<g id="edge4_Node000004_Node000005" class="edge">
<title>Node4&#45;&gt;Node5</title>
<g id="a_edge4_Node000004_Node000005"><a xlink:title=" ">
<path fill="none" stroke="#63b8ff" d="M570.89,-737.62C551.63,-737.62 527.03,-737.62 508.67,-737.62"/>
<polygon fill="#63b8ff" stroke="#63b8ff" points="570.87,-741.13 580.87,-737.63 570.87,-734.13 570.87,-741.13"/>
</a>
</g>
</g>
<!-- Node11 -->
<g id="Node000011" class="node">
<title>Node11</title>
<g id="a_Node000011"><a xlink:href="ldo_8c.html#abd7632c715de5db6e7797b7fa3f7010f" target="_top" xlink:title=" ">
<polygon fill="white" stroke="#666666" points="505.62,-710.25 457.38,-710.25 457.38,-691 505.62,-691 505.62,-710.25"/>
<text xml:space="preserve" text-anchor="middle" x="481.5" y="-696.75" font-family="Helvetica,sans-Serif" font-size="10.00">resume</text>
</a>
</g>
</g>
<!-- Node4&#45;&gt;Node11 -->
<g id="edge10_Node000004_Node000011" class="edge">
<title>Node4&#45;&gt;Node11</title>
<g id="a_edge10_Node000004_Node000011"><a xlink:title=" ">
<path fill="none" stroke="#63b8ff" d="M571.55,-728.31C551.27,-722.01 524.86,-713.79 506.08,-707.96"/>
<polygon fill="#63b8ff" stroke="#63b8ff" points="570.35,-731.6 580.94,-731.23 572.43,-724.92 570.35,-731.6"/>
</a>
</g>
</g>
<!-- Node5&#45;&gt;Node6 -->
<g id="edge5_Node000005_Node000006" class="edge">
<title>Node5&#45;&gt;Node6</title>
<g id="a_edge5_Node000005_Node000006"><a xlink:title=" ">
<path fill="none" stroke="#63b8ff" d="M443.32,-731.43C430.82,-729.35 416.99,-727.05 404.88,-725.04"/>
<polygon fill="#63b8ff" stroke="#63b8ff" points="442.39,-734.83 452.83,-733.02 443.54,-727.92 442.39,-734.83"/>
</a>
</g>
</g>
<!-- Node7 -->
<g id="Node000007" class="node">
<title>Node7</title>
<g id="a_Node000007"><a xlink:href="lcorolib_8c.html#aaa37b3a30ab0c6daef7fae8951fef3e7" target="_top" xlink:title=" ">
<polygon fill="white" stroke="#666666" points="291.75,-663.25 227.75,-663.25 227.75,-644 291.75,-644 291.75,-663.25"/>
<text xml:space="preserve" text-anchor="middle" x="259.75" y="-649.75" font-family="Helvetica,sans-Serif" font-size="10.00">auxresume</text>
</a>
</g>
</g>
<!-- Node6&#45;&gt;Node7 -->
<g id="edge6_Node000006_Node000007" class="edge">
<title>Node6&#45;&gt;Node7</title>
<g id="a_edge6_Node000006_Node000007"><a xlink:title=" ">
<path fill="none" stroke="#63b8ff" d="M343.98,-703.74C323.33,-691.3 295.24,-674.39 277.56,-663.74"/>
<polygon fill="#63b8ff" stroke="#63b8ff" points="342.06,-706.66 352.43,-708.82 345.67,-700.66 342.06,-706.66"/>
</a>
</g>
</g>
<!-- Node8 -->
<g id="Node000008" class="node">
<title>Node8</title>
<g id="a_Node000008"><a xlink:href="lcorolib_8c.html#a777abb20385a69ce4787f72bd90375a7" target="_top" xlink:title=" ">
<polygon fill="white" stroke="#666666" points="188.75,-570.25 111.25,-570.25 111.25,-551 188.75,-551 188.75,-570.25"/>
<text xml:space="preserve" text-anchor="middle" x="150" y="-556.75" font-family="Helvetica,sans-Serif" font-size="10.00">luaB_auxwrap</text>
</a>
</g>
</g>
<!-- Node7&#45;&gt;Node8 -->
<g id="edge7_Node000007_Node000008" class="edge">
<title>Node7&#45;&gt;Node8</title>
<g id="a_edge7_Node000007_Node000008"><a xlink:title=" ">
<path fill="none" stroke="#63b8ff" d="M238.77,-636.38C216.31,-617 180.62,-586.19 162.45,-570.51"/>
<polygon fill="#63b8ff" stroke="#63b8ff" points="236.22,-638.8 246.07,-642.68 240.79,-633.5 236.22,-638.8"/>
</a>
</g>
</g>
<!-- Node10 -->
<g id="Node000010" class="node">
<title>Node10</title>
<g id="a_Node000010"><a xlink:href="lcorolib_8c.html#a76f5d80387eeb1c7d31eb5f9cb6c9392" target="_top" xlink:title=" ">
<polygon fill="white" stroke="#666666" points="191.75,-663.25 108.25,-663.25 108.25,-644 191.75,-644 191.75,-663.25"/>
<text xml:space="preserve" text-anchor="middle" x="150" y="-649.75" font-family="Helvetica,sans-Serif" font-size="10.00">luaB_coresume</text>
</a>
</g>
</g>
<!-- Node7&#45;&gt;Node10 -->
<g id="edge9_Node000007_Node000010" class="edge">
<title>Node7&#45;&gt;Node10</title>
<g id="a_edge9_Node000007_Node000010"><a xlink:title=" ">
<path fill="none" stroke="#63b8ff" d="M216,-653.62C208.07,-653.62 199.8,-653.62 191.93,-653.62"/>
<polygon fill="#63b8ff" stroke="#63b8ff" points="215.78,-657.13 225.78,-653.63 215.78,-650.13 215.78,-657.13"/>
</a>
</g>
</g>
<!-- Node9 -->
<g id="Node000009" class="node">
<title>Node9</title>
<g id="a_Node000009"><a xlink:href="lcorolib_8c.html#a1c0429e27f504b08e25f437f733edad1" target="_top" xlink:title=" ">
<polygon fill="white" stroke="#666666" points="72.25,-570.25 0,-570.25 0,-551 72.25,-551 72.25,-570.25"/>
<text xml:space="preserve" text-anchor="middle" x="36.12" y="-556.75" font-family="Helvetica,sans-Serif" font-size="10.00">luaB_cowrap</text>
</a>
</g>
</g>
<!-- Node8&#45;&gt;Node9 -->
<g id="edge8_Node000008_Node000009" class="edge">
<title>Node8&#45;&gt;Node9</title>
<g id="a_edge8_Node000008_Node000009"><a xlink:title=" ">
<path fill="none" stroke="#63b8ff" d="M99.49,-560.62C90.4,-560.62 81.08,-560.62 72.51,-560.62"/>
<polygon fill="#63b8ff" stroke="#63b8ff" points="99.3,-564.13 109.3,-560.63 99.3,-557.13 99.3,-564.13"/>
</a>
</g>
</g>
<!-- Node11&#45;&gt;Node6 -->
<g id="edge11_Node000011_Node000006" class="edge">
<title>Node11&#45;&gt;Node6</title>
<g id="a_edge11_Node000011_Node000006"><a xlink:title=" ">
<path fill="none" stroke="#63b8ff" d="M446,-706.69C432.8,-709.01 417.81,-711.64 404.81,-713.92"/>
<polygon fill="#63b8ff" stroke="#63b8ff" points="446.3,-710.19 455.55,-705.01 445.09,-703.29 446.3,-710.19"/>
</a>
</g>
</g>
<!-- Node13 -->
<g id="Node000013" class="node">
<title>Node13</title>
<g id="a_Node000013"><a xlink:href="lgc_8c.html#aaf7c6e9e6a93da6bb64ffe7654668ba3" target="_top" xlink:title=" ">
<polygon fill="white" stroke="#666666" points="1042.5,-56.25 997.25,-56.25 997.25,-37 1042.5,-37 1042.5,-56.25"/>
<text xml:space="preserve" text-anchor="middle" x="1019.88" y="-42.75" font-family="Helvetica,sans-Serif" font-size="10.00">GCTM</text>
</a>
</g>
</g>
<!-- Node12&#45;&gt;Node13 -->
<g id="edge14_Node000012_Node000013" class="edge">
<title>Node12&#45;&gt;Node13</title>
<g id="a_edge14_Node000012_Node000013"><a xlink:title=" ">
<path fill="none" stroke="#63b8ff" d="M1120,-122.89C1094.86,-103.55 1054.29,-72.33 1033.72,-56.51"/>
<polygon fill="#63b8ff" stroke="#63b8ff" points="1117.55,-125.43 1127.61,-128.75 1121.82,-119.88 1117.55,-125.43"/>
</a>
</g>
</g>
<!-- Node677 -->
<g id="Node000677" class="node">
<title>Node677</title>
<g id="a_Node000677"><a xlink:href="lapi_8c.html#a624df4cb2312b762c4fb528ecc889385" target="_top" xlink:title=" ">
<polygon fill="white" stroke="#666666" points="1049.62,-130.25 990.12,-130.25 990.12,-111 1049.62,-111 1049.62,-130.25"/>
<text xml:space="preserve" text-anchor="middle" x="1019.88" y="-116.75" font-family="Helvetica,sans-Serif" font-size="10.00">lua_pcallk</text>
</a>
</g>
</g>
<!-- Node12&#45;&gt;Node677 -->
<g id="edge20_Node000012_Node000677" class="edge">
<title>Node12&#45;&gt;Node677</title>
<g id="a_edge20_Node000012_Node000677"><a xlink:title=" ">
<path fill="none" stroke="#63b8ff" d="M1100.45,-133.13C1083.8,-130.52 1065,-127.56 1049.85,-125.18"/>
<polygon fill="#63b8ff" stroke="#63b8ff" points="1099.64,-136.55 1110.06,-134.64 1100.73,-129.63 1099.64,-136.55"/>
</a>
</g>
</g>
<!-- Node35 -->
<g id="Node000035" class="node">
<title>Node35</title>
<g id="a_Node000035"><a xlink:href="ldo_8c.html#a451f5a18e45a63e1da2eed7d8a2060f5" target="_top" xlink:title=" ">
<polygon fill="white" stroke="#666666" points="657,-318.25 548,-318.25 548,-299 657,-299 657,-318.25"/>
<text xml:space="preserve" text-anchor="middle" x="602.5" y="-304.75" font-family="Helvetica,sans-Serif" font-size="10.00">luaD_protectedparser</text>
</a>
</g>
</g>
<!-- Node12&#45;&gt;Node35 -->
<g id="edge23_Node000012_Node000035" class="edge">
<title>Node12&#45;&gt;Node35</title>
<g id="a_edge23_Node000012_Node000035"><a xlink:title=" ">
<path fill="none" stroke="#63b8ff" d="M1100.51,-147.5C1040.02,-159.53 924.04,-184.4 828.25,-215.62 751.57,-240.62 664.2,-280.09 624.78,-298.52"/>
<polygon fill="#63b8ff" stroke="#63b8ff" points="1100.87,-151 1110.01,-145.63 1099.52,-144.13 1100.87,-151"/>
</a>
</g>
</g>
<!-- Node14 -->
<g id="Node000014" class="node">
<title>Node14</title>
<g id="a_Node000014"><a xlink:href="lgc_8c.html#a3c6f43e1b63924361ed0ce31b6d30f8b" target="_top" xlink:title=" ">
<polygon fill="white" stroke="#666666" points="941.75,-56.25 828.25,-56.25 828.25,-37 941.75,-37 941.75,-56.25"/>
<text xml:space="preserve" text-anchor="middle" x="885" y="-42.75" font-family="Helvetica,sans-Serif" font-size="10.00">callallpendingfinalizers</text>
</a>
</g>
</g>
<!-- Node13&#45;&gt;Node14 -->
<g id="edge15_Node000013_Node000014" class="edge">
<title>Node13&#45;&gt;Node14</title>
<g id="a_edge15_Node000013_Node000014"><a xlink:title=" ">
<path fill="none" stroke="#63b8ff" d="M985.58,-46.62C972.41,-46.62 956.9,-46.62 942.1,-46.62"/>
<polygon fill="#63b8ff" stroke="#63b8ff" points="985.42,-50.13 995.42,-46.63 985.42,-43.13 985.42,-50.13"/>
</a>
</g>
</g>
<!-- Node692 -->
<g id="Node000692" class="node">
<title>Node692</title>
<g id="a_Node000692"><a xlink:href="lgc_8c.html#a5ba38781fc577f890c6f97af9beef40a" target="_top" xlink:title=" ">
<polygon fill="white" stroke="#666666" points="929.75,-19.25 840.25,-19.25 840.25,0 929.75,0 929.75,-19.25"/>
<text xml:space="preserve" text-anchor="middle" x="885" y="-5.75" font-family="Helvetica,sans-Serif" font-size="10.00">runafewfinalizers</text>
</a>
</g>
</g>
<!-- Node13&#45;&gt;Node692 -->
<g id="edge18_Node000013_Node000692" class="edge">
<title>Node13&#45;&gt;Node692</title>
<g id="a_edge18_Node000013_Node000692"><a xlink:title=" ">
<path fill="none" stroke="#63b8ff" d="M985.93,-37.45C966.6,-32.07 942.15,-25.26 922.27,-19.73"/>
<polygon fill="#63b8ff" stroke="#63b8ff" points="984.9,-40.8 995.48,-40.11 986.78,-34.05 984.9,-40.8"/>
</a>
</g>
</g>
<!-- Node15 -->
<g id="Node000015" class="node">
<title>Node15</title>
<g id="a_Node000015"><a xlink:href="lgc_8c.html#ad14690f3e78fd31ce7eddc3acdbeec5b" target="_top" xlink:title=" ">
<polygon fill="#fff0f0" stroke="red" points="781.75,-93.25 703.5,-93.25 703.5,-74 781.75,-74 781.75,-93.25"/>
<text xml:space="preserve" text-anchor="middle" x="742.62" y="-79.75" font-family="Helvetica,sans-Serif" font-size="10.00">finishgencycle</text>
</a>
</g>
</g>
<!-- Node14&#45;&gt;Node15 -->
<g id="edge16_Node000014_Node000015" class="edge">
<title>Node14&#45;&gt;Node15</title>
<g id="a_edge16_Node000014_Node000015"><a xlink:title=" ">
<path fill="none" stroke="#63b8ff" d="M834.6,-59.65C817.31,-64.2 798.18,-69.25 781.94,-73.53"/>
<polygon fill="#63b8ff" stroke="#63b8ff" points="835.4,-63.05 844.18,-57.12 833.62,-56.29 835.4,-63.05"/>
</a>
</g>
</g>
<!-- Node689 -->
<g id="Node000689" class="node">
<title>Node689</title>
<g id="a_Node000689"><a xlink:href="lgc_8c.html#abad938b33f011ec1088d1a79508c6ac9" target="_top" xlink:title=" ">
<polygon fill="#fff0f0" stroke="red" points="792.25,-56.25 693,-56.25 693,-37 792.25,-37 792.25,-56.25"/>
<text xml:space="preserve" text-anchor="middle" x="742.62" y="-42.75" font-family="Helvetica,sans-Serif" font-size="10.00">luaC_freeallobjects</text>
</a>
</g>
</g>
<!-- Node14&#45;&gt;Node689 -->
<g id="edge17_Node000014_Node000689" class="edge">
<title>Node14&#45;&gt;Node689</title>
<g id="a_edge17_Node000014_Node000689"><a xlink:title=" ">
<path fill="none" stroke="#63b8ff" d="M816.68,-46.62C808.53,-46.62 800.33,-46.62 792.51,-46.62"/>
<polygon fill="#63b8ff" stroke="#63b8ff" points="816.6,-50.13 826.6,-46.63 816.6,-43.13 816.6,-50.13"/>
</a>
</g>
</g>
<!-- Node693 -->
<g id="Node000693" class="node">
<title>Node693</title>
<g id="a_Node000693"><a xlink:href="lgc_8c.html#ae34e22198155f5d365fe500d3735c150" target="_top" xlink:title=" ">
<polygon fill="#fff0f0" stroke="red" points="772.75,-19.25 712.5,-19.25 712.5,0 772.75,0 772.75,-19.25"/>
<text xml:space="preserve" text-anchor="middle" x="742.62" y="-5.75" font-family="Helvetica,sans-Serif" font-size="10.00">singlestep</text>
</a>
</g>
</g>
<!-- Node692&#45;&gt;Node693 -->
<g id="edge19_Node000692_Node000693" class="edge">
<title>Node692&#45;&gt;Node693</title>
<g id="a_edge19_Node000692_Node000693"><a xlink:title=" ">
<path fill="none" stroke="#63b8ff" d="M828.66,-9.62C809.61,-9.62 789.02,-9.62 772.87,-9.62"/>
<polygon fill="#63b8ff" stroke="#63b8ff" points="828.46,-13.13 838.46,-9.63 828.46,-6.13 828.46,-13.13"/>
</a>
</g>
</g>
<!-- Node122 -->
<g id="Node000122" class="node">
<title>Node122</title>
<g id="a_Node000122"><a xlink:href="lbaselib_8c.html#a1fb2725eed679431d070b2e9e7abc223" target="_top" xlink:title=" ">
<polygon fill="white" stroke="#666666" points="915.5,-130.25 854.5,-130.25 854.5,-111 915.5,-111 915.5,-130.25"/>
<text xml:space="preserve" text-anchor="middle" x="885" y="-116.75" font-family="Helvetica,sans-Serif" font-size="10.00">luaB_pcall</text>
</a>
</g>
</g>
<!-- Node677&#45;&gt;Node122 -->
<g id="edge21_Node000677_Node000122" class="edge">
<title>Node677&#45;&gt;Node122</title>
<g id="a_edge21_Node000677_Node000122"><a xlink:title=" ">
<path fill="none" stroke="#63b8ff" d="M978.31,-120.62C958.06,-120.62 934.02,-120.62 915.55,-120.62"/>
<polygon fill="#63b8ff" stroke="#63b8ff" points="978.2,-124.13 988.2,-120.63 978.2,-117.13 978.2,-124.13"/>
</a>
</g>
</g>
<!-- Node179 -->
<g id="Node000179" class="node">
<title>Node179</title>
<g id="a_Node000179"><a xlink:href="lbaselib_8c.html#a5fbb0094fa1a56f0a4c2547f1ec4c5ab" target="_top" xlink:title=" ">
<polygon fill="white" stroke="#666666" points="918.12,-93.25 851.88,-93.25 851.88,-74 918.12,-74 918.12,-93.25"/>
<text xml:space="preserve" text-anchor="middle" x="885" y="-79.75" font-family="Helvetica,sans-Serif" font-size="10.00">luaB_xpcall</text>
</a>
</g>
</g>
<!-- Node677&#45;&gt;Node179 -->
<g id="edge22_Node000677_Node000179" class="edge">
<title>Node677&#45;&gt;Node179</title>
<g id="a_edge22_Node000677_Node000179"><a xlink:title=" ">
<path fill="none" stroke="#63b8ff" d="M978.8,-109.47C959.46,-104.08 936.56,-97.71 918.35,-92.63"/>
<polygon fill="#63b8ff" stroke="#63b8ff" points="977.68,-112.79 988.26,-112.1 979.56,-106.04 977.68,-112.79"/>
</a>
</g>
</g>
<!-- Node36 -->
<g id="Node000036" class="node">
<title>Node36</title>
<g id="a_Node000036"><a xlink:href="lapi_8c.html#aa7a94c45f3eec251e5b258d7482ffe87" target="_top" xlink:title=" ">
<polygon fill="white" stroke="#666666" points="507.5,-384.25 455.5,-384.25 455.5,-365 507.5,-365 507.5,-384.25"/>
<text xml:space="preserve" text-anchor="middle" x="481.5" y="-370.75" font-family="Helvetica,sans-Serif" font-size="10.00">lua_load</text>
</a>
</g>
</g>
<!-- Node35&#45;&gt;Node36 -->
<g id="edge24_Node000035_Node000036" class="edge">
<title>Node35&#45;&gt;Node36</title>
<g id="a_edge24_Node000035_Node000036"><a xlink:title=" ">
<path fill="none" stroke="#63b8ff" d="M573.46,-324.18C550.99,-336.64 520.12,-353.76 500.74,-364.51"/>
<polygon fill="#63b8ff" stroke="#63b8ff" points="575.06,-327.29 582.1,-319.38 571.66,-321.17 575.06,-327.29"/>
</a>
</g>
</g>
<!-- Node37 -->
<g id="Node000037" class="node">
<title>Node37</title>
<g id="a_Node000037"><a xlink:href="lbaselib_8c.html#a4a9a3613fcf80fe033e044f7e19bed69" target="_top" xlink:title=" ">
<polygon fill="white" stroke="#666666" points="289.12,-403.25 230.38,-403.25 230.38,-384 289.12,-384 289.12,-403.25"/>
<text xml:space="preserve" text-anchor="middle" x="259.75" y="-389.75" font-family="Helvetica,sans-Serif" font-size="10.00">luaB_load</text>
</a>
</g>
</g>
<!-- Node36&#45;&gt;Node37 -->
<g id="edge25_Node000036_Node000037" class="edge">
<title>Node36&#45;&gt;Node37</title>
<g id="a_edge25_Node000036_Node000037"><a xlink:title=" ">
<path fill="none" stroke="#63b8ff" d="M443.84,-377.79C400.44,-381.55 329.07,-387.72 289.47,-391.14"/>
<polygon fill="#63b8ff" stroke="#63b8ff" points="444.12,-381.28 453.78,-376.93 443.52,-374.31 444.12,-381.28"/>
</a>
</g>
</g>
<!-- Node38 -->
<g id="Node000038" class="node">
<title>Node38</title>
<g id="a_Node000038"><a xlink:href="lauxlib_8c.html#a867ca33afe2cb3d07bfc238cbb438f61" target="_top" xlink:title=" ">
<polygon fill="white" stroke="#666666" points="415,-365.25 327.75,-365.25 327.75,-346 415,-346 415,-365.25"/>
<text xml:space="preserve" text-anchor="middle" x="371.38" y="-351.75" font-family="Helvetica,sans-Serif" font-size="10.00">luaL_loadbufferx</text>
</a>
</g>
</g>
<!-- Node36&#45;&gt;Node38 -->
<g id="edge26_Node000036_Node000038" class="edge">
<title>Node36&#45;&gt;Node38</title>
<g id="a_edge26_Node000036_Node000038"><a xlink:title=" ">
<path fill="none" stroke="#63b8ff" d="M443.99,-368.21C434.79,-366.59 424.83,-364.84 415.34,-363.18"/>
<polygon fill="#63b8ff" stroke="#63b8ff" points="443.2,-371.62 453.66,-369.91 444.42,-364.73 443.2,-371.62"/>
</a>
</g>
</g>
<!-- Node39 -->
<g id="Node000039" class="node">
<title>Node39</title>
<g id="a_Node000039"><a xlink:href="lauxlib_8c.html#a6ac3b2572d5ce635c4617aed2a0eb649" target="_top" xlink:title=" ">
<polygon fill="#fff0f0" stroke="red" points="409,-441.25 333.75,-441.25 333.75,-422 409,-422 409,-441.25"/>
<text xml:space="preserve" text-anchor="middle" x="371.38" y="-427.75" font-family="Helvetica,sans-Serif" font-size="10.00">luaL_loadfilex</text>
</a>
</g>
</g>
<!-- Node36&#45;&gt;Node39 -->
<g id="edge28_Node000036_Node000039" class="edge">
<title>Node36&#45;&gt;Node39</title>
<g id="a_edge28_Node000036_Node000039"><a xlink:title=" ">
<path fill="none" stroke="#63b8ff" d="M451.44,-389.95C432.33,-400.02 407.88,-412.91 391.27,-421.67"/>
<polygon fill="#63b8ff" stroke="#63b8ff" points="452.87,-393.15 460.08,-385.39 449.6,-386.96 452.87,-393.15"/>
</a>
</g>
</g>
<!-- Node38&#45;&gt;Node37 -->
<g id="edge27_Node000038_Node000037" class="edge">
<title>Node38&#45;&gt;Node37</title>
<g id="a_edge27_Node000038_Node000037"><a xlink:title=" ">
<path fill="none" stroke="#63b8ff" d="M330.74,-369.36C317.13,-374.08 302.18,-379.26 289.6,-383.63"/>
<polygon fill="#63b8ff" stroke="#63b8ff" points="331.55,-372.79 339.86,-366.2 329.26,-366.17 331.55,-372.79"/>
</a>
</g>
</g>
<!-- Node425 -->
<g id="Node000425" class="node">
<title>Node425</title>
<g id="a_Node000425"><a xlink:href="lstate_8c.html#a95ab7e493b56dfead9aac2d2fcbcb408" target="_top" xlink:title=" ">
<polygon fill="white" stroke="#666666" points="1062,-263.25 977.75,-263.25 977.75,-244 1062,-244 1062,-263.25"/>
<text xml:space="preserve" text-anchor="middle" x="1019.88" y="-249.75" font-family="Helvetica,sans-Serif" font-size="10.00">lua_closethread</text>
</a>
</g>
</g>
<!-- Node424&#45;&gt;Node425 -->
<g id="edge30_Node000424_Node000425" class="edge">
<title>Node424&#45;&gt;Node425</title>
<g id="a_edge30_Node000424_Node000425"><a xlink:title=" ">
<path fill="none" stroke="#63b8ff" d="M1129.23,-418.57C1103.77,-379.8 1046.71,-292.96 1027.41,-263.57"/>
<polygon fill="#63b8ff" stroke="#63b8ff" points="1126,-420.03 1134.42,-426.47 1131.85,-416.19 1126,-420.03"/>
</a>
</g>
</g>
<!-- Node427 -->
<g id="Node000427" class="node">
<title>Node427</title>
<g id="a_Node000427"><a xlink:href="ldo_8c.html#a2b46d9db5b9ca3d5402a0c2ac640a6b0" target="_top" xlink:title=" ">
<polygon fill="white" stroke="#666666" points="1052.62,-447.25 987.12,-447.25 987.12,-428 1052.62,-428 1052.62,-447.25"/>
<text xml:space="preserve" text-anchor="middle" x="1019.88" y="-433.75" font-family="Helvetica,sans-Serif" font-size="10.00">luaD_throw</text>
</a>
</g>
</g>
<!-- Node424&#45;&gt;Node427 -->
<g id="edge34_Node000424_Node000427" class="edge">
<title>Node424&#45;&gt;Node427</title>
<g id="a_edge34_Node000424_Node000427"><a xlink:title=" ">
<path fill="none" stroke="#63b8ff" d="M1086.42,-437.62C1074.93,-437.62 1063.2,-437.62 1052.89,-437.62"/>
<polygon fill="#63b8ff" stroke="#63b8ff" points="1086.26,-441.13 1096.26,-437.63 1086.26,-434.13 1086.26,-441.13"/>
</a>
</g>
</g>
<!-- Node425&#45;&gt;Node8 -->
<g id="edge32_Node000425_Node000008" class="edge">
<title>Node425&#45;&gt;Node8</title>
<g id="a_edge32_Node000425_Node000008"><a xlink:title=" ">
<path fill="none" stroke="#63b8ff" d="M993.24,-238.06C978.67,-229.98 959.78,-220.74 941.75,-215.62 856.66,-191.46 832.08,-196.62 743.62,-196.62 743.62,-196.62 743.62,-196.62 370.38,-196.62 200.3,-196.62 158.65,-491.72 152.03,-550.51"/>
<polygon fill="#63b8ff" stroke="#63b8ff" points="991.29,-240.98 1001.71,-242.92 994.77,-234.91 991.29,-240.98"/>
</a>
</g>
</g>
<!-- Node426 -->
<g id="Node000426" class="node">
<title>Node426</title>
<g id="a_Node000426"><a xlink:href="lstate_8c.html#afd03e385a4f4f8fcc25230c0e04f48ff" target="_top" xlink:title=" ">
<polygon fill="white" stroke="#666666" points="926.38,-281.25 843.62,-281.25 843.62,-262 926.38,-262 926.38,-281.25"/>
<text xml:space="preserve" text-anchor="middle" x="885" y="-267.75" font-family="Helvetica,sans-Serif" font-size="10.00">lua_resetthread</text>
</a>
</g>
</g>
<!-- Node425&#45;&gt;Node426 -->
<g id="edge31_Node000425_Node000426" class="edge">
<title>Node425&#45;&gt;Node426</title>
<g id="a_edge31_Node000425_Node000426"><a xlink:title=" ">
<path fill="none" stroke="#63b8ff" d="M966.28,-260.75C953.16,-262.53 939.29,-264.41 926.83,-266.09"/>
<polygon fill="#63b8ff" stroke="#63b8ff" points="966.62,-264.24 976.06,-259.42 965.68,-257.3 966.62,-264.24"/>
</a>
</g>
</g>
<!-- Node242 -->
<g id="Node000242" class="node">
<title>Node242</title>
<g id="a_Node000242"><a xlink:href="lcorolib_8c.html#a3c6a70201b343432bfeb1f3e09cdde6f" target="_top" xlink:title=" ">
<polygon fill="white" stroke="#666666" points="917,-244.25 853,-244.25 853,-225 917,-225 917,-244.25"/>
<text xml:space="preserve" text-anchor="middle" x="885" y="-230.75" font-family="Helvetica,sans-Serif" font-size="10.00">luaB_close</text>
</a>
</g>
</g>
<!-- Node425&#45;&gt;Node242 -->
<g id="edge33_Node000425_Node000242" class="edge">
<title>Node425&#45;&gt;Node242</title>
<g id="a_edge33_Node000425_Node000242"><a xlink:title=" ">
<path fill="none" stroke="#63b8ff" d="M966.29,-246.11C949.65,-243.73 931.79,-241.17 917.15,-239.08"/>
<polygon fill="#63b8ff" stroke="#63b8ff" points="965.67,-249.55 976.06,-247.5 966.66,-242.62 965.67,-249.55"/>
</a>
</g>
</g>
<!-- Node427&#45;&gt;Node427 -->
<g id="edge46_Node000427_Node000427" class="edge">
<title>Node427&#45;&gt;Node427</title>
<g id="a_edge46_Node000427_Node000427"><a xlink:title=" ">
<path fill="none" stroke="#63b8ff" d="M1041.69,-458.65C1038.96,-462.53 1031.69,-465.25 1019.88,-465.25 998.28,-465.25 991.86,-456.15 1000.64,-447.54"/>
<polygon fill="#63b8ff" stroke="#63b8ff" points="1045.12,-457.97 1039.45,-449.01 1038.3,-459.54 1045.12,-457.97"/>
</a>
</g>
</g>
<!-- Node428 -->
<g id="Node000428" class="node">
<title>Node428</title>
<g id="a_Node000428"><a xlink:href="ldo_8c.html#a47f3a8ae373112059c6cf957958c70a6" target="_top" xlink:title=" ">
<polygon fill="white" stroke="#666666" points="918.12,-318.25 851.88,-318.25 851.88,-299 918.12,-299 918.12,-318.25"/>
<text xml:space="preserve" text-anchor="middle" x="885" y="-304.75" font-family="Helvetica,sans-Serif" font-size="10.00">checkmode</text>
</a>
</g>
</g>
<!-- Node427&#45;&gt;Node428 -->
<g id="edge35_Node000427_Node000428" class="edge">
<title>Node427&#45;&gt;Node428</title>
<g id="a_edge35_Node000427_Node000428"><a xlink:title=" ">
<path fill="none" stroke="#63b8ff" d="M1009.84,-417.29C997.79,-392.41 974.13,-350.63 941.75,-326.62 934.89,-321.54 926.53,-317.85 918.39,-315.19"/>
<polygon fill="#63b8ff" stroke="#63b8ff" points="1006.66,-418.74 1014.05,-426.33 1013,-415.79 1006.66,-418.74"/>
</a>
</g>
</g>
<!-- Node429 -->
<g id="Node000429" class="node">
<title>Node429</title>
<g id="a_Node000429"><a xlink:href="lundump_8c.html#a4359a67dfcb96fbedf2becab47365599" target="_top" xlink:title=" ">
<polygon fill="#fff0f0" stroke="red" points="902.75,-577.25 867.25,-577.25 867.25,-558 902.75,-558 902.75,-577.25"/>
<text xml:space="preserve" text-anchor="middle" x="885" y="-563.75" font-family="Helvetica,sans-Serif" font-size="10.00">error</text>
</a>
</g>
</g>
<!-- Node427&#45;&gt;Node429 -->
<g id="edge38_Node000427_Node000429" class="edge">
<title>Node427&#45;&gt;Node429</title>
<g id="a_edge38_Node000427_Node000429"><a xlink:title=" ">
<path fill="none" stroke="#63b8ff" d="M1010.05,-457.81C998.1,-482.87 974.43,-525.29 941.75,-549.62 930.41,-558.07 914.95,-562.65 903.18,-565.07"/>
<polygon fill="#63b8ff" stroke="#63b8ff" points="1013.1,-459.56 1014.08,-449.01 1006.73,-456.65 1013.1,-459.56"/>
</a>
</g>
</g>
<!-- Node450 -->
<g id="Node000450" class="node">
<title>Node450</title>
<g id="a_Node000450"><a xlink:href="llex_8c.html#a67bb1f3225ffe5738fef1c3d34879735" target="_top" xlink:title=" ">
<polygon fill="#fff0f0" stroke="red" points="909.12,-540.25 860.88,-540.25 860.88,-521 909.12,-521 909.12,-540.25"/>
<text xml:space="preserve" text-anchor="middle" x="885" y="-526.75" font-family="Helvetica,sans-Serif" font-size="10.00">lexerror</text>
</a>
</g>
</g>
<!-- Node427&#45;&gt;Node450 -->
<g id="edge43_Node000427_Node000450" class="edge">
<title>Node427&#45;&gt;Node450</title>
<g id="a_edge43_Node000427_Node000450"><a xlink:title=" ">
<path fill="none" stroke="#63b8ff" d="M1004.22,-456.11C989.92,-473.01 966.73,-497.59 941.75,-512.62 931.9,-518.55 919.89,-522.75 909.54,-525.6"/>
<polygon fill="#63b8ff" stroke="#63b8ff" points="1006.59,-458.73 1010.24,-448.79 1001.18,-454.29 1006.59,-458.73"/>
</a>
</g>
</g>
<!-- Node556 -->
<g id="Node000556" class="node">
<title>Node556</title>
<g id="a_Node000556"><a xlink:href="ldo_8c.html#a40d0ec26d9da8d2913c90158a788d019" target="_top" xlink:title=" ">
<polygon fill="white" stroke="#666666" points="914.75,-503.25 855.25,-503.25 855.25,-484 914.75,-484 914.75,-503.25"/>
<text xml:space="preserve" text-anchor="middle" x="885" y="-489.75" font-family="Helvetica,sans-Serif" font-size="10.00">lua_yieldk</text>
</a>
</g>
</g>
<!-- Node427&#45;&gt;Node556 -->
<g id="edge44_Node000427_Node000556" class="edge">
<title>Node427&#45;&gt;Node556</title>
<g id="a_edge44_Node000427_Node000556"><a xlink:title=" ">
<path fill="none" stroke="#63b8ff" d="M990.72,-452.73C976.3,-460.14 958.34,-468.9 941.75,-475.62 933.27,-479.06 923.86,-482.31 915.22,-485.07"/>
<polygon fill="#63b8ff" stroke="#63b8ff" points="991.93,-456.04 999.18,-448.31 988.69,-449.84 991.93,-456.04"/>
</a>
</g>
</g>
<!-- Node557 -->
<g id="Node000557" class="node">
<title>Node557</title>
<g id="a_Node000557"><a xlink:href="ldo_8c.html#a728937587ac9d9e316bd410991f11221" target="_top" xlink:title=" ">
<polygon fill="#fff0f0" stroke="red" points="928.25,-466.25 841.75,-466.25 841.75,-447 928.25,-447 928.25,-466.25"/>
<text xml:space="preserve" text-anchor="middle" x="885" y="-452.75" font-family="Helvetica,sans-Serif" font-size="10.00">luaD_growstack</text>
</a>
</g>
</g>
<!-- Node427&#45;&gt;Node557 -->
<g id="edge45_Node000427_Node000557" class="edge">
<title>Node427&#45;&gt;Node557</title>
<g id="a_edge45_Node000427_Node000557"><a xlink:title=" ">
<path fill="none" stroke="#63b8ff" d="M975.56,-443.82C960.43,-445.98 943.47,-448.41 928.42,-450.56"/>
<polygon fill="#63b8ff" stroke="#63b8ff" points="975.81,-447.32 985.21,-442.44 974.82,-440.39 975.81,-447.32"/>
</a>
</g>
</g>
<!-- Node559 -->
<g id="Node000559" class="node">
<title>Node559</title>
<g id="a_Node000559"><a xlink:href="lstate_8c.html#a3da163a7316194f3a2cb950ee2b4e614" target="_top" xlink:title=" ">
<polygon fill="#fff0f0" stroke="red" points="933.12,-429.25 836.88,-429.25 836.88,-410 933.12,-410 933.12,-429.25"/>
<text xml:space="preserve" text-anchor="middle" x="885" y="-415.75" font-family="Helvetica,sans-Serif" font-size="10.00">luaE_checkcstack</text>
</a>
</g>
</g>
<!-- Node427&#45;&gt;Node559 -->
<g id="edge47_Node000427_Node000559" class="edge">
<title>Node427&#45;&gt;Node559</title>
<g id="a_edge47_Node000427_Node000559"><a xlink:title=" ">
<path fill="none" stroke="#63b8ff" d="M975.36,-431.73C961.95,-429.91 947.12,-427.9 933.46,-426.05"/>
<polygon fill="#63b8ff" stroke="#63b8ff" points="974.83,-435.19 985.21,-433.06 975.77,-428.25 974.83,-435.19"/>
</a>
</g>
</g>
<!-- Node561 -->
<g id="Node000561" class="node">
<title>Node561</title>
<g id="a_Node000561"><a xlink:href="ldebug_8c.html#af7366920f8408bb33ed01b1d6c0e1238" target="_top" xlink:title=" ">
<polygon fill="#fff0f0" stroke="red" points="924.88,-392.25 845.12,-392.25 845.12,-373 924.88,-373 924.88,-392.25"/>
<text xml:space="preserve" text-anchor="middle" x="885" y="-378.75" font-family="Helvetica,sans-Serif" font-size="10.00">luaG_errormsg</text>
</a>
</g>
</g>
<!-- Node427&#45;&gt;Node561 -->
<g id="edge48_Node000427_Node000561" class="edge">
<title>Node427&#45;&gt;Node561</title>
<g id="a_edge48_Node000427_Node000561"><a xlink:title=" ">
<path fill="none" stroke="#63b8ff" d="M989.68,-422.47C975.43,-415.37 957.91,-407.07 941.75,-400.62 934.67,-397.8 926.95,-395.08 919.57,-392.65"/>
<polygon fill="#63b8ff" stroke="#63b8ff" points="988.01,-425.55 998.51,-426.93 991.17,-419.3 988.01,-425.55"/>
</a>
</g>
</g>
<!-- Node669 -->
<g id="Node000669" class="node">
<title>Node669</title>
<g id="a_Node000669"><a xlink:href="ldebug_8c.html#aa85fcb28f50397f11ac54ed47be24f8b" target="_top" xlink:title=" ">
<polygon fill="white" stroke="#666666" points="927.12,-355.25 842.88,-355.25 842.88,-336 927.12,-336 927.12,-355.25"/>
<text xml:space="preserve" text-anchor="middle" x="885" y="-341.75" font-family="Helvetica,sans-Serif" font-size="10.00">luaG_traceexec</text>
</a>
</g>
</g>
<!-- Node427&#45;&gt;Node669 -->
<g id="edge49_Node000427_Node000669" class="edge">
<title>Node427&#45;&gt;Node669</title>
<g id="a_edge49_Node000427_Node000669"><a xlink:title=" ">
<path fill="none" stroke="#63b8ff" d="M1003.93,-419.13C989.58,-402.47 966.48,-378.4 941.75,-363.62 936.6,-360.55 930.86,-357.93 925.08,-355.73"/>
<polygon fill="#63b8ff" stroke="#63b8ff" points="1000.88,-420.94 1009.99,-426.35 1006.25,-416.44 1000.88,-420.94"/>
</a>
</g>
</g>
<!-- Node34 -->
<g id="Node000034" class="node">
<title>Node34</title>
<g id="a_Node000034"><a xlink:href="ldo_8c.html#a14df0fa118ab124dfcc6d227bdd38ca5" target="_top" xlink:title=" ">
<polygon fill="white" stroke="#666666" points="768.25,-318.25 717,-318.25 717,-299 768.25,-299 768.25,-318.25"/>
<text xml:space="preserve" text-anchor="middle" x="742.62" y="-304.75" font-family="Helvetica,sans-Serif" font-size="10.00">f_parser</text>
</a>
</g>
</g>
<!-- Node428&#45;&gt;Node34 -->
<g id="edge36_Node000428_Node000034" class="edge">
<title>Node428&#45;&gt;Node34</title>
<g id="a_edge36_Node000428_Node000034"><a xlink:title=" ">
<path fill="none" stroke="#63b8ff" d="M839.97,-308.62C816.44,-308.62 788.32,-308.62 768.56,-308.62"/>
<polygon fill="#63b8ff" stroke="#63b8ff" points="839.93,-312.13 849.93,-308.63 839.93,-305.13 839.93,-312.13"/>
</a>
</g>
</g>
<!-- Node34&#45;&gt;Node35 -->
<g id="edge37_Node000034_Node000035" class="edge">
<title>Node34&#45;&gt;Node35</title>
<g id="a_edge37_Node000034_Node000035"><a xlink:title=" ">
<path fill="none" stroke="#63b8ff" d="M705.43,-308.62C690.7,-308.62 673.38,-308.62 657.23,-308.62"/>
<polygon fill="#63b8ff" stroke="#63b8ff" points="705.1,-312.13 715.1,-308.63 705.1,-305.13 705.1,-312.13"/>
</a>
</g>
</g>
<!-- Node430 -->
<g id="Node000430" class="node">
<title>Node430</title>
<g id="a_Node000430"><a xlink:href="lundump_8c.html#aef0399a03c281a51786c05a14b74b637" target="_top" xlink:title=" ">
<polygon fill="#fff0f0" stroke="red" points="639.38,-521.25 565.62,-521.25 565.62,-502 639.38,-502 639.38,-521.25"/>
<text xml:space="preserve" text-anchor="middle" x="602.5" y="-507.75" font-family="Helvetica,sans-Serif" font-size="10.00">checkHeader</text>
</a>
</g>
</g>
<!-- Node429&#45;&gt;Node430 -->
<g id="edge39_Node000429_Node000430" class="edge">
<title>Node429&#45;&gt;Node430</title>
<g id="a_edge39_Node000429_Node000430"><a xlink:title=" ">
<path fill="none" stroke="#63b8ff" d="M855.86,-561.51C846.63,-558.75 836.6,-554.89 828.25,-549.62 808.57,-537.22 813.62,-520.82 792.25,-511.62 742.73,-490.33 678.92,-496.4 639.62,-503.46"/>
<polygon fill="#63b8ff" stroke="#63b8ff" points="854.93,-564.88 865.49,-564.06 856.72,-558.12 854.93,-564.88"/>
</a>
</g>
</g>
<!-- Node431 -->
<g id="Node000431" class="node">
<title>Node431</title>
<g id="a_Node000431"><a xlink:href="lundump_8c.html#a005ddaa01fdc44c5223b2b641fcb1653" target="_top" xlink:title=" ">
<polygon fill="white" stroke="#666666" points="775.38,-540.25 709.88,-540.25 709.88,-521 775.38,-521 775.38,-540.25"/>
<text xml:space="preserve" text-anchor="middle" x="742.62" y="-526.75" font-family="Helvetica,sans-Serif" font-size="10.00">checkliteral</text>
</a>
</g>
</g>
<!-- Node429&#45;&gt;Node431 -->
<g id="edge40_Node000429_Node000431" class="edge">
<title>Node429&#45;&gt;Node431</title>
<g id="a_edge40_Node000429_Node000431"><a xlink:title=" ">
<path fill="none" stroke="#63b8ff" d="M855.97,-560.24C832.8,-554.13 799.9,-545.46 775.69,-539.08"/>
<polygon fill="#63b8ff" stroke="#63b8ff" points="854.76,-563.54 865.32,-562.7 856.55,-556.77 854.76,-563.54"/>
</a>
</g>
</g>
<!-- Node432 -->
<g id="Node000432" class="node">
<title>Node432</title>
<g id="a_Node000432"><a xlink:href="image__conversion__scene_8c.html#a7b7ba03e7978ac2c114e3ff4f535004c" target="_top" xlink:title=" ">
<polygon fill="#fff0f0" stroke="red" points="777.62,-577.25 707.62,-577.25 707.62,-558 777.62,-558 777.62,-577.25"/>
<text xml:space="preserve" text-anchor="middle" x="742.62" y="-563.75" font-family="Helvetica,sans-Serif" font-size="10.00">errdiff_dither</text>
</a>
</g>
</g>
<!-- Node429&#45;&gt;Node432 -->
<g id="edge42_Node000429_Node000432" class="edge">
<title>Node429&#45;&gt;Node432</title>
<g id="a_edge42_Node000429_Node000432"><a xlink:title=" ">
<path fill="none" stroke="#63b8ff" d="M855.34,-567.62C832.92,-567.62 801.66,-567.62 777.91,-567.62"/>
<polygon fill="#63b8ff" stroke="#63b8ff" points="855.27,-571.13 865.27,-567.63 855.27,-564.13 855.27,-571.13"/>
</a>
</g>
</g>
<!-- Node431&#45;&gt;Node430 -->
<g id="edge41_Node000431_Node000430" class="edge">
<title>Node431&#45;&gt;Node430</title>
<g id="a_edge41_Node000431_Node000430"><a xlink:title=" ">
<path fill="none" stroke="#63b8ff" d="M698.32,-524.67C679.49,-522.08 657.69,-519.08 639.75,-516.61"/>
<polygon fill="#63b8ff" stroke="#63b8ff" points="697.71,-528.12 708.09,-526.01 698.66,-521.18 697.71,-528.12"/>
</a>
</g>
</g>
<!-- Node417 -->
<g id="Node000417" class="node">
<title>Node417</title>
<g id="a_Node000417"><a xlink:href="lfunc_8c.html#a3fefd1fd9743750361c51c4dda38c367" target="_top" xlink:title=" ">
<polygon fill="white" stroke="#666666" points="1051.5,-709.25 988.25,-709.25 988.25,-690 1051.5,-690 1051.5,-709.25"/>
<text xml:space="preserve" text-anchor="middle" x="1019.88" y="-695.75" font-family="Helvetica,sans-Serif" font-size="10.00">luaF_close</text>
</a>
</g>
</g>
<!-- Node416&#45;&gt;Node417 -->
<g id="edge51_Node000416_Node000417" class="edge">
<title>Node416&#45;&gt;Node417</title>
<g id="a_edge51_Node000416_Node000417"><a xlink:title=" ">
<path fill="none" stroke="#63b8ff" d="M1086.48,-699.62C1074.55,-699.62 1062.36,-699.62 1051.77,-699.62"/>
<polygon fill="#63b8ff" stroke="#63b8ff" points="1086.26,-703.13 1096.26,-699.63 1086.26,-696.13 1086.26,-703.13"/>
</a>
</g>
</g>
<!-- Node417&#45;&gt;Node2 -->
<g id="edge53_Node000417_Node000002" class="edge">
<title>Node417&#45;&gt;Node2</title>
<g id="a_edge53_Node000417_Node000002"><a xlink:title=" ">
<path fill="none" stroke="#63b8ff" d="M1001.14,-717.71C980.56,-738.57 948.58,-770.52 941.75,-774.62 934.43,-779.03 925.91,-782.48 917.77,-785.13"/>
<polygon fill="#63b8ff" stroke="#63b8ff" points="1003.57,-720.23 1008.09,-710.65 998.58,-715.32 1003.57,-720.23"/>
</a>
</g>
</g>
<!-- Node418 -->
<g id="Node000418" class="node">
<title>Node418</title>
<g id="a_Node000418"><a xlink:href="ldo_8c.html#aa122f03c43bdabfe90b4a793ae0a722a" target="_top" xlink:title=" ">
<polygon fill="#fff0f0" stroke="red" points="915.12,-765.25 854.88,-765.25 854.88,-746 915.12,-746 915.12,-765.25"/>
<text xml:space="preserve" text-anchor="middle" x="885" y="-751.75" font-family="Helvetica,sans-Serif" font-size="10.00">closepaux</text>
</a>
</g>
</g>
<!-- Node417&#45;&gt;Node418 -->
<g id="edge52_Node000417_Node000418" class="edge">
<title>Node417&#45;&gt;Node418</title>
<g id="a_edge52_Node000417_Node000418"><a xlink:title=" ">
<path fill="none" stroke="#63b8ff" d="M990.72,-714.73C976.3,-722.14 958.34,-730.9 941.75,-737.62 933.36,-741.02 924.07,-744.24 915.51,-746.98"/>
<polygon fill="#63b8ff" stroke="#63b8ff" points="991.93,-718.04 999.18,-710.31 988.69,-711.84 991.93,-718.04"/>
</a>
</g>
</g>
<!-- Node670 -->
<g id="Node000670" class="node">
<title>Node670</title>
<g id="a_Node000670"><a xlink:href="lapi_8c.html#a6b258ccd1dc16b90aa17eed183f283e3" target="_top" xlink:title=" ">
<polygon fill="#fff0f0" stroke="red" points="921.5,-728.25 848.5,-728.25 848.5,-709 921.5,-709 921.5,-728.25"/>
<text xml:space="preserve" text-anchor="middle" x="885" y="-714.75" font-family="Helvetica,sans-Serif" font-size="10.00">lua_closeslot</text>
</a>
</g>
</g>
<!-- Node417&#45;&gt;Node670 -->
<g id="edge54_Node000417_Node000670" class="edge">
<title>Node417&#45;&gt;Node670</title>
<g id="a_edge54_Node000417_Node000670"><a xlink:title=" ">
<path fill="none" stroke="#63b8ff" d="M976.88,-705.63C959.18,-708.16 938.8,-711.08 921.83,-713.5"/>
<polygon fill="#63b8ff" stroke="#63b8ff" points="977.15,-709.13 986.56,-704.25 976.16,-702.2 977.15,-709.13"/>
</a>
</g>
</g>
<!-- Node671 -->
<g id="Node000671" class="node">
<title>Node671</title>
<g id="a_Node000671"><a xlink:href="lapi_8c.html#adaa30f0d34786144c94644039d1d1b6e" target="_top" xlink:title=" ">
<polygon fill="#fff0f0" stroke="red" points="512,-479.25 451,-479.25 451,-460 512,-460 512,-479.25"/>
<text xml:space="preserve" text-anchor="middle" x="481.5" y="-465.75" font-family="Helvetica,sans-Serif" font-size="10.00">lua_settop</text>
</a>
</g>
</g>
<!-- Node417&#45;&gt;Node671 -->
<g id="edge55_Node000417_Node000671" class="edge">
<title>Node417&#45;&gt;Node671</title>
<g id="a_edge55_Node000417_Node000671"><a xlink:title=" ">
<path fill="none" stroke="#63b8ff" d="M997.03,-683.11C982.13,-672.53 961.57,-659.21 941.75,-650.62 773.89,-577.88 703.08,-627.68 548,-530.62 524.82,-516.12 502.55,-492.72 490.9,-479.52"/>
<polygon fill="#63b8ff" stroke="#63b8ff" points="994.57,-685.65 1004.72,-688.71 998.69,-679.99 994.57,-685.65"/>
</a>
</g>
</g>
<!-- Node412 -->
<g id="Node000412" class="node">
<title>Node412</title>
<g id="a_Node000412"><a xlink:href="lvm_8c.html#a221e6dd0bc488dc961e9007ed8e21189" target="_top" xlink:title=" ">
<polygon fill="#fff0f0" stroke="red" points="780.25,-709.25 705,-709.25 705,-690 780.25,-690 780.25,-709.25"/>
<text xml:space="preserve" text-anchor="middle" x="742.62" y="-695.75" font-family="Helvetica,sans-Serif" font-size="10.00">luaV_execute</text>
</a>
</g>
</g>
<!-- Node417&#45;&gt;Node412 -->
<g id="edge58_Node000417_Node000412" class="edge">
<title>Node417&#45;&gt;Node412</title>
<g id="a_edge58_Node000417_Node000412"><a xlink:title=" ">
<path fill="none" stroke="#63b8ff" d="M993.64,-683.97C979.07,-675.85 960.04,-666.79 941.75,-662.62 892.56,-651.44 877.63,-652.3 828.25,-662.62 803.61,-667.78 777.36,-680.53 760.75,-689.62"/>
<polygon fill="#63b8ff" stroke="#63b8ff" points="991.68,-686.87 1002.08,-688.87 995.19,-680.82 991.68,-686.87"/>
</a>
</g>
</g>
<!-- Node673 -->
<g id="Node000673" class="node">
<title>Node673</title>
<g id="a_Node000673"><a xlink:href="ldo_8c.html#a7d1fb513780cf87698edd0f71f6b767b" target="_top" xlink:title=" ">
<polygon fill="#fff0f0" stroke="red" points="919.62,-691.25 850.38,-691.25 850.38,-672 919.62,-672 919.62,-691.25"/>
<text xml:space="preserve" text-anchor="middle" x="885" y="-677.75" font-family="Helvetica,sans-Serif" font-size="10.00">moveresults</text>
</a>
</g>
</g>
<!-- Node417&#45;&gt;Node673 -->
<g id="edge61_Node000417_Node000673" class="edge">
<title>Node417&#45;&gt;Node673</title>
<g id="a_edge61_Node000417_Node000673"><a xlink:title=" ">
<path fill="none" stroke="#63b8ff" d="M976.78,-693.92C958.44,-691.44 937.22,-688.56 919.92,-686.22"/>
<polygon fill="#63b8ff" stroke="#63b8ff" points="976.18,-697.37 986.56,-695.25 977.12,-690.44 976.18,-697.37"/>
</a>
</g>
</g>
<!-- Node671&#45;&gt;Node37 -->
<g id="edge56_Node000671_Node000037" class="edge">
<title>Node671&#45;&gt;Node37</title>
<g id="a_edge56_Node000671_Node000037"><a xlink:title=" ">
<path fill="none" stroke="#63b8ff" d="M439.24,-470.8C407.5,-470.25 363.21,-466.22 327.75,-450.62 303.15,-439.8 280.7,-416.92 269.08,-403.68"/>
<polygon fill="#63b8ff" stroke="#63b8ff" points="439.22,-474.3 449.24,-470.86 439.25,-467.3 439.22,-474.3"/>
</a>
</g>
</g>
<!-- Node671&#45;&gt;Node39 -->
<g id="edge57_Node000671_Node000039" class="edge">
<title>Node671&#45;&gt;Node39</title>
<g id="a_edge57_Node000671_Node000039"><a xlink:title=" ">
<path fill="none" stroke="#63b8ff" d="M441.01,-455.74C427.7,-451.07 413.11,-445.94 400.83,-441.62"/>
<polygon fill="#63b8ff" stroke="#63b8ff" points="439.79,-459.03 450.38,-459.04 442.11,-452.42 439.79,-459.03"/>
</a>
</g>
</g>
<!-- Node412&#45;&gt;Node4 -->
<g id="edge60_Node000412_Node000004" class="edge">
<title>Node412&#45;&gt;Node4</title>
<g id="a_edge60_Node000412_Node000004"><a xlink:title=" ">
<path fill="none" stroke="#63b8ff" d="M694.01,-712.72C669.44,-719.48 640.84,-727.35 622.47,-732.41"/>
<polygon fill="#63b8ff" stroke="#63b8ff" points="694.8,-716.14 703.51,-710.11 692.94,-709.39 694.8,-716.14"/>
</a>
</g>
</g>
<!-- Node412&#45;&gt;Node11 -->
<g id="edge59_Node000412_Node000011" class="edge">
<title>Node412&#45;&gt;Node11</title>
<g id="a_edge59_Node000412_Node000011"><a xlink:title=" ">
<path fill="none" stroke="#63b8ff" d="M693.43,-699.81C637.75,-700.03 548.37,-700.37 506.11,-700.53"/>
<polygon fill="#63b8ff" stroke="#63b8ff" points="693.27,-703.31 703.26,-699.77 693.25,-696.31 693.27,-703.31"/>
</a>
</g>
</g>
</g>
</svg>
