<?xml version="1.0" encoding="UTF-8" standalone="no"?>
<!DOCTYPE svg PUBLIC "-//W3C//DTD SVG 1.1//EN"
 "http://www.w3.org/Graphics/SVG/1.1/DTD/svg11.dtd">
<!-- Generated by graphviz version 13.1.0 (20250701.0955)
 -->
<!-- Title: luaD_protectedparser Pages: 1 -->
<svg width="436pt" height="83pt"
 viewBox="0.00 0.00 436.00 83.00" xmlns="http://www.w3.org/2000/svg" xmlns:xlink="http://www.w3.org/1999/xlink">
<g id="graph0" class="graph" transform="scale(1 1) rotate(0) translate(4 79.25)">
<title>luaD_protectedparser</title>
<!-- Node1 -->
<g id="Node000001" class="node">
<title>Node1</title>
<g id="a_Node000001"><a xlink:title=" ">
<polygon fill="#999999" stroke="#666666" points="427.75,-56.25 318.75,-56.25 318.75,-37 427.75,-37 427.75,-56.25"/>
<text xml:space="preserve" text-anchor="middle" x="373.25" y="-42.75" font-family="Helvetica,sans-Serif" font-size="10.00">luaD_protectedparser</text>
</a>
</g>
</g>
<!-- Node2 -->
<g id="Node000002" class="node">
<title>Node2</title>
<g id="a_Node000002"><a xlink:href="lapi_8c.html#aa7a94c45f3eec251e5b258d7482ffe87" target="_top" xlink:title=" ">
<polygon fill="white" stroke="#666666" points="282.75,-56.25 230.75,-56.25 230.75,-37 282.75,-37 282.75,-56.25"/>
<text xml:space="preserve" text-anchor="middle" x="256.75" y="-42.75" font-family="Helvetica,sans-Serif" font-size="10.00">lua_load</text>
</a>
</g>
</g>
<!-- Node1&#45;&gt;Node2 -->
<g id="edge1_Node000001_Node000002" class="edge">
<title>Node1&#45;&gt;Node2</title>
<g id="a_edge1_Node000001_Node000002"><a xlink:title=" ">
<path fill="none" stroke="#63b8ff" d="M307.12,-46.62C298.63,-46.62 290.37,-46.62 283.12,-46.62"/>
<polygon fill="#63b8ff" stroke="#63b8ff" points="306.84,-50.13 316.84,-46.63 306.84,-43.13 306.84,-50.13"/>
</a>
</g>
</g>
<!-- Node3 -->
<g id="Node000003" class="node">
<title>Node3</title>
<g id="a_Node000003"><a xlink:href="lbaselib_8c.html#a4a9a3613fcf80fe033e044f7e19bed69" target="_top" xlink:title=" ">
<polygon fill="white" stroke="#666666" points="65.12,-75.25 6.38,-75.25 6.38,-56 65.12,-56 65.12,-75.25"/>
<text xml:space="preserve" text-anchor="middle" x="35.75" y="-61.75" font-family="Helvetica,sans-Serif" font-size="10.00">luaB_load</text>
</a>
</g>
</g>
<!-- Node2&#45;&gt;Node3 -->
<g id="edge2_Node000002_Node000003" class="edge">
<title>Node2&#45;&gt;Node3</title>
<g id="a_edge2_Node000002_Node000003"><a xlink:title=" ">
<path fill="none" stroke="#63b8ff" d="M219.43,-59.9C211.4,-62.28 202.87,-64.39 194.75,-65.62 150,-72.43 97.3,-70.46 65.49,-68.21"/>
<polygon fill="#63b8ff" stroke="#63b8ff" points="220.42,-63.26 228.89,-56.89 218.3,-56.59 220.42,-63.26"/>
</a>
</g>
</g>
<!-- Node4 -->
<g id="Node000004" class="node">
<title>Node4</title>
<g id="a_Node000004"><a xlink:href="lauxlib_8c.html#a867ca33afe2cb3d07bfc238cbb438f61" target="_top" xlink:title=" ">
<polygon fill="white" stroke="#666666" points="194.75,-56.25 107.5,-56.25 107.5,-37 194.75,-37 194.75,-56.25"/>
<text xml:space="preserve" text-anchor="middle" x="151.12" y="-42.75" font-family="Helvetica,sans-Serif" font-size="10.00">luaL_loadbufferx</text>
</a>
</g>
</g>
<!-- Node2&#45;&gt;Node4 -->
<g id="edge3_Node000002_Node000004" class="edge">
<title>Node2&#45;&gt;Node4</title>
<g id="a_edge3_Node000002_Node000004"><a xlink:title=" ">
<path fill="none" stroke="#63b8ff" d="M219.06,-46.62C211.27,-46.62 202.98,-46.62 194.98,-46.62"/>
<polygon fill="#63b8ff" stroke="#63b8ff" points="218.89,-50.13 228.89,-46.63 218.89,-43.13 218.89,-50.13"/>
</a>
</g>
</g>
<!-- Node5 -->
<g id="Node000005" class="node">
<title>Node5</title>
<g id="a_Node000005"><a xlink:href="lauxlib_8c.html#a6ac3b2572d5ce635c4617aed2a0eb649" target="_top" xlink:title=" ">
<polygon fill="white" stroke="#666666" points="188.75,-19.25 113.5,-19.25 113.5,0 188.75,0 188.75,-19.25"/>
<text xml:space="preserve" text-anchor="middle" x="151.12" y="-5.75" font-family="Helvetica,sans-Serif" font-size="10.00">luaL_loadfilex</text>
</a>
</g>
</g>
<!-- Node2&#45;&gt;Node5 -->
<g id="edge5_Node000002_Node000005" class="edge">
<title>Node2&#45;&gt;Node5</title>
<g id="a_edge5_Node000002_Node000005"><a xlink:title=" ">
<path fill="none" stroke="#63b8ff" d="M219.9,-33.82C206.88,-29.18 192.37,-23.99 180.13,-19.62"/>
<polygon fill="#63b8ff" stroke="#63b8ff" points="218.38,-37 228.98,-37.06 220.73,-30.41 218.38,-37"/>
</a>
</g>
</g>
<!-- Node4&#45;&gt;Node3 -->
<g id="edge4_Node000004_Node000003" class="edge">
<title>Node4&#45;&gt;Node3</title>
<g id="a_edge4_Node000004_Node000003"><a xlink:title=" ">
<path fill="none" stroke="#63b8ff" d="M95.99,-55.7C85.49,-57.46 74.88,-59.24 65.59,-60.79"/>
<polygon fill="#63b8ff" stroke="#63b8ff" points="96.49,-59.16 105.77,-54.06 95.33,-52.26 96.49,-59.16"/>
</a>
</g>
</g>
<!-- Node6 -->
<g id="Node000006" class="node">
<title>Node6</title>
<g id="a_Node000006"><a xlink:href="lbaselib_8c.html#aeb4cb83db820979bbdd7710109b52957" target="_top" xlink:title=" ">
<polygon fill="white" stroke="#666666" points="71.5,-19.25 0,-19.25 0,0 71.5,0 71.5,-19.25"/>
<text xml:space="preserve" text-anchor="middle" x="35.75" y="-5.75" font-family="Helvetica,sans-Serif" font-size="10.00">luaB_loadfile</text>
</a>
</g>
</g>
<!-- Node5&#45;&gt;Node6 -->
<g id="edge6_Node000005_Node000006" class="edge">
<title>Node5&#45;&gt;Node6</title>
<g id="a_edge6_Node000005_Node000006"><a xlink:title=" ">
<path fill="none" stroke="#63b8ff" d="M101.79,-9.62C91.66,-9.62 81.17,-9.62 71.65,-9.62"/>
<polygon fill="#63b8ff" stroke="#63b8ff" points="101.49,-13.13 111.49,-9.63 101.49,-6.13 101.49,-13.13"/>
</a>
</g>
</g>
</g>
</svg>
