<?xml version="1.0" encoding="UTF-8" standalone="no"?>
<!DOCTYPE svg PUBLIC "-//W3C//DTD SVG 1.1//EN"
 "http://www.w3.org/Graphics/SVG/1.1/DTD/svg11.dtd">
<!-- Generated by graphviz version 13.1.0 (20250701.0955)
 -->
<!-- Title: precover Pages: 1 -->
<svg width="492pt" height="64pt"
 viewBox="0.00 0.00 492.00 64.00" xmlns="http://www.w3.org/2000/svg" xmlns:xlink="http://www.w3.org/1999/xlink">
<g id="graph0" class="graph" transform="scale(1 1) rotate(0) translate(4 60.25)">
<title>precover</title>
<!-- Node1 -->
<g id="Node000001" class="node">
<title>Node1</title>
<g id="a_Node000001"><a xlink:title=" ">
<polygon fill="#999999" stroke="#666666" points="483.5,-37.25 430,-37.25 430,-18 483.5,-18 483.5,-37.25"/>
<text xml:space="preserve" text-anchor="middle" x="456.75" y="-23.75" font-family="Helvetica,sans-Serif" font-size="10.00">precover</text>
</a>
</g>
</g>
<!-- Node2 -->
<g id="Node000002" class="node">
<title>Node2</title>
<g id="a_Node000002"><a xlink:href="ldo_8c.html#ad07756c576e4e989a7ca417c1d691d2a" target="_top" xlink:title=" ">
<polygon fill="white" stroke="#666666" points="394,-37.25 327.75,-37.25 327.75,-18 394,-18 394,-37.25"/>
<text xml:space="preserve" text-anchor="middle" x="360.88" y="-23.75" font-family="Helvetica,sans-Serif" font-size="10.00">lua_resume</text>
</a>
</g>
</g>
<!-- Node1&#45;&gt;Node2 -->
<g id="edge1_Node000001_Node000002" class="edge">
<title>Node1&#45;&gt;Node2</title>
<g id="a_edge1_Node000001_Node000002"><a xlink:title=" ">
<path fill="none" stroke="#63b8ff" d="M418.31,-27.62C410.35,-27.62 402,-27.62 394.24,-27.62"/>
<polygon fill="#63b8ff" stroke="#63b8ff" points="418.09,-31.13 428.09,-27.63 418.09,-24.13 418.09,-31.13"/>
</a>
</g>
</g>
<!-- Node3 -->
<g id="Node000003" class="node">
<title>Node3</title>
<g id="a_Node000003"><a xlink:href="lcorolib_8c.html#aaa37b3a30ab0c6daef7fae8951fef3e7" target="_top" xlink:title=" ">
<polygon fill="white" stroke="#666666" points="291.75,-37.25 227.75,-37.25 227.75,-18 291.75,-18 291.75,-37.25"/>
<text xml:space="preserve" text-anchor="middle" x="259.75" y="-23.75" font-family="Helvetica,sans-Serif" font-size="10.00">auxresume</text>
</a>
</g>
</g>
<!-- Node2&#45;&gt;Node3 -->
<g id="edge2_Node000002_Node000003" class="edge">
<title>Node2&#45;&gt;Node3</title>
<g id="a_edge2_Node000002_Node000003"><a xlink:title=" ">
<path fill="none" stroke="#63b8ff" d="M316.13,-27.62C307.98,-27.62 299.61,-27.62 291.93,-27.62"/>
<polygon fill="#63b8ff" stroke="#63b8ff" points="315.9,-31.13 325.9,-27.63 315.9,-24.13 315.9,-31.13"/>
</a>
</g>
</g>
<!-- Node4 -->
<g id="Node000004" class="node">
<title>Node4</title>
<g id="a_Node000004"><a xlink:href="lcorolib_8c.html#a777abb20385a69ce4787f72bd90375a7" target="_top" xlink:title=" ">
<polygon fill="white" stroke="#666666" points="188.75,-56.25 111.25,-56.25 111.25,-37 188.75,-37 188.75,-56.25"/>
<text xml:space="preserve" text-anchor="middle" x="150" y="-42.75" font-family="Helvetica,sans-Serif" font-size="10.00">luaB_auxwrap</text>
</a>
</g>
</g>
<!-- Node3&#45;&gt;Node4 -->
<g id="edge3_Node000003_Node000004" class="edge">
<title>Node3&#45;&gt;Node4</title>
<g id="a_edge3_Node000003_Node000004"><a xlink:title=" ">
<path fill="none" stroke="#63b8ff" d="M215.98,-35.17C207.13,-36.73 197.86,-38.36 189.18,-39.89"/>
<polygon fill="#63b8ff" stroke="#63b8ff" points="216.56,-38.62 225.8,-33.43 215.35,-31.72 216.56,-38.62"/>
</a>
</g>
</g>
<!-- Node6 -->
<g id="Node000006" class="node">
<title>Node6</title>
<g id="a_Node000006"><a xlink:href="lcorolib_8c.html#a76f5d80387eeb1c7d31eb5f9cb6c9392" target="_top" xlink:title=" ">
<polygon fill="white" stroke="#666666" points="191.75,-19.25 108.25,-19.25 108.25,0 191.75,0 191.75,-19.25"/>
<text xml:space="preserve" text-anchor="middle" x="150" y="-5.75" font-family="Helvetica,sans-Serif" font-size="10.00">luaB_coresume</text>
</a>
</g>
</g>
<!-- Node3&#45;&gt;Node6 -->
<g id="edge5_Node000003_Node000006" class="edge">
<title>Node3&#45;&gt;Node6</title>
<g id="a_edge5_Node000003_Node000006"><a xlink:title=" ">
<path fill="none" stroke="#63b8ff" d="M216,-20.48C208.07,-19.16 199.8,-17.78 191.93,-16.46"/>
<polygon fill="#63b8ff" stroke="#63b8ff" points="215.36,-23.93 225.8,-22.12 216.52,-17.02 215.36,-23.93"/>
</a>
</g>
</g>
<!-- Node5 -->
<g id="Node000005" class="node">
<title>Node5</title>
<g id="a_Node000005"><a xlink:href="lcorolib_8c.html#a1c0429e27f504b08e25f437f733edad1" target="_top" xlink:title=" ">
<polygon fill="white" stroke="#666666" points="72.25,-56.25 0,-56.25 0,-37 72.25,-37 72.25,-56.25"/>
<text xml:space="preserve" text-anchor="middle" x="36.12" y="-42.75" font-family="Helvetica,sans-Serif" font-size="10.00">luaB_cowrap</text>
</a>
</g>
</g>
<!-- Node4&#45;&gt;Node5 -->
<g id="edge4_Node000004_Node000005" class="edge">
<title>Node4&#45;&gt;Node5</title>
<g id="a_edge4_Node000004_Node000005"><a xlink:title=" ">
<path fill="none" stroke="#63b8ff" d="M99.49,-46.62C90.4,-46.62 81.08,-46.62 72.51,-46.62"/>
<polygon fill="#63b8ff" stroke="#63b8ff" points="99.3,-50.13 109.3,-46.63 99.3,-43.13 99.3,-50.13"/>
</a>
</g>
</g>
</g>
</svg>
