<?xml version="1.0" encoding="UTF-8" standalone="no"?>
<!DOCTYPE svg PUBLIC "-//W3C//DTD SVG 1.1//EN"
 "http://www.w3.org/Graphics/SVG/1.1/DTD/svg11.dtd">
<!-- Generated by graphviz version 13.1.0 (20250701.0955)
 -->
<!-- Title: lua&#45;5.4.7/ldo.h Pages: 1 -->
<svg width="298pt" height="414pt"
 viewBox="0.00 0.00 298.00 414.00" xmlns="http://www.w3.org/2000/svg" xmlns:xlink="http://www.w3.org/1999/xlink">

<svg id="main" version="1.1" xmlns="http://www.w3.org/2000/svg" xmlns:xlink="http://www.w3.org/1999/xlink" xml:space="preserve">

<style type="text/css"><![CDATA[
.node, .edge {opacity: 0.7;}
.node.selected, .edge.selected {opacity: 1;}
.edge:hover path { stroke: red; }
.edge:hover polygon { stroke: red; fill: red; }
]]></style>
<script type="application/ecmascript" xlink:href="svg.min.js"/>
<svg id="graph" class="graph">
<g id="graph0" class="graph" transform="scale(1 1) rotate(0) translate(4 410)">
<title>lua&#45;5.4.7/ldo.h</title>
<!-- Node1 -->
<g id="Node000001" class="node">
<title>Node1</title>
<g id="a_Node000001"><a xlink:title=" ">
<polygon fill="#999999" stroke="#666666" points="102.62,-406 25.12,-406 25.12,-386.75 102.62,-386.75 102.62,-406"/>
<text xml:space="preserve" text-anchor="middle" x="63.88" y="-392.5" font-family="Helvetica,sans-Serif" font-size="10.00">lua&#45;5.4.7/ldo.h</text>
</a>
</g>
</g>
<!-- Node2 -->
<g id="Node000002" class="node">
<title>Node2</title>
<g id="a_Node000002"><a xlink:href="llimits_8h.html" target="_top" xlink:title=" ">
<polygon fill="white" stroke="#666666" points="49.75,-185 0,-185 0,-165.75 49.75,-165.75 49.75,-185"/>
<text xml:space="preserve" text-anchor="middle" x="24.88" y="-171.5" font-family="Helvetica,sans-Serif" font-size="10.00">llimits.h</text>
</a>
</g>
</g>
<!-- Node1&#45;&gt;Node2 -->
<g id="edge1_Node000001_Node000002" class="edge">
<title>Node1&#45;&gt;Node2</title>
<g id="a_edge1_Node000001_Node000002"><a xlink:title=" ">
<path fill="none" stroke="#63b8ff" d="M61.95,-386.31C56.94,-362.47 43.18,-295.98 33.88,-240.25 31.44,-225.67 29.12,-209.14 27.45,-196.55"/>
<polygon fill="#63b8ff" stroke="#63b8ff" points="30.97,-196.46 26.21,-187 24.03,-197.36 30.97,-196.46"/>
</a>
</g>
</g>
<!-- Node8 -->
<g id="Node000008" class="node">
<title>Node8</title>
<g id="a_Node000008"><a xlink:href="lobject_8h.html" target="_top" xlink:title=" ">
<polygon fill="white" stroke="#666666" points="95.25,-240.25 42.5,-240.25 42.5,-221 95.25,-221 95.25,-240.25"/>
<text xml:space="preserve" text-anchor="middle" x="68.88" y="-226.75" font-family="Helvetica,sans-Serif" font-size="10.00">lobject.h</text>
</a>
</g>
</g>
<!-- Node1&#45;&gt;Node8 -->
<g id="edge10_Node000001_Node000008" class="edge">
<title>Node1&#45;&gt;Node8</title>
<g id="a_edge10_Node000001_Node000008"><a xlink:title=" ">
<path fill="none" stroke="#63b8ff" d="M64.14,-386.57C64.92,-361.25 67.16,-287.75 68.26,-251.84"/>
<polygon fill="#63b8ff" stroke="#63b8ff" points="71.75,-252.09 68.56,-241.99 64.75,-251.87 71.75,-252.09"/>
</a>
</g>
</g>
<!-- Node9 -->
<g id="Node000009" class="node">
<title>Node9</title>
<g id="a_Node000009"><a xlink:href="lstate_8h.html" target="_top" xlink:title=" ">
<polygon fill="white" stroke="#666666" points="154,-350.75 105.75,-350.75 105.75,-331.5 154,-331.5 154,-350.75"/>
<text xml:space="preserve" text-anchor="middle" x="129.88" y="-337.25" font-family="Helvetica,sans-Serif" font-size="10.00">lstate.h</text>
</a>
</g>
</g>
<!-- Node1&#45;&gt;Node9 -->
<g id="edge14_Node000001_Node000009" class="edge">
<title>Node1&#45;&gt;Node9</title>
<g id="a_edge14_Node000001_Node000009"><a xlink:title=" ">
<path fill="none" stroke="#63b8ff" d="M75.07,-386.34C84.61,-378.65 98.55,-367.4 109.98,-358.18"/>
<polygon fill="#63b8ff" stroke="#63b8ff" points="112.08,-360.98 117.67,-351.98 107.69,-355.53 112.08,-360.98"/>
</a>
</g>
</g>
<!-- Node11 -->
<g id="Node000011" class="node">
<title>Node11</title>
<g id="a_Node000011"><a xlink:href="lzio_8h.html" target="_top" xlink:title=" ">
<polygon fill="white" stroke="#666666" points="289.5,-295.5 250.25,-295.5 250.25,-276.25 289.5,-276.25 289.5,-295.5"/>
<text xml:space="preserve" text-anchor="middle" x="269.88" y="-282" font-family="Helvetica,sans-Serif" font-size="10.00">lzio.h</text>
</a>
</g>
</g>
<!-- Node1&#45;&gt;Node11 -->
<g id="edge26_Node000001_Node000011" class="edge">
<title>Node1&#45;&gt;Node11</title>
<g id="a_edge26_Node000001_Node000011"><a xlink:title=" ">
<path fill="none" stroke="#63b8ff" d="M85.85,-386.33C106.14,-377.77 136.97,-364.27 162.88,-350.75 192.38,-335.36 225.06,-315.4 246.45,-301.92"/>
<polygon fill="#63b8ff" stroke="#63b8ff" points="248.13,-305 254.7,-296.68 244.38,-299.09 248.13,-305"/>
</a>
</g>
</g>
<!-- Node3 -->
<g id="Node000003" class="node">
<title>Node3</title>
<g id="a_Node000003"><a xlink:title=" ">
<polygon fill="#e0e0e0" stroke="#999999" points="90.62,-19.25 43.12,-19.25 43.12,0 90.62,0 90.62,-19.25"/>
<text xml:space="preserve" text-anchor="middle" x="66.88" y="-5.75" font-family="Helvetica,sans-Serif" font-size="10.00">limits.h</text>
</a>
</g>
</g>
<!-- Node2&#45;&gt;Node3 -->
<g id="edge2_Node000002_Node000003" class="edge">
<title>Node2&#45;&gt;Node3</title>
<g id="a_edge2_Node000002_Node000003"><a xlink:title=" ">
<path fill="none" stroke="#63b8ff" d="M21.13,-165.48C13.09,-144.95 -3.74,-93.1 13.88,-55.25 19.45,-43.27 30,-33.35 40.24,-25.93"/>
<polygon fill="#63b8ff" stroke="#63b8ff" points="42.12,-28.88 48.51,-20.44 38.25,-23.05 42.12,-28.88"/>
</a>
</g>
</g>
<!-- Node4 -->
<g id="Node000004" class="node">
<title>Node4</title>
<g id="a_Node000004"><a xlink:title=" ">
<polygon fill="#e0e0e0" stroke="#999999" points="207.5,-19.25 156.25,-19.25 156.25,0 207.5,0 207.5,-19.25"/>
<text xml:space="preserve" text-anchor="middle" x="181.88" y="-5.75" font-family="Helvetica,sans-Serif" font-size="10.00">stddef.h</text>
</a>
</g>
</g>
<!-- Node2&#45;&gt;Node4 -->
<g id="edge3_Node000002_Node000004" class="edge">
<title>Node2&#45;&gt;Node4</title>
<g id="a_edge3_Node000002_Node000004"><a xlink:title=" ">
<path fill="none" stroke="#63b8ff" d="M23.71,-165.31C21.42,-143.48 18.82,-87.43 46.88,-55.25 71.4,-27.12 114.04,-16.65 144.85,-12.8"/>
<polygon fill="#63b8ff" stroke="#63b8ff" points="144.93,-16.31 154.51,-11.78 144.2,-9.34 144.93,-16.31"/>
</a>
</g>
</g>
<!-- Node5 -->
<g id="Node000005" class="node">
<title>Node5</title>
<g id="a_Node000005"><a xlink:href="lua_8h.html" target="_top" xlink:title=" ">
<polygon fill="white" stroke="#666666" points="172.38,-129.75 135.38,-129.75 135.38,-110.5 172.38,-110.5 172.38,-129.75"/>
<text xml:space="preserve" text-anchor="middle" x="153.88" y="-116.25" font-family="Helvetica,sans-Serif" font-size="10.00">lua.h</text>
</a>
</g>
</g>
<!-- Node2&#45;&gt;Node5 -->
<g id="edge4_Node000002_Node000005" class="edge">
<title>Node2&#45;&gt;Node5</title>
<g id="a_edge4_Node000002_Node000005"><a xlink:title=" ">
<path fill="none" stroke="#63b8ff" d="M46.76,-165.34C68.23,-156.48 101.1,-142.91 124.77,-133.14"/>
<polygon fill="#63b8ff" stroke="#63b8ff" points="125.93,-136.45 133.84,-129.39 123.26,-129.98 125.93,-136.45"/>
</a>
</g>
</g>
<!-- Node5&#45;&gt;Node4 -->
<g id="edge6_Node000005_Node000004" class="edge">
<title>Node5&#45;&gt;Node4</title>
<g id="a_edge6_Node000005_Node000004"><a xlink:title=" ">
<path fill="none" stroke="#63b8ff" d="M164.66,-110.14C173.61,-101.92 185.69,-88.89 190.88,-74.5 196,-60.29 193.23,-43.32 189.45,-30.44"/>
<polygon fill="#63b8ff" stroke="#63b8ff" points="192.78,-29.35 186.24,-21.01 186.15,-31.61 192.78,-29.35"/>
</a>
</g>
</g>
<!-- Node6 -->
<g id="Node000006" class="node">
<title>Node6</title>
<g id="a_Node000006"><a xlink:title=" ">
<polygon fill="#e0e0e0" stroke="#999999" points="107.5,-74.5 56.25,-74.5 56.25,-55.25 107.5,-55.25 107.5,-74.5"/>
<text xml:space="preserve" text-anchor="middle" x="81.88" y="-61" font-family="Helvetica,sans-Serif" font-size="10.00">stdarg.h</text>
</a>
</g>
</g>
<!-- Node5&#45;&gt;Node6 -->
<g id="edge5_Node000005_Node000006" class="edge">
<title>Node5&#45;&gt;Node6</title>
<g id="a_edge5_Node000005_Node000006"><a xlink:title=" ">
<path fill="none" stroke="#63b8ff" d="M141.66,-110.09C131.05,-102.24 115.44,-90.7 102.83,-81.37"/>
<polygon fill="#63b8ff" stroke="#63b8ff" points="105.25,-78.81 95.13,-75.67 101.08,-84.44 105.25,-78.81"/>
</a>
</g>
</g>
<!-- Node7 -->
<g id="Node000007" class="node">
<title>Node7</title>
<g id="a_Node000007"><a xlink:href="luaconf_8h.html" target="_top" xlink:title=" ">
<polygon fill="white" stroke="#666666" points="181.75,-74.5 126,-74.5 126,-55.25 181.75,-55.25 181.75,-74.5"/>
<text xml:space="preserve" text-anchor="middle" x="153.88" y="-61" font-family="Helvetica,sans-Serif" font-size="10.00">luaconf.h</text>
</a>
</g>
</g>
<!-- Node5&#45;&gt;Node7 -->
<g id="edge7_Node000005_Node000007" class="edge">
<title>Node5&#45;&gt;Node7</title>
<g id="a_edge7_Node000005_Node000007"><a xlink:title=" ">
<path fill="none" stroke="#63b8ff" d="M153.88,-110.33C153.88,-103.82 153.88,-94.67 153.88,-86.37"/>
<polygon fill="#63b8ff" stroke="#63b8ff" points="157.38,-86.37 153.88,-76.37 150.38,-86.37 157.38,-86.37"/>
</a>
</g>
</g>
<!-- Node7&#45;&gt;Node3 -->
<g id="edge8_Node000007_Node000003" class="edge">
<title>Node7&#45;&gt;Node3</title>
<g id="a_edge8_Node000007_Node000003"><a xlink:title=" ">
<path fill="none" stroke="#63b8ff" d="M139.12,-54.84C125.99,-46.81 106.55,-34.91 91.14,-25.48"/>
<polygon fill="#63b8ff" stroke="#63b8ff" points="93.35,-22.73 83,-20.49 89.7,-28.7 93.35,-22.73"/>
</a>
</g>
</g>
<!-- Node7&#45;&gt;Node4 -->
<g id="edge9_Node000007_Node000004" class="edge">
<title>Node7&#45;&gt;Node4</title>
<g id="a_edge9_Node000007_Node000004"><a xlink:title=" ">
<path fill="none" stroke="#63b8ff" d="M158.5,-55.08C162.12,-48.19 167.3,-38.34 171.87,-29.66"/>
<polygon fill="#63b8ff" stroke="#63b8ff" points="174.89,-31.43 176.45,-20.95 168.69,-28.17 174.89,-31.43"/>
</a>
</g>
</g>
<!-- Node8&#45;&gt;Node2 -->
<g id="edge12_Node000008_Node000002" class="edge">
<title>Node8&#45;&gt;Node2</title>
<g id="a_edge12_Node000008_Node000002"><a xlink:title=" ">
<path fill="none" stroke="#63b8ff" d="M61.61,-220.83C55.59,-213.55 46.86,-202.98 39.42,-193.98"/>
<polygon fill="#63b8ff" stroke="#63b8ff" points="42.33,-192.01 33.26,-186.53 36.93,-196.46 42.33,-192.01"/>
</a>
</g>
</g>
<!-- Node8&#45;&gt;Node5 -->
<g id="edge13_Node000008_Node000005" class="edge">
<title>Node8&#45;&gt;Node5</title>
<g id="a_edge13_Node000008_Node000005"><a xlink:title=" ">
<path fill="none" stroke="#63b8ff" d="M75.83,-220.75C89.78,-202.94 121.4,-162.58 139.82,-139.06"/>
<polygon fill="#63b8ff" stroke="#63b8ff" points="142.48,-141.35 145.89,-131.32 136.97,-137.03 142.48,-141.35"/>
</a>
</g>
</g>
<!-- Node8&#45;&gt;Node6 -->
<g id="edge11_Node000008_Node000006" class="edge">
<title>Node8&#45;&gt;Node6</title>
<g id="a_edge11_Node000008_Node000006"><a xlink:title=" ">
<path fill="none" stroke="#63b8ff" d="M69.57,-220.82C71.58,-195.5 77.42,-122 80.27,-86.09"/>
<polygon fill="#63b8ff" stroke="#63b8ff" points="83.75,-86.48 81.05,-76.23 76.77,-85.92 83.75,-86.48"/>
</a>
</g>
</g>
<!-- Node9&#45;&gt;Node5 -->
<g id="edge15_Node000009_Node000005" class="edge">
<title>Node9&#45;&gt;Node5</title>
<g id="a_edge15_Node000009_Node000005"><a xlink:title=" ">
<path fill="none" stroke="#63b8ff" d="M130.88,-331.24C131.89,-322.23 133.5,-307.9 134.88,-295.5 141.05,-239.65 148.19,-173.73 151.7,-141.26"/>
<polygon fill="#63b8ff" stroke="#63b8ff" points="155.14,-142.03 152.73,-131.71 148.18,-141.27 155.14,-142.03"/>
</a>
</g>
</g>
<!-- Node9&#45;&gt;Node8 -->
<g id="edge16_Node000009_Node000008" class="edge">
<title>Node9&#45;&gt;Node8</title>
<g id="a_edge16_Node000009_Node000008"><a xlink:title=" ">
<path fill="none" stroke="#63b8ff" d="M114.79,-331.14C103.01,-323.28 87.28,-310.75 78.88,-295.5 71.49,-282.09 69.13,-264.84 68.55,-251.64"/>
<polygon fill="#63b8ff" stroke="#63b8ff" points="72.05,-251.97 68.43,-242.01 65.05,-252.05 72.05,-251.97"/>
</a>
</g>
</g>
<!-- Node10 -->
<g id="Node000010" class="node">
<title>Node10</title>
<g id="a_Node000010"><a xlink:href="ltm_8h.html" target="_top" xlink:title=" ">
<polygon fill="white" stroke="#666666" points="125.75,-295.5 88,-295.5 88,-276.25 125.75,-276.25 125.75,-295.5"/>
<text xml:space="preserve" text-anchor="middle" x="106.88" y="-282" font-family="Helvetica,sans-Serif" font-size="10.00">ltm.h</text>
</a>
</g>
</g>
<!-- Node9&#45;&gt;Node10 -->
<g id="edge17_Node000009_Node000010" class="edge">
<title>Node9&#45;&gt;Node10</title>
<g id="a_edge17_Node000009_Node000010"><a xlink:title=" ">
<path fill="none" stroke="#63b8ff" d="M126.08,-331.33C123.13,-324.51 118.94,-314.81 115.22,-306.2"/>
<polygon fill="#63b8ff" stroke="#63b8ff" points="118.53,-305.04 111.36,-297.25 112.11,-307.82 118.53,-305.04"/>
</a>
</g>
</g>
<!-- Node9&#45;&gt;Node11 -->
<g id="edge19_Node000009_Node000011" class="edge">
<title>Node9&#45;&gt;Node11</title>
<g id="a_edge19_Node000009_Node000011"><a xlink:title=" ">
<path fill="none" stroke="#63b8ff" d="M153.62,-331.09C177.27,-322.1 213.67,-308.25 239.43,-298.46"/>
<polygon fill="#63b8ff" stroke="#63b8ff" points="240.57,-301.76 248.68,-294.94 238.08,-295.22 240.57,-301.76"/>
</a>
</g>
</g>
<!-- Node13 -->
<g id="Node000013" class="node">
<title>Node13</title>
<g id="a_Node000013"><a xlink:title=" ">
<polygon fill="#e0e0e0" stroke="#999999" points="231.75,-295.5 182,-295.5 182,-276.25 231.75,-276.25 231.75,-295.5"/>
<text xml:space="preserve" text-anchor="middle" x="206.88" y="-282" font-family="Helvetica,sans-Serif" font-size="10.00">signal.h</text>
</a>
</g>
</g>
<!-- Node9&#45;&gt;Node13 -->
<g id="edge25_Node000009_Node000013" class="edge">
<title>Node9&#45;&gt;Node13</title>
<g id="a_edge25_Node000009_Node000013"><a xlink:title=" ">
<path fill="none" stroke="#63b8ff" d="M142.94,-331.09C154.33,-323.21 171.1,-311.61 184.61,-302.27"/>
<polygon fill="#63b8ff" stroke="#63b8ff" points="186.27,-305.38 192.5,-296.81 182.29,-299.62 186.27,-305.38"/>
</a>
</g>
</g>
<!-- Node10&#45;&gt;Node8 -->
<g id="edge18_Node000010_Node000008" class="edge">
<title>Node10&#45;&gt;Node8</title>
<g id="a_edge18_Node000010_Node000008"><a xlink:title=" ">
<path fill="none" stroke="#63b8ff" d="M100.6,-276.08C95.52,-268.96 88.18,-258.68 81.84,-249.8"/>
<polygon fill="#63b8ff" stroke="#63b8ff" points="84.82,-247.95 76.17,-241.84 79.13,-252.01 84.82,-247.95"/>
</a>
</g>
</g>
<!-- Node11&#45;&gt;Node5 -->
<g id="edge20_Node000011_Node000005" class="edge">
<title>Node11&#45;&gt;Node5</title>
<g id="a_edge20_Node000011_Node000005"><a xlink:title=" ">
<path fill="none" stroke="#63b8ff" d="M258.94,-276.07C248.82,-267.59 233.75,-254.03 222.88,-240.25 197.18,-207.7 174.62,-164.54 162.75,-140.12"/>
<polygon fill="#63b8ff" stroke="#63b8ff" points="166.05,-138.92 158.59,-131.4 159.74,-141.94 166.05,-138.92"/>
</a>
</g>
</g>
<!-- Node12 -->
<g id="Node000012" class="node">
<title>Node12</title>
<g id="a_Node000012"><a xlink:href="lmem_8h.html" target="_top" xlink:title=" ">
<polygon fill="white" stroke="#666666" points="280,-240.25 231.75,-240.25 231.75,-221 280,-221 280,-240.25"/>
<text xml:space="preserve" text-anchor="middle" x="255.88" y="-226.75" font-family="Helvetica,sans-Serif" font-size="10.00">lmem.h</text>
</a>
</g>
</g>
<!-- Node11&#45;&gt;Node12 -->
<g id="edge21_Node000011_Node000012" class="edge">
<title>Node11&#45;&gt;Node12</title>
<g id="a_edge21_Node000011_Node000012"><a xlink:title=" ">
<path fill="none" stroke="#63b8ff" d="M267.56,-276.08C265.81,-269.42 263.33,-259.99 261.11,-251.53"/>
<polygon fill="#63b8ff" stroke="#63b8ff" points="264.55,-250.85 258.62,-242.07 257.78,-252.63 264.55,-250.85"/>
</a>
</g>
</g>
<!-- Node12&#45;&gt;Node2 -->
<g id="edge23_Node000012_Node000002" class="edge">
<title>Node12&#45;&gt;Node2</title>
<g id="a_edge23_Node000012_Node000002"><a xlink:title=" ">
<path fill="none" stroke="#63b8ff" d="M231.59,-224.03C190.93,-214.65 108.84,-195.73 61.26,-184.76"/>
<polygon fill="#63b8ff" stroke="#63b8ff" points="62.24,-181.4 51.71,-182.56 60.67,-188.22 62.24,-181.4"/>
</a>
</g>
</g>
<!-- Node12&#45;&gt;Node4 -->
<g id="edge22_Node000012_Node000004" class="edge">
<title>Node12&#45;&gt;Node4</title>
<g id="a_edge22_Node000012_Node000004"><a xlink:title=" ">
<path fill="none" stroke="#63b8ff" d="M254.03,-220.69C248.48,-194.6 230.8,-116.51 205.88,-55.25 202.32,-46.5 197.52,-37.24 193.15,-29.43"/>
<polygon fill="#63b8ff" stroke="#63b8ff" points="196.24,-27.78 188.19,-20.89 190.18,-31.29 196.24,-27.78"/>
</a>
</g>
</g>
<!-- Node12&#45;&gt;Node5 -->
<g id="edge24_Node000012_Node000005" class="edge">
<title>Node12&#45;&gt;Node5</title>
<g id="a_edge24_Node000012_Node000005"><a xlink:title=" ">
<path fill="none" stroke="#63b8ff" d="M249.9,-220.92C240.99,-208.21 223.39,-184.07 205.88,-165.75 196.16,-155.58 184.33,-145.29 174.4,-137.16"/>
<polygon fill="#63b8ff" stroke="#63b8ff" points="176.78,-134.57 166.79,-131.04 172.39,-140.03 176.78,-134.57"/>
</a>
</g>
</g>
</g>
</svg>
</svg>

<style type='text/css'>
<![CDATA[
[data-mouse-over-selected='false'] { opacity: 0.7; }
[data-mouse-over-selected='true']  { opacity: 1.0; }
]]>
</style>
<script type="application/ecmascript"><![CDATA[
document.addEventListener('DOMContentLoaded', (event) => {
  highlightEdges();
  highlightAdjacentNodes();
});
]]></script>
</svg>
