<?xml version="1.0" encoding="UTF-8" standalone="no"?>
<!DOCTYPE svg PUBLIC "-//W3C//DTD SVG 1.1//EN"
 "http://www.w3.org/Graphics/SVG/1.1/DTD/svg11.dtd">
<!-- Generated by graphviz version 13.1.0 (20250701.0955)
 -->
<!-- Title: dumpInt Pages: 1 -->
<!--zoomable 201 -->

<svg id="main" version="1.1" xmlns="http://www.w3.org/2000/svg" xmlns:xlink="http://www.w3.org/1999/xlink" xml:space="preserve" onload="init(evt)">

<style type="text/css"><![CDATA[
.node, .edge {opacity: 0.7;}
.node.selected, .edge.selected {opacity: 1;}
.edge:hover path { stroke: red; }
.edge:hover polygon { stroke: red; fill: red; }
]]></style>

<defs>
  <circle id="rim" cx="0" cy="0" r="7"/>
  <circle id="rim2" cx="0" cy="0" r="3.5"/>
  <g id="zoomPlus">
    <use xlink:href="#rim" fill="#404040"><set attributeName="fill" to="#808080" begin="zoomplus.mouseover" end="zoomplus.mouseout"/></use>
    <path d="M-4,0h8M0,-4v8" fill="none" stroke="white" stroke-width="1.5" pointer-events="none"/>
  </g>
  <g id="zoomMin">
    <use xlink:href="#rim" fill="#404040"><set attributeName="fill" to="#808080" begin="zoomminus.mouseover" end="zoomminus.mouseout"/></use>
    <path d="M-4,0h8" fill="none" stroke="white" stroke-width="1.5" pointer-events="none"/>
  </g>
  <g id="arrowUp" transform="translate(30 24)">
    <use xlink:href="#rim"/>
    <path pointer-events="none" fill="none" stroke="white" stroke-width="1.5" d="M0,-3.0v7 M-2.5,-0.5L0,-3.0L2.5,-0.5"/>
  </g>
  <g id="arrowRight" transform="rotate(90) translate(36 -43)">
    <use xlink:href="#rim"/>
    <path pointer-events="none" fill="none" stroke="white" stroke-width="1.5" d="M0,-3.0v7 M-2.5,-0.5L0,-3.0L2.5,-0.5"/>
  </g>
  <g id="arrowDown" transform="rotate(180) translate(-30 -48)">
    <use xlink:href="#rim"/>
    <path pointer-events="none" fill="none" stroke="white" stroke-width="1.5" d="M0,-3.0v7 M-2.5,-0.5L0,-3.0L2.5,-0.5"/>
  </g>
  <g id="arrowLeft" transform="rotate(270) translate(-36 17)">
    <use xlink:href="#rim"/>
    <path pointer-events="none" fill="none" stroke="white" stroke-width="1.5" d="M0,-3.0v7 M-2.5,-0.5L0,-3.0L2.5,-0.5"/>
  </g>
  <g id="resetDef">
    <use xlink:href="#rim2" fill="#404040"><set attributeName="fill" to="#808080" begin="reset.mouseover" end="reset.mouseout"/></use>
  </g>
</defs>
<script type="application/ecmascript">
var viewWidth = 585;
var viewHeight = 201;
var sectionId = 'dynsection-8';
</script>
<script type="application/ecmascript" xlink:href="svg.min.js"/>
<svg id="graph" class="graph">
<g id="viewport">
<title>dumpInt</title>
<!-- Node1 -->
<g id="Node000001" class="node">
<title>Node1</title>
<g id="a_Node000001"><a xlink:title=" ">
<polygon fill="#999999" stroke="#666666" points="576.75,-98 525.5,-98 525.5,-78.75 576.75,-78.75 576.75,-98"/>
<text xml:space="preserve" text-anchor="middle" x="551.12" y="-84.5" font-family="Helvetica,sans-Serif" font-size="10.00">dumpInt</text>
</a>
</g>
</g>
<!-- Node2 -->
<g id="Node000002" class="node">
<title>Node2</title>
<g id="a_Node000002"><a xlink:href="ldump_8c.html#af4e6b3cad1a6436e065a811a3e6d4573" target="_top" xlink:title=" ">
<polygon fill="white" stroke="#666666" points="478.62,-193 415.38,-193 415.38,-173.75 478.62,-173.75 478.62,-193"/>
<text xml:space="preserve" text-anchor="middle" x="447" y="-179.5" font-family="Helvetica,sans-Serif" font-size="10.00">dumpCode</text>
</a>
</g>
</g>
<!-- Node1&#45;&gt;Node2 -->
<g id="edge1_Node000001_Node000002" class="edge">
<title>Node1&#45;&gt;Node2</title>
<g id="a_edge1_Node000001_Node000002"><a xlink:title=" ">
<path fill="none" stroke="#63b8ff" d="M536.62,-107.53C525.24,-122.79 507.89,-144.06 489.5,-159.37 483.1,-164.69 475.37,-169.52 468.32,-173.43"/>
<polygon fill="#63b8ff" stroke="#63b8ff" points="539.26,-109.86 542.31,-99.72 533.59,-105.75 539.26,-109.86"/>
</a>
</g>
</g>
<!-- Node3 -->
<g id="Node000003" class="node">
<title>Node3</title>
<g id="a_Node000003"><a xlink:href="ldump_8c.html#a2e1db7ac1fa976eb7e3b90ec15a576b2" target="_top" xlink:title=" ">
<polygon fill="white" stroke="#666666" points="368.5,-98 291,-98 291,-78.75 368.5,-78.75 368.5,-98"/>
<text xml:space="preserve" text-anchor="middle" x="329.75" y="-84.5" font-family="Helvetica,sans-Serif" font-size="10.00">dumpFunction</text>
</a>
</g>
</g>
<!-- Node1&#45;&gt;Node3 -->
<g id="edge12_Node000001_Node000003" class="edge">
<title>Node1&#45;&gt;Node3</title>
<g id="a_edge12_Node000001_Node000003"><a xlink:title=" ">
<path fill="none" stroke="#63b8ff" d="M529.71,-105.22C518.56,-113.33 504.09,-122.18 489.5,-126.37 453.19,-136.81 441.21,-135.27 404.5,-126.37 382.38,-121.01 359.47,-107.79 345.18,-98.46"/>
<polygon fill="#63b8ff" stroke="#63b8ff" points="531.56,-108.21 537.37,-99.35 527.3,-102.66 531.56,-108.21"/>
</a>
</g>
</g>
<!-- Node4 -->
<g id="Node000004" class="node">
<title>Node4</title>
<g id="a_Node000004"><a xlink:href="ldump_8c.html#a34567bcb1204f914b0316d5ac5532ae0" target="_top" xlink:title=" ">
<polygon fill="white" stroke="#666666" points="255,-79 186.5,-79 186.5,-59.75 255,-59.75 255,-79"/>
<text xml:space="preserve" text-anchor="middle" x="220.75" y="-65.5" font-family="Helvetica,sans-Serif" font-size="10.00">dumpProtos</text>
</a>
</g>
</g>
<!-- Node1&#45;&gt;Node4 -->
<g id="edge13_Node000001_Node000004" class="edge">
<title>Node1&#45;&gt;Node4</title>
<g id="a_edge13_Node000001_Node000004"><a xlink:title=" ">
<path fill="none" stroke="#63b8ff" d="M540.26,-68.29C530.24,-50.41 512.87,-25.44 489.5,-14.37 400.93,27.57 281.03,-33.94 237.98,-59.29"/>
<polygon fill="#63b8ff" stroke="#63b8ff" points="537.08,-69.75 544.83,-76.97 543.27,-66.49 537.08,-69.75"/>
</a>
</g>
</g>
<!-- Node8 -->
<g id="Node000008" class="node">
<title>Node8</title>
<g id="a_Node000008"><a xlink:href="ldump_8c.html#a03c1c48bb784b200a4f8e982c9235456" target="_top" xlink:title=" ">
<polygon fill="white" stroke="#666666" points="489.5,-117 404.5,-117 404.5,-97.75 489.5,-97.75 489.5,-117"/>
<text xml:space="preserve" text-anchor="middle" x="447" y="-103.5" font-family="Helvetica,sans-Serif" font-size="10.00">dumpConstants</text>
</a>
</g>
</g>
<!-- Node1&#45;&gt;Node8 -->
<g id="edge8_Node000001_Node000008" class="edge">
<title>Node1&#45;&gt;Node8</title>
<g id="a_edge8_Node000001_Node000008"><a xlink:title=" ">
<path fill="none" stroke="#63b8ff" d="M513.84,-95.12C506.07,-96.57 497.8,-98.11 489.84,-99.59"/>
<polygon fill="#63b8ff" stroke="#63b8ff" points="514.46,-98.57 523.65,-93.3 513.18,-91.68 514.46,-98.57"/>
</a>
</g>
</g>
<!-- Node9 -->
<g id="Node000009" class="node">
<title>Node9</title>
<g id="a_Node000009"><a xlink:href="ldump_8c.html#a57223a49768a740530eddd2f3ef19699" target="_top" xlink:title=" ">
<polygon fill="white" stroke="#666666" points="481.25,-80 412.75,-80 412.75,-60.75 481.25,-60.75 481.25,-80"/>
<text xml:space="preserve" text-anchor="middle" x="447" y="-66.5" font-family="Helvetica,sans-Serif" font-size="10.00">dumpDebug</text>
</a>
</g>
</g>
<!-- Node1&#45;&gt;Node9 -->
<g id="edge10_Node000001_Node000009" class="edge">
<title>Node1&#45;&gt;Node9</title>
<g id="a_edge10_Node000001_Node000009"><a xlink:title=" ">
<path fill="none" stroke="#63b8ff" d="M514.13,-82.03C503.55,-80.16 492.02,-78.13 481.59,-76.29"/>
<polygon fill="#63b8ff" stroke="#63b8ff" points="513.2,-85.42 523.65,-83.7 514.41,-78.52 513.2,-85.42"/>
</a>
</g>
</g>
<!-- Node10 -->
<g id="Node000010" class="node">
<title>Node10</title>
<g id="a_Node000010"><a xlink:href="ldump_8c.html#aa91ee935a3a398fdb0228107f579fb75" target="_top" xlink:title=" ">
<polygon fill="white" stroke="#666666" points="487.62,-43 406.38,-43 406.38,-23.75 487.62,-23.75 487.62,-43"/>
<text xml:space="preserve" text-anchor="middle" x="447" y="-29.5" font-family="Helvetica,sans-Serif" font-size="10.00">dumpUpvalues</text>
</a>
</g>
</g>
<!-- Node1&#45;&gt;Node10 -->
<g id="edge14_Node000001_Node000010" class="edge">
<title>Node1&#45;&gt;Node10</title>
<g id="a_edge14_Node000001_Node000010"><a xlink:title=" ">
<path fill="none" stroke="#63b8ff" d="M525.4,-72.21C514.58,-65.42 501.61,-57.65 489.5,-51.37 484.2,-48.62 478.39,-45.92 472.84,-43.48"/>
<polygon fill="#63b8ff" stroke="#63b8ff" points="523.43,-75.1 533.74,-77.53 527.19,-69.2 523.43,-75.1"/>
</a>
</g>
</g>
<!-- Node2&#45;&gt;Node3 -->
<g id="edge2_Node000002_Node000003" class="edge">
<title>Node2&#45;&gt;Node3</title>
<g id="a_edge2_Node000002_Node000003"><a xlink:title=" ">
<path fill="none" stroke="#63b8ff" d="M416.71,-167.63C412.5,-165.03 408.31,-162.24 404.5,-159.37 378.94,-140.13 352.86,-112.84 339.63,-98.34"/>
<polygon fill="#63b8ff" stroke="#63b8ff" points="414.68,-170.5 425.07,-172.54 418.22,-164.46 414.68,-170.5"/>
</a>
</g>
</g>
<!-- Node3&#45;&gt;Node4 -->
<g id="edge3_Node000003_Node000004" class="edge">
<title>Node3&#45;&gt;Node4</title>
<g id="a_edge3_Node000003_Node000004"><a xlink:title=" ">
<path fill="none" stroke="#63b8ff" d="M293.26,-75.67C281.02,-73 267.34,-70.6 255.26,-69.01"/>
<polygon fill="#63b8ff" stroke="#63b8ff" points="292.46,-79.08 303,-77.95 294.06,-72.26 292.46,-79.08"/>
</a>
</g>
</g>
<!-- Node5 -->
<g id="Node000005" class="node">
<title>Node5</title>
<g id="a_Node000005"><a xlink:href="ldump_8c.html#a808f6a29001ac6446f40c76014c6b6e9" target="_top" xlink:title=" ">
<polygon fill="white" stroke="#666666" points="253.5,-116 188,-116 188,-96.75 253.5,-96.75 253.5,-116"/>
<text xml:space="preserve" text-anchor="middle" x="220.75" y="-102.5" font-family="Helvetica,sans-Serif" font-size="10.00">luaU_dump</text>
</a>
</g>
</g>
<!-- Node3&#45;&gt;Node5 -->
<g id="edge5_Node000003_Node000005" class="edge">
<title>Node3&#45;&gt;Node5</title>
<g id="a_edge5_Node000003_Node000005"><a xlink:title=" ">
<path fill="none" stroke="#63b8ff" d="M279.5,-96.65C270.84,-98.11 262.03,-99.59 253.99,-100.95"/>
<polygon fill="#63b8ff" stroke="#63b8ff" points="279.95,-100.13 289.23,-95.02 278.79,-93.23 279.95,-100.13"/>
</a>
</g>
</g>
<!-- Node4&#45;&gt;Node3 -->
<g id="edge4_Node000004_Node000003" class="edge">
<title>Node4&#45;&gt;Node3</title>
<g id="a_edge4_Node000004_Node000003"><a xlink:title=" ">
<path fill="none" stroke="#63b8ff" d="M257.13,-82.05C267.9,-84.4 279.78,-86.54 290.72,-88.11"/>
<polygon fill="#63b8ff" stroke="#63b8ff" points="257.98,-78.65 247.44,-79.77 256.38,-85.47 257.98,-78.65"/>
</a>
</g>
</g>
<!-- Node6 -->
<g id="Node000006" class="node">
<title>Node6</title>
<g id="a_Node000006"><a xlink:href="lapi_8c.html#a68295f56f04fd0d5c0adfb1793a04b4c" target="_top" xlink:title=" ">
<polygon fill="white" stroke="#666666" points="150.5,-116 92.5,-116 92.5,-96.75 150.5,-96.75 150.5,-116"/>
<text xml:space="preserve" text-anchor="middle" x="121.5" y="-102.5" font-family="Helvetica,sans-Serif" font-size="10.00">lua_dump</text>
</a>
</g>
</g>
<!-- Node5&#45;&gt;Node6 -->
<g id="edge6_Node000005_Node000006" class="edge">
<title>Node5&#45;&gt;Node6</title>
<g id="a_edge6_Node000005_Node000006"><a xlink:title=" ">
<path fill="none" stroke="#63b8ff" d="M176.2,-106.37C167.65,-106.37 158.88,-106.37 150.98,-106.37"/>
<polygon fill="#63b8ff" stroke="#63b8ff" points="176.12,-109.87 186.12,-106.37 176.12,-102.87 176.12,-109.87"/>
</a>
</g>
</g>
<!-- Node7 -->
<g id="Node000007" class="node">
<title>Node7</title>
<g id="a_Node000007"><a xlink:href="lstrlib_8c.html#abc94e3a13f1b6ddb2c9b20c9fd89e87f" target="_top" xlink:title=" ">
<polygon fill="white" stroke="#666666" points="56.5,-116 0,-116 0,-96.75 56.5,-96.75 56.5,-116"/>
<text xml:space="preserve" text-anchor="middle" x="28.25" y="-102.5" font-family="Helvetica,sans-Serif" font-size="10.00">str_dump</text>
</a>
</g>
</g>
<!-- Node6&#45;&gt;Node7 -->
<g id="edge7_Node000006_Node000007" class="edge">
<title>Node6&#45;&gt;Node7</title>
<g id="a_edge7_Node000006_Node000007"><a xlink:title=" ">
<path fill="none" stroke="#63b8ff" d="M80.7,-106.37C72.7,-106.37 64.46,-106.37 56.98,-106.37"/>
<polygon fill="#63b8ff" stroke="#63b8ff" points="80.61,-109.87 90.61,-106.37 80.61,-102.87 80.61,-109.87"/>
</a>
</g>
</g>
<!-- Node8&#45;&gt;Node3 -->
<g id="edge9_Node000008_Node000003" class="edge">
<title>Node8&#45;&gt;Node3</title>
<g id="a_edge9_Node000008_Node000003"><a xlink:title=" ">
<path fill="none" stroke="#63b8ff" d="M392.72,-98.59C384.59,-97.25 376.35,-95.89 368.64,-94.62"/>
<polygon fill="#63b8ff" stroke="#63b8ff" points="392.14,-102.04 402.57,-100.21 393.28,-95.13 392.14,-102.04"/>
</a>
</g>
</g>
<!-- Node9&#45;&gt;Node3 -->
<g id="edge11_Node000009_Node000003" class="edge">
<title>Node9&#45;&gt;Node3</title>
<g id="a_edge11_Node000009_Node000003"><a xlink:title=" ">
<path fill="none" stroke="#63b8ff" d="M401.06,-77.39C390.36,-79.06 379.04,-80.83 368.69,-82.45"/>
<polygon fill="#63b8ff" stroke="#63b8ff" points="401.52,-80.86 410.86,-75.86 400.44,-73.94 401.52,-80.86"/>
</a>
</g>
</g>
<!-- Node10&#45;&gt;Node3 -->
<g id="edge15_Node000010_Node000003" class="edge">
<title>Node10&#45;&gt;Node3</title>
<g id="a_edge15_Node000010_Node000003"><a xlink:title=" ">
<path fill="none" stroke="#63b8ff" d="M411.9,-47.98C409.39,-49.11 406.9,-50.25 404.5,-51.37 385.81,-60.1 364.81,-70.72 350.02,-78.34"/>
<polygon fill="#63b8ff" stroke="#63b8ff" points="413.08,-51.28 420.81,-44.04 410.25,-44.88 413.08,-51.28"/>
</a>
</g>
</g>
</g>
</svg>

<g id="navigator" transform="translate(0 0)" fill="#404254">
  <rect fill="#f2f5e9" fill-opacity="0.5" stroke="#606060" stroke-width=".5" x="0" y="0" width="60" height="60"/>
  <use id="zoomplus" xlink:href="#zoomPlus" x="17" y="9" onmousedown="handleZoom(evt,'in')"/>
  <use id="zoomminus" xlink:href="#zoomMin" x="42" y="9" onmousedown="handleZoom(evt,'out')"/>
  <use id="reset" xlink:href="#resetDef" x="30" y="36" onmousedown="handleReset()"/>
   <use id="arrowup" xlink:href="#arrowUp" x="0" y="0" onmousedown="handlePan(0,-1)"/>
  <use id="arrowright" xlink:href="#arrowRight" x="0" y="0" onmousedown="handlePan(1,0)"/>
  <use id="arrowdown" xlink:href="#arrowDown" x="0" y="0" onmousedown="handlePan(0,1)"/>
  <use id="arrowleft" xlink:href="#arrowLeft" x="0" y="0" onmousedown="handlePan(-1,0)"/>
</g>
<svg viewBox="0 0 15 15" width="100%" height="30px" preserveAspectRatio="xMaxYMin meet">
 <g id="arrow_out" transform="scale(0.3 0.3)">
  <a xlink:href="ldump_8c_af18972a3be9ad820b0d677891405d15b_icgraph_org.svg" target="_base">
   <rect id="button" ry="5" rx="5" y="6" x="6" height="38" width="38"
        fill="#f2f5e9" fill-opacity="0.5" stroke="#606060" stroke-width="1.0"/>
   <path id="arrow"
     d="M 11.500037,31.436501 C 11.940474,20.09759 22.043105,11.32322 32.158766,21.979434 L 37.068811,17.246167 C 37.068811,17.246167 37.088388,32 37.088388,32 L 22.160133,31.978069 C 22.160133,31.978069 26.997745,27.140456 26.997745,27.140456 C 18.528582,18.264221 13.291696,25.230495 11.500037,31.436501 z"
     style="fill:#404040;"/>
  </a>
 </g>
</svg>

<style type='text/css'>
<![CDATA[
[data-mouse-over-selected='false'] { opacity: 0.7; }
[data-mouse-over-selected='true']  { opacity: 1.0; }
]]>
</style>
<script type="application/ecmascript"><![CDATA[
document.addEventListener('DOMContentLoaded', (event) => {
  highlightEdges();
  highlightAdjacentNodes();
});
]]></script>
</svg>
