<?xml version="1.0" encoding="UTF-8" standalone="no"?>
<!DOCTYPE svg PUBLIC "-//W3C//DTD SVG 1.1//EN"
 "http://www.w3.org/Graphics/SVG/1.1/DTD/svg11.dtd">
<!-- Generated by graphviz version 13.1.0 (20250701.0955)
 -->
<!-- Title: dumpSize Pages: 1 -->
<svg width="695pt" height="200pt"
 viewBox="0.00 0.00 695.00 200.00" xmlns="http://www.w3.org/2000/svg" xmlns:xlink="http://www.w3.org/1999/xlink">
<g id="graph0" class="graph" transform="scale(1 1) rotate(0) translate(4 195.54)">
<title>dumpSize</title>
<!-- Node1 -->
<g id="Node000001" class="node">
<title>Node1</title>
<g id="a_Node000001"><a xlink:title=" ">
<polygon fill="#999999" stroke="#666666" points="686.5,-75.8 627,-75.8 627,-56.55 686.5,-56.55 686.5,-75.8"/>
<text xml:space="preserve" text-anchor="middle" x="656.75" y="-62.3" font-family="Helvetica,sans-Serif" font-size="10.00">dumpSize</text>
</a>
</g>
</g>
<!-- Node2 -->
<g id="Node000002" class="node">
<title>Node2</title>
<g id="a_Node000002"><a xlink:href="ldump_8c.html#af18972a3be9ad820b0d677891405d15b" target="_top" xlink:title=" ">
<polygon fill="white" stroke="#666666" points="583.88,-112.8 532.62,-112.8 532.62,-93.55 583.88,-93.55 583.88,-112.8"/>
<text xml:space="preserve" text-anchor="middle" x="558.25" y="-99.3" font-family="Helvetica,sans-Serif" font-size="10.00">dumpInt</text>
</a>
</g>
</g>
<!-- Node1&#45;&gt;Node2 -->
<g id="edge1_Node000001_Node000002" class="edge">
<title>Node1&#45;&gt;Node2</title>
<g id="a_edge1_Node000001_Node000002"><a xlink:title=" ">
<path fill="none" stroke="#63b8ff" d="M618.7,-80.38C607.18,-84.8 594.75,-89.56 584.26,-93.59"/>
<polygon fill="#63b8ff" stroke="#63b8ff" points="619.88,-83.68 627.97,-76.83 617.38,-77.14 619.88,-83.68"/>
</a>
</g>
</g>
<!-- Node12 -->
<g id="Node000012" class="node">
<title>Node12</title>
<g id="a_Node000012"><a xlink:href="ldump_8c.html#a62dae3e1e70f0ded796f53a1571a3352" target="_top" xlink:title=" ">
<polygon fill="white" stroke="#666666" points="591,-57.8 525.5,-57.8 525.5,-38.55 591,-38.55 591,-57.8"/>
<text xml:space="preserve" text-anchor="middle" x="558.25" y="-44.3" font-family="Helvetica,sans-Serif" font-size="10.00">dumpString</text>
</a>
</g>
</g>
<!-- Node1&#45;&gt;Node12 -->
<g id="edge17_Node000001_Node000012" class="edge">
<title>Node1&#45;&gt;Node12</title>
<g id="a_edge17_Node000001_Node000012"><a xlink:title=" ">
<path fill="none" stroke="#63b8ff" d="M615.48,-58.66C607.45,-57.17 599.11,-55.61 591.4,-54.17"/>
<polygon fill="#63b8ff" stroke="#63b8ff" points="614.57,-62.06 625.05,-60.45 615.86,-55.17 614.57,-62.06"/>
</a>
</g>
</g>
<!-- Node3 -->
<g id="Node000003" class="node">
<title>Node3</title>
<g id="a_Node000003"><a xlink:href="ldump_8c.html#af4e6b3cad1a6436e065a811a3e6d4573" target="_top" xlink:title=" ">
<polygon fill="white" stroke="#666666" points="478.62,-149.8 415.38,-149.8 415.38,-130.55 478.62,-130.55 478.62,-149.8"/>
<text xml:space="preserve" text-anchor="middle" x="447" y="-136.3" font-family="Helvetica,sans-Serif" font-size="10.00">dumpCode</text>
</a>
</g>
</g>
<!-- Node2&#45;&gt;Node3 -->
<g id="edge2_Node000002_Node000003" class="edge">
<title>Node2&#45;&gt;Node3</title>
<g id="a_edge2_Node000002_Node000003"><a xlink:title=" ">
<path fill="none" stroke="#63b8ff" d="M521.32,-115.34C507.15,-120.14 491.08,-125.59 477.6,-130.15"/>
<polygon fill="#63b8ff" stroke="#63b8ff" points="522.4,-118.67 530.75,-112.15 520.16,-112.04 522.4,-118.67"/>
</a>
</g>
</g>
<!-- Node4 -->
<g id="Node000004" class="node">
<title>Node4</title>
<g id="a_Node000004"><a xlink:href="ldump_8c.html#a2e1db7ac1fa976eb7e3b90ec15a576b2" target="_top" xlink:title=" ">
<polygon fill="white" stroke="#666666" points="368.5,-112.8 291,-112.8 291,-93.55 368.5,-93.55 368.5,-112.8"/>
<text xml:space="preserve" text-anchor="middle" x="329.75" y="-99.3" font-family="Helvetica,sans-Serif" font-size="10.00">dumpFunction</text>
</a>
</g>
</g>
<!-- Node2&#45;&gt;Node4 -->
<g id="edge13_Node000002_Node000004" class="edge">
<title>Node2&#45;&gt;Node4</title>
<g id="a_edge13_Node000002_Node000004"><a xlink:title=" ">
<path fill="none" stroke="#63b8ff" d="M541.73,-121.51C529.19,-134.8 510.27,-151.7 489.5,-159.18 453.95,-171.97 440.3,-171.23 404.5,-159.18 377.38,-150.05 352.32,-126.54 339.56,-113.06"/>
<polygon fill="#63b8ff" stroke="#63b8ff" points="544.24,-123.95 548.32,-114.17 539.04,-119.27 544.24,-123.95"/>
</a>
</g>
</g>
<!-- Node5 -->
<g id="Node000005" class="node">
<title>Node5</title>
<g id="a_Node000005"><a xlink:href="ldump_8c.html#a34567bcb1204f914b0316d5ac5532ae0" target="_top" xlink:title=" ">
<polygon fill="white" stroke="#666666" points="255,-131.8 186.5,-131.8 186.5,-112.55 255,-112.55 255,-131.8"/>
<text xml:space="preserve" text-anchor="middle" x="220.75" y="-118.3" font-family="Helvetica,sans-Serif" font-size="10.00">dumpProtos</text>
</a>
</g>
</g>
<!-- Node2&#45;&gt;Node5 -->
<g id="edge14_Node000002_Node000005" class="edge">
<title>Node2&#45;&gt;Node5</title>
<g id="a_edge14_Node000002_Node000005"><a xlink:title=" ">
<path fill="none" stroke="#63b8ff" d="M546.2,-122.79C534.7,-140.99 514.83,-166.92 489.5,-178.18 400.1,-217.89 281.2,-157.43 238.17,-132.3"/>
<polygon fill="#63b8ff" stroke="#63b8ff" points="549.07,-124.81 551.21,-114.43 543.07,-121.21 549.07,-124.81"/>
</a>
</g>
</g>
<!-- Node9 -->
<g id="Node000009" class="node">
<title>Node9</title>
<g id="a_Node000009"><a xlink:href="ldump_8c.html#a03c1c48bb784b200a4f8e982c9235456" target="_top" xlink:title=" ">
<polygon fill="white" stroke="#666666" points="489.5,-38.8 404.5,-38.8 404.5,-19.55 489.5,-19.55 489.5,-38.8"/>
<text xml:space="preserve" text-anchor="middle" x="447" y="-25.3" font-family="Helvetica,sans-Serif" font-size="10.00">dumpConstants</text>
</a>
</g>
</g>
<!-- Node2&#45;&gt;Node9 -->
<g id="edge9_Node000002_Node000009" class="edge">
<title>Node2&#45;&gt;Node9</title>
<g id="a_edge9_Node000002_Node000009"><a xlink:title=" ">
<path fill="none" stroke="#63b8ff" d="M538.82,-85.5C525.77,-73.62 507.47,-58.19 489.5,-47.18 484.68,-44.22 479.29,-41.5 474.03,-39.13"/>
<polygon fill="#63b8ff" stroke="#63b8ff" points="536.12,-87.77 545.83,-92.02 540.89,-82.65 536.12,-87.77"/>
</a>
</g>
</g>
<!-- Node10 -->
<g id="Node000010" class="node">
<title>Node10</title>
<g id="a_Node000010"><a xlink:href="ldump_8c.html#a57223a49768a740530eddd2f3ef19699" target="_top" xlink:title=" ">
<polygon fill="white" stroke="#666666" points="481.25,-75.8 412.75,-75.8 412.75,-56.55 481.25,-56.55 481.25,-75.8"/>
<text xml:space="preserve" text-anchor="middle" x="447" y="-62.3" font-family="Helvetica,sans-Serif" font-size="10.00">dumpDebug</text>
</a>
</g>
</g>
<!-- Node2&#45;&gt;Node10 -->
<g id="edge11_Node000002_Node000010" class="edge">
<title>Node2&#45;&gt;Node10</title>
<g id="a_edge11_Node000002_Node000010"><a xlink:title=" ">
<path fill="none" stroke="#63b8ff" d="M521.32,-91.01C507.15,-86.21 491.08,-80.77 477.6,-76.2"/>
<polygon fill="#63b8ff" stroke="#63b8ff" points="520.16,-94.31 530.75,-94.2 522.4,-87.68 520.16,-94.31"/>
</a>
</g>
</g>
<!-- Node11 -->
<g id="Node000011" class="node">
<title>Node11</title>
<g id="a_Node000011"><a xlink:href="ldump_8c.html#aa91ee935a3a398fdb0228107f579fb75" target="_top" xlink:title=" ">
<polygon fill="white" stroke="#666666" points="487.62,-112.8 406.38,-112.8 406.38,-93.55 487.62,-93.55 487.62,-112.8"/>
<text xml:space="preserve" text-anchor="middle" x="447" y="-99.3" font-family="Helvetica,sans-Serif" font-size="10.00">dumpUpvalues</text>
</a>
</g>
</g>
<!-- Node2&#45;&gt;Node11 -->
<g id="edge15_Node000002_Node000011" class="edge">
<title>Node2&#45;&gt;Node11</title>
<g id="a_edge15_Node000002_Node000011"><a xlink:title=" ">
<path fill="none" stroke="#63b8ff" d="M520.81,-103.18C510.26,-103.18 498.69,-103.18 487.93,-103.18"/>
<polygon fill="#63b8ff" stroke="#63b8ff" points="520.67,-106.68 530.67,-103.18 520.67,-99.68 520.67,-106.68"/>
</a>
</g>
</g>
<!-- Node3&#45;&gt;Node4 -->
<g id="edge3_Node000003_Node000004" class="edge">
<title>Node3&#45;&gt;Node4</title>
<g id="a_edge3_Node000003_Node000004"><a xlink:title=" ">
<path fill="none" stroke="#63b8ff" d="M404.31,-126.79C390.39,-122.32 375.12,-117.42 362.12,-113.25"/>
<polygon fill="#63b8ff" stroke="#63b8ff" points="403.08,-130.07 413.67,-129.8 405.22,-123.41 403.08,-130.07"/>
</a>
</g>
</g>
<!-- Node4&#45;&gt;Node5 -->
<g id="edge4_Node000004_Node000005" class="edge">
<title>Node4&#45;&gt;Node5</title>
<g id="a_edge4_Node000004_Node000005"><a xlink:title=" ">
<path fill="none" stroke="#63b8ff" d="M279.67,-105.16C267.97,-107.13 255.98,-109.58 245.97,-112.12"/>
<polygon fill="#63b8ff" stroke="#63b8ff" points="279.89,-108.67 289.23,-103.67 278.81,-101.75 279.89,-108.67"/>
</a>
</g>
</g>
<!-- Node6 -->
<g id="Node000006" class="node">
<title>Node6</title>
<g id="a_Node000006"><a xlink:href="ldump_8c.html#a808f6a29001ac6446f40c76014c6b6e9" target="_top" xlink:title=" ">
<polygon fill="white" stroke="#666666" points="253.5,-94.8 188,-94.8 188,-75.55 253.5,-75.55 253.5,-94.8"/>
<text xml:space="preserve" text-anchor="middle" x="220.75" y="-81.3" font-family="Helvetica,sans-Serif" font-size="10.00">luaU_dump</text>
</a>
</g>
</g>
<!-- Node4&#45;&gt;Node6 -->
<g id="edge6_Node000004_Node000006" class="edge">
<title>Node4&#45;&gt;Node6</title>
<g id="a_edge6_Node000004_Node000006"><a xlink:title=" ">
<path fill="none" stroke="#63b8ff" d="M279.5,-94.89C270.84,-93.43 262.03,-91.95 253.99,-90.6"/>
<polygon fill="#63b8ff" stroke="#63b8ff" points="278.79,-98.32 289.23,-96.53 279.95,-91.42 278.79,-98.32"/>
</a>
</g>
</g>
<!-- Node5&#45;&gt;Node4 -->
<g id="edge5_Node000005_Node000004" class="edge">
<title>Node5&#45;&gt;Node4</title>
<g id="a_edge5_Node000005_Node000004"><a xlink:title=" ">
<path fill="none" stroke="#63b8ff" d="M266.44,-120.91C279.47,-118.84 293.22,-116.1 304.47,-113.25"/>
<polygon fill="#63b8ff" stroke="#63b8ff" points="266.15,-117.41 256.76,-122.32 267.16,-124.34 266.15,-117.41"/>
</a>
</g>
</g>
<!-- Node7 -->
<g id="Node000007" class="node">
<title>Node7</title>
<g id="a_Node000007"><a xlink:href="lapi_8c.html#a68295f56f04fd0d5c0adfb1793a04b4c" target="_top" xlink:title=" ">
<polygon fill="white" stroke="#666666" points="150.5,-94.8 92.5,-94.8 92.5,-75.55 150.5,-75.55 150.5,-94.8"/>
<text xml:space="preserve" text-anchor="middle" x="121.5" y="-81.3" font-family="Helvetica,sans-Serif" font-size="10.00">lua_dump</text>
</a>
</g>
</g>
<!-- Node6&#45;&gt;Node7 -->
<g id="edge7_Node000006_Node000007" class="edge">
<title>Node6&#45;&gt;Node7</title>
<g id="a_edge7_Node000006_Node000007"><a xlink:title=" ">
<path fill="none" stroke="#63b8ff" d="M176.2,-85.18C167.65,-85.18 158.88,-85.18 150.98,-85.18"/>
<polygon fill="#63b8ff" stroke="#63b8ff" points="176.12,-88.68 186.12,-85.18 176.12,-81.68 176.12,-88.68"/>
</a>
</g>
</g>
<!-- Node8 -->
<g id="Node000008" class="node">
<title>Node8</title>
<g id="a_Node000008"><a xlink:href="lstrlib_8c.html#abc94e3a13f1b6ddb2c9b20c9fd89e87f" target="_top" xlink:title=" ">
<polygon fill="white" stroke="#666666" points="56.5,-94.8 0,-94.8 0,-75.55 56.5,-75.55 56.5,-94.8"/>
<text xml:space="preserve" text-anchor="middle" x="28.25" y="-81.3" font-family="Helvetica,sans-Serif" font-size="10.00">str_dump</text>
</a>
</g>
</g>
<!-- Node7&#45;&gt;Node8 -->
<g id="edge8_Node000007_Node000008" class="edge">
<title>Node7&#45;&gt;Node8</title>
<g id="a_edge8_Node000007_Node000008"><a xlink:title=" ">
<path fill="none" stroke="#63b8ff" d="M80.7,-85.18C72.7,-85.18 64.46,-85.18 56.98,-85.18"/>
<polygon fill="#63b8ff" stroke="#63b8ff" points="80.61,-88.68 90.61,-85.18 80.61,-81.68 80.61,-88.68"/>
</a>
</g>
</g>
<!-- Node9&#45;&gt;Node4 -->
<g id="edge10_Node000009_Node000004" class="edge">
<title>Node9&#45;&gt;Node4</title>
<g id="a_edge10_Node000009_Node000004"><a xlink:title=" ">
<path fill="none" stroke="#63b8ff" d="M410.18,-44.05C408.24,-45.06 406.33,-46.11 404.5,-47.18 380.91,-60.98 356.13,-81.14 342.14,-93.14"/>
<polygon fill="#63b8ff" stroke="#63b8ff" points="411.22,-47.43 418.7,-39.94 408.17,-41.13 411.22,-47.43"/>
</a>
</g>
</g>
<!-- Node10&#45;&gt;Node4 -->
<g id="edge12_Node000010_Node000004" class="edge">
<title>Node10&#45;&gt;Node4</title>
<g id="a_edge12_Node000010_Node000004"><a xlink:title=" ">
<path fill="none" stroke="#63b8ff" d="M403.81,-79.72C390.06,-84.14 375.03,-88.96 362.2,-93.08"/>
<polygon fill="#63b8ff" stroke="#63b8ff" points="404.61,-83.14 413.07,-76.75 402.48,-76.47 404.61,-83.14"/>
</a>
</g>
</g>
<!-- Node11&#45;&gt;Node4 -->
<g id="edge16_Node000011_Node000004" class="edge">
<title>Node11&#45;&gt;Node4</title>
<g id="a_edge16_Node000011_Node000004"><a xlink:title=" ">
<path fill="none" stroke="#63b8ff" d="M394.71,-103.18C385.97,-103.18 377.04,-103.18 368.73,-103.18"/>
<polygon fill="#63b8ff" stroke="#63b8ff" points="394.5,-106.68 404.5,-103.18 394.5,-99.68 394.5,-106.68"/>
</a>
</g>
</g>
<!-- Node12&#45;&gt;Node4 -->
<g id="edge20_Node000012_Node000004" class="edge">
<title>Node12&#45;&gt;Node4</title>
<g id="a_edge20_Node000012_Node000004"><a xlink:title=" ">
<path fill="none" stroke="#63b8ff" d="M534.9,-31.79C522.26,-23.55 505.77,-14.43 489.5,-10.18 452.95,-0.63 438.51,6.26 404.5,-10.18 368.14,-27.75 344.22,-72.93 335.01,-93.14"/>
<polygon fill="#63b8ff" stroke="#63b8ff" points="532.65,-34.49 542.88,-37.25 536.6,-28.71 532.65,-34.49"/>
</a>
</g>
</g>
<!-- Node12&#45;&gt;Node9 -->
<g id="edge18_Node000012_Node000009" class="edge">
<title>Node12&#45;&gt;Node9</title>
<g id="a_edge18_Node000012_Node000009"><a xlink:title=" ">
<path fill="none" stroke="#63b8ff" d="M513.76,-40.61C505.83,-39.23 497.57,-37.8 489.69,-36.43"/>
<polygon fill="#63b8ff" stroke="#63b8ff" points="513.12,-44.05 523.57,-42.32 514.32,-37.16 513.12,-44.05"/>
</a>
</g>
</g>
<!-- Node12&#45;&gt;Node10 -->
<g id="edge19_Node000012_Node000010" class="edge">
<title>Node12&#45;&gt;Node10</title>
<g id="a_edge19_Node000012_Node000010"><a xlink:title=" ">
<path fill="none" stroke="#63b8ff" d="M513.73,-55.35C502.99,-57.12 491.65,-58.98 481.47,-60.66"/>
<polygon fill="#63b8ff" stroke="#63b8ff" points="514.27,-58.8 523.57,-53.73 513.13,-51.9 514.27,-58.8"/>
</a>
</g>
</g>
</g>
</svg>
