<?xml version="1.0" encoding="UTF-8" standalone="no"?>
<!DOCTYPE svg PUBLIC "-//W3C//DTD SVG 1.1//EN"
 "http://www.w3.org/Graphics/SVG/1.1/DTD/svg11.dtd">
<!-- Generated by graphviz version 13.1.0 (20250701.0955)
 -->
<!-- Title: lua&#45;5.4.7/ldump.c Pages: 1 -->
<svg width="534pt" height="414pt"
 viewBox="0.00 0.00 534.00 414.00" xmlns="http://www.w3.org/2000/svg" xmlns:xlink="http://www.w3.org/1999/xlink">
<g id="graph0" class="graph" transform="scale(1 1) rotate(0) translate(4 410)">
<title>lua&#45;5.4.7/ldump.c</title>
<!-- Node1 -->
<g id="Node000001" class="node">
<title>Node1</title>
<g id="a_Node000001"><a xlink:title=" ">
<polygon fill="#999999" stroke="#666666" points="237.75,-406 146.75,-406 146.75,-386.75 237.75,-386.75 237.75,-406"/>
<text xml:space="preserve" text-anchor="middle" x="192.25" y="-392.5" font-family="Helvetica,sans-Serif" font-size="10.00">lua&#45;5.4.7/ldump.c</text>
</a>
</g>
</g>
<!-- Node2 -->
<g id="Node000002" class="node">
<title>Node2</title>
<g id="a_Node000002"><a xlink:href="lprefix_8h.html" target="_top" xlink:title=" ">
<polygon fill="white" stroke="#666666" points="50.5,-350.75 0,-350.75 0,-331.5 50.5,-331.5 50.5,-350.75"/>
<text xml:space="preserve" text-anchor="middle" x="25.25" y="-337.25" font-family="Helvetica,sans-Serif" font-size="10.00">lprefix.h</text>
</a>
</g>
</g>
<!-- Node1&#45;&gt;Node2 -->
<g id="edge1_Node000001_Node000002" class="edge">
<title>Node1&#45;&gt;Node2</title>
<g id="a_edge1_Node000001_Node000002"><a xlink:title=" ">
<path fill="none" stroke="#63b8ff" d="M163.92,-386.34C135.74,-377.36 92.39,-363.53 61.67,-353.74"/>
<polygon fill="#63b8ff" stroke="#63b8ff" points="63,-350.49 52.41,-350.79 60.88,-357.16 63,-350.49"/>
</a>
</g>
</g>
<!-- Node3 -->
<g id="Node000003" class="node">
<title>Node3</title>
<g id="a_Node000003"><a xlink:title=" ">
<polygon fill="#e0e0e0" stroke="#999999" points="142,-19.25 94.5,-19.25 94.5,0 142,0 142,-19.25"/>
<text xml:space="preserve" text-anchor="middle" x="118.25" y="-5.75" font-family="Helvetica,sans-Serif" font-size="10.00">limits.h</text>
</a>
</g>
</g>
<!-- Node1&#45;&gt;Node3 -->
<g id="edge2_Node000001_Node000003" class="edge">
<title>Node1&#45;&gt;Node3</title>
<g id="a_edge2_Node000001_Node000003"><a xlink:title=" ">
<path fill="none" stroke="#63b8ff" d="M170,-386.26C136.82,-371.02 78.25,-337.01 78.25,-286.88 78.25,-286.88 78.25,-286.88 78.25,-119.12 78.25,-85.94 94.93,-50.38 106.74,-29.34"/>
<polygon fill="#63b8ff" stroke="#63b8ff" points="109.71,-31.2 111.75,-20.81 103.67,-27.66 109.71,-31.2"/>
</a>
</g>
</g>
<!-- Node4 -->
<g id="Node000004" class="node">
<title>Node4</title>
<g id="a_Node000004"><a xlink:title=" ">
<polygon fill="#e0e0e0" stroke="#999999" points="363.88,-19.25 312.62,-19.25 312.62,0 363.88,0 363.88,-19.25"/>
<text xml:space="preserve" text-anchor="middle" x="338.25" y="-5.75" font-family="Helvetica,sans-Serif" font-size="10.00">stddef.h</text>
</a>
</g>
</g>
<!-- Node1&#45;&gt;Node4 -->
<g id="edge3_Node000001_Node000004" class="edge">
<title>Node1&#45;&gt;Node4</title>
<g id="a_edge3_Node000001_Node000004"><a xlink:title=" ">
<path fill="none" stroke="#63b8ff" d="M238.22,-393.03C288.79,-389.1 371.58,-378.62 437.25,-350.75 482.07,-331.73 526.25,-335.56 526.25,-286.88 526.25,-286.88 526.25,-286.88 526.25,-119.12 526.25,-50.14 430.11,-24.33 375.33,-15.23"/>
<polygon fill="#63b8ff" stroke="#63b8ff" points="375.91,-11.78 365.49,-13.71 374.84,-18.69 375.91,-11.78"/>
</a>
</g>
</g>
<!-- Node5 -->
<g id="Node000005" class="node">
<title>Node5</title>
<g id="a_Node000005"><a xlink:href="lua_8h.html" target="_top" xlink:title=" ">
<polygon fill="white" stroke="#666666" points="347.75,-129.75 310.75,-129.75 310.75,-110.5 347.75,-110.5 347.75,-129.75"/>
<text xml:space="preserve" text-anchor="middle" x="329.25" y="-116.25" font-family="Helvetica,sans-Serif" font-size="10.00">lua.h</text>
</a>
</g>
</g>
<!-- Node1&#45;&gt;Node5 -->
<g id="edge4_Node000001_Node000005" class="edge">
<title>Node1&#45;&gt;Node5</title>
<g id="a_edge4_Node000001_Node000005"><a xlink:title=" ">
<path fill="none" stroke="#63b8ff" d="M238.18,-388.33C321.32,-374.27 488.25,-339.49 488.25,-286.88 488.25,-286.88 488.25,-286.88 488.25,-229.62 488.25,-167.83 405.3,-138.7 359.23,-127.28"/>
<polygon fill="#63b8ff" stroke="#63b8ff" points="360.12,-123.9 349.59,-125.04 358.53,-130.72 360.12,-123.9"/>
</a>
</g>
</g>
<!-- Node8 -->
<g id="Node000008" class="node">
<title>Node8</title>
<g id="a_Node000008"><a xlink:href="lobject_8h.html" target="_top" xlink:title=" ">
<polygon fill="white" stroke="#666666" points="236.62,-240.25 183.88,-240.25 183.88,-221 236.62,-221 236.62,-240.25"/>
<text xml:space="preserve" text-anchor="middle" x="210.25" y="-226.75" font-family="Helvetica,sans-Serif" font-size="10.00">lobject.h</text>
</a>
</g>
</g>
<!-- Node1&#45;&gt;Node8 -->
<g id="edge10_Node000001_Node000008" class="edge">
<title>Node1&#45;&gt;Node8</title>
<g id="a_edge10_Node000001_Node000008"><a xlink:title=" ">
<path fill="none" stroke="#63b8ff" d="M180.22,-386.26C170.6,-378.14 157.83,-365.33 152.25,-350.75 149.19,-342.76 150.03,-339.76 152.25,-331.5 160.69,-300.15 181.65,-268.51 195.92,-249.48"/>
<polygon fill="#63b8ff" stroke="#63b8ff" points="198.58,-251.77 201.93,-241.72 193.04,-247.48 198.58,-251.77"/>
</a>
</g>
</g>
<!-- Node10 -->
<g id="Node000010" class="node">
<title>Node10</title>
<g id="a_Node000010"><a xlink:href="lstate_8h.html" target="_top" xlink:title=" ">
<polygon fill="white" stroke="#666666" points="334.38,-350.75 286.12,-350.75 286.12,-331.5 334.38,-331.5 334.38,-350.75"/>
<text xml:space="preserve" text-anchor="middle" x="310.25" y="-337.25" font-family="Helvetica,sans-Serif" font-size="10.00">lstate.h</text>
</a>
</g>
</g>
<!-- Node1&#45;&gt;Node10 -->
<g id="edge17_Node000001_Node000010" class="edge">
<title>Node1&#45;&gt;Node10</title>
<g id="a_edge17_Node000001_Node000010"><a xlink:title=" ">
<path fill="none" stroke="#63b8ff" d="M212.27,-386.34C230.74,-378 258.46,-365.5 279.7,-355.91"/>
<polygon fill="#63b8ff" stroke="#63b8ff" points="281.08,-359.13 288.76,-351.83 278.2,-352.75 281.08,-359.13"/>
</a>
</g>
</g>
<!-- Node15 -->
<g id="Node000015" class="node">
<title>Node15</title>
<g id="a_Node000015"><a xlink:href="lundump_8h.html" target="_top" xlink:title=" ">
<polygon fill="white" stroke="#666666" points="222.75,-350.75 161.75,-350.75 161.75,-331.5 222.75,-331.5 222.75,-350.75"/>
<text xml:space="preserve" text-anchor="middle" x="192.25" y="-337.25" font-family="Helvetica,sans-Serif" font-size="10.00">lundump.h</text>
</a>
</g>
</g>
<!-- Node1&#45;&gt;Node15 -->
<g id="edge29_Node000001_Node000015" class="edge">
<title>Node1&#45;&gt;Node15</title>
<g id="a_edge29_Node000001_Node000015"><a xlink:title=" ">
<path fill="none" stroke="#63b8ff" d="M192.25,-386.58C192.25,-380.07 192.25,-370.92 192.25,-362.62"/>
<polygon fill="#63b8ff" stroke="#63b8ff" points="195.75,-362.62 192.25,-352.62 188.75,-362.62 195.75,-362.62"/>
</a>
</g>
</g>
<!-- Node5&#45;&gt;Node4 -->
<g id="edge6_Node000005_Node000004" class="edge">
<title>Node5&#45;&gt;Node4</title>
<g id="a_edge6_Node000005_Node000004"><a xlink:title=" ">
<path fill="none" stroke="#63b8ff" d="M329.99,-110.25C331.42,-93 334.6,-54.58 336.58,-30.81"/>
<polygon fill="#63b8ff" stroke="#63b8ff" points="340.04,-31.39 337.38,-21.14 333.06,-30.81 340.04,-31.39"/>
</a>
</g>
</g>
<!-- Node6 -->
<g id="Node000006" class="node">
<title>Node6</title>
<g id="a_Node000006"><a xlink:title=" ">
<polygon fill="#e0e0e0" stroke="#999999" points="235.88,-74.5 184.62,-74.5 184.62,-55.25 235.88,-55.25 235.88,-74.5"/>
<text xml:space="preserve" text-anchor="middle" x="210.25" y="-61" font-family="Helvetica,sans-Serif" font-size="10.00">stdarg.h</text>
</a>
</g>
</g>
<!-- Node5&#45;&gt;Node6 -->
<g id="edge5_Node000005_Node000006" class="edge">
<title>Node5&#45;&gt;Node6</title>
<g id="a_edge5_Node000005_Node000006"><a xlink:title=" ">
<path fill="none" stroke="#63b8ff" d="M310.39,-110.69C291.78,-102.36 263,-89.48 241.06,-79.66"/>
<polygon fill="#63b8ff" stroke="#63b8ff" points="242.55,-76.49 231.99,-75.6 239.69,-82.88 242.55,-76.49"/>
</a>
</g>
</g>
<!-- Node7 -->
<g id="Node000007" class="node">
<title>Node7</title>
<g id="a_Node000007"><a xlink:href="luaconf_8h.html" target="_top" xlink:title=" ">
<polygon fill="white" stroke="#666666" points="310.12,-74.5 254.38,-74.5 254.38,-55.25 310.12,-55.25 310.12,-74.5"/>
<text xml:space="preserve" text-anchor="middle" x="282.25" y="-61" font-family="Helvetica,sans-Serif" font-size="10.00">luaconf.h</text>
</a>
</g>
</g>
<!-- Node5&#45;&gt;Node7 -->
<g id="edge7_Node000005_Node000007" class="edge">
<title>Node5&#45;&gt;Node7</title>
<g id="a_edge7_Node000005_Node000007"><a xlink:title=" ">
<path fill="none" stroke="#63b8ff" d="M321.49,-110.33C315.06,-103.05 305.74,-92.48 297.79,-83.48"/>
<polygon fill="#63b8ff" stroke="#63b8ff" points="300.42,-81.18 291.18,-75.99 295.17,-85.81 300.42,-81.18"/>
</a>
</g>
</g>
<!-- Node7&#45;&gt;Node3 -->
<g id="edge8_Node000007_Node000003" class="edge">
<title>Node7&#45;&gt;Node3</title>
<g id="a_edge8_Node000007_Node000003"><a xlink:title=" ">
<path fill="none" stroke="#63b8ff" d="M254.43,-54.84C226.55,-45.79 183.56,-31.83 153.35,-22.02"/>
<polygon fill="#63b8ff" stroke="#63b8ff" points="154.49,-18.71 143.9,-18.95 152.33,-25.37 154.49,-18.71"/>
</a>
</g>
</g>
<!-- Node7&#45;&gt;Node4 -->
<g id="edge9_Node000007_Node000004" class="edge">
<title>Node7&#45;&gt;Node4</title>
<g id="a_edge9_Node000007_Node000004"><a xlink:title=" ">
<path fill="none" stroke="#63b8ff" d="M291.75,-54.84C299.68,-47.3 311.2,-36.35 320.79,-27.23"/>
<polygon fill="#63b8ff" stroke="#63b8ff" points="322.96,-29.99 327.79,-20.57 318.14,-24.92 322.96,-29.99"/>
</a>
</g>
</g>
<!-- Node8&#45;&gt;Node5 -->
<g id="edge16_Node000008_Node000005" class="edge">
<title>Node8&#45;&gt;Node5</title>
<g id="a_edge16_Node000008_Node000005"><a xlink:title=" ">
<path fill="none" stroke="#63b8ff" d="M219.99,-220.75C239.86,-202.63 285.37,-161.13 310.94,-137.82"/>
<polygon fill="#63b8ff" stroke="#63b8ff" points="313.23,-140.47 318.26,-131.15 308.51,-135.3 313.23,-140.47"/>
</a>
</g>
</g>
<!-- Node8&#45;&gt;Node6 -->
<g id="edge11_Node000008_Node000006" class="edge">
<title>Node8&#45;&gt;Node6</title>
<g id="a_edge11_Node000008_Node000006"><a xlink:title=" ">
<path fill="none" stroke="#63b8ff" d="M210.25,-220.82C210.25,-195.5 210.25,-122 210.25,-86.09"/>
<polygon fill="#63b8ff" stroke="#63b8ff" points="213.75,-86.24 210.25,-76.24 206.75,-86.24 213.75,-86.24"/>
</a>
</g>
</g>
<!-- Node9 -->
<g id="Node000009" class="node">
<title>Node9</title>
<g id="a_Node000009"><a xlink:href="llimits_8h.html" target="_top" xlink:title=" ">
<polygon fill="white" stroke="#666666" points="181.12,-185 131.38,-185 131.38,-165.75 181.12,-165.75 181.12,-185"/>
<text xml:space="preserve" text-anchor="middle" x="156.25" y="-171.5" font-family="Helvetica,sans-Serif" font-size="10.00">llimits.h</text>
</a>
</g>
</g>
<!-- Node8&#45;&gt;Node9 -->
<g id="edge12_Node000008_Node000009" class="edge">
<title>Node8&#45;&gt;Node9</title>
<g id="a_edge12_Node000008_Node000009"><a xlink:title=" ">
<path fill="none" stroke="#63b8ff" d="M201.33,-220.83C193.8,-213.4 182.78,-202.54 173.52,-193.41"/>
<polygon fill="#63b8ff" stroke="#63b8ff" points="176.02,-190.95 166.44,-186.42 171.1,-195.94 176.02,-190.95"/>
</a>
</g>
</g>
<!-- Node9&#45;&gt;Node3 -->
<g id="edge13_Node000009_Node000003" class="edge">
<title>Node9&#45;&gt;Node3</title>
<g id="a_edge13_Node000009_Node000003"><a xlink:title=" ">
<path fill="none" stroke="#63b8ff" d="M153.18,-165.56C150.14,-156.62 145.48,-142.33 142.25,-129.75 133.4,-95.28 125.79,-54.52 121.63,-30.72"/>
<polygon fill="#63b8ff" stroke="#63b8ff" points="125.13,-30.42 119.99,-21.16 118.23,-31.6 125.13,-30.42"/>
</a>
</g>
</g>
<!-- Node9&#45;&gt;Node4 -->
<g id="edge14_Node000009_Node000004" class="edge">
<title>Node9&#45;&gt;Node4</title>
<g id="a_edge14_Node000009_Node000004"><a xlink:title=" ">
<path fill="none" stroke="#63b8ff" d="M154.75,-165.56C151.6,-143.82 146.73,-87.06 175.25,-55.25 206.88,-19.96 263.49,-11.44 300.96,-9.95"/>
<polygon fill="#63b8ff" stroke="#63b8ff" points="300.97,-13.46 310.88,-9.73 300.81,-6.46 300.97,-13.46"/>
</a>
</g>
</g>
<!-- Node9&#45;&gt;Node5 -->
<g id="edge15_Node000009_Node000005" class="edge">
<title>Node9&#45;&gt;Node5</title>
<g id="a_edge15_Node000009_Node000005"><a xlink:title=" ">
<path fill="none" stroke="#63b8ff" d="M181.41,-166.63C212.76,-156.98 266.26,-140.51 299.58,-130.26"/>
<polygon fill="#63b8ff" stroke="#63b8ff" points="300.48,-133.64 309.01,-127.35 298.42,-126.95 300.48,-133.64"/>
</a>
</g>
</g>
<!-- Node10&#45;&gt;Node5 -->
<g id="edge18_Node000010_Node000005" class="edge">
<title>Node10&#45;&gt;Node5</title>
<g id="a_edge18_Node000010_Node000005"><a xlink:title=" ">
<path fill="none" stroke="#63b8ff" d="M334.67,-338.97C363.27,-336.16 409.48,-326.73 431.25,-295.5 470.16,-239.68 391.52,-168.32 351.14,-137.03"/>
<polygon fill="#63b8ff" stroke="#63b8ff" points="353.32,-134.29 343.23,-131.05 349.1,-139.87 353.32,-134.29"/>
</a>
</g>
</g>
<!-- Node10&#45;&gt;Node8 -->
<g id="edge19_Node000010_Node000008" class="edge">
<title>Node10&#45;&gt;Node8</title>
<g id="a_edge19_Node000010_Node000008"><a xlink:title=" ">
<path fill="none" stroke="#63b8ff" d="M305.47,-331.24C298.24,-318.29 283.64,-293.86 267.25,-276.25 257.15,-265.4 244.27,-255.08 233.3,-247.1"/>
<polygon fill="#63b8ff" stroke="#63b8ff" points="235.33,-244.25 225.14,-241.36 231.3,-249.98 235.33,-244.25"/>
</a>
</g>
</g>
<!-- Node11 -->
<g id="Node000011" class="node">
<title>Node11</title>
<g id="a_Node000011"><a xlink:href="ltm_8h.html" target="_top" xlink:title=" ">
<polygon fill="white" stroke="#666666" points="258.12,-295.5 220.38,-295.5 220.38,-276.25 258.12,-276.25 258.12,-295.5"/>
<text xml:space="preserve" text-anchor="middle" x="239.25" y="-282" font-family="Helvetica,sans-Serif" font-size="10.00">ltm.h</text>
</a>
</g>
</g>
<!-- Node10&#45;&gt;Node11 -->
<g id="edge20_Node000010_Node000011" class="edge">
<title>Node10&#45;&gt;Node11</title>
<g id="a_edge20_Node000010_Node000011"><a xlink:title=" ">
<path fill="none" stroke="#63b8ff" d="M298.21,-331.09C287.84,-323.32 272.65,-311.92 260.28,-302.65"/>
<polygon fill="#63b8ff" stroke="#63b8ff" points="262.43,-299.88 252.33,-296.68 258.23,-305.48 262.43,-299.88"/>
</a>
</g>
</g>
<!-- Node12 -->
<g id="Node000012" class="node">
<title>Node12</title>
<g id="a_Node000012"><a xlink:href="lzio_8h.html" target="_top" xlink:title=" ">
<polygon fill="white" stroke="#666666" points="353.88,-295.5 314.62,-295.5 314.62,-276.25 353.88,-276.25 353.88,-295.5"/>
<text xml:space="preserve" text-anchor="middle" x="334.25" y="-282" font-family="Helvetica,sans-Serif" font-size="10.00">lzio.h</text>
</a>
</g>
</g>
<!-- Node10&#45;&gt;Node12 -->
<g id="edge22_Node000010_Node000012" class="edge">
<title>Node10&#45;&gt;Node12</title>
<g id="a_edge22_Node000010_Node000012"><a xlink:title=" ">
<path fill="none" stroke="#63b8ff" d="M314.21,-331.33C317.29,-324.51 321.66,-314.81 325.54,-306.2"/>
<polygon fill="#63b8ff" stroke="#63b8ff" points="328.66,-307.79 329.58,-297.24 322.28,-304.92 328.66,-307.79"/>
</a>
</g>
</g>
<!-- Node14 -->
<g id="Node000014" class="node">
<title>Node14</title>
<g id="a_Node000014"><a xlink:title=" ">
<polygon fill="#e0e0e0" stroke="#999999" points="422.12,-295.5 372.38,-295.5 372.38,-276.25 422.12,-276.25 422.12,-295.5"/>
<text xml:space="preserve" text-anchor="middle" x="397.25" y="-282" font-family="Helvetica,sans-Serif" font-size="10.00">signal.h</text>
</a>
</g>
</g>
<!-- Node10&#45;&gt;Node14 -->
<g id="edge28_Node000010_Node000014" class="edge">
<title>Node10&#45;&gt;Node14</title>
<g id="a_edge28_Node000010_Node000014"><a xlink:title=" ">
<path fill="none" stroke="#63b8ff" d="M325.01,-331.09C338.13,-323.06 357.57,-311.16 372.98,-301.73"/>
<polygon fill="#63b8ff" stroke="#63b8ff" points="374.43,-304.95 381.13,-296.74 370.77,-298.98 374.43,-304.95"/>
</a>
</g>
</g>
<!-- Node11&#45;&gt;Node8 -->
<g id="edge21_Node000011_Node000008" class="edge">
<title>Node11&#45;&gt;Node8</title>
<g id="a_edge21_Node000011_Node000008"><a xlink:title=" ">
<path fill="none" stroke="#63b8ff" d="M234.46,-276.08C230.71,-269.19 225.34,-259.34 220.62,-250.66"/>
<polygon fill="#63b8ff" stroke="#63b8ff" points="223.72,-249.05 215.87,-241.94 217.58,-252.39 223.72,-249.05"/>
</a>
</g>
</g>
<!-- Node12&#45;&gt;Node5 -->
<g id="edge23_Node000012_Node000005" class="edge">
<title>Node12&#45;&gt;Node5</title>
<g id="a_edge23_Node000012_Node000005"><a xlink:title=" ">
<path fill="none" stroke="#63b8ff" d="M343.3,-275.92C351.09,-267.54 361.76,-254.23 366.25,-240.25 377.69,-204.67 356.89,-162.93 342.12,-139.5"/>
<polygon fill="#63b8ff" stroke="#63b8ff" points="345.18,-137.77 336.73,-131.37 339.34,-141.64 345.18,-137.77"/>
</a>
</g>
</g>
<!-- Node13 -->
<g id="Node000013" class="node">
<title>Node13</title>
<g id="a_Node000013"><a xlink:href="lmem_8h.html" target="_top" xlink:title=" ">
<polygon fill="white" stroke="#666666" points="357.38,-240.25 309.12,-240.25 309.12,-221 357.38,-221 357.38,-240.25"/>
<text xml:space="preserve" text-anchor="middle" x="333.25" y="-226.75" font-family="Helvetica,sans-Serif" font-size="10.00">lmem.h</text>
</a>
</g>
</g>
<!-- Node12&#45;&gt;Node13 -->
<g id="edge24_Node000012_Node000013" class="edge">
<title>Node12&#45;&gt;Node13</title>
<g id="a_edge24_Node000012_Node000013"><a xlink:title=" ">
<path fill="none" stroke="#63b8ff" d="M334.08,-276.08C333.96,-269.57 333.79,-260.42 333.63,-252.12"/>
<polygon fill="#63b8ff" stroke="#63b8ff" points="337.13,-252.05 333.45,-242.12 330.14,-252.19 337.13,-252.05"/>
</a>
</g>
</g>
<!-- Node13&#45;&gt;Node4 -->
<g id="edge25_Node000013_Node000004" class="edge">
<title>Node13&#45;&gt;Node4</title>
<g id="a_edge25_Node000013_Node000004"><a xlink:title=" ">
<path fill="none" stroke="#63b8ff" d="M335.77,-220.77C338.29,-211.79 342.22,-197.47 345.25,-185 351.18,-160.58 354.57,-154.73 357.25,-129.75 360.81,-96.59 354.58,-88 348.25,-55.25 346.69,-47.16 344.75,-38.3 342.99,-30.62"/>
<polygon fill="#63b8ff" stroke="#63b8ff" points="346.42,-29.9 340.74,-20.96 339.6,-31.49 346.42,-29.9"/>
</a>
</g>
</g>
<!-- Node13&#45;&gt;Node5 -->
<g id="edge27_Node000013_Node000005" class="edge">
<title>Node13&#45;&gt;Node5</title>
<g id="a_edge27_Node000013_Node000005"><a xlink:title=" ">
<path fill="none" stroke="#63b8ff" d="M332.92,-220.75C332.29,-203.5 330.87,-165.08 329.99,-141.31"/>
<polygon fill="#63b8ff" stroke="#63b8ff" points="333.5,-141.5 329.64,-131.64 326.51,-141.76 333.5,-141.5"/>
</a>
</g>
</g>
<!-- Node13&#45;&gt;Node9 -->
<g id="edge26_Node000013_Node000009" class="edge">
<title>Node13&#45;&gt;Node9</title>
<g id="a_edge26_Node000013_Node000009"><a xlink:title=" ">
<path fill="none" stroke="#63b8ff" d="M308.64,-222.22C278.38,-213.12 226.79,-197.6 192.12,-187.17"/>
<polygon fill="#63b8ff" stroke="#63b8ff" points="193.54,-183.94 182.96,-184.41 191.53,-190.64 193.54,-183.94"/>
</a>
</g>
</g>
<!-- Node15&#45;&gt;Node8 -->
<g id="edge31_Node000015_Node000008" class="edge">
<title>Node15&#45;&gt;Node8</title>
<g id="a_edge31_Node000015_Node000008"><a xlink:title=" ">
<path fill="none" stroke="#63b8ff" d="M193.72,-331.25C196.58,-314 202.96,-275.58 206.9,-251.81"/>
<polygon fill="#63b8ff" stroke="#63b8ff" points="210.33,-252.56 208.51,-242.12 203.42,-251.41 210.33,-252.56"/>
</a>
</g>
</g>
<!-- Node15&#45;&gt;Node9 -->
<g id="edge30_Node000015_Node000009" class="edge">
<title>Node15&#45;&gt;Node9</title>
<g id="a_edge30_Node000015_Node000009"><a xlink:title=" ">
<path fill="none" stroke="#63b8ff" d="M190.31,-331.32C184.72,-305.89 168.45,-231.85 160.59,-196.12"/>
<polygon fill="#63b8ff" stroke="#63b8ff" points="164.09,-195.72 158.52,-186.7 157.25,-197.22 164.09,-195.72"/>
</a>
</g>
</g>
<!-- Node15&#45;&gt;Node12 -->
<g id="edge32_Node000015_Node000012" class="edge">
<title>Node15&#45;&gt;Node12</title>
<g id="a_edge32_Node000015_Node000012"><a xlink:title=" ">
<path fill="none" stroke="#63b8ff" d="M216.34,-331.09C240.43,-322.06 277.57,-308.13 303.72,-298.32"/>
<polygon fill="#63b8ff" stroke="#63b8ff" points="304.63,-301.72 312.77,-294.93 302.17,-295.17 304.63,-301.72"/>
</a>
</g>
</g>
</g>
</svg>
