<?xml version="1.0" encoding="UTF-8" standalone="no"?>
<!DOCTYPE svg PUBLIC "-//W3C//DTD SVG 1.1//EN"
 "http://www.w3.org/Graphics/SVG/1.1/DTD/svg11.dtd">
<!-- Generated by graphviz version 13.1.0 (20250701.0955)
 -->
<!-- Title: dumpNumber Pages: 1 -->
<svg width="608pt" height="65pt"
 viewBox="0.00 0.00 608.00 65.00" xmlns="http://www.w3.org/2000/svg" xmlns:xlink="http://www.w3.org/1999/xlink">
<g id="graph0" class="graph" transform="scale(1 1) rotate(0) translate(4 61.25)">
<title>dumpNumber</title>
<!-- Node1 -->
<g id="Node000001" class="node">
<title>Node1</title>
<g id="a_Node000001"><a xlink:title=" ">
<polygon fill="#999999" stroke="#666666" points="600,-38.25 525.5,-38.25 525.5,-19 600,-19 600,-38.25"/>
<text xml:space="preserve" text-anchor="middle" x="562.75" y="-24.75" font-family="Helvetica,sans-Serif" font-size="10.00">dumpNumber</text>
</a>
</g>
</g>
<!-- Node2 -->
<g id="Node000002" class="node">
<title>Node2</title>
<g id="a_Node000002"><a xlink:href="ldump_8c.html#a03c1c48bb784b200a4f8e982c9235456" target="_top" xlink:title=" ">
<polygon fill="white" stroke="#666666" points="489.5,-57.25 404.5,-57.25 404.5,-38 489.5,-38 489.5,-57.25"/>
<text xml:space="preserve" text-anchor="middle" x="447" y="-43.75" font-family="Helvetica,sans-Serif" font-size="10.00">dumpConstants</text>
</a>
</g>
</g>
<!-- Node1&#45;&gt;Node2 -->
<g id="edge1_Node000001_Node000002" class="edge">
<title>Node1&#45;&gt;Node2</title>
<g id="a_edge1_Node000001_Node000002"><a xlink:title=" ">
<path fill="none" stroke="#63b8ff" d="M513.97,-36.61C505.9,-37.95 497.58,-39.34 489.69,-40.66"/>
<polygon fill="#63b8ff" stroke="#63b8ff" points="514.35,-40.09 523.64,-34.99 513.2,-33.19 514.35,-40.09"/>
</a>
</g>
</g>
<!-- Node8 -->
<g id="Node000008" class="node">
<title>Node8</title>
<g id="a_Node000008"><a xlink:href="ldump_8c.html#a7dff1d2107a66420c1476d4ecfa27b14" target="_top" xlink:title=" ">
<polygon fill="white" stroke="#666666" points="365.5,-19.25 294,-19.25 294,0 365.5,0 365.5,-19.25"/>
<text xml:space="preserve" text-anchor="middle" x="329.75" y="-5.75" font-family="Helvetica,sans-Serif" font-size="10.00">dumpHeader</text>
</a>
</g>
</g>
<!-- Node1&#45;&gt;Node8 -->
<g id="edge8_Node000001_Node000008" class="edge">
<title>Node1&#45;&gt;Node8</title>
<g id="a_edge8_Node000001_Node000008"><a xlink:title=" ">
<path fill="none" stroke="#63b8ff" d="M513.83,-24.68C469.66,-21.05 405.15,-15.74 365.67,-12.5"/>
<polygon fill="#63b8ff" stroke="#63b8ff" points="513.39,-28.16 523.64,-25.49 513.96,-21.18 513.39,-28.16"/>
</a>
</g>
</g>
<!-- Node3 -->
<g id="Node000003" class="node">
<title>Node3</title>
<g id="a_Node000003"><a xlink:href="ldump_8c.html#a2e1db7ac1fa976eb7e3b90ec15a576b2" target="_top" xlink:title=" ">
<polygon fill="white" stroke="#666666" points="368.5,-56.25 291,-56.25 291,-37 368.5,-37 368.5,-56.25"/>
<text xml:space="preserve" text-anchor="middle" x="329.75" y="-42.75" font-family="Helvetica,sans-Serif" font-size="10.00">dumpFunction</text>
</a>
</g>
</g>
<!-- Node2&#45;&gt;Node3 -->
<g id="edge2_Node000002_Node000003" class="edge">
<title>Node2&#45;&gt;Node3</title>
<g id="a_edge2_Node000002_Node000003"><a xlink:title=" ">
<path fill="none" stroke="#63b8ff" d="M392.72,-47.16C384.59,-47.09 376.35,-47.02 368.64,-46.95"/>
<polygon fill="#63b8ff" stroke="#63b8ff" points="392.52,-50.66 402.55,-47.25 392.58,-43.66 392.52,-50.66"/>
</a>
</g>
</g>
<!-- Node4 -->
<g id="Node000004" class="node">
<title>Node4</title>
<g id="a_Node000004"><a xlink:href="ldump_8c.html#a34567bcb1204f914b0316d5ac5532ae0" target="_top" xlink:title=" ">
<polygon fill="white" stroke="#666666" points="255,-56.25 186.5,-56.25 186.5,-37 255,-37 255,-56.25"/>
<text xml:space="preserve" text-anchor="middle" x="220.75" y="-42.75" font-family="Helvetica,sans-Serif" font-size="10.00">dumpProtos</text>
</a>
</g>
</g>
<!-- Node3&#45;&gt;Node4 -->
<g id="edge3_Node000003_Node000004" class="edge">
<title>Node3&#45;&gt;Node4</title>
<g id="a_edge3_Node000003_Node000004"><a xlink:title=" ">
<path fill="none" stroke="#63b8ff" d="M279.4,-39.89C271.27,-39.82 263.01,-39.96 255.39,-40.31"/>
<polygon fill="#63b8ff" stroke="#63b8ff" points="279.14,-43.39 289.21,-40.1 279.29,-36.39 279.14,-43.39"/>
</a>
</g>
</g>
<!-- Node5 -->
<g id="Node000005" class="node">
<title>Node5</title>
<g id="a_Node000005"><a xlink:href="ldump_8c.html#a808f6a29001ac6446f40c76014c6b6e9" target="_top" xlink:title=" ">
<polygon fill="white" stroke="#666666" points="253.5,-19.25 188,-19.25 188,0 253.5,0 253.5,-19.25"/>
<text xml:space="preserve" text-anchor="middle" x="220.75" y="-5.75" font-family="Helvetica,sans-Serif" font-size="10.00">luaU_dump</text>
</a>
</g>
</g>
<!-- Node3&#45;&gt;Node5 -->
<g id="edge5_Node000003_Node000005" class="edge">
<title>Node3&#45;&gt;Node5</title>
<g id="a_edge5_Node000003_Node000005"><a xlink:title=" ">
<path fill="none" stroke="#63b8ff" d="M288.82,-32.82C276.26,-28.47 262.63,-23.76 250.95,-19.72"/>
<polygon fill="#63b8ff" stroke="#63b8ff" points="287.49,-36.06 298.08,-36.02 289.77,-29.44 287.49,-36.06"/>
</a>
</g>
</g>
<!-- Node4&#45;&gt;Node3 -->
<g id="edge4_Node000004_Node000003" class="edge">
<title>Node4&#45;&gt;Node3</title>
<g id="a_edge4_Node000004_Node000003"><a xlink:title=" ">
<path fill="none" stroke="#63b8ff" d="M266.79,-53.3C274.75,-53.44 282.98,-53.38 290.72,-53.12"/>
<polygon fill="#63b8ff" stroke="#63b8ff" points="267,-49.8 256.9,-52.99 266.78,-56.8 267,-49.8"/>
</a>
</g>
</g>
<!-- Node6 -->
<g id="Node000006" class="node">
<title>Node6</title>
<g id="a_Node000006"><a xlink:href="lapi_8c.html#a68295f56f04fd0d5c0adfb1793a04b4c" target="_top" xlink:title=" ">
<polygon fill="white" stroke="#666666" points="150.5,-19.25 92.5,-19.25 92.5,0 150.5,0 150.5,-19.25"/>
<text xml:space="preserve" text-anchor="middle" x="121.5" y="-5.75" font-family="Helvetica,sans-Serif" font-size="10.00">lua_dump</text>
</a>
</g>
</g>
<!-- Node5&#45;&gt;Node6 -->
<g id="edge6_Node000005_Node000006" class="edge">
<title>Node5&#45;&gt;Node6</title>
<g id="a_edge6_Node000005_Node000006"><a xlink:title=" ">
<path fill="none" stroke="#63b8ff" d="M176.2,-9.62C167.65,-9.62 158.88,-9.62 150.98,-9.62"/>
<polygon fill="#63b8ff" stroke="#63b8ff" points="176.12,-13.13 186.12,-9.63 176.12,-6.13 176.12,-13.13"/>
</a>
</g>
</g>
<!-- Node7 -->
<g id="Node000007" class="node">
<title>Node7</title>
<g id="a_Node000007"><a xlink:href="lstrlib_8c.html#abc94e3a13f1b6ddb2c9b20c9fd89e87f" target="_top" xlink:title=" ">
<polygon fill="white" stroke="#666666" points="56.5,-19.25 0,-19.25 0,0 56.5,0 56.5,-19.25"/>
<text xml:space="preserve" text-anchor="middle" x="28.25" y="-5.75" font-family="Helvetica,sans-Serif" font-size="10.00">str_dump</text>
</a>
</g>
</g>
<!-- Node6&#45;&gt;Node7 -->
<g id="edge7_Node000006_Node000007" class="edge">
<title>Node6&#45;&gt;Node7</title>
<g id="a_edge7_Node000006_Node000007"><a xlink:title=" ">
<path fill="none" stroke="#63b8ff" d="M80.7,-9.62C72.7,-9.62 64.46,-9.62 56.98,-9.62"/>
<polygon fill="#63b8ff" stroke="#63b8ff" points="80.61,-13.13 90.61,-9.63 80.61,-6.13 80.61,-13.13"/>
</a>
</g>
</g>
<!-- Node8&#45;&gt;Node5 -->
<g id="edge9_Node000008_Node000005" class="edge">
<title>Node8&#45;&gt;Node5</title>
<g id="a_edge9_Node000008_Node000005"><a xlink:title=" ">
<path fill="none" stroke="#63b8ff" d="M282.3,-9.62C272.74,-9.62 262.88,-9.62 253.97,-9.62"/>
<polygon fill="#63b8ff" stroke="#63b8ff" points="282.2,-13.13 292.2,-9.63 282.2,-6.13 282.2,-13.13"/>
</a>
</g>
</g>
</g>
</svg>
