<?xml version="1.0" encoding="UTF-8" standalone="no"?>
<!DOCTYPE svg PUBLIC "-//W3C//DTD SVG 1.1//EN"
 "http://www.w3.org/Graphics/SVG/1.1/DTD/svg11.dtd">
<!-- Generated by graphviz version 13.1.0 (20250701.0955)
 -->
<!-- Title: dumpHeader Pages: 1 -->
<svg width="368pt" height="27pt"
 viewBox="0.00 0.00 368.00 27.00" xmlns="http://www.w3.org/2000/svg" xmlns:xlink="http://www.w3.org/1999/xlink">
<g id="graph0" class="graph" transform="scale(1 1) rotate(0) translate(4 23.25)">
<title>dumpHeader</title>
<!-- Node1 -->
<g id="Node000001" class="node">
<title>Node1</title>
<g id="a_Node000001"><a xlink:title=" ">
<polygon fill="#999999" stroke="#666666" points="359.5,-19.25 288,-19.25 288,0 359.5,0 359.5,-19.25"/>
<text xml:space="preserve" text-anchor="middle" x="323.75" y="-5.75" font-family="Helvetica,sans-Serif" font-size="10.00">dumpHeader</text>
</a>
</g>
</g>
<!-- Node2 -->
<g id="Node000002" class="node">
<title>Node2</title>
<g id="a_Node000002"><a xlink:href="ldump_8c.html#a808f6a29001ac6446f40c76014c6b6e9" target="_top" xlink:title=" ">
<polygon fill="white" stroke="#666666" points="252,-19.25 186.5,-19.25 186.5,0 252,0 252,-19.25"/>
<text xml:space="preserve" text-anchor="middle" x="219.25" y="-5.75" font-family="Helvetica,sans-Serif" font-size="10.00">luaU_dump</text>
</a>
</g>
</g>
<!-- Node1&#45;&gt;Node2 -->
<g id="edge1_Node000001_Node000002" class="edge">
<title>Node1&#45;&gt;Node2</title>
<g id="a_edge1_Node000001_Node000002"><a xlink:title=" ">
<path fill="none" stroke="#63b8ff" d="M276.44,-9.62C268.29,-9.62 259.98,-9.62 252.32,-9.62"/>
<polygon fill="#63b8ff" stroke="#63b8ff" points="276.25,-13.13 286.25,-9.63 276.25,-6.13 276.25,-13.13"/>
</a>
</g>
</g>
<!-- Node3 -->
<g id="Node000003" class="node">
<title>Node3</title>
<g id="a_Node000003"><a xlink:href="lapi_8c.html#a68295f56f04fd0d5c0adfb1793a04b4c" target="_top" xlink:title=" ">
<polygon fill="white" stroke="#666666" points="150.5,-19.25 92.5,-19.25 92.5,0 150.5,0 150.5,-19.25"/>
<text xml:space="preserve" text-anchor="middle" x="121.5" y="-5.75" font-family="Helvetica,sans-Serif" font-size="10.00">lua_dump</text>
</a>
</g>
</g>
<!-- Node2&#45;&gt;Node3 -->
<g id="edge2_Node000002_Node000003" class="edge">
<title>Node2&#45;&gt;Node3</title>
<g id="a_edge2_Node000002_Node000003"><a xlink:title=" ">
<path fill="none" stroke="#63b8ff" d="M174.82,-9.62C166.7,-9.62 158.4,-9.62 150.87,-9.62"/>
<polygon fill="#63b8ff" stroke="#63b8ff" points="174.59,-13.13 184.59,-9.63 174.59,-6.13 174.59,-13.13"/>
</a>
</g>
</g>
<!-- Node4 -->
<g id="Node000004" class="node">
<title>Node4</title>
<g id="a_Node000004"><a xlink:href="lstrlib_8c.html#abc94e3a13f1b6ddb2c9b20c9fd89e87f" target="_top" xlink:title=" ">
<polygon fill="white" stroke="#666666" points="56.5,-19.25 0,-19.25 0,0 56.5,0 56.5,-19.25"/>
<text xml:space="preserve" text-anchor="middle" x="28.25" y="-5.75" font-family="Helvetica,sans-Serif" font-size="10.00">str_dump</text>
</a>
</g>
</g>
<!-- Node3&#45;&gt;Node4 -->
<g id="edge3_Node000003_Node000004" class="edge">
<title>Node3&#45;&gt;Node4</title>
<g id="a_edge3_Node000003_Node000004"><a xlink:title=" ">
<path fill="none" stroke="#63b8ff" d="M80.7,-9.62C72.7,-9.62 64.46,-9.62 56.98,-9.62"/>
<polygon fill="#63b8ff" stroke="#63b8ff" points="80.61,-13.13 90.61,-9.63 80.61,-6.13 80.61,-13.13"/>
</a>
</g>
</g>
</g>
</svg>
