<?xml version="1.0" encoding="UTF-8" standalone="no"?>
<!DOCTYPE svg PUBLIC "-//W3C//DTD SVG 1.1//EN"
 "http://www.w3.org/Graphics/SVG/1.1/DTD/svg11.dtd">
<!-- Generated by graphviz version 13.1.0 (20250701.0955)
 -->
<!-- Title: dumpString Pages: 1 -->
<svg width="599pt" height="103pt"
 viewBox="0.00 0.00 599.00 103.00" xmlns="http://www.w3.org/2000/svg" xmlns:xlink="http://www.w3.org/1999/xlink">
<g id="graph0" class="graph" transform="scale(1 1) rotate(0) translate(4 99.25)">
<title>dumpString</title>
<!-- Node1 -->
<g id="Node000001" class="node">
<title>Node1</title>
<g id="a_Node000001"><a xlink:title=" ">
<polygon fill="#999999" stroke="#666666" points="591,-57.25 525.5,-57.25 525.5,-38 591,-38 591,-57.25"/>
<text xml:space="preserve" text-anchor="middle" x="558.25" y="-43.75" font-family="Helvetica,sans-Serif" font-size="10.00">dumpString</text>
</a>
</g>
</g>
<!-- Node2 -->
<g id="Node000002" class="node">
<title>Node2</title>
<g id="a_Node000002"><a xlink:href="ldump_8c.html#a03c1c48bb784b200a4f8e982c9235456" target="_top" xlink:title=" ">
<polygon fill="white" stroke="#666666" points="489.5,-95.25 404.5,-95.25 404.5,-76 489.5,-76 489.5,-95.25"/>
<text xml:space="preserve" text-anchor="middle" x="447" y="-81.75" font-family="Helvetica,sans-Serif" font-size="10.00">dumpConstants</text>
</a>
</g>
</g>
<!-- Node1&#45;&gt;Node2 -->
<g id="edge1_Node000001_Node000002" class="edge">
<title>Node1&#45;&gt;Node2</title>
<g id="a_edge1_Node000001_Node000002"><a xlink:title=" ">
<path fill="none" stroke="#63b8ff" d="M517.75,-61.36C504.19,-66.08 489.29,-71.26 476.75,-75.63"/>
<polygon fill="#63b8ff" stroke="#63b8ff" points="518.54,-64.8 526.83,-58.21 516.24,-58.19 518.54,-64.8"/>
</a>
</g>
</g>
<!-- Node3 -->
<g id="Node000003" class="node">
<title>Node3</title>
<g id="a_Node000003"><a xlink:href="ldump_8c.html#a2e1db7ac1fa976eb7e3b90ec15a576b2" target="_top" xlink:title=" ">
<polygon fill="white" stroke="#666666" points="368.5,-57.25 291,-57.25 291,-38 368.5,-38 368.5,-57.25"/>
<text xml:space="preserve" text-anchor="middle" x="329.75" y="-43.75" font-family="Helvetica,sans-Serif" font-size="10.00">dumpFunction</text>
</a>
</g>
</g>
<!-- Node1&#45;&gt;Node3 -->
<g id="edge10_Node000001_Node000003" class="edge">
<title>Node1&#45;&gt;Node3</title>
<g id="a_edge10_Node000001_Node000003"><a xlink:title=" ">
<path fill="none" stroke="#63b8ff" d="M513.78,-47.62C471.87,-47.62 409.05,-47.62 368.99,-47.62"/>
<polygon fill="#63b8ff" stroke="#63b8ff" points="513.76,-51.13 523.76,-47.63 513.76,-44.13 513.76,-51.13"/>
</a>
</g>
</g>
<!-- Node8 -->
<g id="Node000008" class="node">
<title>Node8</title>
<g id="a_Node000008"><a xlink:href="ldump_8c.html#a57223a49768a740530eddd2f3ef19699" target="_top" xlink:title=" ">
<polygon fill="white" stroke="#666666" points="481.25,-19.25 412.75,-19.25 412.75,0 481.25,0 481.25,-19.25"/>
<text xml:space="preserve" text-anchor="middle" x="447" y="-5.75" font-family="Helvetica,sans-Serif" font-size="10.00">dumpDebug</text>
</a>
</g>
</g>
<!-- Node1&#45;&gt;Node8 -->
<g id="edge8_Node000001_Node000008" class="edge">
<title>Node1&#45;&gt;Node8</title>
<g id="a_edge8_Node000001_Node000008"><a xlink:title=" ">
<path fill="none" stroke="#63b8ff" d="M517.75,-33.89C504.19,-29.17 489.29,-23.99 476.75,-19.62"/>
<polygon fill="#63b8ff" stroke="#63b8ff" points="516.24,-37.06 526.83,-37.04 518.54,-30.45 516.24,-37.06"/>
</a>
</g>
</g>
<!-- Node2&#45;&gt;Node3 -->
<g id="edge2_Node000002_Node000003" class="edge">
<title>Node2&#45;&gt;Node3</title>
<g id="a_edge2_Node000002_Node000003"><a xlink:title=" ">
<path fill="none" stroke="#63b8ff" d="M404.75,-72.03C390.34,-67.27 374.43,-62.03 361.08,-57.62"/>
<polygon fill="#63b8ff" stroke="#63b8ff" points="403.39,-75.26 413.98,-75.07 405.58,-68.61 403.39,-75.26"/>
</a>
</g>
</g>
<!-- Node4 -->
<g id="Node000004" class="node">
<title>Node4</title>
<g id="a_Node000004"><a xlink:href="ldump_8c.html#a34567bcb1204f914b0316d5ac5532ae0" target="_top" xlink:title=" ">
<polygon fill="white" stroke="#666666" points="255,-57.25 186.5,-57.25 186.5,-38 255,-38 255,-57.25"/>
<text xml:space="preserve" text-anchor="middle" x="220.75" y="-43.75" font-family="Helvetica,sans-Serif" font-size="10.00">dumpProtos</text>
</a>
</g>
</g>
<!-- Node3&#45;&gt;Node4 -->
<g id="edge3_Node000003_Node000004" class="edge">
<title>Node3&#45;&gt;Node4</title>
<g id="a_edge3_Node000003_Node000004"><a xlink:title=" ">
<path fill="none" stroke="#63b8ff" d="M279.4,-40.89C271.27,-40.82 263.01,-40.96 255.39,-41.31"/>
<polygon fill="#63b8ff" stroke="#63b8ff" points="279.14,-44.39 289.21,-41.1 279.29,-37.39 279.14,-44.39"/>
</a>
</g>
</g>
<!-- Node5 -->
<g id="Node000005" class="node">
<title>Node5</title>
<g id="a_Node000005"><a xlink:href="ldump_8c.html#a808f6a29001ac6446f40c76014c6b6e9" target="_top" xlink:title=" ">
<polygon fill="white" stroke="#666666" points="253.5,-20.25 188,-20.25 188,-1 253.5,-1 253.5,-20.25"/>
<text xml:space="preserve" text-anchor="middle" x="220.75" y="-6.75" font-family="Helvetica,sans-Serif" font-size="10.00">luaU_dump</text>
</a>
</g>
</g>
<!-- Node3&#45;&gt;Node5 -->
<g id="edge5_Node000003_Node000005" class="edge">
<title>Node3&#45;&gt;Node5</title>
<g id="a_edge5_Node000003_Node000005"><a xlink:title=" ">
<path fill="none" stroke="#63b8ff" d="M288.82,-33.82C276.26,-29.47 262.63,-24.76 250.95,-20.72"/>
<polygon fill="#63b8ff" stroke="#63b8ff" points="287.49,-37.06 298.08,-37.02 289.77,-30.44 287.49,-37.06"/>
</a>
</g>
</g>
<!-- Node4&#45;&gt;Node3 -->
<g id="edge4_Node000004_Node000003" class="edge">
<title>Node4&#45;&gt;Node3</title>
<g id="a_edge4_Node000004_Node000003"><a xlink:title=" ">
<path fill="none" stroke="#63b8ff" d="M266.79,-54.3C274.75,-54.44 282.98,-54.38 290.72,-54.12"/>
<polygon fill="#63b8ff" stroke="#63b8ff" points="267,-50.8 256.9,-53.99 266.78,-57.8 267,-50.8"/>
</a>
</g>
</g>
<!-- Node6 -->
<g id="Node000006" class="node">
<title>Node6</title>
<g id="a_Node000006"><a xlink:href="lapi_8c.html#a68295f56f04fd0d5c0adfb1793a04b4c" target="_top" xlink:title=" ">
<polygon fill="white" stroke="#666666" points="150.5,-20.25 92.5,-20.25 92.5,-1 150.5,-1 150.5,-20.25"/>
<text xml:space="preserve" text-anchor="middle" x="121.5" y="-6.75" font-family="Helvetica,sans-Serif" font-size="10.00">lua_dump</text>
</a>
</g>
</g>
<!-- Node5&#45;&gt;Node6 -->
<g id="edge6_Node000005_Node000006" class="edge">
<title>Node5&#45;&gt;Node6</title>
<g id="a_edge6_Node000005_Node000006"><a xlink:title=" ">
<path fill="none" stroke="#63b8ff" d="M176.2,-10.62C167.65,-10.62 158.88,-10.62 150.98,-10.62"/>
<polygon fill="#63b8ff" stroke="#63b8ff" points="176.12,-14.13 186.12,-10.63 176.12,-7.13 176.12,-14.13"/>
</a>
</g>
</g>
<!-- Node7 -->
<g id="Node000007" class="node">
<title>Node7</title>
<g id="a_Node000007"><a xlink:href="lstrlib_8c.html#abc94e3a13f1b6ddb2c9b20c9fd89e87f" target="_top" xlink:title=" ">
<polygon fill="white" stroke="#666666" points="56.5,-20.25 0,-20.25 0,-1 56.5,-1 56.5,-20.25"/>
<text xml:space="preserve" text-anchor="middle" x="28.25" y="-6.75" font-family="Helvetica,sans-Serif" font-size="10.00">str_dump</text>
</a>
</g>
</g>
<!-- Node6&#45;&gt;Node7 -->
<g id="edge7_Node000006_Node000007" class="edge">
<title>Node6&#45;&gt;Node7</title>
<g id="a_edge7_Node000006_Node000007"><a xlink:title=" ">
<path fill="none" stroke="#63b8ff" d="M80.7,-10.62C72.7,-10.62 64.46,-10.62 56.98,-10.62"/>
<polygon fill="#63b8ff" stroke="#63b8ff" points="80.61,-14.13 90.61,-10.63 80.61,-7.13 80.61,-14.13"/>
</a>
</g>
</g>
<!-- Node8&#45;&gt;Node3 -->
<g id="edge9_Node000008_Node000003" class="edge">
<title>Node8&#45;&gt;Node3</title>
<g id="a_edge9_Node000008_Node000003"><a xlink:title=" ">
<path fill="none" stroke="#63b8ff" d="M404.75,-23.22C390.34,-27.98 374.43,-33.22 361.08,-37.63"/>
<polygon fill="#63b8ff" stroke="#63b8ff" points="405.58,-26.64 413.98,-20.18 403.39,-19.99 405.58,-26.64"/>
</a>
</g>
</g>
</g>
</svg>
