<?xml version="1.0" encoding="UTF-8" standalone="no"?>
<!DOCTYPE svg PUBLIC "-//W3C//DTD SVG 1.1//EN"
 "http://www.w3.org/Graphics/SVG/1.1/DTD/svg11.dtd">
<!-- Generated by graphviz version 13.1.0 (20250701.0955)
 -->
<!-- Title: dumpByte Pages: 1 -->
<svg width="594pt" height="179pt"
 viewBox="0.00 0.00 594.00 179.00" xmlns="http://www.w3.org/2000/svg" xmlns:xlink="http://www.w3.org/1999/xlink">
<g id="graph0" class="graph" transform="scale(1 1) rotate(0) translate(4 175.25)">
<title>dumpByte</title>
<!-- Node1 -->
<g id="Node000001" class="node">
<title>Node1</title>
<g id="a_Node000001"><a xlink:title=" ">
<polygon fill="#999999" stroke="#666666" points="585.75,-95.25 525.5,-95.25 525.5,-76 585.75,-76 585.75,-95.25"/>
<text xml:space="preserve" text-anchor="middle" x="555.62" y="-81.75" font-family="Helvetica,sans-Serif" font-size="10.00">dumpByte</text>
</a>
</g>
</g>
<!-- Node2 -->
<g id="Node000002" class="node">
<title>Node2</title>
<g id="a_Node000002"><a xlink:href="ldump_8c.html#a03c1c48bb784b200a4f8e982c9235456" target="_top" xlink:title=" ">
<polygon fill="white" stroke="#666666" points="489.5,-171.25 404.5,-171.25 404.5,-152 489.5,-152 489.5,-171.25"/>
<text xml:space="preserve" text-anchor="middle" x="447" y="-157.75" font-family="Helvetica,sans-Serif" font-size="10.00">dumpConstants</text>
</a>
</g>
</g>
<!-- Node1&#45;&gt;Node2 -->
<g id="edge1_Node000001_Node000002" class="edge">
<title>Node1&#45;&gt;Node2</title>
<g id="a_edge1_Node000001_Node000002"><a xlink:title=" ">
<path fill="none" stroke="#63b8ff" d="M534.77,-102.76C522.17,-113.31 505.31,-126.83 489.5,-137.62 482.21,-142.6 473.85,-147.57 466.54,-151.69"/>
<polygon fill="#63b8ff" stroke="#63b8ff" points="536.97,-105.48 542.34,-96.34 532.45,-100.14 536.97,-105.48"/>
</a>
</g>
</g>
<!-- Node3 -->
<g id="Node000003" class="node">
<title>Node3</title>
<g id="a_Node000003"><a xlink:href="ldump_8c.html#a2e1db7ac1fa976eb7e3b90ec15a576b2" target="_top" xlink:title=" ">
<polygon fill="white" stroke="#666666" points="368.5,-114.25 291,-114.25 291,-95 368.5,-95 368.5,-114.25"/>
<text xml:space="preserve" text-anchor="middle" x="329.75" y="-100.75" font-family="Helvetica,sans-Serif" font-size="10.00">dumpFunction</text>
</a>
</g>
</g>
<!-- Node1&#45;&gt;Node3 -->
<g id="edge8_Node000001_Node000003" class="edge">
<title>Node1&#45;&gt;Node3</title>
<g id="a_edge8_Node000001_Node000003"><a xlink:title=" ">
<path fill="none" stroke="#63b8ff" d="M515.66,-98.94C507.14,-101.3 498.09,-103.4 489.5,-104.62 448.57,-110.47 401.11,-109.47 368.81,-107.63"/>
<polygon fill="#63b8ff" stroke="#63b8ff" points="516.44,-102.36 525.03,-96.16 514.45,-95.65 516.44,-102.36"/>
</a>
</g>
</g>
<!-- Node5 -->
<g id="Node000005" class="node">
<title>Node5</title>
<g id="a_Node000005"><a xlink:href="ldump_8c.html#a808f6a29001ac6446f40c76014c6b6e9" target="_top" xlink:title=" ">
<polygon fill="white" stroke="#666666" points="253.5,-57.25 188,-57.25 188,-38 253.5,-38 253.5,-57.25"/>
<text xml:space="preserve" text-anchor="middle" x="220.75" y="-43.75" font-family="Helvetica,sans-Serif" font-size="10.00">luaU_dump</text>
</a>
</g>
</g>
<!-- Node1&#45;&gt;Node5 -->
<g id="edge13_Node000001_Node000005" class="edge">
<title>Node1&#45;&gt;Node5</title>
<g id="a_edge13_Node000001_Node000005"><a xlink:title=" ">
<path fill="none" stroke="#63b8ff" d="M514.06,-72.35C506,-70.12 497.54,-68.07 489.5,-66.62 405.33,-51.54 304.26,-48.32 253.76,-47.7"/>
<polygon fill="#63b8ff" stroke="#63b8ff" points="513.08,-75.71 523.66,-75.15 515.04,-68.99 513.08,-75.71"/>
</a>
</g>
</g>
<!-- Node8 -->
<g id="Node000008" class="node">
<title>Node8</title>
<g id="a_Node000008"><a xlink:href="ldump_8c.html#a7dff1d2107a66420c1476d4ecfa27b14" target="_top" xlink:title=" ">
<polygon fill="white" stroke="#666666" points="365.5,-19.25 294,-19.25 294,0 365.5,0 365.5,-19.25"/>
<text xml:space="preserve" text-anchor="middle" x="329.75" y="-5.75" font-family="Helvetica,sans-Serif" font-size="10.00">dumpHeader</text>
</a>
</g>
</g>
<!-- Node1&#45;&gt;Node8 -->
<g id="edge9_Node000001_Node000008" class="edge">
<title>Node1&#45;&gt;Node8</title>
<g id="a_edge9_Node000001_Node000008"><a xlink:title=" ">
<path fill="none" stroke="#63b8ff" d="M537.64,-67.86C525.39,-56.19 507.85,-41.64 489.5,-33.62 449.53,-16.16 399.1,-11.08 365.94,-9.77"/>
<polygon fill="#63b8ff" stroke="#63b8ff" points="534.92,-70.09 544.48,-74.66 539.85,-65.13 534.92,-70.09"/>
</a>
</g>
</g>
<!-- Node9 -->
<g id="Node000009" class="node">
<title>Node9</title>
<g id="a_Node000009"><a xlink:href="ldump_8c.html#aa91ee935a3a398fdb0228107f579fb75" target="_top" xlink:title=" ">
<polygon fill="white" stroke="#666666" points="487.62,-95.25 406.38,-95.25 406.38,-76 487.62,-76 487.62,-95.25"/>
<text xml:space="preserve" text-anchor="middle" x="447" y="-81.75" font-family="Helvetica,sans-Serif" font-size="10.00">dumpUpvalues</text>
</a>
</g>
</g>
<!-- Node1&#45;&gt;Node9 -->
<g id="edge11_Node000001_Node000009" class="edge">
<title>Node1&#45;&gt;Node9</title>
<g id="a_edge11_Node000001_Node000009"><a xlink:title=" ">
<path fill="none" stroke="#63b8ff" d="M513.71,-85.62C505.31,-85.62 496.47,-85.62 488.1,-85.62"/>
<polygon fill="#63b8ff" stroke="#63b8ff" points="513.69,-89.13 523.69,-85.63 513.69,-82.13 513.69,-89.13"/>
</a>
</g>
</g>
<!-- Node2&#45;&gt;Node3 -->
<g id="edge2_Node000002_Node000003" class="edge">
<title>Node2&#45;&gt;Node3</title>
<g id="a_edge2_Node000002_Node000003"><a xlink:title=" ">
<path fill="none" stroke="#63b8ff" d="M415.59,-146.58C395.14,-136.47 368.76,-123.42 350.89,-114.58"/>
<polygon fill="#63b8ff" stroke="#63b8ff" points="413.79,-149.6 424.3,-150.89 416.89,-143.32 413.79,-149.6"/>
</a>
</g>
</g>
<!-- Node4 -->
<g id="Node000004" class="node">
<title>Node4</title>
<g id="a_Node000004"><a xlink:href="ldump_8c.html#a34567bcb1204f914b0316d5ac5532ae0" target="_top" xlink:title=" ">
<polygon fill="white" stroke="#666666" points="255,-114.25 186.5,-114.25 186.5,-95 255,-95 255,-114.25"/>
<text xml:space="preserve" text-anchor="middle" x="220.75" y="-100.75" font-family="Helvetica,sans-Serif" font-size="10.00">dumpProtos</text>
</a>
</g>
</g>
<!-- Node3&#45;&gt;Node4 -->
<g id="edge3_Node000003_Node000004" class="edge">
<title>Node3&#45;&gt;Node4</title>
<g id="a_edge3_Node000003_Node000004"><a xlink:title=" ">
<path fill="none" stroke="#63b8ff" d="M279.4,-97.89C271.27,-97.82 263.01,-97.96 255.39,-98.31"/>
<polygon fill="#63b8ff" stroke="#63b8ff" points="279.14,-101.39 289.21,-98.1 279.29,-94.39 279.14,-101.39"/>
</a>
</g>
</g>
<!-- Node3&#45;&gt;Node5 -->
<g id="edge5_Node000003_Node000005" class="edge">
<title>Node3&#45;&gt;Node5</title>
<g id="a_edge5_Node000003_Node000005"><a xlink:title=" ">
<path fill="none" stroke="#63b8ff" d="M299.98,-89.3C281.11,-79.25 256.97,-66.39 240.53,-57.63"/>
<polygon fill="#63b8ff" stroke="#63b8ff" points="298.3,-92.37 308.78,-93.98 301.6,-86.19 298.3,-92.37"/>
</a>
</g>
</g>
<!-- Node4&#45;&gt;Node3 -->
<g id="edge4_Node000004_Node000003" class="edge">
<title>Node4&#45;&gt;Node3</title>
<g id="a_edge4_Node000004_Node000003"><a xlink:title=" ">
<path fill="none" stroke="#63b8ff" d="M266.79,-111.3C274.75,-111.44 282.98,-111.38 290.72,-111.12"/>
<polygon fill="#63b8ff" stroke="#63b8ff" points="267,-107.8 256.9,-110.99 266.78,-114.8 267,-107.8"/>
</a>
</g>
</g>
<!-- Node6 -->
<g id="Node000006" class="node">
<title>Node6</title>
<g id="a_Node000006"><a xlink:href="lapi_8c.html#a68295f56f04fd0d5c0adfb1793a04b4c" target="_top" xlink:title=" ">
<polygon fill="white" stroke="#666666" points="150.5,-57.25 92.5,-57.25 92.5,-38 150.5,-38 150.5,-57.25"/>
<text xml:space="preserve" text-anchor="middle" x="121.5" y="-43.75" font-family="Helvetica,sans-Serif" font-size="10.00">lua_dump</text>
</a>
</g>
</g>
<!-- Node5&#45;&gt;Node6 -->
<g id="edge6_Node000005_Node000006" class="edge">
<title>Node5&#45;&gt;Node6</title>
<g id="a_edge6_Node000005_Node000006"><a xlink:title=" ">
<path fill="none" stroke="#63b8ff" d="M176.2,-47.62C167.65,-47.62 158.88,-47.62 150.98,-47.62"/>
<polygon fill="#63b8ff" stroke="#63b8ff" points="176.12,-51.13 186.12,-47.63 176.12,-44.13 176.12,-51.13"/>
</a>
</g>
</g>
<!-- Node7 -->
<g id="Node000007" class="node">
<title>Node7</title>
<g id="a_Node000007"><a xlink:href="lstrlib_8c.html#abc94e3a13f1b6ddb2c9b20c9fd89e87f" target="_top" xlink:title=" ">
<polygon fill="white" stroke="#666666" points="56.5,-57.25 0,-57.25 0,-38 56.5,-38 56.5,-57.25"/>
<text xml:space="preserve" text-anchor="middle" x="28.25" y="-43.75" font-family="Helvetica,sans-Serif" font-size="10.00">str_dump</text>
</a>
</g>
</g>
<!-- Node6&#45;&gt;Node7 -->
<g id="edge7_Node000006_Node000007" class="edge">
<title>Node6&#45;&gt;Node7</title>
<g id="a_edge7_Node000006_Node000007"><a xlink:title=" ">
<path fill="none" stroke="#63b8ff" d="M80.7,-47.62C72.7,-47.62 64.46,-47.62 56.98,-47.62"/>
<polygon fill="#63b8ff" stroke="#63b8ff" points="80.61,-51.13 90.61,-47.63 80.61,-44.13 80.61,-51.13"/>
</a>
</g>
</g>
<!-- Node8&#45;&gt;Node5 -->
<g id="edge10_Node000008_Node000005" class="edge">
<title>Node8&#45;&gt;Node5</title>
<g id="a_edge10_Node000008_Node000005"><a xlink:title=" ">
<path fill="none" stroke="#63b8ff" d="M289.67,-23.51C276.5,-28.18 262.06,-33.31 249.9,-37.63"/>
<polygon fill="#63b8ff" stroke="#63b8ff" points="290.68,-26.86 298.93,-20.22 288.34,-20.26 290.68,-26.86"/>
</a>
</g>
</g>
<!-- Node9&#45;&gt;Node3 -->
<g id="edge12_Node000009_Node000003" class="edge">
<title>Node9&#45;&gt;Node3</title>
<g id="a_edge12_Node000009_Node000003"><a xlink:title=" ">
<path fill="none" stroke="#63b8ff" d="M394.71,-94.08C385.97,-95.52 377.04,-96.99 368.73,-98.36"/>
<polygon fill="#63b8ff" stroke="#63b8ff" points="395.22,-97.54 404.52,-92.46 394.09,-90.64 395.22,-97.54"/>
</a>
</g>
</g>
</g>
</svg>
