<?xml version="1.0" encoding="UTF-8" standalone="no"?>
<!DOCTYPE svg PUBLIC "-//W3C//DTD SVG 1.1//EN"
 "http://www.w3.org/Graphics/SVG/1.1/DTD/svg11.dtd">
<!-- Generated by graphviz version 13.1.0 (20250701.0955)
 -->
<!-- Title: lua&#45;5.4.7/lfunc.c Pages: 1 -->
<svg width="623pt" height="469pt"
 viewBox="0.00 0.00 623.00 469.00" xmlns="http://www.w3.org/2000/svg" xmlns:xlink="http://www.w3.org/1999/xlink">
<g id="graph0" class="graph" transform="scale(1 1) rotate(0) translate(4 465.25)">
<title>lua&#45;5.4.7/lfunc.c</title>
<!-- Node1 -->
<g id="Node000001" class="node">
<title>Node1</title>
<g id="a_Node000001"><a xlink:title=" ">
<polygon fill="#999999" stroke="#666666" points="329.12,-461.25 243.38,-461.25 243.38,-442 329.12,-442 329.12,-461.25"/>
<text xml:space="preserve" text-anchor="middle" x="286.25" y="-447.75" font-family="Helvetica,sans-Serif" font-size="10.00">lua&#45;5.4.7/lfunc.c</text>
</a>
</g>
</g>
<!-- Node2 -->
<g id="Node000002" class="node">
<title>Node2</title>
<g id="a_Node000002"><a xlink:href="lprefix_8h.html" target="_top" xlink:title=" ">
<polygon fill="white" stroke="#666666" points="50.5,-406 0,-406 0,-386.75 50.5,-386.75 50.5,-406"/>
<text xml:space="preserve" text-anchor="middle" x="25.25" y="-392.5" font-family="Helvetica,sans-Serif" font-size="10.00">lprefix.h</text>
</a>
</g>
</g>
<!-- Node1&#45;&gt;Node2 -->
<g id="edge1_Node000001_Node000002" class="edge">
<title>Node1&#45;&gt;Node2</title>
<g id="a_edge1_Node000001_Node000002"><a xlink:title=" ">
<path fill="none" stroke="#63b8ff" d="M243.23,-442.23C198.47,-433.44 126.37,-419.11 64.25,-406 63.44,-405.83 62.61,-405.65 61.78,-405.48"/>
<polygon fill="#63b8ff" stroke="#63b8ff" points="62.82,-402.12 52.31,-403.43 61.34,-408.96 62.82,-402.12"/>
</a>
</g>
</g>
<!-- Node3 -->
<g id="Node000003" class="node">
<title>Node3</title>
<g id="a_Node000003"><a xlink:title=" ">
<polygon fill="#e0e0e0" stroke="#999999" points="532.88,-19.25 481.62,-19.25 481.62,0 532.88,0 532.88,-19.25"/>
<text xml:space="preserve" text-anchor="middle" x="507.25" y="-5.75" font-family="Helvetica,sans-Serif" font-size="10.00">stddef.h</text>
</a>
</g>
</g>
<!-- Node1&#45;&gt;Node3 -->
<g id="edge2_Node000001_Node000003" class="edge">
<title>Node1&#45;&gt;Node3</title>
<g id="a_edge2_Node000001_Node000003"><a xlink:title=" ">
<path fill="none" stroke="#63b8ff" d="M329.6,-445.57C418.94,-433.93 615.25,-401.59 615.25,-342.12 615.25,-342.12 615.25,-342.12 615.25,-119.12 615.25,-74.76 569.33,-42.12 537.37,-24.78"/>
<polygon fill="#63b8ff" stroke="#63b8ff" points="539.4,-21.88 528.91,-20.38 536.17,-28.1 539.4,-21.88"/>
</a>
</g>
</g>
<!-- Node4 -->
<g id="Node000004" class="node">
<title>Node4</title>
<g id="a_Node000004"><a xlink:href="lua_8h.html" target="_top" xlink:title=" ">
<polygon fill="white" stroke="#666666" points="364.75,-129.75 327.75,-129.75 327.75,-110.5 364.75,-110.5 364.75,-129.75"/>
<text xml:space="preserve" text-anchor="middle" x="346.25" y="-116.25" font-family="Helvetica,sans-Serif" font-size="10.00">lua.h</text>
</a>
</g>
</g>
<!-- Node1&#45;&gt;Node4 -->
<g id="edge3_Node000001_Node000004" class="edge">
<title>Node1&#45;&gt;Node4</title>
<g id="a_edge3_Node000001_Node000004"><a xlink:title=" ">
<path fill="none" stroke="#63b8ff" d="M242.9,-447.09C181.94,-439.49 78.25,-415.74 78.25,-342.12 78.25,-342.12 78.25,-342.12 78.25,-229.62 78.25,-178.73 246.39,-140.39 316.31,-126.65"/>
<polygon fill="#63b8ff" stroke="#63b8ff" points="316.76,-130.12 325.92,-124.8 315.44,-123.25 316.76,-130.12"/>
</a>
</g>
</g>
<!-- Node8 -->
<g id="Node000008" class="node">
<title>Node8</title>
<g id="a_Node000008"><a xlink:href="ldebug_8h.html" target="_top" xlink:title=" ">
<polygon fill="white" stroke="#666666" points="285.62,-406 232.88,-406 232.88,-386.75 285.62,-386.75 285.62,-406"/>
<text xml:space="preserve" text-anchor="middle" x="259.25" y="-392.5" font-family="Helvetica,sans-Serif" font-size="10.00">ldebug.h</text>
</a>
</g>
</g>
<!-- Node1&#45;&gt;Node8 -->
<g id="edge9_Node000001_Node000008" class="edge">
<title>Node1&#45;&gt;Node8</title>
<g id="a_edge9_Node000001_Node000008"><a xlink:title=" ">
<path fill="none" stroke="#63b8ff" d="M281.79,-441.83C278.3,-434.94 273.3,-425.09 268.9,-416.41"/>
<polygon fill="#63b8ff" stroke="#63b8ff" points="272.13,-415.05 264.49,-407.71 265.89,-418.21 272.13,-415.05"/>
</a>
</g>
</g>
<!-- Node9 -->
<g id="Node000009" class="node">
<title>Node9</title>
<g id="a_Node000009"><a xlink:href="lstate_8h.html" target="_top" xlink:title=" ">
<polygon fill="white" stroke="#666666" points="337.38,-350.75 289.12,-350.75 289.12,-331.5 337.38,-331.5 337.38,-350.75"/>
<text xml:space="preserve" text-anchor="middle" x="313.25" y="-337.25" font-family="Helvetica,sans-Serif" font-size="10.00">lstate.h</text>
</a>
</g>
</g>
<!-- Node1&#45;&gt;Node9 -->
<g id="edge40_Node000001_Node000009" class="edge">
<title>Node1&#45;&gt;Node9</title>
<g id="a_edge40_Node000001_Node000009"><a xlink:title=" ">
<path fill="none" stroke="#63b8ff" d="M288.46,-441.75C292.77,-424.42 302.4,-385.73 308.31,-361.99"/>
<polygon fill="#63b8ff" stroke="#63b8ff" points="311.63,-363.14 310.64,-352.6 304.83,-361.45 311.63,-363.14"/>
</a>
</g>
</g>
<!-- Node10 -->
<g id="Node000010" class="node">
<title>Node10</title>
<g id="a_Node000010"><a xlink:href="lobject_8h.html" target="_top" xlink:title=" ">
<polygon fill="white" stroke="#666666" points="372.62,-240.25 319.88,-240.25 319.88,-221 372.62,-221 372.62,-240.25"/>
<text xml:space="preserve" text-anchor="middle" x="346.25" y="-226.75" font-family="Helvetica,sans-Serif" font-size="10.00">lobject.h</text>
</a>
</g>
</g>
<!-- Node1&#45;&gt;Node10 -->
<g id="edge39_Node000001_Node000010" class="edge">
<title>Node1&#45;&gt;Node10</title>
<g id="a_edge39_Node000001_Node000010"><a xlink:title=" ">
<path fill="none" stroke="#63b8ff" d="M256.8,-441.56C210.01,-425.31 125.95,-387.62 146.25,-331.5 169.77,-266.49 257.39,-243.6 308.52,-235.68"/>
<polygon fill="#63b8ff" stroke="#63b8ff" points="308.84,-239.17 318.25,-234.3 307.86,-232.24 308.84,-239.17"/>
</a>
</g>
</g>
<!-- Node14 -->
<g id="Node000014" class="node">
<title>Node14</title>
<g id="a_Node000014"><a xlink:href="lmem_8h.html" target="_top" xlink:title=" ">
<polygon fill="white" stroke="#666666" points="587.38,-240.25 539.12,-240.25 539.12,-221 587.38,-221 587.38,-240.25"/>
<text xml:space="preserve" text-anchor="middle" x="563.25" y="-226.75" font-family="Helvetica,sans-Serif" font-size="10.00">lmem.h</text>
</a>
</g>
</g>
<!-- Node1&#45;&gt;Node14 -->
<g id="edge38_Node000001_Node000014" class="edge">
<title>Node1&#45;&gt;Node14</title>
<g id="a_edge38_Node000001_Node000014"><a xlink:title=" ">
<path fill="none" stroke="#63b8ff" d="M329.33,-447.84C366.41,-443.59 419.84,-432.9 458.25,-406 513.9,-367.02 545.18,-288.23 557.31,-251.42"/>
<polygon fill="#63b8ff" stroke="#63b8ff" points="560.58,-252.7 560.25,-242.11 553.9,-250.59 560.58,-252.7"/>
</a>
</g>
</g>
<!-- Node16 -->
<g id="Node000016" class="node">
<title>Node16</title>
<g id="a_Node000016"><a xlink:href="ldo_8h.html" target="_top" xlink:title=" ">
<polygon fill="white" stroke="#666666" points="448.75,-406 411.75,-406 411.75,-386.75 448.75,-386.75 448.75,-406"/>
<text xml:space="preserve" text-anchor="middle" x="430.25" y="-392.5" font-family="Helvetica,sans-Serif" font-size="10.00">ldo.h</text>
</a>
</g>
</g>
<!-- Node1&#45;&gt;Node16 -->
<g id="edge28_Node000001_Node000016" class="edge">
<title>Node1&#45;&gt;Node16</title>
<g id="a_edge28_Node000001_Node000016"><a xlink:title=" ">
<path fill="none" stroke="#63b8ff" d="M310.68,-441.59C335.67,-432.35 374.51,-417.99 401.1,-408.15"/>
<polygon fill="#63b8ff" stroke="#63b8ff" points="402.08,-411.52 410.25,-404.77 399.66,-404.96 402.08,-411.52"/>
</a>
</g>
</g>
<!-- Node17 -->
<g id="Node000017" class="node">
<title>Node17</title>
<g id="a_Node000017"><a xlink:href="lfunc_8h.html" target="_top" xlink:title=" ">
<polygon fill="white" stroke="#666666" points="200.88,-350.75 155.62,-350.75 155.62,-331.5 200.88,-331.5 200.88,-350.75"/>
<text xml:space="preserve" text-anchor="middle" x="178.25" y="-337.25" font-family="Helvetica,sans-Serif" font-size="10.00">lfunc.h</text>
</a>
</g>
</g>
<!-- Node1&#45;&gt;Node17 -->
<g id="edge33_Node000001_Node000017" class="edge">
<title>Node1&#45;&gt;Node17</title>
<g id="a_edge33_Node000001_Node000017"><a xlink:title=" ">
<path fill="none" stroke="#63b8ff" d="M270.92,-441.57C257.69,-433.31 238.51,-420.25 224.25,-406 210.52,-392.28 197.87,-374.12 189.32,-360.67"/>
<polygon fill="#63b8ff" stroke="#63b8ff" points="192.43,-359.04 184.2,-352.36 186.47,-362.71 192.43,-359.04"/>
</a>
</g>
</g>
<!-- Node18 -->
<g id="Node000018" class="node">
<title>Node18</title>
<g id="a_Node000018"><a xlink:href="lgc_8h.html" target="_top" xlink:title=" ">
<polygon fill="white" stroke="#666666" points="378.75,-406 341.75,-406 341.75,-386.75 378.75,-386.75 378.75,-406"/>
<text xml:space="preserve" text-anchor="middle" x="360.25" y="-392.5" font-family="Helvetica,sans-Serif" font-size="10.00">lgc.h</text>
</a>
</g>
</g>
<!-- Node1&#45;&gt;Node18 -->
<g id="edge35_Node000001_Node000018" class="edge">
<title>Node1&#45;&gt;Node18</title>
<g id="a_edge35_Node000001_Node000018"><a xlink:title=" ">
<path fill="none" stroke="#63b8ff" d="M298.8,-441.59C309.71,-433.74 325.75,-422.2 338.71,-412.87"/>
<polygon fill="#63b8ff" stroke="#63b8ff" points="340.58,-415.84 346.65,-407.16 336.49,-410.16 340.58,-415.84"/>
</a>
</g>
</g>
<!-- Node4&#45;&gt;Node3 -->
<g id="edge5_Node000004_Node000003" class="edge">
<title>Node4&#45;&gt;Node3</title>
<g id="a_edge5_Node000004_Node000003"><a xlink:title=" ">
<path fill="none" stroke="#63b8ff" d="M348.64,-110.38C352.82,-96.72 362.72,-70.31 380.25,-55.25 405.76,-33.33 442.74,-21.95 470.22,-16.19"/>
<polygon fill="#63b8ff" stroke="#63b8ff" points="470.7,-19.66 479.86,-14.34 469.38,-12.79 470.7,-19.66"/>
</a>
</g>
</g>
<!-- Node5 -->
<g id="Node000005" class="node">
<title>Node5</title>
<g id="a_Node000005"><a xlink:title=" ">
<polygon fill="#e0e0e0" stroke="#999999" points="440.88,-74.5 389.62,-74.5 389.62,-55.25 440.88,-55.25 440.88,-74.5"/>
<text xml:space="preserve" text-anchor="middle" x="415.25" y="-61" font-family="Helvetica,sans-Serif" font-size="10.00">stdarg.h</text>
</a>
</g>
</g>
<!-- Node4&#45;&gt;Node5 -->
<g id="edge4_Node000004_Node000005" class="edge">
<title>Node4&#45;&gt;Node5</title>
<g id="a_edge4_Node000004_Node000005"><a xlink:title=" ">
<path fill="none" stroke="#63b8ff" d="M357.95,-110.09C368.03,-102.32 382.79,-90.92 394.81,-81.65"/>
<polygon fill="#63b8ff" stroke="#63b8ff" points="396.74,-84.58 402.52,-75.7 392.46,-79.04 396.74,-84.58"/>
</a>
</g>
</g>
<!-- Node6 -->
<g id="Node000006" class="node">
<title>Node6</title>
<g id="a_Node000006"><a xlink:href="luaconf_8h.html" target="_top" xlink:title=" ">
<polygon fill="white" stroke="#666666" points="333.12,-74.5 277.38,-74.5 277.38,-55.25 333.12,-55.25 333.12,-74.5"/>
<text xml:space="preserve" text-anchor="middle" x="305.25" y="-61" font-family="Helvetica,sans-Serif" font-size="10.00">luaconf.h</text>
</a>
</g>
</g>
<!-- Node4&#45;&gt;Node6 -->
<g id="edge6_Node000004_Node000006" class="edge">
<title>Node4&#45;&gt;Node6</title>
<g id="a_edge6_Node000004_Node000006"><a xlink:title=" ">
<path fill="none" stroke="#63b8ff" d="M339.48,-110.33C333.93,-103.13 325.91,-92.71 319.02,-83.76"/>
<polygon fill="#63b8ff" stroke="#63b8ff" points="321.96,-81.85 313.09,-76.06 316.42,-86.12 321.96,-81.85"/>
</a>
</g>
</g>
<!-- Node6&#45;&gt;Node3 -->
<g id="edge8_Node000006_Node000003" class="edge">
<title>Node6&#45;&gt;Node3</title>
<g id="a_edge8_Node000006_Node000003"><a xlink:title=" ">
<path fill="none" stroke="#63b8ff" d="M333.34,-56.47C369.05,-47.06 430.82,-30.77 470.32,-20.36"/>
<polygon fill="#63b8ff" stroke="#63b8ff" points="471.08,-23.78 479.86,-17.85 469.29,-17.01 471.08,-23.78"/>
</a>
</g>
</g>
<!-- Node7 -->
<g id="Node000007" class="node">
<title>Node7</title>
<g id="a_Node000007"><a xlink:title=" ">
<polygon fill="#e0e0e0" stroke="#999999" points="397,-19.25 349.5,-19.25 349.5,0 397,0 397,-19.25"/>
<text xml:space="preserve" text-anchor="middle" x="373.25" y="-5.75" font-family="Helvetica,sans-Serif" font-size="10.00">limits.h</text>
</a>
</g>
</g>
<!-- Node6&#45;&gt;Node7 -->
<g id="edge7_Node000006_Node000007" class="edge">
<title>Node6&#45;&gt;Node7</title>
<g id="a_edge7_Node000006_Node000007"><a xlink:title=" ">
<path fill="none" stroke="#63b8ff" d="M316.79,-54.84C326.71,-47.07 341.26,-35.67 353.11,-26.4"/>
<polygon fill="#63b8ff" stroke="#63b8ff" points="354.98,-29.38 360.69,-20.46 350.66,-23.87 354.98,-29.38"/>
</a>
</g>
</g>
<!-- Node8&#45;&gt;Node9 -->
<g id="edge10_Node000008_Node000009" class="edge">
<title>Node8&#45;&gt;Node9</title>
<g id="a_edge10_Node000008_Node000009"><a xlink:title=" ">
<path fill="none" stroke="#63b8ff" d="M268.17,-386.58C275.7,-379.15 286.72,-368.29 295.98,-359.16"/>
<polygon fill="#63b8ff" stroke="#63b8ff" points="298.4,-361.69 303.06,-352.17 293.48,-356.7 298.4,-361.69"/>
</a>
</g>
</g>
<!-- Node9&#45;&gt;Node4 -->
<g id="edge11_Node000009_Node000004" class="edge">
<title>Node9&#45;&gt;Node4</title>
<g id="a_edge11_Node000009_Node000004"><a xlink:title=" ">
<path fill="none" stroke="#63b8ff" d="M288.7,-336.01C254.47,-328.93 198,-311.67 211.25,-276.25 234.04,-215.34 292.75,-162.57 324.72,-137.2"/>
<polygon fill="#63b8ff" stroke="#63b8ff" points="326.76,-140.04 332.52,-131.15 322.47,-134.51 326.76,-140.04"/>
</a>
</g>
</g>
<!-- Node9&#45;&gt;Node10 -->
<g id="edge12_Node000009_Node000010" class="edge">
<title>Node9&#45;&gt;Node10</title>
<g id="a_edge12_Node000009_Node000010"><a xlink:title=" ">
<path fill="none" stroke="#63b8ff" d="M312.41,-331.18C311.53,-318.57 311.04,-295.03 317.25,-276.25 320.4,-266.73 326.08,-257.27 331.59,-249.52"/>
<polygon fill="#63b8ff" stroke="#63b8ff" points="334.3,-251.74 337.59,-241.67 328.74,-247.5 334.3,-251.74"/>
</a>
</g>
</g>
<!-- Node12 -->
<g id="Node000012" class="node">
<title>Node12</title>
<g id="a_Node000012"><a xlink:href="ltm_8h.html" target="_top" xlink:title=" ">
<polygon fill="white" stroke="#666666" points="364.12,-295.5 326.38,-295.5 326.38,-276.25 364.12,-276.25 364.12,-295.5"/>
<text xml:space="preserve" text-anchor="middle" x="345.25" y="-282" font-family="Helvetica,sans-Serif" font-size="10.00">ltm.h</text>
</a>
</g>
</g>
<!-- Node9&#45;&gt;Node12 -->
<g id="edge19_Node000009_Node000012" class="edge">
<title>Node9&#45;&gt;Node12</title>
<g id="a_edge19_Node000009_Node000012"><a xlink:title=" ">
<path fill="none" stroke="#63b8ff" d="M318.53,-331.33C322.72,-324.36 328.73,-314.37 333.98,-305.62"/>
<polygon fill="#63b8ff" stroke="#63b8ff" points="336.92,-307.53 339.07,-297.16 330.92,-303.93 336.92,-307.53"/>
</a>
</g>
</g>
<!-- Node13 -->
<g id="Node000013" class="node">
<title>Node13</title>
<g id="a_Node000013"><a xlink:href="lzio_8h.html" target="_top" xlink:title=" ">
<polygon fill="white" stroke="#666666" points="497.88,-295.5 458.62,-295.5 458.62,-276.25 497.88,-276.25 497.88,-295.5"/>
<text xml:space="preserve" text-anchor="middle" x="478.25" y="-282" font-family="Helvetica,sans-Serif" font-size="10.00">lzio.h</text>
</a>
</g>
</g>
<!-- Node9&#45;&gt;Node13 -->
<g id="edge21_Node000009_Node000013" class="edge">
<title>Node9&#45;&gt;Node13</title>
<g id="a_edge21_Node000009_Node000013"><a xlink:title=" ">
<path fill="none" stroke="#63b8ff" d="M337.6,-332.27C366.82,-322.84 415.84,-307.02 447.61,-296.76"/>
<polygon fill="#63b8ff" stroke="#63b8ff" points="448.58,-300.13 457.02,-293.73 446.43,-293.47 448.58,-300.13"/>
</a>
</g>
</g>
<!-- Node15 -->
<g id="Node000015" class="node">
<title>Node15</title>
<g id="a_Node000015"><a xlink:title=" ">
<polygon fill="#e0e0e0" stroke="#999999" points="270.12,-295.5 220.38,-295.5 220.38,-276.25 270.12,-276.25 270.12,-295.5"/>
<text xml:space="preserve" text-anchor="middle" x="245.25" y="-282" font-family="Helvetica,sans-Serif" font-size="10.00">signal.h</text>
</a>
</g>
</g>
<!-- Node9&#45;&gt;Node15 -->
<g id="edge27_Node000009_Node000015" class="edge">
<title>Node9&#45;&gt;Node15</title>
<g id="a_edge27_Node000009_Node000015"><a xlink:title=" ">
<path fill="none" stroke="#63b8ff" d="M301.71,-331.09C291.79,-323.32 277.24,-311.92 265.39,-302.65"/>
<polygon fill="#63b8ff" stroke="#63b8ff" points="267.84,-300.12 257.81,-296.71 263.52,-305.63 267.84,-300.12"/>
</a>
</g>
</g>
<!-- Node10&#45;&gt;Node4 -->
<g id="edge18_Node000010_Node000004" class="edge">
<title>Node10&#45;&gt;Node4</title>
<g id="a_edge18_Node000010_Node000004"><a xlink:title=" ">
<path fill="none" stroke="#63b8ff" d="M346.25,-220.75C346.25,-203.5 346.25,-165.08 346.25,-141.31"/>
<polygon fill="#63b8ff" stroke="#63b8ff" points="349.75,-141.64 346.25,-131.64 342.75,-141.64 349.75,-141.64"/>
</a>
</g>
</g>
<!-- Node10&#45;&gt;Node5 -->
<g id="edge13_Node000010_Node000005" class="edge">
<title>Node10&#45;&gt;Node5</title>
<g id="a_edge13_Node000010_Node000005"><a xlink:title=" ">
<path fill="none" stroke="#63b8ff" d="M349.96,-220.82C360.72,-195.28 392.15,-120.7 407.13,-85.15"/>
<polygon fill="#63b8ff" stroke="#63b8ff" points="410.28,-86.69 410.93,-76.12 403.83,-83.97 410.28,-86.69"/>
</a>
</g>
</g>
<!-- Node11 -->
<g id="Node000011" class="node">
<title>Node11</title>
<g id="a_Node000011"><a xlink:href="llimits_8h.html" target="_top" xlink:title=" ">
<polygon fill="white" stroke="#666666" points="509.12,-185 459.38,-185 459.38,-165.75 509.12,-165.75 509.12,-185"/>
<text xml:space="preserve" text-anchor="middle" x="484.25" y="-171.5" font-family="Helvetica,sans-Serif" font-size="10.00">llimits.h</text>
</a>
</g>
</g>
<!-- Node10&#45;&gt;Node11 -->
<g id="edge14_Node000010_Node000011" class="edge">
<title>Node10&#45;&gt;Node11</title>
<g id="a_edge14_Node000010_Node000011"><a xlink:title=" ">
<path fill="none" stroke="#63b8ff" d="M369.66,-220.59C391.77,-212.06 425.17,-199.17 450.22,-189.51"/>
<polygon fill="#63b8ff" stroke="#63b8ff" points="451.24,-192.86 459.31,-186 448.72,-186.33 451.24,-192.86"/>
</a>
</g>
</g>
<!-- Node11&#45;&gt;Node3 -->
<g id="edge16_Node000011_Node000003" class="edge">
<title>Node11&#45;&gt;Node3</title>
<g id="a_edge16_Node000011_Node000003"><a xlink:title=" ">
<path fill="none" stroke="#63b8ff" d="M485.49,-165.57C489.04,-140.25 499.37,-66.75 504.41,-30.84"/>
<polygon fill="#63b8ff" stroke="#63b8ff" points="507.87,-31.36 505.8,-20.97 500.94,-30.39 507.87,-31.36"/>
</a>
</g>
</g>
<!-- Node11&#45;&gt;Node4 -->
<g id="edge17_Node000011_Node000004" class="edge">
<title>Node11&#45;&gt;Node4</title>
<g id="a_edge17_Node000011_Node000004"><a xlink:title=" ">
<path fill="none" stroke="#63b8ff" d="M460.84,-165.34C437.26,-156.24 400.83,-142.18 375.39,-132.37"/>
<polygon fill="#63b8ff" stroke="#63b8ff" points="376.9,-129.2 366.31,-128.87 374.38,-135.73 376.9,-129.2"/>
</a>
</g>
</g>
<!-- Node11&#45;&gt;Node7 -->
<g id="edge15_Node000011_Node000007" class="edge">
<title>Node11&#45;&gt;Node7</title>
<g id="a_edge15_Node000011_Node000007"><a xlink:title=" ">
<path fill="none" stroke="#63b8ff" d="M483.91,-165.28C482.68,-143.88 476.95,-89.52 450.25,-55.25 439.3,-41.19 422.57,-30.74 407.51,-23.5"/>
<polygon fill="#63b8ff" stroke="#63b8ff" points="409.38,-20.5 398.82,-19.61 406.52,-26.89 409.38,-20.5"/>
</a>
</g>
</g>
<!-- Node12&#45;&gt;Node10 -->
<g id="edge20_Node000012_Node000010" class="edge">
<title>Node12&#45;&gt;Node10</title>
<g id="a_edge20_Node000012_Node000010"><a xlink:title=" ">
<path fill="none" stroke="#63b8ff" d="M345.42,-276.08C345.54,-269.57 345.71,-260.42 345.87,-252.12"/>
<polygon fill="#63b8ff" stroke="#63b8ff" points="349.36,-252.19 346.05,-242.12 342.37,-252.05 349.36,-252.19"/>
</a>
</g>
</g>
<!-- Node13&#45;&gt;Node4 -->
<g id="edge22_Node000013_Node000004" class="edge">
<title>Node13&#45;&gt;Node4</title>
<g id="a_edge22_Node000013_Node000004"><a xlink:title=" ">
<path fill="none" stroke="#63b8ff" d="M471.15,-276.07C450.2,-250.08 388.34,-173.34 360.33,-138.59"/>
<polygon fill="#63b8ff" stroke="#63b8ff" points="363.33,-136.74 354.33,-131.15 357.88,-141.13 363.33,-136.74"/>
</a>
</g>
</g>
<!-- Node13&#45;&gt;Node14 -->
<g id="edge23_Node000013_Node000014" class="edge">
<title>Node13&#45;&gt;Node14</title>
<g id="a_edge23_Node000013_Node000014"><a xlink:title=" ">
<path fill="none" stroke="#63b8ff" d="M492.67,-275.84C505.37,-267.89 524.12,-256.14 539.11,-246.75"/>
<polygon fill="#63b8ff" stroke="#63b8ff" points="540.86,-249.78 547.48,-241.51 537.15,-243.85 540.86,-249.78"/>
</a>
</g>
</g>
<!-- Node14&#45;&gt;Node3 -->
<g id="edge24_Node000014_Node000003" class="edge">
<title>Node14&#45;&gt;Node3</title>
<g id="a_edge24_Node000014_Node000003"><a xlink:title=" ">
<path fill="none" stroke="#63b8ff" d="M560.99,-220.77C552.72,-188.44 524.04,-76.28 512.31,-30.41"/>
<polygon fill="#63b8ff" stroke="#63b8ff" points="515.72,-29.64 509.86,-20.82 508.94,-31.37 515.72,-29.64"/>
</a>
</g>
</g>
<!-- Node14&#45;&gt;Node4 -->
<g id="edge26_Node000014_Node000004" class="edge">
<title>Node14&#45;&gt;Node4</title>
<g id="a_edge26_Node000014_Node000004"><a xlink:title=" ">
<path fill="none" stroke="#63b8ff" d="M559.44,-220.68C553.04,-206.74 538.77,-179.96 518.25,-165.75 474.95,-135.78 412.92,-125.94 376.39,-122.7"/>
<polygon fill="#63b8ff" stroke="#63b8ff" points="376.79,-119.22 366.55,-121.96 376.26,-126.2 376.79,-119.22"/>
</a>
</g>
</g>
<!-- Node14&#45;&gt;Node11 -->
<g id="edge25_Node000014_Node000011" class="edge">
<title>Node14&#45;&gt;Node11</title>
<g id="a_edge25_Node000014_Node000011"><a xlink:title=" ">
<path fill="none" stroke="#63b8ff" d="M549.85,-220.59C538.16,-212.71 520.95,-201.11 507.09,-191.77"/>
<polygon fill="#63b8ff" stroke="#63b8ff" points="509.22,-188.99 498.97,-186.3 505.31,-194.79 509.22,-188.99"/>
</a>
</g>
</g>
<!-- Node16&#45;&gt;Node9 -->
<g id="edge31_Node000016_Node000009" class="edge">
<title>Node16&#45;&gt;Node9</title>
<g id="a_edge31_Node000016_Node000009"><a xlink:title=" ">
<path fill="none" stroke="#63b8ff" d="M411.45,-386.82C393.11,-378.47 364.9,-365.63 343.41,-355.85"/>
<polygon fill="#63b8ff" stroke="#63b8ff" points="345.11,-352.78 334.55,-351.82 342.21,-359.15 345.11,-352.78"/>
</a>
</g>
</g>
<!-- Node16&#45;&gt;Node10 -->
<g id="edge30_Node000016_Node000010" class="edge">
<title>Node16&#45;&gt;Node10</title>
<g id="a_edge30_Node000016_Node000010"><a xlink:title=" ">
<path fill="none" stroke="#63b8ff" d="M428.56,-386.43C424.39,-365.8 412.2,-313.75 389.25,-276.25 382.9,-265.87 373.77,-255.95 365.55,-248.12"/>
<polygon fill="#63b8ff" stroke="#63b8ff" points="368.05,-245.65 358.29,-241.52 363.34,-250.83 368.05,-245.65"/>
</a>
</g>
</g>
<!-- Node16&#45;&gt;Node11 -->
<g id="edge29_Node000016_Node000011" class="edge">
<title>Node16&#45;&gt;Node11</title>
<g id="a_edge29_Node000016_Node000011"><a xlink:title=" ">
<path fill="none" stroke="#63b8ff" d="M441.03,-386.28C459.11,-370.21 494.8,-334.73 507.25,-295.5 518.2,-260.99 504.08,-219.12 493.62,-195.33"/>
<polygon fill="#63b8ff" stroke="#63b8ff" points="496.94,-194.17 489.54,-186.59 490.59,-197.13 496.94,-194.17"/>
</a>
</g>
</g>
<!-- Node16&#45;&gt;Node13 -->
<g id="edge32_Node000016_Node000013" class="edge">
<title>Node16&#45;&gt;Node13</title>
<g id="a_edge32_Node000016_Node000013"><a xlink:title=" ">
<path fill="none" stroke="#63b8ff" d="M434.18,-386.5C441.91,-369.01 459.27,-329.77 469.75,-306.09"/>
<polygon fill="#63b8ff" stroke="#63b8ff" points="472.81,-307.82 473.66,-297.26 466.41,-304.99 472.81,-307.82"/>
</a>
</g>
</g>
<!-- Node17&#45;&gt;Node10 -->
<g id="edge34_Node000017_Node000010" class="edge">
<title>Node17&#45;&gt;Node10</title>
<g id="a_edge34_Node000017_Node000010"><a xlink:title=" ">
<path fill="none" stroke="#63b8ff" d="M180.47,-331.35C184.38,-317.64 193.78,-291.16 211.25,-276.25 238.76,-252.76 279.02,-241.54 308.41,-236.24"/>
<polygon fill="#63b8ff" stroke="#63b8ff" points="308.68,-239.74 317.99,-234.67 307.55,-232.84 308.68,-239.74"/>
</a>
</g>
</g>
<!-- Node18&#45;&gt;Node9 -->
<g id="edge37_Node000018_Node000009" class="edge">
<title>Node18&#45;&gt;Node9</title>
<g id="a_edge37_Node000018_Node000009"><a xlink:title=" ">
<path fill="none" stroke="#63b8ff" d="M352.49,-386.58C346.06,-379.3 336.74,-368.73 328.79,-359.73"/>
<polygon fill="#63b8ff" stroke="#63b8ff" points="331.42,-357.43 322.18,-352.24 326.17,-362.06 331.42,-357.43"/>
</a>
</g>
</g>
<!-- Node18&#45;&gt;Node10 -->
<g id="edge36_Node000018_Node000010" class="edge">
<title>Node18&#45;&gt;Node10</title>
<g id="a_edge36_Node000018_Node000010"><a xlink:title=" ">
<path fill="none" stroke="#63b8ff" d="M363.45,-386.52C370.21,-366.49 384.43,-316.33 373.25,-276.25 370.64,-266.9 365.48,-257.55 360.36,-249.84"/>
<polygon fill="#63b8ff" stroke="#63b8ff" points="363.21,-247.81 354.54,-241.73 357.53,-251.9 363.21,-247.81"/>
</a>
</g>
</g>
</g>
</svg>
