<?xml version="1.0" encoding="UTF-8" standalone="no"?>
<!DOCTYPE svg PUBLIC "-//W3C//DTD SVG 1.1//EN"
 "http://www.w3.org/Graphics/SVG/1.1/DTD/svg11.dtd">
<!-- Generated by graphviz version 13.1.0 (20250701.0955)
 -->
<!-- Title: lua&#45;5.4.7/lfunc.h Pages: 1 -->
<svg width="1037pt" height="138pt"
 viewBox="0.00 0.00 1037.00 138.00" xmlns="http://www.w3.org/2000/svg" xmlns:xlink="http://www.w3.org/1999/xlink">
<g id="graph0" class="graph" transform="scale(1 1) rotate(0) translate(4 133.75)">
<title>lua&#45;5.4.7/lfunc.h</title>
<!-- Node1 -->
<g id="Node000001" class="node">
<title>Node1</title>
<g id="a_Node000001"><a xlink:title=" ">
<polygon fill="#999999" stroke="#666666" points="541.75,-129.75 456,-129.75 456,-110.5 541.75,-110.5 541.75,-129.75"/>
<text xml:space="preserve" text-anchor="middle" x="498.88" y="-116.25" font-family="Helvetica,sans-Serif" font-size="10.00">lua&#45;5.4.7/lfunc.h</text>
</a>
</g>
</g>
<!-- Node2 -->
<g id="Node000002" class="node">
<title>Node2</title>
<g id="a_Node000002"><a xlink:href="lapi_8c.html" target="_top" xlink:title=" ">
<polygon fill="white" stroke="#666666" points="79.75,-74.5 0,-74.5 0,-55.25 79.75,-55.25 79.75,-74.5"/>
<text xml:space="preserve" text-anchor="middle" x="39.88" y="-61" font-family="Helvetica,sans-Serif" font-size="10.00">lua&#45;5.4.7/lapi.c</text>
</a>
</g>
</g>
<!-- Node1&#45;&gt;Node2 -->
<g id="edge1_Node000001_Node000002" class="edge">
<title>Node1&#45;&gt;Node2</title>
<g id="a_edge1_Node000001_Node000002"><a xlink:title=" ">
<path fill="none" stroke="#63b8ff" d="M444.6,-114.36C365.97,-107.21 215.9,-92.57 88.88,-74.5 86.05,-74.1 83.14,-73.66 80.22,-73.19"/>
<polygon fill="#63b8ff" stroke="#63b8ff" points="443.89,-117.81 454.16,-115.23 444.52,-110.84 443.89,-117.81"/>
</a>
</g>
</g>
<!-- Node4 -->
<g id="Node000004" class="node">
<title>Node4</title>
<g id="a_Node000004"><a xlink:href="ldebug_8c.html" target="_top" xlink:title=" ">
<polygon fill="white" stroke="#666666" points="191.5,-74.5 98.25,-74.5 98.25,-55.25 191.5,-55.25 191.5,-74.5"/>
<text xml:space="preserve" text-anchor="middle" x="144.88" y="-61" font-family="Helvetica,sans-Serif" font-size="10.00">lua&#45;5.4.7/ldebug.c</text>
</a>
</g>
</g>
<!-- Node1&#45;&gt;Node4 -->
<g id="edge3_Node000001_Node000004" class="edge">
<title>Node1&#45;&gt;Node4</title>
<g id="a_edge3_Node000001_Node000004"><a xlink:title=" ">
<path fill="none" stroke="#63b8ff" d="M444.7,-111.16C384.79,-102.33 285.41,-87.59 199.88,-74.5 197.3,-74.11 194.65,-73.7 191.98,-73.28"/>
<polygon fill="#63b8ff" stroke="#63b8ff" points="443.88,-114.58 454.28,-112.58 444.9,-107.65 443.88,-114.58"/>
</a>
</g>
</g>
<!-- Node5 -->
<g id="Node000005" class="node">
<title>Node5</title>
<g id="a_Node000005"><a xlink:href="ldo_8c.html" target="_top" xlink:title=" ">
<polygon fill="white" stroke="#666666" points="286.62,-74.5 209.12,-74.5 209.12,-55.25 286.62,-55.25 286.62,-74.5"/>
<text xml:space="preserve" text-anchor="middle" x="247.88" y="-61" font-family="Helvetica,sans-Serif" font-size="10.00">lua&#45;5.4.7/ldo.c</text>
</a>
</g>
</g>
<!-- Node1&#45;&gt;Node5 -->
<g id="edge5_Node000001_Node000005" class="edge">
<title>Node1&#45;&gt;Node5</title>
<g id="a_edge5_Node000001_Node000005"><a xlink:title=" ">
<path fill="none" stroke="#63b8ff" d="M445,-107.69C397.45,-97.61 329.29,-83.15 286.85,-74.14"/>
<polygon fill="#63b8ff" stroke="#63b8ff" points="444.02,-111.07 454.53,-109.72 445.48,-104.22 444.02,-111.07"/>
</a>
</g>
</g>
<!-- Node6 -->
<g id="Node000006" class="node">
<title>Node6</title>
<g id="a_Node000006"><a xlink:href="lfunc_8c.html" target="_top" xlink:title=" ">
<polygon fill="white" stroke="#666666" points="390.75,-74.5 305,-74.5 305,-55.25 390.75,-55.25 390.75,-74.5"/>
<text xml:space="preserve" text-anchor="middle" x="347.88" y="-61" font-family="Helvetica,sans-Serif" font-size="10.00">lua&#45;5.4.7/lfunc.c</text>
</a>
</g>
</g>
<!-- Node1&#45;&gt;Node6 -->
<g id="edge7_Node000001_Node000006" class="edge">
<title>Node1&#45;&gt;Node6</title>
<g id="a_edge7_Node000001_Node000006"><a xlink:title=" ">
<path fill="none" stroke="#63b8ff" d="M462.51,-106.3C435.06,-96.62 398.06,-83.57 373.62,-74.95"/>
<polygon fill="#63b8ff" stroke="#63b8ff" points="461.24,-109.56 471.83,-109.59 463.57,-102.96 461.24,-109.56"/>
</a>
</g>
</g>
<!-- Node7 -->
<g id="Node000007" class="node">
<title>Node7</title>
<g id="a_Node000007"><a xlink:href="lgc_8c.html" target="_top" xlink:title=" ">
<polygon fill="white" stroke="#666666" points="486.62,-74.5 409.12,-74.5 409.12,-55.25 486.62,-55.25 486.62,-74.5"/>
<text xml:space="preserve" text-anchor="middle" x="447.88" y="-61" font-family="Helvetica,sans-Serif" font-size="10.00">lua&#45;5.4.7/lgc.c</text>
</a>
</g>
</g>
<!-- Node1&#45;&gt;Node7 -->
<g id="edge9_Node000001_Node000007" class="edge">
<title>Node1&#45;&gt;Node7</title>
<g id="a_edge9_Node000001_Node000007"><a xlink:title=" ">
<path fill="none" stroke="#63b8ff" d="M482.51,-102.04C473.86,-93 463.58,-82.27 456.48,-74.86"/>
<polygon fill="#63b8ff" stroke="#63b8ff" points="479.96,-104.44 489.41,-109.24 485.02,-99.6 479.96,-104.44"/>
</a>
</g>
</g>
<!-- Node8 -->
<g id="Node000008" class="node">
<title>Node8</title>
<g id="a_Node000008"><a xlink:href="lparser_8c.html" target="_top" xlink:title=" ">
<polygon fill="white" stroke="#666666" points="597.5,-74.5 504.25,-74.5 504.25,-55.25 597.5,-55.25 597.5,-74.5"/>
<text xml:space="preserve" text-anchor="middle" x="550.88" y="-61" font-family="Helvetica,sans-Serif" font-size="10.00">lua&#45;5.4.7/lparser.c</text>
</a>
</g>
</g>
<!-- Node1&#45;&gt;Node8 -->
<g id="edge11_Node000001_Node000008" class="edge">
<title>Node1&#45;&gt;Node8</title>
<g id="a_edge11_Node000001_Node000008"><a xlink:title=" ">
<path fill="none" stroke="#63b8ff" d="M515.28,-102.32C524.17,-93.23 534.79,-82.35 542.1,-74.86"/>
<polygon fill="#63b8ff" stroke="#63b8ff" points="513,-99.65 508.52,-109.25 518.01,-104.54 513,-99.65"/>
</a>
</g>
</g>
<!-- Node9 -->
<g id="Node000009" class="node">
<title>Node9</title>
<g id="a_Node000009"><a xlink:href="lstate_8c.html" target="_top" xlink:title=" ">
<polygon fill="white" stroke="#666666" points="704.25,-74.5 615.5,-74.5 615.5,-55.25 704.25,-55.25 704.25,-74.5"/>
<text xml:space="preserve" text-anchor="middle" x="659.88" y="-61" font-family="Helvetica,sans-Serif" font-size="10.00">lua&#45;5.4.7/lstate.c</text>
</a>
</g>
</g>
<!-- Node1&#45;&gt;Node9 -->
<g id="edge13_Node000001_Node000009" class="edge">
<title>Node1&#45;&gt;Node9</title>
<g id="a_edge13_Node000001_Node000009"><a xlink:title=" ">
<path fill="none" stroke="#63b8ff" d="M536.87,-106.56C566.21,-96.85 606.13,-83.65 632.43,-74.95"/>
<polygon fill="#63b8ff" stroke="#63b8ff" points="536.02,-103.15 527.62,-109.62 538.22,-109.8 536.02,-103.15"/>
</a>
</g>
</g>
<!-- Node10 -->
<g id="Node000010" class="node">
<title>Node10</title>
<g id="a_Node000010"><a xlink:href="ltests_8c.html" target="_top" xlink:title=" ">
<polygon fill="white" stroke="#666666" points="811.25,-74.5 722.5,-74.5 722.5,-55.25 811.25,-55.25 811.25,-74.5"/>
<text xml:space="preserve" text-anchor="middle" x="766.88" y="-61" font-family="Helvetica,sans-Serif" font-size="10.00">lua&#45;5.4.7/ltests.c</text>
</a>
</g>
</g>
<!-- Node1&#45;&gt;Node10 -->
<g id="edge15_Node000001_Node000010" class="edge">
<title>Node1&#45;&gt;Node10</title>
<g id="a_edge15_Node000001_Node000010"><a xlink:title=" ">
<path fill="none" stroke="#63b8ff" d="M553.42,-108.29C603.19,-98.4 675.85,-83.96 722.24,-74.74"/>
<polygon fill="#63b8ff" stroke="#63b8ff" points="552.84,-104.83 543.72,-110.22 554.21,-111.7 552.84,-104.83"/>
</a>
</g>
</g>
<!-- Node11 -->
<g id="Node000011" class="node">
<title>Node11</title>
<g id="a_Node000011"><a xlink:href="lundump_8c.html" target="_top" xlink:title=" ">
<polygon fill="white" stroke="#666666" points="930.62,-74.5 829.12,-74.5 829.12,-55.25 930.62,-55.25 930.62,-74.5"/>
<text xml:space="preserve" text-anchor="middle" x="879.88" y="-61" font-family="Helvetica,sans-Serif" font-size="10.00">lua&#45;5.4.7/lundump.c</text>
</a>
</g>
</g>
<!-- Node1&#45;&gt;Node11 -->
<g id="edge16_Node000001_Node000011" class="edge">
<title>Node1&#45;&gt;Node11</title>
<g id="a_edge16_Node000001_Node000011"><a xlink:title=" ">
<path fill="none" stroke="#63b8ff" d="M553.63,-111.59C617.54,-102.78 726.39,-87.72 819.88,-74.5 822.79,-74.09 825.79,-73.66 828.81,-73.23"/>
<polygon fill="#63b8ff" stroke="#63b8ff" points="553.17,-108.12 543.74,-112.96 554.12,-115.06 553.17,-108.12"/>
</a>
</g>
</g>
<!-- Node12 -->
<g id="Node000012" class="node">
<title>Node12</title>
<g id="a_Node000012"><a xlink:href="lvm_8c.html" target="_top" xlink:title=" ">
<polygon fill="white" stroke="#666666" points="1029.12,-74.5 948.62,-74.5 948.62,-55.25 1029.12,-55.25 1029.12,-74.5"/>
<text xml:space="preserve" text-anchor="middle" x="988.88" y="-61" font-family="Helvetica,sans-Serif" font-size="10.00">lua&#45;5.4.7/lvm.c</text>
</a>
</g>
</g>
<!-- Node1&#45;&gt;Node12 -->
<g id="edge18_Node000001_Node000012" class="edge">
<title>Node1&#45;&gt;Node12</title>
<g id="a_edge18_Node000001_Node000012"><a xlink:title=" ">
<path fill="none" stroke="#63b8ff" d="M553.42,-114.9C636.88,-108.15 801.19,-93.7 939.88,-74.5 942.61,-74.12 945.43,-73.7 948.27,-73.26"/>
<polygon fill="#63b8ff" stroke="#63b8ff" points="553.39,-111.39 543.7,-115.68 553.95,-118.37 553.39,-111.39"/>
</a>
</g>
</g>
<!-- Node3 -->
<g id="Node000003" class="node">
<title>Node3</title>
<g id="a_Node000003"><a xlink:href="onelua_8c.html" target="_top" xlink:title=" ">
<polygon fill="white" stroke="#666666" points="494.5,-19.25 401.25,-19.25 401.25,0 494.5,0 494.5,-19.25"/>
<text xml:space="preserve" text-anchor="middle" x="447.88" y="-5.75" font-family="Helvetica,sans-Serif" font-size="10.00">lua&#45;5.4.7/onelua.c</text>
</a>
</g>
</g>
<!-- Node2&#45;&gt;Node3 -->
<g id="edge2_Node000002_Node000003" class="edge">
<title>Node2&#45;&gt;Node3</title>
<g id="a_edge2_Node000002_Node000003"><a xlink:title=" ">
<path fill="none" stroke="#63b8ff" d="M91.53,-54.92C208.7,-37.55 334.52,-23.03 401.01,-15.68"/>
<polygon fill="#63b8ff" stroke="#63b8ff" points="91.1,-51.44 81.72,-56.38 92.13,-58.37 91.1,-51.44"/>
</a>
</g>
</g>
<!-- Node4&#45;&gt;Node3 -->
<g id="edge4_Node000004_Node000003" class="edge">
<title>Node4&#45;&gt;Node3</title>
<g id="a_edge4_Node000004_Node000003"><a xlink:title=" ">
<path fill="none" stroke="#63b8ff" d="M202.98,-53.66C260.48,-43.56 347.41,-28.28 400.75,-18.91"/>
<polygon fill="#63b8ff" stroke="#63b8ff" points="202.62,-50.17 193.38,-55.35 203.83,-57.07 202.62,-50.17"/>
</a>
</g>
</g>
<!-- Node5&#45;&gt;Node3 -->
<g id="edge6_Node000005_Node000003" class="edge">
<title>Node5&#45;&gt;Node3</title>
<g id="a_edge6_Node000005_Node000003"><a xlink:title=" ">
<path fill="none" stroke="#63b8ff" d="M292.68,-51.95C329.33,-42.19 380.39,-28.59 413.78,-19.7"/>
<polygon fill="#63b8ff" stroke="#63b8ff" points="292.03,-48.5 283.26,-54.45 293.83,-55.26 292.03,-48.5"/>
</a>
</g>
</g>
<!-- Node6&#45;&gt;Node3 -->
<g id="edge8_Node000006_Node000003" class="edge">
<title>Node6&#45;&gt;Node3</title>
<g id="a_edge8_Node000006_Node000003"><a xlink:title=" ">
<path fill="none" stroke="#63b8ff" d="M374.92,-49.48C392.73,-39.99 415.5,-27.86 430.83,-19.7"/>
<polygon fill="#63b8ff" stroke="#63b8ff" points="373.36,-46.34 366.17,-54.13 376.65,-52.52 373.36,-46.34"/>
</a>
</g>
</g>
<!-- Node7&#45;&gt;Node3 -->
<g id="edge10_Node000007_Node000003" class="edge">
<title>Node7&#45;&gt;Node3</title>
<g id="a_edge10_Node000007_Node000003"><a xlink:title=" ">
<path fill="none" stroke="#63b8ff" d="M447.88,-43.63C447.88,-35.34 447.88,-26.17 447.88,-19.61"/>
<polygon fill="#63b8ff" stroke="#63b8ff" points="444.38,-43.57 447.88,-53.57 451.38,-43.57 444.38,-43.57"/>
</a>
</g>
</g>
<!-- Node8&#45;&gt;Node3 -->
<g id="edge12_Node000008_Node000003" class="edge">
<title>Node8&#45;&gt;Node3</title>
<g id="a_edge12_Node000008_Node000003"><a xlink:title=" ">
<path fill="none" stroke="#63b8ff" d="M523.28,-49.61C504.9,-40.11 481.29,-27.9 465.43,-19.7"/>
<polygon fill="#63b8ff" stroke="#63b8ff" points="521.57,-52.66 532.06,-54.15 524.78,-46.45 521.57,-52.66"/>
</a>
</g>
</g>
<!-- Node9&#45;&gt;Node3 -->
<g id="edge14_Node000009_Node000003" class="edge">
<title>Node9&#45;&gt;Node3</title>
<g id="a_edge14_Node000009_Node000003"><a xlink:title=" ">
<path fill="none" stroke="#63b8ff" d="M612.88,-52.07C574,-42.3 519.56,-28.63 484.01,-19.7"/>
<polygon fill="#63b8ff" stroke="#63b8ff" points="611.89,-55.43 622.44,-54.47 613.6,-48.64 611.89,-55.43"/>
</a>
</g>
</g>
<!-- Node11&#45;&gt;Node3 -->
<g id="edge17_Node000011_Node000003" class="edge">
<title>Node11&#45;&gt;Node3</title>
<g id="a_edge17_Node000011_Node000003"><a xlink:title=" ">
<path fill="none" stroke="#63b8ff" d="M817.75,-55C695.14,-38.93 563.45,-23.69 494.9,-15.91"/>
<polygon fill="#63b8ff" stroke="#63b8ff" points="816.95,-58.42 827.32,-56.26 817.86,-51.48 816.95,-58.42"/>
</a>
</g>
</g>
<!-- Node12&#45;&gt;Node3 -->
<g id="edge19_Node000012_Node000003" class="edge">
<title>Node12&#45;&gt;Node3</title>
<g id="a_edge19_Node000012_Node000003"><a xlink:title=" ">
<path fill="none" stroke="#63b8ff" d="M936.96,-54.96C768.57,-32.96 580.6,-19.23 494.83,-13.57"/>
<polygon fill="#63b8ff" stroke="#63b8ff" points="936.4,-58.42 946.77,-56.26 937.32,-51.48 936.4,-58.42"/>
</a>
</g>
</g>
</g>
</svg>
