<?xml version="1.0" encoding="UTF-8" standalone="no"?>
<!DOCTYPE svg PUBLIC "-//W3C//DTD SVG 1.1//EN"
 "http://www.w3.org/Graphics/SVG/1.1/DTD/svg11.dtd">
<!-- Generated by graphviz version 13.1.0 (20250701.0955)
 -->
<!-- Title: lua&#45;5.4.7/lgc.c Pages: 1 -->
<!--zoomable 525 -->

<svg id="main" version="1.1" xmlns="http://www.w3.org/2000/svg" xmlns:xlink="http://www.w3.org/1999/xlink" xml:space="preserve" onload="init(evt)">

<style type="text/css"><![CDATA[
.node, .edge {opacity: 0.7;}
.node.selected, .edge.selected {opacity: 1;}
.edge:hover path { stroke: red; }
.edge:hover polygon { stroke: red; fill: red; }
]]></style>

<defs>
  <circle id="rim" cx="0" cy="0" r="7"/>
  <circle id="rim2" cx="0" cy="0" r="3.5"/>
  <g id="zoomPlus">
    <use xlink:href="#rim" fill="#404040"><set attributeName="fill" to="#808080" begin="zoomplus.mouseover" end="zoomplus.mouseout"/></use>
    <path d="M-4,0h8M0,-4v8" fill="none" stroke="white" stroke-width="1.5" pointer-events="none"/>
  </g>
  <g id="zoomMin">
    <use xlink:href="#rim" fill="#404040"><set attributeName="fill" to="#808080" begin="zoomminus.mouseover" end="zoomminus.mouseout"/></use>
    <path d="M-4,0h8" fill="none" stroke="white" stroke-width="1.5" pointer-events="none"/>
  </g>
  <g id="arrowUp" transform="translate(30 24)">
    <use xlink:href="#rim"/>
    <path pointer-events="none" fill="none" stroke="white" stroke-width="1.5" d="M0,-3.0v7 M-2.5,-0.5L0,-3.0L2.5,-0.5"/>
  </g>
  <g id="arrowRight" transform="rotate(90) translate(36 -43)">
    <use xlink:href="#rim"/>
    <path pointer-events="none" fill="none" stroke="white" stroke-width="1.5" d="M0,-3.0v7 M-2.5,-0.5L0,-3.0L2.5,-0.5"/>
  </g>
  <g id="arrowDown" transform="rotate(180) translate(-30 -48)">
    <use xlink:href="#rim"/>
    <path pointer-events="none" fill="none" stroke="white" stroke-width="1.5" d="M0,-3.0v7 M-2.5,-0.5L0,-3.0L2.5,-0.5"/>
  </g>
  <g id="arrowLeft" transform="rotate(270) translate(-36 17)">
    <use xlink:href="#rim"/>
    <path pointer-events="none" fill="none" stroke="white" stroke-width="1.5" d="M0,-3.0v7 M-2.5,-0.5L0,-3.0L2.5,-0.5"/>
  </g>
  <g id="resetDef">
    <use xlink:href="#rim2" fill="#404040"><set attributeName="fill" to="#808080" begin="reset.mouseover" end="reset.mouseout"/></use>
  </g>
</defs>
<script type="application/ecmascript">
var viewWidth = 768;
var viewHeight = 525;
var sectionId = 'dynsection-0';
</script>
<script type="application/ecmascript" xlink:href="svg.min.js"/>
<svg id="graph" class="graph">
<g id="viewport">
<title>lua&#45;5.4.7/lgc.c</title>
<!-- Node1 -->
<g id="Node000001" class="node">
<title>Node1</title>
<g id="a_Node000001"><a xlink:title=" ">
<polygon fill="#999999" stroke="#666666" points="439,-516.5 361.5,-516.5 361.5,-497.25 439,-497.25 439,-516.5"/>
<text xml:space="preserve" text-anchor="middle" x="400.25" y="-503" font-family="Helvetica,sans-Serif" font-size="10.00">lua&#45;5.4.7/lgc.c</text>
</a>
</g>
</g>
<!-- Node2 -->
<g id="Node000002" class="node">
<title>Node2</title>
<g id="a_Node000002"><a xlink:href="lprefix_8h.html" target="_top" xlink:title=" ">
<polygon fill="white" stroke="#666666" points="50.5,-461.25 0,-461.25 0,-442 50.5,-442 50.5,-461.25"/>
<text xml:space="preserve" text-anchor="middle" x="25.25" y="-447.75" font-family="Helvetica,sans-Serif" font-size="10.00">lprefix.h</text>
</a>
</g>
</g>
<!-- Node1&#45;&gt;Node2 -->
<g id="edge1_Node000001_Node000002" class="edge">
<title>Node1&#45;&gt;Node2</title>
<g id="a_edge1_Node000001_Node000002"><a xlink:title=" ">
<path fill="none" stroke="#63b8ff" d="M361.14,-502.28C299.49,-496.28 175.78,-482.9 61.8,-461.54"/>
<polygon fill="#63b8ff" stroke="#63b8ff" points="62.76,-458.16 52.28,-459.73 61.45,-465.04 62.76,-458.16"/>
</a>
</g>
</g>
<!-- Node3 -->
<g id="Node000003" class="node">
<title>Node3</title>
<g id="a_Node000003"><a xlink:title=" ">
<polygon fill="#e0e0e0" stroke="#999999" points="113.88,-461.25 68.62,-461.25 68.62,-442 113.88,-442 113.88,-461.25"/>
<text xml:space="preserve" text-anchor="middle" x="91.25" y="-447.75" font-family="Helvetica,sans-Serif" font-size="10.00">stdio.h</text>
</a>
</g>
</g>
<!-- Node1&#45;&gt;Node3 -->
<g id="edge2_Node000001_Node000003" class="edge">
<title>Node1&#45;&gt;Node3</title>
<g id="a_edge2_Node000001_Node000003"><a xlink:title=" ">
<path fill="none" stroke="#63b8ff" d="M361.02,-500.86C309.29,-493.96 215.23,-480.44 125.46,-461.52"/>
<polygon fill="#63b8ff" stroke="#63b8ff" points="126.24,-458.11 115.73,-459.45 124.78,-464.96 126.24,-458.11"/>
</a>
</g>
</g>
<!-- Node4 -->
<g id="Node000004" class="node">
<title>Node4</title>
<g id="a_Node000004"><a xlink:title=" ">
<polygon fill="#e0e0e0" stroke="#999999" points="180.38,-461.25 132.12,-461.25 132.12,-442 180.38,-442 180.38,-461.25"/>
<text xml:space="preserve" text-anchor="middle" x="156.25" y="-447.75" font-family="Helvetica,sans-Serif" font-size="10.00">string.h</text>
</a>
</g>
</g>
<!-- Node1&#45;&gt;Node4 -->
<g id="edge3_Node000001_Node000004" class="edge">
<title>Node1&#45;&gt;Node4</title>
<g id="a_edge3_Node000001_Node000004"><a xlink:title=" ">
<path fill="none" stroke="#63b8ff" d="M361.12,-497.52C319.66,-488.64 252.3,-474.13 194.25,-461.25 193.43,-461.07 192.61,-460.88 191.77,-460.7"/>
<polygon fill="#63b8ff" stroke="#63b8ff" points="192.77,-457.34 182.25,-458.56 191.24,-464.17 192.77,-457.34"/>
</a>
</g>
</g>
<!-- Node5 -->
<g id="Node000005" class="node">
<title>Node5</title>
<g id="a_Node000005"><a xlink:href="lua_8h.html" target="_top" xlink:title=" ">
<polygon fill="white" stroke="#666666" points="293.75,-129.75 256.75,-129.75 256.75,-110.5 293.75,-110.5 293.75,-129.75"/>
<text xml:space="preserve" text-anchor="middle" x="275.25" y="-116.25" font-family="Helvetica,sans-Serif" font-size="10.00">lua.h</text>
</a>
</g>
</g>
<!-- Node1&#45;&gt;Node5 -->
<g id="edge4_Node000001_Node000005" class="edge">
<title>Node1&#45;&gt;Node5</title>
<g id="a_edge4_Node000001_Node000005"><a xlink:title=" ">
<path fill="none" stroke="#63b8ff" d="M439.46,-502.44C532.77,-493.18 760.25,-463.79 760.25,-397.38 760.25,-397.38 760.25,-397.38 760.25,-229.62 760.25,-135.94 411.28,-123.12 305.37,-121.39"/>
<polygon fill="#63b8ff" stroke="#63b8ff" points="305.53,-117.89 295.48,-121.25 305.43,-124.89 305.53,-117.89"/>
</a>
</g>
</g>
<!-- Node10 -->
<g id="Node000010" class="node">
<title>Node10</title>
<g id="a_Node000010"><a xlink:href="ldebug_8h.html" target="_top" xlink:title=" ">
<polygon fill="white" stroke="#666666" points="395.62,-406 342.88,-406 342.88,-386.75 395.62,-386.75 395.62,-406"/>
<text xml:space="preserve" text-anchor="middle" x="369.25" y="-392.5" font-family="Helvetica,sans-Serif" font-size="10.00">ldebug.h</text>
</a>
</g>
</g>
<!-- Node1&#45;&gt;Node10 -->
<g id="edge10_Node000001_Node000010" class="edge">
<title>Node1&#45;&gt;Node10</title>
<g id="a_edge10_Node000001_Node000010"><a xlink:title=" ">
<path fill="none" stroke="#63b8ff" d="M397.71,-497C392.76,-479.67 381.71,-440.98 374.92,-417.24"/>
<polygon fill="#63b8ff" stroke="#63b8ff" points="378.35,-416.49 372.24,-407.83 371.62,-418.41 378.35,-416.49"/>
</a>
</g>
</g>
<!-- Node11 -->
<g id="Node000011" class="node">
<title>Node11</title>
<g id="a_Node000011"><a xlink:href="lstate_8h.html" target="_top" xlink:title=" ">
<polygon fill="white" stroke="#666666" points="395.38,-350.75 347.12,-350.75 347.12,-331.5 395.38,-331.5 395.38,-350.75"/>
<text xml:space="preserve" text-anchor="middle" x="371.25" y="-337.25" font-family="Helvetica,sans-Serif" font-size="10.00">lstate.h</text>
</a>
</g>
</g>
<!-- Node1&#45;&gt;Node11 -->
<g id="edge41_Node000001_Node000011" class="edge">
<title>Node1&#45;&gt;Node11</title>
<g id="a_edge41_Node000001_Node000011"><a xlink:title=" ">
<path fill="none" stroke="#63b8ff" d="M391.62,-496.92C376.47,-480.51 345.62,-443.82 334.25,-406 331.79,-397.81 331.35,-394.8 334.25,-386.75 337.98,-376.41 345.27,-366.76 352.39,-359.11"/>
<polygon fill="#63b8ff" stroke="#63b8ff" points="354.75,-361.7 359.39,-352.18 349.82,-356.73 354.75,-361.7"/>
</a>
</g>
</g>
<!-- Node12 -->
<g id="Node000012" class="node">
<title>Node12</title>
<g id="a_Node000012"><a xlink:href="lobject_8h.html" target="_top" xlink:title=" ">
<polygon fill="white" stroke="#666666" points="545.62,-240.25 492.88,-240.25 492.88,-221 545.62,-221 545.62,-240.25"/>
<text xml:space="preserve" text-anchor="middle" x="519.25" y="-226.75" font-family="Helvetica,sans-Serif" font-size="10.00">lobject.h</text>
</a>
</g>
</g>
<!-- Node1&#45;&gt;Node12 -->
<g id="edge40_Node000001_Node000012" class="edge">
<title>Node1&#45;&gt;Node12</title>
<g id="a_edge40_Node000001_Node000012"><a xlink:title=" ">
<path fill="none" stroke="#63b8ff" d="M439.41,-501.08C525.23,-489.49 722.25,-456.44 722.25,-397.38 722.25,-397.38 722.25,-397.38 722.25,-340.12 722.25,-266.1 615.96,-242.39 557.21,-234.94"/>
<polygon fill="#63b8ff" stroke="#63b8ff" points="557.63,-231.47 547.29,-233.8 556.82,-238.42 557.63,-231.47"/>
</a>
</g>
</g>
<!-- Node14 -->
<g id="Node000014" class="node">
<title>Node14</title>
<g id="a_Node000014"><a xlink:href="ltm_8h.html" target="_top" xlink:title=" ">
<polygon fill="white" stroke="#666666" points="491.12,-295.5 453.38,-295.5 453.38,-276.25 491.12,-276.25 491.12,-295.5"/>
<text xml:space="preserve" text-anchor="middle" x="472.25" y="-282" font-family="Helvetica,sans-Serif" font-size="10.00">ltm.h</text>
</a>
</g>
</g>
<!-- Node1&#45;&gt;Node14 -->
<g id="edge48_Node000001_Node000014" class="edge">
<title>Node1&#45;&gt;Node14</title>
<g id="a_edge48_Node000001_Node000014"><a xlink:title=" ">
<path fill="none" stroke="#63b8ff" d="M403.16,-497.02C413.81,-464.62 450.82,-352.05 465.84,-306.37"/>
<polygon fill="#63b8ff" stroke="#63b8ff" points="469.11,-307.63 468.91,-297.04 462.46,-305.45 469.11,-307.63"/>
</a>
</g>
</g>
<!-- Node16 -->
<g id="Node000016" class="node">
<title>Node16</title>
<g id="a_Node000016"><a xlink:href="lmem_8h.html" target="_top" xlink:title=" ">
<polygon fill="white" stroke="#666666" points="157.38,-240.25 109.12,-240.25 109.12,-221 157.38,-221 157.38,-240.25"/>
<text xml:space="preserve" text-anchor="middle" x="133.25" y="-226.75" font-family="Helvetica,sans-Serif" font-size="10.00">lmem.h</text>
</a>
</g>
</g>
<!-- Node1&#45;&gt;Node16 -->
<g id="edge39_Node000001_Node000016" class="edge">
<title>Node1&#45;&gt;Node16</title>
<g id="a_edge39_Node000001_Node000016"><a xlink:title=" ">
<path fill="none" stroke="#63b8ff" d="M361.27,-496.78C337.17,-489.82 306.5,-478.45 283.25,-461.25 206.45,-404.44 157.91,-295.66 140.49,-251.25"/>
<polygon fill="#63b8ff" stroke="#63b8ff" points="143.86,-250.25 137.03,-242.16 137.32,-252.75 143.86,-250.25"/>
</a>
</g>
</g>
<!-- Node18 -->
<g id="Node000018" class="node">
<title>Node18</title>
<g id="a_Node000018"><a xlink:href="ldo_8h.html" target="_top" xlink:title=" ">
<polygon fill="white" stroke="#666666" points="286.75,-406 249.75,-406 249.75,-386.75 286.75,-386.75 286.75,-406"/>
<text xml:space="preserve" text-anchor="middle" x="268.25" y="-392.5" font-family="Helvetica,sans-Serif" font-size="10.00">ldo.h</text>
</a>
</g>
</g>
<!-- Node1&#45;&gt;Node18 -->
<g id="edge29_Node000001_Node000018" class="edge">
<title>Node1&#45;&gt;Node18</title>
<g id="a_edge29_Node000001_Node000018"><a xlink:title=" ">
<path fill="none" stroke="#63b8ff" d="M366.25,-496.82C345.46,-489.87 319.45,-478.5 301.25,-461.25 288.5,-449.16 279.79,-431.05 274.54,-417.2"/>
<polygon fill="#63b8ff" stroke="#63b8ff" points="277.87,-416.12 271.29,-407.81 271.25,-418.41 277.87,-416.12"/>
</a>
</g>
</g>
<!-- Node19 -->
<g id="Node000019" class="node">
<title>Node19</title>
<g id="a_Node000019"><a xlink:href="lfunc_8h.html" target="_top" xlink:title=" ">
<polygon fill="white" stroke="#666666" points="628.88,-350.75 583.62,-350.75 583.62,-331.5 628.88,-331.5 628.88,-350.75"/>
<text xml:space="preserve" text-anchor="middle" x="606.25" y="-337.25" font-family="Helvetica,sans-Serif" font-size="10.00">lfunc.h</text>
</a>
</g>
</g>
<!-- Node1&#45;&gt;Node19 -->
<g id="edge34_Node000001_Node000019" class="edge">
<title>Node1&#45;&gt;Node19</title>
<g id="a_edge34_Node000001_Node000019"><a xlink:title=" ">
<path fill="none" stroke="#63b8ff" d="M439.27,-502.73C471.75,-498.25 517.5,-487.43 548.25,-461.25 579.1,-434.99 594.95,-388.48 601.84,-362.02"/>
<polygon fill="#63b8ff" stroke="#63b8ff" points="605.18,-363.12 604.11,-352.58 598.37,-361.48 605.18,-363.12"/>
</a>
</g>
</g>
<!-- Node20 -->
<g id="Node000020" class="node">
<title>Node20</title>
<g id="a_Node000020"><a xlink:href="lgc_8h.html" target="_top" xlink:title=" ">
<polygon fill="white" stroke="#666666" points="526.75,-406 489.75,-406 489.75,-386.75 526.75,-386.75 526.75,-406"/>
<text xml:space="preserve" text-anchor="middle" x="508.25" y="-392.5" font-family="Helvetica,sans-Serif" font-size="10.00">lgc.h</text>
</a>
</g>
</g>
<!-- Node1&#45;&gt;Node20 -->
<g id="edge36_Node000001_Node000020" class="edge">
<title>Node1&#45;&gt;Node20</title>
<g id="a_edge36_Node000001_Node000020"><a xlink:title=" ">
<path fill="none" stroke="#63b8ff" d="M409.09,-497C427.05,-478.96 468.06,-437.75 491.33,-414.38"/>
<polygon fill="#63b8ff" stroke="#63b8ff" points="493.65,-417.01 498.22,-407.45 488.69,-412.07 493.65,-417.01"/>
</a>
</g>
</g>
<!-- Node21 -->
<g id="Node000021" class="node">
<title>Node21</title>
<g id="a_Node000021"><a xlink:href="lstring_8h.html" target="_top" xlink:title=" ">
<polygon fill="white" stroke="#666666" points="539.5,-461.25 489,-461.25 489,-442 539.5,-442 539.5,-461.25"/>
<text xml:space="preserve" text-anchor="middle" x="514.25" y="-447.75" font-family="Helvetica,sans-Serif" font-size="10.00">lstring.h</text>
</a>
</g>
</g>
<!-- Node1&#45;&gt;Node21 -->
<g id="edge42_Node000001_Node000021" class="edge">
<title>Node1&#45;&gt;Node21</title>
<g id="a_edge42_Node000001_Node000021"><a xlink:title=" ">
<path fill="none" stroke="#63b8ff" d="M419.59,-496.84C437.36,-488.54 463.97,-476.11 484.45,-466.54"/>
<polygon fill="#63b8ff" stroke="#63b8ff" points="485.87,-469.75 493.45,-462.34 482.9,-463.4 485.87,-469.75"/>
</a>
</g>
</g>
<!-- Node22 -->
<g id="Node000022" class="node">
<title>Node22</title>
<g id="a_Node000022"><a xlink:href="ltable_8h.html" target="_top" xlink:title=" ">
<polygon fill="white" stroke="#666666" points="694,-350.75 646.5,-350.75 646.5,-331.5 694,-331.5 694,-350.75"/>
<text xml:space="preserve" text-anchor="middle" x="670.25" y="-337.25" font-family="Helvetica,sans-Serif" font-size="10.00">ltable.h</text>
</a>
</g>
</g>
<!-- Node1&#45;&gt;Node22 -->
<g id="edge46_Node000001_Node000022" class="edge">
<title>Node1&#45;&gt;Node22</title>
<g id="a_edge46_Node000001_Node000022"><a xlink:title=" ">
<path fill="none" stroke="#63b8ff" d="M439.3,-502.57C475.85,-497.95 530.73,-487.01 571.25,-461.25 611.76,-435.5 643.91,-387.74 659.66,-361.19"/>
<polygon fill="#63b8ff" stroke="#63b8ff" points="662.68,-362.96 664.63,-352.54 656.61,-359.47 662.68,-362.96"/>
</a>
</g>
</g>
<!-- Node6 -->
<g id="Node000006" class="node">
<title>Node6</title>
<g id="a_Node000006"><a xlink:title=" ">
<polygon fill="#e0e0e0" stroke="#999999" points="597.88,-74.5 546.62,-74.5 546.62,-55.25 597.88,-55.25 597.88,-74.5"/>
<text xml:space="preserve" text-anchor="middle" x="572.25" y="-61" font-family="Helvetica,sans-Serif" font-size="10.00">stdarg.h</text>
</a>
</g>
</g>
<!-- Node5&#45;&gt;Node6 -->
<g id="edge5_Node000005_Node000006" class="edge">
<title>Node5&#45;&gt;Node6</title>
<g id="a_edge5_Node000005_Node000006"><a xlink:title=" ">
<path fill="none" stroke="#63b8ff" d="M293.83,-115.79C341.89,-107.18 471.02,-84.03 535.11,-72.53"/>
<polygon fill="#63b8ff" stroke="#63b8ff" points="535.57,-76.01 544.8,-70.8 534.34,-69.12 535.57,-76.01"/>
</a>
</g>
</g>
<!-- Node7 -->
<g id="Node000007" class="node">
<title>Node7</title>
<g id="a_Node000007"><a xlink:title=" ">
<polygon fill="#e0e0e0" stroke="#999999" points="200.88,-19.25 149.62,-19.25 149.62,0 200.88,0 200.88,-19.25"/>
<text xml:space="preserve" text-anchor="middle" x="175.25" y="-5.75" font-family="Helvetica,sans-Serif" font-size="10.00">stddef.h</text>
</a>
</g>
</g>
<!-- Node5&#45;&gt;Node7 -->
<g id="edge6_Node000005_Node000007" class="edge">
<title>Node5&#45;&gt;Node7</title>
<g id="a_edge6_Node000005_Node000007"><a xlink:title=" ">
<path fill="none" stroke="#63b8ff" d="M267.07,-110.25C250.51,-92.28 212.79,-51.36 191.2,-27.94"/>
<polygon fill="#63b8ff" stroke="#63b8ff" points="193.92,-25.72 184.57,-20.74 188.78,-30.46 193.92,-25.72"/>
</a>
</g>
</g>
<!-- Node8 -->
<g id="Node000008" class="node">
<title>Node8</title>
<g id="a_Node000008"><a xlink:href="luaconf_8h.html" target="_top" xlink:title=" ">
<polygon fill="white" stroke="#666666" points="303.12,-74.5 247.38,-74.5 247.38,-55.25 303.12,-55.25 303.12,-74.5"/>
<text xml:space="preserve" text-anchor="middle" x="275.25" y="-61" font-family="Helvetica,sans-Serif" font-size="10.00">luaconf.h</text>
</a>
</g>
</g>
<!-- Node5&#45;&gt;Node8 -->
<g id="edge7_Node000005_Node000008" class="edge">
<title>Node5&#45;&gt;Node8</title>
<g id="a_edge7_Node000005_Node000008"><a xlink:title=" ">
<path fill="none" stroke="#63b8ff" d="M275.25,-110.33C275.25,-103.82 275.25,-94.67 275.25,-86.37"/>
<polygon fill="#63b8ff" stroke="#63b8ff" points="278.75,-86.37 275.25,-76.37 271.75,-86.37 278.75,-86.37"/>
</a>
</g>
</g>
<!-- Node8&#45;&gt;Node7 -->
<g id="edge9_Node000008_Node000007" class="edge">
<title>Node8&#45;&gt;Node7</title>
<g id="a_edge9_Node000008_Node000007"><a xlink:title=" ">
<path fill="none" stroke="#63b8ff" d="M258.29,-54.84C242.99,-46.69 220.22,-34.57 202.39,-25.08"/>
<polygon fill="#63b8ff" stroke="#63b8ff" points="204.1,-22.02 193.63,-20.41 200.81,-28.2 204.1,-22.02"/>
</a>
</g>
</g>
<!-- Node9 -->
<g id="Node000009" class="node">
<title>Node9</title>
<g id="a_Node000009"><a xlink:title=" ">
<polygon fill="#e0e0e0" stroke="#999999" points="282,-19.25 234.5,-19.25 234.5,0 282,0 282,-19.25"/>
<text xml:space="preserve" text-anchor="middle" x="258.25" y="-5.75" font-family="Helvetica,sans-Serif" font-size="10.00">limits.h</text>
</a>
</g>
</g>
<!-- Node8&#45;&gt;Node9 -->
<g id="edge8_Node000008_Node000009" class="edge">
<title>Node8&#45;&gt;Node9</title>
<g id="a_edge8_Node000008_Node000009"><a xlink:title=" ">
<path fill="none" stroke="#63b8ff" d="M272.44,-55.08C270.31,-48.42 267.31,-38.99 264.61,-30.53"/>
<polygon fill="#63b8ff" stroke="#63b8ff" points="267.95,-29.51 261.58,-21.05 261.29,-31.64 267.95,-29.51"/>
</a>
</g>
</g>
<!-- Node10&#45;&gt;Node11 -->
<g id="edge11_Node000010_Node000011" class="edge">
<title>Node10&#45;&gt;Node11</title>
<g id="a_edge11_Node000010_Node000011"><a xlink:title=" ">
<path fill="none" stroke="#63b8ff" d="M369.58,-386.58C369.83,-379.99 370.18,-370.71 370.49,-362.32"/>
<polygon fill="#63b8ff" stroke="#63b8ff" points="373.98,-362.75 370.86,-352.62 366.98,-362.48 373.98,-362.75"/>
</a>
</g>
</g>
<!-- Node11&#45;&gt;Node5 -->
<g id="edge12_Node000011_Node000005" class="edge">
<title>Node11&#45;&gt;Node5</title>
<g id="a_edge12_Node000011_Node000005"><a xlink:title=" ">
<path fill="none" stroke="#63b8ff" d="M363.33,-331.08C356.05,-322.42 345.35,-308.75 338.25,-295.5 309.95,-242.66 289.49,-174.43 280.43,-141.16"/>
<polygon fill="#63b8ff" stroke="#63b8ff" points="283.87,-140.45 277.92,-131.68 277.1,-142.25 283.87,-140.45"/>
</a>
</g>
</g>
<!-- Node11&#45;&gt;Node12 -->
<g id="edge13_Node000011_Node000012" class="edge">
<title>Node11&#45;&gt;Node12</title>
<g id="a_edge13_Node000011_Node000012"><a xlink:title=" ">
<path fill="none" stroke="#63b8ff" d="M380.24,-331.29C393.59,-318.4 419.72,-294.05 444.25,-276.25 459.45,-265.22 477.5,-254.41 492.09,-246.2"/>
<polygon fill="#63b8ff" stroke="#63b8ff" points="493.63,-249.34 500.69,-241.44 490.24,-243.22 493.63,-249.34"/>
</a>
</g>
</g>
<!-- Node11&#45;&gt;Node14 -->
<g id="edge20_Node000011_Node000014" class="edge">
<title>Node11&#45;&gt;Node14</title>
<g id="a_edge20_Node000011_Node000014"><a xlink:title=" ">
<path fill="none" stroke="#63b8ff" d="M388.38,-331.09C403.91,-322.91 427.05,-310.71 445.09,-301.19"/>
<polygon fill="#63b8ff" stroke="#63b8ff" points="446.48,-304.42 453.69,-296.66 443.22,-298.23 446.48,-304.42"/>
</a>
</g>
</g>
<!-- Node15 -->
<g id="Node000015" class="node">
<title>Node15</title>
<g id="a_Node000015"><a xlink:href="lzio_8h.html" target="_top" xlink:title=" ">
<polygon fill="white" stroke="#666666" points="252.88,-295.5 213.62,-295.5 213.62,-276.25 252.88,-276.25 252.88,-295.5"/>
<text xml:space="preserve" text-anchor="middle" x="233.25" y="-282" font-family="Helvetica,sans-Serif" font-size="10.00">lzio.h</text>
</a>
</g>
</g>
<!-- Node11&#45;&gt;Node15 -->
<g id="edge22_Node000011_Node000015" class="edge">
<title>Node11&#45;&gt;Node15</title>
<g id="a_edge22_Node000011_Node000015"><a xlink:title=" ">
<path fill="none" stroke="#63b8ff" d="M347.84,-331.09C324.66,-322.15 289.06,-308.41 263.7,-298.62"/>
<polygon fill="#63b8ff" stroke="#63b8ff" points="265.19,-295.45 254.6,-295.11 262.67,-301.98 265.19,-295.45"/>
</a>
</g>
</g>
<!-- Node17 -->
<g id="Node000017" class="node">
<title>Node17</title>
<g id="a_Node000017"><a xlink:title=" ">
<polygon fill="#e0e0e0" stroke="#999999" points="397.12,-295.5 347.38,-295.5 347.38,-276.25 397.12,-276.25 397.12,-295.5"/>
<text xml:space="preserve" text-anchor="middle" x="372.25" y="-282" font-family="Helvetica,sans-Serif" font-size="10.00">signal.h</text>
</a>
</g>
</g>
<!-- Node11&#45;&gt;Node17 -->
<g id="edge28_Node000011_Node000017" class="edge">
<title>Node11&#45;&gt;Node17</title>
<g id="a_edge28_Node000011_Node000017"><a xlink:title=" ">
<path fill="none" stroke="#63b8ff" d="M371.42,-331.33C371.54,-324.82 371.71,-315.67 371.87,-307.37"/>
<polygon fill="#63b8ff" stroke="#63b8ff" points="375.36,-307.44 372.05,-297.37 368.37,-307.3 375.36,-307.44"/>
</a>
</g>
</g>
<!-- Node12&#45;&gt;Node5 -->
<g id="edge19_Node000012_Node000005" class="edge">
<title>Node12&#45;&gt;Node5</title>
<g id="a_edge19_Node000012_Node000005"><a xlink:title=" ">
<path fill="none" stroke="#63b8ff" d="M498.87,-220.56C455.63,-201.34 354.61,-156.42 304.5,-134.13"/>
<polygon fill="#63b8ff" stroke="#63b8ff" points="306,-130.97 295.44,-130.1 303.15,-137.36 306,-130.97"/>
</a>
</g>
</g>
<!-- Node12&#45;&gt;Node6 -->
<g id="edge14_Node000012_Node000006" class="edge">
<title>Node12&#45;&gt;Node6</title>
<g id="a_edge14_Node000012_Node000006"><a xlink:title=" ">
<path fill="none" stroke="#63b8ff" d="M522.1,-220.82C530.33,-195.39 554.29,-121.35 565.86,-85.62"/>
<polygon fill="#63b8ff" stroke="#63b8ff" points="569.17,-86.75 568.92,-76.16 562.51,-84.6 569.17,-86.75"/>
</a>
</g>
</g>
<!-- Node13 -->
<g id="Node000013" class="node">
<title>Node13</title>
<g id="a_Node000013"><a xlink:href="llimits_8h.html" target="_top" xlink:title=" ">
<polygon fill="white" stroke="#666666" points="177.12,-185 127.38,-185 127.38,-165.75 177.12,-165.75 177.12,-185"/>
<text xml:space="preserve" text-anchor="middle" x="152.25" y="-171.5" font-family="Helvetica,sans-Serif" font-size="10.00">llimits.h</text>
</a>
</g>
</g>
<!-- Node12&#45;&gt;Node13 -->
<g id="edge15_Node000012_Node000013" class="edge">
<title>Node12&#45;&gt;Node13</title>
<g id="a_edge15_Node000012_Node000013"><a xlink:title=" ">
<path fill="none" stroke="#63b8ff" d="M492.56,-225.75C427.74,-216.35 261.94,-192.29 188.36,-181.61"/>
<polygon fill="#63b8ff" stroke="#63b8ff" points="189.27,-178.21 178.87,-180.24 188.27,-185.14 189.27,-178.21"/>
</a>
</g>
</g>
<!-- Node13&#45;&gt;Node5 -->
<g id="edge18_Node000013_Node000005" class="edge">
<title>Node13&#45;&gt;Node5</title>
<g id="a_edge18_Node000013_Node000005"><a xlink:title=" ">
<path fill="none" stroke="#63b8ff" d="M173.12,-165.34C193.14,-156.67 223.57,-143.5 246.01,-133.78"/>
<polygon fill="#63b8ff" stroke="#63b8ff" points="247.13,-137.11 254.92,-129.93 244.35,-130.69 247.13,-137.11"/>
</a>
</g>
</g>
<!-- Node13&#45;&gt;Node7 -->
<g id="edge17_Node000013_Node000007" class="edge">
<title>Node13&#45;&gt;Node7</title>
<g id="a_edge17_Node000013_Node000007"><a xlink:title=" ">
<path fill="none" stroke="#63b8ff" d="M153.22,-165.39C155.4,-145.49 161,-96.26 167.25,-55.25 168.48,-47.18 170.03,-38.32 171.43,-30.64"/>
<polygon fill="#63b8ff" stroke="#63b8ff" points="174.84,-31.45 173.24,-20.98 167.96,-30.17 174.84,-31.45"/>
</a>
</g>
</g>
<!-- Node13&#45;&gt;Node9 -->
<g id="edge16_Node000013_Node000009" class="edge">
<title>Node13&#45;&gt;Node9</title>
<g id="a_edge16_Node000013_Node000009"><a xlink:title=" ">
<path fill="none" stroke="#63b8ff" d="M157.95,-165.57C174.63,-139.8 223.6,-64.15 246.36,-28.99"/>
<polygon fill="#63b8ff" stroke="#63b8ff" points="249.2,-31.04 251.7,-20.74 243.33,-27.24 249.2,-31.04"/>
</a>
</g>
</g>
<!-- Node14&#45;&gt;Node12 -->
<g id="edge21_Node000014_Node000012" class="edge">
<title>Node14&#45;&gt;Node12</title>
<g id="a_edge21_Node000014_Node000012"><a xlink:title=" ">
<path fill="none" stroke="#63b8ff" d="M480.01,-276.08C486.44,-268.8 495.76,-258.23 503.71,-249.23"/>
<polygon fill="#63b8ff" stroke="#63b8ff" points="506.33,-251.56 510.32,-241.74 501.08,-246.93 506.33,-251.56"/>
</a>
</g>
</g>
<!-- Node15&#45;&gt;Node5 -->
<g id="edge23_Node000015_Node000005" class="edge">
<title>Node15&#45;&gt;Node5</title>
<g id="a_edge23_Node000015_Node000005"><a xlink:title=" ">
<path fill="none" stroke="#63b8ff" d="M235.51,-276.07C242.03,-250.64 261.02,-176.6 270.19,-140.87"/>
<polygon fill="#63b8ff" stroke="#63b8ff" points="273.51,-141.99 272.6,-131.44 266.73,-140.26 273.51,-141.99"/>
</a>
</g>
</g>
<!-- Node15&#45;&gt;Node16 -->
<g id="edge24_Node000015_Node000016" class="edge">
<title>Node15&#45;&gt;Node16</title>
<g id="a_edge24_Node000015_Node000016"><a xlink:title=" ">
<path fill="none" stroke="#63b8ff" d="M216.29,-275.84C200.99,-267.69 178.22,-255.57 160.39,-246.08"/>
<polygon fill="#63b8ff" stroke="#63b8ff" points="162.1,-243.02 151.63,-241.41 158.81,-249.2 162.1,-243.02"/>
</a>
</g>
</g>
<!-- Node16&#45;&gt;Node5 -->
<g id="edge27_Node000016_Node000005" class="edge">
<title>Node16&#45;&gt;Node5</title>
<g id="a_edge27_Node000016_Node000005"><a xlink:title=" ">
<path fill="none" stroke="#63b8ff" d="M144.87,-220.75C168.9,-202.39 224.32,-160.04 254.6,-136.91"/>
<polygon fill="#63b8ff" stroke="#63b8ff" points="256.45,-139.9 262.27,-131.05 252.2,-134.34 256.45,-139.9"/>
</a>
</g>
</g>
<!-- Node16&#45;&gt;Node7 -->
<g id="edge25_Node000016_Node000007" class="edge">
<title>Node16&#45;&gt;Node7</title>
<g id="a_edge25_Node000016_Node000007"><a xlink:title=" ">
<path fill="none" stroke="#63b8ff" d="M128.74,-220.59C123.15,-208.28 114.74,-185.49 118.25,-165.75 127.3,-114.85 151.85,-58.76 165.59,-29.99"/>
<polygon fill="#63b8ff" stroke="#63b8ff" points="168.69,-31.63 169.93,-21.11 162.4,-28.56 168.69,-31.63"/>
</a>
</g>
</g>
<!-- Node16&#45;&gt;Node13 -->
<g id="edge26_Node000016_Node000013" class="edge">
<title>Node16&#45;&gt;Node13</title>
<g id="a_edge26_Node000016_Node000013"><a xlink:title=" ">
<path fill="none" stroke="#63b8ff" d="M136.39,-220.83C138.79,-214.09 142.21,-204.52 145.25,-195.99"/>
<polygon fill="#63b8ff" stroke="#63b8ff" points="148.47,-197.38 148.54,-186.78 141.88,-195.03 148.47,-197.38"/>
</a>
</g>
</g>
<!-- Node18&#45;&gt;Node11 -->
<g id="edge32_Node000018_Node000011" class="edge">
<title>Node18&#45;&gt;Node11</title>
<g id="a_edge32_Node000018_Node000011"><a xlink:title=" ">
<path fill="none" stroke="#63b8ff" d="M285.72,-386.34C301.56,-378.16 325.16,-365.96 343.56,-356.44"/>
<polygon fill="#63b8ff" stroke="#63b8ff" points="345.07,-359.6 352.35,-351.9 341.86,-353.38 345.07,-359.6"/>
</a>
</g>
</g>
<!-- Node18&#45;&gt;Node12 -->
<g id="edge31_Node000018_Node000012" class="edge">
<title>Node18&#45;&gt;Node12</title>
<g id="a_edge31_Node000018_Node000012"><a xlink:title=" ">
<path fill="none" stroke="#63b8ff" d="M270.78,-386.57C277.65,-364.35 298.83,-305.64 338.25,-276.25 380.34,-244.87 441.77,-235.34 481.12,-232.57"/>
<polygon fill="#63b8ff" stroke="#63b8ff" points="481.29,-236.07 491.07,-232 480.89,-229.08 481.29,-236.07"/>
</a>
</g>
</g>
<!-- Node18&#45;&gt;Node13 -->
<g id="edge30_Node000018_Node000013" class="edge">
<title>Node18&#45;&gt;Node13</title>
<g id="a_edge30_Node000018_Node000013"><a xlink:title=" ">
<path fill="none" stroke="#63b8ff" d="M261.74,-386.31C249.57,-369.12 222.88,-330.37 204.25,-295.5 186.05,-261.45 168.95,-219.7 159.61,-195.76"/>
<polygon fill="#63b8ff" stroke="#63b8ff" points="162.98,-194.75 156.12,-186.68 156.44,-197.27 162.98,-194.75"/>
</a>
</g>
</g>
<!-- Node18&#45;&gt;Node15 -->
<g id="edge33_Node000018_Node000015" class="edge">
<title>Node18&#45;&gt;Node15</title>
<g id="a_edge33_Node000018_Node000015"><a xlink:title=" ">
<path fill="none" stroke="#63b8ff" d="M265.39,-386.5C259.8,-369.17 247.32,-330.48 239.66,-306.74"/>
<polygon fill="#63b8ff" stroke="#63b8ff" points="243.02,-305.76 236.62,-297.32 236.36,-307.91 243.02,-305.76"/>
</a>
</g>
</g>
<!-- Node19&#45;&gt;Node12 -->
<g id="edge35_Node000019_Node000012" class="edge">
<title>Node19&#45;&gt;Node12</title>
<g id="a_edge35_Node000019_Node000012"><a xlink:title=" ">
<path fill="none" stroke="#63b8ff" d="M602.62,-331.25C597.07,-318.33 585.59,-293.93 571.25,-276.25 562.5,-265.47 550.93,-255.24 540.92,-247.31"/>
<polygon fill="#63b8ff" stroke="#63b8ff" points="543.22,-244.66 533.14,-241.37 538.97,-250.22 543.22,-244.66"/>
</a>
</g>
</g>
<!-- Node20&#45;&gt;Node11 -->
<g id="edge38_Node000020_Node000011" class="edge">
<title>Node20&#45;&gt;Node11</title>
<g id="a_edge38_Node000020_Node000011"><a xlink:title=" ">
<path fill="none" stroke="#63b8ff" d="M489.49,-388.08C467.72,-379.62 431.41,-365.51 404.76,-355.15"/>
<polygon fill="#63b8ff" stroke="#63b8ff" points="406.35,-352.01 395.76,-351.65 403.82,-358.54 406.35,-352.01"/>
</a>
</g>
</g>
<!-- Node20&#45;&gt;Node12 -->
<g id="edge37_Node000020_Node000012" class="edge">
<title>Node20&#45;&gt;Node12</title>
<g id="a_edge37_Node000020_Node000012"><a xlink:title=" ">
<path fill="none" stroke="#63b8ff" d="M508.84,-386.57C510.54,-361.25 515.48,-287.75 517.89,-251.84"/>
<polygon fill="#63b8ff" stroke="#63b8ff" points="521.38,-252.19 518.55,-241.98 514.39,-251.73 521.38,-252.19"/>
</a>
</g>
</g>
<!-- Node21&#45;&gt;Node11 -->
<g id="edge45_Node000021_Node000011" class="edge">
<title>Node21&#45;&gt;Node11</title>
<g id="a_edge45_Node000021_Node000011"><a xlink:title=" ">
<path fill="none" stroke="#63b8ff" d="M502.55,-441.75C478.35,-423.39 422.54,-381.04 392.05,-357.91"/>
<polygon fill="#63b8ff" stroke="#63b8ff" points="394.4,-355.3 384.32,-352.04 390.17,-360.87 394.4,-355.3"/>
</a>
</g>
</g>
<!-- Node21&#45;&gt;Node12 -->
<g id="edge44_Node000021_Node000012" class="edge">
<title>Node21&#45;&gt;Node12</title>
<g id="a_edge44_Node000021_Node000012"><a xlink:title=" ">
<path fill="none" stroke="#63b8ff" d="M520.3,-441.52C525.69,-432.82 533.19,-419.12 536.25,-406 549.11,-350.84 534.27,-283.66 525.22,-251.14"/>
<polygon fill="#63b8ff" stroke="#63b8ff" points="528.69,-250.54 522.53,-241.92 521.97,-252.5 528.69,-250.54"/>
</a>
</g>
</g>
<!-- Node21&#45;&gt;Node20 -->
<g id="edge43_Node000021_Node000020" class="edge">
<title>Node21&#45;&gt;Node20</title>
<g id="a_edge43_Node000021_Node000020"><a xlink:title=" ">
<path fill="none" stroke="#63b8ff" d="M513.26,-441.83C512.52,-435.24 511.47,-425.96 510.53,-417.57"/>
<polygon fill="#63b8ff" stroke="#63b8ff" points="514.03,-417.41 509.43,-407.86 507.07,-418.19 514.03,-417.41"/>
</a>
</g>
</g>
<!-- Node22&#45;&gt;Node12 -->
<g id="edge47_Node000022_Node000012" class="edge">
<title>Node22&#45;&gt;Node12</title>
<g id="a_edge47_Node000022_Node000012"><a xlink:title=" ">
<path fill="none" stroke="#63b8ff" d="M659.85,-331.01C645.04,-318.21 616.85,-294.42 591.25,-276.25 576.34,-265.67 558.94,-254.84 544.97,-246.5"/>
<polygon fill="#63b8ff" stroke="#63b8ff" points="546.76,-243.49 536.37,-241.42 543.2,-249.52 546.76,-243.49"/>
</a>
</g>
</g>
</g>
</svg>

<g id="navigator" transform="translate(0 0)" fill="#404254">
  <rect fill="#f2f5e9" fill-opacity="0.5" stroke="#606060" stroke-width=".5" x="0" y="0" width="60" height="60"/>
  <use id="zoomplus" xlink:href="#zoomPlus" x="17" y="9" onmousedown="handleZoom(evt,'in')"/>
  <use id="zoomminus" xlink:href="#zoomMin" x="42" y="9" onmousedown="handleZoom(evt,'out')"/>
  <use id="reset" xlink:href="#resetDef" x="30" y="36" onmousedown="handleReset()"/>
   <use id="arrowup" xlink:href="#arrowUp" x="0" y="0" onmousedown="handlePan(0,-1)"/>
  <use id="arrowright" xlink:href="#arrowRight" x="0" y="0" onmousedown="handlePan(1,0)"/>
  <use id="arrowdown" xlink:href="#arrowDown" x="0" y="0" onmousedown="handlePan(0,1)"/>
  <use id="arrowleft" xlink:href="#arrowLeft" x="0" y="0" onmousedown="handlePan(-1,0)"/>
</g>
<svg viewBox="0 0 15 15" width="100%" height="30px" preserveAspectRatio="xMaxYMin meet">
 <g id="arrow_out" transform="scale(0.3 0.3)">
  <a xlink:href="lgc_8c__incl_org.svg" target="_base">
   <rect id="button" ry="5" rx="5" y="6" x="6" height="38" width="38"
        fill="#f2f5e9" fill-opacity="0.5" stroke="#606060" stroke-width="1.0"/>
   <path id="arrow"
     d="M 11.500037,31.436501 C 11.940474,20.09759 22.043105,11.32322 32.158766,21.979434 L 37.068811,17.246167 C 37.068811,17.246167 37.088388,32 37.088388,32 L 22.160133,31.978069 C 22.160133,31.978069 26.997745,27.140456 26.997745,27.140456 C 18.528582,18.264221 13.291696,25.230495 11.500037,31.436501 z"
     style="fill:#404040;"/>
  </a>
 </g>
</svg>

<style type='text/css'>
<![CDATA[
[data-mouse-over-selected='false'] { opacity: 0.7; }
[data-mouse-over-selected='true']  { opacity: 1.0; }
]]>
</style>
<script type="application/ecmascript"><![CDATA[
document.addEventListener('DOMContentLoaded', (event) => {
  highlightEdges();
  highlightAdjacentNodes();
});
]]></script>
</svg>
