<?xml version="1.0" encoding="UTF-8" standalone="no"?>
<!DOCTYPE svg PUBLIC "-//W3C//DTD SVG 1.1//EN"
 "http://www.w3.org/Graphics/SVG/1.1/DTD/svg11.dtd">
<!-- Generated by graphviz version 13.1.0 (20250701.0955)
 -->
<!-- Title: entergen Pages: 1 -->
<svg width="1114pt" height="758pt"
 viewBox="0.00 0.00 1114.00 758.00" xmlns="http://www.w3.org/2000/svg" xmlns:xlink="http://www.w3.org/1999/xlink">
<g id="graph0" class="graph" transform="scale(1 1) rotate(0) translate(4 754.25)">
<title>entergen</title>
<!-- Node1 -->
<g id="Node000001" class="node">
<title>Node1</title>
<g id="a_Node000001"><a xlink:title=" ">
<polygon fill="#999999" stroke="#666666" points="1105.5,-264.25 1052,-264.25 1052,-245 1105.5,-245 1105.5,-264.25"/>
<text xml:space="preserve" text-anchor="middle" x="1078.75" y="-250.75" font-family="Helvetica,sans-Serif" font-size="10.00">entergen</text>
</a>
</g>
</g>
<!-- Node2 -->
<g id="Node000002" class="node">
<title>Node2</title>
<g id="a_Node000002"><a xlink:href="lgc_8c.html#a270a46ab08adc0bb728eeb67b5cc45a9" target="_top" xlink:title=" ">
<polygon fill="white" stroke="#666666" points="989.75,-283.25 945.25,-283.25 945.25,-264 989.75,-264 989.75,-283.25"/>
<text xml:space="preserve" text-anchor="middle" x="967.5" y="-269.75" font-family="Helvetica,sans-Serif" font-size="10.00">fullgen</text>
</a>
</g>
</g>
<!-- Node1&#45;&gt;Node2 -->
<g id="edge1_Node000001_Node000002" class="edge">
<title>Node1&#45;&gt;Node2</title>
<g id="a_edge1_Node000001_Node000002"><a xlink:title=" ">
<path fill="none" stroke="#63b8ff" d="M1040.43,-261.12C1023.63,-264.04 1004.4,-267.38 990.05,-269.88"/>
<polygon fill="#63b8ff" stroke="#63b8ff" points="1040.84,-264.6 1050.09,-259.44 1039.64,-257.7 1040.84,-264.6"/>
</a>
</g>
</g>
<!-- Node695 -->
<g id="Node000695" class="node">
<title>Node695</title>
<g id="a_Node000695"><a xlink:href="lgc_8c.html#ac88d5c236307393937e02bc82c10f970" target="_top" xlink:title=" ">
<polygon fill="white" stroke="#666666" points="1016,-245.25 919,-245.25 919,-226 1016,-226 1016,-245.25"/>
<text xml:space="preserve" text-anchor="middle" x="967.5" y="-231.75" font-family="Helvetica,sans-Serif" font-size="10.00">luaC_changemode</text>
</a>
</g>
</g>
<!-- Node1&#45;&gt;Node695 -->
<g id="edge45_Node000001_Node000695" class="edge">
<title>Node1&#45;&gt;Node695</title>
<g id="a_edge45_Node000001_Node000695"><a xlink:title=" ">
<path fill="none" stroke="#63b8ff" d="M1040.31,-248.11C1032.57,-246.77 1024.31,-245.33 1016.25,-243.93"/>
<polygon fill="#63b8ff" stroke="#63b8ff" points="1039.64,-251.55 1050.09,-249.81 1040.84,-244.65 1039.64,-251.55"/>
</a>
</g>
</g>
<!-- Node3 -->
<g id="Node000003" class="node">
<title>Node3</title>
<g id="a_Node000003"><a xlink:href="lgc_8c.html#a3035567259cf4d2269426622ccc0d022" target="_top" xlink:title=" ">
<polygon fill="white" stroke="#666666" points="858.62,-283.25 808.12,-283.25 808.12,-264 858.62,-264 858.62,-283.25"/>
<text xml:space="preserve" text-anchor="middle" x="833.38" y="-269.75" font-family="Helvetica,sans-Serif" font-size="10.00">genstep</text>
</a>
</g>
</g>
<!-- Node2&#45;&gt;Node3 -->
<g id="edge2_Node000002_Node000003" class="edge">
<title>Node2&#45;&gt;Node3</title>
<g id="a_edge2_Node000002_Node000003"><a xlink:title=" ">
<path fill="none" stroke="#63b8ff" d="M933.65,-273.62C910.53,-273.62 880.09,-273.62 859.04,-273.62"/>
<polygon fill="#63b8ff" stroke="#63b8ff" points="933.46,-277.13 943.46,-273.63 933.46,-270.13 933.46,-277.13"/>
</a>
</g>
</g>
<!-- Node9 -->
<g id="Node000009" class="node">
<title>Node9</title>
<g id="a_Node000009"><a xlink:href="lgc_8c.html#ac48130e5263ad8be09a9c51dae6125b9" target="_top" xlink:title=" ">
<polygon fill="white" stroke="#666666" points="865.75,-340.25 801,-340.25 801,-321 865.75,-321 865.75,-340.25"/>
<text xml:space="preserve" text-anchor="middle" x="833.38" y="-326.75" font-family="Helvetica,sans-Serif" font-size="10.00">luaC_fullgc</text>
</a>
</g>
</g>
<!-- Node2&#45;&gt;Node9 -->
<g id="edge9_Node000002_Node000009" class="edge">
<title>Node2&#45;&gt;Node9</title>
<g id="a_edge9_Node000002_Node000009"><a xlink:title=" ">
<path fill="none" stroke="#63b8ff" d="M934.71,-287.34C910.97,-297.58 879.07,-311.34 857.67,-320.58"/>
<polygon fill="#63b8ff" stroke="#63b8ff" points="935.79,-290.68 943.59,-283.51 933.02,-284.26 935.79,-290.68"/>
</a>
</g>
</g>
<!-- Node4 -->
<g id="Node000004" class="node">
<title>Node4</title>
<g id="a_Node000004"><a xlink:href="lgc_8c.html#ab0133eb7bb37a0a690e0ef71fbc13414" target="_top" xlink:title=" ">
<polygon fill="white" stroke="#666666" points="744.75,-283.25 684.5,-283.25 684.5,-264 744.75,-264 744.75,-283.25"/>
<text xml:space="preserve" text-anchor="middle" x="714.62" y="-269.75" font-family="Helvetica,sans-Serif" font-size="10.00">luaC_step</text>
</a>
</g>
</g>
<!-- Node3&#45;&gt;Node4 -->
<g id="edge3_Node000003_Node000004" class="edge">
<title>Node3&#45;&gt;Node4</title>
<g id="a_edge3_Node000003_Node000004"><a xlink:title=" ">
<path fill="none" stroke="#63b8ff" d="M796.48,-273.62C779.98,-273.62 760.65,-273.62 745.03,-273.62"/>
<polygon fill="#63b8ff" stroke="#63b8ff" points="796.39,-277.13 806.39,-273.63 796.39,-270.13 796.39,-277.13"/>
</a>
</g>
</g>
<!-- Node5 -->
<g id="Node000005" class="node">
<title>Node5</title>
<g id="a_Node000005"><a xlink:href="lapi_8c.html#aa93573057f708d826613186a9d40c87d" target="_top" xlink:title=" ">
<polygon fill="white" stroke="#666666" points="629.75,-283.25 585.25,-283.25 585.25,-264 629.75,-264 629.75,-283.25"/>
<text xml:space="preserve" text-anchor="middle" x="607.5" y="-269.75" font-family="Helvetica,sans-Serif" font-size="10.00">lua_gc</text>
</a>
</g>
</g>
<!-- Node4&#45;&gt;Node5 -->
<g id="edge4_Node000004_Node000005" class="edge">
<title>Node4&#45;&gt;Node5</title>
<g id="a_edge4_Node000004_Node000005"><a xlink:title=" ">
<path fill="none" stroke="#63b8ff" d="M672.77,-273.62C658.25,-273.62 642.47,-273.62 630.18,-273.62"/>
<polygon fill="#63b8ff" stroke="#63b8ff" points="672.55,-277.13 682.55,-273.63 672.55,-270.13 672.55,-277.13"/>
</a>
</g>
</g>
<!-- Node6 -->
<g id="Node000006" class="node">
<title>Node6</title>
<g id="a_Node000006"><a xlink:href="lbaselib_8c.html#a07f71966c943cc9761ab129f64d4ac80" target="_top" xlink:title=" ">
<polygon fill="white" stroke="#666666" points="533.5,-321.25 429.75,-321.25 429.75,-302 533.5,-302 533.5,-321.25"/>
<text xml:space="preserve" text-anchor="middle" x="481.62" y="-307.75" font-family="Helvetica,sans-Serif" font-size="10.00">luaB_collectgarbage</text>
</a>
</g>
</g>
<!-- Node5&#45;&gt;Node6 -->
<g id="edge5_Node000005_Node000006" class="edge">
<title>Node5&#45;&gt;Node6</title>
<g id="a_edge5_Node000005_Node000006"><a xlink:title=" ">
<path fill="none" stroke="#63b8ff" d="M574.07,-283.57C556.06,-289.1 533.7,-295.96 515.6,-301.51"/>
<polygon fill="#63b8ff" stroke="#63b8ff" points="574.94,-286.97 583.48,-280.69 572.89,-280.27 574.94,-286.97"/>
</a>
</g>
</g>
<!-- Node7 -->
<g id="Node000007" class="node">
<title>Node7</title>
<g id="a_Node000007"><a xlink:href="lua_8c.html#a3c04138a5bfe5d72780bb7e82a18e627" target="_top" xlink:title=" ">
<polygon fill="white" stroke="#666666" points="353.25,-208.25 316.25,-208.25 316.25,-189 353.25,-189 353.25,-208.25"/>
<text xml:space="preserve" text-anchor="middle" x="334.75" y="-194.75" font-family="Helvetica,sans-Serif" font-size="10.00">main</text>
</a>
</g>
</g>
<!-- Node5&#45;&gt;Node7 -->
<g id="edge6_Node000005_Node000007" class="edge">
<title>Node5&#45;&gt;Node7</title>
<g id="a_edge6_Node000005_Node000007"><a xlink:title=" ">
<path fill="none" stroke="#63b8ff" d="M573.6,-274.24C537.42,-273.98 478.01,-270.74 429.75,-254.62 398.22,-244.1 365.87,-221.8 348.56,-208.73"/>
<polygon fill="#63b8ff" stroke="#63b8ff" points="573.42,-277.74 583.41,-274.23 573.41,-270.74 573.42,-277.74"/>
</a>
</g>
</g>
<!-- Node8 -->
<g id="Node000008" class="node">
<title>Node8</title>
<g id="a_Node000008"><a xlink:href="lua_8c.html#aa0f8bc082ef913cb0a4df437bf5f5019" target="_top" xlink:title=" ">
<polygon fill="white" stroke="#666666" points="502.75,-245.25 460.5,-245.25 460.5,-226 502.75,-226 502.75,-245.25"/>
<text xml:space="preserve" text-anchor="middle" x="481.62" y="-231.75" font-family="Helvetica,sans-Serif" font-size="10.00">pmain</text>
</a>
</g>
</g>
<!-- Node5&#45;&gt;Node8 -->
<g id="edge7_Node000005_Node000008" class="edge">
<title>Node5&#45;&gt;Node8</title>
<g id="a_edge7_Node000005_Node000008"><a xlink:title=" ">
<path fill="none" stroke="#63b8ff" d="M574.2,-263.72C551.73,-256.82 522.46,-247.85 503.13,-241.92"/>
<polygon fill="#63b8ff" stroke="#63b8ff" points="572.89,-266.98 583.48,-266.56 574.94,-260.28 572.89,-266.98"/>
</a>
</g>
</g>
<!-- Node8&#45;&gt;Node7 -->
<g id="edge8_Node000008_Node000007" class="edge">
<title>Node8&#45;&gt;Node7</title>
<g id="a_edge8_Node000008_Node000007"><a xlink:title=" ">
<path fill="none" stroke="#63b8ff" d="M449.28,-227.62C419.94,-220.13 377.16,-209.2 353.37,-203.12"/>
<polygon fill="#63b8ff" stroke="#63b8ff" points="448.15,-230.94 458.71,-230.03 449.89,-224.16 448.15,-230.94"/>
</a>
</g>
</g>
<!-- Node9&#45;&gt;Node5 -->
<g id="edge38_Node000009_Node000005" class="edge">
<title>Node9&#45;&gt;Node5</title>
<g id="a_edge38_Node000009_Node000005"><a xlink:title=" ">
<path fill="none" stroke="#63b8ff" d="M789.57,-319.94C759.35,-312.37 717.93,-301.95 681.5,-292.62 664.25,-288.21 644.72,-283.12 630.21,-279.32"/>
<polygon fill="#63b8ff" stroke="#63b8ff" points="788.55,-323.29 799.1,-322.32 790.25,-316.5 788.55,-323.29"/>
</a>
</g>
</g>
<!-- Node10 -->
<g id="Node000010" class="node">
<title>Node10</title>
<g id="a_Node000010"><a xlink:href="lstring_8c.html#af8b89b01dc2db9f0d3024067ffdb931a" target="_top" xlink:title=" ">
<polygon fill="white" stroke="#666666" points="745.5,-424.25 683.75,-424.25 683.75,-405 745.5,-405 745.5,-424.25"/>
<text xml:space="preserve" text-anchor="middle" x="714.62" y="-410.75" font-family="Helvetica,sans-Serif" font-size="10.00">growstrtab</text>
</a>
</g>
</g>
<!-- Node9&#45;&gt;Node10 -->
<g id="edge10_Node000009_Node000010" class="edge">
<title>Node9&#45;&gt;Node10</title>
<g id="a_edge10_Node000009_Node000010"><a xlink:title=" ">
<path fill="none" stroke="#63b8ff" d="M809.48,-347.09C785.68,-364.22 749.2,-390.47 729.46,-404.67"/>
<polygon fill="#63b8ff" stroke="#63b8ff" points="811.22,-350.16 817.3,-341.47 807.13,-344.47 811.22,-350.16"/>
</a>
</g>
</g>
<!-- Node383 -->
<g id="Node000383" class="node">
<title>Node383</title>
<g id="a_Node000383"><a xlink:href="lmem_8c.html#abe813b00dc25458292fae7dbfc04ef3b" target="_top" xlink:title=" ">
<polygon fill="white" stroke="#666666" points="739.88,-359.25 689.38,-359.25 689.38,-340 739.88,-340 739.88,-359.25"/>
<text xml:space="preserve" text-anchor="middle" x="714.62" y="-345.75" font-family="Helvetica,sans-Serif" font-size="10.00">tryagain</text>
</a>
</g>
</g>
<!-- Node9&#45;&gt;Node383 -->
<g id="edge39_Node000009_Node000383" class="edge">
<title>Node9&#45;&gt;Node383</title>
<g id="a_edge39_Node000009_Node000383"><a xlink:title=" ">
<path fill="none" stroke="#63b8ff" d="M789.63,-337.58C773,-340.29 754.53,-343.29 740.21,-345.62"/>
<polygon fill="#63b8ff" stroke="#63b8ff" points="789.98,-341.07 799.29,-336.01 788.85,-334.16 789.98,-341.07"/>
</a>
</g>
</g>
<!-- Node11 -->
<g id="Node000011" class="node">
<title>Node11</title>
<g id="a_Node000011"><a xlink:href="lstring_8c.html#a2891c52f2d96252102e7a0a9d8cf37fd" target="_top" xlink:title=" ">
<polygon fill="white" stroke="#666666" points="639.88,-479.25 575.12,-479.25 575.12,-460 639.88,-460 639.88,-479.25"/>
<text xml:space="preserve" text-anchor="middle" x="607.5" y="-465.75" font-family="Helvetica,sans-Serif" font-size="10.00">internshrstr</text>
</a>
</g>
</g>
<!-- Node10&#45;&gt;Node11 -->
<g id="edge11_Node000010_Node000011" class="edge">
<title>Node10&#45;&gt;Node11</title>
<g id="a_edge11_Node000010_Node000011"><a xlink:title=" ">
<path fill="none" stroke="#63b8ff" d="M684.3,-429.97C666.19,-439.44 643.48,-451.32 627.66,-459.6"/>
<polygon fill="#63b8ff" stroke="#63b8ff" points="685.76,-433.15 693,-425.41 682.52,-426.95 685.76,-433.15"/>
</a>
</g>
</g>
<!-- Node12 -->
<g id="Node000012" class="node">
<title>Node12</title>
<g id="a_Node000012"><a xlink:href="lstring_8c.html#af922b364943afbe71e4da82a0c50188c" target="_top" xlink:title=" ">
<polygon fill="white" stroke="#666666" points="517.75,-507.25 445.5,-507.25 445.5,-488 517.75,-488 517.75,-507.25"/>
<text xml:space="preserve" text-anchor="middle" x="481.62" y="-493.75" font-family="Helvetica,sans-Serif" font-size="10.00">luaS_newlstr</text>
</a>
</g>
</g>
<!-- Node11&#45;&gt;Node12 -->
<g id="edge12_Node000011_Node000012" class="edge">
<title>Node11&#45;&gt;Node12</title>
<g id="a_edge12_Node000011_Node000012"><a xlink:title=" ">
<path fill="none" stroke="#63b8ff" d="M563.89,-479.26C548.96,-482.63 532.37,-486.38 518.08,-489.61"/>
<polygon fill="#63b8ff" stroke="#63b8ff" points="564.46,-482.72 573.44,-477.1 562.92,-475.89 564.46,-482.72"/>
</a>
</g>
</g>
<!-- Node13 -->
<g id="Node000013" class="node">
<title>Node13</title>
<g id="a_Node000013"><a xlink:href="lundump_8c.html#ac0523d12e31c707fa1f626add3672fef" target="_top" xlink:title=" ">
<polygon fill="white" stroke="#666666" points="368.25,-395.25 301.25,-395.25 301.25,-376 368.25,-376 368.25,-395.25"/>
<text xml:space="preserve" text-anchor="middle" x="334.75" y="-381.75" font-family="Helvetica,sans-Serif" font-size="10.00">loadStringN</text>
</a>
</g>
</g>
<!-- Node12&#45;&gt;Node13 -->
<g id="edge13_Node000012_Node000013" class="edge">
<title>Node12&#45;&gt;Node13</title>
<g id="a_edge13_Node000012_Node000013"><a xlink:title=" ">
<path fill="none" stroke="#63b8ff" d="M467.49,-478.18C452.17,-456.93 424.92,-423.29 393.75,-403.62 386.17,-398.84 377.23,-395.25 368.67,-392.59"/>
<polygon fill="#63b8ff" stroke="#63b8ff" points="464.55,-480.08 473.15,-486.27 470.28,-476.07 464.55,-480.08"/>
</a>
</g>
</g>
<!-- Node27 -->
<g id="Node000027" class="node">
<title>Node27</title>
<g id="a_Node000027"><a xlink:href="lapi_8c.html#a1de3afee1daece63d455f23818c883d9" target="_top" xlink:title=" ">
<polygon fill="white" stroke="#666666" points="211.62,-658.25 148.38,-658.25 148.38,-639 211.62,-639 211.62,-658.25"/>
<text xml:space="preserve" text-anchor="middle" x="180" y="-644.75" font-family="Helvetica,sans-Serif" font-size="10.00">lua_concat</text>
</a>
</g>
</g>
<!-- Node12&#45;&gt;Node27 -->
<g id="edge18_Node000012_Node000027" class="edge">
<title>Node12&#45;&gt;Node27</title>
<g id="a_edge18_Node000012_Node000027"><a xlink:title=" ">
<path fill="none" stroke="#63b8ff" d="M473.82,-518.16C462.53,-548.61 436.81,-604.91 393.75,-630.62 336.94,-664.55 255.92,-659.91 212.07,-654"/>
<polygon fill="#63b8ff" stroke="#63b8ff" points="477.04,-519.55 477.06,-508.96 470.44,-517.23 477.04,-519.55"/>
</a>
</g>
</g>
<!-- Node300 -->
<g id="Node000300" class="node">
<title>Node300</title>
<g id="a_Node000300"><a xlink:href="lapi_8c.html#a01ac82fa494af5e7c3e10c87a8052cf7" target="_top" xlink:title=" ">
<polygon fill="#fff0f0" stroke="red" points="220.62,-508.25 139.38,-508.25 139.38,-489 220.62,-489 220.62,-508.25"/>
<text xml:space="preserve" text-anchor="middle" x="180" y="-494.75" font-family="Helvetica,sans-Serif" font-size="10.00">lua_pushlstring</text>
</a>
</g>
</g>
<!-- Node12&#45;&gt;Node300 -->
<g id="edge25_Node000012_Node000300" class="edge">
<title>Node12&#45;&gt;Node300</title>
<g id="a_edge25_Node000012_Node000300"><a xlink:title=" ">
<path fill="none" stroke="#63b8ff" d="M433.56,-497.78C374.94,-497.98 275.8,-498.31 220.78,-498.49"/>
<polygon fill="#63b8ff" stroke="#63b8ff" points="433.58,-501.28 443.56,-497.75 433.55,-494.28 433.58,-501.28"/>
</a>
</g>
</g>
<!-- Node306 -->
<g id="Node000306" class="node">
<title>Node306</title>
<g id="a_Node000306"><a xlink:href="lobject_8c.html#a53824ade5220a50d44148175f7787199" target="_top" xlink:title=" ">
<polygon fill="#fff0f0" stroke="red" points="371.62,-469.25 297.88,-469.25 297.88,-450 371.62,-450 371.62,-469.25"/>
<text xml:space="preserve" text-anchor="middle" x="334.75" y="-455.75" font-family="Helvetica,sans-Serif" font-size="10.00">luaO_tostring</text>
</a>
</g>
</g>
<!-- Node12&#45;&gt;Node306 -->
<g id="edge30_Node000012_Node000306" class="edge">
<title>Node12&#45;&gt;Node306</title>
<g id="a_edge30_Node000012_Node000306"><a xlink:title=" ">
<path fill="none" stroke="#63b8ff" d="M434.08,-485.42C414,-480.15 390.87,-474.08 372.08,-469.16"/>
<polygon fill="#63b8ff" stroke="#63b8ff" points="433.16,-488.79 443.72,-487.95 434.94,-482.02 433.16,-488.79"/>
</a>
</g>
</g>
<!-- Node310 -->
<g id="Node000310" class="node">
<title>Node310</title>
<g id="a_Node000310"><a xlink:href="lstring_8c.html#ac9397504696e5cbc6c4cec7649c497ec" target="_top" xlink:title=" ">
<polygon fill="#fff0f0" stroke="red" points="364.12,-545.25 305.38,-545.25 305.38,-526 364.12,-526 364.12,-545.25"/>
<text xml:space="preserve" text-anchor="middle" x="334.75" y="-531.75" font-family="Helvetica,sans-Serif" font-size="10.00">luaS_new</text>
</a>
</g>
</g>
<!-- Node12&#45;&gt;Node310 -->
<g id="edge31_Node000012_Node000310" class="edge">
<title>Node12&#45;&gt;Node310</title>
<g id="a_edge31_Node000012_Node000310"><a xlink:title=" ">
<path fill="none" stroke="#63b8ff" d="M434.3,-509.77C411.38,-515.79 384.43,-522.86 364.51,-528.08"/>
<polygon fill="#63b8ff" stroke="#63b8ff" points="434.94,-513.23 443.72,-507.3 433.16,-506.46 434.94,-513.23"/>
</a>
</g>
</g>
<!-- Node648 -->
<g id="Node000648" class="node">
<title>Node648</title>
<g id="a_Node000648"><a xlink:href="lvm_8c.html#a2f076040af405dcb50d661edd692eca7" target="_top" xlink:title=" ">
<polygon fill="#fff0f0" stroke="red" points="369.75,-621.25 299.75,-621.25 299.75,-602 369.75,-602 369.75,-621.25"/>
<text xml:space="preserve" text-anchor="middle" x="334.75" y="-607.75" font-family="Helvetica,sans-Serif" font-size="10.00">luaV_concat</text>
</a>
</g>
</g>
<!-- Node12&#45;&gt;Node648 -->
<g id="edge33_Node000012_Node000648" class="edge">
<title>Node12&#45;&gt;Node648</title>
<g id="a_edge33_Node000012_Node000648"><a xlink:title=" ">
<path fill="none" stroke="#63b8ff" d="M466.26,-516.6C450.36,-536.51 423.08,-567.66 393.75,-587.62 385.55,-593.21 375.85,-597.85 366.76,-601.52"/>
<polygon fill="#63b8ff" stroke="#63b8ff" points="468.98,-518.8 472.37,-508.76 463.46,-514.5 468.98,-518.8"/>
</a>
</g>
</g>
<!-- Node654 -->
<g id="Node000654" class="node">
<title>Node654</title>
<g id="a_Node000654"><a xlink:href="lobject_8c.html#ae8b33b0604c4756ad7fa4e14316fa9d4" target="_top" xlink:title=" ">
<polygon fill="#fff0f0" stroke="red" points="204.12,-601.25 155.88,-601.25 155.88,-582 204.12,-582 204.12,-601.25"/>
<text xml:space="preserve" text-anchor="middle" x="180" y="-587.75" font-family="Helvetica,sans-Serif" font-size="10.00">pushstr</text>
</a>
</g>
</g>
<!-- Node12&#45;&gt;Node654 -->
<g id="edge37_Node000012_Node000654" class="edge">
<title>Node12&#45;&gt;Node654</title>
<g id="a_edge37_Node000012_Node000654"><a xlink:title=" ">
<path fill="none" stroke="#63b8ff" d="M459.96,-514.71C443.15,-527.7 418.29,-544.92 393.75,-554.62 328.38,-580.47 244.64,-588.3 204.5,-590.65"/>
<polygon fill="#63b8ff" stroke="#63b8ff" points="462.01,-517.55 467.67,-508.59 457.66,-512.07 462.01,-517.55"/>
</a>
</g>
</g>
<!-- Node620 -->
<g id="Node000620" class="node">
<title>Node620</title>
<g id="a_Node000620"><a xlink:href="llex_8c.html#a51ec8735f32a452d48a77e71e9dd0a3b" target="_top" xlink:title=" ">
<polygon fill="#fff0f0" stroke="red" points="376.12,-432.25 293.38,-432.25 293.38,-413 376.12,-413 376.12,-432.25"/>
<text xml:space="preserve" text-anchor="middle" x="334.75" y="-418.75" font-family="Helvetica,sans-Serif" font-size="10.00">luaX_newstring</text>
</a>
</g>
</g>
<!-- Node12&#45;&gt;Node620 -->
<g id="edge36_Node000012_Node000620" class="edge">
<title>Node12&#45;&gt;Node620</title>
<g id="a_edge36_Node000012_Node000620"><a xlink:title=" ">
<path fill="none" stroke="#63b8ff" d="M458.7,-480.75C441.72,-468.31 417.21,-451.69 393.75,-440.62 387.46,-437.66 380.55,-435.02 373.77,-432.75"/>
<polygon fill="#63b8ff" stroke="#63b8ff" points="456.45,-483.43 466.55,-486.61 460.64,-477.82 456.45,-483.43"/>
</a>
</g>
</g>
<!-- Node14 -->
<g id="Node000014" class="node">
<title>Node14</title>
<g id="a_Node000014"><a xlink:href="lundump_8c.html#a121ddfe27d3762c4b5ed14bd3746af7a" target="_top" xlink:title=" ">
<polygon fill="white" stroke="#666666" points="211.25,-358.25 148.75,-358.25 148.75,-339 211.25,-339 211.25,-358.25"/>
<text xml:space="preserve" text-anchor="middle" x="180" y="-344.75" font-family="Helvetica,sans-Serif" font-size="10.00">loadDebug</text>
</a>
</g>
</g>
<!-- Node13&#45;&gt;Node14 -->
<g id="edge14_Node000013_Node000014" class="edge">
<title>Node13&#45;&gt;Node14</title>
<g id="a_edge14_Node000013_Node000014"><a xlink:title=" ">
<path fill="none" stroke="#63b8ff" d="M289.93,-375.01C264.88,-368.94 234.08,-361.48 211.63,-356.05"/>
<polygon fill="#63b8ff" stroke="#63b8ff" points="288.97,-378.38 299.51,-377.33 290.62,-371.58 288.97,-378.38"/>
</a>
</g>
</g>
<!-- Node15 -->
<g id="Node000015" class="node">
<title>Node15</title>
<g id="a_Node000015"><a xlink:href="lundump_8c.html#a894435708ede05d12c7e81033dae380f" target="_top" xlink:title=" ">
<polygon fill="#fff0f0" stroke="red" points="77.88,-378.25 6.38,-378.25 6.38,-359 77.88,-359 77.88,-378.25"/>
<text xml:space="preserve" text-anchor="middle" x="42.12" y="-364.75" font-family="Helvetica,sans-Serif" font-size="10.00">loadFunction</text>
</a>
</g>
</g>
<!-- Node13&#45;&gt;Node15 -->
<g id="edge16_Node000013_Node000015" class="edge">
<title>Node13&#45;&gt;Node15</title>
<g id="a_edge16_Node000013_Node000015"><a xlink:title=" ">
<path fill="none" stroke="#63b8ff" d="M289.74,-397.3C246.22,-407.03 177.94,-417.43 120.25,-404.62 97.89,-399.66 74.33,-387.51 59.23,-378.7"/>
<polygon fill="#63b8ff" stroke="#63b8ff" points="290.38,-400.74 299.32,-395.06 288.79,-393.93 290.38,-400.74"/>
</a>
</g>
</g>
<!-- Node25 -->
<g id="Node000025" class="node">
<title>Node25</title>
<g id="a_Node000025"><a xlink:href="lundump_8c.html#a883618a9a2104461096fb633c7df2f33" target="_top" xlink:title=" ">
<polygon fill="#fff0f0" stroke="red" points="209.75,-395.25 150.25,-395.25 150.25,-376 209.75,-376 209.75,-395.25"/>
<text xml:space="preserve" text-anchor="middle" x="180" y="-381.75" font-family="Helvetica,sans-Serif" font-size="10.00">loadString</text>
</a>
</g>
</g>
<!-- Node13&#45;&gt;Node25 -->
<g id="edge17_Node000013_Node000025" class="edge">
<title>Node13&#45;&gt;Node25</title>
<g id="a_edge17_Node000013_Node000025"><a xlink:title=" ">
<path fill="none" stroke="#63b8ff" d="M289.7,-385.62C264.12,-385.62 232.6,-385.62 210.1,-385.62"/>
<polygon fill="#63b8ff" stroke="#63b8ff" points="289.47,-389.13 299.47,-385.63 289.47,-382.13 289.47,-389.13"/>
</a>
</g>
</g>
<!-- Node14&#45;&gt;Node15 -->
<g id="edge15_Node000014_Node000015" class="edge">
<title>Node14&#45;&gt;Node15</title>
<g id="a_edge15_Node000014_Node000015"><a xlink:title=" ">
<path fill="none" stroke="#63b8ff" d="M137.24,-354.77C118.37,-357.55 96.33,-360.79 78.32,-363.45"/>
<polygon fill="#63b8ff" stroke="#63b8ff" points="137.63,-358.25 147.01,-353.33 136.61,-351.33 137.63,-358.25"/>
</a>
</g>
</g>
<!-- Node28 -->
<g id="Node000028" class="node">
<title>Node28</title>
<g id="a_Node000028"><a xlink:href="lauxlib_8c.html#a36c8f149b779f8c9a5c042ea9784d80a" target="_top" xlink:title=" ">
<polygon fill="#fff0f0" stroke="red" points="67,-695.25 17.25,-695.25 17.25,-676 67,-676 67,-695.25"/>
<text xml:space="preserve" text-anchor="middle" x="42.12" y="-681.75" font-family="Helvetica,sans-Serif" font-size="10.00">findfield</text>
</a>
</g>
</g>
<!-- Node27&#45;&gt;Node28 -->
<g id="edge19_Node000027_Node000028" class="edge">
<title>Node27&#45;&gt;Node28</title>
<g id="a_edge19_Node000027_Node000028"><a xlink:title=" ">
<path fill="none" stroke="#63b8ff" d="M137.3,-659.98C114.26,-666.25 86.47,-673.82 67.07,-679.1"/>
<polygon fill="#63b8ff" stroke="#63b8ff" points="137.98,-663.42 146.71,-657.42 136.14,-656.67 137.98,-663.42"/>
</a>
</g>
</g>
<!-- Node180 -->
<g id="Node000180" class="node">
<title>Node180</title>
<g id="a_Node000180"><a xlink:href="lcorolib_8c.html#a777abb20385a69ce4787f72bd90375a7" target="_top" xlink:title=" ">
<polygon fill="#fff0f0" stroke="red" points="80.88,-658.25 3.38,-658.25 3.38,-639 80.88,-639 80.88,-658.25"/>
<text xml:space="preserve" text-anchor="middle" x="42.12" y="-644.75" font-family="Helvetica,sans-Serif" font-size="10.00">luaB_auxwrap</text>
</a>
</g>
</g>
<!-- Node27&#45;&gt;Node180 -->
<g id="edge21_Node000027_Node000180" class="edge">
<title>Node27&#45;&gt;Node180</title>
<g id="a_edge21_Node000027_Node000180"><a xlink:title=" ">
<path fill="none" stroke="#63b8ff" d="M136.71,-648.62C119.02,-648.62 98.6,-648.62 81.36,-648.62"/>
<polygon fill="#63b8ff" stroke="#63b8ff" points="136.65,-652.13 146.65,-648.63 136.65,-645.13 136.65,-652.13"/>
</a>
</g>
</g>
<!-- Node76 -->
<g id="Node000076" class="node">
<title>Node76</title>
<g id="a_Node000076"><a xlink:href="lbaselib_8c.html#a2ecfa987569d0b4c1063f3e204e42dd2" target="_top" xlink:title=" ">
<polygon fill="#fff0f0" stroke="red" points="72.25,-621.25 12,-621.25 12,-602 72.25,-602 72.25,-621.25"/>
<text xml:space="preserve" text-anchor="middle" x="42.12" y="-607.75" font-family="Helvetica,sans-Serif" font-size="10.00">luaB_error</text>
</a>
</g>
</g>
<!-- Node27&#45;&gt;Node76 -->
<g id="edge22_Node000027_Node000076" class="edge">
<title>Node27&#45;&gt;Node76</title>
<g id="a_edge22_Node000027_Node000076"><a xlink:title=" ">
<path fill="none" stroke="#63b8ff" d="M137.29,-637.27C116.31,-631.55 91.37,-624.76 72.44,-619.61"/>
<polygon fill="#63b8ff" stroke="#63b8ff" points="136.14,-640.58 146.71,-639.83 137.98,-633.83 136.14,-640.58"/>
</a>
</g>
</g>
<!-- Node181 -->
<g id="Node000181" class="node">
<title>Node181</title>
<g id="a_Node000181"><a xlink:href="lauxlib_8c.html#a6c51d83d29244779392551388913e08a" target="_top" xlink:title=" ">
<polygon fill="#fff0f0" stroke="red" points="71.5,-584.25 12.75,-584.25 12.75,-565 71.5,-565 71.5,-584.25"/>
<text xml:space="preserve" text-anchor="middle" x="42.12" y="-570.75" font-family="Helvetica,sans-Serif" font-size="10.00">luaL_error</text>
</a>
</g>
</g>
<!-- Node27&#45;&gt;Node181 -->
<g id="edge23_Node000027_Node000181" class="edge">
<title>Node27&#45;&gt;Node181</title>
<g id="a_edge23_Node000027_Node000181"><a xlink:title=" ">
<path fill="none" stroke="#63b8ff" d="M153.64,-632.49C134.82,-620.81 108.36,-604.97 84.25,-592.62 78.84,-589.85 72.91,-587.1 67.27,-584.61"/>
<polygon fill="#63b8ff" stroke="#63b8ff" points="151.62,-635.36 161.96,-637.71 155.34,-629.43 151.62,-635.36"/>
</a>
</g>
</g>
<!-- Node271 -->
<g id="Node000271" class="node">
<title>Node271</title>
<g id="a_Node000271"><a xlink:href="lua_8c.html#affef5a04b31963c2c3f5028518777e12" target="_top" xlink:title=" ">
<polygon fill="#fff0f0" stroke="red" points="68.12,-750.25 16.12,-750.25 16.12,-731 68.12,-731 68.12,-750.25"/>
<text xml:space="preserve" text-anchor="middle" x="42.12" y="-736.75" font-family="Helvetica,sans-Serif" font-size="10.00">multiline</text>
</a>
</g>
</g>
<!-- Node27&#45;&gt;Node271 -->
<g id="edge24_Node000027_Node000271" class="edge">
<title>Node27&#45;&gt;Node271</title>
<g id="a_edge24_Node000027_Node000271"><a xlink:title=" ">
<path fill="none" stroke="#63b8ff" d="M159.61,-666.14C141.17,-682.21 112.16,-705.98 84.25,-722.62 79.3,-725.58 73.77,-728.33 68.42,-730.75"/>
<polygon fill="#63b8ff" stroke="#63b8ff" points="161.7,-668.97 166.87,-659.72 157.06,-663.72 161.7,-668.97"/>
</a>
</g>
</g>
<!-- Node28&#45;&gt;Node28 -->
<g id="edge20_Node000028_Node000028" class="edge">
<title>Node28&#45;&gt;Node28</title>
<g id="a_edge20_Node000028_Node000028"><a xlink:title=" ">
<path fill="none" stroke="#63b8ff" d="M66.6,-706.65C63.54,-710.53 55.38,-713.25 42.12,-713.25 17.89,-713.25 10.69,-704.15 20.54,-695.54"/>
<polygon fill="#63b8ff" stroke="#63b8ff" points="69.99,-705.8 64.09,-697 63.22,-707.56 69.99,-705.8"/>
</a>
</g>
</g>
<!-- Node35 -->
<g id="Node000035" class="node">
<title>Node35</title>
<g id="a_Node000035"><a xlink:href="ldblib_8c.html#a4eb57e66c2efb2d31c9b9e1b01d27e13" target="_top" xlink:title=" ">
<polygon fill="white" stroke="#666666" points="72.62,-508.25 11.63,-508.25 11.63,-489 72.62,-489 72.62,-508.25"/>
<text xml:space="preserve" text-anchor="middle" x="42.12" y="-494.75" font-family="Helvetica,sans-Serif" font-size="10.00">db_getinfo</text>
</a>
</g>
</g>
<!-- Node300&#45;&gt;Node35 -->
<g id="edge26_Node000300_Node000035" class="edge">
<title>Node300&#45;&gt;Node35</title>
<g id="a_edge26_Node000300_Node000035"><a xlink:title=" ">
<path fill="none" stroke="#63b8ff" d="M127.47,-498.62C109.06,-498.62 88.93,-498.62 72.95,-498.62"/>
<polygon fill="#63b8ff" stroke="#63b8ff" points="127.45,-502.13 137.45,-498.63 127.45,-495.13 127.45,-502.13"/>
</a>
</g>
</g>
<!-- Node242 -->
<g id="Node000242" class="node">
<title>Node242</title>
<g id="a_Node000242"><a xlink:href="loadlib_8c.html#a91ac5b5231cf039af46226806dcc3884" target="_top" xlink:title=" ">
<polygon fill="#fff0f0" stroke="red" points="68.5,-471.25 15.75,-471.25 15.75,-452 68.5,-452 68.5,-471.25"/>
<text xml:space="preserve" text-anchor="middle" x="42.12" y="-457.75" font-family="Helvetica,sans-Serif" font-size="10.00">loadfunc</text>
</a>
</g>
</g>
<!-- Node300&#45;&gt;Node242 -->
<g id="edge27_Node000300_Node000242" class="edge">
<title>Node300&#45;&gt;Node242</title>
<g id="a_edge27_Node000300_Node000242"><a xlink:title=" ">
<path fill="none" stroke="#63b8ff" d="M130.87,-485.52C109.87,-479.8 86.1,-473.33 68.6,-468.56"/>
<polygon fill="#63b8ff" stroke="#63b8ff" points="129.84,-488.87 140.41,-488.12 131.68,-482.11 129.84,-488.87"/>
</a>
</g>
</g>
<!-- Node301 -->
<g id="Node000301" class="node">
<title>Node301</title>
<g id="a_Node000301"><a xlink:href="lauxlib_8c.html#a3a1f80033814e2057583a7d24cee23b4" target="_top" xlink:title=" ">
<polygon fill="#fff0f0" stroke="red" points="84.25,-434.25 0,-434.25 0,-415 84.25,-415 84.25,-434.25"/>
<text xml:space="preserve" text-anchor="middle" x="42.12" y="-420.75" font-family="Helvetica,sans-Serif" font-size="10.00">luaL_pushresult</text>
</a>
</g>
</g>
<!-- Node300&#45;&gt;Node301 -->
<g id="edge28_Node000300_Node000301" class="edge">
<title>Node300&#45;&gt;Node301</title>
<g id="a_edge28_Node000300_Node000301"><a xlink:title=" ">
<path fill="none" stroke="#63b8ff" d="M153.64,-482.49C134.82,-470.81 108.36,-454.97 84.25,-442.62 78.84,-439.85 72.91,-437.1 67.27,-434.61"/>
<polygon fill="#63b8ff" stroke="#63b8ff" points="151.62,-485.36 161.96,-487.71 155.34,-479.43 151.62,-485.36"/>
</a>
</g>
</g>
<!-- Node305 -->
<g id="Node000305" class="node">
<title>Node305</title>
<g id="a_Node000305"><a xlink:href="lutf8lib_8c.html#ae1247f71bc4b3f3be7da9c9d5c7668b1" target="_top" xlink:title=" ">
<polygon fill="#fff0f0" stroke="red" points="77.88,-545.25 6.38,-545.25 6.38,-526 77.88,-526 77.88,-545.25"/>
<text xml:space="preserve" text-anchor="middle" x="42.12" y="-531.75" font-family="Helvetica,sans-Serif" font-size="10.00">luaopen_utf8</text>
</a>
</g>
</g>
<!-- Node300&#45;&gt;Node305 -->
<g id="edge29_Node000300_Node000305" class="edge">
<title>Node300&#45;&gt;Node305</title>
<g id="a_edge29_Node000300_Node000305"><a xlink:title=" ">
<path fill="none" stroke="#63b8ff" d="M130.82,-511.74C113.52,-516.46 94.34,-521.68 78.34,-526.04"/>
<polygon fill="#63b8ff" stroke="#63b8ff" points="131.68,-515.14 140.41,-509.13 129.84,-508.38 131.68,-515.14"/>
</a>
</g>
</g>
<!-- Node310&#45;&gt;Node300 -->
<g id="edge32_Node000310_Node000300" class="edge">
<title>Node310&#45;&gt;Node300</title>
<g id="a_edge32_Node000310_Node000300"><a xlink:title=" ">
<path fill="none" stroke="#63b8ff" d="M294.13,-526.03C271.58,-520.57 243.42,-513.75 220.84,-508.28"/>
<polygon fill="#63b8ff" stroke="#63b8ff" points="293,-529.36 303.55,-528.31 294.65,-522.55 293,-529.36"/>
</a>
</g>
</g>
<!-- Node648&#45;&gt;Node27 -->
<g id="edge34_Node000648_Node000027" class="edge">
<title>Node648&#45;&gt;Node27</title>
<g id="a_edge34_Node000648_Node000027"><a xlink:title=" ">
<path fill="none" stroke="#63b8ff" d="M288.56,-622.57C263.92,-628.54 234.06,-635.77 212.05,-641.1"/>
<polygon fill="#63b8ff" stroke="#63b8ff" points="289.1,-626.04 298,-620.28 287.46,-619.24 289.1,-626.04"/>
</a>
</g>
</g>
<!-- Node648&#45;&gt;Node654 -->
<g id="edge35_Node000648_Node000654" class="edge">
<title>Node648&#45;&gt;Node654</title>
<g id="a_edge35_Node000648_Node000654"><a xlink:title=" ">
<path fill="none" stroke="#63b8ff" d="M288.09,-605.65C260.48,-602.03 226.45,-597.58 204.26,-594.67"/>
<polygon fill="#63b8ff" stroke="#63b8ff" points="287.6,-609.11 297.97,-606.94 288.51,-602.17 287.6,-609.11"/>
</a>
</g>
</g>
<!-- Node384 -->
<g id="Node000384" class="node">
<title>Node384</title>
<g id="a_Node000384"><a xlink:href="lmem_8c.html#af0c92d038f767832eb8dd29eb0678096" target="_top" xlink:title=" ">
<polygon fill="white" stroke="#666666" points="645.5,-322.25 569.5,-322.25 569.5,-303 645.5,-303 645.5,-322.25"/>
<text xml:space="preserve" text-anchor="middle" x="607.5" y="-308.75" font-family="Helvetica,sans-Serif" font-size="10.00">luaM_malloc_</text>
</a>
</g>
</g>
<!-- Node383&#45;&gt;Node384 -->
<g id="edge40_Node000383_Node000384" class="edge">
<title>Node383&#45;&gt;Node384</title>
<g id="a_edge40_Node000383_Node000384"><a xlink:title=" ">
<path fill="none" stroke="#63b8ff" d="M678.21,-337.16C664.83,-332.45 649.77,-327.15 637.09,-322.69"/>
<polygon fill="#63b8ff" stroke="#63b8ff" points="676.96,-340.43 687.55,-340.45 679.28,-333.83 676.96,-340.43"/>
</a>
</g>
</g>
<!-- Node380 -->
<g id="Node000380" class="node">
<title>Node380</title>
<g id="a_Node000380"><a xlink:href="lmem_8c.html#a7dd4e9ddf6987797216fa9cf4bc23954" target="_top" xlink:title=" ">
<polygon fill="white" stroke="#666666" points="645.5,-359.25 569.5,-359.25 569.5,-340 645.5,-340 645.5,-359.25"/>
<text xml:space="preserve" text-anchor="middle" x="607.5" y="-345.75" font-family="Helvetica,sans-Serif" font-size="10.00">luaM_realloc_</text>
</a>
</g>
</g>
<!-- Node383&#45;&gt;Node380 -->
<g id="edge41_Node000383_Node000380" class="edge">
<title>Node383&#45;&gt;Node380</title>
<g id="a_edge41_Node000383_Node000380"><a xlink:title=" ">
<path fill="none" stroke="#63b8ff" d="M677.48,-349.62C667.24,-349.62 656.07,-349.62 645.76,-349.62"/>
<polygon fill="#63b8ff" stroke="#63b8ff" points="677.46,-353.13 687.46,-349.63 677.46,-346.13 677.46,-353.13"/>
</a>
</g>
</g>
<!-- Node381 -->
<g id="Node000381" class="node">
<title>Node381</title>
<g id="a_Node000381"><a xlink:href="lmem_8c.html#a8cb94bca57e8ae6aff344d3e6e4593af" target="_top" xlink:title=" ">
<polygon fill="white" stroke="#666666" points="529,-358.25 434.25,-358.25 434.25,-339 529,-339 529,-358.25"/>
<text xml:space="preserve" text-anchor="middle" x="481.62" y="-344.75" font-family="Helvetica,sans-Serif" font-size="10.00">luaM_saferealloc_</text>
</a>
</g>
</g>
<!-- Node380&#45;&gt;Node381 -->
<g id="edge42_Node000380_Node000381" class="edge">
<title>Node380&#45;&gt;Node381</title>
<g id="a_edge42_Node000380_Node000381"><a xlink:title=" ">
<path fill="none" stroke="#63b8ff" d="M558.11,-349.23C548.68,-349.16 538.81,-349.08 529.43,-349"/>
<polygon fill="#63b8ff" stroke="#63b8ff" points="557.79,-352.73 567.82,-349.31 557.85,-345.73 557.79,-352.73"/>
</a>
</g>
</g>
<!-- Node379 -->
<g id="Node000379" class="node">
<title>Node379</title>
<g id="a_Node000379"><a xlink:href="lmem_8c.html#a1c0358fd91c39b2040eebb75ed4c14e5" target="_top" xlink:title=" ">
<polygon fill="white" stroke="#666666" points="376.88,-321.25 292.62,-321.25 292.62,-302 376.88,-302 376.88,-321.25"/>
<text xml:space="preserve" text-anchor="middle" x="334.75" y="-307.75" font-family="Helvetica,sans-Serif" font-size="10.00">luaM_growaux_</text>
</a>
</g>
</g>
<!-- Node381&#45;&gt;Node379 -->
<g id="edge43_Node000381_Node000379" class="edge">
<title>Node381&#45;&gt;Node379</title>
<g id="a_edge43_Node000381_Node000379"><a xlink:title=" ">
<path fill="none" stroke="#63b8ff" d="M429.89,-335.67C411.99,-331.1 392.13,-326.02 375.29,-321.72"/>
<polygon fill="#63b8ff" stroke="#63b8ff" points="429.02,-339.06 439.57,-338.14 430.75,-332.27 429.02,-339.06"/>
</a>
</g>
</g>
<!-- Node382 -->
<g id="Node000382" class="node">
<title>Node382</title>
<g id="a_Node000382"><a xlink:href="lmem_8c.html#a7fe3cdb7f4720a11dc0054167d2be20b" target="_top" xlink:title=" ">
<polygon fill="white" stroke="#666666" points="385.12,-358.25 284.38,-358.25 284.38,-339 385.12,-339 385.12,-358.25"/>
<text xml:space="preserve" text-anchor="middle" x="334.75" y="-344.75" font-family="Helvetica,sans-Serif" font-size="10.00">luaM_shrinkvector_</text>
</a>
</g>
</g>
<!-- Node381&#45;&gt;Node382 -->
<g id="edge44_Node000381_Node000382" class="edge">
<title>Node381&#45;&gt;Node382</title>
<g id="a_edge44_Node000381_Node000382"><a xlink:title=" ">
<path fill="none" stroke="#63b8ff" d="M422.48,-348.62C410.25,-348.62 397.44,-348.62 385.55,-348.62"/>
<polygon fill="#63b8ff" stroke="#63b8ff" points="422.47,-352.13 432.47,-348.63 422.47,-345.13 422.47,-352.13"/>
</a>
</g>
</g>
<!-- Node695&#45;&gt;Node5 -->
<g id="edge46_Node000695_Node000005" class="edge">
<title>Node695&#45;&gt;Node5</title>
<g id="a_edge46_Node000695_Node000005"><a xlink:title=" ">
<path fill="none" stroke="#63b8ff" d="M907.04,-236.34C849.13,-237.8 758.78,-242.11 681.5,-254.62 663.92,-257.47 644.42,-262.66 629.99,-266.89"/>
<polygon fill="#63b8ff" stroke="#63b8ff" points="907.11,-239.84 917.02,-236.11 906.95,-232.84 907.11,-239.84"/>
</a>
</g>
</g>
<!-- Node417 -->
<g id="Node000417" class="node">
<title>Node417</title>
<g id="a_Node000417"><a xlink:href="lgc_8c.html#abad938b33f011ec1088d1a79508c6ac9" target="_top" xlink:title=" ">
<polygon fill="white" stroke="#666666" points="883,-207.25 783.75,-207.25 783.75,-188 883,-188 883,-207.25"/>
<text xml:space="preserve" text-anchor="middle" x="833.38" y="-193.75" font-family="Helvetica,sans-Serif" font-size="10.00">luaC_freeallobjects</text>
</a>
</g>
</g>
<!-- Node695&#45;&gt;Node417 -->
<g id="edge47_Node000695_Node000417" class="edge">
<title>Node695&#45;&gt;Node417</title>
<g id="a_edge47_Node000695_Node000417"><a xlink:title=" ">
<path fill="none" stroke="#63b8ff" d="M920.67,-222.44C903.76,-217.58 884.91,-212.16 869.14,-207.62"/>
<polygon fill="#63b8ff" stroke="#63b8ff" points="919.41,-225.72 929.99,-225.12 921.34,-219 919.41,-225.72"/>
</a>
</g>
</g>
<!-- Node406 -->
<g id="Node000406" class="node">
<title>Node406</title>
<g id="a_Node000406"><a xlink:href="lstate_8c.html#a4940327dfa3b86df0ef008180bb3fcb3" target="_top" xlink:title=" ">
<polygon fill="white" stroke="#666666" points="747.75,-207.25 681.5,-207.25 681.5,-188 747.75,-188 747.75,-207.25"/>
<text xml:space="preserve" text-anchor="middle" x="714.62" y="-193.75" font-family="Helvetica,sans-Serif" font-size="10.00">close_state</text>
</a>
</g>
</g>
<!-- Node417&#45;&gt;Node406 -->
<g id="edge48_Node000417_Node000406" class="edge">
<title>Node417&#45;&gt;Node406</title>
<g id="a_edge48_Node000417_Node000406"><a xlink:title=" ">
<path fill="none" stroke="#63b8ff" d="M772.19,-197.62C763.85,-197.62 755.55,-197.62 747.99,-197.62"/>
<polygon fill="#63b8ff" stroke="#63b8ff" points="772.03,-201.13 782.03,-197.63 772.03,-194.13 772.03,-201.13"/>
</a>
</g>
</g>
<!-- Node407 -->
<g id="Node000407" class="node">
<title>Node407</title>
<g id="a_Node000407"><a xlink:href="lstate_8c.html#a5d903983f1497b2fc58fba9df09e354d" target="_top" xlink:title=" ">
<polygon fill="white" stroke="#666666" points="636.12,-95.25 578.88,-95.25 578.88,-76 636.12,-76 636.12,-95.25"/>
<text xml:space="preserve" text-anchor="middle" x="607.5" y="-81.75" font-family="Helvetica,sans-Serif" font-size="10.00">lua_close</text>
</a>
</g>
</g>
<!-- Node406&#45;&gt;Node407 -->
<g id="edge49_Node000406_Node000407" class="edge">
<title>Node406&#45;&gt;Node407</title>
<g id="a_edge49_Node000406_Node000407"><a xlink:title=" ">
<path fill="none" stroke="#63b8ff" d="M696.59,-179.47C674.22,-155.64 635.71,-114.61 617.96,-95.7"/>
<polygon fill="#63b8ff" stroke="#63b8ff" points="693.86,-181.69 703.26,-186.58 698.97,-176.9 693.86,-181.69"/>
</a>
</g>
</g>
<!-- Node362 -->
<g id="Node000362" class="node">
<title>Node362</title>
<g id="a_Node000362"><a xlink:href="lstate_8c.html#a02f761396ac35439932f4f0a7ff90b31" target="_top" xlink:title=" ">
<polygon fill="white" stroke="#666666" points="644.38,-207.25 570.62,-207.25 570.62,-188 644.38,-188 644.38,-207.25"/>
<text xml:space="preserve" text-anchor="middle" x="607.5" y="-193.75" font-family="Helvetica,sans-Serif" font-size="10.00">lua_newstate</text>
</a>
</g>
</g>
<!-- Node406&#45;&gt;Node362 -->
<g id="edge57_Node000406_Node000362" class="edge">
<title>Node406&#45;&gt;Node362</title>
<g id="a_edge57_Node000406_Node000362"><a xlink:title=" ">
<path fill="none" stroke="#63b8ff" d="M669.71,-197.62C661.36,-197.62 652.72,-197.62 644.64,-197.62"/>
<polygon fill="#63b8ff" stroke="#63b8ff" points="669.71,-201.13 679.71,-197.63 669.71,-194.13 669.71,-201.13"/>
</a>
</g>
</g>
<!-- Node407&#45;&gt;Node7 -->
<g id="edge50_Node000407_Node000007" class="edge">
<title>Node407&#45;&gt;Node7</title>
<g id="a_edge50_Node000407_Node000007"><a xlink:title=" ">
<path fill="none" stroke="#63b8ff" d="M567.87,-95.38C531.42,-105.2 475.68,-121.86 429.75,-142.62 400.15,-156.01 368.15,-176.5 350.17,-188.63"/>
<polygon fill="#63b8ff" stroke="#63b8ff" points="568.3,-98.88 577.07,-92.94 566.5,-92.12 568.3,-98.88"/>
</a>
</g>
</g>
<!-- Node79 -->
<g id="Node000079" class="node">
<title>Node79</title>
<g id="a_Node000079"><a xlink:href="loslib_8c.html#a905e81425fe3d6d0b363c10162a2a37b" target="_top" xlink:title=" ">
<polygon fill="white" stroke="#666666" points="505.38,-95.25 457.88,-95.25 457.88,-76 505.38,-76 505.38,-95.25"/>
<text xml:space="preserve" text-anchor="middle" x="481.62" y="-81.75" font-family="Helvetica,sans-Serif" font-size="10.00">os_exit</text>
</a>
</g>
</g>
<!-- Node407&#45;&gt;Node79 -->
<g id="edge51_Node000407_Node000079" class="edge">
<title>Node407&#45;&gt;Node79</title>
<g id="a_edge51_Node000407_Node000079"><a xlink:title=" ">
<path fill="none" stroke="#63b8ff" d="M566.99,-85.62C546.76,-85.62 522.84,-85.62 505.65,-85.62"/>
<polygon fill="#63b8ff" stroke="#63b8ff" points="566.88,-89.13 576.88,-85.63 566.88,-82.13 566.88,-89.13"/>
</a>
</g>
</g>
<!-- Node200 -->
<g id="Node000200" class="node">
<title>Node200</title>
<g id="a_Node000200"><a xlink:href="script_8c.html#a84508ce31c18af8792081eb1cdfc77b8" target="_top" xlink:title=" ">
<polygon fill="white" stroke="#666666" points="369,-57.25 300.5,-57.25 300.5,-38 369,-38 369,-57.25"/>
<text xml:space="preserve" text-anchor="middle" x="334.75" y="-43.75" font-family="Helvetica,sans-Serif" font-size="10.00">script_begin</text>
</a>
</g>
</g>
<!-- Node407&#45;&gt;Node200 -->
<g id="edge52_Node000407_Node000200" class="edge">
<title>Node407&#45;&gt;Node200</title>
<g id="a_edge52_Node000407_Node000200"><a xlink:title=" ">
<path fill="none" stroke="#63b8ff" d="M567.67,-74.3C556.7,-71.43 544.7,-68.61 533.5,-66.62 476.27,-56.49 408.71,-51.47 369.21,-49.22"/>
<polygon fill="#63b8ff" stroke="#63b8ff" points="566.62,-77.64 577.19,-76.87 568.45,-70.88 566.62,-77.64"/>
</a>
</g>
</g>
<!-- Node408 -->
<g id="Node000408" class="node">
<title>Node408</title>
<g id="a_Node000408"><a xlink:href="script_8c.html#a9e80871e044f7380196e6504f58f479b" target="_top" xlink:title=" ">
<polygon fill="white" stroke="#666666" points="512.12,-19.25 451.12,-19.25 451.12,0 512.12,0 512.12,-19.25"/>
<text xml:space="preserve" text-anchor="middle" x="481.62" y="-5.75" font-family="Helvetica,sans-Serif" font-size="10.00">script_end</text>
</a>
</g>
</g>
<!-- Node407&#45;&gt;Node408 -->
<g id="edge54_Node000407_Node000408" class="edge">
<title>Node407&#45;&gt;Node408</title>
<g id="a_edge54_Node000407_Node000408"><a xlink:title=" ">
<path fill="none" stroke="#63b8ff" d="M584.84,-68.65C570.67,-57.93 551.5,-44.17 533.5,-33.62 524.82,-28.54 514.89,-23.66 506.12,-19.65"/>
<polygon fill="#63b8ff" stroke="#63b8ff" points="582.52,-71.27 592.58,-74.58 586.78,-65.72 582.52,-71.27"/>
</a>
</g>
</g>
<!-- Node201 -->
<g id="Node000201" class="node">
<title>Node201</title>
<g id="a_Node000201"><a xlink:href="game__scene_8c.html#ab923ed4c6ccad95026e85e252071716d" target="_top" xlink:title=" ">
<polygon fill="#fff0f0" stroke="red" points="239.75,-39.25 120.25,-39.25 120.25,-20 239.75,-20 239.75,-39.25"/>
<text xml:space="preserve" text-anchor="middle" x="180" y="-25.75" font-family="Helvetica,sans-Serif" font-size="10.00">PGB_GameScene_new</text>
</a>
</g>
</g>
<!-- Node200&#45;&gt;Node201 -->
<g id="edge53_Node000200_Node000201" class="edge">
<title>Node200&#45;&gt;Node201</title>
<g id="a_edge53_Node000200_Node000201"><a xlink:title=" ">
<path fill="none" stroke="#63b8ff" d="M288.97,-42.35C273.64,-40.54 256.26,-38.49 239.99,-36.58"/>
<polygon fill="#63b8ff" stroke="#63b8ff" points="288.38,-45.8 298.73,-43.5 289.2,-38.85 288.38,-45.8"/>
</a>
</g>
</g>
<!-- Node409 -->
<g id="Node000409" class="node">
<title>Node409</title>
<g id="a_Node000409"><a xlink:href="game__scene_8c.html#a963582a448d4e4e2953e59d75b9d9f64" target="_top" xlink:title=" ">
<polygon fill="white" stroke="#666666" points="393.75,-20.25 275.75,-20.25 275.75,-1 393.75,-1 393.75,-20.25"/>
<text xml:space="preserve" text-anchor="middle" x="334.75" y="-6.75" font-family="Helvetica,sans-Serif" font-size="10.00">PGB_GameScene_free</text>
</a>
</g>
</g>
<!-- Node408&#45;&gt;Node409 -->
<g id="edge55_Node000408_Node000409" class="edge">
<title>Node408&#45;&gt;Node409</title>
<g id="a_edge55_Node000408_Node000409"><a xlink:title=" ">
<path fill="none" stroke="#63b8ff" d="M439.61,-9.91C425.47,-10.01 409.35,-10.12 394.1,-10.22"/>
<polygon fill="#63b8ff" stroke="#63b8ff" points="439.47,-13.41 449.44,-9.84 439.42,-6.41 439.47,-13.41"/>
</a>
</g>
</g>
<!-- Node409&#45;&gt;Node201 -->
<g id="edge56_Node000409_Node000201" class="edge">
<title>Node409&#45;&gt;Node201</title>
<g id="a_edge56_Node000409_Node000201"><a xlink:title=" ">
<path fill="none" stroke="#63b8ff" d="M264.24,-19.27C256.15,-20.28 247.96,-21.3 240.03,-22.28"/>
<polygon fill="#63b8ff" stroke="#63b8ff" points="264.57,-22.76 274.06,-18.05 263.71,-15.81 264.57,-22.76"/>
</a>
</g>
</g>
<!-- Node363 -->
<g id="Node000363" class="node">
<title>Node363</title>
<g id="a_Node000363"><a xlink:href="lstate_8c.html#a2fb9ffd0e5e6ea178123879892e87681" target="_top" xlink:title=" ">
<polygon fill="white" stroke="#666666" points="522.25,-208.25 441,-208.25 441,-189 522.25,-189 522.25,-208.25"/>
<text xml:space="preserve" text-anchor="middle" x="481.62" y="-194.75" font-family="Helvetica,sans-Serif" font-size="10.00">luai_makeseed</text>
</a>
</g>
</g>
<!-- Node362&#45;&gt;Node363 -->
<g id="edge58_Node000362_Node000363" class="edge">
<title>Node362&#45;&gt;Node363</title>
<g id="a_edge58_Node000362_Node000363"><a xlink:title=" ">
<path fill="none" stroke="#63b8ff" d="M559.07,-191.43C547.01,-191.24 534.17,-191.42 522.52,-191.95"/>
<polygon fill="#63b8ff" stroke="#63b8ff" points="558.74,-194.92 568.82,-191.68 558.92,-187.92 558.74,-194.92"/>
</a>
</g>
</g>
<!-- Node364 -->
<g id="Node000364" class="node">
<title>Node364</title>
<g id="a_Node000364"><a xlink:href="lauxlib_8c.html#abe0d4e1d9eb077cdeca0f58e80174f89" target="_top" xlink:title=" ">
<polygon fill="white" stroke="#666666" points="521.12,-171.25 442.12,-171.25 442.12,-152 521.12,-152 521.12,-171.25"/>
<text xml:space="preserve" text-anchor="middle" x="481.62" y="-157.75" font-family="Helvetica,sans-Serif" font-size="10.00">luaL_newstate</text>
</a>
</g>
</g>
<!-- Node362&#45;&gt;Node364 -->
<g id="edge60_Node000362_Node000364" class="edge">
<title>Node362&#45;&gt;Node364</title>
<g id="a_edge60_Node000362_Node000364"><a xlink:title=" ">
<path fill="none" stroke="#63b8ff" d="M560.92,-184.38C546.47,-180.18 530.74,-175.61 517.2,-171.67"/>
<polygon fill="#63b8ff" stroke="#63b8ff" points="559.63,-187.65 570.21,-187.08 561.58,-180.93 559.63,-187.65"/>
</a>
</g>
</g>
<!-- Node363&#45;&gt;Node362 -->
<g id="edge59_Node000363_Node000362" class="edge">
<title>Node363&#45;&gt;Node362</title>
<g id="a_edge59_Node000363_Node000362"><a xlink:title=" ">
<path fill="none" stroke="#63b8ff" d="M533.99,-204.87C546.2,-204.98 558.97,-204.72 570.34,-204.12"/>
<polygon fill="#63b8ff" stroke="#63b8ff" points="534.1,-201.37 524.03,-204.69 533.97,-208.37 534.1,-201.37"/>
</a>
</g>
</g>
<!-- Node364&#45;&gt;Node7 -->
<g id="edge61_Node000364_Node000007" class="edge">
<title>Node364&#45;&gt;Node7</title>
<g id="a_edge61_Node000364_Node000007"><a xlink:title=" ">
<path fill="none" stroke="#63b8ff" d="M430.68,-174.38C403.96,-181.2 372.71,-189.18 353.58,-194.07"/>
<polygon fill="#63b8ff" stroke="#63b8ff" points="431.51,-177.78 440.33,-171.91 429.78,-171 431.51,-177.78"/>
</a>
</g>
</g>
<!-- Node364&#45;&gt;Node200 -->
<g id="edge62_Node000364_Node000200" class="edge">
<title>Node364&#45;&gt;Node200</title>
<g id="a_edge62_Node000364_Node000200"><a xlink:title=" ">
<path fill="none" stroke="#63b8ff" d="M459.1,-144.69C428.44,-120.56 373.16,-77.06 348.37,-57.56"/>
<polygon fill="#63b8ff" stroke="#63b8ff" points="456.56,-147.14 466.58,-150.57 460.88,-141.64 456.56,-147.14"/>
</a>
</g>
</g>
</g>
</svg>
