<?xml version="1.0" encoding="UTF-8" standalone="no"?>
<!DOCTYPE svg PUBLIC "-//W3C//DTD SVG 1.1//EN"
 "http://www.w3.org/Graphics/SVG/1.1/DTD/svg11.dtd">
<!-- Generated by graphviz version 13.1.0 (20250701.0955)
 -->
<!-- Title: luaC_changemode Pages: 1 -->
<!--zoomable 335 -->

<svg id="main" version="1.1" xmlns="http://www.w3.org/2000/svg" xmlns:xlink="http://www.w3.org/1999/xlink" xml:space="preserve" onload="init(evt)">

<style type="text/css"><![CDATA[
.node, .edge {opacity: 0.7;}
.node.selected, .edge.selected {opacity: 1;}
.edge:hover path { stroke: red; }
.edge:hover polygon { stroke: red; fill: red; }
]]></style>

<defs>
  <circle id="rim" cx="0" cy="0" r="7"/>
  <circle id="rim2" cx="0" cy="0" r="3.5"/>
  <g id="zoomPlus">
    <use xlink:href="#rim" fill="#404040"><set attributeName="fill" to="#808080" begin="zoomplus.mouseover" end="zoomplus.mouseout"/></use>
    <path d="M-4,0h8M0,-4v8" fill="none" stroke="white" stroke-width="1.5" pointer-events="none"/>
  </g>
  <g id="zoomMin">
    <use xlink:href="#rim" fill="#404040"><set attributeName="fill" to="#808080" begin="zoomminus.mouseover" end="zoomminus.mouseout"/></use>
    <path d="M-4,0h8" fill="none" stroke="white" stroke-width="1.5" pointer-events="none"/>
  </g>
  <g id="arrowUp" transform="translate(30 24)">
    <use xlink:href="#rim"/>
    <path pointer-events="none" fill="none" stroke="white" stroke-width="1.5" d="M0,-3.0v7 M-2.5,-0.5L0,-3.0L2.5,-0.5"/>
  </g>
  <g id="arrowRight" transform="rotate(90) translate(36 -43)">
    <use xlink:href="#rim"/>
    <path pointer-events="none" fill="none" stroke="white" stroke-width="1.5" d="M0,-3.0v7 M-2.5,-0.5L0,-3.0L2.5,-0.5"/>
  </g>
  <g id="arrowDown" transform="rotate(180) translate(-30 -48)">
    <use xlink:href="#rim"/>
    <path pointer-events="none" fill="none" stroke="white" stroke-width="1.5" d="M0,-3.0v7 M-2.5,-0.5L0,-3.0L2.5,-0.5"/>
  </g>
  <g id="arrowLeft" transform="rotate(270) translate(-36 17)">
    <use xlink:href="#rim"/>
    <path pointer-events="none" fill="none" stroke="white" stroke-width="1.5" d="M0,-3.0v7 M-2.5,-0.5L0,-3.0L2.5,-0.5"/>
  </g>
  <g id="resetDef">
    <use xlink:href="#rim2" fill="#404040"><set attributeName="fill" to="#808080" begin="reset.mouseover" end="reset.mouseout"/></use>
  </g>
</defs>
<script type="application/ecmascript">
var viewWidth = 1827;
var viewHeight = 335;
var sectionId = 'dynsection-32';
</script>
<script type="application/ecmascript" xlink:href="svg.min.js"/>
<svg id="graph" class="graph">
<g id="viewport">
<title>luaC_changemode</title>
<!-- Node1 -->
<g id="Node000001" class="node">
<title>Node1</title>
<g id="a_Node000001"><a xlink:title=" ">
<polygon fill="#999999" stroke="#666666" points="1819,-250.53 1722,-250.53 1722,-231.28 1819,-231.28 1819,-250.53"/>
<text xml:space="preserve" text-anchor="middle" x="1770.5" y="-237.03" font-family="Helvetica,sans-Serif" font-size="10.00">luaC_changemode</text>
</a>
</g>
</g>
<!-- Node2 -->
<g id="Node000002" class="node">
<title>Node2</title>
<g id="a_Node000002"><a xlink:href="lapi_8c.html#aa93573057f708d826613186a9d40c87d" target="_top" xlink:title=" ">
<polygon fill="white" stroke="#666666" points="1433.88,-278.53 1389.38,-278.53 1389.38,-259.28 1433.88,-259.28 1433.88,-278.53"/>
<text xml:space="preserve" text-anchor="middle" x="1411.62" y="-265.03" font-family="Helvetica,sans-Serif" font-size="10.00">lua_gc</text>
</a>
</g>
</g>
<!-- Node1&#45;&gt;Node2 -->
<g id="edge1_Node000001_Node000002" class="edge">
<title>Node1&#45;&gt;Node2</title>
<g id="a_edge1_Node000001_Node000002"><a xlink:title=" ">
<path fill="none" stroke="#63b8ff" d="M1710.73,-245.51C1629.75,-251.87 1487.75,-263.01 1434.03,-267.22"/>
<polygon fill="#63b8ff" stroke="#63b8ff" points="1710.54,-249.04 1720.23,-244.77 1709.99,-242.06 1710.54,-249.04"/>
</a>
</g>
</g>
<!-- Node6 -->
<g id="Node000006" class="node">
<title>Node6</title>
<g id="a_Node000006"><a xlink:href="lgc_8c.html#abad938b33f011ec1088d1a79508c6ac9" target="_top" xlink:title=" ">
<polygon fill="white" stroke="#666666" points="1686,-231.53 1586.75,-231.53 1586.75,-212.28 1686,-212.28 1686,-231.53"/>
<text xml:space="preserve" text-anchor="middle" x="1636.38" y="-218.03" font-family="Helvetica,sans-Serif" font-size="10.00">luaC_freeallobjects</text>
</a>
</g>
</g>
<!-- Node1&#45;&gt;Node6 -->
<g id="edge6_Node000001_Node000006" class="edge">
<title>Node1&#45;&gt;Node6</title>
<g id="a_edge6_Node000001_Node000006"><a xlink:title=" ">
<path fill="none" stroke="#63b8ff" d="M1710.52,-232.42C1702.44,-231.26 1694.22,-230.08 1686.34,-228.94"/>
<polygon fill="#63b8ff" stroke="#63b8ff" points="1709.91,-235.87 1720.3,-233.83 1710.9,-228.94 1709.91,-235.87"/>
</a>
</g>
</g>
<!-- Node3 -->
<g id="Node000003" class="node">
<title>Node3</title>
<g id="a_Node000003"><a xlink:href="lbaselib_8c.html#a07f71966c943cc9761ab129f64d4ac80" target="_top" xlink:title=" ">
<polygon fill="white" stroke="#666666" points="1338.75,-326.53 1235,-326.53 1235,-307.28 1338.75,-307.28 1338.75,-326.53"/>
<text xml:space="preserve" text-anchor="middle" x="1286.88" y="-313.03" font-family="Helvetica,sans-Serif" font-size="10.00">luaB_collectgarbage</text>
</a>
</g>
</g>
<!-- Node2&#45;&gt;Node3 -->
<g id="edge2_Node000002_Node000003" class="edge">
<title>Node2&#45;&gt;Node3</title>
<g id="a_edge2_Node000002_Node000003"><a xlink:title=" ">
<path fill="none" stroke="#63b8ff" d="M1378.37,-281.52C1358.14,-289.43 1332.42,-299.48 1313.57,-306.85"/>
<polygon fill="#63b8ff" stroke="#63b8ff" points="1379.51,-284.83 1387.55,-277.92 1376.96,-278.31 1379.51,-284.83"/>
</a>
</g>
</g>
<!-- Node4 -->
<g id="Node000004" class="node">
<title>Node4</title>
<g id="a_Node000004"><a xlink:href="lua_8c.html#a3c04138a5bfe5d72780bb7e82a18e627" target="_top" xlink:title=" ">
<polygon fill="white" stroke="#666666" points="1158.5,-213.53 1121.5,-213.53 1121.5,-194.28 1158.5,-194.28 1158.5,-213.53"/>
<text xml:space="preserve" text-anchor="middle" x="1140" y="-200.03" font-family="Helvetica,sans-Serif" font-size="10.00">main</text>
</a>
</g>
</g>
<!-- Node2&#45;&gt;Node4 -->
<g id="edge3_Node000002_Node000004" class="edge">
<title>Node2&#45;&gt;Node4</title>
<g id="a_edge3_Node000002_Node000004"><a xlink:title=" ">
<path fill="none" stroke="#63b8ff" d="M1377.72,-271.86C1341.81,-274.03 1283.04,-274.46 1235,-259.9 1202.82,-250.15 1170.2,-227.11 1153.14,-213.82"/>
<polygon fill="#63b8ff" stroke="#63b8ff" points="1377.73,-275.37 1387.46,-271.18 1377.24,-268.39 1377.73,-275.37"/>
</a>
</g>
</g>
<!-- Node5 -->
<g id="Node000005" class="node">
<title>Node5</title>
<g id="a_Node000005"><a xlink:href="lua_8c.html#aa0f8bc082ef913cb0a4df437bf5f5019" target="_top" xlink:title=" ">
<polygon fill="white" stroke="#666666" points="1308,-250.53 1265.75,-250.53 1265.75,-231.28 1308,-231.28 1308,-250.53"/>
<text xml:space="preserve" text-anchor="middle" x="1286.88" y="-237.03" font-family="Helvetica,sans-Serif" font-size="10.00">pmain</text>
</a>
</g>
</g>
<!-- Node2&#45;&gt;Node5 -->
<g id="edge4_Node000002_Node000005" class="edge">
<title>Node2&#45;&gt;Node5</title>
<g id="a_edge4_Node000002_Node000005"><a xlink:title=" ">
<path fill="none" stroke="#63b8ff" d="M1378.02,-261.47C1355.8,-256.4 1327.08,-249.85 1308.1,-245.52"/>
<polygon fill="#63b8ff" stroke="#63b8ff" points="1376.96,-264.81 1387.49,-263.62 1378.52,-257.99 1376.96,-264.81"/>
</a>
</g>
</g>
<!-- Node5&#45;&gt;Node4 -->
<g id="edge5_Node000005_Node000004" class="edge">
<title>Node5&#45;&gt;Node4</title>
<g id="a_edge5_Node000005_Node000004"><a xlink:title=" ">
<path fill="none" stroke="#63b8ff" d="M1254.53,-232.9C1225.19,-225.4 1182.41,-214.48 1158.62,-208.4"/>
<polygon fill="#63b8ff" stroke="#63b8ff" points="1253.4,-236.22 1263.96,-235.3 1255.14,-229.44 1253.4,-236.22"/>
</a>
</g>
</g>
<!-- Node7 -->
<g id="Node000007" class="node">
<title>Node7</title>
<g id="a_Node000007"><a xlink:href="lstate_8c.html#a4940327dfa3b86df0ef008180bb3fcb3" target="_top" xlink:title=" ">
<polygon fill="white" stroke="#666666" points="1550.75,-213.53 1484.5,-213.53 1484.5,-194.28 1550.75,-194.28 1550.75,-213.53"/>
<text xml:space="preserve" text-anchor="middle" x="1517.62" y="-200.03" font-family="Helvetica,sans-Serif" font-size="10.00">close_state</text>
</a>
</g>
</g>
<!-- Node6&#45;&gt;Node7 -->
<g id="edge7_Node000006_Node000007" class="edge">
<title>Node6&#45;&gt;Node7</title>
<g id="a_edge7_Node000006_Node000007"><a xlink:title=" ">
<path fill="none" stroke="#63b8ff" d="M1575.19,-212.62C1566.85,-211.34 1558.55,-210.06 1550.99,-208.89"/>
<polygon fill="#63b8ff" stroke="#63b8ff" points="1574.63,-216.08 1585.04,-214.14 1575.69,-209.16 1574.63,-216.08"/>
</a>
</g>
</g>
<!-- Node8 -->
<g id="Node000008" class="node">
<title>Node8</title>
<g id="a_Node000008"><a xlink:href="lstate_8c.html#a5d903983f1497b2fc58fba9df09e354d" target="_top" xlink:title=" ">
<polygon fill="white" stroke="#666666" points="1440.25,-100.53 1383,-100.53 1383,-81.28 1440.25,-81.28 1440.25,-100.53"/>
<text xml:space="preserve" text-anchor="middle" x="1411.62" y="-87.03" font-family="Helvetica,sans-Serif" font-size="10.00">lua_close</text>
</a>
</g>
</g>
<!-- Node7&#45;&gt;Node8 -->
<g id="edge8_Node000007_Node000008" class="edge">
<title>Node7&#45;&gt;Node8</title>
<g id="a_edge8_Node000007_Node000008"><a xlink:title=" ">
<path fill="none" stroke="#63b8ff" d="M1499.73,-185.54C1477.46,-161.35 1439.09,-119.66 1421.69,-100.75"/>
<polygon fill="#63b8ff" stroke="#63b8ff" points="1497.02,-187.77 1506.37,-192.76 1502.17,-183.03 1497.02,-187.77"/>
</a>
</g>
</g>
<!-- Node23 -->
<g id="Node000023" class="node">
<title>Node23</title>
<g id="a_Node000023"><a xlink:href="lstate_8c.html#a02f761396ac35439932f4f0a7ff90b31" target="_top" xlink:title=" ">
<polygon fill="white" stroke="#666666" points="1448.5,-213.53 1374.75,-213.53 1374.75,-194.28 1448.5,-194.28 1448.5,-213.53"/>
<text xml:space="preserve" text-anchor="middle" x="1411.62" y="-200.03" font-family="Helvetica,sans-Serif" font-size="10.00">lua_newstate</text>
</a>
</g>
</g>
<!-- Node7&#45;&gt;Node23 -->
<g id="edge26_Node000007_Node000023" class="edge">
<title>Node7&#45;&gt;Node23</title>
<g id="a_edge26_Node000007_Node000023"><a xlink:title=" ">
<path fill="none" stroke="#63b8ff" d="M1472.62,-203.9C1464.66,-203.9 1456.45,-203.9 1448.75,-203.9"/>
<polygon fill="#63b8ff" stroke="#63b8ff" points="1472.49,-207.4 1482.49,-203.9 1472.49,-200.4 1472.49,-207.4"/>
</a>
</g>
</g>
<!-- Node8&#45;&gt;Node4 -->
<g id="edge9_Node000008_Node000004" class="edge">
<title>Node8&#45;&gt;Node4</title>
<g id="a_edge9_Node000008_Node000004"><a xlink:title=" ">
<path fill="none" stroke="#63b8ff" d="M1371.46,-100.9C1335.24,-110.78 1280.31,-127.36 1235,-147.9 1205.41,-161.31 1173.41,-181.79 1155.42,-193.92"/>
<polygon fill="#63b8ff" stroke="#63b8ff" points="1372.31,-104.3 1381.07,-98.33 1370.5,-97.53 1372.31,-104.3"/>
</a>
</g>
</g>
<!-- Node9 -->
<g id="Node000009" class="node">
<title>Node9</title>
<g id="a_Node000009"><a xlink:href="loslib_8c.html#a905e81425fe3d6d0b363c10162a2a37b" target="_top" xlink:title=" ">
<polygon fill="white" stroke="#666666" points="1310.62,-100.53 1263.12,-100.53 1263.12,-81.28 1310.62,-81.28 1310.62,-100.53"/>
<text xml:space="preserve" text-anchor="middle" x="1286.88" y="-87.03" font-family="Helvetica,sans-Serif" font-size="10.00">os_exit</text>
</a>
</g>
</g>
<!-- Node8&#45;&gt;Node9 -->
<g id="edge10_Node000008_Node000009" class="edge">
<title>Node8&#45;&gt;Node9</title>
<g id="a_edge10_Node000008_Node000009"><a xlink:title=" ">
<path fill="none" stroke="#63b8ff" d="M1371.27,-90.9C1351.42,-90.9 1328.04,-90.9 1311.09,-90.9"/>
<polygon fill="#63b8ff" stroke="#63b8ff" points="1371.26,-94.4 1381.26,-90.9 1371.26,-87.4 1371.26,-94.4"/>
</a>
</g>
</g>
<!-- Node10 -->
<g id="Node000010" class="node">
<title>Node10</title>
<g id="a_Node000010"><a xlink:href="script_8c.html#a84508ce31c18af8792081eb1cdfc77b8" target="_top" xlink:title=" ">
<polygon fill="white" stroke="#666666" points="1174.25,-62.53 1105.75,-62.53 1105.75,-43.28 1174.25,-43.28 1174.25,-62.53"/>
<text xml:space="preserve" text-anchor="middle" x="1140" y="-49.03" font-family="Helvetica,sans-Serif" font-size="10.00">script_begin</text>
</a>
</g>
</g>
<!-- Node8&#45;&gt;Node10 -->
<g id="edge11_Node000008_Node000010" class="edge">
<title>Node8&#45;&gt;Node10</title>
<g id="a_edge11_Node000008_Node000010"><a xlink:title=" ">
<path fill="none" stroke="#63b8ff" d="M1371.51,-79.33C1360.95,-76.54 1349.48,-73.82 1338.75,-71.9 1281.54,-61.66 1213.97,-56.67 1174.46,-54.46"/>
<polygon fill="#63b8ff" stroke="#63b8ff" points="1370.5,-82.68 1381.07,-81.94 1372.35,-75.93 1370.5,-82.68"/>
</a>
</g>
</g>
<!-- Node21 -->
<g id="Node000021" class="node">
<title>Node21</title>
<g id="a_Node000021"><a xlink:href="script_8c.html#a9e80871e044f7380196e6504f58f479b" target="_top" xlink:title=" ">
<polygon fill="white" stroke="#666666" points="1317.38,-24.53 1256.38,-24.53 1256.38,-5.28 1317.38,-5.28 1317.38,-24.53"/>
<text xml:space="preserve" text-anchor="middle" x="1286.88" y="-11.03" font-family="Helvetica,sans-Serif" font-size="10.00">script_end</text>
</a>
</g>
</g>
<!-- Node8&#45;&gt;Node21 -->
<g id="edge23_Node000008_Node000021" class="edge">
<title>Node8&#45;&gt;Node21</title>
<g id="a_edge23_Node000008_Node000021"><a xlink:title=" ">
<path fill="none" stroke="#63b8ff" d="M1389.59,-74.09C1375.63,-63.33 1356.64,-49.47 1338.75,-38.9 1330.17,-33.84 1320.35,-29 1311.65,-25.01"/>
<polygon fill="#63b8ff" stroke="#63b8ff" points="1387.16,-76.63 1397.19,-80.03 1391.47,-71.11 1387.16,-76.63"/>
</a>
</g>
</g>
<!-- Node11 -->
<g id="Node000011" class="node">
<title>Node11</title>
<g id="a_Node000011"><a xlink:href="game__scene_8c.html#ab923ed4c6ccad95026e85e252071716d" target="_top" xlink:title=" ">
<polygon fill="white" stroke="#666666" points="1045,-43.53 925.5,-43.53 925.5,-24.28 1045,-24.28 1045,-43.53"/>
<text xml:space="preserve" text-anchor="middle" x="985.25" y="-30.03" font-family="Helvetica,sans-Serif" font-size="10.00">PGB_GameScene_new</text>
</a>
</g>
</g>
<!-- Node10&#45;&gt;Node11 -->
<g id="edge12_Node000010_Node000011" class="edge">
<title>Node10&#45;&gt;Node11</title>
<g id="a_edge12_Node000010_Node000011"><a xlink:title=" ">
<path fill="none" stroke="#63b8ff" d="M1094.22,-47.33C1078.89,-45.43 1061.51,-43.26 1045.24,-41.24"/>
<polygon fill="#63b8ff" stroke="#63b8ff" points="1093.62,-50.78 1103.98,-48.55 1094.48,-43.84 1093.62,-50.78"/>
</a>
</g>
</g>
<!-- Node12 -->
<g id="Node000012" class="node">
<title>Node12</title>
<g id="a_Node000012"><a xlink:href="library__scene_8c.html#a0728002045c9cbbd68bdd34897b28da6" target="_top" xlink:title=" ">
<polygon fill="white" stroke="#666666" points="889.5,-43.53 755.75,-43.53 755.75,-24.28 889.5,-24.28 889.5,-43.53"/>
<text xml:space="preserve" text-anchor="middle" x="822.62" y="-30.03" font-family="Helvetica,sans-Serif" font-size="10.00">PGB_LibraryScene_update</text>
</a>
</g>
</g>
<!-- Node11&#45;&gt;Node12 -->
<g id="edge13_Node000011_Node000012" class="edge">
<title>Node11&#45;&gt;Node12</title>
<g id="a_edge13_Node000011_Node000012"><a xlink:title=" ">
<path fill="none" stroke="#63b8ff" d="M914.09,-33.9C906.04,-33.9 897.84,-33.9 889.84,-33.9"/>
<polygon fill="#63b8ff" stroke="#63b8ff" points="913.84,-37.4 923.84,-33.9 913.84,-30.4 913.84,-37.4"/>
</a>
</g>
</g>
<!-- Node13 -->
<g id="Node000013" class="node">
<title>Node13</title>
<g id="a_Node000013"><a xlink:href="library__scene_8c.html#aa5c386d39121b53fba45d899df654188" target="_top" xlink:title=" ">
<polygon fill="white" stroke="#666666" points="719.75,-43.53 597.25,-43.53 597.25,-24.28 719.75,-24.28 719.75,-43.53"/>
<text xml:space="preserve" text-anchor="middle" x="658.5" y="-30.03" font-family="Helvetica,sans-Serif" font-size="10.00">PGB_LibraryScene_new</text>
</a>
</g>
</g>
<!-- Node12&#45;&gt;Node13 -->
<g id="edge14_Node000012_Node000013" class="edge">
<title>Node12&#45;&gt;Node13</title>
<g id="a_edge14_Node000012_Node000013"><a xlink:title=" ">
<path fill="none" stroke="#63b8ff" d="M744.29,-33.9C736.19,-33.9 728.04,-33.9 720.16,-33.9"/>
<polygon fill="#63b8ff" stroke="#63b8ff" points="744.17,-37.4 754.17,-33.9 744.17,-30.4 744.17,-37.4"/>
</a>
</g>
</g>
<!-- Node14 -->
<g id="Node000014" class="node">
<title>Node14</title>
<g id="a_Node000014"><a xlink:href="app_8c.html#ab80501f53b757a79772b96ec99e3dc7e" target="_top" xlink:title=" ">
<polygon fill="white" stroke="#666666" points="534.25,-86.53 441.75,-86.53 441.75,-67.28 534.25,-67.28 534.25,-86.53"/>
<text xml:space="preserve" text-anchor="middle" x="488" y="-73.03" font-family="Helvetica,sans-Serif" font-size="10.00">PGB_goToLibrary</text>
</a>
</g>
</g>
<!-- Node13&#45;&gt;Node14 -->
<g id="edge15_Node000013_Node000014" class="edge">
<title>Node13&#45;&gt;Node14</title>
<g id="a_edge15_Node000013_Node000014"><a xlink:title=" ">
<path fill="none" stroke="#63b8ff" d="M606.84,-46.83C581.76,-53.23 551.92,-60.84 528.55,-66.81"/>
<polygon fill="#63b8ff" stroke="#63b8ff" points="607.7,-50.22 616.53,-44.36 605.97,-43.44 607.7,-50.22"/>
</a>
</g>
</g>
<!-- Node17 -->
<g id="Node000017" class="node">
<title>Node17</title>
<g id="a_Node000017"><a xlink:href="image__conversion__scene_8c.html#a60d0e43ab25a8639bbb6d1f4e758edd3" target="_top" xlink:title=" ">
<polygon fill="white" stroke="#666666" points="561.25,-49.15 414.75,-49.15 414.75,-18.65 561.25,-18.65 561.25,-49.15"/>
<text xml:space="preserve" text-anchor="start" x="422.75" y="-35.65" font-family="Helvetica,sans-Serif" font-size="10.00">PGB_ImageConversionScene</text>
<text xml:space="preserve" text-anchor="middle" x="488" y="-24.4" font-family="Helvetica,sans-Serif" font-size="10.00">_update</text>
</a>
</g>
</g>
<!-- Node13&#45;&gt;Node17 -->
<g id="edge18_Node000013_Node000017" class="edge">
<title>Node13&#45;&gt;Node17</title>
<g id="a_edge18_Node000013_Node000017"><a xlink:title=" ">
<path fill="none" stroke="#63b8ff" d="M585.9,-33.9C577.86,-33.9 569.65,-33.9 561.6,-33.9"/>
<polygon fill="#63b8ff" stroke="#63b8ff" points="585.63,-37.4 595.63,-33.9 585.63,-30.4 585.63,-37.4"/>
</a>
</g>
</g>
<!-- Node19 -->
<g id="Node000019" class="node">
<title>Node19</title>
<g id="a_Node000019"><a xlink:href="app_8c.html#af256ea7a9c51fcbd49cb0007facbb8ea" target="_top" xlink:title=" ">
<polygon fill="white" stroke="#666666" points="166.25,-21.53 111.25,-21.53 111.25,-2.28 166.25,-2.28 166.25,-21.53"/>
<text xml:space="preserve" text-anchor="middle" x="138.75" y="-8.03" font-family="Helvetica,sans-Serif" font-size="10.00">PGB_init</text>
</a>
</g>
</g>
<!-- Node13&#45;&gt;Node19 -->
<g id="edge22_Node000013_Node000019" class="edge">
<title>Node13&#45;&gt;Node19</title>
<g id="a_edge22_Node000013_Node000019"><a xlink:title=" ">
<path fill="none" stroke="#63b8ff" d="M614.41,-20.77C597.95,-16.39 578.89,-12.07 561.25,-9.9 413.08,8.29 233.4,-3.78 166.52,-9.44"/>
<polygon fill="#63b8ff" stroke="#63b8ff" points="613.32,-24.1 623.89,-23.39 615.18,-17.35 613.32,-24.1"/>
</a>
</g>
</g>
<!-- Node15 -->
<g id="Node000015" class="node">
<title>Node15</title>
<g id="a_Node000015"><a xlink:href="game__scene_8c.html#a6a4a6f0408da311dc566eb187e497889" target="_top" xlink:title=" ">
<polygon fill="white" stroke="#666666" points="360,-86.53 227.75,-86.53 227.75,-67.28 360,-67.28 360,-86.53"/>
<text xml:space="preserve" text-anchor="middle" x="293.88" y="-73.03" font-family="Helvetica,sans-Serif" font-size="10.00">PGB_LibraryConfirmModal</text>
</a>
</g>
</g>
<!-- Node14&#45;&gt;Node15 -->
<g id="edge16_Node000014_Node000015" class="edge">
<title>Node14&#45;&gt;Node15</title>
<g id="a_edge16_Node000014_Node000015"><a xlink:title=" ">
<path fill="none" stroke="#63b8ff" d="M430.03,-76.9C408.17,-76.9 383.05,-76.9 360.44,-76.9"/>
<polygon fill="#63b8ff" stroke="#63b8ff" points="429.96,-80.4 439.96,-76.9 429.96,-73.4 429.96,-80.4"/>
</a>
</g>
</g>
<!-- Node16 -->
<g id="Node000016" class="node">
<title>Node16</title>
<g id="a_Node000016"><a xlink:href="game__scene_8c.html#a113df24bb94bafcdbb9235ec8648e02f" target="_top" xlink:title=" ">
<polygon fill="white" stroke="#666666" points="173,-86.53 104.5,-86.53 104.5,-67.28 173,-67.28 173,-86.53"/>
<text xml:space="preserve" text-anchor="middle" x="138.75" y="-73.03" font-family="Helvetica,sans-Serif" font-size="10.00">__section__</text>
</a>
</g>
</g>
<!-- Node15&#45;&gt;Node16 -->
<g id="edge17_Node000015_Node000016" class="edge">
<title>Node15&#45;&gt;Node16</title>
<g id="a_edge17_Node000015_Node000016"><a xlink:title=" ">
<path fill="none" stroke="#63b8ff" d="M216.03,-76.9C200.98,-76.9 185.96,-76.9 173.27,-76.9"/>
<polygon fill="#63b8ff" stroke="#63b8ff" points="215.98,-80.4 225.98,-76.9 215.98,-73.4 215.98,-80.4"/>
</a>
</g>
</g>
<!-- Node18 -->
<g id="Node000018" class="node">
<title>Node18</title>
<g id="a_Node000018"><a xlink:href="image__conversion__scene_8c.html#aa3559936491ddf78b9cf06fcbdd32d22" target="_top" xlink:title=" ">
<polygon fill="white" stroke="#666666" points="378.75,-41.53 209,-41.53 209,-22.28 378.75,-22.28 378.75,-41.53"/>
<text xml:space="preserve" text-anchor="middle" x="293.88" y="-28.03" font-family="Helvetica,sans-Serif" font-size="10.00">PGB_ImageConversionScene_new</text>
</a>
</g>
</g>
<!-- Node17&#45;&gt;Node18 -->
<g id="edge19_Node000017_Node000018" class="edge">
<title>Node17&#45;&gt;Node18</title>
<g id="a_edge19_Node000017_Node000018"><a xlink:title=" ">
<path fill="none" stroke="#63b8ff" d="M402.94,-33.03C395.07,-32.95 387.09,-32.86 379.22,-32.78"/>
<polygon fill="#63b8ff" stroke="#63b8ff" points="402.82,-36.53 412.85,-33.13 402.89,-29.53 402.82,-36.53"/>
</a>
</g>
</g>
<!-- Node18&#45;&gt;Node19 -->
<g id="edge20_Node000018_Node000019" class="edge">
<title>Node18&#45;&gt;Node19</title>
<g id="a_edge20_Node000018_Node000019"><a xlink:title=" ">
<path fill="none" stroke="#63b8ff" d="M204.38,-20.34C190.72,-18.56 177.57,-16.84 166.75,-15.43"/>
<polygon fill="#63b8ff" stroke="#63b8ff" points="203.55,-23.76 213.91,-21.59 204.45,-16.82 203.55,-23.76"/>
</a>
</g>
</g>
<!-- Node20 -->
<g id="Node000020" class="node">
<title>Node20</title>
<g id="a_Node000020"><a xlink:href="main_8c.html#a77034286b8c64d0735c69535c5e9b732" target="_top" xlink:title=" ">
<polygon fill="white" stroke="#666666" points="68.5,-21.53 0,-21.53 0,-2.28 68.5,-2.28 68.5,-21.53"/>
<text xml:space="preserve" text-anchor="middle" x="34.25" y="-8.03" font-family="Helvetica,sans-Serif" font-size="10.00">__section__</text>
</a>
</g>
</g>
<!-- Node19&#45;&gt;Node20 -->
<g id="edge21_Node000019_Node000020" class="edge">
<title>Node19&#45;&gt;Node20</title>
<g id="a_edge21_Node000019_Node000020"><a xlink:title=" ">
<path fill="none" stroke="#63b8ff" d="M99.48,-11.9C89.46,-11.9 78.74,-11.9 68.97,-11.9"/>
<polygon fill="#63b8ff" stroke="#63b8ff" points="99.31,-15.4 109.31,-11.9 99.31,-8.4 99.31,-15.4"/>
</a>
</g>
</g>
<!-- Node22 -->
<g id="Node000022" class="node">
<title>Node22</title>
<g id="a_Node000022"><a xlink:href="game__scene_8c.html#a963582a448d4e4e2953e59d75b9d9f64" target="_top" xlink:title=" ">
<polygon fill="white" stroke="#666666" points="1199,-25.53 1081,-25.53 1081,-6.28 1199,-6.28 1199,-25.53"/>
<text xml:space="preserve" text-anchor="middle" x="1140" y="-12.03" font-family="Helvetica,sans-Serif" font-size="10.00">PGB_GameScene_free</text>
</a>
</g>
</g>
<!-- Node21&#45;&gt;Node22 -->
<g id="edge24_Node000021_Node000022" class="edge">
<title>Node21&#45;&gt;Node22</title>
<g id="a_edge24_Node000021_Node000022"><a xlink:title=" ">
<path fill="none" stroke="#63b8ff" d="M1244.86,-15.19C1230.72,-15.28 1214.6,-15.39 1199.35,-15.5"/>
<polygon fill="#63b8ff" stroke="#63b8ff" points="1244.72,-18.69 1254.69,-15.12 1244.67,-11.69 1244.72,-18.69"/>
</a>
</g>
</g>
<!-- Node22&#45;&gt;Node11 -->
<g id="edge25_Node000022_Node000011" class="edge">
<title>Node22&#45;&gt;Node11</title>
<g id="a_edge25_Node000022_Node000011"><a xlink:title=" ">
<path fill="none" stroke="#63b8ff" d="M1069.49,-24.09C1061.4,-25.05 1053.21,-26.01 1045.28,-26.95"/>
<polygon fill="#63b8ff" stroke="#63b8ff" points="1069.79,-27.58 1079.31,-22.94 1068.97,-20.63 1069.79,-27.58"/>
</a>
</g>
</g>
<!-- Node24 -->
<g id="Node000024" class="node">
<title>Node24</title>
<g id="a_Node000024"><a xlink:href="lstate_8c.html#a2fb9ffd0e5e6ea178123879892e87681" target="_top" xlink:title=" ">
<polygon fill="white" stroke="#666666" points="1327.5,-213.53 1246.25,-213.53 1246.25,-194.28 1327.5,-194.28 1327.5,-213.53"/>
<text xml:space="preserve" text-anchor="middle" x="1286.88" y="-200.03" font-family="Helvetica,sans-Serif" font-size="10.00">luai_makeseed</text>
</a>
</g>
</g>
<!-- Node23&#45;&gt;Node24 -->
<g id="edge27_Node000023_Node000024" class="edge">
<title>Node23&#45;&gt;Node24</title>
<g id="a_edge27_Node000023_Node000024"><a xlink:title=" ">
<path fill="none" stroke="#63b8ff" d="M1363.06,-197.31C1351.35,-197.04 1338.94,-197.12 1327.64,-197.54"/>
<polygon fill="#63b8ff" stroke="#63b8ff" points="1362.84,-200.8 1372.95,-197.64 1363.07,-193.8 1362.84,-200.8"/>
</a>
</g>
</g>
<!-- Node25 -->
<g id="Node000025" class="node">
<title>Node25</title>
<g id="a_Node000025"><a xlink:href="lauxlib_8c.html#abe0d4e1d9eb077cdeca0f58e80174f89" target="_top" xlink:title=" ">
<polygon fill="white" stroke="#666666" points="1326.38,-176.53 1247.38,-176.53 1247.38,-157.28 1326.38,-157.28 1326.38,-176.53"/>
<text xml:space="preserve" text-anchor="middle" x="1286.88" y="-163.03" font-family="Helvetica,sans-Serif" font-size="10.00">luaL_newstate</text>
</a>
</g>
</g>
<!-- Node23&#45;&gt;Node25 -->
<g id="edge29_Node000023_Node000025" class="edge">
<title>Node23&#45;&gt;Node25</title>
<g id="a_edge29_Node000023_Node000025"><a xlink:title=" ">
<path fill="none" stroke="#63b8ff" d="M1366.13,-190.49C1351.36,-186.04 1335.17,-181.16 1321.38,-177"/>
<polygon fill="#63b8ff" stroke="#63b8ff" points="1365.05,-193.82 1375.63,-193.36 1367.07,-187.12 1365.05,-193.82"/>
</a>
</g>
</g>
<!-- Node24&#45;&gt;Node23 -->
<g id="edge28_Node000024_Node000023" class="edge">
<title>Node24&#45;&gt;Node23</title>
<g id="a_edge28_Node000024_Node000023"><a xlink:title=" ">
<path fill="none" stroke="#63b8ff" d="M1338.87,-210.57C1350.82,-210.77 1363.31,-210.62 1374.46,-210.12"/>
<polygon fill="#63b8ff" stroke="#63b8ff" points="1339.25,-207.07 1329.16,-210.31 1339.06,-214.07 1339.25,-207.07"/>
</a>
</g>
</g>
<!-- Node25&#45;&gt;Node4 -->
<g id="edge30_Node000025_Node000004" class="edge">
<title>Node25&#45;&gt;Node4</title>
<g id="a_edge30_Node000025_Node000004"><a xlink:title=" ">
<path fill="none" stroke="#63b8ff" d="M1235.93,-179.66C1209.21,-186.48 1177.96,-194.46 1158.83,-199.35"/>
<polygon fill="#63b8ff" stroke="#63b8ff" points="1236.76,-183.06 1245.58,-177.19 1235.03,-176.28 1236.76,-183.06"/>
</a>
</g>
</g>
<!-- Node25&#45;&gt;Node10 -->
<g id="edge31_Node000025_Node000010" class="edge">
<title>Node25&#45;&gt;Node10</title>
<g id="a_edge31_Node000025_Node000010"><a xlink:title=" ">
<path fill="none" stroke="#63b8ff" d="M1264.35,-149.97C1233.69,-125.84 1178.41,-82.34 1153.62,-62.83"/>
<polygon fill="#63b8ff" stroke="#63b8ff" points="1261.81,-152.42 1271.83,-155.85 1266.13,-146.92 1261.81,-152.42"/>
</a>
</g>
</g>
</g>
</svg>

<g id="navigator" transform="translate(0 0)" fill="#404254">
  <rect fill="#f2f5e9" fill-opacity="0.5" stroke="#606060" stroke-width=".5" x="0" y="0" width="60" height="60"/>
  <use id="zoomplus" xlink:href="#zoomPlus" x="17" y="9" onmousedown="handleZoom(evt,'in')"/>
  <use id="zoomminus" xlink:href="#zoomMin" x="42" y="9" onmousedown="handleZoom(evt,'out')"/>
  <use id="reset" xlink:href="#resetDef" x="30" y="36" onmousedown="handleReset()"/>
   <use id="arrowup" xlink:href="#arrowUp" x="0" y="0" onmousedown="handlePan(0,-1)"/>
  <use id="arrowright" xlink:href="#arrowRight" x="0" y="0" onmousedown="handlePan(1,0)"/>
  <use id="arrowdown" xlink:href="#arrowDown" x="0" y="0" onmousedown="handlePan(0,1)"/>
  <use id="arrowleft" xlink:href="#arrowLeft" x="0" y="0" onmousedown="handlePan(-1,0)"/>
</g>
<svg viewBox="0 0 15 15" width="100%" height="30px" preserveAspectRatio="xMaxYMin meet">
 <g id="arrow_out" transform="scale(0.3 0.3)">
  <a xlink:href="lgc_8c_ac88d5c236307393937e02bc82c10f970_icgraph_org.svg" target="_base">
   <rect id="button" ry="5" rx="5" y="6" x="6" height="38" width="38"
        fill="#f2f5e9" fill-opacity="0.5" stroke="#606060" stroke-width="1.0"/>
   <path id="arrow"
     d="M 11.500037,31.436501 C 11.940474,20.09759 22.043105,11.32322 32.158766,21.979434 L 37.068811,17.246167 C 37.068811,17.246167 37.088388,32 37.088388,32 L 22.160133,31.978069 C 22.160133,31.978069 26.997745,27.140456 26.997745,27.140456 C 18.528582,18.264221 13.291696,25.230495 11.500037,31.436501 z"
     style="fill:#404040;"/>
  </a>
 </g>
</svg>

<style type='text/css'>
<![CDATA[
[data-mouse-over-selected='false'] { opacity: 0.7; }
[data-mouse-over-selected='true']  { opacity: 1.0; }
]]>
</style>
<script type="application/ecmascript"><![CDATA[
document.addEventListener('DOMContentLoaded', (event) => {
  highlightEdges();
  highlightAdjacentNodes();
});
]]></script>
</svg>
