<?xml version="1.0" encoding="UTF-8" standalone="no"?>
<!DOCTYPE svg PUBLIC "-//W3C//DTD SVG 1.1//EN"
 "http://www.w3.org/Graphics/SVG/1.1/DTD/svg11.dtd">
<!-- Generated by graphviz version 13.1.0 (20250701.0955)
 -->
<!-- Title: lua&#45;5.4.7/lgc.h Pages: 1 -->
<!--zoomable 193 -->

<svg id="main" version="1.1" xmlns="http://www.w3.org/2000/svg" xmlns:xlink="http://www.w3.org/1999/xlink" xml:space="preserve" onload="init(evt)">

<style type="text/css"><![CDATA[
.node, .edge {opacity: 0.7;}
.node.selected, .edge.selected {opacity: 1;}
.edge:hover path { stroke: red; }
.edge:hover polygon { stroke: red; fill: red; }
]]></style>

<defs>
  <circle id="rim" cx="0" cy="0" r="7"/>
  <circle id="rim2" cx="0" cy="0" r="3.5"/>
  <g id="zoomPlus">
    <use xlink:href="#rim" fill="#404040"><set attributeName="fill" to="#808080" begin="zoomplus.mouseover" end="zoomplus.mouseout"/></use>
    <path d="M-4,0h8M0,-4v8" fill="none" stroke="white" stroke-width="1.5" pointer-events="none"/>
  </g>
  <g id="zoomMin">
    <use xlink:href="#rim" fill="#404040"><set attributeName="fill" to="#808080" begin="zoomminus.mouseover" end="zoomminus.mouseout"/></use>
    <path d="M-4,0h8" fill="none" stroke="white" stroke-width="1.5" pointer-events="none"/>
  </g>
  <g id="arrowUp" transform="translate(30 24)">
    <use xlink:href="#rim"/>
    <path pointer-events="none" fill="none" stroke="white" stroke-width="1.5" d="M0,-3.0v7 M-2.5,-0.5L0,-3.0L2.5,-0.5"/>
  </g>
  <g id="arrowRight" transform="rotate(90) translate(36 -43)">
    <use xlink:href="#rim"/>
    <path pointer-events="none" fill="none" stroke="white" stroke-width="1.5" d="M0,-3.0v7 M-2.5,-0.5L0,-3.0L2.5,-0.5"/>
  </g>
  <g id="arrowDown" transform="rotate(180) translate(-30 -48)">
    <use xlink:href="#rim"/>
    <path pointer-events="none" fill="none" stroke="white" stroke-width="1.5" d="M0,-3.0v7 M-2.5,-0.5L0,-3.0L2.5,-0.5"/>
  </g>
  <g id="arrowLeft" transform="rotate(270) translate(-36 17)">
    <use xlink:href="#rim"/>
    <path pointer-events="none" fill="none" stroke="white" stroke-width="1.5" d="M0,-3.0v7 M-2.5,-0.5L0,-3.0L2.5,-0.5"/>
  </g>
  <g id="resetDef">
    <use xlink:href="#rim2" fill="#404040"><set attributeName="fill" to="#808080" begin="reset.mouseover" end="reset.mouseout"/></use>
  </g>
</defs>
<script type="application/ecmascript">
var viewWidth = 1665;
var viewHeight = 193;
var sectionId = 'dynsection-1';
</script>
<script type="application/ecmascript" xlink:href="svg.min.js"/>
<svg id="graph" class="graph">
<g id="viewport">
<title>lua&#45;5.4.7/lgc.h</title>
<!-- Node1 -->
<g id="Node000001" class="node">
<title>Node1</title>
<g id="a_Node000001"><a xlink:title=" ">
<polygon fill="#999999" stroke="#666666" points="1169.5,-185 1092,-185 1092,-165.75 1169.5,-165.75 1169.5,-185"/>
<text xml:space="preserve" text-anchor="middle" x="1130.75" y="-171.5" font-family="Helvetica,sans-Serif" font-size="10.00">lua&#45;5.4.7/lgc.h</text>
</a>
</g>
</g>
<!-- Node2 -->
<g id="Node000002" class="node">
<title>Node2</title>
<g id="a_Node000002"><a xlink:href="lapi_8c.html" target="_top" xlink:title=" ">
<polygon fill="white" stroke="#666666" points="1444.62,-74.5 1364.88,-74.5 1364.88,-55.25 1444.62,-55.25 1444.62,-74.5"/>
<text xml:space="preserve" text-anchor="middle" x="1404.75" y="-61" font-family="Helvetica,sans-Serif" font-size="10.00">lua&#45;5.4.7/lapi.c</text>
</a>
</g>
</g>
<!-- Node1&#45;&gt;Node2 -->
<g id="edge1_Node000001_Node000002" class="edge">
<title>Node1&#45;&gt;Node2</title>
<g id="a_edge1_Node000001_Node000002"><a xlink:title=" ">
<path fill="none" stroke="#63b8ff" d="M1164.13,-161.16C1220.53,-138.82 1333.27,-94.18 1381.73,-74.99"/>
<polygon fill="#63b8ff" stroke="#63b8ff" points="1163.06,-157.82 1155.05,-164.75 1165.63,-164.33 1163.06,-157.82"/>
</a>
</g>
</g>
<!-- Node4 -->
<g id="Node000004" class="node">
<title>Node4</title>
<g id="a_Node000004"><a xlink:href="lcode_8c.html" target="_top" xlink:title=" ">
<polygon fill="white" stroke="#666666" points="1550.75,-74.5 1462.75,-74.5 1462.75,-55.25 1550.75,-55.25 1550.75,-74.5"/>
<text xml:space="preserve" text-anchor="middle" x="1506.75" y="-61" font-family="Helvetica,sans-Serif" font-size="10.00">lua&#45;5.4.7/lcode.c</text>
</a>
</g>
</g>
<!-- Node1&#45;&gt;Node4 -->
<g id="edge3_Node000001_Node000004" class="edge">
<title>Node1&#45;&gt;Node4</title>
<g id="a_edge3_Node000001_Node000004"><a xlink:title=" ">
<path fill="none" stroke="#63b8ff" d="M1172.76,-162.25C1248.77,-140.32 1407.55,-94.5 1475.16,-74.99"/>
<polygon fill="#63b8ff" stroke="#63b8ff" points="1172.25,-158.76 1163.62,-164.89 1174.19,-165.48 1172.25,-158.76"/>
</a>
</g>
</g>
<!-- Node5 -->
<g id="Node000005" class="node">
<title>Node5</title>
<g id="a_Node000005"><a xlink:href="ldo_8c.html" target="_top" xlink:title=" ">
<polygon fill="white" stroke="#666666" points="77.5,-74.5 0,-74.5 0,-55.25 77.5,-55.25 77.5,-74.5"/>
<text xml:space="preserve" text-anchor="middle" x="38.75" y="-61" font-family="Helvetica,sans-Serif" font-size="10.00">lua&#45;5.4.7/ldo.c</text>
</a>
</g>
</g>
<!-- Node1&#45;&gt;Node5 -->
<g id="edge5_Node000001_Node000005" class="edge">
<title>Node1&#45;&gt;Node5</title>
<g id="a_edge5_Node000001_Node000005"><a xlink:title=" ">
<path fill="none" stroke="#63b8ff" d="M1080.37,-173.87C956.97,-172.11 629.99,-164.29 359.75,-129.75 255.76,-116.46 134.93,-89.15 75.55,-74.93"/>
<polygon fill="#63b8ff" stroke="#63b8ff" points="1080.1,-177.37 1090.15,-174 1080.2,-170.37 1080.1,-177.37"/>
</a>
</g>
</g>
<!-- Node6 -->
<g id="Node000006" class="node">
<title>Node6</title>
<g id="a_Node000006"><a xlink:href="lfunc_8c.html" target="_top" xlink:title=" ">
<polygon fill="white" stroke="#666666" points="1544.62,-129.75 1458.88,-129.75 1458.88,-110.5 1544.62,-110.5 1544.62,-129.75"/>
<text xml:space="preserve" text-anchor="middle" x="1501.75" y="-116.25" font-family="Helvetica,sans-Serif" font-size="10.00">lua&#45;5.4.7/lfunc.c</text>
</a>
</g>
</g>
<!-- Node1&#45;&gt;Node6 -->
<g id="edge7_Node000001_Node000006" class="edge">
<title>Node1&#45;&gt;Node6</title>
<g id="a_edge7_Node000001_Node000006"><a xlink:title=" ">
<path fill="none" stroke="#63b8ff" d="M1180.96,-167.17C1254.25,-156.65 1389.27,-137.27 1458.44,-127.34"/>
<polygon fill="#63b8ff" stroke="#63b8ff" points="1180.65,-163.68 1171.25,-168.56 1181.65,-170.61 1180.65,-163.68"/>
</a>
</g>
</g>
<!-- Node7 -->
<g id="Node000007" class="node">
<title>Node7</title>
<g id="a_Node000007"><a xlink:href="lgc_8c.html" target="_top" xlink:title=" ">
<polygon fill="white" stroke="#666666" points="173.5,-74.5 96,-74.5 96,-55.25 173.5,-55.25 173.5,-74.5"/>
<text xml:space="preserve" text-anchor="middle" x="134.75" y="-61" font-family="Helvetica,sans-Serif" font-size="10.00">lua&#45;5.4.7/lgc.c</text>
</a>
</g>
</g>
<!-- Node1&#45;&gt;Node7 -->
<g id="edge9_Node000001_Node000007" class="edge">
<title>Node1&#45;&gt;Node7</title>
<g id="a_edge9_Node000001_Node000007"><a xlink:title=" ">
<path fill="none" stroke="#63b8ff" d="M1080.27,-172.67C972.19,-168.63 710.49,-156.69 492.75,-129.75 375.9,-115.29 239.3,-88 173.74,-74.25"/>
<polygon fill="#63b8ff" stroke="#63b8ff" points="1080.14,-176.17 1090.26,-173.04 1080.39,-169.18 1080.14,-176.17"/>
</a>
</g>
</g>
<!-- Node8 -->
<g id="Node000008" class="node">
<title>Node8</title>
<g id="a_Node000008"><a xlink:href="llex_8c.html" target="_top" xlink:title=" ">
<polygon fill="white" stroke="#666666" points="271.62,-74.5 191.88,-74.5 191.88,-55.25 271.62,-55.25 271.62,-74.5"/>
<text xml:space="preserve" text-anchor="middle" x="231.75" y="-61" font-family="Helvetica,sans-Serif" font-size="10.00">lua&#45;5.4.7/llex.c</text>
</a>
</g>
</g>
<!-- Node1&#45;&gt;Node8 -->
<g id="edge11_Node000001_Node000008" class="edge">
<title>Node1&#45;&gt;Node8</title>
<g id="a_edge11_Node000001_Node000008"><a xlink:title=" ">
<path fill="none" stroke="#63b8ff" d="M1080.51,-171.02C990.26,-164.74 794.82,-150 630.75,-129.75 474.45,-110.46 436.08,-100.43 280.75,-74.5 277.94,-74.03 275.04,-73.54 272.12,-73.04"/>
<polygon fill="#63b8ff" stroke="#63b8ff" points="1080.03,-174.49 1090.25,-171.69 1080.51,-167.51 1080.03,-174.49"/>
</a>
</g>
</g>
<!-- Node9 -->
<g id="Node000009" class="node">
<title>Node9</title>
<g id="a_Node000009"><a xlink:href="lmem_8c.html" target="_top" xlink:title=" ">
<polygon fill="white" stroke="#666666" points="1657.12,-129.75 1568.38,-129.75 1568.38,-110.5 1657.12,-110.5 1657.12,-129.75"/>
<text xml:space="preserve" text-anchor="middle" x="1612.75" y="-116.25" font-family="Helvetica,sans-Serif" font-size="10.00">lua&#45;5.4.7/lmem.c</text>
</a>
</g>
</g>
<!-- Node1&#45;&gt;Node9 -->
<g id="edge13_Node000001_Node000009" class="edge">
<title>Node1&#45;&gt;Node9</title>
<g id="a_edge13_Node000001_Node000009"><a xlink:title=" ">
<path fill="none" stroke="#63b8ff" d="M1180.99,-169.73C1260.3,-162.25 1419.32,-146.66 1553.75,-129.75 1558.37,-129.17 1563.19,-128.53 1568,-127.86"/>
<polygon fill="#63b8ff" stroke="#63b8ff" points="1181.02,-166.21 1171.39,-170.63 1181.67,-173.18 1181.02,-166.21"/>
</a>
</g>
</g>
<!-- Node10 -->
<g id="Node000010" class="node">
<title>Node10</title>
<g id="a_Node000010"><a xlink:href="lstate_8c.html" target="_top" xlink:title=" ">
<polygon fill="white" stroke="#666666" points="378.12,-74.5 289.38,-74.5 289.38,-55.25 378.12,-55.25 378.12,-74.5"/>
<text xml:space="preserve" text-anchor="middle" x="333.75" y="-61" font-family="Helvetica,sans-Serif" font-size="10.00">lua&#45;5.4.7/lstate.c</text>
</a>
</g>
</g>
<!-- Node1&#45;&gt;Node10 -->
<g id="edge15_Node000001_Node000010" class="edge">
<title>Node1&#45;&gt;Node10</title>
<g id="a_edge15_Node000001_Node000010"><a xlink:title=" ">
<path fill="none" stroke="#63b8ff" d="M1080.24,-168.28C1011.36,-159.92 884.15,-144.26 775.75,-129.75 602.67,-106.58 559.38,-100.8 386.75,-74.5 384.08,-74.09 381.33,-73.67 378.56,-73.23"/>
<polygon fill="#63b8ff" stroke="#63b8ff" points="1079.74,-171.75 1090.09,-169.48 1080.58,-164.8 1079.74,-171.75"/>
</a>
</g>
</g>
<!-- Node11 -->
<g id="Node000011" class="node">
<title>Node11</title>
<g id="a_Node000011"><a xlink:href="lstring_8h.html" target="_top" xlink:title=" ">
<polygon fill="white" stroke="#666666" points="876.25,-129.75 785.25,-129.75 785.25,-110.5 876.25,-110.5 876.25,-129.75"/>
<text xml:space="preserve" text-anchor="middle" x="830.75" y="-116.25" font-family="Helvetica,sans-Serif" font-size="10.00">lua&#45;5.4.7/lstring.h</text>
</a>
</g>
</g>
<!-- Node1&#45;&gt;Node11 -->
<g id="edge17_Node000001_Node000011" class="edge">
<title>Node1&#45;&gt;Node11</title>
<g id="a_edge17_Node000001_Node000011"><a xlink:title=" ">
<path fill="none" stroke="#63b8ff" d="M1080.28,-165.42C1023.36,-155.31 931.57,-139.02 876.61,-129.27"/>
<polygon fill="#63b8ff" stroke="#63b8ff" points="1079.58,-168.85 1090.04,-167.15 1080.81,-161.96 1079.58,-168.85"/>
</a>
</g>
</g>
<!-- Node16 -->
<g id="Node000016" class="node">
<title>Node16</title>
<g id="a_Node000016"><a xlink:href="ltable_8c.html" target="_top" xlink:title=" ">
<polygon fill="white" stroke="#666666" points="1152.75,-74.5 1064.75,-74.5 1064.75,-55.25 1152.75,-55.25 1152.75,-74.5"/>
<text xml:space="preserve" text-anchor="middle" x="1108.75" y="-61" font-family="Helvetica,sans-Serif" font-size="10.00">lua&#45;5.4.7/ltable.c</text>
</a>
</g>
</g>
<!-- Node1&#45;&gt;Node16 -->
<g id="edge41_Node000001_Node000016" class="edge">
<title>Node1&#45;&gt;Node16</title>
<g id="a_edge41_Node000001_Node000016"><a xlink:title=" ">
<path fill="none" stroke="#63b8ff" d="M1126.69,-154.35C1121.89,-130.65 1114.09,-92.22 1110.58,-74.88"/>
<polygon fill="#63b8ff" stroke="#63b8ff" points="1123.23,-154.91 1128.65,-164.01 1130.09,-153.52 1123.23,-154.91"/>
</a>
</g>
</g>
<!-- Node18 -->
<g id="Node000018" class="node">
<title>Node18</title>
<g id="a_Node000018"><a xlink:href="ltm_8c.html" target="_top" xlink:title=" ">
<polygon fill="white" stroke="#666666" points="1248.88,-74.5 1170.62,-74.5 1170.62,-55.25 1248.88,-55.25 1248.88,-74.5"/>
<text xml:space="preserve" text-anchor="middle" x="1209.75" y="-61" font-family="Helvetica,sans-Serif" font-size="10.00">lua&#45;5.4.7/ltm.c</text>
</a>
</g>
</g>
<!-- Node1&#45;&gt;Node18 -->
<g id="edge42_Node000001_Node000018" class="edge">
<title>Node1&#45;&gt;Node18</title>
<g id="a_edge42_Node000001_Node000018"><a xlink:title=" ">
<path fill="none" stroke="#63b8ff" d="M1143.92,-156.29C1161.02,-132.8 1190.22,-92.7 1203.2,-74.88"/>
<polygon fill="#63b8ff" stroke="#63b8ff" points="1141.16,-154.13 1138.11,-164.27 1146.82,-158.25 1141.16,-154.13"/>
</a>
</g>
</g>
<!-- Node20 -->
<g id="Node000020" class="node">
<title>Node20</title>
<g id="a_Node000020"><a xlink:href="lvm_8c.html" target="_top" xlink:title=" ">
<polygon fill="white" stroke="#666666" points="1347,-74.5 1266.5,-74.5 1266.5,-55.25 1347,-55.25 1347,-74.5"/>
<text xml:space="preserve" text-anchor="middle" x="1306.75" y="-61" font-family="Helvetica,sans-Serif" font-size="10.00">lua&#45;5.4.7/lvm.c</text>
</a>
</g>
</g>
<!-- Node1&#45;&gt;Node20 -->
<g id="edge43_Node000001_Node000020" class="edge">
<title>Node1&#45;&gt;Node20</title>
<g id="a_edge43_Node000001_Node000020"><a xlink:title=" ">
<path fill="none" stroke="#63b8ff" d="M1155,-159.42C1192.15,-136.52 1262,-93.46 1292.21,-74.84"/>
<polygon fill="#63b8ff" stroke="#63b8ff" points="1153.42,-156.29 1146.74,-164.52 1157.09,-162.25 1153.42,-156.29"/>
</a>
</g>
</g>
<!-- Node3 -->
<g id="Node000003" class="node">
<title>Node3</title>
<g id="a_Node000003"><a xlink:href="onelua_8c.html" target="_top" xlink:title=" ">
<polygon fill="white" stroke="#666666" points="990.38,-19.25 897.12,-19.25 897.12,0 990.38,0 990.38,-19.25"/>
<text xml:space="preserve" text-anchor="middle" x="943.75" y="-5.75" font-family="Helvetica,sans-Serif" font-size="10.00">lua&#45;5.4.7/onelua.c</text>
</a>
</g>
</g>
<!-- Node2&#45;&gt;Node3 -->
<g id="edge2_Node000002_Node000003" class="edge">
<title>Node2&#45;&gt;Node3</title>
<g id="a_edge2_Node000002_Node000003"><a xlink:title=" ">
<path fill="none" stroke="#63b8ff" d="M1353.27,-54.98C1215.78,-35.75 1065.47,-21.38 990.84,-14.7"/>
<polygon fill="#63b8ff" stroke="#63b8ff" points="1352.52,-58.41 1362.91,-56.34 1353.5,-51.48 1352.52,-58.41"/>
</a>
</g>
</g>
<!-- Node4&#45;&gt;Node3 -->
<g id="edge4_Node000004_Node000003" class="edge">
<title>Node4&#45;&gt;Node3</title>
<g id="a_edge4_Node000004_Node000003"><a xlink:title=" ">
<path fill="none" stroke="#63b8ff" d="M1450.98,-54.99C1275.28,-33.4 1078.74,-19.33 990.63,-13.56"/>
<polygon fill="#63b8ff" stroke="#63b8ff" points="1450.39,-58.44 1460.75,-56.2 1451.26,-51.5 1450.39,-58.44"/>
</a>
</g>
</g>
<!-- Node5&#45;&gt;Node3 -->
<g id="edge6_Node000005_Node000003" class="edge">
<title>Node5&#45;&gt;Node3</title>
<g id="a_edge6_Node000005_Node000003"><a xlink:title=" ">
<path fill="none" stroke="#63b8ff" d="M89.12,-55.13C402.93,-19.59 768.57,-12.47 896.66,-11"/>
<polygon fill="#63b8ff" stroke="#63b8ff" points="89.02,-51.62 79.49,-56.24 89.82,-58.58 89.02,-51.62"/>
</a>
</g>
</g>
<!-- Node6&#45;&gt;Node3 -->
<g id="edge8_Node000006_Node000003" class="edge">
<title>Node6&#45;&gt;Node3</title>
<g id="a_edge8_Node000006_Node000003"><a xlink:title=" ">
<path fill="none" stroke="#63b8ff" d="M1530.03,-104.52C1551.65,-91.52 1575.34,-72.01 1559.75,-55.25 1521.23,-13.84 1127.74,-10.37 990.59,-10.44"/>
<polygon fill="#63b8ff" stroke="#63b8ff" points="1528.35,-101.45 1521.39,-109.43 1531.81,-107.54 1528.35,-101.45"/>
</a>
</g>
</g>
<!-- Node7&#45;&gt;Node3 -->
<g id="edge10_Node000007_Node000003" class="edge">
<title>Node7&#45;&gt;Node3</title>
<g id="a_edge10_Node000007_Node000003"><a xlink:title=" ">
<path fill="none" stroke="#63b8ff" d="M185.41,-55.09C460.7,-23.04 778.93,-13.88 896.82,-11.43"/>
<polygon fill="#63b8ff" stroke="#63b8ff" points="185.01,-51.61 175.49,-56.25 185.83,-58.56 185.01,-51.61"/>
</a>
</g>
</g>
<!-- Node8&#45;&gt;Node3 -->
<g id="edge12_Node000008_Node000003" class="edge">
<title>Node8&#45;&gt;Node3</title>
<g id="a_edge12_Node000008_Node000003"><a xlink:title=" ">
<path fill="none" stroke="#63b8ff" d="M283.3,-55.07C519.57,-26.96 790.08,-15.68 896.97,-12.05"/>
<polygon fill="#63b8ff" stroke="#63b8ff" points="283.09,-51.57 273.58,-56.24 283.93,-58.52 283.09,-51.57"/>
</a>
</g>
</g>
<!-- Node9&#45;&gt;Node3 -->
<g id="edge14_Node000009_Node000003" class="edge">
<title>Node9&#45;&gt;Node3</title>
<g id="a_edge14_Node000009_Node000003"><a xlink:title=" ">
<path fill="none" stroke="#63b8ff" d="M1607.3,-99.62C1602.06,-84.77 1592.54,-65.24 1576.75,-55.25 1527.58,-24.15 1128.52,-13.99 990.51,-11.39"/>
<polygon fill="#63b8ff" stroke="#63b8ff" points="1603.85,-100.31 1610.18,-108.8 1610.53,-98.21 1603.85,-100.31"/>
</a>
</g>
</g>
<!-- Node10&#45;&gt;Node3 -->
<g id="edge16_Node000010_Node000003" class="edge">
<title>Node10&#45;&gt;Node3</title>
<g id="a_edge16_Node000010_Node000003"><a xlink:title=" ">
<path fill="none" stroke="#63b8ff" d="M389.79,-54.97C583.57,-31.9 802.41,-18.34 896.67,-13.1"/>
<polygon fill="#63b8ff" stroke="#63b8ff" points="389.55,-51.47 380.04,-56.14 390.38,-58.42 389.55,-51.47"/>
</a>
</g>
</g>
<!-- Node11&#45;&gt;Node2 -->
<g id="edge18_Node000011_Node000002" class="edge">
<title>Node11&#45;&gt;Node2</title>
<g id="a_edge18_Node000011_Node000002"><a xlink:title=" ">
<path fill="none" stroke="#63b8ff" d="M887.79,-115.95C984.39,-110.21 1186.21,-96.58 1355.75,-74.5 1358.58,-74.13 1361.49,-73.72 1364.42,-73.27"/>
<polygon fill="#63b8ff" stroke="#63b8ff" points="887.83,-112.44 878.05,-116.53 888.24,-119.43 887.83,-112.44"/>
</a>
</g>
</g>
<!-- Node11&#45;&gt;Node4 -->
<g id="edge19_Node000011_Node000004" class="edge">
<title>Node11&#45;&gt;Node4</title>
<g id="a_edge19_Node000011_Node000004"><a xlink:title=" ">
<path fill="none" stroke="#63b8ff" d="M888.07,-116.74C998.04,-111.79 1246.18,-98.77 1453.75,-74.5 1456.53,-74.18 1459.38,-73.81 1462.26,-73.41"/>
<polygon fill="#63b8ff" stroke="#63b8ff" points="887.95,-113.24 878.12,-117.19 888.26,-120.24 887.95,-113.24"/>
</a>
</g>
</g>
<!-- Node11&#45;&gt;Node5 -->
<g id="edge22_Node000011_Node000005" class="edge">
<title>Node11&#45;&gt;Node5</title>
<g id="a_edge22_Node000011_Node000005"><a xlink:title=" ">
<path fill="none" stroke="#63b8ff" d="M773.71,-117.99C648.8,-115.02 341.86,-104.96 86.75,-74.5 83.89,-74.16 80.95,-73.76 77.99,-73.31"/>
<polygon fill="#63b8ff" stroke="#63b8ff" points="773.27,-121.48 783.35,-118.22 773.44,-114.49 773.27,-121.48"/>
</a>
</g>
</g>
<!-- Node11&#45;&gt;Node7 -->
<g id="edge23_Node000011_Node000007" class="edge">
<title>Node11&#45;&gt;Node7</title>
<g id="a_edge23_Node000011_Node000007"><a xlink:title=" ">
<path fill="none" stroke="#63b8ff" d="M773.57,-117.28C660.39,-113.17 400,-101.42 182.75,-74.5 179.89,-74.15 176.95,-73.73 173.99,-73.29"/>
<polygon fill="#63b8ff" stroke="#63b8ff" points="773.39,-120.78 783.51,-117.64 773.64,-113.78 773.39,-120.78"/>
</a>
</g>
</g>
<!-- Node11&#45;&gt;Node8 -->
<g id="edge24_Node000011_Node000008" class="edge">
<title>Node11&#45;&gt;Node8</title>
<g id="a_edge24_Node000011_Node000008"><a xlink:title=" ">
<path fill="none" stroke="#63b8ff" d="M773.62,-116.25C673.48,-110.82 459.9,-97.48 280.75,-74.5 277.92,-74.14 275.01,-73.72 272.08,-73.28"/>
<polygon fill="#63b8ff" stroke="#63b8ff" points="773.28,-119.74 783.46,-116.78 773.66,-112.75 773.28,-119.74"/>
</a>
</g>
</g>
<!-- Node11&#45;&gt;Node10 -->
<g id="edge29_Node000011_Node000010" class="edge">
<title>Node11&#45;&gt;Node10</title>
<g id="a_edge29_Node000011_Node000010"><a xlink:title=" ">
<path fill="none" stroke="#63b8ff" d="M773.43,-113.8C670.92,-104.22 460.06,-84.14 386.75,-74.5 384.07,-74.15 381.32,-73.76 378.54,-73.36"/>
<polygon fill="#63b8ff" stroke="#63b8ff" points="772.99,-117.28 783.28,-114.72 773.65,-110.31 772.99,-117.28"/>
</a>
</g>
</g>
<!-- Node12 -->
<g id="Node000012" class="node">
<title>Node12</title>
<g id="a_Node000012"><a xlink:href="ldebug_8c.html" target="_top" xlink:title=" ">
<polygon fill="white" stroke="#666666" points="935.38,-74.5 842.12,-74.5 842.12,-55.25 935.38,-55.25 935.38,-74.5"/>
<text xml:space="preserve" text-anchor="middle" x="888.75" y="-61" font-family="Helvetica,sans-Serif" font-size="10.00">lua&#45;5.4.7/ldebug.c</text>
</a>
</g>
</g>
<!-- Node11&#45;&gt;Node12 -->
<g id="edge20_Node000011_Node000012" class="edge">
<title>Node11&#45;&gt;Node12</title>
<g id="a_edge20_Node000011_Node000012"><a xlink:title=" ">
<path fill="none" stroke="#63b8ff" d="M849.01,-102.36C858.97,-93.22 870.89,-82.28 879.06,-74.77"/>
<polygon fill="#63b8ff" stroke="#63b8ff" points="846.7,-99.73 841.7,-109.07 851.44,-104.88 846.7,-99.73"/>
</a>
</g>
</g>
<!-- Node13 -->
<g id="Node000013" class="node">
<title>Node13</title>
<g id="a_Node000013"><a xlink:href="lobject_8c.html" target="_top" xlink:title=" ">
<polygon fill="white" stroke="#666666" points="1046.38,-74.5 953.12,-74.5 953.12,-55.25 1046.38,-55.25 1046.38,-74.5"/>
<text xml:space="preserve" text-anchor="middle" x="999.75" y="-61" font-family="Helvetica,sans-Serif" font-size="10.00">lua&#45;5.4.7/lobject.c</text>
</a>
</g>
</g>
<!-- Node11&#45;&gt;Node13 -->
<g id="edge25_Node000011_Node000013" class="edge">
<title>Node11&#45;&gt;Node13</title>
<g id="a_edge25_Node000011_Node000013"><a xlink:title=" ">
<path fill="none" stroke="#63b8ff" d="M870.22,-106.69C901.07,-96.97 943.21,-83.69 970.94,-74.95"/>
<polygon fill="#63b8ff" stroke="#63b8ff" points="869.35,-103.29 860.86,-109.64 871.45,-109.97 869.35,-103.29"/>
</a>
</g>
</g>
<!-- Node14 -->
<g id="Node000014" class="node">
<title>Node14</title>
<g id="a_Node000014"><a xlink:href="lparser_8c.html" target="_top" xlink:title=" ">
<polygon fill="white" stroke="#666666" points="489.38,-74.5 396.12,-74.5 396.12,-55.25 489.38,-55.25 489.38,-74.5"/>
<text xml:space="preserve" text-anchor="middle" x="442.75" y="-61" font-family="Helvetica,sans-Serif" font-size="10.00">lua&#45;5.4.7/lparser.c</text>
</a>
</g>
</g>
<!-- Node11&#45;&gt;Node14 -->
<g id="edge27_Node000011_Node000014" class="edge">
<title>Node11&#45;&gt;Node14</title>
<g id="a_edge27_Node000011_Node000014"><a xlink:title=" ">
<path fill="none" stroke="#63b8ff" d="M773.89,-111.9C707.55,-103.38 594.6,-88.58 497.75,-74.5 495.17,-74.12 492.52,-73.73 489.84,-73.33"/>
<polygon fill="#63b8ff" stroke="#63b8ff" points="773.05,-115.32 783.42,-113.12 773.95,-108.38 773.05,-115.32"/>
</a>
</g>
</g>
<!-- Node15 -->
<g id="Node000015" class="node">
<title>Node15</title>
<g id="a_Node000015"><a xlink:href="lstring_8c.html" target="_top" xlink:title=" ">
<polygon fill="white" stroke="#666666" points="598.25,-74.5 507.25,-74.5 507.25,-55.25 598.25,-55.25 598.25,-74.5"/>
<text xml:space="preserve" text-anchor="middle" x="552.75" y="-61" font-family="Helvetica,sans-Serif" font-size="10.00">lua&#45;5.4.7/lstring.c</text>
</a>
</g>
</g>
<!-- Node11&#45;&gt;Node15 -->
<g id="edge30_Node000011_Node000015" class="edge">
<title>Node11&#45;&gt;Node15</title>
<g id="a_edge30_Node000011_Node000015"><a xlink:title=" ">
<path fill="none" stroke="#63b8ff" d="M773.86,-108.23C722.12,-98.32 646.74,-83.88 598.72,-74.68"/>
<polygon fill="#63b8ff" stroke="#63b8ff" points="772.88,-111.6 783.36,-110.05 774.19,-104.73 772.88,-111.6"/>
</a>
</g>
</g>
<!-- Node11&#45;&gt;Node16 -->
<g id="edge32_Node000011_Node000016" class="edge">
<title>Node11&#45;&gt;Node16</title>
<g id="a_edge32_Node000011_Node000016"><a xlink:title=" ">
<path fill="none" stroke="#63b8ff" d="M887.78,-108.2C940.17,-98.17 1016.75,-83.5 1064.61,-74.33"/>
<polygon fill="#63b8ff" stroke="#63b8ff" points="887.31,-104.73 878.14,-110.05 888.62,-111.6 887.31,-104.73"/>
</a>
</g>
</g>
<!-- Node17 -->
<g id="Node000017" class="node">
<title>Node17</title>
<g id="a_Node000017"><a xlink:href="ltests_8c.html" target="_top" xlink:title=" ">
<polygon fill="white" stroke="#666666" points="705.12,-74.5 616.38,-74.5 616.38,-55.25 705.12,-55.25 705.12,-74.5"/>
<text xml:space="preserve" text-anchor="middle" x="660.75" y="-61" font-family="Helvetica,sans-Serif" font-size="10.00">lua&#45;5.4.7/ltests.c</text>
</a>
</g>
</g>
<!-- Node11&#45;&gt;Node17 -->
<g id="edge34_Node000011_Node000017" class="edge">
<title>Node11&#45;&gt;Node17</title>
<g id="a_edge34_Node000011_Node000017"><a xlink:title=" ">
<path fill="none" stroke="#63b8ff" d="M791.04,-106.69C760.02,-96.97 717.62,-83.69 689.73,-74.95"/>
<polygon fill="#63b8ff" stroke="#63b8ff" points="789.88,-109.99 800.47,-109.64 791.97,-103.31 789.88,-109.99"/>
</a>
</g>
</g>
<!-- Node11&#45;&gt;Node18 -->
<g id="edge35_Node000011_Node000018" class="edge">
<title>Node11&#45;&gt;Node18</title>
<g id="a_edge35_Node000011_Node000018"><a xlink:title=" ">
<path fill="none" stroke="#63b8ff" d="M888.02,-112.18C954.1,-103.98 1065.97,-89.55 1161.75,-74.5 1164.51,-74.07 1167.36,-73.6 1170.22,-73.12"/>
<polygon fill="#63b8ff" stroke="#63b8ff" points="887.62,-108.7 878.12,-113.4 888.48,-115.65 887.62,-108.7"/>
</a>
</g>
</g>
<!-- Node19 -->
<g id="Node000019" class="node">
<title>Node19</title>
<g id="a_Node000019"><a xlink:href="lundump_8c.html" target="_top" xlink:title=" ">
<polygon fill="white" stroke="#666666" points="824.5,-74.5 723,-74.5 723,-55.25 824.5,-55.25 824.5,-74.5"/>
<text xml:space="preserve" text-anchor="middle" x="773.75" y="-61" font-family="Helvetica,sans-Serif" font-size="10.00">lua&#45;5.4.7/lundump.c</text>
</a>
</g>
</g>
<!-- Node11&#45;&gt;Node19 -->
<g id="edge37_Node000011_Node000019" class="edge">
<title>Node11&#45;&gt;Node19</title>
<g id="a_edge37_Node000011_Node000019"><a xlink:title=" ">
<path fill="none" stroke="#63b8ff" d="M812.8,-102.36C803.02,-93.22 791.31,-82.28 783.28,-74.77"/>
<polygon fill="#63b8ff" stroke="#63b8ff" points="810.28,-104.79 819.97,-109.06 815.06,-99.67 810.28,-104.79"/>
</a>
</g>
</g>
<!-- Node11&#45;&gt;Node20 -->
<g id="edge39_Node000011_Node000020" class="edge">
<title>Node11&#45;&gt;Node20</title>
<g id="a_edge39_Node000011_Node000020"><a xlink:title=" ">
<path fill="none" stroke="#63b8ff" d="M888.02,-114.43C970.1,-107.4 1125.88,-92.97 1257.75,-74.5 1260.49,-74.12 1263.31,-73.69 1266.14,-73.25"/>
<polygon fill="#63b8ff" stroke="#63b8ff" points="887.87,-110.93 878.2,-115.26 888.46,-117.9 887.87,-110.93"/>
</a>
</g>
</g>
<!-- Node12&#45;&gt;Node3 -->
<g id="edge21_Node000012_Node000003" class="edge">
<title>Node12&#45;&gt;Node3</title>
<g id="a_edge21_Node000012_Node000003"><a xlink:title=" ">
<path fill="none" stroke="#63b8ff" d="M906.1,-47.07C915.5,-37.98 926.73,-27.1 934.47,-19.61"/>
<polygon fill="#63b8ff" stroke="#63b8ff" points="903.67,-44.56 898.92,-54.03 908.54,-49.59 903.67,-44.56"/>
</a>
</g>
</g>
<!-- Node13&#45;&gt;Node3 -->
<g id="edge26_Node000013_Node000003" class="edge">
<title>Node13&#45;&gt;Node3</title>
<g id="a_edge26_Node000013_Node000003"><a xlink:title=" ">
<path fill="none" stroke="#63b8ff" d="M982.12,-47.11C972.51,-37.97 961,-27.03 953.11,-19.52"/>
<polygon fill="#63b8ff" stroke="#63b8ff" points="979.49,-49.44 989.15,-53.8 984.32,-44.37 979.49,-49.44"/>
</a>
</g>
</g>
<!-- Node14&#45;&gt;Node3 -->
<g id="edge28_Node000014_Node000003" class="edge">
<title>Node14&#45;&gt;Node3</title>
<g id="a_edge28_Node000014_Node000003"><a xlink:title=" ">
<path fill="none" stroke="#63b8ff" d="M501.07,-54.88C651.23,-35.88 817.36,-21.12 896.78,-14.46"/>
<polygon fill="#63b8ff" stroke="#63b8ff" points="500.81,-51.39 491.33,-56.12 501.69,-58.33 500.81,-51.39"/>
</a>
</g>
</g>
<!-- Node15&#45;&gt;Node3 -->
<g id="edge31_Node000015_Node000003" class="edge">
<title>Node15&#45;&gt;Node3</title>
<g id="a_edge31_Node000015_Node000003"><a xlink:title=" ">
<path fill="none" stroke="#63b8ff" d="M609.84,-54.98C718.66,-39.32 833.81,-24.48 896.68,-16.52"/>
<polygon fill="#63b8ff" stroke="#63b8ff" points="609.55,-51.48 600.15,-56.38 610.55,-58.41 609.55,-51.48"/>
</a>
</g>
</g>
<!-- Node16&#45;&gt;Node3 -->
<g id="edge33_Node000016_Node000003" class="edge">
<title>Node16&#45;&gt;Node3</title>
<g id="a_edge33_Node000016_Node000003"><a xlink:title=" ">
<path fill="none" stroke="#63b8ff" d="M1069.81,-51.31C1039.74,-41.6 998.83,-28.4 971.88,-19.7"/>
<polygon fill="#63b8ff" stroke="#63b8ff" points="1068.73,-54.64 1079.32,-54.38 1070.88,-47.97 1068.73,-54.64"/>
</a>
</g>
</g>
<!-- Node18&#45;&gt;Node3 -->
<g id="edge36_Node000018_Node000003" class="edge">
<title>Node18&#45;&gt;Node3</title>
<g id="a_edge36_Node000018_Node000003"><a xlink:title=" ">
<path fill="none" stroke="#63b8ff" d="M1158.93,-53.7C1109.93,-43.89 1036.45,-29.18 989.31,-19.74"/>
<polygon fill="#63b8ff" stroke="#63b8ff" points="1158.24,-57.13 1168.73,-55.66 1159.61,-50.27 1158.24,-57.13"/>
</a>
</g>
</g>
<!-- Node19&#45;&gt;Node3 -->
<g id="edge38_Node000019_Node000003" class="edge">
<title>Node19&#45;&gt;Node3</title>
<g id="a_edge38_Node000019_Node000003"><a xlink:title=" ">
<path fill="none" stroke="#63b8ff" d="M813.46,-51.44C844.48,-41.72 886.88,-28.44 914.77,-19.7"/>
<polygon fill="#63b8ff" stroke="#63b8ff" points="812.53,-48.06 804.03,-54.39 814.62,-54.74 812.53,-48.06"/>
</a>
</g>
</g>
<!-- Node20&#45;&gt;Node3 -->
<g id="edge40_Node000020_Node000003" class="edge">
<title>Node20&#45;&gt;Node3</title>
<g id="a_edge40_Node000020_Node000003"><a xlink:title=" ">
<path fill="none" stroke="#63b8ff" d="M1254.93,-54.84C1155.17,-39.11 1049.86,-24.7 990.64,-16.8"/>
<polygon fill="#63b8ff" stroke="#63b8ff" points="1254.21,-58.27 1264.63,-56.38 1255.3,-51.36 1254.21,-58.27"/>
</a>
</g>
</g>
</g>
</svg>

<g id="navigator" transform="translate(0 0)" fill="#404254">
  <rect fill="#f2f5e9" fill-opacity="0.5" stroke="#606060" stroke-width=".5" x="0" y="0" width="60" height="60"/>
  <use id="zoomplus" xlink:href="#zoomPlus" x="17" y="9" onmousedown="handleZoom(evt,'in')"/>
  <use id="zoomminus" xlink:href="#zoomMin" x="42" y="9" onmousedown="handleZoom(evt,'out')"/>
  <use id="reset" xlink:href="#resetDef" x="30" y="36" onmousedown="handleReset()"/>
   <use id="arrowup" xlink:href="#arrowUp" x="0" y="0" onmousedown="handlePan(0,-1)"/>
  <use id="arrowright" xlink:href="#arrowRight" x="0" y="0" onmousedown="handlePan(1,0)"/>
  <use id="arrowdown" xlink:href="#arrowDown" x="0" y="0" onmousedown="handlePan(0,1)"/>
  <use id="arrowleft" xlink:href="#arrowLeft" x="0" y="0" onmousedown="handlePan(-1,0)"/>
</g>
<svg viewBox="0 0 15 15" width="100%" height="30px" preserveAspectRatio="xMaxYMin meet">
 <g id="arrow_out" transform="scale(0.3 0.3)">
  <a xlink:href="lgc_8h__dep__incl_org.svg" target="_base">
   <rect id="button" ry="5" rx="5" y="6" x="6" height="38" width="38"
        fill="#f2f5e9" fill-opacity="0.5" stroke="#606060" stroke-width="1.0"/>
   <path id="arrow"
     d="M 11.500037,31.436501 C 11.940474,20.09759 22.043105,11.32322 32.158766,21.979434 L 37.068811,17.246167 C 37.068811,17.246167 37.088388,32 37.088388,32 L 22.160133,31.978069 C 22.160133,31.978069 26.997745,27.140456 26.997745,27.140456 C 18.528582,18.264221 13.291696,25.230495 11.500037,31.436501 z"
     style="fill:#404040;"/>
  </a>
 </g>
</svg>

<style type='text/css'>
<![CDATA[
[data-mouse-over-selected='false'] { opacity: 0.7; }
[data-mouse-over-selected='true']  { opacity: 1.0; }
]]>
</style>
<script type="application/ecmascript"><![CDATA[
document.addEventListener('DOMContentLoaded', (event) => {
  highlightEdges();
  highlightAdjacentNodes();
});
]]></script>
</svg>
