<?xml version="1.0" encoding="UTF-8" standalone="no"?>
<!DOCTYPE svg PUBLIC "-//W3C//DTD SVG 1.1//EN"
 "http://www.w3.org/Graphics/SVG/1.1/DTD/svg11.dtd">
<!-- Generated by graphviz version 13.1.0 (20250701.0955)
 -->
<!-- Title: fullgen Pages: 1 -->
<svg width="1016pt" height="654pt"
 viewBox="0.00 0.00 1016.00 654.00" xmlns="http://www.w3.org/2000/svg" xmlns:xlink="http://www.w3.org/1999/xlink">
<g id="graph0" class="graph" transform="scale(1 1) rotate(0) translate(4 650.25)">
<title>fullgen</title>
<!-- Node1 -->
<g id="Node000001" class="node">
<title>Node1</title>
<g id="a_Node000001"><a xlink:title=" ">
<polygon fill="#999999" stroke="#666666" points="1008,-429.25 963.5,-429.25 963.5,-410 1008,-410 1008,-429.25"/>
<text xml:space="preserve" text-anchor="middle" x="985.75" y="-415.75" font-family="Helvetica,sans-Serif" font-size="10.00">fullgen</text>
</a>
</g>
</g>
<!-- Node2 -->
<g id="Node000002" class="node">
<title>Node2</title>
<g id="a_Node000002"><a xlink:href="lgc_8c.html#a3035567259cf4d2269426622ccc0d022" target="_top" xlink:title=" ">
<polygon fill="white" stroke="#666666" points="920.38,-458.25 869.88,-458.25 869.88,-439 920.38,-439 920.38,-458.25"/>
<text xml:space="preserve" text-anchor="middle" x="895.12" y="-444.75" font-family="Helvetica,sans-Serif" font-size="10.00">genstep</text>
</a>
</g>
</g>
<!-- Node1&#45;&gt;Node2 -->
<g id="edge1_Node000001_Node000002" class="edge">
<title>Node1&#45;&gt;Node2</title>
<g id="a_edge1_Node000001_Node000002"><a xlink:title=" ">
<path fill="none" stroke="#63b8ff" d="M952.47,-430.19C942.03,-433.6 930.63,-437.33 920.83,-440.54"/>
<polygon fill="#63b8ff" stroke="#63b8ff" points="953.44,-433.55 961.86,-427.12 951.27,-426.9 953.44,-433.55"/>
</a>
</g>
</g>
<!-- Node8 -->
<g id="Node000008" class="node">
<title>Node8</title>
<g id="a_Node000008"><a xlink:href="lgc_8c.html#ac48130e5263ad8be09a9c51dae6125b9" target="_top" xlink:title=" ">
<polygon fill="white" stroke="#666666" points="927.5,-411.25 862.75,-411.25 862.75,-392 927.5,-392 927.5,-411.25"/>
<text xml:space="preserve" text-anchor="middle" x="895.12" y="-397.75" font-family="Helvetica,sans-Serif" font-size="10.00">luaC_fullgc</text>
</a>
</g>
</g>
<!-- Node1&#45;&gt;Node8 -->
<g id="edge8_Node000001_Node000008" class="edge">
<title>Node1&#45;&gt;Node8</title>
<g id="a_edge8_Node000001_Node000008"><a xlink:title=" ">
<path fill="none" stroke="#63b8ff" d="M952.15,-413C944.19,-411.39 935.69,-409.66 927.78,-408.05"/>
<polygon fill="#63b8ff" stroke="#63b8ff" points="951.32,-416.41 961.81,-414.97 952.71,-409.55 951.32,-416.41"/>
</a>
</g>
</g>
<!-- Node3 -->
<g id="Node000003" class="node">
<title>Node3</title>
<g id="a_Node000003"><a xlink:href="lgc_8c.html#ab0133eb7bb37a0a690e0ef71fbc13414" target="_top" xlink:title=" ">
<polygon fill="white" stroke="#666666" points="826,-468.25 765.75,-468.25 765.75,-449 826,-449 826,-468.25"/>
<text xml:space="preserve" text-anchor="middle" x="795.88" y="-454.75" font-family="Helvetica,sans-Serif" font-size="10.00">luaC_step</text>
</a>
</g>
</g>
<!-- Node2&#45;&gt;Node3 -->
<g id="edge2_Node000002_Node000003" class="edge">
<title>Node2&#45;&gt;Node3</title>
<g id="a_edge2_Node000002_Node000003"><a xlink:title=" ">
<path fill="none" stroke="#63b8ff" d="M858.19,-452.32C847.68,-453.4 836.31,-454.57 826.26,-455.6"/>
<polygon fill="#63b8ff" stroke="#63b8ff" points="858.49,-455.81 868.08,-451.3 857.77,-448.84 858.49,-455.81"/>
</a>
</g>
</g>
<!-- Node4 -->
<g id="Node000004" class="node">
<title>Node4</title>
<g id="a_Node000004"><a xlink:href="lapi_8c.html#aa93573057f708d826613186a9d40c87d" target="_top" xlink:title=" ">
<polygon fill="white" stroke="#666666" points="713.25,-468.25 668.75,-468.25 668.75,-449 713.25,-449 713.25,-468.25"/>
<text xml:space="preserve" text-anchor="middle" x="691" y="-454.75" font-family="Helvetica,sans-Serif" font-size="10.00">lua_gc</text>
</a>
</g>
</g>
<!-- Node3&#45;&gt;Node4 -->
<g id="edge3_Node000003_Node000004" class="edge">
<title>Node3&#45;&gt;Node4</title>
<g id="a_edge3_Node000003_Node000004"><a xlink:title=" ">
<path fill="none" stroke="#63b8ff" d="M754.12,-458.62C740.29,-458.62 725.38,-458.62 713.64,-458.62"/>
<polygon fill="#63b8ff" stroke="#63b8ff" points="753.88,-462.13 763.88,-458.63 753.88,-455.13 753.88,-462.13"/>
</a>
</g>
</g>
<!-- Node5 -->
<g id="Node000005" class="node">
<title>Node5</title>
<g id="a_Node000005"><a xlink:href="lbaselib_8c.html#a07f71966c943cc9761ab129f64d4ac80" target="_top" xlink:title=" ">
<polygon fill="white" stroke="#666666" points="617,-486.25 513.25,-486.25 513.25,-467 617,-467 617,-486.25"/>
<text xml:space="preserve" text-anchor="middle" x="565.12" y="-472.75" font-family="Helvetica,sans-Serif" font-size="10.00">luaB_collectgarbage</text>
</a>
</g>
</g>
<!-- Node4&#45;&gt;Node5 -->
<g id="edge4_Node000004_Node000005" class="edge">
<title>Node4&#45;&gt;Node5</title>
<g id="a_edge4_Node000004_Node000005"><a xlink:title=" ">
<path fill="none" stroke="#63b8ff" d="M657.36,-463.37C645.1,-465.15 630.84,-467.22 617.29,-469.19"/>
<polygon fill="#63b8ff" stroke="#63b8ff" points="657.53,-466.88 666.92,-461.98 656.53,-459.95 657.53,-466.88"/>
</a>
</g>
</g>
<!-- Node6 -->
<g id="Node000006" class="node">
<title>Node6</title>
<g id="a_Node000006"><a xlink:href="lua_8c.html#a3c04138a5bfe5d72780bb7e82a18e627" target="_top" xlink:title=" ">
<polygon fill="white" stroke="#666666" points="445.38,-505.25 408.38,-505.25 408.38,-486 445.38,-486 445.38,-505.25"/>
<text xml:space="preserve" text-anchor="middle" x="426.88" y="-491.75" font-family="Helvetica,sans-Serif" font-size="10.00">main</text>
</a>
</g>
</g>
<!-- Node4&#45;&gt;Node6 -->
<g id="edge5_Node000004_Node000006" class="edge">
<title>Node4&#45;&gt;Node6</title>
<g id="a_edge5_Node000004_Node000006"><a xlink:title=" ">
<path fill="none" stroke="#63b8ff" d="M665.82,-474.51C652.11,-482.56 634.29,-491.49 617,-495.62 555.52,-510.31 479.56,-502.91 445.66,-498.34"/>
<polygon fill="#63b8ff" stroke="#63b8ff" points="667.44,-477.62 674.14,-469.41 663.78,-471.66 667.44,-477.62"/>
</a>
</g>
</g>
<!-- Node7 -->
<g id="Node000007" class="node">
<title>Node7</title>
<g id="a_Node000007"><a xlink:href="lua_8c.html#aa0f8bc082ef913cb0a4df437bf5f5019" target="_top" xlink:title=" ">
<polygon fill="white" stroke="#666666" points="586.25,-449.25 544,-449.25 544,-430 586.25,-430 586.25,-449.25"/>
<text xml:space="preserve" text-anchor="middle" x="565.12" y="-435.75" font-family="Helvetica,sans-Serif" font-size="10.00">pmain</text>
</a>
</g>
</g>
<!-- Node4&#45;&gt;Node7 -->
<g id="edge6_Node000004_Node000007" class="edge">
<title>Node4&#45;&gt;Node7</title>
<g id="a_edge6_Node000004_Node000007"><a xlink:title=" ">
<path fill="none" stroke="#63b8ff" d="M657.08,-453.58C634.7,-450.14 605.79,-445.71 586.63,-442.77"/>
<polygon fill="#63b8ff" stroke="#63b8ff" points="656.51,-457.03 666.93,-455.09 657.57,-450.11 656.51,-457.03"/>
</a>
</g>
</g>
<!-- Node7&#45;&gt;Node6 -->
<g id="edge7_Node000007_Node000006" class="edge">
<title>Node7&#45;&gt;Node6</title>
<g id="a_edge7_Node000007_Node000006"><a xlink:title=" ">
<path fill="none" stroke="#63b8ff" d="M533.05,-450.18C526.48,-452.54 519.61,-455.09 513.25,-457.62 489.59,-467.06 462.84,-479.21 445.69,-487.2"/>
<polygon fill="#63b8ff" stroke="#63b8ff" points="533.99,-453.56 542.26,-446.95 531.67,-446.96 533.99,-453.56"/>
</a>
</g>
</g>
<!-- Node8&#45;&gt;Node4 -->
<g id="edge54_Node000008_Node000004" class="edge">
<title>Node8&#45;&gt;Node4</title>
<g id="a_edge54_Node000008_Node000004"><a xlink:title=" ">
<path fill="none" stroke="#63b8ff" d="M851.51,-413.64C809.36,-425.53 746.54,-443.25 713.73,-452.5"/>
<polygon fill="#63b8ff" stroke="#63b8ff" points="852.41,-417.02 861.09,-410.94 850.51,-410.29 852.41,-417.02"/>
</a>
</g>
</g>
<!-- Node9 -->
<g id="Node000009" class="node">
<title>Node9</title>
<g id="a_Node000009"><a xlink:href="lstring_8c.html#af8b89b01dc2db9f0d3024067ffdb931a" target="_top" xlink:title=" ">
<polygon fill="white" stroke="#666666" points="826.75,-355.25 765,-355.25 765,-336 826.75,-336 826.75,-355.25"/>
<text xml:space="preserve" text-anchor="middle" x="795.88" y="-341.75" font-family="Helvetica,sans-Serif" font-size="10.00">growstrtab</text>
</a>
</g>
</g>
<!-- Node8&#45;&gt;Node9 -->
<g id="edge9_Node000008_Node000009" class="edge">
<title>Node8&#45;&gt;Node9</title>
<g id="a_edge9_Node000008_Node000009"><a xlink:title=" ">
<path fill="none" stroke="#63b8ff" d="M866.93,-385.96C850.12,-376.29 829.06,-364.16 814.44,-355.74"/>
<polygon fill="#63b8ff" stroke="#63b8ff" points="865.01,-388.9 875.43,-390.86 868.51,-382.83 865.01,-388.9"/>
</a>
</g>
</g>
<!-- Node382 -->
<g id="Node000382" class="node">
<title>Node382</title>
<g id="a_Node000382"><a xlink:href="lmem_8c.html#abe813b00dc25458292fae7dbfc04ef3b" target="_top" xlink:title=" ">
<polygon fill="white" stroke="#666666" points="821.12,-392.25 770.62,-392.25 770.62,-373 821.12,-373 821.12,-392.25"/>
<text xml:space="preserve" text-anchor="middle" x="795.88" y="-378.75" font-family="Helvetica,sans-Serif" font-size="10.00">tryagain</text>
</a>
</g>
</g>
<!-- Node8&#45;&gt;Node382 -->
<g id="edge55_Node000008_Node000382" class="edge">
<title>Node8&#45;&gt;Node382</title>
<g id="a_edge55_Node000008_Node000382"><a xlink:title=" ">
<path fill="none" stroke="#63b8ff" d="M851.04,-393.21C840.88,-391.22 830.39,-389.17 821.38,-387.41"/>
<polygon fill="#63b8ff" stroke="#63b8ff" points="850.31,-396.63 860.8,-395.11 851.65,-389.76 850.31,-396.63"/>
</a>
</g>
</g>
<!-- Node10 -->
<g id="Node000010" class="node">
<title>Node10</title>
<g id="a_Node000010"><a xlink:href="lstring_8c.html#a2891c52f2d96252102e7a0a9d8cf37fd" target="_top" xlink:title=" ">
<polygon fill="white" stroke="#666666" points="723.38,-300.25 658.62,-300.25 658.62,-281 723.38,-281 723.38,-300.25"/>
<text xml:space="preserve" text-anchor="middle" x="691" y="-286.75" font-family="Helvetica,sans-Serif" font-size="10.00">internshrstr</text>
</a>
</g>
</g>
<!-- Node9&#45;&gt;Node10 -->
<g id="edge10_Node000009_Node000010" class="edge">
<title>Node9&#45;&gt;Node10</title>
<g id="a_edge10_Node000009_Node000010"><a xlink:title=" ">
<path fill="none" stroke="#63b8ff" d="M766.18,-330.28C748.46,-320.81 726.23,-308.93 710.75,-300.65"/>
<polygon fill="#63b8ff" stroke="#63b8ff" points="764.2,-333.2 774.67,-334.82 767.5,-327.02 764.2,-333.2"/>
</a>
</g>
</g>
<!-- Node11 -->
<g id="Node000011" class="node">
<title>Node11</title>
<g id="a_Node000011"><a xlink:href="lstring_8c.html#af922b364943afbe71e4da82a0c50188c" target="_top" xlink:title=" ">
<polygon fill="white" stroke="#666666" points="601.25,-244.25 529,-244.25 529,-225 601.25,-225 601.25,-244.25"/>
<text xml:space="preserve" text-anchor="middle" x="565.12" y="-230.75" font-family="Helvetica,sans-Serif" font-size="10.00">luaS_newlstr</text>
</a>
</g>
</g>
<!-- Node10&#45;&gt;Node11 -->
<g id="edge11_Node000010_Node000011" class="edge">
<title>Node10&#45;&gt;Node11</title>
<g id="a_edge11_Node000010_Node000011"><a xlink:title=" ">
<path fill="none" stroke="#63b8ff" d="M657.45,-275.91C635.73,-266.09 607.74,-253.44 588.5,-244.74"/>
<polygon fill="#63b8ff" stroke="#63b8ff" points="655.92,-279.06 666.47,-279.99 658.8,-272.68 655.92,-279.06"/>
</a>
</g>
</g>
<!-- Node12 -->
<g id="Node000012" class="node">
<title>Node12</title>
<g id="a_Node000012"><a xlink:href="lundump_8c.html#ac0523d12e31c707fa1f626add3672fef" target="_top" xlink:title=" ">
<polygon fill="white" stroke="#666666" points="460.38,-75.25 393.38,-75.25 393.38,-56 460.38,-56 460.38,-75.25"/>
<text xml:space="preserve" text-anchor="middle" x="426.88" y="-61.75" font-family="Helvetica,sans-Serif" font-size="10.00">loadStringN</text>
</a>
</g>
</g>
<!-- Node11&#45;&gt;Node12 -->
<g id="edge12_Node000011_Node000012" class="edge">
<title>Node11&#45;&gt;Node12</title>
<g id="a_edge12_Node000011_Node000012"><a xlink:title=" ">
<path fill="none" stroke="#63b8ff" d="M552.93,-214.96C537.64,-188.96 508.53,-142.37 477.25,-107.62 466.26,-95.41 451.74,-83.47 441.3,-75.46"/>
<polygon fill="#63b8ff" stroke="#63b8ff" points="549.8,-216.55 557.85,-223.44 555.86,-213.04 549.8,-216.55"/>
</a>
</g>
</g>
<!-- Node26 -->
<g id="Node000026" class="node">
<title>Node26</title>
<g id="a_Node000026"><a xlink:href="lapi_8c.html#a1de3afee1daece63d455f23818c883d9" target="_top" xlink:title=" ">
<polygon fill="white" stroke="#666666" points="324.38,-169.25 261.12,-169.25 261.12,-150 324.38,-150 324.38,-169.25"/>
<text xml:space="preserve" text-anchor="middle" x="292.75" y="-155.75" font-family="Helvetica,sans-Serif" font-size="10.00">lua_concat</text>
</a>
</g>
</g>
<!-- Node11&#45;&gt;Node26 -->
<g id="edge17_Node000011_Node000026" class="edge">
<title>Node11&#45;&gt;Node26</title>
<g id="a_edge17_Node000011_Node000026"><a xlink:title=" ">
<path fill="none" stroke="#63b8ff" d="M517.17,-238.68C477.65,-240.09 420.67,-237.33 376.5,-215.62 355.62,-205.37 359.83,-190.57 340.5,-177.62 335.59,-174.33 329.98,-171.52 324.41,-169.17"/>
<polygon fill="#63b8ff" stroke="#63b8ff" points="517.26,-242.18 527.08,-238.21 516.93,-235.19 517.26,-242.18"/>
</a>
</g>
</g>
<!-- Node299 -->
<g id="Node000299" class="node">
<title>Node299</title>
<g id="a_Node000299"><a xlink:href="lapi_8c.html#a01ac82fa494af5e7c3e10c87a8052cf7" target="_top" xlink:title=" ">
<polygon fill="white" stroke="#666666" points="333.38,-502.25 252.12,-502.25 252.12,-483 333.38,-483 333.38,-502.25"/>
<text xml:space="preserve" text-anchor="middle" x="292.75" y="-488.75" font-family="Helvetica,sans-Serif" font-size="10.00">lua_pushlstring</text>
</a>
</g>
</g>
<!-- Node11&#45;&gt;Node299 -->
<g id="edge24_Node000011_Node000299" class="edge">
<title>Node11&#45;&gt;Node299</title>
<g id="a_edge24_Node000011_Node000299"><a xlink:title=" ">
<path fill="none" stroke="#63b8ff" d="M553.08,-254.71C538.63,-279.31 511.11,-320.74 477.25,-345.62 438.68,-373.96 410.61,-350.06 376.5,-383.62 345.5,-414.13 371.4,-444.01 340.5,-474.62 337.29,-477.81 333.45,-480.44 329.38,-482.62"/>
<polygon fill="#63b8ff" stroke="#63b8ff" points="556.12,-256.45 558.03,-246.03 550.04,-252.99 556.12,-256.45"/>
</a>
</g>
</g>
<!-- Node305 -->
<g id="Node000305" class="node">
<title>Node305</title>
<g id="a_Node000305"><a xlink:href="lobject_8c.html#a53824ade5220a50d44148175f7787199" target="_top" xlink:title=" ">
<polygon fill="white" stroke="#666666" points="463.75,-282.25 390,-282.25 390,-263 463.75,-263 463.75,-282.25"/>
<text xml:space="preserve" text-anchor="middle" x="426.88" y="-268.75" font-family="Helvetica,sans-Serif" font-size="10.00">luaO_tostring</text>
</a>
</g>
</g>
<!-- Node11&#45;&gt;Node305 -->
<g id="edge36_Node000011_Node000305" class="edge">
<title>Node11&#45;&gt;Node305</title>
<g id="a_edge36_Node000011_Node000305"><a xlink:title=" ">
<path fill="none" stroke="#63b8ff" d="M518.06,-247.47C500.45,-252.38 480.65,-257.91 464.09,-262.53"/>
<polygon fill="#63b8ff" stroke="#63b8ff" points="518.53,-250.97 527.22,-244.92 516.65,-244.23 518.53,-250.97"/>
</a>
</g>
</g>
<!-- Node309 -->
<g id="Node000309" class="node">
<title>Node309</title>
<g id="a_Node000309"><a xlink:href="lstring_8c.html#ac9397504696e5cbc6c4cec7649c497ec" target="_top" xlink:title=" ">
<polygon fill="#fff0f0" stroke="red" points="456.25,-336.25 397.5,-336.25 397.5,-317 456.25,-317 456.25,-336.25"/>
<text xml:space="preserve" text-anchor="middle" x="426.88" y="-322.75" font-family="Helvetica,sans-Serif" font-size="10.00">luaS_new</text>
</a>
</g>
</g>
<!-- Node11&#45;&gt;Node309 -->
<g id="edge39_Node000011_Node000309" class="edge">
<title>Node11&#45;&gt;Node309</title>
<g id="a_edge39_Node000011_Node000309"><a xlink:title=" ">
<path fill="none" stroke="#63b8ff" d="M539.75,-251.08C511.56,-270.12 466.03,-300.86 442.7,-316.62"/>
<polygon fill="#63b8ff" stroke="#63b8ff" points="541.7,-253.99 548.03,-245.49 537.78,-248.19 541.7,-253.99"/>
</a>
</g>
</g>
<!-- Node649 -->
<g id="Node000649" class="node">
<title>Node649</title>
<g id="a_Node000649"><a xlink:href="lvm_8c.html#a2f076040af405dcb50d661edd692eca7" target="_top" xlink:title=" ">
<polygon fill="#fff0f0" stroke="red" points="461.88,-169.25 391.88,-169.25 391.88,-150 461.88,-150 461.88,-169.25"/>
<text xml:space="preserve" text-anchor="middle" x="426.88" y="-155.75" font-family="Helvetica,sans-Serif" font-size="10.00">luaV_concat</text>
</a>
</g>
</g>
<!-- Node11&#45;&gt;Node649 -->
<g id="edge49_Node000011_Node000649" class="edge">
<title>Node11&#45;&gt;Node649</title>
<g id="a_edge49_Node000011_Node000649"><a xlink:title=" ">
<path fill="none" stroke="#63b8ff" d="M541.74,-217.86C524.69,-205.61 500.3,-189.19 477.25,-177.62 471.46,-174.72 465.08,-172.04 458.89,-169.69"/>
<polygon fill="#63b8ff" stroke="#63b8ff" points="539.51,-220.56 549.65,-223.63 543.63,-214.91 539.51,-220.56"/>
</a>
</g>
</g>
<!-- Node655 -->
<g id="Node000655" class="node">
<title>Node655</title>
<g id="a_Node000655"><a xlink:href="lobject_8c.html#ae8b33b0604c4756ad7fa4e14316fa9d4" target="_top" xlink:title=" ">
<polygon fill="#fff0f0" stroke="red" points="316.88,-132.25 268.62,-132.25 268.62,-113 316.88,-113 316.88,-132.25"/>
<text xml:space="preserve" text-anchor="middle" x="292.75" y="-118.75" font-family="Helvetica,sans-Serif" font-size="10.00">pushstr</text>
</a>
</g>
</g>
<!-- Node11&#45;&gt;Node655 -->
<g id="edge53_Node000011_Node000655" class="edge">
<title>Node11&#45;&gt;Node655</title>
<g id="a_edge53_Node000011_Node000655"><a xlink:title=" ">
<path fill="none" stroke="#63b8ff" d="M552.35,-215C537.79,-192.72 510.77,-157.28 477.25,-140.62 424.79,-114.55 353.56,-116.56 317.21,-119.82"/>
<polygon fill="#63b8ff" stroke="#63b8ff" points="549.38,-216.86 557.67,-223.47 555.31,-213.14 549.38,-216.86"/>
</a>
</g>
</g>
<!-- Node621 -->
<g id="Node000621" class="node">
<title>Node621</title>
<g id="a_Node000621"><a xlink:href="llex_8c.html#a51ec8735f32a452d48a77e71e9dd0a3b" target="_top" xlink:title=" ">
<polygon fill="#fff0f0" stroke="red" points="468.25,-206.25 385.5,-206.25 385.5,-187 468.25,-187 468.25,-206.25"/>
<text xml:space="preserve" text-anchor="middle" x="426.88" y="-192.75" font-family="Helvetica,sans-Serif" font-size="10.00">luaX_newstring</text>
</a>
</g>
</g>
<!-- Node11&#45;&gt;Node621 -->
<g id="edge52_Node000011_Node000621" class="edge">
<title>Node11&#45;&gt;Node621</title>
<g id="a_edge52_Node000011_Node000621"><a xlink:title=" ">
<path fill="none" stroke="#63b8ff" d="M518.06,-221.78C500.45,-216.87 480.65,-211.34 464.09,-206.72"/>
<polygon fill="#63b8ff" stroke="#63b8ff" points="516.65,-225.02 527.22,-224.33 518.53,-218.28 516.65,-225.02"/>
</a>
</g>
</g>
<!-- Node13 -->
<g id="Node000013" class="node">
<title>Node13</title>
<g id="a_Node000013"><a xlink:href="lundump_8c.html#a121ddfe27d3762c4b5ed14bd3746af7a" target="_top" xlink:title=" ">
<polygon fill="white" stroke="#666666" points="324,-19.25 261.5,-19.25 261.5,0 324,0 324,-19.25"/>
<text xml:space="preserve" text-anchor="middle" x="292.75" y="-5.75" font-family="Helvetica,sans-Serif" font-size="10.00">loadDebug</text>
</a>
</g>
</g>
<!-- Node12&#45;&gt;Node13 -->
<g id="edge13_Node000012_Node000013" class="edge">
<title>Node12&#45;&gt;Node13</title>
<g id="a_edge13_Node000012_Node000013"><a xlink:title=" ">
<path fill="none" stroke="#63b8ff" d="M393.86,-50.91C377.91,-43.7 358.28,-35 340.5,-27.62 334.07,-24.96 327.1,-22.2 320.54,-19.67"/>
<polygon fill="#63b8ff" stroke="#63b8ff" points="392.32,-54.05 402.87,-55.01 395.22,-47.68 392.32,-54.05"/>
</a>
</g>
</g>
<!-- Node14 -->
<g id="Node000014" class="node">
<title>Node14</title>
<g id="a_Node000014"><a xlink:href="lundump_8c.html#a894435708ede05d12c7e81033dae380f" target="_top" xlink:title=" ">
<polygon fill="#fff0f0" stroke="red" points="199.62,-26.25 128.12,-26.25 128.12,-7 199.62,-7 199.62,-26.25"/>
<text xml:space="preserve" text-anchor="middle" x="163.88" y="-12.75" font-family="Helvetica,sans-Serif" font-size="10.00">loadFunction</text>
</a>
</g>
</g>
<!-- Node12&#45;&gt;Node14 -->
<g id="edge15_Node000012_Node000014" class="edge">
<title>Node12&#45;&gt;Node14</title>
<g id="a_edge15_Node000012_Node000014"><a xlink:title=" ">
<path fill="none" stroke="#63b8ff" d="M382.1,-73.4C344.64,-78.25 289.82,-81 245,-65.62 225.83,-59.05 226.25,-48.27 209,-37.62 202.5,-33.62 195.12,-29.83 188.28,-26.61"/>
<polygon fill="#63b8ff" stroke="#63b8ff" points="382.23,-76.92 391.65,-72.06 381.25,-69.99 382.23,-76.92"/>
</a>
</g>
</g>
<!-- Node24 -->
<g id="Node000024" class="node">
<title>Node24</title>
<g id="a_Node000024"><a xlink:href="lundump_8c.html#a883618a9a2104461096fb633c7df2f33" target="_top" xlink:title=" ">
<polygon fill="#fff0f0" stroke="red" points="322.5,-56.25 263,-56.25 263,-37 322.5,-37 322.5,-56.25"/>
<text xml:space="preserve" text-anchor="middle" x="292.75" y="-42.75" font-family="Helvetica,sans-Serif" font-size="10.00">loadString</text>
</a>
</g>
</g>
<!-- Node12&#45;&gt;Node24 -->
<g id="edge16_Node000012_Node000024" class="edge">
<title>Node12&#45;&gt;Node24</title>
<g id="a_edge16_Node000012_Node000024"><a xlink:title=" ">
<path fill="none" stroke="#63b8ff" d="M381.54,-59.25C362.16,-56.46 339.96,-53.27 322.74,-50.79"/>
<polygon fill="#63b8ff" stroke="#63b8ff" points="380.98,-62.7 391.38,-60.66 381.98,-55.78 380.98,-62.7"/>
</a>
</g>
</g>
<!-- Node13&#45;&gt;Node14 -->
<g id="edge14_Node000013_Node000014" class="edge">
<title>Node13&#45;&gt;Node14</title>
<g id="a_edge14_Node000013_Node000014"><a xlink:title=" ">
<path fill="none" stroke="#63b8ff" d="M249.7,-11.95C233.51,-12.84 215.22,-13.85 199.79,-14.7"/>
<polygon fill="#63b8ff" stroke="#63b8ff" points="249.73,-15.45 259.53,-11.4 249.35,-8.46 249.73,-15.45"/>
</a>
</g>
</g>
<!-- Node27 -->
<g id="Node000027" class="node">
<title>Node27</title>
<g id="a_Node000027"><a xlink:href="lauxlib_8c.html#a36c8f149b779f8c9a5c042ea9784d80a" target="_top" xlink:title=" ">
<polygon fill="#fff0f0" stroke="red" points="188.75,-216.25 139,-216.25 139,-197 188.75,-197 188.75,-216.25"/>
<text xml:space="preserve" text-anchor="middle" x="163.88" y="-202.75" font-family="Helvetica,sans-Serif" font-size="10.00">findfield</text>
</a>
</g>
</g>
<!-- Node26&#45;&gt;Node27 -->
<g id="edge18_Node000026_Node000027" class="edge">
<title>Node26&#45;&gt;Node27</title>
<g id="a_edge18_Node000026_Node000027"><a xlink:title=" ">
<path fill="none" stroke="#63b8ff" d="M254.01,-173.61C232.97,-181.4 207.4,-190.87 189.05,-197.67"/>
<polygon fill="#63b8ff" stroke="#63b8ff" points="254.95,-176.99 263.11,-170.23 252.52,-170.43 254.95,-176.99"/>
</a>
</g>
</g>
<!-- Node179 -->
<g id="Node000179" class="node">
<title>Node179</title>
<g id="a_Node000179"><a xlink:href="lcorolib_8c.html#a777abb20385a69ce4787f72bd90375a7" target="_top" xlink:title=" ">
<polygon fill="#fff0f0" stroke="red" points="202.62,-179.25 125.12,-179.25 125.12,-160 202.62,-160 202.62,-179.25"/>
<text xml:space="preserve" text-anchor="middle" x="163.88" y="-165.75" font-family="Helvetica,sans-Serif" font-size="10.00">luaB_auxwrap</text>
</a>
</g>
</g>
<!-- Node26&#45;&gt;Node179 -->
<g id="edge20_Node000026_Node000179" class="edge">
<title>Node26&#45;&gt;Node179</title>
<g id="a_edge20_Node000026_Node000179"><a xlink:title=" ">
<path fill="none" stroke="#63b8ff" d="M249.59,-162.95C234.48,-164.14 217.56,-165.47 202.84,-166.63"/>
<polygon fill="#63b8ff" stroke="#63b8ff" points="249.51,-166.47 259.2,-162.19 248.96,-159.49 249.51,-166.47"/>
</a>
</g>
</g>
<!-- Node75 -->
<g id="Node000075" class="node">
<title>Node75</title>
<g id="a_Node000075"><a xlink:href="lbaselib_8c.html#a2ecfa987569d0b4c1063f3e204e42dd2" target="_top" xlink:title=" ">
<polygon fill="#fff0f0" stroke="red" points="194,-103.25 133.75,-103.25 133.75,-84 194,-84 194,-103.25"/>
<text xml:space="preserve" text-anchor="middle" x="163.88" y="-89.75" font-family="Helvetica,sans-Serif" font-size="10.00">luaB_error</text>
</a>
</g>
</g>
<!-- Node26&#45;&gt;Node75 -->
<g id="edge21_Node000026_Node000075" class="edge">
<title>Node26&#45;&gt;Node75</title>
<g id="a_edge21_Node000026_Node000075"><a xlink:title=" ">
<path fill="none" stroke="#63b8ff" d="M252.29,-145.16C249.79,-144.02 247.35,-142.84 245,-141.62 227.92,-132.78 225.46,-127.56 209,-117.62 200.94,-112.76 191.82,-107.73 183.98,-103.53"/>
<polygon fill="#63b8ff" stroke="#63b8ff" points="250.67,-148.27 261.24,-148.97 253.41,-141.83 250.67,-148.27"/>
</a>
</g>
</g>
<!-- Node180 -->
<g id="Node000180" class="node">
<title>Node180</title>
<g id="a_Node000180"><a xlink:href="lauxlib_8c.html#a6c51d83d29244779392551388913e08a" target="_top" xlink:title=" ">
<polygon fill="#fff0f0" stroke="red" points="193.25,-66.25 134.5,-66.25 134.5,-47 193.25,-47 193.25,-66.25"/>
<text xml:space="preserve" text-anchor="middle" x="163.88" y="-52.75" font-family="Helvetica,sans-Serif" font-size="10.00">luaL_error</text>
</a>
</g>
</g>
<!-- Node26&#45;&gt;Node180 -->
<g id="edge22_Node000026_Node000180" class="edge">
<title>Node26&#45;&gt;Node180</title>
<g id="a_edge22_Node000026_Node000180"><a xlink:title=" ">
<path fill="none" stroke="#63b8ff" d="M251,-146.12C248.87,-144.76 246.86,-143.26 245,-141.62 219.64,-119.27 234.13,-97.23 209,-74.62 204.57,-70.64 199.14,-67.47 193.63,-64.98"/>
<polygon fill="#63b8ff" stroke="#63b8ff" points="248.99,-149.02 259.47,-150.6 252.26,-142.83 248.99,-149.02"/>
</a>
</g>
</g>
<!-- Node270 -->
<g id="Node000270" class="node">
<title>Node270</title>
<g id="a_Node000270"><a xlink:href="lua_8c.html#affef5a04b31963c2c3f5028518777e12" target="_top" xlink:title=" ">
<polygon fill="#fff0f0" stroke="red" points="67.38,-272.25 15.38,-272.25 15.38,-253 67.38,-253 67.38,-272.25"/>
<text xml:space="preserve" text-anchor="middle" x="41.38" y="-258.75" font-family="Helvetica,sans-Serif" font-size="10.00">multiline</text>
</a>
</g>
</g>
<!-- Node26&#45;&gt;Node270 -->
<g id="edge23_Node000026_Node000270" class="edge">
<title>Node26&#45;&gt;Node270</title>
<g id="a_edge23_Node000026_Node000270"><a xlink:title=" ">
<path fill="none" stroke="#63b8ff" d="M252.08,-146.52C215.31,-136.83 160.2,-128.72 118.75,-150.62 76.72,-172.84 53.46,-229.73 45.53,-252.74"/>
<polygon fill="#63b8ff" stroke="#63b8ff" points="250.84,-149.81 261.41,-149.14 252.73,-143.07 250.84,-149.81"/>
</a>
</g>
</g>
<!-- Node27&#45;&gt;Node27 -->
<g id="edge19_Node000027_Node000027" class="edge">
<title>Node27&#45;&gt;Node27</title>
<g id="a_edge19_Node000027_Node000027"><a xlink:title=" ">
<path fill="none" stroke="#63b8ff" d="M185.62,-227.65C182.9,-231.53 175.65,-234.25 163.88,-234.25 142.34,-234.25 135.95,-225.15 144.7,-216.54"/>
<polygon fill="#63b8ff" stroke="#63b8ff" points="189.05,-226.97 183.39,-218.01 182.23,-228.54 189.05,-226.97"/>
</a>
</g>
</g>
<!-- Node34 -->
<g id="Node000034" class="node">
<title>Node34</title>
<g id="a_Node000034"><a xlink:href="ldblib_8c.html#a4eb57e66c2efb2d31c9b9e1b01d27e13" target="_top" xlink:title=" ">
<polygon fill="white" stroke="#666666" points="194.38,-646.25 133.38,-646.25 133.38,-627 194.38,-627 194.38,-646.25"/>
<text xml:space="preserve" text-anchor="middle" x="163.88" y="-632.75" font-family="Helvetica,sans-Serif" font-size="10.00">db_getinfo</text>
</a>
</g>
</g>
<!-- Node299&#45;&gt;Node34 -->
<g id="edge25_Node000299_Node000034" class="edge">
<title>Node299&#45;&gt;Node34</title>
<g id="a_edge25_Node000299_Node000034"><a xlink:title=" ">
<path fill="none" stroke="#63b8ff" d="M283.14,-512.92C270.56,-540.36 244.72,-589.23 209,-618.62 204.78,-622.09 199.81,-624.97 194.75,-627.33"/>
<polygon fill="#63b8ff" stroke="#63b8ff" points="286.25,-514.54 287.09,-503.98 279.85,-511.71 286.25,-514.54"/>
</a>
</g>
</g>
<!-- Node241 -->
<g id="Node000241" class="node">
<title>Node241</title>
<g id="a_Node000241"><a xlink:href="loadlib_8c.html#a91ac5b5231cf039af46226806dcc3884" target="_top" xlink:title=" ">
<polygon fill="#fff0f0" stroke="red" points="190.25,-385.25 137.5,-385.25 137.5,-366 190.25,-366 190.25,-385.25"/>
<text xml:space="preserve" text-anchor="middle" x="163.88" y="-371.75" font-family="Helvetica,sans-Serif" font-size="10.00">loadfunc</text>
</a>
</g>
</g>
<!-- Node299&#45;&gt;Node241 -->
<g id="edge26_Node000299_Node000241" class="edge">
<title>Node299&#45;&gt;Node241</title>
<g id="a_edge26_Node000299_Node000241"><a xlink:title=" ">
<path fill="none" stroke="#63b8ff" d="M247.35,-476.64C246.54,-475.99 245.75,-475.32 245,-474.62 217.83,-449.55 234.47,-426.42 209,-399.62 203.59,-393.94 196.53,-389.28 189.65,-385.64"/>
<polygon fill="#63b8ff" stroke="#63b8ff" points="245.21,-479.43 255.53,-481.83 248.96,-473.52 245.21,-479.43"/>
</a>
</g>
</g>
<!-- Node207 -->
<g id="Node000207" class="node">
<title>Node207</title>
<g id="a_Node000207"><a xlink:href="loadlib_8c.html#a1ec05cd98a045c271aeda9f9c6041e1c" target="_top" xlink:title=" ">
<polygon fill="#fff0f0" stroke="red" points="82.75,-385.25 0,-385.25 0,-366 82.75,-366 82.75,-385.25"/>
<text xml:space="preserve" text-anchor="middle" x="41.38" y="-371.75" font-family="Helvetica,sans-Serif" font-size="10.00">searcher_Croot</text>
</a>
</g>
</g>
<!-- Node299&#45;&gt;Node207 -->
<g id="edge33_Node000299_Node000207" class="edge">
<title>Node299&#45;&gt;Node207</title>
<g id="a_edge33_Node000299_Node000207"><a xlink:title=" ">
<path fill="none" stroke="#63b8ff" d="M249.29,-477.41C247.81,-476.52 246.38,-475.6 245,-474.62 224.92,-460.44 229.35,-446.42 209,-432.62 187.49,-418.04 121.07,-397.69 78.87,-385.66"/>
<polygon fill="#63b8ff" stroke="#63b8ff" points="247.64,-480.5 258.14,-481.95 250.84,-474.27 247.64,-480.5"/>
</a>
</g>
</g>
<!-- Node300 -->
<g id="Node000300" class="node">
<title>Node300</title>
<g id="a_Node000300"><a xlink:href="lauxlib_8c.html#a3a1f80033814e2057583a7d24cee23b4" target="_top" xlink:title=" ">
<polygon fill="#fff0f0" stroke="red" points="206,-609.25 121.75,-609.25 121.75,-590 206,-590 206,-609.25"/>
<text xml:space="preserve" text-anchor="middle" x="163.88" y="-595.75" font-family="Helvetica,sans-Serif" font-size="10.00">luaL_pushresult</text>
</a>
</g>
</g>
<!-- Node299&#45;&gt;Node300 -->
<g id="edge28_Node000299_Node000300" class="edge">
<title>Node299&#45;&gt;Node300</title>
<g id="a_edge28_Node000299_Node000300"><a xlink:title=" ">
<path fill="none" stroke="#63b8ff" d="M278.03,-511.72C262.99,-531.47 237.23,-562.12 209,-581.62 204.64,-584.63 199.71,-587.26 194.75,-589.52"/>
<polygon fill="#63b8ff" stroke="#63b8ff" points="280.82,-513.83 283.97,-503.71 275.2,-509.66 280.82,-513.83"/>
</a>
</g>
</g>
<!-- Node304 -->
<g id="Node000304" class="node">
<title>Node304</title>
<g id="a_Node000304"><a xlink:href="lutf8lib_8c.html#ae1247f71bc4b3f3be7da9c9d5c7668b1" target="_top" xlink:title=" ">
<polygon fill="#fff0f0" stroke="red" points="199.62,-572.25 128.12,-572.25 128.12,-553 199.62,-553 199.62,-572.25"/>
<text xml:space="preserve" text-anchor="middle" x="163.88" y="-558.75" font-family="Helvetica,sans-Serif" font-size="10.00">luaopen_utf8</text>
</a>
</g>
</g>
<!-- Node299&#45;&gt;Node304 -->
<g id="edge29_Node000299_Node000304" class="edge">
<title>Node299&#45;&gt;Node304</title>
<g id="a_edge29_Node000299_Node000304"><a xlink:title=" ">
<path fill="none" stroke="#63b8ff" d="M268.3,-508.9C252.08,-519.77 229.75,-533.97 209,-544.62 203.55,-547.42 197.57,-550.1 191.81,-552.51"/>
<polygon fill="#63b8ff" stroke="#63b8ff" points="269.99,-511.98 276.3,-503.47 266.06,-506.19 269.99,-511.98"/>
</a>
</g>
</g>
<!-- Node217 -->
<g id="Node000217" class="node">
<title>Node217</title>
<g id="a_Node000217"><a xlink:href="lstrlib_8c.html#a24a14b4e6e90bac4610dd334bb0b51b6" target="_top" xlink:title=" ">
<polygon fill="#fff0f0" stroke="red" points="209,-535.25 118.75,-535.25 118.75,-516 209,-516 209,-535.25"/>
<text xml:space="preserve" text-anchor="middle" x="163.88" y="-521.75" font-family="Helvetica,sans-Serif" font-size="10.00">push_onecapture</text>
</a>
</g>
</g>
<!-- Node299&#45;&gt;Node217 -->
<g id="edge30_Node000299_Node000217" class="edge">
<title>Node299&#45;&gt;Node217</title>
<g id="a_edge30_Node000299_Node000217"><a xlink:title=" ">
<path fill="none" stroke="#63b8ff" d="M241.98,-505.57C229.16,-508.91 215.55,-512.44 203.39,-515.61"/>
<polygon fill="#63b8ff" stroke="#63b8ff" points="242.73,-508.99 251.53,-503.09 240.97,-502.22 242.73,-508.99"/>
</a>
</g>
</g>
<!-- Node268 -->
<g id="Node000268" class="node">
<title>Node268</title>
<g id="a_Node000268"><a xlink:href="lua_8c.html#a83a7cb21b34095ca93f2a2a863f58fda" target="_top" xlink:title=" ">
<polygon fill="#fff0f0" stroke="red" points="189.88,-348.25 137.88,-348.25 137.88,-329 189.88,-329 189.88,-348.25"/>
<text xml:space="preserve" text-anchor="middle" x="163.88" y="-334.75" font-family="Helvetica,sans-Serif" font-size="10.00">pushline</text>
</a>
</g>
</g>
<!-- Node299&#45;&gt;Node268 -->
<g id="edge31_Node000299_Node000268" class="edge">
<title>Node299&#45;&gt;Node268</title>
<g id="a_edge31_Node000299_Node000268"><a xlink:title=" ">
<path fill="none" stroke="#63b8ff" d="M246.14,-475.79C245.75,-475.41 245.37,-475.02 245,-474.62 207.64,-434.49 245.96,-397.12 209,-356.62 203.98,-351.13 197.04,-347.27 190.14,-344.58"/>
<polygon fill="#63b8ff" stroke="#63b8ff" points="244.06,-478.61 254.19,-481.7 248.2,-472.96 244.06,-478.61"/>
</a>
</g>
</g>
<!-- Node73 -->
<g id="Node000073" class="node">
<title>Node73</title>
<g id="a_Node000073"><a xlink:href="lstrlib_8c.html#a039b391d5f43533a0ce750c5e40d7752" target="_top" xlink:title=" ">
<polygon fill="white" stroke="#666666" points="188,-498.25 139.75,-498.25 139.75,-479 188,-479 188,-498.25"/>
<text xml:space="preserve" text-anchor="middle" x="163.88" y="-484.75" font-family="Helvetica,sans-Serif" font-size="10.00">str_sub</text>
</a>
</g>
</g>
<!-- Node299&#45;&gt;Node73 -->
<g id="edge34_Node000299_Node000073" class="edge">
<title>Node299&#45;&gt;Node73</title>
<g id="a_edge34_Node000299_Node000073"><a xlink:title=" ">
<path fill="none" stroke="#63b8ff" d="M240.61,-491.01C222.48,-490.44 202.96,-489.83 188.28,-489.36"/>
<polygon fill="#63b8ff" stroke="#63b8ff" points="240.34,-494.51 250.44,-491.32 240.56,-487.51 240.34,-494.51"/>
</a>
</g>
</g>
<!-- Node47 -->
<g id="Node000047" class="node">
<title>Node47</title>
<g id="a_Node000047"><a xlink:href="lstrlib_8c.html#a3f3c1925e7829cbe972a744fa9168ec3" target="_top" xlink:title=" ">
<polygon fill="white" stroke="#666666" points="195.88,-461.25 131.88,-461.25 131.88,-442 195.88,-442 195.88,-461.25"/>
<text xml:space="preserve" text-anchor="middle" x="163.88" y="-447.75" font-family="Helvetica,sans-Serif" font-size="10.00">str_unpack</text>
</a>
</g>
</g>
<!-- Node299&#45;&gt;Node47 -->
<g id="edge35_Node000299_Node000047" class="edge">
<title>Node299&#45;&gt;Node47</title>
<g id="a_edge35_Node000299_Node000047"><a xlink:title=" ">
<path fill="none" stroke="#63b8ff" d="M250.13,-479.18C232.51,-473.48 212.33,-466.96 196.03,-461.69"/>
<polygon fill="#63b8ff" stroke="#63b8ff" points="248.68,-482.39 259.27,-482.13 250.83,-475.72 248.68,-482.39"/>
</a>
</g>
</g>
<!-- Node241&#45;&gt;Node207 -->
<g id="edge27_Node000241_Node000207" class="edge">
<title>Node241&#45;&gt;Node207</title>
<g id="a_edge27_Node000241_Node000207"><a xlink:title=" ">
<path fill="none" stroke="#63b8ff" d="M125.67,-375.62C112.11,-375.62 96.71,-375.62 82.88,-375.62"/>
<polygon fill="#63b8ff" stroke="#63b8ff" points="125.51,-379.13 135.51,-375.63 125.51,-372.13 125.51,-379.13"/>
</a>
</g>
</g>
<!-- Node268&#45;&gt;Node270 -->
<g id="edge32_Node000268_Node000270" class="edge">
<title>Node268&#45;&gt;Node270</title>
<g id="a_edge32_Node000268_Node000270"><a xlink:title=" ">
<path fill="none" stroke="#63b8ff" d="M137.61,-322.69C113.64,-307.57 78.34,-285.31 58.13,-272.56"/>
<polygon fill="#63b8ff" stroke="#63b8ff" points="135.52,-325.51 145.84,-327.88 139.25,-319.59 135.52,-325.51"/>
</a>
</g>
</g>
<!-- Node306 -->
<g id="Node000306" class="node">
<title>Node306</title>
<g id="a_Node000306"><a xlink:href="lapi_8c.html#a5fbc943e3486fad9672f9a74d7cb49b4" target="_top" xlink:title=" ">
<polygon fill="#fff0f0" stroke="red" points="327,-206.25 258.5,-206.25 258.5,-187 327,-187 327,-206.25"/>
<text xml:space="preserve" text-anchor="middle" x="292.75" y="-192.75" font-family="Helvetica,sans-Serif" font-size="10.00">lua_tolstring</text>
</a>
</g>
</g>
<!-- Node305&#45;&gt;Node306 -->
<g id="edge37_Node000305_Node000306" class="edge">
<title>Node305&#45;&gt;Node306</title>
<g id="a_edge37_Node000305_Node000306"><a xlink:title=" ">
<path fill="none" stroke="#63b8ff" d="M391.17,-257.43C386.1,-254.74 381.06,-251.78 376.5,-248.62 358.39,-236.11 359.12,-226.36 340.5,-214.62 335.64,-211.57 330.18,-208.89 324.75,-206.6"/>
<polygon fill="#63b8ff" stroke="#63b8ff" points="389.58,-260.55 400.09,-261.88 392.7,-254.28 389.58,-260.55"/>
</a>
</g>
</g>
<!-- Node306&#45;&gt;Node270 -->
<g id="edge38_Node000306_Node000270" class="edge">
<title>Node306&#45;&gt;Node270</title>
<g id="a_edge38_Node000306_Node000270"><a xlink:title=" ">
<path fill="none" stroke="#63b8ff" d="M250.97,-211.43C248.92,-212.45 246.92,-213.52 245,-214.62 227.2,-224.88 227.96,-235.7 209,-243.62 161.99,-263.27 101.39,-264.94 67.74,-264.02"/>
<polygon fill="#63b8ff" stroke="#63b8ff" points="252.38,-214.64 260.05,-207.33 249.5,-208.26 252.38,-214.64"/>
</a>
</g>
</g>
<!-- Node309&#45;&gt;Node299 -->
<g id="edge42_Node000309_Node000299" class="edge">
<title>Node309&#45;&gt;Node299</title>
<g id="a_edge42_Node000309_Node000299"><a xlink:title=" ">
<path fill="none" stroke="#63b8ff" d="M387.4,-341.15C383.34,-343.84 379.58,-346.98 376.5,-350.62 339.51,-394.5 379.32,-432.36 340.5,-474.62 337.56,-477.83 333.98,-480.47 330.13,-482.64"/>
<polygon fill="#63b8ff" stroke="#63b8ff" points="388.88,-344.33 395.91,-336.4 385.47,-338.21 388.88,-344.33"/>
</a>
</g>
</g>
<!-- Node310 -->
<g id="Node000310" class="node">
<title>Node310</title>
<g id="a_Node000310"><a xlink:href="lapi_8c.html#a1b5746598f4bc03f763853ebe914f75f" target="_top" xlink:title=" ">
<polygon fill="#fff0f0" stroke="red" points="321,-465.25 264.5,-465.25 264.5,-446 321,-446 321,-465.25"/>
<text xml:space="preserve" text-anchor="middle" x="292.75" y="-451.75" font-family="Helvetica,sans-Serif" font-size="10.00">auxgetstr</text>
</a>
</g>
</g>
<!-- Node309&#45;&gt;Node310 -->
<g id="edge40_Node000309_Node000310" class="edge">
<title>Node309&#45;&gt;Node310</title>
<g id="a_edge40_Node000309_Node000310"><a xlink:title=" ">
<path fill="none" stroke="#63b8ff" d="M387.16,-341.88C383.27,-344.42 379.61,-347.32 376.5,-350.62 347.81,-381.09 370.45,-408.4 340.5,-437.62 335.15,-442.85 328.11,-446.59 321.13,-449.26"/>
<polygon fill="#63b8ff" stroke="#63b8ff" points="388.82,-344.97 395.84,-337.04 385.4,-338.86 388.82,-344.97"/>
</a>
</g>
</g>
<!-- Node328 -->
<g id="Node000328" class="node">
<title>Node328</title>
<g id="a_Node000328"><a xlink:href="lapi_8c.html#a0667fbf88666853554967226d9a3df4d" target="_top" xlink:title=" ">
<polygon fill="#fff0f0" stroke="red" points="321,-428.25 264.5,-428.25 264.5,-409 321,-409 321,-428.25"/>
<text xml:space="preserve" text-anchor="middle" x="292.75" y="-414.75" font-family="Helvetica,sans-Serif" font-size="10.00">auxsetstr</text>
</a>
</g>
</g>
<!-- Node309&#45;&gt;Node328 -->
<g id="edge41_Node000309_Node000328" class="edge">
<title>Node309&#45;&gt;Node328</title>
<g id="a_edge41_Node000309_Node000328"><a xlink:title=" ">
<path fill="none" stroke="#63b8ff" d="M389.16,-341.89C384.68,-344.48 380.34,-347.4 376.5,-350.62 355.55,-368.26 362.18,-383.9 340.5,-400.62 334.85,-404.98 328.03,-408.39 321.36,-411.02"/>
<polygon fill="#63b8ff" stroke="#63b8ff" points="390.47,-345.16 397.71,-337.42 387.23,-338.95 390.47,-345.16"/>
</a>
</g>
</g>
<!-- Node340 -->
<g id="Node000340" class="node">
<title>Node340</title>
<g id="a_Node000340"><a xlink:href="lapi_8c.html#a6dd1a745d08c2dd96916ff0f2f1ca9ad" target="_top" xlink:title=" ">
<polygon fill="#fff0f0" stroke="red" points="332.25,-243.25 253.25,-243.25 253.25,-224 332.25,-224 332.25,-243.25"/>
<text xml:space="preserve" text-anchor="middle" x="292.75" y="-229.75" font-family="Helvetica,sans-Serif" font-size="10.00">lua_pushstring</text>
</a>
</g>
</g>
<!-- Node309&#45;&gt;Node340 -->
<g id="edge43_Node000309_Node000340" class="edge">
<title>Node309&#45;&gt;Node340</title>
<g id="a_edge43_Node000309_Node000340"><a xlink:title=" ">
<path fill="none" stroke="#63b8ff" d="M400.77,-310.43C392.73,-304.83 383.98,-298.28 376.5,-291.62 358.63,-275.72 360.2,-265.18 340.5,-251.62 336.06,-248.57 331.03,-245.94 325.95,-243.7"/>
<polygon fill="#63b8ff" stroke="#63b8ff" points="398.59,-313.18 408.83,-315.88 402.51,-307.38 398.59,-313.18"/>
</a>
</g>
</g>
<!-- Node359 -->
<g id="Node000359" class="node">
<title>Node359</title>
<g id="a_Node000359"><a xlink:href="ltm_8c.html#af0ec8a91a71f8e0fdcc4affdc1f57b3d" target="_top" xlink:title=" ">
<polygon fill="#fff0f0" stroke="red" points="319.12,-391.25 266.38,-391.25 266.38,-372 319.12,-372 319.12,-391.25"/>
<text xml:space="preserve" text-anchor="middle" x="292.75" y="-377.75" font-family="Helvetica,sans-Serif" font-size="10.00">luaT_init</text>
</a>
</g>
</g>
<!-- Node309&#45;&gt;Node359 -->
<g id="edge45_Node000309_Node000359" class="edge">
<title>Node309&#45;&gt;Node359</title>
<g id="a_edge45_Node000309_Node000359"><a xlink:title=" ">
<path fill="none" stroke="#63b8ff" d="M393.17,-341.18C377.33,-348.13 357.99,-356.47 340.5,-363.62 333.74,-366.39 326.38,-369.28 319.55,-371.91"/>
<polygon fill="#63b8ff" stroke="#63b8ff" points="394.39,-344.46 402.13,-337.23 391.57,-338.06 394.39,-344.46"/>
</a>
</g>
</g>
<!-- Node364 -->
<g id="Node000364" class="node">
<title>Node364</title>
<g id="a_Node000364"><a xlink:href="ltm_8c.html#af2d87694e75cf07977250efb1d85d497" target="_top" xlink:title=" ">
<polygon fill="#fff0f0" stroke="red" points="340.5,-354.25 245,-354.25 245,-335 340.5,-335 340.5,-354.25"/>
<text xml:space="preserve" text-anchor="middle" x="292.75" y="-340.75" font-family="Helvetica,sans-Serif" font-size="10.00">luaT_objtypename</text>
</a>
</g>
</g>
<!-- Node309&#45;&gt;Node364 -->
<g id="edge46_Node000309_Node000364" class="edge">
<title>Node309&#45;&gt;Node364</title>
<g id="a_edge46_Node000309_Node000364"><a xlink:title=" ">
<path fill="none" stroke="#63b8ff" d="M385.81,-332.08C371.62,-334.02 355.52,-336.21 340.8,-338.21"/>
<polygon fill="#63b8ff" stroke="#63b8ff" points="386.27,-335.55 395.71,-330.74 385.33,-328.62 386.27,-335.55"/>
</a>
</g>
</g>
<!-- Node694 -->
<g id="Node000694" class="node">
<title>Node694</title>
<g id="a_Node000694"><a xlink:href="llex_8c.html#a50834f7eb4b2ac79c8df048988749abe" target="_top" xlink:title=" ">
<polygon fill="#fff0f0" stroke="red" points="319.5,-317.25 266,-317.25 266,-298 319.5,-298 319.5,-317.25"/>
<text xml:space="preserve" text-anchor="middle" x="292.75" y="-303.75" font-family="Helvetica,sans-Serif" font-size="10.00">luaX_init</text>
</a>
</g>
</g>
<!-- Node309&#45;&gt;Node694 -->
<g id="edge47_Node000309_Node000694" class="edge">
<title>Node309&#45;&gt;Node694</title>
<g id="a_edge47_Node000309_Node000694"><a xlink:title=" ">
<path fill="none" stroke="#63b8ff" d="M386.1,-320.9C364.57,-317.81 338.59,-314.07 319.68,-311.35"/>
<polygon fill="#63b8ff" stroke="#63b8ff" points="385.31,-324.33 395.71,-322.29 386.31,-317.4 385.31,-324.33"/>
</a>
</g>
</g>
<!-- Node476 -->
<g id="Node000476" class="node">
<title>Node476</title>
<g id="a_Node000476"><a xlink:href="lparser_8c.html#abbb1e5661495c9268282e55b387a819a" target="_top" xlink:title=" ">
<polygon fill="#fff0f0" stroke="red" points="326.62,-280.25 258.88,-280.25 258.88,-261 326.62,-261 326.62,-280.25"/>
<text xml:space="preserve" text-anchor="middle" x="292.75" y="-266.75" font-family="Helvetica,sans-Serif" font-size="10.00">luaY_parser</text>
</a>
</g>
</g>
<!-- Node309&#45;&gt;Node476 -->
<g id="edge48_Node000309_Node000476" class="edge">
<title>Node309&#45;&gt;Node476</title>
<g id="a_edge48_Node000309_Node000476"><a xlink:title=" ">
<path fill="none" stroke="#63b8ff" d="M393.86,-311.91C377.91,-304.7 358.28,-296 340.5,-288.62 334.07,-285.96 327.1,-283.2 320.54,-280.67"/>
<polygon fill="#63b8ff" stroke="#63b8ff" points="392.32,-315.05 402.87,-316.01 395.22,-308.68 392.32,-315.05"/>
</a>
</g>
</g>
<!-- Node340&#45;&gt;Node207 -->
<g id="edge44_Node000340_Node000207" class="edge">
<title>Node340&#45;&gt;Node207</title>
<g id="a_edge44_Node000340_Node000207"><a xlink:title=" ">
<path fill="none" stroke="#63b8ff" d="M253.43,-247.92C250.56,-249.13 247.72,-250.37 245,-251.62 187.09,-278.24 172.63,-285.59 118.75,-319.62 95.4,-334.38 69.8,-353.88 54.97,-365.55"/>
<polygon fill="#63b8ff" stroke="#63b8ff" points="254.46,-251.28 262.42,-244.28 251.84,-244.79 254.46,-251.28"/>
</a>
</g>
</g>
<!-- Node649&#45;&gt;Node26 -->
<g id="edge50_Node000649_Node000026" class="edge">
<title>Node649&#45;&gt;Node26</title>
<g id="a_edge50_Node000649_Node000026"><a xlink:title=" ">
<path fill="none" stroke="#63b8ff" d="M380.18,-159.62C361.89,-159.62 341.29,-159.62 324.79,-159.62"/>
<polygon fill="#63b8ff" stroke="#63b8ff" points="379.99,-163.13 389.99,-159.63 379.99,-156.13 379.99,-163.13"/>
</a>
</g>
</g>
<!-- Node649&#45;&gt;Node655 -->
<g id="edge51_Node000649_Node000655" class="edge">
<title>Node649&#45;&gt;Node655</title>
<g id="a_edge51_Node000649_Node000655"><a xlink:title=" ">
<path fill="none" stroke="#63b8ff" d="M380.68,-146.97C359.31,-140.99 334.7,-134.09 317.13,-129.17"/>
<polygon fill="#63b8ff" stroke="#63b8ff" points="379.47,-150.27 390.05,-149.59 381.36,-143.53 379.47,-150.27"/>
</a>
</g>
</g>
<!-- Node383 -->
<g id="Node000383" class="node">
<title>Node383</title>
<g id="a_Node000383"><a xlink:href="lmem_8c.html#af0c92d038f767832eb8dd29eb0678096" target="_top" xlink:title=" ">
<polygon fill="white" stroke="#666666" points="729,-375.25 653,-375.25 653,-356 729,-356 729,-375.25"/>
<text xml:space="preserve" text-anchor="middle" x="691" y="-361.75" font-family="Helvetica,sans-Serif" font-size="10.00">luaM_malloc_</text>
</a>
</g>
</g>
<!-- Node382&#45;&gt;Node383 -->
<g id="edge56_Node000382_Node000383" class="edge">
<title>Node382&#45;&gt;Node383</title>
<g id="a_edge56_Node000382_Node000383"><a xlink:title=" ">
<path fill="none" stroke="#63b8ff" d="M759.01,-376.7C749.4,-375.11 738.99,-373.39 729.31,-371.79"/>
<polygon fill="#63b8ff" stroke="#63b8ff" points="758.3,-380.13 768.74,-378.31 759.45,-373.22 758.3,-380.13"/>
</a>
</g>
</g>
<!-- Node379 -->
<g id="Node000379" class="node">
<title>Node379</title>
<g id="a_Node000379"><a xlink:href="lmem_8c.html#a7dd4e9ddf6987797216fa9cf4bc23954" target="_top" xlink:title=" ">
<polygon fill="white" stroke="#666666" points="729,-412.25 653,-412.25 653,-393 729,-393 729,-412.25"/>
<text xml:space="preserve" text-anchor="middle" x="691" y="-398.75" font-family="Helvetica,sans-Serif" font-size="10.00">luaM_realloc_</text>
</a>
</g>
</g>
<!-- Node382&#45;&gt;Node379 -->
<g id="edge57_Node000382_Node000379" class="edge">
<title>Node382&#45;&gt;Node379</title>
<g id="a_edge57_Node000382_Node000379"><a xlink:title=" ">
<path fill="none" stroke="#63b8ff" d="M759.01,-389.6C749.4,-391.47 738.99,-393.49 729.31,-395.37"/>
<polygon fill="#63b8ff" stroke="#63b8ff" points="759.6,-393.05 768.75,-387.7 758.26,-386.18 759.6,-393.05"/>
</a>
</g>
</g>
<!-- Node380 -->
<g id="Node000380" class="node">
<title>Node380</title>
<g id="a_Node000380"><a xlink:href="lmem_8c.html#a8cb94bca57e8ae6aff344d3e6e4593af" target="_top" xlink:title=" ">
<polygon fill="white" stroke="#666666" points="612.5,-412.25 517.75,-412.25 517.75,-393 612.5,-393 612.5,-412.25"/>
<text xml:space="preserve" text-anchor="middle" x="565.12" y="-398.75" font-family="Helvetica,sans-Serif" font-size="10.00">luaM_saferealloc_</text>
</a>
</g>
</g>
<!-- Node379&#45;&gt;Node380 -->
<g id="edge58_Node000379_Node000380" class="edge">
<title>Node379&#45;&gt;Node380</title>
<g id="a_edge58_Node000379_Node000380"><a xlink:title=" ">
<path fill="none" stroke="#63b8ff" d="M641.61,-402.62C632.18,-402.62 622.31,-402.62 612.93,-402.62"/>
<polygon fill="#63b8ff" stroke="#63b8ff" points="641.32,-406.13 651.32,-402.63 641.32,-399.13 641.32,-406.13"/>
</a>
</g>
</g>
<!-- Node378 -->
<g id="Node000378" class="node">
<title>Node378</title>
<g id="a_Node000378"><a xlink:href="lmem_8c.html#a1c0358fd91c39b2040eebb75ed4c14e5" target="_top" xlink:title=" ">
<polygon fill="white" stroke="#666666" points="469,-412.25 384.75,-412.25 384.75,-393 469,-393 469,-412.25"/>
<text xml:space="preserve" text-anchor="middle" x="426.88" y="-398.75" font-family="Helvetica,sans-Serif" font-size="10.00">luaM_growaux_</text>
</a>
</g>
</g>
<!-- Node380&#45;&gt;Node378 -->
<g id="edge59_Node000380_Node000378" class="edge">
<title>Node380&#45;&gt;Node378</title>
<g id="a_edge59_Node000380_Node000378"><a xlink:title=" ">
<path fill="none" stroke="#63b8ff" d="M506.33,-402.62C493.83,-402.62 480.86,-402.62 469.16,-402.62"/>
<polygon fill="#63b8ff" stroke="#63b8ff" points="506.1,-406.13 516.1,-402.63 506.1,-399.13 506.1,-406.13"/>
</a>
</g>
</g>
<!-- Node381 -->
<g id="Node000381" class="node">
<title>Node381</title>
<g id="a_Node000381"><a xlink:href="lmem_8c.html#a7fe3cdb7f4720a11dc0054167d2be20b" target="_top" xlink:title=" ">
<polygon fill="white" stroke="#666666" points="477.25,-449.25 376.5,-449.25 376.5,-430 477.25,-430 477.25,-449.25"/>
<text xml:space="preserve" text-anchor="middle" x="426.88" y="-435.75" font-family="Helvetica,sans-Serif" font-size="10.00">luaM_shrinkvector_</text>
</a>
</g>
</g>
<!-- Node380&#45;&gt;Node381 -->
<g id="edge60_Node000380_Node000381" class="edge">
<title>Node380&#45;&gt;Node381</title>
<g id="a_edge60_Node000380_Node000381"><a xlink:title=" ">
<path fill="none" stroke="#63b8ff" d="M516.18,-415.65C499.4,-420.2 480.83,-425.25 465.06,-429.53"/>
<polygon fill="#63b8ff" stroke="#63b8ff" points="516.7,-419.13 525.43,-413.13 514.87,-412.38 516.7,-419.13"/>
</a>
</g>
</g>
</g>
</svg>
