<?xml version="1.0" encoding="UTF-8" standalone="no"?>
<!DOCTYPE svg PUBLIC "-//W3C//DTD SVG 1.1//EN"
 "http://www.w3.org/Graphics/SVG/1.1/DTD/svg11.dtd">
<!-- Generated by graphviz version 13.1.0 (20250701.0955)
 -->
<!-- Title: enterinc Pages: 1 -->
<svg width="1111pt" height="749pt"
 viewBox="0.00 0.00 1111.00 749.00" xmlns="http://www.w3.org/2000/svg" xmlns:xlink="http://www.w3.org/1999/xlink">
<g id="graph0" class="graph" transform="scale(1 1) rotate(0) translate(4 745.25)">
<title>enterinc</title>
<!-- Node1 -->
<g id="Node000001" class="node">
<title>Node1</title>
<g id="a_Node000001"><a xlink:title=" ">
<polygon fill="#999999" stroke="#666666" points="1102.5,-282.25 1052,-282.25 1052,-263 1102.5,-263 1102.5,-282.25"/>
<text xml:space="preserve" text-anchor="middle" x="1077.25" y="-268.75" font-family="Helvetica,sans-Serif" font-size="10.00">enterinc</text>
</a>
</g>
</g>
<!-- Node2 -->
<g id="Node000002" class="node">
<title>Node2</title>
<g id="a_Node000002"><a xlink:href="lgc_8c.html#a270a46ab08adc0bb728eeb67b5cc45a9" target="_top" xlink:title=" ">
<polygon fill="white" stroke="#666666" points="989.75,-319.25 945.25,-319.25 945.25,-300 989.75,-300 989.75,-319.25"/>
<text xml:space="preserve" text-anchor="middle" x="967.5" y="-305.75" font-family="Helvetica,sans-Serif" font-size="10.00">fullgen</text>
</a>
</g>
</g>
<!-- Node1&#45;&gt;Node2 -->
<g id="edge1_Node000001_Node000002" class="edge">
<title>Node1&#45;&gt;Node2</title>
<g id="a_edge1_Node000001_Node000002"><a xlink:title=" ">
<path fill="none" stroke="#63b8ff" d="M1040.99,-284.73C1024.24,-290.49 1004.74,-297.18 990.19,-302.18"/>
<polygon fill="#63b8ff" stroke="#63b8ff" points="1041.78,-288.16 1050.1,-281.61 1039.5,-281.54 1041.78,-288.16"/>
</a>
</g>
</g>
<!-- Node416 -->
<g id="Node000416" class="node">
<title>Node416</title>
<g id="a_Node000416"><a xlink:href="lgc_8c.html#ac88d5c236307393937e02bc82c10f970" target="_top" xlink:title=" ">
<polygon fill="white" stroke="#666666" points="1016,-245.25 919,-245.25 919,-226 1016,-226 1016,-245.25"/>
<text xml:space="preserve" text-anchor="middle" x="967.5" y="-231.75" font-family="Helvetica,sans-Serif" font-size="10.00">luaC_changemode</text>
</a>
</g>
</g>
<!-- Node1&#45;&gt;Node416 -->
<g id="edge44_Node000001_Node000416" class="edge">
<title>Node1&#45;&gt;Node416</title>
<g id="a_edge44_Node000001_Node000416"><a xlink:title=" ">
<path fill="none" stroke="#63b8ff" d="M1040.81,-260.46C1026.84,-255.66 1010.99,-250.21 997.69,-245.65"/>
<polygon fill="#63b8ff" stroke="#63b8ff" points="1039.5,-263.71 1050.1,-263.64 1041.78,-257.09 1039.5,-263.71"/>
</a>
</g>
</g>
<!-- Node418 -->
<g id="Node000418" class="node">
<title>Node418</title>
<g id="a_Node000418"><a xlink:href="lgc_8c.html#a6a3515ae97e70e9ccd0fb50acebc62d1" target="_top" xlink:title=" ">
<polygon fill="white" stroke="#666666" points="999.12,-282.25 935.88,-282.25 935.88,-263 999.12,-263 999.12,-282.25"/>
<text xml:space="preserve" text-anchor="middle" x="967.5" y="-268.75" font-family="Helvetica,sans-Serif" font-size="10.00">stepgenfull</text>
</a>
</g>
</g>
<!-- Node1&#45;&gt;Node418 -->
<g id="edge62_Node000001_Node000418" class="edge">
<title>Node1&#45;&gt;Node418</title>
<g id="a_edge62_Node000001_Node000418"><a xlink:title=" ">
<path fill="none" stroke="#63b8ff" d="M1040.36,-272.62C1027.05,-272.62 1012.08,-272.62 999.27,-272.62"/>
<polygon fill="#63b8ff" stroke="#63b8ff" points="1040.02,-276.13 1050.02,-272.63 1040.02,-269.13 1040.02,-276.13"/>
</a>
</g>
</g>
<!-- Node3 -->
<g id="Node000003" class="node">
<title>Node3</title>
<g id="a_Node000003"><a xlink:href="lgc_8c.html#a3035567259cf4d2269426622ccc0d022" target="_top" xlink:title=" ">
<polygon fill="white" stroke="#666666" points="858.62,-283.25 808.12,-283.25 808.12,-264 858.62,-264 858.62,-283.25"/>
<text xml:space="preserve" text-anchor="middle" x="833.38" y="-269.75" font-family="Helvetica,sans-Serif" font-size="10.00">genstep</text>
</a>
</g>
</g>
<!-- Node2&#45;&gt;Node3 -->
<g id="edge2_Node000002_Node000003" class="edge">
<title>Node2&#45;&gt;Node3</title>
<g id="a_edge2_Node000002_Node000003"><a xlink:title=" ">
<path fill="none" stroke="#63b8ff" d="M933.96,-300.76C910.81,-294.45 880.18,-286.11 859.04,-280.34"/>
<polygon fill="#63b8ff" stroke="#63b8ff" points="932.95,-304.11 943.52,-303.36 934.79,-297.36 932.95,-304.11"/>
</a>
</g>
</g>
<!-- Node9 -->
<g id="Node000009" class="node">
<title>Node9</title>
<g id="a_Node000009"><a xlink:href="lgc_8c.html#ac48130e5263ad8be09a9c51dae6125b9" target="_top" xlink:title=" ">
<polygon fill="white" stroke="#666666" points="865.75,-340.25 801,-340.25 801,-321 865.75,-321 865.75,-340.25"/>
<text xml:space="preserve" text-anchor="middle" x="833.38" y="-326.75" font-family="Helvetica,sans-Serif" font-size="10.00">luaC_fullgc</text>
</a>
</g>
</g>
<!-- Node2&#45;&gt;Node9 -->
<g id="edge9_Node000002_Node000009" class="edge">
<title>Node2&#45;&gt;Node9</title>
<g id="a_edge9_Node000002_Node000009"><a xlink:title=" ">
<path fill="none" stroke="#63b8ff" d="M933.87,-314.81C913.17,-318.1 886.52,-322.34 866.01,-325.6"/>
<polygon fill="#63b8ff" stroke="#63b8ff" points="934.16,-318.31 943.48,-313.28 933.06,-311.4 934.16,-318.31"/>
</a>
</g>
</g>
<!-- Node4 -->
<g id="Node000004" class="node">
<title>Node4</title>
<g id="a_Node000004"><a xlink:href="lgc_8c.html#ab0133eb7bb37a0a690e0ef71fbc13414" target="_top" xlink:title=" ">
<polygon fill="white" stroke="#666666" points="744.75,-283.25 684.5,-283.25 684.5,-264 744.75,-264 744.75,-283.25"/>
<text xml:space="preserve" text-anchor="middle" x="714.62" y="-269.75" font-family="Helvetica,sans-Serif" font-size="10.00">luaC_step</text>
</a>
</g>
</g>
<!-- Node3&#45;&gt;Node4 -->
<g id="edge3_Node000003_Node000004" class="edge">
<title>Node3&#45;&gt;Node4</title>
<g id="a_edge3_Node000003_Node000004"><a xlink:title=" ">
<path fill="none" stroke="#63b8ff" d="M796.48,-273.62C779.98,-273.62 760.65,-273.62 745.03,-273.62"/>
<polygon fill="#63b8ff" stroke="#63b8ff" points="796.39,-277.13 806.39,-273.63 796.39,-270.13 796.39,-277.13"/>
</a>
</g>
</g>
<!-- Node5 -->
<g id="Node000005" class="node">
<title>Node5</title>
<g id="a_Node000005"><a xlink:href="lapi_8c.html#aa93573057f708d826613186a9d40c87d" target="_top" xlink:title=" ">
<polygon fill="white" stroke="#666666" points="629.75,-283.25 585.25,-283.25 585.25,-264 629.75,-264 629.75,-283.25"/>
<text xml:space="preserve" text-anchor="middle" x="607.5" y="-269.75" font-family="Helvetica,sans-Serif" font-size="10.00">lua_gc</text>
</a>
</g>
</g>
<!-- Node4&#45;&gt;Node5 -->
<g id="edge4_Node000004_Node000005" class="edge">
<title>Node4&#45;&gt;Node5</title>
<g id="a_edge4_Node000004_Node000005"><a xlink:title=" ">
<path fill="none" stroke="#63b8ff" d="M672.77,-273.62C658.25,-273.62 642.47,-273.62 630.18,-273.62"/>
<polygon fill="#63b8ff" stroke="#63b8ff" points="672.55,-277.13 682.55,-273.63 672.55,-270.13 672.55,-277.13"/>
</a>
</g>
</g>
<!-- Node6 -->
<g id="Node000006" class="node">
<title>Node6</title>
<g id="a_Node000006"><a xlink:href="lbaselib_8c.html#a07f71966c943cc9761ab129f64d4ac80" target="_top" xlink:title=" ">
<polygon fill="white" stroke="#666666" points="533.5,-321.25 429.75,-321.25 429.75,-302 533.5,-302 533.5,-321.25"/>
<text xml:space="preserve" text-anchor="middle" x="481.62" y="-307.75" font-family="Helvetica,sans-Serif" font-size="10.00">luaB_collectgarbage</text>
</a>
</g>
</g>
<!-- Node5&#45;&gt;Node6 -->
<g id="edge5_Node000005_Node000006" class="edge">
<title>Node5&#45;&gt;Node6</title>
<g id="a_edge5_Node000005_Node000006"><a xlink:title=" ">
<path fill="none" stroke="#63b8ff" d="M574.07,-283.57C556.06,-289.1 533.7,-295.96 515.6,-301.51"/>
<polygon fill="#63b8ff" stroke="#63b8ff" points="574.94,-286.97 583.48,-280.69 572.89,-280.27 574.94,-286.97"/>
</a>
</g>
</g>
<!-- Node7 -->
<g id="Node000007" class="node">
<title>Node7</title>
<g id="a_Node000007"><a xlink:href="lua_8c.html#a3c04138a5bfe5d72780bb7e82a18e627" target="_top" xlink:title=" ">
<polygon fill="white" stroke="#666666" points="353.25,-208.25 316.25,-208.25 316.25,-189 353.25,-189 353.25,-208.25"/>
<text xml:space="preserve" text-anchor="middle" x="334.75" y="-194.75" font-family="Helvetica,sans-Serif" font-size="10.00">main</text>
</a>
</g>
</g>
<!-- Node5&#45;&gt;Node7 -->
<g id="edge6_Node000005_Node000007" class="edge">
<title>Node5&#45;&gt;Node7</title>
<g id="a_edge6_Node000005_Node000007"><a xlink:title=" ">
<path fill="none" stroke="#63b8ff" d="M573.6,-274.24C537.42,-273.98 478.01,-270.74 429.75,-254.62 398.22,-244.1 365.87,-221.8 348.56,-208.73"/>
<polygon fill="#63b8ff" stroke="#63b8ff" points="573.42,-277.74 583.41,-274.23 573.41,-270.74 573.42,-277.74"/>
</a>
</g>
</g>
<!-- Node8 -->
<g id="Node000008" class="node">
<title>Node8</title>
<g id="a_Node000008"><a xlink:href="lua_8c.html#aa0f8bc082ef913cb0a4df437bf5f5019" target="_top" xlink:title=" ">
<polygon fill="white" stroke="#666666" points="502.75,-245.25 460.5,-245.25 460.5,-226 502.75,-226 502.75,-245.25"/>
<text xml:space="preserve" text-anchor="middle" x="481.62" y="-231.75" font-family="Helvetica,sans-Serif" font-size="10.00">pmain</text>
</a>
</g>
</g>
<!-- Node5&#45;&gt;Node8 -->
<g id="edge7_Node000005_Node000008" class="edge">
<title>Node5&#45;&gt;Node8</title>
<g id="a_edge7_Node000005_Node000008"><a xlink:title=" ">
<path fill="none" stroke="#63b8ff" d="M574.2,-263.72C551.73,-256.82 522.46,-247.85 503.13,-241.92"/>
<polygon fill="#63b8ff" stroke="#63b8ff" points="572.89,-266.98 583.48,-266.56 574.94,-260.28 572.89,-266.98"/>
</a>
</g>
</g>
<!-- Node8&#45;&gt;Node7 -->
<g id="edge8_Node000008_Node000007" class="edge">
<title>Node8&#45;&gt;Node7</title>
<g id="a_edge8_Node000008_Node000007"><a xlink:title=" ">
<path fill="none" stroke="#63b8ff" d="M449.28,-227.62C419.94,-220.13 377.16,-209.2 353.37,-203.12"/>
<polygon fill="#63b8ff" stroke="#63b8ff" points="448.15,-230.94 458.71,-230.03 449.89,-224.16 448.15,-230.94"/>
</a>
</g>
</g>
<!-- Node9&#45;&gt;Node5 -->
<g id="edge37_Node000009_Node000005" class="edge">
<title>Node9&#45;&gt;Node5</title>
<g id="a_edge37_Node000009_Node000005"><a xlink:title=" ">
<path fill="none" stroke="#63b8ff" d="M789.57,-319.94C759.35,-312.37 717.93,-301.95 681.5,-292.62 664.25,-288.21 644.72,-283.12 630.21,-279.32"/>
<polygon fill="#63b8ff" stroke="#63b8ff" points="788.55,-323.29 799.1,-322.32 790.25,-316.5 788.55,-323.29"/>
</a>
</g>
</g>
<!-- Node10 -->
<g id="Node000010" class="node">
<title>Node10</title>
<g id="a_Node000010"><a xlink:href="lstring_8c.html#af8b89b01dc2db9f0d3024067ffdb931a" target="_top" xlink:title=" ">
<polygon fill="white" stroke="#666666" points="745.5,-424.25 683.75,-424.25 683.75,-405 745.5,-405 745.5,-424.25"/>
<text xml:space="preserve" text-anchor="middle" x="714.62" y="-410.75" font-family="Helvetica,sans-Serif" font-size="10.00">growstrtab</text>
</a>
</g>
</g>
<!-- Node9&#45;&gt;Node10 -->
<g id="edge10_Node000009_Node000010" class="edge">
<title>Node9&#45;&gt;Node10</title>
<g id="a_edge10_Node000009_Node000010"><a xlink:title=" ">
<path fill="none" stroke="#63b8ff" d="M809.48,-347.09C785.68,-364.22 749.2,-390.47 729.46,-404.67"/>
<polygon fill="#63b8ff" stroke="#63b8ff" points="811.22,-350.16 817.3,-341.47 807.13,-344.47 811.22,-350.16"/>
</a>
</g>
</g>
<!-- Node383 -->
<g id="Node000383" class="node">
<title>Node383</title>
<g id="a_Node000383"><a xlink:href="lmem_8c.html#abe813b00dc25458292fae7dbfc04ef3b" target="_top" xlink:title=" ">
<polygon fill="white" stroke="#666666" points="739.88,-359.25 689.38,-359.25 689.38,-340 739.88,-340 739.88,-359.25"/>
<text xml:space="preserve" text-anchor="middle" x="714.62" y="-345.75" font-family="Helvetica,sans-Serif" font-size="10.00">tryagain</text>
</a>
</g>
</g>
<!-- Node9&#45;&gt;Node383 -->
<g id="edge38_Node000009_Node000383" class="edge">
<title>Node9&#45;&gt;Node383</title>
<g id="a_edge38_Node000009_Node000383"><a xlink:title=" ">
<path fill="none" stroke="#63b8ff" d="M789.63,-337.58C773,-340.29 754.53,-343.29 740.21,-345.62"/>
<polygon fill="#63b8ff" stroke="#63b8ff" points="789.98,-341.07 799.29,-336.01 788.85,-334.16 789.98,-341.07"/>
</a>
</g>
</g>
<!-- Node11 -->
<g id="Node000011" class="node">
<title>Node11</title>
<g id="a_Node000011"><a xlink:href="lstring_8c.html#a2891c52f2d96252102e7a0a9d8cf37fd" target="_top" xlink:title=" ">
<polygon fill="white" stroke="#666666" points="639.88,-452.25 575.12,-452.25 575.12,-433 639.88,-433 639.88,-452.25"/>
<text xml:space="preserve" text-anchor="middle" x="607.5" y="-438.75" font-family="Helvetica,sans-Serif" font-size="10.00">internshrstr</text>
</a>
</g>
</g>
<!-- Node10&#45;&gt;Node11 -->
<g id="edge11_Node000010_Node000011" class="edge">
<title>Node10&#45;&gt;Node11</title>
<g id="a_edge11_Node000010_Node000011"><a xlink:title=" ">
<path fill="none" stroke="#63b8ff" d="M672.58,-425.56C661.78,-428.43 650.31,-431.49 640.09,-434.21"/>
<polygon fill="#63b8ff" stroke="#63b8ff" points="673.28,-428.99 682.04,-423.04 671.47,-422.23 673.28,-428.99"/>
</a>
</g>
</g>
<!-- Node12 -->
<g id="Node000012" class="node">
<title>Node12</title>
<g id="a_Node000012"><a xlink:href="lstring_8c.html#af922b364943afbe71e4da82a0c50188c" target="_top" xlink:title=" ">
<polygon fill="white" stroke="#666666" points="517.75,-508.25 445.5,-508.25 445.5,-489 517.75,-489 517.75,-508.25"/>
<text xml:space="preserve" text-anchor="middle" x="481.62" y="-494.75" font-family="Helvetica,sans-Serif" font-size="10.00">luaS_newlstr</text>
</a>
</g>
</g>
<!-- Node11&#45;&gt;Node12 -->
<g id="edge12_Node000011_Node000012" class="edge">
<title>Node11&#45;&gt;Node12</title>
<g id="a_edge12_Node000011_Node000012"><a xlink:title=" ">
<path fill="none" stroke="#63b8ff" d="M573.95,-457.34C552.23,-467.16 524.24,-479.81 505,-488.51"/>
<polygon fill="#63b8ff" stroke="#63b8ff" points="575.3,-460.57 582.97,-453.26 572.42,-454.19 575.3,-460.57"/>
</a>
</g>
</g>
<!-- Node13 -->
<g id="Node000013" class="node">
<title>Node13</title>
<g id="a_Node000013"><a xlink:href="lundump_8c.html#ac0523d12e31c707fa1f626add3672fef" target="_top" xlink:title=" ">
<polygon fill="white" stroke="#666666" points="368.25,-396.25 301.25,-396.25 301.25,-377 368.25,-377 368.25,-396.25"/>
<text xml:space="preserve" text-anchor="middle" x="334.75" y="-382.75" font-family="Helvetica,sans-Serif" font-size="10.00">loadStringN</text>
</a>
</g>
</g>
<!-- Node12&#45;&gt;Node13 -->
<g id="edge13_Node000012_Node000013" class="edge">
<title>Node12&#45;&gt;Node13</title>
<g id="a_edge13_Node000012_Node000013"><a xlink:title=" ">
<path fill="none" stroke="#63b8ff" d="M467.49,-479.18C452.17,-457.93 424.92,-424.29 393.75,-404.62 386.17,-399.84 377.23,-396.25 368.67,-393.59"/>
<polygon fill="#63b8ff" stroke="#63b8ff" points="464.55,-481.08 473.15,-487.27 470.28,-477.07 464.55,-481.08"/>
</a>
</g>
</g>
<!-- Node27 -->
<g id="Node000027" class="node">
<title>Node27</title>
<g id="a_Node000027"><a xlink:href="lapi_8c.html#a1de3afee1daece63d455f23818c883d9" target="_top" xlink:title=" ">
<polygon fill="white" stroke="#666666" points="211.62,-660.25 148.38,-660.25 148.38,-641 211.62,-641 211.62,-660.25"/>
<text xml:space="preserve" text-anchor="middle" x="180" y="-646.75" font-family="Helvetica,sans-Serif" font-size="10.00">lua_concat</text>
</a>
</g>
</g>
<!-- Node12&#45;&gt;Node27 -->
<g id="edge18_Node000012_Node000027" class="edge">
<title>Node12&#45;&gt;Node27</title>
<g id="a_edge18_Node000012_Node000027"><a xlink:title=" ">
<path fill="none" stroke="#63b8ff" d="M473.81,-519.13C462.5,-549.55 436.75,-605.81 393.75,-631.62 337,-665.69 255.95,-661.49 212.09,-655.82"/>
<polygon fill="#63b8ff" stroke="#63b8ff" points="477.02,-520.54 477.05,-509.94 470.42,-518.21 477.02,-520.54"/>
</a>
</g>
</g>
<!-- Node300 -->
<g id="Node000300" class="node">
<title>Node300</title>
<g id="a_Node000300"><a xlink:href="lapi_8c.html#a01ac82fa494af5e7c3e10c87a8052cf7" target="_top" xlink:title=" ">
<polygon fill="#fff0f0" stroke="red" points="220.62,-508.25 139.38,-508.25 139.38,-489 220.62,-489 220.62,-508.25"/>
<text xml:space="preserve" text-anchor="middle" x="180" y="-494.75" font-family="Helvetica,sans-Serif" font-size="10.00">lua_pushlstring</text>
</a>
</g>
</g>
<!-- Node12&#45;&gt;Node300 -->
<g id="edge25_Node000012_Node000300" class="edge">
<title>Node12&#45;&gt;Node300</title>
<g id="a_edge25_Node000012_Node000300"><a xlink:title=" ">
<path fill="none" stroke="#63b8ff" d="M433.56,-498.62C374.94,-498.62 275.8,-498.62 220.78,-498.62"/>
<polygon fill="#63b8ff" stroke="#63b8ff" points="433.56,-502.13 443.56,-498.63 433.56,-495.13 433.56,-502.13"/>
</a>
</g>
</g>
<!-- Node306 -->
<g id="Node000306" class="node">
<title>Node306</title>
<g id="a_Node000306"><a xlink:href="lobject_8c.html#a53824ade5220a50d44148175f7787199" target="_top" xlink:title=" ">
<polygon fill="#fff0f0" stroke="red" points="371.62,-470.25 297.88,-470.25 297.88,-451 371.62,-451 371.62,-470.25"/>
<text xml:space="preserve" text-anchor="middle" x="334.75" y="-456.75" font-family="Helvetica,sans-Serif" font-size="10.00">luaO_tostring</text>
</a>
</g>
</g>
<!-- Node12&#45;&gt;Node306 -->
<g id="edge29_Node000012_Node000306" class="edge">
<title>Node12&#45;&gt;Node306</title>
<g id="a_edge29_Node000012_Node000306"><a xlink:title=" ">
<path fill="none" stroke="#63b8ff" d="M434.08,-486.42C414,-481.15 390.87,-475.08 372.08,-470.16"/>
<polygon fill="#63b8ff" stroke="#63b8ff" points="433.16,-489.79 443.72,-488.95 434.94,-483.02 433.16,-489.79"/>
</a>
</g>
</g>
<!-- Node310 -->
<g id="Node000310" class="node">
<title>Node310</title>
<g id="a_Node000310"><a xlink:href="lstring_8c.html#ac9397504696e5cbc6c4cec7649c497ec" target="_top" xlink:title=" ">
<polygon fill="#fff0f0" stroke="red" points="364.12,-546.25 305.38,-546.25 305.38,-527 364.12,-527 364.12,-546.25"/>
<text xml:space="preserve" text-anchor="middle" x="334.75" y="-532.75" font-family="Helvetica,sans-Serif" font-size="10.00">luaS_new</text>
</a>
</g>
</g>
<!-- Node12&#45;&gt;Node310 -->
<g id="edge30_Node000012_Node000310" class="edge">
<title>Node12&#45;&gt;Node310</title>
<g id="a_edge30_Node000012_Node000310"><a xlink:title=" ">
<path fill="none" stroke="#63b8ff" d="M434.3,-510.77C411.38,-516.79 384.43,-523.86 364.51,-529.08"/>
<polygon fill="#63b8ff" stroke="#63b8ff" points="434.94,-514.23 443.72,-508.3 433.16,-507.46 434.94,-514.23"/>
</a>
</g>
</g>
<!-- Node650 -->
<g id="Node000650" class="node">
<title>Node650</title>
<g id="a_Node000650"><a xlink:href="lvm_8c.html#a2f076040af405dcb50d661edd692eca7" target="_top" xlink:title=" ">
<polygon fill="#fff0f0" stroke="red" points="369.75,-622.25 299.75,-622.25 299.75,-603 369.75,-603 369.75,-622.25"/>
<text xml:space="preserve" text-anchor="middle" x="334.75" y="-608.75" font-family="Helvetica,sans-Serif" font-size="10.00">luaV_concat</text>
</a>
</g>
</g>
<!-- Node12&#45;&gt;Node650 -->
<g id="edge32_Node000012_Node000650" class="edge">
<title>Node12&#45;&gt;Node650</title>
<g id="a_edge32_Node000012_Node000650"><a xlink:title=" ">
<path fill="none" stroke="#63b8ff" d="M466.26,-517.6C450.36,-537.51 423.08,-568.66 393.75,-588.62 385.55,-594.21 375.85,-598.85 366.76,-602.52"/>
<polygon fill="#63b8ff" stroke="#63b8ff" points="468.98,-519.8 472.37,-509.76 463.46,-515.5 468.98,-519.8"/>
</a>
</g>
</g>
<!-- Node656 -->
<g id="Node000656" class="node">
<title>Node656</title>
<g id="a_Node000656"><a xlink:href="lobject_8c.html#ae8b33b0604c4756ad7fa4e14316fa9d4" target="_top" xlink:title=" ">
<polygon fill="#fff0f0" stroke="red" points="204.12,-603.25 155.88,-603.25 155.88,-584 204.12,-584 204.12,-603.25"/>
<text xml:space="preserve" text-anchor="middle" x="180" y="-589.75" font-family="Helvetica,sans-Serif" font-size="10.00">pushstr</text>
</a>
</g>
</g>
<!-- Node12&#45;&gt;Node656 -->
<g id="edge36_Node000012_Node000656" class="edge">
<title>Node12&#45;&gt;Node656</title>
<g id="a_edge36_Node000012_Node000656"><a xlink:title=" ">
<path fill="none" stroke="#63b8ff" d="M459.94,-515.68C443.13,-528.65 418.27,-545.87 393.75,-555.62 328.38,-581.63 244.64,-589.93 204.51,-592.51"/>
<polygon fill="#63b8ff" stroke="#63b8ff" points="462,-518.52 467.66,-509.57 457.65,-513.04 462,-518.52"/>
</a>
</g>
</g>
<!-- Node622 -->
<g id="Node000622" class="node">
<title>Node622</title>
<g id="a_Node000622"><a xlink:href="llex_8c.html#a51ec8735f32a452d48a77e71e9dd0a3b" target="_top" xlink:title=" ">
<polygon fill="#fff0f0" stroke="red" points="376.12,-433.25 293.38,-433.25 293.38,-414 376.12,-414 376.12,-433.25"/>
<text xml:space="preserve" text-anchor="middle" x="334.75" y="-419.75" font-family="Helvetica,sans-Serif" font-size="10.00">luaX_newstring</text>
</a>
</g>
</g>
<!-- Node12&#45;&gt;Node622 -->
<g id="edge35_Node000012_Node000622" class="edge">
<title>Node12&#45;&gt;Node622</title>
<g id="a_edge35_Node000012_Node000622"><a xlink:title=" ">
<path fill="none" stroke="#63b8ff" d="M458.7,-481.75C441.72,-469.31 417.21,-452.69 393.75,-441.62 387.46,-438.66 380.55,-436.02 373.77,-433.75"/>
<polygon fill="#63b8ff" stroke="#63b8ff" points="456.45,-484.43 466.55,-487.61 460.64,-478.82 456.45,-484.43"/>
</a>
</g>
</g>
<!-- Node14 -->
<g id="Node000014" class="node">
<title>Node14</title>
<g id="a_Node000014"><a xlink:href="lundump_8c.html#a121ddfe27d3762c4b5ed14bd3746af7a" target="_top" xlink:title=" ">
<polygon fill="white" stroke="#666666" points="211.25,-359.25 148.75,-359.25 148.75,-340 211.25,-340 211.25,-359.25"/>
<text xml:space="preserve" text-anchor="middle" x="180" y="-345.75" font-family="Helvetica,sans-Serif" font-size="10.00">loadDebug</text>
</a>
</g>
</g>
<!-- Node13&#45;&gt;Node14 -->
<g id="edge14_Node000013_Node000014" class="edge">
<title>Node13&#45;&gt;Node14</title>
<g id="a_edge14_Node000013_Node000014"><a xlink:title=" ">
<path fill="none" stroke="#63b8ff" d="M289.93,-376.01C264.88,-369.94 234.08,-362.48 211.63,-357.05"/>
<polygon fill="#63b8ff" stroke="#63b8ff" points="288.97,-379.38 299.51,-378.33 290.62,-372.58 288.97,-379.38"/>
</a>
</g>
</g>
<!-- Node15 -->
<g id="Node000015" class="node">
<title>Node15</title>
<g id="a_Node000015"><a xlink:href="lundump_8c.html#a894435708ede05d12c7e81033dae380f" target="_top" xlink:title=" ">
<polygon fill="#fff0f0" stroke="red" points="77.88,-397.25 6.38,-397.25 6.38,-378 77.88,-378 77.88,-397.25"/>
<text xml:space="preserve" text-anchor="middle" x="42.12" y="-383.75" font-family="Helvetica,sans-Serif" font-size="10.00">loadFunction</text>
</a>
</g>
</g>
<!-- Node13&#45;&gt;Node15 -->
<g id="edge16_Node000013_Node000015" class="edge">
<title>Node13&#45;&gt;Node15</title>
<g id="a_edge16_Node000013_Node000015"><a xlink:title=" ">
<path fill="none" stroke="#63b8ff" d="M289.93,-397.37C274.21,-400.72 256.28,-403.97 239.75,-405.62 186.9,-410.91 173.01,-411.7 120.25,-405.62 106.32,-404.02 91.24,-400.84 78.15,-397.59"/>
<polygon fill="#63b8ff" stroke="#63b8ff" points="290.45,-400.84 299.45,-395.26 288.93,-394 290.45,-400.84"/>
</a>
</g>
</g>
<!-- Node25 -->
<g id="Node000025" class="node">
<title>Node25</title>
<g id="a_Node000025"><a xlink:href="lundump_8c.html#a883618a9a2104461096fb633c7df2f33" target="_top" xlink:title=" ">
<polygon fill="#fff0f0" stroke="red" points="209.75,-396.25 150.25,-396.25 150.25,-377 209.75,-377 209.75,-396.25"/>
<text xml:space="preserve" text-anchor="middle" x="180" y="-382.75" font-family="Helvetica,sans-Serif" font-size="10.00">loadString</text>
</a>
</g>
</g>
<!-- Node13&#45;&gt;Node25 -->
<g id="edge17_Node000013_Node000025" class="edge">
<title>Node13&#45;&gt;Node25</title>
<g id="a_edge17_Node000013_Node000025"><a xlink:title=" ">
<path fill="none" stroke="#63b8ff" d="M289.7,-386.62C264.12,-386.62 232.6,-386.62 210.1,-386.62"/>
<polygon fill="#63b8ff" stroke="#63b8ff" points="289.47,-390.13 299.47,-386.63 289.47,-383.13 289.47,-390.13"/>
</a>
</g>
</g>
<!-- Node14&#45;&gt;Node15 -->
<g id="edge15_Node000014_Node000015" class="edge">
<title>Node14&#45;&gt;Node15</title>
<g id="a_edge15_Node000014_Node000015"><a xlink:title=" ">
<path fill="none" stroke="#63b8ff" d="M137.5,-361.23C118.58,-366.52 96.41,-372.72 78.32,-377.78"/>
<polygon fill="#63b8ff" stroke="#63b8ff" points="138.36,-364.62 147.05,-358.56 136.48,-357.88 138.36,-364.62"/>
</a>
</g>
</g>
<!-- Node28 -->
<g id="Node000028" class="node">
<title>Node28</title>
<g id="a_Node000028"><a xlink:href="lauxlib_8c.html#a36c8f149b779f8c9a5c042ea9784d80a" target="_top" xlink:title=" ">
<polygon fill="#fff0f0" stroke="red" points="67,-575.25 17.25,-575.25 17.25,-556 67,-556 67,-575.25"/>
<text xml:space="preserve" text-anchor="middle" x="42.12" y="-561.75" font-family="Helvetica,sans-Serif" font-size="10.00">findfield</text>
</a>
</g>
</g>
<!-- Node27&#45;&gt;Node28 -->
<g id="edge19_Node000027_Node000028" class="edge">
<title>Node27&#45;&gt;Node28</title>
<g id="a_edge19_Node000027_Node000028"><a xlink:title=" ">
<path fill="none" stroke="#63b8ff" d="M153.46,-634.65C125.79,-617.34 82.5,-590.26 59.22,-575.7"/>
<polygon fill="#63b8ff" stroke="#63b8ff" points="151.26,-637.4 161.6,-639.74 154.98,-631.47 151.26,-637.4"/>
</a>
</g>
</g>
<!-- Node180 -->
<g id="Node000180" class="node">
<title>Node180</title>
<g id="a_Node000180"><a xlink:href="lcorolib_8c.html#a777abb20385a69ce4787f72bd90375a7" target="_top" xlink:title=" ">
<polygon fill="#fff0f0" stroke="red" points="80.88,-741.25 3.38,-741.25 3.38,-722 80.88,-722 80.88,-741.25"/>
<text xml:space="preserve" text-anchor="middle" x="42.12" y="-727.75" font-family="Helvetica,sans-Serif" font-size="10.00">luaB_auxwrap</text>
</a>
</g>
</g>
<!-- Node27&#45;&gt;Node180 -->
<g id="edge21_Node000027_Node000180" class="edge">
<title>Node27&#45;&gt;Node180</title>
<g id="a_edge21_Node000027_Node000180"><a xlink:title=" ">
<path fill="none" stroke="#63b8ff" d="M156.47,-667.23C137.7,-680.66 109.97,-699.58 84.25,-713.62 79.05,-716.46 73.31,-719.2 67.82,-721.65"/>
<polygon fill="#63b8ff" stroke="#63b8ff" points="158.38,-670.17 164.43,-661.47 154.28,-664.49 158.38,-670.17"/>
</a>
</g>
</g>
<!-- Node76 -->
<g id="Node000076" class="node">
<title>Node76</title>
<g id="a_Node000076"><a xlink:href="lbaselib_8c.html#a2ecfa987569d0b4c1063f3e204e42dd2" target="_top" xlink:title=" ">
<polygon fill="#fff0f0" stroke="red" points="72.25,-704.25 12,-704.25 12,-685 72.25,-685 72.25,-704.25"/>
<text xml:space="preserve" text-anchor="middle" x="42.12" y="-690.75" font-family="Helvetica,sans-Serif" font-size="10.00">luaB_error</text>
</a>
</g>
</g>
<!-- Node27&#45;&gt;Node76 -->
<g id="edge22_Node000027_Node000076" class="edge">
<title>Node27&#45;&gt;Node76</title>
<g id="a_edge22_Node000027_Node000076"><a xlink:title=" ">
<path fill="none" stroke="#63b8ff" d="M137.29,-664.13C116.31,-670.93 91.37,-679 72.44,-685.13"/>
<polygon fill="#63b8ff" stroke="#63b8ff" points="138.29,-667.49 146.73,-661.08 136.14,-660.83 138.29,-667.49"/>
</a>
</g>
</g>
<!-- Node181 -->
<g id="Node000181" class="node">
<title>Node181</title>
<g id="a_Node000181"><a xlink:href="lauxlib_8c.html#a6c51d83d29244779392551388913e08a" target="_top" xlink:title=" ">
<polygon fill="#fff0f0" stroke="red" points="71.5,-667.25 12.75,-667.25 12.75,-648 71.5,-648 71.5,-667.25"/>
<text xml:space="preserve" text-anchor="middle" x="42.12" y="-653.75" font-family="Helvetica,sans-Serif" font-size="10.00">luaL_error</text>
</a>
</g>
</g>
<!-- Node27&#45;&gt;Node181 -->
<g id="edge23_Node000027_Node000181" class="edge">
<title>Node27&#45;&gt;Node181</title>
<g id="a_edge23_Node000027_Node000181"><a xlink:title=" ">
<path fill="none" stroke="#63b8ff" d="M136.92,-652.79C115.84,-653.88 90.86,-655.17 71.98,-656.14"/>
<polygon fill="#63b8ff" stroke="#63b8ff" points="136.85,-656.3 146.66,-652.29 136.49,-649.31 136.85,-656.3"/>
</a>
</g>
</g>
<!-- Node271 -->
<g id="Node000271" class="node">
<title>Node271</title>
<g id="a_Node000271"><a xlink:href="lua_8c.html#affef5a04b31963c2c3f5028518777e12" target="_top" xlink:title=" ">
<polygon fill="#fff0f0" stroke="red" points="68.12,-630.25 16.12,-630.25 16.12,-611 68.12,-611 68.12,-630.25"/>
<text xml:space="preserve" text-anchor="middle" x="42.12" y="-616.75" font-family="Helvetica,sans-Serif" font-size="10.00">multiline</text>
</a>
</g>
</g>
<!-- Node27&#45;&gt;Node271 -->
<g id="edge24_Node000027_Node000271" class="edge">
<title>Node27&#45;&gt;Node271</title>
<g id="a_edge24_Node000027_Node000271"><a xlink:title=" ">
<path fill="none" stroke="#63b8ff" d="M137.21,-641.4C114.7,-636.43 87.68,-630.46 68.38,-626.2"/>
<polygon fill="#63b8ff" stroke="#63b8ff" points="136.17,-644.75 146.69,-643.49 137.68,-637.92 136.17,-644.75"/>
</a>
</g>
</g>
<!-- Node28&#45;&gt;Node28 -->
<g id="edge20_Node000028_Node000028" class="edge">
<title>Node28&#45;&gt;Node28</title>
<g id="a_edge20_Node000028_Node000028"><a xlink:title=" ">
<path fill="none" stroke="#63b8ff" d="M66.6,-586.65C63.54,-590.53 55.38,-593.25 42.12,-593.25 17.89,-593.25 10.69,-584.15 20.54,-575.54"/>
<polygon fill="#63b8ff" stroke="#63b8ff" points="69.99,-585.8 64.09,-577 63.22,-587.56 69.99,-585.8"/>
</a>
</g>
</g>
<!-- Node35 -->
<g id="Node000035" class="node">
<title>Node35</title>
<g id="a_Node000035"><a xlink:href="ldblib_8c.html#a4eb57e66c2efb2d31c9b9e1b01d27e13" target="_top" xlink:title=" ">
<polygon fill="white" stroke="#666666" points="72.62,-501.25 11.63,-501.25 11.63,-482 72.62,-482 72.62,-501.25"/>
<text xml:space="preserve" text-anchor="middle" x="42.12" y="-487.75" font-family="Helvetica,sans-Serif" font-size="10.00">db_getinfo</text>
</a>
</g>
</g>
<!-- Node300&#45;&gt;Node35 -->
<g id="edge26_Node000300_Node000035" class="edge">
<title>Node300&#45;&gt;Node35</title>
<g id="a_edge26_Node000300_Node000035"><a xlink:title=" ">
<path fill="none" stroke="#63b8ff" d="M127.47,-495.97C109.06,-495.02 88.93,-493.98 72.95,-493.16"/>
<polygon fill="#63b8ff" stroke="#63b8ff" points="127.29,-499.47 137.46,-496.48 127.65,-492.47 127.29,-499.47"/>
</a>
</g>
</g>
<!-- Node242 -->
<g id="Node000242" class="node">
<title>Node242</title>
<g id="a_Node000242"><a xlink:href="loadlib_8c.html#a91ac5b5231cf039af46226806dcc3884" target="_top" xlink:title=" ">
<polygon fill="#fff0f0" stroke="red" points="68.5,-464.25 15.75,-464.25 15.75,-445 68.5,-445 68.5,-464.25"/>
<text xml:space="preserve" text-anchor="middle" x="42.12" y="-450.75" font-family="Helvetica,sans-Serif" font-size="10.00">loadfunc</text>
</a>
</g>
</g>
<!-- Node300&#45;&gt;Node242 -->
<g id="edge27_Node000300_Node000242" class="edge">
<title>Node300&#45;&gt;Node242</title>
<g id="a_edge27_Node000300_Node000242"><a xlink:title=" ">
<path fill="none" stroke="#63b8ff" d="M136.94,-485.01C114.61,-477.77 87.89,-469.12 68.69,-462.9"/>
<polygon fill="#63b8ff" stroke="#63b8ff" points="135.8,-488.31 146.39,-488.06 137.95,-481.65 135.8,-488.31"/>
</a>
</g>
</g>
<!-- Node301 -->
<g id="Node000301" class="node">
<title>Node301</title>
<g id="a_Node000301"><a xlink:href="lauxlib_8c.html#a3a1f80033814e2057583a7d24cee23b4" target="_top" xlink:title=" ">
<polygon fill="#fff0f0" stroke="red" points="84.25,-538.25 0,-538.25 0,-519 84.25,-519 84.25,-538.25"/>
<text xml:space="preserve" text-anchor="middle" x="42.12" y="-524.75" font-family="Helvetica,sans-Serif" font-size="10.00">luaL_pushresult</text>
</a>
</g>
</g>
<!-- Node300&#45;&gt;Node301 -->
<g id="edge28_Node000300_Node000301" class="edge">
<title>Node300&#45;&gt;Node301</title>
<g id="a_edge28_Node000300_Node000301"><a xlink:title=" ">
<path fill="none" stroke="#63b8ff" d="M127.74,-509.94C113.38,-513.11 97.97,-516.52 84.28,-519.54"/>
<polygon fill="#63b8ff" stroke="#63b8ff" points="128.48,-513.36 137.49,-507.79 126.97,-506.53 128.48,-513.36"/>
</a>
</g>
</g>
<!-- Node310&#45;&gt;Node300 -->
<g id="edge31_Node000310_Node000300" class="edge">
<title>Node310&#45;&gt;Node300</title>
<g id="a_edge31_Node000310_Node000300"><a xlink:title=" ">
<path fill="none" stroke="#63b8ff" d="M294.13,-526.77C271.58,-521.16 243.42,-514.15 220.84,-508.54"/>
<polygon fill="#63b8ff" stroke="#63b8ff" points="293,-530.09 303.55,-529.11 294.69,-523.3 293,-530.09"/>
</a>
</g>
</g>
<!-- Node650&#45;&gt;Node27 -->
<g id="edge33_Node000650_Node000027" class="edge">
<title>Node650&#45;&gt;Node27</title>
<g id="a_edge33_Node000650_Node000027"><a xlink:title=" ">
<path fill="none" stroke="#63b8ff" d="M288.56,-623.87C263.92,-630 234.06,-637.43 212.05,-642.9"/>
<polygon fill="#63b8ff" stroke="#63b8ff" points="289.14,-627.33 298,-621.52 287.45,-620.54 289.14,-627.33"/>
</a>
</g>
</g>
<!-- Node650&#45;&gt;Node656 -->
<g id="edge34_Node000650_Node000656" class="edge">
<title>Node650&#45;&gt;Node656</title>
<g id="a_edge34_Node000650_Node000656"><a xlink:title=" ">
<path fill="none" stroke="#63b8ff" d="M288.09,-606.94C260.48,-603.51 226.45,-599.28 204.26,-596.52"/>
<polygon fill="#63b8ff" stroke="#63b8ff" points="287.61,-610.41 297.97,-608.17 288.48,-603.47 287.61,-610.41"/>
</a>
</g>
</g>
<!-- Node384 -->
<g id="Node000384" class="node">
<title>Node384</title>
<g id="a_Node000384"><a xlink:href="lmem_8c.html#af0c92d038f767832eb8dd29eb0678096" target="_top" xlink:title=" ">
<polygon fill="white" stroke="#666666" points="645.5,-322.25 569.5,-322.25 569.5,-303 645.5,-303 645.5,-322.25"/>
<text xml:space="preserve" text-anchor="middle" x="607.5" y="-308.75" font-family="Helvetica,sans-Serif" font-size="10.00">luaM_malloc_</text>
</a>
</g>
</g>
<!-- Node383&#45;&gt;Node384 -->
<g id="edge39_Node000383_Node000384" class="edge">
<title>Node383&#45;&gt;Node384</title>
<g id="a_edge39_Node000383_Node000384"><a xlink:title=" ">
<path fill="none" stroke="#63b8ff" d="M678.21,-337.16C664.83,-332.45 649.77,-327.15 637.09,-322.69"/>
<polygon fill="#63b8ff" stroke="#63b8ff" points="676.96,-340.43 687.55,-340.45 679.28,-333.83 676.96,-340.43"/>
</a>
</g>
</g>
<!-- Node380 -->
<g id="Node000380" class="node">
<title>Node380</title>
<g id="a_Node000380"><a xlink:href="lmem_8c.html#a7dd4e9ddf6987797216fa9cf4bc23954" target="_top" xlink:title=" ">
<polygon fill="white" stroke="#666666" points="645.5,-359.25 569.5,-359.25 569.5,-340 645.5,-340 645.5,-359.25"/>
<text xml:space="preserve" text-anchor="middle" x="607.5" y="-345.75" font-family="Helvetica,sans-Serif" font-size="10.00">luaM_realloc_</text>
</a>
</g>
</g>
<!-- Node383&#45;&gt;Node380 -->
<g id="edge40_Node000383_Node000380" class="edge">
<title>Node383&#45;&gt;Node380</title>
<g id="a_edge40_Node000383_Node000380"><a xlink:title=" ">
<path fill="none" stroke="#63b8ff" d="M677.48,-349.62C667.24,-349.62 656.07,-349.62 645.76,-349.62"/>
<polygon fill="#63b8ff" stroke="#63b8ff" points="677.46,-353.13 687.46,-349.63 677.46,-346.13 677.46,-353.13"/>
</a>
</g>
</g>
<!-- Node381 -->
<g id="Node000381" class="node">
<title>Node381</title>
<g id="a_Node000381"><a xlink:href="lmem_8c.html#a8cb94bca57e8ae6aff344d3e6e4593af" target="_top" xlink:title=" ">
<polygon fill="white" stroke="#666666" points="529,-359.25 434.25,-359.25 434.25,-340 529,-340 529,-359.25"/>
<text xml:space="preserve" text-anchor="middle" x="481.62" y="-345.75" font-family="Helvetica,sans-Serif" font-size="10.00">luaM_saferealloc_</text>
</a>
</g>
</g>
<!-- Node380&#45;&gt;Node381 -->
<g id="edge41_Node000380_Node000381" class="edge">
<title>Node380&#45;&gt;Node381</title>
<g id="a_edge41_Node000380_Node000381"><a xlink:title=" ">
<path fill="none" stroke="#63b8ff" d="M558.11,-349.62C548.68,-349.62 538.81,-349.62 529.43,-349.62"/>
<polygon fill="#63b8ff" stroke="#63b8ff" points="557.82,-353.13 567.82,-349.63 557.82,-346.13 557.82,-353.13"/>
</a>
</g>
</g>
<!-- Node379 -->
<g id="Node000379" class="node">
<title>Node379</title>
<g id="a_Node000379"><a xlink:href="lmem_8c.html#a1c0358fd91c39b2040eebb75ed4c14e5" target="_top" xlink:title=" ">
<polygon fill="white" stroke="#666666" points="376.88,-322.25 292.62,-322.25 292.62,-303 376.88,-303 376.88,-322.25"/>
<text xml:space="preserve" text-anchor="middle" x="334.75" y="-308.75" font-family="Helvetica,sans-Serif" font-size="10.00">luaM_growaux_</text>
</a>
</g>
</g>
<!-- Node381&#45;&gt;Node379 -->
<g id="edge42_Node000381_Node000379" class="edge">
<title>Node381&#45;&gt;Node379</title>
<g id="a_edge42_Node000381_Node000379"><a xlink:title=" ">
<path fill="none" stroke="#63b8ff" d="M429.89,-336.67C411.99,-332.1 392.13,-327.02 375.29,-322.72"/>
<polygon fill="#63b8ff" stroke="#63b8ff" points="429.02,-340.06 439.57,-339.14 430.75,-333.27 429.02,-340.06"/>
</a>
</g>
</g>
<!-- Node382 -->
<g id="Node000382" class="node">
<title>Node382</title>
<g id="a_Node000382"><a xlink:href="lmem_8c.html#a7fe3cdb7f4720a11dc0054167d2be20b" target="_top" xlink:title=" ">
<polygon fill="white" stroke="#666666" points="385.12,-359.25 284.38,-359.25 284.38,-340 385.12,-340 385.12,-359.25"/>
<text xml:space="preserve" text-anchor="middle" x="334.75" y="-345.75" font-family="Helvetica,sans-Serif" font-size="10.00">luaM_shrinkvector_</text>
</a>
</g>
</g>
<!-- Node381&#45;&gt;Node382 -->
<g id="edge43_Node000381_Node000382" class="edge">
<title>Node381&#45;&gt;Node382</title>
<g id="a_edge43_Node000381_Node000382"><a xlink:title=" ">
<path fill="none" stroke="#63b8ff" d="M422.48,-349.62C410.25,-349.62 397.44,-349.62 385.55,-349.62"/>
<polygon fill="#63b8ff" stroke="#63b8ff" points="422.47,-353.13 432.47,-349.63 422.47,-346.13 422.47,-353.13"/>
</a>
</g>
</g>
<!-- Node416&#45;&gt;Node5 -->
<g id="edge45_Node000416_Node000005" class="edge">
<title>Node416&#45;&gt;Node5</title>
<g id="a_edge45_Node000416_Node000005"><a xlink:title=" ">
<path fill="none" stroke="#63b8ff" d="M907.04,-236.34C849.13,-237.8 758.78,-242.11 681.5,-254.62 663.92,-257.47 644.42,-262.66 629.99,-266.89"/>
<polygon fill="#63b8ff" stroke="#63b8ff" points="907.11,-239.84 917.02,-236.11 906.95,-232.84 907.11,-239.84"/>
</a>
</g>
</g>
<!-- Node417 -->
<g id="Node000417" class="node">
<title>Node417</title>
<g id="a_Node000417"><a xlink:href="lgc_8c.html#abad938b33f011ec1088d1a79508c6ac9" target="_top" xlink:title=" ">
<polygon fill="white" stroke="#666666" points="883,-207.25 783.75,-207.25 783.75,-188 883,-188 883,-207.25"/>
<text xml:space="preserve" text-anchor="middle" x="833.38" y="-193.75" font-family="Helvetica,sans-Serif" font-size="10.00">luaC_freeallobjects</text>
</a>
</g>
</g>
<!-- Node416&#45;&gt;Node417 -->
<g id="edge46_Node000416_Node000417" class="edge">
<title>Node416&#45;&gt;Node417</title>
<g id="a_edge46_Node000416_Node000417"><a xlink:title=" ">
<path fill="none" stroke="#63b8ff" d="M920.67,-222.44C903.76,-217.58 884.91,-212.16 869.14,-207.62"/>
<polygon fill="#63b8ff" stroke="#63b8ff" points="919.41,-225.72 929.99,-225.12 921.34,-219 919.41,-225.72"/>
</a>
</g>
</g>
<!-- Node406 -->
<g id="Node000406" class="node">
<title>Node406</title>
<g id="a_Node000406"><a xlink:href="lstate_8c.html#a4940327dfa3b86df0ef008180bb3fcb3" target="_top" xlink:title=" ">
<polygon fill="white" stroke="#666666" points="747.75,-207.25 681.5,-207.25 681.5,-188 747.75,-188 747.75,-207.25"/>
<text xml:space="preserve" text-anchor="middle" x="714.62" y="-193.75" font-family="Helvetica,sans-Serif" font-size="10.00">close_state</text>
</a>
</g>
</g>
<!-- Node417&#45;&gt;Node406 -->
<g id="edge47_Node000417_Node000406" class="edge">
<title>Node417&#45;&gt;Node406</title>
<g id="a_edge47_Node000417_Node000406"><a xlink:title=" ">
<path fill="none" stroke="#63b8ff" d="M772.19,-197.62C763.85,-197.62 755.55,-197.62 747.99,-197.62"/>
<polygon fill="#63b8ff" stroke="#63b8ff" points="772.03,-201.13 782.03,-197.63 772.03,-194.13 772.03,-201.13"/>
</a>
</g>
</g>
<!-- Node407 -->
<g id="Node000407" class="node">
<title>Node407</title>
<g id="a_Node000407"><a xlink:href="lstate_8c.html#a5d903983f1497b2fc58fba9df09e354d" target="_top" xlink:title=" ">
<polygon fill="white" stroke="#666666" points="636.12,-95.25 578.88,-95.25 578.88,-76 636.12,-76 636.12,-95.25"/>
<text xml:space="preserve" text-anchor="middle" x="607.5" y="-81.75" font-family="Helvetica,sans-Serif" font-size="10.00">lua_close</text>
</a>
</g>
</g>
<!-- Node406&#45;&gt;Node407 -->
<g id="edge48_Node000406_Node000407" class="edge">
<title>Node406&#45;&gt;Node407</title>
<g id="a_edge48_Node000406_Node000407"><a xlink:title=" ">
<path fill="none" stroke="#63b8ff" d="M696.59,-179.47C674.22,-155.64 635.71,-114.61 617.96,-95.7"/>
<polygon fill="#63b8ff" stroke="#63b8ff" points="693.86,-181.69 703.26,-186.58 698.97,-176.9 693.86,-181.69"/>
</a>
</g>
</g>
<!-- Node362 -->
<g id="Node000362" class="node">
<title>Node362</title>
<g id="a_Node000362"><a xlink:href="lstate_8c.html#a02f761396ac35439932f4f0a7ff90b31" target="_top" xlink:title=" ">
<polygon fill="white" stroke="#666666" points="644.38,-207.25 570.62,-207.25 570.62,-188 644.38,-188 644.38,-207.25"/>
<text xml:space="preserve" text-anchor="middle" x="607.5" y="-193.75" font-family="Helvetica,sans-Serif" font-size="10.00">lua_newstate</text>
</a>
</g>
</g>
<!-- Node406&#45;&gt;Node362 -->
<g id="edge56_Node000406_Node000362" class="edge">
<title>Node406&#45;&gt;Node362</title>
<g id="a_edge56_Node000406_Node000362"><a xlink:title=" ">
<path fill="none" stroke="#63b8ff" d="M669.71,-197.62C661.36,-197.62 652.72,-197.62 644.64,-197.62"/>
<polygon fill="#63b8ff" stroke="#63b8ff" points="669.71,-201.13 679.71,-197.63 669.71,-194.13 669.71,-201.13"/>
</a>
</g>
</g>
<!-- Node407&#45;&gt;Node7 -->
<g id="edge49_Node000407_Node000007" class="edge">
<title>Node407&#45;&gt;Node7</title>
<g id="a_edge49_Node000407_Node000007"><a xlink:title=" ">
<path fill="none" stroke="#63b8ff" d="M567.87,-95.38C531.42,-105.2 475.68,-121.86 429.75,-142.62 400.15,-156.01 368.15,-176.5 350.17,-188.63"/>
<polygon fill="#63b8ff" stroke="#63b8ff" points="568.3,-98.88 577.07,-92.94 566.5,-92.12 568.3,-98.88"/>
</a>
</g>
</g>
<!-- Node79 -->
<g id="Node000079" class="node">
<title>Node79</title>
<g id="a_Node000079"><a xlink:href="loslib_8c.html#a905e81425fe3d6d0b363c10162a2a37b" target="_top" xlink:title=" ">
<polygon fill="white" stroke="#666666" points="505.38,-95.25 457.88,-95.25 457.88,-76 505.38,-76 505.38,-95.25"/>
<text xml:space="preserve" text-anchor="middle" x="481.62" y="-81.75" font-family="Helvetica,sans-Serif" font-size="10.00">os_exit</text>
</a>
</g>
</g>
<!-- Node407&#45;&gt;Node79 -->
<g id="edge50_Node000407_Node000079" class="edge">
<title>Node407&#45;&gt;Node79</title>
<g id="a_edge50_Node000407_Node000079"><a xlink:title=" ">
<path fill="none" stroke="#63b8ff" d="M566.99,-85.62C546.76,-85.62 522.84,-85.62 505.65,-85.62"/>
<polygon fill="#63b8ff" stroke="#63b8ff" points="566.88,-89.13 576.88,-85.63 566.88,-82.13 566.88,-89.13"/>
</a>
</g>
</g>
<!-- Node200 -->
<g id="Node000200" class="node">
<title>Node200</title>
<g id="a_Node000200"><a xlink:href="script_8c.html#a84508ce31c18af8792081eb1cdfc77b8" target="_top" xlink:title=" ">
<polygon fill="white" stroke="#666666" points="369,-57.25 300.5,-57.25 300.5,-38 369,-38 369,-57.25"/>
<text xml:space="preserve" text-anchor="middle" x="334.75" y="-43.75" font-family="Helvetica,sans-Serif" font-size="10.00">script_begin</text>
</a>
</g>
</g>
<!-- Node407&#45;&gt;Node200 -->
<g id="edge51_Node000407_Node000200" class="edge">
<title>Node407&#45;&gt;Node200</title>
<g id="a_edge51_Node000407_Node000200"><a xlink:title=" ">
<path fill="none" stroke="#63b8ff" d="M567.67,-74.3C556.7,-71.43 544.7,-68.61 533.5,-66.62 476.27,-56.49 408.71,-51.47 369.21,-49.22"/>
<polygon fill="#63b8ff" stroke="#63b8ff" points="566.62,-77.64 577.19,-76.87 568.45,-70.88 566.62,-77.64"/>
</a>
</g>
</g>
<!-- Node408 -->
<g id="Node000408" class="node">
<title>Node408</title>
<g id="a_Node000408"><a xlink:href="script_8c.html#a9e80871e044f7380196e6504f58f479b" target="_top" xlink:title=" ">
<polygon fill="white" stroke="#666666" points="512.12,-19.25 451.12,-19.25 451.12,0 512.12,0 512.12,-19.25"/>
<text xml:space="preserve" text-anchor="middle" x="481.62" y="-5.75" font-family="Helvetica,sans-Serif" font-size="10.00">script_end</text>
</a>
</g>
</g>
<!-- Node407&#45;&gt;Node408 -->
<g id="edge53_Node000407_Node000408" class="edge">
<title>Node407&#45;&gt;Node408</title>
<g id="a_edge53_Node000407_Node000408"><a xlink:title=" ">
<path fill="none" stroke="#63b8ff" d="M584.84,-68.65C570.67,-57.93 551.5,-44.17 533.5,-33.62 524.82,-28.54 514.89,-23.66 506.12,-19.65"/>
<polygon fill="#63b8ff" stroke="#63b8ff" points="582.52,-71.27 592.58,-74.58 586.78,-65.72 582.52,-71.27"/>
</a>
</g>
</g>
<!-- Node201 -->
<g id="Node000201" class="node">
<title>Node201</title>
<g id="a_Node000201"><a xlink:href="game__scene_8c.html#ab923ed4c6ccad95026e85e252071716d" target="_top" xlink:title=" ">
<polygon fill="#fff0f0" stroke="red" points="239.75,-39.25 120.25,-39.25 120.25,-20 239.75,-20 239.75,-39.25"/>
<text xml:space="preserve" text-anchor="middle" x="180" y="-25.75" font-family="Helvetica,sans-Serif" font-size="10.00">PGB_GameScene_new</text>
</a>
</g>
</g>
<!-- Node200&#45;&gt;Node201 -->
<g id="edge52_Node000200_Node000201" class="edge">
<title>Node200&#45;&gt;Node201</title>
<g id="a_edge52_Node000200_Node000201"><a xlink:title=" ">
<path fill="none" stroke="#63b8ff" d="M288.97,-42.35C273.64,-40.54 256.26,-38.49 239.99,-36.58"/>
<polygon fill="#63b8ff" stroke="#63b8ff" points="288.38,-45.8 298.73,-43.5 289.2,-38.85 288.38,-45.8"/>
</a>
</g>
</g>
<!-- Node409 -->
<g id="Node000409" class="node">
<title>Node409</title>
<g id="a_Node000409"><a xlink:href="game__scene_8c.html#a963582a448d4e4e2953e59d75b9d9f64" target="_top" xlink:title=" ">
<polygon fill="white" stroke="#666666" points="393.75,-20.25 275.75,-20.25 275.75,-1 393.75,-1 393.75,-20.25"/>
<text xml:space="preserve" text-anchor="middle" x="334.75" y="-6.75" font-family="Helvetica,sans-Serif" font-size="10.00">PGB_GameScene_free</text>
</a>
</g>
</g>
<!-- Node408&#45;&gt;Node409 -->
<g id="edge54_Node000408_Node000409" class="edge">
<title>Node408&#45;&gt;Node409</title>
<g id="a_edge54_Node000408_Node000409"><a xlink:title=" ">
<path fill="none" stroke="#63b8ff" d="M439.61,-9.91C425.47,-10.01 409.35,-10.12 394.1,-10.22"/>
<polygon fill="#63b8ff" stroke="#63b8ff" points="439.47,-13.41 449.44,-9.84 439.42,-6.41 439.47,-13.41"/>
</a>
</g>
</g>
<!-- Node409&#45;&gt;Node201 -->
<g id="edge55_Node000409_Node000201" class="edge">
<title>Node409&#45;&gt;Node201</title>
<g id="a_edge55_Node000409_Node000201"><a xlink:title=" ">
<path fill="none" stroke="#63b8ff" d="M264.24,-19.27C256.15,-20.28 247.96,-21.3 240.03,-22.28"/>
<polygon fill="#63b8ff" stroke="#63b8ff" points="264.57,-22.76 274.06,-18.05 263.71,-15.81 264.57,-22.76"/>
</a>
</g>
</g>
<!-- Node363 -->
<g id="Node000363" class="node">
<title>Node363</title>
<g id="a_Node000363"><a xlink:href="lstate_8c.html#a2fb9ffd0e5e6ea178123879892e87681" target="_top" xlink:title=" ">
<polygon fill="white" stroke="#666666" points="522.25,-208.25 441,-208.25 441,-189 522.25,-189 522.25,-208.25"/>
<text xml:space="preserve" text-anchor="middle" x="481.62" y="-194.75" font-family="Helvetica,sans-Serif" font-size="10.00">luai_makeseed</text>
</a>
</g>
</g>
<!-- Node362&#45;&gt;Node363 -->
<g id="edge57_Node000362_Node000363" class="edge">
<title>Node362&#45;&gt;Node363</title>
<g id="a_edge57_Node000362_Node000363"><a xlink:title=" ">
<path fill="none" stroke="#63b8ff" d="M559.07,-191.43C547.01,-191.24 534.17,-191.42 522.52,-191.95"/>
<polygon fill="#63b8ff" stroke="#63b8ff" points="558.74,-194.92 568.82,-191.68 558.92,-187.92 558.74,-194.92"/>
</a>
</g>
</g>
<!-- Node364 -->
<g id="Node000364" class="node">
<title>Node364</title>
<g id="a_Node000364"><a xlink:href="lauxlib_8c.html#abe0d4e1d9eb077cdeca0f58e80174f89" target="_top" xlink:title=" ">
<polygon fill="white" stroke="#666666" points="521.12,-171.25 442.12,-171.25 442.12,-152 521.12,-152 521.12,-171.25"/>
<text xml:space="preserve" text-anchor="middle" x="481.62" y="-157.75" font-family="Helvetica,sans-Serif" font-size="10.00">luaL_newstate</text>
</a>
</g>
</g>
<!-- Node362&#45;&gt;Node364 -->
<g id="edge59_Node000362_Node000364" class="edge">
<title>Node362&#45;&gt;Node364</title>
<g id="a_edge59_Node000362_Node000364"><a xlink:title=" ">
<path fill="none" stroke="#63b8ff" d="M560.92,-184.38C546.47,-180.18 530.74,-175.61 517.2,-171.67"/>
<polygon fill="#63b8ff" stroke="#63b8ff" points="559.63,-187.65 570.21,-187.08 561.58,-180.93 559.63,-187.65"/>
</a>
</g>
</g>
<!-- Node363&#45;&gt;Node362 -->
<g id="edge58_Node000363_Node000362" class="edge">
<title>Node363&#45;&gt;Node362</title>
<g id="a_edge58_Node000363_Node000362"><a xlink:title=" ">
<path fill="none" stroke="#63b8ff" d="M533.99,-204.87C546.2,-204.98 558.97,-204.72 570.34,-204.12"/>
<polygon fill="#63b8ff" stroke="#63b8ff" points="534.1,-201.37 524.03,-204.69 533.97,-208.37 534.1,-201.37"/>
</a>
</g>
</g>
<!-- Node364&#45;&gt;Node7 -->
<g id="edge60_Node000364_Node000007" class="edge">
<title>Node364&#45;&gt;Node7</title>
<g id="a_edge60_Node000364_Node000007"><a xlink:title=" ">
<path fill="none" stroke="#63b8ff" d="M430.68,-174.38C403.96,-181.2 372.71,-189.18 353.58,-194.07"/>
<polygon fill="#63b8ff" stroke="#63b8ff" points="431.51,-177.78 440.33,-171.91 429.78,-171 431.51,-177.78"/>
</a>
</g>
</g>
<!-- Node364&#45;&gt;Node200 -->
<g id="edge61_Node000364_Node000200" class="edge">
<title>Node364&#45;&gt;Node200</title>
<g id="a_edge61_Node000364_Node000200"><a xlink:title=" ">
<path fill="none" stroke="#63b8ff" d="M459.1,-144.69C428.44,-120.56 373.16,-77.06 348.37,-57.56"/>
<polygon fill="#63b8ff" stroke="#63b8ff" points="456.56,-147.14 466.58,-150.57 460.88,-141.64 456.56,-147.14"/>
</a>
</g>
</g>
<!-- Node418&#45;&gt;Node3 -->
<g id="edge63_Node000418_Node000003" class="edge">
<title>Node418&#45;&gt;Node3</title>
<g id="a_edge63_Node000418_Node000003"><a xlink:title=" ">
<path fill="none" stroke="#63b8ff" d="M924.05,-272.95C902.56,-273.11 877.23,-273.3 858.99,-273.44"/>
<polygon fill="#63b8ff" stroke="#63b8ff" points="924.04,-276.45 934.01,-272.87 923.98,-269.45 924.04,-276.45"/>
</a>
</g>
</g>
</g>
</svg>
