<?xml version="1.0" encoding="UTF-8" standalone="no"?>
<!DOCTYPE svg PUBLIC "-//W3C//DTD SVG 1.1//EN"
 "http://www.w3.org/Graphics/SVG/1.1/DTD/svg11.dtd">
<!-- Generated by graphviz version 13.1.0 (20250701.0955)
 -->
<!-- Title: src/library_scene.c Pages: 1 -->
<svg width="1316pt" height="481pt"
 viewBox="0.00 0.00 1316.00 481.00" xmlns="http://www.w3.org/2000/svg" xmlns:xlink="http://www.w3.org/1999/xlink">
<g id="graph0" class="graph" transform="scale(1 1) rotate(0) translate(4 476.5)">
<title>src/library_scene.c</title>
<!-- Node1 -->
<g id="Node000001" class="node">
<title>Node1</title>
<g id="a_Node000001"><a xlink:title=" ">
<polygon fill="#999999" stroke="#666666" points="1002.25,-472.5 903.75,-472.5 903.75,-453.25 1002.25,-453.25 1002.25,-472.5"/>
<text xml:space="preserve" text-anchor="middle" x="953" y="-459" font-family="Helvetica,sans-Serif" font-size="10.00">src/library_scene.c</text>
</a>
</g>
</g>
<!-- Node2 -->
<g id="Node000002" class="node">
<title>Node2</title>
<g id="a_Node000002"><a xlink:href="library__scene_8h.html" target="_top" xlink:title=" ">
<polygon fill="white" stroke="#666666" points="131,-245.88 49,-245.88 49,-226.62 131,-226.62 131,-245.88"/>
<text xml:space="preserve" text-anchor="middle" x="90" y="-232.38" font-family="Helvetica,sans-Serif" font-size="10.00">library_scene.h</text>
</a>
</g>
</g>
<!-- Node1&#45;&gt;Node2 -->
<g id="edge1_Node000001_Node000002" class="edge">
<title>Node1&#45;&gt;Node2</title>
<g id="a_edge1_Node000001_Node000002"><a xlink:title=" ">
<path fill="none" stroke="#63b8ff" d="M903.37,-460.92C773.99,-458.03 428.81,-447.61 319,-417.25 266.65,-402.78 253.66,-394.3 210,-362 166.3,-329.67 124.44,-280.74 103.64,-254.82"/>
<polygon fill="#63b8ff" stroke="#63b8ff" points="106.63,-252.95 97.68,-247.27 101.14,-257.29 106.63,-252.95"/>
</a>
</g>
</g>
<!-- Node10 -->
<g id="Node000010" class="node">
<title>Node10</title>
<g id="a_Node000010"><a xlink:href="minigb__apu_8h.html" target="_top" xlink:title=" ">
<polygon fill="white" stroke="#666666" points="951,-251.5 845,-251.5 845,-221 951,-221 951,-251.5"/>
<text xml:space="preserve" text-anchor="start" x="853" y="-238" font-family="Helvetica,sans-Serif" font-size="10.00">../minigb_apu/minigb</text>
<text xml:space="preserve" text-anchor="middle" x="898" y="-226.75" font-family="Helvetica,sans-Serif" font-size="10.00">_apu.h</text>
</a>
</g>
</g>
<!-- Node1&#45;&gt;Node10 -->
<g id="edge18_Node000001_Node000010" class="edge">
<title>Node1&#45;&gt;Node10</title>
<g id="a_edge18_Node000001_Node000010"><a xlink:title=" ">
<path fill="none" stroke="#63b8ff" d="M1002.75,-456.88C1028.54,-451.48 1057.93,-440.3 1074,-417.25 1092.93,-390.09 1089.47,-372.03 1074,-342.75 1050.93,-299.09 1001.24,-271.78 960.53,-255.91"/>
<polygon fill="#63b8ff" stroke="#63b8ff" points="961.86,-252.68 951.27,-252.46 959.42,-259.24 961.86,-252.68"/>
</a>
</g>
</g>
<!-- Node12 -->
<g id="Node000012" class="node">
<title>Node12</title>
<g id="a_Node000012"><a xlink:href="app_8h.html" target="_top" xlink:title=" ">
<polygon fill="white" stroke="#666666" points="789,-245.88 749,-245.88 749,-226.62 789,-226.62 789,-245.88"/>
<text xml:space="preserve" text-anchor="middle" x="769" y="-232.38" font-family="Helvetica,sans-Serif" font-size="10.00">app.h</text>
</a>
</g>
</g>
<!-- Node1&#45;&gt;Node12 -->
<g id="edge20_Node000001_Node000012" class="edge">
<title>Node1&#45;&gt;Node12</title>
<g id="a_edge20_Node000001_Node000012"><a xlink:title=" ">
<path fill="none" stroke="#63b8ff" d="M990.65,-452.79C1009.23,-446.21 1029.97,-435.2 1041,-417.25 1059.51,-387.1 1011.98,-350.25 1003,-342.75 940.6,-290.62 848.28,-259.21 800.39,-245.46"/>
<polygon fill="#63b8ff" stroke="#63b8ff" points="801.52,-242.14 790.95,-242.83 799.64,-248.89 801.52,-242.14"/>
</a>
</g>
</g>
<!-- Node14 -->
<g id="Node000014" class="node">
<title>Node14</title>
<g id="a_Node000014"><a xlink:href="credits__scene_8h.html" target="_top" xlink:title=" ">
<polygon fill="white" stroke="#666666" points="1031.5,-417.25 946.5,-417.25 946.5,-398 1031.5,-398 1031.5,-417.25"/>
<text xml:space="preserve" text-anchor="middle" x="989" y="-403.75" font-family="Helvetica,sans-Serif" font-size="10.00">credits_scene.h</text>
</a>
</g>
</g>
<!-- Node1&#45;&gt;Node14 -->
<g id="edge27_Node000001_Node000014" class="edge">
<title>Node1&#45;&gt;Node14</title>
<g id="a_edge27_Node000001_Node000014"><a xlink:title=" ">
<path fill="none" stroke="#63b8ff" d="M958.94,-453.08C963.71,-446.03 970.56,-435.9 976.52,-427.08"/>
<polygon fill="#63b8ff" stroke="#63b8ff" points="979.38,-429.11 982.08,-418.86 973.58,-425.19 979.38,-429.11"/>
</a>
</g>
</g>
<!-- Node15 -->
<g id="Node000015" class="node">
<title>Node15</title>
<g id="a_Node000015"><a xlink:href="game__scene_8h.html" target="_top" xlink:title=" ">
<polygon fill="white" stroke="#666666" points="993.88,-362 914.12,-362 914.12,-342.75 993.88,-342.75 993.88,-362"/>
<text xml:space="preserve" text-anchor="middle" x="954" y="-348.5" font-family="Helvetica,sans-Serif" font-size="10.00">game_scene.h</text>
</a>
</g>
</g>
<!-- Node1&#45;&gt;Node15 -->
<g id="edge55_Node000001_Node000015" class="edge">
<title>Node1&#45;&gt;Node15</title>
<g id="a_edge55_Node000001_Node000015"><a xlink:title=" ">
<path fill="none" stroke="#63b8ff" d="M948.51,-452.85C942.94,-440.54 934.57,-417.75 938,-398 939.48,-389.49 942.43,-380.46 945.41,-372.77"/>
<polygon fill="#63b8ff" stroke="#63b8ff" points="948.55,-374.33 949.16,-363.75 942.08,-371.64 948.55,-374.33"/>
</a>
</g>
</g>
<!-- Node17 -->
<g id="Node000017" class="node">
<title>Node17</title>
<g id="a_Node000017"><a xlink:href="preferences_8h.html" target="_top" xlink:title=" ">
<polygon fill="white" stroke="#666666" points="1214.38,-245.88 1113.62,-245.88 1113.62,-226.62 1214.38,-226.62 1214.38,-245.88"/>
<text xml:space="preserve" text-anchor="middle" x="1164" y="-232.38" font-family="Helvetica,sans-Serif" font-size="10.00">../src/preferences.h</text>
</a>
</g>
</g>
<!-- Node1&#45;&gt;Node17 -->
<g id="edge60_Node000001_Node000017" class="edge">
<title>Node1&#45;&gt;Node17</title>
<g id="a_edge60_Node000001_Node000017"><a xlink:title=" ">
<path fill="none" stroke="#63b8ff" d="M1002.74,-456.73C1032.23,-451.31 1068.5,-440.16 1093,-417.25 1139.97,-373.33 1156.4,-294.44 1161.69,-257.44"/>
<polygon fill="#63b8ff" stroke="#63b8ff" points="1165.14,-258.1 1162.94,-247.73 1158.19,-257.2 1165.14,-258.1"/>
</a>
</g>
</g>
<!-- Node25 -->
<g id="Node000025" class="node">
<title>Node25</title>
<g id="a_Node000025"><a xlink:href="dtcm_8h.html" target="_top" xlink:title=" ">
<polygon fill="white" stroke="#666666" points="46,-74.5 0,-74.5 0,-55.25 46,-55.25 46,-74.5"/>
<text xml:space="preserve" text-anchor="middle" x="23" y="-61" font-family="Helvetica,sans-Serif" font-size="10.00">dtcm.h</text>
</a>
</g>
</g>
<!-- Node1&#45;&gt;Node25 -->
<g id="edge52_Node000001_Node000025" class="edge">
<title>Node1&#45;&gt;Node25</title>
<g id="a_edge52_Node000001_Node000025"><a xlink:title=" ">
<path fill="none" stroke="#63b8ff" d="M903.55,-461.37C710.87,-458.74 21,-443.07 21,-353.38 21,-353.38 21,-353.38 21,-174.38 21,-143.65 21.81,-108.04 22.4,-86.24"/>
<polygon fill="#63b8ff" stroke="#63b8ff" points="25.9,-86.48 22.68,-76.39 18.9,-86.29 25.9,-86.48"/>
</a>
</g>
</g>
<!-- Node26 -->
<g id="Node000026" class="node">
<title>Node26</title>
<g id="a_Node000026"><a xlink:href="modal_8h.html" target="_top" xlink:title=" ">
<polygon fill="white" stroke="#666666" points="199.25,-245.88 148.75,-245.88 148.75,-226.62 199.25,-226.62 199.25,-245.88"/>
<text xml:space="preserve" text-anchor="middle" x="174" y="-232.38" font-family="Helvetica,sans-Serif" font-size="10.00">modal.h</text>
</a>
</g>
</g>
<!-- Node1&#45;&gt;Node26 -->
<g id="edge56_Node000001_Node000026" class="edge">
<title>Node1&#45;&gt;Node26</title>
<g id="a_edge56_Node000001_Node000026"><a xlink:title=" ">
<path fill="none" stroke="#63b8ff" d="M903.26,-460.99C758.36,-457.49 340.12,-440.67 233,-362 198.5,-336.67 183.42,-285.94 177.46,-257.6"/>
<polygon fill="#63b8ff" stroke="#63b8ff" points="180.9,-256.99 175.6,-247.81 174.02,-258.29 180.9,-256.99"/>
</a>
</g>
</g>
<!-- Node27 -->
<g id="Node000027" class="node">
<title>Node27</title>
<g id="a_Node000027"><a xlink:href="settings__scene_8h.html" target="_top" xlink:title=" ">
<polygon fill="white" stroke="#666666" points="890.12,-417.25 799.88,-417.25 799.88,-398 890.12,-398 890.12,-417.25"/>
<text xml:space="preserve" text-anchor="middle" x="845" y="-403.75" font-family="Helvetica,sans-Serif" font-size="10.00">settings_scene.h</text>
</a>
</g>
</g>
<!-- Node1&#45;&gt;Node27 -->
<g id="edge61_Node000001_Node000027" class="edge">
<title>Node1&#45;&gt;Node27</title>
<g id="a_edge61_Node000001_Node000027"><a xlink:title=" ">
<path fill="none" stroke="#63b8ff" d="M934.68,-452.84C917.92,-444.58 892.87,-432.23 873.5,-422.68"/>
<polygon fill="#63b8ff" stroke="#63b8ff" points="875.28,-419.65 864.77,-418.37 872.19,-425.93 875.28,-419.65"/>
</a>
</g>
</g>
<!-- Node28 -->
<g id="Node000028" class="node">
<title>Node28</title>
<g id="a_Node000028"><a xlink:href="version_8h.html" target="_top" xlink:title=" ">
<polygon fill="white" stroke="#666666" points="1307.88,-417.25 1252.12,-417.25 1252.12,-398 1307.88,-398 1307.88,-417.25"/>
<text xml:space="preserve" text-anchor="middle" x="1280" y="-403.75" font-family="Helvetica,sans-Serif" font-size="10.00">version.h</text>
</a>
</g>
</g>
<!-- Node1&#45;&gt;Node28 -->
<g id="edge65_Node000001_Node000028" class="edge">
<title>Node1&#45;&gt;Node28</title>
<g id="a_edge65_Node000001_Node000028"><a xlink:title=" ">
<path fill="none" stroke="#63b8ff" d="M1002.55,-454.84C1059.49,-446.59 1155.7,-432.14 1238,-417.25 1238.99,-417.07 1240,-416.89 1241.01,-416.7"/>
<polygon fill="#63b8ff" stroke="#63b8ff" points="1241.38,-420.19 1250.54,-414.85 1240.05,-413.32 1241.38,-420.19"/>
</a>
</g>
</g>
<!-- Node3 -->
<g id="Node000003" class="node">
<title>Node3</title>
<g id="a_Node000003"><a xlink:href="array_8h.html" target="_top" xlink:title=" ">
<polygon fill="white" stroke="#666666" points="108.25,-74.5 63.75,-74.5 63.75,-55.25 108.25,-55.25 108.25,-74.5"/>
<text xml:space="preserve" text-anchor="middle" x="86" y="-61" font-family="Helvetica,sans-Serif" font-size="10.00">array.h</text>
</a>
</g>
</g>
<!-- Node2&#45;&gt;Node3 -->
<g id="edge2_Node000002_Node000003" class="edge">
<title>Node2&#45;&gt;Node3</title>
<g id="a_edge2_Node000002_Node000003"><a xlink:title=" ">
<path fill="none" stroke="#63b8ff" d="M87.7,-226.43C85.22,-216.46 81.45,-199.69 80,-185 76.59,-150.4 80.23,-109.94 83.15,-86.19"/>
<polygon fill="#63b8ff" stroke="#63b8ff" points="86.61,-86.74 84.44,-76.36 79.67,-85.82 86.61,-86.74"/>
</a>
</g>
</g>
<!-- Node5 -->
<g id="Node000005" class="node">
<title>Node5</title>
<g id="a_Node000005"><a xlink:title=" ">
<polygon fill="#e0e0e0" stroke="#999999" points="563.62,-19.25 518.38,-19.25 518.38,0 563.62,0 563.62,-19.25"/>
<text xml:space="preserve" text-anchor="middle" x="541" y="-5.75" font-family="Helvetica,sans-Serif" font-size="10.00">stdio.h</text>
</a>
</g>
</g>
<!-- Node2&#45;&gt;Node5 -->
<g id="edge17_Node000002_Node000005" class="edge">
<title>Node2&#45;&gt;Node5</title>
<g id="a_edge17_Node000002_Node000005"><a xlink:title=" ">
<path fill="none" stroke="#63b8ff" d="M104.95,-226.17C118.96,-217.09 139.82,-202.05 154,-185 177.9,-156.26 168.76,-138.94 193,-110.5 219.63,-79.26 229.22,-71.29 267,-55.25 348.08,-20.84 453.05,-12.81 506.46,-11.04"/>
<polygon fill="#63b8ff" stroke="#63b8ff" points="506.56,-14.54 516.46,-10.77 506.37,-7.54 506.56,-14.54"/>
</a>
</g>
</g>
<!-- Node6 -->
<g id="Node000006" class="node">
<title>Node6</title>
<g id="a_Node000006"><a xlink:href="listview_8h.html" target="_top" xlink:title=" ">
<polygon fill="white" stroke="#666666" points="144.88,-185 89.12,-185 89.12,-165.75 144.88,-165.75 144.88,-185"/>
<text xml:space="preserve" text-anchor="middle" x="117" y="-171.5" font-family="Helvetica,sans-Serif" font-size="10.00">listview.h</text>
</a>
</g>
</g>
<!-- Node2&#45;&gt;Node6 -->
<g id="edge5_Node000002_Node000006" class="edge">
<title>Node2&#45;&gt;Node6</title>
<g id="a_edge5_Node000002_Node000006"><a xlink:title=" ">
<path fill="none" stroke="#63b8ff" d="M94.1,-226.31C97.83,-218.18 103.45,-205.92 108.19,-195.58"/>
<polygon fill="#63b8ff" stroke="#63b8ff" points="111.24,-197.33 112.23,-186.78 104.88,-194.41 111.24,-197.33"/>
</a>
</g>
</g>
<!-- Node9 -->
<g id="Node000009" class="node">
<title>Node9</title>
<g id="a_Node000009"><a xlink:href="scene_8h.html" target="_top" xlink:title=" ">
<polygon fill="white" stroke="#666666" points="327.25,-185 276.75,-185 276.75,-165.75 327.25,-165.75 327.25,-185"/>
<text xml:space="preserve" text-anchor="middle" x="302" y="-171.5" font-family="Helvetica,sans-Serif" font-size="10.00">scene.h</text>
</a>
</g>
</g>
<!-- Node2&#45;&gt;Node9 -->
<g id="edge13_Node000002_Node000009" class="edge">
<title>Node2&#45;&gt;Node9</title>
<g id="a_edge13_Node000002_Node000009"><a xlink:title=" ">
<path fill="none" stroke="#63b8ff" d="M121.73,-226.16C127.79,-224.44 134.09,-222.66 140,-221 183.09,-208.92 232.72,-195.3 265.57,-186.31"/>
<polygon fill="#63b8ff" stroke="#63b8ff" points="266.26,-189.75 274.99,-183.74 264.42,-183 266.26,-189.75"/>
</a>
</g>
</g>
<!-- Node4 -->
<g id="Node000004" class="node">
<title>Node4</title>
<g id="a_Node000004"><a xlink:title=" ">
<polygon fill="#e0e0e0" stroke="#999999" points="113.88,-19.25 58.12,-19.25 58.12,0 113.88,0 113.88,-19.25"/>
<text xml:space="preserve" text-anchor="middle" x="86" y="-5.75" font-family="Helvetica,sans-Serif" font-size="10.00">stdbool.h</text>
</a>
</g>
</g>
<!-- Node3&#45;&gt;Node4 -->
<g id="edge3_Node000003_Node000004" class="edge">
<title>Node3&#45;&gt;Node4</title>
<g id="a_edge3_Node000003_Node000004"><a xlink:title=" ">
<path fill="none" stroke="#63b8ff" d="M86,-55.08C86,-48.57 86,-39.42 86,-31.12"/>
<polygon fill="#63b8ff" stroke="#63b8ff" points="89.5,-31.12 86,-21.12 82.5,-31.12 89.5,-31.12"/>
</a>
</g>
</g>
<!-- Node3&#45;&gt;Node5 -->
<g id="edge4_Node000003_Node000005" class="edge">
<title>Node3&#45;&gt;Node5</title>
<g id="a_edge4_Node000003_Node000005"><a xlink:title=" ">
<path fill="none" stroke="#63b8ff" d="M108.38,-58.04C112.87,-57 117.57,-56.01 122,-55.25 263.75,-30.83 434.93,-17.6 506.71,-12.77"/>
<polygon fill="#63b8ff" stroke="#63b8ff" points="506.89,-16.27 516.64,-12.12 506.43,-9.28 506.89,-16.27"/>
</a>
</g>
</g>
<!-- Node6&#45;&gt;Node3 -->
<g id="edge6_Node000006_Node000003" class="edge">
<title>Node6&#45;&gt;Node3</title>
<g id="a_edge6_Node000006_Node000003"><a xlink:title=" ">
<path fill="none" stroke="#63b8ff" d="M114.46,-165.5C109.51,-148.17 98.46,-109.48 91.67,-85.74"/>
<polygon fill="#63b8ff" stroke="#63b8ff" points="95.1,-84.99 88.99,-76.33 88.37,-86.91 95.1,-84.99"/>
</a>
</g>
</g>
<!-- Node6&#45;&gt;Node5 -->
<g id="edge12_Node000006_Node000005" class="edge">
<title>Node6&#45;&gt;Node5</title>
<g id="a_edge12_Node000006_Node000005"><a xlink:title=" ">
<path fill="none" stroke="#63b8ff" d="M120.16,-165.26C128.63,-142.3 154.26,-82 198,-55.25 249.3,-23.88 430.28,-14.28 506.62,-11.59"/>
<polygon fill="#63b8ff" stroke="#63b8ff" points="506.55,-15.09 516.43,-11.26 506.32,-8.1 506.55,-15.09"/>
</a>
</g>
</g>
<!-- Node7 -->
<g id="Node000007" class="node">
<title>Node7</title>
<g id="a_Node000007"><a xlink:href="utility_8h.html" target="_top" xlink:title=" ">
<polygon fill="white" stroke="#666666" points="248,-129.75 202,-129.75 202,-110.5 248,-110.5 248,-129.75"/>
<text xml:space="preserve" text-anchor="middle" x="225" y="-116.25" font-family="Helvetica,sans-Serif" font-size="10.00">utility.h</text>
</a>
</g>
</g>
<!-- Node6&#45;&gt;Node7 -->
<g id="edge7_Node000006_Node000007" class="edge">
<title>Node6&#45;&gt;Node7</title>
<g id="a_edge7_Node000006_Node000007"><a xlink:title=" ">
<path fill="none" stroke="#63b8ff" d="M135.32,-165.34C152.08,-157.08 177.13,-144.73 196.5,-135.18"/>
<polygon fill="#63b8ff" stroke="#63b8ff" points="197.81,-138.43 205.23,-130.87 194.72,-132.15 197.81,-138.43"/>
</a>
</g>
</g>
<!-- Node7&#45;&gt;Node3 -->
<g id="edge8_Node000007_Node000003" class="edge">
<title>Node7&#45;&gt;Node3</title>
<g id="a_edge8_Node000007_Node000003"><a xlink:title=" ">
<path fill="none" stroke="#63b8ff" d="M201.73,-110.21C179.11,-101.55 144.54,-88.3 119.06,-78.54"/>
<polygon fill="#63b8ff" stroke="#63b8ff" points="120.42,-75.31 109.83,-75.01 117.92,-81.85 120.42,-75.31"/>
</a>
</g>
</g>
<!-- Node7&#45;&gt;Node4 -->
<g id="edge10_Node000007_Node000004" class="edge">
<title>Node7&#45;&gt;Node4</title>
<g id="a_edge10_Node000007_Node000004"><a xlink:title=" ">
<path fill="none" stroke="#63b8ff" d="M213.63,-110.25C190.21,-91.97 136.32,-49.9 106.6,-26.71"/>
<polygon fill="#63b8ff" stroke="#63b8ff" points="108.76,-23.95 98.73,-20.56 104.45,-29.47 108.76,-23.95"/>
</a>
</g>
</g>
<!-- Node7&#45;&gt;Node5 -->
<g id="edge11_Node000007_Node000005" class="edge">
<title>Node7&#45;&gt;Node5</title>
<g id="a_edge11_Node000007_Node000005"><a xlink:title=" ">
<path fill="none" stroke="#63b8ff" d="M232.72,-110.02C245.27,-95.86 271.59,-68.78 300,-55.25 368.54,-22.63 458.57,-13.8 506.87,-11.45"/>
<polygon fill="#63b8ff" stroke="#63b8ff" points="506.85,-14.95 516.7,-11.04 506.57,-7.96 506.85,-14.95"/>
</a>
</g>
</g>
<!-- Node8 -->
<g id="Node000008" class="node">
<title>Node8</title>
<g id="a_Node000008"><a xlink:title=" ">
<polygon fill="#e0e0e0" stroke="#999999" points="394.38,-74.5 341.62,-74.5 341.62,-55.25 394.38,-55.25 394.38,-74.5"/>
<text xml:space="preserve" text-anchor="middle" x="368" y="-61" font-family="Helvetica,sans-Serif" font-size="10.00">pd_api.h</text>
</a>
</g>
</g>
<!-- Node7&#45;&gt;Node8 -->
<g id="edge9_Node000007_Node000008" class="edge">
<title>Node7&#45;&gt;Node8</title>
<g id="a_edge9_Node000007_Node000008"><a xlink:title=" ">
<path fill="none" stroke="#63b8ff" d="M248.29,-110.45C271.28,-101.89 306.72,-88.69 333.08,-78.88"/>
<polygon fill="#63b8ff" stroke="#63b8ff" points="334.19,-82.2 342.34,-75.43 331.75,-75.64 334.19,-82.2"/>
</a>
</g>
</g>
<!-- Node9&#45;&gt;Node5 -->
<g id="edge16_Node000009_Node000005" class="edge">
<title>Node9&#45;&gt;Node5</title>
<g id="a_edge16_Node000009_Node000005"><a xlink:title=" ">
<path fill="none" stroke="#63b8ff" d="M301.42,-165.36C300.52,-143.15 301.51,-85.4 333,-55.25 357.56,-31.73 454.42,-18.96 506.85,-13.64"/>
<polygon fill="#63b8ff" stroke="#63b8ff" points="507.12,-17.13 516.73,-12.68 506.44,-10.16 507.12,-17.13"/>
</a>
</g>
</g>
<!-- Node9&#45;&gt;Node7 -->
<g id="edge15_Node000009_Node000007" class="edge">
<title>Node9&#45;&gt;Node7</title>
<g id="a_edge15_Node000009_Node000007"><a xlink:title=" ">
<path fill="none" stroke="#63b8ff" d="M288.94,-165.34C277.54,-157.46 260.77,-145.86 247.26,-136.52"/>
<polygon fill="#63b8ff" stroke="#63b8ff" points="249.59,-133.87 239.37,-131.06 245.6,-139.63 249.59,-133.87"/>
</a>
</g>
</g>
<!-- Node9&#45;&gt;Node8 -->
<g id="edge14_Node000009_Node000008" class="edge">
<title>Node9&#45;&gt;Node8</title>
<g id="a_edge14_Node000009_Node000008"><a xlink:title=" ">
<path fill="none" stroke="#63b8ff" d="M307.4,-165.5C318.13,-147.85 342.34,-108.05 356.7,-84.45"/>
<polygon fill="#63b8ff" stroke="#63b8ff" points="359.53,-86.53 361.74,-76.17 353.55,-82.89 359.53,-86.53"/>
</a>
</g>
</g>
<!-- Node11 -->
<g id="Node000011" class="node">
<title>Node11</title>
<g id="a_Node000011"><a xlink:title=" ">
<polygon fill="#e0e0e0" stroke="#999999" points="902.12,-185 853.88,-185 853.88,-165.75 902.12,-165.75 902.12,-185"/>
<text xml:space="preserve" text-anchor="middle" x="878" y="-171.5" font-family="Helvetica,sans-Serif" font-size="10.00">stdint.h</text>
</a>
</g>
</g>
<!-- Node10&#45;&gt;Node11 -->
<g id="edge19_Node000010_Node000011" class="edge">
<title>Node10&#45;&gt;Node11</title>
<g id="a_edge19_Node000010_Node000011"><a xlink:title=" ">
<path fill="none" stroke="#63b8ff" d="M893.06,-220.7C890.54,-213.28 887.44,-204.16 884.71,-196.13"/>
<polygon fill="#63b8ff" stroke="#63b8ff" points="888.1,-195.23 881.57,-186.88 881.47,-197.48 888.1,-195.23"/>
</a>
</g>
</g>
<!-- Node12&#45;&gt;Node5 -->
<g id="edge26_Node000012_Node000005" class="edge">
<title>Node12&#45;&gt;Node5</title>
<g id="a_edge26_Node000012_Node000005"><a xlink:title=" ">
<path fill="none" stroke="#63b8ff" d="M767.49,-226.37C764.75,-212.36 757.93,-184.79 744,-165.75 695.94,-100.09 612.51,-48.87 569.09,-25.12"/>
<polygon fill="#63b8ff" stroke="#63b8ff" points="570.76,-22.04 560.29,-20.39 567.45,-28.21 570.76,-22.04"/>
</a>
</g>
</g>
<!-- Node12&#45;&gt;Node7 -->
<g id="edge23_Node000012_Node000007" class="edge">
<title>Node12&#45;&gt;Node7</title>
<g id="a_edge23_Node000012_Node000007"><a xlink:title=" ">
<path fill="none" stroke="#63b8ff" d="M762.64,-226.52C750.87,-211.14 724.05,-179.54 693,-165.75 615.37,-131.28 354.64,-123.36 259.83,-121.61"/>
<polygon fill="#63b8ff" stroke="#63b8ff" points="259.92,-118.11 249.87,-121.44 259.8,-125.11 259.92,-118.11"/>
</a>
</g>
</g>
<!-- Node12&#45;&gt;Node8 -->
<g id="edge21_Node000012_Node000008" class="edge">
<title>Node12&#45;&gt;Node8</title>
<g id="a_edge21_Node000012_Node000008"><a xlink:title=" ">
<path fill="none" stroke="#63b8ff" d="M765.38,-226.54C758.8,-211.75 743.42,-181.79 721,-165.75 622.09,-94.98 474.33,-74.22 405.63,-68.24"/>
<polygon fill="#63b8ff" stroke="#63b8ff" points="406.28,-64.78 396.04,-67.46 405.72,-71.75 406.28,-64.78"/>
</a>
</g>
</g>
<!-- Node12&#45;&gt;Node9 -->
<g id="edge22_Node000012_Node000009" class="edge">
<title>Node12&#45;&gt;Node9</title>
<g id="a_edge22_Node000012_Node000009"><a xlink:title=" ">
<path fill="none" stroke="#63b8ff" d="M748.57,-230.36C735.35,-227.33 717.73,-223.54 702,-221 568.98,-199.49 409.38,-185.06 338.74,-179.25"/>
<polygon fill="#63b8ff" stroke="#63b8ff" points="339.15,-175.78 328.9,-178.46 338.58,-182.75 339.15,-175.78"/>
</a>
</g>
</g>
<!-- Node12&#45;&gt;Node11 -->
<g id="edge25_Node000012_Node000011" class="edge">
<title>Node12&#45;&gt;Node11</title>
<g id="a_edge25_Node000012_Node000011"><a xlink:title=" ">
<path fill="none" stroke="#63b8ff" d="M785.55,-226.31C803,-216.88 830.75,-201.9 851.29,-190.8"/>
<polygon fill="#63b8ff" stroke="#63b8ff" points="852.82,-193.95 859.96,-186.12 849.5,-187.79 852.82,-193.95"/>
</a>
</g>
</g>
<!-- Node13 -->
<g id="Node000013" class="node">
<title>Node13</title>
<g id="a_Node000013"><a xlink:title=" ">
<polygon fill="#e0e0e0" stroke="#999999" points="684,-185 638,-185 638,-165.75 684,-165.75 684,-185"/>
<text xml:space="preserve" text-anchor="middle" x="661" y="-171.5" font-family="Helvetica,sans-Serif" font-size="10.00">math.h</text>
</a>
</g>
</g>
<!-- Node12&#45;&gt;Node13 -->
<g id="edge24_Node000012_Node000013" class="edge">
<title>Node12&#45;&gt;Node13</title>
<g id="a_edge24_Node000012_Node000013"><a xlink:title=" ">
<path fill="none" stroke="#63b8ff" d="M752.6,-226.31C735.31,-216.88 707.82,-201.9 687.46,-190.8"/>
<polygon fill="#63b8ff" stroke="#63b8ff" points="689.34,-187.84 678.89,-186.13 685.99,-193.98 689.34,-187.84"/>
</a>
</g>
</g>
<!-- Node14&#45;&gt;Node5 -->
<g id="edge51_Node000014_Node000005" class="edge">
<title>Node14&#45;&gt;Node5</title>
<g id="a_edge51_Node000014_Node000005"><a xlink:title=" ">
<path fill="none" stroke="#63b8ff" d="M1013.17,-397.61C1061.04,-378.46 1168.04,-329.05 1223,-251.5 1242.91,-223.4 1242,-210.82 1242,-176.38 1242,-176.38 1242,-176.38 1242,-119.12 1242,-37.16 1149,-73.06 1069,-55.25 886.27,-14.58 660.42,-10.37 575.46,-10.35"/>
<polygon fill="#63b8ff" stroke="#63b8ff" points="575.48,-6.85 565.49,-10.37 575.49,-13.85 575.48,-6.85"/>
</a>
</g>
</g>
<!-- Node14&#45;&gt;Node9 -->
<g id="edge50_Node000014_Node000009" class="edge">
<title>Node14&#45;&gt;Node9</title>
<g id="a_edge50_Node000014_Node000009"><a xlink:title=" ">
<path fill="none" stroke="#63b8ff" d="M946.4,-400.75C832.34,-384.76 522.03,-339.46 424,-306.75 372.48,-289.56 347.28,-295.18 315,-251.5 303.33,-235.71 300.82,-212.99 300.77,-196.68"/>
<polygon fill="#63b8ff" stroke="#63b8ff" points="304.27,-196.84 301.09,-186.74 297.27,-196.62 304.27,-196.84"/>
</a>
</g>
</g>
<!-- Node14&#45;&gt;Node15 -->
<g id="edge28_Node000014_Node000015" class="edge">
<title>Node14&#45;&gt;Node15</title>
<g id="a_edge28_Node000014_Node000015"><a xlink:title=" ">
<path fill="none" stroke="#63b8ff" d="M983.22,-397.83C978.59,-390.78 971.93,-380.65 966.13,-371.83"/>
<polygon fill="#63b8ff" stroke="#63b8ff" points="969.15,-370.06 960.74,-363.62 963.3,-373.9 969.15,-370.06"/>
</a>
</g>
</g>
<!-- Node24 -->
<g id="Node000024" class="node">
<title>Node24</title>
<g id="a_Node000024"><a xlink:href="jparse_8h.html" target="_top" xlink:title=" ">
<polygon fill="white" stroke="#666666" points="1095.25,-245.88 1044.75,-245.88 1044.75,-226.62 1095.25,-226.62 1095.25,-245.88"/>
<text xml:space="preserve" text-anchor="middle" x="1070" y="-232.38" font-family="Helvetica,sans-Serif" font-size="10.00">jparse.h</text>
</a>
</g>
</g>
<!-- Node14&#45;&gt;Node24 -->
<g id="edge47_Node000014_Node000024" class="edge">
<title>Node14&#45;&gt;Node24</title>
<g id="a_edge47_Node000014_Node000024"><a xlink:title=" ">
<path fill="none" stroke="#63b8ff" d="M993.35,-397.52C1006.11,-370.86 1043.55,-292.56 1060.94,-256.2"/>
<polygon fill="#63b8ff" stroke="#63b8ff" points="1064.01,-257.89 1065.17,-247.36 1057.69,-254.87 1064.01,-257.89"/>
</a>
</g>
</g>
<!-- Node15&#45;&gt;Node5 -->
<g id="edge46_Node000015_Node000005" class="edge">
<title>Node15&#45;&gt;Node5</title>
<g id="a_edge46_Node000015_Node000005"><a xlink:title=" ">
<path fill="none" stroke="#63b8ff" d="M963.3,-342.26C980.82,-324.06 1017,-281.16 1017,-237.25 1017,-237.25 1017,-237.25 1017,-119.12 1017,-88.8 1017.05,-73.72 993,-55.25 960.06,-29.95 675.12,-16.07 575.34,-11.95"/>
<polygon fill="#63b8ff" stroke="#63b8ff" points="575.5,-8.45 565.36,-11.54 575.21,-15.44 575.5,-8.45"/>
</a>
</g>
</g>
<!-- Node15&#45;&gt;Node9 -->
<g id="edge44_Node000015_Node000009" class="edge">
<title>Node15&#45;&gt;Node9</title>
<g id="a_edge44_Node000015_Node000009"><a xlink:title=" ">
<path fill="none" stroke="#63b8ff" d="M913.93,-349.79C792.55,-344.23 431.73,-322 342,-251.5 324.15,-237.47 313.32,-213.23 307.51,-196.08"/>
<polygon fill="#63b8ff" stroke="#63b8ff" points="310.93,-195.3 304.65,-186.77 304.24,-197.36 310.93,-195.3"/>
</a>
</g>
</g>
<!-- Node15&#45;&gt;Node13 -->
<g id="edge45_Node000015_Node000013" class="edge">
<title>Node15&#45;&gt;Node13</title>
<g id="a_edge45_Node000015_Node000013"><a xlink:title=" ">
<path fill="none" stroke="#63b8ff" d="M927.87,-342.33C886.07,-327.18 802.5,-294.12 740,-251.5 715.2,-234.59 690.8,-209.79 675.83,-193.37"/>
<polygon fill="#63b8ff" stroke="#63b8ff" points="678.82,-191.47 669.55,-186.35 673.6,-196.13 678.82,-191.47"/>
</a>
</g>
</g>
<!-- Node16 -->
<g id="Node000016" class="node">
<title>Node16</title>
<g id="a_Node000016"><a xlink:href="peanut__gb_8h.html" target="_top" xlink:title=" ">
<polygon fill="white" stroke="#666666" points="693.12,-306.75 566.88,-306.75 566.88,-287.5 693.12,-287.5 693.12,-306.75"/>
<text xml:space="preserve" text-anchor="middle" x="630" y="-293.25" font-family="Helvetica,sans-Serif" font-size="10.00">../peanut_gb/peanut_gb.h</text>
</a>
</g>
</g>
<!-- Node15&#45;&gt;Node16 -->
<g id="edge29_Node000015_Node000016" class="edge">
<title>Node15&#45;&gt;Node16</title>
<g id="a_edge29_Node000015_Node000016"><a xlink:title=" ">
<path fill="none" stroke="#63b8ff" d="M913.95,-344.79C859.61,-335.86 761.83,-319.79 696.41,-309.04"/>
<polygon fill="#63b8ff" stroke="#63b8ff" points="697.33,-305.64 686.89,-307.48 696.19,-312.55 697.33,-305.64"/>
</a>
</g>
</g>
<!-- Node15&#45;&gt;Node17 -->
<g id="edge43_Node000015_Node000017" class="edge">
<title>Node15&#45;&gt;Node17</title>
<g id="a_edge43_Node000015_Node000017"><a xlink:title=" ">
<path fill="none" stroke="#63b8ff" d="M970.48,-342.42C1006.66,-322.76 1093.3,-275.67 1137.34,-251.74"/>
<polygon fill="#63b8ff" stroke="#63b8ff" points="1138.86,-254.89 1145.98,-247.04 1135.52,-248.74 1138.86,-254.89"/>
</a>
</g>
</g>
<!-- Node16&#45;&gt;Node7 -->
<g id="edge36_Node000016_Node000007" class="edge">
<title>Node16&#45;&gt;Node7</title>
<g id="a_edge36_Node000016_Node000007"><a xlink:title=" ">
<path fill="none" stroke="#63b8ff" d="M566.44,-293.36C496.39,-289 389.67,-278.1 360,-251.5 330.53,-225.08 362.41,-195.22 336,-165.75 316.25,-143.72 284.12,-132.39 259.49,-126.67"/>
<polygon fill="#63b8ff" stroke="#63b8ff" points="260.42,-123.29 249.92,-124.67 258.99,-130.14 260.42,-123.29"/>
</a>
</g>
</g>
<!-- Node16&#45;&gt;Node10 -->
<g id="edge30_Node000016_Node000010" class="edge">
<title>Node16&#45;&gt;Node10</title>
<g id="a_edge30_Node000016_Node000010"><a xlink:title=" ">
<path fill="none" stroke="#63b8ff" d="M671.29,-287.05C714.56,-277.55 783.13,-262.48 833.54,-251.41"/>
<polygon fill="#63b8ff" stroke="#63b8ff" points="834.15,-254.86 843.17,-249.3 832.65,-248.02 834.15,-254.86"/>
</a>
</g>
</g>
<!-- Node16&#45;&gt;Node11 -->
<g id="edge39_Node000016_Node000011" class="edge">
<title>Node16&#45;&gt;Node11</title>
<g id="a_edge39_Node000016_Node000011"><a xlink:title=" ">
<path fill="none" stroke="#63b8ff" d="M693.04,-287.01C725.82,-280.43 765.68,-269.44 798,-251.5 812.16,-243.64 842.78,-213.1 861.76,-193.46"/>
<polygon fill="#63b8ff" stroke="#63b8ff" points="864.12,-196.06 868.52,-186.42 859.07,-191.21 864.12,-196.06"/>
</a>
</g>
</g>
<!-- Node16&#45;&gt;Node12 -->
<g id="edge31_Node000016_Node000012" class="edge">
<title>Node16&#45;&gt;Node12</title>
<g id="a_edge31_Node000016_Node000012"><a xlink:title=" ">
<path fill="none" stroke="#63b8ff" d="M651.41,-287.05C674.6,-277.23 711.8,-261.48 738.14,-250.32"/>
<polygon fill="#63b8ff" stroke="#63b8ff" points="739.46,-253.56 747.3,-246.44 736.73,-247.12 739.46,-253.56"/>
</a>
</g>
</g>
<!-- Node16&#45;&gt;Node17 -->
<g id="edge32_Node000016_Node000017" class="edge">
<title>Node16&#45;&gt;Node17</title>
<g id="a_edge32_Node000016_Node000017"><a xlink:title=" ">
<path fill="none" stroke="#63b8ff" d="M693.61,-292.96C784.93,-287.77 958.22,-275.55 1104,-251.5 1108.63,-250.74 1113.44,-249.81 1118.23,-248.81"/>
<polygon fill="#63b8ff" stroke="#63b8ff" points="1118.78,-252.27 1127.79,-246.69 1117.27,-245.44 1118.78,-252.27"/>
</a>
</g>
</g>
<!-- Node19 -->
<g id="Node000019" class="node">
<title>Node19</title>
<g id="a_Node000019"><a xlink:title=" ">
<polygon fill="#e0e0e0" stroke="#999999" points="623.12,-245.88 562.88,-245.88 562.88,-226.62 623.12,-226.62 623.12,-245.88"/>
<text xml:space="preserve" text-anchor="middle" x="593" y="-232.38" font-family="Helvetica,sans-Serif" font-size="10.00">version.all</text>
</a>
</g>
</g>
<!-- Node16&#45;&gt;Node19 -->
<g id="edge37_Node000016_Node000019" class="edge">
<title>Node16&#45;&gt;Node19</title>
<g id="a_edge37_Node000016_Node000019"><a xlink:title=" ">
<path fill="none" stroke="#63b8ff" d="M624.38,-287.18C619.16,-278.88 611.24,-266.27 604.66,-255.8"/>
<polygon fill="#63b8ff" stroke="#63b8ff" points="607.76,-254.16 599.48,-247.56 601.84,-257.89 607.76,-254.16"/>
</a>
</g>
</g>
<!-- Node20 -->
<g id="Node000020" class="node">
<title>Node20</title>
<g id="a_Node000020"><a xlink:title=" ">
<polygon fill="#e0e0e0" stroke="#999999" points="692.62,-245.88 641.38,-245.88 641.38,-226.62 692.62,-226.62 692.62,-245.88"/>
<text xml:space="preserve" text-anchor="middle" x="667" y="-232.38" font-family="Helvetica,sans-Serif" font-size="10.00">stddef.h</text>
</a>
</g>
</g>
<!-- Node16&#45;&gt;Node20 -->
<g id="edge38_Node000016_Node000020" class="edge">
<title>Node16&#45;&gt;Node20</title>
<g id="a_edge38_Node000016_Node000020"><a xlink:title=" ">
<path fill="none" stroke="#63b8ff" d="M635.62,-287.18C640.84,-278.88 648.76,-266.27 655.34,-255.8"/>
<polygon fill="#63b8ff" stroke="#63b8ff" points="658.16,-257.89 660.52,-247.56 652.24,-254.16 658.16,-257.89"/>
</a>
</g>
</g>
<!-- Node21 -->
<g id="Node000021" class="node">
<title>Node21</title>
<g id="a_Node000021"><a xlink:title=" ">
<polygon fill="#e0e0e0" stroke="#999999" points="416.75,-245.88 369.25,-245.88 369.25,-226.62 416.75,-226.62 416.75,-245.88"/>
<text xml:space="preserve" text-anchor="middle" x="393" y="-232.38" font-family="Helvetica,sans-Serif" font-size="10.00">stdlib.h</text>
</a>
</g>
</g>
<!-- Node16&#45;&gt;Node21 -->
<g id="edge40_Node000016_Node000021" class="edge">
<title>Node16&#45;&gt;Node21</title>
<g id="a_edge40_Node000016_Node000021"><a xlink:title=" ">
<path fill="none" stroke="#63b8ff" d="M574.69,-287C533.22,-279.45 475.35,-267.39 426,-251.5 425.01,-251.18 424.01,-250.85 423.01,-250.49"/>
<polygon fill="#63b8ff" stroke="#63b8ff" points="424.3,-247.24 413.72,-246.87 421.76,-253.76 424.3,-247.24"/>
</a>
</g>
</g>
<!-- Node22 -->
<g id="Node000022" class="node">
<title>Node22</title>
<g id="a_Node000022"><a xlink:title=" ">
<polygon fill="#e0e0e0" stroke="#999999" points="483.12,-245.88 434.88,-245.88 434.88,-226.62 483.12,-226.62 483.12,-245.88"/>
<text xml:space="preserve" text-anchor="middle" x="459" y="-232.38" font-family="Helvetica,sans-Serif" font-size="10.00">string.h</text>
</a>
</g>
</g>
<!-- Node16&#45;&gt;Node22 -->
<g id="edge41_Node000016_Node000022" class="edge">
<title>Node16&#45;&gt;Node22</title>
<g id="a_edge41_Node000016_Node000022"><a xlink:title=" ">
<path fill="none" stroke="#63b8ff" d="M599.02,-287.03C570.86,-278.54 528.29,-265.17 492,-251.5 491.21,-251.2 490.41,-250.9 489.61,-250.59"/>
<polygon fill="#63b8ff" stroke="#63b8ff" points="491.1,-247.41 480.52,-246.87 488.45,-253.89 491.1,-247.41"/>
</a>
</g>
</g>
<!-- Node23 -->
<g id="Node000023" class="node">
<title>Node23</title>
<g id="a_Node000023"><a xlink:title=" ">
<polygon fill="#e0e0e0" stroke="#999999" points="544.5,-245.88 501.5,-245.88 501.5,-226.62 544.5,-226.62 544.5,-245.88"/>
<text xml:space="preserve" text-anchor="middle" x="523" y="-232.38" font-family="Helvetica,sans-Serif" font-size="10.00">time.h</text>
</a>
</g>
</g>
<!-- Node16&#45;&gt;Node23 -->
<g id="edge42_Node000016_Node000023" class="edge">
<title>Node16&#45;&gt;Node23</title>
<g id="a_edge42_Node000016_Node000023"><a xlink:title=" ">
<path fill="none" stroke="#63b8ff" d="M613.75,-287.18C596.62,-277.76 569.39,-262.77 549.22,-251.68"/>
<polygon fill="#63b8ff" stroke="#63b8ff" points="551.18,-248.76 540.73,-247.01 547.8,-254.89 551.18,-248.76"/>
</a>
</g>
</g>
<!-- Node17&#45;&gt;Node5 -->
<g id="edge34_Node000017_Node000005" class="edge">
<title>Node17&#45;&gt;Node5</title>
<g id="a_edge34_Node000017_Node000005"><a xlink:title=" ">
<path fill="none" stroke="#63b8ff" d="M1168.91,-226.19C1175.65,-212.42 1185.89,-185.72 1176,-165.75 1140.04,-93.14 1106.51,-84.63 1031,-55.25 947.59,-22.8 672.45,-13.58 575.32,-11.29"/>
<polygon fill="#63b8ff" stroke="#63b8ff" points="575.45,-7.8 565.38,-11.07 575.3,-14.8 575.45,-7.8"/>
</a>
</g>
</g>
<!-- Node17&#45;&gt;Node7 -->
<g id="edge33_Node000017_Node000007" class="edge">
<title>Node17&#45;&gt;Node7</title>
<g id="a_edge33_Node000017_Node000007"><a xlink:title=" ">
<path fill="none" stroke="#63b8ff" d="M1137.81,-226.15C1092.31,-210.77 995.45,-179.94 911,-165.75 663.88,-124.21 360.66,-120.79 259.6,-120.91"/>
<polygon fill="#63b8ff" stroke="#63b8ff" points="259.8,-117.4 249.81,-120.93 259.82,-124.4 259.8,-117.4"/>
</a>
</g>
</g>
<!-- Node18 -->
<g id="Node000018" class="node">
<title>Node18</title>
<g id="a_Node000018"><a xlink:href="prefs_8x.html" target="_top" xlink:title=" ">
<polygon fill="white" stroke="#666666" points="1167,-185 1121,-185 1121,-165.75 1167,-165.75 1167,-185"/>
<text xml:space="preserve" text-anchor="middle" x="1144" y="-171.5" font-family="Helvetica,sans-Serif" font-size="10.00">prefs.x</text>
</a>
</g>
</g>
<!-- Node17&#45;&gt;Node18 -->
<g id="edge35_Node000017_Node000018" class="edge">
<title>Node17&#45;&gt;Node18</title>
<g id="a_edge35_Node000017_Node000018"><a xlink:title=" ">
<path fill="none" stroke="#63b8ff" d="M1160.96,-226.31C1158.26,-218.35 1154.21,-206.44 1150.75,-196.24"/>
<polygon fill="#63b8ff" stroke="#63b8ff" points="1154.08,-195.18 1147.55,-186.83 1147.46,-197.43 1154.08,-195.18"/>
</a>
</g>
</g>
<!-- Node24&#45;&gt;Node8 -->
<g id="edge48_Node000024_Node000008" class="edge">
<title>Node24&#45;&gt;Node8</title>
<g id="a_edge48_Node000024_Node000008"><a xlink:title=" ">
<path fill="none" stroke="#63b8ff" d="M1052.81,-226.33C1024.13,-211.76 964.38,-182.8 911,-165.75 726.84,-106.92 495.81,-78.8 406.08,-69.51"/>
<polygon fill="#63b8ff" stroke="#63b8ff" points="406.67,-66.05 396.37,-68.52 405.96,-73.02 406.67,-66.05"/>
</a>
</g>
</g>
<!-- Node24&#45;&gt;Node11 -->
<g id="edge49_Node000024_Node000011" class="edge">
<title>Node24&#45;&gt;Node11</title>
<g id="a_edge49_Node000024_Node000011"><a xlink:title=" ">
<path fill="none" stroke="#63b8ff" d="M1044.5,-227.43C1010.71,-217.07 950.94,-198.74 912.95,-187.09"/>
<polygon fill="#63b8ff" stroke="#63b8ff" points="914.42,-183.88 903.83,-184.3 912.37,-190.57 914.42,-183.88"/>
</a>
</g>
</g>
<!-- Node25&#45;&gt;Node4 -->
<g id="edge53_Node000025_Node000004" class="edge">
<title>Node25&#45;&gt;Node4</title>
<g id="a_edge53_Node000025_Node000004"><a xlink:title=" ">
<path fill="none" stroke="#63b8ff" d="M33.69,-54.84C42.7,-47.22 55.83,-36.12 66.68,-26.95"/>
<polygon fill="#63b8ff" stroke="#63b8ff" points="68.94,-29.63 74.31,-20.5 64.42,-24.28 68.94,-29.63"/>
</a>
</g>
</g>
<!-- Node25&#45;&gt;Node5 -->
<g id="edge54_Node000025_Node000005" class="edge">
<title>Node25&#45;&gt;Node5</title>
<g id="a_edge54_Node000025_Node000005"><a xlink:title=" ">
<path fill="none" stroke="#63b8ff" d="M46.31,-57.09C49.22,-56.4 52.17,-55.76 55,-55.25 222.78,-25.17 426.99,-14.81 506.76,-11.75"/>
<polygon fill="#63b8ff" stroke="#63b8ff" points="506.66,-15.26 516.53,-11.39 506.41,-8.26 506.66,-15.26"/>
</a>
</g>
</g>
<!-- Node26&#45;&gt;Node7 -->
<g id="edge59_Node000026_Node000007" class="edge">
<title>Node26&#45;&gt;Node7</title>
<g id="a_edge59_Node000026_Node000007"><a xlink:title=" ">
<path fill="none" stroke="#63b8ff" d="M178,-226.29C186.23,-207.88 205.22,-165.39 216.38,-140.42"/>
<polygon fill="#63b8ff" stroke="#63b8ff" points="219.51,-141.98 220.4,-131.42 213.12,-139.12 219.51,-141.98"/>
</a>
</g>
</g>
<!-- Node26&#45;&gt;Node8 -->
<g id="edge57_Node000026_Node000008" class="edge">
<title>Node26&#45;&gt;Node8</title>
<g id="a_edge57_Node000026_Node000008"><a xlink:title=" ">
<path fill="none" stroke="#63b8ff" d="M184.43,-226.14C215.76,-198.79 309.34,-117.09 349.44,-82.08"/>
<polygon fill="#63b8ff" stroke="#63b8ff" points="351.62,-84.83 356.85,-75.61 347.01,-79.55 351.62,-84.83"/>
</a>
</g>
</g>
<!-- Node26&#45;&gt;Node9 -->
<g id="edge58_Node000026_Node000009" class="edge">
<title>Node26&#45;&gt;Node9</title>
<g id="a_edge58_Node000026_Node000009"><a xlink:title=" ">
<path fill="none" stroke="#63b8ff" d="M193.72,-226.18C214.64,-216.56 247.94,-201.24 272.09,-190.13"/>
<polygon fill="#63b8ff" stroke="#63b8ff" points="273.47,-193.35 281.09,-185.99 270.55,-186.99 273.47,-193.35"/>
</a>
</g>
</g>
<!-- Node27&#45;&gt;Node5 -->
<g id="edge64_Node000027_Node000005" class="edge">
<title>Node27&#45;&gt;Node5</title>
<g id="a_edge64_Node000027_Node000005"><a xlink:title=" ">
<path fill="none" stroke="#63b8ff" d="M853.68,-397.67C875.07,-375.11 930.69,-313.29 960,-251.5 974.76,-220.38 979,-210.82 979,-176.38 979,-176.38 979,-176.38 979,-119.12 979,-36.04 678.33,-16.15 575.22,-11.77"/>
<polygon fill="#63b8ff" stroke="#63b8ff" points="575.58,-8.28 565.44,-11.38 575.3,-15.28 575.58,-8.28"/>
</a>
</g>
</g>
<!-- Node27&#45;&gt;Node9 -->
<g id="edge63_Node000027_Node000009" class="edge">
<title>Node27&#45;&gt;Node9</title>
<g id="a_edge63_Node000027_Node000009"><a xlink:title=" ">
<path fill="none" stroke="#63b8ff" d="M799.83,-406.68C667.57,-406.38 288.1,-401.99 251,-362 208.38,-316.06 225.11,-278.07 251,-221 256.38,-209.15 266.63,-199.2 276.55,-191.73"/>
<polygon fill="#63b8ff" stroke="#63b8ff" points="278.3,-194.78 284.53,-186.21 274.32,-189.02 278.3,-194.78"/>
</a>
</g>
</g>
<!-- Node27&#45;&gt;Node15 -->
<g id="edge62_Node000027_Node000015" class="edge">
<title>Node27&#45;&gt;Node15</title>
<g id="a_edge62_Node000027_Node000015"><a xlink:title=" ">
<path fill="none" stroke="#63b8ff" d="M863.49,-397.59C880.4,-389.33 905.69,-376.98 925.24,-367.43"/>
<polygon fill="#63b8ff" stroke="#63b8ff" points="926.61,-370.65 934.06,-363.12 923.54,-364.36 926.61,-370.65"/>
</a>
</g>
</g>
<!-- Node29 -->
<g id="Node000029" class="node">
<title>Node29</title>
<g id="a_Node000029"><a xlink:href="http_8h.html" target="_top" xlink:title=" ">
<polygon fill="white" stroke="#666666" points="1300.38,-306.75 1259.62,-306.75 1259.62,-287.5 1300.38,-287.5 1300.38,-306.75"/>
<text xml:space="preserve" text-anchor="middle" x="1280" y="-293.25" font-family="Helvetica,sans-Serif" font-size="10.00">http.h</text>
</a>
</g>
</g>
<!-- Node28&#45;&gt;Node29 -->
<g id="edge66_Node000028_Node000029" class="edge">
<title>Node28&#45;&gt;Node29</title>
<g id="a_edge66_Node000028_Node000029"><a xlink:title=" ">
<path fill="none" stroke="#63b8ff" d="M1280,-397.75C1280,-380.5 1280,-342.08 1280,-318.31"/>
<polygon fill="#63b8ff" stroke="#63b8ff" points="1283.5,-318.64 1280,-308.64 1276.5,-318.64 1283.5,-318.64"/>
</a>
</g>
</g>
<!-- Node29&#45;&gt;Node5 -->
<g id="edge67_Node000029_Node000005" class="edge">
<title>Node29&#45;&gt;Node5</title>
<g id="a_edge67_Node000029_Node000005"><a xlink:title=" ">
<path fill="none" stroke="#63b8ff" d="M1280,-287.11C1280,-267.16 1280,-217.75 1280,-176.38 1280,-176.38 1280,-176.38 1280,-119.12 1280,-88.8 1280.38,-73.28 1256,-55.25 1200.86,-14.46 709.85,-10.83 575.09,-10.61"/>
<polygon fill="#63b8ff" stroke="#63b8ff" points="575.4,-7.11 565.39,-10.6 575.39,-14.11 575.4,-7.11"/>
</a>
</g>
</g>
</g>
</svg>
