<?xml version="1.0" encoding="UTF-8" standalone="no"?>
<!DOCTYPE svg PUBLIC "-//W3C//DTD SVG 1.1//EN"
 "http://www.w3.org/Graphics/SVG/1.1/DTD/svg11.dtd">
<!-- Generated by graphviz version 13.1.0 (20250701.0955)
 -->
<!-- Title: io_fclose Pages: 1 -->
<svg width="422pt" height="119pt"
 viewBox="0.00 0.00 422.00 119.00" xmlns="http://www.w3.org/2000/svg" xmlns:xlink="http://www.w3.org/1999/xlink">
<g id="graph0" class="graph" transform="scale(1 1) rotate(0) translate(4 115.25)">
<title>io_fclose</title>
<!-- Node1 -->
<g id="Node000001" class="node">
<title>Node1</title>
<g id="a_Node000001"><a xlink:title=" ">
<polygon fill="#999999" stroke="#666666" points="413.75,-74.25 358.75,-74.25 358.75,-55 413.75,-55 413.75,-74.25"/>
<text xml:space="preserve" text-anchor="middle" x="386.25" y="-60.75" font-family="Helvetica,sans-Serif" font-size="10.00">io_fclose</text>
</a>
</g>
</g>
<!-- Node2 -->
<g id="Node000002" class="node">
<title>Node2</title>
<g id="a_Node000002"><a xlink:href="liolib_8c.html#ab876ac8a07024ee4d85f8671d05ce80f" target="_top" xlink:title=" ">
<polygon fill="white" stroke="#666666" points="322.75,-74.25 276,-74.25 276,-55 322.75,-55 322.75,-74.25"/>
<text xml:space="preserve" text-anchor="middle" x="299.38" y="-60.75" font-family="Helvetica,sans-Serif" font-size="10.00">newfile</text>
</a>
</g>
</g>
<!-- Node1&#45;&gt;Node2 -->
<g id="edge1_Node000001_Node000002" class="edge">
<title>Node1&#45;&gt;Node2</title>
<g id="a_edge1_Node000001_Node000002"><a xlink:title=" ">
<path fill="none" stroke="#63b8ff" d="M347.07,-64.62C338.87,-64.62 330.45,-64.62 323.06,-64.62"/>
<polygon fill="#63b8ff" stroke="#63b8ff" points="346.88,-68.13 356.88,-64.63 346.88,-61.13 346.88,-68.13"/>
</a>
</g>
</g>
<!-- Node3 -->
<g id="Node000003" class="node">
<title>Node3</title>
<g id="a_Node000003"><a xlink:href="liolib_8c.html#ab4a969d43dbe0f89e98307e5b421f8a7" target="_top" xlink:title=" ">
<polygon fill="white" stroke="#666666" points="233.25,-111.25 183.5,-111.25 183.5,-92 233.25,-92 233.25,-111.25"/>
<text xml:space="preserve" text-anchor="middle" x="208.38" y="-97.75" font-family="Helvetica,sans-Serif" font-size="10.00">io_open</text>
</a>
</g>
</g>
<!-- Node2&#45;&gt;Node3 -->
<g id="edge2_Node000002_Node000003" class="edge">
<title>Node2&#45;&gt;Node3</title>
<g id="a_edge2_Node000002_Node000003"><a xlink:title=" ">
<path fill="none" stroke="#63b8ff" d="M265.41,-78.33C254.91,-82.7 243.48,-87.45 233.7,-91.51"/>
<polygon fill="#63b8ff" stroke="#63b8ff" points="266.63,-81.61 274.52,-74.54 263.94,-75.15 266.63,-81.61"/>
</a>
</g>
</g>
<!-- Node4 -->
<g id="Node000004" class="node">
<title>Node4</title>
<g id="a_Node000004"><a xlink:href="liolib_8c.html#a0347de9dda8be02044075c96482eddb3" target="_top" xlink:title=" ">
<polygon fill="white" stroke="#666666" points="237.38,-74.25 179.38,-74.25 179.38,-55 237.38,-55 237.38,-74.25"/>
<text xml:space="preserve" text-anchor="middle" x="208.38" y="-60.75" font-family="Helvetica,sans-Serif" font-size="10.00">io_tmpfile</text>
</a>
</g>
</g>
<!-- Node2&#45;&gt;Node4 -->
<g id="edge3_Node000002_Node000004" class="edge">
<title>Node2&#45;&gt;Node4</title>
<g id="a_edge3_Node000002_Node000004"><a xlink:title=" ">
<path fill="none" stroke="#63b8ff" d="M264.66,-64.62C255.73,-64.62 246.18,-64.62 237.57,-64.62"/>
<polygon fill="#63b8ff" stroke="#63b8ff" points="264.4,-68.13 274.4,-64.63 264.4,-61.13 264.4,-68.13"/>
</a>
</g>
</g>
<!-- Node5 -->
<g id="Node000005" class="node">
<title>Node5</title>
<g id="a_Node000005"><a xlink:href="liolib_8c.html#a91ec9c6fa0ef33085f29a15532ac80a7" target="_top" xlink:title=" ">
<polygon fill="white" stroke="#666666" points="240,-37.25 176.75,-37.25 176.75,-18 240,-18 240,-37.25"/>
<text xml:space="preserve" text-anchor="middle" x="208.38" y="-23.75" font-family="Helvetica,sans-Serif" font-size="10.00">opencheck</text>
</a>
</g>
</g>
<!-- Node2&#45;&gt;Node5 -->
<g id="edge4_Node000002_Node000005" class="edge">
<title>Node2&#45;&gt;Node5</title>
<g id="a_edge4_Node000002_Node000005"><a xlink:title=" ">
<path fill="none" stroke="#63b8ff" d="M265.41,-50.92C254.91,-46.55 243.48,-41.8 233.7,-37.74"/>
<polygon fill="#63b8ff" stroke="#63b8ff" points="263.94,-54.1 274.52,-54.71 266.63,-47.64 263.94,-54.1"/>
</a>
</g>
</g>
<!-- Node6 -->
<g id="Node000006" class="node">
<title>Node6</title>
<g id="a_Node000006"><a xlink:href="liolib_8c.html#aae942558ff528b4e1a483297c64e6886" target="_top" xlink:title=" ">
<polygon fill="white" stroke="#666666" points="139.62,-56.25 92.88,-56.25 92.88,-37 139.62,-37 139.62,-56.25"/>
<text xml:space="preserve" text-anchor="middle" x="116.25" y="-42.75" font-family="Helvetica,sans-Serif" font-size="10.00">g_iofile</text>
</a>
</g>
</g>
<!-- Node5&#45;&gt;Node6 -->
<g id="edge5_Node000005_Node000006" class="edge">
<title>Node5&#45;&gt;Node6</title>
<g id="a_edge5_Node000005_Node000006"><a xlink:title=" ">
<path fill="none" stroke="#63b8ff" d="M165.17,-36.52C156.52,-38.35 147.72,-40.2 140.07,-41.81"/>
<polygon fill="#63b8ff" stroke="#63b8ff" points="165.82,-39.96 174.88,-34.48 164.37,-33.11 165.82,-39.96"/>
</a>
</g>
</g>
<!-- Node9 -->
<g id="Node000009" class="node">
<title>Node9</title>
<g id="a_Node000009"><a xlink:href="liolib_8c.html#ab08031b51605d4ef676ec33a3b96a286" target="_top" xlink:title=" ">
<polygon fill="white" stroke="#666666" points="140.75,-19.25 91.75,-19.25 91.75,0 140.75,0 140.75,-19.25"/>
<text xml:space="preserve" text-anchor="middle" x="116.25" y="-5.75" font-family="Helvetica,sans-Serif" font-size="10.00">io_lines</text>
</a>
</g>
</g>
<!-- Node5&#45;&gt;Node9 -->
<g id="edge8_Node000005_Node000009" class="edge">
<title>Node5&#45;&gt;Node9</title>
<g id="a_edge8_Node000005_Node000009"><a xlink:title=" ">
<path fill="none" stroke="#63b8ff" d="M165.28,-19.22C157.01,-17.57 148.62,-15.89 141.2,-14.41"/>
<polygon fill="#63b8ff" stroke="#63b8ff" points="164.38,-22.61 174.87,-21.13 165.75,-15.74 164.38,-22.61"/>
</a>
</g>
</g>
<!-- Node7 -->
<g id="Node000007" class="node">
<title>Node7</title>
<g id="a_Node000007"><a xlink:href="liolib_8c.html#a827044fde6f2c21ab965ba3d729f6a0f" target="_top" xlink:title=" ">
<polygon fill="white" stroke="#666666" points="52.75,-74.25 3,-74.25 3,-55 52.75,-55 52.75,-74.25"/>
<text xml:space="preserve" text-anchor="middle" x="27.88" y="-60.75" font-family="Helvetica,sans-Serif" font-size="10.00">io_input</text>
</a>
</g>
</g>
<!-- Node6&#45;&gt;Node7 -->
<g id="edge6_Node000006_Node000007" class="edge">
<title>Node6&#45;&gt;Node7</title>
<g id="a_edge6_Node000006_Node000007"><a xlink:title=" ">
<path fill="none" stroke="#63b8ff" d="M81.5,-53.66C72.07,-55.62 62.01,-57.72 53.23,-59.55"/>
<polygon fill="#63b8ff" stroke="#63b8ff" points="82,-57.13 91.07,-51.66 80.57,-50.28 82,-57.13"/>
</a>
</g>
</g>
<!-- Node8 -->
<g id="Node000008" class="node">
<title>Node8</title>
<g id="a_Node000008"><a xlink:href="liolib_8c.html#a4464f89f0151ad432557b0a51258582c" target="_top" xlink:title=" ">
<polygon fill="white" stroke="#666666" points="55.75,-37.25 0,-37.25 0,-18 55.75,-18 55.75,-37.25"/>
<text xml:space="preserve" text-anchor="middle" x="27.88" y="-23.75" font-family="Helvetica,sans-Serif" font-size="10.00">io_output</text>
</a>
</g>
</g>
<!-- Node6&#45;&gt;Node8 -->
<g id="edge7_Node000006_Node000008" class="edge">
<title>Node6&#45;&gt;Node8</title>
<g id="a_edge7_Node000006_Node000008"><a xlink:title=" ">
<path fill="none" stroke="#63b8ff" d="M81.49,-39.2C73.05,-37.34 64.1,-35.37 56.03,-33.6"/>
<polygon fill="#63b8ff" stroke="#63b8ff" points="80.56,-42.58 91.08,-41.31 82.06,-35.74 80.56,-42.58"/>
</a>
</g>
</g>
</g>
</svg>
