<?xml version="1.0" encoding="UTF-8" standalone="no"?>
<!DOCTYPE svg PUBLIC "-//W3C//DTD SVG 1.1//EN"
 "http://www.w3.org/Graphics/SVG/1.1/DTD/svg11.dtd">
<!-- Generated by graphviz version 13.1.0 (20250701.0955)
 -->
<!-- Title: lua&#45;5.4.7/liolib.c Pages: 1 -->
<svg width="598pt" height="248pt"
 viewBox="0.00 0.00 598.00 248.00" xmlns="http://www.w3.org/2000/svg" xmlns:xlink="http://www.w3.org/1999/xlink">
<g id="graph0" class="graph" transform="scale(1 1) rotate(0) translate(4 244.25)">
<title>lua&#45;5.4.7/liolib.c</title>
<!-- Node1 -->
<g id="Node000001" class="node">
<title>Node1</title>
<g id="a_Node000001"><a xlink:title=" ">
<polygon fill="#999999" stroke="#666666" points="345.38,-240.25 261.12,-240.25 261.12,-221 345.38,-221 345.38,-240.25"/>
<text xml:space="preserve" text-anchor="middle" x="303.25" y="-226.75" font-family="Helvetica,sans-Serif" font-size="10.00">lua&#45;5.4.7/liolib.c</text>
</a>
</g>
</g>
<!-- Node2 -->
<g id="Node000002" class="node">
<title>Node2</title>
<g id="a_Node000002"><a xlink:href="lprefix_8h.html" target="_top" xlink:title=" ">
<polygon fill="white" stroke="#666666" points="50.5,-185 0,-185 0,-165.75 50.5,-165.75 50.5,-185"/>
<text xml:space="preserve" text-anchor="middle" x="25.25" y="-171.5" font-family="Helvetica,sans-Serif" font-size="10.00">lprefix.h</text>
</a>
</g>
</g>
<!-- Node1&#45;&gt;Node2 -->
<g id="edge1_Node000001_Node000002" class="edge">
<title>Node1&#45;&gt;Node2</title>
<g id="a_edge1_Node000001_Node000002"><a xlink:title=" ">
<path fill="none" stroke="#63b8ff" d="M260.76,-222.75C214.23,-215.02 137.17,-201.65 61.91,-185.47"/>
<polygon fill="#63b8ff" stroke="#63b8ff" points="62.82,-182.08 52.3,-183.38 61.33,-188.92 62.82,-182.08"/>
</a>
</g>
</g>
<!-- Node3 -->
<g id="Node000003" class="node">
<title>Node3</title>
<g id="a_Node000003"><a xlink:title=" ">
<polygon fill="#e0e0e0" stroke="#999999" points="116.38,-185 68.12,-185 68.12,-165.75 116.38,-165.75 116.38,-185"/>
<text xml:space="preserve" text-anchor="middle" x="92.25" y="-171.5" font-family="Helvetica,sans-Serif" font-size="10.00">ctype.h</text>
</a>
</g>
</g>
<!-- Node1&#45;&gt;Node3 -->
<g id="edge2_Node000001_Node000003" class="edge">
<title>Node1&#45;&gt;Node3</title>
<g id="a_edge2_Node000001_Node000003"><a xlink:title=" ">
<path fill="none" stroke="#63b8ff" d="M266.4,-220.5C232.71,-212.13 181.2,-199.28 127.81,-185.64"/>
<polygon fill="#63b8ff" stroke="#63b8ff" points="128.77,-182.27 118.22,-183.18 127.04,-189.05 128.77,-182.27"/>
</a>
</g>
</g>
<!-- Node4 -->
<g id="Node000004" class="node">
<title>Node4</title>
<g id="a_Node000004"><a xlink:title=" ">
<polygon fill="#e0e0e0" stroke="#999999" points="180.25,-185 134.25,-185 134.25,-165.75 180.25,-165.75 180.25,-185"/>
<text xml:space="preserve" text-anchor="middle" x="157.25" y="-171.5" font-family="Helvetica,sans-Serif" font-size="10.00">errno.h</text>
</a>
</g>
</g>
<!-- Node1&#45;&gt;Node4 -->
<g id="edge3_Node000001_Node000004" class="edge">
<title>Node1&#45;&gt;Node4</title>
<g id="a_edge3_Node000001_Node000004"><a xlink:title=" ">
<path fill="none" stroke="#63b8ff" d="M278.48,-220.59C254.56,-211.87 218.14,-198.58 191.46,-188.85"/>
<polygon fill="#63b8ff" stroke="#63b8ff" points="192.7,-185.58 182.11,-185.44 190.3,-192.16 192.7,-185.58"/>
</a>
</g>
</g>
<!-- Node5 -->
<g id="Node000005" class="node">
<title>Node5</title>
<g id="a_Node000005"><a xlink:title=" ">
<polygon fill="#e0e0e0" stroke="#999999" points="248.12,-185 198.38,-185 198.38,-165.75 248.12,-165.75 248.12,-185"/>
<text xml:space="preserve" text-anchor="middle" x="223.25" y="-171.5" font-family="Helvetica,sans-Serif" font-size="10.00">locale.h</text>
</a>
</g>
</g>
<!-- Node1&#45;&gt;Node5 -->
<g id="edge4_Node000001_Node000005" class="edge">
<title>Node1&#45;&gt;Node5</title>
<g id="a_edge4_Node000001_Node000005"><a xlink:title=" ">
<path fill="none" stroke="#63b8ff" d="M289.68,-220.59C277.84,-212.71 260.41,-201.11 246.38,-191.77"/>
<polygon fill="#63b8ff" stroke="#63b8ff" points="248.41,-188.92 238.15,-186.29 244.53,-194.75 248.41,-188.92"/>
</a>
</g>
</g>
<!-- Node6 -->
<g id="Node000006" class="node">
<title>Node6</title>
<g id="a_Node000006"><a xlink:title=" ">
<polygon fill="#e0e0e0" stroke="#999999" points="298.88,-129.75 253.62,-129.75 253.62,-110.5 298.88,-110.5 298.88,-129.75"/>
<text xml:space="preserve" text-anchor="middle" x="276.25" y="-116.25" font-family="Helvetica,sans-Serif" font-size="10.00">stdio.h</text>
</a>
</g>
</g>
<!-- Node1&#45;&gt;Node6 -->
<g id="edge5_Node000001_Node000006" class="edge">
<title>Node1&#45;&gt;Node6</title>
<g id="a_edge5_Node000001_Node000006"><a xlink:title=" ">
<path fill="none" stroke="#63b8ff" d="M301.04,-220.75C296.73,-203.42 287.1,-164.73 281.19,-140.99"/>
<polygon fill="#63b8ff" stroke="#63b8ff" points="284.67,-140.45 278.86,-131.6 277.87,-142.14 284.67,-140.45"/>
</a>
</g>
</g>
<!-- Node7 -->
<g id="Node000007" class="node">
<title>Node7</title>
<g id="a_Node000007"><a xlink:title=" ">
<polygon fill="#e0e0e0" stroke="#999999" points="524,-185 476.5,-185 476.5,-165.75 524,-165.75 524,-185"/>
<text xml:space="preserve" text-anchor="middle" x="500.25" y="-171.5" font-family="Helvetica,sans-Serif" font-size="10.00">stdlib.h</text>
</a>
</g>
</g>
<!-- Node1&#45;&gt;Node7 -->
<g id="edge6_Node000001_Node000007" class="edge">
<title>Node1&#45;&gt;Node7</title>
<g id="a_edge6_Node000001_Node000007"><a xlink:title=" ">
<path fill="none" stroke="#63b8ff" d="M336.67,-220.59C372.33,-210.95 428.59,-195.75 464.95,-185.92"/>
<polygon fill="#63b8ff" stroke="#63b8ff" points="465.81,-189.31 474.55,-183.32 463.98,-182.55 465.81,-189.31"/>
</a>
</g>
</g>
<!-- Node8 -->
<g id="Node000008" class="node">
<title>Node8</title>
<g id="a_Node000008"><a xlink:title=" ">
<polygon fill="#e0e0e0" stroke="#999999" points="590.38,-185 542.12,-185 542.12,-165.75 590.38,-165.75 590.38,-185"/>
<text xml:space="preserve" text-anchor="middle" x="566.25" y="-171.5" font-family="Helvetica,sans-Serif" font-size="10.00">string.h</text>
</a>
</g>
</g>
<!-- Node1&#45;&gt;Node8 -->
<g id="edge7_Node000001_Node000008" class="edge">
<title>Node1&#45;&gt;Node8</title>
<g id="a_edge7_Node000001_Node000008"><a xlink:title=" ">
<path fill="none" stroke="#63b8ff" d="M345.81,-222.21C389.76,-214.37 460.55,-201.22 530.56,-185.5"/>
<polygon fill="#63b8ff" stroke="#63b8ff" points="531.33,-188.91 540.31,-183.29 529.78,-182.09 531.33,-188.91"/>
</a>
</g>
</g>
<!-- Node9 -->
<g id="Node000009" class="node">
<title>Node9</title>
<g id="a_Node000009"><a xlink:href="lua_8h.html" target="_top" xlink:title=" ">
<polygon fill="white" stroke="#666666" points="434.75,-129.75 397.75,-129.75 397.75,-110.5 434.75,-110.5 434.75,-129.75"/>
<text xml:space="preserve" text-anchor="middle" x="416.25" y="-116.25" font-family="Helvetica,sans-Serif" font-size="10.00">lua.h</text>
</a>
</g>
</g>
<!-- Node1&#45;&gt;Node9 -->
<g id="edge8_Node000001_Node000009" class="edge">
<title>Node1&#45;&gt;Node9</title>
<g id="a_edge8_Node000001_Node000009"><a xlink:title=" ">
<path fill="none" stroke="#63b8ff" d="M318.14,-220.56C331.27,-212.19 350.55,-198.99 365.25,-185 380,-170.97 394.23,-152.61 403.89,-139.18"/>
<polygon fill="#63b8ff" stroke="#63b8ff" points="406.57,-141.45 409.46,-131.25 400.85,-137.43 406.57,-141.45"/>
</a>
</g>
</g>
<!-- Node14 -->
<g id="Node000014" class="node">
<title>Node14</title>
<g id="a_Node000014"><a xlink:href="lauxlib_8h.html" target="_top" xlink:title=" ">
<polygon fill="white" stroke="#666666" points="356.25,-185 304.25,-185 304.25,-165.75 356.25,-165.75 356.25,-185"/>
<text xml:space="preserve" text-anchor="middle" x="330.25" y="-171.5" font-family="Helvetica,sans-Serif" font-size="10.00">lauxlib.h</text>
</a>
</g>
</g>
<!-- Node1&#45;&gt;Node14 -->
<g id="edge14_Node000001_Node000014" class="edge">
<title>Node1&#45;&gt;Node14</title>
<g id="a_edge14_Node000001_Node000014"><a xlink:title=" ">
<path fill="none" stroke="#63b8ff" d="M307.71,-220.83C311.2,-213.94 316.2,-204.09 320.6,-195.41"/>
<polygon fill="#63b8ff" stroke="#63b8ff" points="323.61,-197.21 325.01,-186.71 317.37,-194.05 323.61,-197.21"/>
</a>
</g>
</g>
<!-- Node15 -->
<g id="Node000015" class="node">
<title>Node15</title>
<g id="a_Node000015"><a xlink:href="lualib_8h.html" target="_top" xlink:title=" ">
<polygon fill="white" stroke="#666666" points="458.62,-185 411.88,-185 411.88,-165.75 458.62,-165.75 458.62,-185"/>
<text xml:space="preserve" text-anchor="middle" x="435.25" y="-171.5" font-family="Helvetica,sans-Serif" font-size="10.00">lualib.h</text>
</a>
</g>
</g>
<!-- Node1&#45;&gt;Node15 -->
<g id="edge19_Node000001_Node000015" class="edge">
<title>Node1&#45;&gt;Node15</title>
<g id="a_edge19_Node000001_Node000015"><a xlink:title=" ">
<path fill="none" stroke="#63b8ff" d="M325.64,-220.59C346.69,-212.1 378.45,-199.29 402.37,-189.64"/>
<polygon fill="#63b8ff" stroke="#63b8ff" points="403.38,-193.01 411.34,-186.02 400.76,-186.51 403.38,-193.01"/>
</a>
</g>
</g>
<!-- Node10 -->
<g id="Node000010" class="node">
<title>Node10</title>
<g id="a_Node000010"><a xlink:title=" ">
<polygon fill="#e0e0e0" stroke="#999999" points="444.88,-74.5 393.62,-74.5 393.62,-55.25 444.88,-55.25 444.88,-74.5"/>
<text xml:space="preserve" text-anchor="middle" x="419.25" y="-61" font-family="Helvetica,sans-Serif" font-size="10.00">stdarg.h</text>
</a>
</g>
</g>
<!-- Node9&#45;&gt;Node10 -->
<g id="edge9_Node000009_Node000010" class="edge">
<title>Node9&#45;&gt;Node10</title>
<g id="a_edge9_Node000009_Node000010"><a xlink:title=" ">
<path fill="none" stroke="#63b8ff" d="M416.75,-110.33C417.12,-103.74 417.64,-94.46 418.11,-86.07"/>
<polygon fill="#63b8ff" stroke="#63b8ff" points="421.59,-86.55 418.66,-76.37 414.6,-86.16 421.59,-86.55"/>
</a>
</g>
</g>
<!-- Node11 -->
<g id="Node000011" class="node">
<title>Node11</title>
<g id="a_Node000011"><a xlink:title=" ">
<polygon fill="#e0e0e0" stroke="#999999" points="396.88,-19.25 345.62,-19.25 345.62,0 396.88,0 396.88,-19.25"/>
<text xml:space="preserve" text-anchor="middle" x="371.25" y="-5.75" font-family="Helvetica,sans-Serif" font-size="10.00">stddef.h</text>
</a>
</g>
</g>
<!-- Node9&#45;&gt;Node11 -->
<g id="edge10_Node000009_Node000011" class="edge">
<title>Node9&#45;&gt;Node11</title>
<g id="a_edge10_Node000009_Node000011"><a xlink:title=" ">
<path fill="none" stroke="#63b8ff" d="M428.48,-110.02C443.57,-97.62 465.9,-74.74 454.25,-55.25 444.1,-38.27 425.03,-27.38 407.72,-20.61"/>
<polygon fill="#63b8ff" stroke="#63b8ff" points="409.29,-17.45 398.69,-17.41 406.95,-24.05 409.29,-17.45"/>
</a>
</g>
</g>
<!-- Node12 -->
<g id="Node000012" class="node">
<title>Node12</title>
<g id="a_Node000012"><a xlink:href="luaconf_8h.html" target="_top" xlink:title=" ">
<polygon fill="white" stroke="#666666" points="337.12,-74.5 281.38,-74.5 281.38,-55.25 337.12,-55.25 337.12,-74.5"/>
<text xml:space="preserve" text-anchor="middle" x="309.25" y="-61" font-family="Helvetica,sans-Serif" font-size="10.00">luaconf.h</text>
</a>
</g>
</g>
<!-- Node9&#45;&gt;Node12 -->
<g id="edge11_Node000009_Node000012" class="edge">
<title>Node9&#45;&gt;Node12</title>
<g id="a_edge11_Node000009_Node000012"><a xlink:title=" ">
<path fill="none" stroke="#63b8ff" d="M398.1,-110.09C381.57,-101.87 356.91,-89.59 337.75,-80.06"/>
<polygon fill="#63b8ff" stroke="#63b8ff" points="339.36,-76.95 328.85,-75.63 336.24,-83.22 339.36,-76.95"/>
</a>
</g>
</g>
<!-- Node12&#45;&gt;Node11 -->
<g id="edge13_Node000012_Node000011" class="edge">
<title>Node12&#45;&gt;Node11</title>
<g id="a_edge13_Node000012_Node000011"><a xlink:title=" ">
<path fill="none" stroke="#63b8ff" d="M319.77,-54.84C328.64,-47.22 341.56,-36.12 352.24,-26.95"/>
<polygon fill="#63b8ff" stroke="#63b8ff" points="354.43,-29.68 359.74,-20.51 349.87,-24.37 354.43,-29.68"/>
</a>
</g>
</g>
<!-- Node13 -->
<g id="Node000013" class="node">
<title>Node13</title>
<g id="a_Node000013"><a xlink:title=" ">
<polygon fill="#e0e0e0" stroke="#999999" points="328,-19.25 280.5,-19.25 280.5,0 328,0 328,-19.25"/>
<text xml:space="preserve" text-anchor="middle" x="304.25" y="-5.75" font-family="Helvetica,sans-Serif" font-size="10.00">limits.h</text>
</a>
</g>
</g>
<!-- Node12&#45;&gt;Node13 -->
<g id="edge12_Node000012_Node000013" class="edge">
<title>Node12&#45;&gt;Node13</title>
<g id="a_edge12_Node000012_Node000013"><a xlink:title=" ">
<path fill="none" stroke="#63b8ff" d="M308.42,-55.08C307.81,-48.49 306.93,-39.21 306.15,-30.82"/>
<polygon fill="#63b8ff" stroke="#63b8ff" points="309.65,-30.75 305.24,-21.12 302.69,-31.4 309.65,-30.75"/>
</a>
</g>
</g>
<!-- Node14&#45;&gt;Node6 -->
<g id="edge16_Node000014_Node000006" class="edge">
<title>Node14&#45;&gt;Node6</title>
<g id="a_edge16_Node000014_Node000006"><a xlink:title=" ">
<path fill="none" stroke="#63b8ff" d="M321.33,-165.58C313.8,-158.15 302.78,-147.29 293.52,-138.16"/>
<polygon fill="#63b8ff" stroke="#63b8ff" points="296.02,-135.7 286.44,-131.17 291.1,-140.69 296.02,-135.7"/>
</a>
</g>
</g>
<!-- Node14&#45;&gt;Node9 -->
<g id="edge18_Node000014_Node000009" class="edge">
<title>Node14&#45;&gt;Node9</title>
<g id="a_edge18_Node000014_Node000009"><a xlink:title=" ">
<path fill="none" stroke="#63b8ff" d="M344.84,-165.34C357.69,-157.39 376.66,-145.64 391.82,-136.25"/>
<polygon fill="#63b8ff" stroke="#63b8ff" points="393.64,-139.24 400.3,-131 389.96,-133.29 393.64,-139.24"/>
</a>
</g>
</g>
<!-- Node14&#45;&gt;Node11 -->
<g id="edge15_Node000014_Node000011" class="edge">
<title>Node14&#45;&gt;Node11</title>
<g id="a_edge15_Node000014_Node000011"><a xlink:title=" ">
<path fill="none" stroke="#63b8ff" d="M332.45,-165.57C338.82,-140.14 357.36,-66.1 366.31,-30.37"/>
<polygon fill="#63b8ff" stroke="#63b8ff" points="369.63,-31.49 368.67,-20.94 362.84,-29.79 369.63,-31.49"/>
</a>
</g>
</g>
<!-- Node14&#45;&gt;Node12 -->
<g id="edge17_Node000014_Node000012" class="edge">
<title>Node14&#45;&gt;Node12</title>
<g id="a_edge17_Node000014_Node000012"><a xlink:title=" ">
<path fill="none" stroke="#63b8ff" d="M328.53,-165.5C325.19,-148.25 317.76,-109.83 313.16,-86.06"/>
<polygon fill="#63b8ff" stroke="#63b8ff" points="316.62,-85.52 311.28,-76.36 309.74,-86.85 316.62,-85.52"/>
</a>
</g>
</g>
<!-- Node15&#45;&gt;Node9 -->
<g id="edge20_Node000015_Node000009" class="edge">
<title>Node15&#45;&gt;Node9</title>
<g id="a_edge20_Node000015_Node000009"><a xlink:title=" ">
<path fill="none" stroke="#63b8ff" d="M432.11,-165.58C429.71,-158.84 426.29,-149.27 423.25,-140.74"/>
<polygon fill="#63b8ff" stroke="#63b8ff" points="426.62,-139.78 419.96,-131.53 420.03,-142.13 426.62,-139.78"/>
</a>
</g>
</g>
</g>
</svg>
