<?xml version="1.0" encoding="UTF-8" standalone="no"?>
<!DOCTYPE svg PUBLIC "-//W3C//DTD SVG 1.1//EN"
 "http://www.w3.org/Graphics/SVG/1.1/DTD/svg11.dtd">
<!-- Generated by graphviz version 13.1.0 (20250701.0955)
 -->
<!-- Title: src/listview.h Pages: 1 -->
<svg width="392pt" height="149pt"
 viewBox="0.00 0.00 392.00 149.00" xmlns="http://www.w3.org/2000/svg" xmlns:xlink="http://www.w3.org/1999/xlink">

<svg id="main" version="1.1" xmlns="http://www.w3.org/2000/svg" xmlns:xlink="http://www.w3.org/1999/xlink" xml:space="preserve">

<style type="text/css"><![CDATA[
.node, .edge {opacity: 0.7;}
.node.selected, .edge.selected {opacity: 1;}
.edge:hover path { stroke: red; }
.edge:hover polygon { stroke: red; fill: red; }
]]></style>
<script type="application/ecmascript" xlink:href="svg.min.js"/>
<svg id="graph" class="graph">
<g id="graph0" class="graph" transform="scale(1 1) rotate(0) translate(4 145)">
<title>src/listview.h</title>
<!-- Node1 -->
<g id="Node000001" class="node">
<title>Node1</title>
<g id="a_Node000001"><a xlink:title=" ">
<polygon fill="#999999" stroke="#666666" points="278.38,-141 206.12,-141 206.12,-121.75 278.38,-121.75 278.38,-141"/>
<text xml:space="preserve" text-anchor="middle" x="242.25" y="-127.5" font-family="Helvetica,sans-Serif" font-size="10.00">src/listview.h</text>
</a>
</g>
</g>
<!-- Node2 -->
<g id="Node000002" class="node">
<title>Node2</title>
<g id="a_Node000002"><a xlink:href="library__scene_8h.html" target="_top" xlink:title=" ">
<polygon fill="white" stroke="#666666" points="240.5,-85.75 142,-85.75 142,-66.5 240.5,-66.5 240.5,-85.75"/>
<text xml:space="preserve" text-anchor="middle" x="191.25" y="-72.25" font-family="Helvetica,sans-Serif" font-size="10.00">src/library_scene.h</text>
</a>
</g>
</g>
<!-- Node1&#45;&gt;Node2 -->
<g id="edge1_Node000001_Node000002" class="edge">
<title>Node1&#45;&gt;Node2</title>
<g id="a_edge1_Node000001_Node000002"><a xlink:title=" ">
<path fill="none" stroke="#63b8ff" d="M225.89,-113.29C217.23,-104.25 206.95,-93.52 199.85,-86.11"/>
<polygon fill="#63b8ff" stroke="#63b8ff" points="223.34,-115.69 232.78,-120.49 228.39,-110.85 223.34,-115.69"/>
</a>
</g>
</g>
<!-- Node7 -->
<g id="Node000007" class="node">
<title>Node7</title>
<g id="a_Node000007"><a xlink:href="listview_8c.html" target="_top" xlink:title=" ">
<polygon fill="white" stroke="#666666" points="330.38,-85.75 258.12,-85.75 258.12,-66.5 330.38,-66.5 330.38,-85.75"/>
<text xml:space="preserve" text-anchor="middle" x="294.25" y="-72.25" font-family="Helvetica,sans-Serif" font-size="10.00">src/listview.c</text>
</a>
</g>
</g>
<!-- Node1&#45;&gt;Node7 -->
<g id="edge6_Node000001_Node000007" class="edge">
<title>Node1&#45;&gt;Node7</title>
<g id="a_edge6_Node000001_Node000007"><a xlink:title=" ">
<path fill="none" stroke="#63b8ff" d="M258.66,-113.57C267.54,-104.48 278.16,-93.6 285.48,-86.11"/>
<polygon fill="#63b8ff" stroke="#63b8ff" points="256.38,-110.9 251.89,-120.5 261.38,-115.79 256.38,-110.9"/>
</a>
</g>
</g>
<!-- Node3 -->
<g id="Node000003" class="node">
<title>Node3</title>
<g id="a_Node000003"><a xlink:href="app_8c.html" target="_top" xlink:title=" ">
<polygon fill="white" stroke="#666666" points="56.5,-24.88 0,-24.88 0,-5.63 56.5,-5.63 56.5,-24.88"/>
<text xml:space="preserve" text-anchor="middle" x="28.25" y="-11.38" font-family="Helvetica,sans-Serif" font-size="10.00">src/app.c</text>
</a>
</g>
</g>
<!-- Node2&#45;&gt;Node3 -->
<g id="edge2_Node000002_Node000003" class="edge">
<title>Node2&#45;&gt;Node3</title>
<g id="a_edge2_Node000002_Node000003"><a xlink:title=" ">
<path fill="none" stroke="#63b8ff" d="M154.56,-62.43C129.37,-53.64 95.21,-41.57 65.25,-30.5 60.73,-28.83 55.92,-27.01 51.31,-25.24"/>
<polygon fill="#63b8ff" stroke="#63b8ff" points="153.09,-65.62 163.68,-65.6 155.39,-59.01 153.09,-65.62"/>
</a>
</g>
</g>
<!-- Node4 -->
<g id="Node000004" class="node">
<title>Node4</title>
<g id="a_Node000004"><a xlink:href="image__conversion__scene_8c.html" target="_top" xlink:title=" ">
<polygon fill="white" stroke="#666666" points="185.88,-30.5 74.62,-30.5 74.62,0 185.88,0 185.88,-30.5"/>
<text xml:space="preserve" text-anchor="start" x="82.62" y="-17" font-family="Helvetica,sans-Serif" font-size="10.00">src/image_conversion</text>
<text xml:space="preserve" text-anchor="middle" x="130.25" y="-5.75" font-family="Helvetica,sans-Serif" font-size="10.00">_scene.c</text>
</a>
</g>
</g>
<!-- Node2&#45;&gt;Node4 -->
<g id="edge3_Node000002_Node000004" class="edge">
<title>Node2&#45;&gt;Node4</title>
<g id="a_edge3_Node000002_Node000004"><a xlink:title=" ">
<path fill="none" stroke="#63b8ff" d="M173.76,-58.25C164.77,-49.57 153.92,-39.1 145.31,-30.78"/>
<polygon fill="#63b8ff" stroke="#63b8ff" points="171.27,-60.71 180.9,-65.13 176.13,-55.67 171.27,-60.71"/>
</a>
</g>
</g>
<!-- Node5 -->
<g id="Node000005" class="node">
<title>Node5</title>
<g id="a_Node000005"><a xlink:href="library__scene_8c.html" target="_top" xlink:title=" ">
<polygon fill="white" stroke="#666666" points="302.5,-24.88 204,-24.88 204,-5.63 302.5,-5.63 302.5,-24.88"/>
<text xml:space="preserve" text-anchor="middle" x="253.25" y="-11.38" font-family="Helvetica,sans-Serif" font-size="10.00">src/library_scene.c</text>
</a>
</g>
</g>
<!-- Node2&#45;&gt;Node5 -->
<g id="edge4_Node000002_Node000005" class="edge">
<title>Node2&#45;&gt;Node5</title>
<g id="a_edge4_Node000002_Node000005"><a xlink:title=" ">
<path fill="none" stroke="#63b8ff" d="M208.97,-58.3C220.29,-47.55 234.52,-34.04 243.74,-25.28"/>
<polygon fill="#63b8ff" stroke="#63b8ff" points="206.61,-55.72 201.76,-65.14 211.43,-60.79 206.61,-55.72"/>
</a>
</g>
</g>
<!-- Node6 -->
<g id="Node000006" class="node">
<title>Node6</title>
<g id="a_Node000006"><a xlink:href="utility_8c.html" target="_top" xlink:title=" ">
<polygon fill="white" stroke="#666666" points="383.5,-24.88 321,-24.88 321,-5.63 383.5,-5.63 383.5,-24.88"/>
<text xml:space="preserve" text-anchor="middle" x="352.25" y="-11.38" font-family="Helvetica,sans-Serif" font-size="10.00">src/utility.c</text>
</a>
</g>
</g>
<!-- Node2&#45;&gt;Node6 -->
<g id="edge5_Node000002_Node000006" class="edge">
<title>Node2&#45;&gt;Node6</title>
<g id="a_edge5_Node000002_Node000006"><a xlink:title=" ">
<path fill="none" stroke="#63b8ff" d="M226.67,-62.17C257.18,-51.01 300.46,-35.19 327.42,-25.33"/>
<polygon fill="#63b8ff" stroke="#63b8ff" points="225.66,-58.81 217.47,-65.53 228.07,-65.39 225.66,-58.81"/>
</a>
</g>
</g>
</g>
</svg>
</svg>

<style type='text/css'>
<![CDATA[
[data-mouse-over-selected='false'] { opacity: 0.7; }
[data-mouse-over-selected='true']  { opacity: 1.0; }
]]>
</style>
<script type="application/ecmascript"><![CDATA[
document.addEventListener('DOMContentLoaded', (event) => {
  highlightEdges();
  highlightAdjacentNodes();
});
]]></script>
</svg>
