<?xml version="1.0" encoding="UTF-8" standalone="no"?>
<!DOCTYPE svg PUBLIC "-//W3C//DTD SVG 1.1//EN"
 "http://www.w3.org/Graphics/SVG/1.1/DTD/svg11.dtd">
<!-- Generated by graphviz version 13.1.0 (20250701.0955)
 -->
<!-- Title: src/listview.h Pages: 1 -->
<svg width="205pt" height="193pt"
 viewBox="0.00 0.00 205.00 193.00" xmlns="http://www.w3.org/2000/svg" xmlns:xlink="http://www.w3.org/1999/xlink">
<g id="graph0" class="graph" transform="scale(1 1) rotate(0) translate(4 189)">
<title>src/listview.h</title>
<!-- Node1 -->
<g id="Node000001" class="node">
<title>Node1</title>
<g id="a_Node000001"><a xlink:title=" ">
<polygon fill="#999999" stroke="#666666" points="148,-185 75.75,-185 75.75,-165.75 148,-165.75 148,-185"/>
<text xml:space="preserve" text-anchor="middle" x="111.88" y="-171.5" font-family="Helvetica,sans-Serif" font-size="10.00">src/listview.h</text>
</a>
</g>
</g>
<!-- Node2 -->
<g id="Node000002" class="node">
<title>Node2</title>
<g id="a_Node000002"><a xlink:href="array_8h.html" target="_top" xlink:title=" ">
<polygon fill="white" stroke="#666666" points="75.12,-74.5 30.62,-74.5 30.62,-55.25 75.12,-55.25 75.12,-74.5"/>
<text xml:space="preserve" text-anchor="middle" x="52.88" y="-61" font-family="Helvetica,sans-Serif" font-size="10.00">array.h</text>
</a>
</g>
</g>
<!-- Node1&#45;&gt;Node2 -->
<g id="edge1_Node000001_Node000002" class="edge">
<title>Node1&#45;&gt;Node2</title>
<g id="a_edge1_Node000001_Node000002"><a xlink:title=" ">
<path fill="none" stroke="#63b8ff" d="M104.64,-165.54C97.7,-156.81 87.24,-142.89 79.88,-129.75 71.85,-115.44 64.72,-98.26 59.8,-85.33"/>
<polygon fill="#63b8ff" stroke="#63b8ff" points="63.21,-84.44 56.47,-76.27 56.64,-86.86 63.21,-84.44"/>
</a>
</g>
</g>
<!-- Node4 -->
<g id="Node000004" class="node">
<title>Node4</title>
<g id="a_Node000004"><a xlink:title=" ">
<polygon fill="#e0e0e0" stroke="#999999" points="196.5,-19.25 151.25,-19.25 151.25,0 196.5,0 196.5,-19.25"/>
<text xml:space="preserve" text-anchor="middle" x="173.88" y="-5.75" font-family="Helvetica,sans-Serif" font-size="10.00">stdio.h</text>
</a>
</g>
</g>
<!-- Node1&#45;&gt;Node4 -->
<g id="edge9_Node000001_Node000004" class="edge">
<title>Node1&#45;&gt;Node4</title>
<g id="a_edge9_Node000001_Node000004"><a xlink:title=" ">
<path fill="none" stroke="#63b8ff" d="M120.05,-165.34C134.36,-148.8 163.34,-111.91 172.88,-74.5 176.53,-60.15 176.65,-43.4 175.92,-30.65"/>
<polygon fill="#63b8ff" stroke="#63b8ff" points="179.43,-30.67 175.13,-20.98 172.45,-31.23 179.43,-30.67"/>
</a>
</g>
</g>
<!-- Node5 -->
<g id="Node000005" class="node">
<title>Node5</title>
<g id="a_Node000005"><a xlink:href="utility_8h.html" target="_top" xlink:title=" ">
<polygon fill="white" stroke="#666666" points="134.88,-129.75 88.88,-129.75 88.88,-110.5 134.88,-110.5 134.88,-129.75"/>
<text xml:space="preserve" text-anchor="middle" x="111.88" y="-116.25" font-family="Helvetica,sans-Serif" font-size="10.00">utility.h</text>
</a>
</g>
</g>
<!-- Node1&#45;&gt;Node5 -->
<g id="edge4_Node000001_Node000005" class="edge">
<title>Node1&#45;&gt;Node5</title>
<g id="a_edge4_Node000001_Node000005"><a xlink:title=" ">
<path fill="none" stroke="#63b8ff" d="M111.88,-165.58C111.88,-159.07 111.88,-149.92 111.88,-141.62"/>
<polygon fill="#63b8ff" stroke="#63b8ff" points="115.38,-141.62 111.88,-131.62 108.38,-141.62 115.38,-141.62"/>
</a>
</g>
</g>
<!-- Node3 -->
<g id="Node000003" class="node">
<title>Node3</title>
<g id="a_Node000003"><a xlink:title=" ">
<polygon fill="#e0e0e0" stroke="#999999" points="55.75,-19.25 0,-19.25 0,0 55.75,0 55.75,-19.25"/>
<text xml:space="preserve" text-anchor="middle" x="27.88" y="-5.75" font-family="Helvetica,sans-Serif" font-size="10.00">stdbool.h</text>
</a>
</g>
</g>
<!-- Node2&#45;&gt;Node3 -->
<g id="edge2_Node000002_Node000003" class="edge">
<title>Node2&#45;&gt;Node3</title>
<g id="a_edge2_Node000002_Node000003"><a xlink:title=" ">
<path fill="none" stroke="#63b8ff" d="M48.75,-55.08C45.55,-48.26 40.99,-38.56 36.95,-29.95"/>
<polygon fill="#63b8ff" stroke="#63b8ff" points="40.15,-28.54 32.74,-20.98 33.82,-31.52 40.15,-28.54"/>
</a>
</g>
</g>
<!-- Node2&#45;&gt;Node4 -->
<g id="edge3_Node000002_Node000004" class="edge">
<title>Node2&#45;&gt;Node4</title>
<g id="a_edge3_Node000002_Node000004"><a xlink:title=" ">
<path fill="none" stroke="#63b8ff" d="M73.4,-54.84C92.44,-46.47 121.03,-33.88 142.85,-24.28"/>
<polygon fill="#63b8ff" stroke="#63b8ff" points="144.12,-27.54 151.86,-20.31 141.3,-21.14 144.12,-27.54"/>
</a>
</g>
</g>
<!-- Node5&#45;&gt;Node2 -->
<g id="edge5_Node000005_Node000002" class="edge">
<title>Node5&#45;&gt;Node2</title>
<g id="a_edge5_Node000005_Node000002"><a xlink:title=" ">
<path fill="none" stroke="#63b8ff" d="M101.87,-110.09C93.51,-102.55 81.38,-91.6 71.27,-82.48"/>
<polygon fill="#63b8ff" stroke="#63b8ff" points="73.63,-79.89 63.86,-75.79 68.94,-85.09 73.63,-79.89"/>
</a>
</g>
</g>
<!-- Node5&#45;&gt;Node3 -->
<g id="edge7_Node000005_Node000003" class="edge">
<title>Node5&#45;&gt;Node3</title>
<g id="a_edge7_Node000005_Node000003"><a xlink:title=" ">
<path fill="none" stroke="#63b8ff" d="M88.38,-114.7C66.89,-109.28 36.31,-97.77 21.88,-74.5 13.7,-61.32 16.19,-43.59 20.17,-30.15"/>
<polygon fill="#63b8ff" stroke="#63b8ff" points="23.33,-31.69 23.31,-21.1 16.72,-29.39 23.33,-31.69"/>
</a>
</g>
</g>
<!-- Node5&#45;&gt;Node4 -->
<g id="edge8_Node000005_Node000004" class="edge">
<title>Node5&#45;&gt;Node4</title>
<g id="a_edge8_Node000005_Node000004"><a xlink:title=" ">
<path fill="none" stroke="#63b8ff" d="M123.32,-110.01C133.02,-101.71 146.64,-88.63 154.88,-74.5 162.83,-60.87 167.7,-43.63 170.52,-30.5"/>
<polygon fill="#63b8ff" stroke="#63b8ff" points="173.91,-31.38 172.34,-20.9 167.03,-30.07 173.91,-31.38"/>
</a>
</g>
</g>
<!-- Node6 -->
<g id="Node000006" class="node">
<title>Node6</title>
<g id="a_Node000006"><a xlink:title=" ">
<polygon fill="#e0e0e0" stroke="#999999" points="146.25,-74.5 93.5,-74.5 93.5,-55.25 146.25,-55.25 146.25,-74.5"/>
<text xml:space="preserve" text-anchor="middle" x="119.88" y="-61" font-family="Helvetica,sans-Serif" font-size="10.00">pd_api.h</text>
</a>
</g>
</g>
<!-- Node5&#45;&gt;Node6 -->
<g id="edge6_Node000005_Node000006" class="edge">
<title>Node5&#45;&gt;Node6</title>
<g id="a_edge6_Node000005_Node000006"><a xlink:title=" ">
<path fill="none" stroke="#63b8ff" d="M113.2,-110.33C114.19,-103.74 115.58,-94.46 116.84,-86.07"/>
<polygon fill="#63b8ff" stroke="#63b8ff" points="120.28,-86.76 118.3,-76.36 113.35,-85.72 120.28,-86.76"/>
</a>
</g>
</g>
</g>
</svg>
