<?xml version="1.0" encoding="UTF-8" standalone="no"?>
<!DOCTYPE svg PUBLIC "-//W3C//DTD SVG 1.1//EN"
 "http://www.w3.org/Graphics/SVG/1.1/DTD/svg11.dtd">
<!-- Generated by graphviz version 13.1.0 (20250701.0955)
 -->
<!-- Title: lua&#45;5.4.7/llex.c Pages: 1 -->
<svg width="897pt" height="525pt"
 viewBox="0.00 0.00 897.00 525.00" xmlns="http://www.w3.org/2000/svg" xmlns:xlink="http://www.w3.org/1999/xlink">
<g id="graph0" class="graph" transform="scale(1 1) rotate(0) translate(4 520.5)">
<title>lua&#45;5.4.7/llex.c</title>
<!-- Node1 -->
<g id="Node000001" class="node">
<title>Node1</title>
<g id="a_Node000001"><a xlink:title=" ">
<polygon fill="#999999" stroke="#666666" points="490.12,-516.5 410.38,-516.5 410.38,-497.25 490.12,-497.25 490.12,-516.5"/>
<text xml:space="preserve" text-anchor="middle" x="450.25" y="-503" font-family="Helvetica,sans-Serif" font-size="10.00">lua&#45;5.4.7/llex.c</text>
</a>
</g>
</g>
<!-- Node2 -->
<g id="Node000002" class="node">
<title>Node2</title>
<g id="a_Node000002"><a xlink:href="lprefix_8h.html" target="_top" xlink:title=" ">
<polygon fill="white" stroke="#666666" points="50.5,-461.25 0,-461.25 0,-442 50.5,-442 50.5,-461.25"/>
<text xml:space="preserve" text-anchor="middle" x="25.25" y="-447.75" font-family="Helvetica,sans-Serif" font-size="10.00">lprefix.h</text>
</a>
</g>
</g>
<!-- Node1&#45;&gt;Node2 -->
<g id="edge1_Node000001_Node000002" class="edge">
<title>Node1&#45;&gt;Node2</title>
<g id="a_edge1_Node000001_Node000002"><a xlink:title=" ">
<path fill="none" stroke="#63b8ff" d="M410.02,-503.08C340.8,-497.89 194.55,-485.22 61.94,-461.52"/>
<polygon fill="#63b8ff" stroke="#63b8ff" points="62.74,-458.11 52.28,-459.77 61.49,-465 62.74,-458.11"/>
</a>
</g>
</g>
<!-- Node3 -->
<g id="Node000003" class="node">
<title>Node3</title>
<g id="a_Node000003"><a xlink:title=" ">
<polygon fill="#e0e0e0" stroke="#999999" points="118.12,-461.25 68.38,-461.25 68.38,-442 118.12,-442 118.12,-461.25"/>
<text xml:space="preserve" text-anchor="middle" x="93.25" y="-447.75" font-family="Helvetica,sans-Serif" font-size="10.00">locale.h</text>
</a>
</g>
</g>
<!-- Node1&#45;&gt;Node3 -->
<g id="edge2_Node000001_Node000003" class="edge">
<title>Node1&#45;&gt;Node3</title>
<g id="a_edge2_Node000001_Node000003"><a xlink:title=" ">
<path fill="none" stroke="#63b8ff" d="M409.98,-501.77C350.73,-495.41 236.39,-481.93 129.72,-461.54"/>
<polygon fill="#63b8ff" stroke="#63b8ff" points="130.4,-458.1 119.92,-459.63 129.07,-464.97 130.4,-458.1"/>
</a>
</g>
</g>
<!-- Node4 -->
<g id="Node000004" class="node">
<title>Node4</title>
<g id="a_Node000004"><a xlink:title=" ">
<polygon fill="#e0e0e0" stroke="#999999" points="184.38,-461.25 136.12,-461.25 136.12,-442 184.38,-442 184.38,-461.25"/>
<text xml:space="preserve" text-anchor="middle" x="160.25" y="-447.75" font-family="Helvetica,sans-Serif" font-size="10.00">string.h</text>
</a>
</g>
</g>
<!-- Node1&#45;&gt;Node4 -->
<g id="edge3_Node000001_Node000004" class="edge">
<title>Node1&#45;&gt;Node4</title>
<g id="a_edge3_Node000001_Node000004"><a xlink:title=" ">
<path fill="none" stroke="#63b8ff" d="M409.98,-499.36C360.14,-491.15 272.72,-476.29 198.25,-461.25 197.43,-461.08 196.6,-460.91 195.76,-460.74"/>
<polygon fill="#63b8ff" stroke="#63b8ff" points="196.74,-457.37 186.22,-458.68 195.26,-464.21 196.74,-457.37"/>
</a>
</g>
</g>
<!-- Node5 -->
<g id="Node000005" class="node">
<title>Node5</title>
<g id="a_Node000005"><a xlink:href="lua_8h.html" target="_top" xlink:title=" ">
<polygon fill="white" stroke="#666666" points="434.75,-129.75 397.75,-129.75 397.75,-110.5 434.75,-110.5 434.75,-129.75"/>
<text xml:space="preserve" text-anchor="middle" x="416.25" y="-116.25" font-family="Helvetica,sans-Serif" font-size="10.00">lua.h</text>
</a>
</g>
</g>
<!-- Node1&#45;&gt;Node5 -->
<g id="edge4_Node000001_Node000005" class="edge">
<title>Node1&#45;&gt;Node5</title>
<g id="a_edge4_Node000001_Node000005"><a xlink:title=" ">
<path fill="none" stroke="#63b8ff" d="M490.2,-505.71C547.52,-504.16 655.41,-496.3 739.25,-461.25 783.18,-442.88 825.25,-444.99 825.25,-397.38 825.25,-397.38 825.25,-397.38 825.25,-340.12 825.25,-168.24 541.05,-130.74 446.46,-123.02"/>
<polygon fill="#63b8ff" stroke="#63b8ff" points="446.9,-119.54 436.67,-122.28 446.37,-126.52 446.9,-119.54"/>
</a>
</g>
</g>
<!-- Node10 -->
<g id="Node000010" class="node">
<title>Node10</title>
<g id="a_Node000010"><a xlink:href="lctype_8h.html" target="_top" xlink:title=" ">
<polygon fill="white" stroke="#666666" points="888.5,-240.25 838,-240.25 838,-221 888.5,-221 888.5,-240.25"/>
<text xml:space="preserve" text-anchor="middle" x="863.25" y="-226.75" font-family="Helvetica,sans-Serif" font-size="10.00">lctype.h</text>
</a>
</g>
</g>
<!-- Node1&#45;&gt;Node10 -->
<g id="edge10_Node000001_Node000010" class="edge">
<title>Node1&#45;&gt;Node10</title>
<g id="a_edge10_Node000001_Node000010"><a xlink:title=" ">
<path fill="none" stroke="#63b8ff" d="M490.59,-506.41C578.9,-506.78 785.73,-503.03 839.25,-461.25 863.16,-442.59 863.25,-427.7 863.25,-397.38 863.25,-397.38 863.25,-397.38 863.25,-340.12 863.25,-309.41 863.25,-273.8 863.25,-251.99"/>
<polygon fill="#63b8ff" stroke="#63b8ff" points="866.75,-252.14 863.25,-242.14 859.75,-252.14 866.75,-252.14"/>
</a>
</g>
</g>
<!-- Node12 -->
<g id="Node000012" class="node">
<title>Node12</title>
<g id="a_Node000012"><a xlink:href="ldebug_8h.html" target="_top" xlink:title=" ">
<polygon fill="white" stroke="#666666" points="422.62,-406 369.88,-406 369.88,-386.75 422.62,-386.75 422.62,-406"/>
<text xml:space="preserve" text-anchor="middle" x="396.25" y="-392.5" font-family="Helvetica,sans-Serif" font-size="10.00">ldebug.h</text>
</a>
</g>
</g>
<!-- Node1&#45;&gt;Node12 -->
<g id="edge17_Node000001_Node000012" class="edge">
<title>Node1&#45;&gt;Node12</title>
<g id="a_edge17_Node000001_Node000012"><a xlink:title=" ">
<path fill="none" stroke="#63b8ff" d="M445.83,-497C437.13,-479.51 417.6,-440.27 405.81,-416.59"/>
<polygon fill="#63b8ff" stroke="#63b8ff" points="408.99,-415.12 401.4,-407.73 402.73,-418.24 408.99,-415.12"/>
</a>
</g>
</g>
<!-- Node13 -->
<g id="Node000013" class="node">
<title>Node13</title>
<g id="a_Node000013"><a xlink:href="lstate_8h.html" target="_top" xlink:title=" ">
<polygon fill="white" stroke="#666666" points="474.38,-350.75 426.12,-350.75 426.12,-331.5 474.38,-331.5 474.38,-350.75"/>
<text xml:space="preserve" text-anchor="middle" x="450.25" y="-337.25" font-family="Helvetica,sans-Serif" font-size="10.00">lstate.h</text>
</a>
</g>
</g>
<!-- Node1&#45;&gt;Node13 -->
<g id="edge50_Node000001_Node000013" class="edge">
<title>Node1&#45;&gt;Node13</title>
<g id="a_edge50_Node000001_Node000013"><a xlink:title=" ">
<path fill="none" stroke="#63b8ff" d="M450.25,-497.07C450.25,-471.75 450.25,-398.25 450.25,-362.34"/>
<polygon fill="#63b8ff" stroke="#63b8ff" points="453.75,-362.49 450.25,-352.49 446.75,-362.49 453.75,-362.49"/>
</a>
</g>
</g>
<!-- Node14 -->
<g id="Node000014" class="node">
<title>Node14</title>
<g id="a_Node000014"><a xlink:href="lobject_8h.html" target="_top" xlink:title=" ">
<polygon fill="white" stroke="#666666" points="579.62,-240.25 526.88,-240.25 526.88,-221 579.62,-221 579.62,-240.25"/>
<text xml:space="preserve" text-anchor="middle" x="553.25" y="-226.75" font-family="Helvetica,sans-Serif" font-size="10.00">lobject.h</text>
</a>
</g>
</g>
<!-- Node1&#45;&gt;Node14 -->
<g id="edge45_Node000001_Node000014" class="edge">
<title>Node1&#45;&gt;Node14</title>
<g id="a_edge45_Node000001_Node000014"><a xlink:title=" ">
<path fill="none" stroke="#63b8ff" d="M490.57,-501.52C580.02,-490.73 787.25,-459.07 787.25,-397.38 787.25,-397.38 787.25,-397.38 787.25,-340.12 787.25,-254.79 657.59,-236.38 591.31,-232.54"/>
<polygon fill="#63b8ff" stroke="#63b8ff" points="591.76,-229.06 581.6,-232.07 591.42,-236.05 591.76,-229.06"/>
</a>
</g>
</g>
<!-- Node16 -->
<g id="Node000016" class="node">
<title>Node16</title>
<g id="a_Node000016"><a xlink:href="lzio_8h.html" target="_top" xlink:title=" ">
<polygon fill="white" stroke="#666666" points="292.88,-295.5 253.62,-295.5 253.62,-276.25 292.88,-276.25 292.88,-295.5"/>
<text xml:space="preserve" text-anchor="middle" x="273.25" y="-282" font-family="Helvetica,sans-Serif" font-size="10.00">lzio.h</text>
</a>
</g>
</g>
<!-- Node1&#45;&gt;Node16 -->
<g id="edge57_Node000001_Node000016" class="edge">
<title>Node1&#45;&gt;Node16</title>
<g id="a_edge57_Node000001_Node000016"><a xlink:title=" ">
<path fill="none" stroke="#63b8ff" d="M410.05,-501.51C358.27,-493.33 271.77,-470.22 245.25,-406 231.25,-372.1 248.87,-329.74 261.83,-305.75"/>
<polygon fill="#63b8ff" stroke="#63b8ff" points="264.82,-307.58 266.74,-297.16 258.74,-304.1 264.82,-307.58"/>
</a>
</g>
</g>
<!-- Node19 -->
<g id="Node000019" class="node">
<title>Node19</title>
<g id="a_Node000019"><a xlink:href="ldo_8h.html" target="_top" xlink:title=" ">
<polygon fill="white" stroke="#666666" points="291.75,-406 254.75,-406 254.75,-386.75 291.75,-386.75 291.75,-406"/>
<text xml:space="preserve" text-anchor="middle" x="273.25" y="-392.5" font-family="Helvetica,sans-Serif" font-size="10.00">ldo.h</text>
</a>
</g>
</g>
<!-- Node1&#45;&gt;Node19 -->
<g id="edge33_Node000001_Node000019" class="edge">
<title>Node1&#45;&gt;Node19</title>
<g id="a_edge33_Node000001_Node000019"><a xlink:title=" ">
<path fill="none" stroke="#63b8ff" d="M410.1,-497.72C383.91,-491 349.96,-479.55 324.25,-461.25 307.3,-449.18 293.04,-429.98 283.94,-415.78"/>
<polygon fill="#63b8ff" stroke="#63b8ff" points="287.02,-414.11 278.82,-407.39 281.04,-417.75 287.02,-414.11"/>
</a>
</g>
</g>
<!-- Node20 -->
<g id="Node000020" class="node">
<title>Node20</title>
<g id="a_Node000020"><a xlink:href="lgc_8h.html" target="_top" xlink:title=" ">
<polygon fill="white" stroke="#666666" points="515.75,-406 478.75,-406 478.75,-386.75 515.75,-386.75 515.75,-406"/>
<text xml:space="preserve" text-anchor="middle" x="497.25" y="-392.5" font-family="Helvetica,sans-Serif" font-size="10.00">lgc.h</text>
</a>
</g>
</g>
<!-- Node1&#45;&gt;Node20 -->
<g id="edge38_Node000001_Node000020" class="edge">
<title>Node1&#45;&gt;Node20</title>
<g id="a_edge38_Node000001_Node000020"><a xlink:title=" ">
<path fill="none" stroke="#63b8ff" d="M454.1,-497C461.64,-479.59 478.52,-440.62 488.79,-416.91"/>
<polygon fill="#63b8ff" stroke="#63b8ff" points="491.99,-418.33 492.75,-407.77 485.56,-415.55 491.99,-418.33"/>
</a>
</g>
</g>
<!-- Node21 -->
<g id="Node000021" class="node">
<title>Node21</title>
<g id="a_Node000021"><a xlink:href="llex_8h.html" target="_top" xlink:title=" ">
<polygon fill="white" stroke="#666666" points="742.88,-350.75 703.62,-350.75 703.62,-331.5 742.88,-331.5 742.88,-350.75"/>
<text xml:space="preserve" text-anchor="middle" x="723.25" y="-337.25" font-family="Helvetica,sans-Serif" font-size="10.00">llex.h</text>
</a>
</g>
</g>
<!-- Node1&#45;&gt;Node21 -->
<g id="edge41_Node000001_Node000021" class="edge">
<title>Node1&#45;&gt;Node21</title>
<g id="a_edge41_Node000001_Node000021"><a xlink:title=" ">
<path fill="none" stroke="#63b8ff" d="M490.16,-502.71C547.89,-495.81 653.54,-474.09 706.25,-406 715.94,-393.48 720.12,-375.91 721.92,-362.37"/>
<polygon fill="#63b8ff" stroke="#63b8ff" points="725.4,-362.71 722.87,-352.42 718.44,-362.04 725.4,-362.71"/>
</a>
</g>
</g>
<!-- Node22 -->
<g id="Node000022" class="node">
<title>Node22</title>
<g id="a_Node000022"><a xlink:href="lparser_8h.html" target="_top" xlink:title=" ">
<polygon fill="white" stroke="#666666" points="360.62,-350.75 307.88,-350.75 307.88,-331.5 360.62,-331.5 360.62,-350.75"/>
<text xml:space="preserve" text-anchor="middle" x="334.25" y="-337.25" font-family="Helvetica,sans-Serif" font-size="10.00">lparser.h</text>
</a>
</g>
</g>
<!-- Node1&#45;&gt;Node22 -->
<g id="edge46_Node000001_Node000022" class="edge">
<title>Node1&#45;&gt;Node22</title>
<g id="a_edge46_Node000001_Node000022"><a xlink:title=" ">
<path fill="none" stroke="#63b8ff" d="M440.26,-496.82C422.44,-480.25 384.84,-443.3 361.25,-406 352.38,-391.98 345.24,-374.54 340.53,-361.43"/>
<polygon fill="#63b8ff" stroke="#63b8ff" points="343.94,-360.6 337.4,-352.26 337.32,-362.86 343.94,-360.6"/>
</a>
</g>
</g>
<!-- Node23 -->
<g id="Node000023" class="node">
<title>Node23</title>
<g id="a_Node000023"><a xlink:href="lstring_8h.html" target="_top" xlink:title=" ">
<polygon fill="white" stroke="#666666" points="568.5,-461.25 518,-461.25 518,-442 568.5,-442 568.5,-461.25"/>
<text xml:space="preserve" text-anchor="middle" x="543.25" y="-447.75" font-family="Helvetica,sans-Serif" font-size="10.00">lstring.h</text>
</a>
</g>
</g>
<!-- Node1&#45;&gt;Node23 -->
<g id="edge51_Node000001_Node000023" class="edge">
<title>Node1&#45;&gt;Node23</title>
<g id="a_edge51_Node000001_Node000023"><a xlink:title=" ">
<path fill="none" stroke="#63b8ff" d="M466.03,-496.84C480.19,-488.73 501.23,-476.68 517.78,-467.21"/>
<polygon fill="#63b8ff" stroke="#63b8ff" points="519.14,-470.46 526.08,-462.45 515.67,-464.39 519.14,-470.46"/>
</a>
</g>
</g>
<!-- Node24 -->
<g id="Node000024" class="node">
<title>Node24</title>
<g id="a_Node000024"><a xlink:href="ltable_8h.html" target="_top" xlink:title=" ">
<polygon fill="white" stroke="#666666" points="697,-406 649.5,-406 649.5,-386.75 697,-386.75 697,-406"/>
<text xml:space="preserve" text-anchor="middle" x="673.25" y="-392.5" font-family="Helvetica,sans-Serif" font-size="10.00">ltable.h</text>
</a>
</g>
</g>
<!-- Node1&#45;&gt;Node24 -->
<g id="edge55_Node000001_Node000024" class="edge">
<title>Node1&#45;&gt;Node24</title>
<g id="a_edge55_Node000001_Node000024"><a xlink:title=" ">
<path fill="none" stroke="#63b8ff" d="M483.26,-496.75C509.45,-488.93 546.61,-476.53 577.25,-461.25 604.74,-447.55 633.76,-427.33 652.6,-413.32"/>
<polygon fill="#63b8ff" stroke="#63b8ff" points="654.63,-416.18 660.5,-407.36 650.41,-410.59 654.63,-416.18"/>
</a>
</g>
</g>
<!-- Node6 -->
<g id="Node000006" class="node">
<title>Node6</title>
<g id="a_Node000006"><a xlink:title=" ">
<polygon fill="#e0e0e0" stroke="#999999" points="544.88,-74.5 493.62,-74.5 493.62,-55.25 544.88,-55.25 544.88,-74.5"/>
<text xml:space="preserve" text-anchor="middle" x="519.25" y="-61" font-family="Helvetica,sans-Serif" font-size="10.00">stdarg.h</text>
</a>
</g>
</g>
<!-- Node5&#45;&gt;Node6 -->
<g id="edge5_Node000005_Node000006" class="edge">
<title>Node5&#45;&gt;Node6</title>
<g id="a_edge5_Node000005_Node000006"><a xlink:title=" ">
<path fill="none" stroke="#63b8ff" d="M433.72,-110.09C449.56,-101.91 473.16,-89.71 491.56,-80.19"/>
<polygon fill="#63b8ff" stroke="#63b8ff" points="493.07,-83.35 500.35,-75.65 489.86,-77.13 493.07,-83.35"/>
</a>
</g>
</g>
<!-- Node7 -->
<g id="Node000007" class="node">
<title>Node7</title>
<g id="a_Node000007"><a xlink:title=" ">
<polygon fill="#e0e0e0" stroke="#999999" points="392.88,-19.25 341.62,-19.25 341.62,0 392.88,0 392.88,-19.25"/>
<text xml:space="preserve" text-anchor="middle" x="367.25" y="-5.75" font-family="Helvetica,sans-Serif" font-size="10.00">stddef.h</text>
</a>
</g>
</g>
<!-- Node5&#45;&gt;Node7 -->
<g id="edge6_Node000005_Node000007" class="edge">
<title>Node5&#45;&gt;Node7</title>
<g id="a_edge6_Node000005_Node000007"><a xlink:title=" ">
<path fill="none" stroke="#63b8ff" d="M412.24,-110.25C404.34,-92.76 386.62,-53.52 375.93,-29.84"/>
<polygon fill="#63b8ff" stroke="#63b8ff" points="379.24,-28.68 371.94,-21.01 372.86,-31.56 379.24,-28.68"/>
</a>
</g>
</g>
<!-- Node8 -->
<g id="Node000008" class="node">
<title>Node8</title>
<g id="a_Node000008"><a xlink:href="luaconf_8h.html" target="_top" xlink:title=" ">
<polygon fill="white" stroke="#666666" points="463.12,-74.5 407.38,-74.5 407.38,-55.25 463.12,-55.25 463.12,-74.5"/>
<text xml:space="preserve" text-anchor="middle" x="435.25" y="-61" font-family="Helvetica,sans-Serif" font-size="10.00">luaconf.h</text>
</a>
</g>
</g>
<!-- Node5&#45;&gt;Node8 -->
<g id="edge7_Node000005_Node000008" class="edge">
<title>Node5&#45;&gt;Node8</title>
<g id="a_edge7_Node000005_Node000008"><a xlink:title=" ">
<path fill="none" stroke="#63b8ff" d="M419.39,-110.33C421.79,-103.59 425.21,-94.02 428.25,-85.49"/>
<polygon fill="#63b8ff" stroke="#63b8ff" points="431.47,-86.88 431.54,-76.28 424.88,-84.53 431.47,-86.88"/>
</a>
</g>
</g>
<!-- Node8&#45;&gt;Node7 -->
<g id="edge9_Node000008_Node000007" class="edge">
<title>Node8&#45;&gt;Node7</title>
<g id="a_edge9_Node000008_Node000007"><a xlink:title=" ">
<path fill="none" stroke="#63b8ff" d="M423.71,-54.84C413.79,-47.07 399.24,-35.67 387.39,-26.4"/>
<polygon fill="#63b8ff" stroke="#63b8ff" points="389.84,-23.87 379.81,-20.46 385.52,-29.38 389.84,-23.87"/>
</a>
</g>
</g>
<!-- Node9 -->
<g id="Node000009" class="node">
<title>Node9</title>
<g id="a_Node000009"><a xlink:title=" ">
<polygon fill="#e0e0e0" stroke="#999999" points="471,-19.25 423.5,-19.25 423.5,0 471,0 471,-19.25"/>
<text xml:space="preserve" text-anchor="middle" x="447.25" y="-5.75" font-family="Helvetica,sans-Serif" font-size="10.00">limits.h</text>
</a>
</g>
</g>
<!-- Node8&#45;&gt;Node9 -->
<g id="edge8_Node000008_Node000009" class="edge">
<title>Node8&#45;&gt;Node9</title>
<g id="a_edge8_Node000008_Node000009"><a xlink:title=" ">
<path fill="none" stroke="#63b8ff" d="M437.23,-55.08C438.72,-48.49 440.81,-39.21 442.7,-30.82"/>
<polygon fill="#63b8ff" stroke="#63b8ff" points="446.11,-31.61 444.89,-21.09 439.28,-30.07 446.11,-31.61"/>
</a>
</g>
</g>
<!-- Node10&#45;&gt;Node5 -->
<g id="edge11_Node000010_Node000005" class="edge">
<title>Node10&#45;&gt;Node5</title>
<g id="a_edge11_Node000010_Node000005"><a xlink:title=" ">
<path fill="none" stroke="#63b8ff" d="M860.67,-220.82C855.99,-206.55 844.65,-178.71 824.25,-165.75 761.54,-125.92 530.29,-121.37 446.68,-121.05"/>
<polygon fill="#63b8ff" stroke="#63b8ff" points="446.75,-117.55 436.74,-121.03 446.73,-124.55 446.75,-117.55"/>
</a>
</g>
</g>
<!-- Node10&#45;&gt;Node9 -->
<g id="edge12_Node000010_Node000009" class="edge">
<title>Node10&#45;&gt;Node9</title>
<g id="a_edge12_Node000010_Node000009"><a xlink:title=" ">
<path fill="none" stroke="#63b8ff" d="M862.15,-220.56C860.35,-207.81 856.06,-184.09 847.25,-165.75 820.54,-110.14 816.46,-86.47 763.25,-55.25 716.17,-27.63 554.37,-16.09 482.33,-12.24"/>
<polygon fill="#63b8ff" stroke="#63b8ff" points="482.85,-8.76 472.68,-11.75 482.49,-15.75 482.85,-8.76"/>
</a>
</g>
</g>
<!-- Node11 -->
<g id="Node000011" class="node">
<title>Node11</title>
<g id="a_Node000011"><a xlink:href="llimits_8h.html" target="_top" xlink:title=" ">
<polygon fill="white" stroke="#666666" points="328.12,-185 278.38,-185 278.38,-165.75 328.12,-165.75 328.12,-185"/>
<text xml:space="preserve" text-anchor="middle" x="303.25" y="-171.5" font-family="Helvetica,sans-Serif" font-size="10.00">llimits.h</text>
</a>
</g>
</g>
<!-- Node10&#45;&gt;Node11 -->
<g id="edge13_Node000010_Node000011" class="edge">
<title>Node10&#45;&gt;Node11</title>
<g id="a_edge13_Node000010_Node000011"><a xlink:title=" ">
<path fill="none" stroke="#63b8ff" d="M837.73,-227.2C747.8,-218.65 445.34,-189.89 339.89,-179.86"/>
<polygon fill="#63b8ff" stroke="#63b8ff" points="340.39,-176.39 330.1,-178.93 339.73,-183.36 340.39,-176.39"/>
</a>
</g>
</g>
<!-- Node11&#45;&gt;Node5 -->
<g id="edge16_Node000011_Node000005" class="edge">
<title>Node11&#45;&gt;Node5</title>
<g id="a_edge16_Node000011_Node000005"><a xlink:title=" ">
<path fill="none" stroke="#63b8ff" d="M322.42,-165.34C340.14,-156.99 366.73,-144.46 387.08,-134.87"/>
<polygon fill="#63b8ff" stroke="#63b8ff" points="388.44,-138.1 396,-130.67 385.46,-131.77 388.44,-138.1"/>
</a>
</g>
</g>
<!-- Node11&#45;&gt;Node7 -->
<g id="edge15_Node000011_Node000007" class="edge">
<title>Node11&#45;&gt;Node7</title>
<g id="a_edge15_Node000011_Node000007"><a xlink:title=" ">
<path fill="none" stroke="#63b8ff" d="M306.69,-165.57C316.67,-140.03 345.82,-65.45 359.71,-29.9"/>
<polygon fill="#63b8ff" stroke="#63b8ff" points="362.86,-31.47 363.24,-20.88 356.34,-28.92 362.86,-31.47"/>
</a>
</g>
</g>
<!-- Node11&#45;&gt;Node9 -->
<g id="edge14_Node000011_Node000009" class="edge">
<title>Node11&#45;&gt;Node9</title>
<g id="a_edge14_Node000011_Node000009"><a xlink:title=" ">
<path fill="none" stroke="#63b8ff" d="M309.71,-165.31C324.44,-144.85 362.09,-93.86 398.25,-55.25 407.45,-45.42 418.48,-35.26 427.74,-27.12"/>
<polygon fill="#63b8ff" stroke="#63b8ff" points="429.86,-29.91 435.13,-20.73 425.28,-24.62 429.86,-29.91"/>
</a>
</g>
</g>
<!-- Node12&#45;&gt;Node13 -->
<g id="edge18_Node000012_Node000013" class="edge">
<title>Node12&#45;&gt;Node13</title>
<g id="a_edge18_Node000012_Node000013"><a xlink:title=" ">
<path fill="none" stroke="#63b8ff" d="M405.17,-386.58C412.7,-379.15 423.72,-368.29 432.98,-359.16"/>
<polygon fill="#63b8ff" stroke="#63b8ff" points="435.4,-361.69 440.06,-352.17 430.48,-356.7 435.4,-361.69"/>
</a>
</g>
</g>
<!-- Node13&#45;&gt;Node5 -->
<g id="edge19_Node000013_Node000005" class="edge">
<title>Node13&#45;&gt;Node5</title>
<g id="a_edge19_Node000013_Node000005"><a xlink:title=" ">
<path fill="none" stroke="#63b8ff" d="M440.64,-331.29C432.38,-322.97 421.05,-309.71 416.25,-295.5 398.3,-242.32 406.35,-174.72 412.15,-141.47"/>
<polygon fill="#63b8ff" stroke="#63b8ff" points="415.59,-142.12 414,-131.65 408.71,-140.83 415.59,-142.12"/>
</a>
</g>
</g>
<!-- Node13&#45;&gt;Node14 -->
<g id="edge20_Node000013_Node000014" class="edge">
<title>Node13&#45;&gt;Node14</title>
<g id="a_edge20_Node000013_Node000014"><a xlink:title=" ">
<path fill="none" stroke="#63b8ff" d="M474.74,-334.42C495.39,-328.3 524.09,-316.51 540.25,-295.5 549.77,-283.13 552.8,-265.55 553.58,-251.96"/>
<polygon fill="#63b8ff" stroke="#63b8ff" points="557.08,-252.03 553.74,-241.97 550.08,-251.91 557.08,-252.03"/>
</a>
</g>
</g>
<!-- Node15 -->
<g id="Node000015" class="node">
<title>Node15</title>
<g id="a_Node000015"><a xlink:href="ltm_8h.html" target="_top" xlink:title=" ">
<polygon fill="white" stroke="#666666" points="531.12,-295.5 493.38,-295.5 493.38,-276.25 531.12,-276.25 531.12,-295.5"/>
<text xml:space="preserve" text-anchor="middle" x="512.25" y="-282" font-family="Helvetica,sans-Serif" font-size="10.00">ltm.h</text>
</a>
</g>
</g>
<!-- Node13&#45;&gt;Node15 -->
<g id="edge24_Node000013_Node000015" class="edge">
<title>Node13&#45;&gt;Node15</title>
<g id="a_edge24_Node000013_Node000015"><a xlink:title=" ">
<path fill="none" stroke="#63b8ff" d="M460.77,-331.09C469.64,-323.47 482.56,-312.37 493.24,-303.2"/>
<polygon fill="#63b8ff" stroke="#63b8ff" points="495.43,-305.93 500.74,-296.76 490.87,-300.62 495.43,-305.93"/>
</a>
</g>
</g>
<!-- Node13&#45;&gt;Node16 -->
<g id="edge26_Node000013_Node000016" class="edge">
<title>Node13&#45;&gt;Node16</title>
<g id="a_edge26_Node000013_Node000016"><a xlink:title=" ">
<path fill="none" stroke="#63b8ff" d="M425.64,-332.72C393.89,-323.17 338.66,-306.55 304.13,-296.16"/>
<polygon fill="#63b8ff" stroke="#63b8ff" points="305.31,-292.86 294.72,-293.34 303.29,-299.57 305.31,-292.86"/>
</a>
</g>
</g>
<!-- Node18 -->
<g id="Node000018" class="node">
<title>Node18</title>
<g id="a_Node000018"><a xlink:title=" ">
<polygon fill="#e0e0e0" stroke="#999999" points="475.12,-295.5 425.38,-295.5 425.38,-276.25 475.12,-276.25 475.12,-295.5"/>
<text xml:space="preserve" text-anchor="middle" x="450.25" y="-282" font-family="Helvetica,sans-Serif" font-size="10.00">signal.h</text>
</a>
</g>
</g>
<!-- Node13&#45;&gt;Node18 -->
<g id="edge32_Node000013_Node000018" class="edge">
<title>Node13&#45;&gt;Node18</title>
<g id="a_edge32_Node000013_Node000018"><a xlink:title=" ">
<path fill="none" stroke="#63b8ff" d="M450.25,-331.33C450.25,-324.82 450.25,-315.67 450.25,-307.37"/>
<polygon fill="#63b8ff" stroke="#63b8ff" points="453.75,-307.37 450.25,-297.37 446.75,-307.37 453.75,-307.37"/>
</a>
</g>
</g>
<!-- Node14&#45;&gt;Node5 -->
<g id="edge23_Node000014_Node000005" class="edge">
<title>Node14&#45;&gt;Node5</title>
<g id="a_edge23_Node000014_Node000005"><a xlink:title=" ">
<path fill="none" stroke="#63b8ff" d="M542.04,-220.75C518.96,-202.47 465.85,-160.4 436.56,-137.21"/>
<polygon fill="#63b8ff" stroke="#63b8ff" points="438.82,-134.53 428.8,-131.07 434.47,-140.02 438.82,-134.53"/>
</a>
</g>
</g>
<!-- Node14&#45;&gt;Node6 -->
<g id="edge21_Node000014_Node000006" class="edge">
<title>Node14&#45;&gt;Node6</title>
<g id="a_edge21_Node000014_Node000006"><a xlink:title=" ">
<path fill="none" stroke="#63b8ff" d="M551.42,-220.82C546.14,-195.39 530.77,-121.35 523.35,-85.62"/>
<polygon fill="#63b8ff" stroke="#63b8ff" points="526.85,-85.28 521.39,-76.2 520,-86.71 526.85,-85.28"/>
</a>
</g>
</g>
<!-- Node14&#45;&gt;Node11 -->
<g id="edge22_Node000014_Node000011" class="edge">
<title>Node14&#45;&gt;Node11</title>
<g id="a_edge22_Node000014_Node000011"><a xlink:title=" ">
<path fill="none" stroke="#63b8ff" d="M526.5,-223.93C481.39,-214.32 390.17,-194.89 339.41,-184.08"/>
<polygon fill="#63b8ff" stroke="#63b8ff" points="340.31,-180.69 329.8,-182.03 338.85,-187.54 340.31,-180.69"/>
</a>
</g>
</g>
<!-- Node15&#45;&gt;Node14 -->
<g id="edge25_Node000015_Node000014" class="edge">
<title>Node15&#45;&gt;Node14</title>
<g id="a_edge25_Node000015_Node000014"><a xlink:title=" ">
<path fill="none" stroke="#63b8ff" d="M519.02,-276.08C524.57,-268.88 532.59,-258.46 539.48,-249.51"/>
<polygon fill="#63b8ff" stroke="#63b8ff" points="542.08,-251.87 545.41,-241.81 536.54,-247.6 542.08,-251.87"/>
</a>
</g>
</g>
<!-- Node16&#45;&gt;Node5 -->
<g id="edge27_Node000016_Node000005" class="edge">
<title>Node16&#45;&gt;Node5</title>
<g id="a_edge27_Node000016_Node000005"><a xlink:title=" ">
<path fill="none" stroke="#63b8ff" d="M280.94,-276.07C303.63,-250.08 370.65,-173.34 401,-138.59"/>
<polygon fill="#63b8ff" stroke="#63b8ff" points="403.59,-140.95 407.53,-131.11 398.31,-136.34 403.59,-140.95"/>
</a>
</g>
</g>
<!-- Node17 -->
<g id="Node000017" class="node">
<title>Node17</title>
<g id="a_Node000017"><a xlink:href="lmem_8h.html" target="_top" xlink:title=" ">
<polygon fill="white" stroke="#666666" points="217.38,-240.25 169.12,-240.25 169.12,-221 217.38,-221 217.38,-240.25"/>
<text xml:space="preserve" text-anchor="middle" x="193.25" y="-226.75" font-family="Helvetica,sans-Serif" font-size="10.00">lmem.h</text>
</a>
</g>
</g>
<!-- Node16&#45;&gt;Node17 -->
<g id="edge28_Node000016_Node000017" class="edge">
<title>Node16&#45;&gt;Node17</title>
<g id="a_edge28_Node000016_Node000017"><a xlink:title=" ">
<path fill="none" stroke="#63b8ff" d="M259.68,-275.84C247.84,-267.96 230.41,-256.36 216.38,-247.02"/>
<polygon fill="#63b8ff" stroke="#63b8ff" points="218.41,-244.17 208.15,-241.54 214.53,-250 218.41,-244.17"/>
</a>
</g>
</g>
<!-- Node17&#45;&gt;Node5 -->
<g id="edge31_Node000017_Node000005" class="edge">
<title>Node17&#45;&gt;Node5</title>
<g id="a_edge31_Node000017_Node000005"><a xlink:title=" ">
<path fill="none" stroke="#63b8ff" d="M201.29,-220.9C214.31,-207.25 241.37,-180.87 269.25,-165.75 307.13,-145.21 355.74,-132.82 386.46,-126.48"/>
<polygon fill="#63b8ff" stroke="#63b8ff" points="387.06,-129.93 396.19,-124.56 385.7,-123.06 387.06,-129.93"/>
</a>
</g>
</g>
<!-- Node17&#45;&gt;Node7 -->
<g id="edge29_Node000017_Node000007" class="edge">
<title>Node17&#45;&gt;Node7</title>
<g id="a_edge29_Node000017_Node000007"><a xlink:title=" ">
<path fill="none" stroke="#63b8ff" d="M199.15,-220.79C207.55,-208.31 223.57,-184.92 238.25,-165.75 277.67,-114.29 327.52,-56.16 352.11,-27.9"/>
<polygon fill="#63b8ff" stroke="#63b8ff" points="354.5,-30.49 358.44,-20.65 349.22,-25.88 354.5,-30.49"/>
</a>
</g>
</g>
<!-- Node17&#45;&gt;Node11 -->
<g id="edge30_Node000017_Node000011" class="edge">
<title>Node17&#45;&gt;Node11</title>
<g id="a_edge30_Node000017_Node000011"><a xlink:title=" ">
<path fill="none" stroke="#63b8ff" d="M211.91,-220.59C228.98,-212.33 254.49,-199.98 274.22,-190.43"/>
<polygon fill="#63b8ff" stroke="#63b8ff" points="275.66,-193.62 283.14,-186.11 272.61,-187.32 275.66,-193.62"/>
</a>
</g>
</g>
<!-- Node19&#45;&gt;Node11 -->
<g id="edge34_Node000019_Node000011" class="edge">
<title>Node19&#45;&gt;Node11</title>
<g id="a_edge34_Node000019_Node000011"><a xlink:title=" ">
<path fill="none" stroke="#63b8ff" d="M262.09,-386.44C252.79,-378.25 240.14,-365.24 234.25,-350.75 221.77,-320.05 221.07,-307.78 231.25,-276.25 241.92,-243.21 268.03,-211.89 285.7,-193.41"/>
<polygon fill="#63b8ff" stroke="#63b8ff" points="287.99,-196.07 292.52,-186.49 283.01,-191.15 287.99,-196.07"/>
</a>
</g>
</g>
<!-- Node19&#45;&gt;Node13 -->
<g id="edge36_Node000019_Node000013" class="edge">
<title>Node19&#45;&gt;Node13</title>
<g id="a_edge36_Node000019_Node000013"><a xlink:title=" ">
<path fill="none" stroke="#63b8ff" d="M292.19,-389.68C321.45,-380.87 378.11,-363.83 415.04,-352.72"/>
<polygon fill="#63b8ff" stroke="#63b8ff" points="415.8,-356.15 424.36,-349.91 413.78,-349.44 415.8,-356.15"/>
</a>
</g>
</g>
<!-- Node19&#45;&gt;Node14 -->
<g id="edge35_Node000019_Node000014" class="edge">
<title>Node19&#45;&gt;Node14</title>
<g id="a_edge35_Node000019_Node000014"><a xlink:title=" ">
<path fill="none" stroke="#63b8ff" d="M266.4,-386.37C250.77,-364.68 215.96,-308.91 244.25,-276.25 278.9,-236.24 440.52,-231.3 515.22,-231.21"/>
<polygon fill="#63b8ff" stroke="#63b8ff" points="514.91,-234.71 524.91,-231.23 514.92,-227.71 514.91,-234.71"/>
</a>
</g>
</g>
<!-- Node19&#45;&gt;Node16 -->
<g id="edge37_Node000019_Node000016" class="edge">
<title>Node19&#45;&gt;Node16</title>
<g id="a_edge37_Node000019_Node000016"><a xlink:title=" ">
<path fill="none" stroke="#63b8ff" d="M273.25,-386.5C273.25,-369.25 273.25,-330.83 273.25,-307.06"/>
<polygon fill="#63b8ff" stroke="#63b8ff" points="276.75,-307.39 273.25,-297.39 269.75,-307.39 276.75,-307.39"/>
</a>
</g>
</g>
<!-- Node20&#45;&gt;Node13 -->
<g id="edge40_Node000020_Node000013" class="edge">
<title>Node20&#45;&gt;Node13</title>
<g id="a_edge40_Node000020_Node000013"><a xlink:title=" ">
<path fill="none" stroke="#63b8ff" d="M489.49,-386.58C483.06,-379.3 473.74,-368.73 465.79,-359.73"/>
<polygon fill="#63b8ff" stroke="#63b8ff" points="468.42,-357.43 459.18,-352.24 463.17,-362.06 468.42,-357.43"/>
</a>
</g>
</g>
<!-- Node20&#45;&gt;Node14 -->
<g id="edge39_Node000020_Node000014" class="edge">
<title>Node20&#45;&gt;Node14</title>
<g id="a_edge39_Node000020_Node000014"><a xlink:title=" ">
<path fill="none" stroke="#63b8ff" d="M505.37,-386.32C519.61,-369.74 548.62,-332.79 559.25,-295.5 563.37,-281.05 561.48,-264.09 558.77,-251.28"/>
<polygon fill="#63b8ff" stroke="#63b8ff" points="562.27,-250.82 556.46,-241.96 555.47,-252.51 562.27,-250.82"/>
</a>
</g>
</g>
<!-- Node21&#45;&gt;Node9 -->
<g id="edge42_Node000021_Node000009" class="edge">
<title>Node21&#45;&gt;Node9</title>
<g id="a_edge42_Node000021_Node000009"><a xlink:title=" ">
<path fill="none" stroke="#63b8ff" d="M726.98,-331.01C734.16,-312.58 749.25,-269.4 749.25,-231.62 749.25,-231.62 749.25,-231.62 749.25,-119.12 749.25,-62.97 561.99,-27.98 482.38,-15.64"/>
<polygon fill="#63b8ff" stroke="#63b8ff" points="483.36,-12.24 472.95,-14.21 482.31,-19.17 483.36,-12.24"/>
</a>
</g>
</g>
<!-- Node21&#45;&gt;Node14 -->
<g id="edge43_Node000021_Node000014" class="edge">
<title>Node21&#45;&gt;Node14</title>
<g id="a_edge43_Node000021_Node000014"><a xlink:title=" ">
<path fill="none" stroke="#63b8ff" d="M720.6,-331.35C716.01,-317.63 705.32,-291.15 687.25,-276.25 659.73,-253.56 620.22,-242.25 591.23,-236.71"/>
<polygon fill="#63b8ff" stroke="#63b8ff" points="591.85,-233.26 581.4,-234.99 590.65,-240.16 591.85,-233.26"/>
</a>
</g>
</g>
<!-- Node21&#45;&gt;Node16 -->
<g id="edge44_Node000021_Node000016" class="edge">
<title>Node21&#45;&gt;Node16</title>
<g id="a_edge44_Node000021_Node000016"><a xlink:title=" ">
<path fill="none" stroke="#63b8ff" d="M703.33,-337.77C632.33,-329.37 391.24,-300.84 304.59,-290.58"/>
<polygon fill="#63b8ff" stroke="#63b8ff" points="305.04,-287.11 294.69,-289.41 304.21,-294.06 305.04,-287.11"/>
</a>
</g>
</g>
<!-- Node22&#45;&gt;Node11 -->
<g id="edge47_Node000022_Node000011" class="edge">
<title>Node22&#45;&gt;Node11</title>
<g id="a_edge47_Node000022_Node000011"><a xlink:title=" ">
<path fill="none" stroke="#63b8ff" d="M332.58,-331.32C327.77,-305.89 313.75,-231.85 306.99,-196.12"/>
<polygon fill="#63b8ff" stroke="#63b8ff" points="310.51,-195.88 305.21,-186.71 303.63,-197.19 310.51,-195.88"/>
</a>
</g>
</g>
<!-- Node22&#45;&gt;Node14 -->
<g id="edge48_Node000022_Node000014" class="edge">
<title>Node22&#45;&gt;Node14</title>
<g id="a_edge48_Node000022_Node000014"><a xlink:title=" ">
<path fill="none" stroke="#63b8ff" d="M343.57,-331.06C358.04,-317.44 387.25,-291.66 416.25,-276.25 447.9,-259.44 487.03,-247.47 515.36,-240.18"/>
<polygon fill="#63b8ff" stroke="#63b8ff" points="516.07,-243.61 524.93,-237.81 514.38,-236.82 516.07,-243.61"/>
</a>
</g>
</g>
<!-- Node22&#45;&gt;Node16 -->
<g id="edge49_Node000022_Node000016" class="edge">
<title>Node22&#45;&gt;Node16</title>
<g id="a_edge49_Node000022_Node000016"><a xlink:title=" ">
<path fill="none" stroke="#63b8ff" d="M323.9,-331.09C315.17,-323.47 302.46,-312.37 291.95,-303.2"/>
<polygon fill="#63b8ff" stroke="#63b8ff" points="294.42,-300.71 284.59,-296.77 289.82,-305.98 294.42,-300.71"/>
</a>
</g>
</g>
<!-- Node23&#45;&gt;Node13 -->
<g id="edge54_Node000023_Node000013" class="edge">
<title>Node23&#45;&gt;Node13</title>
<g id="a_edge54_Node000023_Node000013"><a xlink:title=" ">
<path fill="none" stroke="#63b8ff" d="M542.81,-441.87C541.73,-428.65 538.01,-403.39 525.25,-386.75 514.86,-373.21 499.09,-362.94 484.69,-355.69"/>
<polygon fill="#63b8ff" stroke="#63b8ff" points="486.45,-352.65 475.91,-351.58 483.48,-358.99 486.45,-352.65"/>
</a>
</g>
</g>
<!-- Node23&#45;&gt;Node14 -->
<g id="edge53_Node000023_Node000014" class="edge">
<title>Node23&#45;&gt;Node14</title>
<g id="a_edge53_Node000023_Node000014"><a xlink:title=" ">
<path fill="none" stroke="#63b8ff" d="M547.26,-441.86C558.45,-416.24 588.34,-339.27 574.25,-276.25 572.27,-267.38 568.32,-258.19 564.37,-250.48"/>
<polygon fill="#63b8ff" stroke="#63b8ff" points="567.46,-248.82 559.56,-241.76 561.33,-252.2 567.46,-248.82"/>
</a>
</g>
</g>
<!-- Node23&#45;&gt;Node20 -->
<g id="edge52_Node000023_Node000020" class="edge">
<title>Node23&#45;&gt;Node20</title>
<g id="a_edge52_Node000023_Node000020"><a xlink:title=" ">
<path fill="none" stroke="#63b8ff" d="M535.65,-441.83C529.37,-434.55 520.24,-423.98 512.45,-414.98"/>
<polygon fill="#63b8ff" stroke="#63b8ff" points="515.19,-412.78 506,-407.5 509.89,-417.36 515.19,-412.78"/>
</a>
</g>
</g>
<!-- Node24&#45;&gt;Node14 -->
<g id="edge56_Node000024_Node000014" class="edge">
<title>Node24&#45;&gt;Node14</title>
<g id="a_edge56_Node000024_Node000014"><a xlink:title=" ">
<path fill="none" stroke="#63b8ff" d="M674,-386.5C675.31,-365.09 675.75,-309.89 649.25,-276.25 634.76,-257.86 610.91,-246.72 590.62,-240.17"/>
<polygon fill="#63b8ff" stroke="#63b8ff" points="591.82,-236.87 581.24,-237.41 589.84,-243.59 591.82,-236.87"/>
</a>
</g>
</g>
</g>
</svg>
