<?xml version="1.0" encoding="UTF-8" standalone="no"?>
<!DOCTYPE svg PUBLIC "-//W3C//DTD SVG 1.1//EN"
 "http://www.w3.org/Graphics/SVG/1.1/DTD/svg11.dtd">
<!-- Generated by graphviz version 13.1.0 (20250701.0955)
 -->
<!-- Title: lua&#45;5.4.7/llex.h Pages: 1 -->
<!--zoomable 193 -->

<svg id="main" version="1.1" xmlns="http://www.w3.org/2000/svg" xmlns:xlink="http://www.w3.org/1999/xlink" xml:space="preserve" onload="init(evt)">

<style type="text/css"><![CDATA[
.node, .edge {opacity: 0.7;}
.node.selected, .edge.selected {opacity: 1;}
.edge:hover path { stroke: red; }
.edge:hover polygon { stroke: red; fill: red; }
]]></style>

<defs>
  <circle id="rim" cx="0" cy="0" r="7"/>
  <circle id="rim2" cx="0" cy="0" r="3.5"/>
  <g id="zoomPlus">
    <use xlink:href="#rim" fill="#404040"><set attributeName="fill" to="#808080" begin="zoomplus.mouseover" end="zoomplus.mouseout"/></use>
    <path d="M-4,0h8M0,-4v8" fill="none" stroke="white" stroke-width="1.5" pointer-events="none"/>
  </g>
  <g id="zoomMin">
    <use xlink:href="#rim" fill="#404040"><set attributeName="fill" to="#808080" begin="zoomminus.mouseover" end="zoomminus.mouseout"/></use>
    <path d="M-4,0h8" fill="none" stroke="white" stroke-width="1.5" pointer-events="none"/>
  </g>
  <g id="arrowUp" transform="translate(30 24)">
    <use xlink:href="#rim"/>
    <path pointer-events="none" fill="none" stroke="white" stroke-width="1.5" d="M0,-3.0v7 M-2.5,-0.5L0,-3.0L2.5,-0.5"/>
  </g>
  <g id="arrowRight" transform="rotate(90) translate(36 -43)">
    <use xlink:href="#rim"/>
    <path pointer-events="none" fill="none" stroke="white" stroke-width="1.5" d="M0,-3.0v7 M-2.5,-0.5L0,-3.0L2.5,-0.5"/>
  </g>
  <g id="arrowDown" transform="rotate(180) translate(-30 -48)">
    <use xlink:href="#rim"/>
    <path pointer-events="none" fill="none" stroke="white" stroke-width="1.5" d="M0,-3.0v7 M-2.5,-0.5L0,-3.0L2.5,-0.5"/>
  </g>
  <g id="arrowLeft" transform="rotate(270) translate(-36 17)">
    <use xlink:href="#rim"/>
    <path pointer-events="none" fill="none" stroke="white" stroke-width="1.5" d="M0,-3.0v7 M-2.5,-0.5L0,-3.0L2.5,-0.5"/>
  </g>
  <g id="resetDef">
    <use xlink:href="#rim2" fill="#404040"><set attributeName="fill" to="#808080" begin="reset.mouseover" end="reset.mouseout"/></use>
  </g>
</defs>
<script type="application/ecmascript">
var viewWidth = 551;
var viewHeight = 193;
var sectionId = 'dynsection-1';
</script>
<script type="application/ecmascript" xlink:href="svg.min.js"/>
<svg id="graph" class="graph">
<g id="viewport">
<title>lua&#45;5.4.7/llex.h</title>
<!-- Node1 -->
<g id="Node000001" class="node">
<title>Node1</title>
<g id="a_Node000001"><a xlink:title=" ">
<polygon fill="#999999" stroke="#666666" points="368.88,-185 289.12,-185 289.12,-165.75 368.88,-165.75 368.88,-185"/>
<text xml:space="preserve" text-anchor="middle" x="329" y="-171.5" font-family="Helvetica,sans-Serif" font-size="10.00">lua&#45;5.4.7/llex.h</text>
</a>
</g>
</g>
<!-- Node2 -->
<g id="Node000002" class="node">
<title>Node2</title>
<g id="a_Node000002"><a xlink:href="lcode_8c.html" target="_top" xlink:title=" ">
<polygon fill="white" stroke="#666666" points="88,-74.5 0,-74.5 0,-55.25 88,-55.25 88,-74.5"/>
<text xml:space="preserve" text-anchor="middle" x="44" y="-61" font-family="Helvetica,sans-Serif" font-size="10.00">lua&#45;5.4.7/lcode.c</text>
</a>
</g>
</g>
<!-- Node1&#45;&gt;Node2 -->
<g id="edge1_Node000001_Node000002" class="edge">
<title>Node1&#45;&gt;Node2</title>
<g id="a_edge1_Node000001_Node000002"><a xlink:title=" ">
<path fill="none" stroke="#63b8ff" d="M291.76,-161.48C266.83,-152.76 233.35,-140.84 204,-129.75 154.34,-110.98 96.62,-87.53 65.9,-74.92"/>
<polygon fill="#63b8ff" stroke="#63b8ff" points="290.54,-164.76 301.13,-164.76 292.84,-158.16 290.54,-164.76"/>
</a>
</g>
</g>
<!-- Node4 -->
<g id="Node000004" class="node">
<title>Node4</title>
<g id="a_Node000004"><a xlink:href="lcode_8h.html" target="_top" xlink:title=" ">
<polygon fill="white" stroke="#666666" points="301,-129.75 213,-129.75 213,-110.5 301,-110.5 301,-129.75"/>
<text xml:space="preserve" text-anchor="middle" x="257" y="-116.25" font-family="Helvetica,sans-Serif" font-size="10.00">lua&#45;5.4.7/lcode.h</text>
</a>
</g>
</g>
<!-- Node1&#45;&gt;Node4 -->
<g id="edge3_Node000001_Node000004" class="edge">
<title>Node1&#45;&gt;Node4</title>
<g id="a_edge3_Node000001_Node000004"><a xlink:title=" ">
<path fill="none" stroke="#63b8ff" d="M307.83,-158.72C295.19,-149.37 279.59,-137.83 269.03,-130.02"/>
<polygon fill="#63b8ff" stroke="#63b8ff" points="305.45,-161.31 315.57,-164.44 309.61,-155.68 305.45,-161.31"/>
</a>
</g>
</g>
<!-- Node6 -->
<g id="Node000006" class="node">
<title>Node6</title>
<g id="a_Node000006"><a xlink:href="lparser_8c.html" target="_top" xlink:title=" ">
<polygon fill="white" stroke="#666666" points="417.62,-74.5 324.38,-74.5 324.38,-55.25 417.62,-55.25 417.62,-74.5"/>
<text xml:space="preserve" text-anchor="middle" x="371" y="-61" font-family="Helvetica,sans-Serif" font-size="10.00">lua&#45;5.4.7/lparser.c</text>
</a>
</g>
</g>
<!-- Node1&#45;&gt;Node6 -->
<g id="edge12_Node000001_Node000006" class="edge">
<title>Node1&#45;&gt;Node6</title>
<g id="a_edge12_Node000001_Node000006"><a xlink:title=" ">
<path fill="none" stroke="#63b8ff" d="M333.82,-154.74C337.21,-141.93 342.17,-124.98 348,-110.5 353.14,-97.72 360.7,-83.72 365.73,-74.87"/>
<polygon fill="#63b8ff" stroke="#63b8ff" points="330.53,-153.5 331.45,-164.05 337.31,-155.23 330.53,-153.5"/>
</a>
</g>
</g>
<!-- Node8 -->
<g id="Node000008" class="node">
<title>Node8</title>
<g id="a_Node000008"><a xlink:href="llex_8c.html" target="_top" xlink:title=" ">
<polygon fill="white" stroke="#666666" points="436.88,-129.75 357.12,-129.75 357.12,-110.5 436.88,-110.5 436.88,-129.75"/>
<text xml:space="preserve" text-anchor="middle" x="397" y="-116.25" font-family="Helvetica,sans-Serif" font-size="10.00">lua&#45;5.4.7/llex.c</text>
</a>
</g>
</g>
<!-- Node1&#45;&gt;Node8 -->
<g id="edge10_Node000001_Node000008" class="edge">
<title>Node1&#45;&gt;Node8</title>
<g id="a_edge10_Node000001_Node000008"><a xlink:title=" ">
<path fill="none" stroke="#63b8ff" d="M349.35,-158.44C361.22,-149.14 375.76,-137.76 385.64,-130.02"/>
<polygon fill="#63b8ff" stroke="#63b8ff" points="347.44,-155.49 341.73,-164.41 351.76,-161 347.44,-155.49"/>
</a>
</g>
</g>
<!-- Node9 -->
<g id="Node000009" class="node">
<title>Node9</title>
<g id="a_Node000009"><a xlink:href="lstate_8c.html" target="_top" xlink:title=" ">
<polygon fill="white" stroke="#666666" points="543.38,-129.75 454.62,-129.75 454.62,-110.5 543.38,-110.5 543.38,-129.75"/>
<text xml:space="preserve" text-anchor="middle" x="499" y="-116.25" font-family="Helvetica,sans-Serif" font-size="10.00">lua&#45;5.4.7/lstate.c</text>
</a>
</g>
</g>
<!-- Node1&#45;&gt;Node9 -->
<g id="edge13_Node000001_Node000009" class="edge">
<title>Node1&#45;&gt;Node9</title>
<g id="a_edge13_Node000001_Node000009"><a xlink:title=" ">
<path fill="none" stroke="#63b8ff" d="M368.71,-161.94C399.73,-152.22 442.13,-138.94 470.02,-130.2"/>
<polygon fill="#63b8ff" stroke="#63b8ff" points="367.78,-158.56 359.28,-164.89 369.87,-165.24 367.78,-158.56"/>
</a>
</g>
</g>
<!-- Node3 -->
<g id="Node000003" class="node">
<title>Node3</title>
<g id="a_Node000003"><a xlink:href="onelua_8c.html" target="_top" xlink:title=" ">
<polygon fill="white" stroke="#666666" points="417.62,-19.25 324.38,-19.25 324.38,0 417.62,0 417.62,-19.25"/>
<text xml:space="preserve" text-anchor="middle" x="371" y="-5.75" font-family="Helvetica,sans-Serif" font-size="10.00">lua&#45;5.4.7/onelua.c</text>
</a>
</g>
</g>
<!-- Node2&#45;&gt;Node3 -->
<g id="edge2_Node000002_Node000003" class="edge">
<title>Node2&#45;&gt;Node3</title>
<g id="a_edge2_Node000002_Node000003"><a xlink:title=" ">
<path fill="none" stroke="#63b8ff" d="M99.76,-54.79C162.92,-44.51 264.73,-27.93 324.01,-18.28"/>
<polygon fill="#63b8ff" stroke="#63b8ff" points="99.24,-51.33 89.93,-56.39 100.37,-58.24 99.24,-51.33"/>
</a>
</g>
</g>
<!-- Node4&#45;&gt;Node2 -->
<g id="edge4_Node000004_Node000002" class="edge">
<title>Node4&#45;&gt;Node2</title>
<g id="a_edge4_Node000004_Node000002"><a xlink:title=" ">
<path fill="none" stroke="#63b8ff" d="M209.79,-107.32C170.72,-97.55 116.02,-83.88 80.31,-74.95"/>
<polygon fill="#63b8ff" stroke="#63b8ff" points="208.85,-110.69 219.4,-109.72 210.55,-103.9 208.85,-110.69"/>
</a>
</g>
</g>
<!-- Node5 -->
<g id="Node000005" class="node">
<title>Node5</title>
<g id="a_Node000005"><a xlink:href="ldebug_8c.html" target="_top" xlink:title=" ">
<polygon fill="white" stroke="#666666" points="199.62,-74.5 106.38,-74.5 106.38,-55.25 199.62,-55.25 199.62,-74.5"/>
<text xml:space="preserve" text-anchor="middle" x="153" y="-61" font-family="Helvetica,sans-Serif" font-size="10.00">lua&#45;5.4.7/ldebug.c</text>
</a>
</g>
</g>
<!-- Node4&#45;&gt;Node5 -->
<g id="edge5_Node000004_Node000005" class="edge">
<title>Node4&#45;&gt;Node5</title>
<g id="a_edge5_Node000004_Node000005"><a xlink:title=" ">
<path fill="none" stroke="#63b8ff" d="M229.14,-104.86C210.58,-95.36 186.74,-83.15 170.73,-74.95"/>
<polygon fill="#63b8ff" stroke="#63b8ff" points="227.51,-107.96 238.01,-109.4 230.7,-101.73 227.51,-107.96"/>
</a>
</g>
</g>
<!-- Node4&#45;&gt;Node6 -->
<g id="edge7_Node000004_Node000006" class="edge">
<title>Node4&#45;&gt;Node6</title>
<g id="a_edge7_Node000004_Node000006"><a xlink:title=" ">
<path fill="none" stroke="#63b8ff" d="M286.69,-105.26C307.15,-95.7 333.77,-83.27 351.57,-74.95"/>
<polygon fill="#63b8ff" stroke="#63b8ff" points="285.29,-102.05 277.71,-109.45 288.25,-108.39 285.29,-102.05"/>
</a>
</g>
</g>
<!-- Node7 -->
<g id="Node000007" class="node">
<title>Node7</title>
<g id="a_Node000007"><a xlink:href="ltests_8c.html" target="_top" xlink:title=" ">
<polygon fill="white" stroke="#666666" points="306.38,-74.5 217.62,-74.5 217.62,-55.25 306.38,-55.25 306.38,-74.5"/>
<text xml:space="preserve" text-anchor="middle" x="262" y="-61" font-family="Helvetica,sans-Serif" font-size="10.00">lua&#45;5.4.7/ltests.c</text>
</a>
</g>
</g>
<!-- Node4&#45;&gt;Node7 -->
<g id="edge9_Node000004_Node000007" class="edge">
<title>Node4&#45;&gt;Node7</title>
<g id="a_edge9_Node000004_Node000007"><a xlink:title=" ">
<path fill="none" stroke="#63b8ff" d="M258.9,-98.88C259.68,-90.59 260.54,-81.42 261.16,-74.86"/>
<polygon fill="#63b8ff" stroke="#63b8ff" points="255.42,-98.54 257.97,-108.82 262.39,-99.2 255.42,-98.54"/>
</a>
</g>
</g>
<!-- Node5&#45;&gt;Node3 -->
<g id="edge6_Node000005_Node000003" class="edge">
<title>Node5&#45;&gt;Node3</title>
<g id="a_edge6_Node000005_Node000003"><a xlink:title=" ">
<path fill="none" stroke="#63b8ff" d="M201.06,-52.13C241.07,-42.36 297.21,-28.65 333.84,-19.7"/>
<polygon fill="#63b8ff" stroke="#63b8ff" points="200.33,-48.71 191.45,-54.48 202,-55.51 200.33,-48.71"/>
</a>
</g>
</g>
<!-- Node6&#45;&gt;Node3 -->
<g id="edge8_Node000006_Node000003" class="edge">
<title>Node6&#45;&gt;Node3</title>
<g id="a_edge8_Node000006_Node000003"><a xlink:title=" ">
<path fill="none" stroke="#63b8ff" d="M371,-43.63C371,-35.34 371,-26.17 371,-19.61"/>
<polygon fill="#63b8ff" stroke="#63b8ff" points="367.5,-43.57 371,-53.57 374.5,-43.57 367.5,-43.57"/>
</a>
</g>
</g>
<!-- Node8&#45;&gt;Node3 -->
<g id="edge11_Node000008_Node000003" class="edge">
<title>Node8&#45;&gt;Node3</title>
<g id="a_edge11_Node000008_Node000003"><a xlink:title=" ">
<path fill="none" stroke="#63b8ff" d="M414.12,-101.63C424.55,-88.77 434.53,-70.88 427,-55.25 419.28,-39.23 402.71,-27.19 389.59,-19.67"/>
<polygon fill="#63b8ff" stroke="#63b8ff" points="411.72,-99.06 407.7,-108.87 416.96,-103.71 411.72,-99.06"/>
</a>
</g>
</g>
<!-- Node9&#45;&gt;Node3 -->
<g id="edge14_Node000009_Node000003" class="edge">
<title>Node9&#45;&gt;Node3</title>
<g id="a_edge14_Node000009_Node000003"><a xlink:title=" ">
<path fill="none" stroke="#63b8ff" d="M485.39,-101.31C474.53,-87.77 458.44,-69.15 442,-55.25 425.1,-40.97 403.24,-27.91 388.26,-19.66"/>
<polygon fill="#63b8ff" stroke="#63b8ff" points="482.46,-103.24 491.38,-108.95 487.97,-98.92 482.46,-103.24"/>
</a>
</g>
</g>
</g>
</svg>

<g id="navigator" transform="translate(0 0)" fill="#404254">
  <rect fill="#f2f5e9" fill-opacity="0.5" stroke="#606060" stroke-width=".5" x="0" y="0" width="60" height="60"/>
  <use id="zoomplus" xlink:href="#zoomPlus" x="17" y="9" onmousedown="handleZoom(evt,'in')"/>
  <use id="zoomminus" xlink:href="#zoomMin" x="42" y="9" onmousedown="handleZoom(evt,'out')"/>
  <use id="reset" xlink:href="#resetDef" x="30" y="36" onmousedown="handleReset()"/>
   <use id="arrowup" xlink:href="#arrowUp" x="0" y="0" onmousedown="handlePan(0,-1)"/>
  <use id="arrowright" xlink:href="#arrowRight" x="0" y="0" onmousedown="handlePan(1,0)"/>
  <use id="arrowdown" xlink:href="#arrowDown" x="0" y="0" onmousedown="handlePan(0,1)"/>
  <use id="arrowleft" xlink:href="#arrowLeft" x="0" y="0" onmousedown="handlePan(-1,0)"/>
</g>
<svg viewBox="0 0 15 15" width="100%" height="30px" preserveAspectRatio="xMaxYMin meet">
 <g id="arrow_out" transform="scale(0.3 0.3)">
  <a xlink:href="llex_8h__dep__incl_org.svg" target="_base">
   <rect id="button" ry="5" rx="5" y="6" x="6" height="38" width="38"
        fill="#f2f5e9" fill-opacity="0.5" stroke="#606060" stroke-width="1.0"/>
   <path id="arrow"
     d="M 11.500037,31.436501 C 11.940474,20.09759 22.043105,11.32322 32.158766,21.979434 L 37.068811,17.246167 C 37.068811,17.246167 37.088388,32 37.088388,32 L 22.160133,31.978069 C 22.160133,31.978069 26.997745,27.140456 26.997745,27.140456 C 18.528582,18.264221 13.291696,25.230495 11.500037,31.436501 z"
     style="fill:#404040;"/>
  </a>
 </g>
</svg>

<style type='text/css'>
<![CDATA[
[data-mouse-over-selected='false'] { opacity: 0.7; }
[data-mouse-over-selected='true']  { opacity: 1.0; }
]]>
</style>
<script type="application/ecmascript"><![CDATA[
document.addEventListener('DOMContentLoaded', (event) => {
  highlightEdges();
  highlightAdjacentNodes();
});
]]></script>
</svg>
