<?xml version="1.0" encoding="UTF-8" standalone="no"?>
<!DOCTYPE svg PUBLIC "-//W3C//DTD SVG 1.1//EN"
 "http://www.w3.org/Graphics/SVG/1.1/DTD/svg11.dtd">
<!-- Generated by graphviz version 13.1.0 (20250701.0955)
 -->
<!-- Title: setseed Pages: 1 -->
<!--zoomable 95 -->

<svg id="main" version="1.1" xmlns="http://www.w3.org/2000/svg" xmlns:xlink="http://www.w3.org/1999/xlink" xml:space="preserve" onload="init(evt)">

<style type="text/css"><![CDATA[
.node, .edge {opacity: 0.7;}
.node.selected, .edge.selected {opacity: 1;}
.edge:hover path { stroke: red; }
.edge:hover polygon { stroke: red; fill: red; }
]]></style>

<defs>
  <circle id="rim" cx="0" cy="0" r="7"/>
  <circle id="rim2" cx="0" cy="0" r="3.5"/>
  <g id="zoomPlus">
    <use xlink:href="#rim" fill="#404040"><set attributeName="fill" to="#808080" begin="zoomplus.mouseover" end="zoomplus.mouseout"/></use>
    <path d="M-4,0h8M0,-4v8" fill="none" stroke="white" stroke-width="1.5" pointer-events="none"/>
  </g>
  <g id="zoomMin">
    <use xlink:href="#rim" fill="#404040"><set attributeName="fill" to="#808080" begin="zoomminus.mouseover" end="zoomminus.mouseout"/></use>
    <path d="M-4,0h8" fill="none" stroke="white" stroke-width="1.5" pointer-events="none"/>
  </g>
  <g id="arrowUp" transform="translate(30 24)">
    <use xlink:href="#rim"/>
    <path pointer-events="none" fill="none" stroke="white" stroke-width="1.5" d="M0,-3.0v7 M-2.5,-0.5L0,-3.0L2.5,-0.5"/>
  </g>
  <g id="arrowRight" transform="rotate(90) translate(36 -43)">
    <use xlink:href="#rim"/>
    <path pointer-events="none" fill="none" stroke="white" stroke-width="1.5" d="M0,-3.0v7 M-2.5,-0.5L0,-3.0L2.5,-0.5"/>
  </g>
  <g id="arrowDown" transform="rotate(180) translate(-30 -48)">
    <use xlink:href="#rim"/>
    <path pointer-events="none" fill="none" stroke="white" stroke-width="1.5" d="M0,-3.0v7 M-2.5,-0.5L0,-3.0L2.5,-0.5"/>
  </g>
  <g id="arrowLeft" transform="rotate(270) translate(-36 17)">
    <use xlink:href="#rim"/>
    <path pointer-events="none" fill="none" stroke="white" stroke-width="1.5" d="M0,-3.0v7 M-2.5,-0.5L0,-3.0L2.5,-0.5"/>
  </g>
  <g id="resetDef">
    <use xlink:href="#rim2" fill="#404040"><set attributeName="fill" to="#808080" begin="reset.mouseover" end="reset.mouseout"/></use>
  </g>
</defs>
<script type="application/ecmascript">
var viewWidth = 1727;
var viewHeight = 95;
var sectionId = 'dynsection-17';
</script>
<script type="application/ecmascript" xlink:href="svg.min.js"/>
<svg id="graph" class="graph">
<g id="viewport">
<title>setseed</title>
<!-- Node1 -->
<g id="Node000001" class="node">
<title>Node1</title>
<g id="a_Node000001"><a xlink:title=" ">
<polygon fill="#999999" stroke="#666666" points="1718.5,-62.53 1668,-62.53 1668,-43.28 1718.5,-43.28 1718.5,-62.53"/>
<text xml:space="preserve" text-anchor="middle" x="1693.25" y="-49.03" font-family="Helvetica,sans-Serif" font-size="10.00">setseed</text>
</a>
</g>
</g>
<!-- Node2 -->
<g id="Node000002" class="node">
<title>Node2</title>
<g id="a_Node000002"><a xlink:href="lmathlib_8c.html#a55540667178ac717a1c6283b58b00ce7" target="_top" xlink:title=" ">
<polygon fill="white" stroke="#666666" points="1540.25,-80.53 1444,-80.53 1444,-61.28 1540.25,-61.28 1540.25,-80.53"/>
<text xml:space="preserve" text-anchor="middle" x="1492.12" y="-67.03" font-family="Helvetica,sans-Serif" font-size="10.00">math_randomseed</text>
</a>
</g>
</g>
<!-- Node1&#45;&gt;Node2 -->
<g id="edge1_Node000001_Node000002" class="edge">
<title>Node1&#45;&gt;Node2</title>
<g id="a_edge1_Node000001_Node000002"><a xlink:title=" ">
<path fill="none" stroke="#63b8ff" d="M1656.66,-56.12C1624.27,-59.05 1576.21,-63.39 1540.57,-66.61"/>
<polygon fill="#63b8ff" stroke="#63b8ff" points="1656.68,-59.63 1666.33,-55.25 1656.05,-52.66 1656.68,-59.63"/>
</a>
</g>
</g>
<!-- Node3 -->
<g id="Node000003" class="node">
<title>Node3</title>
<g id="a_Node000003"><a xlink:href="lmathlib_8c.html#aaeea41eadd14e3f30fe6814cc94891c5" target="_top" xlink:title=" ">
<polygon fill="white" stroke="#666666" points="1632,-43.53 1576.25,-43.53 1576.25,-24.28 1632,-24.28 1632,-43.53"/>
<text xml:space="preserve" text-anchor="middle" x="1604.12" y="-30.03" font-family="Helvetica,sans-Serif" font-size="10.00">randseed</text>
</a>
</g>
</g>
<!-- Node1&#45;&gt;Node3 -->
<g id="edge2_Node000001_Node000003" class="edge">
<title>Node1&#45;&gt;Node3</title>
<g id="a_edge2_Node000001_Node000003"><a xlink:title=" ">
<path fill="none" stroke="#63b8ff" d="M1656.49,-45.1C1648.43,-43.35 1640.01,-41.51 1632.37,-39.84"/>
<polygon fill="#63b8ff" stroke="#63b8ff" points="1655.52,-48.47 1666.04,-47.19 1657.01,-41.64 1655.52,-48.47"/>
</a>
</g>
</g>
<!-- Node3&#45;&gt;Node2 -->
<g id="edge3_Node000003_Node000002" class="edge">
<title>Node3&#45;&gt;Node2</title>
<g id="a_edge3_Node000003_Node000002"><a xlink:title=" ">
<path fill="none" stroke="#63b8ff" d="M1565.29,-46.63C1551.5,-51.27 1536.11,-56.44 1523.1,-60.82"/>
<polygon fill="#63b8ff" stroke="#63b8ff" points="1566.14,-50.04 1574.5,-43.53 1563.91,-43.4 1566.14,-50.04"/>
</a>
</g>
</g>
<!-- Node4 -->
<g id="Node000004" class="node">
<title>Node4</title>
<g id="a_Node000004"><a xlink:href="lmathlib_8c.html#aec3434532c7149fc0d3fff7ac86e6fbb" target="_top" xlink:title=" ">
<polygon fill="white" stroke="#666666" points="1525.62,-43.53 1458.62,-43.53 1458.62,-24.28 1525.62,-24.28 1525.62,-43.53"/>
<text xml:space="preserve" text-anchor="middle" x="1492.12" y="-30.03" font-family="Helvetica,sans-Serif" font-size="10.00">setrandfunc</text>
</a>
</g>
</g>
<!-- Node3&#45;&gt;Node4 -->
<g id="edge4_Node000003_Node000004" class="edge">
<title>Node3&#45;&gt;Node4</title>
<g id="a_edge4_Node000003_Node000004"><a xlink:title=" ">
<path fill="none" stroke="#63b8ff" d="M1564.75,-33.9C1552.07,-33.9 1538.09,-33.9 1525.88,-33.9"/>
<polygon fill="#63b8ff" stroke="#63b8ff" points="1564.42,-37.4 1574.42,-33.9 1564.42,-30.4 1564.42,-37.4"/>
</a>
</g>
</g>
<!-- Node5 -->
<g id="Node000005" class="node">
<title>Node5</title>
<g id="a_Node000005"><a xlink:href="lmathlib_8c.html#a78cbff06fd4d59cf3d7525fa6cc196ba" target="_top" xlink:title=" ">
<polygon fill="white" stroke="#666666" points="1408,-43.53 1331.25,-43.53 1331.25,-24.28 1408,-24.28 1408,-43.53"/>
<text xml:space="preserve" text-anchor="middle" x="1369.62" y="-30.03" font-family="Helvetica,sans-Serif" font-size="10.00">luaopen_math</text>
</a>
</g>
</g>
<!-- Node4&#45;&gt;Node5 -->
<g id="edge5_Node000004_Node000005" class="edge">
<title>Node4&#45;&gt;Node5</title>
<g id="a_edge5_Node000004_Node000005"><a xlink:title=" ">
<path fill="none" stroke="#63b8ff" d="M1446.89,-33.9C1434.19,-33.9 1420.46,-33.9 1408.19,-33.9"/>
<polygon fill="#63b8ff" stroke="#63b8ff" points="1446.68,-37.4 1456.68,-33.9 1446.68,-30.4 1446.68,-37.4"/>
</a>
</g>
</g>
<!-- Node6 -->
<g id="Node000006" class="node">
<title>Node6</title>
<g id="a_Node000006"><a xlink:href="script_8c.html#a5ae0734cc912e06c627951a52d735418" target="_top" xlink:title=" ">
<polygon fill="white" stroke="#666666" points="1295.25,-43.53 1185.5,-43.53 1185.5,-24.28 1295.25,-24.28 1295.25,-43.53"/>
<text xml:space="preserve" text-anchor="middle" x="1240.38" y="-30.03" font-family="Helvetica,sans-Serif" font-size="10.00">open_sandboxed_libs</text>
</a>
</g>
</g>
<!-- Node5&#45;&gt;Node6 -->
<g id="edge6_Node000005_Node000006" class="edge">
<title>Node5&#45;&gt;Node6</title>
<g id="a_edge6_Node000005_Node000006"><a xlink:title=" ">
<path fill="none" stroke="#63b8ff" d="M1319.48,-33.9C1311.56,-33.9 1303.33,-33.9 1295.31,-33.9"/>
<polygon fill="#63b8ff" stroke="#63b8ff" points="1319.28,-37.4 1329.28,-33.9 1319.28,-30.4 1319.28,-37.4"/>
</a>
</g>
</g>
<!-- Node7 -->
<g id="Node000007" class="node">
<title>Node7</title>
<g id="a_Node000007"><a xlink:href="script_8c.html#a84508ce31c18af8792081eb1cdfc77b8" target="_top" xlink:title=" ">
<polygon fill="white" stroke="#666666" points="1149.5,-43.53 1081,-43.53 1081,-24.28 1149.5,-24.28 1149.5,-43.53"/>
<text xml:space="preserve" text-anchor="middle" x="1115.25" y="-30.03" font-family="Helvetica,sans-Serif" font-size="10.00">script_begin</text>
</a>
</g>
</g>
<!-- Node6&#45;&gt;Node7 -->
<g id="edge7_Node000006_Node000007" class="edge">
<title>Node6&#45;&gt;Node7</title>
<g id="a_edge7_Node000006_Node000007"><a xlink:title=" ">
<path fill="none" stroke="#63b8ff" d="M1173.73,-33.9C1165.45,-33.9 1157.28,-33.9 1149.81,-33.9"/>
<polygon fill="#63b8ff" stroke="#63b8ff" points="1173.5,-37.4 1183.5,-33.9 1173.5,-30.4 1173.5,-37.4"/>
</a>
</g>
</g>
<!-- Node8 -->
<g id="Node000008" class="node">
<title>Node8</title>
<g id="a_Node000008"><a xlink:href="game__scene_8c.html#ab923ed4c6ccad95026e85e252071716d" target="_top" xlink:title=" ">
<polygon fill="white" stroke="#666666" points="1045,-43.53 925.5,-43.53 925.5,-24.28 1045,-24.28 1045,-43.53"/>
<text xml:space="preserve" text-anchor="middle" x="985.25" y="-30.03" font-family="Helvetica,sans-Serif" font-size="10.00">PGB_GameScene_new</text>
</a>
</g>
</g>
<!-- Node7&#45;&gt;Node8 -->
<g id="edge8_Node000007_Node000008" class="edge">
<title>Node7&#45;&gt;Node8</title>
<g id="a_edge8_Node000007_Node000008"><a xlink:title=" ">
<path fill="none" stroke="#63b8ff" d="M1069.28,-33.9C1061.55,-33.9 1053.42,-33.9 1045.4,-33.9"/>
<polygon fill="#63b8ff" stroke="#63b8ff" points="1069.11,-37.4 1079.11,-33.9 1069.11,-30.4 1069.11,-37.4"/>
</a>
</g>
</g>
<!-- Node9 -->
<g id="Node000009" class="node">
<title>Node9</title>
<g id="a_Node000009"><a xlink:href="library__scene_8c.html#a0728002045c9cbbd68bdd34897b28da6" target="_top" xlink:title=" ">
<polygon fill="white" stroke="#666666" points="889.5,-43.53 755.75,-43.53 755.75,-24.28 889.5,-24.28 889.5,-43.53"/>
<text xml:space="preserve" text-anchor="middle" x="822.62" y="-30.03" font-family="Helvetica,sans-Serif" font-size="10.00">PGB_LibraryScene_update</text>
</a>
</g>
</g>
<!-- Node8&#45;&gt;Node9 -->
<g id="edge9_Node000008_Node000009" class="edge">
<title>Node8&#45;&gt;Node9</title>
<g id="a_edge9_Node000008_Node000009"><a xlink:title=" ">
<path fill="none" stroke="#63b8ff" d="M914.09,-33.9C906.04,-33.9 897.84,-33.9 889.84,-33.9"/>
<polygon fill="#63b8ff" stroke="#63b8ff" points="913.84,-37.4 923.84,-33.9 913.84,-30.4 913.84,-37.4"/>
</a>
</g>
</g>
<!-- Node10 -->
<g id="Node000010" class="node">
<title>Node10</title>
<g id="a_Node000010"><a xlink:href="library__scene_8c.html#aa5c386d39121b53fba45d899df654188" target="_top" xlink:title=" ">
<polygon fill="white" stroke="#666666" points="719.75,-43.53 597.25,-43.53 597.25,-24.28 719.75,-24.28 719.75,-43.53"/>
<text xml:space="preserve" text-anchor="middle" x="658.5" y="-30.03" font-family="Helvetica,sans-Serif" font-size="10.00">PGB_LibraryScene_new</text>
</a>
</g>
</g>
<!-- Node9&#45;&gt;Node10 -->
<g id="edge10_Node000009_Node000010" class="edge">
<title>Node9&#45;&gt;Node10</title>
<g id="a_edge10_Node000009_Node000010"><a xlink:title=" ">
<path fill="none" stroke="#63b8ff" d="M744.29,-33.9C736.19,-33.9 728.04,-33.9 720.16,-33.9"/>
<polygon fill="#63b8ff" stroke="#63b8ff" points="744.17,-37.4 754.17,-33.9 744.17,-30.4 744.17,-37.4"/>
</a>
</g>
</g>
<!-- Node11 -->
<g id="Node000011" class="node">
<title>Node11</title>
<g id="a_Node000011"><a xlink:href="app_8c.html#ab80501f53b757a79772b96ec99e3dc7e" target="_top" xlink:title=" ">
<polygon fill="white" stroke="#666666" points="534.25,-86.53 441.75,-86.53 441.75,-67.28 534.25,-67.28 534.25,-86.53"/>
<text xml:space="preserve" text-anchor="middle" x="488" y="-73.03" font-family="Helvetica,sans-Serif" font-size="10.00">PGB_goToLibrary</text>
</a>
</g>
</g>
<!-- Node10&#45;&gt;Node11 -->
<g id="edge11_Node000010_Node000011" class="edge">
<title>Node10&#45;&gt;Node11</title>
<g id="a_edge11_Node000010_Node000011"><a xlink:title=" ">
<path fill="none" stroke="#63b8ff" d="M606.84,-46.83C581.76,-53.23 551.92,-60.84 528.55,-66.81"/>
<polygon fill="#63b8ff" stroke="#63b8ff" points="607.7,-50.22 616.53,-44.36 605.97,-43.44 607.7,-50.22"/>
</a>
</g>
</g>
<!-- Node14 -->
<g id="Node000014" class="node">
<title>Node14</title>
<g id="a_Node000014"><a xlink:href="image__conversion__scene_8c.html#a60d0e43ab25a8639bbb6d1f4e758edd3" target="_top" xlink:title=" ">
<polygon fill="white" stroke="#666666" points="561.25,-49.15 414.75,-49.15 414.75,-18.65 561.25,-18.65 561.25,-49.15"/>
<text xml:space="preserve" text-anchor="start" x="422.75" y="-35.65" font-family="Helvetica,sans-Serif" font-size="10.00">PGB_ImageConversionScene</text>
<text xml:space="preserve" text-anchor="middle" x="488" y="-24.4" font-family="Helvetica,sans-Serif" font-size="10.00">_update</text>
</a>
</g>
</g>
<!-- Node10&#45;&gt;Node14 -->
<g id="edge14_Node000010_Node000014" class="edge">
<title>Node10&#45;&gt;Node14</title>
<g id="a_edge14_Node000010_Node000014"><a xlink:title=" ">
<path fill="none" stroke="#63b8ff" d="M585.9,-33.9C577.86,-33.9 569.65,-33.9 561.6,-33.9"/>
<polygon fill="#63b8ff" stroke="#63b8ff" points="585.63,-37.4 595.63,-33.9 585.63,-30.4 585.63,-37.4"/>
</a>
</g>
</g>
<!-- Node16 -->
<g id="Node000016" class="node">
<title>Node16</title>
<g id="a_Node000016"><a xlink:href="app_8c.html#af256ea7a9c51fcbd49cb0007facbb8ea" target="_top" xlink:title=" ">
<polygon fill="white" stroke="#666666" points="166.25,-21.53 111.25,-21.53 111.25,-2.28 166.25,-2.28 166.25,-21.53"/>
<text xml:space="preserve" text-anchor="middle" x="138.75" y="-8.03" font-family="Helvetica,sans-Serif" font-size="10.00">PGB_init</text>
</a>
</g>
</g>
<!-- Node10&#45;&gt;Node16 -->
<g id="edge18_Node000010_Node000016" class="edge">
<title>Node10&#45;&gt;Node16</title>
<g id="a_edge18_Node000010_Node000016"><a xlink:title=" ">
<path fill="none" stroke="#63b8ff" d="M614.41,-20.77C597.95,-16.39 578.89,-12.07 561.25,-9.9 413.08,8.29 233.4,-3.78 166.52,-9.44"/>
<polygon fill="#63b8ff" stroke="#63b8ff" points="613.32,-24.1 623.89,-23.39 615.18,-17.35 613.32,-24.1"/>
</a>
</g>
</g>
<!-- Node12 -->
<g id="Node000012" class="node">
<title>Node12</title>
<g id="a_Node000012"><a xlink:href="game__scene_8c.html#a6a4a6f0408da311dc566eb187e497889" target="_top" xlink:title=" ">
<polygon fill="white" stroke="#666666" points="360,-86.53 227.75,-86.53 227.75,-67.28 360,-67.28 360,-86.53"/>
<text xml:space="preserve" text-anchor="middle" x="293.88" y="-73.03" font-family="Helvetica,sans-Serif" font-size="10.00">PGB_LibraryConfirmModal</text>
</a>
</g>
</g>
<!-- Node11&#45;&gt;Node12 -->
<g id="edge12_Node000011_Node000012" class="edge">
<title>Node11&#45;&gt;Node12</title>
<g id="a_edge12_Node000011_Node000012"><a xlink:title=" ">
<path fill="none" stroke="#63b8ff" d="M430.03,-76.9C408.17,-76.9 383.05,-76.9 360.44,-76.9"/>
<polygon fill="#63b8ff" stroke="#63b8ff" points="429.96,-80.4 439.96,-76.9 429.96,-73.4 429.96,-80.4"/>
</a>
</g>
</g>
<!-- Node13 -->
<g id="Node000013" class="node">
<title>Node13</title>
<g id="a_Node000013"><a xlink:href="game__scene_8c.html#a113df24bb94bafcdbb9235ec8648e02f" target="_top" xlink:title=" ">
<polygon fill="white" stroke="#666666" points="173,-86.53 104.5,-86.53 104.5,-67.28 173,-67.28 173,-86.53"/>
<text xml:space="preserve" text-anchor="middle" x="138.75" y="-73.03" font-family="Helvetica,sans-Serif" font-size="10.00">__section__</text>
</a>
</g>
</g>
<!-- Node12&#45;&gt;Node13 -->
<g id="edge13_Node000012_Node000013" class="edge">
<title>Node12&#45;&gt;Node13</title>
<g id="a_edge13_Node000012_Node000013"><a xlink:title=" ">
<path fill="none" stroke="#63b8ff" d="M216.03,-76.9C200.98,-76.9 185.96,-76.9 173.27,-76.9"/>
<polygon fill="#63b8ff" stroke="#63b8ff" points="215.98,-80.4 225.98,-76.9 215.98,-73.4 215.98,-80.4"/>
</a>
</g>
</g>
<!-- Node15 -->
<g id="Node000015" class="node">
<title>Node15</title>
<g id="a_Node000015"><a xlink:href="image__conversion__scene_8c.html#aa3559936491ddf78b9cf06fcbdd32d22" target="_top" xlink:title=" ">
<polygon fill="white" stroke="#666666" points="378.75,-41.53 209,-41.53 209,-22.28 378.75,-22.28 378.75,-41.53"/>
<text xml:space="preserve" text-anchor="middle" x="293.88" y="-28.03" font-family="Helvetica,sans-Serif" font-size="10.00">PGB_ImageConversionScene_new</text>
</a>
</g>
</g>
<!-- Node14&#45;&gt;Node15 -->
<g id="edge15_Node000014_Node000015" class="edge">
<title>Node14&#45;&gt;Node15</title>
<g id="a_edge15_Node000014_Node000015"><a xlink:title=" ">
<path fill="none" stroke="#63b8ff" d="M402.94,-33.03C395.07,-32.95 387.09,-32.86 379.22,-32.78"/>
<polygon fill="#63b8ff" stroke="#63b8ff" points="402.82,-36.53 412.85,-33.13 402.89,-29.53 402.82,-36.53"/>
</a>
</g>
</g>
<!-- Node15&#45;&gt;Node16 -->
<g id="edge16_Node000015_Node000016" class="edge">
<title>Node15&#45;&gt;Node16</title>
<g id="a_edge16_Node000015_Node000016"><a xlink:title=" ">
<path fill="none" stroke="#63b8ff" d="M204.38,-20.34C190.72,-18.56 177.57,-16.84 166.75,-15.43"/>
<polygon fill="#63b8ff" stroke="#63b8ff" points="203.55,-23.76 213.91,-21.59 204.45,-16.82 203.55,-23.76"/>
</a>
</g>
</g>
<!-- Node17 -->
<g id="Node000017" class="node">
<title>Node17</title>
<g id="a_Node000017"><a xlink:href="main_8c.html#a77034286b8c64d0735c69535c5e9b732" target="_top" xlink:title=" ">
<polygon fill="white" stroke="#666666" points="68.5,-21.53 0,-21.53 0,-2.28 68.5,-2.28 68.5,-21.53"/>
<text xml:space="preserve" text-anchor="middle" x="34.25" y="-8.03" font-family="Helvetica,sans-Serif" font-size="10.00">__section__</text>
</a>
</g>
</g>
<!-- Node16&#45;&gt;Node17 -->
<g id="edge17_Node000016_Node000017" class="edge">
<title>Node16&#45;&gt;Node17</title>
<g id="a_edge17_Node000016_Node000017"><a xlink:title=" ">
<path fill="none" stroke="#63b8ff" d="M99.48,-11.9C89.46,-11.9 78.74,-11.9 68.97,-11.9"/>
<polygon fill="#63b8ff" stroke="#63b8ff" points="99.31,-15.4 109.31,-11.9 99.31,-8.4 99.31,-15.4"/>
</a>
</g>
</g>
</g>
</svg>

<g id="navigator" transform="translate(0 0)" fill="#404254">
  <rect fill="#f2f5e9" fill-opacity="0.5" stroke="#606060" stroke-width=".5" x="0" y="0" width="60" height="60"/>
  <use id="zoomplus" xlink:href="#zoomPlus" x="17" y="9" onmousedown="handleZoom(evt,'in')"/>
  <use id="zoomminus" xlink:href="#zoomMin" x="42" y="9" onmousedown="handleZoom(evt,'out')"/>
  <use id="reset" xlink:href="#resetDef" x="30" y="36" onmousedown="handleReset()"/>
   <use id="arrowup" xlink:href="#arrowUp" x="0" y="0" onmousedown="handlePan(0,-1)"/>
  <use id="arrowright" xlink:href="#arrowRight" x="0" y="0" onmousedown="handlePan(1,0)"/>
  <use id="arrowdown" xlink:href="#arrowDown" x="0" y="0" onmousedown="handlePan(0,1)"/>
  <use id="arrowleft" xlink:href="#arrowLeft" x="0" y="0" onmousedown="handlePan(-1,0)"/>
</g>
<svg viewBox="0 0 15 15" width="100%" height="30px" preserveAspectRatio="xMaxYMin meet">
 <g id="arrow_out" transform="scale(0.3 0.3)">
  <a xlink:href="lmathlib_8c_a4e708776ec48b6fb6d7239a8754900e1_icgraph_org.svg" target="_base">
   <rect id="button" ry="5" rx="5" y="6" x="6" height="38" width="38"
        fill="#f2f5e9" fill-opacity="0.5" stroke="#606060" stroke-width="1.0"/>
   <path id="arrow"
     d="M 11.500037,31.436501 C 11.940474,20.09759 22.043105,11.32322 32.158766,21.979434 L 37.068811,17.246167 C 37.068811,17.246167 37.088388,32 37.088388,32 L 22.160133,31.978069 C 22.160133,31.978069 26.997745,27.140456 26.997745,27.140456 C 18.528582,18.264221 13.291696,25.230495 11.500037,31.436501 z"
     style="fill:#404040;"/>
  </a>
 </g>
</svg>

<style type='text/css'>
<![CDATA[
[data-mouse-over-selected='false'] { opacity: 0.7; }
[data-mouse-over-selected='true']  { opacity: 1.0; }
]]>
</style>
<script type="application/ecmascript"><![CDATA[
document.addEventListener('DOMContentLoaded', (event) => {
  highlightEdges();
  highlightAdjacentNodes();
});
]]></script>
</svg>
