<?xml version="1.0" encoding="UTF-8" standalone="no"?>
<!DOCTYPE svg PUBLIC "-//W3C//DTD SVG 1.1//EN"
 "http://www.w3.org/Graphics/SVG/1.1/DTD/svg11.dtd">
<!-- Generated by graphviz version 13.1.0 (20250701.0955)
 -->
<!-- Title: lua&#45;5.4.7/lmathlib.c Pages: 1 -->
<svg width="529pt" height="248pt"
 viewBox="0.00 0.00 529.00 248.00" xmlns="http://www.w3.org/2000/svg" xmlns:xlink="http://www.w3.org/1999/xlink">
<g id="graph0" class="graph" transform="scale(1 1) rotate(0) translate(4 244.25)">
<title>lua&#45;5.4.7/lmathlib.c</title>
<!-- Node1 -->
<g id="Node000001" class="node">
<title>Node1</title>
<g id="a_Node000001"><a xlink:title=" ">
<polygon fill="#999999" stroke="#666666" points="286.5,-240.25 188,-240.25 188,-221 286.5,-221 286.5,-240.25"/>
<text xml:space="preserve" text-anchor="middle" x="237.25" y="-226.75" font-family="Helvetica,sans-Serif" font-size="10.00">lua&#45;5.4.7/lmathlib.c</text>
</a>
</g>
</g>
<!-- Node2 -->
<g id="Node000002" class="node">
<title>Node2</title>
<g id="a_Node000002"><a xlink:href="lprefix_8h.html" target="_top" xlink:title=" ">
<polygon fill="white" stroke="#666666" points="50.5,-185 0,-185 0,-165.75 50.5,-165.75 50.5,-185"/>
<text xml:space="preserve" text-anchor="middle" x="25.25" y="-171.5" font-family="Helvetica,sans-Serif" font-size="10.00">lprefix.h</text>
</a>
</g>
</g>
<!-- Node1&#45;&gt;Node2 -->
<g id="edge1_Node000001_Node000002" class="edge">
<title>Node1&#45;&gt;Node2</title>
<g id="a_edge1_Node000001_Node000002"><a xlink:title=" ">
<path fill="none" stroke="#63b8ff" d="M200.77,-220.51C167.1,-212.09 115.42,-199.15 61.94,-185.67"/>
<polygon fill="#63b8ff" stroke="#63b8ff" points="62.89,-182.3 52.34,-183.25 61.18,-189.09 62.89,-182.3"/>
</a>
</g>
</g>
<!-- Node3 -->
<g id="Node000003" class="node">
<title>Node3</title>
<g id="a_Node000003"><a xlink:title=" ">
<polygon fill="#e0e0e0" stroke="#999999" points="111.75,-185 68.75,-185 68.75,-165.75 111.75,-165.75 111.75,-185"/>
<text xml:space="preserve" text-anchor="middle" x="90.25" y="-171.5" font-family="Helvetica,sans-Serif" font-size="10.00">float.h</text>
</a>
</g>
</g>
<!-- Node1&#45;&gt;Node3 -->
<g id="edge2_Node000001_Node000003" class="edge">
<title>Node1&#45;&gt;Node3</title>
<g id="a_edge2_Node000001_Node000003"><a xlink:title=" ">
<path fill="none" stroke="#63b8ff" d="M212.31,-220.59C187.55,-211.62 149.47,-197.83 122.43,-188.03"/>
<polygon fill="#63b8ff" stroke="#63b8ff" points="123.97,-184.87 113.37,-184.75 121.58,-191.45 123.97,-184.87"/>
</a>
</g>
</g>
<!-- Node4 -->
<g id="Node000004" class="node">
<title>Node4</title>
<g id="a_Node000004"><a xlink:title=" ">
<polygon fill="#e0e0e0" stroke="#999999" points="213,-19.25 165.5,-19.25 165.5,0 213,0 213,-19.25"/>
<text xml:space="preserve" text-anchor="middle" x="189.25" y="-5.75" font-family="Helvetica,sans-Serif" font-size="10.00">limits.h</text>
</a>
</g>
</g>
<!-- Node1&#45;&gt;Node4 -->
<g id="edge3_Node000001_Node000004" class="edge">
<title>Node1&#45;&gt;Node4</title>
<g id="a_edge3_Node000001_Node000004"><a xlink:title=" ">
<path fill="none" stroke="#63b8ff" d="M228.04,-220.8C219.59,-212.29 207.22,-198.73 199.25,-185 173.01,-139.84 168.27,-125.94 159.25,-74.5 157.77,-66.07 156.75,-63.43 159.25,-55.25 162.17,-45.69 167.89,-36.32 173.56,-28.65"/>
<polygon fill="#63b8ff" stroke="#63b8ff" points="176.28,-30.86 179.81,-20.86 170.82,-26.48 176.28,-30.86"/>
</a>
</g>
</g>
<!-- Node5 -->
<g id="Node000005" class="node">
<title>Node5</title>
<g id="a_Node000005"><a xlink:title=" ">
<polygon fill="#e0e0e0" stroke="#999999" points="394.25,-185 348.25,-185 348.25,-165.75 394.25,-165.75 394.25,-185"/>
<text xml:space="preserve" text-anchor="middle" x="371.25" y="-171.5" font-family="Helvetica,sans-Serif" font-size="10.00">math.h</text>
</a>
</g>
</g>
<!-- Node1&#45;&gt;Node5 -->
<g id="edge4_Node000001_Node000005" class="edge">
<title>Node1&#45;&gt;Node5</title>
<g id="a_edge4_Node000001_Node000005"><a xlink:title=" ">
<path fill="none" stroke="#63b8ff" d="M259.98,-220.59C281.35,-212.1 313.59,-199.29 337.88,-189.64"/>
<polygon fill="#63b8ff" stroke="#63b8ff" points="339,-192.96 347,-186.01 336.41,-186.45 339,-192.96"/>
</a>
</g>
</g>
<!-- Node6 -->
<g id="Node000006" class="node">
<title>Node6</title>
<g id="a_Node000006"><a xlink:title=" ">
<polygon fill="#e0e0e0" stroke="#999999" points="460,-185 412.5,-185 412.5,-165.75 460,-165.75 460,-185"/>
<text xml:space="preserve" text-anchor="middle" x="436.25" y="-171.5" font-family="Helvetica,sans-Serif" font-size="10.00">stdlib.h</text>
</a>
</g>
</g>
<!-- Node1&#45;&gt;Node6 -->
<g id="edge5_Node000001_Node000006" class="edge">
<title>Node1&#45;&gt;Node6</title>
<g id="a_edge5_Node000001_Node000006"><a xlink:title=" ">
<path fill="none" stroke="#63b8ff" d="M271.01,-220.59C307.29,-210.88 364.67,-195.53 401.37,-185.71"/>
<polygon fill="#63b8ff" stroke="#63b8ff" points="401.84,-189.21 410.59,-183.24 400.03,-182.44 401.84,-189.21"/>
</a>
</g>
</g>
<!-- Node7 -->
<g id="Node000007" class="node">
<title>Node7</title>
<g id="a_Node000007"><a xlink:title=" ">
<polygon fill="#e0e0e0" stroke="#999999" points="520.75,-185 477.75,-185 477.75,-165.75 520.75,-165.75 520.75,-185"/>
<text xml:space="preserve" text-anchor="middle" x="499.25" y="-171.5" font-family="Helvetica,sans-Serif" font-size="10.00">time.h</text>
</a>
</g>
</g>
<!-- Node1&#45;&gt;Node7 -->
<g id="edge6_Node000001_Node000007" class="edge">
<title>Node1&#45;&gt;Node7</title>
<g id="a_edge6_Node000001_Node000007"><a xlink:title=" ">
<path fill="none" stroke="#63b8ff" d="M286.86,-221.41C331.53,-213.72 399.22,-201.34 466.18,-185.58"/>
<polygon fill="#63b8ff" stroke="#63b8ff" points="466.97,-188.99 475.88,-183.27 465.34,-182.18 466.97,-188.99"/>
</a>
</g>
</g>
<!-- Node8 -->
<g id="Node000008" class="node">
<title>Node8</title>
<g id="a_Node000008"><a xlink:href="lua_8h.html" target="_top" xlink:title=" ">
<polygon fill="white" stroke="#666666" points="260.75,-129.75 223.75,-129.75 223.75,-110.5 260.75,-110.5 260.75,-129.75"/>
<text xml:space="preserve" text-anchor="middle" x="242.25" y="-116.25" font-family="Helvetica,sans-Serif" font-size="10.00">lua.h</text>
</a>
</g>
</g>
<!-- Node1&#45;&gt;Node8 -->
<g id="edge7_Node000001_Node000008" class="edge">
<title>Node1&#45;&gt;Node8</title>
<g id="a_edge7_Node000001_Node000008"><a xlink:title=" ">
<path fill="none" stroke="#63b8ff" d="M227.66,-220.83C215.75,-208.78 197.84,-186.28 205.25,-165.75 208.98,-155.41 216.27,-145.76 223.39,-138.11"/>
<polygon fill="#63b8ff" stroke="#63b8ff" points="225.75,-140.7 230.39,-131.18 220.82,-135.73 225.75,-140.7"/>
</a>
</g>
</g>
<!-- Node12 -->
<g id="Node000012" class="node">
<title>Node12</title>
<g id="a_Node000012"><a xlink:href="lauxlib_8h.html" target="_top" xlink:title=" ">
<polygon fill="white" stroke="#666666" points="330.25,-185 278.25,-185 278.25,-165.75 330.25,-165.75 330.25,-185"/>
<text xml:space="preserve" text-anchor="middle" x="304.25" y="-171.5" font-family="Helvetica,sans-Serif" font-size="10.00">lauxlib.h</text>
</a>
</g>
</g>
<!-- Node1&#45;&gt;Node12 -->
<g id="edge13_Node000001_Node000012" class="edge">
<title>Node1&#45;&gt;Node12</title>
<g id="a_edge13_Node000001_Node000012"><a xlink:title=" ">
<path fill="none" stroke="#63b8ff" d="M248.62,-220.59C258.3,-212.9 272.45,-201.65 284.06,-192.43"/>
<polygon fill="#63b8ff" stroke="#63b8ff" points="286.22,-195.18 291.87,-186.22 281.86,-189.7 286.22,-195.18"/>
</a>
</g>
</g>
<!-- Node14 -->
<g id="Node000014" class="node">
<title>Node14</title>
<g id="a_Node000014"><a xlink:href="lualib_8h.html" target="_top" xlink:title=" ">
<polygon fill="white" stroke="#666666" points="260.62,-185 213.88,-185 213.88,-165.75 260.62,-165.75 260.62,-185"/>
<text xml:space="preserve" text-anchor="middle" x="237.25" y="-171.5" font-family="Helvetica,sans-Serif" font-size="10.00">lualib.h</text>
</a>
</g>
</g>
<!-- Node1&#45;&gt;Node14 -->
<g id="edge18_Node000001_Node000014" class="edge">
<title>Node1&#45;&gt;Node14</title>
<g id="a_edge18_Node000001_Node000014"><a xlink:title=" ">
<path fill="none" stroke="#63b8ff" d="M237.25,-220.83C237.25,-214.32 237.25,-205.17 237.25,-196.87"/>
<polygon fill="#63b8ff" stroke="#63b8ff" points="240.75,-196.87 237.25,-186.87 233.75,-196.87 240.75,-196.87"/>
</a>
</g>
</g>
<!-- Node9 -->
<g id="Node000009" class="node">
<title>Node9</title>
<g id="a_Node000009"><a xlink:title=" ">
<polygon fill="#e0e0e0" stroke="#999999" points="219.88,-74.5 168.62,-74.5 168.62,-55.25 219.88,-55.25 219.88,-74.5"/>
<text xml:space="preserve" text-anchor="middle" x="194.25" y="-61" font-family="Helvetica,sans-Serif" font-size="10.00">stdarg.h</text>
</a>
</g>
</g>
<!-- Node8&#45;&gt;Node9 -->
<g id="edge8_Node000008_Node000009" class="edge">
<title>Node8&#45;&gt;Node9</title>
<g id="a_edge8_Node000008_Node000009"><a xlink:title=" ">
<path fill="none" stroke="#63b8ff" d="M234.32,-110.33C227.69,-102.98 218.03,-92.26 209.86,-83.19"/>
<polygon fill="#63b8ff" stroke="#63b8ff" points="212.66,-81.07 203.36,-75.98 207.46,-85.75 212.66,-81.07"/>
</a>
</g>
</g>
<!-- Node10 -->
<g id="Node000010" class="node">
<title>Node10</title>
<g id="a_Node000010"><a xlink:title=" ">
<polygon fill="#e0e0e0" stroke="#999999" points="329.88,-19.25 278.62,-19.25 278.62,0 329.88,0 329.88,-19.25"/>
<text xml:space="preserve" text-anchor="middle" x="304.25" y="-5.75" font-family="Helvetica,sans-Serif" font-size="10.00">stddef.h</text>
</a>
</g>
</g>
<!-- Node8&#45;&gt;Node10 -->
<g id="edge9_Node000008_Node000010" class="edge">
<title>Node8&#45;&gt;Node10</title>
<g id="a_edge9_Node000008_Node000010"><a xlink:title=" ">
<path fill="none" stroke="#63b8ff" d="M244.8,-110.03C248.6,-97.26 256.49,-73.51 267.25,-55.25 272.98,-45.53 280.79,-35.76 287.76,-27.86"/>
<polygon fill="#63b8ff" stroke="#63b8ff" points="290.18,-30.4 294.35,-20.66 285.01,-25.67 290.18,-30.4"/>
</a>
</g>
</g>
<!-- Node11 -->
<g id="Node000011" class="node">
<title>Node11</title>
<g id="a_Node000011"><a xlink:href="luaconf_8h.html" target="_top" xlink:title=" ">
<polygon fill="white" stroke="#666666" points="332.12,-74.5 276.38,-74.5 276.38,-55.25 332.12,-55.25 332.12,-74.5"/>
<text xml:space="preserve" text-anchor="middle" x="304.25" y="-61" font-family="Helvetica,sans-Serif" font-size="10.00">luaconf.h</text>
</a>
</g>
</g>
<!-- Node8&#45;&gt;Node11 -->
<g id="edge10_Node000008_Node000011" class="edge">
<title>Node8&#45;&gt;Node11</title>
<g id="a_edge10_Node000008_Node000011"><a xlink:title=" ">
<path fill="none" stroke="#63b8ff" d="M252.77,-110.09C261.64,-102.47 274.56,-91.37 285.24,-82.2"/>
<polygon fill="#63b8ff" stroke="#63b8ff" points="287.43,-84.93 292.74,-75.76 282.87,-79.62 287.43,-84.93"/>
</a>
</g>
</g>
<!-- Node11&#45;&gt;Node4 -->
<g id="edge11_Node000011_Node000004" class="edge">
<title>Node11&#45;&gt;Node4</title>
<g id="a_edge11_Node000011_Node000004"><a xlink:title=" ">
<path fill="none" stroke="#63b8ff" d="M284.74,-54.84C266.73,-46.5 239.73,-34 219.02,-24.41"/>
<polygon fill="#63b8ff" stroke="#63b8ff" points="220.77,-21.36 210.23,-20.34 217.83,-27.72 220.77,-21.36"/>
</a>
</g>
</g>
<!-- Node11&#45;&gt;Node10 -->
<g id="edge12_Node000011_Node000010" class="edge">
<title>Node11&#45;&gt;Node10</title>
<g id="a_edge12_Node000011_Node000010"><a xlink:title=" ">
<path fill="none" stroke="#63b8ff" d="M304.25,-55.08C304.25,-48.57 304.25,-39.42 304.25,-31.12"/>
<polygon fill="#63b8ff" stroke="#63b8ff" points="307.75,-31.12 304.25,-21.12 300.75,-31.12 307.75,-31.12"/>
</a>
</g>
</g>
<!-- Node12&#45;&gt;Node8 -->
<g id="edge17_Node000012_Node000008" class="edge">
<title>Node12&#45;&gt;Node8</title>
<g id="a_edge17_Node000012_Node000008"><a xlink:title=" ">
<path fill="none" stroke="#63b8ff" d="M293.73,-165.34C284.86,-157.72 271.94,-146.62 261.26,-137.45"/>
<polygon fill="#63b8ff" stroke="#63b8ff" points="263.63,-134.87 253.76,-131.01 259.07,-140.18 263.63,-134.87"/>
</a>
</g>
</g>
<!-- Node12&#45;&gt;Node10 -->
<g id="edge14_Node000012_Node000010" class="edge">
<title>Node12&#45;&gt;Node10</title>
<g id="a_edge14_Node000012_Node000010"><a xlink:title=" ">
<path fill="none" stroke="#63b8ff" d="M311.11,-165.32C325.4,-145.29 355.87,-95.79 341.25,-55.25 337.52,-44.91 330.23,-35.26 323.11,-27.61"/>
<polygon fill="#63b8ff" stroke="#63b8ff" points="325.68,-25.23 316.11,-20.68 320.75,-30.2 325.68,-25.23"/>
</a>
</g>
</g>
<!-- Node12&#45;&gt;Node11 -->
<g id="edge16_Node000012_Node000011" class="edge">
<title>Node12&#45;&gt;Node11</title>
<g id="a_edge16_Node000012_Node000011"><a xlink:title=" ">
<path fill="none" stroke="#63b8ff" d="M304.25,-165.5C304.25,-148.25 304.25,-109.83 304.25,-86.06"/>
<polygon fill="#63b8ff" stroke="#63b8ff" points="307.75,-86.39 304.25,-76.39 300.75,-86.39 307.75,-86.39"/>
</a>
</g>
</g>
<!-- Node13 -->
<g id="Node000013" class="node">
<title>Node13</title>
<g id="a_Node000013"><a xlink:title=" ">
<polygon fill="#e0e0e0" stroke="#999999" points="433.88,-129.75 388.62,-129.75 388.62,-110.5 433.88,-110.5 433.88,-129.75"/>
<text xml:space="preserve" text-anchor="middle" x="411.25" y="-116.25" font-family="Helvetica,sans-Serif" font-size="10.00">stdio.h</text>
</a>
</g>
</g>
<!-- Node12&#45;&gt;Node13 -->
<g id="edge15_Node000012_Node000013" class="edge">
<title>Node12&#45;&gt;Node13</title>
<g id="a_edge15_Node000012_Node000013"><a xlink:title=" ">
<path fill="none" stroke="#63b8ff" d="M322.4,-165.34C338.93,-157.12 363.59,-144.84 382.75,-135.31"/>
<polygon fill="#63b8ff" stroke="#63b8ff" points="384.26,-138.47 391.65,-130.88 381.14,-132.2 384.26,-138.47"/>
</a>
</g>
</g>
<!-- Node14&#45;&gt;Node8 -->
<g id="edge19_Node000014_Node000008" class="edge">
<title>Node14&#45;&gt;Node8</title>
<g id="a_edge19_Node000014_Node000008"><a xlink:title=" ">
<path fill="none" stroke="#63b8ff" d="M238.08,-165.58C238.69,-158.99 239.57,-149.71 240.35,-141.32"/>
<polygon fill="#63b8ff" stroke="#63b8ff" points="243.81,-141.9 241.26,-131.62 236.85,-141.25 243.81,-141.9"/>
</a>
</g>
</g>
</g>
</svg>
