<?xml version="1.0" encoding="UTF-8" standalone="no"?>
<!DOCTYPE svg PUBLIC "-//W3C//DTD SVG 1.1//EN"
 "http://www.w3.org/Graphics/SVG/1.1/DTD/svg11.dtd">
<!-- Generated by graphviz version 13.1.0 (20250701.0955)
 -->
<!-- Title: pushnumint Pages: 1 -->
<svg width="175pt" height="101pt"
 viewBox="0.00 0.00 175.00 101.00" xmlns="http://www.w3.org/2000/svg" xmlns:xlink="http://www.w3.org/1999/xlink">
<g id="graph0" class="graph" transform="scale(1 1) rotate(0) translate(4 97.25)">
<title>pushnumint</title>
<!-- Node1 -->
<g id="Node000001" class="node">
<title>Node1</title>
<g id="a_Node000001"><a xlink:title=" ">
<polygon fill="#999999" stroke="#666666" points="167,-56.25 100.75,-56.25 100.75,-37 167,-37 167,-56.25"/>
<text xml:space="preserve" text-anchor="middle" x="133.88" y="-42.75" font-family="Helvetica,sans-Serif" font-size="10.00">pushnumint</text>
</a>
</g>
</g>
<!-- Node2 -->
<g id="Node000002" class="node">
<title>Node2</title>
<g id="a_Node000002"><a xlink:href="lmathlib_8c.html#ae4f0dc771c626a9badef237db9d433da" target="_top" xlink:title=" ">
<polygon fill="white" stroke="#666666" points="61.38,-93.25 3.38,-93.25 3.38,-74 61.38,-74 61.38,-93.25"/>
<text xml:space="preserve" text-anchor="middle" x="32.38" y="-79.75" font-family="Helvetica,sans-Serif" font-size="10.00">math_ceil</text>
</a>
</g>
</g>
<!-- Node1&#45;&gt;Node2 -->
<g id="edge1_Node000001_Node000002" class="edge">
<title>Node1&#45;&gt;Node2</title>
<g id="a_edge1_Node000001_Node000002"><a xlink:title=" ">
<path fill="none" stroke="#63b8ff" d="M95.04,-60.7C83.55,-64.97 71.17,-69.57 60.53,-73.53"/>
<polygon fill="#63b8ff" stroke="#63b8ff" points="96.11,-64.03 104.27,-57.26 93.67,-57.47 96.11,-64.03"/>
</a>
</g>
</g>
<!-- Node3 -->
<g id="Node000003" class="node">
<title>Node3</title>
<g id="a_Node000003"><a xlink:href="lmathlib_8c.html#aa063dcd93e924af13c5e311f89b18d03" target="_top" xlink:title=" ">
<polygon fill="white" stroke="#666666" points="63.25,-56.25 1.5,-56.25 1.5,-37 63.25,-37 63.25,-56.25"/>
<text xml:space="preserve" text-anchor="middle" x="32.38" y="-42.75" font-family="Helvetica,sans-Serif" font-size="10.00">math_floor</text>
</a>
</g>
</g>
<!-- Node1&#45;&gt;Node3 -->
<g id="edge2_Node000001_Node000003" class="edge">
<title>Node1&#45;&gt;Node3</title>
<g id="a_edge2_Node000001_Node000003"><a xlink:title=" ">
<path fill="none" stroke="#63b8ff" d="M88.91,-46.62C80.39,-46.62 71.63,-46.62 63.67,-46.62"/>
<polygon fill="#63b8ff" stroke="#63b8ff" points="88.78,-50.13 98.78,-46.63 88.78,-43.13 88.78,-50.13"/>
</a>
</g>
</g>
<!-- Node4 -->
<g id="Node000004" class="node">
<title>Node4</title>
<g id="a_Node000004"><a xlink:href="lmathlib_8c.html#adff369706deb34be360be3103f31d4c4" target="_top" xlink:title=" ">
<polygon fill="white" stroke="#666666" points="64.75,-19.25 0,-19.25 0,0 64.75,0 64.75,-19.25"/>
<text xml:space="preserve" text-anchor="middle" x="32.38" y="-5.75" font-family="Helvetica,sans-Serif" font-size="10.00">math_modf</text>
</a>
</g>
</g>
<!-- Node1&#45;&gt;Node4 -->
<g id="edge3_Node000001_Node000004" class="edge">
<title>Node1&#45;&gt;Node4</title>
<g id="a_edge3_Node000001_Node000004"><a xlink:title=" ">
<path fill="none" stroke="#63b8ff" d="M95.04,-32.55C83.55,-28.28 71.17,-23.68 60.53,-19.72"/>
<polygon fill="#63b8ff" stroke="#63b8ff" points="93.67,-35.78 104.27,-35.99 96.11,-29.22 93.67,-35.78"/>
</a>
</g>
</g>
</g>
</svg>
