<?xml version="1.0" encoding="UTF-8" standalone="no"?>
<!DOCTYPE svg PUBLIC "-//W3C//DTD SVG 1.1//EN"
 "http://www.w3.org/Graphics/SVG/1.1/DTD/svg11.dtd">
<!-- Generated by graphviz version 13.1.0 (20250701.0955)
 -->
<!-- Title: findfile Pages: 1 -->
<!--zoomable 107 -->

<svg id="main" version="1.1" xmlns="http://www.w3.org/2000/svg" xmlns:xlink="http://www.w3.org/1999/xlink" xml:space="preserve" onload="init(evt)">

<style type="text/css"><![CDATA[
.node, .edge {opacity: 0.7;}
.node.selected, .edge.selected {opacity: 1;}
.edge:hover path { stroke: red; }
.edge:hover polygon { stroke: red; fill: red; }
]]></style>

<defs>
  <circle id="rim" cx="0" cy="0" r="7"/>
  <circle id="rim2" cx="0" cy="0" r="3.5"/>
  <g id="zoomPlus">
    <use xlink:href="#rim" fill="#404040"><set attributeName="fill" to="#808080" begin="zoomplus.mouseover" end="zoomplus.mouseout"/></use>
    <path d="M-4,0h8M0,-4v8" fill="none" stroke="white" stroke-width="1.5" pointer-events="none"/>
  </g>
  <g id="zoomMin">
    <use xlink:href="#rim" fill="#404040"><set attributeName="fill" to="#808080" begin="zoomminus.mouseover" end="zoomminus.mouseout"/></use>
    <path d="M-4,0h8" fill="none" stroke="white" stroke-width="1.5" pointer-events="none"/>
  </g>
  <g id="arrowUp" transform="translate(30 24)">
    <use xlink:href="#rim"/>
    <path pointer-events="none" fill="none" stroke="white" stroke-width="1.5" d="M0,-3.0v7 M-2.5,-0.5L0,-3.0L2.5,-0.5"/>
  </g>
  <g id="arrowRight" transform="rotate(90) translate(36 -43)">
    <use xlink:href="#rim"/>
    <path pointer-events="none" fill="none" stroke="white" stroke-width="1.5" d="M0,-3.0v7 M-2.5,-0.5L0,-3.0L2.5,-0.5"/>
  </g>
  <g id="arrowDown" transform="rotate(180) translate(-30 -48)">
    <use xlink:href="#rim"/>
    <path pointer-events="none" fill="none" stroke="white" stroke-width="1.5" d="M0,-3.0v7 M-2.5,-0.5L0,-3.0L2.5,-0.5"/>
  </g>
  <g id="arrowLeft" transform="rotate(270) translate(-36 17)">
    <use xlink:href="#rim"/>
    <path pointer-events="none" fill="none" stroke="white" stroke-width="1.5" d="M0,-3.0v7 M-2.5,-0.5L0,-3.0L2.5,-0.5"/>
  </g>
  <g id="resetDef">
    <use xlink:href="#rim2" fill="#404040"><set attributeName="fill" to="#808080" begin="reset.mouseover" end="reset.mouseout"/></use>
  </g>
</defs>
<script type="application/ecmascript">
var viewWidth = 1773;
var viewHeight = 107;
var sectionId = 'dynsection-7';
</script>
<script type="application/ecmascript" xlink:href="svg.min.js"/>
<svg id="graph" class="graph">
<g id="viewport">
<title>findfile</title>
<!-- Node1 -->
<g id="Node000001" class="node">
<title>Node1</title>
<g id="a_Node000001"><a xlink:title=" ">
<polygon fill="#999999" stroke="#666666" points="1765,-56.25 1720.5,-56.25 1720.5,-37 1765,-37 1765,-56.25"/>
<text xml:space="preserve" text-anchor="middle" x="1742.75" y="-42.75" font-family="Helvetica,sans-Serif" font-size="10.00">findfile</text>
</a>
</g>
</g>
<!-- Node2 -->
<g id="Node000002" class="node">
<title>Node2</title>
<g id="a_Node000002"><a xlink:href="loadlib_8c.html#a9a915ea950c831cee2f1e7b0a3bd9005" target="_top" xlink:title=" ">
<polygon fill="white" stroke="#666666" points="1676.25,-93.25 1610,-93.25 1610,-74 1676.25,-74 1676.25,-93.25"/>
<text xml:space="preserve" text-anchor="middle" x="1643.12" y="-79.75" font-family="Helvetica,sans-Serif" font-size="10.00">searcher_C</text>
</a>
</g>
</g>
<!-- Node1&#45;&gt;Node2 -->
<g id="edge1_Node000001_Node000002" class="edge">
<title>Node1&#45;&gt;Node2</title>
<g id="a_edge1_Node000001_Node000002"><a xlink:title=" ">
<path fill="none" stroke="#63b8ff" d="M1709.52,-58.84C1696.9,-63.62 1682.6,-69.04 1670.6,-73.59"/>
<polygon fill="#63b8ff" stroke="#63b8ff" points="1710.56,-62.19 1718.67,-55.37 1708.08,-55.64 1710.56,-62.19"/>
</a>
</g>
</g>
<!-- Node17 -->
<g id="Node000017" class="node">
<title>Node17</title>
<g id="a_Node000017"><a xlink:href="loadlib_8c.html#a1ec05cd98a045c271aeda9f9c6041e1c" target="_top" xlink:title=" ">
<polygon fill="white" stroke="#666666" points="1684.5,-56.25 1601.75,-56.25 1601.75,-37 1684.5,-37 1684.5,-56.25"/>
<text xml:space="preserve" text-anchor="middle" x="1643.12" y="-42.75" font-family="Helvetica,sans-Serif" font-size="10.00">searcher_Croot</text>
</a>
</g>
</g>
<!-- Node1&#45;&gt;Node17 -->
<g id="edge17_Node000001_Node000017" class="edge">
<title>Node1&#45;&gt;Node17</title>
<g id="a_edge17_Node000001_Node000017"><a xlink:title=" ">
<path fill="none" stroke="#63b8ff" d="M1708.7,-46.62C1701.08,-46.62 1692.89,-46.62 1684.98,-46.62"/>
<polygon fill="#63b8ff" stroke="#63b8ff" points="1708.57,-50.13 1718.57,-46.63 1708.57,-43.13 1708.57,-50.13"/>
</a>
</g>
</g>
<!-- Node18 -->
<g id="Node000018" class="node">
<title>Node18</title>
<g id="a_Node000018"><a xlink:href="loadlib_8c.html#a8b2f1d86fe37c0829143579a6b568243" target="_top" xlink:title=" ">
<polygon fill="white" stroke="#666666" points="1680.38,-19.25 1605.88,-19.25 1605.88,0 1680.38,0 1680.38,-19.25"/>
<text xml:space="preserve" text-anchor="middle" x="1643.12" y="-5.75" font-family="Helvetica,sans-Serif" font-size="10.00">searcher_Lua</text>
</a>
</g>
</g>
<!-- Node1&#45;&gt;Node18 -->
<g id="edge19_Node000001_Node000018" class="edge">
<title>Node1&#45;&gt;Node18</title>
<g id="a_edge19_Node000001_Node000018"><a xlink:title=" ">
<path fill="none" stroke="#63b8ff" d="M1709.52,-34.41C1696.9,-29.63 1682.6,-24.21 1670.6,-19.66"/>
<polygon fill="#63b8ff" stroke="#63b8ff" points="1708.08,-37.61 1718.67,-37.88 1710.56,-31.06 1708.08,-37.61"/>
</a>
</g>
</g>
<!-- Node3 -->
<g id="Node000003" class="node">
<title>Node3</title>
<g id="a_Node000003"><a xlink:href="loadlib_8c.html#a8fc66c8b852ee2960dc20797521d1d9e" target="_top" xlink:title=" ">
<polygon fill="white" stroke="#666666" points="1565.75,-56.25 1459,-56.25 1459,-37 1565.75,-37 1565.75,-56.25"/>
<text xml:space="preserve" text-anchor="middle" x="1512.38" y="-42.75" font-family="Helvetica,sans-Serif" font-size="10.00">createsearcherstable</text>
</a>
</g>
</g>
<!-- Node2&#45;&gt;Node3 -->
<g id="edge2_Node000002_Node000003" class="edge">
<title>Node2&#45;&gt;Node3</title>
<g id="a_edge2_Node000002_Node000003"><a xlink:title=" ">
<path fill="none" stroke="#63b8ff" d="M1598.72,-71.15C1582.39,-66.46 1564.05,-61.19 1548.57,-56.74"/>
<polygon fill="#63b8ff" stroke="#63b8ff" points="1597.6,-74.47 1608.18,-73.87 1599.54,-67.74 1597.6,-74.47"/>
</a>
</g>
</g>
<!-- Node4 -->
<g id="Node000004" class="node">
<title>Node4</title>
<g id="a_Node000004"><a xlink:href="loadlib_8c.html#ab732e1ec253c9b8dc0c2ce4d74cb0083" target="_top" xlink:title=" ">
<polygon fill="white" stroke="#666666" points="1423,-56.25 1331.25,-56.25 1331.25,-37 1423,-37 1423,-56.25"/>
<text xml:space="preserve" text-anchor="middle" x="1377.12" y="-42.75" font-family="Helvetica,sans-Serif" font-size="10.00">luaopen_package</text>
</a>
</g>
</g>
<!-- Node3&#45;&gt;Node4 -->
<g id="edge3_Node000003_Node000004" class="edge">
<title>Node3&#45;&gt;Node4</title>
<g id="a_edge3_Node000003_Node000004"><a xlink:title=" ">
<path fill="none" stroke="#63b8ff" d="M1447.25,-46.62C1439.08,-46.62 1430.87,-46.62 1423.09,-46.62"/>
<polygon fill="#63b8ff" stroke="#63b8ff" points="1447.2,-50.13 1457.2,-46.63 1447.2,-43.13 1447.2,-50.13"/>
</a>
</g>
</g>
<!-- Node5 -->
<g id="Node000005" class="node">
<title>Node5</title>
<g id="a_Node000005"><a xlink:href="script_8c.html#a5ae0734cc912e06c627951a52d735418" target="_top" xlink:title=" ">
<polygon fill="white" stroke="#666666" points="1295.25,-56.25 1185.5,-56.25 1185.5,-37 1295.25,-37 1295.25,-56.25"/>
<text xml:space="preserve" text-anchor="middle" x="1240.38" y="-42.75" font-family="Helvetica,sans-Serif" font-size="10.00">open_sandboxed_libs</text>
</a>
</g>
</g>
<!-- Node4&#45;&gt;Node5 -->
<g id="edge4_Node000004_Node000005" class="edge">
<title>Node4&#45;&gt;Node5</title>
<g id="a_edge4_Node000004_Node000005"><a xlink:title=" ">
<path fill="none" stroke="#63b8ff" d="M1319.49,-46.62C1311.58,-46.62 1303.47,-46.62 1295.61,-46.62"/>
<polygon fill="#63b8ff" stroke="#63b8ff" points="1319.37,-50.13 1329.37,-46.63 1319.37,-43.13 1319.37,-50.13"/>
</a>
</g>
</g>
<!-- Node6 -->
<g id="Node000006" class="node">
<title>Node6</title>
<g id="a_Node000006"><a xlink:href="script_8c.html#a84508ce31c18af8792081eb1cdfc77b8" target="_top" xlink:title=" ">
<polygon fill="white" stroke="#666666" points="1149.5,-56.25 1081,-56.25 1081,-37 1149.5,-37 1149.5,-56.25"/>
<text xml:space="preserve" text-anchor="middle" x="1115.25" y="-42.75" font-family="Helvetica,sans-Serif" font-size="10.00">script_begin</text>
</a>
</g>
</g>
<!-- Node5&#45;&gt;Node6 -->
<g id="edge5_Node000005_Node000006" class="edge">
<title>Node5&#45;&gt;Node6</title>
<g id="a_edge5_Node000005_Node000006"><a xlink:title=" ">
<path fill="none" stroke="#63b8ff" d="M1173.73,-46.62C1165.45,-46.62 1157.28,-46.62 1149.81,-46.62"/>
<polygon fill="#63b8ff" stroke="#63b8ff" points="1173.5,-50.13 1183.5,-46.63 1173.5,-43.13 1173.5,-50.13"/>
</a>
</g>
</g>
<!-- Node7 -->
<g id="Node000007" class="node">
<title>Node7</title>
<g id="a_Node000007"><a xlink:href="game__scene_8c.html#ab923ed4c6ccad95026e85e252071716d" target="_top" xlink:title=" ">
<polygon fill="white" stroke="#666666" points="1045,-56.25 925.5,-56.25 925.5,-37 1045,-37 1045,-56.25"/>
<text xml:space="preserve" text-anchor="middle" x="985.25" y="-42.75" font-family="Helvetica,sans-Serif" font-size="10.00">PGB_GameScene_new</text>
</a>
</g>
</g>
<!-- Node6&#45;&gt;Node7 -->
<g id="edge6_Node000006_Node000007" class="edge">
<title>Node6&#45;&gt;Node7</title>
<g id="a_edge6_Node000006_Node000007"><a xlink:title=" ">
<path fill="none" stroke="#63b8ff" d="M1069.28,-46.62C1061.55,-46.62 1053.42,-46.62 1045.4,-46.62"/>
<polygon fill="#63b8ff" stroke="#63b8ff" points="1069.11,-50.13 1079.11,-46.63 1069.11,-43.13 1069.11,-50.13"/>
</a>
</g>
</g>
<!-- Node8 -->
<g id="Node000008" class="node">
<title>Node8</title>
<g id="a_Node000008"><a xlink:href="library__scene_8c.html#a0728002045c9cbbd68bdd34897b28da6" target="_top" xlink:title=" ">
<polygon fill="white" stroke="#666666" points="889.5,-56.25 755.75,-56.25 755.75,-37 889.5,-37 889.5,-56.25"/>
<text xml:space="preserve" text-anchor="middle" x="822.62" y="-42.75" font-family="Helvetica,sans-Serif" font-size="10.00">PGB_LibraryScene_update</text>
</a>
</g>
</g>
<!-- Node7&#45;&gt;Node8 -->
<g id="edge7_Node000007_Node000008" class="edge">
<title>Node7&#45;&gt;Node8</title>
<g id="a_edge7_Node000007_Node000008"><a xlink:title=" ">
<path fill="none" stroke="#63b8ff" d="M914.09,-46.62C906.04,-46.62 897.84,-46.62 889.84,-46.62"/>
<polygon fill="#63b8ff" stroke="#63b8ff" points="913.84,-50.13 923.84,-46.63 913.84,-43.13 913.84,-50.13"/>
</a>
</g>
</g>
<!-- Node9 -->
<g id="Node000009" class="node">
<title>Node9</title>
<g id="a_Node000009"><a xlink:href="library__scene_8c.html#aa5c386d39121b53fba45d899df654188" target="_top" xlink:title=" ">
<polygon fill="white" stroke="#666666" points="719.75,-56.25 597.25,-56.25 597.25,-37 719.75,-37 719.75,-56.25"/>
<text xml:space="preserve" text-anchor="middle" x="658.5" y="-42.75" font-family="Helvetica,sans-Serif" font-size="10.00">PGB_LibraryScene_new</text>
</a>
</g>
</g>
<!-- Node8&#45;&gt;Node9 -->
<g id="edge8_Node000008_Node000009" class="edge">
<title>Node8&#45;&gt;Node9</title>
<g id="a_edge8_Node000008_Node000009"><a xlink:title=" ">
<path fill="none" stroke="#63b8ff" d="M744.29,-46.62C736.19,-46.62 728.04,-46.62 720.16,-46.62"/>
<polygon fill="#63b8ff" stroke="#63b8ff" points="744.17,-50.13 754.17,-46.63 744.17,-43.13 744.17,-50.13"/>
</a>
</g>
</g>
<!-- Node10 -->
<g id="Node000010" class="node">
<title>Node10</title>
<g id="a_Node000010"><a xlink:href="app_8c.html#ab80501f53b757a79772b96ec99e3dc7e" target="_top" xlink:title=" ">
<polygon fill="white" stroke="#666666" points="534.25,-99.25 441.75,-99.25 441.75,-80 534.25,-80 534.25,-99.25"/>
<text xml:space="preserve" text-anchor="middle" x="488" y="-85.75" font-family="Helvetica,sans-Serif" font-size="10.00">PGB_goToLibrary</text>
</a>
</g>
</g>
<!-- Node9&#45;&gt;Node10 -->
<g id="edge9_Node000009_Node000010" class="edge">
<title>Node9&#45;&gt;Node10</title>
<g id="a_edge9_Node000009_Node000010"><a xlink:title=" ">
<path fill="none" stroke="#63b8ff" d="M606.84,-59.55C581.76,-65.95 551.92,-73.57 528.55,-79.53"/>
<polygon fill="#63b8ff" stroke="#63b8ff" points="607.7,-62.94 616.53,-57.08 605.97,-56.16 607.7,-62.94"/>
</a>
</g>
</g>
<!-- Node13 -->
<g id="Node000013" class="node">
<title>Node13</title>
<g id="a_Node000013"><a xlink:href="image__conversion__scene_8c.html#a60d0e43ab25a8639bbb6d1f4e758edd3" target="_top" xlink:title=" ">
<polygon fill="white" stroke="#666666" points="561.25,-61.88 414.75,-61.88 414.75,-31.38 561.25,-31.38 561.25,-61.88"/>
<text xml:space="preserve" text-anchor="start" x="422.75" y="-48.38" font-family="Helvetica,sans-Serif" font-size="10.00">PGB_ImageConversionScene</text>
<text xml:space="preserve" text-anchor="middle" x="488" y="-37.12" font-family="Helvetica,sans-Serif" font-size="10.00">_update</text>
</a>
</g>
</g>
<!-- Node9&#45;&gt;Node13 -->
<g id="edge12_Node000009_Node000013" class="edge">
<title>Node9&#45;&gt;Node13</title>
<g id="a_edge12_Node000009_Node000013"><a xlink:title=" ">
<path fill="none" stroke="#63b8ff" d="M585.9,-46.62C577.86,-46.62 569.65,-46.62 561.6,-46.62"/>
<polygon fill="#63b8ff" stroke="#63b8ff" points="585.63,-50.13 595.63,-46.63 585.63,-43.13 585.63,-50.13"/>
</a>
</g>
</g>
<!-- Node15 -->
<g id="Node000015" class="node">
<title>Node15</title>
<g id="a_Node000015"><a xlink:href="app_8c.html#af256ea7a9c51fcbd49cb0007facbb8ea" target="_top" xlink:title=" ">
<polygon fill="white" stroke="#666666" points="166.25,-34.25 111.25,-34.25 111.25,-15 166.25,-15 166.25,-34.25"/>
<text xml:space="preserve" text-anchor="middle" x="138.75" y="-20.75" font-family="Helvetica,sans-Serif" font-size="10.00">PGB_init</text>
</a>
</g>
</g>
<!-- Node9&#45;&gt;Node15 -->
<g id="edge16_Node000009_Node000015" class="edge">
<title>Node9&#45;&gt;Node15</title>
<g id="a_edge16_Node000009_Node000015"><a xlink:title=" ">
<path fill="none" stroke="#63b8ff" d="M614.41,-33.49C597.95,-29.11 578.89,-24.79 561.25,-22.62 413.08,-4.43 233.4,-16.5 166.52,-22.16"/>
<polygon fill="#63b8ff" stroke="#63b8ff" points="613.32,-36.82 623.89,-36.11 615.18,-30.08 613.32,-36.82"/>
</a>
</g>
</g>
<!-- Node11 -->
<g id="Node000011" class="node">
<title>Node11</title>
<g id="a_Node000011"><a xlink:href="game__scene_8c.html#a6a4a6f0408da311dc566eb187e497889" target="_top" xlink:title=" ">
<polygon fill="white" stroke="#666666" points="360,-99.25 227.75,-99.25 227.75,-80 360,-80 360,-99.25"/>
<text xml:space="preserve" text-anchor="middle" x="293.88" y="-85.75" font-family="Helvetica,sans-Serif" font-size="10.00">PGB_LibraryConfirmModal</text>
</a>
</g>
</g>
<!-- Node10&#45;&gt;Node11 -->
<g id="edge10_Node000010_Node000011" class="edge">
<title>Node10&#45;&gt;Node11</title>
<g id="a_edge10_Node000010_Node000011"><a xlink:title=" ">
<path fill="none" stroke="#63b8ff" d="M430.03,-89.62C408.17,-89.62 383.05,-89.62 360.44,-89.62"/>
<polygon fill="#63b8ff" stroke="#63b8ff" points="429.96,-93.13 439.96,-89.63 429.96,-86.13 429.96,-93.13"/>
</a>
</g>
</g>
<!-- Node12 -->
<g id="Node000012" class="node">
<title>Node12</title>
<g id="a_Node000012"><a xlink:href="game__scene_8c.html#a113df24bb94bafcdbb9235ec8648e02f" target="_top" xlink:title=" ">
<polygon fill="white" stroke="#666666" points="173,-99.25 104.5,-99.25 104.5,-80 173,-80 173,-99.25"/>
<text xml:space="preserve" text-anchor="middle" x="138.75" y="-85.75" font-family="Helvetica,sans-Serif" font-size="10.00">__section__</text>
</a>
</g>
</g>
<!-- Node11&#45;&gt;Node12 -->
<g id="edge11_Node000011_Node000012" class="edge">
<title>Node11&#45;&gt;Node12</title>
<g id="a_edge11_Node000011_Node000012"><a xlink:title=" ">
<path fill="none" stroke="#63b8ff" d="M216.03,-89.62C200.98,-89.62 185.96,-89.62 173.27,-89.62"/>
<polygon fill="#63b8ff" stroke="#63b8ff" points="215.98,-93.13 225.98,-89.63 215.98,-86.13 215.98,-93.13"/>
</a>
</g>
</g>
<!-- Node14 -->
<g id="Node000014" class="node">
<title>Node14</title>
<g id="a_Node000014"><a xlink:href="image__conversion__scene_8c.html#aa3559936491ddf78b9cf06fcbdd32d22" target="_top" xlink:title=" ">
<polygon fill="white" stroke="#666666" points="378.75,-54.25 209,-54.25 209,-35 378.75,-35 378.75,-54.25"/>
<text xml:space="preserve" text-anchor="middle" x="293.88" y="-40.75" font-family="Helvetica,sans-Serif" font-size="10.00">PGB_ImageConversionScene_new</text>
</a>
</g>
</g>
<!-- Node13&#45;&gt;Node14 -->
<g id="edge13_Node000013_Node000014" class="edge">
<title>Node13&#45;&gt;Node14</title>
<g id="a_edge13_Node000013_Node000014"><a xlink:title=" ">
<path fill="none" stroke="#63b8ff" d="M402.94,-45.75C395.07,-45.67 387.09,-45.58 379.22,-45.5"/>
<polygon fill="#63b8ff" stroke="#63b8ff" points="402.82,-49.25 412.85,-45.85 402.89,-42.25 402.82,-49.25"/>
</a>
</g>
</g>
<!-- Node14&#45;&gt;Node15 -->
<g id="edge14_Node000014_Node000015" class="edge">
<title>Node14&#45;&gt;Node15</title>
<g id="a_edge14_Node000014_Node000015"><a xlink:title=" ">
<path fill="none" stroke="#63b8ff" d="M204.38,-33.07C190.72,-31.28 177.57,-29.56 166.75,-28.15"/>
<polygon fill="#63b8ff" stroke="#63b8ff" points="203.55,-36.49 213.91,-34.31 204.45,-29.55 203.55,-36.49"/>
</a>
</g>
</g>
<!-- Node16 -->
<g id="Node000016" class="node">
<title>Node16</title>
<g id="a_Node000016"><a xlink:href="main_8c.html#a77034286b8c64d0735c69535c5e9b732" target="_top" xlink:title=" ">
<polygon fill="white" stroke="#666666" points="68.5,-34.25 0,-34.25 0,-15 68.5,-15 68.5,-34.25"/>
<text xml:space="preserve" text-anchor="middle" x="34.25" y="-20.75" font-family="Helvetica,sans-Serif" font-size="10.00">__section__</text>
</a>
</g>
</g>
<!-- Node15&#45;&gt;Node16 -->
<g id="edge15_Node000015_Node000016" class="edge">
<title>Node15&#45;&gt;Node16</title>
<g id="a_edge15_Node000015_Node000016"><a xlink:title=" ">
<path fill="none" stroke="#63b8ff" d="M99.48,-24.62C89.46,-24.62 78.74,-24.62 68.97,-24.62"/>
<polygon fill="#63b8ff" stroke="#63b8ff" points="99.31,-28.13 109.31,-24.63 99.31,-21.13 99.31,-28.13"/>
</a>
</g>
</g>
<!-- Node17&#45;&gt;Node3 -->
<g id="edge18_Node000017_Node000003" class="edge">
<title>Node17&#45;&gt;Node3</title>
<g id="a_edge18_Node000017_Node000003"><a xlink:title=" ">
<path fill="none" stroke="#63b8ff" d="M1590.06,-46.62C1582.17,-46.62 1574.02,-46.62 1566.11,-46.62"/>
<polygon fill="#63b8ff" stroke="#63b8ff" points="1589.87,-50.13 1599.87,-46.63 1589.87,-43.13 1589.87,-50.13"/>
</a>
</g>
</g>
<!-- Node18&#45;&gt;Node3 -->
<g id="edge20_Node000018_Node000003" class="edge">
<title>Node18&#45;&gt;Node3</title>
<g id="a_edge20_Node000018_Node000003"><a xlink:title=" ">
<path fill="none" stroke="#63b8ff" d="M1595.91,-22.91C1580.29,-27.39 1563.13,-32.33 1548.51,-36.53"/>
<polygon fill="#63b8ff" stroke="#63b8ff" points="1596.84,-26.28 1605.49,-20.15 1594.91,-19.55 1596.84,-26.28"/>
</a>
</g>
</g>
</g>
</svg>

<g id="navigator" transform="translate(0 0)" fill="#404254">
  <rect fill="#f2f5e9" fill-opacity="0.5" stroke="#606060" stroke-width=".5" x="0" y="0" width="60" height="60"/>
  <use id="zoomplus" xlink:href="#zoomPlus" x="17" y="9" onmousedown="handleZoom(evt,'in')"/>
  <use id="zoomminus" xlink:href="#zoomMin" x="42" y="9" onmousedown="handleZoom(evt,'out')"/>
  <use id="reset" xlink:href="#resetDef" x="30" y="36" onmousedown="handleReset()"/>
   <use id="arrowup" xlink:href="#arrowUp" x="0" y="0" onmousedown="handlePan(0,-1)"/>
  <use id="arrowright" xlink:href="#arrowRight" x="0" y="0" onmousedown="handlePan(1,0)"/>
  <use id="arrowdown" xlink:href="#arrowDown" x="0" y="0" onmousedown="handlePan(0,1)"/>
  <use id="arrowleft" xlink:href="#arrowLeft" x="0" y="0" onmousedown="handlePan(-1,0)"/>
</g>
<svg viewBox="0 0 15 15" width="100%" height="30px" preserveAspectRatio="xMaxYMin meet">
 <g id="arrow_out" transform="scale(0.3 0.3)">
  <a xlink:href="loadlib_8c_ad32dea0317b28f40e6611c984df051c0_icgraph_org.svg" target="_base">
   <rect id="button" ry="5" rx="5" y="6" x="6" height="38" width="38"
        fill="#f2f5e9" fill-opacity="0.5" stroke="#606060" stroke-width="1.0"/>
   <path id="arrow"
     d="M 11.500037,31.436501 C 11.940474,20.09759 22.043105,11.32322 32.158766,21.979434 L 37.068811,17.246167 C 37.068811,17.246167 37.088388,32 37.088388,32 L 22.160133,31.978069 C 22.160133,31.978069 26.997745,27.140456 26.997745,27.140456 C 18.528582,18.264221 13.291696,25.230495 11.500037,31.436501 z"
     style="fill:#404040;"/>
  </a>
 </g>
</svg>

<style type='text/css'>
<![CDATA[
[data-mouse-over-selected='false'] { opacity: 0.7; }
[data-mouse-over-selected='true']  { opacity: 1.0; }
]]>
</style>
<script type="application/ecmascript"><![CDATA[
document.addEventListener('DOMContentLoaded', (event) => {
  highlightEdges();
  highlightAdjacentNodes();
});
]]></script>
</svg>
