<?xml version="1.0" encoding="UTF-8" standalone="no"?>
<!DOCTYPE svg PUBLIC "-//W3C//DTD SVG 1.1//EN"
 "http://www.w3.org/Graphics/SVG/1.1/DTD/svg11.dtd">
<!-- Generated by graphviz version 13.1.0 (20250701.0955)
 -->
<!-- Title: lua&#45;5.4.7/lobject.c Pages: 1 -->
<!--zoomable 525 -->

<svg id="main" version="1.1" xmlns="http://www.w3.org/2000/svg" xmlns:xlink="http://www.w3.org/1999/xlink" xml:space="preserve" onload="init(evt)">

<style type="text/css"><![CDATA[
.node, .edge {opacity: 0.7;}
.node.selected, .edge.selected {opacity: 1;}
.edge:hover path { stroke: red; }
.edge:hover polygon { stroke: red; fill: red; }
]]></style>

<defs>
  <circle id="rim" cx="0" cy="0" r="7"/>
  <circle id="rim2" cx="0" cy="0" r="3.5"/>
  <g id="zoomPlus">
    <use xlink:href="#rim" fill="#404040"><set attributeName="fill" to="#808080" begin="zoomplus.mouseover" end="zoomplus.mouseout"/></use>
    <path d="M-4,0h8M0,-4v8" fill="none" stroke="white" stroke-width="1.5" pointer-events="none"/>
  </g>
  <g id="zoomMin">
    <use xlink:href="#rim" fill="#404040"><set attributeName="fill" to="#808080" begin="zoomminus.mouseover" end="zoomminus.mouseout"/></use>
    <path d="M-4,0h8" fill="none" stroke="white" stroke-width="1.5" pointer-events="none"/>
  </g>
  <g id="arrowUp" transform="translate(30 24)">
    <use xlink:href="#rim"/>
    <path pointer-events="none" fill="none" stroke="white" stroke-width="1.5" d="M0,-3.0v7 M-2.5,-0.5L0,-3.0L2.5,-0.5"/>
  </g>
  <g id="arrowRight" transform="rotate(90) translate(36 -43)">
    <use xlink:href="#rim"/>
    <path pointer-events="none" fill="none" stroke="white" stroke-width="1.5" d="M0,-3.0v7 M-2.5,-0.5L0,-3.0L2.5,-0.5"/>
  </g>
  <g id="arrowDown" transform="rotate(180) translate(-30 -48)">
    <use xlink:href="#rim"/>
    <path pointer-events="none" fill="none" stroke="white" stroke-width="1.5" d="M0,-3.0v7 M-2.5,-0.5L0,-3.0L2.5,-0.5"/>
  </g>
  <g id="arrowLeft" transform="rotate(270) translate(-36 17)">
    <use xlink:href="#rim"/>
    <path pointer-events="none" fill="none" stroke="white" stroke-width="1.5" d="M0,-3.0v7 M-2.5,-0.5L0,-3.0L2.5,-0.5"/>
  </g>
  <g id="resetDef">
    <use xlink:href="#rim2" fill="#404040"><set attributeName="fill" to="#808080" begin="reset.mouseover" end="reset.mouseout"/></use>
  </g>
</defs>
<script type="application/ecmascript">
var viewWidth = 993;
var viewHeight = 525;
var sectionId = 'dynsection-0';
</script>
<script type="application/ecmascript" xlink:href="svg.min.js"/>
<svg id="graph" class="graph">
<g id="viewport">
<title>lua&#45;5.4.7/lobject.c</title>
<!-- Node1 -->
<g id="Node000001" class="node">
<title>Node1</title>
<g id="a_Node000001"><a xlink:title=" ">
<polygon fill="#999999" stroke="#666666" points="508.88,-516.5 415.62,-516.5 415.62,-497.25 508.88,-497.25 508.88,-516.5"/>
<text xml:space="preserve" text-anchor="middle" x="462.25" y="-503" font-family="Helvetica,sans-Serif" font-size="10.00">lua&#45;5.4.7/lobject.c</text>
</a>
</g>
</g>
<!-- Node2 -->
<g id="Node000002" class="node">
<title>Node2</title>
<g id="a_Node000002"><a xlink:href="lprefix_8h.html" target="_top" xlink:title=" ">
<polygon fill="white" stroke="#666666" points="50.5,-461.25 0,-461.25 0,-442 50.5,-442 50.5,-461.25"/>
<text xml:space="preserve" text-anchor="middle" x="25.25" y="-447.75" font-family="Helvetica,sans-Serif" font-size="10.00">lprefix.h</text>
</a>
</g>
</g>
<!-- Node1&#45;&gt;Node2 -->
<g id="edge1_Node000001_Node000002" class="edge">
<title>Node1&#45;&gt;Node2</title>
<g id="a_edge1_Node000001_Node000002"><a xlink:title=" ">
<path fill="none" stroke="#63b8ff" d="M415.41,-502.8C342.02,-497.52 195.35,-485.12 62,-461.52"/>
<polygon fill="#63b8ff" stroke="#63b8ff" points="62.74,-458.1 52.28,-459.77 61.5,-464.99 62.74,-458.1"/>
</a>
</g>
</g>
<!-- Node3 -->
<g id="Node000003" class="node">
<title>Node3</title>
<g id="a_Node000003"><a xlink:title=" ">
<polygon fill="#e0e0e0" stroke="#999999" points="118.12,-461.25 68.38,-461.25 68.38,-442 118.12,-442 118.12,-461.25"/>
<text xml:space="preserve" text-anchor="middle" x="93.25" y="-447.75" font-family="Helvetica,sans-Serif" font-size="10.00">locale.h</text>
</a>
</g>
</g>
<!-- Node1&#45;&gt;Node3 -->
<g id="edge2_Node000001_Node000003" class="edge">
<title>Node1&#45;&gt;Node3</title>
<g id="a_edge2_Node000001_Node000003"><a xlink:title=" ">
<path fill="none" stroke="#63b8ff" d="M415.37,-501.36C352.49,-494.94 237.21,-481.82 129.5,-461.48"/>
<polygon fill="#63b8ff" stroke="#63b8ff" points="130.39,-458.09 119.91,-459.64 129.08,-464.96 130.39,-458.09"/>
</a>
</g>
</g>
<!-- Node4 -->
<g id="Node000004" class="node">
<title>Node4</title>
<g id="a_Node000004"><a xlink:title=" ">
<polygon fill="#e0e0e0" stroke="#999999" points="182.25,-461.25 136.25,-461.25 136.25,-442 182.25,-442 182.25,-461.25"/>
<text xml:space="preserve" text-anchor="middle" x="159.25" y="-447.75" font-family="Helvetica,sans-Serif" font-size="10.00">math.h</text>
</a>
</g>
</g>
<!-- Node1&#45;&gt;Node4 -->
<g id="edge3_Node000001_Node000004" class="edge">
<title>Node1&#45;&gt;Node4</title>
<g id="a_edge3_Node000001_Node000004"><a xlink:title=" ">
<path fill="none" stroke="#63b8ff" d="M415.48,-498.94C362.22,-490.83 272.7,-476.56 196.25,-461.25 195.43,-461.08 194.59,-460.91 193.75,-460.74"/>
<polygon fill="#63b8ff" stroke="#63b8ff" points="194.69,-457.36 184.17,-458.65 193.19,-464.2 194.69,-457.36"/>
</a>
</g>
</g>
<!-- Node5 -->
<g id="Node000005" class="node">
<title>Node5</title>
<g id="a_Node000005"><a xlink:title=" ">
<polygon fill="#e0e0e0" stroke="#999999" points="696.88,-74.5 645.62,-74.5 645.62,-55.25 696.88,-55.25 696.88,-74.5"/>
<text xml:space="preserve" text-anchor="middle" x="671.25" y="-61" font-family="Helvetica,sans-Serif" font-size="10.00">stdarg.h</text>
</a>
</g>
</g>
<!-- Node1&#45;&gt;Node5 -->
<g id="edge4_Node000001_Node000005" class="edge">
<title>Node1&#45;&gt;Node5</title>
<g id="a_edge4_Node000001_Node000005"><a xlink:title=" ">
<path fill="none" stroke="#63b8ff" d="M509.12,-506.04C637.49,-505.25 985.25,-494.16 985.25,-397.38 985.25,-397.38 985.25,-397.38 985.25,-174.38 985.25,-116.39 791.53,-82.56 708.41,-70.71"/>
<polygon fill="#63b8ff" stroke="#63b8ff" points="709.1,-67.27 698.71,-69.36 708.13,-74.2 709.1,-67.27"/>
</a>
</g>
</g>
<!-- Node6 -->
<g id="Node000006" class="node">
<title>Node6</title>
<g id="a_Node000006"><a xlink:title=" ">
<polygon fill="#e0e0e0" stroke="#999999" points="283.88,-461.25 238.62,-461.25 238.62,-442 283.88,-442 283.88,-461.25"/>
<text xml:space="preserve" text-anchor="middle" x="261.25" y="-447.75" font-family="Helvetica,sans-Serif" font-size="10.00">stdio.h</text>
</a>
</g>
</g>
<!-- Node1&#45;&gt;Node6 -->
<g id="edge5_Node000001_Node000006" class="edge">
<title>Node1&#45;&gt;Node6</title>
<g id="a_edge5_Node000001_Node000006"><a xlink:title=" ">
<path fill="none" stroke="#63b8ff" d="M427.05,-496.79C394.92,-488.47 345.86,-475.68 295.11,-462"/>
<polygon fill="#63b8ff" stroke="#63b8ff" points="296.29,-458.69 285.72,-459.46 294.47,-465.45 296.29,-458.69"/>
</a>
</g>
</g>
<!-- Node7 -->
<g id="Node000007" class="node">
<title>Node7</title>
<g id="a_Node000007"><a xlink:title=" ">
<polygon fill="#e0e0e0" stroke="#999999" points="349,-461.25 301.5,-461.25 301.5,-442 349,-442 349,-461.25"/>
<text xml:space="preserve" text-anchor="middle" x="325.25" y="-447.75" font-family="Helvetica,sans-Serif" font-size="10.00">stdlib.h</text>
</a>
</g>
</g>
<!-- Node1&#45;&gt;Node7 -->
<g id="edge6_Node000001_Node000007" class="edge">
<title>Node1&#45;&gt;Node7</title>
<g id="a_edge6_Node000001_Node000007"><a xlink:title=" ">
<path fill="none" stroke="#63b8ff" d="M439.01,-496.84C417.06,-488.31 383.9,-475.42 359.04,-465.76"/>
<polygon fill="#63b8ff" stroke="#63b8ff" points="360.6,-462.61 350.01,-462.25 358.07,-469.14 360.6,-462.61"/>
</a>
</g>
</g>
<!-- Node8 -->
<g id="Node000008" class="node">
<title>Node8</title>
<g id="a_Node000008"><a xlink:title=" ">
<polygon fill="#e0e0e0" stroke="#999999" points="415.38,-461.25 367.12,-461.25 367.12,-442 415.38,-442 415.38,-461.25"/>
<text xml:space="preserve" text-anchor="middle" x="391.25" y="-447.75" font-family="Helvetica,sans-Serif" font-size="10.00">string.h</text>
</a>
</g>
</g>
<!-- Node1&#45;&gt;Node8 -->
<g id="edge7_Node000001_Node000008" class="edge">
<title>Node1&#45;&gt;Node8</title>
<g id="a_edge7_Node000001_Node000008"><a xlink:title=" ">
<path fill="none" stroke="#63b8ff" d="M450.21,-496.84C439.84,-489.07 424.65,-477.67 412.28,-468.4"/>
<polygon fill="#63b8ff" stroke="#63b8ff" points="414.43,-465.63 404.33,-462.43 410.23,-471.23 414.43,-465.63"/>
</a>
</g>
</g>
<!-- Node9 -->
<g id="Node000009" class="node">
<title>Node9</title>
<g id="a_Node000009"><a xlink:href="lua_8h.html" target="_top" xlink:title=" ">
<polygon fill="white" stroke="#666666" points="502.75,-129.75 465.75,-129.75 465.75,-110.5 502.75,-110.5 502.75,-129.75"/>
<text xml:space="preserve" text-anchor="middle" x="484.25" y="-116.25" font-family="Helvetica,sans-Serif" font-size="10.00">lua.h</text>
</a>
</g>
</g>
<!-- Node1&#45;&gt;Node9 -->
<g id="edge8_Node000001_Node000009" class="edge">
<title>Node1&#45;&gt;Node9</title>
<g id="a_edge8_Node000001_Node000009"><a xlink:title=" ">
<path fill="none" stroke="#63b8ff" d="M415.24,-503.73C354.1,-499.83 252.38,-489.22 229.25,-461.25 128.57,-339.46 374.69,-183.46 457.92,-135.68"/>
<polygon fill="#63b8ff" stroke="#63b8ff" points="459.59,-138.75 466.57,-130.78 456.14,-132.66 459.59,-138.75"/>
</a>
</g>
</g>
<!-- Node13 -->
<g id="Node000013" class="node">
<title>Node13</title>
<g id="a_Node000013"><a xlink:href="lctype_8h.html" target="_top" xlink:title=" ">
<polygon fill="white" stroke="#666666" points="405.5,-240.25 355,-240.25 355,-221 405.5,-221 405.5,-240.25"/>
<text xml:space="preserve" text-anchor="middle" x="380.25" y="-226.75" font-family="Helvetica,sans-Serif" font-size="10.00">lctype.h</text>
</a>
</g>
</g>
<!-- Node1&#45;&gt;Node13 -->
<g id="edge14_Node000001_Node000013" class="edge">
<title>Node1&#45;&gt;Node13</title>
<g id="a_edge14_Node000001_Node000013"><a xlink:title=" ">
<path fill="none" stroke="#63b8ff" d="M459.52,-496.75C447.92,-457.95 402.53,-306.15 386.17,-251.43"/>
<polygon fill="#63b8ff" stroke="#63b8ff" points="389.56,-250.54 383.34,-241.96 382.85,-252.54 389.56,-250.54"/>
</a>
</g>
</g>
<!-- Node15 -->
<g id="Node000015" class="node">
<title>Node15</title>
<g id="a_Node000015"><a xlink:href="ldebug_8h.html" target="_top" xlink:title=" ">
<polygon fill="white" stroke="#666666" points="755.62,-406 702.88,-406 702.88,-386.75 755.62,-386.75 755.62,-406"/>
<text xml:space="preserve" text-anchor="middle" x="729.25" y="-392.5" font-family="Helvetica,sans-Serif" font-size="10.00">ldebug.h</text>
</a>
</g>
</g>
<!-- Node1&#45;&gt;Node15 -->
<g id="edge21_Node000001_Node000015" class="edge">
<title>Node1&#45;&gt;Node15</title>
<g id="a_edge21_Node000001_Node000015"><a xlink:title=" ">
<path fill="none" stroke="#63b8ff" d="M509.16,-502.08C550.61,-497.17 611.69,-486.08 659.25,-461.25 681.26,-449.76 701.65,-429.61 714.68,-415.01"/>
<polygon fill="#63b8ff" stroke="#63b8ff" points="717.26,-417.38 721.13,-407.51 711.96,-412.81 717.26,-417.38"/>
</a>
</g>
</g>
<!-- Node16 -->
<g id="Node000016" class="node">
<title>Node16</title>
<g id="a_Node000016"><a xlink:href="lstate_8h.html" target="_top" xlink:title=" ">
<polygon fill="white" stroke="#666666" points="799.38,-350.75 751.12,-350.75 751.12,-331.5 799.38,-331.5 799.38,-350.75"/>
<text xml:space="preserve" text-anchor="middle" x="775.25" y="-337.25" font-family="Helvetica,sans-Serif" font-size="10.00">lstate.h</text>
</a>
</g>
</g>
<!-- Node1&#45;&gt;Node16 -->
<g id="edge44_Node000001_Node000016" class="edge">
<title>Node1&#45;&gt;Node16</title>
<g id="a_edge44_Node000001_Node000016"><a xlink:title=" ">
<path fill="none" stroke="#63b8ff" d="M509.22,-502.4C555.97,-497.62 628.97,-486.52 687.25,-461.25 725.89,-444.5 741.9,-441.7 764.25,-406 772.4,-392.99 774.98,-375.71 775.62,-362.4"/>
<polygon fill="#63b8ff" stroke="#63b8ff" points="779.12,-362.69 775.74,-352.65 772.12,-362.6 779.12,-362.69"/>
</a>
</g>
</g>
<!-- Node17 -->
<g id="Node000017" class="node">
<title>Node17</title>
<g id="a_Node000017"><a xlink:href="lobject_8h.html" target="_top" xlink:title=" ">
<polygon fill="white" stroke="#666666" points="697.62,-240.25 644.88,-240.25 644.88,-221 697.62,-221 697.62,-240.25"/>
<text xml:space="preserve" text-anchor="middle" x="671.25" y="-226.75" font-family="Helvetica,sans-Serif" font-size="10.00">lobject.h</text>
</a>
</g>
</g>
<!-- Node1&#45;&gt;Node17 -->
<g id="edge43_Node000001_Node000017" class="edge">
<title>Node1&#45;&gt;Node17</title>
<g id="a_edge43_Node000001_Node000017"><a xlink:title=" ">
<path fill="none" stroke="#63b8ff" d="M469.2,-496.75C499.15,-457.46 617.39,-302.3 657.7,-249.4"/>
<polygon fill="#63b8ff" stroke="#63b8ff" points="660.29,-251.79 663.56,-241.71 654.72,-247.54 660.29,-251.79"/>
</a>
</g>
</g>
<!-- Node20 -->
<g id="Node000020" class="node">
<title>Node20</title>
<g id="a_Node000020"><a xlink:href="lmem_8h.html" target="_top" xlink:title=" ">
<polygon fill="white" stroke="#666666" points="471.38,-240.25 423.12,-240.25 423.12,-221 471.38,-221 471.38,-240.25"/>
<text xml:space="preserve" text-anchor="middle" x="447.25" y="-226.75" font-family="Helvetica,sans-Serif" font-size="10.00">lmem.h</text>
</a>
</g>
</g>
<!-- Node1&#45;&gt;Node20 -->
<g id="edge42_Node000001_Node000020" class="edge">
<title>Node1&#45;&gt;Node20</title>
<g id="a_edge42_Node000001_Node000020"><a xlink:title=" ">
<path fill="none" stroke="#63b8ff" d="M461.75,-496.75C459.63,-458.03 451.36,-306.79 448.35,-251.78"/>
<polygon fill="#63b8ff" stroke="#63b8ff" points="451.86,-251.81 447.82,-242.02 444.87,-252.19 451.86,-251.81"/>
</a>
</g>
</g>
<!-- Node22 -->
<g id="Node000022" class="node">
<title>Node22</title>
<g id="a_Node000022"><a xlink:href="ldo_8h.html" target="_top" xlink:title=" ">
<polygon fill="white" stroke="#666666" points="608.75,-406 571.75,-406 571.75,-386.75 608.75,-386.75 608.75,-406"/>
<text xml:space="preserve" text-anchor="middle" x="590.25" y="-392.5" font-family="Helvetica,sans-Serif" font-size="10.00">ldo.h</text>
</a>
</g>
</g>
<!-- Node1&#45;&gt;Node22 -->
<g id="edge37_Node000001_Node000022" class="edge">
<title>Node1&#45;&gt;Node22</title>
<g id="a_edge37_Node000001_Node000022"><a xlink:title=" ">
<path fill="none" stroke="#63b8ff" d="M479.51,-496.84C494.49,-488.59 516.35,-475.53 533.25,-461.25 549.69,-447.35 565.78,-428.73 576.64,-415.19"/>
<polygon fill="#63b8ff" stroke="#63b8ff" points="579.22,-417.58 582.63,-407.55 573.71,-413.26 579.22,-417.58"/>
</a>
</g>
</g>
<!-- Node23 -->
<g id="Node000023" class="node">
<title>Node23</title>
<g id="a_Node000023"><a xlink:href="lstring_8h.html" target="_top" xlink:title=" ">
<polygon fill="white" stroke="#666666" points="877.5,-461.25 827,-461.25 827,-442 877.5,-442 877.5,-461.25"/>
<text xml:space="preserve" text-anchor="middle" x="852.25" y="-447.75" font-family="Helvetica,sans-Serif" font-size="10.00">lstring.h</text>
</a>
</g>
</g>
<!-- Node1&#45;&gt;Node23 -->
<g id="edge45_Node000001_Node000023" class="edge">
<title>Node1&#45;&gt;Node23</title>
<g id="a_edge45_Node000001_Node000023"><a xlink:title=" ">
<path fill="none" stroke="#63b8ff" d="M509.18,-499.97C574.01,-491.74 694.62,-476.13 797.25,-461.25 803.08,-460.4 809.25,-459.47 815.27,-458.54"/>
<polygon fill="#63b8ff" stroke="#63b8ff" points="815.69,-462.02 825.03,-457.02 814.61,-455.1 815.69,-462.02"/>
</a>
</g>
</g>
<!-- Node25 -->
<g id="Node000025" class="node">
<title>Node25</title>
<g id="a_Node000025"><a xlink:href="lvm_8h.html" target="_top" xlink:title=" ">
<polygon fill="white" stroke="#666666" points="650.25,-461.25 610.25,-461.25 610.25,-442 650.25,-442 650.25,-461.25"/>
<text xml:space="preserve" text-anchor="middle" x="630.25" y="-447.75" font-family="Helvetica,sans-Serif" font-size="10.00">lvm.h</text>
</a>
</g>
</g>
<!-- Node1&#45;&gt;Node25 -->
<g id="edge51_Node000001_Node000025" class="edge">
<title>Node1&#45;&gt;Node25</title>
<g id="a_edge51_Node000001_Node000025"><a xlink:title=" ">
<path fill="none" stroke="#63b8ff" d="M490.75,-496.84C520.93,-487.28 568.42,-472.22 599.45,-462.39"/>
<polygon fill="#63b8ff" stroke="#63b8ff" points="600.15,-465.84 608.63,-459.48 598.04,-459.16 600.15,-465.84"/>
</a>
</g>
</g>
<!-- Node9&#45;&gt;Node5 -->
<g id="edge9_Node000009_Node000005" class="edge">
<title>Node9&#45;&gt;Node5</title>
<g id="a_edge9_Node000009_Node000005"><a xlink:title=" ">
<path fill="none" stroke="#63b8ff" d="M503.21,-113.73C533.89,-104.99 594.94,-87.6 634.4,-76.37"/>
<polygon fill="#63b8ff" stroke="#63b8ff" points="635.29,-79.75 643.95,-73.65 633.37,-73.02 635.29,-79.75"/>
</a>
</g>
</g>
<!-- Node10 -->
<g id="Node000010" class="node">
<title>Node10</title>
<g id="a_Node000010"><a xlink:title=" ">
<polygon fill="#e0e0e0" stroke="#999999" points="485.88,-19.25 434.62,-19.25 434.62,0 485.88,0 485.88,-19.25"/>
<text xml:space="preserve" text-anchor="middle" x="460.25" y="-5.75" font-family="Helvetica,sans-Serif" font-size="10.00">stddef.h</text>
</a>
</g>
</g>
<!-- Node9&#45;&gt;Node10 -->
<g id="edge10_Node000009_Node000010" class="edge">
<title>Node9&#45;&gt;Node10</title>
<g id="a_edge10_Node000009_Node000010"><a xlink:title=" ">
<path fill="none" stroke="#63b8ff" d="M482.29,-110.25C478.47,-93 469.97,-54.58 464.72,-30.81"/>
<polygon fill="#63b8ff" stroke="#63b8ff" points="468.15,-30.11 462.57,-21.1 461.31,-31.62 468.15,-30.11"/>
</a>
</g>
</g>
<!-- Node11 -->
<g id="Node000011" class="node">
<title>Node11</title>
<g id="a_Node000011"><a xlink:href="luaconf_8h.html" target="_top" xlink:title=" ">
<polygon fill="white" stroke="#666666" points="460.12,-74.5 404.38,-74.5 404.38,-55.25 460.12,-55.25 460.12,-74.5"/>
<text xml:space="preserve" text-anchor="middle" x="432.25" y="-61" font-family="Helvetica,sans-Serif" font-size="10.00">luaconf.h</text>
</a>
</g>
</g>
<!-- Node9&#45;&gt;Node11 -->
<g id="edge11_Node000009_Node000011" class="edge">
<title>Node9&#45;&gt;Node11</title>
<g id="a_edge11_Node000009_Node000011"><a xlink:title=" ">
<path fill="none" stroke="#63b8ff" d="M475.66,-110.33C468.41,-102.9 457.8,-92.04 448.88,-82.91"/>
<polygon fill="#63b8ff" stroke="#63b8ff" points="451.57,-80.65 442.08,-75.94 446.56,-85.54 451.57,-80.65"/>
</a>
</g>
</g>
<!-- Node11&#45;&gt;Node10 -->
<g id="edge13_Node000011_Node000010" class="edge">
<title>Node11&#45;&gt;Node10</title>
<g id="a_edge13_Node000011_Node000010"><a xlink:title=" ">
<path fill="none" stroke="#63b8ff" d="M436.87,-55.08C440.5,-48.19 445.68,-38.34 450.24,-29.66"/>
<polygon fill="#63b8ff" stroke="#63b8ff" points="453.27,-31.43 454.82,-20.95 447.07,-28.17 453.27,-31.43"/>
</a>
</g>
</g>
<!-- Node12 -->
<g id="Node000012" class="node">
<title>Node12</title>
<g id="a_Node000012"><a xlink:title=" ">
<polygon fill="#e0e0e0" stroke="#999999" points="362,-19.25 314.5,-19.25 314.5,0 362,0 362,-19.25"/>
<text xml:space="preserve" text-anchor="middle" x="338.25" y="-5.75" font-family="Helvetica,sans-Serif" font-size="10.00">limits.h</text>
</a>
</g>
</g>
<!-- Node11&#45;&gt;Node12 -->
<g id="edge12_Node000011_Node000012" class="edge">
<title>Node11&#45;&gt;Node12</title>
<g id="a_edge12_Node000011_Node000012"><a xlink:title=" ">
<path fill="none" stroke="#63b8ff" d="M416.3,-54.84C401.99,-46.73 380.72,-34.68 364,-25.21"/>
<polygon fill="#63b8ff" stroke="#63b8ff" points="366.02,-22.33 355.59,-20.45 362.57,-28.42 366.02,-22.33"/>
</a>
</g>
</g>
<!-- Node13&#45;&gt;Node9 -->
<g id="edge15_Node000013_Node000009" class="edge">
<title>Node13&#45;&gt;Node9</title>
<g id="a_edge15_Node000013_Node000009"><a xlink:title=" ">
<path fill="none" stroke="#63b8ff" d="M388.76,-220.75C405.98,-202.78 445.2,-161.86 467.66,-138.44"/>
<polygon fill="#63b8ff" stroke="#63b8ff" points="470.18,-140.86 474.57,-131.22 465.13,-136.02 470.18,-140.86"/>
</a>
</g>
</g>
<!-- Node13&#45;&gt;Node12 -->
<g id="edge16_Node000013_Node000012" class="edge">
<title>Node13&#45;&gt;Node12</title>
<g id="a_edge16_Node000013_Node000012"><a xlink:title=" ">
<path fill="none" stroke="#63b8ff" d="M378.55,-220.77C372.35,-188.44 350.84,-76.28 342.04,-30.41"/>
<polygon fill="#63b8ff" stroke="#63b8ff" points="345.53,-30 340.21,-20.84 338.65,-31.32 345.53,-30"/>
</a>
</g>
</g>
<!-- Node14 -->
<g id="Node000014" class="node">
<title>Node14</title>
<g id="a_Node000014"><a xlink:href="llimits_8h.html" target="_top" xlink:title=" ">
<polygon fill="white" stroke="#666666" points="522.12,-185 472.38,-185 472.38,-165.75 522.12,-165.75 522.12,-185"/>
<text xml:space="preserve" text-anchor="middle" x="497.25" y="-171.5" font-family="Helvetica,sans-Serif" font-size="10.00">llimits.h</text>
</a>
</g>
</g>
<!-- Node13&#45;&gt;Node14 -->
<g id="edge17_Node000013_Node000014" class="edge">
<title>Node13&#45;&gt;Node14</title>
<g id="a_edge17_Node000013_Node000014"><a xlink:title=" ">
<path fill="none" stroke="#63b8ff" d="M400.1,-220.59C418.42,-212.25 445.9,-199.75 466.96,-190.16"/>
<polygon fill="#63b8ff" stroke="#63b8ff" points="468.28,-193.41 475.93,-186.08 465.38,-187.04 468.28,-193.41"/>
</a>
</g>
</g>
<!-- Node14&#45;&gt;Node9 -->
<g id="edge20_Node000014_Node000009" class="edge">
<title>Node14&#45;&gt;Node9</title>
<g id="a_edge20_Node000014_Node000009"><a xlink:title=" ">
<path fill="none" stroke="#63b8ff" d="M495.1,-165.58C493.48,-158.92 491.17,-149.49 489.11,-141.03"/>
<polygon fill="#63b8ff" stroke="#63b8ff" points="492.57,-140.46 486.8,-131.58 485.77,-142.12 492.57,-140.46"/>
</a>
</g>
</g>
<!-- Node14&#45;&gt;Node10 -->
<g id="edge19_Node000014_Node000010" class="edge">
<title>Node14&#45;&gt;Node10</title>
<g id="a_edge19_Node000014_Node000010"><a xlink:title=" ">
<path fill="none" stroke="#63b8ff" d="M502.01,-165.29C507.89,-152.92 516.62,-130.07 512.25,-110.5 505.38,-79.75 486.55,-48.14 473.54,-28.93"/>
<polygon fill="#63b8ff" stroke="#63b8ff" points="476.5,-27.05 467.9,-20.86 470.76,-31.06 476.5,-27.05"/>
</a>
</g>
</g>
<!-- Node14&#45;&gt;Node12 -->
<g id="edge18_Node000014_Node000012" class="edge">
<title>Node14&#45;&gt;Node12</title>
<g id="a_edge18_Node000014_Node000012"><a xlink:title=" ">
<path fill="none" stroke="#63b8ff" d="M487.76,-165.49C469.48,-148.29 428.28,-109.1 395.25,-74.5 380.55,-59.1 364.45,-40.94 353.13,-27.92"/>
<polygon fill="#63b8ff" stroke="#63b8ff" points="355.99,-25.89 346.8,-20.62 350.7,-30.47 355.99,-25.89"/>
</a>
</g>
</g>
<!-- Node15&#45;&gt;Node16 -->
<g id="edge22_Node000015_Node000016" class="edge">
<title>Node15&#45;&gt;Node16</title>
<g id="a_edge22_Node000015_Node000016"><a xlink:title=" ">
<path fill="none" stroke="#63b8ff" d="M736.85,-386.58C743.13,-379.3 752.26,-368.73 760.05,-359.73"/>
<polygon fill="#63b8ff" stroke="#63b8ff" points="762.61,-362.11 766.5,-352.25 757.31,-357.53 762.61,-362.11"/>
</a>
</g>
</g>
<!-- Node16&#45;&gt;Node9 -->
<g id="edge23_Node000016_Node000009" class="edge">
<title>Node16&#45;&gt;Node9</title>
<g id="a_edge23_Node000016_Node000009"><a xlink:title=" ">
<path fill="none" stroke="#63b8ff" d="M799.5,-332.25C827.81,-321.69 868.79,-301.33 852.25,-276.25 774.5,-158.37 587.55,-129.87 514.36,-123.14"/>
<polygon fill="#63b8ff" stroke="#63b8ff" points="514.99,-119.69 504.74,-122.34 514.41,-126.66 514.99,-119.69"/>
</a>
</g>
</g>
<!-- Node16&#45;&gt;Node17 -->
<g id="edge24_Node000016_Node000017" class="edge">
<title>Node16&#45;&gt;Node17</title>
<g id="a_edge24_Node000016_Node000017"><a xlink:title=" ">
<path fill="none" stroke="#63b8ff" d="M773.09,-331.34C769.45,-318.08 761.03,-292.77 746.25,-276.25 734.62,-263.26 718.29,-252.93 703.84,-245.5"/>
<polygon fill="#63b8ff" stroke="#63b8ff" points="705.63,-242.47 695.1,-241.26 702.57,-248.77 705.63,-242.47"/>
</a>
</g>
</g>
<!-- Node18 -->
<g id="Node000018" class="node">
<title>Node18</title>
<g id="a_Node000018"><a xlink:href="ltm_8h.html" target="_top" xlink:title=" ">
<polygon fill="white" stroke="#666666" points="737.12,-295.5 699.38,-295.5 699.38,-276.25 737.12,-276.25 737.12,-295.5"/>
<text xml:space="preserve" text-anchor="middle" x="718.25" y="-282" font-family="Helvetica,sans-Serif" font-size="10.00">ltm.h</text>
</a>
</g>
</g>
<!-- Node16&#45;&gt;Node18 -->
<g id="edge28_Node000016_Node000018" class="edge">
<title>Node16&#45;&gt;Node18</title>
<g id="a_edge28_Node000016_Node000018"><a xlink:title=" ">
<path fill="none" stroke="#63b8ff" d="M765.58,-331.09C757.51,-323.55 745.78,-312.6 736.03,-303.48"/>
<polygon fill="#63b8ff" stroke="#63b8ff" points="738.58,-301.08 728.88,-296.81 733.8,-306.19 738.58,-301.08"/>
</a>
</g>
</g>
<!-- Node19 -->
<g id="Node000019" class="node">
<title>Node19</title>
<g id="a_Node000019"><a xlink:href="lzio_8h.html" target="_top" xlink:title=" ">
<polygon fill="white" stroke="#666666" points="566.88,-295.5 527.62,-295.5 527.62,-276.25 566.88,-276.25 566.88,-295.5"/>
<text xml:space="preserve" text-anchor="middle" x="547.25" y="-282" font-family="Helvetica,sans-Serif" font-size="10.00">lzio.h</text>
</a>
</g>
</g>
<!-- Node16&#45;&gt;Node19 -->
<g id="edge30_Node000016_Node000019" class="edge">
<title>Node16&#45;&gt;Node19</title>
<g id="a_edge30_Node000016_Node000019"><a xlink:title=" ">
<path fill="none" stroke="#63b8ff" d="M750.85,-334.43C709.11,-324.68 624.06,-304.82 578.21,-294.11"/>
<polygon fill="#63b8ff" stroke="#63b8ff" points="579.19,-290.74 568.65,-291.87 577.59,-297.56 579.19,-290.74"/>
</a>
</g>
</g>
<!-- Node21 -->
<g id="Node000021" class="node">
<title>Node21</title>
<g id="a_Node000021"><a xlink:title=" ">
<polygon fill="#e0e0e0" stroke="#999999" points="843.12,-295.5 793.38,-295.5 793.38,-276.25 843.12,-276.25 843.12,-295.5"/>
<text xml:space="preserve" text-anchor="middle" x="818.25" y="-282" font-family="Helvetica,sans-Serif" font-size="10.00">signal.h</text>
</a>
</g>
</g>
<!-- Node16&#45;&gt;Node21 -->
<g id="edge36_Node000016_Node000021" class="edge">
<title>Node16&#45;&gt;Node21</title>
<g id="a_edge36_Node000016_Node000021"><a xlink:title=" ">
<path fill="none" stroke="#63b8ff" d="M782.35,-331.33C788.17,-324.13 796.58,-313.71 803.81,-304.76"/>
<polygon fill="#63b8ff" stroke="#63b8ff" points="806.48,-307.02 810.04,-297.04 801.04,-302.62 806.48,-307.02"/>
</a>
</g>
</g>
<!-- Node17&#45;&gt;Node5 -->
<g id="edge25_Node000017_Node000005" class="edge">
<title>Node17&#45;&gt;Node5</title>
<g id="a_edge25_Node000017_Node000005"><a xlink:title=" ">
<path fill="none" stroke="#63b8ff" d="M671.25,-220.82C671.25,-195.5 671.25,-122 671.25,-86.09"/>
<polygon fill="#63b8ff" stroke="#63b8ff" points="674.75,-86.24 671.25,-76.24 667.75,-86.24 674.75,-86.24"/>
</a>
</g>
</g>
<!-- Node17&#45;&gt;Node9 -->
<g id="edge27_Node000017_Node000009" class="edge">
<title>Node17&#45;&gt;Node9</title>
<g id="a_edge27_Node000017_Node000009"><a xlink:title=" ">
<path fill="none" stroke="#63b8ff" d="M656.44,-220.6C635.87,-208.1 597.41,-184.89 564.25,-165.75 546.57,-155.54 526.5,-144.35 510.89,-135.73"/>
<polygon fill="#63b8ff" stroke="#63b8ff" points="512.65,-132.7 502.2,-130.94 509.27,-138.83 512.65,-132.7"/>
</a>
</g>
</g>
<!-- Node17&#45;&gt;Node14 -->
<g id="edge26_Node000017_Node000014" class="edge">
<title>Node17&#45;&gt;Node14</title>
<g id="a_edge26_Node000017_Node000014"><a xlink:title=" ">
<path fill="none" stroke="#63b8ff" d="M644.44,-221.42C614.55,-212.27 566.07,-197.44 532.97,-187.31"/>
<polygon fill="#63b8ff" stroke="#63b8ff" points="534.42,-184.09 523.84,-184.51 532.38,-190.79 534.42,-184.09"/>
</a>
</g>
</g>
<!-- Node18&#45;&gt;Node17 -->
<g id="edge29_Node000018_Node000017" class="edge">
<title>Node18&#45;&gt;Node17</title>
<g id="a_edge29_Node000018_Node000017"><a xlink:title=" ">
<path fill="none" stroke="#63b8ff" d="M710.49,-276.08C704.06,-268.8 694.74,-258.23 686.79,-249.23"/>
<polygon fill="#63b8ff" stroke="#63b8ff" points="689.42,-246.93 680.18,-241.74 684.17,-251.56 689.42,-246.93"/>
</a>
</g>
</g>
<!-- Node19&#45;&gt;Node9 -->
<g id="edge31_Node000019_Node000009" class="edge">
<title>Node19&#45;&gt;Node9</title>
<g id="a_edge31_Node000019_Node000009"><a xlink:title=" ">
<path fill="none" stroke="#63b8ff" d="M547.99,-275.91C549.31,-255.24 550.34,-203.1 531.25,-165.75 525.55,-154.6 515.92,-144.7 506.85,-137.09"/>
<polygon fill="#63b8ff" stroke="#63b8ff" points="509.03,-134.34 498.99,-130.94 504.72,-139.86 509.03,-134.34"/>
</a>
</g>
</g>
<!-- Node19&#45;&gt;Node20 -->
<g id="edge32_Node000019_Node000020" class="edge">
<title>Node19&#45;&gt;Node20</title>
<g id="a_edge32_Node000019_Node000020"><a xlink:title=" ">
<path fill="none" stroke="#63b8ff" d="M530.29,-275.84C514.99,-267.69 492.22,-255.57 474.39,-246.08"/>
<polygon fill="#63b8ff" stroke="#63b8ff" points="476.1,-243.02 465.63,-241.41 472.81,-249.2 476.1,-243.02"/>
</a>
</g>
</g>
<!-- Node20&#45;&gt;Node9 -->
<g id="edge35_Node000020_Node000009" class="edge">
<title>Node20&#45;&gt;Node9</title>
<g id="a_edge35_Node000020_Node000009"><a xlink:title=" ">
<path fill="none" stroke="#63b8ff" d="M448.9,-220.79C451.35,-208.31 456.41,-184.92 463.25,-165.75 466.3,-157.19 470.44,-148.05 474.23,-140.29"/>
<polygon fill="#63b8ff" stroke="#63b8ff" points="477.29,-141.99 478.69,-131.49 471.05,-138.83 477.29,-141.99"/>
</a>
</g>
</g>
<!-- Node20&#45;&gt;Node10 -->
<g id="edge33_Node000020_Node000010" class="edge">
<title>Node20&#45;&gt;Node10</title>
<g id="a_edge33_Node000020_Node000010"><a xlink:title=" ">
<path fill="none" stroke="#63b8ff" d="M440.12,-220.82C419.66,-194.45 364.2,-114.23 395.25,-55.25 402.12,-42.19 414.74,-32.22 427.04,-25.05"/>
<polygon fill="#63b8ff" stroke="#63b8ff" points="428.63,-28.16 435.82,-20.38 425.35,-21.98 428.63,-28.16"/>
</a>
</g>
</g>
<!-- Node20&#45;&gt;Node14 -->
<g id="edge34_Node000020_Node000014" class="edge">
<title>Node20&#45;&gt;Node14</title>
<g id="a_edge34_Node000020_Node000014"><a xlink:title=" ">
<path fill="none" stroke="#63b8ff" d="M455.51,-220.83C462.41,-213.48 472.47,-202.76 480.99,-193.69"/>
<polygon fill="#63b8ff" stroke="#63b8ff" points="483.48,-196.15 487.78,-186.46 478.38,-191.36 483.48,-196.15"/>
</a>
</g>
</g>
<!-- Node22&#45;&gt;Node14 -->
<g id="edge38_Node000022_Node000014" class="edge">
<title>Node22&#45;&gt;Node14</title>
<g id="a_edge38_Node000022_Node000014"><a xlink:title=" ">
<path fill="none" stroke="#63b8ff" d="M581.51,-386.34C566.06,-369.81 534.05,-332.91 518.25,-295.5 504.4,-262.7 499.68,-221.1 498.08,-196.74"/>
<polygon fill="#63b8ff" stroke="#63b8ff" points="501.58,-196.74 497.56,-186.94 494.59,-197.11 501.58,-196.74"/>
</a>
</g>
</g>
<!-- Node22&#45;&gt;Node16 -->
<g id="edge40_Node000022_Node000016" class="edge">
<title>Node22&#45;&gt;Node16</title>
<g id="a_edge40_Node000022_Node000016"><a xlink:title=" ">
<path fill="none" stroke="#63b8ff" d="M609.01,-389.98C639.69,-381.14 701.1,-363.47 740.08,-352.25"/>
<polygon fill="#63b8ff" stroke="#63b8ff" points="740.82,-355.68 749.46,-349.55 738.88,-348.95 740.82,-355.68"/>
</a>
</g>
</g>
<!-- Node22&#45;&gt;Node17 -->
<g id="edge39_Node000022_Node000017" class="edge">
<title>Node22&#45;&gt;Node17</title>
<g id="a_edge39_Node000022_Node000017"><a xlink:title=" ">
<path fill="none" stroke="#63b8ff" d="M594.6,-386.57C607.3,-360.92 644.45,-285.8 661.94,-250.44"/>
<polygon fill="#63b8ff" stroke="#63b8ff" points="664.91,-252.34 666.2,-241.83 658.63,-249.24 664.91,-252.34"/>
</a>
</g>
</g>
<!-- Node22&#45;&gt;Node19 -->
<g id="edge41_Node000022_Node000019" class="edge">
<title>Node22&#45;&gt;Node19</title>
<g id="a_edge41_Node000022_Node000019"><a xlink:title=" ">
<path fill="none" stroke="#63b8ff" d="M588.22,-386.5C585.22,-373.98 579.1,-350.54 571.25,-331.5 567.65,-322.77 562.84,-313.51 558.48,-305.7"/>
<polygon fill="#63b8ff" stroke="#63b8ff" points="561.57,-304.05 553.54,-297.15 555.51,-307.56 561.57,-304.05"/>
</a>
</g>
</g>
<!-- Node23&#45;&gt;Node16 -->
<g id="edge50_Node000023_Node000016" class="edge">
<title>Node23&#45;&gt;Node16</title>
<g id="a_edge50_Node000023_Node000016"><a xlink:title=" ">
<path fill="none" stroke="#63b8ff" d="M845.95,-441.75C833.37,-424.02 804.93,-383.94 788.2,-360.38"/>
<polygon fill="#63b8ff" stroke="#63b8ff" points="791.16,-358.49 782.51,-352.36 785.45,-362.54 791.16,-358.49"/>
</a>
</g>
</g>
<!-- Node23&#45;&gt;Node17 -->
<g id="edge49_Node000023_Node000017" class="edge">
<title>Node23&#45;&gt;Node17</title>
<g id="a_edge49_Node000023_Node000017"><a xlink:title=" ">
<path fill="none" stroke="#63b8ff" d="M865.45,-441.77C876.02,-433.83 890.06,-421.1 896.25,-406 918.5,-351.74 914.67,-316.74 872.25,-276.25 849.22,-254.27 760.93,-241.27 709.34,-235.4"/>
<polygon fill="#63b8ff" stroke="#63b8ff" points="709.83,-231.93 699.51,-234.32 709.06,-238.89 709.83,-231.93"/>
</a>
</g>
</g>
<!-- Node24 -->
<g id="Node000024" class="node">
<title>Node24</title>
<g id="a_Node000024"><a xlink:href="lgc_8h.html" target="_top" xlink:title=" ">
<polygon fill="white" stroke="#666666" points="886.75,-406 849.75,-406 849.75,-386.75 886.75,-386.75 886.75,-406"/>
<text xml:space="preserve" text-anchor="middle" x="868.25" y="-392.5" font-family="Helvetica,sans-Serif" font-size="10.00">lgc.h</text>
</a>
</g>
</g>
<!-- Node23&#45;&gt;Node24 -->
<g id="edge46_Node000023_Node000024" class="edge">
<title>Node23&#45;&gt;Node24</title>
<g id="a_edge46_Node000023_Node000024"><a xlink:title=" ">
<path fill="none" stroke="#63b8ff" d="M854.89,-441.83C856.89,-435.17 859.73,-425.74 862.27,-417.28"/>
<polygon fill="#63b8ff" stroke="#63b8ff" points="865.59,-418.39 865.11,-407.81 858.89,-416.38 865.59,-418.39"/>
</a>
</g>
</g>
<!-- Node24&#45;&gt;Node16 -->
<g id="edge48_Node000024_Node000016" class="edge">
<title>Node24&#45;&gt;Node16</title>
<g id="a_edge48_Node000024_Node000016"><a xlink:title=" ">
<path fill="none" stroke="#63b8ff" d="M852.47,-386.34C838.31,-378.23 817.27,-366.18 800.72,-356.71"/>
<polygon fill="#63b8ff" stroke="#63b8ff" points="802.83,-353.89 792.42,-351.95 799.36,-359.96 802.83,-353.89"/>
</a>
</g>
</g>
<!-- Node24&#45;&gt;Node17 -->
<g id="edge47_Node000024_Node000017" class="edge">
<title>Node24&#45;&gt;Node17</title>
<g id="a_edge47_Node000024_Node000017"><a xlink:title=" ">
<path fill="none" stroke="#63b8ff" d="M870.06,-386.55C873.96,-364.77 880.68,-307.93 852.25,-276.25 833.47,-255.32 756.79,-242.24 709.46,-236"/>
<polygon fill="#63b8ff" stroke="#63b8ff" points="709.98,-232.54 699.62,-234.75 709.1,-239.48 709.98,-232.54"/>
</a>
</g>
</g>
<!-- Node25&#45;&gt;Node17 -->
<g id="edge53_Node000025_Node000017" class="edge">
<title>Node25&#45;&gt;Node17</title>
<g id="a_edge53_Node000025_Node000017"><a xlink:title=" ">
<path fill="none" stroke="#63b8ff" d="M631.91,-441.77C637.96,-409.44 658.96,-297.28 667.55,-251.41"/>
<polygon fill="#63b8ff" stroke="#63b8ff" points="670.94,-252.31 669.34,-241.84 664.06,-251.02 670.94,-252.31"/>
</a>
</g>
</g>
<!-- Node25&#45;&gt;Node18 -->
<g id="edge54_Node000025_Node000018" class="edge">
<title>Node25&#45;&gt;Node18</title>
<g id="a_edge54_Node000025_Node000018"><a xlink:title=" ">
<path fill="none" stroke="#63b8ff" d="M635.34,-441.58C645.14,-424.11 667.27,-384.46 685.25,-350.75 693.34,-335.59 702.27,-318.26 708.8,-305.48"/>
<polygon fill="#63b8ff" stroke="#63b8ff" points="711.73,-307.44 713.15,-296.94 705.49,-304.26 711.73,-307.44"/>
</a>
</g>
</g>
<!-- Node25&#45;&gt;Node22 -->
<g id="edge52_Node000025_Node000022" class="edge">
<title>Node25&#45;&gt;Node22</title>
<g id="a_edge52_Node000025_Node000022"><a xlink:title=" ">
<path fill="none" stroke="#63b8ff" d="M623.64,-441.83C618.29,-434.71 610.57,-424.43 603.9,-415.55"/>
<polygon fill="#63b8ff" stroke="#63b8ff" points="606.71,-413.46 597.91,-407.57 601.12,-417.67 606.71,-413.46"/>
</a>
</g>
</g>
</g>
</svg>

<g id="navigator" transform="translate(0 0)" fill="#404254">
  <rect fill="#f2f5e9" fill-opacity="0.5" stroke="#606060" stroke-width=".5" x="0" y="0" width="60" height="60"/>
  <use id="zoomplus" xlink:href="#zoomPlus" x="17" y="9" onmousedown="handleZoom(evt,'in')"/>
  <use id="zoomminus" xlink:href="#zoomMin" x="42" y="9" onmousedown="handleZoom(evt,'out')"/>
  <use id="reset" xlink:href="#resetDef" x="30" y="36" onmousedown="handleReset()"/>
   <use id="arrowup" xlink:href="#arrowUp" x="0" y="0" onmousedown="handlePan(0,-1)"/>
  <use id="arrowright" xlink:href="#arrowRight" x="0" y="0" onmousedown="handlePan(1,0)"/>
  <use id="arrowdown" xlink:href="#arrowDown" x="0" y="0" onmousedown="handlePan(0,1)"/>
  <use id="arrowleft" xlink:href="#arrowLeft" x="0" y="0" onmousedown="handlePan(-1,0)"/>
</g>
<svg viewBox="0 0 15 15" width="100%" height="30px" preserveAspectRatio="xMaxYMin meet">
 <g id="arrow_out" transform="scale(0.3 0.3)">
  <a xlink:href="lobject_8c__incl_org.svg" target="_base">
   <rect id="button" ry="5" rx="5" y="6" x="6" height="38" width="38"
        fill="#f2f5e9" fill-opacity="0.5" stroke="#606060" stroke-width="1.0"/>
   <path id="arrow"
     d="M 11.500037,31.436501 C 11.940474,20.09759 22.043105,11.32322 32.158766,21.979434 L 37.068811,17.246167 C 37.068811,17.246167 37.088388,32 37.088388,32 L 22.160133,31.978069 C 22.160133,31.978069 26.997745,27.140456 26.997745,27.140456 C 18.528582,18.264221 13.291696,25.230495 11.500037,31.436501 z"
     style="fill:#404040;"/>
  </a>
 </g>
</svg>

<style type='text/css'>
<![CDATA[
[data-mouse-over-selected='false'] { opacity: 0.7; }
[data-mouse-over-selected='true']  { opacity: 1.0; }
]]>
</style>
<script type="application/ecmascript"><![CDATA[
document.addEventListener('DOMContentLoaded', (event) => {
  highlightEdges();
  highlightAdjacentNodes();
});
]]></script>
</svg>
