<?xml version="1.0" encoding="UTF-8" standalone="no"?>
<!DOCTYPE svg PUBLIC "-//W3C//DTD SVG 1.1//EN"
 "http://www.w3.org/Graphics/SVG/1.1/DTD/svg11.dtd">
<!-- Generated by graphviz version 13.1.0 (20250701.0955)
 -->
<!-- Title: lua&#45;5.4.7/lopcodes.h Pages: 1 -->
<svg width="216pt" height="248pt"
 viewBox="0.00 0.00 216.00 248.00" xmlns="http://www.w3.org/2000/svg" xmlns:xlink="http://www.w3.org/1999/xlink">
<g id="graph0" class="graph" transform="scale(1 1) rotate(0) translate(4 244.25)">
<title>lua&#45;5.4.7/lopcodes.h</title>
<!-- Node1 -->
<g id="Node000001" class="node">
<title>Node1</title>
<g id="a_Node000001"><a xlink:title=" ">
<polygon fill="#999999" stroke="#666666" points="164.62,-240.25 60.88,-240.25 60.88,-221 164.62,-221 164.62,-240.25"/>
<text xml:space="preserve" text-anchor="middle" x="112.75" y="-226.75" font-family="Helvetica,sans-Serif" font-size="10.00">lua&#45;5.4.7/lopcodes.h</text>
</a>
</g>
</g>
<!-- Node2 -->
<g id="Node000002" class="node">
<title>Node2</title>
<g id="a_Node000002"><a xlink:href="llimits_8h.html" target="_top" xlink:title=" ">
<polygon fill="white" stroke="#666666" points="137.62,-185 87.88,-185 87.88,-165.75 137.62,-165.75 137.62,-185"/>
<text xml:space="preserve" text-anchor="middle" x="112.75" y="-171.5" font-family="Helvetica,sans-Serif" font-size="10.00">llimits.h</text>
</a>
</g>
</g>
<!-- Node1&#45;&gt;Node2 -->
<g id="edge1_Node000001_Node000002" class="edge">
<title>Node1&#45;&gt;Node2</title>
<g id="a_edge1_Node000001_Node000002"><a xlink:title=" ">
<path fill="none" stroke="#63b8ff" d="M112.75,-220.83C112.75,-214.32 112.75,-205.17 112.75,-196.87"/>
<polygon fill="#63b8ff" stroke="#63b8ff" points="116.25,-196.87 112.75,-186.87 109.25,-196.87 116.25,-196.87"/>
</a>
</g>
</g>
<!-- Node3 -->
<g id="Node000003" class="node">
<title>Node3</title>
<g id="a_Node000003"><a xlink:title=" ">
<polygon fill="#e0e0e0" stroke="#999999" points="47.5,-19.25 0,-19.25 0,0 47.5,0 47.5,-19.25"/>
<text xml:space="preserve" text-anchor="middle" x="23.75" y="-5.75" font-family="Helvetica,sans-Serif" font-size="10.00">limits.h</text>
</a>
</g>
</g>
<!-- Node2&#45;&gt;Node3 -->
<g id="edge2_Node000002_Node000003" class="edge">
<title>Node2&#45;&gt;Node3</title>
<g id="a_edge2_Node000002_Node000003"><a xlink:title=" ">
<path fill="none" stroke="#63b8ff" d="M99.31,-165.25C77.67,-149.65 35.89,-115.51 19.75,-74.5 14.26,-60.55 15.67,-43.57 18.23,-30.62"/>
<polygon fill="#63b8ff" stroke="#63b8ff" points="21.57,-31.69 20.49,-21.15 14.76,-30.06 21.57,-31.69"/>
</a>
</g>
</g>
<!-- Node4 -->
<g id="Node000004" class="node">
<title>Node4</title>
<g id="a_Node000004"><a xlink:title=" ">
<polygon fill="#e0e0e0" stroke="#999999" points="138.38,-19.25 87.12,-19.25 87.12,0 138.38,0 138.38,-19.25"/>
<text xml:space="preserve" text-anchor="middle" x="112.75" y="-5.75" font-family="Helvetica,sans-Serif" font-size="10.00">stddef.h</text>
</a>
</g>
</g>
<!-- Node2&#45;&gt;Node4 -->
<g id="edge3_Node000002_Node000004" class="edge">
<title>Node2&#45;&gt;Node4</title>
<g id="a_edge3_Node000002_Node000004"><a xlink:title=" ">
<path fill="none" stroke="#63b8ff" d="M128.52,-165.5C160.68,-146.22 228.6,-98.75 201.75,-55.25 190.29,-36.68 168.49,-25.58 149.34,-19.09"/>
<polygon fill="#63b8ff" stroke="#63b8ff" points="150.5,-15.78 139.91,-16.22 148.46,-22.48 150.5,-15.78"/>
</a>
</g>
</g>
<!-- Node5 -->
<g id="Node000005" class="node">
<title>Node5</title>
<g id="a_Node000005"><a xlink:href="lua_8h.html" target="_top" xlink:title=" ">
<polygon fill="white" stroke="#666666" points="131.25,-129.75 94.25,-129.75 94.25,-110.5 131.25,-110.5 131.25,-129.75"/>
<text xml:space="preserve" text-anchor="middle" x="112.75" y="-116.25" font-family="Helvetica,sans-Serif" font-size="10.00">lua.h</text>
</a>
</g>
</g>
<!-- Node2&#45;&gt;Node5 -->
<g id="edge4_Node000002_Node000005" class="edge">
<title>Node2&#45;&gt;Node5</title>
<g id="a_edge4_Node000002_Node000005"><a xlink:title=" ">
<path fill="none" stroke="#63b8ff" d="M112.75,-165.58C112.75,-159.07 112.75,-149.92 112.75,-141.62"/>
<polygon fill="#63b8ff" stroke="#63b8ff" points="116.25,-141.62 112.75,-131.62 109.25,-141.62 116.25,-141.62"/>
</a>
</g>
</g>
<!-- Node5&#45;&gt;Node4 -->
<g id="edge6_Node000005_Node000004" class="edge">
<title>Node5&#45;&gt;Node4</title>
<g id="a_edge6_Node000005_Node000004"><a xlink:title=" ">
<path fill="none" stroke="#63b8ff" d="M112.75,-110.25C112.75,-93 112.75,-54.58 112.75,-30.81"/>
<polygon fill="#63b8ff" stroke="#63b8ff" points="116.25,-31.14 112.75,-21.14 109.25,-31.14 116.25,-31.14"/>
</a>
</g>
</g>
<!-- Node6 -->
<g id="Node000006" class="node">
<title>Node6</title>
<g id="a_Node000006"><a xlink:title=" ">
<polygon fill="#e0e0e0" stroke="#999999" points="192.38,-74.5 141.12,-74.5 141.12,-55.25 192.38,-55.25 192.38,-74.5"/>
<text xml:space="preserve" text-anchor="middle" x="166.75" y="-61" font-family="Helvetica,sans-Serif" font-size="10.00">stdarg.h</text>
</a>
</g>
</g>
<!-- Node5&#45;&gt;Node6 -->
<g id="edge5_Node000005_Node000006" class="edge">
<title>Node5&#45;&gt;Node6</title>
<g id="a_edge5_Node000005_Node000006"><a xlink:title=" ">
<path fill="none" stroke="#63b8ff" d="M121.67,-110.33C129.2,-102.9 140.22,-92.04 149.48,-82.91"/>
<polygon fill="#63b8ff" stroke="#63b8ff" points="151.9,-85.44 156.56,-75.92 146.98,-80.45 151.9,-85.44"/>
</a>
</g>
</g>
<!-- Node7 -->
<g id="Node000007" class="node">
<title>Node7</title>
<g id="a_Node000007"><a xlink:href="luaconf_8h.html" target="_top" xlink:title=" ">
<polygon fill="white" stroke="#666666" points="84.62,-74.5 28.88,-74.5 28.88,-55.25 84.62,-55.25 84.62,-74.5"/>
<text xml:space="preserve" text-anchor="middle" x="56.75" y="-61" font-family="Helvetica,sans-Serif" font-size="10.00">luaconf.h</text>
</a>
</g>
</g>
<!-- Node5&#45;&gt;Node7 -->
<g id="edge7_Node000005_Node000007" class="edge">
<title>Node5&#45;&gt;Node7</title>
<g id="a_edge7_Node000005_Node000007"><a xlink:title=" ">
<path fill="none" stroke="#63b8ff" d="M103.25,-110.09C95.32,-102.55 83.8,-91.6 74.21,-82.48"/>
<polygon fill="#63b8ff" stroke="#63b8ff" points="76.86,-80.17 67.21,-75.82 72.04,-85.24 76.86,-80.17"/>
</a>
</g>
</g>
<!-- Node7&#45;&gt;Node3 -->
<g id="edge8_Node000007_Node000003" class="edge">
<title>Node7&#45;&gt;Node3</title>
<g id="a_edge8_Node000007_Node000003"><a xlink:title=" ">
<path fill="none" stroke="#63b8ff" d="M51.3,-55.08C46.98,-48.11 40.79,-38.12 35.37,-29.37"/>
<polygon fill="#63b8ff" stroke="#63b8ff" points="38.36,-27.55 30.11,-20.9 32.41,-31.24 38.36,-27.55"/>
</a>
</g>
</g>
<!-- Node7&#45;&gt;Node4 -->
<g id="edge9_Node000007_Node000004" class="edge">
<title>Node7&#45;&gt;Node4</title>
<g id="a_edge9_Node000007_Node000004"><a xlink:title=" ">
<path fill="none" stroke="#63b8ff" d="M66.25,-54.84C74.18,-47.3 85.7,-36.35 95.29,-27.23"/>
<polygon fill="#63b8ff" stroke="#63b8ff" points="97.46,-29.99 102.29,-20.57 92.64,-24.92 97.46,-29.99"/>
</a>
</g>
</g>
</g>
</svg>
