<?xml version="1.0" encoding="UTF-8" standalone="no"?>
<!DOCTYPE svg PUBLIC "-//W3C//DTD SVG 1.1//EN"
 "http://www.w3.org/Graphics/SVG/1.1/DTD/svg11.dtd">
<!-- Generated by graphviz version 13.1.0 (20250701.0955)
 -->
<!-- Title: lua&#45;5.4.7/loslib.c Pages: 1 -->
<svg width="548pt" height="248pt"
 viewBox="0.00 0.00 548.00 248.00" xmlns="http://www.w3.org/2000/svg" xmlns:xlink="http://www.w3.org/1999/xlink">
<g id="graph0" class="graph" transform="scale(1 1) rotate(0) translate(4 244.25)">
<title>lua&#45;5.4.7/loslib.c</title>
<!-- Node1 -->
<g id="Node000001" class="node">
<title>Node1</title>
<g id="a_Node000001"><a xlink:title=" ">
<polygon fill="#999999" stroke="#666666" points="333.88,-240.25 246.62,-240.25 246.62,-221 333.88,-221 333.88,-240.25"/>
<text xml:space="preserve" text-anchor="middle" x="290.25" y="-226.75" font-family="Helvetica,sans-Serif" font-size="10.00">lua&#45;5.4.7/loslib.c</text>
</a>
</g>
</g>
<!-- Node2 -->
<g id="Node000002" class="node">
<title>Node2</title>
<g id="a_Node000002"><a xlink:href="lprefix_8h.html" target="_top" xlink:title=" ">
<polygon fill="white" stroke="#666666" points="50.5,-185 0,-185 0,-165.75 50.5,-165.75 50.5,-185"/>
<text xml:space="preserve" text-anchor="middle" x="25.25" y="-171.5" font-family="Helvetica,sans-Serif" font-size="10.00">lprefix.h</text>
</a>
</g>
</g>
<!-- Node1&#45;&gt;Node2 -->
<g id="edge1_Node000001_Node000002" class="edge">
<title>Node1&#45;&gt;Node2</title>
<g id="a_edge1_Node000001_Node000002"><a xlink:title=" ">
<path fill="none" stroke="#63b8ff" d="M246.24,-221.9C202.01,-213.97 131.63,-200.88 62,-185.52"/>
<polygon fill="#63b8ff" stroke="#63b8ff" points="62.83,-182.12 52.31,-183.36 61.31,-188.95 62.83,-182.12"/>
</a>
</g>
</g>
<!-- Node3 -->
<g id="Node000003" class="node">
<title>Node3</title>
<g id="a_Node000003"><a xlink:title=" ">
<polygon fill="#e0e0e0" stroke="#999999" points="114.25,-185 68.25,-185 68.25,-165.75 114.25,-165.75 114.25,-185"/>
<text xml:space="preserve" text-anchor="middle" x="91.25" y="-171.5" font-family="Helvetica,sans-Serif" font-size="10.00">errno.h</text>
</a>
</g>
</g>
<!-- Node1&#45;&gt;Node3 -->
<g id="edge2_Node000001_Node000003" class="edge">
<title>Node1&#45;&gt;Node3</title>
<g id="a_edge2_Node000001_Node000003"><a xlink:title=" ">
<path fill="none" stroke="#63b8ff" d="M256.02,-220.5C224.5,-212.1 176.15,-199.19 125.5,-185.6"/>
<polygon fill="#63b8ff" stroke="#63b8ff" points="126.69,-182.3 116.13,-183.09 124.88,-189.06 126.69,-182.3"/>
</a>
</g>
</g>
<!-- Node4 -->
<g id="Node000004" class="node">
<title>Node4</title>
<g id="a_Node000004"><a xlink:title=" ">
<polygon fill="#e0e0e0" stroke="#999999" points="182.12,-185 132.38,-185 132.38,-165.75 182.12,-165.75 182.12,-185"/>
<text xml:space="preserve" text-anchor="middle" x="157.25" y="-171.5" font-family="Helvetica,sans-Serif" font-size="10.00">locale.h</text>
</a>
</g>
</g>
<!-- Node1&#45;&gt;Node4 -->
<g id="edge3_Node000001_Node000004" class="edge">
<title>Node1&#45;&gt;Node4</title>
<g id="a_edge3_Node000001_Node000004"><a xlink:title=" ">
<path fill="none" stroke="#63b8ff" d="M267.69,-220.59C246.48,-212.1 214.48,-199.29 190.37,-189.64"/>
<polygon fill="#63b8ff" stroke="#63b8ff" points="191.91,-186.48 181.33,-186.02 189.31,-192.98 191.91,-186.48"/>
</a>
</g>
</g>
<!-- Node5 -->
<g id="Node000005" class="node">
<title>Node5</title>
<g id="a_Node000005"><a xlink:title=" ">
<polygon fill="#e0e0e0" stroke="#999999" points="248,-185 200.5,-185 200.5,-165.75 248,-165.75 248,-185"/>
<text xml:space="preserve" text-anchor="middle" x="224.25" y="-171.5" font-family="Helvetica,sans-Serif" font-size="10.00">stdlib.h</text>
</a>
</g>
</g>
<!-- Node1&#45;&gt;Node5 -->
<g id="edge4_Node000001_Node000005" class="edge">
<title>Node1&#45;&gt;Node5</title>
<g id="a_edge4_Node000001_Node000005"><a xlink:title=" ">
<path fill="none" stroke="#63b8ff" d="M279.05,-220.59C269.51,-212.9 255.58,-201.65 244.14,-192.43"/>
<polygon fill="#63b8ff" stroke="#63b8ff" points="246.44,-189.78 236.46,-186.23 242.04,-195.23 246.44,-189.78"/>
</a>
</g>
</g>
<!-- Node6 -->
<g id="Node000006" class="node">
<title>Node6</title>
<g id="a_Node000006"><a xlink:title=" ">
<polygon fill="#e0e0e0" stroke="#999999" points="314.38,-185 266.12,-185 266.12,-165.75 314.38,-165.75 314.38,-185"/>
<text xml:space="preserve" text-anchor="middle" x="290.25" y="-171.5" font-family="Helvetica,sans-Serif" font-size="10.00">string.h</text>
</a>
</g>
</g>
<!-- Node1&#45;&gt;Node6 -->
<g id="edge5_Node000001_Node000006" class="edge">
<title>Node1&#45;&gt;Node6</title>
<g id="a_edge5_Node000001_Node000006"><a xlink:title=" ">
<path fill="none" stroke="#63b8ff" d="M290.25,-220.83C290.25,-214.32 290.25,-205.17 290.25,-196.87"/>
<polygon fill="#63b8ff" stroke="#63b8ff" points="293.75,-196.87 290.25,-186.87 286.75,-196.87 293.75,-196.87"/>
</a>
</g>
</g>
<!-- Node7 -->
<g id="Node000007" class="node">
<title>Node7</title>
<g id="a_Node000007"><a xlink:title=" ">
<polygon fill="#e0e0e0" stroke="#999999" points="375.75,-185 332.75,-185 332.75,-165.75 375.75,-165.75 375.75,-185"/>
<text xml:space="preserve" text-anchor="middle" x="354.25" y="-171.5" font-family="Helvetica,sans-Serif" font-size="10.00">time.h</text>
</a>
</g>
</g>
<!-- Node1&#45;&gt;Node7 -->
<g id="edge6_Node000001_Node000007" class="edge">
<title>Node1&#45;&gt;Node7</title>
<g id="a_edge6_Node000001_Node000007"><a xlink:title=" ">
<path fill="none" stroke="#63b8ff" d="M301.11,-220.59C310.36,-212.9 323.87,-201.65 334.96,-192.43"/>
<polygon fill="#63b8ff" stroke="#63b8ff" points="336.94,-195.33 342.39,-186.24 332.46,-189.95 336.94,-195.33"/>
</a>
</g>
</g>
<!-- Node8 -->
<g id="Node000008" class="node">
<title>Node8</title>
<g id="a_Node000008"><a xlink:href="lua_8h.html" target="_top" xlink:title=" ">
<polygon fill="white" stroke="#666666" points="516.75,-129.75 479.75,-129.75 479.75,-110.5 516.75,-110.5 516.75,-129.75"/>
<text xml:space="preserve" text-anchor="middle" x="498.25" y="-116.25" font-family="Helvetica,sans-Serif" font-size="10.00">lua.h</text>
</a>
</g>
</g>
<!-- Node1&#45;&gt;Node8 -->
<g id="edge7_Node000001_Node000008" class="edge">
<title>Node1&#45;&gt;Node8</title>
<g id="a_edge7_Node000001_Node000008"><a xlink:title=" ">
<path fill="none" stroke="#63b8ff" d="M334.18,-227.5C394,-223.59 496.26,-212.9 519.25,-185 530.12,-171.81 521.68,-152.8 512.47,-138.96"/>
<polygon fill="#63b8ff" stroke="#63b8ff" points="515.5,-137.18 506.78,-131.16 509.85,-141.3 515.5,-137.18"/>
</a>
</g>
</g>
<!-- Node13 -->
<g id="Node000013" class="node">
<title>Node13</title>
<g id="a_Node000013"><a xlink:href="lauxlib_8h.html" target="_top" xlink:title=" ">
<polygon fill="white" stroke="#666666" points="446.25,-185 394.25,-185 394.25,-165.75 446.25,-165.75 446.25,-185"/>
<text xml:space="preserve" text-anchor="middle" x="420.25" y="-171.5" font-family="Helvetica,sans-Serif" font-size="10.00">lauxlib.h</text>
</a>
</g>
</g>
<!-- Node1&#45;&gt;Node13 -->
<g id="edge13_Node000001_Node000013" class="edge">
<title>Node1&#45;&gt;Node13</title>
<g id="a_edge13_Node000001_Node000013"><a xlink:title=" ">
<path fill="none" stroke="#63b8ff" d="M312.3,-220.59C332.94,-212.14 364.03,-199.4 387.55,-189.77"/>
<polygon fill="#63b8ff" stroke="#63b8ff" points="388.76,-193.06 396.69,-186.03 386.11,-186.58 388.76,-193.06"/>
</a>
</g>
</g>
<!-- Node15 -->
<g id="Node000015" class="node">
<title>Node15</title>
<g id="a_Node000015"><a xlink:href="lualib_8h.html" target="_top" xlink:title=" ">
<polygon fill="white" stroke="#666666" points="510.62,-185 463.88,-185 463.88,-165.75 510.62,-165.75 510.62,-185"/>
<text xml:space="preserve" text-anchor="middle" x="487.25" y="-171.5" font-family="Helvetica,sans-Serif" font-size="10.00">lualib.h</text>
</a>
</g>
</g>
<!-- Node1&#45;&gt;Node15 -->
<g id="edge18_Node000001_Node000015" class="edge">
<title>Node1&#45;&gt;Node15</title>
<g id="a_edge18_Node000001_Node000015"><a xlink:title=" ">
<path fill="none" stroke="#63b8ff" d="M323.67,-220.59C359.53,-210.9 416.21,-195.58 452.56,-185.75"/>
<polygon fill="#63b8ff" stroke="#63b8ff" points="453.39,-189.15 462.13,-183.17 451.56,-182.4 453.39,-189.15"/>
</a>
</g>
</g>
<!-- Node9 -->
<g id="Node000009" class="node">
<title>Node9</title>
<g id="a_Node000009"><a xlink:title=" ">
<polygon fill="#e0e0e0" stroke="#999999" points="526.88,-74.5 475.62,-74.5 475.62,-55.25 526.88,-55.25 526.88,-74.5"/>
<text xml:space="preserve" text-anchor="middle" x="501.25" y="-61" font-family="Helvetica,sans-Serif" font-size="10.00">stdarg.h</text>
</a>
</g>
</g>
<!-- Node8&#45;&gt;Node9 -->
<g id="edge8_Node000008_Node000009" class="edge">
<title>Node8&#45;&gt;Node9</title>
<g id="a_edge8_Node000008_Node000009"><a xlink:title=" ">
<path fill="none" stroke="#63b8ff" d="M498.75,-110.33C499.12,-103.74 499.64,-94.46 500.11,-86.07"/>
<polygon fill="#63b8ff" stroke="#63b8ff" points="503.59,-86.55 500.66,-76.37 496.6,-86.16 503.59,-86.55"/>
</a>
</g>
</g>
<!-- Node10 -->
<g id="Node000010" class="node">
<title>Node10</title>
<g id="a_Node000010"><a xlink:title=" ">
<polygon fill="#e0e0e0" stroke="#999999" points="478.88,-19.25 427.62,-19.25 427.62,0 478.88,0 478.88,-19.25"/>
<text xml:space="preserve" text-anchor="middle" x="453.25" y="-5.75" font-family="Helvetica,sans-Serif" font-size="10.00">stddef.h</text>
</a>
</g>
</g>
<!-- Node8&#45;&gt;Node10 -->
<g id="edge9_Node000008_Node000010" class="edge">
<title>Node8&#45;&gt;Node10</title>
<g id="a_edge9_Node000008_Node000010"><a xlink:title=" ">
<path fill="none" stroke="#63b8ff" d="M510.48,-110.02C525.57,-97.62 547.9,-74.74 536.25,-55.25 526.1,-38.27 507.03,-27.38 489.72,-20.61"/>
<polygon fill="#63b8ff" stroke="#63b8ff" points="491.29,-17.45 480.69,-17.41 488.95,-24.05 491.29,-17.45"/>
</a>
</g>
</g>
<!-- Node11 -->
<g id="Node000011" class="node">
<title>Node11</title>
<g id="a_Node000011"><a xlink:href="luaconf_8h.html" target="_top" xlink:title=" ">
<polygon fill="white" stroke="#666666" points="419.12,-74.5 363.38,-74.5 363.38,-55.25 419.12,-55.25 419.12,-74.5"/>
<text xml:space="preserve" text-anchor="middle" x="391.25" y="-61" font-family="Helvetica,sans-Serif" font-size="10.00">luaconf.h</text>
</a>
</g>
</g>
<!-- Node8&#45;&gt;Node11 -->
<g id="edge10_Node000008_Node000011" class="edge">
<title>Node8&#45;&gt;Node11</title>
<g id="a_edge10_Node000008_Node000011"><a xlink:title=" ">
<path fill="none" stroke="#63b8ff" d="M480.1,-110.09C463.57,-101.87 438.91,-89.59 419.75,-80.06"/>
<polygon fill="#63b8ff" stroke="#63b8ff" points="421.36,-76.95 410.85,-75.63 418.24,-83.22 421.36,-76.95"/>
</a>
</g>
</g>
<!-- Node11&#45;&gt;Node10 -->
<g id="edge12_Node000011_Node000010" class="edge">
<title>Node11&#45;&gt;Node10</title>
<g id="a_edge12_Node000011_Node000010"><a xlink:title=" ">
<path fill="none" stroke="#63b8ff" d="M401.77,-54.84C410.64,-47.22 423.56,-36.12 434.24,-26.95"/>
<polygon fill="#63b8ff" stroke="#63b8ff" points="436.43,-29.68 441.74,-20.51 431.87,-24.37 436.43,-29.68"/>
</a>
</g>
</g>
<!-- Node12 -->
<g id="Node000012" class="node">
<title>Node12</title>
<g id="a_Node000012"><a xlink:title=" ">
<polygon fill="#e0e0e0" stroke="#999999" points="410,-19.25 362.5,-19.25 362.5,0 410,0 410,-19.25"/>
<text xml:space="preserve" text-anchor="middle" x="386.25" y="-5.75" font-family="Helvetica,sans-Serif" font-size="10.00">limits.h</text>
</a>
</g>
</g>
<!-- Node11&#45;&gt;Node12 -->
<g id="edge11_Node000011_Node000012" class="edge">
<title>Node11&#45;&gt;Node12</title>
<g id="a_edge11_Node000011_Node000012"><a xlink:title=" ">
<path fill="none" stroke="#63b8ff" d="M390.42,-55.08C389.81,-48.49 388.93,-39.21 388.15,-30.82"/>
<polygon fill="#63b8ff" stroke="#63b8ff" points="391.65,-30.75 387.24,-21.12 384.69,-31.4 391.65,-30.75"/>
</a>
</g>
</g>
<!-- Node13&#45;&gt;Node8 -->
<g id="edge17_Node000013_Node000008" class="edge">
<title>Node13&#45;&gt;Node8</title>
<g id="a_edge17_Node000013_Node000008"><a xlink:title=" ">
<path fill="none" stroke="#63b8ff" d="M433.48,-165.34C445.02,-157.46 462.02,-145.86 475.7,-136.52"/>
<polygon fill="#63b8ff" stroke="#63b8ff" points="477.42,-139.58 483.7,-131.06 473.47,-133.8 477.42,-139.58"/>
</a>
</g>
</g>
<!-- Node13&#45;&gt;Node10 -->
<g id="edge14_Node000013_Node000010" class="edge">
<title>Node13&#45;&gt;Node10</title>
<g id="a_edge14_Node000013_Node000010"><a xlink:title=" ">
<path fill="none" stroke="#63b8ff" d="M422.02,-165.57C427.15,-140.14 442.07,-66.1 449.27,-30.37"/>
<polygon fill="#63b8ff" stroke="#63b8ff" points="452.62,-31.45 451.17,-20.96 445.76,-30.07 452.62,-31.45"/>
</a>
</g>
</g>
<!-- Node13&#45;&gt;Node11 -->
<g id="edge16_Node000013_Node000011" class="edge">
<title>Node13&#45;&gt;Node11</title>
<g id="a_edge16_Node000013_Node000011"><a xlink:title=" ">
<path fill="none" stroke="#63b8ff" d="M417.88,-165.5C413.25,-148.17 402.9,-109.48 396.56,-85.74"/>
<polygon fill="#63b8ff" stroke="#63b8ff" points="400.01,-85.1 394.05,-76.34 393.25,-86.9 400.01,-85.1"/>
</a>
</g>
</g>
<!-- Node14 -->
<g id="Node000014" class="node">
<title>Node14</title>
<g id="a_Node000014"><a xlink:title=" ">
<polygon fill="#e0e0e0" stroke="#999999" points="380.88,-129.75 335.62,-129.75 335.62,-110.5 380.88,-110.5 380.88,-129.75"/>
<text xml:space="preserve" text-anchor="middle" x="358.25" y="-116.25" font-family="Helvetica,sans-Serif" font-size="10.00">stdio.h</text>
</a>
</g>
</g>
<!-- Node13&#45;&gt;Node14 -->
<g id="edge15_Node000013_Node000014" class="edge">
<title>Node13&#45;&gt;Node14</title>
<g id="a_edge15_Node000013_Node000014"><a xlink:title=" ">
<path fill="none" stroke="#63b8ff" d="M409.73,-165.34C400.86,-157.72 387.94,-146.62 377.26,-137.45"/>
<polygon fill="#63b8ff" stroke="#63b8ff" points="379.63,-134.87 369.76,-131.01 375.07,-140.18 379.63,-134.87"/>
</a>
</g>
</g>
<!-- Node15&#45;&gt;Node8 -->
<g id="edge19_Node000015_Node000008" class="edge">
<title>Node15&#45;&gt;Node8</title>
<g id="a_edge19_Node000015_Node000008"><a xlink:title=" ">
<path fill="none" stroke="#63b8ff" d="M489.07,-165.58C490.43,-158.99 492.35,-149.71 494.08,-141.32"/>
<polygon fill="#63b8ff" stroke="#63b8ff" points="497.49,-142.09 496.09,-131.59 490.64,-140.68 497.49,-142.09"/>
</a>
</g>
</g>
</g>
</svg>
