<?xml version="1.0" encoding="UTF-8" standalone="no"?>
<!DOCTYPE svg PUBLIC "-//W3C//DTD SVG 1.1//EN"
 "http://www.w3.org/Graphics/SVG/1.1/DTD/svg11.dtd">
<!-- Generated by graphviz version 13.1.0 (20250701.0955)
 -->
<!-- Title: lua&#45;5.4.7/lparser.c Pages: 1 -->
<svg width="934pt" height="525pt"
 viewBox="0.00 0.00 934.00 525.00" xmlns="http://www.w3.org/2000/svg" xmlns:xlink="http://www.w3.org/1999/xlink">
<g id="graph0" class="graph" transform="scale(1 1) rotate(0) translate(4 520.5)">
<title>lua&#45;5.4.7/lparser.c</title>
<!-- Node1 -->
<g id="Node000001" class="node">
<title>Node1</title>
<g id="a_Node000001"><a xlink:title=" ">
<polygon fill="#999999" stroke="#666666" points="499.88,-516.5 406.62,-516.5 406.62,-497.25 499.88,-497.25 499.88,-516.5"/>
<text xml:space="preserve" text-anchor="middle" x="453.25" y="-503" font-family="Helvetica,sans-Serif" font-size="10.00">lua&#45;5.4.7/lparser.c</text>
</a>
</g>
</g>
<!-- Node2 -->
<g id="Node000002" class="node">
<title>Node2</title>
<g id="a_Node000002"><a xlink:href="lprefix_8h.html" target="_top" xlink:title=" ">
<polygon fill="white" stroke="#666666" points="50.5,-461.25 0,-461.25 0,-442 50.5,-442 50.5,-461.25"/>
<text xml:space="preserve" text-anchor="middle" x="25.25" y="-447.75" font-family="Helvetica,sans-Serif" font-size="10.00">lprefix.h</text>
</a>
</g>
</g>
<!-- Node1&#45;&gt;Node2 -->
<g id="edge1_Node000001_Node000002" class="edge">
<title>Node1&#45;&gt;Node2</title>
<g id="a_edge1_Node000001_Node000002"><a xlink:title=" ">
<path fill="none" stroke="#63b8ff" d="M406.33,-502.07C333,-495.77 186.94,-481.8 64.25,-461.25 63.43,-461.11 62.6,-460.97 61.76,-460.82"/>
<polygon fill="#63b8ff" stroke="#63b8ff" points="62.74,-457.45 52.26,-458.96 61.4,-464.31 62.74,-457.45"/>
</a>
</g>
</g>
<!-- Node3 -->
<g id="Node000003" class="node">
<title>Node3</title>
<g id="a_Node000003"><a xlink:title=" ">
<polygon fill="#e0e0e0" stroke="#999999" points="277,-19.25 229.5,-19.25 229.5,0 277,0 277,-19.25"/>
<text xml:space="preserve" text-anchor="middle" x="253.25" y="-5.75" font-family="Helvetica,sans-Serif" font-size="10.00">limits.h</text>
</a>
</g>
</g>
<!-- Node1&#45;&gt;Node3 -->
<g id="edge2_Node000001_Node000003" class="edge">
<title>Node1&#45;&gt;Node3</title>
<g id="a_edge2_Node000001_Node000003"><a xlink:title=" ">
<path fill="none" stroke="#63b8ff" d="M500.33,-505.01C619.97,-501.53 926.25,-484.15 926.25,-397.38 926.25,-397.38 926.25,-397.38 926.25,-119.12 926.25,-53.86 426.64,-20.51 288.35,-12.53"/>
<polygon fill="#63b8ff" stroke="#63b8ff" points="288.9,-9.06 278.71,-11.99 288.5,-16.05 288.9,-9.06"/>
</a>
</g>
</g>
<!-- Node4 -->
<g id="Node000004" class="node">
<title>Node4</title>
<g id="a_Node000004"><a xlink:title=" ">
<polygon fill="#e0e0e0" stroke="#999999" points="154.38,-461.25 106.12,-461.25 106.12,-442 154.38,-442 154.38,-461.25"/>
<text xml:space="preserve" text-anchor="middle" x="130.25" y="-447.75" font-family="Helvetica,sans-Serif" font-size="10.00">string.h</text>
</a>
</g>
</g>
<!-- Node1&#45;&gt;Node4 -->
<g id="edge3_Node000001_Node000004" class="edge">
<title>Node1&#45;&gt;Node4</title>
<g id="a_edge3_Node000001_Node000004"><a xlink:title=" ">
<path fill="none" stroke="#63b8ff" d="M406.18,-499.5C349.53,-491.61 251.62,-477.22 168.25,-461.25 167.43,-461.09 166.6,-460.93 165.76,-460.76"/>
<polygon fill="#63b8ff" stroke="#63b8ff" points="166.72,-457.39 156.21,-458.75 165.27,-464.24 166.72,-457.39"/>
</a>
</g>
</g>
<!-- Node5 -->
<g id="Node000005" class="node">
<title>Node5</title>
<g id="a_Node000005"><a xlink:href="lua_8h.html" target="_top" xlink:title=" ">
<polygon fill="white" stroke="#666666" points="328.75,-129.75 291.75,-129.75 291.75,-110.5 328.75,-110.5 328.75,-129.75"/>
<text xml:space="preserve" text-anchor="middle" x="310.25" y="-116.25" font-family="Helvetica,sans-Serif" font-size="10.00">lua.h</text>
</a>
</g>
</g>
<!-- Node1&#45;&gt;Node5 -->
<g id="edge4_Node000001_Node000005" class="edge">
<title>Node1&#45;&gt;Node5</title>
<g id="a_edge4_Node000001_Node000005"><a xlink:title=" ">
<path fill="none" stroke="#63b8ff" d="M500.22,-504.07C612.7,-498.47 888.25,-476.67 888.25,-397.38 888.25,-397.38 888.25,-397.38 888.25,-229.62 888.25,-173.36 459.64,-133.54 340.6,-123.57"/>
<polygon fill="#63b8ff" stroke="#63b8ff" points="340.92,-120.08 330.66,-122.74 340.34,-127.06 340.92,-120.08"/>
</a>
</g>
</g>
<!-- Node9 -->
<g id="Node000009" class="node">
<title>Node9</title>
<g id="a_Node000009"><a xlink:href="lcode_8h.html" target="_top" xlink:title=" ">
<polygon fill="white" stroke="#666666" points="296,-406 248.5,-406 248.5,-386.75 296,-386.75 296,-406"/>
<text xml:space="preserve" text-anchor="middle" x="272.25" y="-392.5" font-family="Helvetica,sans-Serif" font-size="10.00">lcode.h</text>
</a>
</g>
</g>
<!-- Node1&#45;&gt;Node9 -->
<g id="edge10_Node000001_Node000009" class="edge">
<title>Node1&#45;&gt;Node9</title>
<g id="a_edge10_Node000001_Node000009"><a xlink:title=" ">
<path fill="none" stroke="#63b8ff" d="M438.13,-496.81C406.99,-478.14 335.42,-435.24 297.27,-412.37"/>
<polygon fill="#63b8ff" stroke="#63b8ff" points="299.13,-409.41 288.75,-407.27 295.53,-415.41 299.13,-409.41"/>
</a>
</g>
</g>
<!-- Node10 -->
<g id="Node000010" class="node">
<title>Node10</title>
<g id="a_Node000010"><a xlink:href="llex_8h.html" target="_top" xlink:title=" ">
<polygon fill="white" stroke="#666666" points="383.88,-350.75 344.62,-350.75 344.62,-331.5 383.88,-331.5 383.88,-350.75"/>
<text xml:space="preserve" text-anchor="middle" x="364.25" y="-337.25" font-family="Helvetica,sans-Serif" font-size="10.00">llex.h</text>
</a>
</g>
</g>
<!-- Node1&#45;&gt;Node10 -->
<g id="edge48_Node000001_Node000010" class="edge">
<title>Node1&#45;&gt;Node10</title>
<g id="a_edge48_Node000001_Node000010"><a xlink:title=" ">
<path fill="none" stroke="#63b8ff" d="M452.05,-496.79C448.96,-475.87 439.18,-423.24 415.25,-386.75 407.92,-375.57 397.04,-365.52 387.21,-357.8"/>
<polygon fill="#63b8ff" stroke="#63b8ff" points="389.59,-355.21 379.48,-352.05 385.42,-360.83 389.59,-355.21"/>
</a>
</g>
</g>
<!-- Node11 -->
<g id="Node000011" class="node">
<title>Node11</title>
<g id="a_Node000011"><a xlink:href="lobject_8h.html" target="_top" xlink:title=" ">
<polygon fill="white" stroke="#666666" points="492.62,-240.25 439.88,-240.25 439.88,-221 492.62,-221 492.62,-240.25"/>
<text xml:space="preserve" text-anchor="middle" x="466.25" y="-226.75" font-family="Helvetica,sans-Serif" font-size="10.00">lobject.h</text>
</a>
</g>
</g>
<!-- Node1&#45;&gt;Node11 -->
<g id="edge50_Node000001_Node000011" class="edge">
<title>Node1&#45;&gt;Node11</title>
<g id="a_edge50_Node000001_Node000011"><a xlink:title=" ">
<path fill="none" stroke="#63b8ff" d="M455.89,-496.97C461.11,-478.55 472.25,-434.86 472.25,-397.38 472.25,-397.38 472.25,-397.38 472.25,-340.12 472.25,-309.36 469.82,-273.76 468.05,-251.97"/>
<polygon fill="#63b8ff" stroke="#63b8ff" points="471.55,-251.79 467.21,-242.13 464.57,-252.39 471.55,-251.79"/>
</a>
</g>
</g>
<!-- Node14 -->
<g id="Node000014" class="node">
<title>Node14</title>
<g id="a_Node000014"><a xlink:href="lmem_8h.html" target="_top" xlink:title=" ">
<polygon fill="white" stroke="#666666" points="82.38,-240.25 34.12,-240.25 34.12,-221 82.38,-221 82.38,-240.25"/>
<text xml:space="preserve" text-anchor="middle" x="58.25" y="-226.75" font-family="Helvetica,sans-Serif" font-size="10.00">lmem.h</text>
</a>
</g>
</g>
<!-- Node1&#45;&gt;Node14 -->
<g id="edge49_Node000001_Node000014" class="edge">
<title>Node1&#45;&gt;Node14</title>
<g id="a_edge49_Node000001_Node000014"><a xlink:title=" ">
<path fill="none" stroke="#63b8ff" d="M406.27,-502.81C322.06,-494.49 146.95,-463.77 69.25,-350.75 48.92,-321.17 51.02,-277.25 54.54,-251.82"/>
<polygon fill="#63b8ff" stroke="#63b8ff" points="57.96,-252.6 56.1,-242.17 51.05,-251.48 57.96,-252.6"/>
</a>
</g>
</g>
<!-- Node15 -->
<g id="Node000015" class="node">
<title>Node15</title>
<g id="a_Node000015"><a xlink:href="lopcodes_8h.html" target="_top" xlink:title=" ">
<polygon fill="white" stroke="#666666" points="141.88,-350.75 78.62,-350.75 78.62,-331.5 141.88,-331.5 141.88,-350.75"/>
<text xml:space="preserve" text-anchor="middle" x="110.25" y="-337.25" font-family="Helvetica,sans-Serif" font-size="10.00">lopcodes.h</text>
</a>
</g>
</g>
<!-- Node1&#45;&gt;Node15 -->
<g id="edge51_Node000001_Node000015" class="edge">
<title>Node1&#45;&gt;Node15</title>
<g id="a_edge51_Node000001_Node000015"><a xlink:title=" ">
<path fill="none" stroke="#63b8ff" d="M406.37,-503.4C314.39,-498.06 117.39,-484.08 97.25,-461.25 72.79,-433.53 88.55,-386.89 100.48,-360.96"/>
<polygon fill="#63b8ff" stroke="#63b8ff" points="103.47,-362.82 104.72,-352.29 97.18,-359.74 103.47,-362.82"/>
</a>
</g>
</g>
<!-- Node16 -->
<g id="Node000016" class="node">
<title>Node16</title>
<g id="a_Node000016"><a xlink:href="lparser_8h.html" target="_top" xlink:title=" ">
<polygon fill="white" stroke="#666666" points="212.62,-350.75 159.88,-350.75 159.88,-331.5 212.62,-331.5 212.62,-350.75"/>
<text xml:space="preserve" text-anchor="middle" x="186.25" y="-337.25" font-family="Helvetica,sans-Serif" font-size="10.00">lparser.h</text>
</a>
</g>
</g>
<!-- Node1&#45;&gt;Node16 -->
<g id="edge52_Node000001_Node000016" class="edge">
<title>Node1&#45;&gt;Node16</title>
<g id="a_edge52_Node000001_Node000016"><a xlink:title=" ">
<path fill="none" stroke="#63b8ff" d="M423.12,-496.87C379.29,-482.71 296.93,-452.04 239.25,-406 222.92,-392.96 208.08,-374.2 198.29,-360.38"/>
<polygon fill="#63b8ff" stroke="#63b8ff" points="201.23,-358.48 192.69,-352.2 195.45,-362.43 201.23,-358.48"/>
</a>
</g>
</g>
<!-- Node17 -->
<g id="Node000017" class="node">
<title>Node17</title>
<g id="a_Node000017"><a xlink:href="ldebug_8h.html" target="_top" xlink:title=" ">
<polygon fill="white" stroke="#666666" points="647.62,-406 594.88,-406 594.88,-386.75 647.62,-386.75 647.62,-406"/>
<text xml:space="preserve" text-anchor="middle" x="621.25" y="-392.5" font-family="Helvetica,sans-Serif" font-size="10.00">ldebug.h</text>
</a>
</g>
</g>
<!-- Node1&#45;&gt;Node17 -->
<g id="edge33_Node000001_Node000017" class="edge">
<title>Node1&#45;&gt;Node17</title>
<g id="a_edge33_Node000001_Node000017"><a xlink:title=" ">
<path fill="none" stroke="#63b8ff" d="M500.25,-502.47C531.98,-497.8 572.75,-486.84 599.25,-461.25 611.26,-449.66 616.71,-431.21 619.19,-417.12"/>
<polygon fill="#63b8ff" stroke="#63b8ff" points="622.6,-418.01 620.49,-407.63 615.67,-417.07 622.6,-418.01"/>
</a>
</g>
</g>
<!-- Node18 -->
<g id="Node000018" class="node">
<title>Node18</title>
<g id="a_Node000018"><a xlink:href="lstate_8h.html" target="_top" xlink:title=" ">
<polygon fill="white" stroke="#666666" points="694.38,-350.75 646.12,-350.75 646.12,-331.5 694.38,-331.5 694.38,-350.75"/>
<text xml:space="preserve" text-anchor="middle" x="670.25" y="-337.25" font-family="Helvetica,sans-Serif" font-size="10.00">lstate.h</text>
</a>
</g>
</g>
<!-- Node1&#45;&gt;Node18 -->
<g id="edge53_Node000001_Node000018" class="edge">
<title>Node1&#45;&gt;Node18</title>
<g id="a_edge53_Node000001_Node000018"><a xlink:title=" ">
<path fill="none" stroke="#63b8ff" d="M500.34,-502.15C535.83,-497.34 584.2,-486.36 619.25,-461.25 651.61,-438.06 663.6,-390.01 667.92,-362.54"/>
<polygon fill="#63b8ff" stroke="#63b8ff" points="671.38,-363.1 669.25,-352.73 664.44,-362.17 671.38,-363.1"/>
</a>
</g>
</g>
<!-- Node21 -->
<g id="Node000021" class="node">
<title>Node21</title>
<g id="a_Node000021"><a xlink:href="ldo_8h.html" target="_top" xlink:title=" ">
<polygon fill="white" stroke="#666666" points="405.75,-406 368.75,-406 368.75,-386.75 405.75,-386.75 405.75,-406"/>
<text xml:space="preserve" text-anchor="middle" x="387.25" y="-392.5" font-family="Helvetica,sans-Serif" font-size="10.00">ldo.h</text>
</a>
</g>
</g>
<!-- Node1&#45;&gt;Node21 -->
<g id="edge41_Node000001_Node000021" class="edge">
<title>Node1&#45;&gt;Node21</title>
<g id="a_edge41_Node000001_Node000021"><a xlink:title=" ">
<path fill="none" stroke="#63b8ff" d="M445.98,-496.95C438.98,-488.14 428.3,-474.17 420.25,-461.25 411.17,-446.66 402.31,-429.29 396.06,-416.35"/>
<polygon fill="#63b8ff" stroke="#63b8ff" points="399.39,-415.21 391.95,-407.67 393.07,-418.2 399.39,-415.21"/>
</a>
</g>
</g>
<!-- Node22 -->
<g id="Node000022" class="node">
<title>Node22</title>
<g id="a_Node000022"><a xlink:href="lfunc_8h.html" target="_top" xlink:title=" ">
<polygon fill="white" stroke="#666666" points="545.88,-295.5 500.62,-295.5 500.62,-276.25 545.88,-276.25 545.88,-295.5"/>
<text xml:space="preserve" text-anchor="middle" x="523.25" y="-282" font-family="Helvetica,sans-Serif" font-size="10.00">lfunc.h</text>
</a>
</g>
</g>
<!-- Node1&#45;&gt;Node22 -->
<g id="edge46_Node000001_Node000022" class="edge">
<title>Node1&#45;&gt;Node22</title>
<g id="a_edge46_Node000001_Node000022"><a xlink:title=" ">
<path fill="none" stroke="#63b8ff" d="M461.6,-497.04C469.18,-488.53 480.08,-474.96 486.25,-461.25 509.91,-408.68 518.73,-340.29 521.78,-306.94"/>
<polygon fill="#63b8ff" stroke="#63b8ff" points="525.25,-307.39 522.58,-297.13 518.27,-306.81 525.25,-307.39"/>
</a>
</g>
</g>
<!-- Node23 -->
<g id="Node000023" class="node">
<title>Node23</title>
<g id="a_Node000023"><a xlink:href="lstring_8h.html" target="_top" xlink:title=" ">
<polygon fill="white" stroke="#666666" points="769.5,-461.25 719,-461.25 719,-442 769.5,-442 769.5,-461.25"/>
<text xml:space="preserve" text-anchor="middle" x="744.25" y="-447.75" font-family="Helvetica,sans-Serif" font-size="10.00">lstring.h</text>
</a>
</g>
</g>
<!-- Node1&#45;&gt;Node23 -->
<g id="edge54_Node000001_Node000023" class="edge">
<title>Node1&#45;&gt;Node23</title>
<g id="a_edge54_Node000001_Node000023"><a xlink:title=" ">
<path fill="none" stroke="#63b8ff" d="M500.33,-497.26C558.2,-486.67 655.19,-468.92 707.74,-459.31"/>
<polygon fill="#63b8ff" stroke="#63b8ff" points="708.17,-462.79 717.38,-457.54 706.91,-455.9 708.17,-462.79"/>
</a>
</g>
</g>
<!-- Node25 -->
<g id="Node000025" class="node">
<title>Node25</title>
<g id="a_Node000025"><a xlink:href="ltable_8h.html" target="_top" xlink:title=" ">
<polygon fill="white" stroke="#666666" points="590,-461.25 542.5,-461.25 542.5,-442 590,-442 590,-461.25"/>
<text xml:space="preserve" text-anchor="middle" x="566.25" y="-447.75" font-family="Helvetica,sans-Serif" font-size="10.00">ltable.h</text>
</a>
</g>
</g>
<!-- Node1&#45;&gt;Node25 -->
<g id="edge60_Node000001_Node000025" class="edge">
<title>Node1&#45;&gt;Node25</title>
<g id="a_edge60_Node000001_Node000025"><a xlink:title=" ">
<path fill="none" stroke="#63b8ff" d="M472.42,-496.84C490.03,-488.54 516.41,-476.11 536.71,-466.54"/>
<polygon fill="#63b8ff" stroke="#63b8ff" points="538.06,-469.78 545.62,-462.35 535.08,-463.44 538.06,-469.78"/>
</a>
</g>
</g>
<!-- Node6 -->
<g id="Node000006" class="node">
<title>Node6</title>
<g id="a_Node000006"><a xlink:title=" ">
<polygon fill="#e0e0e0" stroke="#999999" points="338.88,-74.5 287.62,-74.5 287.62,-55.25 338.88,-55.25 338.88,-74.5"/>
<text xml:space="preserve" text-anchor="middle" x="313.25" y="-61" font-family="Helvetica,sans-Serif" font-size="10.00">stdarg.h</text>
</a>
</g>
</g>
<!-- Node5&#45;&gt;Node6 -->
<g id="edge5_Node000005_Node000006" class="edge">
<title>Node5&#45;&gt;Node6</title>
<g id="a_edge5_Node000005_Node000006"><a xlink:title=" ">
<path fill="none" stroke="#63b8ff" d="M310.75,-110.33C311.12,-103.74 311.64,-94.46 312.11,-86.07"/>
<polygon fill="#63b8ff" stroke="#63b8ff" points="315.59,-86.55 312.66,-76.37 308.6,-86.16 315.59,-86.55"/>
</a>
</g>
</g>
<!-- Node7 -->
<g id="Node000007" class="node">
<title>Node7</title>
<g id="a_Node000007"><a xlink:title=" ">
<polygon fill="#e0e0e0" stroke="#999999" points="198.88,-19.25 147.62,-19.25 147.62,0 198.88,0 198.88,-19.25"/>
<text xml:space="preserve" text-anchor="middle" x="173.25" y="-5.75" font-family="Helvetica,sans-Serif" font-size="10.00">stddef.h</text>
</a>
</g>
</g>
<!-- Node5&#45;&gt;Node7 -->
<g id="edge6_Node000005_Node000007" class="edge">
<title>Node5&#45;&gt;Node7</title>
<g id="a_edge6_Node000005_Node000007"><a xlink:title=" ">
<path fill="none" stroke="#63b8ff" d="M291.55,-115.5C268.46,-110.15 229.17,-98.13 204.25,-74.5 191.66,-62.56 183.54,-44.44 178.78,-30.54"/>
<polygon fill="#63b8ff" stroke="#63b8ff" points="182.17,-29.66 175.89,-21.13 175.48,-31.72 182.17,-29.66"/>
</a>
</g>
</g>
<!-- Node8 -->
<g id="Node000008" class="node">
<title>Node8</title>
<g id="a_Node000008"><a xlink:href="luaconf_8h.html" target="_top" xlink:title=" ">
<polygon fill="white" stroke="#666666" points="269.12,-74.5 213.38,-74.5 213.38,-55.25 269.12,-55.25 269.12,-74.5"/>
<text xml:space="preserve" text-anchor="middle" x="241.25" y="-61" font-family="Helvetica,sans-Serif" font-size="10.00">luaconf.h</text>
</a>
</g>
</g>
<!-- Node5&#45;&gt;Node8 -->
<g id="edge7_Node000005_Node000008" class="edge">
<title>Node5&#45;&gt;Node8</title>
<g id="a_edge7_Node000005_Node000008"><a xlink:title=" ">
<path fill="none" stroke="#63b8ff" d="M298.55,-110.09C288.47,-102.32 273.71,-90.92 261.69,-81.65"/>
<polygon fill="#63b8ff" stroke="#63b8ff" points="264.04,-79.04 253.98,-75.7 259.76,-84.58 264.04,-79.04"/>
</a>
</g>
</g>
<!-- Node8&#45;&gt;Node3 -->
<g id="edge8_Node000008_Node000003" class="edge">
<title>Node8&#45;&gt;Node3</title>
<g id="a_edge8_Node000008_Node000003"><a xlink:title=" ">
<path fill="none" stroke="#63b8ff" d="M243.23,-55.08C244.72,-48.49 246.81,-39.21 248.7,-30.82"/>
<polygon fill="#63b8ff" stroke="#63b8ff" points="252.11,-31.61 250.89,-21.09 245.28,-30.07 252.11,-31.61"/>
</a>
</g>
</g>
<!-- Node8&#45;&gt;Node7 -->
<g id="edge9_Node000008_Node000007" class="edge">
<title>Node8&#45;&gt;Node7</title>
<g id="a_edge9_Node000008_Node000007"><a xlink:title=" ">
<path fill="none" stroke="#63b8ff" d="M229.71,-54.84C219.79,-47.07 205.24,-35.67 193.39,-26.4"/>
<polygon fill="#63b8ff" stroke="#63b8ff" points="195.84,-23.87 185.81,-20.46 191.52,-29.38 195.84,-23.87"/>
</a>
</g>
</g>
<!-- Node9&#45;&gt;Node10 -->
<g id="edge11_Node000009_Node000010" class="edge">
<title>Node9&#45;&gt;Node10</title>
<g id="a_edge11_Node000009_Node000010"><a xlink:title=" ">
<path fill="none" stroke="#63b8ff" d="M287.86,-386.34C301.87,-378.23 322.68,-366.18 339.05,-356.71"/>
<polygon fill="#63b8ff" stroke="#63b8ff" points="340.36,-360 347.26,-351.96 336.85,-353.94 340.36,-360"/>
</a>
</g>
</g>
<!-- Node9&#45;&gt;Node11 -->
<g id="edge26_Node000009_Node000011" class="edge">
<title>Node9&#45;&gt;Node11</title>
<g id="a_edge26_Node000009_Node000011"><a xlink:title=" ">
<path fill="none" stroke="#63b8ff" d="M269.74,-386.3C264.3,-364.44 253.97,-308.32 281.25,-276.25 299.99,-254.22 379.61,-241.45 428.09,-235.58"/>
<polygon fill="#63b8ff" stroke="#63b8ff" points="428.36,-239.07 437.89,-234.44 427.55,-232.12 428.36,-239.07"/>
</a>
</g>
</g>
<!-- Node9&#45;&gt;Node15 -->
<g id="edge27_Node000009_Node000015" class="edge">
<title>Node9&#45;&gt;Node15</title>
<g id="a_edge27_Node000009_Node000015"><a xlink:title=" ">
<path fill="none" stroke="#63b8ff" d="M248.35,-387.52C222.09,-378.89 179.54,-364.9 148.6,-354.73"/>
<polygon fill="#63b8ff" stroke="#63b8ff" points="149.81,-351.44 139.22,-351.65 147.62,-358.09 149.81,-351.44"/>
</a>
</g>
</g>
<!-- Node9&#45;&gt;Node16 -->
<g id="edge29_Node000009_Node000016" class="edge">
<title>Node9&#45;&gt;Node16</title>
<g id="a_edge29_Node000009_Node000016"><a xlink:title=" ">
<path fill="none" stroke="#63b8ff" d="M257.66,-386.34C244.81,-378.39 225.84,-366.64 210.68,-357.25"/>
<polygon fill="#63b8ff" stroke="#63b8ff" points="212.54,-354.29 202.2,-352 208.86,-360.24 212.54,-354.29"/>
</a>
</g>
</g>
<!-- Node10&#45;&gt;Node3 -->
<g id="edge12_Node000010_Node000003" class="edge">
<title>Node10&#45;&gt;Node3</title>
<g id="a_edge12_Node000010_Node000003"><a xlink:title=" ">
<path fill="none" stroke="#63b8ff" d="M366.73,-331.21C376.63,-293.69 409.79,-146.39 348.25,-55.25 334.59,-35.02 309.22,-23.75 288.14,-17.59"/>
<polygon fill="#63b8ff" stroke="#63b8ff" points="289.3,-14.28 278.74,-15.13 287.52,-21.05 289.3,-14.28"/>
</a>
</g>
</g>
<!-- Node10&#45;&gt;Node11 -->
<g id="edge13_Node000010_Node000011" class="edge">
<title>Node10&#45;&gt;Node11</title>
<g id="a_edge13_Node000010_Node000011"><a xlink:title=" ">
<path fill="none" stroke="#63b8ff" d="M371.64,-331.25C382.15,-318.72 402.16,-295.27 420.25,-276.25 429.24,-266.79 439.65,-256.64 448.28,-248.41"/>
<polygon fill="#63b8ff" stroke="#63b8ff" points="450.55,-251.09 455.41,-241.67 445.74,-246 450.55,-251.09"/>
</a>
</g>
</g>
<!-- Node13 -->
<g id="Node000013" class="node">
<title>Node13</title>
<g id="a_Node000013"><a xlink:href="lzio_8h.html" target="_top" xlink:title=" ">
<polygon fill="white" stroke="#666666" points="329.88,-295.5 290.62,-295.5 290.62,-276.25 329.88,-276.25 329.88,-295.5"/>
<text xml:space="preserve" text-anchor="middle" x="310.25" y="-282" font-family="Helvetica,sans-Serif" font-size="10.00">lzio.h</text>
</a>
</g>
</g>
<!-- Node10&#45;&gt;Node13 -->
<g id="edge20_Node000010_Node000013" class="edge">
<title>Node10&#45;&gt;Node13</title>
<g id="a_edge20_Node000010_Node000013"><a xlink:title=" ">
<path fill="none" stroke="#63b8ff" d="M355.33,-331.33C347.8,-323.9 336.78,-313.04 327.52,-303.91"/>
<polygon fill="#63b8ff" stroke="#63b8ff" points="330.02,-301.45 320.44,-296.92 325.1,-306.44 330.02,-301.45"/>
</a>
</g>
</g>
<!-- Node11&#45;&gt;Node5 -->
<g id="edge19_Node000011_Node000005" class="edge">
<title>Node11&#45;&gt;Node5</title>
<g id="a_edge19_Node000011_Node000005"><a xlink:title=" ">
<path fill="none" stroke="#63b8ff" d="M453.22,-220.56C426.54,-202.01 365.44,-159.51 332.41,-136.54"/>
<polygon fill="#63b8ff" stroke="#63b8ff" points="334.59,-133.79 324.38,-130.95 330.59,-139.53 334.59,-133.79"/>
</a>
</g>
</g>
<!-- Node11&#45;&gt;Node6 -->
<g id="edge14_Node000011_Node000006" class="edge">
<title>Node11&#45;&gt;Node6</title>
<g id="a_edge14_Node000011_Node000006"><a xlink:title=" ">
<path fill="none" stroke="#63b8ff" d="M458.02,-220.82C433.64,-194.72 361.43,-117.44 329.15,-82.89"/>
<polygon fill="#63b8ff" stroke="#63b8ff" points="331.93,-80.75 322.55,-75.83 326.82,-85.52 331.93,-80.75"/>
</a>
</g>
</g>
<!-- Node12 -->
<g id="Node000012" class="node">
<title>Node12</title>
<g id="a_Node000012"><a xlink:href="llimits_8h.html" target="_top" xlink:title=" ">
<polygon fill="white" stroke="#666666" points="174.12,-185 124.38,-185 124.38,-165.75 174.12,-165.75 174.12,-185"/>
<text xml:space="preserve" text-anchor="middle" x="149.25" y="-171.5" font-family="Helvetica,sans-Serif" font-size="10.00">llimits.h</text>
</a>
</g>
</g>
<!-- Node11&#45;&gt;Node12 -->
<g id="edge15_Node000011_Node000012" class="edge">
<title>Node11&#45;&gt;Node12</title>
<g id="a_edge15_Node000011_Node000012"><a xlink:title=" ">
<path fill="none" stroke="#63b8ff" d="M439.5,-225.13C382.73,-215.59 250.14,-193.32 185.7,-182.5"/>
<polygon fill="#63b8ff" stroke="#63b8ff" points="186.43,-179.07 175.99,-180.87 185.27,-185.97 186.43,-179.07"/>
</a>
</g>
</g>
<!-- Node12&#45;&gt;Node3 -->
<g id="edge16_Node000012_Node000003" class="edge">
<title>Node12&#45;&gt;Node3</title>
<g id="a_edge16_Node000012_Node000003"><a xlink:title=" ">
<path fill="none" stroke="#63b8ff" d="M152.03,-165.36C158.72,-144.56 177.19,-92.18 204.25,-55.25 212.1,-44.53 222.85,-34.4 232.27,-26.51"/>
<polygon fill="#63b8ff" stroke="#63b8ff" points="234.31,-29.36 239.92,-20.37 229.93,-23.9 234.31,-29.36"/>
</a>
</g>
</g>
<!-- Node12&#45;&gt;Node5 -->
<g id="edge18_Node000012_Node000005" class="edge">
<title>Node12&#45;&gt;Node5</title>
<g id="a_edge18_Node000012_Node000005"><a xlink:title=" ">
<path fill="none" stroke="#63b8ff" d="M174.41,-166.05C203.11,-156.56 250,-141.05 280.5,-130.97"/>
<polygon fill="#63b8ff" stroke="#63b8ff" points="281.48,-134.33 289.87,-127.87 279.28,-127.68 281.48,-134.33"/>
</a>
</g>
</g>
<!-- Node12&#45;&gt;Node7 -->
<g id="edge17_Node000012_Node000007" class="edge">
<title>Node12&#45;&gt;Node7</title>
<g id="a_edge17_Node000012_Node000007"><a xlink:title=" ">
<path fill="none" stroke="#63b8ff" d="M150.54,-165.57C154.25,-140.25 165.02,-66.75 170.29,-30.84"/>
<polygon fill="#63b8ff" stroke="#63b8ff" points="173.75,-31.37 171.73,-20.97 166.82,-30.36 173.75,-31.37"/>
</a>
</g>
</g>
<!-- Node13&#45;&gt;Node5 -->
<g id="edge21_Node000013_Node000005" class="edge">
<title>Node13&#45;&gt;Node5</title>
<g id="a_edge21_Node000013_Node000005"><a xlink:title=" ">
<path fill="none" stroke="#63b8ff" d="M310.25,-276.07C310.25,-250.75 310.25,-177.25 310.25,-141.34"/>
<polygon fill="#63b8ff" stroke="#63b8ff" points="313.75,-141.49 310.25,-131.49 306.75,-141.49 313.75,-141.49"/>
</a>
</g>
</g>
<!-- Node13&#45;&gt;Node14 -->
<g id="edge22_Node000013_Node000014" class="edge">
<title>Node13&#45;&gt;Node14</title>
<g id="a_edge22_Node000013_Node000014"><a xlink:title=" ">
<path fill="none" stroke="#63b8ff" d="M290.48,-280.7C247.99,-271.72 147.52,-250.49 93.71,-239.12"/>
<polygon fill="#63b8ff" stroke="#63b8ff" points="94.65,-235.74 84.14,-237.1 93.2,-242.59 94.65,-235.74"/>
</a>
</g>
</g>
<!-- Node14&#45;&gt;Node5 -->
<g id="edge25_Node000014_Node000005" class="edge">
<title>Node14&#45;&gt;Node5</title>
<g id="a_edge25_Node000014_Node000005"><a xlink:title=" ">
<path fill="none" stroke="#63b8ff" d="M63.65,-220.61C72.56,-206.57 91.7,-179.66 115.25,-165.75 167.68,-134.77 239.78,-125.3 280,-122.4"/>
<polygon fill="#63b8ff" stroke="#63b8ff" points="280.13,-125.9 289.89,-121.79 279.7,-118.91 280.13,-125.9"/>
</a>
</g>
</g>
<!-- Node14&#45;&gt;Node7 -->
<g id="edge23_Node000014_Node000007" class="edge">
<title>Node14&#45;&gt;Node7</title>
<g id="a_edge23_Node000014_Node000007"><a xlink:title=" ">
<path fill="none" stroke="#63b8ff" d="M61.97,-220.84C67.29,-208.43 77.51,-185.11 87.25,-165.75 112.53,-115.5 145.52,-57.98 162.35,-29.15"/>
<polygon fill="#63b8ff" stroke="#63b8ff" points="165.15,-31.28 167.19,-20.89 159.11,-27.75 165.15,-31.28"/>
</a>
</g>
</g>
<!-- Node14&#45;&gt;Node12 -->
<g id="edge24_Node000014_Node000012" class="edge">
<title>Node14&#45;&gt;Node12</title>
<g id="a_edge24_Node000014_Node000012"><a xlink:title=" ">
<path fill="none" stroke="#63b8ff" d="M73.69,-220.59C87.41,-212.56 107.75,-200.66 123.87,-191.23"/>
<polygon fill="#63b8ff" stroke="#63b8ff" points="125.57,-194.29 132.43,-186.22 122.03,-188.25 125.57,-194.29"/>
</a>
</g>
</g>
<!-- Node15&#45;&gt;Node12 -->
<g id="edge28_Node000015_Node000012" class="edge">
<title>Node15&#45;&gt;Node12</title>
<g id="a_edge28_Node000015_Node000012"><a xlink:title=" ">
<path fill="none" stroke="#63b8ff" d="M112.35,-331.32C118.4,-305.89 136.04,-231.85 144.55,-196.12"/>
<polygon fill="#63b8ff" stroke="#63b8ff" points="147.88,-197.23 146.79,-186.69 141.07,-195.61 147.88,-197.23"/>
</a>
</g>
</g>
<!-- Node16&#45;&gt;Node11 -->
<g id="edge31_Node000016_Node000011" class="edge">
<title>Node16&#45;&gt;Node11</title>
<g id="a_edge31_Node000016_Node000011"><a xlink:title=" ">
<path fill="none" stroke="#63b8ff" d="M186.89,-331.11C188.41,-317.07 193.47,-290.16 210.25,-276.25 242.8,-249.27 364.9,-237.88 427.99,-233.71"/>
<polygon fill="#63b8ff" stroke="#63b8ff" points="428.14,-237.21 437.9,-233.09 427.7,-230.22 428.14,-237.21"/>
</a>
</g>
</g>
<!-- Node16&#45;&gt;Node12 -->
<g id="edge30_Node000016_Node000012" class="edge">
<title>Node16&#45;&gt;Node12</title>
<g id="a_edge30_Node000016_Node000012"><a xlink:title=" ">
<path fill="none" stroke="#63b8ff" d="M184.26,-331.32C178.51,-305.89 161.78,-231.85 153.71,-196.12"/>
<polygon fill="#63b8ff" stroke="#63b8ff" points="157.2,-195.68 151.58,-186.7 150.37,-197.22 157.2,-195.68"/>
</a>
</g>
</g>
<!-- Node16&#45;&gt;Node13 -->
<g id="edge32_Node000016_Node000013" class="edge">
<title>Node16&#45;&gt;Node13</title>
<g id="a_edge32_Node000016_Node000013"><a xlink:title=" ">
<path fill="none" stroke="#63b8ff" d="M207.28,-331.09C227.24,-322.52 257.43,-309.56 279.97,-299.88"/>
<polygon fill="#63b8ff" stroke="#63b8ff" points="281.15,-303.18 288.95,-296.02 278.38,-296.75 281.15,-303.18"/>
</a>
</g>
</g>
<!-- Node17&#45;&gt;Node18 -->
<g id="edge34_Node000017_Node000018" class="edge">
<title>Node17&#45;&gt;Node18</title>
<g id="a_edge34_Node000017_Node000018"><a xlink:title=" ">
<path fill="none" stroke="#63b8ff" d="M629.34,-386.58C636.11,-379.23 645.97,-368.51 654.31,-359.44"/>
<polygon fill="#63b8ff" stroke="#63b8ff" points="656.76,-361.95 660.96,-352.22 651.61,-357.21 656.76,-361.95"/>
</a>
</g>
</g>
<!-- Node18&#45;&gt;Node5 -->
<g id="edge35_Node000018_Node000005" class="edge">
<title>Node18&#45;&gt;Node5</title>
<g id="a_edge35_Node000018_Node000005"><a xlink:title=" ">
<path fill="none" stroke="#63b8ff" d="M658.25,-331.01C630.99,-310.43 562.02,-259.23 501.25,-221 458.6,-194.17 446.94,-189.03 402.25,-165.75 381.42,-154.9 357.55,-143.35 339.35,-134.71"/>
<polygon fill="#63b8ff" stroke="#63b8ff" points="340.99,-131.62 330.45,-130.52 338,-137.95 340.99,-131.62"/>
</a>
</g>
</g>
<!-- Node18&#45;&gt;Node11 -->
<g id="edge36_Node000018_Node000011" class="edge">
<title>Node18&#45;&gt;Node11</title>
<g id="a_edge36_Node000018_Node000011"><a xlink:title=" ">
<path fill="none" stroke="#63b8ff" d="M680.09,-331.05C693.21,-317.86 713.22,-293.15 699.25,-276.25 674.89,-246.79 563.36,-236.59 503.87,-233.21"/>
<polygon fill="#63b8ff" stroke="#63b8ff" points="504.39,-229.73 494.22,-232.7 504.02,-236.72 504.39,-229.73"/>
</a>
</g>
</g>
<!-- Node18&#45;&gt;Node13 -->
<g id="edge39_Node000018_Node000013" class="edge">
<title>Node18&#45;&gt;Node13</title>
<g id="a_edge39_Node000018_Node000013"><a xlink:title=" ">
<path fill="none" stroke="#63b8ff" d="M645.79,-336.51C582.21,-327.1 411.81,-301.9 341.38,-291.48"/>
<polygon fill="#63b8ff" stroke="#63b8ff" points="342.1,-288.05 331.69,-290.05 341.07,-294.97 342.1,-288.05"/>
</a>
</g>
</g>
<!-- Node19 -->
<g id="Node000019" class="node">
<title>Node19</title>
<g id="a_Node000019"><a xlink:href="ltm_8h.html" target="_top" xlink:title=" ">
<polygon fill="white" stroke="#666666" points="784.12,-295.5 746.38,-295.5 746.38,-276.25 784.12,-276.25 784.12,-295.5"/>
<text xml:space="preserve" text-anchor="middle" x="765.25" y="-282" font-family="Helvetica,sans-Serif" font-size="10.00">ltm.h</text>
</a>
</g>
</g>
<!-- Node18&#45;&gt;Node19 -->
<g id="edge37_Node000018_Node000019" class="edge">
<title>Node18&#45;&gt;Node19</title>
<g id="a_edge37_Node000018_Node000019"><a xlink:title=" ">
<path fill="none" stroke="#63b8ff" d="M686.37,-331.09C700.83,-322.98 722.33,-310.93 739.23,-301.46"/>
<polygon fill="#63b8ff" stroke="#63b8ff" points="740.72,-304.64 747.74,-296.69 737.3,-298.53 740.72,-304.64"/>
</a>
</g>
</g>
<!-- Node20 -->
<g id="Node000020" class="node">
<title>Node20</title>
<g id="a_Node000020"><a xlink:title=" ">
<polygon fill="#e0e0e0" stroke="#999999" points="690.12,-295.5 640.38,-295.5 640.38,-276.25 690.12,-276.25 690.12,-295.5"/>
<text xml:space="preserve" text-anchor="middle" x="665.25" y="-282" font-family="Helvetica,sans-Serif" font-size="10.00">signal.h</text>
</a>
</g>
</g>
<!-- Node18&#45;&gt;Node20 -->
<g id="edge40_Node000018_Node000020" class="edge">
<title>Node18&#45;&gt;Node20</title>
<g id="a_edge40_Node000018_Node000020"><a xlink:title=" ">
<path fill="none" stroke="#63b8ff" d="M669.42,-331.33C668.81,-324.74 667.93,-315.46 667.15,-307.07"/>
<polygon fill="#63b8ff" stroke="#63b8ff" points="670.65,-307 666.24,-297.37 663.69,-307.65 670.65,-307"/>
</a>
</g>
</g>
<!-- Node19&#45;&gt;Node11 -->
<g id="edge38_Node000019_Node000011" class="edge">
<title>Node19&#45;&gt;Node11</title>
<g id="a_edge38_Node000019_Node000011"><a xlink:title=" ">
<path fill="none" stroke="#63b8ff" d="M746.12,-279.57C741.59,-278.4 736.77,-277.22 732.25,-276.25 651.54,-258.97 555.86,-244.33 504.1,-236.89"/>
<polygon fill="#63b8ff" stroke="#63b8ff" points="504.72,-233.44 494.33,-235.49 503.73,-240.37 504.72,-233.44"/>
</a>
</g>
</g>
<!-- Node21&#45;&gt;Node11 -->
<g id="edge43_Node000021_Node000011" class="edge">
<title>Node21&#45;&gt;Node11</title>
<g id="a_edge43_Node000021_Node000011"><a xlink:title=" ">
<path fill="none" stroke="#63b8ff" d="M391.5,-386.57C403.87,-360.92 440.11,-285.8 457.17,-250.44"/>
<polygon fill="#63b8ff" stroke="#63b8ff" points="460.13,-252.36 461.32,-241.84 453.83,-249.32 460.13,-252.36"/>
</a>
</g>
</g>
<!-- Node21&#45;&gt;Node12 -->
<g id="edge42_Node000021_Node000012" class="edge">
<title>Node21&#45;&gt;Node12</title>
<g id="a_edge42_Node000021_Node000012"><a xlink:title=" ">
<path fill="none" stroke="#63b8ff" d="M371.97,-386.25C358.19,-377.75 337.63,-364.36 321.25,-350.75 258.45,-298.56 193.08,-226.54 164.33,-193.81"/>
<polygon fill="#63b8ff" stroke="#63b8ff" points="167.14,-191.7 157.92,-186.47 161.86,-196.31 167.14,-191.7"/>
</a>
</g>
</g>
<!-- Node21&#45;&gt;Node13 -->
<g id="edge45_Node000021_Node000013" class="edge">
<title>Node21&#45;&gt;Node13</title>
<g id="a_edge45_Node000021_Node000013"><a xlink:title=" ">
<path fill="none" stroke="#63b8ff" d="M373.66,-386.56C362.09,-378.46 345.72,-365.5 335.25,-350.75 325.75,-337.37 319.23,-319.88 315.24,-306.59"/>
<polygon fill="#63b8ff" stroke="#63b8ff" points="318.7,-305.97 312.67,-297.26 311.95,-307.83 318.7,-305.97"/>
</a>
</g>
</g>
<!-- Node21&#45;&gt;Node18 -->
<g id="edge44_Node000021_Node000018" class="edge">
<title>Node21&#45;&gt;Node18</title>
<g id="a_edge44_Node000021_Node000018"><a xlink:title=" ">
<path fill="none" stroke="#63b8ff" d="M405.82,-391.88C452.26,-383.14 574.06,-360.22 634.78,-348.8"/>
<polygon fill="#63b8ff" stroke="#63b8ff" points="635.06,-352.31 644.24,-347.02 633.76,-345.43 635.06,-352.31"/>
</a>
</g>
</g>
<!-- Node22&#45;&gt;Node11 -->
<g id="edge47_Node000022_Node000011" class="edge">
<title>Node22&#45;&gt;Node11</title>
<g id="a_edge47_Node000022_Node000011"><a xlink:title=" ">
<path fill="none" stroke="#63b8ff" d="M513.58,-275.84C505.51,-268.3 493.78,-257.35 484.03,-248.23"/>
<polygon fill="#63b8ff" stroke="#63b8ff" points="486.58,-245.83 476.88,-241.56 481.8,-250.94 486.58,-245.83"/>
</a>
</g>
</g>
<!-- Node23&#45;&gt;Node11 -->
<g id="edge58_Node000023_Node000011" class="edge">
<title>Node23&#45;&gt;Node11</title>
<g id="a_edge58_Node000023_Node000011"><a xlink:title=" ">
<path fill="none" stroke="#63b8ff" d="M755.33,-441.73C765.11,-433.38 779.2,-420.1 788.25,-406 819.94,-356.65 850.98,-320.29 812.25,-276.25 792.12,-253.36 589.75,-238.88 504.16,-233.73"/>
<polygon fill="#63b8ff" stroke="#63b8ff" points="504.58,-230.25 494.39,-233.16 504.17,-237.24 504.58,-230.25"/>
</a>
</g>
</g>
<!-- Node23&#45;&gt;Node18 -->
<g id="edge59_Node000023_Node000018" class="edge">
<title>Node23&#45;&gt;Node18</title>
<g id="a_edge59_Node000023_Node000018"><a xlink:title=" ">
<path fill="none" stroke="#63b8ff" d="M738.19,-441.75C726.11,-424.02 698.77,-383.94 682.7,-360.38"/>
<polygon fill="#63b8ff" stroke="#63b8ff" points="685.77,-358.67 677.24,-352.38 679.99,-362.61 685.77,-358.67"/>
</a>
</g>
</g>
<!-- Node24 -->
<g id="Node000024" class="node">
<title>Node24</title>
<g id="a_Node000024"><a xlink:href="lgc_8h.html" target="_top" xlink:title=" ">
<polygon fill="white" stroke="#666666" points="778.75,-406 741.75,-406 741.75,-386.75 778.75,-386.75 778.75,-406"/>
<text xml:space="preserve" text-anchor="middle" x="760.25" y="-392.5" font-family="Helvetica,sans-Serif" font-size="10.00">lgc.h</text>
</a>
</g>
</g>
<!-- Node23&#45;&gt;Node24 -->
<g id="edge55_Node000023_Node000024" class="edge">
<title>Node23&#45;&gt;Node24</title>
<g id="a_edge55_Node000023_Node000024"><a xlink:title=" ">
<path fill="none" stroke="#63b8ff" d="M746.89,-441.83C748.89,-435.17 751.73,-425.74 754.27,-417.28"/>
<polygon fill="#63b8ff" stroke="#63b8ff" points="757.59,-418.39 757.11,-407.81 750.89,-416.38 757.59,-418.39"/>
</a>
</g>
</g>
<!-- Node24&#45;&gt;Node11 -->
<g id="edge56_Node000024_Node000011" class="edge">
<title>Node24&#45;&gt;Node11</title>
<g id="a_edge56_Node000024_Node000011"><a xlink:title=" ">
<path fill="none" stroke="#63b8ff" d="M767.59,-386.39C784.36,-364.75 821.9,-309.07 793.25,-276.25 756.11,-233.7 582.27,-230.22 504.28,-230.87"/>
<polygon fill="#63b8ff" stroke="#63b8ff" points="504.53,-227.37 494.57,-230.98 504.61,-234.37 504.53,-227.37"/>
</a>
</g>
</g>
<!-- Node24&#45;&gt;Node18 -->
<g id="edge57_Node000024_Node000018" class="edge">
<title>Node24&#45;&gt;Node18</title>
<g id="a_edge57_Node000024_Node000018"><a xlink:title=" ">
<path fill="none" stroke="#63b8ff" d="M744.98,-386.34C731.41,-378.31 711.3,-366.41 695.35,-356.98"/>
<polygon fill="#63b8ff" stroke="#63b8ff" points="697.28,-354.05 686.89,-351.97 693.72,-360.08 697.28,-354.05"/>
</a>
</g>
</g>
<!-- Node25&#45;&gt;Node11 -->
<g id="edge61_Node000025_Node000011" class="edge">
<title>Node25&#45;&gt;Node11</title>
<g id="a_edge61_Node000025_Node000011"><a xlink:title=" ">
<path fill="none" stroke="#63b8ff" d="M568.53,-441.7C574.99,-414.27 590.73,-329.88 555.25,-276.25 543.51,-258.5 522.47,-247.5 503.79,-240.86"/>
<polygon fill="#63b8ff" stroke="#63b8ff" points="504.9,-237.54 494.31,-237.82 502.76,-244.21 504.9,-237.54"/>
</a>
</g>
</g>
</g>
</svg>
