<?xml version="1.0" encoding="UTF-8" standalone="no"?>
<!DOCTYPE svg PUBLIC "-//W3C//DTD SVG 1.1//EN"
 "http://www.w3.org/Graphics/SVG/1.1/DTD/svg11.dtd">
<!-- Generated by graphviz version 13.1.0 (20250701.0955)
 -->
<!-- Title: luai_makeseed Pages: 1 -->
<svg width="1500pt" height="95pt"
 viewBox="0.00 0.00 1500.00 95.00" xmlns="http://www.w3.org/2000/svg" xmlns:xlink="http://www.w3.org/1999/xlink">
<g id="graph0" class="graph" transform="scale(1 1) rotate(0) translate(4 90.53)">
<title>luai_makeseed</title>
<!-- Node1 -->
<g id="Node000001" class="node">
<title>Node1</title>
<g id="a_Node000001"><a xlink:title=" ">
<polygon fill="#999999" stroke="#666666" points="1491.5,-61.53 1410.25,-61.53 1410.25,-42.28 1491.5,-42.28 1491.5,-61.53"/>
<text xml:space="preserve" text-anchor="middle" x="1450.88" y="-48.03" font-family="Helvetica,sans-Serif" font-size="10.00">luai_makeseed</text>
</a>
</g>
</g>
<!-- Node2 -->
<g id="Node000002" class="node">
<title>Node2</title>
<g id="a_Node000002"><a xlink:href="lstate_8c.html#a02f761396ac35439932f4f0a7ff90b31" target="_top" xlink:title=" ">
<polygon fill="white" stroke="#666666" points="1374.25,-61.53 1300.5,-61.53 1300.5,-42.28 1374.25,-42.28 1374.25,-61.53"/>
<text xml:space="preserve" text-anchor="middle" x="1337.38" y="-48.03" font-family="Helvetica,sans-Serif" font-size="10.00">lua_newstate</text>
</a>
</g>
</g>
<!-- Node1&#45;&gt;Node2 -->
<g id="edge1_Node000001_Node000002" class="edge">
<title>Node1&#45;&gt;Node2</title>
<g id="a_edge1_Node000001_Node000002"><a xlink:title=" ">
<path fill="none" stroke="#63b8ff" d="M1398.66,-45.17C1390.57,-45.1 1382.35,-45.22 1374.7,-45.53"/>
<polygon fill="#63b8ff" stroke="#63b8ff" points="1398.35,-48.67 1408.42,-45.37 1398.5,-41.67 1398.35,-48.67"/>
</a>
</g>
</g>
<!-- Node2&#45;&gt;Node1 -->
<g id="edge2_Node000002_Node000001" class="edge">
<title>Node2&#45;&gt;Node1</title>
<g id="a_edge2_Node000002_Node000001"><a xlink:title=" ">
<path fill="none" stroke="#63b8ff" d="M1386.1,-58.59C1394.04,-58.71 1402.21,-58.65 1409.94,-58.4"/>
<polygon fill="#63b8ff" stroke="#63b8ff" points="1386.3,-55.09 1376.21,-58.32 1386.11,-62.09 1386.3,-55.09"/>
</a>
</g>
</g>
<!-- Node3 -->
<g id="Node000003" class="node">
<title>Node3</title>
<g id="a_Node000003"><a xlink:href="lauxlib_8c.html#abe0d4e1d9eb077cdeca0f58e80174f89" target="_top" xlink:title=" ">
<polygon fill="white" stroke="#666666" points="1264.5,-61.53 1185.5,-61.53 1185.5,-42.28 1264.5,-42.28 1264.5,-61.53"/>
<text xml:space="preserve" text-anchor="middle" x="1225" y="-48.03" font-family="Helvetica,sans-Serif" font-size="10.00">luaL_newstate</text>
</a>
</g>
</g>
<!-- Node2&#45;&gt;Node3 -->
<g id="edge3_Node000002_Node000003" class="edge">
<title>Node2&#45;&gt;Node3</title>
<g id="a_edge3_Node000002_Node000003"><a xlink:title=" ">
<path fill="none" stroke="#63b8ff" d="M1288.78,-51.9C1280.8,-51.9 1272.61,-51.9 1264.88,-51.9"/>
<polygon fill="#63b8ff" stroke="#63b8ff" points="1288.72,-55.4 1298.72,-51.9 1288.72,-48.4 1288.72,-55.4"/>
</a>
</g>
</g>
<!-- Node4 -->
<g id="Node000004" class="node">
<title>Node4</title>
<g id="a_Node000004"><a xlink:href="lua_8c.html#a3c04138a5bfe5d72780bb7e82a18e627" target="_top" xlink:title=" ">
<polygon fill="white" stroke="#666666" points="1133.75,-80.53 1096.75,-80.53 1096.75,-61.28 1133.75,-61.28 1133.75,-80.53"/>
<text xml:space="preserve" text-anchor="middle" x="1115.25" y="-67.03" font-family="Helvetica,sans-Serif" font-size="10.00">main</text>
</a>
</g>
</g>
<!-- Node3&#45;&gt;Node4 -->
<g id="edge4_Node000003_Node000004" class="edge">
<title>Node3&#45;&gt;Node4</title>
<g id="a_edge4_Node000003_Node000004"><a xlink:title=" ">
<path fill="none" stroke="#63b8ff" d="M1173.81,-60.75C1159.54,-63.27 1144.93,-65.85 1134,-67.77"/>
<polygon fill="#63b8ff" stroke="#63b8ff" points="1174.37,-64.21 1183.61,-59.02 1173.15,-57.31 1174.37,-64.21"/>
</a>
</g>
</g>
<!-- Node5 -->
<g id="Node000005" class="node">
<title>Node5</title>
<g id="a_Node000005"><a xlink:href="script_8c.html#a84508ce31c18af8792081eb1cdfc77b8" target="_top" xlink:title=" ">
<polygon fill="white" stroke="#666666" points="1149.5,-43.53 1081,-43.53 1081,-24.28 1149.5,-24.28 1149.5,-43.53"/>
<text xml:space="preserve" text-anchor="middle" x="1115.25" y="-30.03" font-family="Helvetica,sans-Serif" font-size="10.00">script_begin</text>
</a>
</g>
</g>
<!-- Node3&#45;&gt;Node5 -->
<g id="edge5_Node000003_Node000005" class="edge">
<title>Node3&#45;&gt;Node5</title>
<g id="a_edge5_Node000003_Node000005"><a xlink:title=" ">
<path fill="none" stroke="#63b8ff" d="M1173.75,-43.51C1165.61,-42.15 1157.36,-40.77 1149.75,-39.5"/>
<polygon fill="#63b8ff" stroke="#63b8ff" points="1173.17,-46.96 1183.61,-45.15 1174.32,-40.05 1173.17,-46.96"/>
</a>
</g>
</g>
<!-- Node6 -->
<g id="Node000006" class="node">
<title>Node6</title>
<g id="a_Node000006"><a xlink:href="game__scene_8c.html#ab923ed4c6ccad95026e85e252071716d" target="_top" xlink:title=" ">
<polygon fill="white" stroke="#666666" points="1045,-43.53 925.5,-43.53 925.5,-24.28 1045,-24.28 1045,-43.53"/>
<text xml:space="preserve" text-anchor="middle" x="985.25" y="-30.03" font-family="Helvetica,sans-Serif" font-size="10.00">PGB_GameScene_new</text>
</a>
</g>
</g>
<!-- Node5&#45;&gt;Node6 -->
<g id="edge6_Node000005_Node000006" class="edge">
<title>Node5&#45;&gt;Node6</title>
<g id="a_edge6_Node000005_Node000006"><a xlink:title=" ">
<path fill="none" stroke="#63b8ff" d="M1069.28,-33.9C1061.55,-33.9 1053.42,-33.9 1045.4,-33.9"/>
<polygon fill="#63b8ff" stroke="#63b8ff" points="1069.11,-37.4 1079.11,-33.9 1069.11,-30.4 1069.11,-37.4"/>
</a>
</g>
</g>
<!-- Node7 -->
<g id="Node000007" class="node">
<title>Node7</title>
<g id="a_Node000007"><a xlink:href="library__scene_8c.html#a0728002045c9cbbd68bdd34897b28da6" target="_top" xlink:title=" ">
<polygon fill="white" stroke="#666666" points="889.5,-43.53 755.75,-43.53 755.75,-24.28 889.5,-24.28 889.5,-43.53"/>
<text xml:space="preserve" text-anchor="middle" x="822.62" y="-30.03" font-family="Helvetica,sans-Serif" font-size="10.00">PGB_LibraryScene_update</text>
</a>
</g>
</g>
<!-- Node6&#45;&gt;Node7 -->
<g id="edge7_Node000006_Node000007" class="edge">
<title>Node6&#45;&gt;Node7</title>
<g id="a_edge7_Node000006_Node000007"><a xlink:title=" ">
<path fill="none" stroke="#63b8ff" d="M914.09,-33.9C906.04,-33.9 897.84,-33.9 889.84,-33.9"/>
<polygon fill="#63b8ff" stroke="#63b8ff" points="913.84,-37.4 923.84,-33.9 913.84,-30.4 913.84,-37.4"/>
</a>
</g>
</g>
<!-- Node8 -->
<g id="Node000008" class="node">
<title>Node8</title>
<g id="a_Node000008"><a xlink:href="library__scene_8c.html#aa5c386d39121b53fba45d899df654188" target="_top" xlink:title=" ">
<polygon fill="white" stroke="#666666" points="719.75,-43.53 597.25,-43.53 597.25,-24.28 719.75,-24.28 719.75,-43.53"/>
<text xml:space="preserve" text-anchor="middle" x="658.5" y="-30.03" font-family="Helvetica,sans-Serif" font-size="10.00">PGB_LibraryScene_new</text>
</a>
</g>
</g>
<!-- Node7&#45;&gt;Node8 -->
<g id="edge8_Node000007_Node000008" class="edge">
<title>Node7&#45;&gt;Node8</title>
<g id="a_edge8_Node000007_Node000008"><a xlink:title=" ">
<path fill="none" stroke="#63b8ff" d="M744.29,-33.9C736.19,-33.9 728.04,-33.9 720.16,-33.9"/>
<polygon fill="#63b8ff" stroke="#63b8ff" points="744.17,-37.4 754.17,-33.9 744.17,-30.4 744.17,-37.4"/>
</a>
</g>
</g>
<!-- Node9 -->
<g id="Node000009" class="node">
<title>Node9</title>
<g id="a_Node000009"><a xlink:href="app_8c.html#ab80501f53b757a79772b96ec99e3dc7e" target="_top" xlink:title=" ">
<polygon fill="white" stroke="#666666" points="534.25,-86.53 441.75,-86.53 441.75,-67.28 534.25,-67.28 534.25,-86.53"/>
<text xml:space="preserve" text-anchor="middle" x="488" y="-73.03" font-family="Helvetica,sans-Serif" font-size="10.00">PGB_goToLibrary</text>
</a>
</g>
</g>
<!-- Node8&#45;&gt;Node9 -->
<g id="edge9_Node000008_Node000009" class="edge">
<title>Node8&#45;&gt;Node9</title>
<g id="a_edge9_Node000008_Node000009"><a xlink:title=" ">
<path fill="none" stroke="#63b8ff" d="M606.84,-46.83C581.76,-53.23 551.92,-60.84 528.55,-66.81"/>
<polygon fill="#63b8ff" stroke="#63b8ff" points="607.7,-50.22 616.53,-44.36 605.97,-43.44 607.7,-50.22"/>
</a>
</g>
</g>
<!-- Node12 -->
<g id="Node000012" class="node">
<title>Node12</title>
<g id="a_Node000012"><a xlink:href="image__conversion__scene_8c.html#a60d0e43ab25a8639bbb6d1f4e758edd3" target="_top" xlink:title=" ">
<polygon fill="white" stroke="#666666" points="561.25,-49.15 414.75,-49.15 414.75,-18.65 561.25,-18.65 561.25,-49.15"/>
<text xml:space="preserve" text-anchor="start" x="422.75" y="-35.65" font-family="Helvetica,sans-Serif" font-size="10.00">PGB_ImageConversionScene</text>
<text xml:space="preserve" text-anchor="middle" x="488" y="-24.4" font-family="Helvetica,sans-Serif" font-size="10.00">_update</text>
</a>
</g>
</g>
<!-- Node8&#45;&gt;Node12 -->
<g id="edge12_Node000008_Node000012" class="edge">
<title>Node8&#45;&gt;Node12</title>
<g id="a_edge12_Node000008_Node000012"><a xlink:title=" ">
<path fill="none" stroke="#63b8ff" d="M585.9,-33.9C577.86,-33.9 569.65,-33.9 561.6,-33.9"/>
<polygon fill="#63b8ff" stroke="#63b8ff" points="585.63,-37.4 595.63,-33.9 585.63,-30.4 585.63,-37.4"/>
</a>
</g>
</g>
<!-- Node14 -->
<g id="Node000014" class="node">
<title>Node14</title>
<g id="a_Node000014"><a xlink:href="app_8c.html#af256ea7a9c51fcbd49cb0007facbb8ea" target="_top" xlink:title=" ">
<polygon fill="white" stroke="#666666" points="166.25,-21.53 111.25,-21.53 111.25,-2.28 166.25,-2.28 166.25,-21.53"/>
<text xml:space="preserve" text-anchor="middle" x="138.75" y="-8.03" font-family="Helvetica,sans-Serif" font-size="10.00">PGB_init</text>
</a>
</g>
</g>
<!-- Node8&#45;&gt;Node14 -->
<g id="edge16_Node000008_Node000014" class="edge">
<title>Node8&#45;&gt;Node14</title>
<g id="a_edge16_Node000008_Node000014"><a xlink:title=" ">
<path fill="none" stroke="#63b8ff" d="M614.41,-20.77C597.95,-16.39 578.89,-12.07 561.25,-9.9 413.08,8.29 233.4,-3.78 166.52,-9.44"/>
<polygon fill="#63b8ff" stroke="#63b8ff" points="613.32,-24.1 623.89,-23.39 615.18,-17.35 613.32,-24.1"/>
</a>
</g>
</g>
<!-- Node10 -->
<g id="Node000010" class="node">
<title>Node10</title>
<g id="a_Node000010"><a xlink:href="game__scene_8c.html#a6a4a6f0408da311dc566eb187e497889" target="_top" xlink:title=" ">
<polygon fill="white" stroke="#666666" points="360,-86.53 227.75,-86.53 227.75,-67.28 360,-67.28 360,-86.53"/>
<text xml:space="preserve" text-anchor="middle" x="293.88" y="-73.03" font-family="Helvetica,sans-Serif" font-size="10.00">PGB_LibraryConfirmModal</text>
</a>
</g>
</g>
<!-- Node9&#45;&gt;Node10 -->
<g id="edge10_Node000009_Node000010" class="edge">
<title>Node9&#45;&gt;Node10</title>
<g id="a_edge10_Node000009_Node000010"><a xlink:title=" ">
<path fill="none" stroke="#63b8ff" d="M430.03,-76.9C408.17,-76.9 383.05,-76.9 360.44,-76.9"/>
<polygon fill="#63b8ff" stroke="#63b8ff" points="429.96,-80.4 439.96,-76.9 429.96,-73.4 429.96,-80.4"/>
</a>
</g>
</g>
<!-- Node11 -->
<g id="Node000011" class="node">
<title>Node11</title>
<g id="a_Node000011"><a xlink:href="game__scene_8c.html#a113df24bb94bafcdbb9235ec8648e02f" target="_top" xlink:title=" ">
<polygon fill="white" stroke="#666666" points="173,-86.53 104.5,-86.53 104.5,-67.28 173,-67.28 173,-86.53"/>
<text xml:space="preserve" text-anchor="middle" x="138.75" y="-73.03" font-family="Helvetica,sans-Serif" font-size="10.00">__section__</text>
</a>
</g>
</g>
<!-- Node10&#45;&gt;Node11 -->
<g id="edge11_Node000010_Node000011" class="edge">
<title>Node10&#45;&gt;Node11</title>
<g id="a_edge11_Node000010_Node000011"><a xlink:title=" ">
<path fill="none" stroke="#63b8ff" d="M216.03,-76.9C200.98,-76.9 185.96,-76.9 173.27,-76.9"/>
<polygon fill="#63b8ff" stroke="#63b8ff" points="215.98,-80.4 225.98,-76.9 215.98,-73.4 215.98,-80.4"/>
</a>
</g>
</g>
<!-- Node13 -->
<g id="Node000013" class="node">
<title>Node13</title>
<g id="a_Node000013"><a xlink:href="image__conversion__scene_8c.html#aa3559936491ddf78b9cf06fcbdd32d22" target="_top" xlink:title=" ">
<polygon fill="white" stroke="#666666" points="378.75,-41.53 209,-41.53 209,-22.28 378.75,-22.28 378.75,-41.53"/>
<text xml:space="preserve" text-anchor="middle" x="293.88" y="-28.03" font-family="Helvetica,sans-Serif" font-size="10.00">PGB_ImageConversionScene_new</text>
</a>
</g>
</g>
<!-- Node12&#45;&gt;Node13 -->
<g id="edge13_Node000012_Node000013" class="edge">
<title>Node12&#45;&gt;Node13</title>
<g id="a_edge13_Node000012_Node000013"><a xlink:title=" ">
<path fill="none" stroke="#63b8ff" d="M402.94,-33.03C395.07,-32.95 387.09,-32.86 379.22,-32.78"/>
<polygon fill="#63b8ff" stroke="#63b8ff" points="402.82,-36.53 412.85,-33.13 402.89,-29.53 402.82,-36.53"/>
</a>
</g>
</g>
<!-- Node13&#45;&gt;Node14 -->
<g id="edge14_Node000013_Node000014" class="edge">
<title>Node13&#45;&gt;Node14</title>
<g id="a_edge14_Node000013_Node000014"><a xlink:title=" ">
<path fill="none" stroke="#63b8ff" d="M204.38,-20.34C190.72,-18.56 177.57,-16.84 166.75,-15.43"/>
<polygon fill="#63b8ff" stroke="#63b8ff" points="203.55,-23.76 213.91,-21.59 204.45,-16.82 203.55,-23.76"/>
</a>
</g>
</g>
<!-- Node15 -->
<g id="Node000015" class="node">
<title>Node15</title>
<g id="a_Node000015"><a xlink:href="main_8c.html#a77034286b8c64d0735c69535c5e9b732" target="_top" xlink:title=" ">
<polygon fill="white" stroke="#666666" points="68.5,-21.53 0,-21.53 0,-2.28 68.5,-2.28 68.5,-21.53"/>
<text xml:space="preserve" text-anchor="middle" x="34.25" y="-8.03" font-family="Helvetica,sans-Serif" font-size="10.00">__section__</text>
</a>
</g>
</g>
<!-- Node14&#45;&gt;Node15 -->
<g id="edge15_Node000014_Node000015" class="edge">
<title>Node14&#45;&gt;Node15</title>
<g id="a_edge15_Node000014_Node000015"><a xlink:title=" ">
<path fill="none" stroke="#63b8ff" d="M99.48,-11.9C89.46,-11.9 78.74,-11.9 68.97,-11.9"/>
<polygon fill="#63b8ff" stroke="#63b8ff" points="99.31,-15.4 109.31,-11.9 99.31,-8.4 99.31,-15.4"/>
</a>
</g>
</g>
</g>
</svg>
