<?xml version="1.0" encoding="UTF-8" standalone="no"?>
<!DOCTYPE svg PUBLIC "-//W3C//DTD SVG 1.1//EN"
 "http://www.w3.org/Graphics/SVG/1.1/DTD/svg11.dtd">
<!-- Generated by graphviz version 13.1.0 (20250701.0955)
 -->
<!-- Title: lua&#45;5.4.7/lstate.h Pages: 1 -->
<svg width="247pt" height="359pt"
 viewBox="0.00 0.00 247.00 359.00" xmlns="http://www.w3.org/2000/svg" xmlns:xlink="http://www.w3.org/1999/xlink">

<svg id="main" version="1.1" xmlns="http://www.w3.org/2000/svg" xmlns:xlink="http://www.w3.org/1999/xlink" xml:space="preserve">

<style type="text/css"><![CDATA[
.node, .edge {opacity: 0.7;}
.node.selected, .edge.selected {opacity: 1;}
.edge:hover path { stroke: red; }
.edge:hover polygon { stroke: red; fill: red; }
]]></style>
<script type="application/ecmascript" xlink:href="svg.min.js"/>
<svg id="graph" class="graph">
<g id="graph0" class="graph" transform="scale(1 1) rotate(0) translate(4 354.75)">
<title>lua&#45;5.4.7/lstate.h</title>
<!-- Node1 -->
<g id="Node000001" class="node">
<title>Node1</title>
<g id="a_Node000001"><a xlink:title=" ">
<polygon fill="#999999" stroke="#666666" points="126,-350.75 37.25,-350.75 37.25,-331.5 126,-331.5 126,-350.75"/>
<text xml:space="preserve" text-anchor="middle" x="81.62" y="-337.25" font-family="Helvetica,sans-Serif" font-size="10.00">lua&#45;5.4.7/lstate.h</text>
</a>
</g>
</g>
<!-- Node2 -->
<g id="Node000002" class="node">
<title>Node2</title>
<g id="a_Node000002"><a xlink:href="lua_8h.html" target="_top" xlink:title=" ">
<polygon fill="white" stroke="#666666" points="118.12,-129.75 81.12,-129.75 81.12,-110.5 118.12,-110.5 118.12,-129.75"/>
<text xml:space="preserve" text-anchor="middle" x="99.62" y="-116.25" font-family="Helvetica,sans-Serif" font-size="10.00">lua.h</text>
</a>
</g>
</g>
<!-- Node1&#45;&gt;Node2 -->
<g id="edge1_Node000001_Node000002" class="edge">
<title>Node1&#45;&gt;Node2</title>
<g id="a_edge1_Node000001_Node000002"><a xlink:title=" ">
<path fill="none" stroke="#63b8ff" d="M52.84,-331.1C36.14,-324.21 16.51,-312.89 6.62,-295.5 2.4,-288.06 6.16,-284.79 6.62,-276.25 7.96,-251.59 2.73,-243.63 12.62,-221 27.65,-186.65 58.82,-155.55 79.48,-137.48"/>
<polygon fill="#63b8ff" stroke="#63b8ff" points="81.62,-140.26 86.98,-131.12 77.1,-134.92 81.62,-140.26"/>
</a>
</g>
</g>
<!-- Node7 -->
<g id="Node000007" class="node">
<title>Node7</title>
<g id="a_Node000007"><a xlink:href="lobject_8h.html" target="_top" xlink:title=" ">
<polygon fill="white" stroke="#666666" points="74,-240.25 21.25,-240.25 21.25,-221 74,-221 74,-240.25"/>
<text xml:space="preserve" text-anchor="middle" x="47.62" y="-226.75" font-family="Helvetica,sans-Serif" font-size="10.00">lobject.h</text>
</a>
</g>
</g>
<!-- Node1&#45;&gt;Node7 -->
<g id="edge7_Node000001_Node000007" class="edge">
<title>Node1&#45;&gt;Node7</title>
<g id="a_edge7_Node000001_Node000007"><a xlink:title=" ">
<path fill="none" stroke="#63b8ff" d="M79.14,-331.42C75.6,-319.09 68.84,-295.88 62.62,-276.25 60.03,-268.07 57.05,-259.09 54.42,-251.35"/>
<polygon fill="#63b8ff" stroke="#63b8ff" points="57.74,-250.25 51.2,-241.92 51.12,-252.51 57.74,-250.25"/>
</a>
</g>
</g>
<!-- Node9 -->
<g id="Node000009" class="node">
<title>Node9</title>
<g id="a_Node000009"><a xlink:href="ltm_8h.html" target="_top" xlink:title=" ">
<polygon fill="white" stroke="#666666" points="53.5,-295.5 15.75,-295.5 15.75,-276.25 53.5,-276.25 53.5,-295.5"/>
<text xml:space="preserve" text-anchor="middle" x="34.62" y="-282" font-family="Helvetica,sans-Serif" font-size="10.00">ltm.h</text>
</a>
</g>
</g>
<!-- Node1&#45;&gt;Node9 -->
<g id="edge14_Node000001_Node000009" class="edge">
<title>Node1&#45;&gt;Node9</title>
<g id="a_edge14_Node000001_Node000009"><a xlink:title=" ">
<path fill="none" stroke="#63b8ff" d="M73.86,-331.33C67.44,-324.05 58.11,-313.48 50.16,-304.48"/>
<polygon fill="#63b8ff" stroke="#63b8ff" points="52.8,-302.18 43.56,-296.99 47.55,-306.81 52.8,-302.18"/>
</a>
</g>
</g>
<!-- Node10 -->
<g id="Node000010" class="node">
<title>Node10</title>
<g id="a_Node000010"><a xlink:href="lzio_8h.html" target="_top" xlink:title=" ">
<polygon fill="white" stroke="#666666" points="149.25,-295.5 110,-295.5 110,-276.25 149.25,-276.25 149.25,-295.5"/>
<text xml:space="preserve" text-anchor="middle" x="129.62" y="-282" font-family="Helvetica,sans-Serif" font-size="10.00">lzio.h</text>
</a>
</g>
</g>
<!-- Node1&#45;&gt;Node10 -->
<g id="edge16_Node000001_Node000010" class="edge">
<title>Node1&#45;&gt;Node10</title>
<g id="a_edge16_Node000001_Node000010"><a xlink:title=" ">
<path fill="none" stroke="#63b8ff" d="M89.55,-331.33C96.18,-323.98 105.84,-313.26 114.01,-304.19"/>
<polygon fill="#63b8ff" stroke="#63b8ff" points="116.42,-306.75 120.51,-296.98 111.22,-302.07 116.42,-306.75"/>
</a>
</g>
</g>
<!-- Node12 -->
<g id="Node000012" class="node">
<title>Node12</title>
<g id="a_Node000012"><a xlink:title=" ">
<polygon fill="#e0e0e0" stroke="#999999" points="217.5,-295.5 167.75,-295.5 167.75,-276.25 217.5,-276.25 217.5,-295.5"/>
<text xml:space="preserve" text-anchor="middle" x="192.62" y="-282" font-family="Helvetica,sans-Serif" font-size="10.00">signal.h</text>
</a>
</g>
</g>
<!-- Node1&#45;&gt;Node12 -->
<g id="edge22_Node000001_Node000012" class="edge">
<title>Node1&#45;&gt;Node12</title>
<g id="a_edge22_Node000001_Node000012"><a xlink:title=" ">
<path fill="none" stroke="#63b8ff" d="M100.45,-331.09C117.68,-322.83 143.43,-310.48 163.33,-300.93"/>
<polygon fill="#63b8ff" stroke="#63b8ff" points="164.84,-304.09 172.34,-296.61 161.81,-297.78 164.84,-304.09"/>
</a>
</g>
</g>
<!-- Node3 -->
<g id="Node000003" class="node">
<title>Node3</title>
<g id="a_Node000003"><a xlink:title=" ">
<polygon fill="#e0e0e0" stroke="#999999" points="51.25,-74.5 0,-74.5 0,-55.25 51.25,-55.25 51.25,-74.5"/>
<text xml:space="preserve" text-anchor="middle" x="25.62" y="-61" font-family="Helvetica,sans-Serif" font-size="10.00">stdarg.h</text>
</a>
</g>
</g>
<!-- Node2&#45;&gt;Node3 -->
<g id="edge2_Node000002_Node000003" class="edge">
<title>Node2&#45;&gt;Node3</title>
<g id="a_edge2_Node000002_Node000003"><a xlink:title=" ">
<path fill="none" stroke="#63b8ff" d="M87.07,-110.09C76.16,-102.24 60.12,-90.7 47.16,-81.37"/>
<polygon fill="#63b8ff" stroke="#63b8ff" points="49.38,-78.66 39.22,-75.66 45.29,-84.34 49.38,-78.66"/>
</a>
</g>
</g>
<!-- Node4 -->
<g id="Node000004" class="node">
<title>Node4</title>
<g id="a_Node000004"><a xlink:title=" ">
<polygon fill="#e0e0e0" stroke="#999999" points="238.25,-19.25 187,-19.25 187,0 238.25,0 238.25,-19.25"/>
<text xml:space="preserve" text-anchor="middle" x="212.62" y="-5.75" font-family="Helvetica,sans-Serif" font-size="10.00">stddef.h</text>
</a>
</g>
</g>
<!-- Node2&#45;&gt;Node4 -->
<g id="edge3_Node000002_Node000004" class="edge">
<title>Node2&#45;&gt;Node4</title>
<g id="a_edge3_Node000002_Node000004"><a xlink:title=" ">
<path fill="none" stroke="#63b8ff" d="M108.87,-110.25C127.74,-92.13 170.96,-50.63 195.24,-27.32"/>
<polygon fill="#63b8ff" stroke="#63b8ff" points="197.37,-30.13 202.16,-20.67 192.52,-25.08 197.37,-30.13"/>
</a>
</g>
</g>
<!-- Node5 -->
<g id="Node000005" class="node">
<title>Node5</title>
<g id="a_Node000005"><a xlink:href="luaconf_8h.html" target="_top" xlink:title=" ">
<polygon fill="white" stroke="#666666" points="125.5,-74.5 69.75,-74.5 69.75,-55.25 125.5,-55.25 125.5,-74.5"/>
<text xml:space="preserve" text-anchor="middle" x="97.62" y="-61" font-family="Helvetica,sans-Serif" font-size="10.00">luaconf.h</text>
</a>
</g>
</g>
<!-- Node2&#45;&gt;Node5 -->
<g id="edge4_Node000002_Node000005" class="edge">
<title>Node2&#45;&gt;Node5</title>
<g id="a_edge4_Node000002_Node000005"><a xlink:title=" ">
<path fill="none" stroke="#63b8ff" d="M99.29,-110.33C99.05,-103.74 98.7,-94.46 98.38,-86.07"/>
<polygon fill="#63b8ff" stroke="#63b8ff" points="101.89,-86.23 98.02,-76.37 94.9,-86.5 101.89,-86.23"/>
</a>
</g>
</g>
<!-- Node5&#45;&gt;Node4 -->
<g id="edge6_Node000005_Node000004" class="edge">
<title>Node5&#45;&gt;Node4</title>
<g id="a_edge6_Node000005_Node000004"><a xlink:title=" ">
<path fill="none" stroke="#63b8ff" d="M117.13,-54.84C135.14,-46.5 162.15,-34 182.85,-24.41"/>
<polygon fill="#63b8ff" stroke="#63b8ff" points="184.04,-27.72 191.65,-20.34 181.1,-21.36 184.04,-27.72"/>
</a>
</g>
</g>
<!-- Node6 -->
<g id="Node000006" class="node">
<title>Node6</title>
<g id="a_Node000006"><a xlink:title=" ">
<polygon fill="#e0e0e0" stroke="#999999" points="153.38,-19.25 105.88,-19.25 105.88,0 153.38,0 153.38,-19.25"/>
<text xml:space="preserve" text-anchor="middle" x="129.62" y="-5.75" font-family="Helvetica,sans-Serif" font-size="10.00">limits.h</text>
</a>
</g>
</g>
<!-- Node5&#45;&gt;Node6 -->
<g id="edge5_Node000005_Node000006" class="edge">
<title>Node5&#45;&gt;Node6</title>
<g id="a_edge5_Node000005_Node000006"><a xlink:title=" ">
<path fill="none" stroke="#63b8ff" d="M102.91,-55.08C107.1,-48.11 113.1,-38.12 118.36,-29.37"/>
<polygon fill="#63b8ff" stroke="#63b8ff" points="121.3,-31.28 123.45,-20.91 115.3,-27.68 121.3,-31.28"/>
</a>
</g>
</g>
<!-- Node7&#45;&gt;Node2 -->
<g id="edge13_Node000007_Node000002" class="edge">
<title>Node7&#45;&gt;Node2</title>
<g id="a_edge13_Node000007_Node000002"><a xlink:title=" ">
<path fill="none" stroke="#63b8ff" d="M51.88,-220.75C60.26,-203.26 79.07,-164.02 90.42,-140.34"/>
<polygon fill="#63b8ff" stroke="#63b8ff" points="93.49,-142.02 94.66,-131.49 87.18,-139 93.49,-142.02"/>
</a>
</g>
</g>
<!-- Node7&#45;&gt;Node3 -->
<g id="edge8_Node000007_Node000003" class="edge">
<title>Node7&#45;&gt;Node3</title>
<g id="a_edge8_Node000007_Node000003"><a xlink:title=" ">
<path fill="none" stroke="#63b8ff" d="M46.44,-220.82C43.04,-195.5 33.16,-122 28.34,-86.09"/>
<polygon fill="#63b8ff" stroke="#63b8ff" points="31.82,-85.67 27.02,-76.22 24.88,-86.6 31.82,-85.67"/>
</a>
</g>
</g>
<!-- Node8 -->
<g id="Node000008" class="node">
<title>Node8</title>
<g id="a_Node000008"><a xlink:href="llimits_8h.html" target="_top" xlink:title=" ">
<polygon fill="white" stroke="#666666" points="217.5,-185 167.75,-185 167.75,-165.75 217.5,-165.75 217.5,-185"/>
<text xml:space="preserve" text-anchor="middle" x="192.62" y="-171.5" font-family="Helvetica,sans-Serif" font-size="10.00">llimits.h</text>
</a>
</g>
</g>
<!-- Node7&#45;&gt;Node8 -->
<g id="edge9_Node000007_Node000008" class="edge">
<title>Node7&#45;&gt;Node8</title>
<g id="a_edge9_Node000007_Node000008"><a xlink:title=" ">
<path fill="none" stroke="#63b8ff" d="M72.22,-220.59C95.55,-212.02 130.86,-199.06 157.22,-189.38"/>
<polygon fill="#63b8ff" stroke="#63b8ff" points="158.31,-192.71 166.49,-185.97 155.89,-186.14 158.31,-192.71"/>
</a>
</g>
</g>
<!-- Node8&#45;&gt;Node2 -->
<g id="edge12_Node000008_Node000002" class="edge">
<title>Node8&#45;&gt;Node2</title>
<g id="a_edge12_Node000008_Node000002"><a xlink:title=" ">
<path fill="none" stroke="#63b8ff" d="M176.85,-165.34C162.69,-157.23 141.64,-145.18 125.1,-135.71"/>
<polygon fill="#63b8ff" stroke="#63b8ff" points="127.21,-132.89 116.79,-130.95 123.73,-138.96 127.21,-132.89"/>
</a>
</g>
</g>
<!-- Node8&#45;&gt;Node4 -->
<g id="edge11_Node000008_Node000004" class="edge">
<title>Node8&#45;&gt;Node4</title>
<g id="a_edge11_Node000008_Node000004"><a xlink:title=" ">
<path fill="none" stroke="#63b8ff" d="M195.93,-165.29C199.01,-156.37 203.45,-142.31 205.62,-129.75 211.55,-95.47 212.71,-54.91 212.81,-31.06"/>
<polygon fill="#63b8ff" stroke="#63b8ff" points="216.31,-31.17 212.79,-21.18 209.31,-31.19 216.31,-31.17"/>
</a>
</g>
</g>
<!-- Node8&#45;&gt;Node6 -->
<g id="edge10_Node000008_Node000006" class="edge">
<title>Node8&#45;&gt;Node6</title>
<g id="a_edge10_Node000008_Node000006"><a xlink:title=" ">
<path fill="none" stroke="#63b8ff" d="M189.24,-165.57C179.41,-140.03 150.72,-65.45 137.04,-29.9"/>
<polygon fill="#63b8ff" stroke="#63b8ff" points="140.43,-28.96 133.57,-20.89 133.9,-31.47 140.43,-28.96"/>
</a>
</g>
</g>
<!-- Node9&#45;&gt;Node7 -->
<g id="edge15_Node000009_Node000007" class="edge">
<title>Node9&#45;&gt;Node7</title>
<g id="a_edge15_Node000009_Node000007"><a xlink:title=" ">
<path fill="none" stroke="#63b8ff" d="M36.77,-276.08C38.4,-269.42 40.7,-259.99 42.77,-251.53"/>
<polygon fill="#63b8ff" stroke="#63b8ff" points="46.1,-252.62 45.07,-242.08 39.3,-250.96 46.1,-252.62"/>
</a>
</g>
</g>
<!-- Node10&#45;&gt;Node2 -->
<g id="edge17_Node000010_Node000002" class="edge">
<title>Node10&#45;&gt;Node2</title>
<g id="a_edge17_Node000010_Node000002"><a xlink:title=" ">
<path fill="none" stroke="#63b8ff" d="M128.01,-276.07C123.35,-250.64 109.79,-176.6 103.24,-140.87"/>
<polygon fill="#63b8ff" stroke="#63b8ff" points="106.76,-140.67 101.52,-131.46 99.88,-141.93 106.76,-140.67"/>
</a>
</g>
</g>
<!-- Node11 -->
<g id="Node000011" class="node">
<title>Node11</title>
<g id="a_Node000011"><a xlink:href="lmem_8h.html" target="_top" xlink:title=" ">
<polygon fill="white" stroke="#666666" points="196.75,-240.25 148.5,-240.25 148.5,-221 196.75,-221 196.75,-240.25"/>
<text xml:space="preserve" text-anchor="middle" x="172.62" y="-226.75" font-family="Helvetica,sans-Serif" font-size="10.00">lmem.h</text>
</a>
</g>
</g>
<!-- Node10&#45;&gt;Node11 -->
<g id="edge18_Node000010_Node000011" class="edge">
<title>Node10&#45;&gt;Node11</title>
<g id="a_edge18_Node000010_Node000011"><a xlink:title=" ">
<path fill="none" stroke="#63b8ff" d="M136.73,-276.08C142.54,-268.88 150.96,-258.46 158.18,-249.51"/>
<polygon fill="#63b8ff" stroke="#63b8ff" points="160.86,-251.77 164.42,-241.79 155.41,-247.37 160.86,-251.77"/>
</a>
</g>
</g>
<!-- Node11&#45;&gt;Node2 -->
<g id="edge21_Node000011_Node000002" class="edge">
<title>Node11&#45;&gt;Node2</title>
<g id="a_edge21_Node000011_Node000002"><a xlink:title=" ">
<path fill="none" stroke="#63b8ff" d="M166.65,-220.75C154.73,-203.02 127.76,-162.94 111.91,-139.38"/>
<polygon fill="#63b8ff" stroke="#63b8ff" points="115.01,-137.73 106.53,-131.38 109.2,-141.63 115.01,-137.73"/>
</a>
</g>
</g>
<!-- Node11&#45;&gt;Node4 -->
<g id="edge19_Node000011_Node000004" class="edge">
<title>Node11&#45;&gt;Node4</title>
<g id="a_edge19_Node000011_Node000004"><a xlink:title=" ">
<path fill="none" stroke="#63b8ff" d="M190.3,-220.57C203.01,-212.98 219.16,-200.84 226.62,-185 250.94,-133.36 232.01,-63.57 220.23,-30.11"/>
<polygon fill="#63b8ff" stroke="#63b8ff" points="223.59,-29.1 216.83,-20.94 217.02,-31.53 223.59,-29.1"/>
</a>
</g>
</g>
<!-- Node11&#45;&gt;Node8 -->
<g id="edge20_Node000011_Node000008" class="edge">
<title>Node11&#45;&gt;Node8</title>
<g id="a_edge20_Node000011_Node000008"><a xlink:title=" ">
<path fill="none" stroke="#63b8ff" d="M175.93,-220.83C178.46,-214.09 182.05,-204.52 185.26,-195.99"/>
<polygon fill="#63b8ff" stroke="#63b8ff" points="188.48,-197.37 188.72,-186.78 181.93,-194.91 188.48,-197.37"/>
</a>
</g>
</g>
</g>
</svg>
</svg>

<style type='text/css'>
<![CDATA[
[data-mouse-over-selected='false'] { opacity: 0.7; }
[data-mouse-over-selected='true']  { opacity: 1.0; }
]]>
</style>
<script type="application/ecmascript"><![CDATA[
document.addEventListener('DOMContentLoaded', (event) => {
  highlightEdges();
  highlightAdjacentNodes();
});
]]></script>
</svg>
