<?xml version="1.0" encoding="UTF-8" standalone="no"?>
<!DOCTYPE svg PUBLIC "-//W3C//DTD SVG 1.1//EN"
 "http://www.w3.org/Graphics/SVG/1.1/DTD/svg11.dtd">
<!-- Generated by graphviz version 13.1.0 (20250701.0955)
 -->
<!-- Title: lua&#45;5.4.7/lstate.c Pages: 1 -->
<svg width="868pt" height="525pt"
 viewBox="0.00 0.00 868.00 525.00" xmlns="http://www.w3.org/2000/svg" xmlns:xlink="http://www.w3.org/1999/xlink">
<g id="graph0" class="graph" transform="scale(1 1) rotate(0) translate(4 520.5)">
<title>lua&#45;5.4.7/lstate.c</title>
<!-- Node1 -->
<g id="Node000001" class="node">
<title>Node1</title>
<g id="a_Node000001"><a xlink:title=" ">
<polygon fill="#999999" stroke="#666666" points="458.62,-516.5 369.88,-516.5 369.88,-497.25 458.62,-497.25 458.62,-516.5"/>
<text xml:space="preserve" text-anchor="middle" x="414.25" y="-503" font-family="Helvetica,sans-Serif" font-size="10.00">lua&#45;5.4.7/lstate.c</text>
</a>
</g>
</g>
<!-- Node2 -->
<g id="Node000002" class="node">
<title>Node2</title>
<g id="a_Node000002"><a xlink:href="lprefix_8h.html" target="_top" xlink:title=" ">
<polygon fill="white" stroke="#666666" points="50.5,-461.25 0,-461.25 0,-442 50.5,-442 50.5,-461.25"/>
<text xml:space="preserve" text-anchor="middle" x="25.25" y="-447.75" font-family="Helvetica,sans-Serif" font-size="10.00">lprefix.h</text>
</a>
</g>
</g>
<!-- Node1&#45;&gt;Node2 -->
<g id="edge1_Node000001_Node000002" class="edge">
<title>Node1&#45;&gt;Node2</title>
<g id="a_edge1_Node000001_Node000002"><a xlink:title=" ">
<path fill="none" stroke="#63b8ff" d="M369.58,-501.49C302.86,-494.65 173.33,-480.23 64.25,-461.25 63.43,-461.11 62.6,-460.96 61.77,-460.81"/>
<polygon fill="#63b8ff" stroke="#63b8ff" points="62.75,-457.43 52.26,-458.91 61.39,-464.3 62.75,-457.43"/>
</a>
</g>
</g>
<!-- Node3 -->
<g id="Node000003" class="node">
<title>Node3</title>
<g id="a_Node000003"><a xlink:title=" ">
<polygon fill="#e0e0e0" stroke="#999999" points="209.88,-19.25 158.62,-19.25 158.62,0 209.88,0 209.88,-19.25"/>
<text xml:space="preserve" text-anchor="middle" x="184.25" y="-5.75" font-family="Helvetica,sans-Serif" font-size="10.00">stddef.h</text>
</a>
</g>
</g>
<!-- Node1&#45;&gt;Node3 -->
<g id="edge2_Node000001_Node000003" class="edge">
<title>Node1&#45;&gt;Node3</title>
<g id="a_edge2_Node000001_Node000003"><a xlink:title=" ">
<path fill="none" stroke="#63b8ff" d="M369.58,-505.37C292.09,-503.57 137.21,-495.65 97.25,-461.25 74.8,-441.93 78.25,-426.99 78.25,-397.38 78.25,-397.38 78.25,-397.38 78.25,-119.12 78.25,-75.12 123.42,-42.33 154.78,-24.87"/>
<polygon fill="#63b8ff" stroke="#63b8ff" points="156.28,-28.03 163.47,-20.25 153,-21.85 156.28,-28.03"/>
</a>
</g>
</g>
<!-- Node4 -->
<g id="Node000004" class="node">
<title>Node4</title>
<g id="a_Node000004"><a xlink:title=" ">
<polygon fill="#e0e0e0" stroke="#999999" points="154.38,-461.25 106.12,-461.25 106.12,-442 154.38,-442 154.38,-461.25"/>
<text xml:space="preserve" text-anchor="middle" x="130.25" y="-447.75" font-family="Helvetica,sans-Serif" font-size="10.00">string.h</text>
</a>
</g>
</g>
<!-- Node1&#45;&gt;Node4 -->
<g id="edge3_Node000001_Node000004" class="edge">
<title>Node1&#45;&gt;Node4</title>
<g id="a_edge3_Node000001_Node000004"><a xlink:title=" ">
<path fill="none" stroke="#63b8ff" d="M369.7,-498.4C320.33,-489.97 238.42,-475.57 168.25,-461.25 167.43,-461.08 166.6,-460.91 165.76,-460.74"/>
<polygon fill="#63b8ff" stroke="#63b8ff" points="166.74,-457.37 156.22,-458.67 165.26,-464.21 166.74,-457.37"/>
</a>
</g>
</g>
<!-- Node5 -->
<g id="Node000005" class="node">
<title>Node5</title>
<g id="a_Node000005"><a xlink:href="lua_8h.html" target="_top" xlink:title=" ">
<polygon fill="white" stroke="#666666" points="334.75,-129.75 297.75,-129.75 297.75,-110.5 334.75,-110.5 334.75,-129.75"/>
<text xml:space="preserve" text-anchor="middle" x="316.25" y="-116.25" font-family="Helvetica,sans-Serif" font-size="10.00">lua.h</text>
</a>
</g>
</g>
<!-- Node1&#45;&gt;Node5 -->
<g id="edge4_Node000001_Node000005" class="edge">
<title>Node1&#45;&gt;Node5</title>
<g id="a_edge4_Node000001_Node000005"><a xlink:title=" ">
<path fill="none" stroke="#63b8ff" d="M458.99,-502.38C558.26,-493.39 788.25,-465.24 788.25,-397.38 788.25,-397.38 788.25,-397.38 788.25,-284.88 788.25,-190.91 450.14,-138.7 346.25,-124.88"/>
<polygon fill="#63b8ff" stroke="#63b8ff" points="346.91,-121.44 336.55,-123.61 346.01,-128.38 346.91,-121.44"/>
</a>
</g>
</g>
<!-- Node9 -->
<g id="Node000009" class="node">
<title>Node9</title>
<g id="a_Node000009"><a xlink:href="lapi_8h.html" target="_top" xlink:title=" ">
<polygon fill="white" stroke="#666666" points="245.88,-406 206.62,-406 206.62,-386.75 245.88,-386.75 245.88,-406"/>
<text xml:space="preserve" text-anchor="middle" x="226.25" y="-392.5" font-family="Helvetica,sans-Serif" font-size="10.00">lapi.h</text>
</a>
</g>
</g>
<!-- Node1&#45;&gt;Node9 -->
<g id="edge10_Node000001_Node000009" class="edge">
<title>Node1&#45;&gt;Node9</title>
<g id="a_edge10_Node000001_Node000009"><a xlink:title=" ">
<path fill="none" stroke="#63b8ff" d="M380.98,-496.78C356.71,-489.32 323.59,-477.35 297.25,-461.25 276.13,-448.34 255.49,-428.77 241.96,-414.69"/>
<polygon fill="#63b8ff" stroke="#63b8ff" points="244.59,-412.37 235.2,-407.46 239.48,-417.15 244.59,-412.37"/>
</a>
</g>
</g>
<!-- Node11 -->
<g id="Node000011" class="node">
<title>Node11</title>
<g id="a_Node000011"><a xlink:href="lstate_8h.html" target="_top" xlink:title=" ">
<polygon fill="white" stroke="#666666" points="393.38,-350.75 345.12,-350.75 345.12,-331.5 393.38,-331.5 393.38,-350.75"/>
<text xml:space="preserve" text-anchor="middle" x="369.25" y="-337.25" font-family="Helvetica,sans-Serif" font-size="10.00">lstate.h</text>
</a>
</g>
</g>
<!-- Node1&#45;&gt;Node11 -->
<g id="edge47_Node000001_Node000011" class="edge">
<title>Node1&#45;&gt;Node11</title>
<g id="a_edge47_Node000001_Node000011"><a xlink:title=" ">
<path fill="none" stroke="#63b8ff" d="M405.62,-496.92C390.47,-480.51 359.62,-443.82 348.25,-406 343.68,-390.78 349.9,-373.69 356.74,-361.02"/>
<polygon fill="#63b8ff" stroke="#63b8ff" points="359.72,-362.85 361.87,-352.47 353.72,-359.25 359.72,-362.85"/>
</a>
</g>
</g>
<!-- Node13 -->
<g id="Node000013" class="node">
<title>Node13</title>
<g id="a_Node000013"><a xlink:href="ltm_8h.html" target="_top" xlink:title=" ">
<polygon fill="white" stroke="#666666" points="488.12,-295.5 450.38,-295.5 450.38,-276.25 488.12,-276.25 488.12,-295.5"/>
<text xml:space="preserve" text-anchor="middle" x="469.25" y="-282" font-family="Helvetica,sans-Serif" font-size="10.00">ltm.h</text>
</a>
</g>
</g>
<!-- Node1&#45;&gt;Node13 -->
<g id="edge54_Node000001_Node000013" class="edge">
<title>Node1&#45;&gt;Node13</title>
<g id="a_edge54_Node000001_Node000013"><a xlink:title=" ">
<path fill="none" stroke="#63b8ff" d="M459,-498.8C487.31,-492.58 523.5,-481.28 550.25,-461.25 574.11,-443.39 579.41,-434.46 588.25,-406 603.82,-355.88 539.02,-317.47 498.92,-298.99"/>
<polygon fill="#63b8ff" stroke="#63b8ff" points="500.54,-295.88 489.98,-295.03 497.71,-302.28 500.54,-295.88"/>
</a>
</g>
</g>
<!-- Node15 -->
<g id="Node000015" class="node">
<title>Node15</title>
<g id="a_Node000015"><a xlink:href="lmem_8h.html" target="_top" xlink:title=" ">
<polygon fill="white" stroke="#666666" points="154.38,-240.25 106.12,-240.25 106.12,-221 154.38,-221 154.38,-240.25"/>
<text xml:space="preserve" text-anchor="middle" x="130.25" y="-226.75" font-family="Helvetica,sans-Serif" font-size="10.00">lmem.h</text>
</a>
</g>
</g>
<!-- Node1&#45;&gt;Node15 -->
<g id="edge46_Node000001_Node000015" class="edge">
<title>Node1&#45;&gt;Node15</title>
<g id="a_edge46_Node000001_Node000015"><a xlink:title=" ">
<path fill="none" stroke="#63b8ff" d="M369.67,-498.42C319.24,-487.49 238.76,-461.96 197.25,-406 160.93,-357.03 141.82,-285.95 134.23,-251.64"/>
<polygon fill="#63b8ff" stroke="#63b8ff" points="137.67,-250.96 132.19,-241.9 130.82,-252.4 137.67,-250.96"/>
</a>
</g>
</g>
<!-- Node17 -->
<g id="Node000017" class="node">
<title>Node17</title>
<g id="a_Node000017"><a xlink:href="ldebug_8h.html" target="_top" xlink:title=" ">
<polygon fill="white" stroke="#666666" points="409.62,-406 356.88,-406 356.88,-386.75 409.62,-386.75 409.62,-406"/>
<text xml:space="preserve" text-anchor="middle" x="383.25" y="-392.5" font-family="Helvetica,sans-Serif" font-size="10.00">ldebug.h</text>
</a>
</g>
</g>
<!-- Node1&#45;&gt;Node17 -->
<g id="edge30_Node000001_Node000017" class="edge">
<title>Node1&#45;&gt;Node17</title>
<g id="a_edge30_Node000001_Node000017"><a xlink:title=" ">
<path fill="none" stroke="#63b8ff" d="M411.71,-497C406.76,-479.67 395.71,-440.98 388.92,-417.24"/>
<polygon fill="#63b8ff" stroke="#63b8ff" points="392.35,-416.49 386.24,-407.83 385.62,-418.41 392.35,-416.49"/>
</a>
</g>
</g>
<!-- Node18 -->
<g id="Node000018" class="node">
<title>Node18</title>
<g id="a_Node000018"><a xlink:href="ldo_8h.html" target="_top" xlink:title=" ">
<polygon fill="white" stroke="#666666" points="300.75,-406 263.75,-406 263.75,-386.75 300.75,-386.75 300.75,-406"/>
<text xml:space="preserve" text-anchor="middle" x="282.25" y="-392.5" font-family="Helvetica,sans-Serif" font-size="10.00">ldo.h</text>
</a>
</g>
</g>
<!-- Node1&#45;&gt;Node18 -->
<g id="edge32_Node000001_Node000018" class="edge">
<title>Node1&#45;&gt;Node18</title>
<g id="a_edge32_Node000001_Node000018"><a xlink:title=" ">
<path fill="none" stroke="#63b8ff" d="M380.25,-496.82C359.46,-489.87 333.45,-478.5 315.25,-461.25 302.5,-449.16 293.79,-431.05 288.54,-417.2"/>
<polygon fill="#63b8ff" stroke="#63b8ff" points="291.87,-416.12 285.29,-407.81 285.25,-418.41 291.87,-416.12"/>
</a>
</g>
</g>
<!-- Node19 -->
<g id="Node000019" class="node">
<title>Node19</title>
<g id="a_Node000019"><a xlink:href="lfunc_8h.html" target="_top" xlink:title=" ">
<polygon fill="white" stroke="#666666" points="759.88,-350.75 714.62,-350.75 714.62,-331.5 759.88,-331.5 759.88,-350.75"/>
<text xml:space="preserve" text-anchor="middle" x="737.25" y="-337.25" font-family="Helvetica,sans-Serif" font-size="10.00">lfunc.h</text>
</a>
</g>
</g>
<!-- Node1&#45;&gt;Node19 -->
<g id="edge37_Node000001_Node000019" class="edge">
<title>Node1&#45;&gt;Node19</title>
<g id="a_edge37_Node000001_Node000019"><a xlink:title=" ">
<path fill="none" stroke="#63b8ff" d="M459.08,-506.26C508.02,-504.72 587.03,-496.32 644.25,-461.25 684.38,-436.66 713.93,-388.04 728.03,-361.14"/>
<polygon fill="#63b8ff" stroke="#63b8ff" points="731.04,-362.93 732.43,-352.43 724.8,-359.78 731.04,-362.93"/>
</a>
</g>
</g>
<!-- Node20 -->
<g id="Node000020" class="node">
<title>Node20</title>
<g id="a_Node000020"><a xlink:href="lgc_8h.html" target="_top" xlink:title=" ">
<polygon fill="white" stroke="#666666" points="578.75,-406 541.75,-406 541.75,-386.75 578.75,-386.75 578.75,-406"/>
<text xml:space="preserve" text-anchor="middle" x="560.25" y="-392.5" font-family="Helvetica,sans-Serif" font-size="10.00">lgc.h</text>
</a>
</g>
</g>
<!-- Node1&#45;&gt;Node20 -->
<g id="edge39_Node000001_Node000020" class="edge">
<title>Node1&#45;&gt;Node20</title>
<g id="a_edge39_Node000001_Node000020"><a xlink:title=" ">
<path fill="none" stroke="#63b8ff" d="M458.87,-496.87C482.13,-490.28 509.72,-479.25 529.25,-461.25 542.01,-449.49 550.11,-431.35 554.82,-417.4"/>
<polygon fill="#63b8ff" stroke="#63b8ff" points="558.13,-418.52 557.67,-407.94 551.43,-416.5 558.13,-418.52"/>
</a>
</g>
</g>
<!-- Node21 -->
<g id="Node000021" class="node">
<title>Node21</title>
<g id="a_Node000021"><a xlink:href="llex_8h.html" target="_top" xlink:title=" ">
<polygon fill="white" stroke="#666666" points="696.88,-350.75 657.62,-350.75 657.62,-331.5 696.88,-331.5 696.88,-350.75"/>
<text xml:space="preserve" text-anchor="middle" x="677.25" y="-337.25" font-family="Helvetica,sans-Serif" font-size="10.00">llex.h</text>
</a>
</g>
</g>
<!-- Node1&#45;&gt;Node21 -->
<g id="edge42_Node000001_Node000021" class="edge">
<title>Node1&#45;&gt;Node21</title>
<g id="a_edge42_Node000001_Node000021"><a xlink:title=" ">
<path fill="none" stroke="#63b8ff" d="M458.96,-500.91C512.06,-494.23 596.58,-480.87 621.25,-461.25 652.9,-436.08 667.56,-388.78 673.58,-361.98"/>
<polygon fill="#63b8ff" stroke="#63b8ff" points="676.96,-362.93 675.53,-352.44 670.1,-361.53 676.96,-362.93"/>
</a>
</g>
</g>
<!-- Node22 -->
<g id="Node000022" class="node">
<title>Node22</title>
<g id="a_Node000022"><a xlink:href="lstring_8h.html" target="_top" xlink:title=" ">
<polygon fill="white" stroke="#666666" points="520.5,-461.25 470,-461.25 470,-442 520.5,-442 520.5,-461.25"/>
<text xml:space="preserve" text-anchor="middle" x="495.25" y="-447.75" font-family="Helvetica,sans-Serif" font-size="10.00">lstring.h</text>
</a>
</g>
</g>
<!-- Node1&#45;&gt;Node22 -->
<g id="edge48_Node000001_Node000022" class="edge">
<title>Node1&#45;&gt;Node22</title>
<g id="a_edge48_Node000001_Node000022"><a xlink:title=" ">
<path fill="none" stroke="#63b8ff" d="M427.99,-496.84C439.98,-488.96 457.62,-477.36 471.83,-468.02"/>
<polygon fill="#63b8ff" stroke="#63b8ff" points="473.74,-470.95 480.18,-462.53 469.9,-465.1 473.74,-470.95"/>
</a>
</g>
</g>
<!-- Node23 -->
<g id="Node000023" class="node">
<title>Node23</title>
<g id="a_Node000023"><a xlink:href="ltable_8h.html" target="_top" xlink:title=" ">
<polygon fill="white" stroke="#666666" points="525,-350.75 477.5,-350.75 477.5,-331.5 525,-331.5 525,-350.75"/>
<text xml:space="preserve" text-anchor="middle" x="501.25" y="-337.25" font-family="Helvetica,sans-Serif" font-size="10.00">ltable.h</text>
</a>
</g>
</g>
<!-- Node1&#45;&gt;Node23 -->
<g id="edge52_Node000001_Node000023" class="edge">
<title>Node1&#45;&gt;Node23</title>
<g id="a_edge52_Node000001_Node000023"><a xlink:title=" ">
<path fill="none" stroke="#63b8ff" d="M418.93,-497.07C432.56,-471.42 472.46,-396.3 491.25,-360.94"/>
<polygon fill="#63b8ff" stroke="#63b8ff" points="494.24,-362.78 495.84,-352.31 488.06,-359.5 494.24,-362.78"/>
</a>
</g>
</g>
<!-- Node24 -->
<g id="Node000024" class="node">
<title>Node24</title>
<g id="a_Node000024"><a xlink:title=" ">
<polygon fill="#e0e0e0" stroke="#999999" points="859.75,-461.25 816.75,-461.25 816.75,-442 859.75,-442 859.75,-461.25"/>
<text xml:space="preserve" text-anchor="middle" x="838.25" y="-447.75" font-family="Helvetica,sans-Serif" font-size="10.00">time.h</text>
</a>
</g>
</g>
<!-- Node1&#45;&gt;Node24 -->
<g id="edge55_Node000001_Node000024" class="edge">
<title>Node1&#45;&gt;Node24</title>
<g id="a_edge55_Node000001_Node000024"><a xlink:title=" ">
<path fill="none" stroke="#63b8ff" d="M459.02,-502.49C531.5,-496.62 678.89,-483.04 802.25,-461.25 803.25,-461.07 804.26,-460.89 805.28,-460.69"/>
<polygon fill="#63b8ff" stroke="#63b8ff" points="805.73,-464.17 814.77,-458.66 804.26,-457.33 805.73,-464.17"/>
</a>
</g>
</g>
<!-- Node5&#45;&gt;Node3 -->
<g id="edge6_Node000005_Node000003" class="edge">
<title>Node5&#45;&gt;Node3</title>
<g id="a_edge6_Node000005_Node000003"><a xlink:title=" ">
<path fill="none" stroke="#63b8ff" d="M305.45,-110.25C283.21,-91.97 232.04,-49.9 203.82,-26.71"/>
<polygon fill="#63b8ff" stroke="#63b8ff" points="206.32,-24.23 196.37,-20.59 201.87,-29.64 206.32,-24.23"/>
</a>
</g>
</g>
<!-- Node6 -->
<g id="Node000006" class="node">
<title>Node6</title>
<g id="a_Node000006"><a xlink:title=" ">
<polygon fill="#e0e0e0" stroke="#999999" points="446.88,-74.5 395.62,-74.5 395.62,-55.25 446.88,-55.25 446.88,-74.5"/>
<text xml:space="preserve" text-anchor="middle" x="421.25" y="-61" font-family="Helvetica,sans-Serif" font-size="10.00">stdarg.h</text>
</a>
</g>
</g>
<!-- Node5&#45;&gt;Node6 -->
<g id="edge5_Node000005_Node000006" class="edge">
<title>Node5&#45;&gt;Node6</title>
<g id="a_edge5_Node000005_Node000006"><a xlink:title=" ">
<path fill="none" stroke="#63b8ff" d="M334.06,-110.09C350.28,-101.87 374.49,-89.59 393.28,-80.06"/>
<polygon fill="#63b8ff" stroke="#63b8ff" points="394.67,-83.28 402,-75.64 391.5,-77.04 394.67,-83.28"/>
</a>
</g>
</g>
<!-- Node7 -->
<g id="Node000007" class="node">
<title>Node7</title>
<g id="a_Node000007"><a xlink:href="luaconf_8h.html" target="_top" xlink:title=" ">
<polygon fill="white" stroke="#666666" points="344.12,-74.5 288.38,-74.5 288.38,-55.25 344.12,-55.25 344.12,-74.5"/>
<text xml:space="preserve" text-anchor="middle" x="316.25" y="-61" font-family="Helvetica,sans-Serif" font-size="10.00">luaconf.h</text>
</a>
</g>
</g>
<!-- Node5&#45;&gt;Node7 -->
<g id="edge7_Node000005_Node000007" class="edge">
<title>Node5&#45;&gt;Node7</title>
<g id="a_edge7_Node000005_Node000007"><a xlink:title=" ">
<path fill="none" stroke="#63b8ff" d="M316.25,-110.33C316.25,-103.82 316.25,-94.67 316.25,-86.37"/>
<polygon fill="#63b8ff" stroke="#63b8ff" points="319.75,-86.37 316.25,-76.37 312.75,-86.37 319.75,-86.37"/>
</a>
</g>
</g>
<!-- Node7&#45;&gt;Node3 -->
<g id="edge9_Node000007_Node000003" class="edge">
<title>Node7&#45;&gt;Node3</title>
<g id="a_edge9_Node000007_Node000003"><a xlink:title=" ">
<path fill="none" stroke="#63b8ff" d="M293.86,-54.84C272.81,-46.35 241.05,-33.54 217.13,-23.89"/>
<polygon fill="#63b8ff" stroke="#63b8ff" points="218.74,-20.76 208.16,-20.27 216.12,-27.26 218.74,-20.76"/>
</a>
</g>
</g>
<!-- Node8 -->
<g id="Node000008" class="node">
<title>Node8</title>
<g id="a_Node000008"><a xlink:title=" ">
<polygon fill="#e0e0e0" stroke="#999999" points="340,-19.25 292.5,-19.25 292.5,0 340,0 340,-19.25"/>
<text xml:space="preserve" text-anchor="middle" x="316.25" y="-5.75" font-family="Helvetica,sans-Serif" font-size="10.00">limits.h</text>
</a>
</g>
</g>
<!-- Node7&#45;&gt;Node8 -->
<g id="edge8_Node000007_Node000008" class="edge">
<title>Node7&#45;&gt;Node8</title>
<g id="a_edge8_Node000007_Node000008"><a xlink:title=" ">
<path fill="none" stroke="#63b8ff" d="M316.25,-55.08C316.25,-48.57 316.25,-39.42 316.25,-31.12"/>
<polygon fill="#63b8ff" stroke="#63b8ff" points="319.75,-31.12 316.25,-21.12 312.75,-31.12 319.75,-31.12"/>
</a>
</g>
</g>
<!-- Node10 -->
<g id="Node000010" class="node">
<title>Node10</title>
<g id="a_Node000010"><a xlink:href="llimits_8h.html" target="_top" xlink:title=" ">
<polygon fill="white" stroke="#666666" points="246.12,-185 196.38,-185 196.38,-165.75 246.12,-165.75 246.12,-185"/>
<text xml:space="preserve" text-anchor="middle" x="221.25" y="-171.5" font-family="Helvetica,sans-Serif" font-size="10.00">llimits.h</text>
</a>
</g>
</g>
<!-- Node9&#45;&gt;Node10 -->
<g id="edge11_Node000009_Node000010" class="edge">
<title>Node9&#45;&gt;Node10</title>
<g id="a_edge11_Node000009_Node000010"><a xlink:title=" ">
<path fill="none" stroke="#63b8ff" d="M220.93,-386.53C216.02,-377.79 209.06,-363.87 206.25,-350.75 194.19,-294.36 196.94,-277.91 206.25,-221 207.62,-212.64 210.34,-203.73 213.09,-196.09"/>
<polygon fill="#63b8ff" stroke="#63b8ff" points="216.34,-197.38 216.71,-186.79 209.82,-194.85 216.34,-197.38"/>
</a>
</g>
</g>
<!-- Node9&#45;&gt;Node11 -->
<g id="edge15_Node000009_Node000011" class="edge">
<title>Node9&#45;&gt;Node11</title>
<g id="a_edge15_Node000009_Node000011"><a xlink:title=" ">
<path fill="none" stroke="#63b8ff" d="M246.13,-387.97C268.9,-379.49 306.61,-365.45 334.31,-355.14"/>
<polygon fill="#63b8ff" stroke="#63b8ff" points="335.18,-358.55 343.33,-351.78 332.74,-351.99 335.18,-358.55"/>
</a>
</g>
</g>
<!-- Node10&#45;&gt;Node3 -->
<g id="edge13_Node000010_Node000003" class="edge">
<title>Node10&#45;&gt;Node3</title>
<g id="a_edge13_Node000010_Node000003"><a xlink:title=" ">
<path fill="none" stroke="#63b8ff" d="M218.44,-165.54C215.64,-156.58 211.33,-142.29 208.25,-129.75 199.75,-95.19 192.03,-54.46 187.76,-30.69"/>
<polygon fill="#63b8ff" stroke="#63b8ff" points="191.25,-30.37 186.06,-21.14 184.36,-31.6 191.25,-30.37"/>
</a>
</g>
</g>
<!-- Node10&#45;&gt;Node5 -->
<g id="edge14_Node000010_Node000005" class="edge">
<title>Node10&#45;&gt;Node5</title>
<g id="a_edge14_Node000010_Node000005"><a xlink:title=" ">
<path fill="none" stroke="#63b8ff" d="M237.37,-165.34C251.83,-157.23 273.33,-145.18 290.23,-135.71"/>
<polygon fill="#63b8ff" stroke="#63b8ff" points="291.72,-138.89 298.74,-130.94 288.3,-132.78 291.72,-138.89"/>
</a>
</g>
</g>
<!-- Node10&#45;&gt;Node8 -->
<g id="edge12_Node000010_Node000008" class="edge">
<title>Node10&#45;&gt;Node8</title>
<g id="a_edge12_Node000010_Node000008"><a xlink:title=" ">
<path fill="none" stroke="#63b8ff" d="M224.78,-165.32C232.94,-144.87 254.32,-93.92 279.25,-55.25 285.36,-45.77 293.22,-36.03 300.12,-28.08"/>
<polygon fill="#63b8ff" stroke="#63b8ff" points="302.55,-30.61 306.61,-20.82 297.34,-25.94 302.55,-30.61"/>
</a>
</g>
</g>
<!-- Node11&#45;&gt;Node5 -->
<g id="edge16_Node000011_Node000005" class="edge">
<title>Node11&#45;&gt;Node5</title>
<g id="a_edge16_Node000011_Node000005"><a xlink:title=" ">
<path fill="none" stroke="#63b8ff" d="M360.01,-331.15C351.99,-322.75 340.81,-309.43 335.25,-295.5 314.32,-243.07 313.74,-175.13 315.01,-141.64"/>
<polygon fill="#63b8ff" stroke="#63b8ff" points="318.5,-141.91 315.5,-131.75 311.51,-141.57 318.5,-141.91"/>
</a>
</g>
</g>
<!-- Node12 -->
<g id="Node000012" class="node">
<title>Node12</title>
<g id="a_Node000012"><a xlink:href="lobject_8h.html" target="_top" xlink:title=" ">
<polygon fill="white" stroke="#666666" points="542.62,-240.25 489.88,-240.25 489.88,-221 542.62,-221 542.62,-240.25"/>
<text xml:space="preserve" text-anchor="middle" x="516.25" y="-226.75" font-family="Helvetica,sans-Serif" font-size="10.00">lobject.h</text>
</a>
</g>
</g>
<!-- Node11&#45;&gt;Node12 -->
<g id="edge17_Node000011_Node000012" class="edge">
<title>Node11&#45;&gt;Node12</title>
<g id="a_edge17_Node000011_Node000012"><a xlink:title=" ">
<path fill="none" stroke="#63b8ff" d="M378.1,-331.27C391.24,-318.37 416.97,-294 441.25,-276.25 456.41,-265.17 474.47,-254.36 489.06,-246.16"/>
<polygon fill="#63b8ff" stroke="#63b8ff" points="490.6,-249.3 497.66,-241.41 487.22,-243.18 490.6,-249.3"/>
</a>
</g>
</g>
<!-- Node11&#45;&gt;Node13 -->
<g id="edge21_Node000011_Node000013" class="edge">
<title>Node11&#45;&gt;Node13</title>
<g id="a_edge21_Node000011_Node000013"><a xlink:title=" ">
<path fill="none" stroke="#63b8ff" d="M386.21,-331.09C401.51,-322.94 424.28,-310.82 442.11,-301.33"/>
<polygon fill="#63b8ff" stroke="#63b8ff" points="443.69,-304.45 450.87,-296.66 440.4,-298.27 443.69,-304.45"/>
</a>
</g>
</g>
<!-- Node14 -->
<g id="Node000014" class="node">
<title>Node14</title>
<g id="a_Node000014"><a xlink:href="lzio_8h.html" target="_top" xlink:title=" ">
<polygon fill="white" stroke="#666666" points="287.88,-295.5 248.62,-295.5 248.62,-276.25 287.88,-276.25 287.88,-295.5"/>
<text xml:space="preserve" text-anchor="middle" x="268.25" y="-282" font-family="Helvetica,sans-Serif" font-size="10.00">lzio.h</text>
</a>
</g>
</g>
<!-- Node11&#45;&gt;Node14 -->
<g id="edge23_Node000011_Node000014" class="edge">
<title>Node11&#45;&gt;Node14</title>
<g id="a_edge23_Node000011_Node000014"><a xlink:title=" ">
<path fill="none" stroke="#63b8ff" d="M352.12,-331.09C336.59,-322.91 313.45,-310.71 295.41,-301.19"/>
<polygon fill="#63b8ff" stroke="#63b8ff" points="297.28,-298.23 286.81,-296.66 294.02,-304.42 297.28,-298.23"/>
</a>
</g>
</g>
<!-- Node16 -->
<g id="Node000016" class="node">
<title>Node16</title>
<g id="a_Node000016"><a xlink:title=" ">
<polygon fill="#e0e0e0" stroke="#999999" points="394.12,-295.5 344.38,-295.5 344.38,-276.25 394.12,-276.25 394.12,-295.5"/>
<text xml:space="preserve" text-anchor="middle" x="369.25" y="-282" font-family="Helvetica,sans-Serif" font-size="10.00">signal.h</text>
</a>
</g>
</g>
<!-- Node11&#45;&gt;Node16 -->
<g id="edge29_Node000011_Node000016" class="edge">
<title>Node11&#45;&gt;Node16</title>
<g id="a_edge29_Node000011_Node000016"><a xlink:title=" ">
<path fill="none" stroke="#63b8ff" d="M369.25,-331.33C369.25,-324.82 369.25,-315.67 369.25,-307.37"/>
<polygon fill="#63b8ff" stroke="#63b8ff" points="372.75,-307.37 369.25,-297.37 365.75,-307.37 372.75,-307.37"/>
</a>
</g>
</g>
<!-- Node12&#45;&gt;Node5 -->
<g id="edge20_Node000012_Node000005" class="edge">
<title>Node12&#45;&gt;Node5</title>
<g id="a_edge20_Node000012_Node000005"><a xlink:title=" ">
<path fill="none" stroke="#63b8ff" d="M499.54,-220.56C464.91,-201.77 385.03,-158.44 343.09,-135.68"/>
<polygon fill="#63b8ff" stroke="#63b8ff" points="344.84,-132.65 334.38,-130.96 341.5,-138.81 344.84,-132.65"/>
</a>
</g>
</g>
<!-- Node12&#45;&gt;Node6 -->
<g id="edge18_Node000012_Node000006" class="edge">
<title>Node12&#45;&gt;Node6</title>
<g id="a_edge18_Node000012_Node000006"><a xlink:title=" ">
<path fill="none" stroke="#63b8ff" d="M511.14,-220.82C496.19,-195.05 452.3,-119.4 431.9,-84.24"/>
<polygon fill="#63b8ff" stroke="#63b8ff" points="435.19,-82.92 427.14,-76.03 429.13,-86.44 435.19,-82.92"/>
</a>
</g>
</g>
<!-- Node12&#45;&gt;Node10 -->
<g id="edge19_Node000012_Node000010" class="edge">
<title>Node12&#45;&gt;Node10</title>
<g id="a_edge19_Node000012_Node000010"><a xlink:title=" ">
<path fill="none" stroke="#63b8ff" d="M489.55,-224.81C436.5,-215.23 317.76,-193.8 257.63,-182.94"/>
<polygon fill="#63b8ff" stroke="#63b8ff" points="258.37,-179.52 247.91,-181.19 257.13,-186.41 258.37,-179.52"/>
</a>
</g>
</g>
<!-- Node13&#45;&gt;Node12 -->
<g id="edge22_Node000013_Node000012" class="edge">
<title>Node13&#45;&gt;Node12</title>
<g id="a_edge22_Node000013_Node000012"><a xlink:title=" ">
<path fill="none" stroke="#63b8ff" d="M477.01,-276.08C483.44,-268.8 492.76,-258.23 500.71,-249.23"/>
<polygon fill="#63b8ff" stroke="#63b8ff" points="503.33,-251.56 507.32,-241.74 498.08,-246.93 503.33,-251.56"/>
</a>
</g>
</g>
<!-- Node14&#45;&gt;Node5 -->
<g id="edge24_Node000014_Node000005" class="edge">
<title>Node14&#45;&gt;Node5</title>
<g id="a_edge24_Node000014_Node000005"><a xlink:title=" ">
<path fill="none" stroke="#63b8ff" d="M270.73,-275.89C276.24,-255.99 289.97,-206.75 302.25,-165.75 304.7,-157.58 307.49,-148.61 309.94,-140.86"/>
<polygon fill="#63b8ff" stroke="#63b8ff" points="313.24,-142.03 312.93,-131.44 306.57,-139.91 313.24,-142.03"/>
</a>
</g>
</g>
<!-- Node14&#45;&gt;Node15 -->
<g id="edge25_Node000014_Node000015" class="edge">
<title>Node14&#45;&gt;Node15</title>
<g id="a_edge25_Node000014_Node000015"><a xlink:title=" ">
<path fill="none" stroke="#63b8ff" d="M248.18,-277.13C226.21,-268.65 190.58,-254.91 164.23,-244.74"/>
<polygon fill="#63b8ff" stroke="#63b8ff" points="165.57,-241.5 154.98,-241.17 163.05,-248.03 165.57,-241.5"/>
</a>
</g>
</g>
<!-- Node15&#45;&gt;Node3 -->
<g id="edge26_Node000015_Node000003" class="edge">
<title>Node15&#45;&gt;Node3</title>
<g id="a_edge26_Node000015_Node000003"><a xlink:title=" ">
<path fill="none" stroke="#63b8ff" d="M132.43,-220.77C140.41,-188.44 168.06,-76.28 179.37,-30.41"/>
<polygon fill="#63b8ff" stroke="#63b8ff" points="182.74,-31.37 181.74,-20.82 175.94,-29.69 182.74,-31.37"/>
</a>
</g>
</g>
<!-- Node15&#45;&gt;Node5 -->
<g id="edge28_Node000015_Node000005" class="edge">
<title>Node15&#45;&gt;Node5</title>
<g id="a_edge28_Node000015_Node000005"><a xlink:title=" ">
<path fill="none" stroke="#63b8ff" d="M135.84,-220.91C145,-207.28 164.49,-180.91 187.25,-165.75 217.83,-145.38 258.69,-133.31 286.16,-126.97"/>
<polygon fill="#63b8ff" stroke="#63b8ff" points="286.89,-130.39 295.92,-124.84 285.4,-123.55 286.89,-130.39"/>
</a>
</g>
</g>
<!-- Node15&#45;&gt;Node10 -->
<g id="edge27_Node000015_Node000010" class="edge">
<title>Node15&#45;&gt;Node10</title>
<g id="a_edge27_Node000015_Node000010"><a xlink:title=" ">
<path fill="none" stroke="#63b8ff" d="M145.69,-220.59C159.41,-212.56 179.75,-200.66 195.87,-191.23"/>
<polygon fill="#63b8ff" stroke="#63b8ff" points="197.57,-194.29 204.43,-186.22 194.03,-188.25 197.57,-194.29"/>
</a>
</g>
</g>
<!-- Node17&#45;&gt;Node11 -->
<g id="edge31_Node000017_Node000011" class="edge">
<title>Node17&#45;&gt;Node11</title>
<g id="a_edge31_Node000017_Node000011"><a xlink:title=" ">
<path fill="none" stroke="#63b8ff" d="M380.94,-386.58C379.19,-379.92 376.71,-370.49 374.48,-362.03"/>
<polygon fill="#63b8ff" stroke="#63b8ff" points="377.92,-361.35 372,-352.57 371.15,-363.13 377.92,-361.35"/>
</a>
</g>
</g>
<!-- Node18&#45;&gt;Node10 -->
<g id="edge33_Node000018_Node000010" class="edge">
<title>Node18&#45;&gt;Node10</title>
<g id="a_edge33_Node000018_Node000010"><a xlink:title=" ">
<path fill="none" stroke="#63b8ff" d="M277.4,-386.3C268.42,-369.11 249.21,-330.35 239.25,-295.5 229.55,-261.56 224.82,-220.6 222.72,-196.63"/>
<polygon fill="#63b8ff" stroke="#63b8ff" points="226.21,-196.41 221.93,-186.72 219.23,-196.96 226.21,-196.41"/>
</a>
</g>
</g>
<!-- Node18&#45;&gt;Node11 -->
<g id="edge35_Node000018_Node000011" class="edge">
<title>Node18&#45;&gt;Node11</title>
<g id="a_edge35_Node000018_Node000011"><a xlink:title=" ">
<path fill="none" stroke="#63b8ff" d="M297.01,-386.34C310.13,-378.31 329.57,-366.41 344.98,-356.98"/>
<polygon fill="#63b8ff" stroke="#63b8ff" points="346.43,-360.2 353.13,-351.99 342.77,-354.23 346.43,-360.2"/>
</a>
</g>
</g>
<!-- Node18&#45;&gt;Node12 -->
<g id="edge34_Node000018_Node000012" class="edge">
<title>Node18&#45;&gt;Node12</title>
<g id="a_edge34_Node000018_Node000012"><a xlink:title=" ">
<path fill="none" stroke="#63b8ff" d="M300.99,-392.47C343.24,-384.89 446.23,-360.36 497.25,-295.5 507.22,-282.83 511.96,-265.03 514.22,-251.43"/>
<polygon fill="#63b8ff" stroke="#63b8ff" points="517.64,-252.27 515.47,-241.9 510.7,-251.36 517.64,-252.27"/>
</a>
</g>
</g>
<!-- Node18&#45;&gt;Node14 -->
<g id="edge36_Node000018_Node000014" class="edge">
<title>Node18&#45;&gt;Node14</title>
<g id="a_edge36_Node000018_Node000014"><a xlink:title=" ">
<path fill="none" stroke="#63b8ff" d="M281.1,-386.5C278.88,-369.25 273.92,-330.83 270.86,-307.06"/>
<polygon fill="#63b8ff" stroke="#63b8ff" points="274.36,-306.85 269.61,-297.38 267.41,-307.74 274.36,-306.85"/>
</a>
</g>
</g>
<!-- Node19&#45;&gt;Node12 -->
<g id="edge38_Node000019_Node000012" class="edge">
<title>Node19&#45;&gt;Node12</title>
<g id="a_edge38_Node000019_Node000012"><a xlink:title=" ">
<path fill="none" stroke="#63b8ff" d="M729.74,-331.36C717.55,-317.67 692.11,-291.21 665.25,-276.25 630.11,-256.67 585.41,-244.77 554.18,-238.24"/>
<polygon fill="#63b8ff" stroke="#63b8ff" points="554.89,-234.81 544.4,-236.29 553.52,-241.67 554.89,-234.81"/>
</a>
</g>
</g>
<!-- Node20&#45;&gt;Node11 -->
<g id="edge41_Node000020_Node000011" class="edge">
<title>Node20&#45;&gt;Node11</title>
<g id="a_edge41_Node000020_Node000011"><a xlink:title=" ">
<path fill="none" stroke="#63b8ff" d="M541.59,-390.17C509.91,-381.34 445.12,-363.28 404.63,-351.99"/>
<polygon fill="#63b8ff" stroke="#63b8ff" points="405.68,-348.65 395.11,-349.33 403.8,-355.39 405.68,-348.65"/>
</a>
</g>
</g>
<!-- Node20&#45;&gt;Node12 -->
<g id="edge40_Node000020_Node000012" class="edge">
<title>Node20&#45;&gt;Node12</title>
<g id="a_edge40_Node000020_Node000012"><a xlink:title=" ">
<path fill="none" stroke="#63b8ff" d="M568.96,-386.49C587.99,-365.96 629.74,-314.12 606.25,-276.25 594.8,-257.79 573.19,-246.73 554.01,-240.24"/>
<polygon fill="#63b8ff" stroke="#63b8ff" points="555.13,-236.92 544.54,-237.36 553.09,-243.62 555.13,-236.92"/>
</a>
</g>
</g>
<!-- Node21&#45;&gt;Node8 -->
<g id="edge43_Node000021_Node000008" class="edge">
<title>Node21&#45;&gt;Node8</title>
<g id="a_edge43_Node000021_Node000008"><a xlink:title=" ">
<path fill="none" stroke="#63b8ff" d="M688.98,-331.08C709.61,-314.04 750.25,-274.99 750.25,-231.62 750.25,-231.62 750.25,-231.62 750.25,-119.12 750.25,-37.13 455.03,-16.58 351.56,-11.9"/>
<polygon fill="#63b8ff" stroke="#63b8ff" points="351.85,-8.41 341.71,-11.48 351.56,-15.4 351.85,-8.41"/>
</a>
</g>
</g>
<!-- Node21&#45;&gt;Node12 -->
<g id="edge44_Node000021_Node000012" class="edge">
<title>Node21&#45;&gt;Node12</title>
<g id="a_edge44_Node000021_Node000012"><a xlink:title=" ">
<path fill="none" stroke="#63b8ff" d="M675,-331.38C671.06,-317.71 661.6,-291.3 644.25,-276.25 618.82,-254.18 581.84,-242.84 554.16,-237.13"/>
<polygon fill="#63b8ff" stroke="#63b8ff" points="554.89,-233.71 544.41,-235.3 553.59,-240.59 554.89,-233.71"/>
</a>
</g>
</g>
<!-- Node21&#45;&gt;Node14 -->
<g id="edge45_Node000021_Node000014" class="edge">
<title>Node21&#45;&gt;Node14</title>
<g id="a_edge45_Node000021_Node000014"><a xlink:title=" ">
<path fill="none" stroke="#63b8ff" d="M657.25,-337.52C591.19,-328.92 379.7,-301.39 299.49,-290.94"/>
<polygon fill="#63b8ff" stroke="#63b8ff" points="300.08,-287.49 289.72,-289.67 299.18,-294.43 300.08,-287.49"/>
</a>
</g>
</g>
<!-- Node22&#45;&gt;Node11 -->
<g id="edge51_Node000022_Node000011" class="edge">
<title>Node22&#45;&gt;Node11</title>
<g id="a_edge51_Node000022_Node000011"><a xlink:title=" ">
<path fill="none" stroke="#63b8ff" d="M484.94,-441.75C463.8,-423.55 415.29,-381.77 388.28,-358.51"/>
<polygon fill="#63b8ff" stroke="#63b8ff" points="390.71,-355.99 380.85,-352.11 386.14,-361.29 390.71,-355.99"/>
</a>
</g>
</g>
<!-- Node22&#45;&gt;Node12 -->
<g id="edge50_Node000022_Node000012" class="edge">
<title>Node22&#45;&gt;Node12</title>
<g id="a_edge50_Node000022_Node000012"><a xlink:title=" ">
<path fill="none" stroke="#63b8ff" d="M499.57,-441.82C510.64,-418.61 539.53,-353.51 545.25,-295.5 546.09,-286.99 547.68,-284.45 545.25,-276.25 542.44,-266.76 536.91,-257.41 531.42,-249.73"/>
<polygon fill="#63b8ff" stroke="#63b8ff" points="534.28,-247.7 525.39,-241.93 528.74,-251.99 534.28,-247.7"/>
</a>
</g>
</g>
<!-- Node22&#45;&gt;Node20 -->
<g id="edge49_Node000022_Node000020" class="edge">
<title>Node22&#45;&gt;Node20</title>
<g id="a_edge49_Node000022_Node000020"><a xlink:title=" ">
<path fill="none" stroke="#63b8ff" d="M506.28,-441.59C515.67,-433.9 529.4,-422.65 540.66,-413.43"/>
<polygon fill="#63b8ff" stroke="#63b8ff" points="542.7,-416.28 548.22,-407.23 538.26,-410.86 542.7,-416.28"/>
</a>
</g>
</g>
<!-- Node23&#45;&gt;Node12 -->
<g id="edge53_Node000023_Node000012" class="edge">
<title>Node23&#45;&gt;Node12</title>
<g id="a_edge53_Node000023_Node000012"><a xlink:title=" ">
<path fill="none" stroke="#63b8ff" d="M509.47,-331.01C516.53,-322.52 526.21,-309.14 530.25,-295.5 534.65,-280.67 530.39,-263.52 525.46,-250.74"/>
<polygon fill="#63b8ff" stroke="#63b8ff" points="528.76,-249.56 521.56,-241.79 522.35,-252.36 528.76,-249.56"/>
</a>
</g>
</g>
</g>
</svg>
