<?xml version="1.0" encoding="UTF-8" standalone="no"?>
<!DOCTYPE svg PUBLIC "-//W3C//DTD SVG 1.1//EN"
 "http://www.w3.org/Graphics/SVG/1.1/DTD/svg11.dtd">
<!-- Generated by graphviz version 13.1.0 (20250701.0955)
 -->
<!-- Title: close_state Pages: 1 -->
<svg width="1536pt" height="219pt"
 viewBox="0.00 0.00 1536.00 219.00" xmlns="http://www.w3.org/2000/svg" xmlns:xlink="http://www.w3.org/1999/xlink">
<g id="graph0" class="graph" transform="scale(1 1) rotate(0) translate(4 215.25)">
<title>close_state</title>
<!-- Node1 -->
<g id="Node000001" class="node">
<title>Node1</title>
<g id="a_Node000001"><a xlink:title=" ">
<polygon fill="#999999" stroke="#666666" points="1528.25,-93.25 1462,-93.25 1462,-74 1528.25,-74 1528.25,-93.25"/>
<text xml:space="preserve" text-anchor="middle" x="1495.12" y="-79.75" font-family="Helvetica,sans-Serif" font-size="10.00">close_state</text>
</a>
</g>
</g>
<!-- Node2 -->
<g id="Node000002" class="node">
<title>Node2</title>
<g id="a_Node000002"><a xlink:href="lstate_8c.html#a5d903983f1497b2fc58fba9df09e354d" target="_top" xlink:title=" ">
<polygon fill="white" stroke="#666666" points="1417.75,-131.25 1360.5,-131.25 1360.5,-112 1417.75,-112 1417.75,-131.25"/>
<text xml:space="preserve" text-anchor="middle" x="1389.12" y="-117.75" font-family="Helvetica,sans-Serif" font-size="10.00">lua_close</text>
</a>
</g>
</g>
<!-- Node1&#45;&gt;Node2 -->
<g id="edge1_Node000001_Node000002" class="edge">
<title>Node1&#45;&gt;Node2</title>
<g id="a_edge1_Node000001_Node000002"><a xlink:title=" ">
<path fill="none" stroke="#63b8ff" d="M1455.75,-97.65C1443.06,-102.29 1429.19,-107.35 1417.49,-111.63"/>
<polygon fill="#63b8ff" stroke="#63b8ff" points="1456.91,-100.95 1465.11,-94.23 1454.51,-94.37 1456.91,-100.95"/>
</a>
</g>
</g>
<!-- Node18 -->
<g id="Node000018" class="node">
<title>Node18</title>
<g id="a_Node000018"><a xlink:href="lstate_8c.html#a02f761396ac35439932f4f0a7ff90b31" target="_top" xlink:title=" ">
<polygon fill="white" stroke="#666666" points="1426,-56.25 1352.25,-56.25 1352.25,-37 1426,-37 1426,-56.25"/>
<text xml:space="preserve" text-anchor="middle" x="1389.12" y="-42.75" font-family="Helvetica,sans-Serif" font-size="10.00">lua_newstate</text>
</a>
</g>
</g>
<!-- Node1&#45;&gt;Node18 -->
<g id="edge19_Node000001_Node000018" class="edge">
<title>Node1&#45;&gt;Node18</title>
<g id="a_edge19_Node000001_Node000018"><a xlink:title=" ">
<path fill="none" stroke="#63b8ff" d="M1454.95,-69.69C1442.84,-65.38 1429.74,-60.72 1418.51,-56.72"/>
<polygon fill="#63b8ff" stroke="#63b8ff" points="1453.69,-72.95 1464.28,-73.01 1456.03,-66.36 1453.69,-72.95"/>
</a>
</g>
</g>
<!-- Node3 -->
<g id="Node000003" class="node">
<title>Node3</title>
<g id="a_Node000003"><a xlink:href="lua_8c.html#a3c04138a5bfe5d72780bb7e82a18e627" target="_top" xlink:title=" ">
<polygon fill="white" stroke="#666666" points="1158.5,-168.25 1121.5,-168.25 1121.5,-149 1158.5,-149 1158.5,-168.25"/>
<text xml:space="preserve" text-anchor="middle" x="1140" y="-154.75" font-family="Helvetica,sans-Serif" font-size="10.00">main</text>
</a>
</g>
</g>
<!-- Node2&#45;&gt;Node3 -->
<g id="edge2_Node000002_Node000003" class="edge">
<title>Node2&#45;&gt;Node3</title>
<g id="a_edge2_Node000002_Node000003"><a xlink:title=" ">
<path fill="none" stroke="#63b8ff" d="M1349.11,-129.68C1338.47,-131.75 1326.94,-133.88 1316.25,-135.62 1259.01,-144.95 1190.77,-153.04 1158.97,-156.64"/>
<polygon fill="#63b8ff" stroke="#63b8ff" points="1349.59,-133.15 1358.72,-127.77 1348.23,-126.29 1349.59,-133.15"/>
</a>
</g>
</g>
<!-- Node4 -->
<g id="Node000004" class="node">
<title>Node4</title>
<g id="a_Node000004"><a xlink:href="loslib_8c.html#a905e81425fe3d6d0b363c10162a2a37b" target="_top" xlink:title=" ">
<polygon fill="white" stroke="#666666" points="1299.38,-93.25 1251.88,-93.25 1251.88,-74 1299.38,-74 1299.38,-93.25"/>
<text xml:space="preserve" text-anchor="middle" x="1275.62" y="-79.75" font-family="Helvetica,sans-Serif" font-size="10.00">os_exit</text>
</a>
</g>
</g>
<!-- Node2&#45;&gt;Node4 -->
<g id="edge3_Node000002_Node000004" class="edge">
<title>Node2&#45;&gt;Node4</title>
<g id="a_edge3_Node000002_Node000004"><a xlink:title=" ">
<path fill="none" stroke="#63b8ff" d="M1349.72,-108.54C1333.04,-102.85 1314.06,-96.38 1299.62,-91.46"/>
<polygon fill="#63b8ff" stroke="#63b8ff" points="1348.25,-111.73 1358.84,-111.65 1350.51,-105.11 1348.25,-111.73"/>
</a>
</g>
</g>
<!-- Node5 -->
<g id="Node000005" class="node">
<title>Node5</title>
<g id="a_Node000005"><a xlink:href="script_8c.html#a84508ce31c18af8792081eb1cdfc77b8" target="_top" xlink:title=" ">
<polygon fill="white" stroke="#666666" points="1174.25,-131.25 1105.75,-131.25 1105.75,-112 1174.25,-112 1174.25,-131.25"/>
<text xml:space="preserve" text-anchor="middle" x="1140" y="-117.75" font-family="Helvetica,sans-Serif" font-size="10.00">script_begin</text>
</a>
</g>
</g>
<!-- Node2&#45;&gt;Node5 -->
<g id="edge4_Node000002_Node000005" class="edge">
<title>Node2&#45;&gt;Node5</title>
<g id="a_edge4_Node000002_Node000005"><a xlink:title=" ">
<path fill="none" stroke="#63b8ff" d="M1348.76,-121.62C1300.65,-121.62 1220.03,-121.62 1174.66,-121.62"/>
<polygon fill="#63b8ff" stroke="#63b8ff" points="1348.74,-125.13 1358.74,-121.63 1348.74,-118.13 1348.74,-125.13"/>
</a>
</g>
</g>
<!-- Node16 -->
<g id="Node000016" class="node">
<title>Node16</title>
<g id="a_Node000016"><a xlink:href="script_8c.html#a9e80871e044f7380196e6504f58f479b" target="_top" xlink:title=" ">
<polygon fill="white" stroke="#666666" points="1306.12,-207.25 1245.12,-207.25 1245.12,-188 1306.12,-188 1306.12,-207.25"/>
<text xml:space="preserve" text-anchor="middle" x="1275.62" y="-193.75" font-family="Helvetica,sans-Serif" font-size="10.00">script_end</text>
</a>
</g>
</g>
<!-- Node2&#45;&gt;Node16 -->
<g id="edge16_Node000002_Node000016" class="edge">
<title>Node2&#45;&gt;Node16</title>
<g id="a_edge16_Node000002_Node000016"><a xlink:title=" ">
<path fill="none" stroke="#63b8ff" d="M1365.94,-138.4C1351.9,-148.83 1333.25,-162.35 1316.25,-173.62 1309.01,-178.42 1300.83,-183.45 1293.78,-187.65"/>
<polygon fill="#63b8ff" stroke="#63b8ff" points="1367.72,-141.43 1373.63,-132.64 1363.53,-135.83 1367.72,-141.43"/>
</a>
</g>
</g>
<!-- Node6 -->
<g id="Node000006" class="node">
<title>Node6</title>
<g id="a_Node000006"><a xlink:href="game__scene_8c.html#ab923ed4c6ccad95026e85e252071716d" target="_top" xlink:title=" ">
<polygon fill="white" stroke="#666666" points="1045,-168.25 925.5,-168.25 925.5,-149 1045,-149 1045,-168.25"/>
<text xml:space="preserve" text-anchor="middle" x="985.25" y="-154.75" font-family="Helvetica,sans-Serif" font-size="10.00">PGB_GameScene_new</text>
</a>
</g>
</g>
<!-- Node5&#45;&gt;Node6 -->
<g id="edge5_Node000005_Node000006" class="edge">
<title>Node5&#45;&gt;Node6</title>
<g id="a_edge5_Node000005_Node000006"><a xlink:title=" ">
<path fill="none" stroke="#63b8ff" d="M1094.56,-132.39C1073.53,-137.48 1048.54,-143.54 1027.87,-148.54"/>
<polygon fill="#63b8ff" stroke="#63b8ff" points="1095.11,-135.86 1104.01,-130.1 1093.46,-129.05 1095.11,-135.86"/>
</a>
</g>
</g>
<!-- Node7 -->
<g id="Node000007" class="node">
<title>Node7</title>
<g id="a_Node000007"><a xlink:href="library__scene_8c.html#a0728002045c9cbbd68bdd34897b28da6" target="_top" xlink:title=" ">
<polygon fill="white" stroke="#666666" points="889.5,-168.25 755.75,-168.25 755.75,-149 889.5,-149 889.5,-168.25"/>
<text xml:space="preserve" text-anchor="middle" x="822.62" y="-154.75" font-family="Helvetica,sans-Serif" font-size="10.00">PGB_LibraryScene_update</text>
</a>
</g>
</g>
<!-- Node6&#45;&gt;Node7 -->
<g id="edge6_Node000006_Node000007" class="edge">
<title>Node6&#45;&gt;Node7</title>
<g id="a_edge6_Node000006_Node000007"><a xlink:title=" ">
<path fill="none" stroke="#63b8ff" d="M914.09,-158.62C906.04,-158.62 897.84,-158.62 889.84,-158.62"/>
<polygon fill="#63b8ff" stroke="#63b8ff" points="913.84,-162.13 923.84,-158.63 913.84,-155.13 913.84,-162.13"/>
</a>
</g>
</g>
<!-- Node8 -->
<g id="Node000008" class="node">
<title>Node8</title>
<g id="a_Node000008"><a xlink:href="library__scene_8c.html#aa5c386d39121b53fba45d899df654188" target="_top" xlink:title=" ">
<polygon fill="white" stroke="#666666" points="719.75,-168.25 597.25,-168.25 597.25,-149 719.75,-149 719.75,-168.25"/>
<text xml:space="preserve" text-anchor="middle" x="658.5" y="-154.75" font-family="Helvetica,sans-Serif" font-size="10.00">PGB_LibraryScene_new</text>
</a>
</g>
</g>
<!-- Node7&#45;&gt;Node8 -->
<g id="edge7_Node000007_Node000008" class="edge">
<title>Node7&#45;&gt;Node8</title>
<g id="a_edge7_Node000007_Node000008"><a xlink:title=" ">
<path fill="none" stroke="#63b8ff" d="M744.29,-158.62C736.19,-158.62 728.04,-158.62 720.16,-158.62"/>
<polygon fill="#63b8ff" stroke="#63b8ff" points="744.17,-162.13 754.17,-158.63 744.17,-155.13 744.17,-162.13"/>
</a>
</g>
</g>
<!-- Node9 -->
<g id="Node000009" class="node">
<title>Node9</title>
<g id="a_Node000009"><a xlink:href="app_8c.html#ab80501f53b757a79772b96ec99e3dc7e" target="_top" xlink:title=" ">
<polygon fill="white" stroke="#666666" points="534.25,-211.25 441.75,-211.25 441.75,-192 534.25,-192 534.25,-211.25"/>
<text xml:space="preserve" text-anchor="middle" x="488" y="-197.75" font-family="Helvetica,sans-Serif" font-size="10.00">PGB_goToLibrary</text>
</a>
</g>
</g>
<!-- Node8&#45;&gt;Node9 -->
<g id="edge8_Node000008_Node000009" class="edge">
<title>Node8&#45;&gt;Node9</title>
<g id="a_edge8_Node000008_Node000009"><a xlink:title=" ">
<path fill="none" stroke="#63b8ff" d="M606.84,-171.55C581.76,-177.95 551.92,-185.57 528.55,-191.53"/>
<polygon fill="#63b8ff" stroke="#63b8ff" points="607.7,-174.94 616.53,-169.08 605.97,-168.16 607.7,-174.94"/>
</a>
</g>
</g>
<!-- Node12 -->
<g id="Node000012" class="node">
<title>Node12</title>
<g id="a_Node000012"><a xlink:href="image__conversion__scene_8c.html#a60d0e43ab25a8639bbb6d1f4e758edd3" target="_top" xlink:title=" ">
<polygon fill="white" stroke="#666666" points="561.25,-173.88 414.75,-173.88 414.75,-143.38 561.25,-143.38 561.25,-173.88"/>
<text xml:space="preserve" text-anchor="start" x="422.75" y="-160.38" font-family="Helvetica,sans-Serif" font-size="10.00">PGB_ImageConversionScene</text>
<text xml:space="preserve" text-anchor="middle" x="488" y="-149.12" font-family="Helvetica,sans-Serif" font-size="10.00">_update</text>
</a>
</g>
</g>
<!-- Node8&#45;&gt;Node12 -->
<g id="edge11_Node000008_Node000012" class="edge">
<title>Node8&#45;&gt;Node12</title>
<g id="a_edge11_Node000008_Node000012"><a xlink:title=" ">
<path fill="none" stroke="#63b8ff" d="M585.9,-158.62C577.86,-158.62 569.65,-158.62 561.6,-158.62"/>
<polygon fill="#63b8ff" stroke="#63b8ff" points="585.63,-162.13 595.63,-158.63 585.63,-155.13 585.63,-162.13"/>
</a>
</g>
</g>
<!-- Node14 -->
<g id="Node000014" class="node">
<title>Node14</title>
<g id="a_Node000014"><a xlink:href="app_8c.html#af256ea7a9c51fcbd49cb0007facbb8ea" target="_top" xlink:title=" ">
<polygon fill="white" stroke="#666666" points="166.25,-146.25 111.25,-146.25 111.25,-127 166.25,-127 166.25,-146.25"/>
<text xml:space="preserve" text-anchor="middle" x="138.75" y="-132.75" font-family="Helvetica,sans-Serif" font-size="10.00">PGB_init</text>
</a>
</g>
</g>
<!-- Node8&#45;&gt;Node14 -->
<g id="edge15_Node000008_Node000014" class="edge">
<title>Node8&#45;&gt;Node14</title>
<g id="a_edge15_Node000008_Node000014"><a xlink:title=" ">
<path fill="none" stroke="#63b8ff" d="M614.41,-145.49C597.95,-141.11 578.89,-136.79 561.25,-134.62 413.08,-116.43 233.4,-128.5 166.52,-134.16"/>
<polygon fill="#63b8ff" stroke="#63b8ff" points="613.32,-148.82 623.89,-148.11 615.18,-142.08 613.32,-148.82"/>
</a>
</g>
</g>
<!-- Node10 -->
<g id="Node000010" class="node">
<title>Node10</title>
<g id="a_Node000010"><a xlink:href="game__scene_8c.html#a6a4a6f0408da311dc566eb187e497889" target="_top" xlink:title=" ">
<polygon fill="white" stroke="#666666" points="360,-211.25 227.75,-211.25 227.75,-192 360,-192 360,-211.25"/>
<text xml:space="preserve" text-anchor="middle" x="293.88" y="-197.75" font-family="Helvetica,sans-Serif" font-size="10.00">PGB_LibraryConfirmModal</text>
</a>
</g>
</g>
<!-- Node9&#45;&gt;Node10 -->
<g id="edge9_Node000009_Node000010" class="edge">
<title>Node9&#45;&gt;Node10</title>
<g id="a_edge9_Node000009_Node000010"><a xlink:title=" ">
<path fill="none" stroke="#63b8ff" d="M430.03,-201.62C408.17,-201.62 383.05,-201.62 360.44,-201.62"/>
<polygon fill="#63b8ff" stroke="#63b8ff" points="429.96,-205.13 439.96,-201.63 429.96,-198.13 429.96,-205.13"/>
</a>
</g>
</g>
<!-- Node11 -->
<g id="Node000011" class="node">
<title>Node11</title>
<g id="a_Node000011"><a xlink:href="game__scene_8c.html#a113df24bb94bafcdbb9235ec8648e02f" target="_top" xlink:title=" ">
<polygon fill="white" stroke="#666666" points="173,-211.25 104.5,-211.25 104.5,-192 173,-192 173,-211.25"/>
<text xml:space="preserve" text-anchor="middle" x="138.75" y="-197.75" font-family="Helvetica,sans-Serif" font-size="10.00">__section__</text>
</a>
</g>
</g>
<!-- Node10&#45;&gt;Node11 -->
<g id="edge10_Node000010_Node000011" class="edge">
<title>Node10&#45;&gt;Node11</title>
<g id="a_edge10_Node000010_Node000011"><a xlink:title=" ">
<path fill="none" stroke="#63b8ff" d="M216.03,-201.62C200.98,-201.62 185.96,-201.62 173.27,-201.62"/>
<polygon fill="#63b8ff" stroke="#63b8ff" points="215.98,-205.13 225.98,-201.63 215.98,-198.13 215.98,-205.13"/>
</a>
</g>
</g>
<!-- Node13 -->
<g id="Node000013" class="node">
<title>Node13</title>
<g id="a_Node000013"><a xlink:href="image__conversion__scene_8c.html#aa3559936491ddf78b9cf06fcbdd32d22" target="_top" xlink:title=" ">
<polygon fill="white" stroke="#666666" points="378.75,-166.25 209,-166.25 209,-147 378.75,-147 378.75,-166.25"/>
<text xml:space="preserve" text-anchor="middle" x="293.88" y="-152.75" font-family="Helvetica,sans-Serif" font-size="10.00">PGB_ImageConversionScene_new</text>
</a>
</g>
</g>
<!-- Node12&#45;&gt;Node13 -->
<g id="edge12_Node000012_Node000013" class="edge">
<title>Node12&#45;&gt;Node13</title>
<g id="a_edge12_Node000012_Node000013"><a xlink:title=" ">
<path fill="none" stroke="#63b8ff" d="M402.94,-157.75C395.07,-157.67 387.09,-157.58 379.22,-157.5"/>
<polygon fill="#63b8ff" stroke="#63b8ff" points="402.82,-161.25 412.85,-157.85 402.89,-154.25 402.82,-161.25"/>
</a>
</g>
</g>
<!-- Node13&#45;&gt;Node14 -->
<g id="edge13_Node000013_Node000014" class="edge">
<title>Node13&#45;&gt;Node14</title>
<g id="a_edge13_Node000013_Node000014"><a xlink:title=" ">
<path fill="none" stroke="#63b8ff" d="M204.38,-145.07C190.72,-143.28 177.57,-141.56 166.75,-140.15"/>
<polygon fill="#63b8ff" stroke="#63b8ff" points="203.55,-148.49 213.91,-146.31 204.45,-141.55 203.55,-148.49"/>
</a>
</g>
</g>
<!-- Node15 -->
<g id="Node000015" class="node">
<title>Node15</title>
<g id="a_Node000015"><a xlink:href="main_8c.html#a77034286b8c64d0735c69535c5e9b732" target="_top" xlink:title=" ">
<polygon fill="white" stroke="#666666" points="68.5,-146.25 0,-146.25 0,-127 68.5,-127 68.5,-146.25"/>
<text xml:space="preserve" text-anchor="middle" x="34.25" y="-132.75" font-family="Helvetica,sans-Serif" font-size="10.00">__section__</text>
</a>
</g>
</g>
<!-- Node14&#45;&gt;Node15 -->
<g id="edge14_Node000014_Node000015" class="edge">
<title>Node14&#45;&gt;Node15</title>
<g id="a_edge14_Node000014_Node000015"><a xlink:title=" ">
<path fill="none" stroke="#63b8ff" d="M99.48,-136.62C89.46,-136.62 78.74,-136.62 68.97,-136.62"/>
<polygon fill="#63b8ff" stroke="#63b8ff" points="99.31,-140.13 109.31,-136.63 99.31,-133.13 99.31,-140.13"/>
</a>
</g>
</g>
<!-- Node17 -->
<g id="Node000017" class="node">
<title>Node17</title>
<g id="a_Node000017"><a xlink:href="game__scene_8c.html#a963582a448d4e4e2953e59d75b9d9f64" target="_top" xlink:title=" ">
<polygon fill="white" stroke="#666666" points="1199,-206.25 1081,-206.25 1081,-187 1199,-187 1199,-206.25"/>
<text xml:space="preserve" text-anchor="middle" x="1140" y="-192.75" font-family="Helvetica,sans-Serif" font-size="10.00">PGB_GameScene_free</text>
</a>
</g>
</g>
<!-- Node16&#45;&gt;Node17 -->
<g id="edge17_Node000016_Node000017" class="edge">
<title>Node16&#45;&gt;Node17</title>
<g id="a_edge17_Node000016_Node000017"><a xlink:title=" ">
<path fill="none" stroke="#63b8ff" d="M1233.43,-197.32C1222.66,-197.24 1210.84,-197.15 1199.36,-197.06"/>
<polygon fill="#63b8ff" stroke="#63b8ff" points="1233.1,-200.81 1243.12,-197.39 1233.15,-193.81 1233.1,-200.81"/>
</a>
</g>
</g>
<!-- Node17&#45;&gt;Node6 -->
<g id="edge18_Node000017_Node000006" class="edge">
<title>Node17&#45;&gt;Node6</title>
<g id="a_edge18_Node000017_Node000006"><a xlink:title=" ">
<path fill="none" stroke="#63b8ff" d="M1087.45,-183.8C1067.64,-178.87 1045.33,-173.32 1026.71,-168.69"/>
<polygon fill="#63b8ff" stroke="#63b8ff" points="1086.45,-187.16 1097,-186.18 1088.14,-180.37 1086.45,-187.16"/>
</a>
</g>
</g>
<!-- Node19 -->
<g id="Node000019" class="node">
<title>Node19</title>
<g id="a_Node000019"><a xlink:href="lstate_8c.html#a2fb9ffd0e5e6ea178123879892e87681" target="_top" xlink:title=" ">
<polygon fill="white" stroke="#666666" points="1316.25,-56.25 1235,-56.25 1235,-37 1316.25,-37 1316.25,-56.25"/>
<text xml:space="preserve" text-anchor="middle" x="1275.62" y="-42.75" font-family="Helvetica,sans-Serif" font-size="10.00">luai_makeseed</text>
</a>
</g>
</g>
<!-- Node18&#45;&gt;Node19 -->
<g id="edge20_Node000018_Node000019" class="edge">
<title>Node18&#45;&gt;Node19</title>
<g id="a_edge20_Node000018_Node000019"><a xlink:title=" ">
<path fill="none" stroke="#63b8ff" d="M1340.46,-39.94C1332.48,-39.81 1324.26,-39.87 1316.5,-40.12"/>
<polygon fill="#63b8ff" stroke="#63b8ff" points="1340.32,-43.44 1350.41,-40.22 1340.51,-36.44 1340.32,-43.44"/>
</a>
</g>
</g>
<!-- Node20 -->
<g id="Node000020" class="node">
<title>Node20</title>
<g id="a_Node000020"><a xlink:href="lauxlib_8c.html#abe0d4e1d9eb077cdeca0f58e80174f89" target="_top" xlink:title=" ">
<polygon fill="white" stroke="#666666" points="1315.12,-19.25 1236.12,-19.25 1236.12,0 1315.12,0 1315.12,-19.25"/>
<text xml:space="preserve" text-anchor="middle" x="1275.62" y="-5.75" font-family="Helvetica,sans-Serif" font-size="10.00">luaL_newstate</text>
</a>
</g>
</g>
<!-- Node18&#45;&gt;Node20 -->
<g id="edge22_Node000018_Node000020" class="edge">
<title>Node18&#45;&gt;Node20</title>
<g id="a_edge22_Node000018_Node000020"><a xlink:title=" ">
<path fill="none" stroke="#63b8ff" d="M1346.91,-32.95C1333.71,-28.57 1319.34,-23.8 1307.06,-19.72"/>
<polygon fill="#63b8ff" stroke="#63b8ff" points="1345.63,-36.21 1356.22,-36.04 1347.83,-29.57 1345.63,-36.21"/>
</a>
</g>
</g>
<!-- Node19&#45;&gt;Node18 -->
<g id="edge21_Node000019_Node000018" class="edge">
<title>Node19&#45;&gt;Node18</title>
<g id="a_edge21_Node000019_Node000018"><a xlink:title=" ">
<path fill="none" stroke="#63b8ff" d="M1327.84,-53.36C1335.97,-53.43 1344.23,-53.31 1351.92,-52.99"/>
<polygon fill="#63b8ff" stroke="#63b8ff" points="1328.08,-49.86 1318.01,-53.16 1327.94,-56.86 1328.08,-49.86"/>
</a>
</g>
</g>
<!-- Node20&#45;&gt;Node3 -->
<g id="edge23_Node000020_Node000003" class="edge">
<title>Node20&#45;&gt;Node3</title>
<g id="a_edge23_Node000020_Node000003"><a xlink:title=" ">
<path fill="none" stroke="#63b8ff" d="M1236.08,-26.46C1235.71,-26.84 1235.35,-27.23 1235,-27.62 1199.99,-67.03 1236.41,-103.49 1199,-140.62 1188.37,-151.17 1171.69,-155.56 1158.94,-157.37"/>
<polygon fill="#63b8ff" stroke="#63b8ff" points="1238,-29.41 1243.8,-20.55 1233.74,-23.85 1238,-29.41"/>
</a>
</g>
</g>
<!-- Node20&#45;&gt;Node5 -->
<g id="edge24_Node000020_Node000005" class="edge">
<title>Node20&#45;&gt;Node5</title>
<g id="a_edge24_Node000020_Node000005"><a xlink:title=" ">
<path fill="none" stroke="#63b8ff" d="M1239.23,-24.89C1237.77,-25.77 1236.36,-26.68 1235,-27.62 1198.58,-52.86 1163.91,-93.12 1148.86,-111.67"/>
<polygon fill="#63b8ff" stroke="#63b8ff" points="1240.67,-28.09 1247.82,-20.27 1237.36,-21.92 1240.67,-28.09"/>
</a>
</g>
</g>
</g>
</svg>
