<?xml version="1.0" encoding="UTF-8" standalone="no"?>
<!DOCTYPE svg PUBLIC "-//W3C//DTD SVG 1.1//EN"
 "http://www.w3.org/Graphics/SVG/1.1/DTD/svg11.dtd">
<!-- Generated by graphviz version 13.1.0 (20250701.0955)
 -->
<!-- Title: match_class Pages: 1 -->
<svg width="602pt" height="249pt"
 viewBox="0.00 0.00 602.00 249.00" xmlns="http://www.w3.org/2000/svg" xmlns:xlink="http://www.w3.org/1999/xlink">
<g id="graph0" class="graph" transform="scale(1 1) rotate(0) translate(4 245.25)">
<title>match_class</title>
<!-- Node1 -->
<g id="Node000001" class="node">
<title>Node1</title>
<g id="a_Node000001"><a xlink:title=" ">
<polygon fill="#999999" stroke="#666666" points="594,-130.25 522.5,-130.25 522.5,-111 594,-111 594,-130.25"/>
<text xml:space="preserve" text-anchor="middle" x="558.25" y="-116.75" font-family="Helvetica,sans-Serif" font-size="10.00">match_class</text>
</a>
</g>
</g>
<!-- Node2 -->
<g id="Node000002" class="node">
<title>Node2</title>
<g id="a_Node000002"><a xlink:href="lstrlib_8c.html#a14c5b9fff2918ecc568b9bcf1bfdb241" target="_top" xlink:title=" ">
<polygon fill="white" stroke="#666666" points="486.5,-149.25 388,-149.25 388,-130 486.5,-130 486.5,-149.25"/>
<text xml:space="preserve" text-anchor="middle" x="437.25" y="-135.75" font-family="Helvetica,sans-Serif" font-size="10.00">matchbracketclass</text>
</a>
</g>
</g>
<!-- Node1&#45;&gt;Node2 -->
<g id="edge1_Node000001_Node000002" class="edge">
<title>Node1&#45;&gt;Node2</title>
<g id="a_edge1_Node000001_Node000002"><a xlink:title=" ">
<path fill="none" stroke="#63b8ff" d="M510.88,-128.03C502.96,-129.29 494.71,-130.61 486.73,-131.88"/>
<polygon fill="#63b8ff" stroke="#63b8ff" points="511.37,-131.49 520.7,-126.46 510.27,-124.58 511.37,-131.49"/>
</a>
</g>
</g>
<!-- Node14 -->
<g id="Node000014" class="node">
<title>Node14</title>
<g id="a_Node000014"><a xlink:href="lstrlib_8c.html#a0fe170ffbc6b4ec3181d2db25ea4deb0" target="_top" xlink:title=" ">
<polygon fill="white" stroke="#666666" points="352,-111.25 283.5,-111.25 283.5,-92 352,-92 352,-111.25"/>
<text xml:space="preserve" text-anchor="middle" x="317.75" y="-97.75" font-family="Helvetica,sans-Serif" font-size="10.00">singlematch</text>
</a>
</g>
</g>
<!-- Node1&#45;&gt;Node14 -->
<g id="edge22_Node000001_Node000014" class="edge">
<title>Node1&#45;&gt;Node14</title>
<g id="a_edge22_Node000001_Node000014"><a xlink:title=" ">
<path fill="none" stroke="#63b8ff" d="M510.76,-116.92C464.14,-113.21 393.5,-107.58 352.16,-104.29"/>
<polygon fill="#63b8ff" stroke="#63b8ff" points="510.3,-120.4 520.55,-117.7 510.86,-113.42 510.3,-120.4"/>
</a>
</g>
</g>
<!-- Node3 -->
<g id="Node000003" class="node">
<title>Node3</title>
<g id="a_Node000003"><a xlink:href="lstrlib_8c.html#a52a45835b75e5d31ec66421456bbb728" target="_top" xlink:title=" ">
<polygon fill="white" stroke="#666666" points="247.5,-130.25 204.5,-130.25 204.5,-111 247.5,-111 247.5,-130.25"/>
<text xml:space="preserve" text-anchor="middle" x="226" y="-116.75" font-family="Helvetica,sans-Serif" font-size="10.00">match</text>
</a>
</g>
</g>
<!-- Node2&#45;&gt;Node3 -->
<g id="edge2_Node000002_Node000003" class="edge">
<title>Node2&#45;&gt;Node3</title>
<g id="a_edge2_Node000002_Node000003"><a xlink:title=" ">
<path fill="none" stroke="#63b8ff" d="M376.49,-134.2C333.38,-130.28 277.73,-125.23 247.97,-122.53"/>
<polygon fill="#63b8ff" stroke="#63b8ff" points="375.93,-137.66 386.21,-135.08 376.57,-130.69 375.93,-137.66"/>
</a>
</g>
</g>
<!-- Node2&#45;&gt;Node14 -->
<g id="edge18_Node000002_Node000014" class="edge">
<title>Node2&#45;&gt;Node14</title>
<g id="a_edge18_Node000002_Node000014"><a xlink:title=" ">
<path fill="none" stroke="#63b8ff" d="M394.2,-126.03C379.5,-121.27 363.29,-116.03 349.67,-111.62"/>
<polygon fill="#63b8ff" stroke="#63b8ff" points="393.04,-129.33 403.63,-129.08 395.19,-122.67 393.04,-129.33"/>
</a>
</g>
</g>
<!-- Node3&#45;&gt;Node3 -->
<g id="edge7_Node000003_Node000003" class="edge">
<title>Node3&#45;&gt;Node3</title>
<g id="a_edge7_Node000003_Node000003"><a xlink:title=" ">
<path fill="none" stroke="#63b8ff" d="M242.29,-141.65C240.25,-145.53 234.82,-148.25 226,-148.25 209.87,-148.25 205.08,-139.15 211.64,-130.54"/>
<polygon fill="#63b8ff" stroke="#63b8ff" points="245.77,-141.29 240.62,-132.03 238.88,-142.48 245.77,-141.29"/>
</a>
</g>
</g>
<!-- Node4 -->
<g id="Node000004" class="node">
<title>Node4</title>
<g id="a_Node000004"><a xlink:href="lstrlib_8c.html#a8ad3b2b2feba1b339455b6b8feb77d79" target="_top" xlink:title=" ">
<polygon fill="white" stroke="#666666" points="166.62,-204.25 97.38,-204.25 97.38,-185 166.62,-185 166.62,-204.25"/>
<text xml:space="preserve" text-anchor="middle" x="132" y="-190.75" font-family="Helvetica,sans-Serif" font-size="10.00">end_capture</text>
</a>
</g>
</g>
<!-- Node3&#45;&gt;Node4 -->
<g id="edge3_Node000003_Node000004" class="edge">
<title>Node3&#45;&gt;Node4</title>
<g id="a_edge3_Node000003_Node000004"><a xlink:title=" ">
<path fill="none" stroke="#63b8ff" d="M201.67,-138.68C192.02,-148.06 180.33,-159.09 168.5,-167.62 159.65,-174.01 148.2,-179.37 140.73,-184.66"/>
<polygon fill="#63b8ff" stroke="#63b8ff" points="204.1,-141.2 208.82,-131.71 199.22,-136.18 204.1,-141.2"/>
</a>
</g>
</g>
<!-- Node5 -->
<g id="Node000005" class="node">
<title>Node5</title>
<g id="a_Node000005"><a xlink:href="lstrlib_8c.html#ab7cb0ba6191e1aa9455f6522d3483a02" target="_top" xlink:title=" ">
<polygon fill="white" stroke="#666666" points="166.62,-167.25 97.38,-167.25 97.38,-148 166.62,-148 166.62,-167.25"/>
<text xml:space="preserve" text-anchor="middle" x="132" y="-153.75" font-family="Helvetica,sans-Serif" font-size="10.00">gmatch_aux</text>
</a>
</g>
</g>
<!-- Node3&#45;&gt;Node5 -->
<g id="edge5_Node000003_Node000005" class="edge">
<title>Node3&#45;&gt;Node5</title>
<g id="a_edge5_Node000003_Node000005"><a xlink:title=" ">
<path fill="none" stroke="#63b8ff" d="M193.54,-133.28C181.96,-137.94 168.99,-143.15 158.05,-147.55"/>
<polygon fill="#63b8ff" stroke="#63b8ff" points="194.75,-136.56 202.72,-129.59 192.14,-130.07 194.75,-136.56"/>
</a>
</g>
</g>
<!-- Node7 -->
<g id="Node000007" class="node">
<title>Node7</title>
<g id="a_Node000007"><a xlink:href="lstrlib_8c.html#a20c45578b2c655b0c961cc2806cf7194" target="_top" xlink:title=" ">
<polygon fill="white" stroke="#666666" points="167.75,-241.25 96.25,-241.25 96.25,-222 167.75,-222 167.75,-241.25"/>
<text xml:space="preserve" text-anchor="middle" x="132" y="-227.75" font-family="Helvetica,sans-Serif" font-size="10.00">max_expand</text>
</a>
</g>
</g>
<!-- Node3&#45;&gt;Node7 -->
<g id="edge8_Node000003_Node000007" class="edge">
<title>Node3&#45;&gt;Node7</title>
<g id="a_edge8_Node000003_Node000007"><a xlink:title=" ">
<path fill="none" stroke="#63b8ff" d="M213.3,-140.78C203.65,-159.36 188.34,-186.25 168.5,-204.62 160.79,-211.76 149.72,-216.77 142,-221.54"/>
<polygon fill="#63b8ff" stroke="#63b8ff" points="216.34,-142.54 217.76,-132.04 210.1,-139.36 216.34,-142.54"/>
</a>
</g>
</g>
<!-- Node8 -->
<g id="Node000008" class="node">
<title>Node8</title>
<g id="a_Node000008"><a xlink:href="lstrlib_8c.html#ae3f407e9f2ae797e567d9e2a417c02d1" target="_top" xlink:title=" ">
<polygon fill="white" stroke="#666666" points="166.25,-19.25 97.75,-19.25 97.75,0 166.25,0 166.25,-19.25"/>
<text xml:space="preserve" text-anchor="middle" x="132" y="-5.75" font-family="Helvetica,sans-Serif" font-size="10.00">min_expand</text>
</a>
</g>
</g>
<!-- Node3&#45;&gt;Node8 -->
<g id="edge10_Node000003_Node000008" class="edge">
<title>Node3&#45;&gt;Node8</title>
<g id="a_edge10_Node000003_Node000008"><a xlink:title=" ">
<path fill="none" stroke="#63b8ff" d="M219.21,-100.04C210.68,-77.16 193.05,-41.36 168.5,-18.62 167.89,-18.06 167.26,-17.51 166.62,-16.98"/>
<polygon fill="#63b8ff" stroke="#63b8ff" points="215.81,-100.91 222.34,-109.25 222.43,-98.66 215.81,-100.91"/>
</a>
</g>
</g>
<!-- Node9 -->
<g id="Node000009" class="node">
<title>Node9</title>
<g id="a_Node000009"><a xlink:href="lstrlib_8c.html#afe42e5d441f313d0a768057947797480" target="_top" xlink:title=" ">
<polygon fill="white" stroke="#666666" points="168.5,-130.25 95.5,-130.25 95.5,-111 168.5,-111 168.5,-130.25"/>
<text xml:space="preserve" text-anchor="middle" x="132" y="-116.75" font-family="Helvetica,sans-Serif" font-size="10.00">start_capture</text>
</a>
</g>
</g>
<!-- Node3&#45;&gt;Node9 -->
<g id="edge12_Node000003_Node000009" class="edge">
<title>Node3&#45;&gt;Node9</title>
<g id="a_edge12_Node000003_Node000009"><a xlink:title=" ">
<path fill="none" stroke="#63b8ff" d="M192.67,-114.15C185,-113.83 176.78,-113.79 168.96,-114.02"/>
<polygon fill="#63b8ff" stroke="#63b8ff" points="192.41,-117.64 202.61,-114.77 192.85,-110.65 192.41,-117.64"/>
</a>
</g>
</g>
<!-- Node10 -->
<g id="Node000010" class="node">
<title>Node10</title>
<g id="a_Node000010"><a xlink:href="lstrlib_8c.html#a692514aa32ae2668683a4db15259d26b" target="_top" xlink:title=" ">
<polygon fill="white" stroke="#666666" points="166.62,-93.25 97.38,-93.25 97.38,-74 166.62,-74 166.62,-93.25"/>
<text xml:space="preserve" text-anchor="middle" x="132" y="-79.75" font-family="Helvetica,sans-Serif" font-size="10.00">str_find_aux</text>
</a>
</g>
</g>
<!-- Node3&#45;&gt;Node10 -->
<g id="edge14_Node000003_Node000010" class="edge">
<title>Node3&#45;&gt;Node10</title>
<g id="a_edge14_Node000003_Node000010"><a xlink:title=" ">
<path fill="none" stroke="#63b8ff" d="M193.54,-107.97C181.96,-103.31 168.99,-98.1 158.05,-93.7"/>
<polygon fill="#63b8ff" stroke="#63b8ff" points="192.14,-111.18 202.72,-111.66 194.75,-104.69 192.14,-111.18"/>
</a>
</g>
</g>
<!-- Node13 -->
<g id="Node000013" class="node">
<title>Node13</title>
<g id="a_Node000013"><a xlink:href="lstrlib_8c.html#a42337c674d265175bcc2b2f3809c7339" target="_top" xlink:title=" ">
<polygon fill="white" stroke="#666666" points="158.75,-56.25 105.25,-56.25 105.25,-37 158.75,-37 158.75,-56.25"/>
<text xml:space="preserve" text-anchor="middle" x="132" y="-42.75" font-family="Helvetica,sans-Serif" font-size="10.00">str_gsub</text>
</a>
</g>
</g>
<!-- Node3&#45;&gt;Node13 -->
<g id="edge17_Node000003_Node000013" class="edge">
<title>Node3&#45;&gt;Node13</title>
<g id="a_edge17_Node000003_Node000013"><a xlink:title=" ">
<path fill="none" stroke="#63b8ff" d="M208.99,-102.01C198.31,-90.32 183.52,-75.47 168.5,-64.62 164.47,-61.71 159.89,-59.02 155.4,-56.64"/>
<polygon fill="#63b8ff" stroke="#63b8ff" points="206.33,-104.29 215.6,-109.43 211.57,-99.63 206.33,-104.29"/>
</a>
</g>
</g>
<!-- Node4&#45;&gt;Node3 -->
<g id="edge4_Node000004_Node000003" class="edge">
<title>Node4&#45;&gt;Node3</title>
<g id="a_edge4_Node000004_Node000003"><a xlink:title=" ">
<path fill="none" stroke="#63b8ff" d="M175.89,-179.83C196.05,-163.41 213.47,-143 221.03,-130.32"/>
<polygon fill="#63b8ff" stroke="#63b8ff" points="173.79,-177.04 167.99,-185.9 178.05,-182.59 173.79,-177.04"/>
</a>
</g>
</g>
<!-- Node6 -->
<g id="Node000006" class="node">
<title>Node6</title>
<g id="a_Node000006"><a xlink:href="lstrlib_8c.html#ab55a72bb412d6186c82fd75de44cd031" target="_top" xlink:title=" ">
<polygon fill="white" stroke="#666666" points="53.88,-167.25 5.63,-167.25 5.63,-148 53.88,-148 53.88,-167.25"/>
<text xml:space="preserve" text-anchor="middle" x="29.75" y="-153.75" font-family="Helvetica,sans-Serif" font-size="10.00">gmatch</text>
</a>
</g>
</g>
<!-- Node5&#45;&gt;Node6 -->
<g id="edge6_Node000005_Node000006" class="edge">
<title>Node5&#45;&gt;Node6</title>
<g id="a_edge6_Node000005_Node000006"><a xlink:title=" ">
<path fill="none" stroke="#63b8ff" d="M85.87,-157.62C74.94,-157.62 63.69,-157.62 54.22,-157.62"/>
<polygon fill="#63b8ff" stroke="#63b8ff" points="85.55,-161.13 95.55,-157.63 85.55,-154.13 85.55,-161.13"/>
</a>
</g>
</g>
<!-- Node7&#45;&gt;Node3 -->
<g id="edge9_Node000007_Node000003" class="edge">
<title>Node7&#45;&gt;Node3</title>
<g id="a_edge9_Node000007_Node000003"><a xlink:title=" ">
<path fill="none" stroke="#63b8ff" d="M176.13,-214.88C200.83,-187.75 217.19,-149.28 222.83,-130.56"/>
<polygon fill="#63b8ff" stroke="#63b8ff" points="173.8,-212.26 169.26,-221.83 178.78,-217.18 173.8,-212.26"/>
</a>
</g>
</g>
<!-- Node8&#45;&gt;Node3 -->
<g id="edge11_Node000008_Node000003" class="edge">
<title>Node8&#45;&gt;Node3</title>
<g id="a_edge11_Node000008_Node000003"><a xlink:title=" ">
<path fill="none" stroke="#63b8ff" d="M151.75,-25.28C157.55,-28.54 163.68,-32.16 168.5,-36.62 192.34,-58.7 209.65,-93.1 218.44,-110.56"/>
<polygon fill="#63b8ff" stroke="#63b8ff" points="153.73,-22.38 143.31,-20.46 150.26,-28.46 153.73,-22.38"/>
</a>
</g>
</g>
<!-- Node9&#45;&gt;Node3 -->
<g id="edge13_Node000009_Node000003" class="edge">
<title>Node9&#45;&gt;Node3</title>
<g id="a_edge13_Node000009_Node000003"><a xlink:title=" ">
<path fill="none" stroke="#63b8ff" d="M180.3,-127.37C188.67,-127.34 196.98,-127.01 204.12,-126.39"/>
<polygon fill="#63b8ff" stroke="#63b8ff" points="180.52,-123.88 170.47,-127.25 180.43,-130.87 180.52,-123.88"/>
</a>
</g>
</g>
<!-- Node11 -->
<g id="Node000011" class="node">
<title>Node11</title>
<g id="a_Node000011"><a xlink:href="lstrlib_8c.html#a362a4bc9ba81ce87253cc3d74f015808" target="_top" xlink:title=" ">
<polygon fill="white" stroke="#666666" points="53.88,-111.25 5.63,-111.25 5.63,-92 53.88,-92 53.88,-111.25"/>
<text xml:space="preserve" text-anchor="middle" x="29.75" y="-97.75" font-family="Helvetica,sans-Serif" font-size="10.00">str_find</text>
</a>
</g>
</g>
<!-- Node10&#45;&gt;Node11 -->
<g id="edge15_Node000010_Node000011" class="edge">
<title>Node10&#45;&gt;Node11</title>
<g id="a_edge15_Node000010_Node000011"><a xlink:title=" ">
<path fill="none" stroke="#63b8ff" d="M85.87,-91.73C74.94,-93.69 63.69,-95.71 54.22,-97.41"/>
<polygon fill="#63b8ff" stroke="#63b8ff" points="86.35,-95.2 95.57,-89.99 85.11,-88.31 86.35,-95.2"/>
</a>
</g>
</g>
<!-- Node12 -->
<g id="Node000012" class="node">
<title>Node12</title>
<g id="a_Node000012"><a xlink:href="lstrlib_8c.html#a4b605e43b8f5738db9eae902bbc00f00" target="_top" xlink:title=" ">
<polygon fill="white" stroke="#666666" points="59.5,-74.25 0,-74.25 0,-55 59.5,-55 59.5,-74.25"/>
<text xml:space="preserve" text-anchor="middle" x="29.75" y="-60.75" font-family="Helvetica,sans-Serif" font-size="10.00">str_match</text>
</a>
</g>
</g>
<!-- Node10&#45;&gt;Node12 -->
<g id="edge16_Node000010_Node000012" class="edge">
<title>Node10&#45;&gt;Node12</title>
<g id="a_edge16_Node000010_Node000012"><a xlink:title=" ">
<path fill="none" stroke="#63b8ff" d="M85.75,-75.05C77,-73.39 68.04,-71.69 59.97,-70.16"/>
<polygon fill="#63b8ff" stroke="#63b8ff" points="85.1,-78.49 95.57,-76.91 86.4,-71.61 85.1,-78.49"/>
</a>
</g>
</g>
<!-- Node14&#45;&gt;Node3 -->
<g id="edge19_Node000014_Node000003" class="edge">
<title>Node14&#45;&gt;Node3</title>
<g id="a_edge19_Node000014_Node000003"><a xlink:title=" ">
<path fill="none" stroke="#63b8ff" d="M272.05,-111.09C263.58,-112.88 255.1,-114.68 247.82,-116.22"/>
<polygon fill="#63b8ff" stroke="#63b8ff" points="272.54,-114.56 281.59,-109.07 271.09,-107.71 272.54,-114.56"/>
</a>
</g>
</g>
<!-- Node14&#45;&gt;Node7 -->
<g id="edge20_Node000014_Node000007" class="edge">
<title>Node14&#45;&gt;Node7</title>
<g id="a_edge20_Node000014_Node000007"><a xlink:title=" ">
<path fill="none" stroke="#63b8ff" d="M296.71,-118.92C269.08,-142.25 217.17,-184.26 168.5,-213.62 163.89,-216.41 158.79,-219.17 153.93,-221.66"/>
<polygon fill="#63b8ff" stroke="#63b8ff" points="298.93,-121.63 304.27,-112.48 294.39,-116.3 298.93,-121.63"/>
</a>
</g>
</g>
<!-- Node14&#45;&gt;Node8 -->
<g id="edge21_Node000014_Node000008" class="edge">
<title>Node14&#45;&gt;Node8</title>
<g id="a_edge21_Node000014_Node000008"><a xlink:title=" ">
<path fill="none" stroke="#63b8ff" d="M286.84,-86.65C249.11,-67.76 185.28,-35.8 152.99,-19.63"/>
<polygon fill="#63b8ff" stroke="#63b8ff" points="284.87,-89.58 295.38,-90.93 288.01,-83.32 284.87,-89.58"/>
</a>
</g>
</g>
</g>
</svg>
