<?xml version="1.0" encoding="UTF-8" standalone="no"?>
<!DOCTYPE svg PUBLIC "-//W3C//DTD SVG 1.1//EN"
 "http://www.w3.org/Graphics/SVG/1.1/DTD/svg11.dtd">
<!-- Generated by graphviz version 13.1.0 (20250701.0955)
 -->
<!-- Title: lua&#45;5.4.7/lstring.h Pages: 1 -->
<svg width="437pt" height="469pt"
 viewBox="0.00 0.00 437.00 469.00" xmlns="http://www.w3.org/2000/svg" xmlns:xlink="http://www.w3.org/1999/xlink">
<g id="graph0" class="graph" transform="scale(1 1) rotate(0) translate(4 465.25)">
<title>lua&#45;5.4.7/lstring.h</title>
<!-- Node1 -->
<g id="Node000001" class="node">
<title>Node1</title>
<g id="a_Node000001"><a xlink:title=" ">
<polygon fill="#999999" stroke="#666666" points="429.25,-461.25 338.25,-461.25 338.25,-442 429.25,-442 429.25,-461.25"/>
<text xml:space="preserve" text-anchor="middle" x="383.75" y="-447.75" font-family="Helvetica,sans-Serif" font-size="10.00">lua&#45;5.4.7/lstring.h</text>
</a>
</g>
</g>
<!-- Node2 -->
<g id="Node000002" class="node">
<title>Node2</title>
<g id="a_Node000002"><a xlink:href="lgc_8h.html" target="_top" xlink:title=" ">
<polygon fill="white" stroke="#666666" points="402.25,-406 365.25,-406 365.25,-386.75 402.25,-386.75 402.25,-406"/>
<text xml:space="preserve" text-anchor="middle" x="383.75" y="-392.5" font-family="Helvetica,sans-Serif" font-size="10.00">lgc.h</text>
</a>
</g>
</g>
<!-- Node1&#45;&gt;Node2 -->
<g id="edge1_Node000001_Node000002" class="edge">
<title>Node1&#45;&gt;Node2</title>
<g id="a_edge1_Node000001_Node000002"><a xlink:title=" ">
<path fill="none" stroke="#63b8ff" d="M383.75,-441.83C383.75,-435.32 383.75,-426.17 383.75,-417.87"/>
<polygon fill="#63b8ff" stroke="#63b8ff" points="387.25,-417.87 383.75,-407.87 380.25,-417.87 387.25,-417.87"/>
</a>
</g>
</g>
<!-- Node3 -->
<g id="Node000003" class="node">
<title>Node3</title>
<g id="a_Node000003"><a xlink:href="lobject_8h.html" target="_top" xlink:title=" ">
<polygon fill="white" stroke="#666666" points="304.12,-240.25 251.38,-240.25 251.38,-221 304.12,-221 304.12,-240.25"/>
<text xml:space="preserve" text-anchor="middle" x="277.75" y="-226.75" font-family="Helvetica,sans-Serif" font-size="10.00">lobject.h</text>
</a>
</g>
</g>
<!-- Node1&#45;&gt;Node3 -->
<g id="edge26_Node000001_Node000003" class="edge">
<title>Node1&#45;&gt;Node3</title>
<g id="a_edge26_Node000001_Node000003"><a xlink:title=" ">
<path fill="none" stroke="#63b8ff" d="M391.42,-441.79C398.27,-433.28 407.8,-419.71 411.75,-406 428.2,-348.82 418.65,-320.4 378.75,-276.25 362.19,-257.92 336.71,-246.74 315.49,-240.15"/>
<polygon fill="#63b8ff" stroke="#63b8ff" points="316.57,-236.82 306,-237.45 314.65,-243.55 316.57,-236.82"/>
</a>
</g>
</g>
<!-- Node10 -->
<g id="Node000010" class="node">
<title>Node10</title>
<g id="a_Node000010"><a xlink:href="lstate_8h.html" target="_top" xlink:title=" ">
<polygon fill="white" stroke="#666666" points="334.88,-350.75 286.62,-350.75 286.62,-331.5 334.88,-331.5 334.88,-350.75"/>
<text xml:space="preserve" text-anchor="middle" x="310.75" y="-337.25" font-family="Helvetica,sans-Serif" font-size="10.00">lstate.h</text>
</a>
</g>
</g>
<!-- Node1&#45;&gt;Node10 -->
<g id="edge27_Node000001_Node000010" class="edge">
<title>Node1&#45;&gt;Node10</title>
<g id="a_edge27_Node000001_Node000010"><a xlink:title=" ">
<path fill="none" stroke="#63b8ff" d="M377.78,-441.75C365.85,-424.02 338.89,-383.94 323.03,-360.38"/>
<polygon fill="#63b8ff" stroke="#63b8ff" points="326.14,-358.73 317.65,-352.38 320.33,-362.63 326.14,-358.73"/>
</a>
</g>
</g>
<!-- Node2&#45;&gt;Node3 -->
<g id="edge2_Node000002_Node000003" class="edge">
<title>Node2&#45;&gt;Node3</title>
<g id="a_edge2_Node000002_Node000003"><a xlink:title=" ">
<path fill="none" stroke="#63b8ff" d="M384.37,-386.29C385.37,-364.89 385.05,-310.54 359.75,-276.25 348.62,-261.16 330.81,-250.6 314.63,-243.55"/>
<polygon fill="#63b8ff" stroke="#63b8ff" points="316.3,-240.45 305.72,-239.98 313.7,-246.95 316.3,-240.45"/>
</a>
</g>
</g>
<!-- Node2&#45;&gt;Node10 -->
<g id="edge14_Node000002_Node000010" class="edge">
<title>Node2&#45;&gt;Node10</title>
<g id="a_edge14_Node000002_Node000010"><a xlink:title=" ">
<path fill="none" stroke="#63b8ff" d="M371.37,-386.34C360.6,-378.49 344.78,-366.95 332,-357.62"/>
<polygon fill="#63b8ff" stroke="#63b8ff" points="334.31,-354.98 324.17,-351.92 330.19,-360.64 334.31,-354.98"/>
</a>
</g>
</g>
<!-- Node4 -->
<g id="Node000004" class="node">
<title>Node4</title>
<g id="a_Node000004"><a xlink:title=" ">
<polygon fill="#e0e0e0" stroke="#999999" points="279.38,-74.5 228.12,-74.5 228.12,-55.25 279.38,-55.25 279.38,-74.5"/>
<text xml:space="preserve" text-anchor="middle" x="253.75" y="-61" font-family="Helvetica,sans-Serif" font-size="10.00">stdarg.h</text>
</a>
</g>
</g>
<!-- Node3&#45;&gt;Node4 -->
<g id="edge3_Node000003_Node000004" class="edge">
<title>Node3&#45;&gt;Node4</title>
<g id="a_edge3_Node000003_Node000004"><a xlink:title=" ">
<path fill="none" stroke="#63b8ff" d="M276.46,-220.82C272.75,-195.5 261.98,-122 256.71,-86.09"/>
<polygon fill="#63b8ff" stroke="#63b8ff" points="260.18,-85.61 255.27,-76.22 253.25,-86.62 260.18,-85.61"/>
</a>
</g>
</g>
<!-- Node5 -->
<g id="Node000005" class="node">
<title>Node5</title>
<g id="a_Node000005"><a xlink:href="llimits_8h.html" target="_top" xlink:title=" ">
<polygon fill="white" stroke="#666666" points="97.62,-185 47.88,-185 47.88,-165.75 97.62,-165.75 97.62,-185"/>
<text xml:space="preserve" text-anchor="middle" x="72.75" y="-171.5" font-family="Helvetica,sans-Serif" font-size="10.00">llimits.h</text>
</a>
</g>
</g>
<!-- Node3&#45;&gt;Node5 -->
<g id="edge4_Node000003_Node000005" class="edge">
<title>Node3&#45;&gt;Node5</title>
<g id="a_edge4_Node000003_Node000005"><a xlink:title=" ">
<path fill="none" stroke="#63b8ff" d="M250.95,-222.66C214.62,-213.23 149.62,-196.34 108.97,-185.78"/>
<polygon fill="#63b8ff" stroke="#63b8ff" points="109.97,-182.43 99.41,-183.3 108.21,-189.2 109.97,-182.43"/>
</a>
</g>
</g>
<!-- Node8 -->
<g id="Node000008" class="node">
<title>Node8</title>
<g id="a_Node000008"><a xlink:href="lua_8h.html" target="_top" xlink:title=" ">
<polygon fill="white" stroke="#666666" points="197.25,-129.75 160.25,-129.75 160.25,-110.5 197.25,-110.5 197.25,-129.75"/>
<text xml:space="preserve" text-anchor="middle" x="178.75" y="-116.25" font-family="Helvetica,sans-Serif" font-size="10.00">lua.h</text>
</a>
</g>
</g>
<!-- Node3&#45;&gt;Node8 -->
<g id="edge13_Node000003_Node000008" class="edge">
<title>Node3&#45;&gt;Node8</title>
<g id="a_edge13_Node000003_Node000008"><a xlink:title=" ">
<path fill="none" stroke="#63b8ff" d="M269.65,-220.75C253.26,-202.78 215.92,-161.86 194.54,-138.44"/>
<polygon fill="#63b8ff" stroke="#63b8ff" points="197.31,-136.27 187.98,-131.24 192.14,-140.99 197.31,-136.27"/>
</a>
</g>
</g>
<!-- Node6 -->
<g id="Node000006" class="node">
<title>Node6</title>
<g id="a_Node000006"><a xlink:title=" ">
<polygon fill="#e0e0e0" stroke="#999999" points="47.5,-19.25 0,-19.25 0,0 47.5,0 47.5,-19.25"/>
<text xml:space="preserve" text-anchor="middle" x="23.75" y="-5.75" font-family="Helvetica,sans-Serif" font-size="10.00">limits.h</text>
</a>
</g>
</g>
<!-- Node5&#45;&gt;Node6 -->
<g id="edge5_Node000005_Node000006" class="edge">
<title>Node5&#45;&gt;Node6</title>
<g id="a_edge5_Node000005_Node000006"><a xlink:title=" ">
<path fill="none" stroke="#63b8ff" d="M69.36,-165.38C62.87,-147.99 48.5,-108.48 38.75,-74.5 34.56,-59.88 30.66,-43.14 27.89,-30.46"/>
<polygon fill="#63b8ff" stroke="#63b8ff" points="31.35,-29.9 25.84,-20.85 24.5,-31.36 31.35,-29.9"/>
</a>
</g>
</g>
<!-- Node7 -->
<g id="Node000007" class="node">
<title>Node7</title>
<g id="a_Node000007"><a xlink:title=" ">
<polygon fill="#e0e0e0" stroke="#999999" points="129.38,-19.25 78.12,-19.25 78.12,0 129.38,0 129.38,-19.25"/>
<text xml:space="preserve" text-anchor="middle" x="103.75" y="-5.75" font-family="Helvetica,sans-Serif" font-size="10.00">stddef.h</text>
</a>
</g>
</g>
<!-- Node5&#45;&gt;Node7 -->
<g id="edge6_Node000005_Node000007" class="edge">
<title>Node5&#45;&gt;Node7</title>
<g id="a_edge6_Node000005_Node000007"><a xlink:title=" ">
<path fill="none" stroke="#63b8ff" d="M77.73,-165.37C86.86,-148.29 105.96,-109.71 112.75,-74.5 115.58,-59.82 113.01,-43.08 109.9,-30.42"/>
<polygon fill="#63b8ff" stroke="#63b8ff" points="113.28,-29.49 107.21,-20.81 106.54,-31.38 113.28,-29.49"/>
</a>
</g>
</g>
<!-- Node5&#45;&gt;Node8 -->
<g id="edge7_Node000005_Node000008" class="edge">
<title>Node5&#45;&gt;Node8</title>
<g id="a_edge7_Node000005_Node000008"><a xlink:title=" ">
<path fill="none" stroke="#63b8ff" d="M90.73,-165.34C107.1,-157.12 131.54,-144.84 150.51,-135.31"/>
<polygon fill="#63b8ff" stroke="#63b8ff" points="151.96,-138.5 159.33,-130.88 148.82,-132.24 151.96,-138.5"/>
</a>
</g>
</g>
<!-- Node8&#45;&gt;Node4 -->
<g id="edge8_Node000008_Node000004" class="edge">
<title>Node8&#45;&gt;Node4</title>
<g id="a_edge8_Node000008_Node000004"><a xlink:title=" ">
<path fill="none" stroke="#63b8ff" d="M191.47,-110.09C202.46,-102.29 218.59,-90.84 231.68,-81.54"/>
<polygon fill="#63b8ff" stroke="#63b8ff" points="233.6,-84.47 239.73,-75.83 229.55,-78.76 233.6,-84.47"/>
</a>
</g>
</g>
<!-- Node8&#45;&gt;Node7 -->
<g id="edge9_Node000008_Node000007" class="edge">
<title>Node8&#45;&gt;Node7</title>
<g id="a_edge9_Node000008_Node000007"><a xlink:title=" ">
<path fill="none" stroke="#63b8ff" d="M175.18,-110.43C169.77,-97.72 158.73,-73.59 145.75,-55.25 138.71,-45.3 129.56,-35.32 121.6,-27.33"/>
<polygon fill="#63b8ff" stroke="#63b8ff" points="124.27,-25.05 114.66,-20.59 119.39,-30.07 124.27,-25.05"/>
</a>
</g>
</g>
<!-- Node9 -->
<g id="Node000009" class="node">
<title>Node9</title>
<g id="a_Node000009"><a xlink:href="luaconf_8h.html" target="_top" xlink:title=" ">
<polygon fill="white" stroke="#666666" points="103.62,-74.5 47.88,-74.5 47.88,-55.25 103.62,-55.25 103.62,-74.5"/>
<text xml:space="preserve" text-anchor="middle" x="75.75" y="-61" font-family="Helvetica,sans-Serif" font-size="10.00">luaconf.h</text>
</a>
</g>
</g>
<!-- Node8&#45;&gt;Node9 -->
<g id="edge10_Node000008_Node000009" class="edge">
<title>Node8&#45;&gt;Node9</title>
<g id="a_edge10_Node000008_Node000009"><a xlink:title=" ">
<path fill="none" stroke="#63b8ff" d="M161.28,-110.09C145.44,-101.91 121.84,-89.71 103.44,-80.19"/>
<polygon fill="#63b8ff" stroke="#63b8ff" points="105.14,-77.13 94.65,-75.65 101.93,-83.35 105.14,-77.13"/>
</a>
</g>
</g>
<!-- Node9&#45;&gt;Node6 -->
<g id="edge11_Node000009_Node000006" class="edge">
<title>Node9&#45;&gt;Node6</title>
<g id="a_edge11_Node000009_Node000006"><a xlink:title=" ">
<path fill="none" stroke="#63b8ff" d="M67.16,-55.08C59.91,-47.65 49.3,-36.79 40.38,-27.66"/>
<polygon fill="#63b8ff" stroke="#63b8ff" points="43.07,-25.4 33.58,-20.69 38.06,-30.29 43.07,-25.4"/>
</a>
</g>
</g>
<!-- Node9&#45;&gt;Node7 -->
<g id="edge12_Node000009_Node000007" class="edge">
<title>Node9&#45;&gt;Node7</title>
<g id="a_edge12_Node000009_Node000007"><a xlink:title=" ">
<path fill="none" stroke="#63b8ff" d="M80.37,-55.08C84,-48.19 89.18,-38.34 93.74,-29.66"/>
<polygon fill="#63b8ff" stroke="#63b8ff" points="96.77,-31.43 98.32,-20.95 90.57,-28.17 96.77,-31.43"/>
</a>
</g>
</g>
<!-- Node10&#45;&gt;Node3 -->
<g id="edge16_Node000010_Node000003" class="edge">
<title>Node10&#45;&gt;Node3</title>
<g id="a_edge16_Node000010_Node000003"><a xlink:title=" ">
<path fill="none" stroke="#63b8ff" d="M321.69,-331.02C335.2,-318.62 355.19,-295.74 344.75,-276.25 337.62,-262.93 324.56,-252.9 311.86,-245.76"/>
<polygon fill="#63b8ff" stroke="#63b8ff" points="313.71,-242.78 303.21,-241.34 310.52,-249.01 313.71,-242.78"/>
</a>
</g>
</g>
<!-- Node10&#45;&gt;Node8 -->
<g id="edge15_Node000010_Node000008" class="edge">
<title>Node10&#45;&gt;Node8</title>
<g id="a_edge15_Node000010_Node000008"><a xlink:title=" ">
<path fill="none" stroke="#63b8ff" d="M286.44,-334.27C265.91,-328.07 237.28,-316.22 220.75,-295.5 201.74,-271.67 187.24,-182.28 181.47,-141.56"/>
<polygon fill="#63b8ff" stroke="#63b8ff" points="184.94,-141.12 180.12,-131.69 178.01,-142.08 184.94,-141.12"/>
</a>
</g>
</g>
<!-- Node11 -->
<g id="Node000011" class="node">
<title>Node11</title>
<g id="a_Node000011"><a xlink:href="ltm_8h.html" target="_top" xlink:title=" ">
<polygon fill="white" stroke="#666666" points="267.62,-295.5 229.88,-295.5 229.88,-276.25 267.62,-276.25 267.62,-295.5"/>
<text xml:space="preserve" text-anchor="middle" x="248.75" y="-282" font-family="Helvetica,sans-Serif" font-size="10.00">ltm.h</text>
</a>
</g>
</g>
<!-- Node10&#45;&gt;Node11 -->
<g id="edge17_Node000010_Node000011" class="edge">
<title>Node10&#45;&gt;Node11</title>
<g id="a_edge17_Node000010_Node000011"><a xlink:title=" ">
<path fill="none" stroke="#63b8ff" d="M300.23,-331.09C291.36,-323.47 278.44,-312.37 267.76,-303.2"/>
<polygon fill="#63b8ff" stroke="#63b8ff" points="270.13,-300.62 260.26,-296.76 265.57,-305.93 270.13,-300.62"/>
</a>
</g>
</g>
<!-- Node12 -->
<g id="Node000012" class="node">
<title>Node12</title>
<g id="a_Node000012"><a xlink:href="lzio_8h.html" target="_top" xlink:title=" ">
<polygon fill="white" stroke="#666666" points="173.38,-295.5 134.12,-295.5 134.12,-276.25 173.38,-276.25 173.38,-295.5"/>
<text xml:space="preserve" text-anchor="middle" x="153.75" y="-282" font-family="Helvetica,sans-Serif" font-size="10.00">lzio.h</text>
</a>
</g>
</g>
<!-- Node10&#45;&gt;Node12 -->
<g id="edge19_Node000010_Node000012" class="edge">
<title>Node10&#45;&gt;Node12</title>
<g id="a_edge19_Node000010_Node000012"><a xlink:title=" ">
<path fill="none" stroke="#63b8ff" d="M286.22,-331.8C258.69,-322.47 213.99,-307.31 184.24,-297.22"/>
<polygon fill="#63b8ff" stroke="#63b8ff" points="185.66,-294 175.07,-294.11 183.41,-300.63 185.66,-294"/>
</a>
</g>
</g>
<!-- Node14 -->
<g id="Node000014" class="node">
<title>Node14</title>
<g id="a_Node000014"><a xlink:title=" ">
<polygon fill="#e0e0e0" stroke="#999999" points="335.62,-295.5 285.88,-295.5 285.88,-276.25 335.62,-276.25 335.62,-295.5"/>
<text xml:space="preserve" text-anchor="middle" x="310.75" y="-282" font-family="Helvetica,sans-Serif" font-size="10.00">signal.h</text>
</a>
</g>
</g>
<!-- Node10&#45;&gt;Node14 -->
<g id="edge25_Node000010_Node000014" class="edge">
<title>Node10&#45;&gt;Node14</title>
<g id="a_edge25_Node000010_Node000014"><a xlink:title=" ">
<path fill="none" stroke="#63b8ff" d="M310.75,-331.33C310.75,-324.82 310.75,-315.67 310.75,-307.37"/>
<polygon fill="#63b8ff" stroke="#63b8ff" points="314.25,-307.37 310.75,-297.37 307.25,-307.37 314.25,-307.37"/>
</a>
</g>
</g>
<!-- Node11&#45;&gt;Node3 -->
<g id="edge18_Node000011_Node000003" class="edge">
<title>Node11&#45;&gt;Node3</title>
<g id="a_edge18_Node000011_Node000003"><a xlink:title=" ">
<path fill="none" stroke="#63b8ff" d="M253.54,-276.08C257.29,-269.19 262.66,-259.34 267.38,-250.66"/>
<polygon fill="#63b8ff" stroke="#63b8ff" points="270.42,-252.39 272.13,-241.94 264.28,-249.05 270.42,-252.39"/>
</a>
</g>
</g>
<!-- Node12&#45;&gt;Node8 -->
<g id="edge20_Node000012_Node000008" class="edge">
<title>Node12&#45;&gt;Node8</title>
<g id="a_edge20_Node000012_Node000008"><a xlink:title=" ">
<path fill="none" stroke="#63b8ff" d="M155.09,-276.07C158.96,-250.75 170.18,-177.25 175.66,-141.34"/>
<polygon fill="#63b8ff" stroke="#63b8ff" points="179.12,-141.88 177.17,-131.47 172.2,-140.83 179.12,-141.88"/>
</a>
</g>
</g>
<!-- Node13 -->
<g id="Node000013" class="node">
<title>Node13</title>
<g id="a_Node000013"><a xlink:href="lmem_8h.html" target="_top" xlink:title=" ">
<polygon fill="white" stroke="#666666" points="116.88,-240.25 68.62,-240.25 68.62,-221 116.88,-221 116.88,-240.25"/>
<text xml:space="preserve" text-anchor="middle" x="92.75" y="-226.75" font-family="Helvetica,sans-Serif" font-size="10.00">lmem.h</text>
</a>
</g>
</g>
<!-- Node12&#45;&gt;Node13 -->
<g id="edge21_Node000012_Node000013" class="edge">
<title>Node12&#45;&gt;Node13</title>
<g id="a_edge21_Node000012_Node000013"><a xlink:title=" ">
<path fill="none" stroke="#63b8ff" d="M143.4,-275.84C134.67,-268.22 121.96,-257.12 111.45,-247.95"/>
<polygon fill="#63b8ff" stroke="#63b8ff" points="113.92,-245.46 104.09,-241.52 109.32,-250.73 113.92,-245.46"/>
</a>
</g>
</g>
<!-- Node13&#45;&gt;Node5 -->
<g id="edge23_Node000013_Node000005" class="edge">
<title>Node13&#45;&gt;Node5</title>
<g id="a_edge23_Node000013_Node000005"><a xlink:title=" ">
<path fill="none" stroke="#63b8ff" d="M89.45,-220.83C86.92,-214.09 83.32,-204.52 80.12,-195.99"/>
<polygon fill="#63b8ff" stroke="#63b8ff" points="83.45,-194.91 76.66,-186.78 76.9,-197.37 83.45,-194.91"/>
</a>
</g>
</g>
<!-- Node13&#45;&gt;Node7 -->
<g id="edge22_Node000013_Node000007" class="edge">
<title>Node13&#45;&gt;Node7</title>
<g id="a_edge22_Node000013_Node000007"><a xlink:title=" ">
<path fill="none" stroke="#63b8ff" d="M75.07,-220.57C62.36,-212.98 46.21,-200.84 38.75,-185 14.18,-132.83 11.89,-106.28 38.75,-55.25 45.62,-42.19 58.24,-32.22 70.54,-25.05"/>
<polygon fill="#63b8ff" stroke="#63b8ff" points="72.13,-28.16 79.32,-20.38 68.85,-21.98 72.13,-28.16"/>
</a>
</g>
</g>
<!-- Node13&#45;&gt;Node8 -->
<g id="edge24_Node000013_Node000008" class="edge">
<title>Node13&#45;&gt;Node8</title>
<g id="a_edge24_Node000013_Node000008"><a xlink:title=" ">
<path fill="none" stroke="#63b8ff" d="M99.79,-220.75C113.9,-202.94 145.89,-162.58 164.53,-139.06"/>
<polygon fill="#63b8ff" stroke="#63b8ff" points="167.21,-141.32 170.67,-131.31 161.72,-136.98 167.21,-141.32"/>
</a>
</g>
</g>
</g>
</svg>
