<?xml version="1.0" encoding="UTF-8" standalone="no"?>
<!DOCTYPE svg PUBLIC "-//W3C//DTD SVG 1.1//EN"
 "http://www.w3.org/Graphics/SVG/1.1/DTD/svg11.dtd">
<!-- Generated by graphviz version 13.1.0 (20250701.0955)
 -->
<!-- Title: tonum Pages: 1 -->
<svg width="217pt" height="286pt"
 viewBox="0.00 0.00 217.00 286.00" xmlns="http://www.w3.org/2000/svg" xmlns:xlink="http://www.w3.org/1999/xlink">

<svg id="main" version="1.1" xmlns="http://www.w3.org/2000/svg" xmlns:xlink="http://www.w3.org/1999/xlink" xml:space="preserve">

<style type="text/css"><![CDATA[
.node, .edge {opacity: 0.7;}
.node.selected, .edge.selected {opacity: 1;}
.edge:hover path { stroke: red; }
.edge:hover polygon { stroke: red; fill: red; }
]]></style>
<script type="application/ecmascript" xlink:href="svg.min.js"/>
<svg id="graph" class="graph">
<g id="graph0" class="graph" transform="scale(1 1) rotate(0) translate(4 282.25)">
<title>tonum</title>
<!-- Node1 -->
<g id="Node000001" class="node">
<title>Node1</title>
<g id="a_Node000001"><a xlink:title=" ">
<polygon fill="#999999" stroke="#666666" points="208.5,-148.25 165.5,-148.25 165.5,-129 208.5,-129 208.5,-148.25"/>
<text xml:space="preserve" text-anchor="middle" x="187" y="-134.75" font-family="Helvetica,sans-Serif" font-size="10.00">tonum</text>
</a>
</g>
</g>
<!-- Node2 -->
<g id="Node000002" class="node">
<title>Node2</title>
<g id="a_Node000002"><a xlink:href="lstrlib_8c.html#afa2c944dafe82820f6f04dff68703634" target="_top" xlink:title=" ">
<polygon fill="white" stroke="#666666" points="129.5,-148.25 94.75,-148.25 94.75,-129 129.5,-129 129.5,-148.25"/>
<text xml:space="preserve" text-anchor="middle" x="112.12" y="-134.75" font-family="Helvetica,sans-Serif" font-size="10.00">arith</text>
</a>
</g>
</g>
<!-- Node1&#45;&gt;Node2 -->
<g id="edge1_Node000001_Node000002" class="edge">
<title>Node1&#45;&gt;Node2</title>
<g id="a_edge1_Node000001_Node000002"><a xlink:title=" ">
<path fill="none" stroke="#63b8ff" d="M153.9,-138.62C145.54,-138.62 136.88,-138.62 129.7,-138.62"/>
<polygon fill="#63b8ff" stroke="#63b8ff" points="153.8,-142.13 163.8,-138.63 153.8,-135.13 153.8,-142.13"/>
</a>
</g>
</g>
<!-- Node3 -->
<g id="Node000003" class="node">
<title>Node3</title>
<g id="a_Node000003"><a xlink:href="lstrlib_8c.html#a83cdf2094cab994d34c18858a990e555" target="_top" xlink:title=" ">
<polygon fill="white" stroke="#666666" points="57.25,-278.25 1.5,-278.25 1.5,-259 57.25,-259 57.25,-278.25"/>
<text xml:space="preserve" text-anchor="middle" x="29.38" y="-264.75" font-family="Helvetica,sans-Serif" font-size="10.00">arith_add</text>
</a>
</g>
</g>
<!-- Node2&#45;&gt;Node3 -->
<g id="edge2_Node000002_Node000003" class="edge">
<title>Node2&#45;&gt;Node3</title>
<g id="a_edge2_Node000002_Node000003"><a xlink:title=" ">
<path fill="none" stroke="#63b8ff" d="M105.33,-159.4C97.78,-183.53 82.64,-223.46 58.75,-250.62 56.13,-253.6 52.9,-256.27 49.57,-258.58"/>
<polygon fill="#63b8ff" stroke="#63b8ff" points="108.59,-160.7 108.08,-150.12 101.88,-158.71 108.59,-160.7"/>
</a>
</g>
</g>
<!-- Node4 -->
<g id="Node000004" class="node">
<title>Node4</title>
<g id="a_Node000004"><a xlink:href="lstrlib_8c.html#afd1d2f5e7f8c83185c68d20fc5dc8600" target="_top" xlink:title=" ">
<polygon fill="white" stroke="#666666" points="55.75,-241.25 3,-241.25 3,-222 55.75,-222 55.75,-241.25"/>
<text xml:space="preserve" text-anchor="middle" x="29.38" y="-227.75" font-family="Helvetica,sans-Serif" font-size="10.00">arith_div</text>
</a>
</g>
</g>
<!-- Node2&#45;&gt;Node4 -->
<g id="edge3_Node000002_Node000004" class="edge">
<title>Node2&#45;&gt;Node4</title>
<g id="a_edge3_Node000002_Node000004"><a xlink:title=" ">
<path fill="none" stroke="#63b8ff" d="M100.23,-158.51C90.72,-174.64 75.81,-197.3 58.75,-213.62 55.71,-216.53 52.14,-219.22 48.58,-221.6"/>
<polygon fill="#63b8ff" stroke="#63b8ff" points="103.25,-160.28 105.15,-149.86 97.16,-156.82 103.25,-160.28"/>
</a>
</g>
</g>
<!-- Node5 -->
<g id="Node000005" class="node">
<title>Node5</title>
<g id="a_Node000005"><a xlink:href="lstrlib_8c.html#a86a1afce81f747da4c0cf708065acd92" target="_top" xlink:title=" ">
<polygon fill="white" stroke="#666666" points="56.88,-204.25 1.88,-204.25 1.88,-185 56.88,-185 56.88,-204.25"/>
<text xml:space="preserve" text-anchor="middle" x="29.38" y="-190.75" font-family="Helvetica,sans-Serif" font-size="10.00">arith_idiv</text>
</a>
</g>
</g>
<!-- Node2&#45;&gt;Node5 -->
<g id="edge4_Node000002_Node000005" class="edge">
<title>Node2&#45;&gt;Node5</title>
<g id="a_edge4_Node000002_Node000005"><a xlink:title=" ">
<path fill="none" stroke="#63b8ff" d="M88.71,-155.36C79.52,-162.09 68.72,-169.86 58.75,-176.62 54.89,-179.25 50.67,-181.99 46.69,-184.52"/>
<polygon fill="#63b8ff" stroke="#63b8ff" points="90.76,-158.2 96.72,-149.44 86.6,-152.57 90.76,-158.2"/>
</a>
</g>
</g>
<!-- Node6 -->
<g id="Node000006" class="node">
<title>Node6</title>
<g id="a_Node000006"><a xlink:href="lstrlib_8c.html#a2a1f4d692fc02d6586bc12a07924f488" target="_top" xlink:title=" ">
<polygon fill="white" stroke="#666666" points="58.75,-167.25 0,-167.25 0,-148 58.75,-148 58.75,-167.25"/>
<text xml:space="preserve" text-anchor="middle" x="29.38" y="-153.75" font-family="Helvetica,sans-Serif" font-size="10.00">arith_mod</text>
</a>
</g>
</g>
<!-- Node2&#45;&gt;Node6 -->
<g id="edge5_Node000002_Node000006" class="edge">
<title>Node2&#45;&gt;Node6</title>
<g id="a_edge5_Node000002_Node000006"><a xlink:title=" ">
<path fill="none" stroke="#63b8ff" d="M83.28,-145.18C75.49,-147.01 67.02,-149 59.17,-150.85"/>
<polygon fill="#63b8ff" stroke="#63b8ff" points="83.99,-148.61 92.92,-142.91 82.38,-141.79 83.99,-148.61"/>
</a>
</g>
</g>
<!-- Node7 -->
<g id="Node000007" class="node">
<title>Node7</title>
<g id="a_Node000007"><a xlink:href="lstrlib_8c.html#a9162078e35bac5d03f26e9473a0ebf37" target="_top" xlink:title=" ">
<polygon fill="white" stroke="#666666" points="57.25,-130.25 1.5,-130.25 1.5,-111 57.25,-111 57.25,-130.25"/>
<text xml:space="preserve" text-anchor="middle" x="29.38" y="-116.75" font-family="Helvetica,sans-Serif" font-size="10.00">arith_mul</text>
</a>
</g>
</g>
<!-- Node2&#45;&gt;Node7 -->
<g id="edge6_Node000002_Node000007" class="edge">
<title>Node2&#45;&gt;Node7</title>
<g id="a_edge6_Node000002_Node000007"><a xlink:title=" ">
<path fill="none" stroke="#63b8ff" d="M83.32,-132.43C74.99,-130.57 65.86,-128.54 57.57,-126.69"/>
<polygon fill="#63b8ff" stroke="#63b8ff" points="82.39,-135.81 92.92,-134.57 83.92,-128.97 82.39,-135.81"/>
</a>
</g>
</g>
<!-- Node8 -->
<g id="Node000008" class="node">
<title>Node8</title>
<g id="a_Node000008"><a xlink:href="lstrlib_8c.html#ad8c2b27458937cc9a19a949872938fc6" target="_top" xlink:title=" ">
<polygon fill="white" stroke="#666666" points="58.38,-93.25 0.38,-93.25 0.38,-74 58.38,-74 58.38,-93.25"/>
<text xml:space="preserve" text-anchor="middle" x="29.38" y="-79.75" font-family="Helvetica,sans-Serif" font-size="10.00">arith_pow</text>
</a>
</g>
</g>
<!-- Node2&#45;&gt;Node8 -->
<g id="edge7_Node000002_Node000008" class="edge">
<title>Node2&#45;&gt;Node8</title>
<g id="a_edge7_Node000002_Node000008"><a xlink:title=" ">
<path fill="none" stroke="#63b8ff" d="M88.29,-122.12C79.17,-115.63 68.53,-108.18 58.75,-101.62 54.78,-98.96 50.44,-96.16 46.37,-93.58"/>
<polygon fill="#63b8ff" stroke="#63b8ff" points="86.07,-124.84 96.24,-127.82 90.15,-119.15 86.07,-124.84"/>
</a>
</g>
</g>
<!-- Node9 -->
<g id="Node000009" class="node">
<title>Node9</title>
<g id="a_Node000009"><a xlink:href="lstrlib_8c.html#a2c0d2a7efd64b03bb81a22f2dd974fc3" target="_top" xlink:title=" ">
<polygon fill="white" stroke="#666666" points="57.25,-56.25 1.5,-56.25 1.5,-37 57.25,-37 57.25,-56.25"/>
<text xml:space="preserve" text-anchor="middle" x="29.38" y="-42.75" font-family="Helvetica,sans-Serif" font-size="10.00">arith_sub</text>
</a>
</g>
</g>
<!-- Node2&#45;&gt;Node9 -->
<g id="edge8_Node000002_Node000009" class="edge">
<title>Node2&#45;&gt;Node9</title>
<g id="a_edge8_Node000002_Node000009"><a xlink:title=" ">
<path fill="none" stroke="#63b8ff" d="M100.02,-118.76C90.48,-102.86 75.62,-80.66 58.75,-64.62 55.71,-61.73 52.13,-59.04 48.56,-56.67"/>
<polygon fill="#63b8ff" stroke="#63b8ff" points="96.92,-120.4 104.97,-127.29 102.98,-116.88 96.92,-120.4"/>
</a>
</g>
</g>
<!-- Node10 -->
<g id="Node000010" class="node">
<title>Node10</title>
<g id="a_Node000010"><a xlink:href="lstrlib_8c.html#ac78f63c6c1908d139ffadb3f28d14c21" target="_top" xlink:title=" ">
<polygon fill="white" stroke="#666666" points="58.75,-19.25 0,-19.25 0,0 58.75,0 58.75,-19.25"/>
<text xml:space="preserve" text-anchor="middle" x="29.38" y="-5.75" font-family="Helvetica,sans-Serif" font-size="10.00">arith_unm</text>
</a>
</g>
</g>
<!-- Node2&#45;&gt;Node10 -->
<g id="edge9_Node000002_Node000010" class="edge">
<title>Node2&#45;&gt;Node10</title>
<g id="a_edge9_Node000002_Node000010"><a xlink:title=" ">
<path fill="none" stroke="#63b8ff" d="M105.18,-117.7C97.55,-93.77 82.41,-54.42 58.75,-27.62 56.12,-24.65 52.89,-21.99 49.56,-19.68"/>
<polygon fill="#63b8ff" stroke="#63b8ff" points="101.81,-118.66 108.05,-127.22 108.51,-116.64 101.81,-118.66"/>
</a>
</g>
</g>
</g>
</svg>
</svg>

<style type='text/css'>
<![CDATA[
[data-mouse-over-selected='false'] { opacity: 0.7; }
[data-mouse-over-selected='true']  { opacity: 1.0; }
]]>
</style>
<script type="application/ecmascript"><![CDATA[
document.addEventListener('DOMContentLoaded', (event) => {
  highlightEdges();
  highlightAdjacentNodes();
});
]]></script>
</svg>
