<?xml version="1.0" encoding="UTF-8" standalone="no"?>
<!DOCTYPE svg PUBLIC "-//W3C//DTD SVG 1.1//EN"
 "http://www.w3.org/Graphics/SVG/1.1/DTD/svg11.dtd">
<!-- Generated by graphviz version 13.1.0 (20250701.0955)
 -->
<!-- Title: lmemfind Pages: 1 -->
<svg width="265pt" height="64pt"
 viewBox="0.00 0.00 265.00 64.00" xmlns="http://www.w3.org/2000/svg" xmlns:xlink="http://www.w3.org/1999/xlink">
<g id="graph0" class="graph" transform="scale(1 1) rotate(0) translate(4 60.25)">
<title>lmemfind</title>
<!-- Node1 -->
<g id="Node000001" class="node">
<title>Node1</title>
<g id="a_Node000001"><a xlink:title=" ">
<polygon fill="#999999" stroke="#666666" points="256.5,-37.25 200.75,-37.25 200.75,-18 256.5,-18 256.5,-37.25"/>
<text xml:space="preserve" text-anchor="middle" x="228.62" y="-23.75" font-family="Helvetica,sans-Serif" font-size="10.00">lmemfind</text>
</a>
</g>
</g>
<!-- Node2 -->
<g id="Node000002" class="node">
<title>Node2</title>
<g id="a_Node000002"><a xlink:href="lstrlib_8c.html#a692514aa32ae2668683a4db15259d26b" target="_top" xlink:title=" ">
<polygon fill="white" stroke="#666666" points="164.75,-37.25 95.5,-37.25 95.5,-18 164.75,-18 164.75,-37.25"/>
<text xml:space="preserve" text-anchor="middle" x="130.12" y="-23.75" font-family="Helvetica,sans-Serif" font-size="10.00">str_find_aux</text>
</a>
</g>
</g>
<!-- Node1&#45;&gt;Node2 -->
<g id="edge1_Node000001_Node000002" class="edge">
<title>Node1&#45;&gt;Node2</title>
<g id="a_edge1_Node000001_Node000002"><a xlink:title=" ">
<path fill="none" stroke="#63b8ff" d="M189.14,-27.62C181.13,-27.62 172.76,-27.62 164.94,-27.62"/>
<polygon fill="#63b8ff" stroke="#63b8ff" points="188.97,-31.13 198.97,-27.63 188.97,-24.13 188.97,-31.13"/>
</a>
</g>
</g>
<!-- Node3 -->
<g id="Node000003" class="node">
<title>Node3</title>
<g id="a_Node000003"><a xlink:href="lstrlib_8c.html#a362a4bc9ba81ce87253cc3d74f015808" target="_top" xlink:title=" ">
<polygon fill="white" stroke="#666666" points="53.88,-56.25 5.63,-56.25 5.63,-37 53.88,-37 53.88,-56.25"/>
<text xml:space="preserve" text-anchor="middle" x="29.75" y="-42.75" font-family="Helvetica,sans-Serif" font-size="10.00">str_find</text>
</a>
</g>
</g>
<!-- Node2&#45;&gt;Node3 -->
<g id="edge2_Node000002_Node000003" class="edge">
<title>Node2&#45;&gt;Node3</title>
<g id="a_edge2_Node000002_Node000003"><a xlink:title=" ">
<path fill="none" stroke="#63b8ff" d="M84.19,-36.3C73.8,-38.31 63.16,-40.37 54.13,-42.11"/>
<polygon fill="#63b8ff" stroke="#63b8ff" points="84.63,-39.78 93.78,-34.45 83.3,-32.91 84.63,-39.78"/>
</a>
</g>
</g>
<!-- Node4 -->
<g id="Node000004" class="node">
<title>Node4</title>
<g id="a_Node000004"><a xlink:href="lstrlib_8c.html#a4b605e43b8f5738db9eae902bbc00f00" target="_top" xlink:title=" ">
<polygon fill="white" stroke="#666666" points="59.5,-19.25 0,-19.25 0,0 59.5,0 59.5,-19.25"/>
<text xml:space="preserve" text-anchor="middle" x="29.75" y="-5.75" font-family="Helvetica,sans-Serif" font-size="10.00">str_match</text>
</a>
</g>
</g>
<!-- Node2&#45;&gt;Node4 -->
<g id="edge3_Node000002_Node000004" class="edge">
<title>Node2&#45;&gt;Node4</title>
<g id="a_edge3_Node000002_Node000004"><a xlink:title=" ">
<path fill="none" stroke="#63b8ff" d="M84.15,-19.4C75.86,-17.88 67.41,-16.33 59.75,-14.93"/>
<polygon fill="#63b8ff" stroke="#63b8ff" points="83.31,-22.8 93.78,-21.16 84.57,-15.92 83.31,-22.8"/>
</a>
</g>
</g>
</g>
</svg>
