<?xml version="1.0" encoding="UTF-8" standalone="no"?>
<!DOCTYPE svg PUBLIC "-//W3C//DTD SVG 1.1//EN"
 "http://www.w3.org/Graphics/SVG/1.1/DTD/svg11.dtd">
<!-- Generated by graphviz version 13.1.0 (20250701.0955)
 -->
<!-- Title: get_onecapture Pages: 1 -->
<svg width="534pt" height="176pt"
 viewBox="0.00 0.00 534.00 176.00" xmlns="http://www.w3.org/2000/svg" xmlns:xlink="http://www.w3.org/1999/xlink">
<g id="graph0" class="graph" transform="scale(1 1) rotate(0) translate(4 172.25)">
<title>get_onecapture</title>
<!-- Node1 -->
<g id="Node000001" class="node">
<title>Node1</title>
<g id="a_Node000001"><a xlink:title=" ">
<polygon fill="#999999" stroke="#666666" points="525.5,-149.25 442.75,-149.25 442.75,-130 525.5,-130 525.5,-149.25"/>
<text xml:space="preserve" text-anchor="middle" x="484.12" y="-135.75" font-family="Helvetica,sans-Serif" font-size="10.00">get_onecapture</text>
</a>
</g>
</g>
<!-- Node2 -->
<g id="Node000002" class="node">
<title>Node2</title>
<g id="a_Node000002"><a xlink:href="lstrlib_8c.html#ad5f7e3fbcadc8825f7f650ecf458fc72" target="_top" xlink:title=" ">
<polygon fill="white" stroke="#666666" points="261.75,-168.25 219.5,-168.25 219.5,-149 261.75,-149 261.75,-168.25"/>
<text xml:space="preserve" text-anchor="middle" x="240.62" y="-154.75" font-family="Helvetica,sans-Serif" font-size="10.00">add_s</text>
</a>
</g>
</g>
<!-- Node1&#45;&gt;Node2 -->
<g id="edge1_Node000001_Node000002" class="edge">
<title>Node1&#45;&gt;Node2</title>
<g id="a_edge1_Node000001_Node000002"><a xlink:title=" ">
<path fill="none" stroke="#63b8ff" d="M431.25,-143.71C378.41,-147.86 299.13,-154.1 262.08,-157.02"/>
<polygon fill="#63b8ff" stroke="#63b8ff" points="431.23,-147.22 440.92,-142.95 430.68,-140.24 431.23,-147.22"/>
</a>
</g>
</g>
<!-- Node5 -->
<g id="Node000005" class="node">
<title>Node5</title>
<g id="a_Node000005"><a xlink:href="lstrlib_8c.html#a24a14b4e6e90bac4610dd334bb0b51b6" target="_top" xlink:title=" ">
<polygon fill="white" stroke="#666666" points="406.75,-130.25 316.5,-130.25 316.5,-111 406.75,-111 406.75,-130.25"/>
<text xml:space="preserve" text-anchor="middle" x="361.62" y="-116.75" font-family="Helvetica,sans-Serif" font-size="10.00">push_onecapture</text>
</a>
</g>
</g>
<!-- Node1&#45;&gt;Node5 -->
<g id="edge4_Node000001_Node000005" class="edge">
<title>Node1&#45;&gt;Node5</title>
<g id="a_edge4_Node000001_Node000005"><a xlink:title=" ">
<path fill="none" stroke="#63b8ff" d="M431.18,-131.43C423.16,-130.17 414.94,-128.87 407.1,-127.64"/>
<polygon fill="#63b8ff" stroke="#63b8ff" points="430.41,-134.86 440.83,-132.96 431.5,-127.94 430.41,-134.86"/>
</a>
</g>
</g>
<!-- Node3 -->
<g id="Node000003" class="node">
<title>Node3</title>
<g id="a_Node000003"><a xlink:href="lstrlib_8c.html#a853703c83ab694a70212461d5cfe7843" target="_top" xlink:title=" ">
<polygon fill="white" stroke="#666666" points="160.25,-130.25 100,-130.25 100,-111 160.25,-111 160.25,-130.25"/>
<text xml:space="preserve" text-anchor="middle" x="130.12" y="-116.75" font-family="Helvetica,sans-Serif" font-size="10.00">add_value</text>
</a>
</g>
</g>
<!-- Node2&#45;&gt;Node3 -->
<g id="edge2_Node000002_Node000003" class="edge">
<title>Node2&#45;&gt;Node3</title>
<g id="a_edge2_Node000002_Node000003"><a xlink:title=" ">
<path fill="none" stroke="#63b8ff" d="M208.63,-147.77C193.21,-142.37 174.69,-135.88 159.63,-130.61"/>
<polygon fill="#63b8ff" stroke="#63b8ff" points="207.19,-150.97 217.79,-150.98 209.51,-144.37 207.19,-150.97"/>
</a>
</g>
</g>
<!-- Node4 -->
<g id="Node000004" class="node">
<title>Node4</title>
<g id="a_Node000004"><a xlink:href="lstrlib_8c.html#a42337c674d265175bcc2b2f3809c7339" target="_top" xlink:title=" ">
<polygon fill="white" stroke="#666666" points="56.5,-130.25 3,-130.25 3,-111 56.5,-111 56.5,-130.25"/>
<text xml:space="preserve" text-anchor="middle" x="29.75" y="-116.75" font-family="Helvetica,sans-Serif" font-size="10.00">str_gsub</text>
</a>
</g>
</g>
<!-- Node3&#45;&gt;Node4 -->
<g id="edge3_Node000003_Node000004" class="edge">
<title>Node3&#45;&gt;Node4</title>
<g id="a_edge3_Node000003_Node000004"><a xlink:title=" ">
<path fill="none" stroke="#63b8ff" d="M88.38,-120.62C77.74,-120.62 66.56,-120.62 56.9,-120.62"/>
<polygon fill="#63b8ff" stroke="#63b8ff" points="88.1,-124.13 98.1,-120.63 88.1,-117.13 88.1,-124.13"/>
</a>
</g>
</g>
<!-- Node5&#45;&gt;Node3 -->
<g id="edge5_Node000005_Node000003" class="edge">
<title>Node5&#45;&gt;Node3</title>
<g id="a_edge5_Node000005_Node000003"><a xlink:title=" ">
<path fill="none" stroke="#63b8ff" d="M304.64,-120.62C259.17,-120.62 196.84,-120.62 160.59,-120.62"/>
<polygon fill="#63b8ff" stroke="#63b8ff" points="304.59,-124.13 314.59,-120.63 304.59,-117.13 304.59,-124.13"/>
</a>
</g>
</g>
<!-- Node6 -->
<g id="Node000006" class="node">
<title>Node6</title>
<g id="a_Node000006"><a xlink:href="lstrlib_8c.html#ad14703c4bc40d7c1951dedb7bc7554f7" target="_top" xlink:title=" ">
<polygon fill="white" stroke="#666666" points="280.5,-92.25 200.75,-92.25 200.75,-73 280.5,-73 280.5,-92.25"/>
<text xml:space="preserve" text-anchor="middle" x="240.62" y="-78.75" font-family="Helvetica,sans-Serif" font-size="10.00">push_captures</text>
</a>
</g>
</g>
<!-- Node5&#45;&gt;Node6 -->
<g id="edge6_Node000005_Node000006" class="edge">
<title>Node5&#45;&gt;Node6</title>
<g id="a_edge6_Node000005_Node000006"><a xlink:title=" ">
<path fill="none" stroke="#63b8ff" d="M318.47,-107.16C303.48,-102.38 286.87,-97.07 272.94,-92.62"/>
<polygon fill="#63b8ff" stroke="#63b8ff" points="317.01,-110.37 327.61,-110.08 319.14,-103.7 317.01,-110.37"/>
</a>
</g>
</g>
<!-- Node6&#45;&gt;Node3 -->
<g id="edge7_Node000006_Node000003" class="edge">
<title>Node6&#45;&gt;Node3</title>
<g id="a_edge7_Node000006_Node000003"><a xlink:title=" ">
<path fill="none" stroke="#63b8ff" d="M199.99,-96.51C186.64,-101.18 172,-106.31 159.67,-110.63"/>
<polygon fill="#63b8ff" stroke="#63b8ff" points="201.12,-99.82 209.41,-93.21 198.81,-93.21 201.12,-99.82"/>
</a>
</g>
</g>
<!-- Node7 -->
<g id="Node000007" class="node">
<title>Node7</title>
<g id="a_Node000007"><a xlink:href="lstrlib_8c.html#ab7cb0ba6191e1aa9455f6522d3483a02" target="_top" xlink:title=" ">
<polygon fill="white" stroke="#666666" points="164.75,-93.25 95.5,-93.25 95.5,-74 164.75,-74 164.75,-93.25"/>
<text xml:space="preserve" text-anchor="middle" x="130.12" y="-79.75" font-family="Helvetica,sans-Serif" font-size="10.00">gmatch_aux</text>
</a>
</g>
</g>
<!-- Node6&#45;&gt;Node7 -->
<g id="edge8_Node000006_Node000007" class="edge">
<title>Node6&#45;&gt;Node7</title>
<g id="a_edge8_Node000006_Node000007"><a xlink:title=" ">
<path fill="none" stroke="#63b8ff" d="M189.14,-83.09C181.04,-83.16 172.82,-83.24 165.21,-83.31"/>
<polygon fill="#63b8ff" stroke="#63b8ff" points="188.97,-86.59 198.94,-83 188.91,-79.59 188.97,-86.59"/>
</a>
</g>
</g>
<!-- Node9 -->
<g id="Node000009" class="node">
<title>Node9</title>
<g id="a_Node000009"><a xlink:href="lstrlib_8c.html#a692514aa32ae2668683a4db15259d26b" target="_top" xlink:title=" ">
<polygon fill="white" stroke="#666666" points="164.75,-56.25 95.5,-56.25 95.5,-37 164.75,-37 164.75,-56.25"/>
<text xml:space="preserve" text-anchor="middle" x="130.12" y="-42.75" font-family="Helvetica,sans-Serif" font-size="10.00">str_find_aux</text>
</a>
</g>
</g>
<!-- Node6&#45;&gt;Node9 -->
<g id="edge10_Node000006_Node000009" class="edge">
<title>Node6&#45;&gt;Node9</title>
<g id="a_edge10_Node000006_Node000009"><a xlink:title=" ">
<path fill="none" stroke="#63b8ff" d="M198.21,-68.88C185.97,-64.82 172.81,-60.45 161.41,-56.67"/>
<polygon fill="#63b8ff" stroke="#63b8ff" points="197.08,-72.2 207.68,-72.02 199.29,-65.55 197.08,-72.2"/>
</a>
</g>
</g>
<!-- Node8 -->
<g id="Node000008" class="node">
<title>Node8</title>
<g id="a_Node000008"><a xlink:href="lstrlib_8c.html#ab55a72bb412d6186c82fd75de44cd031" target="_top" xlink:title=" ">
<polygon fill="white" stroke="#666666" points="53.88,-93.25 5.63,-93.25 5.63,-74 53.88,-74 53.88,-93.25"/>
<text xml:space="preserve" text-anchor="middle" x="29.75" y="-79.75" font-family="Helvetica,sans-Serif" font-size="10.00">gmatch</text>
</a>
</g>
</g>
<!-- Node7&#45;&gt;Node8 -->
<g id="edge9_Node000007_Node000008" class="edge">
<title>Node7&#45;&gt;Node8</title>
<g id="a_edge9_Node000007_Node000008"><a xlink:title=" ">
<path fill="none" stroke="#63b8ff" d="M83.85,-83.62C73.57,-83.62 63.06,-83.62 54.13,-83.62"/>
<polygon fill="#63b8ff" stroke="#63b8ff" points="83.76,-87.13 93.76,-83.63 83.76,-80.13 83.76,-87.13"/>
</a>
</g>
</g>
<!-- Node10 -->
<g id="Node000010" class="node">
<title>Node10</title>
<g id="a_Node000010"><a xlink:href="lstrlib_8c.html#a362a4bc9ba81ce87253cc3d74f015808" target="_top" xlink:title=" ">
<polygon fill="white" stroke="#666666" points="53.88,-56.25 5.63,-56.25 5.63,-37 53.88,-37 53.88,-56.25"/>
<text xml:space="preserve" text-anchor="middle" x="29.75" y="-42.75" font-family="Helvetica,sans-Serif" font-size="10.00">str_find</text>
</a>
</g>
</g>
<!-- Node9&#45;&gt;Node10 -->
<g id="edge11_Node000009_Node000010" class="edge">
<title>Node9&#45;&gt;Node10</title>
<g id="a_edge11_Node000009_Node000010"><a xlink:title=" ">
<path fill="none" stroke="#63b8ff" d="M83.85,-46.62C73.57,-46.62 63.06,-46.62 54.13,-46.62"/>
<polygon fill="#63b8ff" stroke="#63b8ff" points="83.76,-50.13 93.76,-46.63 83.76,-43.13 83.76,-50.13"/>
</a>
</g>
</g>
<!-- Node11 -->
<g id="Node000011" class="node">
<title>Node11</title>
<g id="a_Node000011"><a xlink:href="lstrlib_8c.html#a4b605e43b8f5738db9eae902bbc00f00" target="_top" xlink:title=" ">
<polygon fill="white" stroke="#666666" points="59.5,-19.25 0,-19.25 0,0 59.5,0 59.5,-19.25"/>
<text xml:space="preserve" text-anchor="middle" x="29.75" y="-5.75" font-family="Helvetica,sans-Serif" font-size="10.00">str_match</text>
</a>
</g>
</g>
<!-- Node9&#45;&gt;Node11 -->
<g id="edge12_Node000009_Node000011" class="edge">
<title>Node9&#45;&gt;Node11</title>
<g id="a_edge12_Node000009_Node000011"><a xlink:title=" ">
<path fill="none" stroke="#63b8ff" d="M91.71,-32.55C80.36,-28.28 68.11,-23.68 57.6,-19.72"/>
<polygon fill="#63b8ff" stroke="#63b8ff" points="90.23,-35.74 100.83,-35.98 92.7,-29.19 90.23,-35.74"/>
</a>
</g>
</g>
</g>
</svg>
