<?xml version="1.0" encoding="UTF-8" standalone="no"?>
<!DOCTYPE svg PUBLIC "-//W3C//DTD SVG 1.1//EN"
 "http://www.w3.org/Graphics/SVG/1.1/DTD/svg11.dtd">
<!-- Generated by graphviz version 13.1.0 (20250701.0955)
 -->
<!-- Title: posrelatI Pages: 1 -->
<svg width="262pt" height="175pt"
 viewBox="0.00 0.00 262.00 175.00" xmlns="http://www.w3.org/2000/svg" xmlns:xlink="http://www.w3.org/1999/xlink">
<g id="graph0" class="graph" transform="scale(1 1) rotate(0) translate(4 171.25)">
<title>posrelatI</title>
<!-- Node1 -->
<g id="Node000001" class="node">
<title>Node1</title>
<g id="a_Node000001"><a xlink:title=" ">
<polygon fill="#999999" stroke="#666666" points="254.25,-93.25 200.75,-93.25 200.75,-74 254.25,-74 254.25,-93.25"/>
<text xml:space="preserve" text-anchor="middle" x="227.5" y="-79.75" font-family="Helvetica,sans-Serif" font-size="10.00">posrelatI</text>
</a>
</g>
</g>
<!-- Node2 -->
<g id="Node000002" class="node">
<title>Node2</title>
<g id="a_Node000002"><a xlink:href="lstrlib_8c.html#ab55a72bb412d6186c82fd75de44cd031" target="_top" xlink:title=" ">
<polygon fill="white" stroke="#666666" points="154.25,-167.25 106,-167.25 106,-148 154.25,-148 154.25,-167.25"/>
<text xml:space="preserve" text-anchor="middle" x="130.12" y="-153.75" font-family="Helvetica,sans-Serif" font-size="10.00">gmatch</text>
</a>
</g>
</g>
<!-- Node1&#45;&gt;Node2 -->
<g id="edge1_Node000001_Node000002" class="edge">
<title>Node1&#45;&gt;Node2</title>
<g id="a_edge1_Node000001_Node000002"><a xlink:title=" ">
<path fill="none" stroke="#63b8ff" d="M208.98,-101.66C197.13,-113.31 180.77,-128.33 164.75,-139.62 160.75,-142.45 156.25,-145.14 151.87,-147.55"/>
<polygon fill="#63b8ff" stroke="#63b8ff" points="211.43,-104.16 216.02,-94.61 206.48,-99.22 211.43,-104.16"/>
</a>
</g>
</g>
<!-- Node3 -->
<g id="Node000003" class="node">
<title>Node3</title>
<g id="a_Node000003"><a xlink:href="lstrlib_8c.html#ae561770420cfd1894054415df9d4c423" target="_top" xlink:title=" ">
<polygon fill="white" stroke="#666666" points="155.75,-130.25 104.5,-130.25 104.5,-111 155.75,-111 155.75,-130.25"/>
<text xml:space="preserve" text-anchor="middle" x="130.12" y="-116.75" font-family="Helvetica,sans-Serif" font-size="10.00">str_byte</text>
</a>
</g>
</g>
<!-- Node1&#45;&gt;Node3 -->
<g id="edge2_Node000001_Node000003" class="edge">
<title>Node1&#45;&gt;Node3</title>
<g id="a_edge2_Node000001_Node000003"><a xlink:title=" ">
<path fill="none" stroke="#63b8ff" d="M189.97,-97.8C178.68,-102.18 166.5,-106.9 156.17,-110.91"/>
<polygon fill="#63b8ff" stroke="#63b8ff" points="190.97,-101.16 199.03,-94.28 188.44,-94.64 190.97,-101.16"/>
</a>
</g>
</g>
<!-- Node4 -->
<g id="Node000004" class="node">
<title>Node4</title>
<g id="a_Node000004"><a xlink:href="lstrlib_8c.html#a692514aa32ae2668683a4db15259d26b" target="_top" xlink:title=" ">
<polygon fill="white" stroke="#666666" points="164.75,-93.25 95.5,-93.25 95.5,-74 164.75,-74 164.75,-93.25"/>
<text xml:space="preserve" text-anchor="middle" x="130.12" y="-79.75" font-family="Helvetica,sans-Serif" font-size="10.00">str_find_aux</text>
</a>
</g>
</g>
<!-- Node1&#45;&gt;Node4 -->
<g id="edge3_Node000001_Node000004" class="edge">
<title>Node1&#45;&gt;Node4</title>
<g id="a_edge3_Node000001_Node000004"><a xlink:title=" ">
<path fill="none" stroke="#63b8ff" d="M189.18,-83.62C181.22,-83.62 172.86,-83.62 165.04,-83.62"/>
<polygon fill="#63b8ff" stroke="#63b8ff" points="188.92,-87.13 198.92,-83.63 188.92,-80.13 188.92,-87.13"/>
</a>
</g>
</g>
<!-- Node7 -->
<g id="Node000007" class="node">
<title>Node7</title>
<g id="a_Node000007"><a xlink:href="lstrlib_8c.html#a039b391d5f43533a0ce750c5e40d7752" target="_top" xlink:title=" ">
<polygon fill="white" stroke="#666666" points="154.25,-56.25 106,-56.25 106,-37 154.25,-37 154.25,-56.25"/>
<text xml:space="preserve" text-anchor="middle" x="130.12" y="-42.75" font-family="Helvetica,sans-Serif" font-size="10.00">str_sub</text>
</a>
</g>
</g>
<!-- Node1&#45;&gt;Node7 -->
<g id="edge6_Node000001_Node000007" class="edge">
<title>Node1&#45;&gt;Node7</title>
<g id="a_edge6_Node000001_Node000007"><a xlink:title=" ">
<path fill="none" stroke="#63b8ff" d="M189.9,-69.43C178.03,-64.82 165.19,-59.84 154.55,-55.71"/>
<polygon fill="#63b8ff" stroke="#63b8ff" points="188.44,-72.61 199.03,-72.97 190.97,-66.09 188.44,-72.61"/>
</a>
</g>
</g>
<!-- Node8 -->
<g id="Node000008" class="node">
<title>Node8</title>
<g id="a_Node000008"><a xlink:href="lstrlib_8c.html#a3f3c1925e7829cbe972a744fa9168ec3" target="_top" xlink:title=" ">
<polygon fill="white" stroke="#666666" points="162.12,-19.25 98.12,-19.25 98.12,0 162.12,0 162.12,-19.25"/>
<text xml:space="preserve" text-anchor="middle" x="130.12" y="-5.75" font-family="Helvetica,sans-Serif" font-size="10.00">str_unpack</text>
</a>
</g>
</g>
<!-- Node1&#45;&gt;Node8 -->
<g id="edge7_Node000001_Node000008" class="edge">
<title>Node1&#45;&gt;Node8</title>
<g id="a_edge7_Node000001_Node000008"><a xlink:title=" ">
<path fill="none" stroke="#63b8ff" d="M208.98,-65.59C197.13,-53.94 180.77,-38.92 164.75,-27.62 160.75,-24.8 156.25,-22.11 151.87,-19.7"/>
<polygon fill="#63b8ff" stroke="#63b8ff" points="206.48,-68.03 216.02,-72.64 211.43,-63.09 206.48,-68.03"/>
</a>
</g>
</g>
<!-- Node5 -->
<g id="Node000005" class="node">
<title>Node5</title>
<g id="a_Node000005"><a xlink:href="lstrlib_8c.html#a362a4bc9ba81ce87253cc3d74f015808" target="_top" xlink:title=" ">
<polygon fill="white" stroke="#666666" points="53.88,-111.25 5.63,-111.25 5.63,-92 53.88,-92 53.88,-111.25"/>
<text xml:space="preserve" text-anchor="middle" x="29.75" y="-97.75" font-family="Helvetica,sans-Serif" font-size="10.00">str_find</text>
</a>
</g>
</g>
<!-- Node4&#45;&gt;Node5 -->
<g id="edge4_Node000004_Node000005" class="edge">
<title>Node4&#45;&gt;Node5</title>
<g id="a_edge4_Node000004_Node000005"><a xlink:title=" ">
<path fill="none" stroke="#63b8ff" d="M84.19,-91.85C73.8,-93.75 63.16,-95.7 54.13,-97.35"/>
<polygon fill="#63b8ff" stroke="#63b8ff" points="84.57,-95.33 93.78,-90.09 83.31,-88.45 84.57,-95.33"/>
</a>
</g>
</g>
<!-- Node6 -->
<g id="Node000006" class="node">
<title>Node6</title>
<g id="a_Node000006"><a xlink:href="lstrlib_8c.html#a4b605e43b8f5738db9eae902bbc00f00" target="_top" xlink:title=" ">
<polygon fill="white" stroke="#666666" points="59.5,-74.25 0,-74.25 0,-55 59.5,-55 59.5,-74.25"/>
<text xml:space="preserve" text-anchor="middle" x="29.75" y="-60.75" font-family="Helvetica,sans-Serif" font-size="10.00">str_match</text>
</a>
</g>
</g>
<!-- Node4&#45;&gt;Node6 -->
<g id="edge5_Node000004_Node000006" class="edge">
<title>Node4&#45;&gt;Node6</title>
<g id="a_edge5_Node000004_Node000006"><a xlink:title=" ">
<path fill="none" stroke="#63b8ff" d="M84.15,-74.94C75.86,-73.34 67.41,-71.71 59.75,-70.23"/>
<polygon fill="#63b8ff" stroke="#63b8ff" points="83.3,-78.34 93.78,-76.8 84.63,-71.47 83.3,-78.34"/>
</a>
</g>
</g>
</g>
</svg>
