<?xml version="1.0" encoding="UTF-8" standalone="no"?>
<!DOCTYPE svg PUBLIC "-//W3C//DTD SVG 1.1//EN"
 "http://www.w3.org/Graphics/SVG/1.1/DTD/svg11.dtd">
<!-- Generated by graphviz version 13.1.0 (20250701.0955)
 -->
<!-- Title: prepstate Pages: 1 -->
<svg width="265pt" height="101pt"
 viewBox="0.00 0.00 265.00 101.00" xmlns="http://www.w3.org/2000/svg" xmlns:xlink="http://www.w3.org/1999/xlink">
<g id="graph0" class="graph" transform="scale(1 1) rotate(0) translate(4 97.25)">
<title>prepstate</title>
<!-- Node1 -->
<g id="Node000001" class="node">
<title>Node1</title>
<g id="a_Node000001"><a xlink:title=" ">
<polygon fill="#999999" stroke="#666666" points="257.25,-56.25 200.75,-56.25 200.75,-37 257.25,-37 257.25,-56.25"/>
<text xml:space="preserve" text-anchor="middle" x="229" y="-42.75" font-family="Helvetica,sans-Serif" font-size="10.00">prepstate</text>
</a>
</g>
</g>
<!-- Node2 -->
<g id="Node000002" class="node">
<title>Node2</title>
<g id="a_Node000002"><a xlink:href="lstrlib_8c.html#ab55a72bb412d6186c82fd75de44cd031" target="_top" xlink:title=" ">
<polygon fill="white" stroke="#666666" points="154.25,-93.25 106,-93.25 106,-74 154.25,-74 154.25,-93.25"/>
<text xml:space="preserve" text-anchor="middle" x="130.12" y="-79.75" font-family="Helvetica,sans-Serif" font-size="10.00">gmatch</text>
</a>
</g>
</g>
<!-- Node1&#45;&gt;Node2 -->
<g id="edge1_Node000001_Node000002" class="edge">
<title>Node1&#45;&gt;Node2</title>
<g id="a_edge1_Node000001_Node000002"><a xlink:title=" ">
<path fill="none" stroke="#63b8ff" d="M191.11,-60.71C178.85,-65.4 165.55,-70.48 154.59,-74.66"/>
<polygon fill="#63b8ff" stroke="#63b8ff" points="192.02,-64.11 200.11,-57.28 189.52,-57.57 192.02,-64.11"/>
</a>
</g>
</g>
<!-- Node3 -->
<g id="Node000003" class="node">
<title>Node3</title>
<g id="a_Node000003"><a xlink:href="lstrlib_8c.html#a692514aa32ae2668683a4db15259d26b" target="_top" xlink:title=" ">
<polygon fill="white" stroke="#666666" points="164.75,-56.25 95.5,-56.25 95.5,-37 164.75,-37 164.75,-56.25"/>
<text xml:space="preserve" text-anchor="middle" x="130.12" y="-42.75" font-family="Helvetica,sans-Serif" font-size="10.00">str_find_aux</text>
</a>
</g>
</g>
<!-- Node1&#45;&gt;Node3 -->
<g id="edge2_Node000001_Node000003" class="edge">
<title>Node1&#45;&gt;Node3</title>
<g id="a_edge2_Node000001_Node000003"><a xlink:title=" ">
<path fill="none" stroke="#63b8ff" d="M189.12,-46.62C181.1,-46.62 172.72,-46.62 164.9,-46.62"/>
<polygon fill="#63b8ff" stroke="#63b8ff" points="188.99,-50.13 198.99,-46.63 188.99,-43.13 188.99,-50.13"/>
</a>
</g>
</g>
<!-- Node6 -->
<g id="Node000006" class="node">
<title>Node6</title>
<g id="a_Node000006"><a xlink:href="lstrlib_8c.html#a42337c674d265175bcc2b2f3809c7339" target="_top" xlink:title=" ">
<polygon fill="white" stroke="#666666" points="156.88,-19.25 103.38,-19.25 103.38,0 156.88,0 156.88,-19.25"/>
<text xml:space="preserve" text-anchor="middle" x="130.12" y="-5.75" font-family="Helvetica,sans-Serif" font-size="10.00">str_gsub</text>
</a>
</g>
</g>
<!-- Node1&#45;&gt;Node6 -->
<g id="edge5_Node000001_Node000006" class="edge">
<title>Node1&#45;&gt;Node6</title>
<g id="a_edge5_Node000001_Node000006"><a xlink:title=" ">
<path fill="none" stroke="#63b8ff" d="M191.07,-32.52C179.79,-28.21 167.63,-23.57 157.23,-19.6"/>
<polygon fill="#63b8ff" stroke="#63b8ff" points="189.52,-35.68 200.11,-35.97 192.02,-29.14 189.52,-35.68"/>
</a>
</g>
</g>
<!-- Node4 -->
<g id="Node000004" class="node">
<title>Node4</title>
<g id="a_Node000004"><a xlink:href="lstrlib_8c.html#a362a4bc9ba81ce87253cc3d74f015808" target="_top" xlink:title=" ">
<polygon fill="white" stroke="#666666" points="53.88,-74.25 5.63,-74.25 5.63,-55 53.88,-55 53.88,-74.25"/>
<text xml:space="preserve" text-anchor="middle" x="29.75" y="-60.75" font-family="Helvetica,sans-Serif" font-size="10.00">str_find</text>
</a>
</g>
</g>
<!-- Node3&#45;&gt;Node4 -->
<g id="edge3_Node000003_Node000004" class="edge">
<title>Node3&#45;&gt;Node4</title>
<g id="a_edge3_Node000003_Node000004"><a xlink:title=" ">
<path fill="none" stroke="#63b8ff" d="M84.19,-54.85C73.8,-56.75 63.16,-58.7 54.13,-60.35"/>
<polygon fill="#63b8ff" stroke="#63b8ff" points="84.57,-58.33 93.78,-53.09 83.31,-51.45 84.57,-58.33"/>
</a>
</g>
</g>
<!-- Node5 -->
<g id="Node000005" class="node">
<title>Node5</title>
<g id="a_Node000005"><a xlink:href="lstrlib_8c.html#a4b605e43b8f5738db9eae902bbc00f00" target="_top" xlink:title=" ">
<polygon fill="white" stroke="#666666" points="59.5,-37.25 0,-37.25 0,-18 59.5,-18 59.5,-37.25"/>
<text xml:space="preserve" text-anchor="middle" x="29.75" y="-23.75" font-family="Helvetica,sans-Serif" font-size="10.00">str_match</text>
</a>
</g>
</g>
<!-- Node3&#45;&gt;Node5 -->
<g id="edge4_Node000003_Node000005" class="edge">
<title>Node3&#45;&gt;Node5</title>
<g id="a_edge4_Node000003_Node000005"><a xlink:title=" ">
<path fill="none" stroke="#63b8ff" d="M84.15,-37.94C75.86,-36.34 67.41,-34.71 59.75,-33.23"/>
<polygon fill="#63b8ff" stroke="#63b8ff" points="83.3,-41.34 93.78,-39.8 84.63,-34.47 83.3,-41.34"/>
</a>
</g>
</g>
</g>
</svg>
