<?xml version="1.0" encoding="UTF-8" standalone="no"?>
<!DOCTYPE svg PUBLIC "-//W3C//DTD SVG 1.1//EN"
 "http://www.w3.org/Graphics/SVG/1.1/DTD/svg11.dtd">
<!-- Generated by graphviz version 13.1.0 (20250701.0955)
 -->
<!-- Title: digit Pages: 1 -->
<!--zoomable 120 -->

<svg id="main" version="1.1" xmlns="http://www.w3.org/2000/svg" xmlns:xlink="http://www.w3.org/1999/xlink" xml:space="preserve" onload="init(evt)">

<style type="text/css"><![CDATA[
.node, .edge {opacity: 0.7;}
.node.selected, .edge.selected {opacity: 1;}
.edge:hover path { stroke: red; }
.edge:hover polygon { stroke: red; fill: red; }
]]></style>

<defs>
  <circle id="rim" cx="0" cy="0" r="7"/>
  <circle id="rim2" cx="0" cy="0" r="3.5"/>
  <g id="zoomPlus">
    <use xlink:href="#rim" fill="#404040"><set attributeName="fill" to="#808080" begin="zoomplus.mouseover" end="zoomplus.mouseout"/></use>
    <path d="M-4,0h8M0,-4v8" fill="none" stroke="white" stroke-width="1.5" pointer-events="none"/>
  </g>
  <g id="zoomMin">
    <use xlink:href="#rim" fill="#404040"><set attributeName="fill" to="#808080" begin="zoomminus.mouseover" end="zoomminus.mouseout"/></use>
    <path d="M-4,0h8" fill="none" stroke="white" stroke-width="1.5" pointer-events="none"/>
  </g>
  <g id="arrowUp" transform="translate(30 24)">
    <use xlink:href="#rim"/>
    <path pointer-events="none" fill="none" stroke="white" stroke-width="1.5" d="M0,-3.0v7 M-2.5,-0.5L0,-3.0L2.5,-0.5"/>
  </g>
  <g id="arrowRight" transform="rotate(90) translate(36 -43)">
    <use xlink:href="#rim"/>
    <path pointer-events="none" fill="none" stroke="white" stroke-width="1.5" d="M0,-3.0v7 M-2.5,-0.5L0,-3.0L2.5,-0.5"/>
  </g>
  <g id="arrowDown" transform="rotate(180) translate(-30 -48)">
    <use xlink:href="#rim"/>
    <path pointer-events="none" fill="none" stroke="white" stroke-width="1.5" d="M0,-3.0v7 M-2.5,-0.5L0,-3.0L2.5,-0.5"/>
  </g>
  <g id="arrowLeft" transform="rotate(270) translate(-36 17)">
    <use xlink:href="#rim"/>
    <path pointer-events="none" fill="none" stroke="white" stroke-width="1.5" d="M0,-3.0v7 M-2.5,-0.5L0,-3.0L2.5,-0.5"/>
  </g>
  <g id="resetDef">
    <use xlink:href="#rim2" fill="#404040"><set attributeName="fill" to="#808080" begin="reset.mouseover" end="reset.mouseout"/></use>
  </g>
</defs>
<script type="application/ecmascript">
var viewWidth = 542;
var viewHeight = 120;
var sectionId = 'dynsection-14';
</script>
<script type="application/ecmascript" xlink:href="svg.min.js"/>
<svg id="graph" class="graph">
<g id="viewport">
<title>digit</title>
<!-- Node1 -->
<g id="Node000001" class="node">
<title>Node1</title>
<g id="a_Node000001"><a xlink:title=" ">
<polygon fill="#999999" stroke="#666666" points="534,-93.25 500,-93.25 500,-74 534,-74 534,-93.25"/>
<text xml:space="preserve" text-anchor="middle" x="517" y="-79.75" font-family="Helvetica,sans-Serif" font-size="10.00">digit</text>
</a>
</g>
</g>
<!-- Node2 -->
<g id="Node000002" class="node">
<title>Node2</title>
<g id="a_Node000002"><a xlink:href="lbaselib_8c.html#add16646ad968920780edf9c81df7e981" target="_top" xlink:title=" ">
<polygon fill="white" stroke="#666666" points="464,-112.25 410.5,-112.25 410.5,-93 464,-93 464,-112.25"/>
<text xml:space="preserve" text-anchor="middle" x="437.25" y="-98.75" font-family="Helvetica,sans-Serif" font-size="10.00">b_str2int</text>
</a>
</g>
</g>
<!-- Node1&#45;&gt;Node2 -->
<g id="edge1_Node000001_Node000002" class="edge">
<title>Node1&#45;&gt;Node2</title>
<g id="a_edge1_Node000001_Node000002"><a xlink:title=" ">
<path fill="none" stroke="#63b8ff" d="M488.57,-90.33C480.65,-92.26 472.03,-94.37 464.2,-96.28"/>
<polygon fill="#63b8ff" stroke="#63b8ff" points="489.16,-93.79 498.04,-88.01 487.5,-86.99 489.16,-93.79"/>
</a>
</g>
</g>
<!-- Node4 -->
<g id="Node000004" class="node">
<title>Node4</title>
<g id="a_Node000004"><a xlink:href="lstrlib_8c.html#a22adbe647ff5710f14b6f6c18ae0d5a4" target="_top" xlink:title=" ">
<polygon fill="white" stroke="#666666" points="461.38,-75.25 413.12,-75.25 413.12,-56 461.38,-56 461.38,-75.25"/>
<text xml:space="preserve" text-anchor="middle" x="437.25" y="-61.75" font-family="Helvetica,sans-Serif" font-size="10.00">getnum</text>
</a>
</g>
</g>
<!-- Node1&#45;&gt;Node4 -->
<g id="edge3_Node000001_Node000004" class="edge">
<title>Node1&#45;&gt;Node4</title>
<g id="a_edge3_Node000001_Node000004"><a xlink:title=" ">
<path fill="none" stroke="#63b8ff" d="M488.36,-77.23C479.67,-75.21 470.17,-73.01 461.8,-71.08"/>
<polygon fill="#63b8ff" stroke="#63b8ff" points="487.5,-80.62 498.04,-79.47 489.08,-73.8 487.5,-80.62"/>
</a>
</g>
</g>
<!-- Node3 -->
<g id="Node000003" class="node">
<title>Node3</title>
<g id="a_Node000003"><a xlink:href="lbaselib_8c.html#a6224f7b7c4485996e1c22eae32de990d" target="_top" xlink:title=" ">
<polygon fill="white" stroke="#666666" points="374.5,-112.25 293.25,-112.25 293.25,-93 374.5,-93 374.5,-112.25"/>
<text xml:space="preserve" text-anchor="middle" x="333.88" y="-98.75" font-family="Helvetica,sans-Serif" font-size="10.00">luaB_tonumber</text>
</a>
</g>
</g>
<!-- Node2&#45;&gt;Node3 -->
<g id="edge2_Node000002_Node000003" class="edge">
<title>Node2&#45;&gt;Node3</title>
<g id="a_edge2_Node000002_Node000003"><a xlink:title=" ">
<path fill="none" stroke="#63b8ff" d="M398.71,-102.62C390.87,-102.62 382.59,-102.62 374.68,-102.62"/>
<polygon fill="#63b8ff" stroke="#63b8ff" points="398.63,-106.13 408.63,-102.63 398.63,-99.13 398.63,-106.13"/>
</a>
</g>
</g>
<!-- Node5 -->
<g id="Node000005" class="node">
<title>Node5</title>
<g id="a_Node000005"><a xlink:href="lstrlib_8c.html#a2e2809fc0c800ac97e4122f33434b94a" target="_top" xlink:title=" ">
<polygon fill="white" stroke="#666666" points="367,-75.25 300.75,-75.25 300.75,-56 367,-56 367,-75.25"/>
<text xml:space="preserve" text-anchor="middle" x="333.88" y="-61.75" font-family="Helvetica,sans-Serif" font-size="10.00">getnumlimit</text>
</a>
</g>
</g>
<!-- Node4&#45;&gt;Node5 -->
<g id="edge4_Node000004_Node000005" class="edge">
<title>Node4&#45;&gt;Node5</title>
<g id="a_edge4_Node000004_Node000005"><a xlink:title=" ">
<path fill="none" stroke="#63b8ff" d="M401.36,-65.62C390.38,-65.62 378.29,-65.62 367.47,-65.62"/>
<polygon fill="#63b8ff" stroke="#63b8ff" points="401.22,-69.13 411.22,-65.63 401.22,-62.13 401.22,-69.13"/>
</a>
</g>
</g>
<!-- Node6 -->
<g id="Node000006" class="node">
<title>Node6</title>
<g id="a_Node000006"><a xlink:href="lstrlib_8c.html#adcf5c53b9f1a52366c286fea5f9aeda7" target="_top" xlink:title=" ">
<polygon fill="white" stroke="#666666" points="257.25,-56.25 201.5,-56.25 201.5,-37 257.25,-37 257.25,-56.25"/>
<text xml:space="preserve" text-anchor="middle" x="229.38" y="-42.75" font-family="Helvetica,sans-Serif" font-size="10.00">getoption</text>
</a>
</g>
</g>
<!-- Node4&#45;&gt;Node6 -->
<g id="edge10_Node000004_Node000006" class="edge">
<title>Node4&#45;&gt;Node6</title>
<g id="a_edge10_Node000004_Node000006"><a xlink:title=" ">
<path fill="none" stroke="#63b8ff" d="M402.14,-53.15C393.26,-50.45 383.62,-48 374.5,-46.62 334.17,-40.56 286.77,-42.22 257.65,-44.22"/>
<polygon fill="#63b8ff" stroke="#63b8ff" points="400.85,-56.41 411.44,-56.16 403.01,-49.75 400.85,-56.41"/>
</a>
</g>
</g>
<!-- Node5&#45;&gt;Node6 -->
<g id="edge5_Node000005_Node000006" class="edge">
<title>Node5&#45;&gt;Node6</title>
<g id="a_edge5_Node000005_Node000006"><a xlink:title=" ">
<path fill="none" stroke="#63b8ff" d="M289.4,-57.57C278.55,-55.56 267.23,-53.46 257.44,-51.64"/>
<polygon fill="#63b8ff" stroke="#63b8ff" points="288.48,-60.96 298.96,-59.34 289.76,-54.07 288.48,-60.96"/>
</a>
</g>
</g>
<!-- Node7 -->
<g id="Node000007" class="node">
<title>Node7</title>
<g id="a_Node000007"><a xlink:href="lstrlib_8c.html#a22b9520cbe8f1b1b493e107acfa6a711" target="_top" xlink:title=" ">
<polygon fill="white" stroke="#666666" points="165.5,-56.25 107.5,-56.25 107.5,-37 165.5,-37 165.5,-56.25"/>
<text xml:space="preserve" text-anchor="middle" x="136.5" y="-42.75" font-family="Helvetica,sans-Serif" font-size="10.00">getdetails</text>
</a>
</g>
</g>
<!-- Node6&#45;&gt;Node7 -->
<g id="edge6_Node000006_Node000007" class="edge">
<title>Node6&#45;&gt;Node7</title>
<g id="a_edge6_Node000006_Node000007"><a xlink:title=" ">
<path fill="none" stroke="#63b8ff" d="M189.65,-46.62C181.6,-46.62 173.27,-46.62 165.69,-46.62"/>
<polygon fill="#63b8ff" stroke="#63b8ff" points="189.6,-50.13 199.6,-46.63 189.6,-43.13 189.6,-50.13"/>
</a>
</g>
</g>
<!-- Node8 -->
<g id="Node000008" class="node">
<title>Node8</title>
<g id="a_Node000008"><a xlink:href="lstrlib_8c.html#abcf8553ae8937fd4f4bf85c72f528710" target="_top" xlink:title=" ">
<polygon fill="white" stroke="#666666" points="62.5,-93.25 9,-93.25 9,-74 62.5,-74 62.5,-93.25"/>
<text xml:space="preserve" text-anchor="middle" x="35.75" y="-79.75" font-family="Helvetica,sans-Serif" font-size="10.00">str_pack</text>
</a>
</g>
</g>
<!-- Node7&#45;&gt;Node8 -->
<g id="edge7_Node000007_Node000008" class="edge">
<title>Node7&#45;&gt;Node8</title>
<g id="a_edge7_Node000007_Node000008"><a xlink:title=" ">
<path fill="none" stroke="#63b8ff" d="M98.04,-60.66C86.25,-65.08 73.49,-69.86 62.68,-73.91"/>
<polygon fill="#63b8ff" stroke="#63b8ff" points="98.96,-64.05 107.1,-57.27 96.51,-57.5 98.96,-64.05"/>
</a>
</g>
</g>
<!-- Node9 -->
<g id="Node000009" class="node">
<title>Node9</title>
<g id="a_Node000009"><a xlink:href="lstrlib_8c.html#ac548dd917c53c0c6d13518ec3ecc56ee" target="_top" xlink:title=" ">
<polygon fill="white" stroke="#666666" points="71.5,-56.25 0,-56.25 0,-37 71.5,-37 71.5,-56.25"/>
<text xml:space="preserve" text-anchor="middle" x="35.75" y="-42.75" font-family="Helvetica,sans-Serif" font-size="10.00">str_packsize</text>
</a>
</g>
</g>
<!-- Node7&#45;&gt;Node9 -->
<g id="edge8_Node000007_Node000009" class="edge">
<title>Node7&#45;&gt;Node9</title>
<g id="a_edge8_Node000007_Node000009"><a xlink:title=" ">
<path fill="none" stroke="#63b8ff" d="M95.86,-46.62C87.88,-46.62 79.54,-46.62 71.73,-46.62"/>
<polygon fill="#63b8ff" stroke="#63b8ff" points="95.69,-50.13 105.69,-46.63 95.69,-43.13 95.69,-50.13"/>
</a>
</g>
</g>
<!-- Node10 -->
<g id="Node000010" class="node">
<title>Node10</title>
<g id="a_Node000010"><a xlink:href="lstrlib_8c.html#a3f3c1925e7829cbe972a744fa9168ec3" target="_top" xlink:title=" ">
<polygon fill="white" stroke="#666666" points="67.75,-19.25 3.75,-19.25 3.75,0 67.75,0 67.75,-19.25"/>
<text xml:space="preserve" text-anchor="middle" x="35.75" y="-5.75" font-family="Helvetica,sans-Serif" font-size="10.00">str_unpack</text>
</a>
</g>
</g>
<!-- Node7&#45;&gt;Node10 -->
<g id="edge9_Node000007_Node000010" class="edge">
<title>Node7&#45;&gt;Node10</title>
<g id="a_edge9_Node000007_Node000010"><a xlink:title=" ">
<path fill="none" stroke="#63b8ff" d="M97.95,-32.55C86.55,-28.28 74.26,-23.68 63.7,-19.72"/>
<polygon fill="#63b8ff" stroke="#63b8ff" points="96.51,-35.75 107.1,-35.98 98.96,-29.2 96.51,-35.75"/>
</a>
</g>
</g>
</g>
</svg>

<g id="navigator" transform="translate(0 0)" fill="#404254">
  <rect fill="#f2f5e9" fill-opacity="0.5" stroke="#606060" stroke-width=".5" x="0" y="0" width="60" height="60"/>
  <use id="zoomplus" xlink:href="#zoomPlus" x="17" y="9" onmousedown="handleZoom(evt,'in')"/>
  <use id="zoomminus" xlink:href="#zoomMin" x="42" y="9" onmousedown="handleZoom(evt,'out')"/>
  <use id="reset" xlink:href="#resetDef" x="30" y="36" onmousedown="handleReset()"/>
   <use id="arrowup" xlink:href="#arrowUp" x="0" y="0" onmousedown="handlePan(0,-1)"/>
  <use id="arrowright" xlink:href="#arrowRight" x="0" y="0" onmousedown="handlePan(1,0)"/>
  <use id="arrowdown" xlink:href="#arrowDown" x="0" y="0" onmousedown="handlePan(0,1)"/>
  <use id="arrowleft" xlink:href="#arrowLeft" x="0" y="0" onmousedown="handlePan(-1,0)"/>
</g>
<svg viewBox="0 0 15 15" width="100%" height="30px" preserveAspectRatio="xMaxYMin meet">
 <g id="arrow_out" transform="scale(0.3 0.3)">
  <a xlink:href="lstrlib_8c_a9605f4d16ae762782f8be8b54aef0a22_icgraph_org.svg" target="_base">
   <rect id="button" ry="5" rx="5" y="6" x="6" height="38" width="38"
        fill="#f2f5e9" fill-opacity="0.5" stroke="#606060" stroke-width="1.0"/>
   <path id="arrow"
     d="M 11.500037,31.436501 C 11.940474,20.09759 22.043105,11.32322 32.158766,21.979434 L 37.068811,17.246167 C 37.068811,17.246167 37.088388,32 37.088388,32 L 22.160133,31.978069 C 22.160133,31.978069 26.997745,27.140456 26.997745,27.140456 C 18.528582,18.264221 13.291696,25.230495 11.500037,31.436501 z"
     style="fill:#404040;"/>
  </a>
 </g>
</svg>

<style type='text/css'>
<![CDATA[
[data-mouse-over-selected='false'] { opacity: 0.7; }
[data-mouse-over-selected='true']  { opacity: 1.0; }
]]>
</style>
<script type="application/ecmascript"><![CDATA[
document.addEventListener('DOMContentLoaded', (event) => {
  highlightEdges();
  highlightAdjacentNodes();
});
]]></script>
</svg>
