<?xml version="1.0" encoding="UTF-8" standalone="no"?>
<!DOCTYPE svg PUBLIC "-//W3C//DTD SVG 1.1//EN"
 "http://www.w3.org/Graphics/SVG/1.1/DTD/svg11.dtd">
<!-- Generated by graphviz version 13.1.0 (20250701.0955)
 -->
<!-- Title: max_expand Pages: 1 -->
<svg width="363pt" height="212pt"
 viewBox="0.00 0.00 363.00 212.00" xmlns="http://www.w3.org/2000/svg" xmlns:xlink="http://www.w3.org/1999/xlink">

<svg id="main" version="1.1" xmlns="http://www.w3.org/2000/svg" xmlns:xlink="http://www.w3.org/1999/xlink" xml:space="preserve">

<style type="text/css"><![CDATA[
.node, .edge {opacity: 0.7;}
.node.selected, .edge.selected {opacity: 1;}
.edge:hover path { stroke: red; }
.edge:hover polygon { stroke: red; fill: red; }
]]></style>
<script type="application/ecmascript" xlink:href="svg.min.js"/>
<svg id="graph" class="graph">
<g id="graph0" class="graph" transform="scale(1 1) rotate(0) translate(4 208.25)">
<title>max_expand</title>
<!-- Node1 -->
<g id="Node000001" class="node">
<title>Node1</title>
<g id="a_Node000001"><a xlink:title=" ">
<polygon fill="#999999" stroke="#666666" points="355,-130.25 283.5,-130.25 283.5,-111 355,-111 355,-130.25"/>
<text xml:space="preserve" text-anchor="middle" x="319.25" y="-116.75" font-family="Helvetica,sans-Serif" font-size="10.00">max_expand</text>
</a>
</g>
</g>
<!-- Node2 -->
<g id="Node000002" class="node">
<title>Node2</title>
<g id="a_Node000002"><a xlink:href="lstrlib_8c.html#a52a45835b75e5d31ec66421456bbb728" target="_top" xlink:title=" ">
<polygon fill="white" stroke="#666666" points="247.5,-130.25 204.5,-130.25 204.5,-111 247.5,-111 247.5,-130.25"/>
<text xml:space="preserve" text-anchor="middle" x="226" y="-116.75" font-family="Helvetica,sans-Serif" font-size="10.00">match</text>
</a>
</g>
</g>
<!-- Node1&#45;&gt;Node2 -->
<g id="edge1_Node000001_Node000002" class="edge">
<title>Node1&#45;&gt;Node2</title>
<g id="a_edge1_Node000001_Node000002"><a xlink:title=" ">
<path fill="none" stroke="#63b8ff" d="M271.82,-113.88C263.4,-113.9 255,-114.22 247.8,-114.86"/>
<polygon fill="#63b8ff" stroke="#63b8ff" points="271.67,-117.37 281.72,-114.02 271.77,-110.37 271.67,-117.37"/>
</a>
</g>
</g>
<!-- Node2&#45;&gt;Node1 -->
<g id="edge7_Node000002_Node000001" class="edge">
<title>Node2&#45;&gt;Node1</title>
<g id="a_edge7_Node000002_Node000001"><a xlink:title=" ">
<path fill="none" stroke="#63b8ff" d="M259.08,-127.1C266.89,-127.43 275.29,-127.46 283.23,-127.21"/>
<polygon fill="#63b8ff" stroke="#63b8ff" points="259.51,-123.62 249.31,-126.49 259.07,-130.61 259.51,-123.62"/>
</a>
</g>
</g>
<!-- Node2&#45;&gt;Node2 -->
<g id="edge6_Node000002_Node000002" class="edge">
<title>Node2&#45;&gt;Node2</title>
<g id="a_edge6_Node000002_Node000002"><a xlink:title=" ">
<path fill="none" stroke="#63b8ff" d="M242.55,-141.65C240.48,-145.53 234.96,-148.25 226,-148.25 209.61,-148.25 204.74,-139.15 211.4,-130.54"/>
<polygon fill="#63b8ff" stroke="#63b8ff" points="246.04,-141.27 240.86,-132.03 239.14,-142.48 246.04,-141.27"/>
</a>
</g>
</g>
<!-- Node3 -->
<g id="Node000003" class="node">
<title>Node3</title>
<g id="a_Node000003"><a xlink:href="lstrlib_8c.html#a8ad3b2b2feba1b339455b6b8feb77d79" target="_top" xlink:title=" ">
<polygon fill="white" stroke="#666666" points="166.62,-204.25 97.38,-204.25 97.38,-185 166.62,-185 166.62,-204.25"/>
<text xml:space="preserve" text-anchor="middle" x="132" y="-190.75" font-family="Helvetica,sans-Serif" font-size="10.00">end_capture</text>
</a>
</g>
</g>
<!-- Node2&#45;&gt;Node3 -->
<g id="edge2_Node000002_Node000003" class="edge">
<title>Node2&#45;&gt;Node3</title>
<g id="a_edge2_Node000002_Node000003"><a xlink:title=" ">
<path fill="none" stroke="#63b8ff" d="M201.67,-138.68C192.02,-148.06 180.33,-159.09 168.5,-167.62 159.65,-174.01 148.2,-179.37 140.73,-184.66"/>
<polygon fill="#63b8ff" stroke="#63b8ff" points="204.1,-141.2 208.82,-131.71 199.22,-136.18 204.1,-141.2"/>
</a>
</g>
</g>
<!-- Node4 -->
<g id="Node000004" class="node">
<title>Node4</title>
<g id="a_Node000004"><a xlink:href="lstrlib_8c.html#ab7cb0ba6191e1aa9455f6522d3483a02" target="_top" xlink:title=" ">
<polygon fill="white" stroke="#666666" points="166.62,-167.25 97.38,-167.25 97.38,-148 166.62,-148 166.62,-167.25"/>
<text xml:space="preserve" text-anchor="middle" x="132" y="-153.75" font-family="Helvetica,sans-Serif" font-size="10.00">gmatch_aux</text>
</a>
</g>
</g>
<!-- Node2&#45;&gt;Node4 -->
<g id="edge4_Node000002_Node000004" class="edge">
<title>Node2&#45;&gt;Node4</title>
<g id="a_edge4_Node000002_Node000004"><a xlink:title=" ">
<path fill="none" stroke="#63b8ff" d="M193.54,-133.28C181.96,-137.94 168.99,-143.15 158.05,-147.55"/>
<polygon fill="#63b8ff" stroke="#63b8ff" points="194.75,-136.56 202.72,-129.59 192.14,-130.07 194.75,-136.56"/>
</a>
</g>
</g>
<!-- Node6 -->
<g id="Node000006" class="node">
<title>Node6</title>
<g id="a_Node000006"><a xlink:href="lstrlib_8c.html#ae3f407e9f2ae797e567d9e2a417c02d1" target="_top" xlink:title=" ">
<polygon fill="white" stroke="#666666" points="166.25,-130.25 97.75,-130.25 97.75,-111 166.25,-111 166.25,-130.25"/>
<text xml:space="preserve" text-anchor="middle" x="132" y="-116.75" font-family="Helvetica,sans-Serif" font-size="10.00">min_expand</text>
</a>
</g>
</g>
<!-- Node2&#45;&gt;Node6 -->
<g id="edge8_Node000002_Node000006" class="edge">
<title>Node2&#45;&gt;Node6</title>
<g id="a_edge8_Node000002_Node000006"><a xlink:title=" ">
<path fill="none" stroke="#63b8ff" d="M192.69,-114.15C184.18,-113.8 174.99,-113.78 166.42,-114.1"/>
<polygon fill="#63b8ff" stroke="#63b8ff" points="192.41,-117.64 202.61,-114.77 192.85,-110.65 192.41,-117.64"/>
</a>
</g>
</g>
<!-- Node7 -->
<g id="Node000007" class="node">
<title>Node7</title>
<g id="a_Node000007"><a xlink:href="lstrlib_8c.html#afe42e5d441f313d0a768057947797480" target="_top" xlink:title=" ">
<polygon fill="white" stroke="#666666" points="168.5,-93.25 95.5,-93.25 95.5,-74 168.5,-74 168.5,-93.25"/>
<text xml:space="preserve" text-anchor="middle" x="132" y="-79.75" font-family="Helvetica,sans-Serif" font-size="10.00">start_capture</text>
</a>
</g>
</g>
<!-- Node2&#45;&gt;Node7 -->
<g id="edge10_Node000002_Node000007" class="edge">
<title>Node2&#45;&gt;Node7</title>
<g id="a_edge10_Node000002_Node000007"><a xlink:title=" ">
<path fill="none" stroke="#63b8ff" d="M202.17,-105.52C192.07,-100.67 179.94,-95.57 168.68,-91.38"/>
<polygon fill="#63b8ff" stroke="#63b8ff" points="200.36,-108.53 210.86,-109.95 203.54,-102.29 200.36,-108.53"/>
</a>
</g>
</g>
<!-- Node8 -->
<g id="Node000008" class="node">
<title>Node8</title>
<g id="a_Node000008"><a xlink:href="lstrlib_8c.html#a692514aa32ae2668683a4db15259d26b" target="_top" xlink:title=" ">
<polygon fill="white" stroke="#666666" points="166.62,-56.25 97.38,-56.25 97.38,-37 166.62,-37 166.62,-56.25"/>
<text xml:space="preserve" text-anchor="middle" x="132" y="-42.75" font-family="Helvetica,sans-Serif" font-size="10.00">str_find_aux</text>
</a>
</g>
</g>
<!-- Node2&#45;&gt;Node8 -->
<g id="edge12_Node000002_Node000008" class="edge">
<title>Node2&#45;&gt;Node8</title>
<g id="a_edge12_Node000002_Node000008"><a xlink:title=" ">
<path fill="none" stroke="#63b8ff" d="M208.99,-102.01C198.31,-90.32 183.52,-75.47 168.5,-64.62 164.47,-61.71 159.89,-59.02 155.4,-56.64"/>
<polygon fill="#63b8ff" stroke="#63b8ff" points="206.33,-104.29 215.6,-109.43 211.57,-99.63 206.33,-104.29"/>
</a>
</g>
</g>
<!-- Node11 -->
<g id="Node000011" class="node">
<title>Node11</title>
<g id="a_Node000011"><a xlink:href="lstrlib_8c.html#a42337c674d265175bcc2b2f3809c7339" target="_top" xlink:title=" ">
<polygon fill="white" stroke="#666666" points="158.75,-19.25 105.25,-19.25 105.25,0 158.75,0 158.75,-19.25"/>
<text xml:space="preserve" text-anchor="middle" x="132" y="-5.75" font-family="Helvetica,sans-Serif" font-size="10.00">str_gsub</text>
</a>
</g>
</g>
<!-- Node2&#45;&gt;Node11 -->
<g id="edge15_Node000002_Node000011" class="edge">
<title>Node2&#45;&gt;Node11</title>
<g id="a_edge15_Node000002_Node000011"><a xlink:title=" ">
<path fill="none" stroke="#63b8ff" d="M216.7,-100.34C207.46,-79.85 190.85,-48.32 168.5,-27.62 165.26,-24.62 161.41,-21.99 157.48,-19.74"/>
<polygon fill="#63b8ff" stroke="#63b8ff" points="213.39,-101.52 220.56,-109.32 219.82,-98.76 213.39,-101.52"/>
</a>
</g>
</g>
<!-- Node3&#45;&gt;Node2 -->
<g id="edge3_Node000003_Node000002" class="edge">
<title>Node3&#45;&gt;Node2</title>
<g id="a_edge3_Node000003_Node000002"><a xlink:title=" ">
<path fill="none" stroke="#63b8ff" d="M175.89,-179.83C196.05,-163.41 213.47,-143 221.03,-130.32"/>
<polygon fill="#63b8ff" stroke="#63b8ff" points="173.79,-177.04 167.99,-185.9 178.05,-182.59 173.79,-177.04"/>
</a>
</g>
</g>
<!-- Node5 -->
<g id="Node000005" class="node">
<title>Node5</title>
<g id="a_Node000005"><a xlink:href="lstrlib_8c.html#ab55a72bb412d6186c82fd75de44cd031" target="_top" xlink:title=" ">
<polygon fill="white" stroke="#666666" points="53.88,-167.25 5.63,-167.25 5.63,-148 53.88,-148 53.88,-167.25"/>
<text xml:space="preserve" text-anchor="middle" x="29.75" y="-153.75" font-family="Helvetica,sans-Serif" font-size="10.00">gmatch</text>
</a>
</g>
</g>
<!-- Node4&#45;&gt;Node5 -->
<g id="edge5_Node000004_Node000005" class="edge">
<title>Node4&#45;&gt;Node5</title>
<g id="a_edge5_Node000004_Node000005"><a xlink:title=" ">
<path fill="none" stroke="#63b8ff" d="M85.87,-157.62C74.94,-157.62 63.69,-157.62 54.22,-157.62"/>
<polygon fill="#63b8ff" stroke="#63b8ff" points="85.55,-161.13 95.55,-157.63 85.55,-154.13 85.55,-161.13"/>
</a>
</g>
</g>
<!-- Node6&#45;&gt;Node2 -->
<g id="edge9_Node000006_Node000002" class="edge">
<title>Node6&#45;&gt;Node2</title>
<g id="a_edge9_Node000006_Node000002"><a xlink:title=" ">
<path fill="none" stroke="#63b8ff" d="M177.9,-127.37C187.07,-127.4 196.3,-127.07 204.12,-126.39"/>
<polygon fill="#63b8ff" stroke="#63b8ff" points="178,-123.87 167.94,-127.18 177.87,-130.87 178,-123.87"/>
</a>
</g>
</g>
<!-- Node7&#45;&gt;Node2 -->
<g id="edge11_Node000007_Node000002" class="edge">
<title>Node7&#45;&gt;Node2</title>
<g id="a_edge11_Node000007_Node000002"><a xlink:title=" ">
<path fill="none" stroke="#63b8ff" d="M155.73,-98.68C170.53,-105.8 189.7,-113.46 204.12,-117.99"/>
<polygon fill="#63b8ff" stroke="#63b8ff" points="157.7,-95.76 147.2,-94.33 154.52,-101.99 157.7,-95.76"/>
</a>
</g>
</g>
<!-- Node9 -->
<g id="Node000009" class="node">
<title>Node9</title>
<g id="a_Node000009"><a xlink:href="lstrlib_8c.html#a362a4bc9ba81ce87253cc3d74f015808" target="_top" xlink:title=" ">
<polygon fill="white" stroke="#666666" points="53.88,-75.25 5.63,-75.25 5.63,-56 53.88,-56 53.88,-75.25"/>
<text xml:space="preserve" text-anchor="middle" x="29.75" y="-61.75" font-family="Helvetica,sans-Serif" font-size="10.00">str_find</text>
</a>
</g>
</g>
<!-- Node8&#45;&gt;Node9 -->
<g id="edge13_Node000008_Node000009" class="edge">
<title>Node8&#45;&gt;Node9</title>
<g id="a_edge13_Node000008_Node000009"><a xlink:title=" ">
<path fill="none" stroke="#63b8ff" d="M85.87,-55.18C74.94,-57.25 63.69,-59.38 54.22,-61.18"/>
<polygon fill="#63b8ff" stroke="#63b8ff" points="86.4,-58.64 95.57,-53.34 85.1,-51.76 86.4,-58.64"/>
</a>
</g>
</g>
<!-- Node10 -->
<g id="Node000010" class="node">
<title>Node10</title>
<g id="a_Node000010"><a xlink:href="lstrlib_8c.html#a4b605e43b8f5738db9eae902bbc00f00" target="_top" xlink:title=" ">
<polygon fill="white" stroke="#666666" points="59.5,-38.25 0,-38.25 0,-19 59.5,-19 59.5,-38.25"/>
<text xml:space="preserve" text-anchor="middle" x="29.75" y="-24.75" font-family="Helvetica,sans-Serif" font-size="10.00">str_match</text>
</a>
</g>
</g>
<!-- Node8&#45;&gt;Node10 -->
<g id="edge14_Node000008_Node000010" class="edge">
<title>Node8&#45;&gt;Node10</title>
<g id="a_edge14_Node000008_Node000010"><a xlink:title=" ">
<path fill="none" stroke="#63b8ff" d="M85.75,-38.5C77,-36.93 68.04,-35.32 59.97,-33.87"/>
<polygon fill="#63b8ff" stroke="#63b8ff" points="85.11,-41.94 95.57,-40.26 86.35,-35.05 85.11,-41.94"/>
</a>
</g>
</g>
</g>
</svg>
</svg>

<style type='text/css'>
<![CDATA[
[data-mouse-over-selected='false'] { opacity: 0.7; }
[data-mouse-over-selected='true']  { opacity: 1.0; }
]]>
</style>
<script type="application/ecmascript"><![CDATA[
document.addEventListener('DOMContentLoaded', (event) => {
  highlightEdges();
  highlightAdjacentNodes();
});
]]></script>
</svg>
