<?xml version="1.0" encoding="UTF-8" standalone="no"?>
<!DOCTYPE svg PUBLIC "-//W3C//DTD SVG 1.1//EN"
 "http://www.w3.org/Graphics/SVG/1.1/DTD/svg11.dtd">
<!-- Generated by graphviz version 13.1.0 (20250701.0955)
 -->
<!-- Title: lua&#45;5.4.7/ltable.c Pages: 1 -->
<!--zoomable 525 -->

<svg id="main" version="1.1" xmlns="http://www.w3.org/2000/svg" xmlns:xlink="http://www.w3.org/1999/xlink" xml:space="preserve" onload="init(evt)">

<style type="text/css"><![CDATA[
.node, .edge {opacity: 0.7;}
.node.selected, .edge.selected {opacity: 1;}
.edge:hover path { stroke: red; }
.edge:hover polygon { stroke: red; fill: red; }
]]></style>

<defs>
  <circle id="rim" cx="0" cy="0" r="7"/>
  <circle id="rim2" cx="0" cy="0" r="3.5"/>
  <g id="zoomPlus">
    <use xlink:href="#rim" fill="#404040"><set attributeName="fill" to="#808080" begin="zoomplus.mouseover" end="zoomplus.mouseout"/></use>
    <path d="M-4,0h8M0,-4v8" fill="none" stroke="white" stroke-width="1.5" pointer-events="none"/>
  </g>
  <g id="zoomMin">
    <use xlink:href="#rim" fill="#404040"><set attributeName="fill" to="#808080" begin="zoomminus.mouseover" end="zoomminus.mouseout"/></use>
    <path d="M-4,0h8" fill="none" stroke="white" stroke-width="1.5" pointer-events="none"/>
  </g>
  <g id="arrowUp" transform="translate(30 24)">
    <use xlink:href="#rim"/>
    <path pointer-events="none" fill="none" stroke="white" stroke-width="1.5" d="M0,-3.0v7 M-2.5,-0.5L0,-3.0L2.5,-0.5"/>
  </g>
  <g id="arrowRight" transform="rotate(90) translate(36 -43)">
    <use xlink:href="#rim"/>
    <path pointer-events="none" fill="none" stroke="white" stroke-width="1.5" d="M0,-3.0v7 M-2.5,-0.5L0,-3.0L2.5,-0.5"/>
  </g>
  <g id="arrowDown" transform="rotate(180) translate(-30 -48)">
    <use xlink:href="#rim"/>
    <path pointer-events="none" fill="none" stroke="white" stroke-width="1.5" d="M0,-3.0v7 M-2.5,-0.5L0,-3.0L2.5,-0.5"/>
  </g>
  <g id="arrowLeft" transform="rotate(270) translate(-36 17)">
    <use xlink:href="#rim"/>
    <path pointer-events="none" fill="none" stroke="white" stroke-width="1.5" d="M0,-3.0v7 M-2.5,-0.5L0,-3.0L2.5,-0.5"/>
  </g>
  <g id="resetDef">
    <use xlink:href="#rim2" fill="#404040"><set attributeName="fill" to="#808080" begin="reset.mouseover" end="reset.mouseout"/></use>
  </g>
</defs>
<script type="application/ecmascript">
var viewWidth = 790;
var viewHeight = 525;
var sectionId = 'dynsection-0';
</script>
<script type="application/ecmascript" xlink:href="svg.min.js"/>
<svg id="graph" class="graph">
<g id="viewport">
<title>lua&#45;5.4.7/ltable.c</title>
<!-- Node1 -->
<g id="Node000001" class="node">
<title>Node1</title>
<g id="a_Node000001"><a xlink:title=" ">
<polygon fill="#999999" stroke="#666666" points="394.25,-516.5 306.25,-516.5 306.25,-497.25 394.25,-497.25 394.25,-516.5"/>
<text xml:space="preserve" text-anchor="middle" x="350.25" y="-503" font-family="Helvetica,sans-Serif" font-size="10.00">lua&#45;5.4.7/ltable.c</text>
</a>
</g>
</g>
<!-- Node2 -->
<g id="Node000002" class="node">
<title>Node2</title>
<g id="a_Node000002"><a xlink:href="lprefix_8h.html" target="_top" xlink:title=" ">
<polygon fill="white" stroke="#666666" points="50.5,-461.25 0,-461.25 0,-442 50.5,-442 50.5,-461.25"/>
<text xml:space="preserve" text-anchor="middle" x="25.25" y="-447.75" font-family="Helvetica,sans-Serif" font-size="10.00">lprefix.h</text>
</a>
</g>
</g>
<!-- Node1&#45;&gt;Node2 -->
<g id="edge1_Node000001_Node000002" class="edge">
<title>Node1&#45;&gt;Node2</title>
<g id="a_edge1_Node000001_Node000002"><a xlink:title=" ">
<path fill="none" stroke="#63b8ff" d="M306.14,-500.46C251.16,-493.41 154.11,-479.99 62.01,-461.65"/>
<polygon fill="#63b8ff" stroke="#63b8ff" points="62.79,-458.24 52.29,-459.69 61.4,-465.1 62.79,-458.24"/>
</a>
</g>
</g>
<!-- Node3 -->
<g id="Node000003" class="node">
<title>Node3</title>
<g id="a_Node000003"><a xlink:title=" ">
<polygon fill="#e0e0e0" stroke="#999999" points="114.25,-461.25 68.25,-461.25 68.25,-442 114.25,-442 114.25,-461.25"/>
<text xml:space="preserve" text-anchor="middle" x="91.25" y="-447.75" font-family="Helvetica,sans-Serif" font-size="10.00">math.h</text>
</a>
</g>
</g>
<!-- Node1&#45;&gt;Node3 -->
<g id="edge2_Node000001_Node000003" class="edge">
<title>Node1&#45;&gt;Node3</title>
<g id="a_edge2_Node000001_Node000003"><a xlink:title=" ">
<path fill="none" stroke="#63b8ff" d="M305.94,-497.38C261.07,-488.69 189.72,-474.59 128.25,-461.25 127.43,-461.07 126.6,-460.89 125.76,-460.7"/>
<polygon fill="#63b8ff" stroke="#63b8ff" points="126.72,-457.33 116.19,-458.54 125.17,-464.16 126.72,-457.33"/>
</a>
</g>
</g>
<!-- Node4 -->
<g id="Node000004" class="node">
<title>Node4</title>
<g id="a_Node000004"><a xlink:title=" ">
<polygon fill="#e0e0e0" stroke="#999999" points="655,-19.25 607.5,-19.25 607.5,0 655,0 655,-19.25"/>
<text xml:space="preserve" text-anchor="middle" x="631.25" y="-5.75" font-family="Helvetica,sans-Serif" font-size="10.00">limits.h</text>
</a>
</g>
</g>
<!-- Node1&#45;&gt;Node4 -->
<g id="edge3_Node000001_Node000004" class="edge">
<title>Node1&#45;&gt;Node4</title>
<g id="a_edge3_Node000001_Node000004"><a xlink:title=" ">
<path fill="none" stroke="#63b8ff" d="M305.88,-502.22C244.8,-494.48 142.25,-470.59 142.25,-397.38 142.25,-397.38 142.25,-397.38 142.25,-119.12 142.25,-26.2 483.04,-12.81 595.63,-10.92"/>
<polygon fill="#63b8ff" stroke="#63b8ff" points="595.54,-14.42 605.49,-10.78 595.44,-7.42 595.54,-14.42"/>
</a>
</g>
</g>
<!-- Node5 -->
<g id="Node000005" class="node">
<title>Node5</title>
<g id="a_Node000005"><a xlink:href="lua_8h.html" target="_top" xlink:title=" ">
<polygon fill="white" stroke="#666666" points="654.75,-129.75 617.75,-129.75 617.75,-110.5 654.75,-110.5 654.75,-129.75"/>
<text xml:space="preserve" text-anchor="middle" x="636.25" y="-116.25" font-family="Helvetica,sans-Serif" font-size="10.00">lua.h</text>
</a>
</g>
</g>
<!-- Node1&#45;&gt;Node5 -->
<g id="edge4_Node000001_Node000005" class="edge">
<title>Node1&#45;&gt;Node5</title>
<g id="a_edge4_Node000001_Node000005"><a xlink:title=" ">
<path fill="none" stroke="#63b8ff" d="M394.45,-504.13C504.55,-498.59 782.25,-476.73 782.25,-397.38 782.25,-397.38 782.25,-397.38 782.25,-229.62 782.25,-199.74 782.11,-187.15 761.25,-165.75 735.91,-139.77 694.44,-128.86 666.27,-124.32"/>
<polygon fill="#63b8ff" stroke="#63b8ff" points="666.99,-120.89 656.6,-122.95 666.01,-127.82 666.99,-120.89"/>
</a>
</g>
</g>
<!-- Node9 -->
<g id="Node000009" class="node">
<title>Node9</title>
<g id="a_Node000009"><a xlink:href="ldebug_8h.html" target="_top" xlink:title=" ">
<polygon fill="white" stroke="#666666" points="506.62,-406 453.88,-406 453.88,-386.75 506.62,-386.75 506.62,-406"/>
<text xml:space="preserve" text-anchor="middle" x="480.25" y="-392.5" font-family="Helvetica,sans-Serif" font-size="10.00">ldebug.h</text>
</a>
</g>
</g>
<!-- Node1&#45;&gt;Node9 -->
<g id="edge10_Node000001_Node000009" class="edge">
<title>Node1&#45;&gt;Node9</title>
<g id="a_edge10_Node000001_Node000009"><a xlink:title=" ">
<path fill="none" stroke="#63b8ff" d="M384.87,-496.82C405.64,-489.92 431.41,-478.6 449.25,-461.25 461.69,-449.16 469.82,-431.05 474.62,-417.2"/>
<polygon fill="#63b8ff" stroke="#63b8ff" points="477.91,-418.41 477.56,-407.83 471.23,-416.32 477.91,-418.41"/>
</a>
</g>
</g>
<!-- Node10 -->
<g id="Node000010" class="node">
<title>Node10</title>
<g id="a_Node000010"><a xlink:href="lstate_8h.html" target="_top" xlink:title=" ">
<polygon fill="white" stroke="#666666" points="517.38,-350.75 469.12,-350.75 469.12,-331.5 517.38,-331.5 517.38,-350.75"/>
<text xml:space="preserve" text-anchor="middle" x="493.25" y="-337.25" font-family="Helvetica,sans-Serif" font-size="10.00">lstate.h</text>
</a>
</g>
</g>
<!-- Node1&#45;&gt;Node10 -->
<g id="edge39_Node000001_Node000010" class="edge">
<title>Node1&#45;&gt;Node10</title>
<g id="a_edge39_Node000001_Node000010"><a xlink:title=" ">
<path fill="none" stroke="#63b8ff" d="M390.09,-496.79C414.77,-489.84 446.22,-478.47 470.25,-461.25 495.99,-442.81 504.64,-435.84 515.25,-406 520.65,-390.81 513.91,-373.51 506.5,-360.75"/>
<polygon fill="#63b8ff" stroke="#63b8ff" points="509.56,-359.03 501.2,-352.51 503.67,-362.82 509.56,-359.03"/>
</a>
</g>
</g>
<!-- Node11 -->
<g id="Node000011" class="node">
<title>Node11</title>
<g id="a_Node000011"><a xlink:href="lobject_8h.html" target="_top" xlink:title=" ">
<polygon fill="white" stroke="#666666" points="433.62,-240.25 380.88,-240.25 380.88,-221 433.62,-221 433.62,-240.25"/>
<text xml:space="preserve" text-anchor="middle" x="407.25" y="-226.75" font-family="Helvetica,sans-Serif" font-size="10.00">lobject.h</text>
</a>
</g>
</g>
<!-- Node1&#45;&gt;Node11 -->
<g id="edge38_Node000001_Node000011" class="edge">
<title>Node1&#45;&gt;Node11</title>
<g id="a_edge38_Node000001_Node000011"><a xlink:title=" ">
<path fill="none" stroke="#63b8ff" d="M306.03,-497.63C255.66,-485.38 180.25,-457.07 180.25,-397.38 180.25,-397.38 180.25,-397.38 180.25,-340.12 180.25,-257.27 304.89,-237.63 369.45,-233.02"/>
<polygon fill="#63b8ff" stroke="#63b8ff" points="369.49,-236.52 379.26,-232.41 369.06,-229.53 369.49,-236.52"/>
</a>
</g>
</g>
<!-- Node15 -->
<g id="Node000015" class="node">
<title>Node15</title>
<g id="a_Node000015"><a xlink:href="lmem_8h.html" target="_top" xlink:title=" ">
<polygon fill="white" stroke="#666666" points="754.38,-240.25 706.12,-240.25 706.12,-221 754.38,-221 754.38,-240.25"/>
<text xml:space="preserve" text-anchor="middle" x="730.25" y="-226.75" font-family="Helvetica,sans-Serif" font-size="10.00">lmem.h</text>
</a>
</g>
</g>
<!-- Node1&#45;&gt;Node15 -->
<g id="edge37_Node000001_Node000015" class="edge">
<title>Node1&#45;&gt;Node15</title>
<g id="a_edge37_Node000001_Node000015"><a xlink:title=" ">
<path fill="none" stroke="#63b8ff" d="M394.44,-502.69C495,-494.24 732.25,-466.92 732.25,-397.38 732.25,-397.38 732.25,-397.38 732.25,-340.12 732.25,-309.4 731.44,-273.79 730.85,-251.99"/>
<polygon fill="#63b8ff" stroke="#63b8ff" points="734.35,-252.04 730.57,-242.14 727.35,-252.23 734.35,-252.04"/>
</a>
</g>
</g>
<!-- Node17 -->
<g id="Node000017" class="node">
<title>Node17</title>
<g id="a_Node000017"><a xlink:href="ldo_8h.html" target="_top" xlink:title=" ">
<polygon fill="white" stroke="#666666" points="599.75,-406 562.75,-406 562.75,-386.75 599.75,-386.75 599.75,-406"/>
<text xml:space="preserve" text-anchor="middle" x="581.25" y="-392.5" font-family="Helvetica,sans-Serif" font-size="10.00">ldo.h</text>
</a>
</g>
</g>
<!-- Node1&#45;&gt;Node17 -->
<g id="edge29_Node000001_Node000017" class="edge">
<title>Node1&#45;&gt;Node17</title>
<g id="a_edge29_Node000001_Node000017"><a xlink:title=" ">
<path fill="none" stroke="#63b8ff" d="M394.48,-506.28C437.86,-504.48 503.77,-495.61 548.25,-461.25 562.45,-450.28 571.11,-431.49 575.97,-417.12"/>
<polygon fill="#63b8ff" stroke="#63b8ff" points="579.24,-418.39 578.76,-407.81 572.54,-416.38 579.24,-418.39"/>
</a>
</g>
</g>
<!-- Node18 -->
<g id="Node000018" class="node">
<title>Node18</title>
<g id="a_Node000018"><a xlink:href="lgc_8h.html" target="_top" xlink:title=" ">
<polygon fill="white" stroke="#666666" points="321.75,-406 284.75,-406 284.75,-386.75 321.75,-386.75 321.75,-406"/>
<text xml:space="preserve" text-anchor="middle" x="303.25" y="-392.5" font-family="Helvetica,sans-Serif" font-size="10.00">lgc.h</text>
</a>
</g>
</g>
<!-- Node1&#45;&gt;Node18 -->
<g id="edge34_Node000001_Node000018" class="edge">
<title>Node1&#45;&gt;Node18</title>
<g id="a_edge34_Node000001_Node000018"><a xlink:title=" ">
<path fill="none" stroke="#63b8ff" d="M341.31,-496.77C333.49,-488.28 322.45,-474.91 316.25,-461.25 310.01,-447.49 306.74,-430.71 305.04,-417.8"/>
<polygon fill="#63b8ff" stroke="#63b8ff" points="308.53,-417.51 303.98,-407.95 301.57,-418.26 308.53,-417.51"/>
</a>
</g>
</g>
<!-- Node19 -->
<g id="Node000019" class="node">
<title>Node19</title>
<g id="a_Node000019"><a xlink:href="lstring_8h.html" target="_top" xlink:title=" ">
<polygon fill="white" stroke="#666666" points="375.5,-461.25 325,-461.25 325,-442 375.5,-442 375.5,-461.25"/>
<text xml:space="preserve" text-anchor="middle" x="350.25" y="-447.75" font-family="Helvetica,sans-Serif" font-size="10.00">lstring.h</text>
</a>
</g>
</g>
<!-- Node1&#45;&gt;Node19 -->
<g id="edge40_Node000001_Node000019" class="edge">
<title>Node1&#45;&gt;Node19</title>
<g id="a_edge40_Node000001_Node000019"><a xlink:title=" ">
<path fill="none" stroke="#63b8ff" d="M350.25,-497.08C350.25,-490.57 350.25,-481.42 350.25,-473.12"/>
<polygon fill="#63b8ff" stroke="#63b8ff" points="353.75,-473.12 350.25,-463.12 346.75,-473.12 353.75,-473.12"/>
</a>
</g>
</g>
<!-- Node20 -->
<g id="Node000020" class="node">
<title>Node20</title>
<g id="a_Node000020"><a xlink:href="ltable_8h.html" target="_top" xlink:title=" ">
<polygon fill="white" stroke="#666666" points="294,-350.75 246.5,-350.75 246.5,-331.5 294,-331.5 294,-350.75"/>
<text xml:space="preserve" text-anchor="middle" x="270.25" y="-337.25" font-family="Helvetica,sans-Serif" font-size="10.00">ltable.h</text>
</a>
</g>
</g>
<!-- Node1&#45;&gt;Node20 -->
<g id="edge44_Node000001_Node000020" class="edge">
<title>Node1&#45;&gt;Node20</title>
<g id="a_edge44_Node000001_Node000020"><a xlink:title=" ">
<path fill="none" stroke="#63b8ff" d="M339.98,-497.01C330.49,-488.47 316.36,-474.89 306.25,-461.25 289.61,-438.8 284.39,-432.73 276.25,-406 271.92,-391.78 270.47,-375.02 270.08,-362.23"/>
<polygon fill="#63b8ff" stroke="#63b8ff" points="273.58,-362.5 269.99,-352.53 266.58,-362.57 273.58,-362.5"/>
</a>
</g>
</g>
<!-- Node21 -->
<g id="Node000021" class="node">
<title>Node21</title>
<g id="a_Node000021"><a xlink:href="lvm_8h.html" target="_top" xlink:title=" ">
<polygon fill="white" stroke="#666666" points="440.25,-461.25 400.25,-461.25 400.25,-442 440.25,-442 440.25,-461.25"/>
<text xml:space="preserve" text-anchor="middle" x="420.25" y="-447.75" font-family="Helvetica,sans-Serif" font-size="10.00">lvm.h</text>
</a>
</g>
</g>
<!-- Node1&#45;&gt;Node21 -->
<g id="edge46_Node000001_Node000021" class="edge">
<title>Node1&#45;&gt;Node21</title>
<g id="a_edge46_Node000001_Node000021"><a xlink:title=" ">
<path fill="none" stroke="#63b8ff" d="M362.12,-496.84C372.34,-489.07 387.32,-477.67 399.51,-468.4"/>
<polygon fill="#63b8ff" stroke="#63b8ff" points="401.51,-471.28 407.35,-462.44 397.27,-465.71 401.51,-471.28"/>
</a>
</g>
</g>
<!-- Node6 -->
<g id="Node000006" class="node">
<title>Node6</title>
<g id="a_Node000006"><a xlink:title=" ">
<polygon fill="#e0e0e0" stroke="#999999" points="523.88,-74.5 472.62,-74.5 472.62,-55.25 523.88,-55.25 523.88,-74.5"/>
<text xml:space="preserve" text-anchor="middle" x="498.25" y="-61" font-family="Helvetica,sans-Serif" font-size="10.00">stdarg.h</text>
</a>
</g>
</g>
<!-- Node5&#45;&gt;Node6 -->
<g id="edge5_Node000005_Node000006" class="edge">
<title>Node5&#45;&gt;Node6</title>
<g id="a_edge5_Node000005_Node000006"><a xlink:title=" ">
<path fill="none" stroke="#63b8ff" d="M617.35,-111.83C595.42,-103.37 558.84,-89.26 532,-78.9"/>
<polygon fill="#63b8ff" stroke="#63b8ff" points="533.52,-75.73 522.93,-75.4 531,-82.27 533.52,-75.73"/>
</a>
</g>
</g>
<!-- Node7 -->
<g id="Node000007" class="node">
<title>Node7</title>
<g id="a_Node000007"><a xlink:title=" ">
<polygon fill="#e0e0e0" stroke="#999999" points="769.88,-19.25 718.62,-19.25 718.62,0 769.88,0 769.88,-19.25"/>
<text xml:space="preserve" text-anchor="middle" x="744.25" y="-5.75" font-family="Helvetica,sans-Serif" font-size="10.00">stddef.h</text>
</a>
</g>
</g>
<!-- Node5&#45;&gt;Node7 -->
<g id="edge6_Node000005_Node000007" class="edge">
<title>Node5&#45;&gt;Node7</title>
<g id="a_edge6_Node000005_Node000007"><a xlink:title=" ">
<path fill="none" stroke="#63b8ff" d="M645.09,-110.25C663.05,-92.21 704.06,-51 727.33,-27.63"/>
<polygon fill="#63b8ff" stroke="#63b8ff" points="729.65,-30.26 734.22,-20.7 724.69,-25.32 729.65,-30.26"/>
</a>
</g>
</g>
<!-- Node8 -->
<g id="Node000008" class="node">
<title>Node8</title>
<g id="a_Node000008"><a xlink:href="luaconf_8h.html" target="_top" xlink:title=" ">
<polygon fill="white" stroke="#666666" points="659.12,-74.5 603.38,-74.5 603.38,-55.25 659.12,-55.25 659.12,-74.5"/>
<text xml:space="preserve" text-anchor="middle" x="631.25" y="-61" font-family="Helvetica,sans-Serif" font-size="10.00">luaconf.h</text>
</a>
</g>
</g>
<!-- Node5&#45;&gt;Node8 -->
<g id="edge7_Node000005_Node000008" class="edge">
<title>Node5&#45;&gt;Node8</title>
<g id="a_edge7_Node000005_Node000008"><a xlink:title=" ">
<path fill="none" stroke="#63b8ff" d="M635.42,-110.33C634.81,-103.74 633.93,-94.46 633.15,-86.07"/>
<polygon fill="#63b8ff" stroke="#63b8ff" points="636.65,-86 632.24,-76.37 629.69,-86.65 636.65,-86"/>
</a>
</g>
</g>
<!-- Node8&#45;&gt;Node4 -->
<g id="edge8_Node000008_Node000004" class="edge">
<title>Node8&#45;&gt;Node4</title>
<g id="a_edge8_Node000008_Node000004"><a xlink:title=" ">
<path fill="none" stroke="#63b8ff" d="M631.25,-55.08C631.25,-48.57 631.25,-39.42 631.25,-31.12"/>
<polygon fill="#63b8ff" stroke="#63b8ff" points="634.75,-31.12 631.25,-21.12 627.75,-31.12 634.75,-31.12"/>
</a>
</g>
</g>
<!-- Node8&#45;&gt;Node7 -->
<g id="edge9_Node000008_Node000007" class="edge">
<title>Node8&#45;&gt;Node7</title>
<g id="a_edge9_Node000008_Node000007"><a xlink:title=" ">
<path fill="none" stroke="#63b8ff" d="M650.42,-54.84C668.03,-46.54 694.41,-34.11 714.71,-24.54"/>
<polygon fill="#63b8ff" stroke="#63b8ff" points="716.06,-27.78 723.62,-20.35 713.08,-21.44 716.06,-27.78"/>
</a>
</g>
</g>
<!-- Node9&#45;&gt;Node10 -->
<g id="edge11_Node000009_Node000010" class="edge">
<title>Node9&#45;&gt;Node10</title>
<g id="a_edge11_Node000009_Node000010"><a xlink:title=" ">
<path fill="none" stroke="#63b8ff" d="M482.4,-386.58C484.02,-379.92 486.33,-370.49 488.39,-362.03"/>
<polygon fill="#63b8ff" stroke="#63b8ff" points="491.73,-363.12 490.7,-352.58 484.93,-361.46 491.73,-363.12"/>
</a>
</g>
</g>
<!-- Node10&#45;&gt;Node5 -->
<g id="edge12_Node000010_Node000005" class="edge">
<title>Node10&#45;&gt;Node5</title>
<g id="a_edge12_Node000010_Node000005"><a xlink:title=" ">
<path fill="none" stroke="#63b8ff" d="M504.92,-331.11C515.32,-322.68 530.5,-309.34 541.25,-295.5 581.16,-244.11 613.86,-173.71 628.29,-140.27"/>
<polygon fill="#63b8ff" stroke="#63b8ff" points="631.34,-142.04 632.02,-131.46 624.9,-139.3 631.34,-142.04"/>
</a>
</g>
</g>
<!-- Node10&#45;&gt;Node11 -->
<g id="edge13_Node000010_Node000011" class="edge">
<title>Node10&#45;&gt;Node11</title>
<g id="a_edge13_Node000010_Node000011"><a xlink:title=" ">
<path fill="none" stroke="#63b8ff" d="M486.21,-331.25C472.1,-313.44 440.11,-273.08 421.47,-249.56"/>
<polygon fill="#63b8ff" stroke="#63b8ff" points="424.28,-247.48 415.33,-241.81 418.79,-251.82 424.28,-247.48"/>
</a>
</g>
</g>
<!-- Node13 -->
<g id="Node000013" class="node">
<title>Node13</title>
<g id="a_Node000013"><a xlink:href="ltm_8h.html" target="_top" xlink:title=" ">
<polygon fill="white" stroke="#666666" points="426.12,-295.5 388.38,-295.5 388.38,-276.25 426.12,-276.25 426.12,-295.5"/>
<text xml:space="preserve" text-anchor="middle" x="407.25" y="-282" font-family="Helvetica,sans-Serif" font-size="10.00">ltm.h</text>
</a>
</g>
</g>
<!-- Node10&#45;&gt;Node13 -->
<g id="edge20_Node000010_Node000013" class="edge">
<title>Node10&#45;&gt;Node13</title>
<g id="a_edge20_Node000010_Node000013"><a xlink:title=" ">
<path fill="none" stroke="#63b8ff" d="M478.66,-331.09C465.81,-323.14 446.84,-311.39 431.68,-302"/>
<polygon fill="#63b8ff" stroke="#63b8ff" points="433.54,-299.04 423.2,-296.75 429.86,-304.99 433.54,-299.04"/>
</a>
</g>
</g>
<!-- Node14 -->
<g id="Node000014" class="node">
<title>Node14</title>
<g id="a_Node000014"><a xlink:href="lzio_8h.html" target="_top" xlink:title=" ">
<polygon fill="white" stroke="#666666" points="665.88,-295.5 626.62,-295.5 626.62,-276.25 665.88,-276.25 665.88,-295.5"/>
<text xml:space="preserve" text-anchor="middle" x="646.25" y="-282" font-family="Helvetica,sans-Serif" font-size="10.00">lzio.h</text>
</a>
</g>
</g>
<!-- Node10&#45;&gt;Node14 -->
<g id="edge22_Node000010_Node000014" class="edge">
<title>Node10&#45;&gt;Node14</title>
<g id="a_edge22_Node000010_Node000014"><a xlink:title=" ">
<path fill="none" stroke="#63b8ff" d="M517.83,-331.57C544.38,-322.33 586.72,-307.59 615.47,-297.59"/>
<polygon fill="#63b8ff" stroke="#63b8ff" points="616.4,-300.97 624.7,-294.38 614.1,-294.36 616.4,-300.97"/>
</a>
</g>
</g>
<!-- Node16 -->
<g id="Node000016" class="node">
<title>Node16</title>
<g id="a_Node000016"><a xlink:title=" ">
<polygon fill="#e0e0e0" stroke="#999999" points="532.12,-295.5 482.38,-295.5 482.38,-276.25 532.12,-276.25 532.12,-295.5"/>
<text xml:space="preserve" text-anchor="middle" x="507.25" y="-282" font-family="Helvetica,sans-Serif" font-size="10.00">signal.h</text>
</a>
</g>
</g>
<!-- Node10&#45;&gt;Node16 -->
<g id="edge28_Node000010_Node000016" class="edge">
<title>Node10&#45;&gt;Node16</title>
<g id="a_edge28_Node000010_Node000016"><a xlink:title=" ">
<path fill="none" stroke="#63b8ff" d="M495.56,-331.33C497.31,-324.67 499.79,-315.24 502.02,-306.78"/>
<polygon fill="#63b8ff" stroke="#63b8ff" points="505.35,-307.88 504.5,-297.32 498.58,-306.1 505.35,-307.88"/>
</a>
</g>
</g>
<!-- Node11&#45;&gt;Node5 -->
<g id="edge19_Node000011_Node000005" class="edge">
<title>Node11&#45;&gt;Node5</title>
<g id="a_edge19_Node000011_Node000005"><a xlink:title=" ">
<path fill="none" stroke="#63b8ff" d="M426.38,-220.56C466.47,-201.57 559.51,-157.48 607.09,-134.94"/>
<polygon fill="#63b8ff" stroke="#63b8ff" points="608.43,-138.18 615.97,-130.73 605.43,-131.85 608.43,-138.18"/>
</a>
</g>
</g>
<!-- Node11&#45;&gt;Node6 -->
<g id="edge14_Node000011_Node000006" class="edge">
<title>Node11&#45;&gt;Node6</title>
<g id="a_edge14_Node000011_Node000006"><a xlink:title=" ">
<path fill="none" stroke="#63b8ff" d="M412.14,-220.82C426.4,-195.17 468.14,-120.05 487.79,-84.69"/>
<polygon fill="#63b8ff" stroke="#63b8ff" points="490.8,-86.49 492.6,-76.05 484.68,-83.09 490.8,-86.49"/>
</a>
</g>
</g>
<!-- Node12 -->
<g id="Node000012" class="node">
<title>Node12</title>
<g id="a_Node000012"><a xlink:href="llimits_8h.html" target="_top" xlink:title=" ">
<polygon fill="white" stroke="#666666" points="752.12,-185 702.38,-185 702.38,-165.75 752.12,-165.75 752.12,-185"/>
<text xml:space="preserve" text-anchor="middle" x="727.25" y="-171.5" font-family="Helvetica,sans-Serif" font-size="10.00">llimits.h</text>
</a>
</g>
</g>
<!-- Node11&#45;&gt;Node12 -->
<g id="edge15_Node000011_Node000012" class="edge">
<title>Node11&#45;&gt;Node12</title>
<g id="a_edge15_Node000011_Node000012"><a xlink:title=" ">
<path fill="none" stroke="#63b8ff" d="M433.98,-225.18C491.25,-215.65 625.85,-193.25 690.86,-182.43"/>
<polygon fill="#63b8ff" stroke="#63b8ff" points="691.37,-185.89 700.66,-180.8 690.22,-178.99 691.37,-185.89"/>
</a>
</g>
</g>
<!-- Node12&#45;&gt;Node4 -->
<g id="edge16_Node000012_Node000004" class="edge">
<title>Node12&#45;&gt;Node4</title>
<g id="a_edge16_Node000012_Node000004"><a xlink:title=" ">
<path fill="none" stroke="#63b8ff" d="M723.62,-165.32C715.26,-144.89 693.39,-93.96 668.25,-55.25 662.1,-45.79 654.24,-36.05 647.35,-28.1"/>
<polygon fill="#63b8ff" stroke="#63b8ff" points="650.14,-25.97 640.87,-20.84 644.91,-30.63 650.14,-25.97"/>
</a>
</g>
</g>
<!-- Node12&#45;&gt;Node5 -->
<g id="edge18_Node000012_Node000005" class="edge">
<title>Node12&#45;&gt;Node5</title>
<g id="a_edge18_Node000012_Node000005"><a xlink:title=" ">
<path fill="none" stroke="#63b8ff" d="M711.81,-165.34C698.09,-157.31 677.75,-145.41 661.63,-135.98"/>
<polygon fill="#63b8ff" stroke="#63b8ff" points="663.47,-133 653.07,-130.97 659.93,-139.04 663.47,-133"/>
</a>
</g>
</g>
<!-- Node12&#45;&gt;Node7 -->
<g id="edge17_Node000012_Node000007" class="edge">
<title>Node12&#45;&gt;Node7</title>
<g id="a_edge17_Node000012_Node000007"><a xlink:title=" ">
<path fill="none" stroke="#63b8ff" d="M728.16,-165.57C730.79,-140.25 738.42,-66.75 742.15,-30.84"/>
<polygon fill="#63b8ff" stroke="#63b8ff" points="745.62,-31.29 743.18,-20.98 738.66,-30.56 745.62,-31.29"/>
</a>
</g>
</g>
<!-- Node13&#45;&gt;Node11 -->
<g id="edge21_Node000013_Node000011" class="edge">
<title>Node13&#45;&gt;Node11</title>
<g id="a_edge21_Node000013_Node000011"><a xlink:title=" ">
<path fill="none" stroke="#63b8ff" d="M407.25,-276.08C407.25,-269.57 407.25,-260.42 407.25,-252.12"/>
<polygon fill="#63b8ff" stroke="#63b8ff" points="410.75,-252.12 407.25,-242.12 403.75,-252.12 410.75,-252.12"/>
</a>
</g>
</g>
<!-- Node14&#45;&gt;Node5 -->
<g id="edge23_Node000014_Node000005" class="edge">
<title>Node14&#45;&gt;Node5</title>
<g id="a_edge23_Node000014_Node000005"><a xlink:title=" ">
<path fill="none" stroke="#63b8ff" d="M645.71,-276.07C644.17,-250.75 639.68,-177.25 637.48,-141.34"/>
<polygon fill="#63b8ff" stroke="#63b8ff" points="640.99,-141.25 636.88,-131.48 634,-141.68 640.99,-141.25"/>
</a>
</g>
</g>
<!-- Node14&#45;&gt;Node15 -->
<g id="edge24_Node000014_Node000015" class="edge">
<title>Node14&#45;&gt;Node15</title>
<g id="a_edge24_Node000014_Node000015"><a xlink:title=" ">
<path fill="none" stroke="#63b8ff" d="M660.5,-275.84C673.05,-267.89 691.58,-256.14 706.39,-246.75"/>
<polygon fill="#63b8ff" stroke="#63b8ff" points="708.08,-249.82 714.65,-241.51 704.33,-243.91 708.08,-249.82"/>
</a>
</g>
</g>
<!-- Node15&#45;&gt;Node5 -->
<g id="edge27_Node000015_Node000005" class="edge">
<title>Node15&#45;&gt;Node5</title>
<g id="a_edge27_Node000015_Node000005"><a xlink:title=" ">
<path fill="none" stroke="#63b8ff" d="M722.56,-220.75C707.07,-202.86 671.85,-162.22 651.52,-138.75"/>
<polygon fill="#63b8ff" stroke="#63b8ff" points="654.23,-136.54 645.04,-131.27 648.94,-141.12 654.23,-136.54"/>
</a>
</g>
</g>
<!-- Node15&#45;&gt;Node7 -->
<g id="edge25_Node000015_Node000007" class="edge">
<title>Node15&#45;&gt;Node7</title>
<g id="a_edge25_Node000015_Node000007"><a xlink:title=" ">
<path fill="none" stroke="#63b8ff" d="M739.02,-220.62C746.57,-212.2 756.91,-198.86 761.25,-185 778.18,-130.95 761.49,-63.27 751.13,-30.39"/>
<polygon fill="#63b8ff" stroke="#63b8ff" points="754.49,-29.42 748.02,-21.02 747.85,-31.62 754.49,-29.42"/>
</a>
</g>
</g>
<!-- Node15&#45;&gt;Node12 -->
<g id="edge26_Node000015_Node000012" class="edge">
<title>Node15&#45;&gt;Node12</title>
<g id="a_edge26_Node000015_Node000012"><a xlink:title=" ">
<path fill="none" stroke="#63b8ff" d="M729.75,-220.83C729.38,-214.24 728.86,-204.96 728.39,-196.57"/>
<polygon fill="#63b8ff" stroke="#63b8ff" points="731.9,-196.66 727.84,-186.87 724.91,-197.05 731.9,-196.66"/>
</a>
</g>
</g>
<!-- Node17&#45;&gt;Node10 -->
<g id="edge32_Node000017_Node000010" class="edge">
<title>Node17&#45;&gt;Node10</title>
<g id="a_edge32_Node000017_Node000010"><a xlink:title=" ">
<path fill="none" stroke="#63b8ff" d="M566.32,-386.34C553.05,-378.31 533.38,-366.41 517.8,-356.98"/>
<polygon fill="#63b8ff" stroke="#63b8ff" points="519.91,-354.17 509.55,-351.99 516.29,-360.16 519.91,-354.17"/>
</a>
</g>
</g>
<!-- Node17&#45;&gt;Node11 -->
<g id="edge31_Node000017_Node000011" class="edge">
<title>Node17&#45;&gt;Node11</title>
<g id="a_edge31_Node000017_Node000011"><a xlink:title=" ">
<path fill="none" stroke="#63b8ff" d="M580.87,-386.52C579.45,-364.66 572.76,-307.68 541.25,-276.25 515.66,-250.72 475.1,-239.8 445.3,-235.12"/>
<polygon fill="#63b8ff" stroke="#63b8ff" points="445.95,-231.68 435.56,-233.78 444.99,-238.61 445.95,-231.68"/>
</a>
</g>
</g>
<!-- Node17&#45;&gt;Node12 -->
<g id="edge30_Node000017_Node000012" class="edge">
<title>Node17&#45;&gt;Node12</title>
<g id="a_edge30_Node000017_Node000012"><a xlink:title=" ">
<path fill="none" stroke="#63b8ff" d="M591.27,-386.44C600.99,-377.63 616.03,-363.66 628.25,-350.75 650.42,-327.34 659.91,-323.85 675.25,-295.5 691.68,-265.14 682.56,-252.24 697.25,-221 701.56,-211.84 707.6,-202.43 713.14,-194.62"/>
<polygon fill="#63b8ff" stroke="#63b8ff" points="715.89,-196.79 719.03,-186.67 710.27,-192.62 715.89,-196.79"/>
</a>
</g>
</g>
<!-- Node17&#45;&gt;Node14 -->
<g id="edge33_Node000017_Node000014" class="edge">
<title>Node17&#45;&gt;Node14</title>
<g id="a_edge33_Node000017_Node000014"><a xlink:title=" ">
<path fill="none" stroke="#63b8ff" d="M586.57,-386.5C597.14,-368.85 620.98,-329.05 635.12,-305.45"/>
<polygon fill="#63b8ff" stroke="#63b8ff" points="637.94,-307.55 640.08,-297.18 631.94,-303.95 637.94,-307.55"/>
</a>
</g>
</g>
<!-- Node18&#45;&gt;Node10 -->
<g id="edge36_Node000018_Node000010" class="edge">
<title>Node18&#45;&gt;Node10</title>
<g id="a_edge36_Node000018_Node000010"><a xlink:title=" ">
<path fill="none" stroke="#63b8ff" d="M322.16,-390.07C353.75,-381.22 417.74,-363.29 457.88,-352.04"/>
<polygon fill="#63b8ff" stroke="#63b8ff" points="458.63,-355.46 467.32,-349.39 456.74,-348.72 458.63,-355.46"/>
</a>
</g>
</g>
<!-- Node18&#45;&gt;Node11 -->
<g id="edge35_Node000018_Node000011" class="edge">
<title>Node18&#45;&gt;Node11</title>
<g id="a_edge35_Node000018_Node000011"><a xlink:title=" ">
<path fill="none" stroke="#63b8ff" d="M304.63,-386.46C308.25,-365.42 319.63,-311.8 346.25,-276.25 355.19,-264.31 368.22,-254.17 379.95,-246.59"/>
<polygon fill="#63b8ff" stroke="#63b8ff" points="381.76,-249.59 388.49,-241.4 378.12,-243.61 381.76,-249.59"/>
</a>
</g>
</g>
<!-- Node19&#45;&gt;Node10 -->
<g id="edge43_Node000019_Node000010" class="edge">
<title>Node19&#45;&gt;Node10</title>
<g id="a_edge43_Node000019_Node000010"><a xlink:title=" ">
<path fill="none" stroke="#63b8ff" d="M361.95,-441.75C386.15,-423.39 441.96,-381.04 472.45,-357.91"/>
<polygon fill="#63b8ff" stroke="#63b8ff" points="474.33,-360.87 480.18,-352.04 470.1,-355.3 474.33,-360.87"/>
</a>
</g>
</g>
<!-- Node19&#45;&gt;Node11 -->
<g id="edge42_Node000019_Node000011" class="edge">
<title>Node19&#45;&gt;Node11</title>
<g id="a_edge42_Node000019_Node000011"><a xlink:title=" ">
<path fill="none" stroke="#63b8ff" d="M328.86,-441.57C290.85,-423.99 217.32,-382.47 237.25,-331.5 258.42,-277.36 326.31,-251.1 369.62,-239.55"/>
<polygon fill="#63b8ff" stroke="#63b8ff" points="370.28,-243 379.13,-237.17 368.58,-236.21 370.28,-243"/>
</a>
</g>
</g>
<!-- Node19&#45;&gt;Node18 -->
<g id="edge41_Node000019_Node000018" class="edge">
<title>Node19&#45;&gt;Node18</title>
<g id="a_edge41_Node000019_Node000018"><a xlink:title=" ">
<path fill="none" stroke="#63b8ff" d="M342.49,-441.83C336.06,-434.55 326.74,-423.98 318.79,-414.98"/>
<polygon fill="#63b8ff" stroke="#63b8ff" points="321.42,-412.68 312.18,-407.49 316.17,-417.31 321.42,-412.68"/>
</a>
</g>
</g>
<!-- Node20&#45;&gt;Node11 -->
<g id="edge45_Node000020_Node000011" class="edge">
<title>Node20&#45;&gt;Node11</title>
<g id="a_edge45_Node000020_Node000011"><a xlink:title=" ">
<path fill="none" stroke="#63b8ff" d="M273.55,-331.12C278.92,-317.58 290.73,-291.89 308.25,-276.25 325.93,-260.47 350.12,-249.42 370.16,-242.27"/>
<polygon fill="#63b8ff" stroke="#63b8ff" points="371.01,-245.68 379.37,-239.17 368.78,-239.04 371.01,-245.68"/>
</a>
</g>
</g>
<!-- Node21&#45;&gt;Node11 -->
<g id="edge48_Node000021_Node000011" class="edge">
<title>Node21&#45;&gt;Node11</title>
<g id="a_edge48_Node000021_Node000011"><a xlink:title=" ">
<path fill="none" stroke="#63b8ff" d="M417.01,-441.7C408.69,-418.18 386.64,-352.41 379.25,-295.5 378.15,-287.02 376.88,-284.47 379.25,-276.25 381.99,-266.72 387.44,-257.25 392.8,-249.51"/>
<polygon fill="#63b8ff" stroke="#63b8ff" points="395.48,-251.77 398.67,-241.67 389.88,-247.58 395.48,-251.77"/>
</a>
</g>
</g>
<!-- Node21&#45;&gt;Node13 -->
<g id="edge49_Node000021_Node000013" class="edge">
<title>Node21&#45;&gt;Node13</title>
<g id="a_edge49_Node000021_Node000013"><a xlink:title=" ">
<path fill="none" stroke="#63b8ff" d="M419.55,-441.82C417.54,-416.5 411.71,-343 408.85,-307.09"/>
<polygon fill="#63b8ff" stroke="#63b8ff" points="412.35,-306.92 408.07,-297.23 405.37,-307.48 412.35,-306.92"/>
</a>
</g>
</g>
<!-- Node21&#45;&gt;Node17 -->
<g id="edge47_Node000021_Node000017" class="edge">
<title>Node21&#45;&gt;Node17</title>
<g id="a_edge47_Node000021_Node000017"><a xlink:title=" ">
<path fill="none" stroke="#63b8ff" d="M440.64,-443.88C468.8,-434.57 519.75,-417.72 551.97,-407.06"/>
<polygon fill="#63b8ff" stroke="#63b8ff" points="552.69,-410.51 561.08,-404.04 550.49,-403.86 552.69,-410.51"/>
</a>
</g>
</g>
</g>
</svg>

<g id="navigator" transform="translate(0 0)" fill="#404254">
  <rect fill="#f2f5e9" fill-opacity="0.5" stroke="#606060" stroke-width=".5" x="0" y="0" width="60" height="60"/>
  <use id="zoomplus" xlink:href="#zoomPlus" x="17" y="9" onmousedown="handleZoom(evt,'in')"/>
  <use id="zoomminus" xlink:href="#zoomMin" x="42" y="9" onmousedown="handleZoom(evt,'out')"/>
  <use id="reset" xlink:href="#resetDef" x="30" y="36" onmousedown="handleReset()"/>
   <use id="arrowup" xlink:href="#arrowUp" x="0" y="0" onmousedown="handlePan(0,-1)"/>
  <use id="arrowright" xlink:href="#arrowRight" x="0" y="0" onmousedown="handlePan(1,0)"/>
  <use id="arrowdown" xlink:href="#arrowDown" x="0" y="0" onmousedown="handlePan(0,1)"/>
  <use id="arrowleft" xlink:href="#arrowLeft" x="0" y="0" onmousedown="handlePan(-1,0)"/>
</g>
<svg viewBox="0 0 15 15" width="100%" height="30px" preserveAspectRatio="xMaxYMin meet">
 <g id="arrow_out" transform="scale(0.3 0.3)">
  <a xlink:href="ltable_8c__incl_org.svg" target="_base">
   <rect id="button" ry="5" rx="5" y="6" x="6" height="38" width="38"
        fill="#f2f5e9" fill-opacity="0.5" stroke="#606060" stroke-width="1.0"/>
   <path id="arrow"
     d="M 11.500037,31.436501 C 11.940474,20.09759 22.043105,11.32322 32.158766,21.979434 L 37.068811,17.246167 C 37.068811,17.246167 37.088388,32 37.088388,32 L 22.160133,31.978069 C 22.160133,31.978069 26.997745,27.140456 26.997745,27.140456 C 18.528582,18.264221 13.291696,25.230495 11.500037,31.436501 z"
     style="fill:#404040;"/>
  </a>
 </g>
</svg>

<style type='text/css'>
<![CDATA[
[data-mouse-over-selected='false'] { opacity: 0.7; }
[data-mouse-over-selected='true']  { opacity: 1.0; }
]]>
</style>
<script type="application/ecmascript"><![CDATA[
document.addEventListener('DOMContentLoaded', (event) => {
  highlightEdges();
  highlightAdjacentNodes();
});
]]></script>
</svg>
