<?xml version="1.0" encoding="UTF-8" standalone="no"?>
<!DOCTYPE svg PUBLIC "-//W3C//DTD SVG 1.1//EN"
 "http://www.w3.org/Graphics/SVG/1.1/DTD/svg11.dtd">
<!-- Generated by graphviz version 13.1.0 (20250701.0955)
 -->
<!-- Title: lua&#45;5.4.7/ltm.c Pages: 1 -->
<svg width="772pt" height="525pt"
 viewBox="0.00 0.00 772.00 525.00" xmlns="http://www.w3.org/2000/svg" xmlns:xlink="http://www.w3.org/1999/xlink">
<g id="graph0" class="graph" transform="scale(1 1) rotate(0) translate(4 520.5)">
<title>lua&#45;5.4.7/ltm.c</title>
<!-- Node1 -->
<g id="Node000001" class="node">
<title>Node1</title>
<g id="a_Node000001"><a xlink:title=" ">
<polygon fill="#999999" stroke="#666666" points="399.38,-516.5 321.12,-516.5 321.12,-497.25 399.38,-497.25 399.38,-516.5"/>
<text xml:space="preserve" text-anchor="middle" x="360.25" y="-503" font-family="Helvetica,sans-Serif" font-size="10.00">lua&#45;5.4.7/ltm.c</text>
</a>
</g>
</g>
<!-- Node2 -->
<g id="Node000002" class="node">
<title>Node2</title>
<g id="a_Node000002"><a xlink:href="lprefix_8h.html" target="_top" xlink:title=" ">
<polygon fill="white" stroke="#666666" points="50.5,-461.25 0,-461.25 0,-442 50.5,-442 50.5,-461.25"/>
<text xml:space="preserve" text-anchor="middle" x="25.25" y="-447.75" font-family="Helvetica,sans-Serif" font-size="10.00">lprefix.h</text>
</a>
</g>
</g>
<!-- Node1&#45;&gt;Node2 -->
<g id="edge1_Node000001_Node000002" class="edge">
<title>Node1&#45;&gt;Node2</title>
<g id="a_edge1_Node000001_Node000002"><a xlink:title=" ">
<path fill="none" stroke="#63b8ff" d="M321.07,-501.35C265.5,-494.66 160.43,-480.97 61.86,-461.61"/>
<polygon fill="#63b8ff" stroke="#63b8ff" points="62.78,-458.22 52.29,-459.7 61.41,-465.09 62.78,-458.22"/>
</a>
</g>
</g>
<!-- Node3 -->
<g id="Node000003" class="node">
<title>Node3</title>
<g id="a_Node000003"><a xlink:title=" ">
<polygon fill="#e0e0e0" stroke="#999999" points="116.38,-461.25 68.12,-461.25 68.12,-442 116.38,-442 116.38,-461.25"/>
<text xml:space="preserve" text-anchor="middle" x="92.25" y="-447.75" font-family="Helvetica,sans-Serif" font-size="10.00">string.h</text>
</a>
</g>
</g>
<!-- Node1&#45;&gt;Node3 -->
<g id="edge2_Node000001_Node000003" class="edge">
<title>Node1&#45;&gt;Node3</title>
<g id="a_edge2_Node000001_Node000003"><a xlink:title=" ">
<path fill="none" stroke="#63b8ff" d="M320.7,-498.59C274.81,-490.05 196.92,-475.28 130.25,-461.25 129.43,-461.08 128.6,-460.9 127.77,-460.72"/>
<polygon fill="#63b8ff" stroke="#63b8ff" points="128.75,-457.36 118.23,-458.63 127.25,-464.19 128.75,-457.36"/>
</a>
</g>
</g>
<!-- Node4 -->
<g id="Node000004" class="node">
<title>Node4</title>
<g id="a_Node000004"><a xlink:href="lua_8h.html" target="_top" xlink:title=" ">
<polygon fill="white" stroke="#666666" points="326.75,-129.75 289.75,-129.75 289.75,-110.5 326.75,-110.5 326.75,-129.75"/>
<text xml:space="preserve" text-anchor="middle" x="308.25" y="-116.25" font-family="Helvetica,sans-Serif" font-size="10.00">lua.h</text>
</a>
</g>
</g>
<!-- Node1&#45;&gt;Node4 -->
<g id="edge3_Node000001_Node000004" class="edge">
<title>Node1&#45;&gt;Node4</title>
<g id="a_edge3_Node000001_Node000004"><a xlink:title=" ">
<path fill="none" stroke="#63b8ff" d="M320.63,-503.48C258.27,-497.34 144.25,-475.43 144.25,-397.38 144.25,-397.38 144.25,-397.38 144.25,-229.62 144.25,-166.05 231.03,-137.56 278.34,-126.74"/>
<polygon fill="#63b8ff" stroke="#63b8ff" points="278.91,-130.2 287.96,-124.68 277.45,-123.36 278.91,-130.2"/>
</a>
</g>
</g>
<!-- Node9 -->
<g id="Node000009" class="node">
<title>Node9</title>
<g id="a_Node000009"><a xlink:href="ldebug_8h.html" target="_top" xlink:title=" ">
<polygon fill="white" stroke="#666666" points="300.62,-406 247.88,-406 247.88,-386.75 300.62,-386.75 300.62,-406"/>
<text xml:space="preserve" text-anchor="middle" x="274.25" y="-392.5" font-family="Helvetica,sans-Serif" font-size="10.00">ldebug.h</text>
</a>
</g>
</g>
<!-- Node1&#45;&gt;Node9 -->
<g id="edge9_Node000001_Node000009" class="edge">
<title>Node1&#45;&gt;Node9</title>
<g id="a_edge9_Node000001_Node000009"><a xlink:title=" ">
<path fill="none" stroke="#63b8ff" d="M353.21,-497C339.1,-479.19 307.11,-438.83 288.47,-415.31"/>
<polygon fill="#63b8ff" stroke="#63b8ff" points="291.28,-413.23 282.33,-407.56 285.79,-417.57 291.28,-413.23"/>
</a>
</g>
</g>
<!-- Node10 -->
<g id="Node000010" class="node">
<title>Node10</title>
<g id="a_Node000010"><a xlink:href="lstate_8h.html" target="_top" xlink:title=" ">
<polygon fill="white" stroke="#666666" points="339.38,-350.75 291.12,-350.75 291.12,-331.5 339.38,-331.5 339.38,-350.75"/>
<text xml:space="preserve" text-anchor="middle" x="315.25" y="-337.25" font-family="Helvetica,sans-Serif" font-size="10.00">lstate.h</text>
</a>
</g>
</g>
<!-- Node1&#45;&gt;Node10 -->
<g id="edge37_Node000001_Node000010" class="edge">
<title>Node1&#45;&gt;Node10</title>
<g id="a_edge37_Node000001_Node000010"><a xlink:title=" ">
<path fill="none" stroke="#63b8ff" d="M341.06,-496.91C312.62,-482.41 260.38,-450.84 239.25,-406 228.32,-382.81 255.75,-365 280.65,-354.15"/>
<polygon fill="#63b8ff" stroke="#63b8ff" points="281.7,-357.51 289.65,-350.5 279.07,-351.02 281.7,-357.51"/>
</a>
</g>
</g>
<!-- Node11 -->
<g id="Node000011" class="node">
<title>Node11</title>
<g id="a_Node000011"><a xlink:href="lobject_8h.html" target="_top" xlink:title=" ">
<polygon fill="white" stroke="#666666" points="498.62,-240.25 445.88,-240.25 445.88,-221 498.62,-221 498.62,-240.25"/>
<text xml:space="preserve" text-anchor="middle" x="472.25" y="-226.75" font-family="Helvetica,sans-Serif" font-size="10.00">lobject.h</text>
</a>
</g>
</g>
<!-- Node1&#45;&gt;Node11 -->
<g id="edge36_Node000001_Node000011" class="edge">
<title>Node1&#45;&gt;Node11</title>
<g id="a_edge36_Node000001_Node000011"><a xlink:title=" ">
<path fill="none" stroke="#63b8ff" d="M378.13,-496.92C406.89,-481.09 460.25,-445.28 460.25,-397.38 460.25,-397.38 460.25,-397.38 460.25,-340.12 460.25,-309.22 465.12,-273.66 468.65,-251.92"/>
<polygon fill="#63b8ff" stroke="#63b8ff" points="472.1,-252.53 470.33,-242.08 465.2,-251.35 472.1,-252.53"/>
</a>
</g>
</g>
<!-- Node13 -->
<g id="Node000013" class="node">
<title>Node13</title>
<g id="a_Node000013"><a xlink:href="ltm_8h.html" target="_top" xlink:title=" ">
<polygon fill="white" stroke="#666666" points="526.12,-295.5 488.38,-295.5 488.38,-276.25 526.12,-276.25 526.12,-295.5"/>
<text xml:space="preserve" text-anchor="middle" x="507.25" y="-282" font-family="Helvetica,sans-Serif" font-size="10.00">ltm.h</text>
</a>
</g>
</g>
<!-- Node1&#45;&gt;Node13 -->
<g id="edge44_Node000001_Node000013" class="edge">
<title>Node1&#45;&gt;Node13</title>
<g id="a_edge44_Node000001_Node000013"><a xlink:title=" ">
<path fill="none" stroke="#63b8ff" d="M399.75,-500.32C424.78,-494.7 455.8,-483.5 474.25,-461.25 511.56,-416.26 511.7,-342.19 509.26,-306.85"/>
<polygon fill="#63b8ff" stroke="#63b8ff" points="512.78,-306.88 508.44,-297.21 505.8,-307.47 512.78,-306.88"/>
</a>
</g>
</g>
<!-- Node17 -->
<g id="Node000017" class="node">
<title>Node17</title>
<g id="a_Node000017"><a xlink:href="ldo_8h.html" target="_top" xlink:title=" ">
<polygon fill="white" stroke="#666666" points="578.75,-406 541.75,-406 541.75,-386.75 578.75,-386.75 578.75,-406"/>
<text xml:space="preserve" text-anchor="middle" x="560.25" y="-392.5" font-family="Helvetica,sans-Serif" font-size="10.00">ldo.h</text>
</a>
</g>
</g>
<!-- Node1&#45;&gt;Node17 -->
<g id="edge28_Node000001_Node000017" class="edge">
<title>Node1&#45;&gt;Node17</title>
<g id="a_edge28_Node000001_Node000017"><a xlink:title=" ">
<path fill="none" stroke="#63b8ff" d="M399.73,-501.29C432.29,-495.95 478.45,-484.67 512.25,-461.25 528.97,-449.67 542.28,-430.4 550.61,-416.05"/>
<polygon fill="#63b8ff" stroke="#63b8ff" points="553.52,-418.02 555.25,-407.57 547.38,-414.66 553.52,-418.02"/>
</a>
</g>
</g>
<!-- Node18 -->
<g id="Node000018" class="node">
<title>Node18</title>
<g id="a_Node000018"><a xlink:href="lgc_8h.html" target="_top" xlink:title=" ">
<polygon fill="white" stroke="#666666" points="355.75,-406 318.75,-406 318.75,-386.75 355.75,-386.75 355.75,-406"/>
<text xml:space="preserve" text-anchor="middle" x="337.25" y="-392.5" font-family="Helvetica,sans-Serif" font-size="10.00">lgc.h</text>
</a>
</g>
</g>
<!-- Node1&#45;&gt;Node18 -->
<g id="edge33_Node000001_Node000018" class="edge">
<title>Node1&#45;&gt;Node18</title>
<g id="a_edge33_Node000001_Node000018"><a xlink:title=" ">
<path fill="none" stroke="#63b8ff" d="M358.37,-497C354.71,-479.75 346.57,-441.33 341.53,-417.56"/>
<polygon fill="#63b8ff" stroke="#63b8ff" points="344.97,-416.91 339.47,-407.86 338.12,-418.37 344.97,-416.91"/>
</a>
</g>
</g>
<!-- Node19 -->
<g id="Node000019" class="node">
<title>Node19</title>
<g id="a_Node000019"><a xlink:href="lstring_8h.html" target="_top" xlink:title=" ">
<polygon fill="white" stroke="#666666" points="412.5,-461.25 362,-461.25 362,-442 412.5,-442 412.5,-461.25"/>
<text xml:space="preserve" text-anchor="middle" x="387.25" y="-447.75" font-family="Helvetica,sans-Serif" font-size="10.00">lstring.h</text>
</a>
</g>
</g>
<!-- Node1&#45;&gt;Node19 -->
<g id="edge38_Node000001_Node000019" class="edge">
<title>Node1&#45;&gt;Node19</title>
<g id="a_edge38_Node000001_Node000019"><a xlink:title=" ">
<path fill="none" stroke="#63b8ff" d="M364.71,-497.08C368.2,-490.19 373.2,-480.34 377.6,-471.66"/>
<polygon fill="#63b8ff" stroke="#63b8ff" points="380.61,-473.46 382.01,-462.96 374.37,-470.3 380.61,-473.46"/>
</a>
</g>
</g>
<!-- Node20 -->
<g id="Node000020" class="node">
<title>Node20</title>
<g id="a_Node000020"><a xlink:href="ltable_8h.html" target="_top" xlink:title=" ">
<polygon fill="white" stroke="#666666" points="764,-350.75 716.5,-350.75 716.5,-331.5 764,-331.5 764,-350.75"/>
<text xml:space="preserve" text-anchor="middle" x="740.25" y="-337.25" font-family="Helvetica,sans-Serif" font-size="10.00">ltable.h</text>
</a>
</g>
</g>
<!-- Node1&#45;&gt;Node20 -->
<g id="edge42_Node000001_Node000020" class="edge">
<title>Node1&#45;&gt;Node20</title>
<g id="a_edge42_Node000001_Node000020"><a xlink:title=" ">
<path fill="none" stroke="#63b8ff" d="M399.6,-503.56C469.16,-498.88 610.43,-486.49 652.25,-461.25 691.74,-437.41 719.09,-388.5 731.93,-361.35"/>
<polygon fill="#63b8ff" stroke="#63b8ff" points="734.97,-363.11 735.91,-352.56 728.6,-360.22 734.97,-363.11"/>
</a>
</g>
</g>
<!-- Node21 -->
<g id="Node000021" class="node">
<title>Node21</title>
<g id="a_Node000021"><a xlink:href="lvm_8h.html" target="_top" xlink:title=" ">
<polygon fill="white" stroke="#666666" points="643.25,-461.25 603.25,-461.25 603.25,-442 643.25,-442 643.25,-461.25"/>
<text xml:space="preserve" text-anchor="middle" x="623.25" y="-447.75" font-family="Helvetica,sans-Serif" font-size="10.00">lvm.h</text>
</a>
</g>
</g>
<!-- Node1&#45;&gt;Node21 -->
<g id="edge45_Node000001_Node000021" class="edge">
<title>Node1&#45;&gt;Node21</title>
<g id="a_edge45_Node000001_Node000021"><a xlink:title=" ">
<path fill="none" stroke="#63b8ff" d="M399.62,-497.9C451.94,-487.31 543.34,-468.8 591.49,-459.05"/>
<polygon fill="#63b8ff" stroke="#63b8ff" points="592.16,-462.49 601.27,-457.08 590.77,-455.63 592.16,-462.49"/>
</a>
</g>
</g>
<!-- Node5 -->
<g id="Node000005" class="node">
<title>Node5</title>
<g id="a_Node000005"><a xlink:title=" ">
<polygon fill="#e0e0e0" stroke="#999999" points="443.88,-74.5 392.62,-74.5 392.62,-55.25 443.88,-55.25 443.88,-74.5"/>
<text xml:space="preserve" text-anchor="middle" x="418.25" y="-61" font-family="Helvetica,sans-Serif" font-size="10.00">stdarg.h</text>
</a>
</g>
</g>
<!-- Node4&#45;&gt;Node5 -->
<g id="edge4_Node000004_Node000005" class="edge">
<title>Node4&#45;&gt;Node5</title>
<g id="a_edge4_Node000004_Node000005"><a xlink:title=" ">
<path fill="none" stroke="#63b8ff" d="M326.91,-110.09C343.98,-101.83 369.49,-89.48 389.22,-79.93"/>
<polygon fill="#63b8ff" stroke="#63b8ff" points="390.66,-83.12 398.14,-75.61 387.61,-76.82 390.66,-83.12"/>
</a>
</g>
</g>
<!-- Node6 -->
<g id="Node000006" class="node">
<title>Node6</title>
<g id="a_Node000006"><a xlink:title=" ">
<polygon fill="#e0e0e0" stroke="#999999" points="361.88,-19.25 310.62,-19.25 310.62,0 361.88,0 361.88,-19.25"/>
<text xml:space="preserve" text-anchor="middle" x="336.25" y="-5.75" font-family="Helvetica,sans-Serif" font-size="10.00">stddef.h</text>
</a>
</g>
</g>
<!-- Node4&#45;&gt;Node6 -->
<g id="edge5_Node000004_Node000006" class="edge">
<title>Node4&#45;&gt;Node6</title>
<g id="a_edge5_Node000004_Node000006"><a xlink:title=" ">
<path fill="none" stroke="#63b8ff" d="M296.59,-110.16C282.17,-97.92 260.74,-75.21 271.25,-55.25 278.12,-42.19 290.74,-32.22 303.04,-25.05"/>
<polygon fill="#63b8ff" stroke="#63b8ff" points="304.63,-28.16 311.82,-20.38 301.35,-21.98 304.63,-28.16"/>
</a>
</g>
</g>
<!-- Node7 -->
<g id="Node000007" class="node">
<title>Node7</title>
<g id="a_Node000007"><a xlink:href="luaconf_8h.html" target="_top" xlink:title=" ">
<polygon fill="white" stroke="#666666" points="336.12,-74.5 280.38,-74.5 280.38,-55.25 336.12,-55.25 336.12,-74.5"/>
<text xml:space="preserve" text-anchor="middle" x="308.25" y="-61" font-family="Helvetica,sans-Serif" font-size="10.00">luaconf.h</text>
</a>
</g>
</g>
<!-- Node4&#45;&gt;Node7 -->
<g id="edge6_Node000004_Node000007" class="edge">
<title>Node4&#45;&gt;Node7</title>
<g id="a_edge6_Node000004_Node000007"><a xlink:title=" ">
<path fill="none" stroke="#63b8ff" d="M308.25,-110.33C308.25,-103.82 308.25,-94.67 308.25,-86.37"/>
<polygon fill="#63b8ff" stroke="#63b8ff" points="311.75,-86.37 308.25,-76.37 304.75,-86.37 311.75,-86.37"/>
</a>
</g>
</g>
<!-- Node7&#45;&gt;Node6 -->
<g id="edge8_Node000007_Node000006" class="edge">
<title>Node7&#45;&gt;Node6</title>
<g id="a_edge8_Node000007_Node000006"><a xlink:title=" ">
<path fill="none" stroke="#63b8ff" d="M312.87,-55.08C316.5,-48.19 321.68,-38.34 326.24,-29.66"/>
<polygon fill="#63b8ff" stroke="#63b8ff" points="329.27,-31.43 330.82,-20.95 323.07,-28.17 329.27,-31.43"/>
</a>
</g>
</g>
<!-- Node8 -->
<g id="Node000008" class="node">
<title>Node8</title>
<g id="a_Node000008"><a xlink:title=" ">
<polygon fill="#e0e0e0" stroke="#999999" points="461,-19.25 413.5,-19.25 413.5,0 461,0 461,-19.25"/>
<text xml:space="preserve" text-anchor="middle" x="437.25" y="-5.75" font-family="Helvetica,sans-Serif" font-size="10.00">limits.h</text>
</a>
</g>
</g>
<!-- Node7&#45;&gt;Node8 -->
<g id="edge7_Node000007_Node000008" class="edge">
<title>Node7&#45;&gt;Node8</title>
<g id="a_edge7_Node000007_Node000008"><a xlink:title=" ">
<path fill="none" stroke="#63b8ff" d="M330.13,-54.84C350.61,-46.39 381.46,-33.65 404.81,-24.02"/>
<polygon fill="#63b8ff" stroke="#63b8ff" points="405.95,-27.33 413.86,-20.28 403.28,-20.86 405.95,-27.33"/>
</a>
</g>
</g>
<!-- Node9&#45;&gt;Node10 -->
<g id="edge10_Node000009_Node000010" class="edge">
<title>Node9&#45;&gt;Node10</title>
<g id="a_edge10_Node000009_Node000010"><a xlink:title=" ">
<path fill="none" stroke="#63b8ff" d="M281.02,-386.58C286.57,-379.38 294.59,-368.96 301.48,-360.01"/>
<polygon fill="#63b8ff" stroke="#63b8ff" points="304.08,-362.37 307.41,-352.31 298.54,-358.1 304.08,-362.37"/>
</a>
</g>
</g>
<!-- Node10&#45;&gt;Node4 -->
<g id="edge11_Node000010_Node000004" class="edge">
<title>Node10&#45;&gt;Node4</title>
<g id="a_edge11_Node000010_Node000004"><a xlink:title=" ">
<path fill="none" stroke="#63b8ff" d="M301.02,-331.1C290.04,-323.21 275.67,-310.67 269.25,-295.5 246.44,-241.6 278.44,-172.43 296.84,-139.78"/>
<polygon fill="#63b8ff" stroke="#63b8ff" points="299.67,-141.88 301.7,-131.49 293.63,-138.35 299.67,-141.88"/>
</a>
</g>
</g>
<!-- Node10&#45;&gt;Node11 -->
<g id="edge12_Node000010_Node000011" class="edge">
<title>Node10&#45;&gt;Node11</title>
<g id="a_edge12_Node000010_Node000011"><a xlink:title=" ">
<path fill="none" stroke="#63b8ff" d="M321.01,-331.17C330.07,-317.68 348.83,-292.07 370.25,-276.25 389.67,-261.91 414.41,-250.94 434.66,-243.47"/>
<polygon fill="#63b8ff" stroke="#63b8ff" points="435.7,-246.81 443.97,-240.18 433.37,-240.21 435.7,-246.81"/>
</a>
</g>
</g>
<!-- Node10&#45;&gt;Node13 -->
<g id="edge19_Node000010_Node000013" class="edge">
<title>Node10&#45;&gt;Node13</title>
<g id="a_edge19_Node000010_Node000013"><a xlink:title=" ">
<path fill="none" stroke="#63b8ff" d="M339.57,-333.38C374.59,-323.67 439.19,-305.75 477.17,-295.22"/>
<polygon fill="#63b8ff" stroke="#63b8ff" points="477.88,-298.65 486.58,-292.61 476.01,-291.91 477.88,-298.65"/>
</a>
</g>
</g>
<!-- Node14 -->
<g id="Node000014" class="node">
<title>Node14</title>
<g id="a_Node000014"><a xlink:href="lzio_8h.html" target="_top" xlink:title=" ">
<polygon fill="white" stroke="#666666" points="317.88,-295.5 278.62,-295.5 278.62,-276.25 317.88,-276.25 317.88,-295.5"/>
<text xml:space="preserve" text-anchor="middle" x="298.25" y="-282" font-family="Helvetica,sans-Serif" font-size="10.00">lzio.h</text>
</a>
</g>
</g>
<!-- Node10&#45;&gt;Node14 -->
<g id="edge21_Node000010_Node000014" class="edge">
<title>Node10&#45;&gt;Node14</title>
<g id="a_edge21_Node000010_Node000014"><a xlink:title=" ">
<path fill="none" stroke="#63b8ff" d="M312.44,-331.33C310.31,-324.67 307.31,-315.24 304.61,-306.78"/>
<polygon fill="#63b8ff" stroke="#63b8ff" points="307.95,-305.76 301.58,-297.3 301.29,-307.89 307.95,-305.76"/>
</a>
</g>
</g>
<!-- Node16 -->
<g id="Node000016" class="node">
<title>Node16</title>
<g id="a_Node000016"><a xlink:title=" ">
<polygon fill="#e0e0e0" stroke="#999999" points="222.12,-295.5 172.38,-295.5 172.38,-276.25 222.12,-276.25 222.12,-295.5"/>
<text xml:space="preserve" text-anchor="middle" x="197.25" y="-282" font-family="Helvetica,sans-Serif" font-size="10.00">signal.h</text>
</a>
</g>
</g>
<!-- Node10&#45;&gt;Node16 -->
<g id="edge27_Node000010_Node000016" class="edge">
<title>Node10&#45;&gt;Node16</title>
<g id="a_edge27_Node000010_Node000016"><a xlink:title=" ">
<path fill="none" stroke="#63b8ff" d="M295.23,-331.09C276.76,-322.75 249.04,-310.25 227.8,-300.66"/>
<polygon fill="#63b8ff" stroke="#63b8ff" points="229.3,-297.5 218.74,-296.58 226.42,-303.88 229.3,-297.5"/>
</a>
</g>
</g>
<!-- Node11&#45;&gt;Node4 -->
<g id="edge18_Node000011_Node000004" class="edge">
<title>Node11&#45;&gt;Node4</title>
<g id="a_edge18_Node000011_Node000004"><a xlink:title=" ">
<path fill="none" stroke="#63b8ff" d="M458.55,-220.56C430.38,-201.93 365.72,-159.15 331.1,-136.25"/>
<polygon fill="#63b8ff" stroke="#63b8ff" points="333.33,-133.52 323.06,-130.92 329.47,-139.36 333.33,-133.52"/>
</a>
</g>
</g>
<!-- Node11&#45;&gt;Node5 -->
<g id="edge13_Node000011_Node000005" class="edge">
<title>Node11&#45;&gt;Node5</title>
<g id="a_edge13_Node000011_Node000005"><a xlink:title=" ">
<path fill="none" stroke="#63b8ff" d="M482.42,-220.87C495.06,-208.87 514.06,-186.43 506.25,-165.75 492.95,-130.53 460.94,-99.7 439.43,-81.92"/>
<polygon fill="#63b8ff" stroke="#63b8ff" points="441.84,-79.37 431.84,-75.86 437.47,-84.84 441.84,-79.37"/>
</a>
</g>
</g>
<!-- Node12 -->
<g id="Node000012" class="node">
<title>Node12</title>
<g id="a_Node000012"><a xlink:href="llimits_8h.html" target="_top" xlink:title=" ">
<polygon fill="white" stroke="#666666" points="497.12,-185 447.38,-185 447.38,-165.75 497.12,-165.75 497.12,-185"/>
<text xml:space="preserve" text-anchor="middle" x="472.25" y="-171.5" font-family="Helvetica,sans-Serif" font-size="10.00">llimits.h</text>
</a>
</g>
</g>
<!-- Node11&#45;&gt;Node12 -->
<g id="edge14_Node000011_Node000012" class="edge">
<title>Node11&#45;&gt;Node12</title>
<g id="a_edge14_Node000011_Node000012"><a xlink:title=" ">
<path fill="none" stroke="#63b8ff" d="M472.25,-220.83C472.25,-214.32 472.25,-205.17 472.25,-196.87"/>
<polygon fill="#63b8ff" stroke="#63b8ff" points="475.75,-196.87 472.25,-186.87 468.75,-196.87 475.75,-196.87"/>
</a>
</g>
</g>
<!-- Node12&#45;&gt;Node4 -->
<g id="edge17_Node000012_Node000004" class="edge">
<title>Node12&#45;&gt;Node4</title>
<g id="a_edge17_Node000012_Node000004"><a xlink:title=" ">
<path fill="none" stroke="#63b8ff" d="M446.98,-166.17C417.54,-156.61 368.94,-140.83 337.78,-130.71"/>
<polygon fill="#63b8ff" stroke="#63b8ff" points="339.18,-127.49 328.59,-127.73 337.02,-134.15 339.18,-127.49"/>
</a>
</g>
</g>
<!-- Node12&#45;&gt;Node6 -->
<g id="edge16_Node000012_Node000006" class="edge">
<title>Node12&#45;&gt;Node6</title>
<g id="a_edge16_Node000012_Node000006"><a xlink:title=" ">
<path fill="none" stroke="#63b8ff" d="M473.59,-165.41C476.3,-143.82 480.06,-88.25 453.25,-55.25 433.67,-31.15 399.5,-20.05 373.13,-14.94"/>
<polygon fill="#63b8ff" stroke="#63b8ff" points="373.95,-11.53 363.5,-13.31 372.77,-18.43 373.95,-11.53"/>
</a>
</g>
</g>
<!-- Node12&#45;&gt;Node8 -->
<g id="edge15_Node000012_Node000008" class="edge">
<title>Node12&#45;&gt;Node8</title>
<g id="a_edge15_Node000012_Node000008"><a xlink:title=" ">
<path fill="none" stroke="#63b8ff" d="M471.38,-165.29C469.34,-145.21 463.61,-95.62 453.25,-55.25 451.1,-46.89 448.03,-37.88 445.15,-30.17"/>
<polygon fill="#63b8ff" stroke="#63b8ff" points="448.51,-29.16 441.62,-21.11 441.99,-31.7 448.51,-29.16"/>
</a>
</g>
</g>
<!-- Node13&#45;&gt;Node11 -->
<g id="edge20_Node000013_Node000011" class="edge">
<title>Node13&#45;&gt;Node11</title>
<g id="a_edge20_Node000013_Node000011"><a xlink:title=" ">
<path fill="none" stroke="#63b8ff" d="M501.47,-276.08C496.84,-269.03 490.18,-258.9 484.38,-250.08"/>
<polygon fill="#63b8ff" stroke="#63b8ff" points="487.4,-248.31 478.99,-241.87 481.55,-252.15 487.4,-248.31"/>
</a>
</g>
</g>
<!-- Node14&#45;&gt;Node4 -->
<g id="edge22_Node000014_Node000004" class="edge">
<title>Node14&#45;&gt;Node4</title>
<g id="a_edge22_Node000014_Node000004"><a xlink:title=" ">
<path fill="none" stroke="#63b8ff" d="M298.79,-276.07C300.33,-250.75 304.82,-177.25 307.02,-141.34"/>
<polygon fill="#63b8ff" stroke="#63b8ff" points="310.5,-141.68 307.62,-131.48 303.51,-141.25 310.5,-141.68"/>
</a>
</g>
</g>
<!-- Node15 -->
<g id="Node000015" class="node">
<title>Node15</title>
<g id="a_Node000015"><a xlink:href="lmem_8h.html" target="_top" xlink:title=" ">
<polygon fill="white" stroke="#666666" points="376.38,-240.25 328.12,-240.25 328.12,-221 376.38,-221 376.38,-240.25"/>
<text xml:space="preserve" text-anchor="middle" x="352.25" y="-226.75" font-family="Helvetica,sans-Serif" font-size="10.00">lmem.h</text>
</a>
</g>
</g>
<!-- Node14&#45;&gt;Node15 -->
<g id="edge23_Node000014_Node000015" class="edge">
<title>Node14&#45;&gt;Node15</title>
<g id="a_edge23_Node000014_Node000015"><a xlink:title=" ">
<path fill="none" stroke="#63b8ff" d="M307.17,-276.08C314.7,-268.65 325.72,-257.79 334.98,-248.66"/>
<polygon fill="#63b8ff" stroke="#63b8ff" points="337.4,-251.19 342.06,-241.67 332.48,-246.2 337.4,-251.19"/>
</a>
</g>
</g>
<!-- Node15&#45;&gt;Node4 -->
<g id="edge26_Node000015_Node000004" class="edge">
<title>Node15&#45;&gt;Node4</title>
<g id="a_edge26_Node000015_Node000004"><a xlink:title=" ">
<path fill="none" stroke="#63b8ff" d="M348.65,-220.75C341.59,-203.34 325.79,-164.37 316.17,-140.66"/>
<polygon fill="#63b8ff" stroke="#63b8ff" points="319.47,-139.48 312.47,-131.53 312.98,-142.11 319.47,-139.48"/>
</a>
</g>
</g>
<!-- Node15&#45;&gt;Node6 -->
<g id="edge24_Node000015_Node000006" class="edge">
<title>Node15&#45;&gt;Node6</title>
<g id="a_edge24_Node000015_Node000006"><a xlink:title=" ">
<path fill="none" stroke="#63b8ff" d="M352.39,-220.51C352.69,-194.56 352.8,-118.12 345.25,-55.25 344.27,-47.11 342.61,-38.24 340.98,-30.56"/>
<polygon fill="#63b8ff" stroke="#63b8ff" points="344.42,-29.91 338.8,-20.92 337.59,-31.45 344.42,-29.91"/>
</a>
</g>
</g>
<!-- Node15&#45;&gt;Node12 -->
<g id="edge25_Node000015_Node000012" class="edge">
<title>Node15&#45;&gt;Node12</title>
<g id="a_edge25_Node000015_Node000012"><a xlink:title=" ">
<path fill="none" stroke="#63b8ff" d="M372.61,-220.59C391.48,-212.22 419.84,-199.63 441.48,-190.03"/>
<polygon fill="#63b8ff" stroke="#63b8ff" points="442.69,-193.32 450.41,-186.07 439.85,-186.92 442.69,-193.32"/>
</a>
</g>
</g>
<!-- Node17&#45;&gt;Node10 -->
<g id="edge31_Node000017_Node000010" class="edge">
<title>Node17&#45;&gt;Node10</title>
<g id="a_edge31_Node000017_Node000010"><a xlink:title=" ">
<path fill="none" stroke="#63b8ff" d="M541.43,-391.28C500.7,-382.43 403.8,-361.37 351.01,-349.9"/>
<polygon fill="#63b8ff" stroke="#63b8ff" points="351.83,-346.49 341.31,-347.79 350.34,-353.33 351.83,-346.49"/>
</a>
</g>
</g>
<!-- Node17&#45;&gt;Node11 -->
<g id="edge30_Node000017_Node000011" class="edge">
<title>Node17&#45;&gt;Node11</title>
<g id="a_edge30_Node000017_Node000011"><a xlink:title=" ">
<path fill="none" stroke="#63b8ff" d="M560.51,-386.47C560.69,-365.48 558.67,-311.94 535.25,-276.25 527.04,-263.73 513.99,-253.64 501.9,-246.24"/>
<polygon fill="#63b8ff" stroke="#63b8ff" points="503.83,-243.31 493.41,-241.41 500.37,-249.4 503.83,-243.31"/>
</a>
</g>
</g>
<!-- Node17&#45;&gt;Node12 -->
<g id="edge29_Node000017_Node000012" class="edge">
<title>Node17&#45;&gt;Node12</title>
<g id="a_edge29_Node000017_Node000012"><a xlink:title=" ">
<path fill="none" stroke="#63b8ff" d="M563.18,-386.27C565.9,-377.33 569.73,-363.27 571.25,-350.75 575.34,-317.04 570.32,-306.17 554.25,-276.25 536.91,-243.98 508.33,-212.24 489.91,-193.49"/>
<polygon fill="#63b8ff" stroke="#63b8ff" points="492.39,-191.03 482.84,-186.45 487.45,-195.99 492.39,-191.03"/>
</a>
</g>
</g>
<!-- Node17&#45;&gt;Node14 -->
<g id="edge32_Node000017_Node000014" class="edge">
<title>Node17&#45;&gt;Node14</title>
<g id="a_edge32_Node000017_Node000014"><a xlink:title=" ">
<path fill="none" stroke="#63b8ff" d="M541.41,-387.57C496.62,-369.03 383.47,-322.17 328.78,-299.52"/>
<polygon fill="#63b8ff" stroke="#63b8ff" points="330.32,-296.37 319.74,-295.78 327.64,-302.84 330.32,-296.37"/>
</a>
</g>
</g>
<!-- Node18&#45;&gt;Node10 -->
<g id="edge35_Node000018_Node000010" class="edge">
<title>Node18&#45;&gt;Node10</title>
<g id="a_edge35_Node000018_Node000010"><a xlink:title=" ">
<path fill="none" stroke="#63b8ff" d="M333.62,-386.58C330.83,-379.84 326.88,-370.27 323.35,-361.74"/>
<polygon fill="#63b8ff" stroke="#63b8ff" points="326.59,-360.41 319.54,-352.51 320.12,-363.09 326.59,-360.41"/>
</a>
</g>
</g>
<!-- Node18&#45;&gt;Node11 -->
<g id="edge34_Node000018_Node000011" class="edge">
<title>Node18&#45;&gt;Node11</title>
<g id="a_edge34_Node000018_Node000011"><a xlink:title=" ">
<path fill="none" stroke="#63b8ff" d="M340.97,-386.46C350.06,-365.44 375.11,-311.84 408.25,-276.25 419.07,-264.63 433.39,-254.3 445.75,-246.51"/>
<polygon fill="#63b8ff" stroke="#63b8ff" points="447.5,-249.54 454.24,-241.38 443.88,-243.55 447.5,-249.54"/>
</a>
</g>
</g>
<!-- Node19&#45;&gt;Node10 -->
<g id="edge41_Node000019_Node000010" class="edge">
<title>Node19&#45;&gt;Node10</title>
<g id="a_edge41_Node000019_Node000010"><a xlink:title=" ">
<path fill="none" stroke="#63b8ff" d="M385.68,-441.73C383.07,-428.77 376.94,-404.33 365.25,-386.75 357.9,-375.71 347.19,-365.65 337.56,-357.89"/>
<polygon fill="#63b8ff" stroke="#63b8ff" points="339.73,-355.15 329.66,-351.86 335.48,-360.71 339.73,-355.15"/>
</a>
</g>
</g>
<!-- Node19&#45;&gt;Node11 -->
<g id="edge40_Node000019_Node000011" class="edge">
<title>Node19&#45;&gt;Node11</title>
<g id="a_edge40_Node000019_Node000011"><a xlink:title=" ">
<path fill="none" stroke="#63b8ff" d="M389.59,-441.68C396.56,-415.54 418.46,-337.34 446.25,-276.25 450.28,-267.38 455.57,-258.01 460.33,-250.15"/>
<polygon fill="#63b8ff" stroke="#63b8ff" points="463.18,-252.19 465.51,-241.85 457.25,-248.48 463.18,-252.19"/>
</a>
</g>
</g>
<!-- Node19&#45;&gt;Node18 -->
<g id="edge39_Node000019_Node000018" class="edge">
<title>Node19&#45;&gt;Node18</title>
<g id="a_edge39_Node000019_Node000018"><a xlink:title=" ">
<path fill="none" stroke="#63b8ff" d="M378.99,-441.83C372.09,-434.48 362.03,-423.76 353.51,-414.69"/>
<polygon fill="#63b8ff" stroke="#63b8ff" points="356.12,-412.36 346.72,-407.46 351.02,-417.15 356.12,-412.36"/>
</a>
</g>
</g>
<!-- Node20&#45;&gt;Node11 -->
<g id="edge43_Node000020_Node000011" class="edge">
<title>Node20&#45;&gt;Node11</title>
<g id="a_edge43_Node000020_Node000011"><a xlink:title=" ">
<path fill="none" stroke="#63b8ff" d="M732.33,-331.17C719.47,-317.23 692.62,-290.43 664.25,-276.25 614.49,-251.37 550.5,-240.09 510.42,-235.18"/>
<polygon fill="#63b8ff" stroke="#63b8ff" points="510.88,-231.71 500.54,-234.04 510.08,-238.66 510.88,-231.71"/>
</a>
</g>
</g>
<!-- Node21&#45;&gt;Node11 -->
<g id="edge47_Node000021_Node000011" class="edge">
<title>Node21&#45;&gt;Node11</title>
<g id="a_edge47_Node000021_Node000011"><a xlink:title=" ">
<path fill="none" stroke="#63b8ff" d="M621.89,-441.52C617.3,-413.6 600,-327.93 554.25,-276.25 542.2,-262.64 524.98,-252.39 509.42,-245.17"/>
<polygon fill="#63b8ff" stroke="#63b8ff" points="510.96,-242.02 500.39,-241.26 508.17,-248.45 510.96,-242.02"/>
</a>
</g>
</g>
<!-- Node21&#45;&gt;Node13 -->
<g id="edge48_Node000021_Node000013" class="edge">
<title>Node21&#45;&gt;Node13</title>
<g id="a_edge48_Node000021_Node000013"><a xlink:title=" ">
<path fill="none" stroke="#63b8ff" d="M618.98,-441.65C612.82,-429.02 600.8,-405.44 588.25,-386.75 567.71,-356.17 540,-323.52 522.89,-304.17"/>
<polygon fill="#63b8ff" stroke="#63b8ff" points="525.71,-302.06 516.43,-296.94 520.48,-306.73 525.71,-302.06"/>
</a>
</g>
</g>
<!-- Node21&#45;&gt;Node17 -->
<g id="edge46_Node000021_Node000017" class="edge">
<title>Node21&#45;&gt;Node17</title>
<g id="a_edge46_Node000021_Node000017"><a xlink:title=" ">
<path fill="none" stroke="#63b8ff" d="M612.56,-441.59C603.55,-433.97 590.42,-422.87 579.57,-413.7"/>
<polygon fill="#63b8ff" stroke="#63b8ff" points="581.83,-411.03 571.94,-407.25 577.31,-416.38 581.83,-411.03"/>
</a>
</g>
</g>
</g>
</svg>
