<?xml version="1.0" encoding="UTF-8" standalone="no"?>
<!DOCTYPE svg PUBLIC "-//W3C//DTD SVG 1.1//EN"
 "http://www.w3.org/Graphics/SVG/1.1/DTD/svg11.dtd">
<!-- Generated by graphviz version 13.1.0 (20250701.0955)
 -->
<!-- Title: lua&#45;5.4.7/ltm.h Pages: 1 -->
<svg width="247pt" height="304pt"
 viewBox="0.00 0.00 247.00 304.00" xmlns="http://www.w3.org/2000/svg" xmlns:xlink="http://www.w3.org/1999/xlink">

<svg id="main" version="1.1" xmlns="http://www.w3.org/2000/svg" xmlns:xlink="http://www.w3.org/1999/xlink" xml:space="preserve">

<style type="text/css"><![CDATA[
.node, .edge {opacity: 0.7;}
.node.selected, .edge.selected {opacity: 1;}
.edge:hover path { stroke: red; }
.edge:hover polygon { stroke: red; fill: red; }
]]></style>
<script type="application/ecmascript" xlink:href="svg.min.js"/>
<svg id="graph" class="graph">
<g id="graph0" class="graph" transform="scale(1 1) rotate(0) translate(4 299.5)">
<title>lua&#45;5.4.7/ltm.h</title>
<!-- Node1 -->
<g id="Node000001" class="node">
<title>Node1</title>
<g id="a_Node000001"><a xlink:title=" ">
<polygon fill="#999999" stroke="#666666" points="133.75,-295.5 55.5,-295.5 55.5,-276.25 133.75,-276.25 133.75,-295.5"/>
<text xml:space="preserve" text-anchor="middle" x="94.62" y="-282" font-family="Helvetica,sans-Serif" font-size="10.00">lua&#45;5.4.7/ltm.h</text>
</a>
</g>
</g>
<!-- Node2 -->
<g id="Node000002" class="node">
<title>Node2</title>
<g id="a_Node000002"><a xlink:href="lobject_8h.html" target="_top" xlink:title=" ">
<polygon fill="white" stroke="#666666" points="121,-240.25 68.25,-240.25 68.25,-221 121,-221 121,-240.25"/>
<text xml:space="preserve" text-anchor="middle" x="94.62" y="-226.75" font-family="Helvetica,sans-Serif" font-size="10.00">lobject.h</text>
</a>
</g>
</g>
<!-- Node1&#45;&gt;Node2 -->
<g id="edge1_Node000001_Node000002" class="edge">
<title>Node1&#45;&gt;Node2</title>
<g id="a_edge1_Node000001_Node000002"><a xlink:title=" ">
<path fill="none" stroke="#63b8ff" d="M94.62,-276.08C94.62,-269.57 94.62,-260.42 94.62,-252.12"/>
<polygon fill="#63b8ff" stroke="#63b8ff" points="98.13,-252.12 94.63,-242.12 91.13,-252.12 98.13,-252.12"/>
</a>
</g>
</g>
<!-- Node3 -->
<g id="Node000003" class="node">
<title>Node3</title>
<g id="a_Node000003"><a xlink:title=" ">
<polygon fill="#e0e0e0" stroke="#999999" points="51.25,-74.5 0,-74.5 0,-55.25 51.25,-55.25 51.25,-74.5"/>
<text xml:space="preserve" text-anchor="middle" x="25.62" y="-61" font-family="Helvetica,sans-Serif" font-size="10.00">stdarg.h</text>
</a>
</g>
</g>
<!-- Node2&#45;&gt;Node3 -->
<g id="edge2_Node000002_Node000003" class="edge">
<title>Node2&#45;&gt;Node3</title>
<g id="a_edge2_Node000002_Node000003"><a xlink:title=" ">
<path fill="none" stroke="#63b8ff" d="M90.92,-220.82C80.15,-195.28 48.73,-120.7 33.75,-85.15"/>
<polygon fill="#63b8ff" stroke="#63b8ff" points="37.05,-83.97 29.94,-76.12 30.6,-86.69 37.05,-83.97"/>
</a>
</g>
</g>
<!-- Node4 -->
<g id="Node000004" class="node">
<title>Node4</title>
<g id="a_Node000004"><a xlink:href="llimits_8h.html" target="_top" xlink:title=" ">
<polygon fill="white" stroke="#666666" points="201.5,-185 151.75,-185 151.75,-165.75 201.5,-165.75 201.5,-185"/>
<text xml:space="preserve" text-anchor="middle" x="176.62" y="-171.5" font-family="Helvetica,sans-Serif" font-size="10.00">llimits.h</text>
</a>
</g>
</g>
<!-- Node2&#45;&gt;Node4 -->
<g id="edge3_Node000002_Node000004" class="edge">
<title>Node2&#45;&gt;Node4</title>
<g id="a_edge3_Node000002_Node000004"><a xlink:title=" ">
<path fill="none" stroke="#63b8ff" d="M108.54,-220.59C120.79,-212.64 138.88,-200.89 153.34,-191.5"/>
<polygon fill="#63b8ff" stroke="#63b8ff" points="154.9,-194.66 161.38,-186.28 151.08,-188.79 154.9,-194.66"/>
</a>
</g>
</g>
<!-- Node7 -->
<g id="Node000007" class="node">
<title>Node7</title>
<g id="a_Node000007"><a xlink:href="lua_8h.html" target="_top" xlink:title=" ">
<polygon fill="white" stroke="#666666" points="113.12,-129.75 76.12,-129.75 76.12,-110.5 113.12,-110.5 113.12,-129.75"/>
<text xml:space="preserve" text-anchor="middle" x="94.62" y="-116.25" font-family="Helvetica,sans-Serif" font-size="10.00">lua.h</text>
</a>
</g>
</g>
<!-- Node2&#45;&gt;Node7 -->
<g id="edge12_Node000002_Node000007" class="edge">
<title>Node2&#45;&gt;Node7</title>
<g id="a_edge12_Node000002_Node000007"><a xlink:title=" ">
<path fill="none" stroke="#63b8ff" d="M94.62,-220.75C94.62,-203.5 94.62,-165.08 94.62,-141.31"/>
<polygon fill="#63b8ff" stroke="#63b8ff" points="98.13,-141.64 94.63,-131.64 91.13,-141.64 98.13,-141.64"/>
</a>
</g>
</g>
<!-- Node5 -->
<g id="Node000005" class="node">
<title>Node5</title>
<g id="a_Node000005"><a xlink:title=" ">
<polygon fill="#e0e0e0" stroke="#999999" points="239.38,-19.25 191.88,-19.25 191.88,0 239.38,0 239.38,-19.25"/>
<text xml:space="preserve" text-anchor="middle" x="215.62" y="-5.75" font-family="Helvetica,sans-Serif" font-size="10.00">limits.h</text>
</a>
</g>
</g>
<!-- Node4&#45;&gt;Node5 -->
<g id="edge4_Node000004_Node000005" class="edge">
<title>Node4&#45;&gt;Node5</title>
<g id="a_edge4_Node000004_Node000005"><a xlink:title=" ">
<path fill="none" stroke="#63b8ff" d="M184.3,-165.51C191.21,-156.97 200.95,-143.39 205.62,-129.75 217.03,-96.46 217.71,-55.02 216.88,-30.82"/>
<polygon fill="#63b8ff" stroke="#63b8ff" points="220.38,-30.92 216.4,-21.11 213.39,-31.26 220.38,-30.92"/>
</a>
</g>
</g>
<!-- Node6 -->
<g id="Node000006" class="node">
<title>Node6</title>
<g id="a_Node000006"><a xlink:title=" ">
<polygon fill="#e0e0e0" stroke="#999999" points="161.25,-19.25 110,-19.25 110,0 161.25,0 161.25,-19.25"/>
<text xml:space="preserve" text-anchor="middle" x="135.62" y="-5.75" font-family="Helvetica,sans-Serif" font-size="10.00">stddef.h</text>
</a>
</g>
</g>
<!-- Node4&#45;&gt;Node6 -->
<g id="edge5_Node000004_Node000006" class="edge">
<title>Node4&#45;&gt;Node6</title>
<g id="a_edge5_Node000004_Node000006"><a xlink:title=" ">
<path fill="none" stroke="#63b8ff" d="M178.24,-165.32C181.49,-144.89 187.32,-93.94 172.62,-55.25 168.72,-44.97 161.41,-35.34 154.31,-27.67"/>
<polygon fill="#63b8ff" stroke="#63b8ff" points="156.91,-25.32 147.36,-20.73 151.96,-30.27 156.91,-25.32"/>
</a>
</g>
</g>
<!-- Node4&#45;&gt;Node7 -->
<g id="edge6_Node000004_Node000007" class="edge">
<title>Node4&#45;&gt;Node7</title>
<g id="a_edge6_Node000004_Node000007"><a xlink:title=" ">
<path fill="none" stroke="#63b8ff" d="M162.71,-165.34C150.46,-157.39 132.37,-145.64 117.91,-136.25"/>
<polygon fill="#63b8ff" stroke="#63b8ff" points="120.17,-133.54 109.87,-131.03 116.35,-139.41 120.17,-133.54"/>
</a>
</g>
</g>
<!-- Node7&#45;&gt;Node3 -->
<g id="edge7_Node000007_Node000003" class="edge">
<title>Node7&#45;&gt;Node3</title>
<g id="a_edge7_Node000007_Node000003"><a xlink:title=" ">
<path fill="none" stroke="#63b8ff" d="M82.92,-110.09C72.85,-102.32 58.08,-90.92 46.06,-81.65"/>
<polygon fill="#63b8ff" stroke="#63b8ff" points="48.41,-79.04 38.36,-75.7 44.13,-84.58 48.41,-79.04"/>
</a>
</g>
</g>
<!-- Node7&#45;&gt;Node6 -->
<g id="edge8_Node000007_Node000006" class="edge">
<title>Node7&#45;&gt;Node6</title>
<g id="a_edge8_Node000007_Node000006"><a xlink:title=" ">
<path fill="none" stroke="#63b8ff" d="M93.48,-110.07C92.25,-97.33 91.34,-73.64 98.62,-55.25 102.68,-45.03 110.01,-35.4 117.08,-27.73"/>
<polygon fill="#63b8ff" stroke="#63b8ff" points="119.43,-30.33 123.99,-20.77 114.46,-25.4 119.43,-30.33"/>
</a>
</g>
</g>
<!-- Node8 -->
<g id="Node000008" class="node">
<title>Node8</title>
<g id="a_Node000008"><a xlink:href="luaconf_8h.html" target="_top" xlink:title=" ">
<polygon fill="white" stroke="#666666" points="163.5,-74.5 107.75,-74.5 107.75,-55.25 163.5,-55.25 163.5,-74.5"/>
<text xml:space="preserve" text-anchor="middle" x="135.62" y="-61" font-family="Helvetica,sans-Serif" font-size="10.00">luaconf.h</text>
</a>
</g>
</g>
<!-- Node7&#45;&gt;Node8 -->
<g id="edge9_Node000007_Node000008" class="edge">
<title>Node7&#45;&gt;Node8</title>
<g id="a_edge9_Node000007_Node000008"><a xlink:title=" ">
<path fill="none" stroke="#63b8ff" d="M101.4,-110.33C106.94,-103.13 114.97,-92.71 121.85,-83.76"/>
<polygon fill="#63b8ff" stroke="#63b8ff" points="124.46,-86.12 127.78,-76.06 118.91,-81.85 124.46,-86.12"/>
</a>
</g>
</g>
<!-- Node8&#45;&gt;Node5 -->
<g id="edge10_Node000008_Node000005" class="edge">
<title>Node8&#45;&gt;Node5</title>
<g id="a_edge10_Node000008_Node000005"><a xlink:title=" ">
<path fill="none" stroke="#63b8ff" d="M149.2,-54.84C161.03,-46.96 178.46,-35.36 192.5,-26.02"/>
<polygon fill="#63b8ff" stroke="#63b8ff" points="194.34,-29 200.73,-20.54 190.46,-23.17 194.34,-29"/>
</a>
</g>
</g>
<!-- Node8&#45;&gt;Node6 -->
<g id="edge11_Node000008_Node000006" class="edge">
<title>Node8&#45;&gt;Node6</title>
<g id="a_edge11_Node000008_Node000006"><a xlink:title=" ">
<path fill="none" stroke="#63b8ff" d="M135.62,-55.08C135.62,-48.57 135.62,-39.42 135.62,-31.12"/>
<polygon fill="#63b8ff" stroke="#63b8ff" points="139.13,-31.12 135.63,-21.12 132.13,-31.12 139.13,-31.12"/>
</a>
</g>
</g>
</g>
</svg>
</svg>

<style type='text/css'>
<![CDATA[
[data-mouse-over-selected='false'] { opacity: 0.7; }
[data-mouse-over-selected='true']  { opacity: 1.0; }
]]>
</style>
<script type="application/ecmascript"><![CDATA[
document.addEventListener('DOMContentLoaded', (event) => {
  highlightEdges();
  highlightAdjacentNodes();
});
]]></script>
</svg>
