<?xml version="1.0" encoding="UTF-8" standalone="no"?>
<!DOCTYPE svg PUBLIC "-//W3C//DTD SVG 1.1//EN"
 "http://www.w3.org/Graphics/SVG/1.1/DTD/svg11.dtd">
<!-- Generated by graphviz version 13.1.0 (20250701.0955)
 -->
<!-- Title: lua_getupvalue Pages: 1 -->
<svg width="306pt" height="64pt"
 viewBox="0.00 0.00 306.00 64.00" xmlns="http://www.w3.org/2000/svg" xmlns:xlink="http://www.w3.org/1999/xlink">
<g id="graph0" class="graph" transform="scale(1 1) rotate(0) translate(4 60.25)">
<title>lua_getupvalue</title>
<!-- Node1 -->
<g id="Node000001" class="node">
<title>Node1</title>
<g id="a_Node000001"><a xlink:title=" ">
<polygon fill="#999999" stroke="#666666" points="297.75,-37.25 216.5,-37.25 216.5,-18 297.75,-18 297.75,-37.25"/>
<text xml:space="preserve" text-anchor="middle" x="257.12" y="-23.75" font-family="Helvetica,sans-Serif" font-size="10.00">lua_getupvalue</text>
</a>
</g>
</g>
<!-- Node2 -->
<g id="Node000002" class="node">
<title>Node2</title>
<g id="a_Node000002"><a xlink:href="ldblib_8c.html#a31ebacb3668352430584fe277ac74923" target="_top" xlink:title=" ">
<polygon fill="white" stroke="#666666" points="180.5,-37.25 115,-37.25 115,-18 180.5,-18 180.5,-37.25"/>
<text xml:space="preserve" text-anchor="middle" x="147.75" y="-23.75" font-family="Helvetica,sans-Serif" font-size="10.00">auxupvalue</text>
</a>
</g>
</g>
<!-- Node1&#45;&gt;Node2 -->
<g id="edge1_Node000001_Node000002" class="edge">
<title>Node1&#45;&gt;Node2</title>
<g id="a_edge1_Node000001_Node000002"><a xlink:title=" ">
<path fill="none" stroke="#63b8ff" d="M204.71,-27.62C196.53,-27.62 188.28,-27.62 180.72,-27.62"/>
<polygon fill="#63b8ff" stroke="#63b8ff" points="204.63,-31.13 214.63,-27.63 204.63,-24.13 204.63,-31.13"/>
</a>
</g>
</g>
<!-- Node3 -->
<g id="Node000003" class="node">
<title>Node3</title>
<g id="a_Node000003"><a xlink:href="ldblib_8c.html#a7a4124c791de7d76bd4fa752eb1569b6" target="_top" xlink:title=" ">
<polygon fill="white" stroke="#666666" points="79,-56.25 0,-56.25 0,-37 79,-37 79,-56.25"/>
<text xml:space="preserve" text-anchor="middle" x="39.5" y="-42.75" font-family="Helvetica,sans-Serif" font-size="10.00">db_getupvalue</text>
</a>
</g>
</g>
<!-- Node2&#45;&gt;Node3 -->
<g id="edge2_Node000002_Node000003" class="edge">
<title>Node2&#45;&gt;Node3</title>
<g id="a_edge2_Node000002_Node000003"><a xlink:title=" ">
<path fill="none" stroke="#63b8ff" d="M103.26,-35.4C95.32,-36.82 87.09,-38.29 79.3,-39.69"/>
<polygon fill="#63b8ff" stroke="#63b8ff" points="103.87,-38.85 113.09,-33.64 102.63,-31.96 103.87,-38.85"/>
</a>
</g>
</g>
<!-- Node4 -->
<g id="Node000004" class="node">
<title>Node4</title>
<g id="a_Node000004"><a xlink:href="ldblib_8c.html#acd61487bdd057d6c668ec0bd88728670" target="_top" xlink:title=" ">
<polygon fill="white" stroke="#666666" points="79,-19.25 0,-19.25 0,0 79,0 79,-19.25"/>
<text xml:space="preserve" text-anchor="middle" x="39.5" y="-5.75" font-family="Helvetica,sans-Serif" font-size="10.00">db_setupvalue</text>
</a>
</g>
</g>
<!-- Node2&#45;&gt;Node4 -->
<g id="edge3_Node000002_Node000004" class="edge">
<title>Node2&#45;&gt;Node4</title>
<g id="a_edge3_Node000002_Node000004"><a xlink:title=" ">
<path fill="none" stroke="#63b8ff" d="M103.26,-20.26C95.32,-18.91 87.09,-17.52 79.3,-16.2"/>
<polygon fill="#63b8ff" stroke="#63b8ff" points="102.65,-23.7 113.09,-21.92 103.82,-16.8 102.65,-23.7"/>
</a>
</g>
</g>
</g>
</svg>
