<?xml version="1.0" encoding="UTF-8" standalone="no"?>
<!DOCTYPE svg PUBLIC "-//W3C//DTD SVG 1.1//EN"
 "http://www.w3.org/Graphics/SVG/1.1/DTD/svg11.dtd">
<!-- Generated by graphviz version 13.1.0 (20250701.0955)
 -->
<!-- Title: dochunk Pages: 1 -->
<svg width="410pt" height="82pt"
 viewBox="0.00 0.00 410.00 82.00" xmlns="http://www.w3.org/2000/svg" xmlns:xlink="http://www.w3.org/1999/xlink">

<svg id="main" version="1.1" xmlns="http://www.w3.org/2000/svg" xmlns:xlink="http://www.w3.org/1999/xlink" xml:space="preserve">

<style type="text/css"><![CDATA[
.node, .edge {opacity: 0.7;}
.node.selected, .edge.selected {opacity: 1;}
.edge:hover path { stroke: red; }
.edge:hover polygon { stroke: red; fill: red; }
]]></style>
<script type="application/ecmascript" xlink:href="svg.min.js"/>
<svg id="graph" class="graph">
<g id="graph0" class="graph" transform="scale(1 1) rotate(0) translate(4 78.25)">
<title>dochunk</title>
<!-- Node1 -->
<g id="Node000001" class="node">
<title>Node1</title>
<g id="a_Node000001"><a xlink:title=" ">
<polygon fill="#999999" stroke="#666666" points="401.75,-55.25 349,-55.25 349,-36 401.75,-36 401.75,-55.25"/>
<text xml:space="preserve" text-anchor="middle" x="375.38" y="-41.75" font-family="Helvetica,sans-Serif" font-size="10.00">dochunk</text>
</a>
</g>
</g>
<!-- Node2 -->
<g id="Node000002" class="node">
<title>Node2</title>
<g id="a_Node000002"><a xlink:href="lua_8c.html#a9708ea7bd36bee3c2d952cdd787246cc" target="_top" xlink:title=" ">
<polygon fill="white" stroke="#666666" points="307.38,-74.25 268.12,-74.25 268.12,-55 307.38,-55 307.38,-74.25"/>
<text xml:space="preserve" text-anchor="middle" x="287.75" y="-60.75" font-family="Helvetica,sans-Serif" font-size="10.00">dofile</text>
</a>
</g>
</g>
<!-- Node1&#45;&gt;Node2 -->
<g id="edge1_Node000001_Node000002" class="edge">
<title>Node1&#45;&gt;Node2</title>
<g id="a_edge1_Node000001_Node000002"><a xlink:title=" ">
<path fill="none" stroke="#63b8ff" d="M337.73,-53.76C327.35,-56.06 316.48,-58.47 307.62,-60.44"/>
<polygon fill="#63b8ff" stroke="#63b8ff" points="338.2,-57.24 347.21,-51.65 336.69,-50.4 338.2,-57.24"/>
</a>
</g>
</g>
<!-- Node6 -->
<g id="Node000006" class="node">
<title>Node6</title>
<g id="a_Node000006"><a xlink:href="lua_8c.html#ae8312476ab6a3db74a9a5b1a981d023f" target="_top" xlink:title=" ">
<polygon fill="white" stroke="#666666" points="313,-37.25 262.5,-37.25 262.5,-18 313,-18 313,-37.25"/>
<text xml:space="preserve" text-anchor="middle" x="287.75" y="-23.75" font-family="Helvetica,sans-Serif" font-size="10.00">dostring</text>
</a>
</g>
</g>
<!-- Node1&#45;&gt;Node6 -->
<g id="edge6_Node000001_Node000006" class="edge">
<title>Node1&#45;&gt;Node6</title>
<g id="a_edge6_Node000001_Node000006"><a xlink:title=" ">
<path fill="none" stroke="#63b8ff" d="M337.44,-37.86C329.26,-36.14 320.79,-34.36 313.25,-32.77"/>
<polygon fill="#63b8ff" stroke="#63b8ff" points="336.7,-41.28 347.2,-39.91 338.14,-34.43 336.7,-41.28"/>
</a>
</g>
</g>
<!-- Node3 -->
<g id="Node000003" class="node">
<title>Node3</title>
<g id="a_Node000003"><a xlink:href="lua_8c.html#a5d9d02779b2853fbef2aa54e2f8e017e" target="_top" xlink:title=" ">
<polygon fill="white" stroke="#666666" points="226.5,-56.25 151.25,-56.25 151.25,-37 226.5,-37 226.5,-56.25"/>
<text xml:space="preserve" text-anchor="middle" x="188.88" y="-42.75" font-family="Helvetica,sans-Serif" font-size="10.00">handle_luainit</text>
</a>
</g>
</g>
<!-- Node2&#45;&gt;Node3 -->
<g id="edge2_Node000002_Node000003" class="edge">
<title>Node2&#45;&gt;Node3</title>
<g id="a_edge2_Node000002_Node000003"><a xlink:title=" ">
<path fill="none" stroke="#63b8ff" d="M256.83,-59.07C247.38,-57.31 236.83,-55.35 226.95,-53.51"/>
<polygon fill="#63b8ff" stroke="#63b8ff" points="256.11,-62.49 266.58,-60.88 257.39,-55.61 256.11,-62.49"/>
</a>
</g>
</g>
<!-- Node4 -->
<g id="Node000004" class="node">
<title>Node4</title>
<g id="a_Node000004"><a xlink:href="lua_8c.html#aa0f8bc082ef913cb0a4df437bf5f5019" target="_top" xlink:title=" ">
<polygon fill="white" stroke="#666666" points="115.25,-56.25 73,-56.25 73,-37 115.25,-37 115.25,-56.25"/>
<text xml:space="preserve" text-anchor="middle" x="94.12" y="-42.75" font-family="Helvetica,sans-Serif" font-size="10.00">pmain</text>
</a>
</g>
</g>
<!-- Node2&#45;&gt;Node4 -->
<g id="edge5_Node000002_Node000004" class="edge">
<title>Node2&#45;&gt;Node4</title>
<g id="a_edge5_Node000002_Node000004"><a xlink:title=" ">
<path fill="none" stroke="#63b8ff" d="M256.48,-67.77C228.87,-69.95 187.04,-71.52 151.25,-65.62 139.07,-63.62 125.98,-59.32 115.5,-55.32"/>
<polygon fill="#63b8ff" stroke="#63b8ff" points="256.58,-71.28 266.23,-66.92 255.97,-64.3 256.58,-71.28"/>
</a>
</g>
</g>
<!-- Node3&#45;&gt;Node4 -->
<g id="edge3_Node000003_Node000004" class="edge">
<title>Node3&#45;&gt;Node4</title>
<g id="a_edge3_Node000003_Node000004"><a xlink:title=" ">
<path fill="none" stroke="#63b8ff" d="M139.52,-46.62C131.11,-46.62 122.78,-46.62 115.65,-46.62"/>
<polygon fill="#63b8ff" stroke="#63b8ff" points="139.44,-50.13 149.44,-46.63 139.44,-43.13 139.44,-50.13"/>
</a>
</g>
</g>
<!-- Node5 -->
<g id="Node000005" class="node">
<title>Node5</title>
<g id="a_Node000005"><a xlink:href="lua_8c.html#a3c04138a5bfe5d72780bb7e82a18e627" target="_top" xlink:title=" ">
<polygon fill="white" stroke="#666666" points="37,-56.25 0,-56.25 0,-37 37,-37 37,-56.25"/>
<text xml:space="preserve" text-anchor="middle" x="18.5" y="-42.75" font-family="Helvetica,sans-Serif" font-size="10.00">main</text>
</a>
</g>
</g>
<!-- Node4&#45;&gt;Node5 -->
<g id="edge4_Node000004_Node000005" class="edge">
<title>Node4&#45;&gt;Node5</title>
<g id="a_edge4_Node000004_Node000005"><a xlink:title=" ">
<path fill="none" stroke="#63b8ff" d="M61.12,-46.62C52.99,-46.62 44.54,-46.62 37.4,-46.62"/>
<polygon fill="#63b8ff" stroke="#63b8ff" points="61.1,-50.13 71.1,-46.63 61.1,-43.13 61.1,-50.13"/>
</a>
</g>
</g>
<!-- Node6&#45;&gt;Node3 -->
<g id="edge7_Node000006_Node000003" class="edge">
<title>Node6&#45;&gt;Node3</title>
<g id="a_edge7_Node000006_Node000003"><a xlink:title=" ">
<path fill="none" stroke="#63b8ff" d="M251.02,-34.63C243.18,-36.17 234.86,-37.8 226.97,-39.35"/>
<polygon fill="#63b8ff" stroke="#63b8ff" points="251.43,-38.12 260.57,-32.76 250.08,-31.25 251.43,-38.12"/>
</a>
</g>
</g>
<!-- Node7 -->
<g id="Node000007" class="node">
<title>Node7</title>
<g id="a_Node000007"><a xlink:href="lua_8c.html#a95a376c847572def6b3f78d33a7bc881" target="_top" xlink:title=" ">
<polygon fill="white" stroke="#666666" points="213,-19.25 164.75,-19.25 164.75,0 213,0 213,-19.25"/>
<text xml:space="preserve" text-anchor="middle" x="188.88" y="-5.75" font-family="Helvetica,sans-Serif" font-size="10.00">runargs</text>
</a>
</g>
</g>
<!-- Node6&#45;&gt;Node7 -->
<g id="edge8_Node000006_Node000007" class="edge">
<title>Node6&#45;&gt;Node7</title>
<g id="a_edge8_Node000006_Node000007"><a xlink:title=" ">
<path fill="none" stroke="#63b8ff" d="M250.93,-20.97C238.33,-18.63 224.5,-16.06 213.19,-13.96"/>
<polygon fill="#63b8ff" stroke="#63b8ff" points="250.09,-24.37 260.57,-22.76 251.37,-17.49 250.09,-24.37"/>
</a>
</g>
</g>
<!-- Node7&#45;&gt;Node4 -->
<g id="edge9_Node000007_Node000004" class="edge">
<title>Node7&#45;&gt;Node4</title>
<g id="a_edge9_Node000007_Node000004"><a xlink:title=" ">
<path fill="none" stroke="#63b8ff" d="M154.09,-23.1C141.22,-28.24 126.96,-33.93 115.68,-38.42"/>
<polygon fill="#63b8ff" stroke="#63b8ff" points="155.07,-26.48 163.06,-19.52 152.48,-19.98 155.07,-26.48"/>
</a>
</g>
</g>
</g>
</svg>
</svg>

<style type='text/css'>
<![CDATA[
[data-mouse-over-selected='false'] { opacity: 0.7; }
[data-mouse-over-selected='true']  { opacity: 1.0; }
]]>
</style>
<script type="application/ecmascript"><![CDATA[
document.addEventListener('DOMContentLoaded', (event) => {
  highlightEdges();
  highlightAdjacentNodes();
});
]]></script>
</svg>
