<?xml version="1.0" encoding="UTF-8" standalone="no"?>
<!DOCTYPE svg PUBLIC "-//W3C//DTD SVG 1.1//EN"
 "http://www.w3.org/Graphics/SVG/1.1/DTD/svg11.dtd">
<!-- Generated by graphviz version 13.1.0 (20250701.0955)
 -->
<!-- Title: lua_isinteger Pages: 1 -->
<!--zoomable 530 -->

<svg id="main" version="1.1" xmlns="http://www.w3.org/2000/svg" xmlns:xlink="http://www.w3.org/1999/xlink" xml:space="preserve" onload="init(evt)">

<style type="text/css"><![CDATA[
.node, .edge {opacity: 0.7;}
.node.selected, .edge.selected {opacity: 1;}
.edge:hover path { stroke: red; }
.edge:hover polygon { stroke: red; fill: red; }
]]></style>

<defs>
  <circle id="rim" cx="0" cy="0" r="7"/>
  <circle id="rim2" cx="0" cy="0" r="3.5"/>
  <g id="zoomPlus">
    <use xlink:href="#rim" fill="#404040"><set attributeName="fill" to="#808080" begin="zoomplus.mouseover" end="zoomplus.mouseout"/></use>
    <path d="M-4,0h8M0,-4v8" fill="none" stroke="white" stroke-width="1.5" pointer-events="none"/>
  </g>
  <g id="zoomMin">
    <use xlink:href="#rim" fill="#404040"><set attributeName="fill" to="#808080" begin="zoomminus.mouseover" end="zoomminus.mouseout"/></use>
    <path d="M-4,0h8" fill="none" stroke="white" stroke-width="1.5" pointer-events="none"/>
  </g>
  <g id="arrowUp" transform="translate(30 24)">
    <use xlink:href="#rim"/>
    <path pointer-events="none" fill="none" stroke="white" stroke-width="1.5" d="M0,-3.0v7 M-2.5,-0.5L0,-3.0L2.5,-0.5"/>
  </g>
  <g id="arrowRight" transform="rotate(90) translate(36 -43)">
    <use xlink:href="#rim"/>
    <path pointer-events="none" fill="none" stroke="white" stroke-width="1.5" d="M0,-3.0v7 M-2.5,-0.5L0,-3.0L2.5,-0.5"/>
  </g>
  <g id="arrowDown" transform="rotate(180) translate(-30 -48)">
    <use xlink:href="#rim"/>
    <path pointer-events="none" fill="none" stroke="white" stroke-width="1.5" d="M0,-3.0v7 M-2.5,-0.5L0,-3.0L2.5,-0.5"/>
  </g>
  <g id="arrowLeft" transform="rotate(270) translate(-36 17)">
    <use xlink:href="#rim"/>
    <path pointer-events="none" fill="none" stroke="white" stroke-width="1.5" d="M0,-3.0v7 M-2.5,-0.5L0,-3.0L2.5,-0.5"/>
  </g>
  <g id="resetDef">
    <use xlink:href="#rim2" fill="#404040"><set attributeName="fill" to="#808080" begin="reset.mouseover" end="reset.mouseout"/></use>
  </g>
</defs>
<script type="application/ecmascript">
var viewWidth = 807;
var viewHeight = 530;
var sectionId = 'dynsection-33';
</script>
<script type="application/ecmascript" xlink:href="svg.min.js"/>
<svg id="graph" class="graph">
<g id="viewport">
<title>lua_isinteger</title>
<!-- Node1 -->
<g id="Node000001" class="node">
<title>Node1</title>
<g id="a_Node000001"><a xlink:title=" ">
<polygon fill="#999999" stroke="#666666" points="798.75,-204.25 728,-204.25 728,-185 798.75,-185 798.75,-204.25"/>
<text xml:space="preserve" text-anchor="middle" x="763.38" y="-190.75" font-family="Helvetica,sans-Serif" font-size="10.00">lua_isinteger</text>
</a>
</g>
</g>
<!-- Node2 -->
<g id="Node000002" class="node">
<title>Node2</title>
<g id="a_Node000002"><a xlink:href="lstrlib_8c.html#a2ff59847baa24a18f7d78d47dc1d3220" target="_top" xlink:title=" ">
<polygon fill="white" stroke="#666666" points="573.25,-261.25 518.25,-261.25 518.25,-242 573.25,-242 573.25,-261.25"/>
<text xml:space="preserve" text-anchor="middle" x="545.75" y="-247.75" font-family="Helvetica,sans-Serif" font-size="10.00">addliteral</text>
</a>
</g>
</g>
<!-- Node1&#45;&gt;Node2 -->
<g id="edge1_Node000001_Node000002" class="edge">
<title>Node1&#45;&gt;Node2</title>
<g id="a_edge1_Node000001_Node000002"><a xlink:title=" ">
<path fill="none" stroke="#63b8ff" d="M746.47,-212.55C733.37,-225.88 713.5,-243.03 692,-250.62 652.65,-264.52 603.47,-260.87 573.62,-256.55"/>
<polygon fill="#63b8ff" stroke="#63b8ff" points="748.72,-215.26 753.02,-205.58 743.62,-210.47 748.72,-215.26"/>
</a>
</g>
</g>
<!-- Node4 -->
<g id="Node000004" class="node">
<title>Node4</title>
<g id="a_Node000004"><a xlink:href="liolib_8c.html#a88c73a30c7d135dfb4958b7bfaa90cc7" target="_top" xlink:title=" ">
<polygon fill="white" stroke="#666666" points="678.88,-485.25 631.38,-485.25 631.38,-466 678.88,-466 678.88,-485.25"/>
<text xml:space="preserve" text-anchor="middle" x="655.12" y="-471.75" font-family="Helvetica,sans-Serif" font-size="10.00">g_write</text>
</a>
</g>
</g>
<!-- Node1&#45;&gt;Node4 -->
<g id="edge3_Node000001_Node000004" class="edge">
<title>Node1&#45;&gt;Node4</title>
<g id="a_edge3_Node000001_Node000004"><a xlink:title=" ">
<path fill="none" stroke="#63b8ff" d="M754.55,-215.33C733.31,-271.5 675.17,-425.25 659.86,-465.74"/>
<polygon fill="#63b8ff" stroke="#63b8ff" points="757.8,-216.63 758.06,-206.04 751.25,-214.16 757.8,-216.63"/>
</a>
</g>
</g>
<!-- Node7 -->
<g id="Node000007" class="node">
<title>Node7</title>
<g id="a_Node000007"><a xlink:href="lauxlib_8c.html#a1adeae26be7c2e3001c3583f43f70720" target="_top" xlink:title=" ">
<polygon fill="white" stroke="#666666" points="680.38,-317.25 629.88,-317.25 629.88,-298 680.38,-298 680.38,-317.25"/>
<text xml:space="preserve" text-anchor="middle" x="655.12" y="-303.75" font-family="Helvetica,sans-Serif" font-size="10.00">luaL_ref</text>
</a>
</g>
</g>
<!-- Node1&#45;&gt;Node7 -->
<g id="edge6_Node000001_Node000007" class="edge">
<title>Node1&#45;&gt;Node7</title>
<g id="a_edge6_Node000001_Node000007"><a xlink:title=" ">
<path fill="none" stroke="#63b8ff" d="M749.75,-213.95C736.71,-233.02 715.08,-262.31 692,-283.62 686.38,-288.81 679.55,-293.67 673.36,-297.65"/>
<polygon fill="#63b8ff" stroke="#63b8ff" points="752.56,-216.05 755.21,-205.79 746.74,-212.15 752.56,-216.05"/>
</a>
</g>
</g>
<!-- Node8 -->
<g id="Node000008" class="node">
<title>Node8</title>
<g id="a_Node000008"><a xlink:href="lauxlib_8c.html#a64d366034d114de946f1b93199847dab" target="_top" xlink:title=" ">
<polygon fill="white" stroke="#666666" points="692,-354.25 618.25,-354.25 618.25,-335 692,-335 692,-354.25"/>
<text xml:space="preserve" text-anchor="middle" x="655.12" y="-340.75" font-family="Helvetica,sans-Serif" font-size="10.00">luaL_tolstring</text>
</a>
</g>
</g>
<!-- Node1&#45;&gt;Node8 -->
<g id="edge7_Node000001_Node000008" class="edge">
<title>Node1&#45;&gt;Node8</title>
<g id="a_edge7_Node000001_Node000008"><a xlink:title=" ">
<path fill="none" stroke="#63b8ff" d="M755.91,-215.11C746.1,-243.35 725.02,-294.41 692,-326.62 688.81,-329.74 684.97,-332.42 681.01,-334.69"/>
<polygon fill="#63b8ff" stroke="#63b8ff" points="759.12,-216.55 758.95,-205.96 752.48,-214.34 759.12,-216.55"/>
</a>
</g>
</g>
<!-- Node19 -->
<g id="Node000019" class="node">
<title>Node19</title>
<g id="a_Node000019"><a xlink:href="lauxlib_8c.html#ad5e8303f3809d26c336c3e18879b7f4e" target="_top" xlink:title=" ">
<polygon fill="white" stroke="#666666" points="685.62,-241.25 624.62,-241.25 624.62,-222 685.62,-222 685.62,-241.25"/>
<text xml:space="preserve" text-anchor="middle" x="655.12" y="-227.75" font-family="Helvetica,sans-Serif" font-size="10.00">luaL_unref</text>
</a>
</g>
</g>
<!-- Node1&#45;&gt;Node19 -->
<g id="edge21_Node000001_Node000019" class="edge">
<title>Node1&#45;&gt;Node19</title>
<g id="a_edge21_Node000001_Node000019"><a xlink:title=" ">
<path fill="none" stroke="#63b8ff" d="M722.73,-208.43C710.25,-212.78 696.71,-217.49 685.12,-221.53"/>
<polygon fill="#63b8ff" stroke="#63b8ff" points="723.62,-211.83 731.91,-205.23 721.32,-205.22 723.62,-211.83"/>
</a>
</g>
</g>
<!-- Node20 -->
<g id="Node000020" class="node">
<title>Node20</title>
<g id="a_Node000020"><a xlink:href="lmathlib_8c.html#a9545dd3926974393ff34e33a108df628" target="_top" xlink:title=" ">
<polygon fill="white" stroke="#666666" points="684.5,-204.25 625.75,-204.25 625.75,-185 684.5,-185 684.5,-204.25"/>
<text xml:space="preserve" text-anchor="middle" x="655.12" y="-190.75" font-family="Helvetica,sans-Serif" font-size="10.00">math_abs</text>
</a>
</g>
</g>
<!-- Node1&#45;&gt;Node20 -->
<g id="edge22_Node000001_Node000020" class="edge">
<title>Node1&#45;&gt;Node20</title>
<g id="a_edge22_Node000001_Node000020"><a xlink:title=" ">
<path fill="none" stroke="#63b8ff" d="M716.27,-194.62C705.63,-194.62 694.61,-194.62 684.96,-194.62"/>
<polygon fill="#63b8ff" stroke="#63b8ff" points="716.07,-198.13 726.07,-194.63 716.07,-191.13 716.07,-198.13"/>
</a>
</g>
</g>
<!-- Node21 -->
<g id="Node000021" class="node">
<title>Node21</title>
<g id="a_Node000021"><a xlink:href="lmathlib_8c.html#ae4f0dc771c626a9badef237db9d433da" target="_top" xlink:title=" ">
<polygon fill="white" stroke="#666666" points="684.12,-167.25 626.12,-167.25 626.12,-148 684.12,-148 684.12,-167.25"/>
<text xml:space="preserve" text-anchor="middle" x="655.12" y="-153.75" font-family="Helvetica,sans-Serif" font-size="10.00">math_ceil</text>
</a>
</g>
</g>
<!-- Node1&#45;&gt;Node21 -->
<g id="edge23_Node000001_Node000021" class="edge">
<title>Node1&#45;&gt;Node21</title>
<g id="a_edge23_Node000001_Node000021"><a xlink:title=" ">
<path fill="none" stroke="#63b8ff" d="M722.55,-180.76C709.86,-176.34 696.09,-171.54 684.39,-167.47"/>
<polygon fill="#63b8ff" stroke="#63b8ff" points="721.32,-184.03 731.91,-184.02 723.62,-177.42 721.32,-184.03"/>
</a>
</g>
</g>
<!-- Node22 -->
<g id="Node000022" class="node">
<title>Node22</title>
<g id="a_Node000022"><a xlink:href="lmathlib_8c.html#aa063dcd93e924af13c5e311f89b18d03" target="_top" xlink:title=" ">
<polygon fill="white" stroke="#666666" points="686,-130.25 624.25,-130.25 624.25,-111 686,-111 686,-130.25"/>
<text xml:space="preserve" text-anchor="middle" x="655.12" y="-116.75" font-family="Helvetica,sans-Serif" font-size="10.00">math_floor</text>
</a>
</g>
</g>
<!-- Node1&#45;&gt;Node22 -->
<g id="edge24_Node000001_Node000022" class="edge">
<title>Node1&#45;&gt;Node22</title>
<g id="a_edge24_Node000001_Node000022"><a xlink:title=" ">
<path fill="none" stroke="#63b8ff" d="M742.91,-177.33C729.22,-165.62 710.17,-150.24 692,-138.62 687.54,-135.77 682.56,-133.03 677.77,-130.58"/>
<polygon fill="#63b8ff" stroke="#63b8ff" points="740.47,-179.84 750.32,-183.76 745.06,-174.56 740.47,-179.84"/>
</a>
</g>
</g>
<!-- Node23 -->
<g id="Node000023" class="node">
<title>Node23</title>
<g id="a_Node000023"><a xlink:href="lmathlib_8c.html#a25b3f7d30cf85b8248a72de20049564e" target="_top" xlink:title=" ">
<polygon fill="white" stroke="#666666" points="687.5,-93.25 622.75,-93.25 622.75,-74 687.5,-74 687.5,-93.25"/>
<text xml:space="preserve" text-anchor="middle" x="655.12" y="-79.75" font-family="Helvetica,sans-Serif" font-size="10.00">math_fmod</text>
</a>
</g>
</g>
<!-- Node1&#45;&gt;Node23 -->
<g id="edge25_Node000001_Node000023" class="edge">
<title>Node1&#45;&gt;Node23</title>
<g id="a_edge25_Node000001_Node000023"><a xlink:title=" ">
<path fill="none" stroke="#63b8ff" d="M751.25,-174.99C738.9,-154.57 717.33,-122.7 692,-101.62 688.36,-98.59 684.12,-95.9 679.86,-93.59"/>
<polygon fill="#63b8ff" stroke="#63b8ff" points="748.14,-176.6 756.22,-183.45 754.17,-173.05 748.14,-176.6"/>
</a>
</g>
</g>
<!-- Node24 -->
<g id="Node000024" class="node">
<title>Node24</title>
<g id="a_Node000024"><a xlink:href="lmathlib_8c.html#adff369706deb34be360be3103f31d4c4" target="_top" xlink:title=" ">
<polygon fill="white" stroke="#666666" points="687.5,-56.25 622.75,-56.25 622.75,-37 687.5,-37 687.5,-56.25"/>
<text xml:space="preserve" text-anchor="middle" x="655.12" y="-42.75" font-family="Helvetica,sans-Serif" font-size="10.00">math_modf</text>
</a>
</g>
</g>
<!-- Node1&#45;&gt;Node24 -->
<g id="edge26_Node000001_Node000024" class="edge">
<title>Node1&#45;&gt;Node24</title>
<g id="a_edge26_Node000001_Node000024"><a xlink:title=" ">
<path fill="none" stroke="#63b8ff" d="M755.55,-173.67C745.52,-145.7 724.43,-96.06 692,-64.62 688.8,-61.52 684.95,-58.84 680.99,-56.57"/>
<polygon fill="#63b8ff" stroke="#63b8ff" points="752.23,-174.77 758.78,-183.1 758.85,-172.5 752.23,-174.77"/>
</a>
</g>
</g>
<!-- Node25 -->
<g id="Node000025" class="node">
<title>Node25</title>
<g id="a_Node000025"><a xlink:href="lmathlib_8c.html#af58a749fbaa6093fab0db96dcfd822a7" target="_top" xlink:title=" ">
<polygon fill="white" stroke="#666666" points="686,-19.25 624.25,-19.25 624.25,0 686,0 686,-19.25"/>
<text xml:space="preserve" text-anchor="middle" x="655.12" y="-5.75" font-family="Helvetica,sans-Serif" font-size="10.00">math_type</text>
</a>
</g>
</g>
<!-- Node1&#45;&gt;Node25 -->
<g id="edge27_Node000001_Node000025" class="edge">
<title>Node1&#45;&gt;Node25</title>
<g id="a_edge27_Node000001_Node000025"><a xlink:title=" ">
<path fill="none" stroke="#63b8ff" d="M758.45,-173.66C751.05,-139.25 732.02,-70.38 692,-27.62 689.05,-24.47 685.42,-21.79 681.62,-19.53"/>
<polygon fill="#63b8ff" stroke="#63b8ff" points="754.97,-174.07 760.37,-183.18 761.83,-172.68 754.97,-174.07"/>
</a>
</g>
</g>
<!-- Node3 -->
<g id="Node000003" class="node">
<title>Node3</title>
<g id="a_Node000003"><a xlink:href="lstrlib_8c.html#ae26a9374857058119e59d0328208c2f2" target="_top" xlink:title=" ">
<polygon fill="white" stroke="#666666" points="473.25,-336.25 413,-336.25 413,-317 473.25,-317 473.25,-336.25"/>
<text xml:space="preserve" text-anchor="middle" x="443.12" y="-322.75" font-family="Helvetica,sans-Serif" font-size="10.00">str_format</text>
</a>
</g>
</g>
<!-- Node2&#45;&gt;Node3 -->
<g id="edge2_Node000002_Node000003" class="edge">
<title>Node2&#45;&gt;Node3</title>
<g id="a_edge2_Node000002_Node000003"><a xlink:title=" ">
<path fill="none" stroke="#63b8ff" d="M512.93,-267.25C511.67,-268.03 510.44,-268.82 509.25,-269.62 487.83,-284.09 465.8,-304.85 453.64,-316.91"/>
<polygon fill="#63b8ff" stroke="#63b8ff" points="514.56,-270.35 521.54,-262.39 511.11,-264.26 514.56,-270.35"/>
</a>
</g>
</g>
<!-- Node5 -->
<g id="Node000005" class="node">
<title>Node5</title>
<g id="a_Node000005"><a xlink:href="liolib_8c.html#adba67ef94aaa532d9224ca04f8126ac2" target="_top" xlink:title=" ">
<polygon fill="white" stroke="#666666" points="568.38,-522.25 523.12,-522.25 523.12,-503 568.38,-503 568.38,-522.25"/>
<text xml:space="preserve" text-anchor="middle" x="545.75" y="-508.75" font-family="Helvetica,sans-Serif" font-size="10.00">f_write</text>
</a>
</g>
</g>
<!-- Node4&#45;&gt;Node5 -->
<g id="edge4_Node000004_Node000005" class="edge">
<title>Node4&#45;&gt;Node5</title>
<g id="a_edge4_Node000004_Node000005"><a xlink:title=" ">
<path fill="none" stroke="#63b8ff" d="M620.51,-487.21C603.59,-493.04 583.56,-499.94 568.65,-505.08"/>
<polygon fill="#63b8ff" stroke="#63b8ff" points="621.35,-490.62 629.66,-484.06 619.06,-484 621.35,-490.62"/>
</a>
</g>
</g>
<!-- Node6 -->
<g id="Node000006" class="node">
<title>Node6</title>
<g id="a_Node000006"><a xlink:href="liolib_8c.html#ada35daf906cc262cc6944cad92b93ac3" target="_top" xlink:title=" ">
<polygon fill="white" stroke="#666666" points="570.62,-485.25 520.88,-485.25 520.88,-466 570.62,-466 570.62,-485.25"/>
<text xml:space="preserve" text-anchor="middle" x="545.75" y="-471.75" font-family="Helvetica,sans-Serif" font-size="10.00">io_write</text>
</a>
</g>
</g>
<!-- Node4&#45;&gt;Node6 -->
<g id="edge5_Node000004_Node000006" class="edge">
<title>Node4&#45;&gt;Node6</title>
<g id="a_edge5_Node000004_Node000006"><a xlink:title=" ">
<path fill="none" stroke="#63b8ff" d="M620.02,-475.62C604.03,-475.62 585.36,-475.62 570.86,-475.62"/>
<polygon fill="#63b8ff" stroke="#63b8ff" points="619.58,-479.13 629.58,-475.63 619.58,-472.13 619.58,-479.13"/>
</a>
</g>
</g>
<!-- Node8&#45;&gt;Node2 -->
<g id="edge8_Node000008_Node000002" class="edge">
<title>Node8&#45;&gt;Node2</title>
<g id="a_edge8_Node000008_Node000002"><a xlink:title=" ">
<path fill="none" stroke="#63b8ff" d="M620.23,-328.32C619.55,-327.77 618.89,-327.2 618.25,-326.62 596.05,-306.5 604.41,-289.79 582.25,-269.62 578.88,-266.56 574.88,-263.87 570.81,-261.58"/>
<polygon fill="#63b8ff" stroke="#63b8ff" points="618.28,-331.23 628.55,-333.86 622.16,-325.4 618.28,-331.23"/>
</a>
</g>
</g>
<!-- Node8&#45;&gt;Node3 -->
<g id="edge20_Node000008_Node000003" class="edge">
<title>Node8&#45;&gt;Node3</title>
<g id="a_edge20_Node000008_Node000003"><a xlink:title=" ">
<path fill="none" stroke="#63b8ff" d="M630.35,-360.51C616.87,-368.56 599.31,-377.49 582.25,-381.62 550.72,-389.26 539.72,-392.77 509.25,-381.62 484.51,-372.58 462.69,-349.52 451.69,-336.31"/>
<polygon fill="#63b8ff" stroke="#63b8ff" points="631.88,-363.68 638.52,-355.42 628.18,-357.74 631.88,-363.68"/>
</a>
</g>
</g>
<!-- Node9 -->
<g id="Node000009" class="node">
<title>Node9</title>
<g id="a_Node000009"><a xlink:href="ldblib_8c.html#ad72cc206e90f6ebc343460376c950a14" target="_top" xlink:title=" ">
<polygon fill="white" stroke="#666666" points="574.75,-298.25 516.75,-298.25 516.75,-279 574.75,-279 574.75,-298.25"/>
<text xml:space="preserve" text-anchor="middle" x="545.75" y="-284.75" font-family="Helvetica,sans-Serif" font-size="10.00">db_debug</text>
</a>
</g>
</g>
<!-- Node8&#45;&gt;Node9 -->
<g id="edge9_Node000008_Node000009" class="edge">
<title>Node8&#45;&gt;Node9</title>
<g id="a_edge9_Node000008_Node000009"><a xlink:title=" ">
<path fill="none" stroke="#63b8ff" d="M624.08,-329.67C622.1,-328.65 620.14,-327.63 618.25,-326.62 602.07,-318.07 598.42,-315.21 582.25,-306.62 577.25,-303.97 571.8,-301.17 566.72,-298.58"/>
<polygon fill="#63b8ff" stroke="#63b8ff" points="622.09,-332.58 632.59,-334 625.26,-326.34 622.09,-332.58"/>
</a>
</g>
</g>
<!-- Node10 -->
<g id="Node000010" class="node">
<title>Node10</title>
<g id="a_Node000010"><a xlink:href="lua_8c.html#a00e95c21ddceedb9bbff9717f82f812c" target="_top" xlink:title=" ">
<polygon fill="white" stroke="#666666" points="578.12,-448.25 513.38,-448.25 513.38,-429 578.12,-429 578.12,-448.25"/>
<text xml:space="preserve" text-anchor="middle" x="545.75" y="-434.75" font-family="Helvetica,sans-Serif" font-size="10.00">get_prompt</text>
</a>
</g>
</g>
<!-- Node8&#45;&gt;Node10 -->
<g id="edge10_Node000008_Node000010" class="edge">
<title>Node8&#45;&gt;Node10</title>
<g id="a_edge10_Node000008_Node000010"><a xlink:title=" ">
<path fill="none" stroke="#63b8ff" d="M637.05,-362.98C622.97,-377.66 602.16,-398.41 582.25,-414.62 576.13,-419.6 569,-424.57 562.73,-428.69"/>
<polygon fill="#63b8ff" stroke="#63b8ff" points="639.5,-365.48 643.83,-355.81 634.41,-360.66 639.5,-365.48"/>
</a>
</g>
</g>
<!-- Node17 -->
<g id="Node000017" class="node">
<title>Node17</title>
<g id="a_Node000017"><a xlink:href="lbaselib_8c.html#a865eb761a305c588d6940da5272375b7" target="_top" xlink:title=" ">
<polygon fill="white" stroke="#666666" points="575.5,-372.25 516,-372.25 516,-353 575.5,-353 575.5,-372.25"/>
<text xml:space="preserve" text-anchor="middle" x="545.75" y="-358.75" font-family="Helvetica,sans-Serif" font-size="10.00">luaB_print</text>
</a>
</g>
</g>
<!-- Node8&#45;&gt;Node17 -->
<g id="edge18_Node000008_Node000017" class="edge">
<title>Node8&#45;&gt;Node17</title>
<g id="a_edge18_Node000008_Node000017"><a xlink:title=" ">
<path fill="none" stroke="#63b8ff" d="M606.64,-352.59C596.19,-354.34 585.42,-356.14 575.95,-357.73"/>
<polygon fill="#63b8ff" stroke="#63b8ff" points="607,-356.07 616.28,-350.97 605.84,-349.17 607,-356.07"/>
</a>
</g>
</g>
<!-- Node18 -->
<g id="Node000018" class="node">
<title>Node18</title>
<g id="a_Node000018"><a xlink:href="lbaselib_8c.html#a15bd8ce3f719c87883bcb578c60677e7" target="_top" xlink:title=" ">
<polygon fill="white" stroke="#666666" points="582.25,-335.25 509.25,-335.25 509.25,-316 582.25,-316 582.25,-335.25"/>
<text xml:space="preserve" text-anchor="middle" x="545.75" y="-321.75" font-family="Helvetica,sans-Serif" font-size="10.00">luaB_tostring</text>
</a>
</g>
</g>
<!-- Node8&#45;&gt;Node18 -->
<g id="edge19_Node000008_Node000018" class="edge">
<title>Node8&#45;&gt;Node18</title>
<g id="a_edge19_Node000008_Node000018"><a xlink:title=" ">
<path fill="none" stroke="#63b8ff" d="M606.62,-336.22C598.59,-334.8 590.37,-333.34 582.7,-331.99"/>
<polygon fill="#63b8ff" stroke="#63b8ff" points="605.83,-339.63 616.28,-337.93 607.05,-332.74 605.83,-339.63"/>
</a>
</g>
</g>
<!-- Node11 -->
<g id="Node000011" class="node">
<title>Node11</title>
<g id="a_Node000011"><a xlink:href="lua_8c.html#a83a7cb21b34095ca93f2a2a863f58fda" target="_top" xlink:title=" ">
<polygon fill="white" stroke="#666666" points="469.12,-448.25 417.12,-448.25 417.12,-429 469.12,-429 469.12,-448.25"/>
<text xml:space="preserve" text-anchor="middle" x="443.12" y="-434.75" font-family="Helvetica,sans-Serif" font-size="10.00">pushline</text>
</a>
</g>
</g>
<!-- Node10&#45;&gt;Node11 -->
<g id="edge11_Node000010_Node000011" class="edge">
<title>Node10&#45;&gt;Node11</title>
<g id="a_edge11_Node000010_Node000011"><a xlink:title=" ">
<path fill="none" stroke="#63b8ff" d="M501.69,-438.62C490.67,-438.62 479.18,-438.62 469.39,-438.62"/>
<polygon fill="#63b8ff" stroke="#63b8ff" points="501.4,-442.13 511.4,-438.63 501.4,-435.13 501.4,-442.13"/>
</a>
</g>
</g>
<!-- Node12 -->
<g id="Node000012" class="node">
<title>Node12</title>
<g id="a_Node000012"><a xlink:href="lua_8c.html#ad7e840f79b193c164616ed9748e68ec6" target="_top" xlink:title=" ">
<polygon fill="white" stroke="#666666" points="289,-448.25 240,-448.25 240,-429 289,-429 289,-448.25"/>
<text xml:space="preserve" text-anchor="middle" x="264.5" y="-434.75" font-family="Helvetica,sans-Serif" font-size="10.00">loadline</text>
</a>
</g>
</g>
<!-- Node11&#45;&gt;Node12 -->
<g id="edge12_Node000011_Node000012" class="edge">
<title>Node11&#45;&gt;Node12</title>
<g id="a_edge12_Node000011_Node000012"><a xlink:title=" ">
<path fill="none" stroke="#63b8ff" d="M405.69,-438.62C370.83,-438.62 319.25,-438.62 289.34,-438.62"/>
<polygon fill="#63b8ff" stroke="#63b8ff" points="405.31,-442.13 415.31,-438.63 405.31,-435.13 405.31,-442.13"/>
</a>
</g>
</g>
<!-- Node16 -->
<g id="Node000016" class="node">
<title>Node16</title>
<g id="a_Node000016"><a xlink:href="lua_8c.html#affef5a04b31963c2c3f5028518777e12" target="_top" xlink:title=" ">
<polygon fill="white" stroke="#666666" points="377,-429.25 325,-429.25 325,-410 377,-410 377,-429.25"/>
<text xml:space="preserve" text-anchor="middle" x="351" y="-415.75" font-family="Helvetica,sans-Serif" font-size="10.00">multiline</text>
</a>
</g>
</g>
<!-- Node11&#45;&gt;Node16 -->
<g id="edge16_Node000011_Node000016" class="edge">
<title>Node11&#45;&gt;Node16</title>
<g id="a_edge16_Node000011_Node000016"><a xlink:title=" ">
<path fill="none" stroke="#63b8ff" d="M405.76,-430.96C396.21,-428.94 386.11,-426.82 377.28,-424.96"/>
<polygon fill="#63b8ff" stroke="#63b8ff" points="405.03,-434.38 415.54,-433.02 406.48,-427.53 405.03,-434.38"/>
</a>
</g>
</g>
<!-- Node13 -->
<g id="Node000013" class="node">
<title>Node13</title>
<g id="a_Node000013"><a xlink:href="lua_8c.html#a946f2675cba972bd3580d9046abf2b6b" target="_top" xlink:title=" ">
<polygon fill="white" stroke="#666666" points="204,-448.25 151.25,-448.25 151.25,-429 204,-429 204,-448.25"/>
<text xml:space="preserve" text-anchor="middle" x="177.62" y="-434.75" font-family="Helvetica,sans-Serif" font-size="10.00">doREPL</text>
</a>
</g>
</g>
<!-- Node12&#45;&gt;Node13 -->
<g id="edge13_Node000012_Node000013" class="edge">
<title>Node12&#45;&gt;Node13</title>
<g id="a_edge13_Node000012_Node000013"><a xlink:title=" ">
<path fill="none" stroke="#63b8ff" d="M228.4,-438.62C220.3,-438.62 211.83,-438.62 204.22,-438.62"/>
<polygon fill="#63b8ff" stroke="#63b8ff" points="228.34,-442.13 238.34,-438.63 228.34,-435.13 228.34,-442.13"/>
</a>
</g>
</g>
<!-- Node14 -->
<g id="Node000014" class="node">
<title>Node14</title>
<g id="a_Node000014"><a xlink:href="lua_8c.html#aa0f8bc082ef913cb0a4df437bf5f5019" target="_top" xlink:title=" ">
<polygon fill="white" stroke="#666666" points="115.25,-448.25 73,-448.25 73,-429 115.25,-429 115.25,-448.25"/>
<text xml:space="preserve" text-anchor="middle" x="94.12" y="-434.75" font-family="Helvetica,sans-Serif" font-size="10.00">pmain</text>
</a>
</g>
</g>
<!-- Node13&#45;&gt;Node14 -->
<g id="edge14_Node000013_Node000014" class="edge">
<title>Node13&#45;&gt;Node14</title>
<g id="a_edge14_Node000013_Node000014"><a xlink:title=" ">
<path fill="none" stroke="#63b8ff" d="M139.49,-438.62C131.27,-438.62 122.85,-438.62 115.59,-438.62"/>
<polygon fill="#63b8ff" stroke="#63b8ff" points="139.32,-442.13 149.32,-438.63 139.32,-435.13 139.32,-442.13"/>
</a>
</g>
</g>
<!-- Node15 -->
<g id="Node000015" class="node">
<title>Node15</title>
<g id="a_Node000015"><a xlink:href="lua_8c.html#a3c04138a5bfe5d72780bb7e82a18e627" target="_top" xlink:title=" ">
<polygon fill="white" stroke="#666666" points="37,-448.25 0,-448.25 0,-429 37,-429 37,-448.25"/>
<text xml:space="preserve" text-anchor="middle" x="18.5" y="-434.75" font-family="Helvetica,sans-Serif" font-size="10.00">main</text>
</a>
</g>
</g>
<!-- Node14&#45;&gt;Node15 -->
<g id="edge15_Node000014_Node000015" class="edge">
<title>Node14&#45;&gt;Node15</title>
<g id="a_edge15_Node000014_Node000015"><a xlink:title=" ">
<path fill="none" stroke="#63b8ff" d="M61.12,-438.62C52.99,-438.62 44.54,-438.62 37.4,-438.62"/>
<polygon fill="#63b8ff" stroke="#63b8ff" points="61.1,-442.13 71.1,-438.63 61.1,-435.13 61.1,-442.13"/>
</a>
</g>
</g>
<!-- Node16&#45;&gt;Node12 -->
<g id="edge17_Node000016_Node000012" class="edge">
<title>Node16&#45;&gt;Node12</title>
<g id="a_edge17_Node000016_Node000012"><a xlink:title=" ">
<path fill="none" stroke="#63b8ff" d="M313.45,-427.84C305.3,-429.67 296.87,-431.57 289.39,-433.25"/>
<polygon fill="#63b8ff" stroke="#63b8ff" points="314.18,-431.27 323.17,-425.66 312.65,-424.44 314.18,-431.27"/>
</a>
</g>
</g>
</g>
</svg>

<g id="navigator" transform="translate(0 0)" fill="#404254">
  <rect fill="#f2f5e9" fill-opacity="0.5" stroke="#606060" stroke-width=".5" x="0" y="0" width="60" height="60"/>
  <use id="zoomplus" xlink:href="#zoomPlus" x="17" y="9" onmousedown="handleZoom(evt,'in')"/>
  <use id="zoomminus" xlink:href="#zoomMin" x="42" y="9" onmousedown="handleZoom(evt,'out')"/>
  <use id="reset" xlink:href="#resetDef" x="30" y="36" onmousedown="handleReset()"/>
   <use id="arrowup" xlink:href="#arrowUp" x="0" y="0" onmousedown="handlePan(0,-1)"/>
  <use id="arrowright" xlink:href="#arrowRight" x="0" y="0" onmousedown="handlePan(1,0)"/>
  <use id="arrowdown" xlink:href="#arrowDown" x="0" y="0" onmousedown="handlePan(0,1)"/>
  <use id="arrowleft" xlink:href="#arrowLeft" x="0" y="0" onmousedown="handlePan(-1,0)"/>
</g>
<svg viewBox="0 0 15 15" width="100%" height="30px" preserveAspectRatio="xMaxYMin meet">
 <g id="arrow_out" transform="scale(0.3 0.3)">
  <a xlink:href="lua_8h_aba53e83eb1fff94b5ed96203bb52d8ae_icgraph_org.svg" target="_base">
   <rect id="button" ry="5" rx="5" y="6" x="6" height="38" width="38"
        fill="#f2f5e9" fill-opacity="0.5" stroke="#606060" stroke-width="1.0"/>
   <path id="arrow"
     d="M 11.500037,31.436501 C 11.940474,20.09759 22.043105,11.32322 32.158766,21.979434 L 37.068811,17.246167 C 37.068811,17.246167 37.088388,32 37.088388,32 L 22.160133,31.978069 C 22.160133,31.978069 26.997745,27.140456 26.997745,27.140456 C 18.528582,18.264221 13.291696,25.230495 11.500037,31.436501 z"
     style="fill:#404040;"/>
  </a>
 </g>
</svg>

<style type='text/css'>
<![CDATA[
[data-mouse-over-selected='false'] { opacity: 0.7; }
[data-mouse-over-selected='true']  { opacity: 1.0; }
]]>
</style>
<script type="application/ecmascript"><![CDATA[
document.addEventListener('DOMContentLoaded', (event) => {
  highlightEdges();
  highlightAdjacentNodes();
});
]]></script>
</svg>
