<?xml version="1.0" encoding="UTF-8" standalone="no"?>
<!DOCTYPE svg PUBLIC "-//W3C//DTD SVG 1.1//EN"
 "http://www.w3.org/Graphics/SVG/1.1/DTD/svg11.dtd">
<!-- Generated by graphviz version 13.1.0 (20250701.0955)
 -->
<!-- Title: get_prompt Pages: 1 -->
<svg width="574pt" height="46pt"
 viewBox="0.00 0.00 574.00 46.00" xmlns="http://www.w3.org/2000/svg" xmlns:xlink="http://www.w3.org/1999/xlink">
<g id="graph0" class="graph" transform="scale(1 1) rotate(0) translate(4 42.25)">
<title>get_prompt</title>
<!-- Node1 -->
<g id="Node000001" class="node">
<title>Node1</title>
<g id="a_Node000001"><a xlink:title=" ">
<polygon fill="#999999" stroke="#666666" points="565.75,-38.25 501,-38.25 501,-19 565.75,-19 565.75,-38.25"/>
<text xml:space="preserve" text-anchor="middle" x="533.38" y="-24.75" font-family="Helvetica,sans-Serif" font-size="10.00">get_prompt</text>
</a>
</g>
</g>
<!-- Node2 -->
<g id="Node000002" class="node">
<title>Node2</title>
<g id="a_Node000002"><a xlink:href="lua_8c.html#a83a7cb21b34095ca93f2a2a863f58fda" target="_top" xlink:title=" ">
<polygon fill="white" stroke="#666666" points="465,-38.25 413,-38.25 413,-19 465,-19 465,-38.25"/>
<text xml:space="preserve" text-anchor="middle" x="439" y="-24.75" font-family="Helvetica,sans-Serif" font-size="10.00">pushline</text>
</a>
</g>
</g>
<!-- Node1&#45;&gt;Node2 -->
<g id="edge1_Node000001_Node000002" class="edge">
<title>Node1&#45;&gt;Node2</title>
<g id="a_edge1_Node000001_Node000002"><a xlink:title=" ">
<path fill="none" stroke="#63b8ff" d="M489.25,-28.62C481.1,-28.62 472.82,-28.62 465.44,-28.62"/>
<polygon fill="#63b8ff" stroke="#63b8ff" points="489.07,-32.13 499.07,-28.63 489.07,-25.13 489.07,-32.13"/>
</a>
</g>
</g>
<!-- Node3 -->
<g id="Node000003" class="node">
<title>Node3</title>
<g id="a_Node000003"><a xlink:href="lua_8c.html#ad7e840f79b193c164616ed9748e68ec6" target="_top" xlink:title=" ">
<polygon fill="white" stroke="#666666" points="289,-38.25 240,-38.25 240,-19 289,-19 289,-38.25"/>
<text xml:space="preserve" text-anchor="middle" x="264.5" y="-24.75" font-family="Helvetica,sans-Serif" font-size="10.00">loadline</text>
</a>
</g>
</g>
<!-- Node2&#45;&gt;Node3 -->
<g id="edge2_Node000002_Node000003" class="edge">
<title>Node2&#45;&gt;Node3</title>
<g id="a_edge2_Node000002_Node000003"><a xlink:title=" ">
<path fill="none" stroke="#63b8ff" d="M401.29,-28.62C367.5,-28.62 318.36,-28.62 289.39,-28.62"/>
<polygon fill="#63b8ff" stroke="#63b8ff" points="401.03,-32.13 411.03,-28.63 401.03,-25.13 401.03,-32.13"/>
</a>
</g>
</g>
<!-- Node7 -->
<g id="Node000007" class="node">
<title>Node7</title>
<g id="a_Node000007"><a xlink:href="lua_8c.html#affef5a04b31963c2c3f5028518777e12" target="_top" xlink:title=" ">
<polygon fill="white" stroke="#666666" points="377,-19.25 325,-19.25 325,0 377,0 377,-19.25"/>
<text xml:space="preserve" text-anchor="middle" x="351" y="-5.75" font-family="Helvetica,sans-Serif" font-size="10.00">multiline</text>
</a>
</g>
</g>
<!-- Node2&#45;&gt;Node7 -->
<g id="edge6_Node000002_Node000007" class="edge">
<title>Node2&#45;&gt;Node7</title>
<g id="a_edge6_Node000002_Node000007"><a xlink:title=" ">
<path fill="none" stroke="#63b8ff" d="M401.54,-20.57C393.43,-18.78 385.01,-16.92 377.45,-15.25"/>
<polygon fill="#63b8ff" stroke="#63b8ff" points="400.66,-23.96 411.18,-22.7 402.17,-17.13 400.66,-23.96"/>
</a>
</g>
</g>
<!-- Node4 -->
<g id="Node000004" class="node">
<title>Node4</title>
<g id="a_Node000004"><a xlink:href="lua_8c.html#a946f2675cba972bd3580d9046abf2b6b" target="_top" xlink:title=" ">
<polygon fill="white" stroke="#666666" points="204,-38.25 151.25,-38.25 151.25,-19 204,-19 204,-38.25"/>
<text xml:space="preserve" text-anchor="middle" x="177.62" y="-24.75" font-family="Helvetica,sans-Serif" font-size="10.00">doREPL</text>
</a>
</g>
</g>
<!-- Node3&#45;&gt;Node4 -->
<g id="edge3_Node000003_Node000004" class="edge">
<title>Node3&#45;&gt;Node4</title>
<g id="a_edge3_Node000003_Node000004"><a xlink:title=" ">
<path fill="none" stroke="#63b8ff" d="M228.4,-28.62C220.3,-28.62 211.83,-28.62 204.22,-28.62"/>
<polygon fill="#63b8ff" stroke="#63b8ff" points="228.34,-32.13 238.34,-28.63 228.34,-25.13 228.34,-32.13"/>
</a>
</g>
</g>
<!-- Node5 -->
<g id="Node000005" class="node">
<title>Node5</title>
<g id="a_Node000005"><a xlink:href="lua_8c.html#aa0f8bc082ef913cb0a4df437bf5f5019" target="_top" xlink:title=" ">
<polygon fill="white" stroke="#666666" points="115.25,-38.25 73,-38.25 73,-19 115.25,-19 115.25,-38.25"/>
<text xml:space="preserve" text-anchor="middle" x="94.12" y="-24.75" font-family="Helvetica,sans-Serif" font-size="10.00">pmain</text>
</a>
</g>
</g>
<!-- Node4&#45;&gt;Node5 -->
<g id="edge4_Node000004_Node000005" class="edge">
<title>Node4&#45;&gt;Node5</title>
<g id="a_edge4_Node000004_Node000005"><a xlink:title=" ">
<path fill="none" stroke="#63b8ff" d="M139.49,-28.62C131.27,-28.62 122.85,-28.62 115.59,-28.62"/>
<polygon fill="#63b8ff" stroke="#63b8ff" points="139.32,-32.13 149.32,-28.63 139.32,-25.13 139.32,-32.13"/>
</a>
</g>
</g>
<!-- Node6 -->
<g id="Node000006" class="node">
<title>Node6</title>
<g id="a_Node000006"><a xlink:href="lua_8c.html#a3c04138a5bfe5d72780bb7e82a18e627" target="_top" xlink:title=" ">
<polygon fill="white" stroke="#666666" points="37,-38.25 0,-38.25 0,-19 37,-19 37,-38.25"/>
<text xml:space="preserve" text-anchor="middle" x="18.5" y="-24.75" font-family="Helvetica,sans-Serif" font-size="10.00">main</text>
</a>
</g>
</g>
<!-- Node5&#45;&gt;Node6 -->
<g id="edge5_Node000005_Node000006" class="edge">
<title>Node5&#45;&gt;Node6</title>
<g id="a_edge5_Node000005_Node000006"><a xlink:title=" ">
<path fill="none" stroke="#63b8ff" d="M61.12,-28.62C52.99,-28.62 44.54,-28.62 37.4,-28.62"/>
<polygon fill="#63b8ff" stroke="#63b8ff" points="61.1,-32.13 71.1,-28.63 61.1,-25.13 61.1,-32.13"/>
</a>
</g>
</g>
<!-- Node7&#45;&gt;Node3 -->
<g id="edge7_Node000007_Node000003" class="edge">
<title>Node7&#45;&gt;Node3</title>
<g id="a_edge7_Node000007_Node000003"><a xlink:title=" ">
<path fill="none" stroke="#63b8ff" d="M313.45,-17.84C305.3,-19.67 296.87,-21.57 289.39,-23.25"/>
<polygon fill="#63b8ff" stroke="#63b8ff" points="314.18,-21.27 323.17,-15.66 312.65,-14.44 314.18,-21.27"/>
</a>
</g>
</g>
</g>
</svg>
