<?xml version="1.0" encoding="UTF-8" standalone="no"?>
<!DOCTYPE svg PUBLIC "-//W3C//DTD SVG 1.1//EN"
 "http://www.w3.org/Graphics/SVG/1.1/DTD/svg11.dtd">
<!-- Generated by graphviz version 13.1.0 (20250701.0955)
 -->
<!-- Title: lua_pcallk Pages: 1 -->
<svg width="170pt" height="64pt"
 viewBox="0.00 0.00 170.00 64.00" xmlns="http://www.w3.org/2000/svg" xmlns:xlink="http://www.w3.org/1999/xlink">
<g id="graph0" class="graph" transform="scale(1 1) rotate(0) translate(4 60.25)">
<title>lua_pcallk</title>
<!-- Node1 -->
<g id="Node000001" class="node">
<title>Node1</title>
<g id="a_Node000001"><a xlink:title=" ">
<polygon fill="#999999" stroke="#666666" points="161.75,-37.25 102.25,-37.25 102.25,-18 161.75,-18 161.75,-37.25"/>
<text xml:space="preserve" text-anchor="middle" x="132" y="-23.75" font-family="Helvetica,sans-Serif" font-size="10.00">lua_pcallk</text>
</a>
</g>
</g>
<!-- Node2 -->
<g id="Node000002" class="node">
<title>Node2</title>
<g id="a_Node000002"><a xlink:href="lbaselib_8c.html#a1fb2725eed679431d070b2e9e7abc223" target="_top" xlink:title=" ">
<polygon fill="white" stroke="#666666" points="63.62,-56.25 2.63,-56.25 2.63,-37 63.62,-37 63.62,-56.25"/>
<text xml:space="preserve" text-anchor="middle" x="33.12" y="-42.75" font-family="Helvetica,sans-Serif" font-size="10.00">luaB_pcall</text>
</a>
</g>
</g>
<!-- Node1&#45;&gt;Node2 -->
<g id="edge1_Node000001_Node000002" class="edge">
<title>Node1&#45;&gt;Node2</title>
<g id="a_edge1_Node000001_Node000002"><a xlink:title=" ">
<path fill="none" stroke="#63b8ff" d="M90.81,-35.51C81.78,-37.28 72.35,-39.13 63.84,-40.8"/>
<polygon fill="#63b8ff" stroke="#63b8ff" points="91.31,-38.98 100.45,-33.62 89.96,-32.11 91.31,-38.98"/>
</a>
</g>
</g>
<!-- Node3 -->
<g id="Node000003" class="node">
<title>Node3</title>
<g id="a_Node000003"><a xlink:href="lbaselib_8c.html#a5fbb0094fa1a56f0a4c2547f1ec4c5ab" target="_top" xlink:title=" ">
<polygon fill="white" stroke="#666666" points="66.25,-19.25 0,-19.25 0,0 66.25,0 66.25,-19.25"/>
<text xml:space="preserve" text-anchor="middle" x="33.12" y="-5.75" font-family="Helvetica,sans-Serif" font-size="10.00">luaB_xpcall</text>
</a>
</g>
</g>
<!-- Node1&#45;&gt;Node3 -->
<g id="edge2_Node000001_Node000003" class="edge">
<title>Node1&#45;&gt;Node3</title>
<g id="a_edge2_Node000001_Node000003"><a xlink:title=" ">
<path fill="none" stroke="#63b8ff" d="M90.82,-20.16C82.73,-18.66 74.34,-17.1 66.56,-15.65"/>
<polygon fill="#63b8ff" stroke="#63b8ff" points="89.98,-23.56 100.45,-21.95 91.25,-16.68 89.98,-23.56"/>
</a>
</g>
</g>
</g>
</svg>
