<?xml version="1.0" encoding="UTF-8" standalone="no"?>
<!DOCTYPE svg PUBLIC "-//W3C//DTD SVG 1.1//EN"
 "http://www.w3.org/Graphics/SVG/1.1/DTD/svg11.dtd">
<!-- Generated by graphviz version 13.1.0 (20250701.0955)
 -->
<!-- Title: report Pages: 1 -->
<svg width="510pt" height="206pt"
 viewBox="0.00 0.00 510.00 206.00" xmlns="http://www.w3.org/2000/svg" xmlns:xlink="http://www.w3.org/1999/xlink">
<g id="graph0" class="graph" transform="scale(1 1) rotate(0) translate(4 201.62)">
<title>report</title>
<!-- Node1 -->
<g id="Node000001" class="node">
<title>Node1</title>
<g id="a_Node000001"><a xlink:title=" ">
<polygon fill="#999999" stroke="#666666" points="501.75,-85.62 461,-85.62 461,-66.38 501.75,-66.38 501.75,-85.62"/>
<text xml:space="preserve" text-anchor="middle" x="481.38" y="-72.12" font-family="Helvetica,sans-Serif" font-size="10.00">report</text>
</a>
</g>
</g>
<!-- Node2 -->
<g id="Node000002" class="node">
<title>Node2</title>
<g id="a_Node000002"><a xlink:href="lua_8c.html#a84103428a06a64ccca2c23a8045f3291" target="_top" xlink:title=" ">
<polygon fill="white" stroke="#666666" points="425,-123.62 372.25,-123.62 372.25,-104.38 425,-104.38 425,-123.62"/>
<text xml:space="preserve" text-anchor="middle" x="398.62" y="-110.12" font-family="Helvetica,sans-Serif" font-size="10.00">dochunk</text>
</a>
</g>
</g>
<!-- Node1&#45;&gt;Node2 -->
<g id="edge1_Node000001_Node000002" class="edge">
<title>Node1&#45;&gt;Node2</title>
<g id="a_edge1_Node000001_Node000002"><a xlink:title=" ">
<path fill="none" stroke="#63b8ff" d="M450.63,-90C440.8,-94.63 430.05,-99.68 420.98,-103.95"/>
<polygon fill="#63b8ff" stroke="#63b8ff" points="451.9,-93.27 459.46,-85.84 448.92,-86.93 451.9,-93.27"/>
</a>
</g>
</g>
<!-- Node6 -->
<g id="Node000006" class="node">
<title>Node6</title>
<g id="a_Node000006"><a xlink:href="lua_8c.html#a3c04138a5bfe5d72780bb7e82a18e627" target="_top" xlink:title=" ">
<polygon fill="white" stroke="#666666" points="37,-47.62 0,-47.62 0,-28.38 37,-28.38 37,-47.62"/>
<text xml:space="preserve" text-anchor="middle" x="18.5" y="-34.12" font-family="Helvetica,sans-Serif" font-size="10.00">main</text>
</a>
</g>
</g>
<!-- Node1&#45;&gt;Node6 -->
<g id="edge17_Node000001_Node000006" class="edge">
<title>Node1&#45;&gt;Node6</title>
<g id="a_edge17_Node000001_Node000006"><a xlink:title=" ">
<path fill="none" stroke="#63b8ff" d="M458.04,-59.67C425.22,-37.34 361.24,0 300.38,0 300.38,0 300.38,0 187.88,0 131.84,0 67.82,-20.28 37.39,-31.21"/>
<polygon fill="#63b8ff" stroke="#63b8ff" points="455.74,-62.34 465.95,-65.2 459.75,-56.6 455.74,-62.34"/>
</a>
</g>
</g>
<!-- Node9 -->
<g id="Node000009" class="node">
<title>Node9</title>
<g id="a_Node000009"><a xlink:href="lua_8c.html#ac62266d27f3bed2d1e0a7c9393b95c22" target="_top" xlink:title=" ">
<polygon fill="white" stroke="#666666" points="425,-85.62 372.25,-85.62 372.25,-66.38 425,-66.38 425,-85.62"/>
<text xml:space="preserve" text-anchor="middle" x="398.62" y="-72.12" font-family="Helvetica,sans-Serif" font-size="10.00">dolibrary</text>
</a>
</g>
</g>
<!-- Node1&#45;&gt;Node9 -->
<g id="edge11_Node000001_Node000009" class="edge">
<title>Node1&#45;&gt;Node9</title>
<g id="a_edge11_Node000001_Node000009"><a xlink:title=" ">
<path fill="none" stroke="#63b8ff" d="M449.37,-76C441.45,-76 433.03,-76 425.4,-76"/>
<polygon fill="#63b8ff" stroke="#63b8ff" points="449.31,-79.5 459.31,-76 449.31,-72.5 449.31,-79.5"/>
</a>
</g>
</g>
<!-- Node10 -->
<g id="Node000010" class="node">
<title>Node10</title>
<g id="a_Node000010"><a xlink:href="lua_8c.html#a946f2675cba972bd3580d9046abf2b6b" target="_top" xlink:title=" ">
<polygon fill="white" stroke="#666666" points="215.25,-48.62 162.5,-48.62 162.5,-29.38 215.25,-29.38 215.25,-48.62"/>
<text xml:space="preserve" text-anchor="middle" x="188.88" y="-35.12" font-family="Helvetica,sans-Serif" font-size="10.00">doREPL</text>
</a>
</g>
</g>
<!-- Node1&#45;&gt;Node10 -->
<g id="edge13_Node000001_Node000010" class="edge">
<title>Node1&#45;&gt;Node10</title>
<g id="a_edge13_Node000001_Node000010"><a xlink:title=" ">
<path fill="none" stroke="#63b8ff" d="M449.98,-64.02C441.97,-61.3 433.25,-58.7 425,-57 350.02,-41.53 259.12,-39.06 215.57,-38.85"/>
<polygon fill="#63b8ff" stroke="#63b8ff" points="448.71,-67.28 459.3,-67.38 451.08,-60.7 448.71,-67.28"/>
</a>
</g>
</g>
<!-- Node11 -->
<g id="Node000011" class="node">
<title>Node11</title>
<g id="a_Node000011"><a xlink:href="lua_8c.html#a5a944babaacde1035f1aa8b4156cc06a" target="_top" xlink:title=" ">
<polygon fill="white" stroke="#666666" points="336.25,-197.62 262.5,-197.62 262.5,-178.38 336.25,-178.38 336.25,-197.62"/>
<text xml:space="preserve" text-anchor="middle" x="299.38" y="-184.12" font-family="Helvetica,sans-Serif" font-size="10.00">handle_script</text>
</a>
</g>
</g>
<!-- Node1&#45;&gt;Node11 -->
<g id="edge15_Node000001_Node000011" class="edge">
<title>Node1&#45;&gt;Node11</title>
<g id="a_edge15_Node000001_Node000011"><a xlink:title=" ">
<path fill="none" stroke="#63b8ff" d="M465.37,-94.84C455.01,-106.93 440.37,-122.31 425,-133 395.88,-153.26 358.1,-168.66 331.8,-177.94"/>
<polygon fill="#63b8ff" stroke="#63b8ff" points="468.04,-97.1 471.73,-87.17 462.65,-92.64 468.04,-97.1"/>
</a>
</g>
</g>
<!-- Node3 -->
<g id="Node000003" class="node">
<title>Node3</title>
<g id="a_Node000003"><a xlink:href="lua_8c.html#a9708ea7bd36bee3c2d952cdd787246cc" target="_top" xlink:title=" ">
<polygon fill="white" stroke="#666666" points="319,-160.62 279.75,-160.62 279.75,-141.38 319,-141.38 319,-160.62"/>
<text xml:space="preserve" text-anchor="middle" x="299.38" y="-147.12" font-family="Helvetica,sans-Serif" font-size="10.00">dofile</text>
</a>
</g>
</g>
<!-- Node2&#45;&gt;Node3 -->
<g id="edge2_Node000002_Node000003" class="edge">
<title>Node2&#45;&gt;Node3</title>
<g id="a_edge2_Node000002_Node000003"><a xlink:title=" ">
<path fill="none" stroke="#63b8ff" d="M361.26,-127.83C346.96,-133.28 331.13,-139.3 319.2,-143.84"/>
<polygon fill="#63b8ff" stroke="#63b8ff" points="362.3,-131.18 370.4,-124.36 359.81,-124.64 362.3,-131.18"/>
</a>
</g>
</g>
<!-- Node7 -->
<g id="Node000007" class="node">
<title>Node7</title>
<g id="a_Node000007"><a xlink:href="lua_8c.html#ae8312476ab6a3db74a9a5b1a981d023f" target="_top" xlink:title=" ">
<polygon fill="white" stroke="#666666" points="324.62,-123.62 274.12,-123.62 274.12,-104.38 324.62,-104.38 324.62,-123.62"/>
<text xml:space="preserve" text-anchor="middle" x="299.38" y="-110.12" font-family="Helvetica,sans-Serif" font-size="10.00">dostring</text>
</a>
</g>
</g>
<!-- Node2&#45;&gt;Node7 -->
<g id="edge7_Node000002_Node000007" class="edge">
<title>Node2&#45;&gt;Node7</title>
<g id="a_edge7_Node000002_Node000007"><a xlink:title=" ">
<path fill="none" stroke="#63b8ff" d="M360.39,-114C348.52,-114 335.69,-114 324.96,-114"/>
<polygon fill="#63b8ff" stroke="#63b8ff" points="360.31,-117.5 370.31,-114 360.31,-110.5 360.31,-117.5"/>
</a>
</g>
</g>
<!-- Node4 -->
<g id="Node000004" class="node">
<title>Node4</title>
<g id="a_Node000004"><a xlink:href="lua_8c.html#a5d9d02779b2853fbef2aa54e2f8e017e" target="_top" xlink:title=" ">
<polygon fill="white" stroke="#666666" points="226.5,-122.62 151.25,-122.62 151.25,-103.38 226.5,-103.38 226.5,-122.62"/>
<text xml:space="preserve" text-anchor="middle" x="188.88" y="-109.12" font-family="Helvetica,sans-Serif" font-size="10.00">handle_luainit</text>
</a>
</g>
</g>
<!-- Node3&#45;&gt;Node4 -->
<g id="edge3_Node000003_Node000004" class="edge">
<title>Node3&#45;&gt;Node4</title>
<g id="a_edge3_Node000003_Node000004"><a xlink:title=" ">
<path fill="none" stroke="#63b8ff" d="M268.85,-140.66C253.27,-135.2 234.23,-128.54 218.76,-123.11"/>
<polygon fill="#63b8ff" stroke="#63b8ff" points="267.45,-143.88 278.05,-143.88 269.77,-137.27 267.45,-143.88"/>
</a>
</g>
</g>
<!-- Node5 -->
<g id="Node000005" class="node">
<title>Node5</title>
<g id="a_Node000005"><a xlink:href="lua_8c.html#aa0f8bc082ef913cb0a4df437bf5f5019" target="_top" xlink:title=" ">
<polygon fill="white" stroke="#666666" points="115.25,-103.62 73,-103.62 73,-84.38 115.25,-84.38 115.25,-103.62"/>
<text xml:space="preserve" text-anchor="middle" x="94.12" y="-90.12" font-family="Helvetica,sans-Serif" font-size="10.00">pmain</text>
</a>
</g>
</g>
<!-- Node3&#45;&gt;Node5 -->
<g id="edge6_Node000003_Node000005" class="edge">
<title>Node3&#45;&gt;Node5</title>
<g id="a_edge6_Node000003_Node000005"><a xlink:title=" ">
<path fill="none" stroke="#63b8ff" d="M268.47,-151.15C238.03,-150.39 189.95,-146.65 151.25,-132 134.08,-125.5 117,-112.81 106.27,-103.89"/>
<polygon fill="#63b8ff" stroke="#63b8ff" points="268.03,-154.65 278.08,-151.29 268.13,-147.65 268.03,-154.65"/>
</a>
</g>
</g>
<!-- Node4&#45;&gt;Node5 -->
<g id="edge4_Node000004_Node000005" class="edge">
<title>Node4&#45;&gt;Node5</title>
<g id="a_edge4_Node000004_Node000005"><a xlink:title=" ">
<path fill="none" stroke="#63b8ff" d="M139.81,-103.15C131.3,-101.41 122.86,-99.68 115.65,-98.2"/>
<polygon fill="#63b8ff" stroke="#63b8ff" points="138.97,-106.55 149.47,-105.13 140.37,-99.7 138.97,-106.55"/>
</a>
</g>
</g>
<!-- Node5&#45;&gt;Node6 -->
<g id="edge5_Node000005_Node000006" class="edge">
<title>Node5&#45;&gt;Node6</title>
<g id="a_edge5_Node000005_Node000006"><a xlink:title=" ">
<path fill="none" stroke="#63b8ff" d="M71.02,-77.19C58.47,-67.64 43.19,-56.02 32.55,-47.93"/>
<polygon fill="#63b8ff" stroke="#63b8ff" points="68.68,-79.8 78.76,-83.07 72.92,-74.23 68.68,-79.8"/>
</a>
</g>
</g>
<!-- Node7&#45;&gt;Node4 -->
<g id="edge8_Node000007_Node000004" class="edge">
<title>Node7&#45;&gt;Node4</title>
<g id="a_edge8_Node000007_Node000004"><a xlink:title=" ">
<path fill="none" stroke="#63b8ff" d="M262.38,-113.67C250.93,-113.56 238.27,-113.45 226.76,-113.34"/>
<polygon fill="#63b8ff" stroke="#63b8ff" points="262.21,-117.17 272.24,-113.76 262.27,-110.17 262.21,-117.17"/>
</a>
</g>
</g>
<!-- Node8 -->
<g id="Node000008" class="node">
<title>Node8</title>
<g id="a_Node000008"><a xlink:href="lua_8c.html#a95a376c847572def6b3f78d33a7bc881" target="_top" xlink:title=" ">
<polygon fill="white" stroke="#666666" points="213,-85.62 164.75,-85.62 164.75,-66.38 213,-66.38 213,-85.62"/>
<text xml:space="preserve" text-anchor="middle" x="188.88" y="-72.12" font-family="Helvetica,sans-Serif" font-size="10.00">runargs</text>
</a>
</g>
</g>
<!-- Node7&#45;&gt;Node8 -->
<g id="edge9_Node000007_Node000008" class="edge">
<title>Node7&#45;&gt;Node8</title>
<g id="a_edge9_Node000007_Node000008"><a xlink:title=" ">
<path fill="none" stroke="#63b8ff" d="M262.97,-101.6C246.67,-95.89 227.78,-89.27 213.28,-84.2"/>
<polygon fill="#63b8ff" stroke="#63b8ff" points="261.73,-104.87 272.33,-104.88 264.05,-98.27 261.73,-104.87"/>
</a>
</g>
</g>
<!-- Node8&#45;&gt;Node5 -->
<g id="edge10_Node000008_Node000005" class="edge">
<title>Node8&#45;&gt;Node5</title>
<g id="a_edge10_Node000008_Node000005"><a xlink:title=" ">
<path fill="none" stroke="#63b8ff" d="M153.31,-82.71C140.65,-85.16 126.73,-87.87 115.68,-90.01"/>
<polygon fill="#63b8ff" stroke="#63b8ff" points="153.83,-86.17 162.98,-80.83 152.5,-79.3 153.83,-86.17"/>
</a>
</g>
</g>
<!-- Node9&#45;&gt;Node8 -->
<g id="edge12_Node000009_Node000008" class="edge">
<title>Node9&#45;&gt;Node8</title>
<g id="a_edge12_Node000009_Node000008"><a xlink:title=" ">
<path fill="none" stroke="#63b8ff" d="M360.88,-76C318.25,-76 249.25,-76 213.32,-76"/>
<polygon fill="#63b8ff" stroke="#63b8ff" points="360.64,-79.5 370.64,-76 360.64,-72.5 360.64,-79.5"/>
</a>
</g>
</g>
<!-- Node10&#45;&gt;Node5 -->
<g id="edge14_Node000010_Node000005" class="edge">
<title>Node10&#45;&gt;Node5</title>
<g id="a_edge14_Node000010_Node000005"><a xlink:title=" ">
<path fill="none" stroke="#63b8ff" d="M156.34,-54.18C154.6,-55.11 152.9,-56.06 151.25,-57 136.46,-65.46 120.29,-76.31 109.12,-84.06"/>
<polygon fill="#63b8ff" stroke="#63b8ff" points="157.71,-57.41 164.99,-49.72 154.5,-51.19 157.71,-57.41"/>
</a>
</g>
</g>
<!-- Node11&#45;&gt;Node5 -->
<g id="edge16_Node000011_Node000005" class="edge">
<title>Node11&#45;&gt;Node5</title>
<g id="a_edge16_Node000011_Node000005"><a xlink:title=" ">
<path fill="none" stroke="#63b8ff" d="M250.94,-184.18C220.76,-180.08 181.76,-171.59 151.25,-154 129.25,-141.32 110.71,-117.27 101.45,-103.78"/>
<polygon fill="#63b8ff" stroke="#63b8ff" points="250.19,-187.61 260.54,-185.36 251.04,-180.66 250.19,-187.61"/>
</a>
</g>
</g>
</g>
</svg>
