<?xml version="1.0" encoding="UTF-8" standalone="no"?>
<!DOCTYPE svg PUBLIC "-//W3C//DTD SVG 1.1//EN"
 "http://www.w3.org/Graphics/SVG/1.1/DTD/svg11.dtd">
<!-- Generated by graphviz version 13.1.0 (20250701.0955)
 -->
<!-- Title: multiline Pages: 1 -->
<svg width="385pt" height="27pt"
 viewBox="0.00 0.00 385.00 27.00" xmlns="http://www.w3.org/2000/svg" xmlns:xlink="http://www.w3.org/1999/xlink">
<g id="graph0" class="graph" transform="scale(1 1) rotate(0) translate(4 23.25)">
<title>multiline</title>
<!-- Node1 -->
<g id="Node000001" class="node">
<title>Node1</title>
<g id="a_Node000001"><a xlink:title=" ">
<polygon fill="#999999" stroke="#666666" points="377,-19.25 325,-19.25 325,0 377,0 377,-19.25"/>
<text xml:space="preserve" text-anchor="middle" x="351" y="-5.75" font-family="Helvetica,sans-Serif" font-size="10.00">multiline</text>
</a>
</g>
</g>
<!-- Node2 -->
<g id="Node000002" class="node">
<title>Node2</title>
<g id="a_Node000002"><a xlink:href="lua_8c.html#ad7e840f79b193c164616ed9748e68ec6" target="_top" xlink:title=" ">
<polygon fill="white" stroke="#666666" points="289,-19.25 240,-19.25 240,0 289,0 289,-19.25"/>
<text xml:space="preserve" text-anchor="middle" x="264.5" y="-5.75" font-family="Helvetica,sans-Serif" font-size="10.00">loadline</text>
</a>
</g>
</g>
<!-- Node1&#45;&gt;Node2 -->
<g id="edge1_Node000001_Node000002" class="edge">
<title>Node1&#45;&gt;Node2</title>
<g id="a_edge1_Node000001_Node000002"><a xlink:title=" ">
<path fill="none" stroke="#63b8ff" d="M313.17,-9.62C305.11,-9.62 296.78,-9.62 289.39,-9.62"/>
<polygon fill="#63b8ff" stroke="#63b8ff" points="313.13,-13.13 323.13,-9.63 313.13,-6.13 313.13,-13.13"/>
</a>
</g>
</g>
<!-- Node3 -->
<g id="Node000003" class="node">
<title>Node3</title>
<g id="a_Node000003"><a xlink:href="lua_8c.html#a946f2675cba972bd3580d9046abf2b6b" target="_top" xlink:title=" ">
<polygon fill="white" stroke="#666666" points="204,-19.25 151.25,-19.25 151.25,0 204,0 204,-19.25"/>
<text xml:space="preserve" text-anchor="middle" x="177.62" y="-5.75" font-family="Helvetica,sans-Serif" font-size="10.00">doREPL</text>
</a>
</g>
</g>
<!-- Node2&#45;&gt;Node3 -->
<g id="edge2_Node000002_Node000003" class="edge">
<title>Node2&#45;&gt;Node3</title>
<g id="a_edge2_Node000002_Node000003"><a xlink:title=" ">
<path fill="none" stroke="#63b8ff" d="M228.4,-9.62C220.3,-9.62 211.83,-9.62 204.22,-9.62"/>
<polygon fill="#63b8ff" stroke="#63b8ff" points="228.34,-13.13 238.34,-9.63 228.34,-6.13 228.34,-13.13"/>
</a>
</g>
</g>
<!-- Node4 -->
<g id="Node000004" class="node">
<title>Node4</title>
<g id="a_Node000004"><a xlink:href="lua_8c.html#aa0f8bc082ef913cb0a4df437bf5f5019" target="_top" xlink:title=" ">
<polygon fill="white" stroke="#666666" points="115.25,-19.25 73,-19.25 73,0 115.25,0 115.25,-19.25"/>
<text xml:space="preserve" text-anchor="middle" x="94.12" y="-5.75" font-family="Helvetica,sans-Serif" font-size="10.00">pmain</text>
</a>
</g>
</g>
<!-- Node3&#45;&gt;Node4 -->
<g id="edge3_Node000003_Node000004" class="edge">
<title>Node3&#45;&gt;Node4</title>
<g id="a_edge3_Node000003_Node000004"><a xlink:title=" ">
<path fill="none" stroke="#63b8ff" d="M139.49,-9.62C131.27,-9.62 122.85,-9.62 115.59,-9.62"/>
<polygon fill="#63b8ff" stroke="#63b8ff" points="139.32,-13.13 149.32,-9.63 139.32,-6.13 139.32,-13.13"/>
</a>
</g>
</g>
<!-- Node5 -->
<g id="Node000005" class="node">
<title>Node5</title>
<g id="a_Node000005"><a xlink:href="lua_8c.html#a3c04138a5bfe5d72780bb7e82a18e627" target="_top" xlink:title=" ">
<polygon fill="white" stroke="#666666" points="37,-19.25 0,-19.25 0,0 37,0 37,-19.25"/>
<text xml:space="preserve" text-anchor="middle" x="18.5" y="-5.75" font-family="Helvetica,sans-Serif" font-size="10.00">main</text>
</a>
</g>
</g>
<!-- Node4&#45;&gt;Node5 -->
<g id="edge4_Node000004_Node000005" class="edge">
<title>Node4&#45;&gt;Node5</title>
<g id="a_edge4_Node000004_Node000005"><a xlink:title=" ">
<path fill="none" stroke="#63b8ff" d="M61.12,-9.62C52.99,-9.62 44.54,-9.62 37.4,-9.62"/>
<polygon fill="#63b8ff" stroke="#63b8ff" points="61.1,-13.13 71.1,-9.63 61.1,-6.13 61.1,-13.13"/>
</a>
</g>
</g>
</g>
</svg>
