<?xml version="1.0" encoding="UTF-8" standalone="no"?>
<!DOCTYPE svg PUBLIC "-//W3C//DTD SVG 1.1//EN"
 "http://www.w3.org/Graphics/SVG/1.1/DTD/svg11.dtd">
<!-- Generated by graphviz version 13.1.0 (20250701.0955)
 -->
<!-- Title: lua&#45;5.4.7/lua.c Pages: 1 -->
<svg width="468pt" height="248pt"
 viewBox="0.00 0.00 468.00 248.00" xmlns="http://www.w3.org/2000/svg" xmlns:xlink="http://www.w3.org/1999/xlink">
<g id="graph0" class="graph" transform="scale(1 1) rotate(0) translate(4 244.25)">
<title>lua&#45;5.4.7/lua.c</title>
<!-- Node1 -->
<g id="Node000001" class="node">
<title>Node1</title>
<g id="a_Node000001"><a xlink:title=" ">
<polygon fill="#999999" stroke="#666666" points="250,-240.25 172.5,-240.25 172.5,-221 250,-221 250,-240.25"/>
<text xml:space="preserve" text-anchor="middle" x="211.25" y="-226.75" font-family="Helvetica,sans-Serif" font-size="10.00">lua&#45;5.4.7/lua.c</text>
</a>
</g>
</g>
<!-- Node2 -->
<g id="Node000002" class="node">
<title>Node2</title>
<g id="a_Node000002"><a xlink:href="lprefix_8h.html" target="_top" xlink:title=" ">
<polygon fill="white" stroke="#666666" points="50.5,-185 0,-185 0,-165.75 50.5,-165.75 50.5,-185"/>
<text xml:space="preserve" text-anchor="middle" x="25.25" y="-171.5" font-family="Helvetica,sans-Serif" font-size="10.00">lprefix.h</text>
</a>
</g>
</g>
<!-- Node1&#45;&gt;Node2 -->
<g id="edge1_Node000001_Node000002" class="edge">
<title>Node1&#45;&gt;Node2</title>
<g id="a_edge1_Node000001_Node000002"><a xlink:title=" ">
<path fill="none" stroke="#63b8ff" d="M179.7,-220.59C147.11,-211.26 96.29,-196.71 61.93,-186.88"/>
<polygon fill="#63b8ff" stroke="#63b8ff" points="62.99,-183.54 52.41,-184.15 61.06,-190.27 62.99,-183.54"/>
</a>
</g>
</g>
<!-- Node3 -->
<g id="Node000003" class="node">
<title>Node3</title>
<g id="a_Node000003"><a xlink:title=" ">
<polygon fill="#e0e0e0" stroke="#999999" points="100.88,-129.75 55.62,-129.75 55.62,-110.5 100.88,-110.5 100.88,-129.75"/>
<text xml:space="preserve" text-anchor="middle" x="78.25" y="-116.25" font-family="Helvetica,sans-Serif" font-size="10.00">stdio.h</text>
</a>
</g>
</g>
<!-- Node1&#45;&gt;Node3 -->
<g id="edge2_Node000001_Node000003" class="edge">
<title>Node1&#45;&gt;Node3</title>
<g id="a_edge2_Node000001_Node000003"><a xlink:title=" ">
<path fill="none" stroke="#63b8ff" d="M172.21,-223.36C147.54,-217.46 116.74,-206.2 97.25,-185 86.34,-173.13 81.68,-155.26 79.69,-141.43"/>
<polygon fill="#63b8ff" stroke="#63b8ff" points="83.19,-141.26 78.68,-131.67 76.23,-141.98 83.19,-141.26"/>
</a>
</g>
</g>
<!-- Node4 -->
<g id="Node000004" class="node">
<title>Node4</title>
<g id="a_Node000004"><a xlink:title=" ">
<polygon fill="#e0e0e0" stroke="#999999" points="326,-185 278.5,-185 278.5,-165.75 326,-165.75 326,-185"/>
<text xml:space="preserve" text-anchor="middle" x="302.25" y="-171.5" font-family="Helvetica,sans-Serif" font-size="10.00">stdlib.h</text>
</a>
</g>
</g>
<!-- Node1&#45;&gt;Node4 -->
<g id="edge3_Node000001_Node000004" class="edge">
<title>Node1&#45;&gt;Node4</title>
<g id="a_edge3_Node000001_Node000004"><a xlink:title=" ">
<path fill="none" stroke="#63b8ff" d="M226.69,-220.59C240.41,-212.56 260.75,-200.66 276.87,-191.23"/>
<polygon fill="#63b8ff" stroke="#63b8ff" points="278.57,-194.29 285.43,-186.22 275.03,-188.25 278.57,-194.29"/>
</a>
</g>
</g>
<!-- Node5 -->
<g id="Node000005" class="node">
<title>Node5</title>
<g id="a_Node000005"><a xlink:title=" ">
<polygon fill="#e0e0e0" stroke="#999999" points="392.38,-185 344.12,-185 344.12,-165.75 392.38,-165.75 392.38,-185"/>
<text xml:space="preserve" text-anchor="middle" x="368.25" y="-171.5" font-family="Helvetica,sans-Serif" font-size="10.00">string.h</text>
</a>
</g>
</g>
<!-- Node1&#45;&gt;Node5 -->
<g id="edge4_Node000001_Node000005" class="edge">
<title>Node1&#45;&gt;Node5</title>
<g id="a_edge4_Node000001_Node000005"><a xlink:title=" ">
<path fill="none" stroke="#63b8ff" d="M237.88,-220.59C264.07,-211.71 304.18,-198.11 333,-188.33"/>
<polygon fill="#63b8ff" stroke="#63b8ff" points="334.04,-191.68 342.38,-185.15 331.79,-185.05 334.04,-191.68"/>
</a>
</g>
</g>
<!-- Node6 -->
<g id="Node000006" class="node">
<title>Node6</title>
<g id="a_Node000006"><a xlink:title=" ">
<polygon fill="#e0e0e0" stroke="#999999" points="460.12,-185 410.38,-185 410.38,-165.75 460.12,-165.75 460.12,-185"/>
<text xml:space="preserve" text-anchor="middle" x="435.25" y="-171.5" font-family="Helvetica,sans-Serif" font-size="10.00">signal.h</text>
</a>
</g>
</g>
<!-- Node1&#45;&gt;Node6 -->
<g id="edge5_Node000001_Node000006" class="edge">
<title>Node1&#45;&gt;Node6</title>
<g id="a_edge5_Node000001_Node000006"><a xlink:title=" ">
<path fill="none" stroke="#63b8ff" d="M250.23,-220.68C286.35,-212.35 341.84,-199.43 398.95,-185.53"/>
<polygon fill="#63b8ff" stroke="#63b8ff" points="399.66,-188.96 408.54,-183.19 398,-182.16 399.66,-188.96"/>
</a>
</g>
</g>
<!-- Node7 -->
<g id="Node000007" class="node">
<title>Node7</title>
<g id="a_Node000007"><a xlink:href="lua_8h.html" target="_top" xlink:title=" ">
<polygon fill="white" stroke="#666666" points="236.75,-129.75 199.75,-129.75 199.75,-110.5 236.75,-110.5 236.75,-129.75"/>
<text xml:space="preserve" text-anchor="middle" x="218.25" y="-116.25" font-family="Helvetica,sans-Serif" font-size="10.00">lua.h</text>
</a>
</g>
</g>
<!-- Node1&#45;&gt;Node7 -->
<g id="edge6_Node000001_Node000007" class="edge">
<title>Node1&#45;&gt;Node7</title>
<g id="a_edge6_Node000001_Node000007"><a xlink:title=" ">
<path fill="none" stroke="#63b8ff" d="M209.14,-220.92C206.44,-208.59 202.45,-185.38 205.25,-165.75 206.43,-157.47 208.79,-148.57 211.18,-140.92"/>
<polygon fill="#63b8ff" stroke="#63b8ff" points="214.43,-142.22 214.3,-131.62 207.8,-139.99 214.43,-142.22"/>
</a>
</g>
</g>
<!-- Node12 -->
<g id="Node000012" class="node">
<title>Node12</title>
<g id="a_Node000012"><a xlink:href="lauxlib_8h.html" target="_top" xlink:title=" ">
<polygon fill="white" stroke="#666666" points="158.25,-185 106.25,-185 106.25,-165.75 158.25,-165.75 158.25,-185"/>
<text xml:space="preserve" text-anchor="middle" x="132.25" y="-171.5" font-family="Helvetica,sans-Serif" font-size="10.00">lauxlib.h</text>
</a>
</g>
</g>
<!-- Node1&#45;&gt;Node12 -->
<g id="edge12_Node000001_Node000012" class="edge">
<title>Node1&#45;&gt;Node12</title>
<g id="a_edge12_Node000001_Node000012"><a xlink:title=" ">
<path fill="none" stroke="#63b8ff" d="M197.85,-220.59C186.16,-212.71 168.95,-201.11 155.09,-191.77"/>
<polygon fill="#63b8ff" stroke="#63b8ff" points="157.22,-188.99 146.97,-186.3 153.31,-194.79 157.22,-188.99"/>
</a>
</g>
</g>
<!-- Node13 -->
<g id="Node000013" class="node">
<title>Node13</title>
<g id="a_Node000013"><a xlink:href="lualib_8h.html" target="_top" xlink:title=" ">
<polygon fill="white" stroke="#666666" points="260.62,-185 213.88,-185 213.88,-165.75 260.62,-165.75 260.62,-185"/>
<text xml:space="preserve" text-anchor="middle" x="237.25" y="-171.5" font-family="Helvetica,sans-Serif" font-size="10.00">lualib.h</text>
</a>
</g>
</g>
<!-- Node1&#45;&gt;Node13 -->
<g id="edge17_Node000001_Node000013" class="edge">
<title>Node1&#45;&gt;Node13</title>
<g id="a_edge17_Node000001_Node000013"><a xlink:title=" ">
<path fill="none" stroke="#63b8ff" d="M215.54,-220.83C218.87,-214.01 223.61,-204.31 227.81,-195.7"/>
<polygon fill="#63b8ff" stroke="#63b8ff" points="230.96,-197.24 232.2,-186.72 224.67,-194.17 230.96,-197.24"/>
</a>
</g>
</g>
<!-- Node8 -->
<g id="Node000008" class="node">
<title>Node8</title>
<g id="a_Node000008"><a xlink:title=" ">
<polygon fill="#e0e0e0" stroke="#999999" points="246.88,-74.5 195.62,-74.5 195.62,-55.25 246.88,-55.25 246.88,-74.5"/>
<text xml:space="preserve" text-anchor="middle" x="221.25" y="-61" font-family="Helvetica,sans-Serif" font-size="10.00">stdarg.h</text>
</a>
</g>
</g>
<!-- Node7&#45;&gt;Node8 -->
<g id="edge7_Node000007_Node000008" class="edge">
<title>Node7&#45;&gt;Node8</title>
<g id="a_edge7_Node000007_Node000008"><a xlink:title=" ">
<path fill="none" stroke="#63b8ff" d="M218.75,-110.33C219.12,-103.74 219.64,-94.46 220.11,-86.07"/>
<polygon fill="#63b8ff" stroke="#63b8ff" points="223.59,-86.55 220.66,-76.37 216.6,-86.16 223.59,-86.55"/>
</a>
</g>
</g>
<!-- Node9 -->
<g id="Node000009" class="node">
<title>Node9</title>
<g id="a_Node000009"><a xlink:title=" ">
<polygon fill="#e0e0e0" stroke="#999999" points="198.88,-19.25 147.62,-19.25 147.62,0 198.88,0 198.88,-19.25"/>
<text xml:space="preserve" text-anchor="middle" x="173.25" y="-5.75" font-family="Helvetica,sans-Serif" font-size="10.00">stddef.h</text>
</a>
</g>
</g>
<!-- Node7&#45;&gt;Node9 -->
<g id="edge8_Node000007_Node000009" class="edge">
<title>Node7&#45;&gt;Node9</title>
<g id="a_edge8_Node000007_Node000009"><a xlink:title=" ">
<path fill="none" stroke="#63b8ff" d="M230.48,-110.02C245.57,-97.62 267.9,-74.74 256.25,-55.25 246.1,-38.27 227.03,-27.38 209.72,-20.61"/>
<polygon fill="#63b8ff" stroke="#63b8ff" points="211.29,-17.45 200.69,-17.41 208.95,-24.05 211.29,-17.45"/>
</a>
</g>
</g>
<!-- Node10 -->
<g id="Node000010" class="node">
<title>Node10</title>
<g id="a_Node000010"><a xlink:href="luaconf_8h.html" target="_top" xlink:title=" ">
<polygon fill="white" stroke="#666666" points="139.12,-74.5 83.38,-74.5 83.38,-55.25 139.12,-55.25 139.12,-74.5"/>
<text xml:space="preserve" text-anchor="middle" x="111.25" y="-61" font-family="Helvetica,sans-Serif" font-size="10.00">luaconf.h</text>
</a>
</g>
</g>
<!-- Node7&#45;&gt;Node10 -->
<g id="edge9_Node000007_Node000010" class="edge">
<title>Node7&#45;&gt;Node10</title>
<g id="a_edge9_Node000007_Node000010"><a xlink:title=" ">
<path fill="none" stroke="#63b8ff" d="M200.1,-110.09C183.57,-101.87 158.91,-89.59 139.75,-80.06"/>
<polygon fill="#63b8ff" stroke="#63b8ff" points="141.36,-76.95 130.85,-75.63 138.24,-83.22 141.36,-76.95"/>
</a>
</g>
</g>
<!-- Node10&#45;&gt;Node9 -->
<g id="edge11_Node000010_Node000009" class="edge">
<title>Node10&#45;&gt;Node9</title>
<g id="a_edge11_Node000010_Node000009"><a xlink:title=" ">
<path fill="none" stroke="#63b8ff" d="M121.77,-54.84C130.64,-47.22 143.56,-36.12 154.24,-26.95"/>
<polygon fill="#63b8ff" stroke="#63b8ff" points="156.43,-29.68 161.74,-20.51 151.87,-24.37 156.43,-29.68"/>
</a>
</g>
</g>
<!-- Node11 -->
<g id="Node000011" class="node">
<title>Node11</title>
<g id="a_Node000011"><a xlink:title=" ">
<polygon fill="#e0e0e0" stroke="#999999" points="130,-19.25 82.5,-19.25 82.5,0 130,0 130,-19.25"/>
<text xml:space="preserve" text-anchor="middle" x="106.25" y="-5.75" font-family="Helvetica,sans-Serif" font-size="10.00">limits.h</text>
</a>
</g>
</g>
<!-- Node10&#45;&gt;Node11 -->
<g id="edge10_Node000010_Node000011" class="edge">
<title>Node10&#45;&gt;Node11</title>
<g id="a_edge10_Node000010_Node000011"><a xlink:title=" ">
<path fill="none" stroke="#63b8ff" d="M110.42,-55.08C109.81,-48.49 108.93,-39.21 108.15,-30.82"/>
<polygon fill="#63b8ff" stroke="#63b8ff" points="111.65,-30.75 107.24,-21.12 104.69,-31.4 111.65,-30.75"/>
</a>
</g>
</g>
<!-- Node12&#45;&gt;Node3 -->
<g id="edge14_Node000012_Node000003" class="edge">
<title>Node12&#45;&gt;Node3</title>
<g id="a_edge14_Node000012_Node000003"><a xlink:title=" ">
<path fill="none" stroke="#63b8ff" d="M123.33,-165.58C115.8,-158.15 104.78,-147.29 95.52,-138.16"/>
<polygon fill="#63b8ff" stroke="#63b8ff" points="98.02,-135.7 88.44,-131.17 93.1,-140.69 98.02,-135.7"/>
</a>
</g>
</g>
<!-- Node12&#45;&gt;Node7 -->
<g id="edge16_Node000012_Node000007" class="edge">
<title>Node12&#45;&gt;Node7</title>
<g id="a_edge16_Node000012_Node000007"><a xlink:title=" ">
<path fill="none" stroke="#63b8ff" d="M146.84,-165.34C159.69,-157.39 178.66,-145.64 193.82,-136.25"/>
<polygon fill="#63b8ff" stroke="#63b8ff" points="195.64,-139.24 202.3,-131 191.96,-133.29 195.64,-139.24"/>
</a>
</g>
</g>
<!-- Node12&#45;&gt;Node9 -->
<g id="edge13_Node000012_Node000009" class="edge">
<title>Node12&#45;&gt;Node9</title>
<g id="a_edge13_Node000012_Node000009"><a xlink:title=" ">
<path fill="none" stroke="#63b8ff" d="M134.45,-165.57C140.82,-140.14 159.36,-66.1 168.31,-30.37"/>
<polygon fill="#63b8ff" stroke="#63b8ff" points="171.63,-31.49 170.67,-20.94 164.84,-29.79 171.63,-31.49"/>
</a>
</g>
</g>
<!-- Node12&#45;&gt;Node10 -->
<g id="edge15_Node000012_Node000010" class="edge">
<title>Node12&#45;&gt;Node10</title>
<g id="a_edge15_Node000012_Node000010"><a xlink:title=" ">
<path fill="none" stroke="#63b8ff" d="M130.53,-165.5C127.19,-148.25 119.76,-109.83 115.16,-86.06"/>
<polygon fill="#63b8ff" stroke="#63b8ff" points="118.62,-85.52 113.28,-76.36 111.74,-86.85 118.62,-85.52"/>
</a>
</g>
</g>
<!-- Node13&#45;&gt;Node7 -->
<g id="edge18_Node000013_Node000007" class="edge">
<title>Node13&#45;&gt;Node7</title>
<g id="a_edge18_Node000013_Node000007"><a xlink:title=" ">
<path fill="none" stroke="#63b8ff" d="M234.11,-165.58C231.71,-158.84 228.29,-149.27 225.25,-140.74"/>
<polygon fill="#63b8ff" stroke="#63b8ff" points="228.62,-139.78 221.96,-131.53 222.03,-142.13 228.62,-139.78"/>
</a>
</g>
</g>
</g>
</svg>
