<?xml version="1.0" encoding="UTF-8" standalone="no"?>
<!DOCTYPE svg PUBLIC "-//W3C//DTD SVG 1.1//EN"
 "http://www.w3.org/Graphics/SVG/1.1/DTD/svg11.dtd">
<!-- Generated by graphviz version 13.1.0 (20250701.0955)
 -->
<!-- Title: lua_rawseti Pages: 1 -->
<!--zoomable 220 -->

<svg id="main" version="1.1" xmlns="http://www.w3.org/2000/svg" xmlns:xlink="http://www.w3.org/1999/xlink" xml:space="preserve" onload="init(evt)">

<style type="text/css"><![CDATA[
.node, .edge {opacity: 0.7;}
.node.selected, .edge.selected {opacity: 1;}
.edge:hover path { stroke: red; }
.edge:hover polygon { stroke: red; fill: red; }
]]></style>

<defs>
  <circle id="rim" cx="0" cy="0" r="7"/>
  <circle id="rim2" cx="0" cy="0" r="3.5"/>
  <g id="zoomPlus">
    <use xlink:href="#rim" fill="#404040"><set attributeName="fill" to="#808080" begin="zoomplus.mouseover" end="zoomplus.mouseout"/></use>
    <path d="M-4,0h8M0,-4v8" fill="none" stroke="white" stroke-width="1.5" pointer-events="none"/>
  </g>
  <g id="zoomMin">
    <use xlink:href="#rim" fill="#404040"><set attributeName="fill" to="#808080" begin="zoomminus.mouseover" end="zoomminus.mouseout"/></use>
    <path d="M-4,0h8" fill="none" stroke="white" stroke-width="1.5" pointer-events="none"/>
  </g>
  <g id="arrowUp" transform="translate(30 24)">
    <use xlink:href="#rim"/>
    <path pointer-events="none" fill="none" stroke="white" stroke-width="1.5" d="M0,-3.0v7 M-2.5,-0.5L0,-3.0L2.5,-0.5"/>
  </g>
  <g id="arrowRight" transform="rotate(90) translate(36 -43)">
    <use xlink:href="#rim"/>
    <path pointer-events="none" fill="none" stroke="white" stroke-width="1.5" d="M0,-3.0v7 M-2.5,-0.5L0,-3.0L2.5,-0.5"/>
  </g>
  <g id="arrowDown" transform="rotate(180) translate(-30 -48)">
    <use xlink:href="#rim"/>
    <path pointer-events="none" fill="none" stroke="white" stroke-width="1.5" d="M0,-3.0v7 M-2.5,-0.5L0,-3.0L2.5,-0.5"/>
  </g>
  <g id="arrowLeft" transform="rotate(270) translate(-36 17)">
    <use xlink:href="#rim"/>
    <path pointer-events="none" fill="none" stroke="white" stroke-width="1.5" d="M0,-3.0v7 M-2.5,-0.5L0,-3.0L2.5,-0.5"/>
  </g>
  <g id="resetDef">
    <use xlink:href="#rim2" fill="#404040"><set attributeName="fill" to="#808080" begin="reset.mouseover" end="reset.mouseout"/></use>
  </g>
</defs>
<script type="application/ecmascript">
var viewWidth = 2097;
var viewHeight = 220;
var sectionId = 'dynsection-61';
</script>
<script type="application/ecmascript" xlink:href="svg.min.js"/>
<svg id="graph" class="graph">
<g id="viewport">
<title>lua_rawseti</title>
<!-- Node1 -->
<g id="Node000001" class="node">
<title>Node1</title>
<g id="a_Node000001"><a xlink:title=" ">
<polygon fill="#999999" stroke="#666666" points="2089,-93.25 2023.5,-93.25 2023.5,-74 2089,-74 2089,-93.25"/>
<text xml:space="preserve" text-anchor="middle" x="2056.25" y="-79.75" font-family="Helvetica,sans-Serif" font-size="10.00">lua_rawseti</text>
</a>
</g>
</g>
<!-- Node2 -->
<g id="Node000002" class="node">
<title>Node2</title>
<g id="a_Node000002"><a xlink:href="loadlib_8c.html#af46f12337af79b3083dc93990be408f2" target="_top" xlink:title=" ">
<polygon fill="white" stroke="#666666" points="1976.25,-169.25 1921.25,-169.25 1921.25,-150 1976.25,-150 1976.25,-169.25"/>
<text xml:space="preserve" text-anchor="middle" x="1948.75" y="-155.75" font-family="Helvetica,sans-Serif" font-size="10.00">addtoclib</text>
</a>
</g>
</g>
<!-- Node1&#45;&gt;Node2 -->
<g id="edge1_Node000001_Node000002" class="edge">
<title>Node1&#45;&gt;Node2</title>
<g id="a_edge1_Node000001_Node000002"><a xlink:title=" ">
<path fill="none" stroke="#63b8ff" d="M2034.24,-100.52C2021.04,-110.94 2003.53,-124.41 1987.5,-135.62 1980.63,-140.43 1972.83,-145.46 1966.12,-149.66"/>
<polygon fill="#63b8ff" stroke="#63b8ff" points="2036.18,-103.45 2041.82,-94.49 2031.82,-97.97 2036.18,-103.45"/>
</a>
</g>
</g>
<!-- Node7 -->
<g id="Node000007" class="node">
<title>Node7</title>
<g id="a_Node000007"><a xlink:href="loadlib_8c.html#a8fc66c8b852ee2960dc20797521d1d9e" target="_top" xlink:title=" ">
<polygon fill="white" stroke="#666666" points="1565.75,-169.25 1459,-169.25 1459,-150 1565.75,-150 1565.75,-169.25"/>
<text xml:space="preserve" text-anchor="middle" x="1512.38" y="-155.75" font-family="Helvetica,sans-Serif" font-size="10.00">createsearcherstable</text>
</a>
</g>
</g>
<!-- Node1&#45;&gt;Node7 -->
<g id="edge26_Node000001_Node000007" class="edge">
<title>Node1&#45;&gt;Node7</title>
<g id="a_edge26_Node000001_Node000007"><a xlink:title=" ">
<path fill="none" stroke="#63b8ff" d="M2012.24,-96.68C2004.07,-98.87 1995.56,-100.97 1987.5,-102.62 1924.04,-115.63 1907.78,-121.62 1843,-121.62 1843,-121.62 1843,-121.62 1746.25,-121.62 1676.82,-121.62 1597.24,-138.28 1551.39,-149.54"/>
<polygon fill="#63b8ff" stroke="#63b8ff" points="2012.93,-100.12 2021.63,-94.06 2011.06,-93.38 2012.93,-100.12"/>
</a>
</g>
</g>
<!-- Node22 -->
<g id="Node000022" class="node">
<title>Node22</title>
<g id="a_Node000022"><a xlink:href="lua_8c.html#ae97a68ae8a927b55520b65d0a56a59d2" target="_top" xlink:title=" ">
<polygon fill="white" stroke="#666666" points="1987.5,-93.25 1910,-93.25 1910,-74 1987.5,-74 1987.5,-93.25"/>
<text xml:space="preserve" text-anchor="middle" x="1948.75" y="-79.75" font-family="Helvetica,sans-Serif" font-size="10.00">createargtable</text>
</a>
</g>
</g>
<!-- Node1&#45;&gt;Node22 -->
<g id="edge23_Node000001_Node000022" class="edge">
<title>Node1&#45;&gt;Node22</title>
<g id="a_edge23_Node000001_Node000022"><a xlink:title=" ">
<path fill="none" stroke="#63b8ff" d="M2011.67,-83.62C2003.72,-83.62 1995.48,-83.62 1987.71,-83.62"/>
<polygon fill="#63b8ff" stroke="#63b8ff" points="2011.51,-87.13 2021.51,-83.63 2011.51,-80.13 2011.51,-87.13"/>
</a>
</g>
</g>
<!-- Node25 -->
<g id="Node000025" class="node">
<title>Node25</title>
<g id="a_Node000025"><a xlink:href="lauxlib_8c.html#a1adeae26be7c2e3001c3583f43f70720" target="_top" xlink:title=" ">
<polygon fill="white" stroke="#666666" points="1974,-56.25 1923.5,-56.25 1923.5,-37 1974,-37 1974,-56.25"/>
<text xml:space="preserve" text-anchor="middle" x="1948.75" y="-42.75" font-family="Helvetica,sans-Serif" font-size="10.00">luaL_ref</text>
</a>
</g>
</g>
<!-- Node1&#45;&gt;Node25 -->
<g id="edge27_Node000001_Node000025" class="edge">
<title>Node1&#45;&gt;Node25</title>
<g id="a_edge27_Node000001_Node000025"><a xlink:title=" ">
<path fill="none" stroke="#63b8ff" d="M2015.64,-69.73C2001.74,-64.86 1986.54,-59.53 1974.25,-55.22"/>
<polygon fill="#63b8ff" stroke="#63b8ff" points="2014.4,-73.01 2024.99,-73.01 2016.72,-66.4 2014.4,-73.01"/>
</a>
</g>
</g>
<!-- Node26 -->
<g id="Node000026" class="node">
<title>Node26</title>
<g id="a_Node000026"><a xlink:href="lauxlib_8c.html#ad5e8303f3809d26c336c3e18879b7f4e" target="_top" xlink:title=" ">
<polygon fill="white" stroke="#666666" points="1979.25,-19.25 1918.25,-19.25 1918.25,0 1979.25,0 1979.25,-19.25"/>
<text xml:space="preserve" text-anchor="middle" x="1948.75" y="-5.75" font-family="Helvetica,sans-Serif" font-size="10.00">luaL_unref</text>
</a>
</g>
</g>
<!-- Node1&#45;&gt;Node26 -->
<g id="edge28_Node000001_Node000026" class="edge">
<title>Node1&#45;&gt;Node26</title>
<g id="a_edge28_Node000001_Node000026"><a xlink:title=" ">
<path fill="none" stroke="#63b8ff" d="M2036.69,-66.15C2023.59,-54.37 2005.27,-38.96 1987.5,-27.62 1982.97,-24.74 1977.9,-22.01 1972.99,-19.6"/>
<polygon fill="#63b8ff" stroke="#63b8ff" points="2034,-68.44 2043.74,-72.61 2038.73,-63.28 2034,-68.44"/>
</a>
</g>
</g>
<!-- Node3 -->
<g id="Node000003" class="node">
<title>Node3</title>
<g id="a_Node000003"><a xlink:href="loadlib_8c.html#ad7ea39bad1ff41ec6a7f95c1e23722be" target="_top" xlink:title=" ">
<polygon fill="white" stroke="#666666" points="1874,-169.25 1810,-169.25 1810,-150 1874,-150 1874,-169.25"/>
<text xml:space="preserve" text-anchor="middle" x="1842" y="-155.75" font-family="Helvetica,sans-Serif" font-size="10.00">lookforfunc</text>
</a>
</g>
</g>
<!-- Node2&#45;&gt;Node3 -->
<g id="edge2_Node000002_Node000003" class="edge">
<title>Node2&#45;&gt;Node3</title>
<g id="a_edge2_Node000002_Node000003"><a xlink:title=" ">
<path fill="none" stroke="#63b8ff" d="M1909.61,-159.62C1898.02,-159.62 1885.43,-159.62 1874.34,-159.62"/>
<polygon fill="#63b8ff" stroke="#63b8ff" points="1909.26,-163.13 1919.26,-159.63 1909.26,-156.13 1909.26,-163.13"/>
</a>
</g>
</g>
<!-- Node4 -->
<g id="Node000004" class="node">
<title>Node4</title>
<g id="a_Node000004"><a xlink:href="loadlib_8c.html#aac7e69bc5b4403e49e2609425f0fb7b0" target="_top" xlink:title=" ">
<polygon fill="white" stroke="#666666" points="1774,-206.25 1720.5,-206.25 1720.5,-187 1774,-187 1774,-206.25"/>
<text xml:space="preserve" text-anchor="middle" x="1747.25" y="-192.75" font-family="Helvetica,sans-Serif" font-size="10.00">ll_loadlib</text>
</a>
</g>
</g>
<!-- Node3&#45;&gt;Node4 -->
<g id="edge3_Node000003_Node000004" class="edge">
<title>Node3&#45;&gt;Node4</title>
<g id="a_edge3_Node000003_Node000004"><a xlink:title=" ">
<path fill="none" stroke="#63b8ff" d="M1805.07,-173.96C1794.55,-178.16 1783.27,-182.65 1773.56,-186.53"/>
<polygon fill="#63b8ff" stroke="#63b8ff" points="1806.26,-177.25 1814.25,-170.3 1803.66,-170.75 1806.26,-177.25"/>
</a>
</g>
</g>
<!-- Node5 -->
<g id="Node000005" class="node">
<title>Node5</title>
<g id="a_Node000005"><a xlink:href="loadlib_8c.html#a91ac5b5231cf039af46226806dcc3884" target="_top" xlink:title=" ">
<polygon fill="white" stroke="#666666" points="1773.62,-169.25 1720.88,-169.25 1720.88,-150 1773.62,-150 1773.62,-169.25"/>
<text xml:space="preserve" text-anchor="middle" x="1747.25" y="-155.75" font-family="Helvetica,sans-Serif" font-size="10.00">loadfunc</text>
</a>
</g>
</g>
<!-- Node3&#45;&gt;Node5 -->
<g id="edge4_Node000003_Node000005" class="edge">
<title>Node3&#45;&gt;Node5</title>
<g id="a_edge4_Node000003_Node000005"><a xlink:title=" ">
<path fill="none" stroke="#63b8ff" d="M1798.17,-159.62C1789.94,-159.62 1781.56,-159.62 1774.07,-159.62"/>
<polygon fill="#63b8ff" stroke="#63b8ff" points="1798.09,-163.13 1808.09,-159.63 1798.09,-156.13 1798.09,-163.13"/>
</a>
</g>
</g>
<!-- Node6 -->
<g id="Node000006" class="node">
<title>Node6</title>
<g id="a_Node000006"><a xlink:href="loadlib_8c.html#a9a915ea950c831cee2f1e7b0a3bd9005" target="_top" xlink:title=" ">
<polygon fill="white" stroke="#666666" points="1676.25,-206.25 1610,-206.25 1610,-187 1676.25,-187 1676.25,-206.25"/>
<text xml:space="preserve" text-anchor="middle" x="1643.12" y="-192.75" font-family="Helvetica,sans-Serif" font-size="10.00">searcher_C</text>
</a>
</g>
</g>
<!-- Node5&#45;&gt;Node6 -->
<g id="edge5_Node000005_Node000006" class="edge">
<title>Node5&#45;&gt;Node6</title>
<g id="a_edge5_Node000005_Node000006"><a xlink:title=" ">
<path fill="none" stroke="#63b8ff" d="M1709.94,-172.78C1697.48,-177.3 1683.73,-182.28 1672.04,-186.51"/>
<polygon fill="#63b8ff" stroke="#63b8ff" points="1710.85,-176.17 1719.06,-169.48 1708.46,-169.59 1710.85,-176.17"/>
</a>
</g>
</g>
<!-- Node21 -->
<g id="Node000021" class="node">
<title>Node21</title>
<g id="a_Node000021"><a xlink:href="loadlib_8c.html#a1ec05cd98a045c271aeda9f9c6041e1c" target="_top" xlink:title=" ">
<polygon fill="white" stroke="#666666" points="1684.5,-169.25 1601.75,-169.25 1601.75,-150 1684.5,-150 1684.5,-169.25"/>
<text xml:space="preserve" text-anchor="middle" x="1643.12" y="-155.75" font-family="Helvetica,sans-Serif" font-size="10.00">searcher_Croot</text>
</a>
</g>
</g>
<!-- Node5&#45;&gt;Node21 -->
<g id="edge21_Node000005_Node000021" class="edge">
<title>Node5&#45;&gt;Node21</title>
<g id="a_edge21_Node000005_Node000021"><a xlink:title=" ">
<path fill="none" stroke="#63b8ff" d="M1709.07,-159.62C1701.24,-159.62 1692.95,-159.62 1684.99,-159.62"/>
<polygon fill="#63b8ff" stroke="#63b8ff" points="1708.97,-163.13 1718.97,-159.63 1708.97,-156.13 1708.97,-163.13"/>
</a>
</g>
</g>
<!-- Node6&#45;&gt;Node7 -->
<g id="edge6_Node000006_Node000007" class="edge">
<title>Node6&#45;&gt;Node7</title>
<g id="a_edge6_Node000006_Node000007"><a xlink:title=" ">
<path fill="none" stroke="#63b8ff" d="M1598.72,-184.15C1582.39,-179.46 1564.05,-174.19 1548.57,-169.74"/>
<polygon fill="#63b8ff" stroke="#63b8ff" points="1597.6,-187.47 1608.18,-186.87 1599.54,-180.74 1597.6,-187.47"/>
</a>
</g>
</g>
<!-- Node8 -->
<g id="Node000008" class="node">
<title>Node8</title>
<g id="a_Node000008"><a xlink:href="loadlib_8c.html#ab732e1ec253c9b8dc0c2ce4d74cb0083" target="_top" xlink:title=" ">
<polygon fill="white" stroke="#666666" points="1423,-169.25 1331.25,-169.25 1331.25,-150 1423,-150 1423,-169.25"/>
<text xml:space="preserve" text-anchor="middle" x="1377.12" y="-155.75" font-family="Helvetica,sans-Serif" font-size="10.00">luaopen_package</text>
</a>
</g>
</g>
<!-- Node7&#45;&gt;Node8 -->
<g id="edge7_Node000007_Node000008" class="edge">
<title>Node7&#45;&gt;Node8</title>
<g id="a_edge7_Node000007_Node000008"><a xlink:title=" ">
<path fill="none" stroke="#63b8ff" d="M1447.25,-159.62C1439.08,-159.62 1430.87,-159.62 1423.09,-159.62"/>
<polygon fill="#63b8ff" stroke="#63b8ff" points="1447.2,-163.13 1457.2,-159.63 1447.2,-156.13 1447.2,-163.13"/>
</a>
</g>
</g>
<!-- Node9 -->
<g id="Node000009" class="node">
<title>Node9</title>
<g id="a_Node000009"><a xlink:href="script_8c.html#a5ae0734cc912e06c627951a52d735418" target="_top" xlink:title=" ">
<polygon fill="white" stroke="#666666" points="1295.25,-169.25 1185.5,-169.25 1185.5,-150 1295.25,-150 1295.25,-169.25"/>
<text xml:space="preserve" text-anchor="middle" x="1240.38" y="-155.75" font-family="Helvetica,sans-Serif" font-size="10.00">open_sandboxed_libs</text>
</a>
</g>
</g>
<!-- Node8&#45;&gt;Node9 -->
<g id="edge8_Node000008_Node000009" class="edge">
<title>Node8&#45;&gt;Node9</title>
<g id="a_edge8_Node000008_Node000009"><a xlink:title=" ">
<path fill="none" stroke="#63b8ff" d="M1319.49,-159.62C1311.58,-159.62 1303.47,-159.62 1295.61,-159.62"/>
<polygon fill="#63b8ff" stroke="#63b8ff" points="1319.37,-163.13 1329.37,-159.63 1319.37,-156.13 1319.37,-163.13"/>
</a>
</g>
</g>
<!-- Node10 -->
<g id="Node000010" class="node">
<title>Node10</title>
<g id="a_Node000010"><a xlink:href="script_8c.html#a84508ce31c18af8792081eb1cdfc77b8" target="_top" xlink:title=" ">
<polygon fill="white" stroke="#666666" points="1149.5,-169.25 1081,-169.25 1081,-150 1149.5,-150 1149.5,-169.25"/>
<text xml:space="preserve" text-anchor="middle" x="1115.25" y="-155.75" font-family="Helvetica,sans-Serif" font-size="10.00">script_begin</text>
</a>
</g>
</g>
<!-- Node9&#45;&gt;Node10 -->
<g id="edge9_Node000009_Node000010" class="edge">
<title>Node9&#45;&gt;Node10</title>
<g id="a_edge9_Node000009_Node000010"><a xlink:title=" ">
<path fill="none" stroke="#63b8ff" d="M1173.73,-159.62C1165.45,-159.62 1157.28,-159.62 1149.81,-159.62"/>
<polygon fill="#63b8ff" stroke="#63b8ff" points="1173.5,-163.13 1183.5,-159.63 1173.5,-156.13 1173.5,-163.13"/>
</a>
</g>
</g>
<!-- Node11 -->
<g id="Node000011" class="node">
<title>Node11</title>
<g id="a_Node000011"><a xlink:href="game__scene_8c.html#ab923ed4c6ccad95026e85e252071716d" target="_top" xlink:title=" ">
<polygon fill="white" stroke="#666666" points="1045,-169.25 925.5,-169.25 925.5,-150 1045,-150 1045,-169.25"/>
<text xml:space="preserve" text-anchor="middle" x="985.25" y="-155.75" font-family="Helvetica,sans-Serif" font-size="10.00">PGB_GameScene_new</text>
</a>
</g>
</g>
<!-- Node10&#45;&gt;Node11 -->
<g id="edge10_Node000010_Node000011" class="edge">
<title>Node10&#45;&gt;Node11</title>
<g id="a_edge10_Node000010_Node000011"><a xlink:title=" ">
<path fill="none" stroke="#63b8ff" d="M1069.28,-159.62C1061.55,-159.62 1053.42,-159.62 1045.4,-159.62"/>
<polygon fill="#63b8ff" stroke="#63b8ff" points="1069.11,-163.13 1079.11,-159.63 1069.11,-156.13 1069.11,-163.13"/>
</a>
</g>
</g>
<!-- Node12 -->
<g id="Node000012" class="node">
<title>Node12</title>
<g id="a_Node000012"><a xlink:href="library__scene_8c.html#a0728002045c9cbbd68bdd34897b28da6" target="_top" xlink:title=" ">
<polygon fill="white" stroke="#666666" points="889.5,-169.25 755.75,-169.25 755.75,-150 889.5,-150 889.5,-169.25"/>
<text xml:space="preserve" text-anchor="middle" x="822.62" y="-155.75" font-family="Helvetica,sans-Serif" font-size="10.00">PGB_LibraryScene_update</text>
</a>
</g>
</g>
<!-- Node11&#45;&gt;Node12 -->
<g id="edge11_Node000011_Node000012" class="edge">
<title>Node11&#45;&gt;Node12</title>
<g id="a_edge11_Node000011_Node000012"><a xlink:title=" ">
<path fill="none" stroke="#63b8ff" d="M914.09,-159.62C906.04,-159.62 897.84,-159.62 889.84,-159.62"/>
<polygon fill="#63b8ff" stroke="#63b8ff" points="913.84,-163.13 923.84,-159.63 913.84,-156.13 913.84,-163.13"/>
</a>
</g>
</g>
<!-- Node13 -->
<g id="Node000013" class="node">
<title>Node13</title>
<g id="a_Node000013"><a xlink:href="library__scene_8c.html#aa5c386d39121b53fba45d899df654188" target="_top" xlink:title=" ">
<polygon fill="white" stroke="#666666" points="719.75,-169.25 597.25,-169.25 597.25,-150 719.75,-150 719.75,-169.25"/>
<text xml:space="preserve" text-anchor="middle" x="658.5" y="-155.75" font-family="Helvetica,sans-Serif" font-size="10.00">PGB_LibraryScene_new</text>
</a>
</g>
</g>
<!-- Node12&#45;&gt;Node13 -->
<g id="edge12_Node000012_Node000013" class="edge">
<title>Node12&#45;&gt;Node13</title>
<g id="a_edge12_Node000012_Node000013"><a xlink:title=" ">
<path fill="none" stroke="#63b8ff" d="M744.29,-159.62C736.19,-159.62 728.04,-159.62 720.16,-159.62"/>
<polygon fill="#63b8ff" stroke="#63b8ff" points="744.17,-163.13 754.17,-159.63 744.17,-156.13 744.17,-163.13"/>
</a>
</g>
</g>
<!-- Node14 -->
<g id="Node000014" class="node">
<title>Node14</title>
<g id="a_Node000014"><a xlink:href="app_8c.html#ab80501f53b757a79772b96ec99e3dc7e" target="_top" xlink:title=" ">
<polygon fill="white" stroke="#666666" points="534.25,-212.25 441.75,-212.25 441.75,-193 534.25,-193 534.25,-212.25"/>
<text xml:space="preserve" text-anchor="middle" x="488" y="-198.75" font-family="Helvetica,sans-Serif" font-size="10.00">PGB_goToLibrary</text>
</a>
</g>
</g>
<!-- Node13&#45;&gt;Node14 -->
<g id="edge13_Node000013_Node000014" class="edge">
<title>Node13&#45;&gt;Node14</title>
<g id="a_edge13_Node000013_Node000014"><a xlink:title=" ">
<path fill="none" stroke="#63b8ff" d="M606.84,-172.55C581.76,-178.95 551.92,-186.57 528.55,-192.53"/>
<polygon fill="#63b8ff" stroke="#63b8ff" points="607.7,-175.94 616.53,-170.08 605.97,-169.16 607.7,-175.94"/>
</a>
</g>
</g>
<!-- Node17 -->
<g id="Node000017" class="node">
<title>Node17</title>
<g id="a_Node000017"><a xlink:href="image__conversion__scene_8c.html#a60d0e43ab25a8639bbb6d1f4e758edd3" target="_top" xlink:title=" ">
<polygon fill="white" stroke="#666666" points="561.25,-174.88 414.75,-174.88 414.75,-144.38 561.25,-144.38 561.25,-174.88"/>
<text xml:space="preserve" text-anchor="start" x="422.75" y="-161.38" font-family="Helvetica,sans-Serif" font-size="10.00">PGB_ImageConversionScene</text>
<text xml:space="preserve" text-anchor="middle" x="488" y="-150.12" font-family="Helvetica,sans-Serif" font-size="10.00">_update</text>
</a>
</g>
</g>
<!-- Node13&#45;&gt;Node17 -->
<g id="edge16_Node000013_Node000017" class="edge">
<title>Node13&#45;&gt;Node17</title>
<g id="a_edge16_Node000013_Node000017"><a xlink:title=" ">
<path fill="none" stroke="#63b8ff" d="M585.9,-159.62C577.86,-159.62 569.65,-159.62 561.6,-159.62"/>
<polygon fill="#63b8ff" stroke="#63b8ff" points="585.63,-163.13 595.63,-159.63 585.63,-156.13 585.63,-163.13"/>
</a>
</g>
</g>
<!-- Node19 -->
<g id="Node000019" class="node">
<title>Node19</title>
<g id="a_Node000019"><a xlink:href="app_8c.html#af256ea7a9c51fcbd49cb0007facbb8ea" target="_top" xlink:title=" ">
<polygon fill="white" stroke="#666666" points="166.25,-147.25 111.25,-147.25 111.25,-128 166.25,-128 166.25,-147.25"/>
<text xml:space="preserve" text-anchor="middle" x="138.75" y="-133.75" font-family="Helvetica,sans-Serif" font-size="10.00">PGB_init</text>
</a>
</g>
</g>
<!-- Node13&#45;&gt;Node19 -->
<g id="edge20_Node000013_Node000019" class="edge">
<title>Node13&#45;&gt;Node19</title>
<g id="a_edge20_Node000013_Node000019"><a xlink:title=" ">
<path fill="none" stroke="#63b8ff" d="M614.41,-146.49C597.95,-142.11 578.89,-137.79 561.25,-135.62 413.08,-117.43 233.4,-129.5 166.52,-135.16"/>
<polygon fill="#63b8ff" stroke="#63b8ff" points="613.32,-149.82 623.89,-149.11 615.18,-143.08 613.32,-149.82"/>
</a>
</g>
</g>
<!-- Node15 -->
<g id="Node000015" class="node">
<title>Node15</title>
<g id="a_Node000015"><a xlink:href="game__scene_8c.html#a6a4a6f0408da311dc566eb187e497889" target="_top" xlink:title=" ">
<polygon fill="white" stroke="#666666" points="360,-212.25 227.75,-212.25 227.75,-193 360,-193 360,-212.25"/>
<text xml:space="preserve" text-anchor="middle" x="293.88" y="-198.75" font-family="Helvetica,sans-Serif" font-size="10.00">PGB_LibraryConfirmModal</text>
</a>
</g>
</g>
<!-- Node14&#45;&gt;Node15 -->
<g id="edge14_Node000014_Node000015" class="edge">
<title>Node14&#45;&gt;Node15</title>
<g id="a_edge14_Node000014_Node000015"><a xlink:title=" ">
<path fill="none" stroke="#63b8ff" d="M430.03,-202.62C408.17,-202.62 383.05,-202.62 360.44,-202.62"/>
<polygon fill="#63b8ff" stroke="#63b8ff" points="429.96,-206.13 439.96,-202.63 429.96,-199.13 429.96,-206.13"/>
</a>
</g>
</g>
<!-- Node16 -->
<g id="Node000016" class="node">
<title>Node16</title>
<g id="a_Node000016"><a xlink:href="game__scene_8c.html#a113df24bb94bafcdbb9235ec8648e02f" target="_top" xlink:title=" ">
<polygon fill="white" stroke="#666666" points="173,-212.25 104.5,-212.25 104.5,-193 173,-193 173,-212.25"/>
<text xml:space="preserve" text-anchor="middle" x="138.75" y="-198.75" font-family="Helvetica,sans-Serif" font-size="10.00">__section__</text>
</a>
</g>
</g>
<!-- Node15&#45;&gt;Node16 -->
<g id="edge15_Node000015_Node000016" class="edge">
<title>Node15&#45;&gt;Node16</title>
<g id="a_edge15_Node000015_Node000016"><a xlink:title=" ">
<path fill="none" stroke="#63b8ff" d="M216.03,-202.62C200.98,-202.62 185.96,-202.62 173.27,-202.62"/>
<polygon fill="#63b8ff" stroke="#63b8ff" points="215.98,-206.13 225.98,-202.63 215.98,-199.13 215.98,-206.13"/>
</a>
</g>
</g>
<!-- Node18 -->
<g id="Node000018" class="node">
<title>Node18</title>
<g id="a_Node000018"><a xlink:href="image__conversion__scene_8c.html#aa3559936491ddf78b9cf06fcbdd32d22" target="_top" xlink:title=" ">
<polygon fill="white" stroke="#666666" points="378.75,-167.25 209,-167.25 209,-148 378.75,-148 378.75,-167.25"/>
<text xml:space="preserve" text-anchor="middle" x="293.88" y="-153.75" font-family="Helvetica,sans-Serif" font-size="10.00">PGB_ImageConversionScene_new</text>
</a>
</g>
</g>
<!-- Node17&#45;&gt;Node18 -->
<g id="edge17_Node000017_Node000018" class="edge">
<title>Node17&#45;&gt;Node18</title>
<g id="a_edge17_Node000017_Node000018"><a xlink:title=" ">
<path fill="none" stroke="#63b8ff" d="M402.94,-158.75C395.07,-158.67 387.09,-158.58 379.22,-158.5"/>
<polygon fill="#63b8ff" stroke="#63b8ff" points="402.82,-162.25 412.85,-158.85 402.89,-155.25 402.82,-162.25"/>
</a>
</g>
</g>
<!-- Node18&#45;&gt;Node19 -->
<g id="edge18_Node000018_Node000019" class="edge">
<title>Node18&#45;&gt;Node19</title>
<g id="a_edge18_Node000018_Node000019"><a xlink:title=" ">
<path fill="none" stroke="#63b8ff" d="M204.38,-146.07C190.72,-144.28 177.57,-142.56 166.75,-141.15"/>
<polygon fill="#63b8ff" stroke="#63b8ff" points="203.55,-149.49 213.91,-147.31 204.45,-142.55 203.55,-149.49"/>
</a>
</g>
</g>
<!-- Node20 -->
<g id="Node000020" class="node">
<title>Node20</title>
<g id="a_Node000020"><a xlink:href="main_8c.html#a77034286b8c64d0735c69535c5e9b732" target="_top" xlink:title=" ">
<polygon fill="white" stroke="#666666" points="68.5,-147.25 0,-147.25 0,-128 68.5,-128 68.5,-147.25"/>
<text xml:space="preserve" text-anchor="middle" x="34.25" y="-133.75" font-family="Helvetica,sans-Serif" font-size="10.00">__section__</text>
</a>
</g>
</g>
<!-- Node19&#45;&gt;Node20 -->
<g id="edge19_Node000019_Node000020" class="edge">
<title>Node19&#45;&gt;Node20</title>
<g id="a_edge19_Node000019_Node000020"><a xlink:title=" ">
<path fill="none" stroke="#63b8ff" d="M99.48,-137.62C89.46,-137.62 78.74,-137.62 68.97,-137.62"/>
<polygon fill="#63b8ff" stroke="#63b8ff" points="99.31,-141.13 109.31,-137.63 99.31,-134.13 99.31,-141.13"/>
</a>
</g>
</g>
<!-- Node21&#45;&gt;Node7 -->
<g id="edge22_Node000021_Node000007" class="edge">
<title>Node21&#45;&gt;Node7</title>
<g id="a_edge22_Node000021_Node000007"><a xlink:title=" ">
<path fill="none" stroke="#63b8ff" d="M1590.06,-159.62C1582.17,-159.62 1574.02,-159.62 1566.11,-159.62"/>
<polygon fill="#63b8ff" stroke="#63b8ff" points="1589.87,-163.13 1599.87,-159.63 1589.87,-156.13 1589.87,-163.13"/>
</a>
</g>
</g>
<!-- Node23 -->
<g id="Node000023" class="node">
<title>Node23</title>
<g id="a_Node000023"><a xlink:href="lua_8c.html#aa0f8bc082ef913cb0a4df437bf5f5019" target="_top" xlink:title=" ">
<polygon fill="white" stroke="#666666" points="1863.12,-93.25 1820.88,-93.25 1820.88,-74 1863.12,-74 1863.12,-93.25"/>
<text xml:space="preserve" text-anchor="middle" x="1842" y="-79.75" font-family="Helvetica,sans-Serif" font-size="10.00">pmain</text>
</a>
</g>
</g>
<!-- Node22&#45;&gt;Node23 -->
<g id="edge24_Node000022_Node000023" class="edge">
<title>Node22&#45;&gt;Node23</title>
<g id="a_edge24_Node000022_Node000023"><a xlink:title=" ">
<path fill="none" stroke="#63b8ff" d="M1898.47,-83.62C1886.16,-83.62 1873.63,-83.62 1863.59,-83.62"/>
<polygon fill="#63b8ff" stroke="#63b8ff" points="1898.12,-87.13 1908.12,-83.63 1898.12,-80.13 1898.12,-87.13"/>
</a>
</g>
</g>
<!-- Node24 -->
<g id="Node000024" class="node">
<title>Node24</title>
<g id="a_Node000024"><a xlink:href="lua_8c.html#a3c04138a5bfe5d72780bb7e82a18e627" target="_top" xlink:title=" ">
<polygon fill="white" stroke="#666666" points="1765.75,-93.25 1728.75,-93.25 1728.75,-74 1765.75,-74 1765.75,-93.25"/>
<text xml:space="preserve" text-anchor="middle" x="1747.25" y="-79.75" font-family="Helvetica,sans-Serif" font-size="10.00">main</text>
</a>
</g>
</g>
<!-- Node23&#45;&gt;Node24 -->
<g id="edge25_Node000023_Node000024" class="edge">
<title>Node23&#45;&gt;Node24</title>
<g id="a_edge25_Node000023_Node000024"><a xlink:title=" ">
<path fill="none" stroke="#63b8ff" d="M1808.94,-83.62C1794.54,-83.62 1778.1,-83.62 1765.97,-83.62"/>
<polygon fill="#63b8ff" stroke="#63b8ff" points="1808.9,-87.13 1818.9,-83.63 1808.9,-80.13 1808.9,-87.13"/>
</a>
</g>
</g>
</g>
</svg>

<g id="navigator" transform="translate(0 0)" fill="#404254">
  <rect fill="#f2f5e9" fill-opacity="0.5" stroke="#606060" stroke-width=".5" x="0" y="0" width="60" height="60"/>
  <use id="zoomplus" xlink:href="#zoomPlus" x="17" y="9" onmousedown="handleZoom(evt,'in')"/>
  <use id="zoomminus" xlink:href="#zoomMin" x="42" y="9" onmousedown="handleZoom(evt,'out')"/>
  <use id="reset" xlink:href="#resetDef" x="30" y="36" onmousedown="handleReset()"/>
   <use id="arrowup" xlink:href="#arrowUp" x="0" y="0" onmousedown="handlePan(0,-1)"/>
  <use id="arrowright" xlink:href="#arrowRight" x="0" y="0" onmousedown="handlePan(1,0)"/>
  <use id="arrowdown" xlink:href="#arrowDown" x="0" y="0" onmousedown="handlePan(0,1)"/>
  <use id="arrowleft" xlink:href="#arrowLeft" x="0" y="0" onmousedown="handlePan(-1,0)"/>
</g>
<svg viewBox="0 0 15 15" width="100%" height="30px" preserveAspectRatio="xMaxYMin meet">
 <g id="arrow_out" transform="scale(0.3 0.3)">
  <a xlink:href="lua_8h_a757fd16e7e09280e2d4e4f9f77ba1099_icgraph_org.svg" target="_base">
   <rect id="button" ry="5" rx="5" y="6" x="6" height="38" width="38"
        fill="#f2f5e9" fill-opacity="0.5" stroke="#606060" stroke-width="1.0"/>
   <path id="arrow"
     d="M 11.500037,31.436501 C 11.940474,20.09759 22.043105,11.32322 32.158766,21.979434 L 37.068811,17.246167 C 37.068811,17.246167 37.088388,32 37.088388,32 L 22.160133,31.978069 C 22.160133,31.978069 26.997745,27.140456 26.997745,27.140456 C 18.528582,18.264221 13.291696,25.230495 11.500037,31.436501 z"
     style="fill:#404040;"/>
  </a>
 </g>
</svg>

<style type='text/css'>
<![CDATA[
[data-mouse-over-selected='false'] { opacity: 0.7; }
[data-mouse-over-selected='true']  { opacity: 1.0; }
]]>
</style>
<script type="application/ecmascript"><![CDATA[
document.addEventListener('DOMContentLoaded', (event) => {
  highlightEdges();
  highlightAdjacentNodes();
});
]]></script>
</svg>
