<?xml version="1.0" encoding="UTF-8" standalone="no"?>
<!DOCTYPE svg PUBLIC "-//W3C//DTD SVG 1.1//EN"
 "http://www.w3.org/Graphics/SVG/1.1/DTD/svg11.dtd">
<!-- Generated by graphviz version 13.1.0 (20250701.0955)
 -->
<!-- Title: laction Pages: 1 -->
<svg width="591pt" height="178pt"
 viewBox="0.00 0.00 591.00 178.00" xmlns="http://www.w3.org/2000/svg" xmlns:xlink="http://www.w3.org/1999/xlink">
<g id="graph0" class="graph" transform="scale(1 1) rotate(0) translate(4 174.25)">
<title>laction</title>
<!-- Node1 -->
<g id="Node000001" class="node">
<title>Node1</title>
<g id="a_Node000001"><a xlink:title=" ">
<polygon fill="#999999" stroke="#666666" points="583,-76.25 538.5,-76.25 538.5,-57 583,-57 583,-76.25"/>
<text xml:space="preserve" text-anchor="middle" x="560.75" y="-62.75" font-family="Helvetica,sans-Serif" font-size="10.00">laction</text>
</a>
</g>
</g>
<!-- Node2 -->
<g id="Node000002" class="node">
<title>Node2</title>
<g id="a_Node000002"><a xlink:href="lua_8c.html#a49e04420c2846b52e378ef6272bbf75b" target="_top" xlink:title=" ">
<polygon fill="white" stroke="#666666" points="502.5,-76.25 461,-76.25 461,-57 502.5,-57 502.5,-76.25"/>
<text xml:space="preserve" text-anchor="middle" x="481.75" y="-62.75" font-family="Helvetica,sans-Serif" font-size="10.00">docall</text>
</a>
</g>
</g>
<!-- Node1&#45;&gt;Node2 -->
<g id="edge1_Node000001_Node000002" class="edge">
<title>Node1&#45;&gt;Node2</title>
<g id="a_edge1_Node000001_Node000002"><a xlink:title=" ">
<path fill="none" stroke="#63b8ff" d="M527.04,-66.62C518.79,-66.62 510.18,-66.62 502.76,-66.62"/>
<polygon fill="#63b8ff" stroke="#63b8ff" points="526.79,-70.13 536.79,-66.63 526.79,-63.13 526.79,-70.13"/>
</a>
</g>
</g>
<!-- Node3 -->
<g id="Node000003" class="node">
<title>Node3</title>
<g id="a_Node000003"><a xlink:href="lua_8c.html#a84103428a06a64ccca2c23a8045f3291" target="_top" xlink:title=" ">
<polygon fill="white" stroke="#666666" points="425,-133.25 372.25,-133.25 372.25,-114 425,-114 425,-133.25"/>
<text xml:space="preserve" text-anchor="middle" x="398.62" y="-119.75" font-family="Helvetica,sans-Serif" font-size="10.00">dochunk</text>
</a>
</g>
</g>
<!-- Node2&#45;&gt;Node3 -->
<g id="edge2_Node000002_Node000003" class="edge">
<title>Node2&#45;&gt;Node3</title>
<g id="a_edge2_Node000002_Node000003"><a xlink:title=" ">
<path fill="none" stroke="#63b8ff" d="M457.53,-82.94C443.44,-92.84 425.92,-105.15 413.87,-113.62"/>
<polygon fill="#63b8ff" stroke="#63b8ff" points="459.21,-86.04 465.38,-77.42 455.19,-80.31 459.21,-86.04"/>
</a>
</g>
</g>
<!-- Node10 -->
<g id="Node000010" class="node">
<title>Node10</title>
<g id="a_Node000010"><a xlink:href="lua_8c.html#ac62266d27f3bed2d1e0a7c9393b95c22" target="_top" xlink:title=" ">
<polygon fill="white" stroke="#666666" points="425,-95.25 372.25,-95.25 372.25,-76 425,-76 425,-95.25"/>
<text xml:space="preserve" text-anchor="middle" x="398.62" y="-81.75" font-family="Helvetica,sans-Serif" font-size="10.00">dolibrary</text>
</a>
</g>
</g>
<!-- Node2&#45;&gt;Node10 -->
<g id="edge12_Node000002_Node000010" class="edge">
<title>Node2&#45;&gt;Node10</title>
<g id="a_edge12_Node000002_Node000010"><a xlink:title=" ">
<path fill="none" stroke="#63b8ff" d="M449.49,-73.95C441.48,-75.82 432.96,-77.82 425.28,-79.62"/>
<polygon fill="#63b8ff" stroke="#63b8ff" points="450.28,-77.35 459.22,-71.67 448.69,-70.54 450.28,-77.35"/>
</a>
</g>
</g>
<!-- Node11 -->
<g id="Node000011" class="node">
<title>Node11</title>
<g id="a_Node000011"><a xlink:href="lua_8c.html#a946f2675cba972bd3580d9046abf2b6b" target="_top" xlink:title=" ">
<polygon fill="white" stroke="#666666" points="215.25,-58.25 162.5,-58.25 162.5,-39 215.25,-39 215.25,-58.25"/>
<text xml:space="preserve" text-anchor="middle" x="188.88" y="-44.75" font-family="Helvetica,sans-Serif" font-size="10.00">doREPL</text>
</a>
</g>
</g>
<!-- Node2&#45;&gt;Node11 -->
<g id="edge14_Node000002_Node000011" class="edge">
<title>Node2&#45;&gt;Node11</title>
<g id="a_edge14_Node000002_Node000011"><a xlink:title=" ">
<path fill="none" stroke="#63b8ff" d="M449.45,-64.69C391.64,-61.11 269.16,-53.53 215.72,-50.22"/>
<polygon fill="#63b8ff" stroke="#63b8ff" points="449.05,-68.17 459.25,-65.29 449.48,-61.18 449.05,-68.17"/>
</a>
</g>
</g>
<!-- Node12 -->
<g id="Node000012" class="node">
<title>Node12</title>
<g id="a_Node000012"><a xlink:href="lua_8c.html#a5a944babaacde1035f1aa8b4156cc06a" target="_top" xlink:title=" ">
<polygon fill="white" stroke="#666666" points="336.25,-19.25 262.5,-19.25 262.5,0 336.25,0 336.25,-19.25"/>
<text xml:space="preserve" text-anchor="middle" x="299.38" y="-5.75" font-family="Helvetica,sans-Serif" font-size="10.00">handle_script</text>
</a>
</g>
</g>
<!-- Node2&#45;&gt;Node12 -->
<g id="edge16_Node000002_Node000012" class="edge">
<title>Node2&#45;&gt;Node12</title>
<g id="a_edge16_Node000002_Node000012"><a xlink:title=" ">
<path fill="none" stroke="#63b8ff" d="M457.88,-50.67C448.13,-44.52 436.4,-37.95 425,-33.62 396.36,-22.77 362.08,-16.63 336.73,-13.28"/>
<polygon fill="#63b8ff" stroke="#63b8ff" points="455.68,-53.41 465.96,-55.98 459.52,-47.56 455.68,-53.41"/>
</a>
</g>
</g>
<!-- Node4 -->
<g id="Node000004" class="node">
<title>Node4</title>
<g id="a_Node000004"><a xlink:href="lua_8c.html#a9708ea7bd36bee3c2d952cdd787246cc" target="_top" xlink:title=" ">
<polygon fill="white" stroke="#666666" points="319,-170.25 279.75,-170.25 279.75,-151 319,-151 319,-170.25"/>
<text xml:space="preserve" text-anchor="middle" x="299.38" y="-156.75" font-family="Helvetica,sans-Serif" font-size="10.00">dofile</text>
</a>
</g>
</g>
<!-- Node3&#45;&gt;Node4 -->
<g id="edge3_Node000003_Node000004" class="edge">
<title>Node3&#45;&gt;Node4</title>
<g id="a_edge3_Node000003_Node000004"><a xlink:title=" ">
<path fill="none" stroke="#63b8ff" d="M361.26,-137.46C346.96,-142.9 331.13,-148.92 319.2,-153.46"/>
<polygon fill="#63b8ff" stroke="#63b8ff" points="362.3,-140.81 370.4,-133.98 359.81,-134.27 362.3,-140.81"/>
</a>
</g>
</g>
<!-- Node8 -->
<g id="Node000008" class="node">
<title>Node8</title>
<g id="a_Node000008"><a xlink:href="lua_8c.html#ae8312476ab6a3db74a9a5b1a981d023f" target="_top" xlink:title=" ">
<polygon fill="white" stroke="#666666" points="324.62,-133.25 274.12,-133.25 274.12,-114 324.62,-114 324.62,-133.25"/>
<text xml:space="preserve" text-anchor="middle" x="299.38" y="-119.75" font-family="Helvetica,sans-Serif" font-size="10.00">dostring</text>
</a>
</g>
</g>
<!-- Node3&#45;&gt;Node8 -->
<g id="edge8_Node000003_Node000008" class="edge">
<title>Node3&#45;&gt;Node8</title>
<g id="a_edge8_Node000003_Node000008"><a xlink:title=" ">
<path fill="none" stroke="#63b8ff" d="M360.39,-123.62C348.52,-123.62 335.69,-123.62 324.96,-123.62"/>
<polygon fill="#63b8ff" stroke="#63b8ff" points="360.31,-127.13 370.31,-123.63 360.31,-120.13 360.31,-127.13"/>
</a>
</g>
</g>
<!-- Node5 -->
<g id="Node000005" class="node">
<title>Node5</title>
<g id="a_Node000005"><a xlink:href="lua_8c.html#a5d9d02779b2853fbef2aa54e2f8e017e" target="_top" xlink:title=" ">
<polygon fill="white" stroke="#666666" points="226.5,-132.25 151.25,-132.25 151.25,-113 226.5,-113 226.5,-132.25"/>
<text xml:space="preserve" text-anchor="middle" x="188.88" y="-118.75" font-family="Helvetica,sans-Serif" font-size="10.00">handle_luainit</text>
</a>
</g>
</g>
<!-- Node4&#45;&gt;Node5 -->
<g id="edge4_Node000004_Node000005" class="edge">
<title>Node4&#45;&gt;Node5</title>
<g id="a_edge4_Node000004_Node000005"><a xlink:title=" ">
<path fill="none" stroke="#63b8ff" d="M268.85,-150.28C253.27,-144.83 234.23,-138.16 218.76,-132.74"/>
<polygon fill="#63b8ff" stroke="#63b8ff" points="267.45,-153.5 278.05,-153.51 269.77,-146.9 267.45,-153.5"/>
</a>
</g>
</g>
<!-- Node6 -->
<g id="Node000006" class="node">
<title>Node6</title>
<g id="a_Node000006"><a xlink:href="lua_8c.html#aa0f8bc082ef913cb0a4df437bf5f5019" target="_top" xlink:title=" ">
<polygon fill="white" stroke="#666666" points="115.25,-95.25 73,-95.25 73,-76 115.25,-76 115.25,-95.25"/>
<text xml:space="preserve" text-anchor="middle" x="94.12" y="-81.75" font-family="Helvetica,sans-Serif" font-size="10.00">pmain</text>
</a>
</g>
</g>
<!-- Node4&#45;&gt;Node6 -->
<g id="edge7_Node000004_Node000006" class="edge">
<title>Node4&#45;&gt;Node6</title>
<g id="a_edge7_Node000004_Node000006"><a xlink:title=" ">
<path fill="none" stroke="#63b8ff" d="M268.33,-162.26C237.4,-162.72 188.6,-159.96 151.25,-141.62 129.5,-130.95 111.13,-108.48 101.77,-95.49"/>
<polygon fill="#63b8ff" stroke="#63b8ff" points="268.22,-165.77 278.12,-161.98 268.02,-158.77 268.22,-165.77"/>
</a>
</g>
</g>
<!-- Node5&#45;&gt;Node6 -->
<g id="edge5_Node000005_Node000006" class="edge">
<title>Node5&#45;&gt;Node6</title>
<g id="a_edge5_Node000005_Node000006"><a xlink:title=" ">
<path fill="none" stroke="#63b8ff" d="M152.01,-108.32C139.61,-103.37 126.16,-98.01 115.45,-93.73"/>
<polygon fill="#63b8ff" stroke="#63b8ff" points="150.54,-111.5 161.12,-111.95 153.13,-105 150.54,-111.5"/>
</a>
</g>
</g>
<!-- Node7 -->
<g id="Node000007" class="node">
<title>Node7</title>
<g id="a_Node000007"><a xlink:href="lua_8c.html#a3c04138a5bfe5d72780bb7e82a18e627" target="_top" xlink:title=" ">
<polygon fill="white" stroke="#666666" points="37,-95.25 0,-95.25 0,-76 37,-76 37,-95.25"/>
<text xml:space="preserve" text-anchor="middle" x="18.5" y="-81.75" font-family="Helvetica,sans-Serif" font-size="10.00">main</text>
</a>
</g>
</g>
<!-- Node6&#45;&gt;Node7 -->
<g id="edge6_Node000006_Node000007" class="edge">
<title>Node6&#45;&gt;Node7</title>
<g id="a_edge6_Node000006_Node000007"><a xlink:title=" ">
<path fill="none" stroke="#63b8ff" d="M61.12,-85.62C52.99,-85.62 44.54,-85.62 37.4,-85.62"/>
<polygon fill="#63b8ff" stroke="#63b8ff" points="61.1,-89.13 71.1,-85.63 61.1,-82.13 61.1,-89.13"/>
</a>
</g>
</g>
<!-- Node8&#45;&gt;Node5 -->
<g id="edge9_Node000008_Node000005" class="edge">
<title>Node8&#45;&gt;Node5</title>
<g id="a_edge9_Node000008_Node000005"><a xlink:title=" ">
<path fill="none" stroke="#63b8ff" d="M262.38,-123.29C250.93,-123.19 238.27,-123.07 226.76,-122.96"/>
<polygon fill="#63b8ff" stroke="#63b8ff" points="262.21,-126.79 272.24,-123.38 262.27,-119.79 262.21,-126.79"/>
</a>
</g>
</g>
<!-- Node9 -->
<g id="Node000009" class="node">
<title>Node9</title>
<g id="a_Node000009"><a xlink:href="lua_8c.html#a95a376c847572def6b3f78d33a7bc881" target="_top" xlink:title=" ">
<polygon fill="white" stroke="#666666" points="213,-95.25 164.75,-95.25 164.75,-76 213,-76 213,-95.25"/>
<text xml:space="preserve" text-anchor="middle" x="188.88" y="-81.75" font-family="Helvetica,sans-Serif" font-size="10.00">runargs</text>
</a>
</g>
</g>
<!-- Node8&#45;&gt;Node9 -->
<g id="edge10_Node000008_Node000009" class="edge">
<title>Node8&#45;&gt;Node9</title>
<g id="a_edge10_Node000008_Node000009"><a xlink:title=" ">
<path fill="none" stroke="#63b8ff" d="M262.97,-111.22C246.67,-105.52 227.78,-98.9 213.28,-93.82"/>
<polygon fill="#63b8ff" stroke="#63b8ff" points="261.73,-114.5 272.33,-114.5 264.05,-107.89 261.73,-114.5"/>
</a>
</g>
</g>
<!-- Node9&#45;&gt;Node6 -->
<g id="edge11_Node000009_Node000006" class="edge">
<title>Node9&#45;&gt;Node6</title>
<g id="a_edge11_Node000009_Node000006"><a xlink:title=" ">
<path fill="none" stroke="#63b8ff" d="M153.31,-85.62C140.65,-85.62 126.73,-85.62 115.68,-85.62"/>
<polygon fill="#63b8ff" stroke="#63b8ff" points="152.96,-89.13 162.96,-85.63 152.96,-82.13 152.96,-89.13"/>
</a>
</g>
</g>
<!-- Node10&#45;&gt;Node9 -->
<g id="edge13_Node000010_Node000009" class="edge">
<title>Node10&#45;&gt;Node9</title>
<g id="a_edge13_Node000010_Node000009"><a xlink:title=" ">
<path fill="none" stroke="#63b8ff" d="M360.88,-85.62C318.25,-85.62 249.25,-85.62 213.32,-85.62"/>
<polygon fill="#63b8ff" stroke="#63b8ff" points="360.64,-89.13 370.64,-85.63 360.64,-82.13 360.64,-89.13"/>
</a>
</g>
</g>
<!-- Node11&#45;&gt;Node6 -->
<g id="edge15_Node000011_Node000006" class="edge">
<title>Node11&#45;&gt;Node6</title>
<g id="a_edge15_Node000011_Node000006"><a xlink:title=" ">
<path fill="none" stroke="#63b8ff" d="M152.01,-62.93C139.61,-67.88 126.16,-73.24 115.45,-77.52"/>
<polygon fill="#63b8ff" stroke="#63b8ff" points="153.13,-66.25 161.12,-59.3 150.54,-59.75 153.13,-66.25"/>
</a>
</g>
</g>
<!-- Node12&#45;&gt;Node6 -->
<g id="edge17_Node000012_Node000006" class="edge">
<title>Node12&#45;&gt;Node6</title>
<g id="a_edge17_Node000012_Node000006"><a xlink:title=" ">
<path fill="none" stroke="#63b8ff" d="M250.6,-8.5C220.66,-9.59 182.05,-14.38 151.25,-29.62 129.54,-40.37 111.15,-62.81 101.78,-75.79"/>
<polygon fill="#63b8ff" stroke="#63b8ff" points="250.6,-12 260.52,-8.28 250.44,-5 250.6,-12"/>
</a>
</g>
</g>
</g>
</svg>
