<?xml version="1.0" encoding="UTF-8" standalone="no"?>
<!DOCTYPE svg PUBLIC "-//W3C//DTD SVG 1.1//EN"
 "http://www.w3.org/Graphics/SVG/1.1/DTD/svg11.dtd">
<!-- Generated by graphviz version 13.1.0 (20250701.0955)
 -->
<!-- Title: lua_closethread Pages: 1 -->
<svg width="319pt" height="101pt"
 viewBox="0.00 0.00 319.00 101.00" xmlns="http://www.w3.org/2000/svg" xmlns:xlink="http://www.w3.org/1999/xlink">
<g id="graph0" class="graph" transform="scale(1 1) rotate(0) translate(4 97.25)">
<title>lua_closethread</title>
<!-- Node1 -->
<g id="Node000001" class="node">
<title>Node1</title>
<g id="a_Node000001"><a xlink:title=" ">
<polygon fill="#999999" stroke="#666666" points="311.25,-56.25 227,-56.25 227,-37 311.25,-37 311.25,-56.25"/>
<text xml:space="preserve" text-anchor="middle" x="269.12" y="-42.75" font-family="Helvetica,sans-Serif" font-size="10.00">lua_closethread</text>
</a>
</g>
</g>
<!-- Node2 -->
<g id="Node000002" class="node">
<title>Node2</title>
<g id="a_Node000002"><a xlink:href="lstate_8c.html#afd03e385a4f4f8fcc25230c0e04f48ff" target="_top" xlink:title=" ">
<polygon fill="white" stroke="#666666" points="191,-93.25 108.25,-93.25 108.25,-74 191,-74 191,-93.25"/>
<text xml:space="preserve" text-anchor="middle" x="149.62" y="-79.75" font-family="Helvetica,sans-Serif" font-size="10.00">lua_resetthread</text>
</a>
</g>
</g>
<!-- Node1&#45;&gt;Node2 -->
<g id="edge1_Node000001_Node000002" class="edge">
<title>Node1&#45;&gt;Node2</title>
<g id="a_edge1_Node000001_Node000002"><a xlink:title=" ">
<path fill="none" stroke="#63b8ff" d="M225.11,-60.17C211.09,-64.59 195.77,-69.41 182.69,-73.53"/>
<polygon fill="#63b8ff" stroke="#63b8ff" points="226.09,-63.53 234.57,-57.19 223.98,-56.86 226.09,-63.53"/>
</a>
</g>
</g>
<!-- Node3 -->
<g id="Node000003" class="node">
<title>Node3</title>
<g id="a_Node000003"><a xlink:href="lcorolib_8c.html#a777abb20385a69ce4787f72bd90375a7" target="_top" xlink:title=" ">
<polygon fill="white" stroke="#666666" points="188.38,-56.25 110.88,-56.25 110.88,-37 188.38,-37 188.38,-56.25"/>
<text xml:space="preserve" text-anchor="middle" x="149.62" y="-42.75" font-family="Helvetica,sans-Serif" font-size="10.00">luaB_auxwrap</text>
</a>
</g>
</g>
<!-- Node1&#45;&gt;Node3 -->
<g id="edge2_Node000001_Node000003" class="edge">
<title>Node1&#45;&gt;Node3</title>
<g id="a_edge2_Node000001_Node000003"><a xlink:title=" ">
<path fill="none" stroke="#63b8ff" d="M215.4,-46.62C206.35,-46.62 197.1,-46.62 188.54,-46.62"/>
<polygon fill="#63b8ff" stroke="#63b8ff" points="215.19,-50.13 225.19,-46.63 215.19,-43.13 215.19,-50.13"/>
</a>
</g>
</g>
<!-- Node5 -->
<g id="Node000005" class="node">
<title>Node5</title>
<g id="a_Node000005"><a xlink:href="lcorolib_8c.html#a3c6a70201b343432bfeb1f3e09cdde6f" target="_top" xlink:title=" ">
<polygon fill="white" stroke="#666666" points="181.62,-19.25 117.62,-19.25 117.62,0 181.62,0 181.62,-19.25"/>
<text xml:space="preserve" text-anchor="middle" x="149.62" y="-5.75" font-family="Helvetica,sans-Serif" font-size="10.00">luaB_close</text>
</a>
</g>
</g>
<!-- Node1&#45;&gt;Node5 -->
<g id="edge4_Node000001_Node000005" class="edge">
<title>Node1&#45;&gt;Node5</title>
<g id="a_edge4_Node000001_Node000005"><a xlink:title=" ">
<path fill="none" stroke="#63b8ff" d="M225.35,-33.16C210.97,-28.63 195.21,-23.66 181.88,-19.47"/>
<polygon fill="#63b8ff" stroke="#63b8ff" points="223.98,-36.39 234.57,-36.06 226.09,-29.72 223.98,-36.39"/>
</a>
</g>
</g>
<!-- Node4 -->
<g id="Node000004" class="node">
<title>Node4</title>
<g id="a_Node000004"><a xlink:href="lcorolib_8c.html#a1c0429e27f504b08e25f437f733edad1" target="_top" xlink:title=" ">
<polygon fill="white" stroke="#666666" points="72.25,-56.25 0,-56.25 0,-37 72.25,-37 72.25,-56.25"/>
<text xml:space="preserve" text-anchor="middle" x="36.12" y="-42.75" font-family="Helvetica,sans-Serif" font-size="10.00">luaB_cowrap</text>
</a>
</g>
</g>
<!-- Node3&#45;&gt;Node4 -->
<g id="edge3_Node000003_Node000004" class="edge">
<title>Node3&#45;&gt;Node4</title>
<g id="a_edge3_Node000003_Node000004"><a xlink:title=" ">
<path fill="none" stroke="#63b8ff" d="M99.28,-46.62C90.22,-46.62 80.93,-46.62 72.39,-46.62"/>
<polygon fill="#63b8ff" stroke="#63b8ff" points="99.05,-50.13 109.05,-46.63 99.05,-43.13 99.05,-50.13"/>
</a>
</g>
</g>
</g>
</svg>
