<?xml version="1.0" encoding="UTF-8" standalone="no"?>
<!DOCTYPE svg PUBLIC "-//W3C//DTD SVG 1.1//EN"
 "http://www.w3.org/Graphics/SVG/1.1/DTD/svg11.dtd">
<!-- Generated by graphviz version 13.1.0 (20250701.0955)
 -->
<!-- Title: lua_geti Pages: 1 -->
<svg width="317pt" height="288pt"
 viewBox="0.00 0.00 317.00 288.00" xmlns="http://www.w3.org/2000/svg" xmlns:xlink="http://www.w3.org/1999/xlink">

<svg id="main" version="1.1" xmlns="http://www.w3.org/2000/svg" xmlns:xlink="http://www.w3.org/1999/xlink" xml:space="preserve">

<style type="text/css"><![CDATA[
.node, .edge {opacity: 0.7;}
.node.selected, .edge.selected {opacity: 1;}
.edge:hover path { stroke: red; }
.edge:hover polygon { stroke: red; fill: red; }
]]></style>
<script type="application/ecmascript" xlink:href="svg.min.js"/>
<svg id="graph" class="graph">
<g id="graph0" class="graph" transform="scale(1 1) rotate(0) translate(4 284.25)">
<title>lua_geti</title>
<!-- Node1 -->
<g id="Node000001" class="node">
<title>Node1</title>
<g id="a_Node000001"><a xlink:title=" ">
<polygon fill="#999999" stroke="#666666" points="309.25,-148.25 259.5,-148.25 259.5,-129 309.25,-129 309.25,-148.25"/>
<text xml:space="preserve" text-anchor="middle" x="284.38" y="-134.75" font-family="Helvetica,sans-Serif" font-size="10.00">lua_geti</text>
</a>
</g>
</g>
<!-- Node2 -->
<g id="Node000002" class="node">
<title>Node2</title>
<g id="a_Node000002"><a xlink:href="ltablib_8c.html#a598479e00f1b316a182b1582012df5d0" target="_top" xlink:title=" ">
<polygon fill="white" stroke="#666666" points="220.88,-280.25 171.12,-280.25 171.12,-261 220.88,-261 220.88,-280.25"/>
<text xml:space="preserve" text-anchor="middle" x="196" y="-266.75" font-family="Helvetica,sans-Serif" font-size="10.00">addfield</text>
</a>
</g>
</g>
<!-- Node1&#45;&gt;Node2 -->
<g id="edge1_Node000001_Node000002" class="edge">
<title>Node1&#45;&gt;Node2</title>
<g id="a_edge1_Node000001_Node000002"><a xlink:title=" ">
<path fill="none" stroke="#63b8ff" d="M274.59,-158.92C264.24,-181.58 245.62,-218.73 223.5,-246.62 219.49,-251.68 214.36,-256.59 209.69,-260.64"/>
<polygon fill="#63b8ff" stroke="#63b8ff" points="277.73,-160.46 278.61,-149.9 271.34,-157.61 277.73,-160.46"/>
</a>
</g>
</g>
<!-- Node4 -->
<g id="Node000004" class="node">
<title>Node4</title>
<g id="a_Node000004"><a xlink:href="ltablib_8c.html#a151c51c8905acb3db7d6f1e58265b709" target="_top" xlink:title=" ">
<polygon fill="white" stroke="#666666" points="124.62,-214.25 76.38,-214.25 76.38,-195 124.62,-195 124.62,-214.25"/>
<text xml:space="preserve" text-anchor="middle" x="100.5" y="-200.75" font-family="Helvetica,sans-Serif" font-size="10.00">auxsort</text>
</a>
</g>
</g>
<!-- Node1&#45;&gt;Node4 -->
<g id="edge3_Node000001_Node000004" class="edge">
<title>Node1&#45;&gt;Node4</title>
<g id="a_edge3_Node000001_Node000004"><a xlink:title=" ">
<path fill="none" stroke="#63b8ff" d="M273.92,-158.68C264.14,-176.8 247,-202.32 223.5,-213.62 191.92,-228.82 150.37,-220.69 124.82,-212.99"/>
<polygon fill="#63b8ff" stroke="#63b8ff" points="276.98,-160.4 278.37,-149.89 270.73,-157.24 276.98,-160.4"/>
</a>
</g>
</g>
<!-- Node6 -->
<g id="Node000006" class="node">
<title>Node6</title>
<g id="a_Node000006"><a xlink:href="lbaselib_8c.html#a9e49fcec5e66e36e817b1951123efc03" target="_top" xlink:title=" ">
<polygon fill="white" stroke="#666666" points="223.5,-167.25 168.5,-167.25 168.5,-148 223.5,-148 223.5,-167.25"/>
<text xml:space="preserve" text-anchor="middle" x="196" y="-153.75" font-family="Helvetica,sans-Serif" font-size="10.00">ipairsaux</text>
</a>
</g>
</g>
<!-- Node1&#45;&gt;Node6 -->
<g id="edge6_Node000001_Node000006" class="edge">
<title>Node1&#45;&gt;Node6</title>
<g id="a_edge6_Node000001_Node000006"><a xlink:title=" ">
<path fill="none" stroke="#63b8ff" d="M248.25,-146.35C240.15,-148.13 231.66,-150 223.97,-151.69"/>
<polygon fill="#63b8ff" stroke="#63b8ff" points="248.82,-149.81 257.84,-144.24 247.32,-142.97 248.82,-149.81"/>
</a>
</g>
</g>
<!-- Node8 -->
<g id="Node000008" class="node">
<title>Node8</title>
<g id="a_Node000008"><a xlink:href="ltablib_8c.html#a1d53059f696e353656cd98be725ffbd2" target="_top" xlink:title=" ">
<polygon fill="white" stroke="#666666" points="221.25,-204.25 170.75,-204.25 170.75,-185 221.25,-185 221.25,-204.25"/>
<text xml:space="preserve" text-anchor="middle" x="196" y="-190.75" font-family="Helvetica,sans-Serif" font-size="10.00">partition</text>
</a>
</g>
</g>
<!-- Node1&#45;&gt;Node8 -->
<g id="edge8_Node000001_Node000008" class="edge">
<title>Node1&#45;&gt;Node8</title>
<g id="a_edge8_Node000001_Node000008"><a xlink:title=" ">
<path fill="none" stroke="#63b8ff" d="M258.37,-154.84C243.59,-164.42 225.34,-176.25 212.6,-184.51"/>
<polygon fill="#63b8ff" stroke="#63b8ff" points="260.18,-157.84 266.66,-149.46 256.37,-151.96 260.18,-157.84"/>
</a>
</g>
</g>
<!-- Node9 -->
<g id="Node000009" class="node">
<title>Node9</title>
<g id="a_Node000009"><a xlink:href="ltablib_8c.html#a214ed6966e2b1b4c376ab0de0d09032e" target="_top" xlink:title=" ">
<polygon fill="white" stroke="#666666" points="217.5,-130.25 174.5,-130.25 174.5,-111 217.5,-111 217.5,-130.25"/>
<text xml:space="preserve" text-anchor="middle" x="196" y="-116.75" font-family="Helvetica,sans-Serif" font-size="10.00">tinsert</text>
</a>
</g>
</g>
<!-- Node1&#45;&gt;Node9 -->
<g id="edge10_Node000001_Node000009" class="edge">
<title>Node1&#45;&gt;Node9</title>
<g id="a_edge10_Node000001_Node000009"><a xlink:title=" ">
<path fill="none" stroke="#63b8ff" d="M248.15,-131.28C237.91,-129.15 227.06,-126.89 218,-125"/>
<polygon fill="#63b8ff" stroke="#63b8ff" points="247.33,-134.69 257.83,-133.3 248.76,-127.84 247.33,-134.69"/>
</a>
</g>
</g>
<!-- Node10 -->
<g id="Node000010" class="node">
<title>Node10</title>
<g id="a_Node000010"><a xlink:href="ltablib_8c.html#a2206b11cc9a180fbc33aabb81308fd74" target="_top" xlink:title=" ">
<polygon fill="white" stroke="#666666" points="217.5,-93.25 174.5,-93.25 174.5,-74 217.5,-74 217.5,-93.25"/>
<text xml:space="preserve" text-anchor="middle" x="196" y="-79.75" font-family="Helvetica,sans-Serif" font-size="10.00">tmove</text>
</a>
</g>
</g>
<!-- Node1&#45;&gt;Node10 -->
<g id="edge11_Node000001_Node000010" class="edge">
<title>Node1&#45;&gt;Node10</title>
<g id="a_edge11_Node000001_Node000010"><a xlink:title=" ">
<path fill="none" stroke="#63b8ff" d="M258.02,-122.48C243.36,-113.15 225.38,-101.69 212.74,-93.65"/>
<polygon fill="#63b8ff" stroke="#63b8ff" points="255.94,-125.31 266.26,-127.72 259.7,-119.4 255.94,-125.31"/>
</a>
</g>
</g>
<!-- Node11 -->
<g id="Node000011" class="node">
<title>Node11</title>
<g id="a_Node000011"><a xlink:href="ltablib_8c.html#ad8c41fe887a472709c6fdf075ba39d56" target="_top" xlink:title=" ">
<polygon fill="white" stroke="#666666" points="221.62,-56.25 170.38,-56.25 170.38,-37 221.62,-37 221.62,-56.25"/>
<text xml:space="preserve" text-anchor="middle" x="196" y="-42.75" font-family="Helvetica,sans-Serif" font-size="10.00">tremove</text>
</a>
</g>
</g>
<!-- Node1&#45;&gt;Node11 -->
<g id="edge12_Node000001_Node000011" class="edge">
<title>Node1&#45;&gt;Node11</title>
<g id="a_edge12_Node000001_Node000011"><a xlink:title=" ">
<path fill="none" stroke="#63b8ff" d="M270.31,-119.48C259,-103.72 241.66,-81.33 223.5,-64.62 220.39,-61.76 216.79,-59.01 213.27,-56.56"/>
<polygon fill="#63b8ff" stroke="#63b8ff" points="267.33,-121.34 275.94,-127.51 273.06,-117.32 267.33,-121.34"/>
</a>
</g>
</g>
<!-- Node12 -->
<g id="Node000012" class="node">
<title>Node12</title>
<g id="a_Node000012"><a xlink:href="ltablib_8c.html#ae37fc20bd47c2a4385a87a12090f4e9b" target="_top" xlink:title=" ">
<polygon fill="white" stroke="#666666" points="221.25,-19.25 170.75,-19.25 170.75,0 221.25,0 221.25,-19.25"/>
<text xml:space="preserve" text-anchor="middle" x="196" y="-5.75" font-family="Helvetica,sans-Serif" font-size="10.00">tunpack</text>
</a>
</g>
</g>
<!-- Node1&#45;&gt;Node12 -->
<g id="edge13_Node000001_Node000012" class="edge">
<title>Node1&#45;&gt;Node12</title>
<g id="a_edge13_Node000001_Node000012"><a xlink:title=" ">
<path fill="none" stroke="#63b8ff" d="M275.84,-118.2C266.35,-94.45 248.23,-55.01 223.5,-27.62 220.89,-24.74 217.73,-22.08 214.51,-19.75"/>
<polygon fill="#63b8ff" stroke="#63b8ff" points="272.5,-119.27 279.36,-127.34 279.04,-116.75 272.5,-119.27"/>
</a>
</g>
</g>
<!-- Node3 -->
<g id="Node000003" class="node">
<title>Node3</title>
<g id="a_Node000003"><a xlink:href="ltablib_8c.html#add6973c515a288f41265aca8e0ae6412" target="_top" xlink:title=" ">
<polygon fill="white" stroke="#666666" points="124.62,-280.25 76.38,-280.25 76.38,-261 124.62,-261 124.62,-280.25"/>
<text xml:space="preserve" text-anchor="middle" x="100.5" y="-266.75" font-family="Helvetica,sans-Serif" font-size="10.00">tconcat</text>
</a>
</g>
</g>
<!-- Node2&#45;&gt;Node3 -->
<g id="edge2_Node000002_Node000003" class="edge">
<title>Node2&#45;&gt;Node3</title>
<g id="a_edge2_Node000002_Node000003"><a xlink:title=" ">
<path fill="none" stroke="#63b8ff" d="M159.72,-270.62C148.06,-270.62 135.39,-270.62 124.85,-270.62"/>
<polygon fill="#63b8ff" stroke="#63b8ff" points="159.41,-274.13 169.41,-270.63 159.41,-267.13 159.41,-274.13"/>
</a>
</g>
</g>
<!-- Node4&#45;&gt;Node4 -->
<g id="edge4_Node000004_Node000004" class="edge">
<title>Node4&#45;&gt;Node4</title>
<g id="a_edge4_Node000004_Node000004"><a xlink:title=" ">
<path fill="none" stroke="#63b8ff" d="M115.45,-225.65C113.58,-229.53 108.6,-232.25 100.5,-232.25 85.69,-232.25 81.29,-223.15 87.31,-214.54"/>
<polygon fill="#63b8ff" stroke="#63b8ff" points="118.95,-225.36 113.93,-216.03 112.04,-226.46 118.95,-225.36"/>
</a>
</g>
</g>
<!-- Node5 -->
<g id="Node000005" class="node">
<title>Node5</title>
<g id="a_Node000005"><a xlink:href="ltablib_8c.html#ae7d3f892e2605bf102dce63de388e626" target="_top" xlink:title=" ">
<polygon fill="white" stroke="#666666" points="32.5,-214.25 0,-214.25 0,-195 32.5,-195 32.5,-214.25"/>
<text xml:space="preserve" text-anchor="middle" x="16.25" y="-200.75" font-family="Helvetica,sans-Serif" font-size="10.00">sort</text>
</a>
</g>
</g>
<!-- Node4&#45;&gt;Node5 -->
<g id="edge5_Node000004_Node000005" class="edge">
<title>Node4&#45;&gt;Node5</title>
<g id="a_edge5_Node000004_Node000005"><a xlink:title=" ">
<path fill="none" stroke="#63b8ff" d="M64.9,-204.62C53.74,-204.62 41.92,-204.62 32.85,-204.62"/>
<polygon fill="#63b8ff" stroke="#63b8ff" points="64.64,-208.13 74.64,-204.63 64.64,-201.13 64.64,-208.13"/>
</a>
</g>
</g>
<!-- Node7 -->
<g id="Node000007" class="node">
<title>Node7</title>
<g id="a_Node000007"><a xlink:href="lbaselib_8c.html#a5cb8b3b13437afd94c3313f0a4b17d06" target="_top" xlink:title=" ">
<polygon fill="white" stroke="#666666" points="132.5,-167.25 68.5,-167.25 68.5,-148 132.5,-148 132.5,-167.25"/>
<text xml:space="preserve" text-anchor="middle" x="100.5" y="-153.75" font-family="Helvetica,sans-Serif" font-size="10.00">luaB_ipairs</text>
</a>
</g>
</g>
<!-- Node6&#45;&gt;Node7 -->
<g id="edge7_Node000006_Node000007" class="edge">
<title>Node6&#45;&gt;Node7</title>
<g id="a_edge7_Node000006_Node000007"><a xlink:title=" ">
<path fill="none" stroke="#63b8ff" d="M156.9,-157.62C148.93,-157.62 140.62,-157.62 132.92,-157.62"/>
<polygon fill="#63b8ff" stroke="#63b8ff" points="156.69,-161.13 166.69,-157.63 156.69,-154.13 156.69,-161.13"/>
</a>
</g>
</g>
<!-- Node8&#45;&gt;Node4 -->
<g id="edge9_Node000008_Node000004" class="edge">
<title>Node8&#45;&gt;Node4</title>
<g id="a_edge9_Node000008_Node000004"><a xlink:title=" ">
<path fill="none" stroke="#63b8ff" d="M159.34,-198.44C147.82,-199.67 135.34,-201.01 124.94,-202.12"/>
<polygon fill="#63b8ff" stroke="#63b8ff" points="159.36,-201.96 168.93,-197.41 158.61,-195 159.36,-201.96"/>
</a>
</g>
</g>
</g>
</svg>
</svg>

<style type='text/css'>
<![CDATA[
[data-mouse-over-selected='false'] { opacity: 0.7; }
[data-mouse-over-selected='true']  { opacity: 1.0; }
]]>
</style>
<script type="application/ecmascript"><![CDATA[
document.addEventListener('DOMContentLoaded', (event) => {
  highlightEdges();
  highlightAdjacentNodes();
});
]]></script>
</svg>
