<?xml version="1.0" encoding="UTF-8" standalone="no"?>
<!DOCTYPE svg PUBLIC "-//W3C//DTD SVG 1.1//EN"
 "http://www.w3.org/Graphics/SVG/1.1/DTD/svg11.dtd">
<!-- Generated by graphviz version 13.1.0 (20250701.0955)
 -->
<!-- Title: lua&#45;5.4.7/lualib.h Pages: 1 -->
<svg width="178pt" height="193pt"
 viewBox="0.00 0.00 178.00 193.00" xmlns="http://www.w3.org/2000/svg" xmlns:xlink="http://www.w3.org/1999/xlink">
<g id="graph0" class="graph" transform="scale(1 1) rotate(0) translate(4 189)">
<title>lua&#45;5.4.7/lualib.h</title>
<!-- Node1 -->
<g id="Node000001" class="node">
<title>Node1</title>
<g id="a_Node000001"><a xlink:title=" ">
<polygon fill="#999999" stroke="#666666" points="123.25,-185 36,-185 36,-165.75 123.25,-165.75 123.25,-185"/>
<text xml:space="preserve" text-anchor="middle" x="79.62" y="-171.5" font-family="Helvetica,sans-Serif" font-size="10.00">lua&#45;5.4.7/lualib.h</text>
</a>
</g>
</g>
<!-- Node2 -->
<g id="Node000002" class="node">
<title>Node2</title>
<g id="a_Node000002"><a xlink:href="lua_8h.html" target="_top" xlink:title=" ">
<polygon fill="white" stroke="#666666" points="98.12,-129.75 61.12,-129.75 61.12,-110.5 98.12,-110.5 98.12,-129.75"/>
<text xml:space="preserve" text-anchor="middle" x="79.62" y="-116.25" font-family="Helvetica,sans-Serif" font-size="10.00">lua.h</text>
</a>
</g>
</g>
<!-- Node1&#45;&gt;Node2 -->
<g id="edge1_Node000001_Node000002" class="edge">
<title>Node1&#45;&gt;Node2</title>
<g id="a_edge1_Node000001_Node000002"><a xlink:title=" ">
<path fill="none" stroke="#63b8ff" d="M79.62,-165.58C79.62,-159.07 79.62,-149.92 79.62,-141.62"/>
<polygon fill="#63b8ff" stroke="#63b8ff" points="83.13,-141.62 79.63,-131.62 76.13,-141.62 83.13,-141.62"/>
</a>
</g>
</g>
<!-- Node3 -->
<g id="Node000003" class="node">
<title>Node3</title>
<g id="a_Node000003"><a xlink:title=" ">
<polygon fill="#e0e0e0" stroke="#999999" points="51.25,-74.5 0,-74.5 0,-55.25 51.25,-55.25 51.25,-74.5"/>
<text xml:space="preserve" text-anchor="middle" x="25.62" y="-61" font-family="Helvetica,sans-Serif" font-size="10.00">stdarg.h</text>
</a>
</g>
</g>
<!-- Node2&#45;&gt;Node3 -->
<g id="edge2_Node000002_Node000003" class="edge">
<title>Node2&#45;&gt;Node3</title>
<g id="a_edge2_Node000002_Node000003"><a xlink:title=" ">
<path fill="none" stroke="#63b8ff" d="M70.71,-110.33C63.17,-102.9 52.16,-92.04 42.9,-82.91"/>
<polygon fill="#63b8ff" stroke="#63b8ff" points="45.39,-80.45 35.81,-75.92 40.48,-85.44 45.39,-80.45"/>
</a>
</g>
</g>
<!-- Node4 -->
<g id="Node000004" class="node">
<title>Node4</title>
<g id="a_Node000004"><a xlink:title=" ">
<polygon fill="#e0e0e0" stroke="#999999" points="105.25,-19.25 54,-19.25 54,0 105.25,0 105.25,-19.25"/>
<text xml:space="preserve" text-anchor="middle" x="79.62" y="-5.75" font-family="Helvetica,sans-Serif" font-size="10.00">stddef.h</text>
</a>
</g>
</g>
<!-- Node2&#45;&gt;Node4 -->
<g id="edge3_Node000002_Node000004" class="edge">
<title>Node2&#45;&gt;Node4</title>
<g id="a_edge3_Node000002_Node000004"><a xlink:title=" ">
<path fill="none" stroke="#63b8ff" d="M79.62,-110.25C79.62,-93 79.62,-54.58 79.62,-30.81"/>
<polygon fill="#63b8ff" stroke="#63b8ff" points="83.13,-31.14 79.63,-21.14 76.13,-31.14 83.13,-31.14"/>
</a>
</g>
</g>
<!-- Node5 -->
<g id="Node000005" class="node">
<title>Node5</title>
<g id="a_Node000005"><a xlink:href="luaconf_8h.html" target="_top" xlink:title=" ">
<polygon fill="white" stroke="#666666" points="163.5,-74.5 107.75,-74.5 107.75,-55.25 163.5,-55.25 163.5,-74.5"/>
<text xml:space="preserve" text-anchor="middle" x="135.62" y="-61" font-family="Helvetica,sans-Serif" font-size="10.00">luaconf.h</text>
</a>
</g>
</g>
<!-- Node2&#45;&gt;Node5 -->
<g id="edge4_Node000002_Node000005" class="edge">
<title>Node2&#45;&gt;Node5</title>
<g id="a_edge4_Node000002_Node000005"><a xlink:title=" ">
<path fill="none" stroke="#63b8ff" d="M89.12,-110.09C97.06,-102.55 108.57,-91.6 118.16,-82.48"/>
<polygon fill="#63b8ff" stroke="#63b8ff" points="120.33,-85.24 125.17,-75.82 115.51,-80.17 120.33,-85.24"/>
</a>
</g>
</g>
<!-- Node5&#45;&gt;Node4 -->
<g id="edge6_Node000005_Node000004" class="edge">
<title>Node5&#45;&gt;Node4</title>
<g id="a_edge6_Node000005_Node000004"><a xlink:title=" ">
<path fill="none" stroke="#63b8ff" d="M126.13,-54.84C118.19,-47.3 106.68,-36.35 97.09,-27.23"/>
<polygon fill="#63b8ff" stroke="#63b8ff" points="99.74,-24.92 90.08,-20.57 94.92,-29.99 99.74,-24.92"/>
</a>
</g>
</g>
<!-- Node6 -->
<g id="Node000006" class="node">
<title>Node6</title>
<g id="a_Node000006"><a xlink:title=" ">
<polygon fill="#e0e0e0" stroke="#999999" points="170.38,-19.25 122.88,-19.25 122.88,0 170.38,0 170.38,-19.25"/>
<text xml:space="preserve" text-anchor="middle" x="146.62" y="-5.75" font-family="Helvetica,sans-Serif" font-size="10.00">limits.h</text>
</a>
</g>
</g>
<!-- Node5&#45;&gt;Node6 -->
<g id="edge5_Node000005_Node000006" class="edge">
<title>Node5&#45;&gt;Node6</title>
<g id="a_edge5_Node000005_Node000006"><a xlink:title=" ">
<path fill="none" stroke="#63b8ff" d="M137.44,-55.08C138.8,-48.49 140.72,-39.21 142.45,-30.82"/>
<polygon fill="#63b8ff" stroke="#63b8ff" points="145.87,-31.59 144.46,-21.09 139.01,-30.18 145.87,-31.59"/>
</a>
</g>
</g>
</g>
</svg>
