<?xml version="1.0" encoding="UTF-8" standalone="no"?>
<!DOCTYPE svg PUBLIC "-//W3C//DTD SVG 1.1//EN"
 "http://www.w3.org/Graphics/SVG/1.1/DTD/svg11.dtd">
<!-- Generated by graphviz version 13.1.0 (20250701.0955)
 -->
<!-- Title: lua&#45;5.4.7/lundump.h Pages: 1 -->
<svg width="412pt" height="138pt"
 viewBox="0.00 0.00 412.00 138.00" xmlns="http://www.w3.org/2000/svg" xmlns:xlink="http://www.w3.org/1999/xlink">

<svg id="main" version="1.1" xmlns="http://www.w3.org/2000/svg" xmlns:xlink="http://www.w3.org/1999/xlink" xml:space="preserve">

<style type="text/css"><![CDATA[
.node, .edge {opacity: 0.7;}
.node.selected, .edge.selected {opacity: 1;}
.edge:hover path { stroke: red; }
.edge:hover polygon { stroke: red; fill: red; }
]]></style>
<script type="application/ecmascript" xlink:href="svg.min.js"/>
<svg id="graph" class="graph">
<g id="graph0" class="graph" transform="scale(1 1) rotate(0) translate(4 133.75)">
<title>lua&#45;5.4.7/lundump.h</title>
<!-- Node1 -->
<g id="Node000001" class="node">
<title>Node1</title>
<g id="a_Node000001"><a xlink:title=" ">
<polygon fill="#999999" stroke="#666666" points="238.62,-129.75 137.12,-129.75 137.12,-110.5 238.62,-110.5 238.62,-129.75"/>
<text xml:space="preserve" text-anchor="middle" x="187.88" y="-116.25" font-family="Helvetica,sans-Serif" font-size="10.00">lua&#45;5.4.7/lundump.h</text>
</a>
</g>
</g>
<!-- Node2 -->
<g id="Node000002" class="node">
<title>Node2</title>
<g id="a_Node000002"><a xlink:href="lapi_8c.html" target="_top" xlink:title=" ">
<polygon fill="white" stroke="#666666" points="79.75,-74.5 0,-74.5 0,-55.25 79.75,-55.25 79.75,-74.5"/>
<text xml:space="preserve" text-anchor="middle" x="39.88" y="-61" font-family="Helvetica,sans-Serif" font-size="10.00">lua&#45;5.4.7/lapi.c</text>
</a>
</g>
</g>
<!-- Node1&#45;&gt;Node2 -->
<g id="edge1_Node000001_Node000002" class="edge">
<title>Node1&#45;&gt;Node2</title>
<g id="a_edge1_Node000001_Node000002"><a xlink:title=" ">
<path fill="none" stroke="#63b8ff" d="M152.24,-106.3C125.33,-96.62 89.07,-83.57 65.1,-74.95"/>
<polygon fill="#63b8ff" stroke="#63b8ff" points="150.75,-109.49 161.34,-109.58 153.12,-102.9 150.75,-109.49"/>
</a>
</g>
</g>
<!-- Node4 -->
<g id="Node000004" class="node">
<title>Node4</title>
<g id="a_Node000004"><a xlink:href="ldo_8c.html" target="_top" xlink:title=" ">
<polygon fill="white" stroke="#666666" points="175.62,-74.5 98.12,-74.5 98.12,-55.25 175.62,-55.25 175.62,-74.5"/>
<text xml:space="preserve" text-anchor="middle" x="136.88" y="-61" font-family="Helvetica,sans-Serif" font-size="10.00">lua&#45;5.4.7/ldo.c</text>
</a>
</g>
</g>
<!-- Node1&#45;&gt;Node4 -->
<g id="edge3_Node000001_Node000004" class="edge">
<title>Node1&#45;&gt;Node4</title>
<g id="a_edge3_Node000001_Node000004"><a xlink:title=" ">
<path fill="none" stroke="#63b8ff" d="M171.51,-102.04C162.86,-93 152.58,-82.27 145.48,-74.86"/>
<polygon fill="#63b8ff" stroke="#63b8ff" points="168.96,-104.44 178.41,-109.24 174.02,-99.6 168.96,-104.44"/>
</a>
</g>
</g>
<!-- Node5 -->
<g id="Node000005" class="node">
<title>Node5</title>
<g id="a_Node000005"><a xlink:href="ldump_8c.html" target="_top" xlink:title=" ">
<polygon fill="white" stroke="#666666" points="284.38,-74.5 193.38,-74.5 193.38,-55.25 284.38,-55.25 284.38,-74.5"/>
<text xml:space="preserve" text-anchor="middle" x="238.88" y="-61" font-family="Helvetica,sans-Serif" font-size="10.00">lua&#45;5.4.7/ldump.c</text>
</a>
</g>
</g>
<!-- Node1&#45;&gt;Node5 -->
<g id="edge5_Node000001_Node000005" class="edge">
<title>Node1&#45;&gt;Node5</title>
<g id="a_edge5_Node000001_Node000005"><a xlink:title=" ">
<path fill="none" stroke="#63b8ff" d="M204.24,-102.04C212.89,-93 223.17,-82.27 230.27,-74.86"/>
<polygon fill="#63b8ff" stroke="#63b8ff" points="201.73,-99.6 197.34,-109.24 206.79,-104.44 201.73,-99.6"/>
</a>
</g>
</g>
<!-- Node6 -->
<g id="Node000006" class="node">
<title>Node6</title>
<g id="a_Node000006"><a xlink:href="lundump_8c.html" target="_top" xlink:title=" ">
<polygon fill="white" stroke="#666666" points="403.62,-74.5 302.12,-74.5 302.12,-55.25 403.62,-55.25 403.62,-74.5"/>
<text xml:space="preserve" text-anchor="middle" x="352.88" y="-61" font-family="Helvetica,sans-Serif" font-size="10.00">lua&#45;5.4.7/lundump.c</text>
</a>
</g>
</g>
<!-- Node1&#45;&gt;Node6 -->
<g id="edge7_Node000001_Node000006" class="edge">
<title>Node1&#45;&gt;Node6</title>
<g id="a_edge7_Node000001_Node000006"><a xlink:title=" ">
<path fill="none" stroke="#63b8ff" d="M226.81,-106.56C256.89,-96.85 297.8,-83.65 324.75,-74.95"/>
<polygon fill="#63b8ff" stroke="#63b8ff" points="225.75,-103.22 217.31,-109.63 227.9,-109.89 225.75,-103.22"/>
</a>
</g>
</g>
<!-- Node3 -->
<g id="Node000003" class="node">
<title>Node3</title>
<g id="a_Node000003"><a xlink:href="onelua_8c.html" target="_top" xlink:title=" ">
<polygon fill="white" stroke="#666666" points="234.5,-19.25 141.25,-19.25 141.25,0 234.5,0 234.5,-19.25"/>
<text xml:space="preserve" text-anchor="middle" x="187.88" y="-5.75" font-family="Helvetica,sans-Serif" font-size="10.00">lua&#45;5.4.7/onelua.c</text>
</a>
</g>
</g>
<!-- Node2&#45;&gt;Node3 -->
<g id="edge2_Node000002_Node000003" class="edge">
<title>Node2&#45;&gt;Node3</title>
<g id="a_edge2_Node000002_Node000003"><a xlink:title=" ">
<path fill="none" stroke="#63b8ff" d="M75.51,-51.05C102.42,-41.37 138.68,-28.32 162.65,-19.7"/>
<polygon fill="#63b8ff" stroke="#63b8ff" points="74.63,-47.65 66.41,-54.33 77,-54.24 74.63,-47.65"/>
</a>
</g>
</g>
<!-- Node4&#45;&gt;Node3 -->
<g id="edge4_Node000004_Node000003" class="edge">
<title>Node4&#45;&gt;Node3</title>
<g id="a_edge4_Node000004_Node000003"><a xlink:title=" ">
<path fill="none" stroke="#63b8ff" d="M153.24,-46.79C161.89,-37.75 172.17,-27.02 179.27,-19.61"/>
<polygon fill="#63b8ff" stroke="#63b8ff" points="150.73,-44.35 146.34,-53.99 155.79,-49.19 150.73,-44.35"/>
</a>
</g>
</g>
<!-- Node5&#45;&gt;Node3 -->
<g id="edge6_Node000005_Node000003" class="edge">
<title>Node5&#45;&gt;Node3</title>
<g id="a_edge6_Node000005_Node000003"><a xlink:title=" ">
<path fill="none" stroke="#63b8ff" d="M222.51,-46.79C213.86,-37.75 203.58,-27.02 196.48,-19.61"/>
<polygon fill="#63b8ff" stroke="#63b8ff" points="219.96,-49.19 229.41,-53.99 225.02,-44.35 219.96,-49.19"/>
</a>
</g>
</g>
<!-- Node6&#45;&gt;Node3 -->
<g id="edge8_Node000006_Node000003" class="edge">
<title>Node6&#45;&gt;Node3</title>
<g id="a_edge8_Node000006_Node000003"><a xlink:title=" ">
<path fill="none" stroke="#63b8ff" d="M313.94,-51.31C283.86,-41.6 242.95,-28.4 216,-19.7"/>
<polygon fill="#63b8ff" stroke="#63b8ff" points="312.85,-54.64 323.44,-54.38 315,-47.97 312.85,-54.64"/>
</a>
</g>
</g>
</g>
</svg>
</svg>

<style type='text/css'>
<![CDATA[
[data-mouse-over-selected='false'] { opacity: 0.7; }
[data-mouse-over-selected='true']  { opacity: 1.0; }
]]>
</style>
<script type="application/ecmascript"><![CDATA[
document.addEventListener('DOMContentLoaded', (event) => {
  highlightEdges();
  highlightAdjacentNodes();
});
]]></script>
</svg>
