<?xml version="1.0" encoding="UTF-8" standalone="no"?>
<!DOCTYPE svg PUBLIC "-//W3C//DTD SVG 1.1//EN"
 "http://www.w3.org/Graphics/SVG/1.1/DTD/svg11.dtd">
<!-- Generated by graphviz version 13.1.0 (20250701.0955)
 -->
<!-- Title: loadProtos Pages: 1 -->
<!--zoomable 83 -->

<svg id="main" version="1.1" xmlns="http://www.w3.org/2000/svg" xmlns:xlink="http://www.w3.org/1999/xlink" xml:space="preserve" onload="init(evt)">

<style type="text/css"><![CDATA[
.node, .edge {opacity: 0.7;}
.node.selected, .edge.selected {opacity: 1;}
.edge:hover path { stroke: red; }
.edge:hover polygon { stroke: red; fill: red; }
]]></style>

<defs>
  <circle id="rim" cx="0" cy="0" r="7"/>
  <circle id="rim2" cx="0" cy="0" r="3.5"/>
  <g id="zoomPlus">
    <use xlink:href="#rim" fill="#404040"><set attributeName="fill" to="#808080" begin="zoomplus.mouseover" end="zoomplus.mouseout"/></use>
    <path d="M-4,0h8M0,-4v8" fill="none" stroke="white" stroke-width="1.5" pointer-events="none"/>
  </g>
  <g id="zoomMin">
    <use xlink:href="#rim" fill="#404040"><set attributeName="fill" to="#808080" begin="zoomminus.mouseover" end="zoomminus.mouseout"/></use>
    <path d="M-4,0h8" fill="none" stroke="white" stroke-width="1.5" pointer-events="none"/>
  </g>
  <g id="arrowUp" transform="translate(30 24)">
    <use xlink:href="#rim"/>
    <path pointer-events="none" fill="none" stroke="white" stroke-width="1.5" d="M0,-3.0v7 M-2.5,-0.5L0,-3.0L2.5,-0.5"/>
  </g>
  <g id="arrowRight" transform="rotate(90) translate(36 -43)">
    <use xlink:href="#rim"/>
    <path pointer-events="none" fill="none" stroke="white" stroke-width="1.5" d="M0,-3.0v7 M-2.5,-0.5L0,-3.0L2.5,-0.5"/>
  </g>
  <g id="arrowDown" transform="rotate(180) translate(-30 -48)">
    <use xlink:href="#rim"/>
    <path pointer-events="none" fill="none" stroke="white" stroke-width="1.5" d="M0,-3.0v7 M-2.5,-0.5L0,-3.0L2.5,-0.5"/>
  </g>
  <g id="arrowLeft" transform="rotate(270) translate(-36 17)">
    <use xlink:href="#rim"/>
    <path pointer-events="none" fill="none" stroke="white" stroke-width="1.5" d="M0,-3.0v7 M-2.5,-0.5L0,-3.0L2.5,-0.5"/>
  </g>
  <g id="resetDef">
    <use xlink:href="#rim2" fill="#404040"><set attributeName="fill" to="#808080" begin="reset.mouseover" end="reset.mouseout"/></use>
  </g>
</defs>
<script type="application/ecmascript">
var viewWidth = 841;
var viewHeight = 83;
var sectionId = 'dynsection-13';
</script>
<script type="application/ecmascript" xlink:href="svg.min.js"/>
<svg id="graph" class="graph">
<g id="viewport">
<title>loadProtos</title>
<!-- Node1 -->
<g id="Node000001" class="node">
<title>Node1</title>
<g id="a_Node000001"><a xlink:title=" ">
<polygon fill="#999999" stroke="#666666" points="833,-56.25 770.5,-56.25 770.5,-37 833,-37 833,-56.25"/>
<text xml:space="preserve" text-anchor="middle" x="801.75" y="-42.75" font-family="Helvetica,sans-Serif" font-size="10.00">loadProtos</text>
</a>
</g>
</g>
<!-- Node2 -->
<g id="Node000002" class="node">
<title>Node2</title>
<g id="a_Node000002"><a xlink:href="lundump_8c.html#a894435708ede05d12c7e81033dae380f" target="_top" xlink:title=" ">
<polygon fill="white" stroke="#666666" points="734.5,-56.25 663,-56.25 663,-37 734.5,-37 734.5,-56.25"/>
<text xml:space="preserve" text-anchor="middle" x="698.75" y="-42.75" font-family="Helvetica,sans-Serif" font-size="10.00">loadFunction</text>
</a>
</g>
</g>
<!-- Node1&#45;&gt;Node2 -->
<g id="edge1_Node000001_Node000002" class="edge">
<title>Node1&#45;&gt;Node2</title>
<g id="a_edge1_Node000001_Node000002"><a xlink:title=" ">
<path fill="none" stroke="#63b8ff" d="M758.8,-39.96C750.82,-39.8 742.56,-39.87 734.83,-40.16"/>
<polygon fill="#63b8ff" stroke="#63b8ff" points="758.54,-43.45 768.66,-40.31 758.79,-36.46 758.54,-43.45"/>
</a>
</g>
</g>
<!-- Node2&#45;&gt;Node1 -->
<g id="edge2_Node000002_Node000001" class="edge">
<title>Node2&#45;&gt;Node1</title>
<g id="a_edge2_Node000002_Node000001"><a xlink:title=" ">
<path fill="none" stroke="#63b8ff" d="M746.16,-53.36C754.31,-53.43 762.6,-53.28 770.17,-52.88"/>
<polygon fill="#63b8ff" stroke="#63b8ff" points="746.42,-49.86 736.34,-53.12 746.25,-56.86 746.42,-49.86"/>
</a>
</g>
</g>
<!-- Node3 -->
<g id="Node000003" class="node">
<title>Node3</title>
<g id="a_Node000003"><a xlink:href="lundump_8c.html#a74a2100c0aa2009b2ddb4c84f971d8b8" target="_top" xlink:title=" ">
<polygon fill="white" stroke="#666666" points="627,-56.25 551,-56.25 551,-37 627,-37 627,-56.25"/>
<text xml:space="preserve" text-anchor="middle" x="589" y="-42.75" font-family="Helvetica,sans-Serif" font-size="10.00">luaU_undump</text>
</a>
</g>
</g>
<!-- Node2&#45;&gt;Node3 -->
<g id="edge3_Node000002_Node000003" class="edge">
<title>Node2&#45;&gt;Node3</title>
<g id="a_edge3_Node000002_Node000003"><a xlink:title=" ">
<path fill="none" stroke="#63b8ff" d="M651.31,-46.62C643.32,-46.62 635.12,-46.62 627.41,-46.62"/>
<polygon fill="#63b8ff" stroke="#63b8ff" points="651.25,-50.13 661.25,-46.63 651.25,-43.13 651.25,-50.13"/>
</a>
</g>
</g>
<!-- Node4 -->
<g id="Node000004" class="node">
<title>Node4</title>
<g id="a_Node000004"><a xlink:href="ldo_8c.html#a14df0fa118ab124dfcc6d227bdd38ca5" target="_top" xlink:title=" ">
<polygon fill="white" stroke="#666666" points="515,-56.25 463.75,-56.25 463.75,-37 515,-37 515,-56.25"/>
<text xml:space="preserve" text-anchor="middle" x="489.38" y="-42.75" font-family="Helvetica,sans-Serif" font-size="10.00">f_parser</text>
</a>
</g>
</g>
<!-- Node3&#45;&gt;Node4 -->
<g id="edge4_Node000003_Node000004" class="edge">
<title>Node3&#45;&gt;Node4</title>
<g id="a_edge4_Node000003_Node000004"><a xlink:title=" ">
<path fill="none" stroke="#63b8ff" d="M539.26,-46.62C530.92,-46.62 522.58,-46.62 515.22,-46.62"/>
<polygon fill="#63b8ff" stroke="#63b8ff" points="539.02,-50.13 549.02,-46.63 539.02,-43.13 539.02,-50.13"/>
</a>
</g>
</g>
<!-- Node5 -->
<g id="Node000005" class="node">
<title>Node5</title>
<g id="a_Node000005"><a xlink:href="ldo_8c.html#a451f5a18e45a63e1da2eed7d8a2060f5" target="_top" xlink:title=" ">
<polygon fill="white" stroke="#666666" points="427.75,-56.25 318.75,-56.25 318.75,-37 427.75,-37 427.75,-56.25"/>
<text xml:space="preserve" text-anchor="middle" x="373.25" y="-42.75" font-family="Helvetica,sans-Serif" font-size="10.00">luaD_protectedparser</text>
</a>
</g>
</g>
<!-- Node4&#45;&gt;Node5 -->
<g id="edge5_Node000004_Node000005" class="edge">
<title>Node4&#45;&gt;Node5</title>
<g id="a_edge5_Node000004_Node000005"><a xlink:title=" ">
<path fill="none" stroke="#63b8ff" d="M451.99,-46.62C444.42,-46.62 436.3,-46.62 428.25,-46.62"/>
<polygon fill="#63b8ff" stroke="#63b8ff" points="451.82,-50.13 461.82,-46.63 451.82,-43.13 451.82,-50.13"/>
</a>
</g>
</g>
<!-- Node6 -->
<g id="Node000006" class="node">
<title>Node6</title>
<g id="a_Node000006"><a xlink:href="lapi_8c.html#aa7a94c45f3eec251e5b258d7482ffe87" target="_top" xlink:title=" ">
<polygon fill="white" stroke="#666666" points="282.75,-56.25 230.75,-56.25 230.75,-37 282.75,-37 282.75,-56.25"/>
<text xml:space="preserve" text-anchor="middle" x="256.75" y="-42.75" font-family="Helvetica,sans-Serif" font-size="10.00">lua_load</text>
</a>
</g>
</g>
<!-- Node5&#45;&gt;Node6 -->
<g id="edge6_Node000005_Node000006" class="edge">
<title>Node5&#45;&gt;Node6</title>
<g id="a_edge6_Node000005_Node000006"><a xlink:title=" ">
<path fill="none" stroke="#63b8ff" d="M307.12,-46.62C298.63,-46.62 290.37,-46.62 283.12,-46.62"/>
<polygon fill="#63b8ff" stroke="#63b8ff" points="306.84,-50.13 316.84,-46.63 306.84,-43.13 306.84,-50.13"/>
</a>
</g>
</g>
<!-- Node7 -->
<g id="Node000007" class="node">
<title>Node7</title>
<g id="a_Node000007"><a xlink:href="lbaselib_8c.html#a4a9a3613fcf80fe033e044f7e19bed69" target="_top" xlink:title=" ">
<polygon fill="white" stroke="#666666" points="65.12,-75.25 6.38,-75.25 6.38,-56 65.12,-56 65.12,-75.25"/>
<text xml:space="preserve" text-anchor="middle" x="35.75" y="-61.75" font-family="Helvetica,sans-Serif" font-size="10.00">luaB_load</text>
</a>
</g>
</g>
<!-- Node6&#45;&gt;Node7 -->
<g id="edge7_Node000006_Node000007" class="edge">
<title>Node6&#45;&gt;Node7</title>
<g id="a_edge7_Node000006_Node000007"><a xlink:title=" ">
<path fill="none" stroke="#63b8ff" d="M219.43,-59.9C211.4,-62.28 202.87,-64.39 194.75,-65.62 150,-72.43 97.3,-70.46 65.49,-68.21"/>
<polygon fill="#63b8ff" stroke="#63b8ff" points="220.42,-63.26 228.89,-56.89 218.3,-56.59 220.42,-63.26"/>
</a>
</g>
</g>
<!-- Node8 -->
<g id="Node000008" class="node">
<title>Node8</title>
<g id="a_Node000008"><a xlink:href="lauxlib_8c.html#a867ca33afe2cb3d07bfc238cbb438f61" target="_top" xlink:title=" ">
<polygon fill="white" stroke="#666666" points="194.75,-56.25 107.5,-56.25 107.5,-37 194.75,-37 194.75,-56.25"/>
<text xml:space="preserve" text-anchor="middle" x="151.12" y="-42.75" font-family="Helvetica,sans-Serif" font-size="10.00">luaL_loadbufferx</text>
</a>
</g>
</g>
<!-- Node6&#45;&gt;Node8 -->
<g id="edge8_Node000006_Node000008" class="edge">
<title>Node6&#45;&gt;Node8</title>
<g id="a_edge8_Node000006_Node000008"><a xlink:title=" ">
<path fill="none" stroke="#63b8ff" d="M219.06,-46.62C211.27,-46.62 202.98,-46.62 194.98,-46.62"/>
<polygon fill="#63b8ff" stroke="#63b8ff" points="218.89,-50.13 228.89,-46.63 218.89,-43.13 218.89,-50.13"/>
</a>
</g>
</g>
<!-- Node9 -->
<g id="Node000009" class="node">
<title>Node9</title>
<g id="a_Node000009"><a xlink:href="lauxlib_8c.html#a6ac3b2572d5ce635c4617aed2a0eb649" target="_top" xlink:title=" ">
<polygon fill="white" stroke="#666666" points="188.75,-19.25 113.5,-19.25 113.5,0 188.75,0 188.75,-19.25"/>
<text xml:space="preserve" text-anchor="middle" x="151.12" y="-5.75" font-family="Helvetica,sans-Serif" font-size="10.00">luaL_loadfilex</text>
</a>
</g>
</g>
<!-- Node6&#45;&gt;Node9 -->
<g id="edge10_Node000006_Node000009" class="edge">
<title>Node6&#45;&gt;Node9</title>
<g id="a_edge10_Node000006_Node000009"><a xlink:title=" ">
<path fill="none" stroke="#63b8ff" d="M219.9,-33.82C206.88,-29.18 192.37,-23.99 180.13,-19.62"/>
<polygon fill="#63b8ff" stroke="#63b8ff" points="218.38,-37 228.98,-37.06 220.73,-30.41 218.38,-37"/>
</a>
</g>
</g>
<!-- Node8&#45;&gt;Node7 -->
<g id="edge9_Node000008_Node000007" class="edge">
<title>Node8&#45;&gt;Node7</title>
<g id="a_edge9_Node000008_Node000007"><a xlink:title=" ">
<path fill="none" stroke="#63b8ff" d="M95.99,-55.7C85.49,-57.46 74.88,-59.24 65.59,-60.79"/>
<polygon fill="#63b8ff" stroke="#63b8ff" points="96.49,-59.16 105.77,-54.06 95.33,-52.26 96.49,-59.16"/>
</a>
</g>
</g>
<!-- Node10 -->
<g id="Node000010" class="node">
<title>Node10</title>
<g id="a_Node000010"><a xlink:href="lbaselib_8c.html#aeb4cb83db820979bbdd7710109b52957" target="_top" xlink:title=" ">
<polygon fill="white" stroke="#666666" points="71.5,-19.25 0,-19.25 0,0 71.5,0 71.5,-19.25"/>
<text xml:space="preserve" text-anchor="middle" x="35.75" y="-5.75" font-family="Helvetica,sans-Serif" font-size="10.00">luaB_loadfile</text>
</a>
</g>
</g>
<!-- Node9&#45;&gt;Node10 -->
<g id="edge11_Node000009_Node000010" class="edge">
<title>Node9&#45;&gt;Node10</title>
<g id="a_edge11_Node000009_Node000010"><a xlink:title=" ">
<path fill="none" stroke="#63b8ff" d="M101.79,-9.62C91.66,-9.62 81.17,-9.62 71.65,-9.62"/>
<polygon fill="#63b8ff" stroke="#63b8ff" points="101.49,-13.13 111.49,-9.63 101.49,-6.13 101.49,-13.13"/>
</a>
</g>
</g>
</g>
</svg>

<g id="navigator" transform="translate(0 0)" fill="#404254">
  <rect fill="#f2f5e9" fill-opacity="0.5" stroke="#606060" stroke-width=".5" x="0" y="0" width="60" height="60"/>
  <use id="zoomplus" xlink:href="#zoomPlus" x="17" y="9" onmousedown="handleZoom(evt,'in')"/>
  <use id="zoomminus" xlink:href="#zoomMin" x="42" y="9" onmousedown="handleZoom(evt,'out')"/>
  <use id="reset" xlink:href="#resetDef" x="30" y="36" onmousedown="handleReset()"/>
   <use id="arrowup" xlink:href="#arrowUp" x="0" y="0" onmousedown="handlePan(0,-1)"/>
  <use id="arrowright" xlink:href="#arrowRight" x="0" y="0" onmousedown="handlePan(1,0)"/>
  <use id="arrowdown" xlink:href="#arrowDown" x="0" y="0" onmousedown="handlePan(0,1)"/>
  <use id="arrowleft" xlink:href="#arrowLeft" x="0" y="0" onmousedown="handlePan(-1,0)"/>
</g>
<svg viewBox="0 0 15 15" width="100%" height="30px" preserveAspectRatio="xMaxYMin meet">
 <g id="arrow_out" transform="scale(0.3 0.3)">
  <a xlink:href="lundump_8c_a6a14558eb41ec5a096e4094f033531fe_icgraph_org.svg" target="_base">
   <rect id="button" ry="5" rx="5" y="6" x="6" height="38" width="38"
        fill="#f2f5e9" fill-opacity="0.5" stroke="#606060" stroke-width="1.0"/>
   <path id="arrow"
     d="M 11.500037,31.436501 C 11.940474,20.09759 22.043105,11.32322 32.158766,21.979434 L 37.068811,17.246167 C 37.068811,17.246167 37.088388,32 37.088388,32 L 22.160133,31.978069 C 22.160133,31.978069 26.997745,27.140456 26.997745,27.140456 C 18.528582,18.264221 13.291696,25.230495 11.500037,31.436501 z"
     style="fill:#404040;"/>
  </a>
 </g>
</svg>

<style type='text/css'>
<![CDATA[
[data-mouse-over-selected='false'] { opacity: 0.7; }
[data-mouse-over-selected='true']  { opacity: 1.0; }
]]>
</style>
<script type="application/ecmascript"><![CDATA[
document.addEventListener('DOMContentLoaded', (event) => {
  highlightEdges();
  highlightAdjacentNodes();
});
]]></script>
</svg>
