<?xml version="1.0" encoding="UTF-8" standalone="no"?>
<!DOCTYPE svg PUBLIC "-//W3C//DTD SVG 1.1//EN"
 "http://www.w3.org/Graphics/SVG/1.1/DTD/svg11.dtd">
<!-- Generated by graphviz version 13.1.0 (20250701.0955)
 -->
<!-- Title: loadNumber Pages: 1 -->
<svg width="964pt" height="83pt"
 viewBox="0.00 0.00 964.00 83.00" xmlns="http://www.w3.org/2000/svg" xmlns:xlink="http://www.w3.org/1999/xlink">
<g id="graph0" class="graph" transform="scale(1 1) rotate(0) translate(4 79.25)">
<title>loadNumber</title>
<!-- Node1 -->
<g id="Node000001" class="node">
<title>Node1</title>
<g id="a_Node000001"><a xlink:title=" ">
<polygon fill="#999999" stroke="#666666" points="956.25,-38.25 887.75,-38.25 887.75,-19 956.25,-19 956.25,-38.25"/>
<text xml:space="preserve" text-anchor="middle" x="922" y="-24.75" font-family="Helvetica,sans-Serif" font-size="10.00">loadNumber</text>
</a>
</g>
</g>
<!-- Node2 -->
<g id="Node000002" class="node">
<title>Node2</title>
<g id="a_Node000002"><a xlink:href="lundump_8c.html#aef0399a03c281a51786c05a14b74b637" target="_top" xlink:title=" ">
<polygon fill="white" stroke="#666666" points="736.75,-56.25 663,-56.25 663,-37 736.75,-37 736.75,-56.25"/>
<text xml:space="preserve" text-anchor="middle" x="699.88" y="-42.75" font-family="Helvetica,sans-Serif" font-size="10.00">checkHeader</text>
</a>
</g>
</g>
<!-- Node1&#45;&gt;Node2 -->
<g id="edge1_Node000001_Node000002" class="edge">
<title>Node1&#45;&gt;Node2</title>
<g id="a_edge1_Node000001_Node000002"><a xlink:title=" ">
<path fill="none" stroke="#63b8ff" d="M876.28,-32.28C835.28,-35.63 775.31,-40.54 737.19,-43.66"/>
<polygon fill="#63b8ff" stroke="#63b8ff" points="876.38,-35.79 886.06,-31.48 875.81,-28.81 876.38,-35.79"/>
</a>
</g>
</g>
<!-- Node11 -->
<g id="Node000011" class="node">
<title>Node11</title>
<g id="a_Node000011"><a xlink:href="lundump_8c.html#a4a169ad6d9eefbca97c3a62641d65e48" target="_top" xlink:title=" ">
<polygon fill="white" stroke="#666666" points="851.75,-19.25 772.75,-19.25 772.75,0 851.75,0 851.75,-19.25"/>
<text xml:space="preserve" text-anchor="middle" x="812.25" y="-5.75" font-family="Helvetica,sans-Serif" font-size="10.00">loadConstants</text>
</a>
</g>
</g>
<!-- Node1&#45;&gt;Node11 -->
<g id="edge11_Node000001_Node000011" class="edge">
<title>Node1&#45;&gt;Node11</title>
<g id="a_edge11_Node000001_Node000011"><a xlink:title=" ">
<path fill="none" stroke="#63b8ff" d="M876.35,-20.75C868.27,-19.33 859.9,-17.85 852.01,-16.46"/>
<polygon fill="#63b8ff" stroke="#63b8ff" points="875.55,-24.16 886.01,-22.45 876.77,-17.27 875.55,-24.16"/>
</a>
</g>
</g>
<!-- Node3 -->
<g id="Node000003" class="node">
<title>Node3</title>
<g id="a_Node000003"><a xlink:href="lundump_8c.html#a74a2100c0aa2009b2ddb4c84f971d8b8" target="_top" xlink:title=" ">
<polygon fill="white" stroke="#666666" points="627,-56.25 551,-56.25 551,-37 627,-37 627,-56.25"/>
<text xml:space="preserve" text-anchor="middle" x="589" y="-42.75" font-family="Helvetica,sans-Serif" font-size="10.00">luaU_undump</text>
</a>
</g>
</g>
<!-- Node2&#45;&gt;Node3 -->
<g id="edge2_Node000002_Node000003" class="edge">
<title>Node2&#45;&gt;Node3</title>
<g id="a_edge2_Node000002_Node000003"><a xlink:title=" ">
<path fill="none" stroke="#63b8ff" d="M651.11,-46.62C643.11,-46.62 634.9,-46.62 627.21,-46.62"/>
<polygon fill="#63b8ff" stroke="#63b8ff" points="651.11,-50.13 661.11,-46.63 651.11,-43.13 651.11,-50.13"/>
</a>
</g>
</g>
<!-- Node4 -->
<g id="Node000004" class="node">
<title>Node4</title>
<g id="a_Node000004"><a xlink:href="ldo_8c.html#a14df0fa118ab124dfcc6d227bdd38ca5" target="_top" xlink:title=" ">
<polygon fill="white" stroke="#666666" points="515,-56.25 463.75,-56.25 463.75,-37 515,-37 515,-56.25"/>
<text xml:space="preserve" text-anchor="middle" x="489.38" y="-42.75" font-family="Helvetica,sans-Serif" font-size="10.00">f_parser</text>
</a>
</g>
</g>
<!-- Node3&#45;&gt;Node4 -->
<g id="edge3_Node000003_Node000004" class="edge">
<title>Node3&#45;&gt;Node4</title>
<g id="a_edge3_Node000003_Node000004"><a xlink:title=" ">
<path fill="none" stroke="#63b8ff" d="M539.26,-46.62C530.92,-46.62 522.58,-46.62 515.22,-46.62"/>
<polygon fill="#63b8ff" stroke="#63b8ff" points="539.02,-50.13 549.02,-46.63 539.02,-43.13 539.02,-50.13"/>
</a>
</g>
</g>
<!-- Node5 -->
<g id="Node000005" class="node">
<title>Node5</title>
<g id="a_Node000005"><a xlink:href="ldo_8c.html#a451f5a18e45a63e1da2eed7d8a2060f5" target="_top" xlink:title=" ">
<polygon fill="white" stroke="#666666" points="427.75,-56.25 318.75,-56.25 318.75,-37 427.75,-37 427.75,-56.25"/>
<text xml:space="preserve" text-anchor="middle" x="373.25" y="-42.75" font-family="Helvetica,sans-Serif" font-size="10.00">luaD_protectedparser</text>
</a>
</g>
</g>
<!-- Node4&#45;&gt;Node5 -->
<g id="edge4_Node000004_Node000005" class="edge">
<title>Node4&#45;&gt;Node5</title>
<g id="a_edge4_Node000004_Node000005"><a xlink:title=" ">
<path fill="none" stroke="#63b8ff" d="M451.99,-46.62C444.42,-46.62 436.3,-46.62 428.25,-46.62"/>
<polygon fill="#63b8ff" stroke="#63b8ff" points="451.82,-50.13 461.82,-46.63 451.82,-43.13 451.82,-50.13"/>
</a>
</g>
</g>
<!-- Node6 -->
<g id="Node000006" class="node">
<title>Node6</title>
<g id="a_Node000006"><a xlink:href="lapi_8c.html#aa7a94c45f3eec251e5b258d7482ffe87" target="_top" xlink:title=" ">
<polygon fill="white" stroke="#666666" points="282.75,-56.25 230.75,-56.25 230.75,-37 282.75,-37 282.75,-56.25"/>
<text xml:space="preserve" text-anchor="middle" x="256.75" y="-42.75" font-family="Helvetica,sans-Serif" font-size="10.00">lua_load</text>
</a>
</g>
</g>
<!-- Node5&#45;&gt;Node6 -->
<g id="edge5_Node000005_Node000006" class="edge">
<title>Node5&#45;&gt;Node6</title>
<g id="a_edge5_Node000005_Node000006"><a xlink:title=" ">
<path fill="none" stroke="#63b8ff" d="M307.12,-46.62C298.63,-46.62 290.37,-46.62 283.12,-46.62"/>
<polygon fill="#63b8ff" stroke="#63b8ff" points="306.84,-50.13 316.84,-46.63 306.84,-43.13 306.84,-50.13"/>
</a>
</g>
</g>
<!-- Node7 -->
<g id="Node000007" class="node">
<title>Node7</title>
<g id="a_Node000007"><a xlink:href="lbaselib_8c.html#a4a9a3613fcf80fe033e044f7e19bed69" target="_top" xlink:title=" ">
<polygon fill="white" stroke="#666666" points="65.12,-75.25 6.38,-75.25 6.38,-56 65.12,-56 65.12,-75.25"/>
<text xml:space="preserve" text-anchor="middle" x="35.75" y="-61.75" font-family="Helvetica,sans-Serif" font-size="10.00">luaB_load</text>
</a>
</g>
</g>
<!-- Node6&#45;&gt;Node7 -->
<g id="edge6_Node000006_Node000007" class="edge">
<title>Node6&#45;&gt;Node7</title>
<g id="a_edge6_Node000006_Node000007"><a xlink:title=" ">
<path fill="none" stroke="#63b8ff" d="M219.43,-59.9C211.4,-62.28 202.87,-64.39 194.75,-65.62 150,-72.43 97.3,-70.46 65.49,-68.21"/>
<polygon fill="#63b8ff" stroke="#63b8ff" points="220.42,-63.26 228.89,-56.89 218.3,-56.59 220.42,-63.26"/>
</a>
</g>
</g>
<!-- Node8 -->
<g id="Node000008" class="node">
<title>Node8</title>
<g id="a_Node000008"><a xlink:href="lauxlib_8c.html#a867ca33afe2cb3d07bfc238cbb438f61" target="_top" xlink:title=" ">
<polygon fill="white" stroke="#666666" points="194.75,-56.25 107.5,-56.25 107.5,-37 194.75,-37 194.75,-56.25"/>
<text xml:space="preserve" text-anchor="middle" x="151.12" y="-42.75" font-family="Helvetica,sans-Serif" font-size="10.00">luaL_loadbufferx</text>
</a>
</g>
</g>
<!-- Node6&#45;&gt;Node8 -->
<g id="edge7_Node000006_Node000008" class="edge">
<title>Node6&#45;&gt;Node8</title>
<g id="a_edge7_Node000006_Node000008"><a xlink:title=" ">
<path fill="none" stroke="#63b8ff" d="M219.06,-46.62C211.27,-46.62 202.98,-46.62 194.98,-46.62"/>
<polygon fill="#63b8ff" stroke="#63b8ff" points="218.89,-50.13 228.89,-46.63 218.89,-43.13 218.89,-50.13"/>
</a>
</g>
</g>
<!-- Node9 -->
<g id="Node000009" class="node">
<title>Node9</title>
<g id="a_Node000009"><a xlink:href="lauxlib_8c.html#a6ac3b2572d5ce635c4617aed2a0eb649" target="_top" xlink:title=" ">
<polygon fill="white" stroke="#666666" points="188.75,-19.25 113.5,-19.25 113.5,0 188.75,0 188.75,-19.25"/>
<text xml:space="preserve" text-anchor="middle" x="151.12" y="-5.75" font-family="Helvetica,sans-Serif" font-size="10.00">luaL_loadfilex</text>
</a>
</g>
</g>
<!-- Node6&#45;&gt;Node9 -->
<g id="edge9_Node000006_Node000009" class="edge">
<title>Node6&#45;&gt;Node9</title>
<g id="a_edge9_Node000006_Node000009"><a xlink:title=" ">
<path fill="none" stroke="#63b8ff" d="M219.9,-33.82C206.88,-29.18 192.37,-23.99 180.13,-19.62"/>
<polygon fill="#63b8ff" stroke="#63b8ff" points="218.38,-37 228.98,-37.06 220.73,-30.41 218.38,-37"/>
</a>
</g>
</g>
<!-- Node8&#45;&gt;Node7 -->
<g id="edge8_Node000008_Node000007" class="edge">
<title>Node8&#45;&gt;Node7</title>
<g id="a_edge8_Node000008_Node000007"><a xlink:title=" ">
<path fill="none" stroke="#63b8ff" d="M95.99,-55.7C85.49,-57.46 74.88,-59.24 65.59,-60.79"/>
<polygon fill="#63b8ff" stroke="#63b8ff" points="96.49,-59.16 105.77,-54.06 95.33,-52.26 96.49,-59.16"/>
</a>
</g>
</g>
<!-- Node10 -->
<g id="Node000010" class="node">
<title>Node10</title>
<g id="a_Node000010"><a xlink:href="lbaselib_8c.html#aeb4cb83db820979bbdd7710109b52957" target="_top" xlink:title=" ">
<polygon fill="white" stroke="#666666" points="71.5,-19.25 0,-19.25 0,0 71.5,0 71.5,-19.25"/>
<text xml:space="preserve" text-anchor="middle" x="35.75" y="-5.75" font-family="Helvetica,sans-Serif" font-size="10.00">luaB_loadfile</text>
</a>
</g>
</g>
<!-- Node9&#45;&gt;Node10 -->
<g id="edge10_Node000009_Node000010" class="edge">
<title>Node9&#45;&gt;Node10</title>
<g id="a_edge10_Node000009_Node000010"><a xlink:title=" ">
<path fill="none" stroke="#63b8ff" d="M101.79,-9.62C91.66,-9.62 81.17,-9.62 71.65,-9.62"/>
<polygon fill="#63b8ff" stroke="#63b8ff" points="101.49,-13.13 111.49,-9.63 101.49,-6.13 101.49,-13.13"/>
</a>
</g>
</g>
<!-- Node12 -->
<g id="Node000012" class="node">
<title>Node12</title>
<g id="a_Node000012"><a xlink:href="lundump_8c.html#a894435708ede05d12c7e81033dae380f" target="_top" xlink:title=" ">
<polygon fill="white" stroke="#666666" points="735.62,-19.25 664.12,-19.25 664.12,0 735.62,0 735.62,-19.25"/>
<text xml:space="preserve" text-anchor="middle" x="699.88" y="-5.75" font-family="Helvetica,sans-Serif" font-size="10.00">loadFunction</text>
</a>
</g>
</g>
<!-- Node11&#45;&gt;Node12 -->
<g id="edge12_Node000011_Node000012" class="edge">
<title>Node11&#45;&gt;Node12</title>
<g id="a_edge12_Node000011_Node000012"><a xlink:title=" ">
<path fill="none" stroke="#63b8ff" d="M761.04,-9.62C752.62,-9.62 744.06,-9.62 736.12,-9.62"/>
<polygon fill="#63b8ff" stroke="#63b8ff" points="760.82,-13.13 770.82,-9.63 760.82,-6.13 760.82,-13.13"/>
</a>
</g>
</g>
<!-- Node12&#45;&gt;Node3 -->
<g id="edge15_Node000012_Node000003" class="edge">
<title>Node12&#45;&gt;Node3</title>
<g id="a_edge15_Node000012_Node000003"><a xlink:title=" ">
<path fill="none" stroke="#63b8ff" d="M658.25,-23.43C645.46,-27.78 631.59,-32.49 619.71,-36.53"/>
<polygon fill="#63b8ff" stroke="#63b8ff" points="659.35,-26.75 667.69,-20.22 657.1,-20.13 659.35,-26.75"/>
</a>
</g>
</g>
<!-- Node13 -->
<g id="Node000013" class="node">
<title>Node13</title>
<g id="a_Node000013"><a xlink:href="lundump_8c.html#a6a14558eb41ec5a096e4094f033531fe" target="_top" xlink:title=" ">
<polygon fill="white" stroke="#666666" points="620.25,-19.25 557.75,-19.25 557.75,0 620.25,0 620.25,-19.25"/>
<text xml:space="preserve" text-anchor="middle" x="589" y="-5.75" font-family="Helvetica,sans-Serif" font-size="10.00">loadProtos</text>
</a>
</g>
</g>
<!-- Node12&#45;&gt;Node13 -->
<g id="edge13_Node000012_Node000013" class="edge">
<title>Node12&#45;&gt;Node13</title>
<g id="a_edge13_Node000012_Node000013"><a xlink:title=" ">
<path fill="none" stroke="#63b8ff" d="M652.4,-2.94C641.64,-2.76 630.46,-2.95 620.58,-3.49"/>
<polygon fill="#63b8ff" stroke="#63b8ff" points="652.22,-6.44 662.31,-3.23 652.42,0.56 652.22,-6.44"/>
</a>
</g>
</g>
<!-- Node13&#45;&gt;Node12 -->
<g id="edge14_Node000013_Node000012" class="edge">
<title>Node13&#45;&gt;Node12</title>
<g id="a_edge14_Node000013_Node000012"><a xlink:title=" ">
<path fill="none" stroke="#63b8ff" d="M632.07,-16.22C642.57,-16.49 653.71,-16.41 663.83,-15.98"/>
<polygon fill="#63b8ff" stroke="#63b8ff" points="632.22,-12.72 622.09,-15.82 631.95,-19.72 632.22,-12.72"/>
</a>
</g>
</g>
</g>
</svg>
