<?xml version="1.0" encoding="UTF-8" standalone="no"?>
<!DOCTYPE svg PUBLIC "-//W3C//DTD SVG 1.1//EN"
 "http://www.w3.org/Graphics/SVG/1.1/DTD/svg11.dtd">
<!-- Generated by graphviz version 13.1.0 (20250701.0955)
 -->
<!-- Title: loadInt Pages: 1 -->
<!--zoomable 201 -->

<svg id="main" version="1.1" xmlns="http://www.w3.org/2000/svg" xmlns:xlink="http://www.w3.org/1999/xlink" xml:space="preserve" onload="init(evt)">

<style type="text/css"><![CDATA[
.node, .edge {opacity: 0.7;}
.node.selected, .edge.selected {opacity: 1;}
.edge:hover path { stroke: red; }
.edge:hover polygon { stroke: red; fill: red; }
]]></style>

<defs>
  <circle id="rim" cx="0" cy="0" r="7"/>
  <circle id="rim2" cx="0" cy="0" r="3.5"/>
  <g id="zoomPlus">
    <use xlink:href="#rim" fill="#404040"><set attributeName="fill" to="#808080" begin="zoomplus.mouseover" end="zoomplus.mouseout"/></use>
    <path d="M-4,0h8M0,-4v8" fill="none" stroke="white" stroke-width="1.5" pointer-events="none"/>
  </g>
  <g id="zoomMin">
    <use xlink:href="#rim" fill="#404040"><set attributeName="fill" to="#808080" begin="zoomminus.mouseover" end="zoomminus.mouseout"/></use>
    <path d="M-4,0h8" fill="none" stroke="white" stroke-width="1.5" pointer-events="none"/>
  </g>
  <g id="arrowUp" transform="translate(30 24)">
    <use xlink:href="#rim"/>
    <path pointer-events="none" fill="none" stroke="white" stroke-width="1.5" d="M0,-3.0v7 M-2.5,-0.5L0,-3.0L2.5,-0.5"/>
  </g>
  <g id="arrowRight" transform="rotate(90) translate(36 -43)">
    <use xlink:href="#rim"/>
    <path pointer-events="none" fill="none" stroke="white" stroke-width="1.5" d="M0,-3.0v7 M-2.5,-0.5L0,-3.0L2.5,-0.5"/>
  </g>
  <g id="arrowDown" transform="rotate(180) translate(-30 -48)">
    <use xlink:href="#rim"/>
    <path pointer-events="none" fill="none" stroke="white" stroke-width="1.5" d="M0,-3.0v7 M-2.5,-0.5L0,-3.0L2.5,-0.5"/>
  </g>
  <g id="arrowLeft" transform="rotate(270) translate(-36 17)">
    <use xlink:href="#rim"/>
    <path pointer-events="none" fill="none" stroke="white" stroke-width="1.5" d="M0,-3.0v7 M-2.5,-0.5L0,-3.0L2.5,-0.5"/>
  </g>
  <g id="resetDef">
    <use xlink:href="#rim2" fill="#404040"><set attributeName="fill" to="#808080" begin="reset.mouseover" end="reset.mouseout"/></use>
  </g>
</defs>
<script type="application/ecmascript">
var viewWidth = 939;
var viewHeight = 201;
var sectionId = 'dynsection-10';
</script>
<script type="application/ecmascript" xlink:href="svg.min.js"/>
<svg id="graph" class="graph">
<g id="viewport">
<title>loadInt</title>
<!-- Node1 -->
<g id="Node000001" class="node">
<title>Node1</title>
<g id="a_Node000001"><a xlink:title=" ">
<polygon fill="#999999" stroke="#666666" points="930.75,-97.92 885.5,-97.92 885.5,-78.67 930.75,-78.67 930.75,-97.92"/>
<text xml:space="preserve" text-anchor="middle" x="908.12" y="-84.42" font-family="Helvetica,sans-Serif" font-size="10.00">loadInt</text>
</a>
</g>
</g>
<!-- Node2 -->
<g id="Node000002" class="node">
<title>Node2</title>
<g id="a_Node000002"><a xlink:href="lundump_8c.html#acd554fb4ba9399a7a48919de12daa53f" target="_top" xlink:title=" ">
<polygon fill="white" stroke="#666666" points="838.62,-192.92 781.38,-192.92 781.38,-173.67 838.62,-173.67 838.62,-192.92"/>
<text xml:space="preserve" text-anchor="middle" x="810" y="-179.42" font-family="Helvetica,sans-Serif" font-size="10.00">loadCode</text>
</a>
</g>
</g>
<!-- Node1&#45;&gt;Node2 -->
<g id="edge1_Node000001_Node000002" class="edge">
<title>Node1&#45;&gt;Node2</title>
<g id="a_edge1_Node000001_Node000002"><a xlink:title=" ">
<path fill="none" stroke="#63b8ff" d="M894.03,-107.78C883.23,-122.94 866.91,-143.93 849.5,-159.29 843.6,-164.5 836.43,-169.31 829.89,-173.22"/>
<polygon fill="#63b8ff" stroke="#63b8ff" points="896.88,-109.8 899.71,-99.59 891.13,-105.82 896.88,-109.8"/>
</a>
</g>
</g>
<!-- Node3 -->
<g id="Node000003" class="node">
<title>Node3</title>
<g id="a_Node000003"><a xlink:href="lundump_8c.html#a894435708ede05d12c7e81033dae380f" target="_top" xlink:title=" ">
<polygon fill="white" stroke="#666666" points="734.5,-97.92 663,-97.92 663,-78.67 734.5,-78.67 734.5,-97.92"/>
<text xml:space="preserve" text-anchor="middle" x="698.75" y="-84.42" font-family="Helvetica,sans-Serif" font-size="10.00">loadFunction</text>
</a>
</g>
</g>
<!-- Node1&#45;&gt;Node3 -->
<g id="edge18_Node000001_Node000003" class="edge">
<title>Node1&#45;&gt;Node3</title>
<g id="a_edge18_Node000001_Node000003"><a xlink:title=" ">
<path fill="none" stroke="#63b8ff" d="M887.53,-105.38C877.01,-113.41 863.39,-122.13 849.5,-126.29 815.87,-136.38 804.55,-134.86 770.5,-126.29 749.14,-120.92 727.19,-107.7 713.52,-98.37"/>
<polygon fill="#63b8ff" stroke="#63b8ff" points="889.48,-108.3 895.05,-99.29 885.08,-102.86 889.48,-108.3"/>
</a>
</g>
</g>
<!-- Node4 -->
<g id="Node000004" class="node">
<title>Node4</title>
<g id="a_Node000004"><a xlink:href="lundump_8c.html#a6a14558eb41ec5a096e4094f033531fe" target="_top" xlink:title=" ">
<polygon fill="white" stroke="#666666" points="620.25,-78.92 557.75,-78.92 557.75,-59.67 620.25,-59.67 620.25,-78.92"/>
<text xml:space="preserve" text-anchor="middle" x="589" y="-65.42" font-family="Helvetica,sans-Serif" font-size="10.00">loadProtos</text>
</a>
</g>
</g>
<!-- Node1&#45;&gt;Node4 -->
<g id="edge19_Node000001_Node000004" class="edge">
<title>Node1&#45;&gt;Node4</title>
<g id="a_edge19_Node000001_Node000004"><a xlink:title=" ">
<path fill="none" stroke="#63b8ff" d="M897.87,-67.98C888.51,-50.15 872.17,-25.37 849.5,-14.29 764.06,27.47 647.61,-33.93 605.77,-59.23"/>
<polygon fill="#63b8ff" stroke="#63b8ff" points="894.7,-69.45 902.24,-76.89 900.98,-66.37 894.7,-69.45"/>
</a>
</g>
</g>
<!-- Node13 -->
<g id="Node000013" class="node">
<title>Node13</title>
<g id="a_Node000013"><a xlink:href="lundump_8c.html#a4a169ad6d9eefbca97c3a62641d65e48" target="_top" xlink:title=" ">
<polygon fill="white" stroke="#666666" points="849.5,-116.92 770.5,-116.92 770.5,-97.67 849.5,-97.67 849.5,-116.92"/>
<text xml:space="preserve" text-anchor="middle" x="810" y="-103.42" font-family="Helvetica,sans-Serif" font-size="10.00">loadConstants</text>
</a>
</g>
</g>
<!-- Node1&#45;&gt;Node13 -->
<g id="edge14_Node000001_Node000013" class="edge">
<title>Node1&#45;&gt;Node13</title>
<g id="a_edge14_Node000001_Node000013"><a xlink:title=" ">
<path fill="none" stroke="#63b8ff" d="M874.28,-94.78C866.38,-96.35 857.86,-98.03 849.72,-99.64"/>
<polygon fill="#63b8ff" stroke="#63b8ff" points="874.7,-98.27 883.83,-92.9 873.34,-91.4 874.7,-98.27"/>
</a>
</g>
</g>
<!-- Node14 -->
<g id="Node000014" class="node">
<title>Node14</title>
<g id="a_Node000014"><a xlink:href="lundump_8c.html#a121ddfe27d3762c4b5ed14bd3746af7a" target="_top" xlink:title=" ">
<polygon fill="white" stroke="#666666" points="841.25,-79.92 778.75,-79.92 778.75,-60.67 841.25,-60.67 841.25,-79.92"/>
<text xml:space="preserve" text-anchor="middle" x="810" y="-66.42" font-family="Helvetica,sans-Serif" font-size="10.00">loadDebug</text>
</a>
</g>
</g>
<!-- Node1&#45;&gt;Node14 -->
<g id="edge16_Node000001_Node000014" class="edge">
<title>Node1&#45;&gt;Node14</title>
<g id="a_edge16_Node000001_Node000014"><a xlink:title=" ">
<path fill="none" stroke="#63b8ff" d="M874.32,-82.15C863.68,-80.16 851.93,-77.96 841.47,-76"/>
<polygon fill="#63b8ff" stroke="#63b8ff" points="873.35,-85.53 883.83,-83.93 874.64,-78.65 873.35,-85.53"/>
</a>
</g>
</g>
<!-- Node15 -->
<g id="Node000015" class="node">
<title>Node15</title>
<g id="a_Node000015"><a xlink:href="lundump_8c.html#a08010fa069d0ec9c6345dfe053001bd7" target="_top" xlink:title=" ">
<polygon fill="white" stroke="#666666" points="847.62,-42.92 772.38,-42.92 772.38,-23.67 847.62,-23.67 847.62,-42.92"/>
<text xml:space="preserve" text-anchor="middle" x="810" y="-29.42" font-family="Helvetica,sans-Serif" font-size="10.00">loadUpvalues</text>
</a>
</g>
</g>
<!-- Node1&#45;&gt;Node15 -->
<g id="edge20_Node000001_Node000015" class="edge">
<title>Node1&#45;&gt;Node15</title>
<g id="a_edge20_Node000001_Node000015"><a xlink:title=" ">
<path fill="none" stroke="#63b8ff" d="M883.31,-71.99C873.09,-65.26 860.9,-57.58 849.5,-51.29 844.46,-48.51 838.92,-45.76 833.65,-43.27"/>
<polygon fill="#63b8ff" stroke="#63b8ff" points="881.25,-74.82 891.51,-77.47 885.14,-69 881.25,-74.82"/>
</a>
</g>
</g>
<!-- Node2&#45;&gt;Node3 -->
<g id="edge2_Node000002_Node000003" class="edge">
<title>Node2&#45;&gt;Node3</title>
<g id="a_edge2_Node000002_Node000003"><a xlink:title=" ">
<path fill="none" stroke="#63b8ff" d="M781.72,-167.38C777.85,-164.82 774,-162.08 770.5,-159.29 745.99,-139.78 720.97,-112.61 708.27,-98.19"/>
<polygon fill="#63b8ff" stroke="#63b8ff" points="779.57,-170.17 789.9,-172.54 783.31,-164.25 779.57,-170.17"/>
</a>
</g>
</g>
<!-- Node3&#45;&gt;Node4 -->
<g id="edge3_Node000003_Node000004" class="edge">
<title>Node3&#45;&gt;Node4</title>
<g id="a_edge3_Node000003_Node000004"><a xlink:title=" ">
<path fill="none" stroke="#63b8ff" d="M662.43,-75.68C648.9,-72.74 633.57,-70.11 620.52,-68.52"/>
<polygon fill="#63b8ff" stroke="#63b8ff" points="661.29,-79.01 671.83,-77.88 662.88,-72.19 661.29,-79.01"/>
</a>
</g>
</g>
<!-- Node5 -->
<g id="Node000005" class="node">
<title>Node5</title>
<g id="a_Node000005"><a xlink:href="lundump_8c.html#a74a2100c0aa2009b2ddb4c84f971d8b8" target="_top" xlink:title=" ">
<polygon fill="white" stroke="#666666" points="627,-115.92 551,-115.92 551,-96.67 627,-96.67 627,-115.92"/>
<text xml:space="preserve" text-anchor="middle" x="589" y="-102.42" font-family="Helvetica,sans-Serif" font-size="10.00">luaU_undump</text>
</a>
</g>
</g>
<!-- Node3&#45;&gt;Node5 -->
<g id="edge5_Node000003_Node000005" class="edge">
<title>Node3&#45;&gt;Node5</title>
<g id="a_edge5_Node000003_Node000005"><a xlink:title=" ">
<path fill="none" stroke="#63b8ff" d="M651.59,-96C643.52,-97.35 635.21,-98.74 627.41,-100.04"/>
<polygon fill="#63b8ff" stroke="#63b8ff" points="651.99,-99.49 661.27,-94.39 650.83,-92.58 651.99,-99.49"/>
</a>
</g>
</g>
<!-- Node4&#45;&gt;Node3 -->
<g id="edge4_Node000004_Node000003" class="edge">
<title>Node4&#45;&gt;Node3</title>
<g id="a_edge4_Node000004_Node000003"><a xlink:title=" ">
<path fill="none" stroke="#63b8ff" d="M625.55,-81.95C637.51,-84.55 650.85,-86.89 662.77,-88.49"/>
<polygon fill="#63b8ff" stroke="#63b8ff" points="626.59,-78.6 616.06,-79.74 625,-85.42 626.59,-78.6"/>
</a>
</g>
</g>
<!-- Node6 -->
<g id="Node000006" class="node">
<title>Node6</title>
<g id="a_Node000006"><a xlink:href="ldo_8c.html#a14df0fa118ab124dfcc6d227bdd38ca5" target="_top" xlink:title=" ">
<polygon fill="white" stroke="#666666" points="515,-115.92 463.75,-115.92 463.75,-96.67 515,-96.67 515,-115.92"/>
<text xml:space="preserve" text-anchor="middle" x="489.38" y="-102.42" font-family="Helvetica,sans-Serif" font-size="10.00">f_parser</text>
</a>
</g>
</g>
<!-- Node5&#45;&gt;Node6 -->
<g id="edge6_Node000005_Node000006" class="edge">
<title>Node5&#45;&gt;Node6</title>
<g id="a_edge6_Node000005_Node000006"><a xlink:title=" ">
<path fill="none" stroke="#63b8ff" d="M539.26,-106.29C530.92,-106.29 522.58,-106.29 515.22,-106.29"/>
<polygon fill="#63b8ff" stroke="#63b8ff" points="539.02,-109.79 549.02,-106.29 539.02,-102.79 539.02,-109.79"/>
</a>
</g>
</g>
<!-- Node7 -->
<g id="Node000007" class="node">
<title>Node7</title>
<g id="a_Node000007"><a xlink:href="ldo_8c.html#a451f5a18e45a63e1da2eed7d8a2060f5" target="_top" xlink:title=" ">
<polygon fill="white" stroke="#666666" points="427.75,-115.92 318.75,-115.92 318.75,-96.67 427.75,-96.67 427.75,-115.92"/>
<text xml:space="preserve" text-anchor="middle" x="373.25" y="-102.42" font-family="Helvetica,sans-Serif" font-size="10.00">luaD_protectedparser</text>
</a>
</g>
</g>
<!-- Node6&#45;&gt;Node7 -->
<g id="edge7_Node000006_Node000007" class="edge">
<title>Node6&#45;&gt;Node7</title>
<g id="a_edge7_Node000006_Node000007"><a xlink:title=" ">
<path fill="none" stroke="#63b8ff" d="M451.99,-106.29C444.42,-106.29 436.3,-106.29 428.25,-106.29"/>
<polygon fill="#63b8ff" stroke="#63b8ff" points="451.82,-109.79 461.82,-106.29 451.82,-102.79 451.82,-109.79"/>
</a>
</g>
</g>
<!-- Node8 -->
<g id="Node000008" class="node">
<title>Node8</title>
<g id="a_Node000008"><a xlink:href="lapi_8c.html#aa7a94c45f3eec251e5b258d7482ffe87" target="_top" xlink:title=" ">
<polygon fill="white" stroke="#666666" points="282.75,-115.92 230.75,-115.92 230.75,-96.67 282.75,-96.67 282.75,-115.92"/>
<text xml:space="preserve" text-anchor="middle" x="256.75" y="-102.42" font-family="Helvetica,sans-Serif" font-size="10.00">lua_load</text>
</a>
</g>
</g>
<!-- Node7&#45;&gt;Node8 -->
<g id="edge8_Node000007_Node000008" class="edge">
<title>Node7&#45;&gt;Node8</title>
<g id="a_edge8_Node000007_Node000008"><a xlink:title=" ">
<path fill="none" stroke="#63b8ff" d="M307.12,-106.29C298.63,-106.29 290.37,-106.29 283.12,-106.29"/>
<polygon fill="#63b8ff" stroke="#63b8ff" points="306.84,-109.79 316.84,-106.29 306.84,-102.79 306.84,-109.79"/>
</a>
</g>
</g>
<!-- Node9 -->
<g id="Node000009" class="node">
<title>Node9</title>
<g id="a_Node000009"><a xlink:href="lbaselib_8c.html#a4a9a3613fcf80fe033e044f7e19bed69" target="_top" xlink:title=" ">
<polygon fill="white" stroke="#666666" points="65.12,-134.92 6.38,-134.92 6.38,-115.67 65.12,-115.67 65.12,-134.92"/>
<text xml:space="preserve" text-anchor="middle" x="35.75" y="-121.42" font-family="Helvetica,sans-Serif" font-size="10.00">luaB_load</text>
</a>
</g>
</g>
<!-- Node8&#45;&gt;Node9 -->
<g id="edge9_Node000008_Node000009" class="edge">
<title>Node8&#45;&gt;Node9</title>
<g id="a_edge9_Node000008_Node000009"><a xlink:title=" ">
<path fill="none" stroke="#63b8ff" d="M219.43,-119.57C211.4,-121.94 202.87,-124.06 194.75,-125.29 150,-132.1 97.3,-130.13 65.49,-127.87"/>
<polygon fill="#63b8ff" stroke="#63b8ff" points="220.42,-122.92 228.89,-116.55 218.3,-116.25 220.42,-122.92"/>
</a>
</g>
</g>
<!-- Node10 -->
<g id="Node000010" class="node">
<title>Node10</title>
<g id="a_Node000010"><a xlink:href="lauxlib_8c.html#a867ca33afe2cb3d07bfc238cbb438f61" target="_top" xlink:title=" ">
<polygon fill="white" stroke="#666666" points="194.75,-115.92 107.5,-115.92 107.5,-96.67 194.75,-96.67 194.75,-115.92"/>
<text xml:space="preserve" text-anchor="middle" x="151.12" y="-102.42" font-family="Helvetica,sans-Serif" font-size="10.00">luaL_loadbufferx</text>
</a>
</g>
</g>
<!-- Node8&#45;&gt;Node10 -->
<g id="edge10_Node000008_Node000010" class="edge">
<title>Node8&#45;&gt;Node10</title>
<g id="a_edge10_Node000008_Node000010"><a xlink:title=" ">
<path fill="none" stroke="#63b8ff" d="M219.06,-106.29C211.27,-106.29 202.98,-106.29 194.98,-106.29"/>
<polygon fill="#63b8ff" stroke="#63b8ff" points="218.89,-109.79 228.89,-106.29 218.89,-102.79 218.89,-109.79"/>
</a>
</g>
</g>
<!-- Node11 -->
<g id="Node000011" class="node">
<title>Node11</title>
<g id="a_Node000011"><a xlink:href="lauxlib_8c.html#a6ac3b2572d5ce635c4617aed2a0eb649" target="_top" xlink:title=" ">
<polygon fill="white" stroke="#666666" points="188.75,-78.92 113.5,-78.92 113.5,-59.67 188.75,-59.67 188.75,-78.92"/>
<text xml:space="preserve" text-anchor="middle" x="151.12" y="-65.42" font-family="Helvetica,sans-Serif" font-size="10.00">luaL_loadfilex</text>
</a>
</g>
</g>
<!-- Node8&#45;&gt;Node11 -->
<g id="edge12_Node000008_Node000011" class="edge">
<title>Node8&#45;&gt;Node11</title>
<g id="a_edge12_Node000008_Node000011"><a xlink:title=" ">
<path fill="none" stroke="#63b8ff" d="M219.9,-93.49C206.88,-88.84 192.37,-83.66 180.13,-79.29"/>
<polygon fill="#63b8ff" stroke="#63b8ff" points="218.38,-96.67 228.98,-96.73 220.73,-90.07 218.38,-96.67"/>
</a>
</g>
</g>
<!-- Node10&#45;&gt;Node9 -->
<g id="edge11_Node000010_Node000009" class="edge">
<title>Node10&#45;&gt;Node9</title>
<g id="a_edge11_Node000010_Node000009"><a xlink:title=" ">
<path fill="none" stroke="#63b8ff" d="M95.99,-115.36C85.49,-117.12 74.88,-118.9 65.59,-120.46"/>
<polygon fill="#63b8ff" stroke="#63b8ff" points="96.49,-118.83 105.77,-113.73 95.33,-111.93 96.49,-118.83"/>
</a>
</g>
</g>
<!-- Node12 -->
<g id="Node000012" class="node">
<title>Node12</title>
<g id="a_Node000012"><a xlink:href="lbaselib_8c.html#aeb4cb83db820979bbdd7710109b52957" target="_top" xlink:title=" ">
<polygon fill="white" stroke="#666666" points="71.5,-78.92 0,-78.92 0,-59.67 71.5,-59.67 71.5,-78.92"/>
<text xml:space="preserve" text-anchor="middle" x="35.75" y="-65.42" font-family="Helvetica,sans-Serif" font-size="10.00">luaB_loadfile</text>
</a>
</g>
</g>
<!-- Node11&#45;&gt;Node12 -->
<g id="edge13_Node000011_Node000012" class="edge">
<title>Node11&#45;&gt;Node12</title>
<g id="a_edge13_Node000011_Node000012"><a xlink:title=" ">
<path fill="none" stroke="#63b8ff" d="M101.79,-69.29C91.66,-69.29 81.17,-69.29 71.65,-69.29"/>
<polygon fill="#63b8ff" stroke="#63b8ff" points="101.49,-72.79 111.49,-69.29 101.49,-65.79 101.49,-72.79"/>
</a>
</g>
</g>
<!-- Node13&#45;&gt;Node3 -->
<g id="edge15_Node000013_Node000003" class="edge">
<title>Node13&#45;&gt;Node3</title>
<g id="a_edge15_Node000013_Node000003"><a xlink:title=" ">
<path fill="none" stroke="#63b8ff" d="M758.85,-98.57C750.73,-97.16 742.47,-95.72 734.81,-94.39"/>
<polygon fill="#63b8ff" stroke="#63b8ff" points="758.23,-102.02 768.68,-100.28 759.43,-95.12 758.23,-102.02"/>
</a>
</g>
</g>
<!-- Node14&#45;&gt;Node3 -->
<g id="edge17_Node000014_Node000003" class="edge">
<title>Node14&#45;&gt;Node3</title>
<g id="a_edge17_Node000014_Node000003"><a xlink:title=" ">
<path fill="none" stroke="#63b8ff" d="M767.08,-77.2C756.44,-78.95 745.13,-80.82 734.86,-82.51"/>
<polygon fill="#63b8ff" stroke="#63b8ff" points="767.49,-80.68 776.78,-75.6 766.35,-73.77 767.49,-80.68"/>
</a>
</g>
</g>
<!-- Node15&#45;&gt;Node3 -->
<g id="edge21_Node000015_Node000003" class="edge">
<title>Node15&#45;&gt;Node3</title>
<g id="a_edge21_Node000015_Node000003"><a xlink:title=" ">
<path fill="none" stroke="#63b8ff" d="M776.6,-48.31C774.53,-49.31 772.48,-50.31 770.5,-51.29 752.74,-60.08 732.74,-70.6 718.55,-78.17"/>
<polygon fill="#63b8ff" stroke="#63b8ff" points="778.03,-51.51 785.56,-44.05 775.03,-45.18 778.03,-51.51"/>
</a>
</g>
</g>
</g>
</svg>

<g id="navigator" transform="translate(0 0)" fill="#404254">
  <rect fill="#f2f5e9" fill-opacity="0.5" stroke="#606060" stroke-width=".5" x="0" y="0" width="60" height="60"/>
  <use id="zoomplus" xlink:href="#zoomPlus" x="17" y="9" onmousedown="handleZoom(evt,'in')"/>
  <use id="zoomminus" xlink:href="#zoomMin" x="42" y="9" onmousedown="handleZoom(evt,'out')"/>
  <use id="reset" xlink:href="#resetDef" x="30" y="36" onmousedown="handleReset()"/>
   <use id="arrowup" xlink:href="#arrowUp" x="0" y="0" onmousedown="handlePan(0,-1)"/>
  <use id="arrowright" xlink:href="#arrowRight" x="0" y="0" onmousedown="handlePan(1,0)"/>
  <use id="arrowdown" xlink:href="#arrowDown" x="0" y="0" onmousedown="handlePan(0,1)"/>
  <use id="arrowleft" xlink:href="#arrowLeft" x="0" y="0" onmousedown="handlePan(-1,0)"/>
</g>
<svg viewBox="0 0 15 15" width="100%" height="30px" preserveAspectRatio="xMaxYMin meet">
 <g id="arrow_out" transform="scale(0.3 0.3)">
  <a xlink:href="lundump_8c_abc34d9e099b17660e4eaf21b2039ef03_icgraph_org.svg" target="_base">
   <rect id="button" ry="5" rx="5" y="6" x="6" height="38" width="38"
        fill="#f2f5e9" fill-opacity="0.5" stroke="#606060" stroke-width="1.0"/>
   <path id="arrow"
     d="M 11.500037,31.436501 C 11.940474,20.09759 22.043105,11.32322 32.158766,21.979434 L 37.068811,17.246167 C 37.068811,17.246167 37.088388,32 37.088388,32 L 22.160133,31.978069 C 22.160133,31.978069 26.997745,27.140456 26.997745,27.140456 C 18.528582,18.264221 13.291696,25.230495 11.500037,31.436501 z"
     style="fill:#404040;"/>
  </a>
 </g>
</svg>

<style type='text/css'>
<![CDATA[
[data-mouse-over-selected='false'] { opacity: 0.7; }
[data-mouse-over-selected='true']  { opacity: 1.0; }
]]>
</style>
<script type="application/ecmascript"><![CDATA[
document.addEventListener('DOMContentLoaded', (event) => {
  highlightEdges();
  highlightAdjacentNodes();
});
]]></script>
</svg>
