<?xml version="1.0" encoding="UTF-8" standalone="no"?>
<!DOCTYPE svg PUBLIC "-//W3C//DTD SVG 1.1//EN"
 "http://www.w3.org/Graphics/SVG/1.1/DTD/svg11.dtd">
<!-- Generated by graphviz version 13.1.0 (20250701.0955)
 -->
<!-- Title: loadByte Pages: 1 -->
<!--zoomable 396 -->

<svg id="main" version="1.1" xmlns="http://www.w3.org/2000/svg" xmlns:xlink="http://www.w3.org/1999/xlink" xml:space="preserve" onload="init(evt)">

<style type="text/css"><![CDATA[
.node, .edge {opacity: 0.7;}
.node.selected, .edge.selected {opacity: 1;}
.edge:hover path { stroke: red; }
.edge:hover polygon { stroke: red; fill: red; }
]]></style>

<defs>
  <circle id="rim" cx="0" cy="0" r="7"/>
  <circle id="rim2" cx="0" cy="0" r="3.5"/>
  <g id="zoomPlus">
    <use xlink:href="#rim" fill="#404040"><set attributeName="fill" to="#808080" begin="zoomplus.mouseover" end="zoomplus.mouseout"/></use>
    <path d="M-4,0h8M0,-4v8" fill="none" stroke="white" stroke-width="1.5" pointer-events="none"/>
  </g>
  <g id="zoomMin">
    <use xlink:href="#rim" fill="#404040"><set attributeName="fill" to="#808080" begin="zoomminus.mouseover" end="zoomminus.mouseout"/></use>
    <path d="M-4,0h8" fill="none" stroke="white" stroke-width="1.5" pointer-events="none"/>
  </g>
  <g id="arrowUp" transform="translate(30 24)">
    <use xlink:href="#rim"/>
    <path pointer-events="none" fill="none" stroke="white" stroke-width="1.5" d="M0,-3.0v7 M-2.5,-0.5L0,-3.0L2.5,-0.5"/>
  </g>
  <g id="arrowRight" transform="rotate(90) translate(36 -43)">
    <use xlink:href="#rim"/>
    <path pointer-events="none" fill="none" stroke="white" stroke-width="1.5" d="M0,-3.0v7 M-2.5,-0.5L0,-3.0L2.5,-0.5"/>
  </g>
  <g id="arrowDown" transform="rotate(180) translate(-30 -48)">
    <use xlink:href="#rim"/>
    <path pointer-events="none" fill="none" stroke="white" stroke-width="1.5" d="M0,-3.0v7 M-2.5,-0.5L0,-3.0L2.5,-0.5"/>
  </g>
  <g id="arrowLeft" transform="rotate(270) translate(-36 17)">
    <use xlink:href="#rim"/>
    <path pointer-events="none" fill="none" stroke="white" stroke-width="1.5" d="M0,-3.0v7 M-2.5,-0.5L0,-3.0L2.5,-0.5"/>
  </g>
  <g id="resetDef">
    <use xlink:href="#rim2" fill="#404040"><set attributeName="fill" to="#808080" begin="reset.mouseover" end="reset.mouseout"/></use>
  </g>
</defs>
<script type="application/ecmascript">
var viewWidth = 1367;
var viewHeight = 396;
var sectionId = 'dynsection-5';
</script>
<script type="application/ecmascript" xlink:href="svg.min.js"/>
<svg id="graph" class="graph">
<g id="viewport">
<title>loadByte</title>
<!-- Node1 -->
<g id="Node000001" class="node">
<title>Node1</title>
<g id="a_Node000001"><a xlink:title=" ">
<polygon fill="#999999" stroke="#666666" points="1359.25,-283.25 1305,-283.25 1305,-264 1359.25,-264 1359.25,-283.25"/>
<text xml:space="preserve" text-anchor="middle" x="1332.12" y="-269.75" font-family="Helvetica,sans-Serif" font-size="10.00">loadByte</text>
</a>
</g>
</g>
<!-- Node2 -->
<g id="Node000002" class="node">
<title>Node2</title>
<g id="a_Node000002"><a xlink:href="lundump_8c.html#aef0399a03c281a51786c05a14b74b637" target="_top" xlink:title=" ">
<polygon fill="white" stroke="#666666" points="1157.75,-359.25 1084,-359.25 1084,-340 1157.75,-340 1157.75,-359.25"/>
<text xml:space="preserve" text-anchor="middle" x="1120.88" y="-345.75" font-family="Helvetica,sans-Serif" font-size="10.00">checkHeader</text>
</a>
</g>
</g>
<!-- Node1&#45;&gt;Node2 -->
<g id="edge1_Node000001_Node000002" class="edge">
<title>Node1&#45;&gt;Node2</title>
<g id="a_edge1_Node000001_Node000002"><a xlink:title=" ">
<path fill="none" stroke="#63b8ff" d="M1314.71,-291.67C1303.1,-303.26 1286.53,-317.6 1269,-325.62 1233.58,-341.84 1188.96,-347.28 1158.2,-349.02"/>
<polygon fill="#63b8ff" stroke="#63b8ff" points="1317.11,-294.23 1321.51,-284.59 1312.06,-289.38 1317.11,-294.23"/>
</a>
</g>
</g>
<!-- Node3 -->
<g id="Node000003" class="node">
<title>Node3</title>
<g id="a_Node000003"><a xlink:href="lundump_8c.html#a74a2100c0aa2009b2ddb4c84f971d8b8" target="_top" xlink:title=" ">
<polygon fill="white" stroke="#666666" points="627,-359.25 551,-359.25 551,-340 627,-340 627,-359.25"/>
<text xml:space="preserve" text-anchor="middle" x="589" y="-345.75" font-family="Helvetica,sans-Serif" font-size="10.00">luaU_undump</text>
</a>
</g>
</g>
<!-- Node1&#45;&gt;Node3 -->
<g id="edge36_Node000001_Node000003" class="edge">
<title>Node1&#45;&gt;Node3</title>
<g id="a_edge36_Node000001_Node000003"><a xlink:title=" ">
<path fill="none" stroke="#63b8ff" d="M1319.93,-293.46C1309.11,-310.84 1291.11,-335.48 1269,-349.62 1212.11,-386.02 1189.41,-387.62 1121.88,-387.62 1121.88,-387.62 1121.88,-387.62 809,-387.62 743.59,-387.62 668.79,-370.97 625.71,-359.71"/>
<polygon fill="#63b8ff" stroke="#63b8ff" points="1322.84,-295.42 1324.95,-285.03 1316.82,-291.84 1322.84,-295.42"/>
</a>
</g>
</g>
<!-- Node11 -->
<g id="Node000011" class="node">
<title>Node11</title>
<g id="a_Node000011"><a xlink:href="lundump_8c.html#adc6b144eed9f7f11d35f27ef83901e99" target="_top" xlink:title=" ">
<polygon fill="white" stroke="#666666" points="1263,-55.25 1199.75,-55.25 1199.75,-36 1263,-36 1263,-55.25"/>
<text xml:space="preserve" text-anchor="middle" x="1231.38" y="-41.75" font-family="Helvetica,sans-Serif" font-size="10.00">fchecksize</text>
</a>
</g>
</g>
<!-- Node1&#45;&gt;Node11 -->
<g id="edge11_Node000001_Node000011" class="edge">
<title>Node1&#45;&gt;Node11</title>
<g id="a_edge11_Node000001_Node000011"><a xlink:title=" ">
<path fill="none" stroke="#63b8ff" d="M1329.4,-252.28C1325.23,-212.62 1311.58,-126.44 1269,-69.62 1264.81,-64.03 1258.9,-59.35 1253.05,-55.66"/>
<polygon fill="#63b8ff" stroke="#63b8ff" points="1325.9,-252.5 1330.32,-262.13 1332.87,-251.84 1325.9,-252.5"/>
</a>
</g>
</g>
<!-- Node12 -->
<g id="Node000012" class="node">
<title>Node12</title>
<g id="a_Node000012"><a xlink:href="lundump_8c.html#a4a169ad6d9eefbca97c3a62641d65e48" target="_top" xlink:title=" ">
<polygon fill="white" stroke="#666666" points="849.5,-207.25 770.5,-207.25 770.5,-188 849.5,-188 849.5,-207.25"/>
<text xml:space="preserve" text-anchor="middle" x="810" y="-193.75" font-family="Helvetica,sans-Serif" font-size="10.00">loadConstants</text>
</a>
</g>
</g>
<!-- Node1&#45;&gt;Node12 -->
<g id="edge12_Node000001_Node000012" class="edge">
<title>Node1&#45;&gt;Node12</title>
<g id="a_edge12_Node000001_Node000012"><a xlink:title=" ">
<path fill="none" stroke="#63b8ff" d="M1293.39,-273.62C1251.49,-273.62 1181.85,-273.62 1121.88,-273.62 1121.88,-273.62 1121.88,-273.62 1013.5,-273.62 939.15,-273.62 858.67,-228.16 826.02,-207.56"/>
<polygon fill="#63b8ff" stroke="#63b8ff" points="1293.19,-277.13 1303.19,-273.63 1293.19,-270.13 1293.19,-277.13"/>
</a>
</g>
</g>
<!-- Node13 -->
<g id="Node000013" class="node">
<title>Node13</title>
<g id="a_Node000013"><a xlink:href="lundump_8c.html#a894435708ede05d12c7e81033dae380f" target="_top" xlink:title=" ">
<polygon fill="white" stroke="#666666" points="734.5,-170.25 663,-170.25 663,-151 734.5,-151 734.5,-170.25"/>
<text xml:space="preserve" text-anchor="middle" x="698.75" y="-156.75" font-family="Helvetica,sans-Serif" font-size="10.00">loadFunction</text>
</a>
</g>
</g>
<!-- Node1&#45;&gt;Node13 -->
<g id="edge17_Node000001_Node000013" class="edge">
<title>Node1&#45;&gt;Node13</title>
<g id="a_edge17_Node000001_Node000013"><a xlink:title=" ">
<path fill="none" stroke="#63b8ff" d="M1293.69,-284.62C1252.1,-295.84 1182.79,-311.62 1121.88,-311.62 1121.88,-311.62 1121.88,-311.62 914.25,-311.62 815.88,-311.62 730.8,-204.13 706.62,-170.53"/>
<polygon fill="#63b8ff" stroke="#63b8ff" points="1294.48,-288.03 1303.19,-281.99 1292.62,-281.28 1294.48,-288.03"/>
</a>
</g>
</g>
<!-- Node15 -->
<g id="Node000015" class="node">
<title>Node15</title>
<g id="a_Node000015"><a xlink:href="lundump_8c.html#aeba7bac26dc16767005aba9c51d6210c" target="_top" xlink:title=" ">
<polygon fill="white" stroke="#666666" points="1269,-207.25 1193.75,-207.25 1193.75,-188 1269,-188 1269,-207.25"/>
<text xml:space="preserve" text-anchor="middle" x="1231.38" y="-193.75" font-family="Helvetica,sans-Serif" font-size="10.00">loadUnsigned</text>
</a>
</g>
</g>
<!-- Node1&#45;&gt;Node15 -->
<g id="edge18_Node000001_Node000015" class="edge">
<title>Node1&#45;&gt;Node15</title>
<g id="a_edge18_Node000001_Node000015"><a xlink:title=" ">
<path fill="none" stroke="#63b8ff" d="M1309.09,-256.67C1289.49,-241.58 1261.48,-220.02 1245.29,-207.56"/>
<polygon fill="#63b8ff" stroke="#63b8ff" points="1306.96,-259.44 1317.02,-262.77 1311.23,-253.89 1306.96,-259.44"/>
</a>
</g>
</g>
<!-- Node19 -->
<g id="Node000019" class="node">
<title>Node19</title>
<g id="a_Node000019"><a xlink:href="lundump_8c.html#a08010fa069d0ec9c6345dfe053001bd7" target="_top" xlink:title=" ">
<polygon fill="white" stroke="#666666" points="847.62,-19.25 772.38,-19.25 772.38,0 847.62,0 847.62,-19.25"/>
<text xml:space="preserve" text-anchor="middle" x="810" y="-5.75" font-family="Helvetica,sans-Serif" font-size="10.00">loadUpvalues</text>
</a>
</g>
</g>
<!-- Node1&#45;&gt;Node19 -->
<g id="edge35_Node000001_Node000019" class="edge">
<title>Node1&#45;&gt;Node19</title>
<g id="a_edge35_Node000001_Node000019"><a xlink:title=" ">
<path fill="none" stroke="#63b8ff" d="M1321.33,-253.7C1295.82,-204.95 1222.25,-83.62 1121.88,-83.62 1121.88,-83.62 1121.88,-83.62 1013.5,-83.62 939.76,-83.62 859.6,-39.8 826.56,-19.6"/>
<polygon fill="#63b8ff" stroke="#63b8ff" points="1318.07,-255 1325.73,-262.33 1324.31,-251.83 1318.07,-255"/>
</a>
</g>
</g>
<!-- Node2&#45;&gt;Node3 -->
<g id="edge2_Node000002_Node000003" class="edge">
<title>Node2&#45;&gt;Node3</title>
<g id="a_edge2_Node000002_Node000003"><a xlink:title=" ">
<path fill="none" stroke="#63b8ff" d="M1072.49,-349.62C1031.22,-349.62 969.78,-349.62 916.25,-349.62 916.25,-349.62 916.25,-349.62 809,-349.62 745.12,-349.62 670.77,-349.62 627.2,-349.62"/>
<polygon fill="#63b8ff" stroke="#63b8ff" points="1072.31,-353.13 1082.31,-349.63 1072.31,-346.13 1072.31,-353.13"/>
</a>
</g>
</g>
<!-- Node4 -->
<g id="Node000004" class="node">
<title>Node4</title>
<g id="a_Node000004"><a xlink:href="ldo_8c.html#a14df0fa118ab124dfcc6d227bdd38ca5" target="_top" xlink:title=" ">
<polygon fill="white" stroke="#666666" points="515,-359.25 463.75,-359.25 463.75,-340 515,-340 515,-359.25"/>
<text xml:space="preserve" text-anchor="middle" x="489.38" y="-345.75" font-family="Helvetica,sans-Serif" font-size="10.00">f_parser</text>
</a>
</g>
</g>
<!-- Node3&#45;&gt;Node4 -->
<g id="edge3_Node000003_Node000004" class="edge">
<title>Node3&#45;&gt;Node4</title>
<g id="a_edge3_Node000003_Node000004"><a xlink:title=" ">
<path fill="none" stroke="#63b8ff" d="M539.26,-349.62C530.92,-349.62 522.58,-349.62 515.22,-349.62"/>
<polygon fill="#63b8ff" stroke="#63b8ff" points="539.02,-353.13 549.02,-349.63 539.02,-346.13 539.02,-353.13"/>
</a>
</g>
</g>
<!-- Node5 -->
<g id="Node000005" class="node">
<title>Node5</title>
<g id="a_Node000005"><a xlink:href="ldo_8c.html#a451f5a18e45a63e1da2eed7d8a2060f5" target="_top" xlink:title=" ">
<polygon fill="white" stroke="#666666" points="427.75,-359.25 318.75,-359.25 318.75,-340 427.75,-340 427.75,-359.25"/>
<text xml:space="preserve" text-anchor="middle" x="373.25" y="-345.75" font-family="Helvetica,sans-Serif" font-size="10.00">luaD_protectedparser</text>
</a>
</g>
</g>
<!-- Node4&#45;&gt;Node5 -->
<g id="edge4_Node000004_Node000005" class="edge">
<title>Node4&#45;&gt;Node5</title>
<g id="a_edge4_Node000004_Node000005"><a xlink:title=" ">
<path fill="none" stroke="#63b8ff" d="M451.99,-349.62C444.42,-349.62 436.3,-349.62 428.25,-349.62"/>
<polygon fill="#63b8ff" stroke="#63b8ff" points="451.82,-353.13 461.82,-349.63 451.82,-346.13 451.82,-353.13"/>
</a>
</g>
</g>
<!-- Node6 -->
<g id="Node000006" class="node">
<title>Node6</title>
<g id="a_Node000006"><a xlink:href="lapi_8c.html#aa7a94c45f3eec251e5b258d7482ffe87" target="_top" xlink:title=" ">
<polygon fill="white" stroke="#666666" points="282.75,-359.25 230.75,-359.25 230.75,-340 282.75,-340 282.75,-359.25"/>
<text xml:space="preserve" text-anchor="middle" x="256.75" y="-345.75" font-family="Helvetica,sans-Serif" font-size="10.00">lua_load</text>
</a>
</g>
</g>
<!-- Node5&#45;&gt;Node6 -->
<g id="edge5_Node000005_Node000006" class="edge">
<title>Node5&#45;&gt;Node6</title>
<g id="a_edge5_Node000005_Node000006"><a xlink:title=" ">
<path fill="none" stroke="#63b8ff" d="M307.12,-349.62C298.63,-349.62 290.37,-349.62 283.12,-349.62"/>
<polygon fill="#63b8ff" stroke="#63b8ff" points="306.84,-353.13 316.84,-349.63 306.84,-346.13 306.84,-353.13"/>
</a>
</g>
</g>
<!-- Node7 -->
<g id="Node000007" class="node">
<title>Node7</title>
<g id="a_Node000007"><a xlink:href="lbaselib_8c.html#a4a9a3613fcf80fe033e044f7e19bed69" target="_top" xlink:title=" ">
<polygon fill="white" stroke="#666666" points="65.12,-378.25 6.38,-378.25 6.38,-359 65.12,-359 65.12,-378.25"/>
<text xml:space="preserve" text-anchor="middle" x="35.75" y="-364.75" font-family="Helvetica,sans-Serif" font-size="10.00">luaB_load</text>
</a>
</g>
</g>
<!-- Node6&#45;&gt;Node7 -->
<g id="edge6_Node000006_Node000007" class="edge">
<title>Node6&#45;&gt;Node7</title>
<g id="a_edge6_Node000006_Node000007"><a xlink:title=" ">
<path fill="none" stroke="#63b8ff" d="M219.43,-362.9C211.4,-365.28 202.87,-367.39 194.75,-368.62 150,-375.43 97.3,-373.46 65.49,-371.21"/>
<polygon fill="#63b8ff" stroke="#63b8ff" points="220.42,-366.26 228.89,-359.89 218.3,-359.59 220.42,-366.26"/>
</a>
</g>
</g>
<!-- Node8 -->
<g id="Node000008" class="node">
<title>Node8</title>
<g id="a_Node000008"><a xlink:href="lauxlib_8c.html#a867ca33afe2cb3d07bfc238cbb438f61" target="_top" xlink:title=" ">
<polygon fill="white" stroke="#666666" points="194.75,-359.25 107.5,-359.25 107.5,-340 194.75,-340 194.75,-359.25"/>
<text xml:space="preserve" text-anchor="middle" x="151.12" y="-345.75" font-family="Helvetica,sans-Serif" font-size="10.00">luaL_loadbufferx</text>
</a>
</g>
</g>
<!-- Node6&#45;&gt;Node8 -->
<g id="edge7_Node000006_Node000008" class="edge">
<title>Node6&#45;&gt;Node8</title>
<g id="a_edge7_Node000006_Node000008"><a xlink:title=" ">
<path fill="none" stroke="#63b8ff" d="M219.06,-349.62C211.27,-349.62 202.98,-349.62 194.98,-349.62"/>
<polygon fill="#63b8ff" stroke="#63b8ff" points="218.89,-353.13 228.89,-349.63 218.89,-346.13 218.89,-353.13"/>
</a>
</g>
</g>
<!-- Node9 -->
<g id="Node000009" class="node">
<title>Node9</title>
<g id="a_Node000009"><a xlink:href="lauxlib_8c.html#a6ac3b2572d5ce635c4617aed2a0eb649" target="_top" xlink:title=" ">
<polygon fill="white" stroke="#666666" points="188.75,-322.25 113.5,-322.25 113.5,-303 188.75,-303 188.75,-322.25"/>
<text xml:space="preserve" text-anchor="middle" x="151.12" y="-308.75" font-family="Helvetica,sans-Serif" font-size="10.00">luaL_loadfilex</text>
</a>
</g>
</g>
<!-- Node6&#45;&gt;Node9 -->
<g id="edge9_Node000006_Node000009" class="edge">
<title>Node6&#45;&gt;Node9</title>
<g id="a_edge9_Node000006_Node000009"><a xlink:title=" ">
<path fill="none" stroke="#63b8ff" d="M219.9,-336.82C206.88,-332.18 192.37,-326.99 180.13,-322.62"/>
<polygon fill="#63b8ff" stroke="#63b8ff" points="218.38,-340 228.98,-340.06 220.73,-333.41 218.38,-340"/>
</a>
</g>
</g>
<!-- Node8&#45;&gt;Node7 -->
<g id="edge8_Node000008_Node000007" class="edge">
<title>Node8&#45;&gt;Node7</title>
<g id="a_edge8_Node000008_Node000007"><a xlink:title=" ">
<path fill="none" stroke="#63b8ff" d="M95.99,-358.7C85.49,-360.46 74.88,-362.24 65.59,-363.79"/>
<polygon fill="#63b8ff" stroke="#63b8ff" points="96.49,-362.16 105.77,-357.06 95.33,-355.26 96.49,-362.16"/>
</a>
</g>
</g>
<!-- Node10 -->
<g id="Node000010" class="node">
<title>Node10</title>
<g id="a_Node000010"><a xlink:href="lbaselib_8c.html#aeb4cb83db820979bbdd7710109b52957" target="_top" xlink:title=" ">
<polygon fill="white" stroke="#666666" points="71.5,-322.25 0,-322.25 0,-303 71.5,-303 71.5,-322.25"/>
<text xml:space="preserve" text-anchor="middle" x="35.75" y="-308.75" font-family="Helvetica,sans-Serif" font-size="10.00">luaB_loadfile</text>
</a>
</g>
</g>
<!-- Node9&#45;&gt;Node10 -->
<g id="edge10_Node000009_Node000010" class="edge">
<title>Node9&#45;&gt;Node10</title>
<g id="a_edge10_Node000009_Node000010"><a xlink:title=" ">
<path fill="none" stroke="#63b8ff" d="M101.79,-312.62C91.66,-312.62 81.17,-312.62 71.65,-312.62"/>
<polygon fill="#63b8ff" stroke="#63b8ff" points="101.49,-316.13 111.49,-312.63 101.49,-309.13 101.49,-316.13"/>
</a>
</g>
</g>
<!-- Node12&#45;&gt;Node13 -->
<g id="edge13_Node000012_Node000013" class="edge">
<title>Node12&#45;&gt;Node13</title>
<g id="a_edge13_Node000012_Node000013"><a xlink:title=" ">
<path fill="none" stroke="#63b8ff" d="M768.62,-183.95C755.69,-179.57 741.61,-174.8 729.57,-170.72"/>
<polygon fill="#63b8ff" stroke="#63b8ff" points="767.12,-187.14 777.71,-187.03 769.36,-180.51 767.12,-187.14"/>
</a>
</g>
</g>
<!-- Node13&#45;&gt;Node3 -->
<g id="edge16_Node000013_Node000003" class="edge">
<title>Node13&#45;&gt;Node3</title>
<g id="a_edge16_Node000013_Node000003"><a xlink:title=" ">
<path fill="none" stroke="#63b8ff" d="M686.46,-180.43C663.59,-220.55 612.53,-310.11 595.59,-339.83"/>
<polygon fill="#63b8ff" stroke="#63b8ff" points="689.45,-182.26 691.36,-171.84 683.37,-178.79 689.45,-182.26"/>
</a>
</g>
</g>
<!-- Node14 -->
<g id="Node000014" class="node">
<title>Node14</title>
<g id="a_Node000014"><a xlink:href="lundump_8c.html#a6a14558eb41ec5a096e4094f033531fe" target="_top" xlink:title=" ">
<polygon fill="white" stroke="#666666" points="620.25,-170.25 557.75,-170.25 557.75,-151 620.25,-151 620.25,-170.25"/>
<text xml:space="preserve" text-anchor="middle" x="589" y="-156.75" font-family="Helvetica,sans-Serif" font-size="10.00">loadProtos</text>
</a>
</g>
</g>
<!-- Node13&#45;&gt;Node14 -->
<g id="edge14_Node000013_Node000014" class="edge">
<title>Node13&#45;&gt;Node14</title>
<g id="a_edge14_Node000013_Node000014"><a xlink:title=" ">
<path fill="none" stroke="#63b8ff" d="M651.58,-153.94C641.06,-153.77 630.13,-153.95 620.46,-154.48"/>
<polygon fill="#63b8ff" stroke="#63b8ff" points="651.16,-157.43 661.25,-154.21 651.36,-150.43 651.16,-157.43"/>
</a>
</g>
</g>
<!-- Node14&#45;&gt;Node13 -->
<g id="edge15_Node000014_Node000013" class="edge">
<title>Node14&#45;&gt;Node13</title>
<g id="a_edge15_Node000014_Node000013"><a xlink:title=" ">
<path fill="none" stroke="#63b8ff" d="M631.7,-167.22C641.97,-167.49 652.85,-167.41 662.77,-166.99"/>
<polygon fill="#63b8ff" stroke="#63b8ff" points="632.1,-163.73 621.97,-166.83 631.82,-170.73 632.1,-163.73"/>
</a>
</g>
</g>
<!-- Node16 -->
<g id="Node000016" class="node">
<title>Node16</title>
<g id="a_Node000016"><a xlink:href="lundump_8c.html#abc34d9e099b17660e4eaf21b2039ef03" target="_top" xlink:title=" ">
<polygon fill="white" stroke="#666666" points="937.88,-131.25 892.62,-131.25 892.62,-112 937.88,-112 937.88,-131.25"/>
<text xml:space="preserve" text-anchor="middle" x="915.25" y="-117.75" font-family="Helvetica,sans-Serif" font-size="10.00">loadInt</text>
</a>
</g>
</g>
<!-- Node15&#45;&gt;Node16 -->
<g id="edge19_Node000015_Node000016" class="edge">
<title>Node15&#45;&gt;Node16</title>
<g id="a_edge19_Node000015_Node000016"><a xlink:title=" ">
<path fill="none" stroke="#63b8ff" d="M1182.46,-184.92C1174.23,-182.78 1165.75,-180.62 1157.75,-178.62 1077.07,-158.55 980.78,-136.35 938.27,-126.64"/>
<polygon fill="#63b8ff" stroke="#63b8ff" points="1181.45,-188.27 1192.01,-187.4 1183.22,-181.49 1181.45,-188.27"/>
</a>
</g>
</g>
<!-- Node20 -->
<g id="Node000020" class="node">
<title>Node20</title>
<g id="a_Node000020"><a xlink:href="lundump_8c.html#adb3e45444a299e4974bf48f8c4bfde15" target="_top" xlink:title=" ">
<polygon fill="white" stroke="#666666" points="1147.62,-207.25 1094.12,-207.25 1094.12,-188 1147.62,-188 1147.62,-207.25"/>
<text xml:space="preserve" text-anchor="middle" x="1120.88" y="-193.75" font-family="Helvetica,sans-Serif" font-size="10.00">loadSize</text>
</a>
</g>
</g>
<!-- Node15&#45;&gt;Node20 -->
<g id="edge29_Node000015_Node000020" class="edge">
<title>Node15&#45;&gt;Node20</title>
<g id="a_edge29_Node000015_Node000020"><a xlink:title=" ">
<path fill="none" stroke="#63b8ff" d="M1182.19,-197.62C1170.35,-197.62 1158.13,-197.62 1147.81,-197.62"/>
<polygon fill="#63b8ff" stroke="#63b8ff" points="1181.83,-201.13 1191.83,-197.63 1181.83,-194.13 1181.83,-201.13"/>
</a>
</g>
</g>
<!-- Node16&#45;&gt;Node12 -->
<g id="edge22_Node000016_Node000012" class="edge">
<title>Node16&#45;&gt;Node12</title>
<g id="a_edge22_Node000016_Node000012"><a xlink:title=" ">
<path fill="none" stroke="#63b8ff" d="M896.85,-139.81C884.44,-152.09 866.93,-168.11 849.5,-179.62 845.07,-182.55 840.08,-185.26 835.21,-187.63"/>
<polygon fill="#63b8ff" stroke="#63b8ff" points="899.31,-142.29 903.84,-132.72 894.33,-137.38 899.31,-142.29"/>
</a>
</g>
</g>
<!-- Node16&#45;&gt;Node13 -->
<g id="edge25_Node000016_Node000013" class="edge">
<title>Node16&#45;&gt;Node13</title>
<g id="a_edge25_Node000016_Node000013"><a xlink:title=" ">
<path fill="none" stroke="#63b8ff" d="M881.55,-109.67C851.82,-100.68 807.12,-91.89 770.5,-104.62 744.16,-113.79 720.25,-137.28 708.12,-150.75"/>
<polygon fill="#63b8ff" stroke="#63b8ff" points="880.13,-112.89 890.72,-112.62 882.27,-106.23 880.13,-112.89"/>
</a>
</g>
</g>
<!-- Node16&#45;&gt;Node14 -->
<g id="edge26_Node000016_Node000014" class="edge">
<title>Node16&#45;&gt;Node14</title>
<g id="a_edge26_Node000016_Node000014"><a xlink:title=" ">
<path fill="none" stroke="#63b8ff" d="M885.37,-106.72C874.44,-101.84 861.68,-97.06 849.5,-94.62 815.07,-87.73 805.07,-88.5 770.5,-94.62 709.88,-105.36 642.89,-134.9 610.19,-150.57"/>
<polygon fill="#63b8ff" stroke="#63b8ff" points="883.7,-109.8 894.24,-110.89 886.68,-103.46 883.7,-109.8"/>
</a>
</g>
</g>
<!-- Node17 -->
<g id="Node000017" class="node">
<title>Node17</title>
<g id="a_Node000017"><a xlink:href="lundump_8c.html#acd554fb4ba9399a7a48919de12daa53f" target="_top" xlink:title=" ">
<polygon fill="white" stroke="#666666" points="838.62,-133.25 781.38,-133.25 781.38,-114 838.62,-114 838.62,-133.25"/>
<text xml:space="preserve" text-anchor="middle" x="810" y="-119.75" font-family="Helvetica,sans-Serif" font-size="10.00">loadCode</text>
</a>
</g>
</g>
<!-- Node16&#45;&gt;Node17 -->
<g id="edge20_Node000016_Node000017" class="edge">
<title>Node16&#45;&gt;Node17</title>
<g id="a_edge20_Node000016_Node000017"><a xlink:title=" ">
<path fill="none" stroke="#63b8ff" d="M881,-122.27C867.37,-122.53 851.78,-122.84 838.77,-123.09"/>
<polygon fill="#63b8ff" stroke="#63b8ff" points="880.91,-125.77 890.84,-122.08 880.77,-118.77 880.91,-125.77"/>
</a>
</g>
</g>
<!-- Node18 -->
<g id="Node000018" class="node">
<title>Node18</title>
<g id="a_Node000018"><a xlink:href="lundump_8c.html#a121ddfe27d3762c4b5ed14bd3746af7a" target="_top" xlink:title=" ">
<polygon fill="white" stroke="#666666" points="841.25,-170.25 778.75,-170.25 778.75,-151 841.25,-151 841.25,-170.25"/>
<text xml:space="preserve" text-anchor="middle" x="810" y="-156.75" font-family="Helvetica,sans-Serif" font-size="10.00">loadDebug</text>
</a>
</g>
</g>
<!-- Node16&#45;&gt;Node18 -->
<g id="edge23_Node000016_Node000018" class="edge">
<title>Node16&#45;&gt;Node18</title>
<g id="a_edge23_Node000016_Node000018"><a xlink:title=" ">
<path fill="none" stroke="#63b8ff" d="M881.99,-133.81C867.73,-139.2 851.17,-145.45 837.63,-150.57"/>
<polygon fill="#63b8ff" stroke="#63b8ff" points="882.82,-137.24 890.94,-130.43 880.35,-130.69 882.82,-137.24"/>
</a>
</g>
</g>
<!-- Node16&#45;&gt;Node19 -->
<g id="edge27_Node000016_Node000019" class="edge">
<title>Node16&#45;&gt;Node19</title>
<g id="a_edge27_Node000016_Node000019"><a xlink:title=" ">
<path fill="none" stroke="#63b8ff" d="M891.61,-104.12C889.44,-102.04 887.36,-99.86 885.5,-97.62 864.63,-72.53 872.05,-57.22 849.5,-33.62 844.28,-28.16 837.55,-23.42 831.2,-19.63"/>
<polygon fill="#63b8ff" stroke="#63b8ff" points="889.17,-106.64 899.02,-110.56 893.77,-101.36 889.17,-106.64"/>
</a>
</g>
</g>
<!-- Node17&#45;&gt;Node13 -->
<g id="edge21_Node000017_Node000013" class="edge">
<title>Node17&#45;&gt;Node13</title>
<g id="a_edge21_Node000017_Node000013"><a xlink:title=" ">
<path fill="none" stroke="#63b8ff" d="M770.29,-136.74C756.87,-141.28 742.04,-146.3 729.46,-150.56"/>
<polygon fill="#63b8ff" stroke="#63b8ff" points="771.37,-140.07 779.72,-133.54 769.12,-133.44 771.37,-140.07"/>
</a>
</g>
</g>
<!-- Node18&#45;&gt;Node13 -->
<g id="edge24_Node000018_Node000013" class="edge">
<title>Node18&#45;&gt;Node13</title>
<g id="a_edge24_Node000018_Node000013"><a xlink:title=" ">
<path fill="none" stroke="#63b8ff" d="M767.08,-160.62C756.44,-160.62 745.13,-160.62 734.86,-160.62"/>
<polygon fill="#63b8ff" stroke="#63b8ff" points="766.76,-164.13 776.76,-160.63 766.76,-157.13 766.76,-164.13"/>
</a>
</g>
</g>
<!-- Node19&#45;&gt;Node13 -->
<g id="edge28_Node000019_Node000013" class="edge">
<title>Node19&#45;&gt;Node13</title>
<g id="a_edge28_Node000019_Node000013"><a xlink:title=" ">
<path fill="none" stroke="#63b8ff" d="M795.37,-28.46C771.9,-60.9 724.66,-126.2 706.8,-150.88"/>
<polygon fill="#63b8ff" stroke="#63b8ff" points="797.92,-30.91 800.94,-20.76 792.25,-26.81 797.92,-30.91"/>
</a>
</g>
</g>
<!-- Node21 -->
<g id="Node000021" class="node">
<title>Node21</title>
<g id="a_Node000021"><a xlink:href="lundump_8c.html#ac0523d12e31c707fa1f626add3672fef" target="_top" xlink:title=" ">
<polygon fill="white" stroke="#666666" points="1048,-207.25 981,-207.25 981,-188 1048,-188 1048,-207.25"/>
<text xml:space="preserve" text-anchor="middle" x="1014.5" y="-193.75" font-family="Helvetica,sans-Serif" font-size="10.00">loadStringN</text>
</a>
</g>
</g>
<!-- Node20&#45;&gt;Node21 -->
<g id="edge30_Node000020_Node000021" class="edge">
<title>Node20&#45;&gt;Node21</title>
<g id="a_edge30_Node000020_Node000021"><a xlink:title=" ">
<path fill="none" stroke="#63b8ff" d="M1082.6,-197.62C1071.41,-197.62 1059.23,-197.62 1048.34,-197.62"/>
<polygon fill="#63b8ff" stroke="#63b8ff" points="1082.29,-201.13 1092.29,-197.63 1082.29,-194.13 1082.29,-201.13"/>
</a>
</g>
</g>
<!-- Node21&#45;&gt;Node13 -->
<g id="edge32_Node000021_Node000013" class="edge">
<title>Node21&#45;&gt;Node13</title>
<g id="a_edge32_Node000021_Node000013"><a xlink:title=" ">
<path fill="none" stroke="#63b8ff" d="M972.06,-210.78C922.62,-224.26 838.17,-240.16 770.5,-216.62 744.16,-207.46 720.25,-183.97 708.12,-170.5"/>
<polygon fill="#63b8ff" stroke="#63b8ff" points="972.82,-214.2 981.49,-208.11 970.92,-207.47 972.82,-214.2"/>
</a>
</g>
</g>
<!-- Node21&#45;&gt;Node18 -->
<g id="edge31_Node000021_Node000018" class="edge">
<title>Node21&#45;&gt;Node18</title>
<g id="a_edge31_Node000021_Node000018"><a xlink:title=" ">
<path fill="none" stroke="#63b8ff" d="M969.75,-184.53C961.57,-182.36 953.06,-180.28 945,-178.62 909.82,-171.42 868.82,-166.4 841.53,-163.52"/>
<polygon fill="#63b8ff" stroke="#63b8ff" points="968.59,-187.84 979.16,-187.12 970.45,-181.09 968.59,-187.84"/>
</a>
</g>
</g>
<!-- Node22 -->
<g id="Node000022" class="node">
<title>Node22</title>
<g id="a_Node000022"><a xlink:href="lundump_8c.html#a883618a9a2104461096fb633c7df2f33" target="_top" xlink:title=" ">
<polygon fill="white" stroke="#666666" points="945,-207.25 885.5,-207.25 885.5,-188 945,-188 945,-207.25"/>
<text xml:space="preserve" text-anchor="middle" x="915.25" y="-193.75" font-family="Helvetica,sans-Serif" font-size="10.00">loadString</text>
</a>
</g>
</g>
<!-- Node21&#45;&gt;Node22 -->
<g id="edge33_Node000021_Node000022" class="edge">
<title>Node21&#45;&gt;Node22</title>
<g id="a_edge33_Node000021_Node000022"><a xlink:title=" ">
<path fill="none" stroke="#63b8ff" d="M969.26,-197.62C961.11,-197.62 952.79,-197.62 945.23,-197.62"/>
<polygon fill="#63b8ff" stroke="#63b8ff" points="969.06,-201.13 979.06,-197.63 969.06,-194.13 969.06,-201.13"/>
</a>
</g>
</g>
<!-- Node22&#45;&gt;Node12 -->
<g id="edge34_Node000022_Node000012" class="edge">
<title>Node22&#45;&gt;Node12</title>
<g id="a_edge34_Node000022_Node000012"><a xlink:title=" ">
<path fill="none" stroke="#63b8ff" d="M873.96,-197.62C866.03,-197.62 857.72,-197.62 849.84,-197.62"/>
<polygon fill="#63b8ff" stroke="#63b8ff" points="873.7,-201.13 883.7,-197.63 873.7,-194.13 873.7,-201.13"/>
</a>
</g>
</g>
</g>
</svg>

<g id="navigator" transform="translate(0 0)" fill="#404254">
  <rect fill="#f2f5e9" fill-opacity="0.5" stroke="#606060" stroke-width=".5" x="0" y="0" width="60" height="60"/>
  <use id="zoomplus" xlink:href="#zoomPlus" x="17" y="9" onmousedown="handleZoom(evt,'in')"/>
  <use id="zoomminus" xlink:href="#zoomMin" x="42" y="9" onmousedown="handleZoom(evt,'out')"/>
  <use id="reset" xlink:href="#resetDef" x="30" y="36" onmousedown="handleReset()"/>
   <use id="arrowup" xlink:href="#arrowUp" x="0" y="0" onmousedown="handlePan(0,-1)"/>
  <use id="arrowright" xlink:href="#arrowRight" x="0" y="0" onmousedown="handlePan(1,0)"/>
  <use id="arrowdown" xlink:href="#arrowDown" x="0" y="0" onmousedown="handlePan(0,1)"/>
  <use id="arrowleft" xlink:href="#arrowLeft" x="0" y="0" onmousedown="handlePan(-1,0)"/>
</g>
<svg viewBox="0 0 15 15" width="100%" height="30px" preserveAspectRatio="xMaxYMin meet">
 <g id="arrow_out" transform="scale(0.3 0.3)">
  <a xlink:href="lundump_8c_a42ccd2fdd0830eda677e6b0b4bb5ec5a_icgraph_org.svg" target="_base">
   <rect id="button" ry="5" rx="5" y="6" x="6" height="38" width="38"
        fill="#f2f5e9" fill-opacity="0.5" stroke="#606060" stroke-width="1.0"/>
   <path id="arrow"
     d="M 11.500037,31.436501 C 11.940474,20.09759 22.043105,11.32322 32.158766,21.979434 L 37.068811,17.246167 C 37.068811,17.246167 37.088388,32 37.088388,32 L 22.160133,31.978069 C 22.160133,31.978069 26.997745,27.140456 26.997745,27.140456 C 18.528582,18.264221 13.291696,25.230495 11.500037,31.436501 z"
     style="fill:#404040;"/>
  </a>
 </g>
</svg>

<style type='text/css'>
<![CDATA[
[data-mouse-over-selected='false'] { opacity: 0.7; }
[data-mouse-over-selected='true']  { opacity: 1.0; }
]]>
</style>
<script type="application/ecmascript"><![CDATA[
document.addEventListener('DOMContentLoaded', (event) => {
  highlightEdges();
  highlightAdjacentNodes();
});
]]></script>
</svg>
