<?xml version="1.0" encoding="UTF-8" standalone="no"?>
<!DOCTYPE svg PUBLIC "-//W3C//DTD SVG 1.1//EN"
 "http://www.w3.org/Graphics/SVG/1.1/DTD/svg11.dtd">
<!-- Generated by graphviz version 13.1.0 (20250701.0955)
 -->
<!-- Title: utf8_decode Pages: 1 -->
<svg width="377pt" height="101pt"
 viewBox="0.00 0.00 377.00 101.00" xmlns="http://www.w3.org/2000/svg" xmlns:xlink="http://www.w3.org/1999/xlink">
<g id="graph0" class="graph" transform="scale(1 1) rotate(0) translate(4 97.25)">
<title>utf8_decode</title>
<!-- Node1 -->
<g id="Node000001" class="node">
<title>Node1</title>
<g id="a_Node000001"><a xlink:title=" ">
<polygon fill="#999999" stroke="#666666" points="368.5,-56.25 299.25,-56.25 299.25,-37 368.5,-37 368.5,-56.25"/>
<text xml:space="preserve" text-anchor="middle" x="333.88" y="-42.75" font-family="Helvetica,sans-Serif" font-size="10.00">utf8_decode</text>
</a>
</g>
</g>
<!-- Node2 -->
<g id="Node000002" class="node">
<title>Node2</title>
<g id="a_Node000002"><a xlink:href="lutf8lib_8c.html#af4280cee645f392590f2ed63a6301320" target="_top" xlink:title=" ">
<polygon fill="white" stroke="#666666" points="263.25,-93.25 205.25,-93.25 205.25,-74 263.25,-74 263.25,-93.25"/>
<text xml:space="preserve" text-anchor="middle" x="234.25" y="-79.75" font-family="Helvetica,sans-Serif" font-size="10.00">codepoint</text>
</a>
</g>
</g>
<!-- Node1&#45;&gt;Node2 -->
<g id="edge1_Node000001_Node000002" class="edge">
<title>Node1&#45;&gt;Node2</title>
<g id="a_edge1_Node000001_Node000002"><a xlink:title=" ">
<path fill="none" stroke="#63b8ff" d="M295.75,-60.7C284.48,-64.97 272.33,-69.57 261.89,-73.53"/>
<polygon fill="#63b8ff" stroke="#63b8ff" points="296.67,-64.09 304.78,-57.27 294.19,-57.54 296.67,-64.09"/>
</a>
</g>
</g>
<!-- Node3 -->
<g id="Node000003" class="node">
<title>Node3</title>
<g id="a_Node000003"><a xlink:href="lutf8lib_8c.html#ad5fc4a8936de51af672e82150c82a49a" target="_top" xlink:title=" ">
<polygon fill="white" stroke="#666666" points="259.5,-56.25 209,-56.25 209,-37 259.5,-37 259.5,-56.25"/>
<text xml:space="preserve" text-anchor="middle" x="234.25" y="-42.75" font-family="Helvetica,sans-Serif" font-size="10.00">iter_aux</text>
</a>
</g>
</g>
<!-- Node1&#45;&gt;Node3 -->
<g id="edge2_Node000001_Node000003" class="edge">
<title>Node1&#45;&gt;Node3</title>
<g id="a_edge2_Node000001_Node000003"><a xlink:title=" ">
<path fill="none" stroke="#63b8ff" d="M287.54,-46.62C277.99,-46.62 268.26,-46.62 259.83,-46.62"/>
<polygon fill="#63b8ff" stroke="#63b8ff" points="287.49,-50.13 297.49,-46.63 287.49,-43.13 287.49,-50.13"/>
</a>
</g>
</g>
<!-- Node7 -->
<g id="Node000007" class="node">
<title>Node7</title>
<g id="a_Node000007"><a xlink:href="lutf8lib_8c.html#a840e09db1ade39da79b0b4dece0e46eb" target="_top" xlink:title=" ">
<polygon fill="white" stroke="#666666" points="254.25,-19.25 214.25,-19.25 214.25,0 254.25,0 254.25,-19.25"/>
<text xml:space="preserve" text-anchor="middle" x="234.25" y="-5.75" font-family="Helvetica,sans-Serif" font-size="10.00">utflen</text>
</a>
</g>
</g>
<!-- Node1&#45;&gt;Node7 -->
<g id="edge7_Node000001_Node000007" class="edge">
<title>Node1&#45;&gt;Node7</title>
<g id="a_edge7_Node000001_Node000007"><a xlink:title=" ">
<path fill="none" stroke="#63b8ff" d="M295.78,-32.57C281.7,-27.23 266.24,-21.37 254.46,-16.91"/>
<polygon fill="#63b8ff" stroke="#63b8ff" points="294.19,-35.71 304.78,-35.98 296.67,-29.16 294.19,-35.71"/>
</a>
</g>
</g>
<!-- Node4 -->
<g id="Node000004" class="node">
<title>Node4</title>
<g id="a_Node000004"><a xlink:href="lutf8lib_8c.html#a7e953afe12aba1463b511c39ce46586d" target="_top" xlink:title=" ">
<polygon fill="white" stroke="#666666" points="164.75,-74.25 101.5,-74.25 101.5,-55 164.75,-55 164.75,-74.25"/>
<text xml:space="preserve" text-anchor="middle" x="133.12" y="-60.75" font-family="Helvetica,sans-Serif" font-size="10.00">iter_auxlax</text>
</a>
</g>
</g>
<!-- Node3&#45;&gt;Node4 -->
<g id="edge3_Node000003_Node000004" class="edge">
<title>Node3&#45;&gt;Node4</title>
<g id="a_edge3_Node000003_Node000004"><a xlink:title=" ">
<path fill="none" stroke="#63b8ff" d="M197.66,-53.09C187.01,-55.02 175.43,-57.12 165.1,-59"/>
<polygon fill="#63b8ff" stroke="#63b8ff" points="198.04,-56.58 207.26,-51.34 196.79,-49.69 198.04,-56.58"/>
</a>
</g>
</g>
<!-- Node6 -->
<g id="Node000006" class="node">
<title>Node6</title>
<g id="a_Node000006"><a xlink:href="lutf8lib_8c.html#afe5c5d5c71be22b9feefda4fe9e48ac9" target="_top" xlink:title=" ">
<polygon fill="white" stroke="#666666" points="169.25,-37.25 97,-37.25 97,-18 169.25,-18 169.25,-37.25"/>
<text xml:space="preserve" text-anchor="middle" x="133.12" y="-23.75" font-family="Helvetica,sans-Serif" font-size="10.00">iter_auxstrict</text>
</a>
</g>
</g>
<!-- Node3&#45;&gt;Node6 -->
<g id="edge5_Node000003_Node000006" class="edge">
<title>Node3&#45;&gt;Node6</title>
<g id="a_edge5_Node000003_Node000006"><a xlink:title=" ">
<path fill="none" stroke="#63b8ff" d="M197.65,-39.8C188.52,-38.05 178.7,-36.17 169.57,-34.42"/>
<polygon fill="#63b8ff" stroke="#63b8ff" points="196.78,-43.2 207.26,-41.64 198.1,-36.32 196.78,-43.2"/>
</a>
</g>
</g>
<!-- Node5 -->
<g id="Node000005" class="node">
<title>Node5</title>
<g id="a_Node000005"><a xlink:href="lutf8lib_8c.html#aaead346d7a9236dc0d97fe7914cae6e5" target="_top" xlink:title=" ">
<polygon fill="white" stroke="#666666" points="61,-55.25 0,-55.25 0,-36 61,-36 61,-55.25"/>
<text xml:space="preserve" text-anchor="middle" x="30.5" y="-41.75" font-family="Helvetica,sans-Serif" font-size="10.00">iter_codes</text>
</a>
</g>
</g>
<!-- Node4&#45;&gt;Node5 -->
<g id="edge4_Node000004_Node000005" class="edge">
<title>Node4&#45;&gt;Node5</title>
<g id="a_edge4_Node000004_Node000005"><a xlink:title=" ">
<path fill="none" stroke="#63b8ff" d="M90.02,-56.68C80.34,-54.85 70.24,-52.94 61.2,-51.23"/>
<polygon fill="#63b8ff" stroke="#63b8ff" points="89.15,-60.07 99.63,-58.49 90.45,-53.19 89.15,-60.07"/>
</a>
</g>
</g>
<!-- Node6&#45;&gt;Node5 -->
<g id="edge6_Node000006_Node000005" class="edge">
<title>Node6&#45;&gt;Node5</title>
<g id="a_edge6_Node000006_Node000005"><a xlink:title=" ">
<path fill="none" stroke="#63b8ff" d="M85.58,-35.95C77.33,-37.43 68.95,-38.93 61.33,-40.29"/>
<polygon fill="#63b8ff" stroke="#63b8ff" points="85.93,-39.44 95.16,-34.24 84.7,-32.55 85.93,-39.44"/>
</a>
</g>
</g>
</g>
</svg>
