<?xml version="1.0" encoding="UTF-8" standalone="no"?>
<!DOCTYPE svg PUBLIC "-//W3C//DTD SVG 1.1//EN"
 "http://www.w3.org/Graphics/SVG/1.1/DTD/svg11.dtd">
<!-- Generated by graphviz version 13.1.0 (20250701.0955)
 -->
<!-- Title: lua&#45;5.4.7/lvm.h Pages: 1 -->
<svg width="812pt" height="138pt"
 viewBox="0.00 0.00 812.00 138.00" xmlns="http://www.w3.org/2000/svg" xmlns:xlink="http://www.w3.org/1999/xlink">
<g id="graph0" class="graph" transform="scale(1 1) rotate(0) translate(4 133.75)">
<title>lua&#45;5.4.7/lvm.h</title>
<!-- Node1 -->
<g id="Node000001" class="node">
<title>Node1</title>
<g id="a_Node000001"><a xlink:title=" ">
<polygon fill="#999999" stroke="#666666" points="445.12,-129.75 364.62,-129.75 364.62,-110.5 445.12,-110.5 445.12,-129.75"/>
<text xml:space="preserve" text-anchor="middle" x="404.88" y="-116.25" font-family="Helvetica,sans-Serif" font-size="10.00">lua&#45;5.4.7/lvm.h</text>
</a>
</g>
</g>
<!-- Node2 -->
<g id="Node000002" class="node">
<title>Node2</title>
<g id="a_Node000002"><a xlink:href="lapi_8c.html" target="_top" xlink:title=" ">
<polygon fill="white" stroke="#666666" points="79.75,-74.5 0,-74.5 0,-55.25 79.75,-55.25 79.75,-74.5"/>
<text xml:space="preserve" text-anchor="middle" x="39.88" y="-61" font-family="Helvetica,sans-Serif" font-size="10.00">lua&#45;5.4.7/lapi.c</text>
</a>
</g>
</g>
<!-- Node1&#45;&gt;Node2 -->
<g id="edge1_Node000001_Node000002" class="edge">
<title>Node1&#45;&gt;Node2</title>
<g id="a_edge1_Node000001_Node000002"><a xlink:title=" ">
<path fill="none" stroke="#63b8ff" d="M353.26,-112.38C290.63,-104.08 181.86,-89.24 88.88,-74.5 86.06,-74.05 83.16,-73.58 80.23,-73.09"/>
<polygon fill="#63b8ff" stroke="#63b8ff" points="352.53,-115.82 362.9,-113.66 353.45,-108.88 352.53,-115.82"/>
</a>
</g>
</g>
<!-- Node4 -->
<g id="Node000004" class="node">
<title>Node4</title>
<g id="a_Node000004"><a xlink:href="lcode_8c.html" target="_top" xlink:title=" ">
<polygon fill="white" stroke="#666666" points="185.88,-74.5 97.88,-74.5 97.88,-55.25 185.88,-55.25 185.88,-74.5"/>
<text xml:space="preserve" text-anchor="middle" x="141.88" y="-61" font-family="Helvetica,sans-Serif" font-size="10.00">lua&#45;5.4.7/lcode.c</text>
</a>
</g>
</g>
<!-- Node1&#45;&gt;Node4 -->
<g id="edge3_Node000001_Node000004" class="edge">
<title>Node1&#45;&gt;Node4</title>
<g id="a_edge3_Node000001_Node000004"><a xlink:title=" ">
<path fill="none" stroke="#63b8ff" d="M353.11,-108.64C304.33,-98.77 232.04,-84.13 185.95,-74.8"/>
<polygon fill="#63b8ff" stroke="#63b8ff" points="352.38,-112.07 362.87,-110.62 353.77,-105.21 352.38,-112.07"/>
</a>
</g>
</g>
<!-- Node5 -->
<g id="Node000005" class="node">
<title>Node5</title>
<g id="a_Node000005"><a xlink:href="ldebug_8c.html" target="_top" xlink:title=" ">
<polygon fill="white" stroke="#666666" points="297.5,-74.5 204.25,-74.5 204.25,-55.25 297.5,-55.25 297.5,-74.5"/>
<text xml:space="preserve" text-anchor="middle" x="250.88" y="-61" font-family="Helvetica,sans-Serif" font-size="10.00">lua&#45;5.4.7/ldebug.c</text>
</a>
</g>
</g>
<!-- Node1&#45;&gt;Node5 -->
<g id="edge5_Node000001_Node000005" class="edge">
<title>Node1&#45;&gt;Node5</title>
<g id="a_edge5_Node000001_Node000005"><a xlink:title=" ">
<path fill="none" stroke="#63b8ff" d="M368.16,-106.43C340.13,-96.74 302.17,-83.61 277.13,-74.95"/>
<polygon fill="#63b8ff" stroke="#63b8ff" points="366.73,-109.64 377.32,-109.6 369.01,-103.02 366.73,-109.64"/>
</a>
</g>
</g>
<!-- Node6 -->
<g id="Node000006" class="node">
<title>Node6</title>
<g id="a_Node000006"><a xlink:href="ldo_8c.html" target="_top" xlink:title=" ">
<polygon fill="white" stroke="#666666" points="392.62,-74.5 315.12,-74.5 315.12,-55.25 392.62,-55.25 392.62,-74.5"/>
<text xml:space="preserve" text-anchor="middle" x="353.88" y="-61" font-family="Helvetica,sans-Serif" font-size="10.00">lua&#45;5.4.7/ldo.c</text>
</a>
</g>
</g>
<!-- Node1&#45;&gt;Node6 -->
<g id="edge7_Node000001_Node000006" class="edge">
<title>Node1&#45;&gt;Node6</title>
<g id="a_edge7_Node000001_Node000006"><a xlink:title=" ">
<path fill="none" stroke="#63b8ff" d="M388.51,-102.04C379.86,-93 369.58,-82.27 362.48,-74.86"/>
<polygon fill="#63b8ff" stroke="#63b8ff" points="385.96,-104.44 395.41,-109.24 391.02,-99.6 385.96,-104.44"/>
</a>
</g>
</g>
<!-- Node7 -->
<g id="Node000007" class="node">
<title>Node7</title>
<g id="a_Node000007"><a xlink:href="lobject_8c.html" target="_top" xlink:title=" ">
<polygon fill="white" stroke="#666666" points="503.5,-74.5 410.25,-74.5 410.25,-55.25 503.5,-55.25 503.5,-74.5"/>
<text xml:space="preserve" text-anchor="middle" x="456.88" y="-61" font-family="Helvetica,sans-Serif" font-size="10.00">lua&#45;5.4.7/lobject.c</text>
</a>
</g>
</g>
<!-- Node1&#45;&gt;Node7 -->
<g id="edge9_Node000001_Node000007" class="edge">
<title>Node1&#45;&gt;Node7</title>
<g id="a_edge9_Node000001_Node000007"><a xlink:title=" ">
<path fill="none" stroke="#63b8ff" d="M421.28,-102.32C430.17,-93.23 440.79,-82.35 448.1,-74.86"/>
<polygon fill="#63b8ff" stroke="#63b8ff" points="419,-99.65 414.52,-109.25 424.01,-104.54 419,-99.65"/>
</a>
</g>
</g>
<!-- Node8 -->
<g id="Node000008" class="node">
<title>Node8</title>
<g id="a_Node000008"><a xlink:href="ltable_8c.html" target="_top" xlink:title=" ">
<polygon fill="white" stroke="#666666" points="609.88,-74.5 521.88,-74.5 521.88,-55.25 609.88,-55.25 609.88,-74.5"/>
<text xml:space="preserve" text-anchor="middle" x="565.88" y="-61" font-family="Helvetica,sans-Serif" font-size="10.00">lua&#45;5.4.7/ltable.c</text>
</a>
</g>
</g>
<!-- Node1&#45;&gt;Node8 -->
<g id="edge11_Node000001_Node000008" class="edge">
<title>Node1&#45;&gt;Node8</title>
<g id="a_edge11_Node000001_Node000008"><a xlink:title=" ">
<path fill="none" stroke="#63b8ff" d="M442.87,-106.56C472.21,-96.85 512.13,-83.65 538.43,-74.95"/>
<polygon fill="#63b8ff" stroke="#63b8ff" points="442.02,-103.15 433.62,-109.62 444.22,-109.8 442.02,-103.15"/>
</a>
</g>
</g>
<!-- Node9 -->
<g id="Node000009" class="node">
<title>Node9</title>
<g id="a_Node000009"><a xlink:href="ltm_8c.html" target="_top" xlink:title=" ">
<polygon fill="white" stroke="#666666" points="706,-74.5 627.75,-74.5 627.75,-55.25 706,-55.25 706,-74.5"/>
<text xml:space="preserve" text-anchor="middle" x="666.88" y="-61" font-family="Helvetica,sans-Serif" font-size="10.00">lua&#45;5.4.7/ltm.c</text>
</a>
</g>
</g>
<!-- Node1&#45;&gt;Node9 -->
<g id="edge13_Node000001_Node000009" class="edge">
<title>Node1&#45;&gt;Node9</title>
<g id="a_edge13_Node000001_Node000009"><a xlink:title=" ">
<path fill="none" stroke="#63b8ff" d="M456.78,-108.58C506.97,-98.38 581.92,-83.14 627.42,-73.89"/>
<polygon fill="#63b8ff" stroke="#63b8ff" points="456.11,-105.14 447.01,-110.56 457.51,-112 456.11,-105.14"/>
</a>
</g>
</g>
<!-- Node10 -->
<g id="Node000010" class="node">
<title>Node10</title>
<g id="a_Node000010"><a xlink:href="lvm_8c.html" target="_top" xlink:title=" ">
<polygon fill="white" stroke="#666666" points="804.12,-74.5 723.62,-74.5 723.62,-55.25 804.12,-55.25 804.12,-74.5"/>
<text xml:space="preserve" text-anchor="middle" x="763.88" y="-61" font-family="Helvetica,sans-Serif" font-size="10.00">lua&#45;5.4.7/lvm.c</text>
</a>
</g>
</g>
<!-- Node1&#45;&gt;Node10 -->
<g id="edge15_Node000001_Node000010" class="edge">
<title>Node1&#45;&gt;Node10</title>
<g id="a_edge15_Node000001_Node000010"><a xlink:title=" ">
<path fill="none" stroke="#63b8ff" d="M456.91,-112.14C518.56,-103.75 624.33,-88.98 714.88,-74.5 717.6,-74.06 720.42,-73.6 723.25,-73.13"/>
<polygon fill="#63b8ff" stroke="#63b8ff" points="456.5,-108.66 447.06,-113.48 457.44,-115.6 456.5,-108.66"/>
</a>
</g>
</g>
<!-- Node3 -->
<g id="Node000003" class="node">
<title>Node3</title>
<g id="a_Node000003"><a xlink:href="onelua_8c.html" target="_top" xlink:title=" ">
<polygon fill="white" stroke="#666666" points="451.5,-19.25 358.25,-19.25 358.25,0 451.5,0 451.5,-19.25"/>
<text xml:space="preserve" text-anchor="middle" x="404.88" y="-5.75" font-family="Helvetica,sans-Serif" font-size="10.00">lua&#45;5.4.7/onelua.c</text>
</a>
</g>
</g>
<!-- Node2&#45;&gt;Node3 -->
<g id="edge2_Node000002_Node000003" class="edge">
<title>Node2&#45;&gt;Node3</title>
<g id="a_edge2_Node000002_Node000003"><a xlink:title=" ">
<path fill="none" stroke="#63b8ff" d="M91.53,-54.87C192.25,-39.04 298.41,-24.62 357.95,-16.74"/>
<polygon fill="#63b8ff" stroke="#63b8ff" points="91.06,-51.4 81.73,-56.42 92.15,-58.32 91.06,-51.4"/>
</a>
</g>
</g>
<!-- Node4&#45;&gt;Node3 -->
<g id="edge4_Node000004_Node000003" class="edge">
<title>Node4&#45;&gt;Node3</title>
<g id="a_edge4_Node000004_Node000003"><a xlink:title=" ">
<path fill="none" stroke="#63b8ff" d="M197.4,-52.63C245.76,-42.84 314.99,-28.82 359.94,-19.72"/>
<polygon fill="#63b8ff" stroke="#63b8ff" points="196.78,-49.19 187.68,-54.6 198.17,-56.05 196.78,-49.19"/>
</a>
</g>
</g>
<!-- Node5&#45;&gt;Node3 -->
<g id="edge6_Node000005_Node000003" class="edge">
<title>Node5&#45;&gt;Node3</title>
<g id="a_edge6_Node000005_Node000003"><a xlink:title=" ">
<path fill="none" stroke="#63b8ff" d="M287.59,-51.18C315.62,-41.49 353.58,-28.36 378.62,-19.7"/>
<polygon fill="#63b8ff" stroke="#63b8ff" points="286.74,-47.77 278.43,-54.35 289.02,-54.39 286.74,-47.77"/>
</a>
</g>
</g>
<!-- Node6&#45;&gt;Node3 -->
<g id="edge8_Node000006_Node000003" class="edge">
<title>Node6&#45;&gt;Node3</title>
<g id="a_edge8_Node000006_Node000003"><a xlink:title=" ">
<path fill="none" stroke="#63b8ff" d="M370.24,-46.79C378.89,-37.75 389.17,-27.02 396.27,-19.61"/>
<polygon fill="#63b8ff" stroke="#63b8ff" points="367.73,-44.35 363.34,-53.99 372.79,-49.19 367.73,-44.35"/>
</a>
</g>
</g>
<!-- Node7&#45;&gt;Node3 -->
<g id="edge10_Node000007_Node000003" class="edge">
<title>Node7&#45;&gt;Node3</title>
<g id="a_edge10_Node000007_Node000003"><a xlink:title=" ">
<path fill="none" stroke="#63b8ff" d="M440.47,-47.07C431.58,-37.98 420.96,-27.1 413.65,-19.61"/>
<polygon fill="#63b8ff" stroke="#63b8ff" points="437.74,-49.29 447.23,-54 442.75,-44.4 437.74,-49.29"/>
</a>
</g>
</g>
<!-- Node8&#45;&gt;Node3 -->
<g id="edge12_Node000008_Node000003" class="edge">
<title>Node8&#45;&gt;Node3</title>
<g id="a_edge12_Node000008_Node000003"><a xlink:title=" ">
<path fill="none" stroke="#63b8ff" d="M527.88,-51.31C498.54,-41.6 458.62,-28.4 432.32,-19.7"/>
<polygon fill="#63b8ff" stroke="#63b8ff" points="526.53,-54.55 537.13,-54.37 528.73,-47.9 526.53,-54.55"/>
</a>
</g>
</g>
<!-- Node9&#45;&gt;Node3 -->
<g id="edge14_Node000009_Node000003" class="edge">
<title>Node9&#45;&gt;Node3</title>
<g id="a_edge14_Node000009_Node000003"><a xlink:title=" ">
<path fill="none" stroke="#63b8ff" d="M616.23,-53.58C567.89,-43.76 495.78,-29.1 449.54,-19.7"/>
<polygon fill="#63b8ff" stroke="#63b8ff" points="615.39,-56.98 625.88,-55.54 616.78,-50.12 615.39,-56.98"/>
</a>
</g>
</g>
<!-- Node10&#45;&gt;Node3 -->
<g id="edge16_Node000010_Node000003" class="edge">
<title>Node10&#45;&gt;Node3</title>
<g id="a_edge16_Node000010_Node000003"><a xlink:title=" ">
<path fill="none" stroke="#63b8ff" d="M711.93,-54.82C613.82,-39.25 510.5,-24.89 451.95,-16.93"/>
<polygon fill="#63b8ff" stroke="#63b8ff" points="711.33,-58.27 721.75,-56.38 712.43,-51.35 711.33,-58.27"/>
</a>
</g>
</g>
</g>
</svg>
