<?xml version="1.0" encoding="UTF-8" standalone="no"?>
<!DOCTYPE svg PUBLIC "-//W3C//DTD SVG 1.1//EN"
 "http://www.w3.org/Graphics/SVG/1.1/DTD/svg11.dtd">
<!-- Generated by graphviz version 13.1.0 (20250701.0955)
 -->
<!-- Title: luaV_finishget Pages: 1 -->
<svg width="572pt" height="1406pt"
 viewBox="0.00 0.00 572.00 1406.00" xmlns="http://www.w3.org/2000/svg" xmlns:xlink="http://www.w3.org/1999/xlink">
<g id="graph0" class="graph" transform="scale(1 1) rotate(0) translate(4 1401.97)">
<title>luaV_finishget</title>
<!-- Node1 -->
<g id="Node000001" class="node">
<title>Node1</title>
<g id="a_Node000001"><a xlink:title=" ">
<polygon fill="#999999" stroke="#666666" points="563.75,-263.97 486.25,-263.97 486.25,-244.72 563.75,-244.72 563.75,-263.97"/>
<text xml:space="preserve" text-anchor="middle" x="525" y="-250.47" font-family="Helvetica,sans-Serif" font-size="10.00">luaV_finishget</text>
</a>
</g>
</g>
<!-- Node2 -->
<g id="Node000002" class="node">
<title>Node2</title>
<g id="a_Node000002"><a xlink:href="lapi_8c.html#a1b5746598f4bc03f763853ebe914f75f" target="_top" xlink:title=" ">
<polygon fill="white" stroke="#666666" points="440.88,-840.97 384.38,-840.97 384.38,-821.72 440.88,-821.72 440.88,-840.97"/>
<text xml:space="preserve" text-anchor="middle" x="412.62" y="-827.47" font-family="Helvetica,sans-Serif" font-size="10.00">auxgetstr</text>
</a>
</g>
</g>
<!-- Node1&#45;&gt;Node2 -->
<g id="edge1_Node000001_Node000002" class="edge">
<title>Node1&#45;&gt;Node2</title>
<g id="a_edge1_Node000001_Node000002"><a xlink:title=" ">
<path fill="none" stroke="#63b8ff" d="M519.94,-275.56C501.77,-370.55 428.24,-754.95 415.51,-821.5"/>
<polygon fill="#63b8ff" stroke="#63b8ff" points="523.36,-276.32 521.8,-265.84 516.48,-275.01 523.36,-276.32"/>
</a>
</g>
</g>
<!-- Node213 -->
<g id="Node000213" class="node">
<title>Node213</title>
<g id="a_Node000213"><a xlink:href="lapi_8c.html#a631ebda324b6a0f382ab6b9314917384" target="_top" xlink:title=" ">
<polygon fill="white" stroke="#666666" points="437.5,-300.97 387.75,-300.97 387.75,-281.72 437.5,-281.72 437.5,-300.97"/>
<text xml:space="preserve" text-anchor="middle" x="412.62" y="-287.47" font-family="Helvetica,sans-Serif" font-size="10.00">lua_geti</text>
</a>
</g>
</g>
<!-- Node1&#45;&gt;Node213 -->
<g id="edge34_Node000001_Node000213" class="edge">
<title>Node1&#45;&gt;Node213</title>
<g id="a_edge34_Node000001_Node000213"><a xlink:title=" ">
<path fill="none" stroke="#63b8ff" d="M483.1,-268.05C467.86,-273.16 451.07,-278.79 437.81,-283.23"/>
<polygon fill="#63b8ff" stroke="#63b8ff" points="484.04,-271.43 492.4,-264.93 481.81,-264.79 484.04,-271.43"/>
</a>
</g>
</g>
<!-- Node217 -->
<g id="Node000217" class="node">
<title>Node217</title>
<g id="a_Node000217"><a xlink:href="lapi_8c.html#aa572dbc6e86f796a3e82ffcae4478aeb" target="_top" xlink:title=" ">
<polygon fill="white" stroke="#666666" points="446.88,-189.97 378.38,-189.97 378.38,-170.72 446.88,-170.72 446.88,-189.97"/>
<text xml:space="preserve" text-anchor="middle" x="412.62" y="-176.47" font-family="Helvetica,sans-Serif" font-size="10.00">lua_gettable</text>
</a>
</g>
</g>
<!-- Node1&#45;&gt;Node217 -->
<g id="edge48_Node000001_Node000217" class="edge">
<title>Node1&#45;&gt;Node217</title>
<g id="a_edge48_Node000001_Node000217"><a xlink:title=" ">
<path fill="none" stroke="#63b8ff" d="M499.6,-237.98C477.9,-223.43 446.87,-202.63 428.63,-190.4"/>
<polygon fill="#63b8ff" stroke="#63b8ff" points="497.6,-240.86 507.86,-243.52 501.5,-235.04 497.6,-240.86"/>
</a>
</g>
</g>
<!-- Node219 -->
<g id="Node000219" class="node">
<title>Node219</title>
<g id="a_Node000219"><a xlink:href="lvm_8c.html#a221e6dd0bc488dc961e9007ed8e21189" target="_top" xlink:title=" ">
<polygon fill="white" stroke="#666666" points="450.25,-77.97 375,-77.97 375,-58.72 450.25,-58.72 450.25,-77.97"/>
<text xml:space="preserve" text-anchor="middle" x="412.62" y="-64.47" font-family="Helvetica,sans-Serif" font-size="10.00">luaV_execute</text>
</a>
</g>
</g>
<!-- Node1&#45;&gt;Node219 -->
<g id="edge51_Node000001_Node000219" class="edge">
<title>Node1&#45;&gt;Node219</title>
<g id="a_edge51_Node000001_Node000219"><a xlink:title=" ">
<path fill="none" stroke="#63b8ff" d="M512.27,-234.57C488.87,-195.15 437.14,-107.98 419.59,-78.39"/>
<polygon fill="#63b8ff" stroke="#63b8ff" points="509.18,-236.23 517.29,-243.04 515.2,-232.65 509.18,-236.23"/>
</a>
</g>
</g>
<!-- Node3 -->
<g id="Node000003" class="node">
<title>Node3</title>
<g id="a_Node000003"><a xlink:href="lapi_8c.html#a8b47f1b5685c3f8018ba926abb99af24" target="_top" xlink:title=" ">
<polygon fill="white" stroke="#666666" points="335.25,-840.97 269.75,-840.97 269.75,-821.72 335.25,-821.72 335.25,-840.97"/>
<text xml:space="preserve" text-anchor="middle" x="302.5" y="-827.47" font-family="Helvetica,sans-Serif" font-size="10.00">lua_getfield</text>
</a>
</g>
</g>
<!-- Node2&#45;&gt;Node3 -->
<g id="edge2_Node000002_Node000003" class="edge">
<title>Node2&#45;&gt;Node3</title>
<g id="a_edge2_Node000002_Node000003"><a xlink:title=" ">
<path fill="none" stroke="#63b8ff" d="M372.81,-831.34C360.61,-831.34 347.29,-831.34 335.62,-831.34"/>
<polygon fill="#63b8ff" stroke="#63b8ff" points="372.55,-834.84 382.55,-831.34 372.55,-827.84 372.55,-834.84"/>
</a>
</g>
</g>
<!-- Node205 -->
<g id="Node000205" class="node">
<title>Node205</title>
<g id="a_Node000205"><a xlink:href="lapi_8c.html#a8185a9c46d5930205f95beee4991e9f0" target="_top" xlink:title=" ">
<polygon fill="white" stroke="#666666" points="339,-1286.97 266,-1286.97 266,-1267.72 339,-1267.72 339,-1286.97"/>
<text xml:space="preserve" text-anchor="middle" x="302.5" y="-1273.47" font-family="Helvetica,sans-Serif" font-size="10.00">lua_getglobal</text>
</a>
</g>
</g>
<!-- Node2&#45;&gt;Node205 -->
<g id="edge27_Node000002_Node000205" class="edge">
<title>Node2&#45;&gt;Node205</title>
<g id="a_edge27_Node000002_Node000205"><a xlink:title=" ">
<path fill="none" stroke="#63b8ff" d="M406.64,-851.9C387.57,-930.55 319.63,-1210.81 305.92,-1267.36"/>
<polygon fill="#63b8ff" stroke="#63b8ff" points="409.95,-853.09 408.91,-842.54 403.15,-851.44 409.95,-853.09"/>
</a>
</g>
</g>
<!-- Node4 -->
<g id="Node000004" class="node">
<title>Node4</title>
<g id="a_Node000004"><a xlink:href="loadlib_8c.html#af46f12337af79b3083dc93990be408f2" target="_top" xlink:title=" ">
<polygon fill="#fff0f0" stroke="red" points="196.25,-951.97 141.25,-951.97 141.25,-932.72 196.25,-932.72 196.25,-951.97"/>
<text xml:space="preserve" text-anchor="middle" x="168.75" y="-938.47" font-family="Helvetica,sans-Serif" font-size="10.00">addtoclib</text>
</a>
</g>
</g>
<!-- Node3&#45;&gt;Node4 -->
<g id="edge3_Node000003_Node000004" class="edge">
<title>Node3&#45;&gt;Node4</title>
<g id="a_edge3_Node000003_Node000004"><a xlink:title=" ">
<path fill="none" stroke="#63b8ff" d="M291.17,-851.27C279.21,-872.42 257.57,-905.36 230,-924.34 220.11,-931.15 207.59,-935.43 196.54,-938.1"/>
<polygon fill="#63b8ff" stroke="#63b8ff" points="294.1,-853.21 295.8,-842.75 287.95,-849.86 294.1,-853.21"/>
</a>
</g>
</g>
<!-- Node24 -->
<g id="Node000024" class="node">
<title>Node24</title>
<g id="a_Node000024"><a xlink:href="loadlib_8c.html#ac0600b0f7e00d52a90c3ff67a6b4c114" target="_top" xlink:title=" ">
<polygon fill="#fff0f0" stroke="red" points="197.38,-914.97 140.12,-914.97 140.12,-895.72 197.38,-895.72 197.38,-914.97"/>
<text xml:space="preserve" text-anchor="middle" x="168.75" y="-901.47" font-family="Helvetica,sans-Serif" font-size="10.00">checkclib</text>
</a>
</g>
</g>
<!-- Node3&#45;&gt;Node24 -->
<g id="edge4_Node000003_Node000024" class="edge">
<title>Node3&#45;&gt;Node24</title>
<g id="a_edge4_Node000003_Node000024"><a xlink:title=" ">
<path fill="none" stroke="#63b8ff" d="M282.77,-849.23C269.08,-861.46 249.57,-877.22 230,-887.34 219.92,-892.56 208.08,-896.51 197.58,-899.36"/>
<polygon fill="#63b8ff" stroke="#63b8ff" points="285.13,-851.82 290.12,-842.47 280.39,-846.66 285.13,-851.82"/>
</a>
</g>
</g>
<!-- Node25 -->
<g id="Node000025" class="node">
<title>Node25</title>
<g id="a_Node000025"><a xlink:href="ldblib_8c.html#a6a624ae8d8ff673e72a317b280ed008d" target="_top" xlink:title=" ">
<polygon fill="white" stroke="#666666" points="68.88,-652.97 2.62,-652.97 2.62,-633.72 68.88,-633.72 68.88,-652.97"/>
<text xml:space="preserve" text-anchor="middle" x="35.75" y="-639.47" font-family="Helvetica,sans-Serif" font-size="10.00">db_gethook</text>
</a>
</g>
</g>
<!-- Node3&#45;&gt;Node25 -->
<g id="edge5_Node000003_Node000025" class="edge">
<title>Node3&#45;&gt;Node25</title>
<g id="a_edge5_Node000003_Node000025"><a xlink:title=" ">
<path fill="none" stroke="#63b8ff" d="M267.17,-816.82C218.79,-795.99 133.56,-757.76 107.5,-736.34 77.41,-711.61 52.66,-671.66 42.16,-653.24"/>
<polygon fill="#63b8ff" stroke="#63b8ff" points="265.51,-819.92 276.08,-820.64 268.26,-813.49 265.51,-819.92"/>
</a>
</g>
</g>
<!-- Node26 -->
<g id="Node000026" class="node">
<title>Node26</title>
<g id="a_Node000026"><a xlink:href="loadlib_8c.html#ad32dea0317b28f40e6611c984df051c0" target="_top" xlink:title=" ">
<polygon fill="#fff0f0" stroke="red" points="191,-840.97 146.5,-840.97 146.5,-821.72 191,-821.72 191,-840.97"/>
<text xml:space="preserve" text-anchor="middle" x="168.75" y="-827.47" font-family="Helvetica,sans-Serif" font-size="10.00">findfile</text>
</a>
</g>
</g>
<!-- Node3&#45;&gt;Node26 -->
<g id="edge6_Node000003_Node000026" class="edge">
<title>Node3&#45;&gt;Node26</title>
<g id="a_edge6_Node000003_Node000026"><a xlink:title=" ">
<path fill="none" stroke="#63b8ff" d="M258,-831.34C235.64,-831.34 209.38,-831.34 191.35,-831.34"/>
<polygon fill="#63b8ff" stroke="#63b8ff" points="257.76,-834.84 267.76,-831.34 257.76,-827.84 257.76,-834.84"/>
</a>
</g>
</g>
<!-- Node28 -->
<g id="Node000028" class="node">
<title>Node28</title>
<g id="a_Node000028"><a xlink:href="loadlib_8c.html#aeea4101591c7cab25273f4dfe7d811d6" target="_top" xlink:title=" ">
<polygon fill="white" stroke="#666666" points="197.75,-877.97 139.75,-877.97 139.75,-858.72 197.75,-858.72 197.75,-877.97"/>
<text xml:space="preserve" text-anchor="middle" x="168.75" y="-864.47" font-family="Helvetica,sans-Serif" font-size="10.00">findloader</text>
</a>
</g>
</g>
<!-- Node3&#45;&gt;Node28 -->
<g id="edge7_Node000003_Node000028" class="edge">
<title>Node3&#45;&gt;Node28</title>
<g id="a_edge7_Node000003_Node000028"><a xlink:title=" ">
<path fill="none" stroke="#63b8ff" d="M258.34,-843.46C238.55,-849.02 215.63,-855.46 198.07,-860.39"/>
<polygon fill="#63b8ff" stroke="#63b8ff" points="259.13,-846.88 267.81,-840.8 257.24,-840.14 259.13,-846.88"/>
</a>
</g>
</g>
<!-- Node29 -->
<g id="Node000029" class="node">
<title>Node29</title>
<g id="a_Node000029"><a xlink:href="loadlib_8c.html#a136874f5faa236dc52fb50109281e157" target="_top" xlink:title=" ">
<polygon fill="white" stroke="#666666" points="63.25,-839.97 8.25,-839.97 8.25,-820.72 63.25,-820.72 63.25,-839.97"/>
<text xml:space="preserve" text-anchor="middle" x="35.75" y="-826.47" font-family="Helvetica,sans-Serif" font-size="10.00">ll_require</text>
</a>
</g>
</g>
<!-- Node3&#45;&gt;Node29 -->
<g id="edge18_Node000003_Node000029" class="edge">
<title>Node3&#45;&gt;Node29</title>
<g id="a_edge18_Node000003_Node000029"><a xlink:title=" ">
<path fill="none" stroke="#63b8ff" d="M259.59,-818.26C249.96,-815.8 239.7,-813.61 230,-812.34 176.01,-805.29 161.52,-805.58 107.5,-812.34 92.79,-814.18 76.74,-818.1 63.66,-821.81"/>
<polygon fill="#63b8ff" stroke="#63b8ff" points="258.5,-821.59 269.07,-820.84 260.33,-814.84 258.5,-821.59"/>
</a>
</g>
</g>
<!-- Node30 -->
<g id="Node000030" class="node">
<title>Node30</title>
<g id="a_Node000030"><a xlink:href="liolib_8c.html#aae942558ff528b4e1a483297c64e6886" target="_top" xlink:title=" ">
<polygon fill="#fff0f0" stroke="red" points="192.12,-726.97 145.38,-726.97 145.38,-707.72 192.12,-707.72 192.12,-726.97"/>
<text xml:space="preserve" text-anchor="middle" x="168.75" y="-713.47" font-family="Helvetica,sans-Serif" font-size="10.00">g_iofile</text>
</a>
</g>
</g>
<!-- Node3&#45;&gt;Node30 -->
<g id="edge9_Node000003_Node000030" class="edge">
<title>Node3&#45;&gt;Node30</title>
<g id="a_edge9_Node000003_Node000030"><a xlink:title=" ">
<path fill="none" stroke="#63b8ff" d="M290.13,-811.61C277.66,-791.51 255.93,-760.62 230,-741.34 218.8,-733.01 204.31,-727.12 192.35,-723.26"/>
<polygon fill="#63b8ff" stroke="#63b8ff" points="287,-813.21 295.15,-819.98 293.01,-809.61 287,-813.21"/>
</a>
</g>
</g>
<!-- Node33 -->
<g id="Node000033" class="node">
<title>Node33</title>
<g id="a_Node000033"><a xlink:href="script_8c.html#a4bdcb17ddcfb96f9eb59a7c2f99becc6" target="_top" xlink:title=" ">
<polygon fill="#fff0f0" stroke="red" points="213.88,-689.97 123.62,-689.97 123.62,-670.72 213.88,-670.72 213.88,-689.97"/>
<text xml:space="preserve" text-anchor="middle" x="168.75" y="-676.47" font-family="Helvetica,sans-Serif" font-size="10.00">get_game_scene</text>
</a>
</g>
</g>
<!-- Node3&#45;&gt;Node33 -->
<g id="edge10_Node000003_Node000033" class="edge">
<title>Node3&#45;&gt;Node33</title>
<g id="a_edge10_Node000003_Node000033"><a xlink:title=" ">
<path fill="none" stroke="#63b8ff" d="M295.78,-810.28C286.72,-780.91 266.27,-727.91 230,-698.34 225.35,-694.55 219.91,-691.55 214.24,-689.19"/>
<polygon fill="#63b8ff" stroke="#63b8ff" points="292.41,-811.21 298.56,-819.84 299.13,-809.26 292.41,-811.21"/>
</a>
</g>
</g>
<!-- Node45 -->
<g id="Node000045" class="node">
<title>Node45</title>
<g id="a_Node000045"><a xlink:href="loslib_8c.html#a5dbd1fc25ad13c0f325d09f811bb6172" target="_top" xlink:title=" ">
<polygon fill="#fff0f0" stroke="red" points="201.5,-652.97 136,-652.97 136,-633.72 201.5,-633.72 201.5,-652.97"/>
<text xml:space="preserve" text-anchor="middle" x="168.75" y="-639.47" font-family="Helvetica,sans-Serif" font-size="10.00">getboolfield</text>
</a>
</g>
</g>
<!-- Node3&#45;&gt;Node45 -->
<g id="edge11_Node000003_Node000045" class="edge">
<title>Node3&#45;&gt;Node45</title>
<g id="a_edge11_Node000003_Node000045"><a xlink:title=" ">
<path fill="none" stroke="#63b8ff" d="M298.6,-810.67C292.5,-774.96 274.97,-701.71 230,-661.34 222.2,-654.34 211.78,-650.06 201.8,-647.44"/>
<polygon fill="#63b8ff" stroke="#63b8ff" points="295.08,-810.78 300.08,-820.12 301.99,-809.7 295.08,-810.78"/>
</a>
</g>
</g>
<!-- Node47 -->
<g id="Node000047" class="node">
<title>Node47</title>
<g id="a_Node000047"><a xlink:href="loslib_8c.html#aa0a7f676dc564dbc1a3c16c917b933c9" target="_top" xlink:title=" ">
<polygon fill="#fff0f0" stroke="red" points="192.5,-615.97 145,-615.97 145,-596.72 192.5,-596.72 192.5,-615.97"/>
<text xml:space="preserve" text-anchor="middle" x="168.75" y="-602.47" font-family="Helvetica,sans-Serif" font-size="10.00">getfield</text>
</a>
</g>
</g>
<!-- Node3&#45;&gt;Node47 -->
<g id="edge12_Node000003_Node000047" class="edge">
<title>Node3&#45;&gt;Node47</title>
<g id="a_edge12_Node000003_Node000047"><a xlink:title=" ">
<path fill="none" stroke="#63b8ff" d="M300.34,-810.05C296.91,-768.35 283.36,-675.5 230,-624.34 220.07,-614.82 205.32,-610.31 192.9,-608.19"/>
<polygon fill="#63b8ff" stroke="#63b8ff" points="296.85,-810.22 301.02,-819.96 303.83,-809.74 296.85,-810.22"/>
</a>
</g>
</g>
<!-- Node48 -->
<g id="Node000048" class="node">
<title>Node48</title>
<g id="a_Node000048"><a xlink:href="liolib_8c.html#a7be26d6fbb09f09a189f3719777ff8a9" target="_top" xlink:title=" ">
<polygon fill="#fff0f0" stroke="red" points="193.62,-578.97 143.88,-578.97 143.88,-559.72 193.62,-559.72 193.62,-578.97"/>
<text xml:space="preserve" text-anchor="middle" x="168.75" y="-565.47" font-family="Helvetica,sans-Serif" font-size="10.00">getiofile</text>
</a>
</g>
</g>
<!-- Node3&#45;&gt;Node48 -->
<g id="edge13_Node000003_Node000048" class="edge">
<title>Node3&#45;&gt;Node48</title>
<g id="a_edge13_Node000003_Node000048"><a xlink:title=" ">
<path fill="none" stroke="#63b8ff" d="M301.66,-809.89C300.82,-762.82 292.03,-649.7 230,-587.34 220.53,-577.82 206.25,-573.29 193.97,-571.16"/>
<polygon fill="#63b8ff" stroke="#63b8ff" points="298.16,-809.83 301.72,-819.81 305.16,-809.79 298.16,-809.83"/>
</a>
</g>
</g>
<!-- Node52 -->
<g id="Node000052" class="node">
<title>Node52</title>
<g id="a_Node000052"><a xlink:href="ldblib_8c.html#a5caaa985f31fc5cbd014f831833205e7" target="_top" xlink:title=" ">
<polygon fill="#fff0f0" stroke="red" points="188.75,-541.97 148.75,-541.97 148.75,-522.72 188.75,-522.72 188.75,-541.97"/>
<text xml:space="preserve" text-anchor="middle" x="168.75" y="-528.47" font-family="Helvetica,sans-Serif" font-size="10.00">hookf</text>
</a>
</g>
</g>
<!-- Node3&#45;&gt;Node52 -->
<g id="edge14_Node000003_Node000052" class="edge">
<title>Node3&#45;&gt;Node52</title>
<g id="a_edge14_Node000003_Node000052"><a xlink:title=" ">
<path fill="none" stroke="#63b8ff" d="M298.86,-810.37C291.07,-751.81 266.45,-588.32 230,-550.34 219.42,-539.31 202.39,-534.97 189.13,-533.29"/>
<polygon fill="#63b8ff" stroke="#63b8ff" points="295.34,-810.51 300.1,-819.98 302.29,-809.61 295.34,-810.51"/>
</a>
</g>
</g>
<!-- Node54 -->
<g id="Node000054" class="node">
<title>Node54</title>
<g id="a_Node000054"><a xlink:href="liolib_8c.html#a1c6f8e04184b0f7939e45e24d2d7ef8a" target="_top" xlink:title=" ">
<polygon fill="white" stroke="#666666" points="194.75,-504.97 142.75,-504.97 142.75,-485.72 194.75,-485.72 194.75,-504.97"/>
<text xml:space="preserve" text-anchor="middle" x="168.75" y="-491.47" font-family="Helvetica,sans-Serif" font-size="10.00">io_close</text>
</a>
</g>
</g>
<!-- Node3&#45;&gt;Node54 -->
<g id="edge16_Node000003_Node000054" class="edge">
<title>Node3&#45;&gt;Node54</title>
<g id="a_edge16_Node000003_Node000054"><a xlink:title=" ">
<path fill="none" stroke="#63b8ff" d="M299.51,-810.19C293.08,-746.32 270.9,-557.18 230,-513.34 221.06,-503.76 207.27,-499.21 195.13,-497.07"/>
<polygon fill="#63b8ff" stroke="#63b8ff" points="296.01,-810.39 300.47,-820.01 302.98,-809.71 296.01,-810.39"/>
</a>
</g>
</g>
<!-- Node55 -->
<g id="Node000055" class="node">
<title>Node55</title>
<g id="a_Node000055"><a xlink:href="liolib_8c.html#ab08031b51605d4ef676ec33a3b96a286" target="_top" xlink:title=" ">
<polygon fill="white" stroke="#666666" points="193.25,-467.97 144.25,-467.97 144.25,-448.72 193.25,-448.72 193.25,-467.97"/>
<text xml:space="preserve" text-anchor="middle" x="168.75" y="-454.47" font-family="Helvetica,sans-Serif" font-size="10.00">io_lines</text>
</a>
</g>
</g>
<!-- Node3&#45;&gt;Node55 -->
<g id="edge17_Node000003_Node000055" class="edge">
<title>Node3&#45;&gt;Node55</title>
<g id="a_edge17_Node000003_Node000055"><a xlink:title=" ">
<path fill="none" stroke="#63b8ff" d="M300.03,-810.01C294.88,-741.11 275.38,-526.08 230,-476.34 220.8,-466.26 206.22,-461.73 193.71,-459.74"/>
<polygon fill="#63b8ff" stroke="#63b8ff" points="296.54,-810.2 300.75,-819.92 303.52,-809.7 296.54,-810.2"/>
</a>
</g>
</g>
<!-- Node56 -->
<g id="Node000056" class="node">
<title>Node56</title>
<g id="a_Node000056"><a xlink:href="lauxlib_8c.html#a4cd66d7b986316711233243a268e8e04" target="_top" xlink:title=" ">
<polygon fill="#fff0f0" stroke="red" points="213.5,-1175.97 124,-1175.97 124,-1156.72 213.5,-1156.72 213.5,-1175.97"/>
<text xml:space="preserve" text-anchor="middle" x="168.75" y="-1162.47" font-family="Helvetica,sans-Serif" font-size="10.00">luaL_getsubtable</text>
</a>
</g>
</g>
<!-- Node3&#45;&gt;Node56 -->
<g id="edge19_Node000003_Node000056" class="edge">
<title>Node3&#45;&gt;Node56</title>
<g id="a_edge19_Node000003_Node000056"><a xlink:title=" ">
<path fill="none" stroke="#63b8ff" d="M299.22,-852.29C292.05,-914.72 268.13,-1097.88 230,-1142.34 224.87,-1148.32 218.04,-1152.83 210.82,-1156.22"/>
<polygon fill="#63b8ff" stroke="#63b8ff" points="302.66,-853.03 300.29,-842.7 295.7,-852.25 302.66,-853.03"/>
</a>
</g>
</g>
<!-- Node58 -->
<g id="Node000058" class="node">
<title>Node58</title>
<g id="a_Node000058"><a xlink:href="lauxlib_8c.html#a3cb8205f86c838d8f82b7d2360b1b0f4" target="_top" xlink:title=" ">
<polygon fill="#fff0f0" stroke="red" points="71.5,-1156.97 0,-1156.97 0,-1137.72 71.5,-1137.72 71.5,-1156.97"/>
<text xml:space="preserve" text-anchor="middle" x="35.75" y="-1143.47" font-family="Helvetica,sans-Serif" font-size="10.00">luaL_requiref</text>
</a>
</g>
</g>
<!-- Node3&#45;&gt;Node58 -->
<g id="edge21_Node000003_Node000058" class="edge">
<title>Node3&#45;&gt;Node58</title>
<g id="a_edge21_Node000003_Node000058"><a xlink:title=" ">
<path fill="none" stroke="#63b8ff" d="M299,-852.27C291.6,-910.68 267.9,-1073.57 230,-1109.34 207.62,-1130.47 121.17,-1140.67 71.82,-1144.87"/>
<polygon fill="#63b8ff" stroke="#63b8ff" points="302.43,-853.04 300.18,-842.69 295.48,-852.19 302.43,-853.04"/>
</a>
</g>
</g>
<!-- Node62 -->
<g id="Node000062" class="node">
<title>Node62</title>
<g id="a_Node000062"><a xlink:href="loadlib_8c.html#a10314b90f6fd35b69745366d3f4961ce" target="_top" xlink:title=" ">
<polygon fill="#fff0f0" stroke="red" points="189.88,-1099.97 147.62,-1099.97 147.62,-1080.72 189.88,-1080.72 189.88,-1099.97"/>
<text xml:space="preserve" text-anchor="middle" x="168.75" y="-1086.47" font-family="Helvetica,sans-Serif" font-size="10.00">noenv</text>
</a>
</g>
</g>
<!-- Node3&#45;&gt;Node62 -->
<g id="edge22_Node000003_Node000062" class="edge">
<title>Node3&#45;&gt;Node62</title>
<g id="a_edge22_Node000003_Node000062"><a xlink:title=" ">
<path fill="none" stroke="#63b8ff" d="M301.57,-852.54C300.55,-899.04 291.44,-1010.79 230,-1072.34 219.51,-1082.85 203.16,-1087.27 190.14,-1089.11"/>
<polygon fill="#63b8ff" stroke="#63b8ff" points="305.07,-852.79 301.67,-842.76 298.07,-852.72 305.07,-852.79"/>
</a>
</g>
</g>
<!-- Node41 -->
<g id="Node000041" class="node">
<title>Node41</title>
<g id="a_Node000041"><a xlink:href="script_8c.html#a5bec5abaaaa437e70c9f4046a62a2875" target="_top" xlink:title=" ">
<polygon fill="white" stroke="#666666" points="230,-1062.97 107.5,-1062.97 107.5,-1043.72 230,-1043.72 230,-1062.97"/>
<text xml:space="preserve" text-anchor="middle" x="168.75" y="-1049.47" font-family="Helvetica,sans-Serif" font-size="10.00">pgb_rom_set_breakpoint</text>
</a>
</g>
</g>
<!-- Node3&#45;&gt;Node41 -->
<g id="edge23_Node000003_Node000041" class="edge">
<title>Node3&#45;&gt;Node41</title>
<g id="a_edge23_Node000003_Node000041"><a xlink:title=" ">
<path fill="none" stroke="#63b8ff" d="M300.24,-852.33C296.63,-893.44 282.79,-984.97 230,-1035.34 226.68,-1038.51 222.83,-1041.12 218.71,-1043.27"/>
<polygon fill="#63b8ff" stroke="#63b8ff" points="303.72,-852.82 300.97,-842.59 296.73,-852.3 303.72,-852.82"/>
</a>
</g>
</g>
<!-- Node64 -->
<g id="Node000064" class="node">
<title>Node64</title>
<g id="a_Node000064"><a xlink:href="lauxlib_8c.html#a4f35430f7ecfcbd5f507e550937046b4" target="_top" xlink:title=" ">
<polygon fill="#fff0f0" stroke="red" points="221.38,-1025.97 116.12,-1025.97 116.12,-1006.72 221.38,-1006.72 221.38,-1025.97"/>
<text xml:space="preserve" text-anchor="middle" x="168.75" y="-1012.47" font-family="Helvetica,sans-Serif" font-size="10.00">pushglobalfuncname</text>
</a>
</g>
</g>
<!-- Node3&#45;&gt;Node64 -->
<g id="edge24_Node000003_Node000064" class="edge">
<title>Node3&#45;&gt;Node64</title>
<g id="a_edge24_Node000003_Node000064"><a xlink:title=" ">
<path fill="none" stroke="#63b8ff" d="M298.31,-852.63C291.88,-888.05 274.02,-959.08 230,-998.34 226.42,-1001.54 222.28,-1004.17 217.9,-1006.33"/>
<polygon fill="#63b8ff" stroke="#63b8ff" points="301.76,-853.24 299.94,-842.8 294.85,-852.09 301.76,-853.24"/>
</a>
</g>
</g>
<!-- Node203 -->
<g id="Node000203" class="node">
<title>Node203</title>
<g id="a_Node000203"><a xlink:href="script_8c.html#a9eb7613f3cdeb758e59dc1988584a674" target="_top" xlink:title=" ">
<polygon fill="white" stroke="#666666" points="199.25,-1212.97 138.25,-1212.97 138.25,-1193.72 199.25,-1193.72 199.25,-1212.97"/>
<text xml:space="preserve" text-anchor="middle" x="168.75" y="-1199.47" font-family="Helvetica,sans-Serif" font-size="10.00">script_tick</text>
</a>
</g>
</g>
<!-- Node3&#45;&gt;Node203 -->
<g id="edge25_Node000003_Node000203" class="edge">
<title>Node3&#45;&gt;Node203</title>
<g id="a_edge25_Node000003_Node000203"><a xlink:title=" ">
<path fill="none" stroke="#63b8ff" d="M300.02,-852.61C294.84,-921.32 275.27,-1135.75 230,-1185.34 222.2,-1193.89 210.53,-1198.44 199.53,-1200.85"/>
<polygon fill="#63b8ff" stroke="#63b8ff" points="303.51,-852.96 300.74,-842.74 296.53,-852.46 303.51,-852.96"/>
</a>
</g>
</g>
<!-- Node204 -->
<g id="Node000204" class="node">
<title>Node204</title>
<g id="a_Node000204"><a xlink:href="loadlib_8c.html#a68e1957952958cc41d9ede92dabda1c6" target="_top" xlink:title=" ">
<polygon fill="#fff0f0" stroke="red" points="213.88,-988.97 123.62,-988.97 123.62,-969.72 213.88,-969.72 213.88,-988.97"/>
<text xml:space="preserve" text-anchor="middle" x="168.75" y="-975.47" font-family="Helvetica,sans-Serif" font-size="10.00">searcher_preload</text>
</a>
</g>
</g>
<!-- Node3&#45;&gt;Node204 -->
<g id="edge26_Node000003_Node000204" class="edge">
<title>Node3&#45;&gt;Node204</title>
<g id="a_edge26_Node000003_Node000204"><a xlink:title=" ">
<path fill="none" stroke="#63b8ff" d="M295.65,-851.93C286.42,-880.65 265.78,-932.46 230,-961.34 225.33,-965.11 219.88,-968.09 214.21,-970.45"/>
<polygon fill="#63b8ff" stroke="#63b8ff" points="298.92,-853.2 298.47,-842.62 292.22,-851.17 298.92,-853.2"/>
</a>
</g>
</g>
<!-- Node28&#45;&gt;Node29 -->
<g id="edge8_Node000028_Node000029" class="edge">
<title>Node28&#45;&gt;Node29</title>
<g id="a_edge8_Node000028_Node000029"><a xlink:title=" ">
<path fill="none" stroke="#63b8ff" d="M128.46,-856.95C107.42,-850.84 82.05,-843.48 63.33,-838.05"/>
<polygon fill="#63b8ff" stroke="#63b8ff" points="127.29,-860.25 137.87,-859.67 129.24,-853.53 127.29,-860.25"/>
</a>
</g>
</g>
<!-- Node52&#45;&gt;Node25 -->
<g id="edge15_Node000052_Node000025" class="edge">
<title>Node52&#45;&gt;Node25</title>
<g id="a_edge15_Node000052_Node000025"><a xlink:title=" ">
<path fill="none" stroke="#63b8ff" d="M137.53,-537.42C127.37,-540.12 116.37,-544.2 107.5,-550.34 75.3,-572.62 51.44,-614.17 41.65,-633.27"/>
<polygon fill="#63b8ff" stroke="#63b8ff" points="138.04,-540.9 147.02,-535.27 136.49,-534.07 138.04,-540.9"/>
</a>
</g>
</g>
<!-- Node56&#45;&gt;Node58 -->
<g id="edge20_Node000056_Node000058" class="edge">
<title>Node56&#45;&gt;Node58</title>
<g id="a_edge20_Node000056_Node000058"><a xlink:title=" ">
<path fill="none" stroke="#63b8ff" d="M112.39,-1158.31C98.61,-1156.31 84.21,-1154.23 71.72,-1152.41"/>
<polygon fill="#63b8ff" stroke="#63b8ff" points="111.87,-1161.77 122.27,-1159.74 112.87,-1154.85 111.87,-1161.77"/>
</a>
</g>
</g>
<!-- Node205&#45;&gt;Node203 -->
<g id="edge32_Node000205_Node000203" class="edge">
<title>Node205&#45;&gt;Node203</title>
<g id="a_edge32_Node000205_Node000203"><a xlink:title=" ">
<path fill="none" stroke="#63b8ff" d="M282.77,-1259.45C269.08,-1247.22 249.57,-1231.47 230,-1221.34 220.59,-1216.48 209.67,-1212.71 199.72,-1209.92"/>
<polygon fill="#63b8ff" stroke="#63b8ff" points="280.39,-1262.02 290.12,-1266.21 285.13,-1256.87 280.39,-1262.02"/>
</a>
</g>
</g>
<!-- Node200 -->
<g id="Node000200" class="node">
<title>Node200</title>
<g id="a_Node000200"><a xlink:href="lua_8c.html#ac62266d27f3bed2d1e0a7c9393b95c22" target="_top" xlink:title=" ">
<polygon fill="#fff0f0" stroke="red" points="195.12,-1323.97 142.38,-1323.97 142.38,-1304.72 195.12,-1304.72 195.12,-1323.97"/>
<text xml:space="preserve" text-anchor="middle" x="168.75" y="-1310.47" font-family="Helvetica,sans-Serif" font-size="10.00">dolibrary</text>
</a>
</g>
</g>
<!-- Node205&#45;&gt;Node200 -->
<g id="edge28_Node000205_Node000200" class="edge">
<title>Node205&#45;&gt;Node200</title>
<g id="a_edge28_Node000205_Node000200"><a xlink:title=" ">
<path fill="none" stroke="#63b8ff" d="M255.04,-1290.39C235,-1296.02 212.33,-1302.38 195.4,-1307.14"/>
<polygon fill="#63b8ff" stroke="#63b8ff" points="255.71,-1293.84 264.39,-1287.76 253.82,-1287.1 255.71,-1293.84"/>
</a>
</g>
</g>
<!-- Node206 -->
<g id="Node000206" class="node">
<title>Node206</title>
<g id="a_Node000206"><a xlink:href="lua_8c.html#a00e95c21ddceedb9bbff9717f82f812c" target="_top" xlink:title=" ">
<polygon fill="#fff0f0" stroke="red" points="201.12,-1286.97 136.38,-1286.97 136.38,-1267.72 201.12,-1267.72 201.12,-1286.97"/>
<text xml:space="preserve" text-anchor="middle" x="168.75" y="-1273.47" font-family="Helvetica,sans-Serif" font-size="10.00">get_prompt</text>
</a>
</g>
</g>
<!-- Node205&#45;&gt;Node206 -->
<g id="edge29_Node000205_Node000206" class="edge">
<title>Node205&#45;&gt;Node206</title>
<g id="a_edge29_Node000205_Node000206"><a xlink:title=" ">
<path fill="none" stroke="#63b8ff" d="M254.34,-1277.34C236.76,-1277.34 217.24,-1277.34 201.39,-1277.34"/>
<polygon fill="#63b8ff" stroke="#63b8ff" points="254.33,-1280.84 264.33,-1277.34 254.33,-1273.84 254.33,-1280.84"/>
</a>
</g>
</g>
<!-- Node210 -->
<g id="Node000210" class="node">
<title>Node210</title>
<g id="a_Node000210"><a xlink:href="lua_8c.html#aa6faba0570416a2dfe7783da2dcbf6df" target="_top" xlink:title=" ">
<polygon fill="#fff0f0" stroke="red" points="189.88,-1249.97 147.62,-1249.97 147.62,-1230.72 189.88,-1230.72 189.88,-1249.97"/>
<text xml:space="preserve" text-anchor="middle" x="168.75" y="-1236.47" font-family="Helvetica,sans-Serif" font-size="10.00">l_print</text>
</a>
</g>
</g>
<!-- Node205&#45;&gt;Node210 -->
<g id="edge30_Node000205_Node000210" class="edge">
<title>Node205&#45;&gt;Node210</title>
<g id="a_edge30_Node000205_Node000210"><a xlink:title=" ">
<path fill="none" stroke="#63b8ff" d="M254.96,-1264.27C232.82,-1258.06 207.5,-1250.94 190.25,-1246.1"/>
<polygon fill="#63b8ff" stroke="#63b8ff" points="253.82,-1267.59 264.39,-1266.92 255.71,-1260.85 253.82,-1267.59"/>
</a>
</g>
</g>
<!-- Node211 -->
<g id="Node000211" class="node">
<title>Node211</title>
<g id="a_Node000211"><a xlink:href="lua_8c.html#a1e73bab660617a11ddcbb7d647980d40" target="_top" xlink:title=" ">
<polygon fill="#fff0f0" stroke="red" points="196.62,-1397.97 140.88,-1397.97 140.88,-1378.72 196.62,-1378.72 196.62,-1397.97"/>
<text xml:space="preserve" text-anchor="middle" x="168.75" y="-1384.47" font-family="Helvetica,sans-Serif" font-size="10.00">pushargs</text>
</a>
</g>
</g>
<!-- Node205&#45;&gt;Node211 -->
<g id="edge31_Node000205_Node000211" class="edge">
<title>Node205&#45;&gt;Node211</title>
<g id="a_edge31_Node000205_Node000211"><a xlink:title=" ">
<path fill="none" stroke="#63b8ff" d="M291.17,-1297.27C279.21,-1318.42 257.57,-1351.36 230,-1370.34 220.2,-1377.09 207.82,-1381.35 196.84,-1384.03"/>
<polygon fill="#63b8ff" stroke="#63b8ff" points="294.1,-1299.21 295.8,-1288.75 287.95,-1295.86 294.1,-1299.21"/>
</a>
</g>
</g>
<!-- Node212 -->
<g id="Node000212" class="node">
<title>Node212</title>
<g id="a_Node000212"><a xlink:href="script_8c.html#a7f46b814d26ae8dc0cf41ac19e952352" target="_top" xlink:title=" ">
<polygon fill="#fff0f0" stroke="red" points="220.25,-1360.97 117.25,-1360.97 117.25,-1341.72 220.25,-1341.72 220.25,-1360.97"/>
<text xml:space="preserve" text-anchor="middle" x="168.75" y="-1347.47" font-family="Helvetica,sans-Serif" font-size="10.00">set_package_path_l</text>
</a>
</g>
</g>
<!-- Node205&#45;&gt;Node212 -->
<g id="edge33_Node000205_Node000212" class="edge">
<title>Node205&#45;&gt;Node212</title>
<g id="a_edge33_Node000205_Node000212"><a xlink:title=" ">
<path fill="none" stroke="#63b8ff" d="M282.77,-1295.23C269.08,-1307.46 249.57,-1323.22 230,-1333.34 224.09,-1336.4 217.57,-1339.02 211.07,-1341.25"/>
<polygon fill="#63b8ff" stroke="#63b8ff" points="285.13,-1297.82 290.12,-1288.47 280.39,-1292.66 285.13,-1297.82"/>
</a>
</g>
</g>
<!-- Node214 -->
<g id="Node000214" class="node">
<title>Node214</title>
<g id="a_Node000214"><a xlink:href="ltablib_8c.html#a598479e00f1b316a182b1582012df5d0" target="_top" xlink:title=" ">
<polygon fill="white" stroke="#666666" points="327.38,-189.97 277.62,-189.97 277.62,-170.72 327.38,-170.72 327.38,-189.97"/>
<text xml:space="preserve" text-anchor="middle" x="302.5" y="-176.47" font-family="Helvetica,sans-Serif" font-size="10.00">addfield</text>
</a>
</g>
</g>
<!-- Node213&#45;&gt;Node214 -->
<g id="edge35_Node000213_Node000214" class="edge">
<title>Node213&#45;&gt;Node214</title>
<g id="a_edge35_Node000213_Node000214"><a xlink:title=" ">
<path fill="none" stroke="#63b8ff" d="M399.98,-271.75C387.11,-251.36 364.74,-219.53 339,-198.34 335.37,-195.36 331.17,-192.69 326.95,-190.38"/>
<polygon fill="#63b8ff" stroke="#63b8ff" points="396.96,-273.52 405.18,-280.21 402.93,-269.85 396.96,-273.52"/>
</a>
</g>
</g>
<!-- Node215 -->
<g id="Node000215" class="node">
<title>Node215</title>
<g id="a_Node000215"><a xlink:href="ltablib_8c.html#a151c51c8905acb3db7d6f1e58265b709" target="_top" xlink:title=" ">
<polygon fill="white" stroke="#666666" points="192.88,-412.97 144.62,-412.97 144.62,-393.72 192.88,-393.72 192.88,-412.97"/>
<text xml:space="preserve" text-anchor="middle" x="168.75" y="-399.47" font-family="Helvetica,sans-Serif" font-size="10.00">auxsort</text>
</a>
</g>
</g>
<!-- Node213&#45;&gt;Node215 -->
<g id="edge37_Node000213_Node000215" class="edge">
<title>Node213&#45;&gt;Node215</title>
<g id="a_edge37_Node000213_Node000215"><a xlink:title=" ">
<path fill="none" stroke="#63b8ff" d="M402.03,-311.57C390.42,-333.55 368.69,-367.74 339,-384.34 292.54,-410.31 227.74,-409.16 193.36,-406.18"/>
<polygon fill="#63b8ff" stroke="#63b8ff" points="405.12,-313.21 406.48,-302.7 398.86,-310.06 405.12,-313.21"/>
</a>
</g>
</g>
<!-- Node92 -->
<g id="Node000092" class="node">
<title>Node92</title>
<g id="a_Node000092"><a xlink:href="lbaselib_8c.html#a9e49fcec5e66e36e817b1951123efc03" target="_top" xlink:title=" ">
<polygon fill="white" stroke="#666666" points="330,-374.97 275,-374.97 275,-355.72 330,-355.72 330,-374.97"/>
<text xml:space="preserve" text-anchor="middle" x="302.5" y="-361.47" font-family="Helvetica,sans-Serif" font-size="10.00">ipairsaux</text>
</a>
</g>
</g>
<!-- Node213&#45;&gt;Node92 -->
<g id="edge40_Node000213_Node000092" class="edge">
<title>Node213&#45;&gt;Node92</title>
<g id="a_edge40_Node000213_Node000092"><a xlink:title=" ">
<path fill="none" stroke="#63b8ff" d="M391.85,-308.22C377.65,-319.93 357.78,-335.49 339,-347.34 334.56,-350.15 329.63,-352.87 324.88,-355.32"/>
<polygon fill="#63b8ff" stroke="#63b8ff" points="393.7,-311.23 399.13,-302.13 389.21,-305.86 393.7,-311.23"/>
</a>
</g>
</g>
<!-- Node216 -->
<g id="Node000216" class="node">
<title>Node216</title>
<g id="a_Node000216"><a xlink:href="ltablib_8c.html#a1d53059f696e353656cd98be725ffbd2" target="_top" xlink:title=" ">
<polygon fill="white" stroke="#666666" points="327.75,-450.97 277.25,-450.97 277.25,-431.72 327.75,-431.72 327.75,-450.97"/>
<text xml:space="preserve" text-anchor="middle" x="302.5" y="-437.47" font-family="Helvetica,sans-Serif" font-size="10.00">partition</text>
</a>
</g>
</g>
<!-- Node213&#45;&gt;Node216 -->
<g id="edge42_Node000213_Node000216" class="edge">
<title>Node213&#45;&gt;Node216</title>
<g id="a_edge42_Node000213_Node000216"><a xlink:title=" ">
<path fill="none" stroke="#63b8ff" d="M403.47,-311.45C392.01,-337.95 369.12,-384.98 339,-417.34 334.03,-422.68 327.67,-427.45 321.7,-431.3"/>
<polygon fill="#63b8ff" stroke="#63b8ff" points="406.57,-313.12 407.21,-302.54 400.11,-310.41 406.57,-313.12"/>
</a>
</g>
</g>
<!-- Node126 -->
<g id="Node000126" class="node">
<title>Node126</title>
<g id="a_Node000126"><a xlink:href="ltablib_8c.html#a214ed6966e2b1b4c376ab0de0d09032e" target="_top" xlink:title=" ">
<polygon fill="white" stroke="#666666" points="324,-337.97 281,-337.97 281,-318.72 324,-318.72 324,-337.97"/>
<text xml:space="preserve" text-anchor="middle" x="302.5" y="-324.47" font-family="Helvetica,sans-Serif" font-size="10.00">tinsert</text>
</a>
</g>
</g>
<!-- Node213&#45;&gt;Node126 -->
<g id="edge44_Node000213_Node000126" class="edge">
<title>Node213&#45;&gt;Node126</title>
<g id="a_edge44_Node000213_Node000126"><a xlink:title=" ">
<path fill="none" stroke="#63b8ff" d="M376.56,-303.34C359.34,-309.23 339.18,-316.13 324.4,-321.19"/>
<polygon fill="#63b8ff" stroke="#63b8ff" points="377.6,-306.68 385.93,-300.14 375.33,-300.06 377.6,-306.68"/>
</a>
</g>
</g>
<!-- Node127 -->
<g id="Node000127" class="node">
<title>Node127</title>
<g id="a_Node000127"><a xlink:href="ltablib_8c.html#a2206b11cc9a180fbc33aabb81308fd74" target="_top" xlink:title=" ">
<polygon fill="white" stroke="#666666" points="324,-300.97 281,-300.97 281,-281.72 324,-281.72 324,-300.97"/>
<text xml:space="preserve" text-anchor="middle" x="302.5" y="-287.47" font-family="Helvetica,sans-Serif" font-size="10.00">tmove</text>
</a>
</g>
</g>
<!-- Node213&#45;&gt;Node127 -->
<g id="edge45_Node000213_Node000127" class="edge">
<title>Node213&#45;&gt;Node127</title>
<g id="a_edge45_Node000213_Node000127"><a xlink:title=" ">
<path fill="none" stroke="#63b8ff" d="M376.06,-291.34C358.96,-291.34 339.04,-291.34 324.4,-291.34"/>
<polygon fill="#63b8ff" stroke="#63b8ff" points="375.85,-294.84 385.85,-291.34 375.85,-287.84 375.85,-294.84"/>
</a>
</g>
</g>
<!-- Node117 -->
<g id="Node000117" class="node">
<title>Node117</title>
<g id="a_Node000117"><a xlink:href="ltablib_8c.html#ad8c41fe887a472709c6fdf075ba39d56" target="_top" xlink:title=" ">
<polygon fill="white" stroke="#666666" points="328.12,-263.97 276.88,-263.97 276.88,-244.72 328.12,-244.72 328.12,-263.97"/>
<text xml:space="preserve" text-anchor="middle" x="302.5" y="-250.47" font-family="Helvetica,sans-Serif" font-size="10.00">tremove</text>
</a>
</g>
</g>
<!-- Node213&#45;&gt;Node117 -->
<g id="edge46_Node000213_Node000117" class="edge">
<title>Node213&#45;&gt;Node117</title>
<g id="a_edge46_Node000213_Node000117"><a xlink:title=" ">
<path fill="none" stroke="#63b8ff" d="M376.92,-279.47C361.14,-274.07 342.82,-267.8 328.43,-262.87"/>
<polygon fill="#63b8ff" stroke="#63b8ff" points="375.33,-282.62 385.93,-282.55 377.6,-276 375.33,-282.62"/>
</a>
</g>
</g>
<!-- Node118 -->
<g id="Node000118" class="node">
<title>Node118</title>
<g id="a_Node000118"><a xlink:href="ltablib_8c.html#ae37fc20bd47c2a4385a87a12090f4e9b" target="_top" xlink:title=" ">
<polygon fill="white" stroke="#666666" points="327.75,-226.97 277.25,-226.97 277.25,-207.72 327.75,-207.72 327.75,-226.97"/>
<text xml:space="preserve" text-anchor="middle" x="302.5" y="-213.47" font-family="Helvetica,sans-Serif" font-size="10.00">tunpack</text>
</a>
</g>
</g>
<!-- Node213&#45;&gt;Node118 -->
<g id="edge47_Node000213_Node000118" class="edge">
<title>Node213&#45;&gt;Node118</title>
<g id="a_edge47_Node000213_Node000118"><a xlink:title=" ">
<path fill="none" stroke="#63b8ff" d="M391.85,-274.46C377.65,-262.75 357.78,-247.19 339,-235.34 334.56,-232.54 329.63,-229.81 324.88,-227.37"/>
<polygon fill="#63b8ff" stroke="#63b8ff" points="389.21,-276.82 399.13,-280.55 393.7,-271.45 389.21,-276.82"/>
</a>
</g>
</g>
<!-- Node116 -->
<g id="Node000116" class="node">
<title>Node116</title>
<g id="a_Node000116"><a xlink:href="ltablib_8c.html#add6973c515a288f41265aca8e0ae6412" target="_top" xlink:title=" ">
<polygon fill="white" stroke="#666666" points="192.88,-189.97 144.62,-189.97 144.62,-170.72 192.88,-170.72 192.88,-189.97"/>
<text xml:space="preserve" text-anchor="middle" x="168.75" y="-176.47" font-family="Helvetica,sans-Serif" font-size="10.00">tconcat</text>
</a>
</g>
</g>
<!-- Node214&#45;&gt;Node116 -->
<g id="edge36_Node000214_Node000116" class="edge">
<title>Node214&#45;&gt;Node116</title>
<g id="a_edge36_Node000214_Node000116"><a xlink:title=" ">
<path fill="none" stroke="#63b8ff" d="M265.94,-180.34C242.89,-180.34 213.51,-180.34 193.32,-180.34"/>
<polygon fill="#63b8ff" stroke="#63b8ff" points="265.82,-183.84 275.82,-180.34 265.82,-176.84 265.82,-183.84"/>
</a>
</g>
</g>
<!-- Node215&#45;&gt;Node215 -->
<g id="edge38_Node000215_Node000215" class="edge">
<title>Node215&#45;&gt;Node215</title>
<g id="a_edge38_Node000215_Node000215"><a xlink:title=" ">
<path fill="none" stroke="#63b8ff" d="M192.36,-424.37C189.4,-428.24 181.54,-430.97 168.75,-430.97 145.37,-430.97 138.43,-421.86 147.93,-413.25"/>
<polygon fill="#63b8ff" stroke="#63b8ff" points="195.77,-423.57 189.94,-414.72 188.98,-425.27 195.77,-423.57"/>
</a>
</g>
</g>
<!-- Node189 -->
<g id="Node000189" class="node">
<title>Node189</title>
<g id="a_Node000189"><a xlink:href="ltablib_8c.html#ae7d3f892e2605bf102dce63de388e626" target="_top" xlink:title=" ">
<polygon fill="white" stroke="#666666" points="52,-412.97 19.5,-412.97 19.5,-393.72 52,-393.72 52,-412.97"/>
<text xml:space="preserve" text-anchor="middle" x="35.75" y="-399.47" font-family="Helvetica,sans-Serif" font-size="10.00">sort</text>
</a>
</g>
</g>
<!-- Node215&#45;&gt;Node189 -->
<g id="edge39_Node000215_Node000189" class="edge">
<title>Node215&#45;&gt;Node189</title>
<g id="a_edge39_Node000215_Node000189"><a xlink:title=" ">
<path fill="none" stroke="#63b8ff" d="M132.95,-403.34C106.69,-403.34 71.92,-403.34 52.18,-403.34"/>
<polygon fill="#63b8ff" stroke="#63b8ff" points="132.82,-406.84 142.82,-403.34 132.82,-399.84 132.82,-406.84"/>
</a>
</g>
</g>
<!-- Node93 -->
<g id="Node000093" class="node">
<title>Node93</title>
<g id="a_Node000093"><a xlink:href="lbaselib_8c.html#a5cb8b3b13437afd94c3313f0a4b17d06" target="_top" xlink:title=" ">
<polygon fill="white" stroke="#666666" points="200.75,-374.97 136.75,-374.97 136.75,-355.72 200.75,-355.72 200.75,-374.97"/>
<text xml:space="preserve" text-anchor="middle" x="168.75" y="-361.47" font-family="Helvetica,sans-Serif" font-size="10.00">luaB_ipairs</text>
</a>
</g>
</g>
<!-- Node92&#45;&gt;Node93 -->
<g id="edge41_Node000092_Node000093" class="edge">
<title>Node92&#45;&gt;Node93</title>
<g id="a_edge41_Node000092_Node000093"><a xlink:title=" ">
<path fill="none" stroke="#63b8ff" d="M263.1,-365.34C243.31,-365.34 219.48,-365.34 200.86,-365.34"/>
<polygon fill="#63b8ff" stroke="#63b8ff" points="263.01,-368.84 273.01,-365.34 263.01,-361.84 263.01,-368.84"/>
</a>
</g>
</g>
<!-- Node216&#45;&gt;Node215 -->
<g id="edge43_Node000216_Node000215" class="edge">
<title>Node216&#45;&gt;Node215</title>
<g id="a_edge43_Node000216_Node000215"><a xlink:title=" ">
<path fill="none" stroke="#63b8ff" d="M266.26,-431.18C243.12,-424.5 213.49,-415.96 193.21,-410.11"/>
<polygon fill="#63b8ff" stroke="#63b8ff" points="265,-434.46 275.57,-433.86 266.93,-427.73 265,-434.46"/>
</a>
</g>
</g>
<!-- Node218 -->
<g id="Node000218" class="node">
<title>Node218</title>
<g id="a_Node000218"><a xlink:href="lstrlib_8c.html#a853703c83ab694a70212461d5cfe7843" target="_top" xlink:title=" ">
<polygon fill="white" stroke="#666666" points="332.62,-152.97 272.38,-152.97 272.38,-133.72 332.62,-133.72 332.62,-152.97"/>
<text xml:space="preserve" text-anchor="middle" x="302.5" y="-139.47" font-family="Helvetica,sans-Serif" font-size="10.00">add_value</text>
</a>
</g>
</g>
<!-- Node217&#45;&gt;Node218 -->
<g id="edge49_Node000217_Node000218" class="edge">
<title>Node217&#45;&gt;Node218</title>
<g id="a_edge49_Node000217_Node000218"><a xlink:title=" ">
<path fill="none" stroke="#63b8ff" d="M371.28,-166.54C358.58,-162.19 344.81,-157.48 333.01,-153.44"/>
<polygon fill="#63b8ff" stroke="#63b8ff" points="370.05,-169.82 380.65,-169.74 372.32,-163.19 370.05,-169.82"/>
</a>
</g>
</g>
<!-- Node115 -->
<g id="Node000115" class="node">
<title>Node115</title>
<g id="a_Node000115"><a xlink:href="lstrlib_8c.html#a42337c674d265175bcc2b2f3809c7339" target="_top" xlink:title=" ">
<polygon fill="white" stroke="#666666" points="195.5,-152.97 142,-152.97 142,-133.72 195.5,-133.72 195.5,-152.97"/>
<text xml:space="preserve" text-anchor="middle" x="168.75" y="-139.47" font-family="Helvetica,sans-Serif" font-size="10.00">str_gsub</text>
</a>
</g>
</g>
<!-- Node218&#45;&gt;Node115 -->
<g id="edge50_Node000218_Node000115" class="edge">
<title>Node218&#45;&gt;Node115</title>
<g id="a_edge50_Node000218_Node000115"><a xlink:title=" ">
<path fill="none" stroke="#63b8ff" d="M260.64,-143.34C239.43,-143.34 214.16,-143.34 195.66,-143.34"/>
<polygon fill="#63b8ff" stroke="#63b8ff" points="260.42,-146.84 270.42,-143.34 260.42,-139.84 260.42,-146.84"/>
</a>
</g>
</g>
<!-- Node220 -->
<g id="Node000220" class="node">
<title>Node220</title>
<g id="a_Node000220"><a xlink:href="ldo_8c.html#a4f4ebad7879dc4379dd557725278ffef" target="_top" xlink:title=" ">
<polygon fill="#fff0f0" stroke="red" points="320.62,-39.97 284.38,-39.97 284.38,-20.72 320.62,-20.72 320.62,-39.97"/>
<text xml:space="preserve" text-anchor="middle" x="302.5" y="-26.47" font-family="Helvetica,sans-Serif" font-size="10.00">ccall</text>
</a>
</g>
</g>
<!-- Node219&#45;&gt;Node220 -->
<g id="edge52_Node000219_Node000220" class="edge">
<title>Node219&#45;&gt;Node220</title>
<g id="a_edge52_Node000219_Node000220"><a xlink:title=" ">
<path fill="none" stroke="#63b8ff" d="M372.3,-54.52C354.62,-48.31 334.67,-41.29 320.82,-36.43"/>
<polygon fill="#63b8ff" stroke="#63b8ff" points="370.91,-57.74 381.51,-57.76 373.23,-51.14 370.91,-57.74"/>
</a>
</g>
</g>
<!-- Node463 -->
<g id="Node000463" class="node">
<title>Node463</title>
<g id="a_Node000463"><a xlink:href="ldo_8c.html#abd7632c715de5db6e7797b7fa3f7010f" target="_top" xlink:title=" ">
<polygon fill="#fff0f0" stroke="red" points="192.88,-77.97 144.62,-77.97 144.62,-58.72 192.88,-58.72 192.88,-77.97"/>
<text xml:space="preserve" text-anchor="middle" x="168.75" y="-64.47" font-family="Helvetica,sans-Serif" font-size="10.00">resume</text>
</a>
</g>
</g>
<!-- Node219&#45;&gt;Node463 -->
<g id="edge56_Node000219_Node000463" class="edge">
<title>Node219&#45;&gt;Node463</title>
<g id="a_edge56_Node000219_Node000463"><a xlink:title=" ">
<path fill="none" stroke="#63b8ff" d="M363.13,-68.34C311.61,-68.34 232.33,-68.34 193.22,-68.34"/>
<polygon fill="#63b8ff" stroke="#63b8ff" points="363.11,-71.84 373.11,-68.34 363.11,-64.84 363.11,-71.84"/>
</a>
</g>
</g>
<!-- Node458 -->
<g id="Node000458" class="node">
<title>Node458</title>
<g id="a_Node000458"><a xlink:href="ldo_8c.html#a3baab9d298c0c32cb74a9a079d7244de" target="_top" xlink:title=" ">
<polygon fill="#fff0f0" stroke="red" points="322.12,-115.97 282.88,-115.97 282.88,-96.72 322.12,-96.72 322.12,-115.97"/>
<text xml:space="preserve" text-anchor="middle" x="302.5" y="-102.47" font-family="Helvetica,sans-Serif" font-size="10.00">unroll</text>
</a>
</g>
</g>
<!-- Node219&#45;&gt;Node458 -->
<g id="edge57_Node000219_Node000458" class="edge">
<title>Node219&#45;&gt;Node458</title>
<g id="a_edge57_Node000219_Node000458"><a xlink:title=" ">
<path fill="none" stroke="#63b8ff" d="M372.16,-82.21C355.19,-88.18 336.15,-94.87 322.43,-99.69"/>
<polygon fill="#63b8ff" stroke="#63b8ff" points="373.23,-85.54 381.51,-78.93 370.91,-78.94 373.23,-85.54"/>
</a>
</g>
</g>
<!-- Node221 -->
<g id="Node000221" class="node">
<title>Node221</title>
<g id="a_Node000221"><a xlink:href="ldo_8c.html#a5483fddd87ca999e7d037bf397ab7997" target="_top" xlink:title=" ">
<polygon fill="#fff0f0" stroke="red" points="197,-20.97 140.5,-20.97 140.5,-1.72 197,-1.72 197,-20.97"/>
<text xml:space="preserve" text-anchor="middle" x="168.75" y="-7.47" font-family="Helvetica,sans-Serif" font-size="10.00">luaD_call</text>
</a>
</g>
</g>
<!-- Node220&#45;&gt;Node221 -->
<g id="edge53_Node000220_Node000221" class="edge">
<title>Node220&#45;&gt;Node221</title>
<g id="a_edge53_Node000220_Node000221"><a xlink:title=" ">
<path fill="none" stroke="#63b8ff" d="M272.87,-26.21C250.49,-22.99 219.57,-18.53 197.44,-15.33"/>
<polygon fill="#63b8ff" stroke="#63b8ff" points="272.11,-29.64 282.51,-27.6 273.11,-22.71 272.11,-29.64"/>
</a>
</g>
</g>
<!-- Node220&#45;&gt;Node463 -->
<g id="edge55_Node000220_Node000463" class="edge">
<title>Node220&#45;&gt;Node463</title>
<g id="a_edge55_Node000220_Node000463"><a xlink:title=" ">
<path fill="none" stroke="#63b8ff" d="M273.16,-38.52C249.26,-45.41 215.47,-55.16 193.1,-61.61"/>
<polygon fill="#63b8ff" stroke="#63b8ff" points="273.91,-41.94 282.55,-35.81 271.97,-35.22 273.91,-41.94"/>
</a>
</g>
</g>
<!-- Node221&#45;&gt;Node219 -->
<g id="edge54_Node000221_Node000219" class="edge">
<title>Node221&#45;&gt;Node219</title>
<g id="a_edge54_Node000221_Node000219"><a xlink:title=" ">
<path fill="none" stroke="#63b8ff" d="M208.52,-4.31C243.61,0.43 296.21,3.45 339,-11.34 365.97,-20.66 390.54,-44.58 403.02,-58.29"/>
<polygon fill="#63b8ff" stroke="#63b8ff" points="208.21,-0.82 198.83,-5.74 209.23,-7.74 208.21,-0.82"/>
</a>
</g>
</g>
<!-- Node458&#45;&gt;Node463 -->
<g id="edge58_Node000458_Node000463" class="edge">
<title>Node458&#45;&gt;Node463</title>
<g id="a_edge58_Node000458_Node000463"><a xlink:title=" ">
<path fill="none" stroke="#63b8ff" d="M271.75,-97.76C247.92,-90.89 214.97,-81.38 193.03,-75.06"/>
<polygon fill="#63b8ff" stroke="#63b8ff" points="270.59,-101.07 281.17,-100.48 272.53,-94.34 270.59,-101.07"/>
</a>
</g>
</g>
</g>
</svg>
