<?xml version="1.0" encoding="UTF-8" standalone="no"?>
<!DOCTYPE svg PUBLIC "-//W3C//DTD SVG 1.1//EN"
 "http://www.w3.org/Graphics/SVG/1.1/DTD/svg11.dtd">
<!-- Generated by graphviz version 13.1.0 (20250701.0955)
 -->
<!-- Title: lua&#45;5.4.7/lvm.c Pages: 1 -->
<svg width="995pt" height="525pt"
 viewBox="0.00 0.00 995.00 525.00" xmlns="http://www.w3.org/2000/svg" xmlns:xlink="http://www.w3.org/1999/xlink">
<g id="graph0" class="graph" transform="scale(1 1) rotate(0) translate(4 520.5)">
<title>lua&#45;5.4.7/lvm.c</title>
<!-- Node1 -->
<g id="Node000001" class="node">
<title>Node1</title>
<g id="a_Node000001"><a xlink:title=" ">
<polygon fill="#999999" stroke="#666666" points="504.5,-516.5 424,-516.5 424,-497.25 504.5,-497.25 504.5,-516.5"/>
<text xml:space="preserve" text-anchor="middle" x="464.25" y="-503" font-family="Helvetica,sans-Serif" font-size="10.00">lua&#45;5.4.7/lvm.c</text>
</a>
</g>
</g>
<!-- Node2 -->
<g id="Node000002" class="node">
<title>Node2</title>
<g id="a_Node000002"><a xlink:href="lprefix_8h.html" target="_top" xlink:title=" ">
<polygon fill="white" stroke="#666666" points="50.5,-461.25 0,-461.25 0,-442 50.5,-442 50.5,-461.25"/>
<text xml:space="preserve" text-anchor="middle" x="25.25" y="-447.75" font-family="Helvetica,sans-Serif" font-size="10.00">lprefix.h</text>
</a>
</g>
</g>
<!-- Node1&#45;&gt;Node2 -->
<g id="edge1_Node000001_Node000002" class="edge">
<title>Node1&#45;&gt;Node2</title>
<g id="a_edge1_Node000001_Node000002"><a xlink:title=" ">
<path fill="none" stroke="#63b8ff" d="M423.74,-503.28C352.46,-498.31 199.83,-485.87 61.95,-461.51"/>
<polygon fill="#63b8ff" stroke="#63b8ff" points="62.74,-458.1 52.28,-459.77 61.5,-464.99 62.74,-458.1"/>
</a>
</g>
</g>
<!-- Node3 -->
<g id="Node000003" class="node">
<title>Node3</title>
<g id="a_Node000003"><a xlink:title=" ">
<polygon fill="#e0e0e0" stroke="#999999" points="111.75,-461.25 68.75,-461.25 68.75,-442 111.75,-442 111.75,-461.25"/>
<text xml:space="preserve" text-anchor="middle" x="90.25" y="-447.75" font-family="Helvetica,sans-Serif" font-size="10.00">float.h</text>
</a>
</g>
</g>
<!-- Node1&#45;&gt;Node3 -->
<g id="edge2_Node000001_Node000003" class="edge">
<title>Node1&#45;&gt;Node3</title>
<g id="a_edge2_Node000001_Node000003"><a xlink:title=" ">
<path fill="none" stroke="#63b8ff" d="M423.71,-501.9C360.06,-495.35 232.9,-481.01 126.25,-461.25 125.08,-461.03 123.89,-460.8 122.69,-460.56"/>
<polygon fill="#63b8ff" stroke="#63b8ff" points="123.87,-457.24 113.35,-458.51 122.37,-464.07 123.87,-457.24"/>
</a>
</g>
</g>
<!-- Node4 -->
<g id="Node000004" class="node">
<title>Node4</title>
<g id="a_Node000004"><a xlink:title=" ">
<polygon fill="#e0e0e0" stroke="#999999" points="648,-19.25 600.5,-19.25 600.5,0 648,0 648,-19.25"/>
<text xml:space="preserve" text-anchor="middle" x="624.25" y="-5.75" font-family="Helvetica,sans-Serif" font-size="10.00">limits.h</text>
</a>
</g>
</g>
<!-- Node1&#45;&gt;Node4 -->
<g id="edge3_Node000001_Node000004" class="edge">
<title>Node1&#45;&gt;Node4</title>
<g id="a_edge3_Node000001_Node000004"><a xlink:title=" ">
<path fill="none" stroke="#63b8ff" d="M423.66,-503.72C375.14,-499.92 292.34,-489.52 227.25,-461.25 183.25,-442.14 140.25,-445.34 140.25,-397.38 140.25,-397.38 140.25,-397.38 140.25,-119.12 140.25,-27.11 477.56,-13.11 588.99,-11"/>
<polygon fill="#63b8ff" stroke="#63b8ff" points="588.79,-14.5 598.74,-10.83 588.68,-7.5 588.79,-14.5"/>
</a>
</g>
</g>
<!-- Node5 -->
<g id="Node000005" class="node">
<title>Node5</title>
<g id="a_Node000005"><a xlink:title=" ">
<polygon fill="#e0e0e0" stroke="#999999" points="792.25,-461.25 746.25,-461.25 746.25,-442 792.25,-442 792.25,-461.25"/>
<text xml:space="preserve" text-anchor="middle" x="769.25" y="-447.75" font-family="Helvetica,sans-Serif" font-size="10.00">math.h</text>
</a>
</g>
</g>
<!-- Node1&#45;&gt;Node5 -->
<g id="edge4_Node000001_Node000005" class="edge">
<title>Node1&#45;&gt;Node5</title>
<g id="a_edge4_Node000001_Node000005"><a xlink:title=" ">
<path fill="none" stroke="#63b8ff" d="M504.81,-499.95C557.42,-492.07 652,-477.27 732.25,-461.25 733.07,-461.09 733.91,-460.92 734.75,-460.74"/>
<polygon fill="#63b8ff" stroke="#63b8ff" points="735.31,-464.2 744.33,-458.65 733.82,-457.36 735.31,-464.2"/>
</a>
</g>
</g>
<!-- Node6 -->
<g id="Node000006" class="node">
<title>Node6</title>
<g id="a_Node000006"><a xlink:title=" ">
<polygon fill="#e0e0e0" stroke="#999999" points="855.88,-461.25 810.62,-461.25 810.62,-442 855.88,-442 855.88,-461.25"/>
<text xml:space="preserve" text-anchor="middle" x="833.25" y="-447.75" font-family="Helvetica,sans-Serif" font-size="10.00">stdio.h</text>
</a>
</g>
</g>
<!-- Node1&#45;&gt;Node6 -->
<g id="edge5_Node000001_Node000006" class="edge">
<title>Node1&#45;&gt;Node6</title>
<g id="a_edge5_Node000001_Node000006"><a xlink:title=" ">
<path fill="none" stroke="#63b8ff" d="M505,-502.23C566.59,-496.33 687.25,-483.31 799.12,-461.42"/>
<polygon fill="#63b8ff" stroke="#63b8ff" points="799.65,-464.89 808.78,-459.5 798.29,-458.02 799.65,-464.89"/>
</a>
</g>
</g>
<!-- Node7 -->
<g id="Node000007" class="node">
<title>Node7</title>
<g id="a_Node000007"><a xlink:title=" ">
<polygon fill="#e0e0e0" stroke="#999999" points="921,-461.25 873.5,-461.25 873.5,-442 921,-442 921,-461.25"/>
<text xml:space="preserve" text-anchor="middle" x="897.25" y="-447.75" font-family="Helvetica,sans-Serif" font-size="10.00">stdlib.h</text>
</a>
</g>
</g>
<!-- Node1&#45;&gt;Node7 -->
<g id="edge6_Node000001_Node000007" class="edge">
<title>Node1&#45;&gt;Node7</title>
<g id="a_edge6_Node000001_Node000007"><a xlink:title=" ">
<path fill="none" stroke="#63b8ff" d="M504.97,-503.4C575.84,-498.66 726.6,-486.59 862.24,-461.58"/>
<polygon fill="#63b8ff" stroke="#63b8ff" points="862.56,-465.08 871.74,-459.8 861.27,-458.2 862.56,-465.08"/>
</a>
</g>
</g>
<!-- Node8 -->
<g id="Node000008" class="node">
<title>Node8</title>
<g id="a_Node000008"><a xlink:title=" ">
<polygon fill="#e0e0e0" stroke="#999999" points="987.38,-461.25 939.12,-461.25 939.12,-442 987.38,-442 987.38,-461.25"/>
<text xml:space="preserve" text-anchor="middle" x="963.25" y="-447.75" font-family="Helvetica,sans-Serif" font-size="10.00">string.h</text>
</a>
</g>
</g>
<!-- Node1&#45;&gt;Node8 -->
<g id="edge7_Node000001_Node000008" class="edge">
<title>Node1&#45;&gt;Node8</title>
<g id="a_edge7_Node000001_Node000008"><a xlink:title=" ">
<path fill="none" stroke="#63b8ff" d="M504.75,-504.18C584.16,-500.39 765.99,-489.4 927.72,-461.43"/>
<polygon fill="#63b8ff" stroke="#63b8ff" points="928.11,-464.91 937.35,-459.73 926.89,-458.02 928.11,-464.91"/>
</a>
</g>
</g>
<!-- Node9 -->
<g id="Node000009" class="node">
<title>Node9</title>
<g id="a_Node000009"><a xlink:href="lua_8h.html" target="_top" xlink:title=" ">
<polygon fill="white" stroke="#666666" points="644.75,-129.75 607.75,-129.75 607.75,-110.5 644.75,-110.5 644.75,-129.75"/>
<text xml:space="preserve" text-anchor="middle" x="626.25" y="-116.25" font-family="Helvetica,sans-Serif" font-size="10.00">lua.h</text>
</a>
</g>
</g>
<!-- Node1&#45;&gt;Node9 -->
<g id="edge8_Node000001_Node000009" class="edge">
<title>Node1&#45;&gt;Node9</title>
<g id="a_edge8_Node000001_Node000009"><a xlink:title=" ">
<path fill="none" stroke="#63b8ff" d="M423.62,-501.44C370.27,-494.92 280.32,-481.3 254.25,-461.25 204.6,-423.07 177.02,-390.06 199.25,-331.5 260.94,-168.96 509.61,-131.49 596.28,-123.3"/>
<polygon fill="#63b8ff" stroke="#63b8ff" points="596.46,-126.8 606.12,-122.44 595.85,-119.82 596.46,-126.8"/>
</a>
</g>
</g>
<!-- Node13 -->
<g id="Node000013" class="node">
<title>Node13</title>
<g id="a_Node000013"><a xlink:href="ldebug_8h.html" target="_top" xlink:title=" ">
<polygon fill="white" stroke="#666666" points="684.62,-406 631.88,-406 631.88,-386.75 684.62,-386.75 684.62,-406"/>
<text xml:space="preserve" text-anchor="middle" x="658.25" y="-392.5" font-family="Helvetica,sans-Serif" font-size="10.00">ldebug.h</text>
</a>
</g>
</g>
<!-- Node1&#45;&gt;Node13 -->
<g id="edge14_Node000001_Node000013" class="edge">
<title>Node1&#45;&gt;Node13</title>
<g id="a_edge14_Node000001_Node000013"><a xlink:title=" ">
<path fill="none" stroke="#63b8ff" d="M504.79,-502.15C538.1,-497.33 585.04,-486.32 618.25,-461.25 633.41,-449.8 644.24,-430.8 650.78,-416.48"/>
<polygon fill="#63b8ff" stroke="#63b8ff" points="653.84,-418.22 654.51,-407.64 647.4,-415.49 653.84,-418.22"/>
</a>
</g>
</g>
<!-- Node14 -->
<g id="Node000014" class="node">
<title>Node14</title>
<g id="a_Node000014"><a xlink:href="lstate_8h.html" target="_top" xlink:title=" ">
<polygon fill="white" stroke="#666666" points="617.38,-350.75 569.12,-350.75 569.12,-331.5 617.38,-331.5 617.38,-350.75"/>
<text xml:space="preserve" text-anchor="middle" x="593.25" y="-337.25" font-family="Helvetica,sans-Serif" font-size="10.00">lstate.h</text>
</a>
</g>
</g>
<!-- Node1&#45;&gt;Node14 -->
<g id="edge46_Node000001_Node000014" class="edge">
<title>Node1&#45;&gt;Node14</title>
<g id="a_edge46_Node000001_Node000014"><a xlink:title=" ">
<path fill="none" stroke="#63b8ff" d="M504.82,-498.81C527.69,-492.71 554.88,-481.53 571.25,-461.25 594.19,-432.83 596.13,-388.15 595.01,-362.35"/>
<polygon fill="#63b8ff" stroke="#63b8ff" points="598.51,-362.31 594.36,-352.57 591.53,-362.78 598.51,-362.31"/>
</a>
</g>
</g>
<!-- Node15 -->
<g id="Node000015" class="node">
<title>Node15</title>
<g id="a_Node000015"><a xlink:href="lobject_8h.html" target="_top" xlink:title=" ">
<polygon fill="white" stroke="#666666" points="441.62,-240.25 388.88,-240.25 388.88,-221 441.62,-221 441.62,-240.25"/>
<text xml:space="preserve" text-anchor="middle" x="415.25" y="-226.75" font-family="Helvetica,sans-Serif" font-size="10.00">lobject.h</text>
</a>
</g>
</g>
<!-- Node1&#45;&gt;Node15 -->
<g id="edge43_Node000001_Node000015" class="edge">
<title>Node1&#45;&gt;Node15</title>
<g id="a_edge43_Node000001_Node000015"><a xlink:title=" ">
<path fill="none" stroke="#63b8ff" d="M430.85,-496.85C388.31,-483.09 320.25,-452.47 320.25,-397.38 320.25,-397.38 320.25,-397.38 320.25,-340.12 320.25,-298.2 360.89,-264.71 389.01,-246.54"/>
<polygon fill="#63b8ff" stroke="#63b8ff" points="390.74,-249.59 397.41,-241.36 387.07,-243.63 390.74,-249.59"/>
</a>
</g>
</g>
<!-- Node17 -->
<g id="Node000017" class="node">
<title>Node17</title>
<g id="a_Node000017"><a xlink:href="ltm_8h.html" target="_top" xlink:title=" ">
<polygon fill="white" stroke="#666666" points="500.12,-295.5 462.38,-295.5 462.38,-276.25 500.12,-276.25 500.12,-295.5"/>
<text xml:space="preserve" text-anchor="middle" x="481.25" y="-282" font-family="Helvetica,sans-Serif" font-size="10.00">ltm.h</text>
</a>
</g>
</g>
<!-- Node1&#45;&gt;Node17 -->
<g id="edge53_Node000001_Node000017" class="edge">
<title>Node1&#45;&gt;Node17</title>
<g id="a_edge53_Node000001_Node000017"><a xlink:title=" ">
<path fill="none" stroke="#63b8ff" d="M464.94,-497.02C467.44,-464.76 476.12,-353.01 479.69,-306.96"/>
<polygon fill="#63b8ff" stroke="#63b8ff" points="483.17,-307.35 480.46,-297.11 476.19,-306.81 483.17,-307.35"/>
</a>
</g>
</g>
<!-- Node21 -->
<g id="Node000021" class="node">
<title>Node21</title>
<g id="a_Node000021"><a xlink:href="ldo_8h.html" target="_top" xlink:title=" ">
<polygon fill="white" stroke="#666666" points="739.75,-406 702.75,-406 702.75,-386.75 739.75,-386.75 739.75,-406"/>
<text xml:space="preserve" text-anchor="middle" x="721.25" y="-392.5" font-family="Helvetica,sans-Serif" font-size="10.00">ldo.h</text>
</a>
</g>
</g>
<!-- Node1&#45;&gt;Node21 -->
<g id="edge33_Node000001_Node000021" class="edge">
<title>Node1&#45;&gt;Node21</title>
<g id="a_edge33_Node000001_Node000021"><a xlink:title=" ">
<path fill="none" stroke="#63b8ff" d="M504.71,-500.55C541.51,-494.58 596.57,-482.79 640.25,-461.25 664.96,-449.07 689.22,-428.47 704.64,-413.96"/>
<polygon fill="#63b8ff" stroke="#63b8ff" points="706.8,-416.75 711.56,-407.28 701.93,-411.71 706.8,-416.75"/>
</a>
</g>
</g>
<!-- Node22 -->
<g id="Node000022" class="node">
<title>Node22</title>
<g id="a_Node000022"><a xlink:href="lfunc_8h.html" target="_top" xlink:title=" ">
<polygon fill="white" stroke="#666666" points="253.88,-350.75 208.62,-350.75 208.62,-331.5 253.88,-331.5 253.88,-350.75"/>
<text xml:space="preserve" text-anchor="middle" x="231.25" y="-337.25" font-family="Helvetica,sans-Serif" font-size="10.00">lfunc.h</text>
</a>
</g>
</g>
<!-- Node1&#45;&gt;Node22 -->
<g id="edge38_Node000001_Node000022" class="edge">
<title>Node1&#45;&gt;Node22</title>
<g id="a_edge38_Node000001_Node000022"><a xlink:title=" ">
<path fill="none" stroke="#63b8ff" d="M423.55,-502.38C385.74,-497.63 328.99,-486.61 286.25,-461.25 257.51,-444.2 248.39,-436.73 235.25,-406 229.42,-392.36 228.58,-375.58 229.12,-362.64"/>
<polygon fill="#63b8ff" stroke="#63b8ff" points="232.6,-362.98 229.86,-352.75 225.62,-362.45 232.6,-362.98"/>
</a>
</g>
</g>
<!-- Node23 -->
<g id="Node000023" class="node">
<title>Node23</title>
<g id="a_Node000023"><a xlink:href="lgc_8h.html" target="_top" xlink:title=" ">
<polygon fill="white" stroke="#666666" points="423.75,-406 386.75,-406 386.75,-386.75 423.75,-386.75 423.75,-406"/>
<text xml:space="preserve" text-anchor="middle" x="405.25" y="-392.5" font-family="Helvetica,sans-Serif" font-size="10.00">lgc.h</text>
</a>
</g>
</g>
<!-- Node1&#45;&gt;Node23 -->
<g id="edge40_Node000001_Node000023" class="edge">
<title>Node1&#45;&gt;Node23</title>
<g id="a_edge40_Node000001_Node000023"><a xlink:title=" ">
<path fill="none" stroke="#63b8ff" d="M427.46,-496.84C408.98,-490.24 388.22,-479.21 377.25,-461.25 368.21,-446.45 378.05,-428.22 388.47,-415.02"/>
<polygon fill="#63b8ff" stroke="#63b8ff" points="391.02,-417.43 394.92,-407.57 385.73,-412.85 391.02,-417.43"/>
</a>
</g>
</g>
<!-- Node24 -->
<g id="Node000024" class="node">
<title>Node24</title>
<g id="a_Node000024"><a xlink:href="lopcodes_8h.html" target="_top" xlink:title=" ">
<polygon fill="white" stroke="#666666" points="859.88,-350.75 796.62,-350.75 796.62,-331.5 859.88,-331.5 859.88,-350.75"/>
<text xml:space="preserve" text-anchor="middle" x="828.25" y="-337.25" font-family="Helvetica,sans-Serif" font-size="10.00">lopcodes.h</text>
</a>
</g>
</g>
<!-- Node1&#45;&gt;Node24 -->
<g id="edge44_Node000001_Node000024" class="edge">
<title>Node1&#45;&gt;Node24</title>
<g id="a_edge44_Node000001_Node000024"><a xlink:title=" ">
<path fill="none" stroke="#63b8ff" d="M504.75,-501.65C546.95,-496.19 614.32,-484.5 668.25,-461.25 708.27,-444 714.28,-432 749.25,-406 770.11,-390.49 793.14,-371.66 808.93,-358.48"/>
<polygon fill="#63b8ff" stroke="#63b8ff" points="811.17,-361.17 816.58,-352.06 806.67,-355.81 811.17,-361.17"/>
</a>
</g>
</g>
<!-- Node25 -->
<g id="Node000025" class="node">
<title>Node25</title>
<g id="a_Node000025"><a xlink:href="lstring_8h.html" target="_top" xlink:title=" ">
<polygon fill="white" stroke="#666666" points="436.5,-461.25 386,-461.25 386,-442 436.5,-442 436.5,-461.25"/>
<text xml:space="preserve" text-anchor="middle" x="411.25" y="-447.75" font-family="Helvetica,sans-Serif" font-size="10.00">lstring.h</text>
</a>
</g>
</g>
<!-- Node1&#45;&gt;Node25 -->
<g id="edge47_Node000001_Node000025" class="edge">
<title>Node1&#45;&gt;Node25</title>
<g id="a_edge47_Node000001_Node000025"><a xlink:title=" ">
<path fill="none" stroke="#63b8ff" d="M455.5,-497.08C448.1,-489.65 437.29,-478.79 428.2,-469.66"/>
<polygon fill="#63b8ff" stroke="#63b8ff" points="430.79,-467.3 421.26,-462.68 425.83,-472.24 430.79,-467.3"/>
</a>
</g>
</g>
<!-- Node26 -->
<g id="Node000026" class="node">
<title>Node26</title>
<g id="a_Node000026"><a xlink:href="ltable_8h.html" target="_top" xlink:title=" ">
<polygon fill="white" stroke="#666666" points="292,-406 244.5,-406 244.5,-386.75 292,-386.75 292,-406"/>
<text xml:space="preserve" text-anchor="middle" x="268.25" y="-392.5" font-family="Helvetica,sans-Serif" font-size="10.00">ltable.h</text>
</a>
</g>
</g>
<!-- Node1&#45;&gt;Node26 -->
<g id="edge51_Node000001_Node000026" class="edge">
<title>Node1&#45;&gt;Node26</title>
<g id="a_edge51_Node000001_Node000026"><a xlink:title=" ">
<path fill="none" stroke="#63b8ff" d="M423.54,-502.74C389.23,-498.27 340.39,-487.46 306.25,-461.25 291.54,-449.96 281.37,-431.2 275.27,-416.93"/>
<polygon fill="#63b8ff" stroke="#63b8ff" points="278.56,-415.71 271.66,-407.67 272.03,-418.26 278.56,-415.71"/>
</a>
</g>
</g>
<!-- Node27 -->
<g id="Node000027" class="node">
<title>Node27</title>
<g id="a_Node000027"><a xlink:href="lvm_8h.html" target="_top" xlink:title=" ">
<polygon fill="white" stroke="#666666" points="562.25,-461.25 522.25,-461.25 522.25,-442 562.25,-442 562.25,-461.25"/>
<text xml:space="preserve" text-anchor="middle" x="542.25" y="-447.75" font-family="Helvetica,sans-Serif" font-size="10.00">lvm.h</text>
</a>
</g>
</g>
<!-- Node1&#45;&gt;Node27 -->
<g id="edge54_Node000001_Node000027" class="edge">
<title>Node1&#45;&gt;Node27</title>
<g id="a_edge54_Node000001_Node000027"><a xlink:title=" ">
<path fill="none" stroke="#63b8ff" d="M477.48,-496.84C489.02,-488.96 506.02,-477.36 519.7,-468.02"/>
<polygon fill="#63b8ff" stroke="#63b8ff" points="521.42,-471.08 527.7,-462.56 517.47,-465.3 521.42,-471.08"/>
</a>
</g>
</g>
<!-- Node10 -->
<g id="Node000010" class="node">
<title>Node10</title>
<g id="a_Node000010"><a xlink:title=" ">
<polygon fill="#e0e0e0" stroke="#999999" points="399.88,-74.5 348.62,-74.5 348.62,-55.25 399.88,-55.25 399.88,-74.5"/>
<text xml:space="preserve" text-anchor="middle" x="374.25" y="-61" font-family="Helvetica,sans-Serif" font-size="10.00">stdarg.h</text>
</a>
</g>
</g>
<!-- Node9&#45;&gt;Node10 -->
<g id="edge9_Node000009_Node000010" class="edge">
<title>Node9&#45;&gt;Node10</title>
<g id="a_edge9_Node000009_Node000010"><a xlink:title=" ">
<path fill="none" stroke="#63b8ff" d="M607.31,-115.12C565.72,-106.33 465.79,-85.22 411.27,-73.7"/>
<polygon fill="#63b8ff" stroke="#63b8ff" points="412.03,-70.28 401.52,-71.64 410.58,-77.13 412.03,-70.28"/>
</a>
</g>
</g>
<!-- Node11 -->
<g id="Node000011" class="node">
<title>Node11</title>
<g id="a_Node000011"><a xlink:title=" ">
<polygon fill="#e0e0e0" stroke="#999999" points="762.88,-19.25 711.62,-19.25 711.62,0 762.88,0 762.88,-19.25"/>
<text xml:space="preserve" text-anchor="middle" x="737.25" y="-5.75" font-family="Helvetica,sans-Serif" font-size="10.00">stddef.h</text>
</a>
</g>
</g>
<!-- Node9&#45;&gt;Node11 -->
<g id="edge10_Node000009_Node000011" class="edge">
<title>Node9&#45;&gt;Node11</title>
<g id="a_edge10_Node000009_Node000011"><a xlink:title=" ">
<path fill="none" stroke="#63b8ff" d="M635.33,-110.25C653.79,-92.21 695.95,-51 719.86,-27.63"/>
<polygon fill="#63b8ff" stroke="#63b8ff" points="722.25,-30.18 726.96,-20.68 717.36,-25.17 722.25,-30.18"/>
</a>
</g>
</g>
<!-- Node12 -->
<g id="Node000012" class="node">
<title>Node12</title>
<g id="a_Node000012"><a xlink:href="luaconf_8h.html" target="_top" xlink:title=" ">
<polygon fill="white" stroke="#666666" points="652.12,-74.5 596.38,-74.5 596.38,-55.25 652.12,-55.25 652.12,-74.5"/>
<text xml:space="preserve" text-anchor="middle" x="624.25" y="-61" font-family="Helvetica,sans-Serif" font-size="10.00">luaconf.h</text>
</a>
</g>
</g>
<!-- Node9&#45;&gt;Node12 -->
<g id="edge11_Node000009_Node000012" class="edge">
<title>Node9&#45;&gt;Node12</title>
<g id="a_edge11_Node000009_Node000012"><a xlink:title=" ">
<path fill="none" stroke="#63b8ff" d="M625.92,-110.33C625.67,-103.74 625.32,-94.46 625.01,-86.07"/>
<polygon fill="#63b8ff" stroke="#63b8ff" points="628.52,-86.23 624.64,-76.37 621.52,-86.5 628.52,-86.23"/>
</a>
</g>
</g>
<!-- Node12&#45;&gt;Node4 -->
<g id="edge12_Node000012_Node000004" class="edge">
<title>Node12&#45;&gt;Node4</title>
<g id="a_edge12_Node000012_Node000004"><a xlink:title=" ">
<path fill="none" stroke="#63b8ff" d="M624.25,-55.08C624.25,-48.57 624.25,-39.42 624.25,-31.12"/>
<polygon fill="#63b8ff" stroke="#63b8ff" points="627.75,-31.12 624.25,-21.12 620.75,-31.12 627.75,-31.12"/>
</a>
</g>
</g>
<!-- Node12&#45;&gt;Node11 -->
<g id="edge13_Node000012_Node000011" class="edge">
<title>Node12&#45;&gt;Node11</title>
<g id="a_edge13_Node000012_Node000011"><a xlink:title=" ">
<path fill="none" stroke="#63b8ff" d="M643.42,-54.84C661.03,-46.54 687.41,-34.11 707.71,-24.54"/>
<polygon fill="#63b8ff" stroke="#63b8ff" points="709.06,-27.78 716.62,-20.35 706.08,-21.44 709.06,-27.78"/>
</a>
</g>
</g>
<!-- Node13&#45;&gt;Node14 -->
<g id="edge15_Node000013_Node000014" class="edge">
<title>Node13&#45;&gt;Node14</title>
<g id="a_edge15_Node000013_Node000014"><a xlink:title=" ">
<path fill="none" stroke="#63b8ff" d="M647.22,-386.34C637.83,-378.65 624.1,-367.4 612.84,-358.18"/>
<polygon fill="#63b8ff" stroke="#63b8ff" points="615.24,-355.61 605.28,-351.98 610.8,-361.03 615.24,-355.61"/>
</a>
</g>
</g>
<!-- Node14&#45;&gt;Node9 -->
<g id="edge16_Node000014_Node000009" class="edge">
<title>Node14&#45;&gt;Node9</title>
<g id="a_edge16_Node000014_Node000009"><a xlink:title=" ">
<path fill="none" stroke="#63b8ff" d="M598.91,-331.31C604.18,-322.59 611.73,-308.69 615.25,-295.5 629.74,-241.16 629.01,-174.08 627.51,-141.2"/>
<polygon fill="#63b8ff" stroke="#63b8ff" points="631.02,-141.34 626.98,-131.54 624.03,-141.72 631.02,-141.34"/>
</a>
</g>
</g>
<!-- Node14&#45;&gt;Node15 -->
<g id="edge17_Node000014_Node000015" class="edge">
<title>Node14&#45;&gt;Node15</title>
<g id="a_edge17_Node000014_Node000015"><a xlink:title=" ">
<path fill="none" stroke="#63b8ff" d="M582.88,-331.11C567.5,-318.01 537.42,-293.39 509.25,-276.25 489.73,-264.37 466.56,-253.34 448.1,-245.22"/>
<polygon fill="#63b8ff" stroke="#63b8ff" points="449.53,-242.02 438.96,-241.27 446.75,-248.45 449.53,-242.02"/>
</a>
</g>
</g>
<!-- Node14&#45;&gt;Node17 -->
<g id="edge24_Node000014_Node000017" class="edge">
<title>Node14&#45;&gt;Node17</title>
<g id="a_edge24_Node000014_Node000017"><a xlink:title=" ">
<path fill="none" stroke="#63b8ff" d="M574.25,-331.09C556.79,-322.79 530.65,-310.36 510.53,-300.79"/>
<polygon fill="#63b8ff" stroke="#63b8ff" points="512.24,-297.74 501.71,-296.6 509.24,-304.06 512.24,-297.74"/>
</a>
</g>
</g>
<!-- Node18 -->
<g id="Node000018" class="node">
<title>Node18</title>
<g id="a_Node000018"><a xlink:href="lzio_8h.html" target="_top" xlink:title=" ">
<polygon fill="white" stroke="#666666" points="739.88,-295.5 700.62,-295.5 700.62,-276.25 739.88,-276.25 739.88,-295.5"/>
<text xml:space="preserve" text-anchor="middle" x="720.25" y="-282" font-family="Helvetica,sans-Serif" font-size="10.00">lzio.h</text>
</a>
</g>
</g>
<!-- Node14&#45;&gt;Node18 -->
<g id="edge26_Node000014_Node000018" class="edge">
<title>Node14&#45;&gt;Node18</title>
<g id="a_edge26_Node000014_Node000018"><a xlink:title=" ">
<path fill="none" stroke="#63b8ff" d="M614.79,-331.09C635.44,-322.43 666.81,-309.28 689.97,-299.57"/>
<polygon fill="#63b8ff" stroke="#63b8ff" points="691.01,-302.93 698.88,-295.83 688.31,-296.47 691.01,-302.93"/>
</a>
</g>
</g>
<!-- Node20 -->
<g id="Node000020" class="node">
<title>Node20</title>
<g id="a_Node000020"><a xlink:title=" ">
<polygon fill="#e0e0e0" stroke="#999999" points="606.12,-295.5 556.38,-295.5 556.38,-276.25 606.12,-276.25 606.12,-295.5"/>
<text xml:space="preserve" text-anchor="middle" x="581.25" y="-282" font-family="Helvetica,sans-Serif" font-size="10.00">signal.h</text>
</a>
</g>
</g>
<!-- Node14&#45;&gt;Node20 -->
<g id="edge32_Node000014_Node000020" class="edge">
<title>Node14&#45;&gt;Node20</title>
<g id="a_edge32_Node000014_Node000020"><a xlink:title=" ">
<path fill="none" stroke="#63b8ff" d="M591.27,-331.33C589.78,-324.74 587.69,-315.46 585.8,-307.07"/>
<polygon fill="#63b8ff" stroke="#63b8ff" points="589.22,-306.32 583.61,-297.34 582.39,-307.86 589.22,-306.32"/>
</a>
</g>
</g>
<!-- Node15&#45;&gt;Node9 -->
<g id="edge23_Node000015_Node000009" class="edge">
<title>Node15&#45;&gt;Node9</title>
<g id="a_edge23_Node000015_Node000009"><a xlink:title=" ">
<path fill="none" stroke="#63b8ff" d="M432.88,-220.56C469.57,-201.69 554.4,-158.07 598.5,-135.4"/>
<polygon fill="#63b8ff" stroke="#63b8ff" points="599.89,-138.62 607.18,-130.93 596.69,-132.39 599.89,-138.62"/>
</a>
</g>
</g>
<!-- Node15&#45;&gt;Node10 -->
<g id="edge18_Node000015_Node000010" class="edge">
<title>Node15&#45;&gt;Node10</title>
<g id="a_edge18_Node000015_Node000010"><a xlink:title=" ">
<path fill="none" stroke="#63b8ff" d="M413.05,-220.82C406.68,-195.39 388.14,-121.35 379.19,-85.62"/>
<polygon fill="#63b8ff" stroke="#63b8ff" points="382.66,-85.04 376.83,-76.19 375.87,-86.74 382.66,-85.04"/>
</a>
</g>
</g>
<!-- Node16 -->
<g id="Node000016" class="node">
<title>Node16</title>
<g id="a_Node000016"><a xlink:href="llimits_8h.html" target="_top" xlink:title=" ">
<polygon fill="white" stroke="#666666" points="780.12,-185 730.38,-185 730.38,-165.75 780.12,-165.75 780.12,-185"/>
<text xml:space="preserve" text-anchor="middle" x="755.25" y="-171.5" font-family="Helvetica,sans-Serif" font-size="10.00">llimits.h</text>
</a>
</g>
</g>
<!-- Node15&#45;&gt;Node16 -->
<g id="edge19_Node000015_Node000016" class="edge">
<title>Node15&#45;&gt;Node16</title>
<g id="a_edge19_Node000015_Node000016"><a xlink:title=" ">
<path fill="none" stroke="#63b8ff" d="M441.93,-225.45C502.46,-215.97 650.24,-192.82 718.98,-182.06"/>
<polygon fill="#63b8ff" stroke="#63b8ff" points="719.25,-185.56 728.59,-180.55 718.17,-178.64 719.25,-185.56"/>
</a>
</g>
</g>
<!-- Node16&#45;&gt;Node4 -->
<g id="edge20_Node000016_Node000004" class="edge">
<title>Node16&#45;&gt;Node4</title>
<g id="a_edge20_Node000016_Node000004"><a xlink:title=" ">
<path fill="none" stroke="#63b8ff" d="M748.25,-165.35C732.73,-145.38 694.22,-96.01 661.25,-55.25 653.97,-46.25 645.77,-36.33 638.93,-28.14"/>
<polygon fill="#63b8ff" stroke="#63b8ff" points="641.75,-26.05 632.66,-20.62 636.38,-30.54 641.75,-26.05"/>
</a>
</g>
</g>
<!-- Node16&#45;&gt;Node9 -->
<g id="edge22_Node000016_Node000009" class="edge">
<title>Node16&#45;&gt;Node9</title>
<g id="a_edge22_Node000016_Node000009"><a xlink:title=" ">
<path fill="none" stroke="#63b8ff" d="M733.37,-165.34C711.9,-156.48 679.02,-142.91 655.35,-133.14"/>
<polygon fill="#63b8ff" stroke="#63b8ff" points="656.86,-129.98 646.28,-129.39 654.19,-136.45 656.86,-129.98"/>
</a>
</g>
</g>
<!-- Node16&#45;&gt;Node11 -->
<g id="edge21_Node000016_Node000011" class="edge">
<title>Node16&#45;&gt;Node11</title>
<g id="a_edge21_Node000016_Node000011"><a xlink:title=" ">
<path fill="none" stroke="#63b8ff" d="M754.28,-165.57C751.5,-140.25 743.42,-66.75 739.47,-30.84"/>
<polygon fill="#63b8ff" stroke="#63b8ff" points="742.96,-30.53 738.39,-20.98 736,-31.3 742.96,-30.53"/>
</a>
</g>
</g>
<!-- Node17&#45;&gt;Node15 -->
<g id="edge25_Node000017_Node000015" class="edge">
<title>Node17&#45;&gt;Node15</title>
<g id="a_edge25_Node000017_Node000015"><a xlink:title=" ">
<path fill="none" stroke="#63b8ff" d="M470.05,-275.84C460.51,-268.15 446.58,-256.9 435.14,-247.68"/>
<polygon fill="#63b8ff" stroke="#63b8ff" points="437.44,-245.03 427.46,-241.48 433.04,-250.48 437.44,-245.03"/>
</a>
</g>
</g>
<!-- Node18&#45;&gt;Node9 -->
<g id="edge27_Node000018_Node000009" class="edge">
<title>Node18&#45;&gt;Node9</title>
<g id="a_edge27_Node000018_Node000009"><a xlink:title=" ">
<path fill="none" stroke="#63b8ff" d="M711.6,-275.82C703.6,-267.15 691.71,-253.47 683.25,-240.25 662.11,-207.21 643.76,-165.12 633.92,-140.84"/>
<polygon fill="#63b8ff" stroke="#63b8ff" points="637.19,-139.6 630.25,-131.59 630.69,-142.18 637.19,-139.6"/>
</a>
</g>
</g>
<!-- Node19 -->
<g id="Node000019" class="node">
<title>Node19</title>
<g id="a_Node000019"><a xlink:href="lmem_8h.html" target="_top" xlink:title=" ">
<polygon fill="white" stroke="#666666" points="740.38,-240.25 692.12,-240.25 692.12,-221 740.38,-221 740.38,-240.25"/>
<text xml:space="preserve" text-anchor="middle" x="716.25" y="-226.75" font-family="Helvetica,sans-Serif" font-size="10.00">lmem.h</text>
</a>
</g>
</g>
<!-- Node18&#45;&gt;Node19 -->
<g id="edge28_Node000018_Node000019" class="edge">
<title>Node18&#45;&gt;Node19</title>
<g id="a_edge28_Node000018_Node000019"><a xlink:title=" ">
<path fill="none" stroke="#63b8ff" d="M719.59,-276.08C719.09,-269.49 718.4,-260.21 717.77,-251.82"/>
<polygon fill="#63b8ff" stroke="#63b8ff" points="721.28,-251.83 717.04,-242.12 714.3,-252.35 721.28,-251.83"/>
</a>
</g>
</g>
<!-- Node19&#45;&gt;Node9 -->
<g id="edge31_Node000019_Node000009" class="edge">
<title>Node19&#45;&gt;Node9</title>
<g id="a_edge31_Node000019_Node000009"><a xlink:title=" ">
<path fill="none" stroke="#63b8ff" d="M712.14,-220.78C705.91,-207.88 693.2,-183.53 678.25,-165.75 669.32,-155.12 657.72,-144.91 647.75,-136.94"/>
<polygon fill="#63b8ff" stroke="#63b8ff" points="650.07,-134.32 640.02,-130.98 645.8,-139.86 650.07,-134.32"/>
</a>
</g>
</g>
<!-- Node19&#45;&gt;Node11 -->
<g id="edge29_Node000019_Node000011" class="edge">
<title>Node19&#45;&gt;Node11</title>
<g id="a_edge29_Node000019_Node000011"><a xlink:title=" ">
<path fill="none" stroke="#63b8ff" d="M740.65,-221.9C757.6,-215.12 778.93,-203.4 789.25,-185 818.8,-132.31 775.19,-61.04 751.23,-28.35"/>
<polygon fill="#63b8ff" stroke="#63b8ff" points="754.27,-26.57 745.44,-20.71 748.69,-30.8 754.27,-26.57"/>
</a>
</g>
</g>
<!-- Node19&#45;&gt;Node16 -->
<g id="edge30_Node000019_Node000016" class="edge">
<title>Node19&#45;&gt;Node16</title>
<g id="a_edge30_Node000019_Node000016"><a xlink:title=" ">
<path fill="none" stroke="#63b8ff" d="M722.69,-220.83C727.91,-213.71 735.44,-203.43 741.94,-194.55"/>
<polygon fill="#63b8ff" stroke="#63b8ff" points="744.69,-196.72 747.78,-186.58 739.04,-192.58 744.69,-196.72"/>
</a>
</g>
</g>
<!-- Node21&#45;&gt;Node14 -->
<g id="edge36_Node000021_Node000014" class="edge">
<title>Node21&#45;&gt;Node14</title>
<g id="a_edge36_Node000021_Node000014"><a xlink:title=" ">
<path fill="none" stroke="#63b8ff" d="M702.36,-387.52C682.1,-379.09 649.56,-365.55 625.28,-355.45"/>
<polygon fill="#63b8ff" stroke="#63b8ff" points="626.76,-352.27 616.18,-351.66 624.07,-358.74 626.76,-352.27"/>
</a>
</g>
</g>
<!-- Node21&#45;&gt;Node15 -->
<g id="edge35_Node000021_Node000015" class="edge">
<title>Node21&#45;&gt;Node15</title>
<g id="a_edge35_Node000021_Node000015"><a xlink:title=" ">
<path fill="none" stroke="#63b8ff" d="M716.13,-386.5C702.71,-364.1 664.17,-305.02 615.25,-276.25 564.48,-246.4 495.74,-236.49 453.5,-233.22"/>
<polygon fill="#63b8ff" stroke="#63b8ff" points="453.79,-229.73 443.57,-232.55 453.32,-236.72 453.79,-229.73"/>
</a>
</g>
</g>
<!-- Node21&#45;&gt;Node16 -->
<g id="edge34_Node000021_Node000016" class="edge">
<title>Node21&#45;&gt;Node16</title>
<g id="a_edge34_Node000021_Node000016"><a xlink:title=" ">
<path fill="none" stroke="#63b8ff" d="M724.19,-386.53C727.13,-377.56 731.71,-363.25 735.25,-350.75 742.16,-326.38 745.48,-320.55 749.25,-295.5 754.42,-261.12 755.39,-220.59 755.44,-196.77"/>
<polygon fill="#63b8ff" stroke="#63b8ff" points="758.94,-196.9 755.41,-186.92 751.94,-196.93 758.94,-196.9"/>
</a>
</g>
</g>
<!-- Node21&#45;&gt;Node18 -->
<g id="edge37_Node000021_Node000018" class="edge">
<title>Node21&#45;&gt;Node18</title>
<g id="a_edge37_Node000021_Node000018"><a xlink:title=" ">
<path fill="none" stroke="#63b8ff" d="M721.17,-386.5C721.01,-369.25 720.66,-330.83 720.44,-307.06"/>
<polygon fill="#63b8ff" stroke="#63b8ff" points="723.94,-307.36 720.35,-297.39 716.94,-307.42 723.94,-307.36"/>
</a>
</g>
</g>
<!-- Node22&#45;&gt;Node15 -->
<g id="edge39_Node000022_Node000015" class="edge">
<title>Node22&#45;&gt;Node15</title>
<g id="a_edge39_Node000022_Node000015"><a xlink:title=" ">
<path fill="none" stroke="#63b8ff" d="M234,-331.29C238.74,-317.49 249.77,-290.9 268.25,-276.25 299.8,-251.24 345.26,-240.21 377.25,-235.37"/>
<polygon fill="#63b8ff" stroke="#63b8ff" points="377.44,-238.87 386.88,-234.05 376.5,-231.94 377.44,-238.87"/>
</a>
</g>
</g>
<!-- Node23&#45;&gt;Node14 -->
<g id="edge42_Node000023_Node000014" class="edge">
<title>Node23&#45;&gt;Node14</title>
<g id="a_edge42_Node000023_Node000014"><a xlink:title=" ">
<path fill="none" stroke="#63b8ff" d="M423.96,-390.07C455.07,-381.26 517.92,-363.46 557.68,-352.2"/>
<polygon fill="#63b8ff" stroke="#63b8ff" points="558.6,-355.58 567.26,-349.49 556.69,-348.84 558.6,-355.58"/>
</a>
</g>
</g>
<!-- Node23&#45;&gt;Node15 -->
<g id="edge41_Node000023_Node000015" class="edge">
<title>Node23&#45;&gt;Node15</title>
<g id="a_edge41_Node000023_Node000015"><a xlink:title=" ">
<path fill="none" stroke="#63b8ff" d="M405.79,-386.57C407.33,-361.25 411.82,-287.75 414.02,-251.84"/>
<polygon fill="#63b8ff" stroke="#63b8ff" points="417.5,-252.18 414.62,-241.98 410.51,-251.75 417.5,-252.18"/>
</a>
</g>
</g>
<!-- Node24&#45;&gt;Node16 -->
<g id="edge45_Node000024_Node000016" class="edge">
<title>Node24&#45;&gt;Node16</title>
<g id="a_edge45_Node000024_Node000016"><a xlink:title=" ">
<path fill="none" stroke="#63b8ff" d="M825.41,-331.23C818.87,-311.12 801.79,-260.8 782.25,-221 777.92,-212.17 772.4,-202.8 767.48,-194.94"/>
<polygon fill="#63b8ff" stroke="#63b8ff" points="770.49,-193.14 762.14,-186.61 764.6,-196.92 770.49,-193.14"/>
</a>
</g>
</g>
<!-- Node25&#45;&gt;Node14 -->
<g id="edge50_Node000025_Node000014" class="edge">
<title>Node25&#45;&gt;Node14</title>
<g id="a_edge50_Node000025_Node000014"><a xlink:title=" ">
<path fill="none" stroke="#63b8ff" d="M426.45,-441.56C457.77,-422.89 529.73,-379.99 568.09,-357.12"/>
<polygon fill="#63b8ff" stroke="#63b8ff" points="569.86,-360.14 576.66,-352.01 566.28,-354.13 569.86,-360.14"/>
</a>
</g>
</g>
<!-- Node25&#45;&gt;Node15 -->
<g id="edge49_Node000025_Node000015" class="edge">
<title>Node25&#45;&gt;Node15</title>
<g id="a_edge49_Node000025_Node000015"><a xlink:title=" ">
<path fill="none" stroke="#63b8ff" d="M401.92,-441.73C393.89,-433.38 382.89,-420.09 378.25,-406 360.05,-350.79 388.48,-282.71 404.91,-250.38"/>
<polygon fill="#63b8ff" stroke="#63b8ff" points="407.84,-252.33 409.42,-241.85 401.65,-249.06 407.84,-252.33"/>
</a>
</g>
</g>
<!-- Node25&#45;&gt;Node23 -->
<g id="edge48_Node000025_Node000023" class="edge">
<title>Node25&#45;&gt;Node23</title>
<g id="a_edge48_Node000025_Node000023"><a xlink:title=" ">
<path fill="none" stroke="#63b8ff" d="M410.26,-441.83C409.52,-435.24 408.47,-425.96 407.53,-417.57"/>
<polygon fill="#63b8ff" stroke="#63b8ff" points="411.03,-417.41 406.43,-407.86 404.07,-418.19 411.03,-417.41"/>
</a>
</g>
</g>
<!-- Node26&#45;&gt;Node15 -->
<g id="edge52_Node000026_Node000015" class="edge">
<title>Node26&#45;&gt;Node15</title>
<g id="a_edge52_Node000026_Node000015"><a xlink:title=" ">
<path fill="none" stroke="#63b8ff" d="M268.62,-386.33C269.98,-364.56 276.36,-308.63 306.25,-276.25 324.96,-255.98 354.23,-244.68 377.73,-238.53"/>
<polygon fill="#63b8ff" stroke="#63b8ff" points="378.34,-241.98 387.25,-236.25 376.71,-235.17 378.34,-241.98"/>
</a>
</g>
</g>
<!-- Node27&#45;&gt;Node15 -->
<g id="edge56_Node000027_Node000015" class="edge">
<title>Node27&#45;&gt;Node15</title>
<g id="a_edge56_Node000027_Node000015"><a xlink:title=" ">
<path fill="none" stroke="#63b8ff" d="M537.11,-441.77C518.21,-409.16 452.21,-295.36 426.05,-250.25"/>
<polygon fill="#63b8ff" stroke="#63b8ff" points="429.11,-248.56 421.07,-241.66 423.06,-252.07 429.11,-248.56"/>
</a>
</g>
</g>
<!-- Node27&#45;&gt;Node17 -->
<g id="edge57_Node000027_Node000017" class="edge">
<title>Node27&#45;&gt;Node17</title>
<g id="a_edge57_Node000027_Node000017"><a xlink:title=" ">
<path fill="none" stroke="#63b8ff" d="M543.74,-441.74C545.51,-429.21 547.59,-405.75 542.25,-386.75 533.35,-355.1 511.33,-323.57 496.34,-304.64"/>
<polygon fill="#63b8ff" stroke="#63b8ff" points="499.24,-302.66 490.2,-297.13 493.82,-307.09 499.24,-302.66"/>
</a>
</g>
</g>
<!-- Node27&#45;&gt;Node21 -->
<g id="edge55_Node000027_Node000021" class="edge">
<title>Node27&#45;&gt;Node21</title>
<g id="a_edge55_Node000027_Node000021"><a xlink:title=" ">
<path fill="none" stroke="#63b8ff" d="M562.3,-444.78C589.38,-436.87 639.4,-422.19 691.49,-406.5"/>
<polygon fill="#63b8ff" stroke="#63b8ff" points="692.27,-409.93 700.83,-403.69 690.25,-403.22 692.27,-409.93"/>
</a>
</g>
</g>
</g>
</svg>
