<?xml version="1.0" encoding="UTF-8" standalone="no"?>
<!DOCTYPE svg PUBLIC "-//W3C//DTD SVG 1.1//EN"
 "http://www.w3.org/Graphics/SVG/1.1/DTD/svg11.dtd">
<!-- Generated by graphviz version 13.1.0 (20250701.0955)
 -->
<!-- Title: lua&#45;5.4.7/lzio.h Pages: 1 -->
<svg width="234pt" height="304pt"
 viewBox="0.00 0.00 234.00 304.00" xmlns="http://www.w3.org/2000/svg" xmlns:xlink="http://www.w3.org/1999/xlink">

<svg id="main" version="1.1" xmlns="http://www.w3.org/2000/svg" xmlns:xlink="http://www.w3.org/1999/xlink" xml:space="preserve">

<style type="text/css"><![CDATA[
.node, .edge {opacity: 0.7;}
.node.selected, .edge.selected {opacity: 1;}
.edge:hover path { stroke: red; }
.edge:hover polygon { stroke: red; fill: red; }
]]></style>
<script type="application/ecmascript" xlink:href="svg.min.js"/>
<svg id="graph" class="graph">
<g id="graph0" class="graph" transform="scale(1 1) rotate(0) translate(4 299.5)">
<title>lua&#45;5.4.7/lzio.h</title>
<!-- Node1 -->
<g id="Node000001" class="node">
<title>Node1</title>
<g id="a_Node000001"><a xlink:title=" ">
<polygon fill="#999999" stroke="#666666" points="128.98,-295.5 49.23,-295.5 49.23,-276.25 128.98,-276.25 128.98,-295.5"/>
<text xml:space="preserve" text-anchor="middle" x="89.11" y="-282" font-family="Helvetica,sans-Serif" font-size="10.00">lua&#45;5.4.7/lzio.h</text>
</a>
</g>
</g>
<!-- Node2 -->
<g id="Node000002" class="node">
<title>Node2</title>
<g id="a_Node000002"><a xlink:href="lua_8h.html" target="_top" xlink:title=" ">
<polygon fill="white" stroke="#666666" points="120.61,-129.75 83.61,-129.75 83.61,-110.5 120.61,-110.5 120.61,-129.75"/>
<text xml:space="preserve" text-anchor="middle" x="102.11" y="-116.25" font-family="Helvetica,sans-Serif" font-size="10.00">lua.h</text>
</a>
</g>
</g>
<!-- Node1&#45;&gt;Node2 -->
<g id="edge1_Node000001_Node000002" class="edge">
<title>Node1&#45;&gt;Node2</title>
<g id="a_edge1_Node000001_Node000002"><a xlink:title=" ">
<path fill="none" stroke="#63b8ff" d="M90.78,-276.02C92.41,-267.04 94.82,-252.73 96.11,-240.25 99.68,-205.66 101.15,-165.2 101.74,-141.45"/>
<polygon fill="#63b8ff" stroke="#63b8ff" points="105.23,-141.7 101.95,-131.63 98.23,-141.55 105.23,-141.7"/>
</a>
</g>
</g>
<!-- Node7 -->
<g id="Node000007" class="node">
<title>Node7</title>
<g id="a_Node000007"><a xlink:href="lmem_8h.html" target="_top" xlink:title=" ">
<polygon fill="white" stroke="#666666" points="87.23,-240.25 38.98,-240.25 38.98,-221 87.23,-221 87.23,-240.25"/>
<text xml:space="preserve" text-anchor="middle" x="63.11" y="-226.75" font-family="Helvetica,sans-Serif" font-size="10.00">lmem.h</text>
</a>
</g>
</g>
<!-- Node1&#45;&gt;Node7 -->
<g id="edge7_Node000001_Node000007" class="edge">
<title>Node1&#45;&gt;Node7</title>
<g id="a_edge7_Node000001_Node000007"><a xlink:title=" ">
<path fill="none" stroke="#63b8ff" d="M84.82,-276.08C81.49,-269.26 76.75,-259.56 72.54,-250.95"/>
<polygon fill="#63b8ff" stroke="#63b8ff" points="75.69,-249.42 68.16,-241.97 69.4,-252.49 75.69,-249.42"/>
</a>
</g>
</g>
<!-- Node3 -->
<g id="Node000003" class="node">
<title>Node3</title>
<g id="a_Node000003"><a xlink:title=" ">
<polygon fill="#e0e0e0" stroke="#999999" points="212.73,-74.5 161.48,-74.5 161.48,-55.25 212.73,-55.25 212.73,-74.5"/>
<text xml:space="preserve" text-anchor="middle" x="187.11" y="-61" font-family="Helvetica,sans-Serif" font-size="10.00">stdarg.h</text>
</a>
</g>
</g>
<!-- Node2&#45;&gt;Node3 -->
<g id="edge2_Node000002_Node000003" class="edge">
<title>Node2&#45;&gt;Node3</title>
<g id="a_edge2_Node000002_Node000003"><a xlink:title=" ">
<path fill="none" stroke="#63b8ff" d="M116.53,-110.09C129.23,-102.14 147.98,-90.39 162.97,-81"/>
<polygon fill="#63b8ff" stroke="#63b8ff" points="164.72,-84.03 171.34,-75.76 161,-78.1 164.72,-84.03"/>
</a>
</g>
</g>
<!-- Node4 -->
<g id="Node000004" class="node">
<title>Node4</title>
<g id="a_Node000004"><a xlink:title=" ">
<polygon fill="#e0e0e0" stroke="#999999" points="72.73,-19.25 21.48,-19.25 21.48,0 72.73,0 72.73,-19.25"/>
<text xml:space="preserve" text-anchor="middle" x="47.11" y="-5.75" font-family="Helvetica,sans-Serif" font-size="10.00">stddef.h</text>
</a>
</g>
</g>
<!-- Node2&#45;&gt;Node4 -->
<g id="edge3_Node000002_Node000004" class="edge">
<title>Node2&#45;&gt;Node4</title>
<g id="a_edge3_Node000002_Node000004"><a xlink:title=" ">
<path fill="none" stroke="#63b8ff" d="M97.22,-110.29C92.29,-101.33 84.52,-87.03 78.11,-74.5 70.46,-59.54 62.17,-42.41 56.09,-29.65"/>
<polygon fill="#63b8ff" stroke="#63b8ff" points="59.3,-28.26 51.86,-20.73 52.98,-31.26 59.3,-28.26"/>
</a>
</g>
</g>
<!-- Node5 -->
<g id="Node000005" class="node">
<title>Node5</title>
<g id="a_Node000005"><a xlink:href="luaconf_8h.html" target="_top" xlink:title=" ">
<polygon fill="white" stroke="#666666" points="142.98,-74.5 87.23,-74.5 87.23,-55.25 142.98,-55.25 142.98,-74.5"/>
<text xml:space="preserve" text-anchor="middle" x="115.11" y="-61" font-family="Helvetica,sans-Serif" font-size="10.00">luaconf.h</text>
</a>
</g>
</g>
<!-- Node2&#45;&gt;Node5 -->
<g id="edge4_Node000002_Node000005" class="edge">
<title>Node2&#45;&gt;Node5</title>
<g id="a_edge4_Node000002_Node000005"><a xlink:title=" ">
<path fill="none" stroke="#63b8ff" d="M104.26,-110.33C105.88,-103.67 108.18,-94.24 110.25,-85.78"/>
<polygon fill="#63b8ff" stroke="#63b8ff" points="113.58,-86.87 112.56,-76.33 106.78,-85.21 113.58,-86.87"/>
</a>
</g>
</g>
<!-- Node5&#45;&gt;Node4 -->
<g id="edge6_Node000005_Node000004" class="edge">
<title>Node5&#45;&gt;Node4</title>
<g id="a_edge6_Node000005_Node000004"><a xlink:title=" ">
<path fill="none" stroke="#63b8ff" d="M103.57,-54.84C93.65,-47.07 79.1,-35.67 67.25,-26.4"/>
<polygon fill="#63b8ff" stroke="#63b8ff" points="69.7,-23.87 59.67,-20.46 65.38,-29.38 69.7,-23.87"/>
</a>
</g>
</g>
<!-- Node6 -->
<g id="Node000006" class="node">
<title>Node6</title>
<g id="a_Node000006"><a xlink:title=" ">
<polygon fill="#e0e0e0" stroke="#999999" points="150.86,-19.25 103.36,-19.25 103.36,0 150.86,0 150.86,-19.25"/>
<text xml:space="preserve" text-anchor="middle" x="127.11" y="-5.75" font-family="Helvetica,sans-Serif" font-size="10.00">limits.h</text>
</a>
</g>
</g>
<!-- Node5&#45;&gt;Node6 -->
<g id="edge5_Node000005_Node000006" class="edge">
<title>Node5&#45;&gt;Node6</title>
<g id="a_edge5_Node000005_Node000006"><a xlink:title=" ">
<path fill="none" stroke="#63b8ff" d="M117.09,-55.08C118.58,-48.49 120.67,-39.21 122.56,-30.82"/>
<polygon fill="#63b8ff" stroke="#63b8ff" points="125.97,-31.61 124.75,-21.09 119.14,-30.07 125.97,-31.61"/>
</a>
</g>
</g>
<!-- Node7&#45;&gt;Node2 -->
<g id="edge13_Node000007_Node000002" class="edge">
<title>Node7&#45;&gt;Node2</title>
<g id="a_edge13_Node000007_Node000002"><a xlink:title=" ">
<path fill="none" stroke="#63b8ff" d="M66.3,-220.75C72.56,-203.34 86.56,-164.37 95.09,-140.66"/>
<polygon fill="#63b8ff" stroke="#63b8ff" points="98.27,-142.15 98.36,-131.55 91.68,-139.78 98.27,-142.15"/>
</a>
</g>
</g>
<!-- Node7&#45;&gt;Node4 -->
<g id="edge8_Node000007_Node000004" class="edge">
<title>Node7&#45;&gt;Node4</title>
<g id="a_edge8_Node000007_Node000004"><a xlink:title=" ">
<path fill="none" stroke="#63b8ff" d="M45.43,-220.57C32.72,-212.98 16.57,-200.84 9.11,-185 -15.91,-131.86 16.96,-61.8 35.71,-29.02"/>
<polygon fill="#63b8ff" stroke="#63b8ff" points="38.54,-31.1 40.64,-20.71 32.53,-27.52 38.54,-31.1"/>
</a>
</g>
</g>
<!-- Node8 -->
<g id="Node000008" class="node">
<title>Node8</title>
<g id="a_Node000008"><a xlink:href="llimits_8h.html" target="_top" xlink:title=" ">
<polygon fill="white" stroke="#666666" points="67.98,-185 18.23,-185 18.23,-165.75 67.98,-165.75 67.98,-185"/>
<text xml:space="preserve" text-anchor="middle" x="43.11" y="-171.5" font-family="Helvetica,sans-Serif" font-size="10.00">llimits.h</text>
</a>
</g>
</g>
<!-- Node7&#45;&gt;Node8 -->
<g id="edge9_Node000007_Node000008" class="edge">
<title>Node7&#45;&gt;Node8</title>
<g id="a_edge9_Node000007_Node000008"><a xlink:title=" ">
<path fill="none" stroke="#63b8ff" d="M59.81,-220.83C57.27,-214.09 53.68,-204.52 50.48,-195.99"/>
<polygon fill="#63b8ff" stroke="#63b8ff" points="53.81,-194.91 47.02,-186.78 47.25,-197.37 53.81,-194.91"/>
</a>
</g>
</g>
<!-- Node8&#45;&gt;Node2 -->
<g id="edge12_Node000008_Node000002" class="edge">
<title>Node8&#45;&gt;Node2</title>
<g id="a_edge12_Node000008_Node000002"><a xlink:title=" ">
<path fill="none" stroke="#63b8ff" d="M53.12,-165.34C61.47,-157.8 73.61,-146.85 83.71,-137.73"/>
<polygon fill="#63b8ff" stroke="#63b8ff" points="86.05,-140.34 91.12,-131.04 81.36,-135.14 86.05,-140.34"/>
</a>
</g>
</g>
<!-- Node8&#45;&gt;Node4 -->
<g id="edge11_Node000008_Node000004" class="edge">
<title>Node8&#45;&gt;Node4</title>
<g id="a_edge11_Node000008_Node000004"><a xlink:title=" ">
<path fill="none" stroke="#63b8ff" d="M43.32,-165.57C43.94,-140.25 45.74,-66.75 46.61,-30.84"/>
<polygon fill="#63b8ff" stroke="#63b8ff" points="50.11,-31.07 46.86,-20.99 43.11,-30.9 50.11,-31.07"/>
</a>
</g>
</g>
<!-- Node8&#45;&gt;Node6 -->
<g id="edge10_Node000008_Node000006" class="edge">
<title>Node8&#45;&gt;Node6</title>
<g id="a_edge10_Node000008_Node000006"><a xlink:title=" ">
<path fill="none" stroke="#63b8ff" d="M68.3,-169.06C109.36,-158.87 189.42,-132.26 222.11,-74.5 238.03,-46.37 195.39,-28.21 162.16,-18.69"/>
<polygon fill="#63b8ff" stroke="#63b8ff" points="163.38,-15.4 152.82,-16.19 161.57,-22.16 163.38,-15.4"/>
</a>
</g>
</g>
</g>
</svg>
</svg>

<style type='text/css'>
<![CDATA[
[data-mouse-over-selected='false'] { opacity: 0.7; }
[data-mouse-over-selected='true']  { opacity: 1.0; }
]]>
</style>
<script type="application/ecmascript"><![CDATA[
document.addEventListener('DOMContentLoaded', (event) => {
  highlightEdges();
  highlightAdjacentNodes();
});
]]></script>
</svg>
