<?xml version="1.0" encoding="UTF-8" standalone="no"?>
<!DOCTYPE svg PUBLIC "-//W3C//DTD SVG 1.1//EN"
 "http://www.w3.org/Graphics/SVG/1.1/DTD/svg11.dtd">
<!-- Generated by graphviz version 13.1.0 (20250701.0955)
 -->
<!-- Title: get_sample_replication Pages: 1 -->
<!--zoomable 279 -->

<svg id="main" version="1.1" xmlns="http://www.w3.org/2000/svg" xmlns:xlink="http://www.w3.org/1999/xlink" xml:space="preserve" onload="init(evt)">

<style type="text/css"><![CDATA[
.node, .edge {opacity: 0.7;}
.node.selected, .edge.selected {opacity: 1;}
.edge:hover path { stroke: red; }
.edge:hover polygon { stroke: red; fill: red; }
]]></style>

<defs>
  <circle id="rim" cx="0" cy="0" r="7"/>
  <circle id="rim2" cx="0" cy="0" r="3.5"/>
  <g id="zoomPlus">
    <use xlink:href="#rim" fill="#404040"><set attributeName="fill" to="#808080" begin="zoomplus.mouseover" end="zoomplus.mouseout"/></use>
    <path d="M-4,0h8M0,-4v8" fill="none" stroke="white" stroke-width="1.5" pointer-events="none"/>
  </g>
  <g id="zoomMin">
    <use xlink:href="#rim" fill="#404040"><set attributeName="fill" to="#808080" begin="zoomminus.mouseover" end="zoomminus.mouseout"/></use>
    <path d="M-4,0h8" fill="none" stroke="white" stroke-width="1.5" pointer-events="none"/>
  </g>
  <g id="arrowUp" transform="translate(30 24)">
    <use xlink:href="#rim"/>
    <path pointer-events="none" fill="none" stroke="white" stroke-width="1.5" d="M0,-3.0v7 M-2.5,-0.5L0,-3.0L2.5,-0.5"/>
  </g>
  <g id="arrowRight" transform="rotate(90) translate(36 -43)">
    <use xlink:href="#rim"/>
    <path pointer-events="none" fill="none" stroke="white" stroke-width="1.5" d="M0,-3.0v7 M-2.5,-0.5L0,-3.0L2.5,-0.5"/>
  </g>
  <g id="arrowDown" transform="rotate(180) translate(-30 -48)">
    <use xlink:href="#rim"/>
    <path pointer-events="none" fill="none" stroke="white" stroke-width="1.5" d="M0,-3.0v7 M-2.5,-0.5L0,-3.0L2.5,-0.5"/>
  </g>
  <g id="arrowLeft" transform="rotate(270) translate(-36 17)">
    <use xlink:href="#rim"/>
    <path pointer-events="none" fill="none" stroke="white" stroke-width="1.5" d="M0,-3.0v7 M-2.5,-0.5L0,-3.0L2.5,-0.5"/>
  </g>
  <g id="resetDef">
    <use xlink:href="#rim2" fill="#404040"><set attributeName="fill" to="#808080" begin="reset.mouseover" end="reset.mouseout"/></use>
  </g>
</defs>
<script type="application/ecmascript">
var viewWidth = 2224;
var viewHeight = 279;
var sectionId = 'dynsection-7';
</script>
<script type="application/ecmascript" xlink:href="svg.min.js"/>
<svg id="graph" class="graph">
<g id="viewport">
<title>get_sample_replication</title>
<!-- Node1 -->
<g id="Node000001" class="node">
<title>Node1</title>
<g id="a_Node000001"><a xlink:title=" ">
<polygon fill="#999999" stroke="#666666" points="2215.5,-226.97 2099.75,-226.97 2099.75,-207.72 2215.5,-207.72 2215.5,-226.97"/>
<text xml:space="preserve" text-anchor="middle" x="2157.62" y="-213.47" font-family="Helvetica,sans-Serif" font-size="10.00">get_sample_replication</text>
</a>
</g>
</g>
<!-- Node2 -->
<g id="Node000002" class="node">
<title>Node2</title>
<g id="a_Node000002"><a xlink:href="minigb__apu_8c.html#ac428861793d7ae4175ee3008ba8981a7" target="_top" xlink:title=" ">
<polygon fill="white" stroke="#666666" points="1690.25,-150.97 1609.75,-150.97 1609.75,-131.72 1690.25,-131.72 1690.25,-150.97"/>
<text xml:space="preserve" text-anchor="middle" x="1650" y="-137.47" font-family="Helvetica,sans-Serif" font-size="10.00">audio_callback</text>
</a>
</g>
</g>
<!-- Node1&#45;&gt;Node2 -->
<g id="edge1_Node000001_Node000002" class="edge">
<title>Node1&#45;&gt;Node2</title>
<g id="a_edge1_Node000001_Node000002"><a xlink:title=" ">
<path fill="none" stroke="#63b8ff" d="M2128.75,-232.49C2110.77,-241.38 2086.57,-251.74 2063.75,-256.34 1967.12,-275.81 1937.81,-275.51 1842,-252.34 1766.32,-234.04 1690.57,-174.97 1662.44,-151.29"/>
<polygon fill="#63b8ff" stroke="#63b8ff" points="2130.15,-235.71 2137.46,-228.04 2126.97,-229.47 2130.15,-235.71"/>
</a>
</g>
</g>
<!-- Node13 -->
<g id="Node000013" class="node">
<title>Node13</title>
<g id="a_Node000013"><a xlink:href="minigb__apu_8c.html#abdb01828d5c3bf88b47175d11ac32b7b" target="_top" xlink:title=" ">
<polygon fill="white" stroke="#666666" points="2063.75,-131.97 1947.25,-131.97 1947.25,-112.72 2063.75,-112.72 2063.75,-131.97"/>
<text xml:space="preserve" text-anchor="middle" x="2005.5" y="-118.47" font-family="Helvetica,sans-Serif" font-size="10.00">get_audio_sample_rate</text>
</a>
</g>
</g>
<!-- Node1&#45;&gt;Node13 -->
<g id="edge13_Node000001_Node000013" class="edge">
<title>Node1&#45;&gt;Node13</title>
<g id="a_edge13_Node000001_Node000013"><a xlink:title=" ">
<path fill="none" stroke="#63b8ff" d="M2131.51,-201.45C2100.31,-181.7 2048.01,-148.61 2022.07,-132.2"/>
<polygon fill="#63b8ff" stroke="#63b8ff" points="2129.24,-204.16 2139.56,-206.55 2132.99,-198.24 2129.24,-204.16"/>
</a>
</g>
</g>
<!-- Node23 -->
<g id="Node000023" class="node">
<title>Node23</title>
<g id="a_Node000023"><a xlink:href="minigb__apu_8c.html#a9c74de6aa8e30c9155b00b1d30ca02aa" target="_top" xlink:title=" ">
<polygon fill="white" stroke="#666666" points="1803,-98.97 1729.25,-98.97 1729.25,-79.72 1803,-79.72 1803,-98.97"/>
<text xml:space="preserve" text-anchor="middle" x="1766.12" y="-85.47" font-family="Helvetica,sans-Serif" font-size="10.00">update_noise</text>
</a>
</g>
</g>
<!-- Node1&#45;&gt;Node23 -->
<g id="edge35_Node000001_Node000023" class="edge">
<title>Node1&#45;&gt;Node23</title>
<g id="a_edge35_Node000001_Node000023"><a xlink:title=" ">
<path fill="none" stroke="#63b8ff" d="M2143.72,-197.78C2127.16,-173.66 2096.62,-132.3 2063.75,-103.34 2003.83,-50.56 1988.03,-30.3 1911.25,-8.34 1881.66,0.12 1869.89,4.68 1842,-8.34 1819.42,-18.89 1822.93,-33.05 1806,-51.34 1796.9,-61.18 1785.93,-71.79 1777.97,-79.3"/>
<polygon fill="#63b8ff" stroke="#63b8ff" points="2140.77,-199.68 2149.27,-206.01 2146.58,-195.76 2140.77,-199.68"/>
</a>
</g>
</g>
<!-- Node24 -->
<g id="Node000024" class="node">
<title>Node24</title>
<g id="a_Node000024"><a xlink:href="minigb__apu_8c.html#afa80d522c9bb7cb406745e39f90bcd2a" target="_top" xlink:title=" ">
<polygon fill="white" stroke="#666666" points="1806,-150.97 1726.25,-150.97 1726.25,-131.72 1806,-131.72 1806,-150.97"/>
<text xml:space="preserve" text-anchor="middle" x="1766.12" y="-137.47" font-family="Helvetica,sans-Serif" font-size="10.00">update_square</text>
</a>
</g>
</g>
<!-- Node1&#45;&gt;Node24 -->
<g id="edge36_Node000001_Node000024" class="edge">
<title>Node1&#45;&gt;Node24</title>
<g id="a_edge36_Node000001_Node000024"><a xlink:title=" ">
<path fill="none" stroke="#63b8ff" d="M2088.13,-206.34C2024.21,-195.74 1926.31,-178.65 1842,-160.34 1829.81,-157.7 1816.6,-154.46 1804.71,-151.42"/>
<polygon fill="#63b8ff" stroke="#63b8ff" points="2087.33,-209.76 2097.77,-207.93 2088.47,-202.85 2087.33,-209.76"/>
</a>
</g>
</g>
<!-- Node25 -->
<g id="Node000025" class="node">
<title>Node25</title>
<g id="a_Node000025"><a xlink:href="minigb__apu_8c.html#a58da839111967f16cd396ef4dd67af0c" target="_top" xlink:title=" ">
<polygon fill="white" stroke="#666666" points="1803,-188.97 1729.25,-188.97 1729.25,-169.72 1803,-169.72 1803,-188.97"/>
<text xml:space="preserve" text-anchor="middle" x="1766.12" y="-175.47" font-family="Helvetica,sans-Serif" font-size="10.00">update_wave</text>
</a>
</g>
</g>
<!-- Node1&#45;&gt;Node25 -->
<g id="edge37_Node000001_Node000025" class="edge">
<title>Node1&#45;&gt;Node25</title>
<g id="a_edge37_Node000001_Node000025"><a xlink:title=" ">
<path fill="none" stroke="#63b8ff" d="M2106.53,-229.89C2043.28,-243.42 1931.89,-259.49 1842,-231.34 1815.72,-223.11 1790.57,-202.05 1777.16,-189.4"/>
<polygon fill="#63b8ff" stroke="#63b8ff" points="2107.27,-233.31 2116.28,-227.73 2105.76,-226.47 2107.27,-233.31"/>
</a>
</g>
</g>
<!-- Node3 -->
<g id="Node000003" class="node">
<title>Node3</title>
<g id="a_Node000003"><a xlink:href="game__scene_8c.html#ab923ed4c6ccad95026e85e252071716d" target="_top" xlink:title=" ">
<polygon fill="white" stroke="#666666" points="1408.88,-99.97 1289.38,-99.97 1289.38,-80.72 1408.88,-80.72 1408.88,-99.97"/>
<text xml:space="preserve" text-anchor="middle" x="1349.12" y="-86.47" font-family="Helvetica,sans-Serif" font-size="10.00">PGB_GameScene_new</text>
</a>
</g>
</g>
<!-- Node2&#45;&gt;Node3 -->
<g id="edge2_Node000002_Node000003" class="edge">
<title>Node2&#45;&gt;Node3</title>
<g id="a_edge2_Node000002_Node000003"><a xlink:title=" ">
<path fill="none" stroke="#63b8ff" d="M1597.97,-132.63C1545.66,-123.71 1464.41,-109.84 1409.31,-100.44"/>
<polygon fill="#63b8ff" stroke="#63b8ff" points="1597.37,-136.08 1607.82,-134.32 1598.55,-129.18 1597.37,-136.08"/>
</a>
</g>
</g>
<!-- Node4 -->
<g id="Node000004" class="node">
<title>Node4</title>
<g id="a_Node000004"><a xlink:href="library__scene_8c.html#a0728002045c9cbbd68bdd34897b28da6" target="_top" xlink:title=" ">
<polygon fill="white" stroke="#666666" points="1069,-99.97 935.25,-99.97 935.25,-80.72 1069,-80.72 1069,-99.97"/>
<text xml:space="preserve" text-anchor="middle" x="1002.12" y="-86.47" font-family="Helvetica,sans-Serif" font-size="10.00">PGB_LibraryScene_update</text>
</a>
</g>
</g>
<!-- Node3&#45;&gt;Node4 -->
<g id="edge3_Node000003_Node000004" class="edge">
<title>Node3&#45;&gt;Node4</title>
<g id="a_edge3_Node000003_Node000004"><a xlink:title=" ">
<path fill="none" stroke="#63b8ff" d="M1277.77,-90.34C1216.8,-90.34 1129.22,-90.34 1069.46,-90.34"/>
<polygon fill="#63b8ff" stroke="#63b8ff" points="1277.7,-93.84 1287.7,-90.34 1277.7,-86.84 1277.7,-93.84"/>
</a>
</g>
</g>
<!-- Node5 -->
<g id="Node000005" class="node">
<title>Node5</title>
<g id="a_Node000005"><a xlink:href="library__scene_8c.html#aa5c386d39121b53fba45d899df654188" target="_top" xlink:title=" ">
<polygon fill="white" stroke="#666666" points="719.75,-80.97 597.25,-80.97 597.25,-61.72 719.75,-61.72 719.75,-80.97"/>
<text xml:space="preserve" text-anchor="middle" x="658.5" y="-67.47" font-family="Helvetica,sans-Serif" font-size="10.00">PGB_LibraryScene_new</text>
</a>
</g>
</g>
<!-- Node4&#45;&gt;Node5 -->
<g id="edge4_Node000004_Node000005" class="edge">
<title>Node4&#45;&gt;Node5</title>
<g id="a_edge4_Node000004_Node000005"><a xlink:title=" ">
<path fill="none" stroke="#63b8ff" d="M923.62,-86.03C861.96,-82.6 776.9,-77.87 720.15,-74.72"/>
<polygon fill="#63b8ff" stroke="#63b8ff" points="923.16,-89.51 933.34,-86.57 923.55,-82.52 923.16,-89.51"/>
</a>
</g>
</g>
<!-- Node6 -->
<g id="Node000006" class="node">
<title>Node6</title>
<g id="a_Node000006"><a xlink:href="app_8c.html#ab80501f53b757a79772b96ec99e3dc7e" target="_top" xlink:title=" ">
<polygon fill="white" stroke="#666666" points="534.25,-123.97 441.75,-123.97 441.75,-104.72 534.25,-104.72 534.25,-123.97"/>
<text xml:space="preserve" text-anchor="middle" x="488" y="-110.47" font-family="Helvetica,sans-Serif" font-size="10.00">PGB_goToLibrary</text>
</a>
</g>
</g>
<!-- Node5&#45;&gt;Node6 -->
<g id="edge5_Node000005_Node000006" class="edge">
<title>Node5&#45;&gt;Node6</title>
<g id="a_edge5_Node000005_Node000006"><a xlink:title=" ">
<path fill="none" stroke="#63b8ff" d="M606.84,-84.27C581.76,-90.67 551.92,-98.28 528.55,-104.25"/>
<polygon fill="#63b8ff" stroke="#63b8ff" points="607.7,-87.66 616.53,-81.8 605.97,-80.88 607.7,-87.66"/>
</a>
</g>
</g>
<!-- Node9 -->
<g id="Node000009" class="node">
<title>Node9</title>
<g id="a_Node000009"><a xlink:href="image__conversion__scene_8c.html#a60d0e43ab25a8639bbb6d1f4e758edd3" target="_top" xlink:title=" ">
<polygon fill="white" stroke="#666666" points="561.25,-86.59 414.75,-86.59 414.75,-56.09 561.25,-56.09 561.25,-86.59"/>
<text xml:space="preserve" text-anchor="start" x="422.75" y="-73.09" font-family="Helvetica,sans-Serif" font-size="10.00">PGB_ImageConversionScene</text>
<text xml:space="preserve" text-anchor="middle" x="488" y="-61.84" font-family="Helvetica,sans-Serif" font-size="10.00">_update</text>
</a>
</g>
</g>
<!-- Node5&#45;&gt;Node9 -->
<g id="edge8_Node000005_Node000009" class="edge">
<title>Node5&#45;&gt;Node9</title>
<g id="a_edge8_Node000005_Node000009"><a xlink:title=" ">
<path fill="none" stroke="#63b8ff" d="M585.9,-71.34C577.86,-71.34 569.65,-71.34 561.6,-71.34"/>
<polygon fill="#63b8ff" stroke="#63b8ff" points="585.63,-74.84 595.63,-71.34 585.63,-67.84 585.63,-74.84"/>
</a>
</g>
</g>
<!-- Node11 -->
<g id="Node000011" class="node">
<title>Node11</title>
<g id="a_Node000011"><a xlink:href="app_8c.html#af256ea7a9c51fcbd49cb0007facbb8ea" target="_top" xlink:title=" ">
<polygon fill="white" stroke="#666666" points="166.25,-58.97 111.25,-58.97 111.25,-39.72 166.25,-39.72 166.25,-58.97"/>
<text xml:space="preserve" text-anchor="middle" x="138.75" y="-45.47" font-family="Helvetica,sans-Serif" font-size="10.00">PGB_init</text>
</a>
</g>
</g>
<!-- Node5&#45;&gt;Node11 -->
<g id="edge12_Node000005_Node000011" class="edge">
<title>Node5&#45;&gt;Node11</title>
<g id="a_edge12_Node000005_Node000011"><a xlink:title=" ">
<path fill="none" stroke="#63b8ff" d="M614.41,-58.21C597.95,-53.83 578.89,-49.51 561.25,-47.34 413.08,-29.15 233.4,-41.22 166.52,-46.88"/>
<polygon fill="#63b8ff" stroke="#63b8ff" points="613.32,-61.54 623.89,-60.83 615.18,-54.79 613.32,-61.54"/>
</a>
</g>
</g>
<!-- Node7 -->
<g id="Node000007" class="node">
<title>Node7</title>
<g id="a_Node000007"><a xlink:href="game__scene_8c.html#a6a4a6f0408da311dc566eb187e497889" target="_top" xlink:title=" ">
<polygon fill="white" stroke="#666666" points="360,-123.97 227.75,-123.97 227.75,-104.72 360,-104.72 360,-123.97"/>
<text xml:space="preserve" text-anchor="middle" x="293.88" y="-110.47" font-family="Helvetica,sans-Serif" font-size="10.00">PGB_LibraryConfirmModal</text>
</a>
</g>
</g>
<!-- Node6&#45;&gt;Node7 -->
<g id="edge6_Node000006_Node000007" class="edge">
<title>Node6&#45;&gt;Node7</title>
<g id="a_edge6_Node000006_Node000007"><a xlink:title=" ">
<path fill="none" stroke="#63b8ff" d="M430.03,-114.34C408.17,-114.34 383.05,-114.34 360.44,-114.34"/>
<polygon fill="#63b8ff" stroke="#63b8ff" points="429.96,-117.84 439.96,-114.34 429.96,-110.84 429.96,-117.84"/>
</a>
</g>
</g>
<!-- Node8 -->
<g id="Node000008" class="node">
<title>Node8</title>
<g id="a_Node000008"><a xlink:href="game__scene_8c.html#a113df24bb94bafcdbb9235ec8648e02f" target="_top" xlink:title=" ">
<polygon fill="white" stroke="#666666" points="173,-123.97 104.5,-123.97 104.5,-104.72 173,-104.72 173,-123.97"/>
<text xml:space="preserve" text-anchor="middle" x="138.75" y="-110.47" font-family="Helvetica,sans-Serif" font-size="10.00">__section__</text>
</a>
</g>
</g>
<!-- Node7&#45;&gt;Node8 -->
<g id="edge7_Node000007_Node000008" class="edge">
<title>Node7&#45;&gt;Node8</title>
<g id="a_edge7_Node000007_Node000008"><a xlink:title=" ">
<path fill="none" stroke="#63b8ff" d="M216.03,-114.34C200.98,-114.34 185.96,-114.34 173.27,-114.34"/>
<polygon fill="#63b8ff" stroke="#63b8ff" points="215.98,-117.84 225.98,-114.34 215.98,-110.84 215.98,-117.84"/>
</a>
</g>
</g>
<!-- Node10 -->
<g id="Node000010" class="node">
<title>Node10</title>
<g id="a_Node000010"><a xlink:href="image__conversion__scene_8c.html#aa3559936491ddf78b9cf06fcbdd32d22" target="_top" xlink:title=" ">
<polygon fill="white" stroke="#666666" points="378.75,-78.97 209,-78.97 209,-59.72 378.75,-59.72 378.75,-78.97"/>
<text xml:space="preserve" text-anchor="middle" x="293.88" y="-65.47" font-family="Helvetica,sans-Serif" font-size="10.00">PGB_ImageConversionScene_new</text>
</a>
</g>
</g>
<!-- Node9&#45;&gt;Node10 -->
<g id="edge9_Node000009_Node000010" class="edge">
<title>Node9&#45;&gt;Node10</title>
<g id="a_edge9_Node000009_Node000010"><a xlink:title=" ">
<path fill="none" stroke="#63b8ff" d="M402.94,-70.47C395.07,-70.39 387.09,-70.3 379.22,-70.22"/>
<polygon fill="#63b8ff" stroke="#63b8ff" points="402.82,-73.97 412.85,-70.57 402.89,-66.97 402.82,-73.97"/>
</a>
</g>
</g>
<!-- Node10&#45;&gt;Node11 -->
<g id="edge10_Node000010_Node000011" class="edge">
<title>Node10&#45;&gt;Node11</title>
<g id="a_edge10_Node000010_Node000011"><a xlink:title=" ">
<path fill="none" stroke="#63b8ff" d="M204.38,-57.78C190.72,-56 177.57,-54.28 166.75,-52.87"/>
<polygon fill="#63b8ff" stroke="#63b8ff" points="203.55,-61.2 213.91,-59.03 204.45,-54.26 203.55,-61.2"/>
</a>
</g>
</g>
<!-- Node12 -->
<g id="Node000012" class="node">
<title>Node12</title>
<g id="a_Node000012"><a xlink:href="main_8c.html#a77034286b8c64d0735c69535c5e9b732" target="_top" xlink:title=" ">
<polygon fill="white" stroke="#666666" points="68.5,-58.97 0,-58.97 0,-39.72 68.5,-39.72 68.5,-58.97"/>
<text xml:space="preserve" text-anchor="middle" x="34.25" y="-45.47" font-family="Helvetica,sans-Serif" font-size="10.00">__section__</text>
</a>
</g>
</g>
<!-- Node11&#45;&gt;Node12 -->
<g id="edge11_Node000011_Node000012" class="edge">
<title>Node11&#45;&gt;Node12</title>
<g id="a_edge11_Node000011_Node000012"><a xlink:title=" ">
<path fill="none" stroke="#63b8ff" d="M99.48,-49.34C89.46,-49.34 78.74,-49.34 68.97,-49.34"/>
<polygon fill="#63b8ff" stroke="#63b8ff" points="99.31,-52.84 109.31,-49.34 99.31,-45.84 99.31,-52.84"/>
</a>
</g>
</g>
<!-- Node14 -->
<g id="Node000014" class="node">
<title>Node14</title>
<g id="a_Node000014"><a xlink:href="minigb__apu_8c.html#a87baf895f2b1010b0bf05957da722d72" target="_top" xlink:title=" ">
<polygon fill="white" stroke="#666666" points="1911.25,-36.97 1842,-36.97 1842,-17.72 1911.25,-17.72 1911.25,-36.97"/>
<text xml:space="preserve" text-anchor="middle" x="1876.62" y="-23.47" font-family="Helvetica,sans-Serif" font-size="10.00">chan_trigger</text>
</a>
</g>
</g>
<!-- Node13&#45;&gt;Node14 -->
<g id="edge14_Node000013_Node000014" class="edge">
<title>Node13&#45;&gt;Node14</title>
<g id="a_edge14_Node000013_Node000014"><a xlink:title=" ">
<path fill="none" stroke="#63b8ff" d="M1982.69,-105.43C1963.88,-90.92 1935.94,-69.54 1911.25,-51.34 1904.9,-46.66 1897.8,-41.57 1891.76,-37.29"/>
<polygon fill="#63b8ff" stroke="#63b8ff" points="1980.37,-108.07 1990.42,-111.41 1984.65,-102.53 1980.37,-108.07"/>
</a>
</g>
</g>
<!-- Node22 -->
<g id="Node000022" class="node">
<title>Node22</title>
<g id="a_Node000022"><a xlink:href="minigb__apu_8c.html#ab80d52e38ec461f6050d62361609038d" target="_top" xlink:title=" ">
<polygon fill="white" stroke="#666666" points="1908.25,-150.97 1845,-150.97 1845,-131.72 1908.25,-131.72 1908.25,-150.97"/>
<text xml:space="preserve" text-anchor="middle" x="1876.62" y="-137.47" font-family="Helvetica,sans-Serif" font-size="10.00">update_len</text>
</a>
</g>
</g>
<!-- Node13&#45;&gt;Node22 -->
<g id="edge25_Node000013_Node000022" class="edge">
<title>Node13&#45;&gt;Node22</title>
<g id="a_edge25_Node000013_Node000022"><a xlink:title=" ">
<path fill="none" stroke="#63b8ff" d="M1935.8,-132.63C1926.27,-134.06 1916.9,-135.46 1908.56,-136.71"/>
<polygon fill="#63b8ff" stroke="#63b8ff" points="1936.13,-136.12 1945.51,-131.18 1935.1,-129.2 1936.13,-136.12"/>
</a>
</g>
</g>
<!-- Node13&#45;&gt;Node23 -->
<g id="edge32_Node000013_Node000023" class="edge">
<title>Node13&#45;&gt;Node23</title>
<g id="a_edge32_Node000013_Node000023"><a xlink:title=" ">
<path fill="none" stroke="#63b8ff" d="M1935.73,-112.78C1892.5,-106.77 1838.47,-99.26 1803.4,-94.38"/>
<polygon fill="#63b8ff" stroke="#63b8ff" points="1935.15,-116.23 1945.54,-114.15 1936.12,-109.3 1935.15,-116.23"/>
</a>
</g>
</g>
<!-- Node13&#45;&gt;Node24 -->
<g id="edge33_Node000013_Node000024" class="edge">
<title>Node13&#45;&gt;Node24</title>
<g id="a_edge33_Node000013_Node000024"><a xlink:title=" ">
<path fill="none" stroke="#63b8ff" d="M1935.5,-118.57C1906.52,-117.97 1872.52,-118.53 1842,-122.34 1827.89,-124.1 1812.63,-127.66 1799.59,-131.23"/>
<polygon fill="#63b8ff" stroke="#63b8ff" points="1935.15,-122.06 1945.24,-118.83 1935.34,-115.07 1935.15,-122.06"/>
</a>
</g>
</g>
<!-- Node13&#45;&gt;Node25 -->
<g id="edge34_Node000013_Node000025" class="edge">
<title>Node13&#45;&gt;Node25</title>
<g id="a_edge34_Node000013_Node000025"><a xlink:title=" ">
<path fill="none" stroke="#63b8ff" d="M1973.9,-137.13C1956.02,-145.18 1932.8,-154.63 1911.25,-160.34 1875.27,-169.88 1832.9,-174.73 1803.46,-177.13"/>
<polygon fill="#63b8ff" stroke="#63b8ff" points="1975.29,-140.35 1982.91,-132.98 1972.36,-133.99 1975.29,-140.35"/>
</a>
</g>
</g>
<!-- Node15 -->
<g id="Node000015" class="node">
<title>Node15</title>
<g id="a_Node000015"><a xlink:href="minigb__apu_8c.html#ae1c33f1ae27d770f9585e7157b600aa9" target="_top" xlink:title=" ">
<polygon fill="white" stroke="#666666" points="1798.88,-41.97 1733.38,-41.97 1733.38,-22.72 1798.88,-22.72 1798.88,-41.97"/>
<text xml:space="preserve" text-anchor="middle" x="1766.12" y="-28.47" font-family="Helvetica,sans-Serif" font-size="10.00">audio_write</text>
</a>
</g>
</g>
<!-- Node14&#45;&gt;Node15 -->
<g id="edge15_Node000014_Node000015" class="edge">
<title>Node14&#45;&gt;Node15</title>
<g id="a_edge15_Node000014_Node000015"><a xlink:title=" ">
<path fill="none" stroke="#63b8ff" d="M1830.12,-29.44C1819.72,-29.92 1808.88,-30.42 1799.19,-30.86"/>
<polygon fill="#63b8ff" stroke="#63b8ff" points="1830.25,-32.94 1840.08,-28.98 1829.93,-25.94 1830.25,-32.94"/>
</a>
</g>
</g>
<!-- Node16 -->
<g id="Node000016" class="node">
<title>Node16</title>
<g id="a_Node000016"><a xlink:href="minigb__apu_8c.html#acc6a1a7ec1a9cbf431ed26b611f27a65" target="_top" xlink:title=" ">
<polygon fill="white" stroke="#666666" points="1678.62,-57.97 1621.38,-57.97 1621.38,-38.72 1678.62,-38.72 1678.62,-57.97"/>
<text xml:space="preserve" text-anchor="middle" x="1650" y="-44.47" font-family="Helvetica,sans-Serif" font-size="10.00">audio_init</text>
</a>
</g>
</g>
<!-- Node15&#45;&gt;Node16 -->
<g id="edge16_Node000015_Node000016" class="edge">
<title>Node15&#45;&gt;Node16</title>
<g id="a_edge16_Node000015_Node000016"><a xlink:title=" ">
<path fill="none" stroke="#63b8ff" d="M1721.85,-38.41C1707.48,-40.42 1691.88,-42.61 1678.98,-44.42"/>
<polygon fill="#63b8ff" stroke="#63b8ff" points="1722.12,-41.91 1731.53,-37.05 1721.14,-34.97 1722.12,-41.91"/>
</a>
</g>
</g>
<!-- Node16&#45;&gt;Node3 -->
<g id="edge24_Node000016_Node000003" class="edge">
<title>Node16&#45;&gt;Node3</title>
<g id="a_edge24_Node000016_Node000003"><a xlink:title=" ">
<path fill="none" stroke="#63b8ff" d="M1612,-62C1599.95,-65.94 1586.42,-69.85 1573.75,-72.34 1518.53,-83.22 1454.4,-87.55 1409.01,-89.26"/>
<polygon fill="#63b8ff" stroke="#63b8ff" points="1612.79,-65.42 1621.14,-58.89 1610.54,-58.79 1612.79,-65.42"/>
</a>
</g>
</g>
<!-- Node17 -->
<g id="Node000017" class="node">
<title>Node17</title>
<g id="a_Node000017"><a xlink:href="game__scene_8c.html#a81e27cfbebe9e585798c0a8f0693ebc1" target="_top" xlink:title=" ">
<polygon fill="white" stroke="#666666" points="1573.75,-63.59 1449,-63.59 1449,-33.09 1573.75,-33.09 1573.75,-63.59"/>
<text xml:space="preserve" text-anchor="start" x="1457" y="-50.09" font-family="Helvetica,sans-Serif" font-size="10.00">PGB_GameScene_apply</text>
<text xml:space="preserve" text-anchor="middle" x="1511.38" y="-38.84" font-family="Helvetica,sans-Serif" font-size="10.00">_settings</text>
</a>
</g>
</g>
<!-- Node16&#45;&gt;Node17 -->
<g id="edge17_Node000016_Node000017" class="edge">
<title>Node16&#45;&gt;Node17</title>
<g id="a_edge17_Node000016_Node000017"><a xlink:title=" ">
<path fill="none" stroke="#63b8ff" d="M1609.57,-48.34C1598.5,-48.34 1586.18,-48.34 1574.15,-48.34"/>
<polygon fill="#63b8ff" stroke="#63b8ff" points="1609.51,-51.84 1619.51,-48.34 1609.51,-44.84 1609.51,-51.84"/>
</a>
</g>
</g>
<!-- Node17&#45;&gt;Node3 -->
<g id="edge18_Node000017_Node000003" class="edge">
<title>Node17&#45;&gt;Node3</title>
<g id="a_edge18_Node000017_Node000003"><a xlink:title=" ">
<path fill="none" stroke="#63b8ff" d="M1439.82,-66.83C1422.17,-71.46 1403.88,-76.25 1388.46,-80.29"/>
<polygon fill="#63b8ff" stroke="#63b8ff" points="1440.45,-70.29 1449.24,-64.37 1438.68,-63.51 1440.45,-70.29"/>
</a>
</g>
</g>
<!-- Node18 -->
<g id="Node000018" class="node">
<title>Node18</title>
<g id="a_Node000018"><a xlink:href="settings__scene_8c.html#a94443c0dbbd6670bccbe9f9de4d85c5e" target="_top" xlink:title=" ">
<polygon fill="white" stroke="#666666" points="1413,-59.97 1285.25,-59.97 1285.25,-40.72 1413,-40.72 1413,-59.97"/>
<text xml:space="preserve" text-anchor="middle" x="1349.12" y="-46.47" font-family="Helvetica,sans-Serif" font-size="10.00">PGB_SettingsScene_free</text>
</a>
</g>
</g>
<!-- Node17&#45;&gt;Node18 -->
<g id="edge19_Node000017_Node000018" class="edge">
<title>Node17&#45;&gt;Node18</title>
<g id="a_edge19_Node000017_Node000018"><a xlink:title=" ">
<path fill="none" stroke="#63b8ff" d="M1437.54,-49.25C1429.46,-49.35 1421.27,-49.45 1413.32,-49.55"/>
<polygon fill="#63b8ff" stroke="#63b8ff" points="1437.41,-52.75 1447.36,-49.13 1437.32,-45.75 1437.41,-52.75"/>
</a>
</g>
</g>
<!-- Node19 -->
<g id="Node000019" class="node">
<title>Node19</title>
<g id="a_Node000019"><a xlink:href="settings__scene_8c.html#a7a2a61c35c00f7990b0a85f16e5c9975" target="_top" xlink:title=" ">
<polygon fill="white" stroke="#666666" points="1249.25,-60.97 1120,-60.97 1120,-41.72 1249.25,-41.72 1249.25,-60.97"/>
<text xml:space="preserve" text-anchor="middle" x="1184.62" y="-47.47" font-family="Helvetica,sans-Serif" font-size="10.00">PGB_SettingsScene_new</text>
</a>
</g>
</g>
<!-- Node18&#45;&gt;Node19 -->
<g id="edge20_Node000018_Node000019" class="edge">
<title>Node18&#45;&gt;Node19</title>
<g id="a_edge20_Node000018_Node000019"><a xlink:title=" ">
<path fill="none" stroke="#63b8ff" d="M1273.58,-50.8C1265.55,-50.85 1257.43,-50.9 1249.55,-50.95"/>
<polygon fill="#63b8ff" stroke="#63b8ff" points="1273.34,-54.3 1283.32,-50.74 1273.3,-47.3 1273.34,-54.3"/>
</a>
</g>
</g>
<!-- Node20 -->
<g id="Node000020" class="node">
<title>Node20</title>
<g id="a_Node000020"><a xlink:href="library__scene_8c.html#ae9da6d35e322c1a0896926f6a66c66f1" target="_top" xlink:title=" ">
<polygon fill="white" stroke="#666666" points="1084,-61.97 920.25,-61.97 920.25,-42.72 1084,-42.72 1084,-61.97"/>
<text xml:space="preserve" text-anchor="middle" x="1002.12" y="-48.47" font-family="Helvetica,sans-Serif" font-size="10.00">PGB_LibraryScene_showSettings</text>
</a>
</g>
</g>
<!-- Node19&#45;&gt;Node20 -->
<g id="edge21_Node000019_Node000020" class="edge">
<title>Node19&#45;&gt;Node20</title>
<g id="a_edge21_Node000019_Node000020"><a xlink:title=" ">
<path fill="none" stroke="#63b8ff" d="M1108.28,-51.76C1100.37,-51.8 1092.3,-51.85 1084.32,-51.89"/>
<polygon fill="#63b8ff" stroke="#63b8ff" points="1108.24,-55.26 1118.22,-51.7 1108.2,-48.26 1108.24,-55.26"/>
</a>
</g>
</g>
<!-- Node21 -->
<g id="Node000021" class="node">
<title>Node21</title>
<g id="a_Node000021"><a xlink:href="library__scene_8c.html#ab295872b275c54cb2800b2b71fd163ef" target="_top" xlink:title=" ">
<polygon fill="white" stroke="#666666" points="884.25,-61.97 755.75,-61.97 755.75,-42.72 884.25,-42.72 884.25,-61.97"/>
<text xml:space="preserve" text-anchor="middle" x="820" y="-48.47" font-family="Helvetica,sans-Serif" font-size="10.00">PGB_LibraryScene_menu</text>
</a>
</g>
</g>
<!-- Node20&#45;&gt;Node21 -->
<g id="edge22_Node000020_Node000021" class="edge">
<title>Node20&#45;&gt;Node21</title>
<g id="a_edge22_Node000020_Node000021"><a xlink:title=" ">
<path fill="none" stroke="#63b8ff" d="M908.43,-52.34C900.42,-52.34 892.43,-52.34 884.73,-52.34"/>
<polygon fill="#63b8ff" stroke="#63b8ff" points="908.24,-55.84 918.24,-52.34 908.24,-48.84 908.24,-55.84"/>
</a>
</g>
</g>
<!-- Node21&#45;&gt;Node5 -->
<g id="edge23_Node000021_Node000005" class="edge">
<title>Node21&#45;&gt;Node5</title>
<g id="a_edge23_Node000021_Node000005"><a xlink:title=" ">
<path fill="none" stroke="#63b8ff" d="M744.2,-61.25C736.15,-62.21 728.04,-63.18 720.18,-64.11"/>
<polygon fill="#63b8ff" stroke="#63b8ff" points="744.48,-64.74 754,-60.09 743.66,-57.79 744.48,-64.74"/>
</a>
</g>
</g>
<!-- Node22&#45;&gt;Node23 -->
<g id="edge26_Node000022_Node000023" class="edge">
<title>Node22&#45;&gt;Node23</title>
<g id="a_edge26_Node000022_Node000023"><a xlink:title=" ">
<path fill="none" stroke="#63b8ff" d="M1844.34,-126.35C1826.24,-117.67 1803.95,-106.99 1787.98,-99.34"/>
<polygon fill="#63b8ff" stroke="#63b8ff" points="1842.81,-129.5 1853.34,-130.66 1845.84,-123.18 1842.81,-129.5"/>
</a>
</g>
</g>
<!-- Node22&#45;&gt;Node24 -->
<g id="edge28_Node000022_Node000024" class="edge">
<title>Node22&#45;&gt;Node24</title>
<g id="a_edge28_Node000022_Node000024"><a xlink:title=" ">
<path fill="none" stroke="#63b8ff" d="M1833.23,-141.34C1824.38,-141.34 1815.08,-141.34 1806.35,-141.34"/>
<polygon fill="#63b8ff" stroke="#63b8ff" points="1833.02,-144.84 1843.02,-141.34 1833.02,-137.84 1833.02,-144.84"/>
</a>
</g>
</g>
<!-- Node22&#45;&gt;Node25 -->
<g id="edge30_Node000022_Node000025" class="edge">
<title>Node22&#45;&gt;Node25</title>
<g id="a_edge30_Node000022_Node000025"><a xlink:title=" ">
<path fill="none" stroke="#63b8ff" d="M1835.99,-155.22C1822.64,-159.9 1808,-165.03 1795.67,-169.34"/>
<polygon fill="#63b8ff" stroke="#63b8ff" points="1837.12,-158.53 1845.41,-151.93 1834.81,-151.93 1837.12,-158.53"/>
</a>
</g>
</g>
<!-- Node23&#45;&gt;Node2 -->
<g id="edge27_Node000023_Node000002" class="edge">
<title>Node23&#45;&gt;Node2</title>
<g id="a_edge27_Node000023_Node000002"><a xlink:title=" ">
<path fill="none" stroke="#63b8ff" d="M1732.75,-104.09C1713.62,-112.81 1689.89,-123.62 1672.94,-131.35"/>
<polygon fill="#63b8ff" stroke="#63b8ff" points="1734.09,-107.33 1741.74,-100 1731.19,-100.96 1734.09,-107.33"/>
</a>
</g>
</g>
<!-- Node24&#45;&gt;Node2 -->
<g id="edge29_Node000024_Node000002" class="edge">
<title>Node24&#45;&gt;Node2</title>
<g id="a_edge29_Node000024_Node000002"><a xlink:title=" ">
<path fill="none" stroke="#63b8ff" d="M1714.41,-141.34C1706.48,-141.34 1698.38,-141.34 1690.74,-141.34"/>
<polygon fill="#63b8ff" stroke="#63b8ff" points="1714.34,-144.84 1724.34,-141.34 1714.34,-137.84 1714.34,-144.84"/>
</a>
</g>
</g>
<!-- Node25&#45;&gt;Node2 -->
<g id="edge31_Node000025_Node000002" class="edge">
<title>Node25&#45;&gt;Node2</title>
<g id="a_edge31_Node000025_Node000002"><a xlink:title=" ">
<path fill="none" stroke="#63b8ff" d="M1724.28,-165.74C1710.01,-160.99 1694.26,-155.75 1681.03,-151.34"/>
<polygon fill="#63b8ff" stroke="#63b8ff" points="1722.81,-168.94 1733.41,-168.78 1725.02,-162.3 1722.81,-168.94"/>
</a>
</g>
</g>
</g>
</svg>

<g id="navigator" transform="translate(0 0)" fill="#404254">
  <rect fill="#f2f5e9" fill-opacity="0.5" stroke="#606060" stroke-width=".5" x="0" y="0" width="60" height="60"/>
  <use id="zoomplus" xlink:href="#zoomPlus" x="17" y="9" onmousedown="handleZoom(evt,'in')"/>
  <use id="zoomminus" xlink:href="#zoomMin" x="42" y="9" onmousedown="handleZoom(evt,'out')"/>
  <use id="reset" xlink:href="#resetDef" x="30" y="36" onmousedown="handleReset()"/>
   <use id="arrowup" xlink:href="#arrowUp" x="0" y="0" onmousedown="handlePan(0,-1)"/>
  <use id="arrowright" xlink:href="#arrowRight" x="0" y="0" onmousedown="handlePan(1,0)"/>
  <use id="arrowdown" xlink:href="#arrowDown" x="0" y="0" onmousedown="handlePan(0,1)"/>
  <use id="arrowleft" xlink:href="#arrowLeft" x="0" y="0" onmousedown="handlePan(-1,0)"/>
</g>
<svg viewBox="0 0 15 15" width="100%" height="30px" preserveAspectRatio="xMaxYMin meet">
 <g id="arrow_out" transform="scale(0.3 0.3)">
  <a xlink:href="minigb__apu_8c_a88ceff00359f9b7e8b7a44ce33835813_icgraph_org.svg" target="_base">
   <rect id="button" ry="5" rx="5" y="6" x="6" height="38" width="38"
        fill="#f2f5e9" fill-opacity="0.5" stroke="#606060" stroke-width="1.0"/>
   <path id="arrow"
     d="M 11.500037,31.436501 C 11.940474,20.09759 22.043105,11.32322 32.158766,21.979434 L 37.068811,17.246167 C 37.068811,17.246167 37.088388,32 37.088388,32 L 22.160133,31.978069 C 22.160133,31.978069 26.997745,27.140456 26.997745,27.140456 C 18.528582,18.264221 13.291696,25.230495 11.500037,31.436501 z"
     style="fill:#404040;"/>
  </a>
 </g>
</svg>

<style type='text/css'>
<![CDATA[
[data-mouse-over-selected='false'] { opacity: 0.7; }
[data-mouse-over-selected='true']  { opacity: 1.0; }
]]>
</style>
<script type="application/ecmascript"><![CDATA[
document.addEventListener('DOMContentLoaded', (event) => {
  highlightEdges();
  highlightAdjacentNodes();
});
]]></script>
</svg>
