<?xml version="1.0" encoding="UTF-8" standalone="no"?>
<!DOCTYPE svg PUBLIC "-//W3C//DTD SVG 1.1//EN"
 "http://www.w3.org/Graphics/SVG/1.1/DTD/svg11.dtd">
<!-- Generated by graphviz version 13.1.0 (20250701.0955)
 -->
<!-- Title: minigb_apu/minigb_apu.c Pages: 1 -->
<!--zoomable 414 -->

<svg id="main" version="1.1" xmlns="http://www.w3.org/2000/svg" xmlns:xlink="http://www.w3.org/1999/xlink" xml:space="preserve" onload="init(evt)">

<style type="text/css"><![CDATA[
.node, .edge {opacity: 0.7;}
.node.selected, .edge.selected {opacity: 1;}
.edge:hover path { stroke: red; }
.edge:hover polygon { stroke: red; fill: red; }
]]></style>

<defs>
  <circle id="rim" cx="0" cy="0" r="7"/>
  <circle id="rim2" cx="0" cy="0" r="3.5"/>
  <g id="zoomPlus">
    <use xlink:href="#rim" fill="#404040"><set attributeName="fill" to="#808080" begin="zoomplus.mouseover" end="zoomplus.mouseout"/></use>
    <path d="M-4,0h8M0,-4v8" fill="none" stroke="white" stroke-width="1.5" pointer-events="none"/>
  </g>
  <g id="zoomMin">
    <use xlink:href="#rim" fill="#404040"><set attributeName="fill" to="#808080" begin="zoomminus.mouseover" end="zoomminus.mouseout"/></use>
    <path d="M-4,0h8" fill="none" stroke="white" stroke-width="1.5" pointer-events="none"/>
  </g>
  <g id="arrowUp" transform="translate(30 24)">
    <use xlink:href="#rim"/>
    <path pointer-events="none" fill="none" stroke="white" stroke-width="1.5" d="M0,-3.0v7 M-2.5,-0.5L0,-3.0L2.5,-0.5"/>
  </g>
  <g id="arrowRight" transform="rotate(90) translate(36 -43)">
    <use xlink:href="#rim"/>
    <path pointer-events="none" fill="none" stroke="white" stroke-width="1.5" d="M0,-3.0v7 M-2.5,-0.5L0,-3.0L2.5,-0.5"/>
  </g>
  <g id="arrowDown" transform="rotate(180) translate(-30 -48)">
    <use xlink:href="#rim"/>
    <path pointer-events="none" fill="none" stroke="white" stroke-width="1.5" d="M0,-3.0v7 M-2.5,-0.5L0,-3.0L2.5,-0.5"/>
  </g>
  <g id="arrowLeft" transform="rotate(270) translate(-36 17)">
    <use xlink:href="#rim"/>
    <path pointer-events="none" fill="none" stroke="white" stroke-width="1.5" d="M0,-3.0v7 M-2.5,-0.5L0,-3.0L2.5,-0.5"/>
  </g>
  <g id="resetDef">
    <use xlink:href="#rim2" fill="#404040"><set attributeName="fill" to="#808080" begin="reset.mouseover" end="reset.mouseout"/></use>
  </g>
</defs>
<script type="application/ecmascript">
var viewWidth = 927;
var viewHeight = 414;
var sectionId = 'dynsection-0';
</script>
<script type="application/ecmascript" xlink:href="svg.min.js"/>
<svg id="graph" class="graph">
<g id="viewport">
<title>minigb_apu/minigb_apu.c</title>
<!-- Node1 -->
<g id="Node000001" class="node">
<title>Node1</title>
<g id="a_Node000001"><a xlink:title=" ">
<polygon fill="#999999" stroke="#666666" points="312.12,-406 185.88,-406 185.88,-386.75 312.12,-386.75 312.12,-406"/>
<text xml:space="preserve" text-anchor="middle" x="249" y="-392.5" font-family="Helvetica,sans-Serif" font-size="10.00">minigb_apu/minigb_apu.c</text>
</a>
</g>
</g>
<!-- Node2 -->
<g id="Node000002" class="node">
<title>Node2</title>
<g id="a_Node000002"><a xlink:href="minigb__apu_8h.html" target="_top" xlink:title=" ">
<polygon fill="white" stroke="#666666" points="177.88,-240.25 104.12,-240.25 104.12,-221 177.88,-221 177.88,-240.25"/>
<text xml:space="preserve" text-anchor="middle" x="141" y="-226.75" font-family="Helvetica,sans-Serif" font-size="10.00">minigb_apu.h</text>
</a>
</g>
</g>
<!-- Node1&#45;&gt;Node2 -->
<g id="edge1_Node000001_Node000002" class="edge">
<title>Node1&#45;&gt;Node2</title>
<g id="a_edge1_Node000001_Node000002"><a xlink:title=" ">
<path fill="none" stroke="#63b8ff" d="M243.19,-386.57C226.2,-360.8 176.3,-285.15 153.11,-249.99"/>
<polygon fill="#63b8ff" stroke="#63b8ff" points="156.1,-248.16 147.67,-241.74 150.25,-252.01 156.1,-248.16"/>
</a>
</g>
</g>
<!-- Node3 -->
<g id="Node000003" class="node">
<title>Node3</title>
<g id="a_Node000003"><a xlink:title=" ">
<polygon fill="#e0e0e0" stroke="#999999" points="266.12,-185 217.88,-185 217.88,-165.75 266.12,-165.75 266.12,-185"/>
<text xml:space="preserve" text-anchor="middle" x="242" y="-171.5" font-family="Helvetica,sans-Serif" font-size="10.00">stdint.h</text>
</a>
</g>
</g>
<!-- Node1&#45;&gt;Node3 -->
<g id="edge45_Node000001_Node000003" class="edge">
<title>Node1&#45;&gt;Node3</title>
<g id="a_edge45_Node000001_Node000003"><a xlink:title=" ">
<path fill="none" stroke="#63b8ff" d="M229.51,-386.4C177.9,-361.42 44.96,-288.48 95,-221 120.48,-186.64 171.72,-177.82 206.45,-176.02"/>
<polygon fill="#63b8ff" stroke="#63b8ff" points="206.15,-179.53 216.02,-175.7 205.91,-172.54 206.15,-179.53"/>
</a>
</g>
</g>
<!-- Node4 -->
<g id="Node000004" class="node">
<title>Node4</title>
<g id="a_Node000004"><a xlink:href="peanut__gb_8h.html" target="_top" xlink:title=" ">
<polygon fill="white" stroke="#666666" points="483.12,-295.5 356.88,-295.5 356.88,-276.25 483.12,-276.25 483.12,-295.5"/>
<text xml:space="preserve" text-anchor="middle" x="420" y="-282" font-family="Helvetica,sans-Serif" font-size="10.00">../peanut_gb/peanut_gb.h</text>
</a>
</g>
</g>
<!-- Node1&#45;&gt;Node4 -->
<g id="edge3_Node000001_Node000004" class="edge">
<title>Node1&#45;&gt;Node4</title>
<g id="a_edge3_Node000001_Node000004"><a xlink:title=" ">
<path fill="none" stroke="#63b8ff" d="M263.29,-386.31C292.65,-367.68 360.08,-324.9 396.17,-302"/>
<polygon fill="#63b8ff" stroke="#63b8ff" points="398.03,-304.96 404.6,-296.65 394.28,-299.05 398.03,-304.96"/>
</a>
</g>
</g>
<!-- Node5 -->
<g id="Node000005" class="node">
<title>Node5</title>
<g id="a_Node000005"><a xlink:href="app_8h.html" target="_top" xlink:title=" ">
<polygon fill="white" stroke="#666666" points="798.75,-240.25 733.25,-240.25 733.25,-221 798.75,-221 798.75,-240.25"/>
<text xml:space="preserve" text-anchor="middle" x="766" y="-226.75" font-family="Helvetica,sans-Serif" font-size="10.00">../src/app.h</text>
</a>
</g>
</g>
<!-- Node1&#45;&gt;Node5 -->
<g id="edge32_Node000001_Node000005" class="edge">
<title>Node1&#45;&gt;Node5</title>
<g id="a_edge32_Node000001_Node000005"><a xlink:title=" ">
<path fill="none" stroke="#63b8ff" d="M281.11,-386.25C311.93,-377.42 359.76,-363.53 401,-350.75 521.08,-313.54 662.32,-266.5 728.38,-244.31"/>
<polygon fill="#63b8ff" stroke="#63b8ff" points="729.27,-247.71 737.64,-241.2 727.04,-241.07 729.27,-247.71"/>
</a>
</g>
</g>
<!-- Node10 -->
<g id="Node000010" class="node">
<title>Node10</title>
<g id="a_Node000010"><a xlink:title=" ">
<polygon fill="#e0e0e0" stroke="#999999" points="498.88,-19.25 443.12,-19.25 443.12,0 498.88,0 498.88,-19.25"/>
<text xml:space="preserve" text-anchor="middle" x="471" y="-5.75" font-family="Helvetica,sans-Serif" font-size="10.00">stdbool.h</text>
</a>
</g>
</g>
<!-- Node1&#45;&gt;Node10 -->
<g id="edge43_Node000001_Node000010" class="edge">
<title>Node1&#45;&gt;Node10</title>
<g id="a_edge43_Node000001_Node000010"><a xlink:title=" ">
<path fill="none" stroke="#63b8ff" d="M185.52,-394.15C111.75,-388.96 0,-367.75 0,-286.88 0,-286.88 0,-286.88 0,-119.12 0,-30.79 318.6,-14.36 431.73,-11.32"/>
<polygon fill="#63b8ff" stroke="#63b8ff" points="431.52,-14.82 441.43,-11.08 431.35,-7.83 431.52,-14.82"/>
</a>
</g>
</g>
<!-- Node13 -->
<g id="Node000013" class="node">
<title>Node13</title>
<g id="a_Node000013"><a xlink:href="preferences_8h.html" target="_top" xlink:title=" ">
<polygon fill="white" stroke="#666666" points="715.38,-240.25 614.62,-240.25 614.62,-221 715.38,-221 715.38,-240.25"/>
<text xml:space="preserve" text-anchor="middle" x="665" y="-226.75" font-family="Helvetica,sans-Serif" font-size="10.00">../src/preferences.h</text>
</a>
</g>
</g>
<!-- Node1&#45;&gt;Node13 -->
<g id="edge42_Node000001_Node000013" class="edge">
<title>Node1&#45;&gt;Node13</title>
<g id="a_edge42_Node000001_Node000013"><a xlink:title=" ">
<path fill="none" stroke="#63b8ff" d="M271.96,-386.34C341.41,-359 549.53,-277.08 631.39,-244.85"/>
<polygon fill="#63b8ff" stroke="#63b8ff" points="632.43,-248.21 640.45,-241.29 629.86,-241.7 632.43,-248.21"/>
</a>
</g>
</g>
<!-- Node16 -->
<g id="Node000016" class="node">
<title>Node16</title>
<g id="a_Node000016"><a xlink:title=" ">
<polygon fill="#e0e0e0" stroke="#999999" points="247.62,-240.25 196.38,-240.25 196.38,-221 247.62,-221 247.62,-240.25"/>
<text xml:space="preserve" text-anchor="middle" x="222" y="-226.75" font-family="Helvetica,sans-Serif" font-size="10.00">stddef.h</text>
</a>
</g>
</g>
<!-- Node1&#45;&gt;Node16 -->
<g id="edge44_Node000001_Node000016" class="edge">
<title>Node1&#45;&gt;Node16</title>
<g id="a_edge44_Node000001_Node000016"><a xlink:title=" ">
<path fill="none" stroke="#63b8ff" d="M247.55,-386.57C243.35,-361.14 231.15,-287.1 225.26,-251.37"/>
<polygon fill="#63b8ff" stroke="#63b8ff" points="228.79,-251.26 223.71,-241.97 221.88,-252.4 228.79,-251.26"/>
</a>
</g>
</g>
<!-- Node18 -->
<g id="Node000018" class="node">
<title>Node18</title>
<g id="a_Node000018"><a xlink:title=" ">
<polygon fill="#e0e0e0" stroke="#999999" points="314.12,-240.25 265.88,-240.25 265.88,-221 314.12,-221 314.12,-240.25"/>
<text xml:space="preserve" text-anchor="middle" x="290" y="-226.75" font-family="Helvetica,sans-Serif" font-size="10.00">string.h</text>
</a>
</g>
</g>
<!-- Node1&#45;&gt;Node18 -->
<g id="edge46_Node000001_Node000018" class="edge">
<title>Node1&#45;&gt;Node18</title>
<g id="a_edge46_Node000001_Node000018"><a xlink:title=" ">
<path fill="none" stroke="#63b8ff" d="M251.2,-386.57C257.57,-361.14 276.11,-287.1 285.06,-251.37"/>
<polygon fill="#63b8ff" stroke="#63b8ff" points="288.38,-252.49 287.42,-241.94 281.59,-250.79 288.38,-252.49"/>
</a>
</g>
</g>
<!-- Node20 -->
<g id="Node000020" class="node">
<title>Node20</title>
<g id="a_Node000020"><a xlink:href="dtcm_8h.html" target="_top" xlink:title=" ">
<polygon fill="white" stroke="#666666" points="474.75,-74.5 403.25,-74.5 403.25,-55.25 474.75,-55.25 474.75,-74.5"/>
<text xml:space="preserve" text-anchor="middle" x="439" y="-61" font-family="Helvetica,sans-Serif" font-size="10.00">../src/dtcm.h</text>
</a>
</g>
</g>
<!-- Node1&#45;&gt;Node20 -->
<g id="edge33_Node000001_Node000020" class="edge">
<title>Node1&#45;&gt;Node20</title>
<g id="a_edge33_Node000001_Node000020"><a xlink:title=" ">
<path fill="none" stroke="#63b8ff" d="M185.41,-389.36C123.28,-379.57 38,-353.91 38,-286.88 38,-286.88 38,-286.88 38,-174.38 38,-101.82 285.71,-76.29 391.75,-68.69"/>
<polygon fill="#63b8ff" stroke="#63b8ff" points="391.82,-72.19 401.55,-68.01 391.33,-65.21 391.82,-72.19"/>
</a>
</g>
</g>
<!-- Node21 -->
<g id="Node000021" class="node">
<title>Node21</title>
<g id="a_Node000021"><a xlink:href="game__scene_8h.html" target="_top" xlink:title=" ">
<polygon fill="white" stroke="#666666" points="802.62,-350.75 697.38,-350.75 697.38,-331.5 802.62,-331.5 802.62,-350.75"/>
<text xml:space="preserve" text-anchor="middle" x="750" y="-337.25" font-family="Helvetica,sans-Serif" font-size="10.00">../src/game_scene.h</text>
</a>
</g>
</g>
<!-- Node1&#45;&gt;Node21 -->
<g id="edge36_Node000001_Node000021" class="edge">
<title>Node1&#45;&gt;Node21</title>
<g id="a_edge36_Node000001_Node000021"><a xlink:title=" ">
<path fill="none" stroke="#63b8ff" d="M312.42,-389.14C396.34,-380.82 548.85,-365.41 679,-350.75 681.17,-350.51 683.39,-350.25 685.62,-350"/>
<polygon fill="#63b8ff" stroke="#63b8ff" points="685.87,-353.49 695.39,-348.85 685.05,-346.54 685.87,-353.49"/>
</a>
</g>
</g>
<!-- Node2&#45;&gt;Node3 -->
<g id="edge2_Node000002_Node000003" class="edge">
<title>Node2&#45;&gt;Node3</title>
<g id="a_edge2_Node000002_Node000003"><a xlink:title=" ">
<path fill="none" stroke="#63b8ff" d="M158.13,-220.59C173.66,-212.41 196.8,-200.21 214.84,-190.69"/>
<polygon fill="#63b8ff" stroke="#63b8ff" points="216.23,-193.92 223.44,-186.16 212.97,-187.73 216.23,-193.92"/>
</a>
</g>
</g>
<!-- Node4&#45;&gt;Node2 -->
<g id="edge4_Node000004_Node000002" class="edge">
<title>Node4&#45;&gt;Node2</title>
<g id="a_edge4_Node000004_Node000002"><a xlink:title=" ">
<path fill="none" stroke="#63b8ff" d="M372.36,-275.78C321.28,-266.03 240.63,-250.64 189.3,-240.84"/>
<polygon fill="#63b8ff" stroke="#63b8ff" points="190.15,-237.44 179.67,-239.01 188.84,-244.32 190.15,-237.44"/>
</a>
</g>
</g>
<!-- Node4&#45;&gt;Node3 -->
<g id="edge28_Node000004_Node000003" class="edge">
<title>Node4&#45;&gt;Node3</title>
<g id="a_edge28_Node000004_Node000003"><a xlink:title=" ">
<path fill="none" stroke="#63b8ff" d="M407.03,-275.86C388.62,-263.18 353.73,-239.54 323,-221 305.3,-210.32 284.9,-199.09 269.01,-190.57"/>
<polygon fill="#63b8ff" stroke="#63b8ff" points="271.1,-187.71 260.62,-186.1 267.81,-193.89 271.1,-187.71"/>
</a>
</g>
</g>
<!-- Node4&#45;&gt;Node5 -->
<g id="edge5_Node000004_Node000005" class="edge">
<title>Node4&#45;&gt;Node5</title>
<g id="a_edge5_Node000004_Node000005"><a xlink:title=" ">
<path fill="none" stroke="#63b8ff" d="M483.34,-276.64C542.43,-268.73 633.29,-255.93 721.69,-240.57"/>
<polygon fill="#63b8ff" stroke="#63b8ff" points="722.28,-244.02 731.53,-238.84 721.07,-237.12 722.28,-244.02"/>
</a>
</g>
</g>
<!-- Node8 -->
<g id="Node000008" class="node">
<title>Node8</title>
<g id="a_Node000008"><a xlink:href="utility_8h.html" target="_top" xlink:title=" ">
<polygon fill="white" stroke="#666666" points="613,-129.75 567,-129.75 567,-110.5 613,-110.5 613,-129.75"/>
<text xml:space="preserve" text-anchor="middle" x="590" y="-116.25" font-family="Helvetica,sans-Serif" font-size="10.00">utility.h</text>
</a>
</g>
</g>
<!-- Node4&#45;&gt;Node8 -->
<g id="edge25_Node000004_Node000008" class="edge">
<title>Node4&#45;&gt;Node8</title>
<g id="a_edge25_Node000004_Node000008"><a xlink:title=" ">
<path fill="none" stroke="#63b8ff" d="M425.13,-276.07C437.86,-254.81 472.86,-199.92 514,-165.75 528.21,-153.95 545.91,-143.35 560.66,-135.45"/>
<polygon fill="#63b8ff" stroke="#63b8ff" points="562.18,-138.61 569.44,-130.9 558.95,-132.4 562.18,-138.61"/>
</a>
</g>
</g>
<!-- Node4&#45;&gt;Node13 -->
<g id="edge21_Node000004_Node000013" class="edge">
<title>Node4&#45;&gt;Node13</title>
<g id="a_edge21_Node000004_Node000013"><a xlink:title=" ">
<path fill="none" stroke="#63b8ff" d="M461.84,-275.78C503.42,-266.74 567.31,-252.86 612.32,-243.07"/>
<polygon fill="#63b8ff" stroke="#63b8ff" points="612.83,-246.55 621.85,-241 611.34,-239.71 612.83,-246.55"/>
</a>
</g>
</g>
<!-- Node15 -->
<g id="Node000015" class="node">
<title>Node15</title>
<g id="a_Node000015"><a xlink:title=" ">
<polygon fill="#e0e0e0" stroke="#999999" points="596.12,-240.25 535.88,-240.25 535.88,-221 596.12,-221 596.12,-240.25"/>
<text xml:space="preserve" text-anchor="middle" x="566" y="-226.75" font-family="Helvetica,sans-Serif" font-size="10.00">version.all</text>
</a>
</g>
</g>
<!-- Node4&#45;&gt;Node15 -->
<g id="edge26_Node000004_Node000015" class="edge">
<title>Node4&#45;&gt;Node15</title>
<g id="a_edge26_Node000004_Node000015"><a xlink:title=" ">
<path fill="none" stroke="#63b8ff" d="M444.77,-275.84C468.26,-267.27 503.81,-254.31 530.35,-244.63"/>
<polygon fill="#63b8ff" stroke="#63b8ff" points="531.49,-247.94 539.69,-241.22 529.1,-241.36 531.49,-247.94"/>
</a>
</g>
</g>
<!-- Node4&#45;&gt;Node16 -->
<g id="edge27_Node000004_Node000016" class="edge">
<title>Node4&#45;&gt;Node16</title>
<g id="a_edge27_Node000004_Node000016"><a xlink:title=" ">
<path fill="none" stroke="#63b8ff" d="M386.41,-275.84C350.92,-266.3 295.11,-251.29 258.54,-241.45"/>
<polygon fill="#63b8ff" stroke="#63b8ff" points="259.88,-238.19 249.31,-238.97 258.06,-244.95 259.88,-238.19"/>
</a>
</g>
</g>
<!-- Node17 -->
<g id="Node000017" class="node">
<title>Node17</title>
<g id="a_Node000017"><a xlink:title=" ">
<polygon fill="#e0e0e0" stroke="#999999" points="417.75,-240.25 370.25,-240.25 370.25,-221 417.75,-221 417.75,-240.25"/>
<text xml:space="preserve" text-anchor="middle" x="394" y="-226.75" font-family="Helvetica,sans-Serif" font-size="10.00">stdlib.h</text>
</a>
</g>
</g>
<!-- Node4&#45;&gt;Node17 -->
<g id="edge29_Node000004_Node000017" class="edge">
<title>Node4&#45;&gt;Node17</title>
<g id="a_edge29_Node000004_Node000017"><a xlink:title=" ">
<path fill="none" stroke="#63b8ff" d="M415.71,-276.08C412.38,-269.26 407.64,-259.56 403.44,-250.95"/>
<polygon fill="#63b8ff" stroke="#63b8ff" points="406.58,-249.42 399.05,-241.97 400.29,-252.49 406.58,-249.42"/>
</a>
</g>
</g>
<!-- Node4&#45;&gt;Node18 -->
<g id="edge30_Node000004_Node000018" class="edge">
<title>Node4&#45;&gt;Node18</title>
<g id="a_edge30_Node000004_Node000018"><a xlink:title=" ">
<path fill="none" stroke="#63b8ff" d="M397.95,-275.84C377.31,-267.39 346.22,-254.65 322.7,-245.02"/>
<polygon fill="#63b8ff" stroke="#63b8ff" points="324.14,-241.83 313.56,-241.28 321.49,-248.31 324.14,-241.83"/>
</a>
</g>
</g>
<!-- Node19 -->
<g id="Node000019" class="node">
<title>Node19</title>
<g id="a_Node000019"><a xlink:title=" ">
<polygon fill="#e0e0e0" stroke="#999999" points="517.5,-240.25 474.5,-240.25 474.5,-221 517.5,-221 517.5,-240.25"/>
<text xml:space="preserve" text-anchor="middle" x="496" y="-226.75" font-family="Helvetica,sans-Serif" font-size="10.00">time.h</text>
</a>
</g>
</g>
<!-- Node4&#45;&gt;Node19 -->
<g id="edge31_Node000004_Node000019" class="edge">
<title>Node4&#45;&gt;Node19</title>
<g id="a_edge31_Node000004_Node000019"><a xlink:title=" ">
<path fill="none" stroke="#63b8ff" d="M432.89,-275.84C444.03,-268.04 460.37,-256.59 473.64,-247.29"/>
<polygon fill="#63b8ff" stroke="#63b8ff" points="475.62,-250.18 481.8,-241.57 471.61,-244.44 475.62,-250.18"/>
</a>
</g>
</g>
<!-- Node5&#45;&gt;Node3 -->
<g id="edge19_Node000005_Node000003" class="edge">
<title>Node5&#45;&gt;Node3</title>
<g id="a_edge19_Node000005_Node000003"><a xlink:title=" ">
<path fill="none" stroke="#63b8ff" d="M733.05,-222.5C730,-221.95 726.95,-221.44 724,-221 558.16,-196.37 358.06,-183.03 277.83,-178.34"/>
<polygon fill="#63b8ff" stroke="#63b8ff" points="278.13,-174.85 267.95,-177.77 277.73,-181.84 278.13,-174.85"/>
</a>
</g>
</g>
<!-- Node6 -->
<g id="Node000006" class="node">
<title>Node6</title>
<g id="a_Node000006"><a xlink:title=" ">
<polygon fill="#e0e0e0" stroke="#999999" points="729.38,-74.5 676.62,-74.5 676.62,-55.25 729.38,-55.25 729.38,-74.5"/>
<text xml:space="preserve" text-anchor="middle" x="703" y="-61" font-family="Helvetica,sans-Serif" font-size="10.00">pd_api.h</text>
</a>
</g>
</g>
<!-- Node5&#45;&gt;Node6 -->
<g id="edge6_Node000005_Node000006" class="edge">
<title>Node5&#45;&gt;Node6</title>
<g id="a_edge6_Node000005_Node000006"><a xlink:title=" ">
<path fill="none" stroke="#63b8ff" d="M756.59,-220.59C748.35,-212.14 736.68,-198.8 730,-185 714.26,-152.48 707.51,-110.48 704.76,-86.02"/>
<polygon fill="#63b8ff" stroke="#63b8ff" points="708.25,-85.81 703.78,-76.2 701.29,-86.5 708.25,-85.81"/>
</a>
</g>
</g>
<!-- Node7 -->
<g id="Node000007" class="node">
<title>Node7</title>
<g id="a_Node000007"><a xlink:href="scene_8h.html" target="_top" xlink:title=" ">
<polygon fill="white" stroke="#666666" points="789.25,-185 738.75,-185 738.75,-165.75 789.25,-165.75 789.25,-185"/>
<text xml:space="preserve" text-anchor="middle" x="764" y="-171.5" font-family="Helvetica,sans-Serif" font-size="10.00">scene.h</text>
</a>
</g>
</g>
<!-- Node5&#45;&gt;Node7 -->
<g id="edge7_Node000005_Node000007" class="edge">
<title>Node5&#45;&gt;Node7</title>
<g id="a_edge7_Node000005_Node000007"><a xlink:title=" ">
<path fill="none" stroke="#63b8ff" d="M765.67,-220.83C765.42,-214.24 765.07,-204.96 764.76,-196.57"/>
<polygon fill="#63b8ff" stroke="#63b8ff" points="768.27,-196.73 764.39,-186.87 761.27,-197 768.27,-196.73"/>
</a>
</g>
</g>
<!-- Node5&#45;&gt;Node8 -->
<g id="edge17_Node000005_Node000008" class="edge">
<title>Node5&#45;&gt;Node8</title>
<g id="a_edge17_Node000005_Node000008"><a xlink:title=" ">
<path fill="none" stroke="#63b8ff" d="M751.3,-220.56C720.94,-201.85 651.08,-158.78 614.05,-135.95"/>
<polygon fill="#63b8ff" stroke="#63b8ff" points="616.17,-133.15 605.83,-130.88 612.5,-139.11 616.17,-133.15"/>
</a>
</g>
</g>
<!-- Node11 -->
<g id="Node000011" class="node">
<title>Node11</title>
<g id="a_Node000011"><a xlink:title=" ">
<polygon fill="#e0e0e0" stroke="#999999" points="663.62,-19.25 618.38,-19.25 618.38,0 663.62,0 663.62,-19.25"/>
<text xml:space="preserve" text-anchor="middle" x="641" y="-5.75" font-family="Helvetica,sans-Serif" font-size="10.00">stdio.h</text>
</a>
</g>
</g>
<!-- Node5&#45;&gt;Node11 -->
<g id="edge20_Node000005_Node000011" class="edge">
<title>Node5&#45;&gt;Node11</title>
<g id="a_edge20_Node000005_Node000011"><a xlink:title=" ">
<path fill="none" stroke="#63b8ff" d="M775.05,-220.67C782.84,-212.29 793.51,-198.98 798,-185 812.98,-138.42 793.18,-91.03 758,-55.25 735.8,-32.66 700.97,-21.33 675.08,-15.76"/>
<polygon fill="#63b8ff" stroke="#63b8ff" points="675.86,-12.35 665.38,-13.88 674.53,-19.22 675.86,-12.35"/>
</a>
</g>
</g>
<!-- Node12 -->
<g id="Node000012" class="node">
<title>Node12</title>
<g id="a_Node000012"><a xlink:title=" ">
<polygon fill="#e0e0e0" stroke="#999999" points="891,-185 845,-185 845,-165.75 891,-165.75 891,-185"/>
<text xml:space="preserve" text-anchor="middle" x="868" y="-171.5" font-family="Helvetica,sans-Serif" font-size="10.00">math.h</text>
</a>
</g>
</g>
<!-- Node5&#45;&gt;Node12 -->
<g id="edge18_Node000005_Node000012" class="edge">
<title>Node5&#45;&gt;Node12</title>
<g id="a_edge18_Node000005_Node000012"><a xlink:title=" ">
<path fill="none" stroke="#63b8ff" d="M783.3,-220.59C798.98,-212.41 822.35,-200.21 840.58,-190.69"/>
<polygon fill="#63b8ff" stroke="#63b8ff" points="842.03,-193.88 849.27,-186.15 838.79,-187.68 842.03,-193.88"/>
</a>
</g>
</g>
<!-- Node7&#45;&gt;Node6 -->
<g id="edge8_Node000007_Node000006" class="edge">
<title>Node7&#45;&gt;Node6</title>
<g id="a_edge8_Node000007_Node000006"><a xlink:title=" ">
<path fill="none" stroke="#63b8ff" d="M759.01,-165.5C749.13,-147.93 726.91,-108.41 713.62,-84.77"/>
<polygon fill="#63b8ff" stroke="#63b8ff" points="716.75,-83.2 708.8,-76.2 710.65,-86.63 716.75,-83.2"/>
</a>
</g>
</g>
<!-- Node7&#45;&gt;Node8 -->
<g id="edge9_Node000007_Node000008" class="edge">
<title>Node7&#45;&gt;Node8</title>
<g id="a_edge9_Node000007_Node000008"><a xlink:title=" ">
<path fill="none" stroke="#63b8ff" d="M738.33,-166.52C708,-157.24 657.46,-141.77 623.94,-131.51"/>
<polygon fill="#63b8ff" stroke="#63b8ff" points="625.31,-128.27 614.72,-128.69 623.26,-134.96 625.31,-128.27"/>
</a>
</g>
</g>
<!-- Node7&#45;&gt;Node11 -->
<g id="edge16_Node000007_Node000011" class="edge">
<title>Node7&#45;&gt;Node11</title>
<g id="a_edge16_Node000007_Node000011"><a xlink:title=" ">
<path fill="none" stroke="#63b8ff" d="M764.58,-165.48C765.5,-144.02 764.93,-88.74 738,-55.25 722.25,-35.66 695.96,-24.3 674.72,-17.95"/>
<polygon fill="#63b8ff" stroke="#63b8ff" points="675.88,-14.64 665.31,-15.39 674.04,-21.39 675.88,-14.64"/>
</a>
</g>
</g>
<!-- Node8&#45;&gt;Node6 -->
<g id="edge13_Node000008_Node000006" class="edge">
<title>Node8&#45;&gt;Node6</title>
<g id="a_edge13_Node000008_Node000006"><a xlink:title=" ">
<path fill="none" stroke="#63b8ff" d="M609.17,-110.09C626.78,-101.79 653.16,-89.36 673.46,-79.79"/>
<polygon fill="#63b8ff" stroke="#63b8ff" points="674.81,-83.03 682.37,-75.6 671.83,-76.69 674.81,-83.03"/>
</a>
</g>
</g>
<!-- Node9 -->
<g id="Node000009" class="node">
<title>Node9</title>
<g id="a_Node000009"><a xlink:href="array_8h.html" target="_top" xlink:title=" ">
<polygon fill="white" stroke="#666666" points="575.25,-74.5 530.75,-74.5 530.75,-55.25 575.25,-55.25 575.25,-74.5"/>
<text xml:space="preserve" text-anchor="middle" x="553" y="-61" font-family="Helvetica,sans-Serif" font-size="10.00">array.h</text>
</a>
</g>
</g>
<!-- Node8&#45;&gt;Node9 -->
<g id="edge10_Node000008_Node000009" class="edge">
<title>Node8&#45;&gt;Node9</title>
<g id="a_edge10_Node000008_Node000009"><a xlink:title=" ">
<path fill="none" stroke="#63b8ff" d="M583.89,-110.33C578.94,-103.21 571.8,-92.93 565.63,-84.05"/>
<polygon fill="#63b8ff" stroke="#63b8ff" points="568.69,-82.32 560.11,-76.1 562.94,-86.31 568.69,-82.32"/>
</a>
</g>
</g>
<!-- Node8&#45;&gt;Node10 -->
<g id="edge14_Node000008_Node000010" class="edge">
<title>Node8&#45;&gt;Node10</title>
<g id="a_edge14_Node000008_Node000010"><a xlink:title=" ">
<path fill="none" stroke="#63b8ff" d="M573.02,-110.01C558.59,-101.81 537.76,-88.86 522,-74.5 506.95,-60.79 492.76,-42.39 483.18,-28.86"/>
<polygon fill="#63b8ff" stroke="#63b8ff" points="486.23,-27.12 477.68,-20.87 480.47,-31.09 486.23,-27.12"/>
</a>
</g>
</g>
<!-- Node8&#45;&gt;Node11 -->
<g id="edge15_Node000008_Node000011" class="edge">
<title>Node8&#45;&gt;Node11</title>
<g id="a_edge15_Node000008_Node000011"><a xlink:title=" ">
<path fill="none" stroke="#63b8ff" d="M594.17,-110.25C602.39,-92.76 620.84,-53.52 631.97,-29.84"/>
<polygon fill="#63b8ff" stroke="#63b8ff" points="635.04,-31.54 636.12,-21 628.7,-28.56 635.04,-31.54"/>
</a>
</g>
</g>
<!-- Node9&#45;&gt;Node10 -->
<g id="edge11_Node000009_Node000010" class="edge">
<title>Node9&#45;&gt;Node10</title>
<g id="a_edge11_Node000009_Node000010"><a xlink:title=" ">
<path fill="none" stroke="#63b8ff" d="M539.09,-54.84C526.84,-46.89 508.75,-35.14 494.29,-25.75"/>
<polygon fill="#63b8ff" stroke="#63b8ff" points="496.54,-23.04 486.25,-20.53 492.73,-28.91 496.54,-23.04"/>
</a>
</g>
</g>
<!-- Node9&#45;&gt;Node11 -->
<g id="edge12_Node000009_Node000011" class="edge">
<title>Node9&#45;&gt;Node11</title>
<g id="a_edge12_Node000009_Node000011"><a xlink:title=" ">
<path fill="none" stroke="#63b8ff" d="M567.93,-54.84C581.2,-46.81 600.87,-34.91 616.45,-25.48"/>
<polygon fill="#63b8ff" stroke="#63b8ff" points="617.96,-28.66 624.7,-20.49 614.34,-22.67 617.96,-28.66"/>
</a>
</g>
</g>
<!-- Node13&#45;&gt;Node8 -->
<g id="edge22_Node000013_Node000008" class="edge">
<title>Node13&#45;&gt;Node8</title>
<g id="a_edge22_Node000013_Node000008"><a xlink:title=" ">
<path fill="none" stroke="#63b8ff" d="M654.22,-220.53C644.63,-212.05 630.67,-198.68 621,-185 611.2,-171.13 602.97,-153.68 597.45,-140.53"/>
<polygon fill="#63b8ff" stroke="#63b8ff" points="600.72,-139.27 593.75,-131.28 594.22,-141.87 600.72,-139.27"/>
</a>
</g>
</g>
<!-- Node13&#45;&gt;Node11 -->
<g id="edge23_Node000013_Node000011" class="edge">
<title>Node13&#45;&gt;Node11</title>
<g id="a_edge23_Node000013_Node000011"><a xlink:title=" ">
<path fill="none" stroke="#63b8ff" d="M664.03,-220.77C660.49,-188.51 648.25,-76.76 643.2,-30.71"/>
<polygon fill="#63b8ff" stroke="#63b8ff" points="646.69,-30.42 642.12,-20.86 639.73,-31.18 646.69,-30.42"/>
</a>
</g>
</g>
<!-- Node14 -->
<g id="Node000014" class="node">
<title>Node14</title>
<g id="a_Node000014"><a xlink:href="prefs_8x.html" target="_top" xlink:title=" ">
<polygon fill="white" stroke="#666666" points="569,-185 523,-185 523,-165.75 569,-165.75 569,-185"/>
<text xml:space="preserve" text-anchor="middle" x="546" y="-171.5" font-family="Helvetica,sans-Serif" font-size="10.00">prefs.x</text>
</a>
</g>
</g>
<!-- Node13&#45;&gt;Node14 -->
<g id="edge24_Node000013_Node000014" class="edge">
<title>Node13&#45;&gt;Node14</title>
<g id="a_edge24_Node000013_Node000014"><a xlink:title=" ">
<path fill="none" stroke="#63b8ff" d="M644.81,-220.59C626.09,-212.22 597.98,-199.63 576.52,-190.03"/>
<polygon fill="#63b8ff" stroke="#63b8ff" points="578.22,-186.96 567.67,-186.07 575.37,-193.35 578.22,-186.96"/>
</a>
</g>
</g>
<!-- Node20&#45;&gt;Node10 -->
<g id="edge34_Node000020_Node000010" class="edge">
<title>Node20&#45;&gt;Node10</title>
<g id="a_edge34_Node000020_Node000010"><a xlink:title=" ">
<path fill="none" stroke="#63b8ff" d="M444.28,-55.08C448.47,-48.11 454.48,-38.12 459.73,-29.37"/>
<polygon fill="#63b8ff" stroke="#63b8ff" points="462.67,-31.28 464.82,-20.91 456.67,-27.68 462.67,-31.28"/>
</a>
</g>
</g>
<!-- Node20&#45;&gt;Node11 -->
<g id="edge35_Node000020_Node000011" class="edge">
<title>Node20&#45;&gt;Node11</title>
<g id="a_edge35_Node000020_Node000011"><a xlink:title=" ">
<path fill="none" stroke="#63b8ff" d="M473.27,-54.84C510.6,-45 569.96,-29.35 607.13,-19.55"/>
<polygon fill="#63b8ff" stroke="#63b8ff" points="607.67,-23.03 616.45,-17.1 605.89,-16.26 607.67,-23.03"/>
</a>
</g>
</g>
<!-- Node21&#45;&gt;Node4 -->
<g id="edge37_Node000021_Node000004" class="edge">
<title>Node21&#45;&gt;Node4</title>
<g id="a_edge37_Node000021_Node000004"><a xlink:title=" ">
<path fill="none" stroke="#63b8ff" d="M696.98,-331.57C640.12,-322.39 549.67,-307.8 487.71,-297.8"/>
<polygon fill="#63b8ff" stroke="#63b8ff" points="488.41,-294.37 477.98,-296.23 487.29,-301.28 488.41,-294.37"/>
</a>
</g>
</g>
<!-- Node21&#45;&gt;Node7 -->
<g id="edge39_Node000021_Node000007" class="edge">
<title>Node21&#45;&gt;Node7</title>
<g id="a_edge39_Node000021_Node000007"><a xlink:title=" ">
<path fill="none" stroke="#63b8ff" d="M757.39,-331.23C770.66,-314.63 798.04,-277.23 808,-240.25 810.22,-231.99 811.25,-228.92 808,-221 803.4,-209.79 794.48,-199.89 785.87,-192.28"/>
<polygon fill="#63b8ff" stroke="#63b8ff" points="788.34,-189.78 778.37,-186.18 783.92,-195.21 788.34,-189.78"/>
</a>
</g>
</g>
<!-- Node21&#45;&gt;Node11 -->
<g id="edge41_Node000021_Node000011" class="edge">
<title>Node21&#45;&gt;Node11</title>
<g id="a_edge41_Node000021_Node000011"><a xlink:title=" ">
<path fill="none" stroke="#63b8ff" d="M797.08,-331.01C847.08,-318.28 919,-289.85 919,-231.62 919,-231.62 919,-231.62 919,-119.12 919,-67.24 748.84,-30.13 674.77,-16.43"/>
<polygon fill="#63b8ff" stroke="#63b8ff" points="675.7,-13.04 665.24,-14.71 674.46,-19.93 675.7,-13.04"/>
</a>
</g>
</g>
<!-- Node21&#45;&gt;Node12 -->
<g id="edge40_Node000021_Node000012" class="edge">
<title>Node21&#45;&gt;Node12</title>
<g id="a_edge40_Node000021_Node000012"><a xlink:title=" ">
<path fill="none" stroke="#63b8ff" d="M762.68,-331.28C773.96,-322.97 790.43,-309.7 802,-295.5 827.8,-263.84 848.83,-220.67 859.78,-195.94"/>
<polygon fill="#63b8ff" stroke="#63b8ff" points="862.98,-197.36 863.73,-186.8 856.55,-194.59 862.98,-197.36"/>
</a>
</g>
</g>
<!-- Node21&#45;&gt;Node13 -->
<g id="edge38_Node000021_Node000013" class="edge">
<title>Node21&#45;&gt;Node13</title>
<g id="a_edge38_Node000021_Node000013"><a xlink:title=" ">
<path fill="none" stroke="#63b8ff" d="M743.04,-331.25C729.1,-313.44 697.48,-273.08 679.05,-249.56"/>
<polygon fill="#63b8ff" stroke="#63b8ff" points="681.91,-247.53 672.99,-241.82 676.4,-251.85 681.91,-247.53"/>
</a>
</g>
</g>
</g>
</svg>

<g id="navigator" transform="translate(0 0)" fill="#404254">
  <rect fill="#f2f5e9" fill-opacity="0.5" stroke="#606060" stroke-width=".5" x="0" y="0" width="60" height="60"/>
  <use id="zoomplus" xlink:href="#zoomPlus" x="17" y="9" onmousedown="handleZoom(evt,'in')"/>
  <use id="zoomminus" xlink:href="#zoomMin" x="42" y="9" onmousedown="handleZoom(evt,'out')"/>
  <use id="reset" xlink:href="#resetDef" x="30" y="36" onmousedown="handleReset()"/>
   <use id="arrowup" xlink:href="#arrowUp" x="0" y="0" onmousedown="handlePan(0,-1)"/>
  <use id="arrowright" xlink:href="#arrowRight" x="0" y="0" onmousedown="handlePan(1,0)"/>
  <use id="arrowdown" xlink:href="#arrowDown" x="0" y="0" onmousedown="handlePan(0,1)"/>
  <use id="arrowleft" xlink:href="#arrowLeft" x="0" y="0" onmousedown="handlePan(-1,0)"/>
</g>
<svg viewBox="0 0 15 15" width="100%" height="30px" preserveAspectRatio="xMaxYMin meet">
 <g id="arrow_out" transform="scale(0.3 0.3)">
  <a xlink:href="minigb__apu_8c__incl_org.svg" target="_base">
   <rect id="button" ry="5" rx="5" y="6" x="6" height="38" width="38"
        fill="#f2f5e9" fill-opacity="0.5" stroke="#606060" stroke-width="1.0"/>
   <path id="arrow"
     d="M 11.500037,31.436501 C 11.940474,20.09759 22.043105,11.32322 32.158766,21.979434 L 37.068811,17.246167 C 37.068811,17.246167 37.088388,32 37.088388,32 L 22.160133,31.978069 C 22.160133,31.978069 26.997745,27.140456 26.997745,27.140456 C 18.528582,18.264221 13.291696,25.230495 11.500037,31.436501 z"
     style="fill:#404040;"/>
  </a>
 </g>
</svg>

<style type='text/css'>
<![CDATA[
[data-mouse-over-selected='false'] { opacity: 0.7; }
[data-mouse-over-selected='true']  { opacity: 1.0; }
]]>
</style>
<script type="application/ecmascript"><![CDATA[
document.addEventListener('DOMContentLoaded', (event) => {
  highlightEdges();
  highlightAdjacentNodes();
});
]]></script>
</svg>
