<?xml version="1.0" encoding="UTF-8" standalone="no"?>
<!DOCTYPE svg PUBLIC "-//W3C//DTD SVG 1.1//EN"
 "http://www.w3.org/Graphics/SVG/1.1/DTD/svg11.dtd">
<!-- Generated by graphviz version 13.1.0 (20250701.0955)
 -->
<!-- Title: audio_init Pages: 1 -->
<!--zoomable 95 -->

<svg id="main" version="1.1" xmlns="http://www.w3.org/2000/svg" xmlns:xlink="http://www.w3.org/1999/xlink" xml:space="preserve" onload="init(evt)">

<style type="text/css"><![CDATA[
.node, .edge {opacity: 0.7;}
.node.selected, .edge.selected {opacity: 1;}
.edge:hover path { stroke: red; }
.edge:hover polygon { stroke: red; fill: red; }
]]></style>

<defs>
  <circle id="rim" cx="0" cy="0" r="7"/>
  <circle id="rim2" cx="0" cy="0" r="3.5"/>
  <g id="zoomPlus">
    <use xlink:href="#rim" fill="#404040"><set attributeName="fill" to="#808080" begin="zoomplus.mouseover" end="zoomplus.mouseout"/></use>
    <path d="M-4,0h8M0,-4v8" fill="none" stroke="white" stroke-width="1.5" pointer-events="none"/>
  </g>
  <g id="zoomMin">
    <use xlink:href="#rim" fill="#404040"><set attributeName="fill" to="#808080" begin="zoomminus.mouseover" end="zoomminus.mouseout"/></use>
    <path d="M-4,0h8" fill="none" stroke="white" stroke-width="1.5" pointer-events="none"/>
  </g>
  <g id="arrowUp" transform="translate(30 24)">
    <use xlink:href="#rim"/>
    <path pointer-events="none" fill="none" stroke="white" stroke-width="1.5" d="M0,-3.0v7 M-2.5,-0.5L0,-3.0L2.5,-0.5"/>
  </g>
  <g id="arrowRight" transform="rotate(90) translate(36 -43)">
    <use xlink:href="#rim"/>
    <path pointer-events="none" fill="none" stroke="white" stroke-width="1.5" d="M0,-3.0v7 M-2.5,-0.5L0,-3.0L2.5,-0.5"/>
  </g>
  <g id="arrowDown" transform="rotate(180) translate(-30 -48)">
    <use xlink:href="#rim"/>
    <path pointer-events="none" fill="none" stroke="white" stroke-width="1.5" d="M0,-3.0v7 M-2.5,-0.5L0,-3.0L2.5,-0.5"/>
  </g>
  <g id="arrowLeft" transform="rotate(270) translate(-36 17)">
    <use xlink:href="#rim"/>
    <path pointer-events="none" fill="none" stroke="white" stroke-width="1.5" d="M0,-3.0v7 M-2.5,-0.5L0,-3.0L2.5,-0.5"/>
  </g>
  <g id="resetDef">
    <use xlink:href="#rim2" fill="#404040"><set attributeName="fill" to="#808080" begin="reset.mouseover" end="reset.mouseout"/></use>
  </g>
</defs>
<script type="application/ecmascript">
var viewWidth = 1675;
var viewHeight = 95;
var sectionId = 'dynsection-2';
</script>
<script type="application/ecmascript" xlink:href="svg.min.js"/>
<svg id="graph" class="graph">
<g id="viewport">
<title>audio_init</title>
<!-- Node1 -->
<g id="Node000001" class="node">
<title>Node1</title>
<g id="a_Node000001"><a xlink:title=" ">
<polygon fill="#999999" stroke="#666666" points="1667,-45.88 1609.75,-45.88 1609.75,-26.62 1667,-26.62 1667,-45.88"/>
<text xml:space="preserve" text-anchor="middle" x="1638.38" y="-32.38" font-family="Helvetica,sans-Serif" font-size="10.00">audio_init</text>
</a>
</g>
</g>
<!-- Node2 -->
<g id="Node000002" class="node">
<title>Node2</title>
<g id="a_Node000002"><a xlink:href="game__scene_8c.html#a81e27cfbebe9e585798c0a8f0693ebc1" target="_top" xlink:title=" ">
<polygon fill="white" stroke="#666666" points="1573.75,-30.5 1449,-30.5 1449,0 1573.75,0 1573.75,-30.5"/>
<text xml:space="preserve" text-anchor="start" x="1457" y="-17" font-family="Helvetica,sans-Serif" font-size="10.00">PGB_GameScene_apply</text>
<text xml:space="preserve" text-anchor="middle" x="1511.38" y="-5.75" font-family="Helvetica,sans-Serif" font-size="10.00">_settings</text>
</a>
</g>
</g>
<!-- Node1&#45;&gt;Node2 -->
<g id="edge1_Node000001_Node000002" class="edge">
<title>Node1&#45;&gt;Node2</title>
<g id="a_edge1_Node000001_Node000002"><a xlink:title=" ">
<path fill="none" stroke="#63b8ff" d="M1598.16,-29.66C1590.49,-28.37 1582.26,-26.99 1574.06,-25.61"/>
<polygon fill="#63b8ff" stroke="#63b8ff" points="1597.39,-33.08 1607.83,-31.29 1598.55,-26.18 1597.39,-33.08"/>
</a>
</g>
</g>
<!-- Node3 -->
<g id="Node000003" class="node">
<title>Node3</title>
<g id="a_Node000003"><a xlink:href="game__scene_8c.html#ab923ed4c6ccad95026e85e252071716d" target="_top" xlink:title=" ">
<polygon fill="white" stroke="#666666" points="1408.88,-62.88 1289.38,-62.88 1289.38,-43.62 1408.88,-43.62 1408.88,-62.88"/>
<text xml:space="preserve" text-anchor="middle" x="1349.12" y="-49.38" font-family="Helvetica,sans-Serif" font-size="10.00">PGB_GameScene_new</text>
</a>
</g>
</g>
<!-- Node1&#45;&gt;Node3 -->
<g id="edge18_Node000001_Node000003" class="edge">
<title>Node1&#45;&gt;Node3</title>
<g id="a_edge18_Node000001_Node000003"><a xlink:title=" ">
<path fill="none" stroke="#63b8ff" d="M1597.98,-38.58C1549.18,-41.47 1465.57,-46.42 1409.11,-49.76"/>
<polygon fill="#63b8ff" stroke="#63b8ff" points="1598.02,-42.09 1607.8,-38 1597.61,-35.1 1598.02,-42.09"/>
</a>
</g>
</g>
<!-- Node2&#45;&gt;Node3 -->
<g id="edge2_Node000002_Node000003" class="edge">
<title>Node2&#45;&gt;Node3</title>
<g id="a_edge2_Node000002_Node000003"><a xlink:title=" ">
<path fill="none" stroke="#63b8ff" d="M1437.68,-32.49C1422.16,-36.17 1406.26,-39.94 1392.35,-43.24"/>
<polygon fill="#63b8ff" stroke="#63b8ff" points="1438.48,-35.9 1447.4,-30.18 1436.87,-29.08 1438.48,-35.9"/>
</a>
</g>
</g>
<!-- Node13 -->
<g id="Node000013" class="node">
<title>Node13</title>
<g id="a_Node000013"><a xlink:href="settings__scene_8c.html#a94443c0dbbd6670bccbe9f9de4d85c5e" target="_top" xlink:title=" ">
<polygon fill="white" stroke="#666666" points="1413,-24.88 1285.25,-24.88 1285.25,-5.63 1413,-5.63 1413,-24.88"/>
<text xml:space="preserve" text-anchor="middle" x="1349.12" y="-11.38" font-family="Helvetica,sans-Serif" font-size="10.00">PGB_SettingsScene_free</text>
</a>
</g>
</g>
<!-- Node2&#45;&gt;Node13 -->
<g id="edge13_Node000002_Node000013" class="edge">
<title>Node2&#45;&gt;Node13</title>
<g id="a_edge13_Node000002_Node000013"><a xlink:title=" ">
<path fill="none" stroke="#63b8ff" d="M1437.54,-15.25C1429.46,-15.25 1421.27,-15.25 1413.32,-15.25"/>
<polygon fill="#63b8ff" stroke="#63b8ff" points="1437.36,-18.75 1447.36,-15.25 1437.36,-11.75 1437.36,-18.75"/>
</a>
</g>
</g>
<!-- Node4 -->
<g id="Node000004" class="node">
<title>Node4</title>
<g id="a_Node000004"><a xlink:href="library__scene_8c.html#a0728002045c9cbbd68bdd34897b28da6" target="_top" xlink:title=" ">
<polygon fill="white" stroke="#666666" points="1069,-62.88 935.25,-62.88 935.25,-43.62 1069,-43.62 1069,-62.88"/>
<text xml:space="preserve" text-anchor="middle" x="1002.12" y="-49.38" font-family="Helvetica,sans-Serif" font-size="10.00">PGB_LibraryScene_update</text>
</a>
</g>
</g>
<!-- Node3&#45;&gt;Node4 -->
<g id="edge3_Node000003_Node000004" class="edge">
<title>Node3&#45;&gt;Node4</title>
<g id="a_edge3_Node000003_Node000004"><a xlink:title=" ">
<path fill="none" stroke="#63b8ff" d="M1277.77,-53.25C1216.8,-53.25 1129.22,-53.25 1069.46,-53.25"/>
<polygon fill="#63b8ff" stroke="#63b8ff" points="1277.7,-56.75 1287.7,-53.25 1277.7,-49.75 1277.7,-56.75"/>
</a>
</g>
</g>
<!-- Node5 -->
<g id="Node000005" class="node">
<title>Node5</title>
<g id="a_Node000005"><a xlink:href="library__scene_8c.html#aa5c386d39121b53fba45d899df654188" target="_top" xlink:title=" ">
<polygon fill="white" stroke="#666666" points="719.75,-43.88 597.25,-43.88 597.25,-24.62 719.75,-24.62 719.75,-43.88"/>
<text xml:space="preserve" text-anchor="middle" x="658.5" y="-30.38" font-family="Helvetica,sans-Serif" font-size="10.00">PGB_LibraryScene_new</text>
</a>
</g>
</g>
<!-- Node4&#45;&gt;Node5 -->
<g id="edge4_Node000004_Node000005" class="edge">
<title>Node4&#45;&gt;Node5</title>
<g id="a_edge4_Node000004_Node000005"><a xlink:title=" ">
<path fill="none" stroke="#63b8ff" d="M923.62,-48.94C861.96,-45.51 776.9,-40.78 720.15,-37.62"/>
<polygon fill="#63b8ff" stroke="#63b8ff" points="923.16,-52.42 933.34,-49.48 923.55,-45.43 923.16,-52.42"/>
</a>
</g>
</g>
<!-- Node6 -->
<g id="Node000006" class="node">
<title>Node6</title>
<g id="a_Node000006"><a xlink:href="app_8c.html#ab80501f53b757a79772b96ec99e3dc7e" target="_top" xlink:title=" ">
<polygon fill="white" stroke="#666666" points="534.25,-86.88 441.75,-86.88 441.75,-67.62 534.25,-67.62 534.25,-86.88"/>
<text xml:space="preserve" text-anchor="middle" x="488" y="-73.38" font-family="Helvetica,sans-Serif" font-size="10.00">PGB_goToLibrary</text>
</a>
</g>
</g>
<!-- Node5&#45;&gt;Node6 -->
<g id="edge5_Node000005_Node000006" class="edge">
<title>Node5&#45;&gt;Node6</title>
<g id="a_edge5_Node000005_Node000006"><a xlink:title=" ">
<path fill="none" stroke="#63b8ff" d="M606.84,-47.18C581.76,-53.58 551.92,-61.19 528.55,-67.16"/>
<polygon fill="#63b8ff" stroke="#63b8ff" points="607.7,-50.57 616.53,-44.71 605.97,-43.79 607.7,-50.57"/>
</a>
</g>
</g>
<!-- Node9 -->
<g id="Node000009" class="node">
<title>Node9</title>
<g id="a_Node000009"><a xlink:href="image__conversion__scene_8c.html#a60d0e43ab25a8639bbb6d1f4e758edd3" target="_top" xlink:title=" ">
<polygon fill="white" stroke="#666666" points="561.25,-49.5 414.75,-49.5 414.75,-19 561.25,-19 561.25,-49.5"/>
<text xml:space="preserve" text-anchor="start" x="422.75" y="-36" font-family="Helvetica,sans-Serif" font-size="10.00">PGB_ImageConversionScene</text>
<text xml:space="preserve" text-anchor="middle" x="488" y="-24.75" font-family="Helvetica,sans-Serif" font-size="10.00">_update</text>
</a>
</g>
</g>
<!-- Node5&#45;&gt;Node9 -->
<g id="edge8_Node000005_Node000009" class="edge">
<title>Node5&#45;&gt;Node9</title>
<g id="a_edge8_Node000005_Node000009"><a xlink:title=" ">
<path fill="none" stroke="#63b8ff" d="M585.9,-34.25C577.86,-34.25 569.65,-34.25 561.6,-34.25"/>
<polygon fill="#63b8ff" stroke="#63b8ff" points="585.63,-37.75 595.63,-34.25 585.63,-30.75 585.63,-37.75"/>
</a>
</g>
</g>
<!-- Node11 -->
<g id="Node000011" class="node">
<title>Node11</title>
<g id="a_Node000011"><a xlink:href="app_8c.html#af256ea7a9c51fcbd49cb0007facbb8ea" target="_top" xlink:title=" ">
<polygon fill="white" stroke="#666666" points="166.25,-21.88 111.25,-21.88 111.25,-2.63 166.25,-2.63 166.25,-21.88"/>
<text xml:space="preserve" text-anchor="middle" x="138.75" y="-8.38" font-family="Helvetica,sans-Serif" font-size="10.00">PGB_init</text>
</a>
</g>
</g>
<!-- Node5&#45;&gt;Node11 -->
<g id="edge12_Node000005_Node000011" class="edge">
<title>Node5&#45;&gt;Node11</title>
<g id="a_edge12_Node000005_Node000011"><a xlink:title=" ">
<path fill="none" stroke="#63b8ff" d="M614.41,-21.12C597.95,-16.74 578.89,-12.42 561.25,-10.25 413.08,7.94 233.4,-4.13 166.52,-9.78"/>
<polygon fill="#63b8ff" stroke="#63b8ff" points="613.32,-24.45 623.89,-23.74 615.18,-17.7 613.32,-24.45"/>
</a>
</g>
</g>
<!-- Node7 -->
<g id="Node000007" class="node">
<title>Node7</title>
<g id="a_Node000007"><a xlink:href="game__scene_8c.html#a6a4a6f0408da311dc566eb187e497889" target="_top" xlink:title=" ">
<polygon fill="white" stroke="#666666" points="360,-86.88 227.75,-86.88 227.75,-67.62 360,-67.62 360,-86.88"/>
<text xml:space="preserve" text-anchor="middle" x="293.88" y="-73.38" font-family="Helvetica,sans-Serif" font-size="10.00">PGB_LibraryConfirmModal</text>
</a>
</g>
</g>
<!-- Node6&#45;&gt;Node7 -->
<g id="edge6_Node000006_Node000007" class="edge">
<title>Node6&#45;&gt;Node7</title>
<g id="a_edge6_Node000006_Node000007"><a xlink:title=" ">
<path fill="none" stroke="#63b8ff" d="M430.03,-77.25C408.17,-77.25 383.05,-77.25 360.44,-77.25"/>
<polygon fill="#63b8ff" stroke="#63b8ff" points="429.96,-80.75 439.96,-77.25 429.96,-73.75 429.96,-80.75"/>
</a>
</g>
</g>
<!-- Node8 -->
<g id="Node000008" class="node">
<title>Node8</title>
<g id="a_Node000008"><a xlink:href="game__scene_8c.html#a113df24bb94bafcdbb9235ec8648e02f" target="_top" xlink:title=" ">
<polygon fill="white" stroke="#666666" points="173,-86.88 104.5,-86.88 104.5,-67.62 173,-67.62 173,-86.88"/>
<text xml:space="preserve" text-anchor="middle" x="138.75" y="-73.38" font-family="Helvetica,sans-Serif" font-size="10.00">__section__</text>
</a>
</g>
</g>
<!-- Node7&#45;&gt;Node8 -->
<g id="edge7_Node000007_Node000008" class="edge">
<title>Node7&#45;&gt;Node8</title>
<g id="a_edge7_Node000007_Node000008"><a xlink:title=" ">
<path fill="none" stroke="#63b8ff" d="M216.03,-77.25C200.98,-77.25 185.96,-77.25 173.27,-77.25"/>
<polygon fill="#63b8ff" stroke="#63b8ff" points="215.98,-80.75 225.98,-77.25 215.98,-73.75 215.98,-80.75"/>
</a>
</g>
</g>
<!-- Node10 -->
<g id="Node000010" class="node">
<title>Node10</title>
<g id="a_Node000010"><a xlink:href="image__conversion__scene_8c.html#aa3559936491ddf78b9cf06fcbdd32d22" target="_top" xlink:title=" ">
<polygon fill="white" stroke="#666666" points="378.75,-41.88 209,-41.88 209,-22.62 378.75,-22.62 378.75,-41.88"/>
<text xml:space="preserve" text-anchor="middle" x="293.88" y="-28.38" font-family="Helvetica,sans-Serif" font-size="10.00">PGB_ImageConversionScene_new</text>
</a>
</g>
</g>
<!-- Node9&#45;&gt;Node10 -->
<g id="edge9_Node000009_Node000010" class="edge">
<title>Node9&#45;&gt;Node10</title>
<g id="a_edge9_Node000009_Node000010"><a xlink:title=" ">
<path fill="none" stroke="#63b8ff" d="M402.94,-33.37C395.07,-33.29 387.09,-33.21 379.22,-33.13"/>
<polygon fill="#63b8ff" stroke="#63b8ff" points="402.82,-36.87 412.85,-33.48 402.89,-29.87 402.82,-36.87"/>
</a>
</g>
</g>
<!-- Node10&#45;&gt;Node11 -->
<g id="edge10_Node000010_Node000011" class="edge">
<title>Node10&#45;&gt;Node11</title>
<g id="a_edge10_Node000010_Node000011"><a xlink:title=" ">
<path fill="none" stroke="#63b8ff" d="M204.38,-20.69C190.72,-18.91 177.57,-17.19 166.75,-15.78"/>
<polygon fill="#63b8ff" stroke="#63b8ff" points="203.55,-24.11 213.91,-21.94 204.45,-17.17 203.55,-24.11"/>
</a>
</g>
</g>
<!-- Node12 -->
<g id="Node000012" class="node">
<title>Node12</title>
<g id="a_Node000012"><a xlink:href="main_8c.html#a77034286b8c64d0735c69535c5e9b732" target="_top" xlink:title=" ">
<polygon fill="white" stroke="#666666" points="68.5,-21.88 0,-21.88 0,-2.63 68.5,-2.63 68.5,-21.88"/>
<text xml:space="preserve" text-anchor="middle" x="34.25" y="-8.38" font-family="Helvetica,sans-Serif" font-size="10.00">__section__</text>
</a>
</g>
</g>
<!-- Node11&#45;&gt;Node12 -->
<g id="edge11_Node000011_Node000012" class="edge">
<title>Node11&#45;&gt;Node12</title>
<g id="a_edge11_Node000011_Node000012"><a xlink:title=" ">
<path fill="none" stroke="#63b8ff" d="M99.48,-12.25C89.46,-12.25 78.74,-12.25 68.97,-12.25"/>
<polygon fill="#63b8ff" stroke="#63b8ff" points="99.31,-15.75 109.31,-12.25 99.31,-8.75 99.31,-15.75"/>
</a>
</g>
</g>
<!-- Node14 -->
<g id="Node000014" class="node">
<title>Node14</title>
<g id="a_Node000014"><a xlink:href="settings__scene_8c.html#a7a2a61c35c00f7990b0a85f16e5c9975" target="_top" xlink:title=" ">
<polygon fill="white" stroke="#666666" points="1249.25,-24.88 1120,-24.88 1120,-5.63 1249.25,-5.63 1249.25,-24.88"/>
<text xml:space="preserve" text-anchor="middle" x="1184.62" y="-11.38" font-family="Helvetica,sans-Serif" font-size="10.00">PGB_SettingsScene_new</text>
</a>
</g>
</g>
<!-- Node13&#45;&gt;Node14 -->
<g id="edge14_Node000013_Node000014" class="edge">
<title>Node13&#45;&gt;Node14</title>
<g id="a_edge14_Node000013_Node000014"><a xlink:title=" ">
<path fill="none" stroke="#63b8ff" d="M1273.58,-15.25C1265.55,-15.25 1257.43,-15.25 1249.55,-15.25"/>
<polygon fill="#63b8ff" stroke="#63b8ff" points="1273.32,-18.75 1283.32,-15.25 1273.32,-11.75 1273.32,-18.75"/>
</a>
</g>
</g>
<!-- Node15 -->
<g id="Node000015" class="node">
<title>Node15</title>
<g id="a_Node000015"><a xlink:href="library__scene_8c.html#ae9da6d35e322c1a0896926f6a66c66f1" target="_top" xlink:title=" ">
<polygon fill="white" stroke="#666666" points="1084,-24.88 920.25,-24.88 920.25,-5.63 1084,-5.63 1084,-24.88"/>
<text xml:space="preserve" text-anchor="middle" x="1002.12" y="-11.38" font-family="Helvetica,sans-Serif" font-size="10.00">PGB_LibraryScene_showSettings</text>
</a>
</g>
</g>
<!-- Node14&#45;&gt;Node15 -->
<g id="edge15_Node000014_Node000015" class="edge">
<title>Node14&#45;&gt;Node15</title>
<g id="a_edge15_Node000014_Node000015"><a xlink:title=" ">
<path fill="none" stroke="#63b8ff" d="M1108.28,-15.25C1100.37,-15.25 1092.3,-15.25 1084.32,-15.25"/>
<polygon fill="#63b8ff" stroke="#63b8ff" points="1108.22,-18.75 1118.22,-15.25 1108.22,-11.75 1108.22,-18.75"/>
</a>
</g>
</g>
<!-- Node16 -->
<g id="Node000016" class="node">
<title>Node16</title>
<g id="a_Node000016"><a xlink:href="library__scene_8c.html#ab295872b275c54cb2800b2b71fd163ef" target="_top" xlink:title=" ">
<polygon fill="white" stroke="#666666" points="884.25,-24.88 755.75,-24.88 755.75,-5.63 884.25,-5.63 884.25,-24.88"/>
<text xml:space="preserve" text-anchor="middle" x="820" y="-11.38" font-family="Helvetica,sans-Serif" font-size="10.00">PGB_LibraryScene_menu</text>
</a>
</g>
</g>
<!-- Node15&#45;&gt;Node16 -->
<g id="edge16_Node000015_Node000016" class="edge">
<title>Node15&#45;&gt;Node16</title>
<g id="a_edge16_Node000015_Node000016"><a xlink:title=" ">
<path fill="none" stroke="#63b8ff" d="M908.43,-15.25C900.42,-15.25 892.43,-15.25 884.73,-15.25"/>
<polygon fill="#63b8ff" stroke="#63b8ff" points="908.24,-18.75 918.24,-15.25 908.24,-11.75 908.24,-18.75"/>
</a>
</g>
</g>
<!-- Node16&#45;&gt;Node5 -->
<g id="edge17_Node000016_Node000005" class="edge">
<title>Node16&#45;&gt;Node5</title>
<g id="a_edge17_Node000016_Node000005"><a xlink:title=" ">
<path fill="none" stroke="#63b8ff" d="M744.2,-24.16C736.15,-25.12 728.04,-26.09 720.18,-27.02"/>
<polygon fill="#63b8ff" stroke="#63b8ff" points="744.48,-27.65 754,-22.99 743.66,-20.7 744.48,-27.65"/>
</a>
</g>
</g>
</g>
</svg>

<g id="navigator" transform="translate(0 0)" fill="#404254">
  <rect fill="#f2f5e9" fill-opacity="0.5" stroke="#606060" stroke-width=".5" x="0" y="0" width="60" height="60"/>
  <use id="zoomplus" xlink:href="#zoomPlus" x="17" y="9" onmousedown="handleZoom(evt,'in')"/>
  <use id="zoomminus" xlink:href="#zoomMin" x="42" y="9" onmousedown="handleZoom(evt,'out')"/>
  <use id="reset" xlink:href="#resetDef" x="30" y="36" onmousedown="handleReset()"/>
   <use id="arrowup" xlink:href="#arrowUp" x="0" y="0" onmousedown="handlePan(0,-1)"/>
  <use id="arrowright" xlink:href="#arrowRight" x="0" y="0" onmousedown="handlePan(1,0)"/>
  <use id="arrowdown" xlink:href="#arrowDown" x="0" y="0" onmousedown="handlePan(0,1)"/>
  <use id="arrowleft" xlink:href="#arrowLeft" x="0" y="0" onmousedown="handlePan(-1,0)"/>
</g>
<svg viewBox="0 0 15 15" width="100%" height="30px" preserveAspectRatio="xMaxYMin meet">
 <g id="arrow_out" transform="scale(0.3 0.3)">
  <a xlink:href="minigb__apu_8c_acc6a1a7ec1a9cbf431ed26b611f27a65_icgraph_org.svg" target="_base">
   <rect id="button" ry="5" rx="5" y="6" x="6" height="38" width="38"
        fill="#f2f5e9" fill-opacity="0.5" stroke="#606060" stroke-width="1.0"/>
   <path id="arrow"
     d="M 11.500037,31.436501 C 11.940474,20.09759 22.043105,11.32322 32.158766,21.979434 L 37.068811,17.246167 C 37.068811,17.246167 37.088388,32 37.088388,32 L 22.160133,31.978069 C 22.160133,31.978069 26.997745,27.140456 26.997745,27.140456 C 18.528582,18.264221 13.291696,25.230495 11.500037,31.436501 z"
     style="fill:#404040;"/>
  </a>
 </g>
</svg>

<style type='text/css'>
<![CDATA[
[data-mouse-over-selected='false'] { opacity: 0.7; }
[data-mouse-over-selected='true']  { opacity: 1.0; }
]]>
</style>
<script type="application/ecmascript"><![CDATA[
document.addEventListener('DOMContentLoaded', (event) => {
  highlightEdges();
  highlightAdjacentNodes();
});
]]></script>
</svg>
