<?xml version="1.0" encoding="UTF-8" standalone="no"?>
<!DOCTYPE svg PUBLIC "-//W3C//DTD SVG 1.1//EN"
 "http://www.w3.org/Graphics/SVG/1.1/DTD/svg11.dtd">
<!-- Generated by graphviz version 13.1.0 (20250701.0955)
 -->
<!-- Title: chan_enable Pages: 1 -->
<!--zoomable 168 -->

<svg id="main" version="1.1" xmlns="http://www.w3.org/2000/svg" xmlns:xlink="http://www.w3.org/1999/xlink" xml:space="preserve" onload="init(evt)">

<style type="text/css"><![CDATA[
.node, .edge {opacity: 0.7;}
.node.selected, .edge.selected {opacity: 1;}
.edge:hover path { stroke: red; }
.edge:hover polygon { stroke: red; fill: red; }
]]></style>

<defs>
  <circle id="rim" cx="0" cy="0" r="7"/>
  <circle id="rim2" cx="0" cy="0" r="3.5"/>
  <g id="zoomPlus">
    <use xlink:href="#rim" fill="#404040"><set attributeName="fill" to="#808080" begin="zoomplus.mouseover" end="zoomplus.mouseout"/></use>
    <path d="M-4,0h8M0,-4v8" fill="none" stroke="white" stroke-width="1.5" pointer-events="none"/>
  </g>
  <g id="zoomMin">
    <use xlink:href="#rim" fill="#404040"><set attributeName="fill" to="#808080" begin="zoomminus.mouseover" end="zoomminus.mouseout"/></use>
    <path d="M-4,0h8" fill="none" stroke="white" stroke-width="1.5" pointer-events="none"/>
  </g>
  <g id="arrowUp" transform="translate(30 24)">
    <use xlink:href="#rim"/>
    <path pointer-events="none" fill="none" stroke="white" stroke-width="1.5" d="M0,-3.0v7 M-2.5,-0.5L0,-3.0L2.5,-0.5"/>
  </g>
  <g id="arrowRight" transform="rotate(90) translate(36 -43)">
    <use xlink:href="#rim"/>
    <path pointer-events="none" fill="none" stroke="white" stroke-width="1.5" d="M0,-3.0v7 M-2.5,-0.5L0,-3.0L2.5,-0.5"/>
  </g>
  <g id="arrowDown" transform="rotate(180) translate(-30 -48)">
    <use xlink:href="#rim"/>
    <path pointer-events="none" fill="none" stroke="white" stroke-width="1.5" d="M0,-3.0v7 M-2.5,-0.5L0,-3.0L2.5,-0.5"/>
  </g>
  <g id="arrowLeft" transform="rotate(270) translate(-36 17)">
    <use xlink:href="#rim"/>
    <path pointer-events="none" fill="none" stroke="white" stroke-width="1.5" d="M0,-3.0v7 M-2.5,-0.5L0,-3.0L2.5,-0.5"/>
  </g>
  <g id="resetDef">
    <use xlink:href="#rim2" fill="#404040"><set attributeName="fill" to="#808080" begin="reset.mouseover" end="reset.mouseout"/></use>
  </g>
</defs>
<script type="application/ecmascript">
var viewWidth = 2026;
var viewHeight = 168;
var sectionId = 'dynsection-4';
</script>
<script type="application/ecmascript" xlink:href="svg.min.js"/>
<svg id="graph" class="graph">
<g id="viewport">
<title>chan_enable</title>
<!-- Node1 -->
<g id="Node000001" class="node">
<title>Node1</title>
<g id="a_Node000001"><a xlink:title=" ">
<polygon fill="#999999" stroke="#666666" points="2018,-93.25 1947.25,-93.25 1947.25,-74 2018,-74 2018,-93.25"/>
<text xml:space="preserve" text-anchor="middle" x="1982.62" y="-79.75" font-family="Helvetica,sans-Serif" font-size="10.00">chan_enable</text>
</a>
</g>
</g>
<!-- Node2 -->
<g id="Node000002" class="node">
<title>Node2</title>
<g id="a_Node000002"><a xlink:href="minigb__apu_8c.html#ae1c33f1ae27d770f9585e7157b600aa9" target="_top" xlink:title=" ">
<polygon fill="white" stroke="#666666" points="1798.88,-130.25 1733.38,-130.25 1733.38,-111 1798.88,-111 1798.88,-130.25"/>
<text xml:space="preserve" text-anchor="middle" x="1766.12" y="-116.75" font-family="Helvetica,sans-Serif" font-size="10.00">audio_write</text>
</a>
</g>
</g>
<!-- Node1&#45;&gt;Node2 -->
<g id="edge1_Node000001_Node000002" class="edge">
<title>Node1&#45;&gt;Node2</title>
<g id="a_edge1_Node000001_Node000002"><a xlink:title=" ">
<path fill="none" stroke="#63b8ff" d="M1937.22,-96.62C1928.65,-98.84 1919.71,-100.96 1911.25,-102.62 1873.02,-110.13 1828.44,-115.14 1799.1,-117.92"/>
<polygon fill="#63b8ff" stroke="#63b8ff" points="1937.99,-100.04 1946.74,-94.06 1936.17,-93.28 1937.99,-100.04"/>
</a>
</g>
</g>
<!-- Node19 -->
<g id="Node000019" class="node">
<title>Node19</title>
<g id="a_Node000019"><a xlink:href="minigb__apu_8c.html#a87baf895f2b1010b0bf05957da722d72" target="_top" xlink:title=" ">
<polygon fill="white" stroke="#666666" points="1911.25,-93.25 1842,-93.25 1842,-74 1911.25,-74 1911.25,-93.25"/>
<text xml:space="preserve" text-anchor="middle" x="1876.62" y="-79.75" font-family="Helvetica,sans-Serif" font-size="10.00">chan_trigger</text>
</a>
</g>
</g>
<!-- Node1&#45;&gt;Node19 -->
<g id="edge21_Node000001_Node000019" class="edge">
<title>Node1&#45;&gt;Node19</title>
<g id="a_edge21_Node000001_Node000019"><a xlink:title=" ">
<path fill="none" stroke="#63b8ff" d="M1935.67,-83.62C1927.51,-83.62 1919.14,-83.62 1911.4,-83.62"/>
<polygon fill="#63b8ff" stroke="#63b8ff" points="1935.48,-87.13 1945.48,-83.63 1935.48,-80.13 1935.48,-87.13"/>
</a>
</g>
</g>
<!-- Node20 -->
<g id="Node000020" class="node">
<title>Node20</title>
<g id="a_Node000020"><a xlink:href="minigb__apu_8c.html#ab80d52e38ec461f6050d62361609038d" target="_top" xlink:title=" ">
<polygon fill="white" stroke="#666666" points="1908.25,-56.25 1845,-56.25 1845,-37 1908.25,-37 1908.25,-56.25"/>
<text xml:space="preserve" text-anchor="middle" x="1876.62" y="-42.75" font-family="Helvetica,sans-Serif" font-size="10.00">update_len</text>
</a>
</g>
</g>
<!-- Node1&#45;&gt;Node20 -->
<g id="edge23_Node000001_Node000020" class="edge">
<title>Node1&#45;&gt;Node20</title>
<g id="a_edge23_Node000001_Node000020"><a xlink:title=" ">
<path fill="none" stroke="#63b8ff" d="M1942.45,-69.69C1930.34,-65.38 1917.24,-60.72 1906.01,-56.72"/>
<polygon fill="#63b8ff" stroke="#63b8ff" points="1941.19,-72.95 1951.78,-73.01 1943.53,-66.36 1941.19,-72.95"/>
</a>
</g>
</g>
<!-- Node3 -->
<g id="Node000003" class="node">
<title>Node3</title>
<g id="a_Node000003"><a xlink:href="minigb__apu_8c.html#acc6a1a7ec1a9cbf431ed26b611f27a65" target="_top" xlink:title=" ">
<polygon fill="white" stroke="#666666" points="1678.62,-130.25 1621.38,-130.25 1621.38,-111 1678.62,-111 1678.62,-130.25"/>
<text xml:space="preserve" text-anchor="middle" x="1650" y="-116.75" font-family="Helvetica,sans-Serif" font-size="10.00">audio_init</text>
</a>
</g>
</g>
<!-- Node2&#45;&gt;Node3 -->
<g id="edge2_Node000002_Node000003" class="edge">
<title>Node2&#45;&gt;Node3</title>
<g id="a_edge2_Node000002_Node000003"><a xlink:title=" ">
<path fill="none" stroke="#63b8ff" d="M1721.85,-120.62C1707.48,-120.62 1691.88,-120.62 1678.98,-120.62"/>
<polygon fill="#63b8ff" stroke="#63b8ff" points="1721.52,-124.13 1731.52,-120.63 1721.52,-117.13 1721.52,-124.13"/>
</a>
</g>
</g>
<!-- Node4 -->
<g id="Node000004" class="node">
<title>Node4</title>
<g id="a_Node000004"><a xlink:href="game__scene_8c.html#a81e27cfbebe9e585798c0a8f0693ebc1" target="_top" xlink:title=" ">
<polygon fill="white" stroke="#666666" points="1573.75,-142.88 1449,-142.88 1449,-112.38 1573.75,-112.38 1573.75,-142.88"/>
<text xml:space="preserve" text-anchor="start" x="1457" y="-129.38" font-family="Helvetica,sans-Serif" font-size="10.00">PGB_GameScene_apply</text>
<text xml:space="preserve" text-anchor="middle" x="1511.38" y="-118.12" font-family="Helvetica,sans-Serif" font-size="10.00">_settings</text>
</a>
</g>
</g>
<!-- Node3&#45;&gt;Node4 -->
<g id="edge3_Node000003_Node000004" class="edge">
<title>Node3&#45;&gt;Node4</title>
<g id="a_edge3_Node000003_Node000004"><a xlink:title=" ">
<path fill="none" stroke="#63b8ff" d="M1609.57,-122.65C1598.5,-123.21 1586.18,-123.84 1574.15,-124.46"/>
<polygon fill="#63b8ff" stroke="#63b8ff" points="1609.7,-126.14 1619.51,-122.14 1609.34,-119.15 1609.7,-126.14"/>
</a>
</g>
</g>
<!-- Node5 -->
<g id="Node000005" class="node">
<title>Node5</title>
<g id="a_Node000005"><a xlink:href="game__scene_8c.html#ab923ed4c6ccad95026e85e252071716d" target="_top" xlink:title=" ">
<polygon fill="white" stroke="#666666" points="1408.88,-94.25 1289.38,-94.25 1289.38,-75 1408.88,-75 1408.88,-94.25"/>
<text xml:space="preserve" text-anchor="middle" x="1349.12" y="-80.75" font-family="Helvetica,sans-Serif" font-size="10.00">PGB_GameScene_new</text>
</a>
</g>
</g>
<!-- Node3&#45;&gt;Node5 -->
<g id="edge20_Node000003_Node000005" class="edge">
<title>Node3&#45;&gt;Node5</title>
<g id="a_edge20_Node000003_Node000005"><a xlink:title=" ">
<path fill="none" stroke="#63b8ff" d="M1609.85,-110.71C1598.29,-108.07 1585.56,-105.45 1573.75,-103.62 1518.3,-95.05 1454.48,-90.11 1409.24,-87.43"/>
<polygon fill="#63b8ff" stroke="#63b8ff" points="1608.94,-114.09 1619.47,-112.98 1610.54,-107.28 1608.94,-114.09"/>
</a>
</g>
</g>
<!-- Node4&#45;&gt;Node5 -->
<g id="edge4_Node000004_Node000005" class="edge">
<title>Node4&#45;&gt;Node5</title>
<g id="a_edge4_Node000004_Node000005"><a xlink:title=" ">
<path fill="none" stroke="#63b8ff" d="M1441.09,-109.03C1422.74,-104.11 1403.63,-98.98 1387.68,-94.7"/>
<polygon fill="#63b8ff" stroke="#63b8ff" points="1440.04,-112.38 1450.61,-111.59 1441.85,-105.61 1440.04,-112.38"/>
</a>
</g>
</g>
<!-- Node15 -->
<g id="Node000015" class="node">
<title>Node15</title>
<g id="a_Node000015"><a xlink:href="settings__scene_8c.html#a94443c0dbbd6670bccbe9f9de4d85c5e" target="_top" xlink:title=" ">
<polygon fill="white" stroke="#666666" points="1413,-136.25 1285.25,-136.25 1285.25,-117 1413,-117 1413,-136.25"/>
<text xml:space="preserve" text-anchor="middle" x="1349.12" y="-122.75" font-family="Helvetica,sans-Serif" font-size="10.00">PGB_SettingsScene_free</text>
</a>
</g>
</g>
<!-- Node4&#45;&gt;Node15 -->
<g id="edge15_Node000004_Node000015" class="edge">
<title>Node4&#45;&gt;Node15</title>
<g id="a_edge15_Node000004_Node000015"><a xlink:title=" ">
<path fill="none" stroke="#63b8ff" d="M1437.54,-127.17C1429.46,-127.12 1421.27,-127.07 1413.32,-127.02"/>
<polygon fill="#63b8ff" stroke="#63b8ff" points="1437.34,-130.67 1447.36,-127.23 1437.39,-123.67 1437.34,-130.67"/>
</a>
</g>
</g>
<!-- Node6 -->
<g id="Node000006" class="node">
<title>Node6</title>
<g id="a_Node000006"><a xlink:href="library__scene_8c.html#a0728002045c9cbbd68bdd34897b28da6" target="_top" xlink:title=" ">
<polygon fill="white" stroke="#666666" points="1069,-97.25 935.25,-97.25 935.25,-78 1069,-78 1069,-97.25"/>
<text xml:space="preserve" text-anchor="middle" x="1002.12" y="-83.75" font-family="Helvetica,sans-Serif" font-size="10.00">PGB_LibraryScene_update</text>
</a>
</g>
</g>
<!-- Node5&#45;&gt;Node6 -->
<g id="edge5_Node000005_Node000006" class="edge">
<title>Node5&#45;&gt;Node6</title>
<g id="a_edge5_Node000005_Node000006"><a xlink:title=" ">
<path fill="none" stroke="#63b8ff" d="M1277.77,-85.24C1216.8,-85.77 1129.22,-86.53 1069.46,-87.05"/>
<polygon fill="#63b8ff" stroke="#63b8ff" points="1277.73,-88.74 1287.7,-85.15 1277.67,-81.74 1277.73,-88.74"/>
</a>
</g>
</g>
<!-- Node7 -->
<g id="Node000007" class="node">
<title>Node7</title>
<g id="a_Node000007"><a xlink:href="library__scene_8c.html#aa5c386d39121b53fba45d899df654188" target="_top" xlink:title=" ">
<polygon fill="white" stroke="#666666" points="719.75,-117.25 597.25,-117.25 597.25,-98 719.75,-98 719.75,-117.25"/>
<text xml:space="preserve" text-anchor="middle" x="658.5" y="-103.75" font-family="Helvetica,sans-Serif" font-size="10.00">PGB_LibraryScene_new</text>
</a>
</g>
</g>
<!-- Node6&#45;&gt;Node7 -->
<g id="edge6_Node000006_Node000007" class="edge">
<title>Node6&#45;&gt;Node7</title>
<g id="a_edge6_Node000006_Node000007"><a xlink:title=" ">
<path fill="none" stroke="#63b8ff" d="M923.62,-92.16C861.96,-95.77 776.9,-100.75 720.15,-104.07"/>
<polygon fill="#63b8ff" stroke="#63b8ff" points="923.56,-95.67 933.34,-91.59 923.15,-88.68 923.56,-95.67"/>
</a>
</g>
</g>
<!-- Node8 -->
<g id="Node000008" class="node">
<title>Node8</title>
<g id="a_Node000008"><a xlink:href="app_8c.html#ab80501f53b757a79772b96ec99e3dc7e" target="_top" xlink:title=" ">
<polygon fill="white" stroke="#666666" points="534.25,-160.25 441.75,-160.25 441.75,-141 534.25,-141 534.25,-160.25"/>
<text xml:space="preserve" text-anchor="middle" x="488" y="-146.75" font-family="Helvetica,sans-Serif" font-size="10.00">PGB_goToLibrary</text>
</a>
</g>
</g>
<!-- Node7&#45;&gt;Node8 -->
<g id="edge7_Node000007_Node000008" class="edge">
<title>Node7&#45;&gt;Node8</title>
<g id="a_edge7_Node000007_Node000008"><a xlink:title=" ">
<path fill="none" stroke="#63b8ff" d="M606.84,-120.55C581.76,-126.95 551.92,-134.57 528.55,-140.53"/>
<polygon fill="#63b8ff" stroke="#63b8ff" points="607.7,-123.94 616.53,-118.08 605.97,-117.16 607.7,-123.94"/>
</a>
</g>
</g>
<!-- Node11 -->
<g id="Node000011" class="node">
<title>Node11</title>
<g id="a_Node000011"><a xlink:href="image__conversion__scene_8c.html#a60d0e43ab25a8639bbb6d1f4e758edd3" target="_top" xlink:title=" ">
<polygon fill="white" stroke="#666666" points="561.25,-122.88 414.75,-122.88 414.75,-92.38 561.25,-92.38 561.25,-122.88"/>
<text xml:space="preserve" text-anchor="start" x="422.75" y="-109.38" font-family="Helvetica,sans-Serif" font-size="10.00">PGB_ImageConversionScene</text>
<text xml:space="preserve" text-anchor="middle" x="488" y="-98.12" font-family="Helvetica,sans-Serif" font-size="10.00">_update</text>
</a>
</g>
</g>
<!-- Node7&#45;&gt;Node11 -->
<g id="edge10_Node000007_Node000011" class="edge">
<title>Node7&#45;&gt;Node11</title>
<g id="a_edge10_Node000007_Node000011"><a xlink:title=" ">
<path fill="none" stroke="#63b8ff" d="M585.9,-107.62C577.86,-107.62 569.65,-107.62 561.6,-107.62"/>
<polygon fill="#63b8ff" stroke="#63b8ff" points="585.63,-111.13 595.63,-107.63 585.63,-104.13 585.63,-111.13"/>
</a>
</g>
</g>
<!-- Node13 -->
<g id="Node000013" class="node">
<title>Node13</title>
<g id="a_Node000013"><a xlink:href="app_8c.html#af256ea7a9c51fcbd49cb0007facbb8ea" target="_top" xlink:title=" ">
<polygon fill="white" stroke="#666666" points="166.25,-95.25 111.25,-95.25 111.25,-76 166.25,-76 166.25,-95.25"/>
<text xml:space="preserve" text-anchor="middle" x="138.75" y="-81.75" font-family="Helvetica,sans-Serif" font-size="10.00">PGB_init</text>
</a>
</g>
</g>
<!-- Node7&#45;&gt;Node13 -->
<g id="edge14_Node000007_Node000013" class="edge">
<title>Node7&#45;&gt;Node13</title>
<g id="a_edge14_Node000007_Node000013"><a xlink:title=" ">
<path fill="none" stroke="#63b8ff" d="M614.41,-94.49C597.95,-90.11 578.89,-85.79 561.25,-83.62 413.08,-65.43 233.4,-77.5 166.52,-83.16"/>
<polygon fill="#63b8ff" stroke="#63b8ff" points="613.32,-97.82 623.89,-97.11 615.18,-91.08 613.32,-97.82"/>
</a>
</g>
</g>
<!-- Node9 -->
<g id="Node000009" class="node">
<title>Node9</title>
<g id="a_Node000009"><a xlink:href="game__scene_8c.html#a6a4a6f0408da311dc566eb187e497889" target="_top" xlink:title=" ">
<polygon fill="white" stroke="#666666" points="360,-160.25 227.75,-160.25 227.75,-141 360,-141 360,-160.25"/>
<text xml:space="preserve" text-anchor="middle" x="293.88" y="-146.75" font-family="Helvetica,sans-Serif" font-size="10.00">PGB_LibraryConfirmModal</text>
</a>
</g>
</g>
<!-- Node8&#45;&gt;Node9 -->
<g id="edge8_Node000008_Node000009" class="edge">
<title>Node8&#45;&gt;Node9</title>
<g id="a_edge8_Node000008_Node000009"><a xlink:title=" ">
<path fill="none" stroke="#63b8ff" d="M430.03,-150.62C408.17,-150.62 383.05,-150.62 360.44,-150.62"/>
<polygon fill="#63b8ff" stroke="#63b8ff" points="429.96,-154.13 439.96,-150.63 429.96,-147.13 429.96,-154.13"/>
</a>
</g>
</g>
<!-- Node10 -->
<g id="Node000010" class="node">
<title>Node10</title>
<g id="a_Node000010"><a xlink:href="game__scene_8c.html#a113df24bb94bafcdbb9235ec8648e02f" target="_top" xlink:title=" ">
<polygon fill="white" stroke="#666666" points="173,-160.25 104.5,-160.25 104.5,-141 173,-141 173,-160.25"/>
<text xml:space="preserve" text-anchor="middle" x="138.75" y="-146.75" font-family="Helvetica,sans-Serif" font-size="10.00">__section__</text>
</a>
</g>
</g>
<!-- Node9&#45;&gt;Node10 -->
<g id="edge9_Node000009_Node000010" class="edge">
<title>Node9&#45;&gt;Node10</title>
<g id="a_edge9_Node000009_Node000010"><a xlink:title=" ">
<path fill="none" stroke="#63b8ff" d="M216.03,-150.62C200.98,-150.62 185.96,-150.62 173.27,-150.62"/>
<polygon fill="#63b8ff" stroke="#63b8ff" points="215.98,-154.13 225.98,-150.63 215.98,-147.13 215.98,-154.13"/>
</a>
</g>
</g>
<!-- Node12 -->
<g id="Node000012" class="node">
<title>Node12</title>
<g id="a_Node000012"><a xlink:href="image__conversion__scene_8c.html#aa3559936491ddf78b9cf06fcbdd32d22" target="_top" xlink:title=" ">
<polygon fill="white" stroke="#666666" points="378.75,-115.25 209,-115.25 209,-96 378.75,-96 378.75,-115.25"/>
<text xml:space="preserve" text-anchor="middle" x="293.88" y="-101.75" font-family="Helvetica,sans-Serif" font-size="10.00">PGB_ImageConversionScene_new</text>
</a>
</g>
</g>
<!-- Node11&#45;&gt;Node12 -->
<g id="edge11_Node000011_Node000012" class="edge">
<title>Node11&#45;&gt;Node12</title>
<g id="a_edge11_Node000011_Node000012"><a xlink:title=" ">
<path fill="none" stroke="#63b8ff" d="M402.94,-106.75C395.07,-106.67 387.09,-106.58 379.22,-106.5"/>
<polygon fill="#63b8ff" stroke="#63b8ff" points="402.82,-110.25 412.85,-106.85 402.89,-103.25 402.82,-110.25"/>
</a>
</g>
</g>
<!-- Node12&#45;&gt;Node13 -->
<g id="edge12_Node000012_Node000013" class="edge">
<title>Node12&#45;&gt;Node13</title>
<g id="a_edge12_Node000012_Node000013"><a xlink:title=" ">
<path fill="none" stroke="#63b8ff" d="M204.38,-94.07C190.72,-92.28 177.57,-90.56 166.75,-89.15"/>
<polygon fill="#63b8ff" stroke="#63b8ff" points="203.55,-97.49 213.91,-95.31 204.45,-90.55 203.55,-97.49"/>
</a>
</g>
</g>
<!-- Node14 -->
<g id="Node000014" class="node">
<title>Node14</title>
<g id="a_Node000014"><a xlink:href="main_8c.html#a77034286b8c64d0735c69535c5e9b732" target="_top" xlink:title=" ">
<polygon fill="white" stroke="#666666" points="68.5,-95.25 0,-95.25 0,-76 68.5,-76 68.5,-95.25"/>
<text xml:space="preserve" text-anchor="middle" x="34.25" y="-81.75" font-family="Helvetica,sans-Serif" font-size="10.00">__section__</text>
</a>
</g>
</g>
<!-- Node13&#45;&gt;Node14 -->
<g id="edge13_Node000013_Node000014" class="edge">
<title>Node13&#45;&gt;Node14</title>
<g id="a_edge13_Node000013_Node000014"><a xlink:title=" ">
<path fill="none" stroke="#63b8ff" d="M99.48,-85.62C89.46,-85.62 78.74,-85.62 68.97,-85.62"/>
<polygon fill="#63b8ff" stroke="#63b8ff" points="99.31,-89.13 109.31,-85.63 99.31,-82.13 99.31,-89.13"/>
</a>
</g>
</g>
<!-- Node16 -->
<g id="Node000016" class="node">
<title>Node16</title>
<g id="a_Node000016"><a xlink:href="settings__scene_8c.html#a7a2a61c35c00f7990b0a85f16e5c9975" target="_top" xlink:title=" ">
<polygon fill="white" stroke="#666666" points="1249.25,-136.25 1120,-136.25 1120,-117 1249.25,-117 1249.25,-136.25"/>
<text xml:space="preserve" text-anchor="middle" x="1184.62" y="-122.75" font-family="Helvetica,sans-Serif" font-size="10.00">PGB_SettingsScene_new</text>
</a>
</g>
</g>
<!-- Node15&#45;&gt;Node16 -->
<g id="edge16_Node000015_Node000016" class="edge">
<title>Node15&#45;&gt;Node16</title>
<g id="a_edge16_Node000015_Node000016"><a xlink:title=" ">
<path fill="none" stroke="#63b8ff" d="M1273.58,-126.62C1265.55,-126.62 1257.43,-126.62 1249.55,-126.62"/>
<polygon fill="#63b8ff" stroke="#63b8ff" points="1273.32,-130.13 1283.32,-126.63 1273.32,-123.13 1273.32,-130.13"/>
</a>
</g>
</g>
<!-- Node17 -->
<g id="Node000017" class="node">
<title>Node17</title>
<g id="a_Node000017"><a xlink:href="library__scene_8c.html#ae9da6d35e322c1a0896926f6a66c66f1" target="_top" xlink:title=" ">
<polygon fill="white" stroke="#666666" points="1084,-136.25 920.25,-136.25 920.25,-117 1084,-117 1084,-136.25"/>
<text xml:space="preserve" text-anchor="middle" x="1002.12" y="-122.75" font-family="Helvetica,sans-Serif" font-size="10.00">PGB_LibraryScene_showSettings</text>
</a>
</g>
</g>
<!-- Node16&#45;&gt;Node17 -->
<g id="edge17_Node000016_Node000017" class="edge">
<title>Node16&#45;&gt;Node17</title>
<g id="a_edge17_Node000016_Node000017"><a xlink:title=" ">
<path fill="none" stroke="#63b8ff" d="M1108.28,-126.62C1100.37,-126.62 1092.3,-126.62 1084.32,-126.62"/>
<polygon fill="#63b8ff" stroke="#63b8ff" points="1108.22,-130.13 1118.22,-126.63 1108.22,-123.13 1108.22,-130.13"/>
</a>
</g>
</g>
<!-- Node18 -->
<g id="Node000018" class="node">
<title>Node18</title>
<g id="a_Node000018"><a xlink:href="library__scene_8c.html#ab295872b275c54cb2800b2b71fd163ef" target="_top" xlink:title=" ">
<polygon fill="white" stroke="#666666" points="884.25,-136.25 755.75,-136.25 755.75,-117 884.25,-117 884.25,-136.25"/>
<text xml:space="preserve" text-anchor="middle" x="820" y="-122.75" font-family="Helvetica,sans-Serif" font-size="10.00">PGB_LibraryScene_menu</text>
</a>
</g>
</g>
<!-- Node17&#45;&gt;Node18 -->
<g id="edge18_Node000017_Node000018" class="edge">
<title>Node17&#45;&gt;Node18</title>
<g id="a_edge18_Node000017_Node000018"><a xlink:title=" ">
<path fill="none" stroke="#63b8ff" d="M908.43,-126.62C900.42,-126.62 892.43,-126.62 884.73,-126.62"/>
<polygon fill="#63b8ff" stroke="#63b8ff" points="908.24,-130.13 918.24,-126.63 908.24,-123.13 908.24,-130.13"/>
</a>
</g>
</g>
<!-- Node18&#45;&gt;Node7 -->
<g id="edge19_Node000018_Node000007" class="edge">
<title>Node18&#45;&gt;Node7</title>
<g id="a_edge19_Node000018_Node000007"><a xlink:title=" ">
<path fill="none" stroke="#63b8ff" d="M744.2,-117.71C736.15,-116.76 728.04,-115.79 720.18,-114.85"/>
<polygon fill="#63b8ff" stroke="#63b8ff" points="743.66,-121.17 754,-118.88 744.48,-114.22 743.66,-121.17"/>
</a>
</g>
</g>
<!-- Node19&#45;&gt;Node2 -->
<g id="edge22_Node000019_Node000002" class="edge">
<title>Node19&#45;&gt;Node2</title>
<g id="a_edge22_Node000019_Node000002"><a xlink:title=" ">
<path fill="none" stroke="#63b8ff" d="M1835.14,-97.43C1822.4,-101.78 1808.57,-106.49 1796.74,-110.53"/>
<polygon fill="#63b8ff" stroke="#63b8ff" points="1836.21,-100.76 1844.54,-94.22 1833.95,-94.14 1836.21,-100.76"/>
</a>
</g>
</g>
<!-- Node21 -->
<g id="Node000021" class="node">
<title>Node21</title>
<g id="a_Node000021"><a xlink:href="minigb__apu_8c.html#a9c74de6aa8e30c9155b00b1d30ca02aa" target="_top" xlink:title=" ">
<polygon fill="white" stroke="#666666" points="1803,-56.25 1729.25,-56.25 1729.25,-37 1803,-37 1803,-56.25"/>
<text xml:space="preserve" text-anchor="middle" x="1766.12" y="-42.75" font-family="Helvetica,sans-Serif" font-size="10.00">update_noise</text>
</a>
</g>
</g>
<!-- Node20&#45;&gt;Node21 -->
<g id="edge24_Node000020_Node000021" class="edge">
<title>Node20&#45;&gt;Node21</title>
<g id="a_edge24_Node000020_Node000021"><a xlink:title=" ">
<path fill="none" stroke="#63b8ff" d="M1833.22,-46.62C1823.3,-46.62 1812.82,-46.62 1803.2,-46.62"/>
<polygon fill="#63b8ff" stroke="#63b8ff" points="1833.02,-50.13 1843.02,-46.63 1833.02,-43.13 1833.02,-50.13"/>
</a>
</g>
</g>
<!-- Node23 -->
<g id="Node000023" class="node">
<title>Node23</title>
<g id="a_Node000023"><a xlink:href="minigb__apu_8c.html#afa80d522c9bb7cb406745e39f90bcd2a" target="_top" xlink:title=" ">
<polygon fill="white" stroke="#666666" points="1806,-19.25 1726.25,-19.25 1726.25,0 1806,0 1806,-19.25"/>
<text xml:space="preserve" text-anchor="middle" x="1766.12" y="-5.75" font-family="Helvetica,sans-Serif" font-size="10.00">update_square</text>
</a>
</g>
</g>
<!-- Node20&#45;&gt;Node23 -->
<g id="edge27_Node000020_Node000023" class="edge">
<title>Node20&#45;&gt;Node23</title>
<g id="a_edge27_Node000020_Node000023"><a xlink:title=" ">
<path fill="none" stroke="#63b8ff" d="M1835.14,-32.82C1822.4,-28.47 1808.57,-23.76 1796.74,-19.72"/>
<polygon fill="#63b8ff" stroke="#63b8ff" points="1833.95,-36.11 1844.54,-36.03 1836.21,-29.49 1833.95,-36.11"/>
</a>
</g>
</g>
<!-- Node24 -->
<g id="Node000024" class="node">
<title>Node24</title>
<g id="a_Node000024"><a xlink:href="minigb__apu_8c.html#a58da839111967f16cd396ef4dd67af0c" target="_top" xlink:title=" ">
<polygon fill="white" stroke="#666666" points="1803,-93.25 1729.25,-93.25 1729.25,-74 1803,-74 1803,-93.25"/>
<text xml:space="preserve" text-anchor="middle" x="1766.12" y="-79.75" font-family="Helvetica,sans-Serif" font-size="10.00">update_wave</text>
</a>
</g>
</g>
<!-- Node20&#45;&gt;Node24 -->
<g id="edge29_Node000020_Node000024" class="edge">
<title>Node20&#45;&gt;Node24</title>
<g id="a_edge29_Node000020_Node000024"><a xlink:title=" ">
<path fill="none" stroke="#63b8ff" d="M1835.14,-60.43C1822.4,-64.78 1808.57,-69.49 1796.74,-73.53"/>
<polygon fill="#63b8ff" stroke="#63b8ff" points="1836.21,-63.76 1844.54,-57.22 1833.95,-57.14 1836.21,-63.76"/>
</a>
</g>
</g>
<!-- Node22 -->
<g id="Node000022" class="node">
<title>Node22</title>
<g id="a_Node000022"><a xlink:href="minigb__apu_8c.html#ac428861793d7ae4175ee3008ba8981a7" target="_top" xlink:title=" ">
<polygon fill="white" stroke="#666666" points="1690.25,-56.25 1609.75,-56.25 1609.75,-37 1690.25,-37 1690.25,-56.25"/>
<text xml:space="preserve" text-anchor="middle" x="1650" y="-42.75" font-family="Helvetica,sans-Serif" font-size="10.00">audio_callback</text>
</a>
</g>
</g>
<!-- Node21&#45;&gt;Node22 -->
<g id="edge25_Node000021_Node000022" class="edge">
<title>Node21&#45;&gt;Node22</title>
<g id="a_edge25_Node000021_Node000022"><a xlink:title=" ">
<path fill="none" stroke="#63b8ff" d="M1717.76,-46.62C1708.67,-46.62 1699.24,-46.62 1690.44,-46.62"/>
<polygon fill="#63b8ff" stroke="#63b8ff" points="1717.5,-50.13 1727.5,-46.63 1717.5,-43.13 1717.5,-50.13"/>
</a>
</g>
</g>
<!-- Node22&#45;&gt;Node5 -->
<g id="edge26_Node000022_Node000005" class="edge">
<title>Node22&#45;&gt;Node5</title>
<g id="a_edge26_Node000022_Node000005"><a xlink:title=" ">
<path fill="none" stroke="#63b8ff" d="M1597.97,-53.11C1545.66,-59.76 1464.41,-70.1 1409.31,-77.1"/>
<polygon fill="#63b8ff" stroke="#63b8ff" points="1598.33,-56.6 1607.81,-51.86 1597.45,-49.65 1598.33,-56.6"/>
</a>
</g>
</g>
<!-- Node23&#45;&gt;Node22 -->
<g id="edge28_Node000023_Node000022" class="edge">
<title>Node23&#45;&gt;Node22</title>
<g id="a_edge28_Node000023_Node000022"><a xlink:title=" ">
<path fill="none" stroke="#63b8ff" d="M1723.35,-23.17C1709.73,-27.59 1694.85,-32.41 1682.15,-36.53"/>
<polygon fill="#63b8ff" stroke="#63b8ff" points="1724.07,-26.62 1732.5,-20.2 1721.91,-19.96 1724.07,-26.62"/>
</a>
</g>
</g>
<!-- Node24&#45;&gt;Node22 -->
<g id="edge30_Node000024_Node000022" class="edge">
<title>Node24&#45;&gt;Node22</title>
<g id="a_edge30_Node000024_Node000022"><a xlink:title=" ">
<path fill="none" stroke="#63b8ff" d="M1723.35,-70.08C1709.73,-65.66 1694.85,-60.84 1682.15,-56.72"/>
<polygon fill="#63b8ff" stroke="#63b8ff" points="1721.91,-73.29 1732.5,-73.05 1724.07,-66.63 1721.91,-73.29"/>
</a>
</g>
</g>
</g>
</svg>

<g id="navigator" transform="translate(0 0)" fill="#404254">
  <rect fill="#f2f5e9" fill-opacity="0.5" stroke="#606060" stroke-width=".5" x="0" y="0" width="60" height="60"/>
  <use id="zoomplus" xlink:href="#zoomPlus" x="17" y="9" onmousedown="handleZoom(evt,'in')"/>
  <use id="zoomminus" xlink:href="#zoomMin" x="42" y="9" onmousedown="handleZoom(evt,'out')"/>
  <use id="reset" xlink:href="#resetDef" x="30" y="36" onmousedown="handleReset()"/>
   <use id="arrowup" xlink:href="#arrowUp" x="0" y="0" onmousedown="handlePan(0,-1)"/>
  <use id="arrowright" xlink:href="#arrowRight" x="0" y="0" onmousedown="handlePan(1,0)"/>
  <use id="arrowdown" xlink:href="#arrowDown" x="0" y="0" onmousedown="handlePan(0,1)"/>
  <use id="arrowleft" xlink:href="#arrowLeft" x="0" y="0" onmousedown="handlePan(-1,0)"/>
</g>
<svg viewBox="0 0 15 15" width="100%" height="30px" preserveAspectRatio="xMaxYMin meet">
 <g id="arrow_out" transform="scale(0.3 0.3)">
  <a xlink:href="minigb__apu_8c_ab5203c2bde0131b8b59cc765df4e8920_icgraph_org.svg" target="_base">
   <rect id="button" ry="5" rx="5" y="6" x="6" height="38" width="38"
        fill="#f2f5e9" fill-opacity="0.5" stroke="#606060" stroke-width="1.0"/>
   <path id="arrow"
     d="M 11.500037,31.436501 C 11.940474,20.09759 22.043105,11.32322 32.158766,21.979434 L 37.068811,17.246167 C 37.068811,17.246167 37.088388,32 37.088388,32 L 22.160133,31.978069 C 22.160133,31.978069 26.997745,27.140456 26.997745,27.140456 C 18.528582,18.264221 13.291696,25.230495 11.500037,31.436501 z"
     style="fill:#404040;"/>
  </a>
 </g>
</svg>

<style type='text/css'>
<![CDATA[
[data-mouse-over-selected='false'] { opacity: 0.7; }
[data-mouse-over-selected='true']  { opacity: 1.0; }
]]>
</style>
<script type="application/ecmascript"><![CDATA[
document.addEventListener('DOMContentLoaded', (event) => {
  highlightEdges();
  highlightAdjacentNodes();
});
]]></script>
</svg>
