<?xml version="1.0" encoding="UTF-8" standalone="no"?>
<!DOCTYPE svg PUBLIC "-//W3C//DTD SVG 1.1//EN"
 "http://www.w3.org/Graphics/SVG/1.1/DTD/svg11.dtd">
<!-- Generated by graphviz version 13.1.0 (20250701.0955)
 -->
<!-- Title: update_freq Pages: 1 -->
<svg width="1388pt" height="107pt"
 viewBox="0.00 0.00 1388.00 107.00" xmlns="http://www.w3.org/2000/svg" xmlns:xlink="http://www.w3.org/1999/xlink">
<g id="graph0" class="graph" transform="scale(1 1) rotate(0) translate(4 103.25)">
<title>update_freq</title>
<!-- Node1 -->
<g id="Node000001" class="node">
<title>Node1</title>
<g id="a_Node000001"><a xlink:title=" ">
<polygon fill="#999999" stroke="#666666" points="1380.25,-56.25 1313.25,-56.25 1313.25,-37 1380.25,-37 1380.25,-56.25"/>
<text xml:space="preserve" text-anchor="middle" x="1346.75" y="-42.75" font-family="Helvetica,sans-Serif" font-size="10.00">update_freq</text>
</a>
</g>
</g>
<!-- Node2 -->
<g id="Node000002" class="node">
<title>Node2</title>
<g id="a_Node000002"><a xlink:href="minigb__apu_8c.html#a9c74de6aa8e30c9155b00b1d30ca02aa" target="_top" xlink:title=" ">
<polygon fill="white" stroke="#666666" points="1274.25,-93.25 1200.5,-93.25 1200.5,-74 1274.25,-74 1274.25,-93.25"/>
<text xml:space="preserve" text-anchor="middle" x="1237.38" y="-79.75" font-family="Helvetica,sans-Serif" font-size="10.00">update_noise</text>
</a>
</g>
</g>
<!-- Node1&#45;&gt;Node2 -->
<g id="edge1_Node000001_Node000002" class="edge">
<title>Node1&#45;&gt;Node2</title>
<g id="a_edge1_Node000001_Node000002"><a xlink:title=" ">
<path fill="none" stroke="#63b8ff" d="M1305.68,-60.43C1293.07,-64.78 1279.39,-69.49 1267.68,-73.53"/>
<polygon fill="#63b8ff" stroke="#63b8ff" points="1306.66,-63.8 1314.98,-57.23 1304.38,-57.18 1306.66,-63.8"/>
</a>
</g>
</g>
<!-- Node14 -->
<g id="Node000014" class="node">
<title>Node14</title>
<g id="a_Node000014"><a xlink:href="minigb__apu_8c.html#afa80d522c9bb7cb406745e39f90bcd2a" target="_top" xlink:title=" ">
<polygon fill="white" stroke="#666666" points="1277.25,-56.25 1197.5,-56.25 1197.5,-37 1277.25,-37 1277.25,-56.25"/>
<text xml:space="preserve" text-anchor="middle" x="1237.38" y="-42.75" font-family="Helvetica,sans-Serif" font-size="10.00">update_square</text>
</a>
</g>
</g>
<!-- Node1&#45;&gt;Node14 -->
<g id="edge14_Node000001_Node000014" class="edge">
<title>Node1&#45;&gt;Node14</title>
<g id="a_edge14_Node000001_Node000014"><a xlink:title=" ">
<path fill="none" stroke="#63b8ff" d="M1301.52,-46.62C1293.52,-46.62 1285.23,-46.62 1277.39,-46.62"/>
<polygon fill="#63b8ff" stroke="#63b8ff" points="1301.44,-50.13 1311.44,-46.63 1301.44,-43.13 1301.44,-50.13"/>
</a>
</g>
</g>
<!-- Node15 -->
<g id="Node000015" class="node">
<title>Node15</title>
<g id="a_Node000015"><a xlink:href="minigb__apu_8c.html#a58da839111967f16cd396ef4dd67af0c" target="_top" xlink:title=" ">
<polygon fill="white" stroke="#666666" points="1274.25,-19.25 1200.5,-19.25 1200.5,0 1274.25,0 1274.25,-19.25"/>
<text xml:space="preserve" text-anchor="middle" x="1237.38" y="-5.75" font-family="Helvetica,sans-Serif" font-size="10.00">update_wave</text>
</a>
</g>
</g>
<!-- Node1&#45;&gt;Node15 -->
<g id="edge16_Node000001_Node000015" class="edge">
<title>Node1&#45;&gt;Node15</title>
<g id="a_edge16_Node000001_Node000015"><a xlink:title=" ">
<path fill="none" stroke="#63b8ff" d="M1305.68,-32.82C1293.07,-28.47 1279.39,-23.76 1267.68,-19.72"/>
<polygon fill="#63b8ff" stroke="#63b8ff" points="1304.38,-36.07 1314.98,-36.02 1306.66,-29.45 1304.38,-36.07"/>
</a>
</g>
</g>
<!-- Node3 -->
<g id="Node000003" class="node">
<title>Node3</title>
<g id="a_Node000003"><a xlink:href="minigb__apu_8c.html#ac428861793d7ae4175ee3008ba8981a7" target="_top" xlink:title=" ">
<polygon fill="white" stroke="#666666" points="1161.5,-56.25 1081,-56.25 1081,-37 1161.5,-37 1161.5,-56.25"/>
<text xml:space="preserve" text-anchor="middle" x="1121.25" y="-42.75" font-family="Helvetica,sans-Serif" font-size="10.00">audio_callback</text>
</a>
</g>
</g>
<!-- Node2&#45;&gt;Node3 -->
<g id="edge2_Node000002_Node000003" class="edge">
<title>Node2&#45;&gt;Node3</title>
<g id="a_edge2_Node000002_Node000003"><a xlink:title=" ">
<path fill="none" stroke="#63b8ff" d="M1194.6,-70.08C1180.98,-65.66 1166.1,-60.84 1153.4,-56.72"/>
<polygon fill="#63b8ff" stroke="#63b8ff" points="1193.16,-73.29 1203.75,-73.05 1195.32,-66.63 1193.16,-73.29"/>
</a>
</g>
</g>
<!-- Node4 -->
<g id="Node000004" class="node">
<title>Node4</title>
<g id="a_Node000004"><a xlink:href="game__scene_8c.html#ab923ed4c6ccad95026e85e252071716d" target="_top" xlink:title=" ">
<polygon fill="white" stroke="#666666" points="1045,-56.25 925.5,-56.25 925.5,-37 1045,-37 1045,-56.25"/>
<text xml:space="preserve" text-anchor="middle" x="985.25" y="-42.75" font-family="Helvetica,sans-Serif" font-size="10.00">PGB_GameScene_new</text>
</a>
</g>
</g>
<!-- Node3&#45;&gt;Node4 -->
<g id="edge3_Node000003_Node000004" class="edge">
<title>Node3&#45;&gt;Node4</title>
<g id="a_edge3_Node000003_Node000004"><a xlink:title=" ">
<path fill="none" stroke="#63b8ff" d="M1069.49,-46.62C1061.59,-46.62 1053.38,-46.62 1045.32,-46.62"/>
<polygon fill="#63b8ff" stroke="#63b8ff" points="1069.26,-50.13 1079.26,-46.63 1069.26,-43.13 1069.26,-50.13"/>
</a>
</g>
</g>
<!-- Node5 -->
<g id="Node000005" class="node">
<title>Node5</title>
<g id="a_Node000005"><a xlink:href="library__scene_8c.html#a0728002045c9cbbd68bdd34897b28da6" target="_top" xlink:title=" ">
<polygon fill="white" stroke="#666666" points="889.5,-56.25 755.75,-56.25 755.75,-37 889.5,-37 889.5,-56.25"/>
<text xml:space="preserve" text-anchor="middle" x="822.62" y="-42.75" font-family="Helvetica,sans-Serif" font-size="10.00">PGB_LibraryScene_update</text>
</a>
</g>
</g>
<!-- Node4&#45;&gt;Node5 -->
<g id="edge4_Node000004_Node000005" class="edge">
<title>Node4&#45;&gt;Node5</title>
<g id="a_edge4_Node000004_Node000005"><a xlink:title=" ">
<path fill="none" stroke="#63b8ff" d="M914.09,-46.62C906.04,-46.62 897.84,-46.62 889.84,-46.62"/>
<polygon fill="#63b8ff" stroke="#63b8ff" points="913.84,-50.13 923.84,-46.63 913.84,-43.13 913.84,-50.13"/>
</a>
</g>
</g>
<!-- Node6 -->
<g id="Node000006" class="node">
<title>Node6</title>
<g id="a_Node000006"><a xlink:href="library__scene_8c.html#aa5c386d39121b53fba45d899df654188" target="_top" xlink:title=" ">
<polygon fill="white" stroke="#666666" points="719.75,-56.25 597.25,-56.25 597.25,-37 719.75,-37 719.75,-56.25"/>
<text xml:space="preserve" text-anchor="middle" x="658.5" y="-42.75" font-family="Helvetica,sans-Serif" font-size="10.00">PGB_LibraryScene_new</text>
</a>
</g>
</g>
<!-- Node5&#45;&gt;Node6 -->
<g id="edge5_Node000005_Node000006" class="edge">
<title>Node5&#45;&gt;Node6</title>
<g id="a_edge5_Node000005_Node000006"><a xlink:title=" ">
<path fill="none" stroke="#63b8ff" d="M744.29,-46.62C736.19,-46.62 728.04,-46.62 720.16,-46.62"/>
<polygon fill="#63b8ff" stroke="#63b8ff" points="744.17,-50.13 754.17,-46.63 744.17,-43.13 744.17,-50.13"/>
</a>
</g>
</g>
<!-- Node7 -->
<g id="Node000007" class="node">
<title>Node7</title>
<g id="a_Node000007"><a xlink:href="app_8c.html#ab80501f53b757a79772b96ec99e3dc7e" target="_top" xlink:title=" ">
<polygon fill="white" stroke="#666666" points="534.25,-99.25 441.75,-99.25 441.75,-80 534.25,-80 534.25,-99.25"/>
<text xml:space="preserve" text-anchor="middle" x="488" y="-85.75" font-family="Helvetica,sans-Serif" font-size="10.00">PGB_goToLibrary</text>
</a>
</g>
</g>
<!-- Node6&#45;&gt;Node7 -->
<g id="edge6_Node000006_Node000007" class="edge">
<title>Node6&#45;&gt;Node7</title>
<g id="a_edge6_Node000006_Node000007"><a xlink:title=" ">
<path fill="none" stroke="#63b8ff" d="M606.84,-59.55C581.76,-65.95 551.92,-73.57 528.55,-79.53"/>
<polygon fill="#63b8ff" stroke="#63b8ff" points="607.7,-62.94 616.53,-57.08 605.97,-56.16 607.7,-62.94"/>
</a>
</g>
</g>
<!-- Node10 -->
<g id="Node000010" class="node">
<title>Node10</title>
<g id="a_Node000010"><a xlink:href="image__conversion__scene_8c.html#a60d0e43ab25a8639bbb6d1f4e758edd3" target="_top" xlink:title=" ">
<polygon fill="white" stroke="#666666" points="561.25,-61.88 414.75,-61.88 414.75,-31.38 561.25,-31.38 561.25,-61.88"/>
<text xml:space="preserve" text-anchor="start" x="422.75" y="-48.38" font-family="Helvetica,sans-Serif" font-size="10.00">PGB_ImageConversionScene</text>
<text xml:space="preserve" text-anchor="middle" x="488" y="-37.12" font-family="Helvetica,sans-Serif" font-size="10.00">_update</text>
</a>
</g>
</g>
<!-- Node6&#45;&gt;Node10 -->
<g id="edge9_Node000006_Node000010" class="edge">
<title>Node6&#45;&gt;Node10</title>
<g id="a_edge9_Node000006_Node000010"><a xlink:title=" ">
<path fill="none" stroke="#63b8ff" d="M585.9,-46.62C577.86,-46.62 569.65,-46.62 561.6,-46.62"/>
<polygon fill="#63b8ff" stroke="#63b8ff" points="585.63,-50.13 595.63,-46.63 585.63,-43.13 585.63,-50.13"/>
</a>
</g>
</g>
<!-- Node12 -->
<g id="Node000012" class="node">
<title>Node12</title>
<g id="a_Node000012"><a xlink:href="app_8c.html#af256ea7a9c51fcbd49cb0007facbb8ea" target="_top" xlink:title=" ">
<polygon fill="white" stroke="#666666" points="166.25,-34.25 111.25,-34.25 111.25,-15 166.25,-15 166.25,-34.25"/>
<text xml:space="preserve" text-anchor="middle" x="138.75" y="-20.75" font-family="Helvetica,sans-Serif" font-size="10.00">PGB_init</text>
</a>
</g>
</g>
<!-- Node6&#45;&gt;Node12 -->
<g id="edge13_Node000006_Node000012" class="edge">
<title>Node6&#45;&gt;Node12</title>
<g id="a_edge13_Node000006_Node000012"><a xlink:title=" ">
<path fill="none" stroke="#63b8ff" d="M614.41,-33.49C597.95,-29.11 578.89,-24.79 561.25,-22.62 413.08,-4.43 233.4,-16.5 166.52,-22.16"/>
<polygon fill="#63b8ff" stroke="#63b8ff" points="613.32,-36.82 623.89,-36.11 615.18,-30.08 613.32,-36.82"/>
</a>
</g>
</g>
<!-- Node8 -->
<g id="Node000008" class="node">
<title>Node8</title>
<g id="a_Node000008"><a xlink:href="game__scene_8c.html#a6a4a6f0408da311dc566eb187e497889" target="_top" xlink:title=" ">
<polygon fill="white" stroke="#666666" points="360,-99.25 227.75,-99.25 227.75,-80 360,-80 360,-99.25"/>
<text xml:space="preserve" text-anchor="middle" x="293.88" y="-85.75" font-family="Helvetica,sans-Serif" font-size="10.00">PGB_LibraryConfirmModal</text>
</a>
</g>
</g>
<!-- Node7&#45;&gt;Node8 -->
<g id="edge7_Node000007_Node000008" class="edge">
<title>Node7&#45;&gt;Node8</title>
<g id="a_edge7_Node000007_Node000008"><a xlink:title=" ">
<path fill="none" stroke="#63b8ff" d="M430.03,-89.62C408.17,-89.62 383.05,-89.62 360.44,-89.62"/>
<polygon fill="#63b8ff" stroke="#63b8ff" points="429.96,-93.13 439.96,-89.63 429.96,-86.13 429.96,-93.13"/>
</a>
</g>
</g>
<!-- Node9 -->
<g id="Node000009" class="node">
<title>Node9</title>
<g id="a_Node000009"><a xlink:href="game__scene_8c.html#a113df24bb94bafcdbb9235ec8648e02f" target="_top" xlink:title=" ">
<polygon fill="white" stroke="#666666" points="173,-99.25 104.5,-99.25 104.5,-80 173,-80 173,-99.25"/>
<text xml:space="preserve" text-anchor="middle" x="138.75" y="-85.75" font-family="Helvetica,sans-Serif" font-size="10.00">__section__</text>
</a>
</g>
</g>
<!-- Node8&#45;&gt;Node9 -->
<g id="edge8_Node000008_Node000009" class="edge">
<title>Node8&#45;&gt;Node9</title>
<g id="a_edge8_Node000008_Node000009"><a xlink:title=" ">
<path fill="none" stroke="#63b8ff" d="M216.03,-89.62C200.98,-89.62 185.96,-89.62 173.27,-89.62"/>
<polygon fill="#63b8ff" stroke="#63b8ff" points="215.98,-93.13 225.98,-89.63 215.98,-86.13 215.98,-93.13"/>
</a>
</g>
</g>
<!-- Node11 -->
<g id="Node000011" class="node">
<title>Node11</title>
<g id="a_Node000011"><a xlink:href="image__conversion__scene_8c.html#aa3559936491ddf78b9cf06fcbdd32d22" target="_top" xlink:title=" ">
<polygon fill="white" stroke="#666666" points="378.75,-54.25 209,-54.25 209,-35 378.75,-35 378.75,-54.25"/>
<text xml:space="preserve" text-anchor="middle" x="293.88" y="-40.75" font-family="Helvetica,sans-Serif" font-size="10.00">PGB_ImageConversionScene_new</text>
</a>
</g>
</g>
<!-- Node10&#45;&gt;Node11 -->
<g id="edge10_Node000010_Node000011" class="edge">
<title>Node10&#45;&gt;Node11</title>
<g id="a_edge10_Node000010_Node000011"><a xlink:title=" ">
<path fill="none" stroke="#63b8ff" d="M402.94,-45.75C395.07,-45.67 387.09,-45.58 379.22,-45.5"/>
<polygon fill="#63b8ff" stroke="#63b8ff" points="402.82,-49.25 412.85,-45.85 402.89,-42.25 402.82,-49.25"/>
</a>
</g>
</g>
<!-- Node11&#45;&gt;Node12 -->
<g id="edge11_Node000011_Node000012" class="edge">
<title>Node11&#45;&gt;Node12</title>
<g id="a_edge11_Node000011_Node000012"><a xlink:title=" ">
<path fill="none" stroke="#63b8ff" d="M204.38,-33.07C190.72,-31.28 177.57,-29.56 166.75,-28.15"/>
<polygon fill="#63b8ff" stroke="#63b8ff" points="203.55,-36.49 213.91,-34.31 204.45,-29.55 203.55,-36.49"/>
</a>
</g>
</g>
<!-- Node13 -->
<g id="Node000013" class="node">
<title>Node13</title>
<g id="a_Node000013"><a xlink:href="main_8c.html#a77034286b8c64d0735c69535c5e9b732" target="_top" xlink:title=" ">
<polygon fill="white" stroke="#666666" points="68.5,-34.25 0,-34.25 0,-15 68.5,-15 68.5,-34.25"/>
<text xml:space="preserve" text-anchor="middle" x="34.25" y="-20.75" font-family="Helvetica,sans-Serif" font-size="10.00">__section__</text>
</a>
</g>
</g>
<!-- Node12&#45;&gt;Node13 -->
<g id="edge12_Node000012_Node000013" class="edge">
<title>Node12&#45;&gt;Node13</title>
<g id="a_edge12_Node000012_Node000013"><a xlink:title=" ">
<path fill="none" stroke="#63b8ff" d="M99.48,-24.62C89.46,-24.62 78.74,-24.62 68.97,-24.62"/>
<polygon fill="#63b8ff" stroke="#63b8ff" points="99.31,-28.13 109.31,-24.63 99.31,-21.13 99.31,-28.13"/>
</a>
</g>
</g>
<!-- Node14&#45;&gt;Node3 -->
<g id="edge15_Node000014_Node000003" class="edge">
<title>Node14&#45;&gt;Node3</title>
<g id="a_edge15_Node000014_Node000003"><a xlink:title=" ">
<path fill="none" stroke="#63b8ff" d="M1185.66,-46.62C1177.73,-46.62 1169.63,-46.62 1161.99,-46.62"/>
<polygon fill="#63b8ff" stroke="#63b8ff" points="1185.59,-50.13 1195.59,-46.63 1185.59,-43.13 1185.59,-50.13"/>
</a>
</g>
</g>
<!-- Node15&#45;&gt;Node3 -->
<g id="edge17_Node000015_Node000003" class="edge">
<title>Node15&#45;&gt;Node3</title>
<g id="a_edge17_Node000015_Node000003"><a xlink:title=" ">
<path fill="none" stroke="#63b8ff" d="M1194.6,-23.17C1180.98,-27.59 1166.1,-32.41 1153.4,-36.53"/>
<polygon fill="#63b8ff" stroke="#63b8ff" points="1195.32,-26.62 1203.75,-20.2 1193.16,-19.96 1195.32,-26.62"/>
</a>
</g>
</g>
</g>
</svg>
