<?xml version="1.0" encoding="UTF-8" standalone="no"?>
<!DOCTYPE svg PUBLIC "-//W3C//DTD SVG 1.1//EN"
 "http://www.w3.org/Graphics/SVG/1.1/DTD/svg11.dtd">
<!-- Generated by graphviz version 13.1.0 (20250701.0955)
 -->
<!-- Title: set_note_freq Pages: 1 -->
<!--zoomable 135 -->

<svg id="main" version="1.1" xmlns="http://www.w3.org/2000/svg" xmlns:xlink="http://www.w3.org/1999/xlink" xml:space="preserve" onload="init(evt)">

<style type="text/css"><![CDATA[
.node, .edge {opacity: 0.7;}
.node.selected, .edge.selected {opacity: 1;}
.edge:hover path { stroke: red; }
.edge:hover polygon { stroke: red; fill: red; }
]]></style>

<defs>
  <circle id="rim" cx="0" cy="0" r="7"/>
  <circle id="rim2" cx="0" cy="0" r="3.5"/>
  <g id="zoomPlus">
    <use xlink:href="#rim" fill="#404040"><set attributeName="fill" to="#808080" begin="zoomplus.mouseover" end="zoomplus.mouseout"/></use>
    <path d="M-4,0h8M0,-4v8" fill="none" stroke="white" stroke-width="1.5" pointer-events="none"/>
  </g>
  <g id="zoomMin">
    <use xlink:href="#rim" fill="#404040"><set attributeName="fill" to="#808080" begin="zoomminus.mouseover" end="zoomminus.mouseout"/></use>
    <path d="M-4,0h8" fill="none" stroke="white" stroke-width="1.5" pointer-events="none"/>
  </g>
  <g id="arrowUp" transform="translate(30 24)">
    <use xlink:href="#rim"/>
    <path pointer-events="none" fill="none" stroke="white" stroke-width="1.5" d="M0,-3.0v7 M-2.5,-0.5L0,-3.0L2.5,-0.5"/>
  </g>
  <g id="arrowRight" transform="rotate(90) translate(36 -43)">
    <use xlink:href="#rim"/>
    <path pointer-events="none" fill="none" stroke="white" stroke-width="1.5" d="M0,-3.0v7 M-2.5,-0.5L0,-3.0L2.5,-0.5"/>
  </g>
  <g id="arrowDown" transform="rotate(180) translate(-30 -48)">
    <use xlink:href="#rim"/>
    <path pointer-events="none" fill="none" stroke="white" stroke-width="1.5" d="M0,-3.0v7 M-2.5,-0.5L0,-3.0L2.5,-0.5"/>
  </g>
  <g id="arrowLeft" transform="rotate(270) translate(-36 17)">
    <use xlink:href="#rim"/>
    <path pointer-events="none" fill="none" stroke="white" stroke-width="1.5" d="M0,-3.0v7 M-2.5,-0.5L0,-3.0L2.5,-0.5"/>
  </g>
  <g id="resetDef">
    <use xlink:href="#rim2" fill="#404040"><set attributeName="fill" to="#808080" begin="reset.mouseover" end="reset.mouseout"/></use>
  </g>
</defs>
<script type="application/ecmascript">
var viewWidth = 1512;
var viewHeight = 135;
var sectionId = 'dynsection-8';
</script>
<script type="application/ecmascript" xlink:href="svg.min.js"/>
<svg id="graph" class="graph">
<g id="viewport">
<title>set_note_freq</title>
<!-- Node1 -->
<g id="Node000001" class="node">
<title>Node1</title>
<g id="a_Node000001"><a xlink:title=" ">
<polygon fill="#999999" stroke="#666666" points="1503.5,-75.25 1428.25,-75.25 1428.25,-56 1503.5,-56 1503.5,-75.25"/>
<text xml:space="preserve" text-anchor="middle" x="1465.88" y="-61.75" font-family="Helvetica,sans-Serif" font-size="10.00">set_note_freq</text>
</a>
</g>
</g>
<!-- Node2 -->
<g id="Node000002" class="node">
<title>Node2</title>
<g id="a_Node000002"><a xlink:href="minigb__apu_8c.html#a9c74de6aa8e30c9155b00b1d30ca02aa" target="_top" xlink:title=" ">
<polygon fill="white" stroke="#666666" points="1274.25,-126.25 1200.5,-126.25 1200.5,-107 1274.25,-107 1274.25,-126.25"/>
<text xml:space="preserve" text-anchor="middle" x="1237.38" y="-112.75" font-family="Helvetica,sans-Serif" font-size="10.00">update_noise</text>
</a>
</g>
</g>
<!-- Node1&#45;&gt;Node2 -->
<g id="edge1_Node000001_Node000002" class="edge">
<title>Node1&#45;&gt;Node2</title>
<g id="a_edge1_Node000001_Node000002"><a xlink:title=" ">
<path fill="none" stroke="#63b8ff" d="M1416.97,-77.73C1408.74,-79.74 1400.26,-81.78 1392.25,-83.62 1352.05,-92.91 1305.74,-102.73 1274.51,-109.21"/>
<polygon fill="#63b8ff" stroke="#63b8ff" points="1417.64,-81.17 1426.51,-75.37 1415.97,-74.37 1417.64,-81.17"/>
</a>
</g>
</g>
<!-- Node14 -->
<g id="Node000014" class="node">
<title>Node14</title>
<g id="a_Node000014"><a xlink:href="minigb__apu_8c.html#afa80d522c9bb7cb406745e39f90bcd2a" target="_top" xlink:title=" ">
<polygon fill="white" stroke="#666666" points="1277.25,-84.25 1197.5,-84.25 1197.5,-65 1277.25,-65 1277.25,-84.25"/>
<text xml:space="preserve" text-anchor="middle" x="1237.38" y="-70.75" font-family="Helvetica,sans-Serif" font-size="10.00">update_square</text>
</a>
</g>
</g>
<!-- Node1&#45;&gt;Node14 -->
<g id="edge14_Node000001_Node000014" class="edge">
<title>Node1&#45;&gt;Node14</title>
<g id="a_edge14_Node000001_Node000014"><a xlink:title=" ">
<path fill="none" stroke="#63b8ff" d="M1416.52,-67.55C1375.06,-69.19 1316.09,-71.54 1277.54,-73.07"/>
<polygon fill="#63b8ff" stroke="#63b8ff" points="1416.61,-71.05 1426.47,-67.15 1416.34,-64.05 1416.61,-71.05"/>
</a>
</g>
</g>
<!-- Node15 -->
<g id="Node000015" class="node">
<title>Node15</title>
<g id="a_Node000015"><a xlink:href="minigb__apu_8c.html#a1352fef4dfe8455479629c9bc05a3f92" target="_top" xlink:title=" ">
<polygon fill="white" stroke="#666666" points="1392.25,-56.25 1313.25,-56.25 1313.25,-37 1392.25,-37 1392.25,-56.25"/>
<text xml:space="preserve" text-anchor="middle" x="1352.75" y="-42.75" font-family="Helvetica,sans-Serif" font-size="10.00">update_sweep</text>
</a>
</g>
</g>
<!-- Node1&#45;&gt;Node15 -->
<g id="edge16_Node000001_Node000015" class="edge">
<title>Node1&#45;&gt;Node15</title>
<g id="a_edge16_Node000001_Node000015"><a xlink:title=" ">
<path fill="none" stroke="#63b8ff" d="M1416.66,-57.38C1408.59,-56 1400.3,-54.58 1392.49,-53.25"/>
<polygon fill="#63b8ff" stroke="#63b8ff" points="1415.93,-60.81 1426.38,-59.04 1417.11,-53.91 1415.93,-60.81"/>
</a>
</g>
</g>
<!-- Node16 -->
<g id="Node000016" class="node">
<title>Node16</title>
<g id="a_Node000016"><a xlink:href="minigb__apu_8c.html#a58da839111967f16cd396ef4dd67af0c" target="_top" xlink:title=" ">
<polygon fill="white" stroke="#666666" points="1389.62,-19.25 1315.88,-19.25 1315.88,0 1389.62,0 1389.62,-19.25"/>
<text xml:space="preserve" text-anchor="middle" x="1352.75" y="-5.75" font-family="Helvetica,sans-Serif" font-size="10.00">update_wave</text>
</a>
</g>
</g>
<!-- Node1&#45;&gt;Node16 -->
<g id="edge18_Node000001_Node000016" class="edge">
<title>Node1&#45;&gt;Node16</title>
<g id="a_edge18_Node000001_Node000016"><a xlink:title=" ">
<path fill="none" stroke="#63b8ff" d="M1436.19,-50.24C1422.9,-43.21 1406.84,-34.85 1392.25,-27.62 1386.96,-25.01 1381.22,-22.27 1375.82,-19.74"/>
<polygon fill="#63b8ff" stroke="#63b8ff" points="1434.37,-53.24 1444.85,-54.84 1437.66,-47.06 1434.37,-53.24"/>
</a>
</g>
</g>
<!-- Node3 -->
<g id="Node000003" class="node">
<title>Node3</title>
<g id="a_Node000003"><a xlink:href="minigb__apu_8c.html#ac428861793d7ae4175ee3008ba8981a7" target="_top" xlink:title=" ">
<polygon fill="white" stroke="#666666" points="1161.5,-84.25 1081,-84.25 1081,-65 1161.5,-65 1161.5,-84.25"/>
<text xml:space="preserve" text-anchor="middle" x="1121.25" y="-70.75" font-family="Helvetica,sans-Serif" font-size="10.00">audio_callback</text>
</a>
</g>
</g>
<!-- Node2&#45;&gt;Node3 -->
<g id="edge2_Node000002_Node000003" class="edge">
<title>Node2&#45;&gt;Node3</title>
<g id="a_edge2_Node000002_Node000003"><a xlink:title=" ">
<path fill="none" stroke="#63b8ff" d="M1198.45,-102.67C1182.53,-96.81 1164.36,-90.12 1149.76,-84.75"/>
<polygon fill="#63b8ff" stroke="#63b8ff" points="1197.03,-105.87 1207.62,-106.04 1199.44,-99.3 1197.03,-105.87"/>
</a>
</g>
</g>
<!-- Node4 -->
<g id="Node000004" class="node">
<title>Node4</title>
<g id="a_Node000004"><a xlink:href="game__scene_8c.html#ab923ed4c6ccad95026e85e252071716d" target="_top" xlink:title=" ">
<polygon fill="white" stroke="#666666" points="1045,-84.25 925.5,-84.25 925.5,-65 1045,-65 1045,-84.25"/>
<text xml:space="preserve" text-anchor="middle" x="985.25" y="-70.75" font-family="Helvetica,sans-Serif" font-size="10.00">PGB_GameScene_new</text>
</a>
</g>
</g>
<!-- Node3&#45;&gt;Node4 -->
<g id="edge3_Node000003_Node000004" class="edge">
<title>Node3&#45;&gt;Node4</title>
<g id="a_edge3_Node000003_Node000004"><a xlink:title=" ">
<path fill="none" stroke="#63b8ff" d="M1069.49,-74.62C1061.59,-74.62 1053.38,-74.62 1045.32,-74.62"/>
<polygon fill="#63b8ff" stroke="#63b8ff" points="1069.26,-78.13 1079.26,-74.63 1069.26,-71.13 1069.26,-78.13"/>
</a>
</g>
</g>
<!-- Node5 -->
<g id="Node000005" class="node">
<title>Node5</title>
<g id="a_Node000005"><a xlink:href="library__scene_8c.html#a0728002045c9cbbd68bdd34897b28da6" target="_top" xlink:title=" ">
<polygon fill="white" stroke="#666666" points="889.5,-84.25 755.75,-84.25 755.75,-65 889.5,-65 889.5,-84.25"/>
<text xml:space="preserve" text-anchor="middle" x="822.62" y="-70.75" font-family="Helvetica,sans-Serif" font-size="10.00">PGB_LibraryScene_update</text>
</a>
</g>
</g>
<!-- Node4&#45;&gt;Node5 -->
<g id="edge4_Node000004_Node000005" class="edge">
<title>Node4&#45;&gt;Node5</title>
<g id="a_edge4_Node000004_Node000005"><a xlink:title=" ">
<path fill="none" stroke="#63b8ff" d="M914.09,-74.62C906.04,-74.62 897.84,-74.62 889.84,-74.62"/>
<polygon fill="#63b8ff" stroke="#63b8ff" points="913.84,-78.13 923.84,-74.63 913.84,-71.13 913.84,-78.13"/>
</a>
</g>
</g>
<!-- Node6 -->
<g id="Node000006" class="node">
<title>Node6</title>
<g id="a_Node000006"><a xlink:href="library__scene_8c.html#aa5c386d39121b53fba45d899df654188" target="_top" xlink:title=" ">
<polygon fill="white" stroke="#666666" points="719.75,-84.25 597.25,-84.25 597.25,-65 719.75,-65 719.75,-84.25"/>
<text xml:space="preserve" text-anchor="middle" x="658.5" y="-70.75" font-family="Helvetica,sans-Serif" font-size="10.00">PGB_LibraryScene_new</text>
</a>
</g>
</g>
<!-- Node5&#45;&gt;Node6 -->
<g id="edge5_Node000005_Node000006" class="edge">
<title>Node5&#45;&gt;Node6</title>
<g id="a_edge5_Node000005_Node000006"><a xlink:title=" ">
<path fill="none" stroke="#63b8ff" d="M744.29,-74.62C736.19,-74.62 728.04,-74.62 720.16,-74.62"/>
<polygon fill="#63b8ff" stroke="#63b8ff" points="744.17,-78.13 754.17,-74.63 744.17,-71.13 744.17,-78.13"/>
</a>
</g>
</g>
<!-- Node7 -->
<g id="Node000007" class="node">
<title>Node7</title>
<g id="a_Node000007"><a xlink:href="app_8c.html#ab80501f53b757a79772b96ec99e3dc7e" target="_top" xlink:title=" ">
<polygon fill="white" stroke="#666666" points="534.25,-127.25 441.75,-127.25 441.75,-108 534.25,-108 534.25,-127.25"/>
<text xml:space="preserve" text-anchor="middle" x="488" y="-113.75" font-family="Helvetica,sans-Serif" font-size="10.00">PGB_goToLibrary</text>
</a>
</g>
</g>
<!-- Node6&#45;&gt;Node7 -->
<g id="edge6_Node000006_Node000007" class="edge">
<title>Node6&#45;&gt;Node7</title>
<g id="a_edge6_Node000006_Node000007"><a xlink:title=" ">
<path fill="none" stroke="#63b8ff" d="M606.84,-87.55C581.76,-93.95 551.92,-101.57 528.55,-107.53"/>
<polygon fill="#63b8ff" stroke="#63b8ff" points="607.7,-90.94 616.53,-85.08 605.97,-84.16 607.7,-90.94"/>
</a>
</g>
</g>
<!-- Node10 -->
<g id="Node000010" class="node">
<title>Node10</title>
<g id="a_Node000010"><a xlink:href="image__conversion__scene_8c.html#a60d0e43ab25a8639bbb6d1f4e758edd3" target="_top" xlink:title=" ">
<polygon fill="white" stroke="#666666" points="561.25,-89.88 414.75,-89.88 414.75,-59.38 561.25,-59.38 561.25,-89.88"/>
<text xml:space="preserve" text-anchor="start" x="422.75" y="-76.38" font-family="Helvetica,sans-Serif" font-size="10.00">PGB_ImageConversionScene</text>
<text xml:space="preserve" text-anchor="middle" x="488" y="-65.12" font-family="Helvetica,sans-Serif" font-size="10.00">_update</text>
</a>
</g>
</g>
<!-- Node6&#45;&gt;Node10 -->
<g id="edge9_Node000006_Node000010" class="edge">
<title>Node6&#45;&gt;Node10</title>
<g id="a_edge9_Node000006_Node000010"><a xlink:title=" ">
<path fill="none" stroke="#63b8ff" d="M585.9,-74.62C577.86,-74.62 569.65,-74.62 561.6,-74.62"/>
<polygon fill="#63b8ff" stroke="#63b8ff" points="585.63,-78.13 595.63,-74.63 585.63,-71.13 585.63,-78.13"/>
</a>
</g>
</g>
<!-- Node12 -->
<g id="Node000012" class="node">
<title>Node12</title>
<g id="a_Node000012"><a xlink:href="app_8c.html#af256ea7a9c51fcbd49cb0007facbb8ea" target="_top" xlink:title=" ">
<polygon fill="white" stroke="#666666" points="166.25,-62.25 111.25,-62.25 111.25,-43 166.25,-43 166.25,-62.25"/>
<text xml:space="preserve" text-anchor="middle" x="138.75" y="-48.75" font-family="Helvetica,sans-Serif" font-size="10.00">PGB_init</text>
</a>
</g>
</g>
<!-- Node6&#45;&gt;Node12 -->
<g id="edge13_Node000006_Node000012" class="edge">
<title>Node6&#45;&gt;Node12</title>
<g id="a_edge13_Node000006_Node000012"><a xlink:title=" ">
<path fill="none" stroke="#63b8ff" d="M614.41,-61.49C597.95,-57.11 578.89,-52.79 561.25,-50.62 413.08,-32.43 233.4,-44.5 166.52,-50.16"/>
<polygon fill="#63b8ff" stroke="#63b8ff" points="613.32,-64.82 623.89,-64.11 615.18,-58.08 613.32,-64.82"/>
</a>
</g>
</g>
<!-- Node8 -->
<g id="Node000008" class="node">
<title>Node8</title>
<g id="a_Node000008"><a xlink:href="game__scene_8c.html#a6a4a6f0408da311dc566eb187e497889" target="_top" xlink:title=" ">
<polygon fill="white" stroke="#666666" points="360,-127.25 227.75,-127.25 227.75,-108 360,-108 360,-127.25"/>
<text xml:space="preserve" text-anchor="middle" x="293.88" y="-113.75" font-family="Helvetica,sans-Serif" font-size="10.00">PGB_LibraryConfirmModal</text>
</a>
</g>
</g>
<!-- Node7&#45;&gt;Node8 -->
<g id="edge7_Node000007_Node000008" class="edge">
<title>Node7&#45;&gt;Node8</title>
<g id="a_edge7_Node000007_Node000008"><a xlink:title=" ">
<path fill="none" stroke="#63b8ff" d="M430.03,-117.62C408.17,-117.62 383.05,-117.62 360.44,-117.62"/>
<polygon fill="#63b8ff" stroke="#63b8ff" points="429.96,-121.13 439.96,-117.63 429.96,-114.13 429.96,-121.13"/>
</a>
</g>
</g>
<!-- Node9 -->
<g id="Node000009" class="node">
<title>Node9</title>
<g id="a_Node000009"><a xlink:href="game__scene_8c.html#a113df24bb94bafcdbb9235ec8648e02f" target="_top" xlink:title=" ">
<polygon fill="white" stroke="#666666" points="173,-127.25 104.5,-127.25 104.5,-108 173,-108 173,-127.25"/>
<text xml:space="preserve" text-anchor="middle" x="138.75" y="-113.75" font-family="Helvetica,sans-Serif" font-size="10.00">__section__</text>
</a>
</g>
</g>
<!-- Node8&#45;&gt;Node9 -->
<g id="edge8_Node000008_Node000009" class="edge">
<title>Node8&#45;&gt;Node9</title>
<g id="a_edge8_Node000008_Node000009"><a xlink:title=" ">
<path fill="none" stroke="#63b8ff" d="M216.03,-117.62C200.98,-117.62 185.96,-117.62 173.27,-117.62"/>
<polygon fill="#63b8ff" stroke="#63b8ff" points="215.98,-121.13 225.98,-117.63 215.98,-114.13 215.98,-121.13"/>
</a>
</g>
</g>
<!-- Node11 -->
<g id="Node000011" class="node">
<title>Node11</title>
<g id="a_Node000011"><a xlink:href="image__conversion__scene_8c.html#aa3559936491ddf78b9cf06fcbdd32d22" target="_top" xlink:title=" ">
<polygon fill="white" stroke="#666666" points="378.75,-82.25 209,-82.25 209,-63 378.75,-63 378.75,-82.25"/>
<text xml:space="preserve" text-anchor="middle" x="293.88" y="-68.75" font-family="Helvetica,sans-Serif" font-size="10.00">PGB_ImageConversionScene_new</text>
</a>
</g>
</g>
<!-- Node10&#45;&gt;Node11 -->
<g id="edge10_Node000010_Node000011" class="edge">
<title>Node10&#45;&gt;Node11</title>
<g id="a_edge10_Node000010_Node000011"><a xlink:title=" ">
<path fill="none" stroke="#63b8ff" d="M402.94,-73.75C395.07,-73.67 387.09,-73.58 379.22,-73.5"/>
<polygon fill="#63b8ff" stroke="#63b8ff" points="402.82,-77.25 412.85,-73.85 402.89,-70.25 402.82,-77.25"/>
</a>
</g>
</g>
<!-- Node11&#45;&gt;Node12 -->
<g id="edge11_Node000011_Node000012" class="edge">
<title>Node11&#45;&gt;Node12</title>
<g id="a_edge11_Node000011_Node000012"><a xlink:title=" ">
<path fill="none" stroke="#63b8ff" d="M204.38,-61.07C190.72,-59.28 177.57,-57.56 166.75,-56.15"/>
<polygon fill="#63b8ff" stroke="#63b8ff" points="203.55,-64.49 213.91,-62.31 204.45,-57.55 203.55,-64.49"/>
</a>
</g>
</g>
<!-- Node13 -->
<g id="Node000013" class="node">
<title>Node13</title>
<g id="a_Node000013"><a xlink:href="main_8c.html#a77034286b8c64d0735c69535c5e9b732" target="_top" xlink:title=" ">
<polygon fill="white" stroke="#666666" points="68.5,-62.25 0,-62.25 0,-43 68.5,-43 68.5,-62.25"/>
<text xml:space="preserve" text-anchor="middle" x="34.25" y="-48.75" font-family="Helvetica,sans-Serif" font-size="10.00">__section__</text>
</a>
</g>
</g>
<!-- Node12&#45;&gt;Node13 -->
<g id="edge12_Node000012_Node000013" class="edge">
<title>Node12&#45;&gt;Node13</title>
<g id="a_edge12_Node000012_Node000013"><a xlink:title=" ">
<path fill="none" stroke="#63b8ff" d="M99.48,-52.62C89.46,-52.62 78.74,-52.62 68.97,-52.62"/>
<polygon fill="#63b8ff" stroke="#63b8ff" points="99.31,-56.13 109.31,-52.63 99.31,-49.13 99.31,-56.13"/>
</a>
</g>
</g>
<!-- Node14&#45;&gt;Node3 -->
<g id="edge15_Node000014_Node000003" class="edge">
<title>Node14&#45;&gt;Node3</title>
<g id="a_edge15_Node000014_Node000003"><a xlink:title=" ">
<path fill="none" stroke="#63b8ff" d="M1185.66,-74.62C1177.73,-74.62 1169.63,-74.62 1161.99,-74.62"/>
<polygon fill="#63b8ff" stroke="#63b8ff" points="1185.59,-78.13 1195.59,-74.63 1185.59,-71.13 1185.59,-78.13"/>
</a>
</g>
</g>
<!-- Node15&#45;&gt;Node14 -->
<g id="edge17_Node000015_Node000014" class="edge">
<title>Node15&#45;&gt;Node14</title>
<g id="a_edge17_Node000015_Node000014"><a xlink:title=" ">
<path fill="none" stroke="#63b8ff" d="M1302.09,-58.89C1293.92,-60.91 1285.55,-62.98 1277.67,-64.92"/>
<polygon fill="#63b8ff" stroke="#63b8ff" points="1302.71,-62.34 1311.58,-56.55 1301.03,-55.55 1302.71,-62.34"/>
</a>
</g>
</g>
<!-- Node16&#45;&gt;Node3 -->
<g id="edge19_Node000016_Node000003" class="edge">
<title>Node16&#45;&gt;Node3</title>
<g id="a_edge19_Node000016_Node000003"><a xlink:title=" ">
<path fill="none" stroke="#63b8ff" d="M1305.27,-22.79C1261.73,-35.12 1197.59,-53.29 1157.94,-64.52"/>
<polygon fill="#63b8ff" stroke="#63b8ff" points="1306.02,-26.22 1314.69,-20.12 1304.11,-19.48 1306.02,-26.22"/>
</a>
</g>
</g>
</g>
</svg>

<g id="navigator" transform="translate(0 0)" fill="#404254">
  <rect fill="#f2f5e9" fill-opacity="0.5" stroke="#606060" stroke-width=".5" x="0" y="0" width="60" height="60"/>
  <use id="zoomplus" xlink:href="#zoomPlus" x="17" y="9" onmousedown="handleZoom(evt,'in')"/>
  <use id="zoomminus" xlink:href="#zoomMin" x="42" y="9" onmousedown="handleZoom(evt,'out')"/>
  <use id="reset" xlink:href="#resetDef" x="30" y="36" onmousedown="handleReset()"/>
   <use id="arrowup" xlink:href="#arrowUp" x="0" y="0" onmousedown="handlePan(0,-1)"/>
  <use id="arrowright" xlink:href="#arrowRight" x="0" y="0" onmousedown="handlePan(1,0)"/>
  <use id="arrowdown" xlink:href="#arrowDown" x="0" y="0" onmousedown="handlePan(0,1)"/>
  <use id="arrowleft" xlink:href="#arrowLeft" x="0" y="0" onmousedown="handlePan(-1,0)"/>
</g>
<svg viewBox="0 0 15 15" width="100%" height="30px" preserveAspectRatio="xMaxYMin meet">
 <g id="arrow_out" transform="scale(0.3 0.3)">
  <a xlink:href="minigb__apu_8c_af214aad764c50acab89ff3cc6bb01580_icgraph_org.svg" target="_base">
   <rect id="button" ry="5" rx="5" y="6" x="6" height="38" width="38"
        fill="#f2f5e9" fill-opacity="0.5" stroke="#606060" stroke-width="1.0"/>
   <path id="arrow"
     d="M 11.500037,31.436501 C 11.940474,20.09759 22.043105,11.32322 32.158766,21.979434 L 37.068811,17.246167 C 37.068811,17.246167 37.088388,32 37.088388,32 L 22.160133,31.978069 C 22.160133,31.978069 26.997745,27.140456 26.997745,27.140456 C 18.528582,18.264221 13.291696,25.230495 11.500037,31.436501 z"
     style="fill:#404040;"/>
  </a>
 </g>
</svg>

<style type='text/css'>
<![CDATA[
[data-mouse-over-selected='false'] { opacity: 0.7; }
[data-mouse-over-selected='true']  { opacity: 1.0; }
]]>
</style>
<script type="application/ecmascript"><![CDATA[
document.addEventListener('DOMContentLoaded', (event) => {
  highlightEdges();
  highlightAdjacentNodes();
});
]]></script>
</svg>
