<?xml version="1.0" encoding="UTF-8" standalone="no"?>
<!DOCTYPE svg PUBLIC "-//W3C//DTD SVG 1.1//EN"
 "http://www.w3.org/Graphics/SVG/1.1/DTD/svg11.dtd">
<!-- Generated by graphviz version 13.1.0 (20250701.0955)
 -->
<!-- Title: src/modal.h Pages: 1 -->
<svg width="431pt" height="83pt"
 viewBox="0.00 0.00 431.00 83.00" xmlns="http://www.w3.org/2000/svg" xmlns:xlink="http://www.w3.org/1999/xlink">
<g id="graph0" class="graph" transform="scale(1 1) rotate(0) translate(4 78.5)">
<title>src/modal.h</title>
<!-- Node1 -->
<g id="Node000001" class="node">
<title>Node1</title>
<g id="a_Node000001"><a xlink:title=" ">
<polygon fill="#999999" stroke="#666666" points="246.62,-74.5 179.62,-74.5 179.62,-55.25 246.62,-55.25 246.62,-74.5"/>
<text xml:space="preserve" text-anchor="middle" x="213.12" y="-61" font-family="Helvetica,sans-Serif" font-size="10.00">src/modal.h</text>
</a>
</g>
</g>
<!-- Node2 -->
<g id="Node000002" class="node">
<title>Node2</title>
<g id="a_Node000002"><a xlink:href="game__scene_8c.html" target="_top" xlink:title=" ">
<polygon fill="white" stroke="#666666" points="96.25,-19.25 0,-19.25 0,0 96.25,0 96.25,-19.25"/>
<text xml:space="preserve" text-anchor="middle" x="48.12" y="-5.75" font-family="Helvetica,sans-Serif" font-size="10.00">src/game_scene.c</text>
</a>
</g>
</g>
<!-- Node1&#45;&gt;Node2 -->
<g id="edge1_Node000001_Node000002" class="edge">
<title>Node1&#45;&gt;Node2</title>
<g id="a_edge1_Node000001_Node000002"><a xlink:title=" ">
<path fill="none" stroke="#63b8ff" d="M174.19,-51.31C144.11,-41.6 103.2,-28.4 76.25,-19.7"/>
<polygon fill="#63b8ff" stroke="#63b8ff" points="173.1,-54.64 183.69,-54.38 175.25,-47.97 173.1,-54.64"/>
</a>
</g>
</g>
<!-- Node3 -->
<g id="Node000003" class="node">
<title>Node3</title>
<g id="a_Node000003"><a xlink:href="library__scene_8c.html" target="_top" xlink:title=" ">
<polygon fill="white" stroke="#666666" points="212.38,-19.25 113.88,-19.25 113.88,0 212.38,0 212.38,-19.25"/>
<text xml:space="preserve" text-anchor="middle" x="163.12" y="-5.75" font-family="Helvetica,sans-Serif" font-size="10.00">src/library_scene.c</text>
</a>
</g>
</g>
<!-- Node1&#45;&gt;Node3 -->
<g id="edge2_Node000001_Node000003" class="edge">
<title>Node1&#45;&gt;Node3</title>
<g id="a_edge2_Node000001_Node000003"><a xlink:title=" ">
<path fill="none" stroke="#63b8ff" d="M197.08,-46.79C188.6,-37.75 178.52,-27.02 171.56,-19.61"/>
<polygon fill="#63b8ff" stroke="#63b8ff" points="194.44,-49.08 203.83,-53.98 199.54,-44.29 194.44,-49.08"/>
</a>
</g>
</g>
<!-- Node4 -->
<g id="Node000004" class="node">
<title>Node4</title>
<g id="a_Node000004"><a xlink:href="modal_8c.html" target="_top" xlink:title=" ">
<polygon fill="white" stroke="#666666" points="297.62,-19.25 230.62,-19.25 230.62,0 297.62,0 297.62,-19.25"/>
<text xml:space="preserve" text-anchor="middle" x="264.12" y="-5.75" font-family="Helvetica,sans-Serif" font-size="10.00">src/modal.c</text>
</a>
</g>
</g>
<!-- Node1&#45;&gt;Node4 -->
<g id="edge3_Node000001_Node000004" class="edge">
<title>Node1&#45;&gt;Node4</title>
<g id="a_edge3_Node000001_Node000004"><a xlink:title=" ">
<path fill="none" stroke="#63b8ff" d="M229.49,-46.79C238.14,-37.75 248.42,-27.02 255.52,-19.61"/>
<polygon fill="#63b8ff" stroke="#63b8ff" points="226.98,-44.35 222.59,-53.99 232.04,-49.19 226.98,-44.35"/>
</a>
</g>
</g>
<!-- Node5 -->
<g id="Node000005" class="node">
<title>Node5</title>
<g id="a_Node000005"><a xlink:href="settings__scene_8c.html" target="_top" xlink:title=" ">
<polygon fill="white" stroke="#666666" points="422.5,-19.25 315.75,-19.25 315.75,0 422.5,0 422.5,-19.25"/>
<text xml:space="preserve" text-anchor="middle" x="369.12" y="-5.75" font-family="Helvetica,sans-Serif" font-size="10.00">src/settings_scene.c</text>
</a>
</g>
</g>
<!-- Node1&#45;&gt;Node5 -->
<g id="edge4_Node000001_Node000005" class="edge">
<title>Node1&#45;&gt;Node5</title>
<g id="a_edge4_Node000001_Node000005"><a xlink:title=" ">
<path fill="none" stroke="#63b8ff" d="M250.31,-51.18C278.71,-41.49 317.16,-28.36 342.53,-19.7"/>
<polygon fill="#63b8ff" stroke="#63b8ff" points="249.35,-47.81 241.02,-54.35 251.62,-54.43 249.35,-47.81"/>
</a>
</g>
</g>
</g>
</svg>
