<?xml version="1.0" encoding="UTF-8" standalone="no"?>
<!DOCTYPE svg PUBLIC "-//W3C//DTD SVG 1.1//EN"
 "http://www.w3.org/Graphics/SVG/1.1/DTD/svg11.dtd">
<!-- Generated by graphviz version 13.1.0 (20250701.0955)
 -->
<!-- Title: peanut_gb/peanut_gb.h Pages: 1 -->
<svg width="719pt" height="315pt"
 viewBox="0.00 0.00 719.00 315.00" xmlns="http://www.w3.org/2000/svg" xmlns:xlink="http://www.w3.org/1999/xlink">
<g id="graph0" class="graph" transform="scale(1 1) rotate(0) translate(4 310.75)">
<title>peanut_gb/peanut_gb.h</title>
<!-- Node1 -->
<g id="Node000001" class="node">
<title>Node1</title>
<g id="a_Node000001"><a xlink:title=" ">
<polygon fill="#999999" stroke="#666666" points="447.75,-306.75 330.5,-306.75 330.5,-287.5 447.75,-287.5 447.75,-306.75"/>
<text xml:space="preserve" text-anchor="middle" x="389.12" y="-293.25" font-family="Helvetica,sans-Serif" font-size="10.00">peanut_gb/peanut_gb.h</text>
</a>
</g>
</g>
<!-- Node2 -->
<g id="Node000002" class="node">
<title>Node2</title>
<g id="a_Node000002"><a xlink:href="minigb__apu_8h.html" target="_top" xlink:title=" ">
<polygon fill="white" stroke="#666666" points="158.12,-251.5 52.12,-251.5 52.12,-221 158.12,-221 158.12,-251.5"/>
<text xml:space="preserve" text-anchor="start" x="60.12" y="-238" font-family="Helvetica,sans-Serif" font-size="10.00">../minigb_apu/minigb</text>
<text xml:space="preserve" text-anchor="middle" x="105.12" y="-226.75" font-family="Helvetica,sans-Serif" font-size="10.00">_apu.h</text>
</a>
</g>
</g>
<!-- Node1&#45;&gt;Node2 -->
<g id="edge1_Node000001_Node000002" class="edge">
<title>Node1&#45;&gt;Node2</title>
<g id="a_edge1_Node000001_Node000002"><a xlink:title=" ">
<path fill="none" stroke="#63b8ff" d="M341.84,-287.01C299.22,-278.71 234.54,-265.89 169.42,-251.96"/>
<polygon fill="#63b8ff" stroke="#63b8ff" points="170.53,-248.62 160.02,-249.94 169.06,-255.47 170.53,-248.62"/>
</a>
</g>
</g>
<!-- Node3 -->
<g id="Node000003" class="node">
<title>Node3</title>
<g id="a_Node000003"><a xlink:title=" ">
<polygon fill="#e0e0e0" stroke="#999999" points="48.25,-185 0,-185 0,-165.75 48.25,-165.75 48.25,-185"/>
<text xml:space="preserve" text-anchor="middle" x="24.12" y="-171.5" font-family="Helvetica,sans-Serif" font-size="10.00">stdint.h</text>
</a>
</g>
</g>
<!-- Node1&#45;&gt;Node3 -->
<g id="edge26_Node000001_Node000003" class="edge">
<title>Node1&#45;&gt;Node3</title>
<g id="a_edge26_Node000001_Node000003"><a xlink:title=" ">
<path fill="none" stroke="#63b8ff" d="M330.16,-296.27C242.71,-295.24 84.47,-288.18 43.12,-251.5 27.81,-237.92 23.99,-213.94 23.41,-196.73"/>
<polygon fill="#63b8ff" stroke="#63b8ff" points="26.91,-196.92 23.44,-186.91 19.91,-196.9 26.91,-196.92"/>
</a>
</g>
</g>
<!-- Node4 -->
<g id="Node000004" class="node">
<title>Node4</title>
<g id="a_Node000004"><a xlink:href="app_8h.html" target="_top" xlink:title=" ">
<polygon fill="white" stroke="#666666" points="241.88,-245.88 176.38,-245.88 176.38,-226.62 241.88,-226.62 241.88,-245.88"/>
<text xml:space="preserve" text-anchor="middle" x="209.12" y="-232.38" font-family="Helvetica,sans-Serif" font-size="10.00">../src/app.h</text>
</a>
</g>
</g>
<!-- Node1&#45;&gt;Node4 -->
<g id="edge3_Node000001_Node000004" class="edge">
<title>Node1&#45;&gt;Node4</title>
<g id="a_edge3_Node000001_Node000004"><a xlink:title=" ">
<path fill="none" stroke="#63b8ff" d="M361.39,-287.05C330.87,-277.07 281.61,-260.96 247.42,-249.77"/>
<polygon fill="#63b8ff" stroke="#63b8ff" points="248.92,-246.58 238.33,-246.8 246.74,-253.24 248.92,-246.58"/>
</a>
</g>
</g>
<!-- Node7 -->
<g id="Node000007" class="node">
<title>Node7</title>
<g id="a_Node000007"><a xlink:href="utility_8h.html" target="_top" xlink:title=" ">
<polygon fill="white" stroke="#666666" points="337.12,-129.75 291.12,-129.75 291.12,-110.5 337.12,-110.5 337.12,-129.75"/>
<text xml:space="preserve" text-anchor="middle" x="314.12" y="-116.25" font-family="Helvetica,sans-Serif" font-size="10.00">utility.h</text>
</a>
</g>
</g>
<!-- Node1&#45;&gt;Node7 -->
<g id="edge23_Node000001_Node000007" class="edge">
<title>Node1&#45;&gt;Node7</title>
<g id="a_edge23_Node000001_Node000007"><a xlink:title=" ">
<path fill="none" stroke="#63b8ff" d="M385.24,-287.2C377.05,-268.35 357.39,-223.07 341.12,-185 334.75,-170.08 327.61,-153.17 322.27,-140.5"/>
<polygon fill="#63b8ff" stroke="#63b8ff" points="325.64,-139.49 318.53,-131.63 319.19,-142.2 325.64,-139.49"/>
</a>
</g>
</g>
<!-- Node12 -->
<g id="Node000012" class="node">
<title>Node12</title>
<g id="a_Node000012"><a xlink:href="preferences_8h.html" target="_top" xlink:title=" ">
<polygon fill="white" stroke="#666666" points="450.5,-185 349.75,-185 349.75,-165.75 450.5,-165.75 450.5,-185"/>
<text xml:space="preserve" text-anchor="middle" x="400.12" y="-171.5" font-family="Helvetica,sans-Serif" font-size="10.00">../src/preferences.h</text>
</a>
</g>
</g>
<!-- Node1&#45;&gt;Node12 -->
<g id="edge19_Node000001_Node000012" class="edge">
<title>Node1&#45;&gt;Node12</title>
<g id="a_edge19_Node000001_Node000012"><a xlink:title=" ">
<path fill="none" stroke="#63b8ff" d="M385.94,-287.25C381.32,-273.1 373.84,-244.63 379.12,-221 381.11,-212.13 385.06,-202.94 389,-195.23"/>
<polygon fill="#63b8ff" stroke="#63b8ff" points="392.05,-196.95 393.81,-186.51 385.92,-193.57 392.05,-196.95"/>
</a>
</g>
</g>
<!-- Node14 -->
<g id="Node000014" class="node">
<title>Node14</title>
<g id="a_Node000014"><a xlink:title=" ">
<polygon fill="#e0e0e0" stroke="#999999" points="448.25,-245.88 388,-245.88 388,-226.62 448.25,-226.62 448.25,-245.88"/>
<text xml:space="preserve" text-anchor="middle" x="418.12" y="-232.38" font-family="Helvetica,sans-Serif" font-size="10.00">version.all</text>
</a>
</g>
</g>
<!-- Node1&#45;&gt;Node14 -->
<g id="edge24_Node000001_Node000014" class="edge">
<title>Node1&#45;&gt;Node14</title>
<g id="a_edge24_Node000001_Node000014"><a xlink:title=" ">
<path fill="none" stroke="#63b8ff" d="M393.53,-287.18C397.53,-279.06 403.57,-266.79 408.67,-256.45"/>
<polygon fill="#63b8ff" stroke="#63b8ff" points="411.73,-258.15 413.01,-247.63 405.45,-255.06 411.73,-258.15"/>
</a>
</g>
</g>
<!-- Node15 -->
<g id="Node000015" class="node">
<title>Node15</title>
<g id="a_Node000015"><a xlink:title=" ">
<polygon fill="#e0e0e0" stroke="#999999" points="517.75,-245.88 466.5,-245.88 466.5,-226.62 517.75,-226.62 517.75,-245.88"/>
<text xml:space="preserve" text-anchor="middle" x="492.12" y="-232.38" font-family="Helvetica,sans-Serif" font-size="10.00">stddef.h</text>
</a>
</g>
</g>
<!-- Node1&#45;&gt;Node15 -->
<g id="edge25_Node000001_Node000015" class="edge">
<title>Node1&#45;&gt;Node15</title>
<g id="a_edge25_Node000001_Node000015"><a xlink:title=" ">
<path fill="none" stroke="#63b8ff" d="M404.77,-287.18C421.1,-277.85 446.99,-263.05 466.35,-251.98"/>
<polygon fill="#63b8ff" stroke="#63b8ff" points="468.08,-255.03 475.02,-247.03 464.6,-248.95 468.08,-255.03"/>
</a>
</g>
</g>
<!-- Node16 -->
<g id="Node000016" class="node">
<title>Node16</title>
<g id="a_Node000016"><a xlink:title=" ">
<polygon fill="#e0e0e0" stroke="#999999" points="582.88,-245.88 535.38,-245.88 535.38,-226.62 582.88,-226.62 582.88,-245.88"/>
<text xml:space="preserve" text-anchor="middle" x="559.12" y="-232.38" font-family="Helvetica,sans-Serif" font-size="10.00">stdlib.h</text>
</a>
</g>
</g>
<!-- Node1&#45;&gt;Node16 -->
<g id="edge27_Node000001_Node000016" class="edge">
<title>Node1&#45;&gt;Node16</title>
<g id="a_edge27_Node000001_Node000016"><a xlink:title=" ">
<path fill="none" stroke="#63b8ff" d="M420.42,-287.04C448.61,-278.62 491.03,-265.33 527.12,-251.5 527.76,-251.26 528.41,-251 529.06,-250.75"/>
<polygon fill="#63b8ff" stroke="#63b8ff" points="530.36,-254 538.24,-246.91 527.66,-247.54 530.36,-254"/>
</a>
</g>
</g>
<!-- Node17 -->
<g id="Node000017" class="node">
<title>Node17</title>
<g id="a_Node000017"><a xlink:title=" ">
<polygon fill="#e0e0e0" stroke="#999999" points="649.25,-245.88 601,-245.88 601,-226.62 649.25,-226.62 649.25,-245.88"/>
<text xml:space="preserve" text-anchor="middle" x="625.12" y="-232.38" font-family="Helvetica,sans-Serif" font-size="10.00">string.h</text>
</a>
</g>
</g>
<!-- Node1&#45;&gt;Node17 -->
<g id="edge28_Node000001_Node000017" class="edge">
<title>Node1&#45;&gt;Node17</title>
<g id="a_edge28_Node000001_Node000017"><a xlink:title=" ">
<path fill="none" stroke="#63b8ff" d="M443.73,-287.05C485.03,-279.49 542.84,-267.4 592.12,-251.5 593.11,-251.18 594.11,-250.84 595.11,-250.49"/>
<polygon fill="#63b8ff" stroke="#63b8ff" points="596.36,-253.76 604.41,-246.87 593.82,-247.24 596.36,-253.76"/>
</a>
</g>
</g>
<!-- Node18 -->
<g id="Node000018" class="node">
<title>Node18</title>
<g id="a_Node000018"><a xlink:title=" ">
<polygon fill="#e0e0e0" stroke="#999999" points="710.62,-245.88 667.62,-245.88 667.62,-226.62 710.62,-226.62 710.62,-245.88"/>
<text xml:space="preserve" text-anchor="middle" x="689.12" y="-232.38" font-family="Helvetica,sans-Serif" font-size="10.00">time.h</text>
</a>
</g>
</g>
<!-- Node1&#45;&gt;Node18 -->
<g id="edge29_Node000001_Node000018" class="edge">
<title>Node1&#45;&gt;Node18</title>
<g id="a_edge29_Node000001_Node000018"><a xlink:title=" ">
<path fill="none" stroke="#63b8ff" d="M448.14,-290.9C503.35,-284.95 587.64,-273.12 658.12,-251.5 659.09,-251.2 660.07,-250.88 661.04,-250.54"/>
<polygon fill="#63b8ff" stroke="#63b8ff" points="662.04,-253.92 670.01,-246.94 659.42,-247.42 662.04,-253.92"/>
</a>
</g>
</g>
<!-- Node2&#45;&gt;Node3 -->
<g id="edge2_Node000002_Node000003" class="edge">
<title>Node2&#45;&gt;Node3</title>
<g id="a_edge2_Node000002_Node000003"><a xlink:title=" ">
<path fill="none" stroke="#63b8ff" d="M85.1,-220.7C73.13,-211.99 57.91,-200.93 45.67,-192.03"/>
<polygon fill="#63b8ff" stroke="#63b8ff" points="47.98,-189.39 37.84,-186.34 43.87,-195.05 47.98,-189.39"/>
</a>
</g>
</g>
<!-- Node4&#45;&gt;Node3 -->
<g id="edge17_Node000004_Node000003" class="edge">
<title>Node4&#45;&gt;Node3</title>
<g id="a_edge17_Node000004_Node000003"><a xlink:title=" ">
<path fill="none" stroke="#63b8ff" d="M182.94,-226.26C177.71,-224.49 172.25,-222.67 167.12,-221 130.56,-209.09 88.52,-196.05 59.54,-187.16"/>
<polygon fill="#63b8ff" stroke="#63b8ff" points="60.76,-183.88 50.18,-184.29 58.71,-190.57 60.76,-183.88"/>
</a>
</g>
</g>
<!-- Node5 -->
<g id="Node000005" class="node">
<title>Node5</title>
<g id="a_Node000005"><a xlink:title=" ">
<polygon fill="#e0e0e0" stroke="#999999" points="226.5,-74.5 173.75,-74.5 173.75,-55.25 226.5,-55.25 226.5,-74.5"/>
<text xml:space="preserve" text-anchor="middle" x="200.12" y="-61" font-family="Helvetica,sans-Serif" font-size="10.00">pd_api.h</text>
</a>
</g>
</g>
<!-- Node4&#45;&gt;Node5 -->
<g id="edge4_Node000004_Node000005" class="edge">
<title>Node4&#45;&gt;Node5</title>
<g id="a_edge4_Node000004_Node000005"><a xlink:title=" ">
<path fill="none" stroke="#63b8ff" d="M206.36,-226.47C203.39,-216.53 198.87,-199.79 197.12,-185 193.06,-150.5 195.62,-110.01 197.86,-86.23"/>
<polygon fill="#63b8ff" stroke="#63b8ff" points="201.33,-86.69 198.87,-76.39 194.37,-85.98 201.33,-86.69"/>
</a>
</g>
</g>
<!-- Node6 -->
<g id="Node000006" class="node">
<title>Node6</title>
<g id="a_Node000006"><a xlink:href="scene_8h.html" target="_top" xlink:title=" ">
<polygon fill="white" stroke="#666666" points="256.38,-185 205.88,-185 205.88,-165.75 256.38,-165.75 256.38,-185"/>
<text xml:space="preserve" text-anchor="middle" x="231.12" y="-171.5" font-family="Helvetica,sans-Serif" font-size="10.00">scene.h</text>
</a>
</g>
</g>
<!-- Node4&#45;&gt;Node6 -->
<g id="edge5_Node000004_Node000006" class="edge">
<title>Node4&#45;&gt;Node6</title>
<g id="a_edge5_Node000004_Node000006"><a xlink:title=" ">
<path fill="none" stroke="#63b8ff" d="M212.47,-226.31C215.47,-218.27 219.99,-206.18 223.83,-195.91"/>
<polygon fill="#63b8ff" stroke="#63b8ff" points="227,-197.41 227.22,-186.82 220.44,-194.96 227,-197.41"/>
</a>
</g>
</g>
<!-- Node4&#45;&gt;Node7 -->
<g id="edge15_Node000004_Node000007" class="edge">
<title>Node4&#45;&gt;Node7</title>
<g id="a_edge15_Node000004_Node000007"><a xlink:title=" ">
<path fill="none" stroke="#63b8ff" d="M220.42,-226.18C232.14,-216.53 250.75,-200.53 265.12,-185 278.46,-170.6 291.91,-152.77 301.34,-139.61"/>
<polygon fill="#63b8ff" stroke="#63b8ff" points="304.19,-141.65 307.09,-131.45 298.47,-137.61 304.19,-141.65"/>
</a>
</g>
</g>
<!-- Node10 -->
<g id="Node000010" class="node">
<title>Node10</title>
<g id="a_Node000010"><a xlink:title=" ">
<polygon fill="#e0e0e0" stroke="#999999" points="314.75,-19.25 269.5,-19.25 269.5,0 314.75,0 314.75,-19.25"/>
<text xml:space="preserve" text-anchor="middle" x="292.12" y="-5.75" font-family="Helvetica,sans-Serif" font-size="10.00">stdio.h</text>
</a>
</g>
</g>
<!-- Node4&#45;&gt;Node10 -->
<g id="edge18_Node000004_Node000010" class="edge">
<title>Node4&#45;&gt;Node10</title>
<g id="a_edge18_Node000004_Node000010"><a xlink:title=" ">
<path fill="none" stroke="#63b8ff" d="M202.46,-226.45C182.28,-198.64 125.51,-111.16 165.12,-55.25 186,-25.79 227.93,-15.64 257.9,-12.21"/>
<polygon fill="#63b8ff" stroke="#63b8ff" points="257.99,-15.72 267.62,-11.32 257.34,-8.75 257.99,-15.72"/>
</a>
</g>
</g>
<!-- Node11 -->
<g id="Node000011" class="node">
<title>Node11</title>
<g id="a_Node000011"><a xlink:title=" ">
<polygon fill="#e0e0e0" stroke="#999999" points="112.12,-185 66.12,-185 66.12,-165.75 112.12,-165.75 112.12,-185"/>
<text xml:space="preserve" text-anchor="middle" x="89.12" y="-171.5" font-family="Helvetica,sans-Serif" font-size="10.00">math.h</text>
</a>
</g>
</g>
<!-- Node4&#45;&gt;Node11 -->
<g id="edge16_Node000004_Node000011" class="edge">
<title>Node4&#45;&gt;Node11</title>
<g id="a_edge16_Node000004_Node000011"><a xlink:title=" ">
<path fill="none" stroke="#63b8ff" d="M190.64,-226.18C171.11,-216.6 140.09,-201.38 117.47,-190.28"/>
<polygon fill="#63b8ff" stroke="#63b8ff" points="119.31,-187.29 108.79,-186.03 116.23,-193.57 119.31,-187.29"/>
</a>
</g>
</g>
<!-- Node6&#45;&gt;Node5 -->
<g id="edge6_Node000006_Node000005" class="edge">
<title>Node6&#45;&gt;Node5</title>
<g id="a_edge6_Node000006_Node000005"><a xlink:title=" ">
<path fill="none" stroke="#63b8ff" d="M228.59,-165.5C223.64,-148.17 212.58,-109.48 205.8,-85.74"/>
<polygon fill="#63b8ff" stroke="#63b8ff" points="209.23,-84.99 203.11,-76.33 202.49,-86.91 209.23,-84.99"/>
</a>
</g>
</g>
<!-- Node6&#45;&gt;Node7 -->
<g id="edge7_Node000006_Node000007" class="edge">
<title>Node6&#45;&gt;Node7</title>
<g id="a_edge7_Node000006_Node000007"><a xlink:title=" ">
<path fill="none" stroke="#63b8ff" d="M245.2,-165.34C257.61,-157.39 275.92,-145.64 290.55,-136.25"/>
<polygon fill="#63b8ff" stroke="#63b8ff" points="292.18,-139.37 298.7,-131.02 288.4,-133.47 292.18,-139.37"/>
</a>
</g>
</g>
<!-- Node6&#45;&gt;Node10 -->
<g id="edge14_Node000006_Node000010" class="edge">
<title>Node6&#45;&gt;Node10</title>
<g id="a_edge14_Node000006_Node000010"><a xlink:title=" ">
<path fill="none" stroke="#63b8ff" d="M234.4,-165.57C243.92,-140.03 271.7,-65.45 284.94,-29.9"/>
<polygon fill="#63b8ff" stroke="#63b8ff" points="288.09,-31.48 288.3,-20.89 281.53,-29.04 288.09,-31.48"/>
</a>
</g>
</g>
<!-- Node7&#45;&gt;Node5 -->
<g id="edge11_Node000007_Node000005" class="edge">
<title>Node7&#45;&gt;Node5</title>
<g id="a_edge11_Node000007_Node000005"><a xlink:title=" ">
<path fill="none" stroke="#63b8ff" d="M294.79,-110.09C277.02,-101.79 250.41,-89.36 229.92,-79.79"/>
<polygon fill="#63b8ff" stroke="#63b8ff" points="231.47,-76.65 220.93,-75.59 228.51,-83 231.47,-76.65"/>
</a>
</g>
</g>
<!-- Node8 -->
<g id="Node000008" class="node">
<title>Node8</title>
<g id="a_Node000008"><a xlink:href="array_8h.html" target="_top" xlink:title=" ">
<polygon fill="white" stroke="#666666" points="364.38,-74.5 319.88,-74.5 319.88,-55.25 364.38,-55.25 364.38,-74.5"/>
<text xml:space="preserve" text-anchor="middle" x="342.12" y="-61" font-family="Helvetica,sans-Serif" font-size="10.00">array.h</text>
</a>
</g>
</g>
<!-- Node7&#45;&gt;Node8 -->
<g id="edge8_Node000007_Node000008" class="edge">
<title>Node7&#45;&gt;Node8</title>
<g id="a_edge8_Node000007_Node000008"><a xlink:title=" ">
<path fill="none" stroke="#63b8ff" d="M318.75,-110.33C322.37,-103.44 327.55,-93.59 332.12,-84.91"/>
<polygon fill="#63b8ff" stroke="#63b8ff" points="335.14,-86.68 336.7,-76.2 328.94,-83.42 335.14,-86.68"/>
</a>
</g>
</g>
<!-- Node9 -->
<g id="Node000009" class="node">
<title>Node9</title>
<g id="a_Node000009"><a xlink:title=" ">
<polygon fill="#e0e0e0" stroke="#999999" points="423,-19.25 367.25,-19.25 367.25,0 423,0 423,-19.25"/>
<text xml:space="preserve" text-anchor="middle" x="395.12" y="-5.75" font-family="Helvetica,sans-Serif" font-size="10.00">stdbool.h</text>
</a>
</g>
</g>
<!-- Node7&#45;&gt;Node9 -->
<g id="edge12_Node000007_Node000009" class="edge">
<title>Node7&#45;&gt;Node9</title>
<g id="a_edge12_Node000007_Node000009"><a xlink:title=" ">
<path fill="none" stroke="#63b8ff" d="M331.08,-110.06C344.23,-102.23 362.04,-89.78 373.12,-74.5 382.61,-61.42 388.26,-43.91 391.46,-30.53"/>
<polygon fill="#63b8ff" stroke="#63b8ff" points="394.8,-31.64 393.43,-21.13 387.95,-30.2 394.8,-31.64"/>
</a>
</g>
</g>
<!-- Node7&#45;&gt;Node10 -->
<g id="edge13_Node000007_Node000010" class="edge">
<title>Node7&#45;&gt;Node10</title>
<g id="a_edge13_Node000007_Node000010"><a xlink:title=" ">
<path fill="none" stroke="#63b8ff" d="M312.32,-110.25C308.83,-93 301.04,-54.58 296.22,-30.81"/>
<polygon fill="#63b8ff" stroke="#63b8ff" points="299.67,-30.22 294.25,-21.11 292.81,-31.61 299.67,-30.22"/>
</a>
</g>
</g>
<!-- Node8&#45;&gt;Node9 -->
<g id="edge9_Node000008_Node000009" class="edge">
<title>Node8&#45;&gt;Node9</title>
<g id="a_edge9_Node000008_Node000009"><a xlink:title=" ">
<path fill="none" stroke="#63b8ff" d="M350.88,-55.08C358.27,-47.65 369.09,-36.79 378.17,-27.66"/>
<polygon fill="#63b8ff" stroke="#63b8ff" points="380.54,-30.24 385.12,-20.68 375.58,-25.3 380.54,-30.24"/>
</a>
</g>
</g>
<!-- Node8&#45;&gt;Node10 -->
<g id="edge10_Node000008_Node000010" class="edge">
<title>Node8&#45;&gt;Node10</title>
<g id="a_edge10_Node000008_Node000010"><a xlink:title=" ">
<path fill="none" stroke="#63b8ff" d="M333.87,-55.08C326.96,-47.73 316.9,-37.01 308.39,-27.94"/>
<polygon fill="#63b8ff" stroke="#63b8ff" points="310.99,-25.61 301.6,-20.71 305.89,-30.4 310.99,-25.61"/>
</a>
</g>
</g>
<!-- Node12&#45;&gt;Node7 -->
<g id="edge20_Node000012_Node000007" class="edge">
<title>Node12&#45;&gt;Node7</title>
<g id="a_edge20_Node000012_Node000007"><a xlink:title=" ">
<path fill="none" stroke="#63b8ff" d="M385.54,-165.34C372.69,-157.39 353.71,-145.64 338.55,-136.25"/>
<polygon fill="#63b8ff" stroke="#63b8ff" points="340.42,-133.29 330.07,-131 336.73,-139.24 340.42,-133.29"/>
</a>
</g>
</g>
<!-- Node12&#45;&gt;Node10 -->
<g id="edge21_Node000012_Node000010" class="edge">
<title>Node12&#45;&gt;Node10</title>
<g id="a_edge21_Node000012_Node000010"><a xlink:title=" ">
<path fill="none" stroke="#63b8ff" d="M400.47,-165.28C400.8,-143.86 398.88,-89.48 373.12,-55.25 361.33,-39.57 342.33,-28.69 325.7,-21.6"/>
<polygon fill="#63b8ff" stroke="#63b8ff" points="327.21,-18.43 316.62,-18.03 324.64,-24.95 327.21,-18.43"/>
</a>
</g>
</g>
<!-- Node13 -->
<g id="Node000013" class="node">
<title>Node13</title>
<g id="a_Node000013"><a xlink:href="prefs_8x.html" target="_top" xlink:title=" ">
<polygon fill="white" stroke="#666666" points="466.12,-129.75 420.12,-129.75 420.12,-110.5 466.12,-110.5 466.12,-129.75"/>
<text xml:space="preserve" text-anchor="middle" x="443.12" y="-116.25" font-family="Helvetica,sans-Serif" font-size="10.00">prefs.x</text>
</a>
</g>
</g>
<!-- Node12&#45;&gt;Node13 -->
<g id="edge22_Node000012_Node000013" class="edge">
<title>Node12&#45;&gt;Node13</title>
<g id="a_edge22_Node000012_Node000013"><a xlink:title=" ">
<path fill="none" stroke="#63b8ff" d="M407.23,-165.58C413.04,-158.38 421.46,-147.96 428.68,-139.01"/>
<polygon fill="#63b8ff" stroke="#63b8ff" points="431.36,-141.27 434.92,-131.29 425.91,-136.87 431.36,-141.27"/>
</a>
</g>
</g>
</g>
</svg>
