<?xml version="1.0" encoding="UTF-8" standalone="no"?>
<!DOCTYPE svg PUBLIC "-//W3C//DTD SVG 1.1//EN"
 "http://www.w3.org/Graphics/SVG/1.1/DTD/svg11.dtd">
<!-- Generated by graphviz version 13.1.0 (20250701.0955)
 -->
<!-- Title: preferences_restore_subset Pages: 1 -->
<svg width="1923pt" height="265pt"
 viewBox="0.00 0.00 1923.00 265.00" xmlns="http://www.w3.org/2000/svg" xmlns:xlink="http://www.w3.org/1999/xlink">
<g id="graph0" class="graph" transform="scale(1 1) rotate(0) translate(4 261.46)">
<title>preferences_restore_subset</title>
<!-- Node1 -->
<g id="Node000001" class="node">
<title>Node1</title>
<g id="a_Node000001"><a xlink:title=" ">
<polygon fill="#999999" stroke="#666666" points="1914.75,-187.09 1812.5,-187.09 1812.5,-156.59 1914.75,-156.59 1914.75,-187.09"/>
<text xml:space="preserve" text-anchor="start" x="1820.5" y="-173.59" font-family="Helvetica,sans-Serif" font-size="10.00">preferences_restore</text>
<text xml:space="preserve" text-anchor="middle" x="1863.62" y="-162.34" font-family="Helvetica,sans-Serif" font-size="10.00">_subset</text>
</a>
</g>
</g>
<!-- Node2 -->
<g id="Node000002" class="node">
<title>Node2</title>
<g id="a_Node000002"><a xlink:href="game__scene_8c.html#ab923ed4c6ccad95026e85e252071716d" target="_top" xlink:title=" ">
<polygon fill="white" stroke="#666666" points="1771.25,-257.46 1651.75,-257.46 1651.75,-238.21 1771.25,-238.21 1771.25,-257.46"/>
<text xml:space="preserve" text-anchor="middle" x="1711.5" y="-243.96" font-family="Helvetica,sans-Serif" font-size="10.00">PGB_GameScene_new</text>
</a>
</g>
</g>
<!-- Node1&#45;&gt;Node2 -->
<g id="edge1_Node000001_Node000002" class="edge">
<title>Node1&#45;&gt;Node2</title>
<g id="a_edge1_Node000001_Node000002"><a xlink:title=" ">
<path fill="none" stroke="#63b8ff" d="M1830.2,-193.36C1814.38,-203.35 1794.86,-214.95 1776.5,-223.84 1765.82,-229.01 1753.72,-233.8 1742.93,-237.72"/>
<polygon fill="#63b8ff" stroke="#63b8ff" points="1831.71,-196.55 1838.24,-188.21 1827.94,-190.66 1831.71,-196.55"/>
</a>
</g>
</g>
<!-- Node12 -->
<g id="Node000012" class="node">
<title>Node12</title>
<g id="a_Node000012"><a xlink:href="settings__scene_8c.html#a94443c0dbbd6670bccbe9f9de4d85c5e" target="_top" xlink:title=" ">
<polygon fill="white" stroke="#666666" points="1423.88,-219.46 1296.12,-219.46 1296.12,-200.21 1423.88,-200.21 1423.88,-219.46"/>
<text xml:space="preserve" text-anchor="middle" x="1360" y="-205.96" font-family="Helvetica,sans-Serif" font-size="10.00">PGB_SettingsScene_free</text>
</a>
</g>
</g>
<!-- Node1&#45;&gt;Node12 -->
<g id="edge12_Node000001_Node000012" class="edge">
<title>Node1&#45;&gt;Node12</title>
<g id="a_edge12_Node000001_Node000012"><a xlink:title=" ">
<path fill="none" stroke="#63b8ff" d="M1801.07,-182.64C1792.83,-183.85 1784.47,-184.96 1776.5,-185.84 1652.07,-199.51 1505.76,-205.67 1424.17,-208.22"/>
<polygon fill="#63b8ff" stroke="#63b8ff" points="1801.34,-186.14 1810.7,-181.16 1800.28,-179.22 1801.34,-186.14"/>
</a>
</g>
</g>
<!-- Node13 -->
<g id="Node000013" class="node">
<title>Node13</title>
<g id="a_Node000013"><a xlink:href="settings__scene_8c.html#a7a2a61c35c00f7990b0a85f16e5c9975" target="_top" xlink:title=" ">
<polygon fill="white" stroke="#666666" points="1251.5,-181.46 1122.25,-181.46 1122.25,-162.21 1251.5,-162.21 1251.5,-181.46"/>
<text xml:space="preserve" text-anchor="middle" x="1186.88" y="-167.96" font-family="Helvetica,sans-Serif" font-size="10.00">PGB_SettingsScene_new</text>
</a>
</g>
</g>
<!-- Node1&#45;&gt;Node13 -->
<g id="edge17_Node000001_Node000013" class="edge">
<title>Node1&#45;&gt;Node13</title>
<g id="a_edge17_Node000001_Node000013"><a xlink:title=" ">
<path fill="none" stroke="#63b8ff" d="M1800.71,-171.84C1672.97,-171.84 1381.33,-171.84 1251.85,-171.84"/>
<polygon fill="#63b8ff" stroke="#63b8ff" points="1800.67,-175.34 1810.67,-171.84 1800.67,-168.34 1800.67,-175.34"/>
</a>
</g>
</g>
<!-- Node16 -->
<g id="Node000016" class="node">
<title>Node16</title>
<g id="a_Node000016"><a xlink:href="settings__scene_8c.html#ab2a60c1877e6e9ec3e98c502666c64c2" target="_top" xlink:title=" ">
<polygon fill="white" stroke="#666666" points="1430.25,-124.46 1289.75,-124.46 1289.75,-105.21 1430.25,-105.21 1430.25,-124.46"/>
<text xml:space="preserve" text-anchor="middle" x="1360" y="-110.96" font-family="Helvetica,sans-Serif" font-size="10.00">PGB_SettingsScene_update</text>
</a>
</g>
</g>
<!-- Node1&#45;&gt;Node16 -->
<g id="edge18_Node000001_Node000016" class="edge">
<title>Node1&#45;&gt;Node16</title>
<g id="a_edge18_Node000001_Node000016"><a xlink:title=" ">
<path fill="none" stroke="#63b8ff" d="M1801.03,-161.38C1792.79,-160.11 1784.45,-158.89 1776.5,-157.84 1655.19,-141.71 1513.27,-128.16 1430.62,-120.8"/>
<polygon fill="#63b8ff" stroke="#63b8ff" points="1800.23,-164.8 1810.65,-162.89 1801.32,-157.88 1800.23,-164.8"/>
</a>
</g>
</g>
<!-- Node17 -->
<g id="Node000017" class="node">
<title>Node17</title>
<g id="a_Node000017"><a xlink:href="preferences_8c.html#a4978d89645874b14ef5d1db49c0a465f" target="_top" xlink:title=" ">
<polygon fill="white" stroke="#666666" points="1776.5,-84.46 1646.5,-84.46 1646.5,-65.21 1776.5,-65.21 1776.5,-84.46"/>
<text xml:space="preserve" text-anchor="middle" x="1711.5" y="-70.96" font-family="Helvetica,sans-Serif" font-size="10.00">preferences_save_to_disk</text>
</a>
</g>
</g>
<!-- Node1&#45;&gt;Node17 -->
<g id="edge20_Node000001_Node000017" class="edge">
<title>Node1&#45;&gt;Node17</title>
<g id="a_edge20_Node000001_Node000017"><a xlink:title=" ">
<path fill="none" stroke="#63b8ff" d="M1829.2,-150.24C1797.58,-129.81 1751.54,-100.06 1727.85,-84.76"/>
<polygon fill="#63b8ff" stroke="#63b8ff" points="1826.93,-152.94 1837.23,-155.43 1830.73,-147.06 1826.93,-152.94"/>
</a>
</g>
</g>
<!-- Node3 -->
<g id="Node000003" class="node">
<title>Node3</title>
<g id="a_Node000003"><a xlink:href="library__scene_8c.html#a0728002045c9cbbd68bdd34897b28da6" target="_top" xlink:title=" ">
<polygon fill="white" stroke="#666666" points="1253.75,-247.46 1120,-247.46 1120,-228.21 1253.75,-228.21 1253.75,-247.46"/>
<text xml:space="preserve" text-anchor="middle" x="1186.88" y="-233.96" font-family="Helvetica,sans-Serif" font-size="10.00">PGB_LibraryScene_update</text>
</a>
</g>
</g>
<!-- Node2&#45;&gt;Node3 -->
<g id="edge2_Node000002_Node000003" class="edge">
<title>Node2&#45;&gt;Node3</title>
<g id="a_edge2_Node000002_Node000003"><a xlink:title=" ">
<path fill="none" stroke="#63b8ff" d="M1639.97,-246.49C1538.52,-244.55 1352.77,-240.99 1253.89,-239.1"/>
<polygon fill="#63b8ff" stroke="#63b8ff" points="1639.73,-249.98 1649.8,-246.68 1639.87,-242.99 1639.73,-249.98"/>
</a>
</g>
</g>
<!-- Node4 -->
<g id="Node000004" class="node">
<title>Node4</title>
<g id="a_Node000004"><a xlink:href="library__scene_8c.html#aa5c386d39121b53fba45d899df654188" target="_top" xlink:title=" ">
<polygon fill="white" stroke="#666666" points="719.75,-181.46 597.25,-181.46 597.25,-162.21 719.75,-162.21 719.75,-181.46"/>
<text xml:space="preserve" text-anchor="middle" x="658.5" y="-167.96" font-family="Helvetica,sans-Serif" font-size="10.00">PGB_LibraryScene_new</text>
</a>
</g>
</g>
<!-- Node3&#45;&gt;Node4 -->
<g id="edge3_Node000003_Node000004" class="edge">
<title>Node3&#45;&gt;Node4</title>
<g id="a_edge3_Node000003_Node000004"><a xlink:title=" ">
<path fill="none" stroke="#63b8ff" d="M1108.42,-231.4C1022.1,-223.75 878.51,-209.63 755.75,-190.84 739.59,-188.36 722.01,-185.07 706.35,-181.93"/>
<polygon fill="#63b8ff" stroke="#63b8ff" points="1107.92,-234.87 1118.19,-232.26 1108.53,-227.89 1107.92,-234.87"/>
</a>
</g>
</g>
<!-- Node5 -->
<g id="Node000005" class="node">
<title>Node5</title>
<g id="a_Node000005"><a xlink:href="app_8c.html#ab80501f53b757a79772b96ec99e3dc7e" target="_top" xlink:title=" ">
<polygon fill="white" stroke="#666666" points="534.25,-214.46 441.75,-214.46 441.75,-195.21 534.25,-195.21 534.25,-214.46"/>
<text xml:space="preserve" text-anchor="middle" x="488" y="-200.96" font-family="Helvetica,sans-Serif" font-size="10.00">PGB_goToLibrary</text>
</a>
</g>
</g>
<!-- Node4&#45;&gt;Node5 -->
<g id="edge4_Node000004_Node000005" class="edge">
<title>Node4&#45;&gt;Node5</title>
<g id="a_edge4_Node000004_Node000005"><a xlink:title=" ">
<path fill="none" stroke="#63b8ff" d="M594.84,-184.11C574.91,-188.01 553.24,-192.26 534.73,-195.88"/>
<polygon fill="#63b8ff" stroke="#63b8ff" points="595.4,-187.57 604.54,-182.21 594.06,-180.7 595.4,-187.57"/>
</a>
</g>
</g>
<!-- Node8 -->
<g id="Node000008" class="node">
<title>Node8</title>
<g id="a_Node000008"><a xlink:href="image__conversion__scene_8c.html#a60d0e43ab25a8639bbb6d1f4e758edd3" target="_top" xlink:title=" ">
<polygon fill="white" stroke="#666666" points="561.25,-177.09 414.75,-177.09 414.75,-146.59 561.25,-146.59 561.25,-177.09"/>
<text xml:space="preserve" text-anchor="start" x="422.75" y="-163.59" font-family="Helvetica,sans-Serif" font-size="10.00">PGB_ImageConversionScene</text>
<text xml:space="preserve" text-anchor="middle" x="488" y="-152.34" font-family="Helvetica,sans-Serif" font-size="10.00">_update</text>
</a>
</g>
</g>
<!-- Node4&#45;&gt;Node8 -->
<g id="edge7_Node000004_Node000008" class="edge">
<title>Node4&#45;&gt;Node8</title>
<g id="a_edge7_Node000004_Node000008"><a xlink:title=" ">
<path fill="none" stroke="#63b8ff" d="M585.9,-167.59C577.86,-167.11 569.65,-166.62 561.6,-166.15"/>
<polygon fill="#63b8ff" stroke="#63b8ff" points="585.44,-171.07 595.63,-168.17 585.86,-164.08 585.44,-171.07"/>
</a>
</g>
</g>
<!-- Node10 -->
<g id="Node000010" class="node">
<title>Node10</title>
<g id="a_Node000010"><a xlink:href="app_8c.html#af256ea7a9c51fcbd49cb0007facbb8ea" target="_top" xlink:title=" ">
<polygon fill="white" stroke="#666666" points="166.25,-128.46 111.25,-128.46 111.25,-109.21 166.25,-109.21 166.25,-128.46"/>
<text xml:space="preserve" text-anchor="middle" x="138.75" y="-114.96" font-family="Helvetica,sans-Serif" font-size="10.00">PGB_init</text>
</a>
</g>
</g>
<!-- Node4&#45;&gt;Node10 -->
<g id="edge11_Node000004_Node000010" class="edge">
<title>Node4&#45;&gt;Node10</title>
<g id="a_edge11_Node000004_Node000010"><a xlink:title=" ">
<path fill="none" stroke="#63b8ff" d="M624.68,-157.53C606.38,-150.25 582.96,-142.06 561.25,-137.84 414.57,-109.28 234.01,-114.17 166.7,-117.34"/>
<polygon fill="#63b8ff" stroke="#63b8ff" points="623.1,-160.67 633.68,-161.22 625.75,-154.19 623.1,-160.67"/>
</a>
</g>
</g>
<!-- Node6 -->
<g id="Node000006" class="node">
<title>Node6</title>
<g id="a_Node000006"><a xlink:href="game__scene_8c.html#a6a4a6f0408da311dc566eb187e497889" target="_top" xlink:title=" ">
<polygon fill="white" stroke="#666666" points="360,-214.46 227.75,-214.46 227.75,-195.21 360,-195.21 360,-214.46"/>
<text xml:space="preserve" text-anchor="middle" x="293.88" y="-200.96" font-family="Helvetica,sans-Serif" font-size="10.00">PGB_LibraryConfirmModal</text>
</a>
</g>
</g>
<!-- Node5&#45;&gt;Node6 -->
<g id="edge5_Node000005_Node000006" class="edge">
<title>Node5&#45;&gt;Node6</title>
<g id="a_edge5_Node000005_Node000006"><a xlink:title=" ">
<path fill="none" stroke="#63b8ff" d="M430.03,-204.84C408.17,-204.84 383.05,-204.84 360.44,-204.84"/>
<polygon fill="#63b8ff" stroke="#63b8ff" points="429.96,-208.34 439.96,-204.84 429.96,-201.34 429.96,-208.34"/>
</a>
</g>
</g>
<!-- Node7 -->
<g id="Node000007" class="node">
<title>Node7</title>
<g id="a_Node000007"><a xlink:href="game__scene_8c.html#a113df24bb94bafcdbb9235ec8648e02f" target="_top" xlink:title=" ">
<polygon fill="white" stroke="#666666" points="173,-214.46 104.5,-214.46 104.5,-195.21 173,-195.21 173,-214.46"/>
<text xml:space="preserve" text-anchor="middle" x="138.75" y="-200.96" font-family="Helvetica,sans-Serif" font-size="10.00">__section__</text>
</a>
</g>
</g>
<!-- Node6&#45;&gt;Node7 -->
<g id="edge6_Node000006_Node000007" class="edge">
<title>Node6&#45;&gt;Node7</title>
<g id="a_edge6_Node000006_Node000007"><a xlink:title=" ">
<path fill="none" stroke="#63b8ff" d="M216.03,-204.84C200.98,-204.84 185.96,-204.84 173.27,-204.84"/>
<polygon fill="#63b8ff" stroke="#63b8ff" points="215.98,-208.34 225.98,-204.84 215.98,-201.34 215.98,-208.34"/>
</a>
</g>
</g>
<!-- Node9 -->
<g id="Node000009" class="node">
<title>Node9</title>
<g id="a_Node000009"><a xlink:href="image__conversion__scene_8c.html#aa3559936491ddf78b9cf06fcbdd32d22" target="_top" xlink:title=" ">
<polygon fill="white" stroke="#666666" points="378.75,-169.46 209,-169.46 209,-150.21 378.75,-150.21 378.75,-169.46"/>
<text xml:space="preserve" text-anchor="middle" x="293.88" y="-155.96" font-family="Helvetica,sans-Serif" font-size="10.00">PGB_ImageConversionScene_new</text>
</a>
</g>
</g>
<!-- Node8&#45;&gt;Node9 -->
<g id="edge8_Node000008_Node000009" class="edge">
<title>Node8&#45;&gt;Node9</title>
<g id="a_edge8_Node000008_Node000009"><a xlink:title=" ">
<path fill="none" stroke="#63b8ff" d="M402.94,-160.96C395.07,-160.88 387.09,-160.8 379.22,-160.72"/>
<polygon fill="#63b8ff" stroke="#63b8ff" points="402.82,-164.46 412.85,-161.07 402.89,-157.46 402.82,-164.46"/>
</a>
</g>
</g>
<!-- Node9&#45;&gt;Node10 -->
<g id="edge9_Node000009_Node000010" class="edge">
<title>Node9&#45;&gt;Node10</title>
<g id="a_edge9_Node000009_Node000010"><a xlink:title=" ">
<path fill="none" stroke="#63b8ff" d="M244.39,-146.86C218.73,-139.98 188.18,-131.81 166.74,-126.06"/>
<polygon fill="#63b8ff" stroke="#63b8ff" points="243.39,-150.21 253.95,-149.42 245.2,-143.45 243.39,-150.21"/>
</a>
</g>
</g>
<!-- Node11 -->
<g id="Node000011" class="node">
<title>Node11</title>
<g id="a_Node000011"><a xlink:href="main_8c.html#a77034286b8c64d0735c69535c5e9b732" target="_top" xlink:title=" ">
<polygon fill="white" stroke="#666666" points="68.5,-128.46 0,-128.46 0,-109.21 68.5,-109.21 68.5,-128.46"/>
<text xml:space="preserve" text-anchor="middle" x="34.25" y="-114.96" font-family="Helvetica,sans-Serif" font-size="10.00">__section__</text>
</a>
</g>
</g>
<!-- Node10&#45;&gt;Node11 -->
<g id="edge10_Node000010_Node000011" class="edge">
<title>Node10&#45;&gt;Node11</title>
<g id="a_edge10_Node000010_Node000011"><a xlink:title=" ">
<path fill="none" stroke="#63b8ff" d="M99.48,-118.84C89.46,-118.84 78.74,-118.84 68.97,-118.84"/>
<polygon fill="#63b8ff" stroke="#63b8ff" points="99.31,-122.34 109.31,-118.84 99.31,-115.34 99.31,-122.34"/>
</a>
</g>
</g>
<!-- Node12&#45;&gt;Node13 -->
<g id="edge13_Node000012_Node000013" class="edge">
<title>Node12&#45;&gt;Node13</title>
<g id="a_edge13_Node000012_Node000013"><a xlink:title=" ">
<path fill="none" stroke="#63b8ff" d="M1302.48,-197.29C1279.99,-192.29 1254.45,-186.62 1233.2,-181.9"/>
<polygon fill="#63b8ff" stroke="#63b8ff" points="1301.59,-200.67 1312.11,-199.43 1303.11,-193.84 1301.59,-200.67"/>
</a>
</g>
</g>
<!-- Node14 -->
<g id="Node000014" class="node">
<title>Node14</title>
<g id="a_Node000014"><a xlink:href="library__scene_8c.html#ae9da6d35e322c1a0896926f6a66c66f1" target="_top" xlink:title=" ">
<polygon fill="white" stroke="#666666" points="1084,-181.46 920.25,-181.46 920.25,-162.21 1084,-162.21 1084,-181.46"/>
<text xml:space="preserve" text-anchor="middle" x="1002.12" y="-167.96" font-family="Helvetica,sans-Serif" font-size="10.00">PGB_LibraryScene_showSettings</text>
</a>
</g>
</g>
<!-- Node13&#45;&gt;Node14 -->
<g id="edge14_Node000013_Node000014" class="edge">
<title>Node13&#45;&gt;Node14</title>
<g id="a_edge14_Node000013_Node000014"><a xlink:title=" ">
<path fill="none" stroke="#63b8ff" d="M1110.68,-171.84C1102,-171.84 1093.11,-171.84 1084.35,-171.84"/>
<polygon fill="#63b8ff" stroke="#63b8ff" points="1110.44,-175.34 1120.44,-171.84 1110.44,-168.34 1110.44,-175.34"/>
</a>
</g>
</g>
<!-- Node15 -->
<g id="Node000015" class="node">
<title>Node15</title>
<g id="a_Node000015"><a xlink:href="library__scene_8c.html#ab295872b275c54cb2800b2b71fd163ef" target="_top" xlink:title=" ">
<polygon fill="white" stroke="#666666" points="884.25,-181.46 755.75,-181.46 755.75,-162.21 884.25,-162.21 884.25,-181.46"/>
<text xml:space="preserve" text-anchor="middle" x="820" y="-167.96" font-family="Helvetica,sans-Serif" font-size="10.00">PGB_LibraryScene_menu</text>
</a>
</g>
</g>
<!-- Node14&#45;&gt;Node15 -->
<g id="edge15_Node000014_Node000015" class="edge">
<title>Node14&#45;&gt;Node15</title>
<g id="a_edge15_Node000014_Node000015"><a xlink:title=" ">
<path fill="none" stroke="#63b8ff" d="M908.43,-171.84C900.42,-171.84 892.43,-171.84 884.73,-171.84"/>
<polygon fill="#63b8ff" stroke="#63b8ff" points="908.24,-175.34 918.24,-171.84 908.24,-168.34 908.24,-175.34"/>
</a>
</g>
</g>
<!-- Node15&#45;&gt;Node4 -->
<g id="edge16_Node000015_Node000004" class="edge">
<title>Node15&#45;&gt;Node4</title>
<g id="a_edge16_Node000015_Node000004"><a xlink:title=" ">
<path fill="none" stroke="#63b8ff" d="M744.2,-171.84C736.15,-171.84 728.04,-171.84 720.18,-171.84"/>
<polygon fill="#63b8ff" stroke="#63b8ff" points="743.99,-175.34 753.99,-171.84 743.99,-168.34 743.99,-175.34"/>
</a>
</g>
</g>
<!-- Node16&#45;&gt;Node13 -->
<g id="edge19_Node000016_Node000013" class="edge">
<title>Node16&#45;&gt;Node13</title>
<g id="a_edge19_Node000016_Node000013"><a xlink:title=" ">
<path fill="none" stroke="#63b8ff" d="M1318,-128.5C1287.24,-138.74 1245.83,-152.53 1218.06,-161.78"/>
<polygon fill="#63b8ff" stroke="#63b8ff" points="1318.98,-131.86 1327.36,-125.38 1316.77,-125.21 1318.98,-131.86"/>
</a>
</g>
</g>
<!-- Node17&#45;&gt;Node16 -->
<g id="edge23_Node000017_Node000016" class="edge">
<title>Node17&#45;&gt;Node16</title>
<g id="a_edge23_Node000017_Node000016"><a xlink:title=" ">
<path fill="none" stroke="#63b8ff" d="M1634.98,-83.48C1574.3,-90.43 1489.76,-100.1 1430.69,-106.86"/>
<polygon fill="#63b8ff" stroke="#63b8ff" points="1635.36,-86.96 1644.89,-82.35 1634.56,-80.01 1635.36,-86.96"/>
</a>
</g>
</g>
<!-- Node18 -->
<g id="Node000018" class="node">
<title>Node18</title>
<g id="a_Node000018"><a xlink:href="settings__scene_8c.html#a5cfb11a3e4e6ecfc7430e17d5e8ebc10" target="_top" xlink:title=" ">
<polygon fill="white" stroke="#666666" points="1610.5,-68.09 1466.25,-68.09 1466.25,-37.59 1610.5,-37.59 1610.5,-68.09"/>
<text xml:space="preserve" text-anchor="start" x="1474.25" y="-54.59" font-family="Helvetica,sans-Serif" font-size="10.00">PGB_SettingsScene_attempt</text>
<text xml:space="preserve" text-anchor="middle" x="1538.38" y="-43.34" font-family="Helvetica,sans-Serif" font-size="10.00">Dismiss</text>
</a>
</g>
</g>
<!-- Node17&#45;&gt;Node18 -->
<g id="edge21_Node000017_Node000018" class="edge">
<title>Node17&#45;&gt;Node18</title>
<g id="a_edge21_Node000017_Node000018"><a xlink:title=" ">
<path fill="none" stroke="#63b8ff" d="M1635.03,-65.14C1626.99,-64.1 1618.83,-63.05 1610.83,-62.02"/>
<polygon fill="#63b8ff" stroke="#63b8ff" points="1634.43,-68.59 1644.79,-66.39 1635.32,-61.64 1634.43,-68.59"/>
</a>
</g>
</g>
<!-- Node19 -->
<g id="Node000019" class="node">
<title>Node19</title>
<g id="a_Node000019"><a xlink:href="preferences_8c.html#aa547383a93cb50b718912336cddccd12" target="_top" xlink:title=" ">
<polygon fill="white" stroke="#666666" points="1044.62,-30.46 959.62,-30.46 959.62,-11.21 1044.62,-11.21 1044.62,-30.46"/>
<text xml:space="preserve" text-anchor="middle" x="1002.12" y="-16.96" font-family="Helvetica,sans-Serif" font-size="10.00">preferences_init</text>
</a>
</g>
</g>
<!-- Node17&#45;&gt;Node19 -->
<g id="edge24_Node000017_Node000019" class="edge">
<title>Node17&#45;&gt;Node19</title>
<g id="a_edge24_Node000017_Node000019"><a xlink:title=" ">
<path fill="none" stroke="#63b8ff" d="M1684.31,-59.1C1664.74,-48.27 1636.92,-34.81 1610.5,-28.84 1402.71,18.1 1144.68,-4.06 1045.06,-15.49"/>
<polygon fill="#63b8ff" stroke="#63b8ff" points="1682.54,-62.11 1692.96,-64.03 1686.01,-56.03 1682.54,-62.11"/>
</a>
</g>
</g>
<!-- Node18&#45;&gt;Node16 -->
<g id="edge22_Node000018_Node000016" class="edge">
<title>Node18&#45;&gt;Node16</title>
<g id="a_edge22_Node000018_Node000016"><a xlink:title=" ">
<path fill="none" stroke="#63b8ff" d="M1482.31,-72.19C1451.65,-82.97 1414.73,-95.95 1389.74,-104.74"/>
<polygon fill="#63b8ff" stroke="#63b8ff" points="1483.17,-75.6 1491.44,-68.98 1480.85,-69 1483.17,-75.6"/>
</a>
</g>
</g>
<!-- Node19&#45;&gt;Node10 -->
<g id="edge25_Node000019_Node000010" class="edge">
<title>Node19&#45;&gt;Node10</title>
<g id="a_edge25_Node000019_Node000010"><a xlink:title=" ">
<path fill="none" stroke="#63b8ff" d="M948.15,-30.92C881.18,-42.77 762.24,-60.84 659.5,-60.84 659.5,-60.84 659.5,-60.84 487,-60.84 365.98,-60.84 224.44,-95.53 166.51,-111.26"/>
<polygon fill="#63b8ff" stroke="#63b8ff" points="948.52,-34.41 957.75,-29.2 947.28,-27.52 948.52,-34.41"/>
</a>
</g>
</g>
</g>
</svg>
