<?xml version="1.0" encoding="UTF-8" standalone="no"?>
<!DOCTYPE svg PUBLIC "-//W3C//DTD SVG 1.1//EN"
 "http://www.w3.org/Graphics/SVG/1.1/DTD/svg11.dtd">
<!-- Generated by graphviz version 13.1.0 (20250701.0955)
 -->
<!-- Title: src/preferences.h Pages: 1 -->
<svg width="302pt" height="193pt"
 viewBox="0.00 0.00 302.00 193.00" xmlns="http://www.w3.org/2000/svg" xmlns:xlink="http://www.w3.org/1999/xlink">

<svg id="main" version="1.1" xmlns="http://www.w3.org/2000/svg" xmlns:xlink="http://www.w3.org/1999/xlink" xml:space="preserve">

<style type="text/css"><![CDATA[
.node, .edge {opacity: 0.7;}
.node.selected, .edge.selected {opacity: 1;}
.edge:hover path { stroke: red; }
.edge:hover polygon { stroke: red; fill: red; }
]]></style>
<script type="application/ecmascript" xlink:href="svg.min.js"/>
<svg id="graph" class="graph">
<g id="graph0" class="graph" transform="scale(1 1) rotate(0) translate(4 189)">
<title>src/preferences.h</title>
<!-- Node1 -->
<g id="Node000001" class="node">
<title>Node1</title>
<g id="a_Node000001"><a xlink:title=" ">
<polygon fill="#999999" stroke="#666666" points="265.75,-185 174,-185 174,-165.75 265.75,-165.75 265.75,-185"/>
<text xml:space="preserve" text-anchor="middle" x="219.88" y="-171.5" font-family="Helvetica,sans-Serif" font-size="10.00">src/preferences.h</text>
</a>
</g>
</g>
<!-- Node2 -->
<g id="Node000002" class="node">
<title>Node2</title>
<g id="a_Node000002"><a xlink:href="utility_8h.html" target="_top" xlink:title=" ">
<polygon fill="white" stroke="#666666" points="134.88,-129.75 88.88,-129.75 88.88,-110.5 134.88,-110.5 134.88,-129.75"/>
<text xml:space="preserve" text-anchor="middle" x="111.88" y="-116.25" font-family="Helvetica,sans-Serif" font-size="10.00">utility.h</text>
</a>
</g>
</g>
<!-- Node1&#45;&gt;Node2 -->
<g id="edge1_Node000001_Node000002" class="edge">
<title>Node1&#45;&gt;Node2</title>
<g id="a_edge1_Node000001_Node000002"><a xlink:title=" ">
<path fill="none" stroke="#63b8ff" d="M201.55,-165.34C184.8,-157.08 159.74,-144.73 140.37,-135.18"/>
<polygon fill="#63b8ff" stroke="#63b8ff" points="142.16,-132.15 131.64,-130.87 139.06,-138.43 142.16,-132.15"/>
</a>
</g>
</g>
<!-- Node5 -->
<g id="Node000005" class="node">
<title>Node5</title>
<g id="a_Node000005"><a xlink:title=" ">
<polygon fill="#e0e0e0" stroke="#999999" points="134.5,-19.25 89.25,-19.25 89.25,0 134.5,0 134.5,-19.25"/>
<text xml:space="preserve" text-anchor="middle" x="111.88" y="-5.75" font-family="Helvetica,sans-Serif" font-size="10.00">stdio.h</text>
</a>
</g>
</g>
<!-- Node1&#45;&gt;Node5 -->
<g id="edge8_Node000001_Node000005" class="edge">
<title>Node1&#45;&gt;Node5</title>
<g id="a_edge8_Node000001_Node000005"><a xlink:title=" ">
<path fill="none" stroke="#63b8ff" d="M221.03,-165.27C223.25,-143.82 225.87,-89.38 200.88,-55.25 187.56,-37.06 164.71,-25.83 145.5,-19.18"/>
<polygon fill="#63b8ff" stroke="#63b8ff" points="146.75,-15.9 136.16,-16.23 144.64,-22.58 146.75,-15.9"/>
</a>
</g>
</g>
<!-- Node7 -->
<g id="Node000007" class="node">
<title>Node7</title>
<g id="a_Node000007"><a xlink:href="prefs_8x.html" target="_top" xlink:title=" ">
<polygon fill="white" stroke="#666666" points="293.88,-129.75 247.88,-129.75 247.88,-110.5 293.88,-110.5 293.88,-129.75"/>
<text xml:space="preserve" text-anchor="middle" x="270.88" y="-116.25" font-family="Helvetica,sans-Serif" font-size="10.00">prefs.x</text>
</a>
</g>
</g>
<!-- Node1&#45;&gt;Node7 -->
<g id="edge9_Node000001_Node000007" class="edge">
<title>Node1&#45;&gt;Node7</title>
<g id="a_edge9_Node000001_Node000007"><a xlink:title=" ">
<path fill="none" stroke="#63b8ff" d="M228.3,-165.58C235.41,-158.15 245.82,-147.29 254.56,-138.16"/>
<polygon fill="#63b8ff" stroke="#63b8ff" points="256.83,-140.85 261.22,-131.2 251.78,-136 256.83,-140.85"/>
</a>
</g>
</g>
<!-- Node3 -->
<g id="Node000003" class="node">
<title>Node3</title>
<g id="a_Node000003"><a xlink:href="array_8h.html" target="_top" xlink:title=" ">
<polygon fill="white" stroke="#666666" points="84.12,-74.5 39.62,-74.5 39.62,-55.25 84.12,-55.25 84.12,-74.5"/>
<text xml:space="preserve" text-anchor="middle" x="61.88" y="-61" font-family="Helvetica,sans-Serif" font-size="10.00">array.h</text>
</a>
</g>
</g>
<!-- Node2&#45;&gt;Node3 -->
<g id="edge2_Node000002_Node000003" class="edge">
<title>Node2&#45;&gt;Node3</title>
<g id="a_edge2_Node000002_Node000003"><a xlink:title=" ">
<path fill="none" stroke="#63b8ff" d="M103.62,-110.33C96.71,-102.98 86.65,-92.26 78.14,-83.19"/>
<polygon fill="#63b8ff" stroke="#63b8ff" points="80.74,-80.86 71.35,-75.96 75.64,-85.65 80.74,-80.86"/>
</a>
</g>
</g>
<!-- Node4 -->
<g id="Node000004" class="node">
<title>Node4</title>
<g id="a_Node000004"><a xlink:title=" ">
<polygon fill="#e0e0e0" stroke="#999999" points="55.75,-19.25 0,-19.25 0,0 55.75,0 55.75,-19.25"/>
<text xml:space="preserve" text-anchor="middle" x="27.88" y="-5.75" font-family="Helvetica,sans-Serif" font-size="10.00">stdbool.h</text>
</a>
</g>
</g>
<!-- Node2&#45;&gt;Node4 -->
<g id="edge6_Node000002_Node000004" class="edge">
<title>Node2&#45;&gt;Node4</title>
<g id="a_edge6_Node000002_Node000004"><a xlink:title=" ">
<path fill="none" stroke="#63b8ff" d="M88.64,-113.15C69.57,-106.91 43.69,-95.08 30.88,-74.5 22.87,-61.65 22.54,-44.36 23.99,-31.01"/>
<polygon fill="#63b8ff" stroke="#63b8ff" points="27.44,-31.6 25.49,-21.18 20.52,-30.54 27.44,-31.6"/>
</a>
</g>
</g>
<!-- Node2&#45;&gt;Node5 -->
<g id="edge7_Node000002_Node000005" class="edge">
<title>Node2&#45;&gt;Node5</title>
<g id="a_edge7_Node000002_Node000005"><a xlink:title=" ">
<path fill="none" stroke="#63b8ff" d="M111.88,-110.25C111.88,-93 111.88,-54.58 111.88,-30.81"/>
<polygon fill="#63b8ff" stroke="#63b8ff" points="115.38,-31.14 111.88,-21.14 108.38,-31.14 115.38,-31.14"/>
</a>
</g>
</g>
<!-- Node6 -->
<g id="Node000006" class="node">
<title>Node6</title>
<g id="a_Node000006"><a xlink:title=" ">
<polygon fill="#e0e0e0" stroke="#999999" points="192.25,-74.5 139.5,-74.5 139.5,-55.25 192.25,-55.25 192.25,-74.5"/>
<text xml:space="preserve" text-anchor="middle" x="165.88" y="-61" font-family="Helvetica,sans-Serif" font-size="10.00">pd_api.h</text>
</a>
</g>
</g>
<!-- Node2&#45;&gt;Node6 -->
<g id="edge5_Node000002_Node000006" class="edge">
<title>Node2&#45;&gt;Node6</title>
<g id="a_edge5_Node000002_Node000006"><a xlink:title=" ">
<path fill="none" stroke="#63b8ff" d="M120.79,-110.33C128.33,-102.9 139.34,-92.04 148.6,-82.91"/>
<polygon fill="#63b8ff" stroke="#63b8ff" points="151.02,-85.44 155.69,-75.92 146.11,-80.45 151.02,-85.44"/>
</a>
</g>
</g>
<!-- Node3&#45;&gt;Node4 -->
<g id="edge3_Node000003_Node000004" class="edge">
<title>Node3&#45;&gt;Node4</title>
<g id="a_edge3_Node000003_Node000004"><a xlink:title=" ">
<path fill="none" stroke="#63b8ff" d="M56.26,-55.08C51.76,-48.03 45.29,-37.9 39.66,-29.08"/>
<polygon fill="#63b8ff" stroke="#63b8ff" points="42.76,-27.43 34.43,-20.88 36.86,-31.2 42.76,-27.43"/>
</a>
</g>
</g>
<!-- Node3&#45;&gt;Node5 -->
<g id="edge4_Node000003_Node000005" class="edge">
<title>Node3&#45;&gt;Node5</title>
<g id="a_edge4_Node000003_Node000005"><a xlink:title=" ">
<path fill="none" stroke="#63b8ff" d="M70.13,-55.08C77.04,-47.73 87.1,-37.01 95.61,-27.94"/>
<polygon fill="#63b8ff" stroke="#63b8ff" points="98.11,-30.4 102.4,-20.71 93.01,-25.61 98.11,-30.4"/>
</a>
</g>
</g>
</g>
</svg>
</svg>

<style type='text/css'>
<![CDATA[
[data-mouse-over-selected='false'] { opacity: 0.7; }
[data-mouse-over-selected='true']  { opacity: 1.0; }
]]>
</style>
<script type="application/ecmascript"><![CDATA[
document.addEventListener('DOMContentLoaded', (event) => {
  highlightEdges();
  highlightAdjacentNodes();
});
]]></script>
</svg>
