<?xml version="1.0" encoding="UTF-8" standalone="no"?>
<!DOCTYPE svg PUBLIC "-//W3C//DTD SVG 1.1//EN"
 "http://www.w3.org/Graphics/SVG/1.1/DTD/svg11.dtd">
<!-- Generated by graphviz version 13.1.0 (20250701.0955)
 -->
<!-- Title: preferences_store_subset Pages: 1 -->
<!--zoomable 215 -->

<svg id="main" version="1.1" xmlns="http://www.w3.org/2000/svg" xmlns:xlink="http://www.w3.org/1999/xlink" xml:space="preserve" onload="init(evt)">

<style type="text/css"><![CDATA[
.node, .edge {opacity: 0.7;}
.node.selected, .edge.selected {opacity: 1;}
.edge:hover path { stroke: red; }
.edge:hover polygon { stroke: red; fill: red; }
]]></style>

<defs>
  <circle id="rim" cx="0" cy="0" r="7"/>
  <circle id="rim2" cx="0" cy="0" r="3.5"/>
  <g id="zoomPlus">
    <use xlink:href="#rim" fill="#404040"><set attributeName="fill" to="#808080" begin="zoomplus.mouseover" end="zoomplus.mouseout"/></use>
    <path d="M-4,0h8M0,-4v8" fill="none" stroke="white" stroke-width="1.5" pointer-events="none"/>
  </g>
  <g id="zoomMin">
    <use xlink:href="#rim" fill="#404040"><set attributeName="fill" to="#808080" begin="zoomminus.mouseover" end="zoomminus.mouseout"/></use>
    <path d="M-4,0h8" fill="none" stroke="white" stroke-width="1.5" pointer-events="none"/>
  </g>
  <g id="arrowUp" transform="translate(30 24)">
    <use xlink:href="#rim"/>
    <path pointer-events="none" fill="none" stroke="white" stroke-width="1.5" d="M0,-3.0v7 M-2.5,-0.5L0,-3.0L2.5,-0.5"/>
  </g>
  <g id="arrowRight" transform="rotate(90) translate(36 -43)">
    <use xlink:href="#rim"/>
    <path pointer-events="none" fill="none" stroke="white" stroke-width="1.5" d="M0,-3.0v7 M-2.5,-0.5L0,-3.0L2.5,-0.5"/>
  </g>
  <g id="arrowDown" transform="rotate(180) translate(-30 -48)">
    <use xlink:href="#rim"/>
    <path pointer-events="none" fill="none" stroke="white" stroke-width="1.5" d="M0,-3.0v7 M-2.5,-0.5L0,-3.0L2.5,-0.5"/>
  </g>
  <g id="arrowLeft" transform="rotate(270) translate(-36 17)">
    <use xlink:href="#rim"/>
    <path pointer-events="none" fill="none" stroke="white" stroke-width="1.5" d="M0,-3.0v7 M-2.5,-0.5L0,-3.0L2.5,-0.5"/>
  </g>
  <g id="resetDef">
    <use xlink:href="#rim2" fill="#404040"><set attributeName="fill" to="#808080" begin="reset.mouseover" end="reset.mouseout"/></use>
  </g>
</defs>
<script type="application/ecmascript">
var viewWidth = 1945;
var viewHeight = 215;
var sectionId = 'dynsection-7';
</script>
<script type="application/ecmascript" xlink:href="svg.min.js"/>
<svg id="graph" class="graph">
<g id="viewport">
<title>preferences_store_subset</title>
<!-- Node1 -->
<g id="Node000001" class="node">
<title>Node1</title>
<g id="a_Node000001"><a xlink:title=" ">
<polygon fill="#999999" stroke="#666666" points="1936.5,-149.61 1808,-149.61 1808,-130.36 1936.5,-130.36 1936.5,-149.61"/>
<text xml:space="preserve" text-anchor="middle" x="1872.25" y="-136.11" font-family="Helvetica,sans-Serif" font-size="10.00">preferences_store_subset</text>
</a>
</g>
</g>
<!-- Node2 -->
<g id="Node000002" class="node">
<title>Node2</title>
<g id="a_Node000002"><a xlink:href="game__scene_8c.html#ab923ed4c6ccad95026e85e252071716d" target="_top" xlink:title=" ">
<polygon fill="white" stroke="#666666" points="1766.75,-206.61 1647.25,-206.61 1647.25,-187.36 1766.75,-187.36 1766.75,-206.61"/>
<text xml:space="preserve" text-anchor="middle" x="1707" y="-193.11" font-family="Helvetica,sans-Serif" font-size="10.00">PGB_GameScene_new</text>
</a>
</g>
</g>
<!-- Node1&#45;&gt;Node2 -->
<g id="edge1_Node000001_Node000002" class="edge">
<title>Node1&#45;&gt;Node2</title>
<g id="a_edge1_Node000001_Node000002"><a xlink:title=" ">
<path fill="none" stroke="#63b8ff" d="M1831.75,-153.78C1802.45,-164.01 1763.17,-177.72 1736.8,-186.93"/>
<polygon fill="#63b8ff" stroke="#63b8ff" points="1832.72,-157.14 1841.01,-150.54 1830.42,-150.53 1832.72,-157.14"/>
</a>
</g>
</g>
<!-- Node12 -->
<g id="Node000012" class="node">
<title>Node12</title>
<g id="a_Node000012"><a xlink:href="settings__scene_8c.html#a7a2a61c35c00f7990b0a85f16e5c9975" target="_top" xlink:title=" ">
<polygon fill="white" stroke="#666666" points="1249.25,-120.61 1120,-120.61 1120,-101.36 1249.25,-101.36 1249.25,-120.61"/>
<text xml:space="preserve" text-anchor="middle" x="1184.62" y="-107.11" font-family="Helvetica,sans-Serif" font-size="10.00">PGB_SettingsScene_new</text>
</a>
</g>
</g>
<!-- Node1&#45;&gt;Node12 -->
<g id="edge12_Node000001_Node000012" class="edge">
<title>Node1&#45;&gt;Node12</title>
<g id="a_edge12_Node000001_Node000012"><a xlink:title=" ">
<path fill="none" stroke="#63b8ff" d="M1796.22,-141.66C1788.04,-141.79 1779.85,-141.9 1772,-141.98 1555.48,-144.17 1501.1,-138.16 1285.25,-120.98 1273.73,-120.07 1261.47,-118.95 1249.63,-117.8"/>
<polygon fill="#63b8ff" stroke="#63b8ff" points="1796.27,-145.16 1806.2,-141.48 1796.14,-138.16 1796.27,-145.16"/>
</a>
</g>
</g>
<!-- Node15 -->
<g id="Node000015" class="node">
<title>Node15</title>
<g id="a_Node000015"><a xlink:href="settings__scene_8c.html#ab2a60c1877e6e9ec3e98c502666c64c2" target="_top" xlink:title=" ">
<polygon fill="white" stroke="#666666" points="1425.75,-111.61 1285.25,-111.61 1285.25,-92.36 1425.75,-92.36 1425.75,-111.61"/>
<text xml:space="preserve" text-anchor="middle" x="1355.5" y="-98.11" font-family="Helvetica,sans-Serif" font-size="10.00">PGB_SettingsScene_update</text>
</a>
</g>
</g>
<!-- Node1&#45;&gt;Node15 -->
<g id="edge16_Node000001_Node000015" class="edge">
<title>Node1&#45;&gt;Node15</title>
<g id="a_edge16_Node000001_Node000015"><a xlink:title=" ">
<path fill="none" stroke="#63b8ff" d="M1796.17,-134.44C1696.75,-127.1 1522.76,-114.26 1426.15,-107.13"/>
<polygon fill="#63b8ff" stroke="#63b8ff" points="1795.88,-137.93 1806.11,-135.17 1796.39,-130.95 1795.88,-137.93"/>
</a>
</g>
</g>
<!-- Node16 -->
<g id="Node000016" class="node">
<title>Node16</title>
<g id="a_Node000016"><a xlink:href="preferences_8c.html#a4978d89645874b14ef5d1db49c0a465f" target="_top" xlink:title=" ">
<polygon fill="white" stroke="#666666" points="1772,-71.61 1642,-71.61 1642,-52.36 1772,-52.36 1772,-71.61"/>
<text xml:space="preserve" text-anchor="middle" x="1707" y="-58.11" font-family="Helvetica,sans-Serif" font-size="10.00">preferences_save_to_disk</text>
</a>
</g>
</g>
<!-- Node1&#45;&gt;Node16 -->
<g id="edge18_Node000001_Node000016" class="edge">
<title>Node1&#45;&gt;Node16</title>
<g id="a_edge18_Node000001_Node000016"><a xlink:title=" ">
<path fill="none" stroke="#63b8ff" d="M1839.93,-125.02C1807.39,-109.47 1757.36,-85.57 1729.19,-72.11"/>
<polygon fill="#63b8ff" stroke="#63b8ff" points="1838.34,-128.14 1848.88,-129.29 1841.36,-121.82 1838.34,-128.14"/>
</a>
</g>
</g>
<!-- Node3 -->
<g id="Node000003" class="node">
<title>Node3</title>
<g id="a_Node000003"><a xlink:href="library__scene_8c.html#a0728002045c9cbbd68bdd34897b28da6" target="_top" xlink:title=" ">
<polygon fill="white" stroke="#666666" points="1422.38,-206.61 1288.62,-206.61 1288.62,-187.36 1422.38,-187.36 1422.38,-206.61"/>
<text xml:space="preserve" text-anchor="middle" x="1355.5" y="-193.11" font-family="Helvetica,sans-Serif" font-size="10.00">PGB_LibraryScene_update</text>
</a>
</g>
</g>
<!-- Node2&#45;&gt;Node3 -->
<g id="edge2_Node000002_Node000003" class="edge">
<title>Node2&#45;&gt;Node3</title>
<g id="a_edge2_Node000002_Node000003"><a xlink:title=" ">
<path fill="none" stroke="#63b8ff" d="M1635.85,-196.98C1573.73,-196.98 1483.72,-196.98 1422.79,-196.98"/>
<polygon fill="#63b8ff" stroke="#63b8ff" points="1635.59,-200.48 1645.59,-196.98 1635.59,-193.48 1635.59,-200.48"/>
</a>
</g>
</g>
<!-- Node4 -->
<g id="Node000004" class="node">
<title>Node4</title>
<g id="a_Node000004"><a xlink:href="library__scene_8c.html#aa5c386d39121b53fba45d899df654188" target="_top" xlink:title=" ">
<polygon fill="white" stroke="#666666" points="719.75,-120.61 597.25,-120.61 597.25,-101.36 719.75,-101.36 719.75,-120.61"/>
<text xml:space="preserve" text-anchor="middle" x="658.5" y="-107.11" font-family="Helvetica,sans-Serif" font-size="10.00">PGB_LibraryScene_new</text>
</a>
</g>
</g>
<!-- Node3&#45;&gt;Node4 -->
<g id="edge3_Node000003_Node000004" class="edge">
<title>Node3&#45;&gt;Node4</title>
<g id="a_edge3_Node000003_Node000004"><a xlink:title=" ">
<path fill="none" stroke="#63b8ff" d="M1276.84,-190.38C1162.41,-180.18 941.89,-158.72 755.75,-129.98 739.59,-127.49 722.02,-124.19 706.36,-121.05"/>
<polygon fill="#63b8ff" stroke="#63b8ff" points="1276.48,-193.86 1286.75,-191.26 1277.09,-186.89 1276.48,-193.86"/>
</a>
</g>
</g>
<!-- Node5 -->
<g id="Node000005" class="node">
<title>Node5</title>
<g id="a_Node000005"><a xlink:href="app_8c.html#ab80501f53b757a79772b96ec99e3dc7e" target="_top" xlink:title=" ">
<polygon fill="white" stroke="#666666" points="534.25,-162.61 441.75,-162.61 441.75,-143.36 534.25,-143.36 534.25,-162.61"/>
<text xml:space="preserve" text-anchor="middle" x="488" y="-149.11" font-family="Helvetica,sans-Serif" font-size="10.00">PGB_goToLibrary</text>
</a>
</g>
</g>
<!-- Node4&#45;&gt;Node5 -->
<g id="edge4_Node000004_Node000005" class="edge">
<title>Node4&#45;&gt;Node5</title>
<g id="a_edge4_Node000004_Node000005"><a xlink:title=" ">
<path fill="none" stroke="#63b8ff" d="M606.2,-123.77C581.63,-129.89 552.62,-137.12 529.61,-142.86"/>
<polygon fill="#63b8ff" stroke="#63b8ff" points="606.81,-127.22 615.67,-121.41 605.12,-120.43 606.81,-127.22"/>
</a>
</g>
</g>
<!-- Node8 -->
<g id="Node000008" class="node">
<title>Node8</title>
<g id="a_Node000008"><a xlink:href="image__conversion__scene_8c.html#a60d0e43ab25a8639bbb6d1f4e758edd3" target="_top" xlink:title=" ">
<polygon fill="white" stroke="#666666" points="561.25,-125.23 414.75,-125.23 414.75,-94.73 561.25,-94.73 561.25,-125.23"/>
<text xml:space="preserve" text-anchor="start" x="422.75" y="-111.73" font-family="Helvetica,sans-Serif" font-size="10.00">PGB_ImageConversionScene</text>
<text xml:space="preserve" text-anchor="middle" x="488" y="-100.48" font-family="Helvetica,sans-Serif" font-size="10.00">_update</text>
</a>
</g>
</g>
<!-- Node4&#45;&gt;Node8 -->
<g id="edge7_Node000004_Node000008" class="edge">
<title>Node4&#45;&gt;Node8</title>
<g id="a_edge7_Node000004_Node000008"><a xlink:title=" ">
<path fill="none" stroke="#63b8ff" d="M585.9,-110.56C577.86,-110.51 569.65,-110.46 561.6,-110.41"/>
<polygon fill="#63b8ff" stroke="#63b8ff" points="585.61,-114.06 595.63,-110.62 585.65,-107.06 585.61,-114.06"/>
</a>
</g>
</g>
<!-- Node10 -->
<g id="Node000010" class="node">
<title>Node10</title>
<g id="a_Node000010"><a xlink:href="app_8c.html#af256ea7a9c51fcbd49cb0007facbb8ea" target="_top" xlink:title=" ">
<polygon fill="white" stroke="#666666" points="166.25,-76.61 111.25,-76.61 111.25,-57.36 166.25,-57.36 166.25,-76.61"/>
<text xml:space="preserve" text-anchor="middle" x="138.75" y="-63.11" font-family="Helvetica,sans-Serif" font-size="10.00">PGB_init</text>
</a>
</g>
</g>
<!-- Node4&#45;&gt;Node10 -->
<g id="edge11_Node000004_Node000010" class="edge">
<title>Node4&#45;&gt;Node10</title>
<g id="a_edge11_Node000004_Node000010"><a xlink:title=" ">
<path fill="none" stroke="#63b8ff" d="M614.78,-97.84C598.22,-93.29 579,-88.66 561.25,-85.98 413.49,-63.71 233.56,-64.87 166.57,-66.26"/>
<polygon fill="#63b8ff" stroke="#63b8ff" points="613.73,-101.18 624.31,-100.54 615.64,-94.45 613.73,-101.18"/>
</a>
</g>
</g>
<!-- Node6 -->
<g id="Node000006" class="node">
<title>Node6</title>
<g id="a_Node000006"><a xlink:href="game__scene_8c.html#a6a4a6f0408da311dc566eb187e497889" target="_top" xlink:title=" ">
<polygon fill="white" stroke="#666666" points="360,-162.61 227.75,-162.61 227.75,-143.36 360,-143.36 360,-162.61"/>
<text xml:space="preserve" text-anchor="middle" x="293.88" y="-149.11" font-family="Helvetica,sans-Serif" font-size="10.00">PGB_LibraryConfirmModal</text>
</a>
</g>
</g>
<!-- Node5&#45;&gt;Node6 -->
<g id="edge5_Node000005_Node000006" class="edge">
<title>Node5&#45;&gt;Node6</title>
<g id="a_edge5_Node000005_Node000006"><a xlink:title=" ">
<path fill="none" stroke="#63b8ff" d="M430.03,-152.98C408.17,-152.98 383.05,-152.98 360.44,-152.98"/>
<polygon fill="#63b8ff" stroke="#63b8ff" points="429.96,-156.48 439.96,-152.98 429.96,-149.48 429.96,-156.48"/>
</a>
</g>
</g>
<!-- Node7 -->
<g id="Node000007" class="node">
<title>Node7</title>
<g id="a_Node000007"><a xlink:href="game__scene_8c.html#a113df24bb94bafcdbb9235ec8648e02f" target="_top" xlink:title=" ">
<polygon fill="white" stroke="#666666" points="173,-162.61 104.5,-162.61 104.5,-143.36 173,-143.36 173,-162.61"/>
<text xml:space="preserve" text-anchor="middle" x="138.75" y="-149.11" font-family="Helvetica,sans-Serif" font-size="10.00">__section__</text>
</a>
</g>
</g>
<!-- Node6&#45;&gt;Node7 -->
<g id="edge6_Node000006_Node000007" class="edge">
<title>Node6&#45;&gt;Node7</title>
<g id="a_edge6_Node000006_Node000007"><a xlink:title=" ">
<path fill="none" stroke="#63b8ff" d="M216.03,-152.98C200.98,-152.98 185.96,-152.98 173.27,-152.98"/>
<polygon fill="#63b8ff" stroke="#63b8ff" points="215.98,-156.48 225.98,-152.98 215.98,-149.48 215.98,-156.48"/>
</a>
</g>
</g>
<!-- Node9 -->
<g id="Node000009" class="node">
<title>Node9</title>
<g id="a_Node000009"><a xlink:href="image__conversion__scene_8c.html#aa3559936491ddf78b9cf06fcbdd32d22" target="_top" xlink:title=" ">
<polygon fill="white" stroke="#666666" points="378.75,-117.61 209,-117.61 209,-98.36 378.75,-98.36 378.75,-117.61"/>
<text xml:space="preserve" text-anchor="middle" x="293.88" y="-104.11" font-family="Helvetica,sans-Serif" font-size="10.00">PGB_ImageConversionScene_new</text>
</a>
</g>
</g>
<!-- Node8&#45;&gt;Node9 -->
<g id="edge8_Node000008_Node000009" class="edge">
<title>Node8&#45;&gt;Node9</title>
<g id="a_edge8_Node000008_Node000009"><a xlink:title=" ">
<path fill="none" stroke="#63b8ff" d="M402.94,-109.11C395.07,-109.03 387.09,-108.94 379.22,-108.86"/>
<polygon fill="#63b8ff" stroke="#63b8ff" points="402.82,-112.61 412.85,-109.21 402.89,-105.61 402.82,-112.61"/>
</a>
</g>
</g>
<!-- Node9&#45;&gt;Node10 -->
<g id="edge9_Node000009_Node000010" class="edge">
<title>Node9&#45;&gt;Node10</title>
<g id="a_edge9_Node000009_Node000010"><a xlink:title=" ">
<path fill="none" stroke="#63b8ff" d="M244.39,-95C218.73,-88.13 188.18,-79.95 166.74,-74.21"/>
<polygon fill="#63b8ff" stroke="#63b8ff" points="243.39,-98.36 253.95,-97.56 245.2,-91.6 243.39,-98.36"/>
</a>
</g>
</g>
<!-- Node11 -->
<g id="Node000011" class="node">
<title>Node11</title>
<g id="a_Node000011"><a xlink:href="main_8c.html#a77034286b8c64d0735c69535c5e9b732" target="_top" xlink:title=" ">
<polygon fill="white" stroke="#666666" points="68.5,-76.61 0,-76.61 0,-57.36 68.5,-57.36 68.5,-76.61"/>
<text xml:space="preserve" text-anchor="middle" x="34.25" y="-63.11" font-family="Helvetica,sans-Serif" font-size="10.00">__section__</text>
</a>
</g>
</g>
<!-- Node10&#45;&gt;Node11 -->
<g id="edge10_Node000010_Node000011" class="edge">
<title>Node10&#45;&gt;Node11</title>
<g id="a_edge10_Node000010_Node000011"><a xlink:title=" ">
<path fill="none" stroke="#63b8ff" d="M99.48,-66.98C89.46,-66.98 78.74,-66.98 68.97,-66.98"/>
<polygon fill="#63b8ff" stroke="#63b8ff" points="99.31,-70.48 109.31,-66.98 99.31,-63.48 99.31,-70.48"/>
</a>
</g>
</g>
<!-- Node13 -->
<g id="Node000013" class="node">
<title>Node13</title>
<g id="a_Node000013"><a xlink:href="library__scene_8c.html#ae9da6d35e322c1a0896926f6a66c66f1" target="_top" xlink:title=" ">
<polygon fill="white" stroke="#666666" points="1084,-120.61 920.25,-120.61 920.25,-101.36 1084,-101.36 1084,-120.61"/>
<text xml:space="preserve" text-anchor="middle" x="1002.12" y="-107.11" font-family="Helvetica,sans-Serif" font-size="10.00">PGB_LibraryScene_showSettings</text>
</a>
</g>
</g>
<!-- Node12&#45;&gt;Node13 -->
<g id="edge13_Node000012_Node000013" class="edge">
<title>Node12&#45;&gt;Node13</title>
<g id="a_edge13_Node000012_Node000013"><a xlink:title=" ">
<path fill="none" stroke="#63b8ff" d="M1108.28,-110.98C1100.37,-110.98 1092.3,-110.98 1084.32,-110.98"/>
<polygon fill="#63b8ff" stroke="#63b8ff" points="1108.22,-114.48 1118.22,-110.98 1108.22,-107.48 1108.22,-114.48"/>
</a>
</g>
</g>
<!-- Node14 -->
<g id="Node000014" class="node">
<title>Node14</title>
<g id="a_Node000014"><a xlink:href="library__scene_8c.html#ab295872b275c54cb2800b2b71fd163ef" target="_top" xlink:title=" ">
<polygon fill="white" stroke="#666666" points="884.25,-120.61 755.75,-120.61 755.75,-101.36 884.25,-101.36 884.25,-120.61"/>
<text xml:space="preserve" text-anchor="middle" x="820" y="-107.11" font-family="Helvetica,sans-Serif" font-size="10.00">PGB_LibraryScene_menu</text>
</a>
</g>
</g>
<!-- Node13&#45;&gt;Node14 -->
<g id="edge14_Node000013_Node000014" class="edge">
<title>Node13&#45;&gt;Node14</title>
<g id="a_edge14_Node000013_Node000014"><a xlink:title=" ">
<path fill="none" stroke="#63b8ff" d="M908.43,-110.98C900.42,-110.98 892.43,-110.98 884.73,-110.98"/>
<polygon fill="#63b8ff" stroke="#63b8ff" points="908.24,-114.48 918.24,-110.98 908.24,-107.48 908.24,-114.48"/>
</a>
</g>
</g>
<!-- Node14&#45;&gt;Node4 -->
<g id="edge15_Node000014_Node000004" class="edge">
<title>Node14&#45;&gt;Node4</title>
<g id="a_edge15_Node000014_Node000004"><a xlink:title=" ">
<path fill="none" stroke="#63b8ff" d="M744.2,-110.98C736.15,-110.98 728.04,-110.98 720.18,-110.98"/>
<polygon fill="#63b8ff" stroke="#63b8ff" points="743.99,-114.48 753.99,-110.98 743.99,-107.48 743.99,-114.48"/>
</a>
</g>
</g>
<!-- Node15&#45;&gt;Node12 -->
<g id="edge17_Node000015_Node000012" class="edge">
<title>Node15&#45;&gt;Node12</title>
<g id="a_edge17_Node000015_Node000012"><a xlink:title=" ">
<path fill="none" stroke="#63b8ff" d="M1273.57,-106.3C1265.56,-106.72 1257.51,-107.15 1249.71,-107.57"/>
<polygon fill="#63b8ff" stroke="#63b8ff" points="1273.53,-109.8 1283.33,-105.78 1273.15,-102.81 1273.53,-109.8"/>
</a>
</g>
</g>
<!-- Node16&#45;&gt;Node15 -->
<g id="edge21_Node000016_Node000015" class="edge">
<title>Node16&#45;&gt;Node15</title>
<g id="a_edge21_Node000016_Node000015"><a xlink:title=" ">
<path fill="none" stroke="#63b8ff" d="M1630.48,-70.63C1569.8,-77.57 1485.26,-87.25 1426.19,-94.01"/>
<polygon fill="#63b8ff" stroke="#63b8ff" points="1630.86,-74.11 1640.39,-69.49 1630.06,-67.15 1630.86,-74.11"/>
</a>
</g>
</g>
<!-- Node17 -->
<g id="Node000017" class="node">
<title>Node17</title>
<g id="a_Node000017"><a xlink:href="settings__scene_8c.html#a5cfb11a3e4e6ecfc7430e17d5e8ebc10" target="_top" xlink:title=" ">
<polygon fill="white" stroke="#666666" points="1606,-55.23 1461.75,-55.23 1461.75,-24.73 1606,-24.73 1606,-55.23"/>
<text xml:space="preserve" text-anchor="start" x="1469.75" y="-41.73" font-family="Helvetica,sans-Serif" font-size="10.00">PGB_SettingsScene_attempt</text>
<text xml:space="preserve" text-anchor="middle" x="1533.88" y="-30.48" font-family="Helvetica,sans-Serif" font-size="10.00">Dismiss</text>
</a>
</g>
</g>
<!-- Node16&#45;&gt;Node17 -->
<g id="edge19_Node000016_Node000017" class="edge">
<title>Node16&#45;&gt;Node17</title>
<g id="a_edge19_Node000016_Node000017"><a xlink:title=" ">
<path fill="none" stroke="#63b8ff" d="M1630.53,-52.28C1622.49,-51.25 1614.33,-50.2 1606.33,-49.17"/>
<polygon fill="#63b8ff" stroke="#63b8ff" points="1629.93,-55.73 1640.29,-53.54 1630.82,-48.79 1629.93,-55.73"/>
</a>
</g>
</g>
<!-- Node18 -->
<g id="Node000018" class="node">
<title>Node18</title>
<g id="a_Node000018"><a xlink:href="preferences_8c.html#aa547383a93cb50b718912336cddccd12" target="_top" xlink:title=" ">
<polygon fill="white" stroke="#666666" points="1227.12,-35.61 1142.12,-35.61 1142.12,-16.36 1227.12,-16.36 1227.12,-35.61"/>
<text xml:space="preserve" text-anchor="middle" x="1184.62" y="-22.11" font-family="Helvetica,sans-Serif" font-size="10.00">preferences_init</text>
</a>
</g>
</g>
<!-- Node16&#45;&gt;Node18 -->
<g id="edge22_Node000016_Node000018" class="edge">
<title>Node16&#45;&gt;Node18</title>
<g id="a_edge22_Node000016_Node000018"><a xlink:title=" ">
<path fill="none" stroke="#63b8ff" d="M1680.19,-46.33C1660.61,-35.42 1632.62,-21.81 1606,-15.98 1470.15,13.76 1303.7,-6.3 1227.42,-18.51"/>
<polygon fill="#63b8ff" stroke="#63b8ff" points="1678.41,-49.35 1688.82,-51.3 1681.9,-43.28 1678.41,-49.35"/>
</a>
</g>
</g>
<!-- Node17&#45;&gt;Node15 -->
<g id="edge20_Node000017_Node000015" class="edge">
<title>Node17&#45;&gt;Node15</title>
<g id="a_edge20_Node000017_Node000015"><a xlink:title=" ">
<path fill="none" stroke="#63b8ff" d="M1477.81,-59.34C1447.15,-70.12 1410.23,-83.1 1385.24,-91.88"/>
<polygon fill="#63b8ff" stroke="#63b8ff" points="1478.67,-62.75 1486.94,-56.13 1476.35,-56.15 1478.67,-62.75"/>
</a>
</g>
</g>
<!-- Node18&#45;&gt;Node10 -->
<g id="edge23_Node000018_Node000010" class="edge">
<title>Node18&#45;&gt;Node10</title>
<g id="a_edge23_Node000018_Node000010"><a xlink:title=" ">
<path fill="none" stroke="#63b8ff" d="M1130.5,-26.46C1059.84,-27.05 931.03,-27.98 821,-27.98 821,-27.98 821,-27.98 487,-27.98 366.88,-27.98 224.84,-51.31 166.65,-61.89"/>
<polygon fill="#63b8ff" stroke="#63b8ff" points="1130.26,-29.96 1140.23,-26.38 1130.2,-22.96 1130.26,-29.96"/>
</a>
</g>
</g>
</g>
</svg>

<g id="navigator" transform="translate(0 0)" fill="#404254">
  <rect fill="#f2f5e9" fill-opacity="0.5" stroke="#606060" stroke-width=".5" x="0" y="0" width="60" height="60"/>
  <use id="zoomplus" xlink:href="#zoomPlus" x="17" y="9" onmousedown="handleZoom(evt,'in')"/>
  <use id="zoomminus" xlink:href="#zoomMin" x="42" y="9" onmousedown="handleZoom(evt,'out')"/>
  <use id="reset" xlink:href="#resetDef" x="30" y="36" onmousedown="handleReset()"/>
   <use id="arrowup" xlink:href="#arrowUp" x="0" y="0" onmousedown="handlePan(0,-1)"/>
  <use id="arrowright" xlink:href="#arrowRight" x="0" y="0" onmousedown="handlePan(1,0)"/>
  <use id="arrowdown" xlink:href="#arrowDown" x="0" y="0" onmousedown="handlePan(0,1)"/>
  <use id="arrowleft" xlink:href="#arrowLeft" x="0" y="0" onmousedown="handlePan(-1,0)"/>
</g>
<svg viewBox="0 0 15 15" width="100%" height="30px" preserveAspectRatio="xMaxYMin meet">
 <g id="arrow_out" transform="scale(0.3 0.3)">
  <a xlink:href="preferences_8c_ae731b817ee3ec72fab17c8aaaf95d4af_icgraph_org.svg" target="_base">
   <rect id="button" ry="5" rx="5" y="6" x="6" height="38" width="38"
        fill="#f2f5e9" fill-opacity="0.5" stroke="#606060" stroke-width="1.0"/>
   <path id="arrow"
     d="M 11.500037,31.436501 C 11.940474,20.09759 22.043105,11.32322 32.158766,21.979434 L 37.068811,17.246167 C 37.068811,17.246167 37.088388,32 37.088388,32 L 22.160133,31.978069 C 22.160133,31.978069 26.997745,27.140456 26.997745,27.140456 C 18.528582,18.264221 13.291696,25.230495 11.500037,31.436501 z"
     style="fill:#404040;"/>
  </a>
 </g>
</svg>

<style type='text/css'>
<![CDATA[
[data-mouse-over-selected='false'] { opacity: 0.7; }
[data-mouse-over-selected='true']  { opacity: 1.0; }
]]>
</style>
<script type="application/ecmascript"><![CDATA[
document.addEventListener('DOMContentLoaded', (event) => {
  highlightEdges();
  highlightAdjacentNodes();
});
]]></script>
</svg>
