<?xml version="1.0" encoding="UTF-8" standalone="no"?>
<!DOCTYPE svg PUBLIC "-//W3C//DTD SVG 1.1//EN"
 "http://www.w3.org/Graphics/SVG/1.1/DTD/svg11.dtd">
<!-- Generated by graphviz version 13.1.0 (20250701.0955)
 -->
<!-- Title: preferences_save_to_disk Pages: 1 -->
<svg width="1780pt" height="151pt"
 viewBox="0.00 0.00 1780.00 151.00" xmlns="http://www.w3.org/2000/svg" xmlns:xlink="http://www.w3.org/1999/xlink">
<g id="graph0" class="graph" transform="scale(1 1) rotate(0) translate(4 147.25)">
<title>preferences_save_to_disk</title>
<!-- Node1 -->
<g id="Node000001" class="node">
<title>Node1</title>
<g id="a_Node000001"><a xlink:title=" ">
<polygon fill="#999999" stroke="#666666" points="1772,-57.25 1642,-57.25 1642,-38 1772,-38 1772,-57.25"/>
<text xml:space="preserve" text-anchor="middle" x="1707" y="-43.75" font-family="Helvetica,sans-Serif" font-size="10.00">preferences_save_to_disk</text>
</a>
</g>
</g>
<!-- Node2 -->
<g id="Node000002" class="node">
<title>Node2</title>
<g id="a_Node000002"><a xlink:href="settings__scene_8c.html#a5cfb11a3e4e6ecfc7430e17d5e8ebc10" target="_top" xlink:title=" ">
<polygon fill="white" stroke="#666666" points="1606,-105.88 1461.75,-105.88 1461.75,-75.38 1606,-75.38 1606,-105.88"/>
<text xml:space="preserve" text-anchor="start" x="1469.75" y="-92.38" font-family="Helvetica,sans-Serif" font-size="10.00">PGB_SettingsScene_attempt</text>
<text xml:space="preserve" text-anchor="middle" x="1533.88" y="-81.12" font-family="Helvetica,sans-Serif" font-size="10.00">Dismiss</text>
</a>
</g>
</g>
<!-- Node1&#45;&gt;Node2 -->
<g id="edge1_Node000001_Node000002" class="edge">
<title>Node1&#45;&gt;Node2</title>
<g id="a_edge1_Node000001_Node000002"><a xlink:title=" ">
<path fill="none" stroke="#63b8ff" d="M1654.74,-60.51C1636.75,-65.03 1616.33,-70.16 1597.52,-74.88"/>
<polygon fill="#63b8ff" stroke="#63b8ff" points="1655.57,-63.91 1664.41,-58.08 1653.86,-57.12 1655.57,-63.91"/>
</a>
</g>
</g>
<!-- Node3 -->
<g id="Node000003" class="node">
<title>Node3</title>
<g id="a_Node000003"><a xlink:href="settings__scene_8c.html#ab2a60c1877e6e9ec3e98c502666c64c2" target="_top" xlink:title=" ">
<polygon fill="white" stroke="#666666" points="1425.75,-100.25 1285.25,-100.25 1285.25,-81 1425.75,-81 1425.75,-100.25"/>
<text xml:space="preserve" text-anchor="middle" x="1355.5" y="-86.75" font-family="Helvetica,sans-Serif" font-size="10.00">PGB_SettingsScene_update</text>
</a>
</g>
</g>
<!-- Node1&#45;&gt;Node3 -->
<g id="edge15_Node000001_Node000003" class="edge">
<title>Node1&#45;&gt;Node3</title>
<g id="a_edge15_Node000001_Node000003"><a xlink:title=" ">
<path fill="none" stroke="#63b8ff" d="M1630.35,-50.65C1581.94,-53.29 1517.9,-58.09 1461.75,-66.62 1439.15,-70.06 1414.18,-75.67 1394.24,-80.61"/>
<polygon fill="#63b8ff" stroke="#63b8ff" points="1630.37,-54.15 1640.17,-50.13 1630,-47.16 1630.37,-54.15"/>
</a>
</g>
</g>
<!-- Node15 -->
<g id="Node000015" class="node">
<title>Node15</title>
<g id="a_Node000015"><a xlink:href="preferences_8c.html#aa547383a93cb50b718912336cddccd12" target="_top" xlink:title=" ">
<polygon fill="white" stroke="#666666" points="1398,-19.25 1313,-19.25 1313,0 1398,0 1398,-19.25"/>
<text xml:space="preserve" text-anchor="middle" x="1355.5" y="-5.75" font-family="Helvetica,sans-Serif" font-size="10.00">preferences_init</text>
</a>
</g>
</g>
<!-- Node1&#45;&gt;Node15 -->
<g id="edge16_Node000001_Node000015" class="edge">
<title>Node1&#45;&gt;Node15</title>
<g id="a_edge16_Node000001_Node000015"><a xlink:title=" ">
<path fill="none" stroke="#63b8ff" d="M1630.35,-36.68C1622.14,-35.6 1613.9,-34.56 1606,-33.62 1533.18,-25.03 1448.13,-17.35 1398.5,-13.11"/>
<polygon fill="#63b8ff" stroke="#63b8ff" points="1629.62,-40.12 1640,-37.98 1630.56,-33.18 1629.62,-40.12"/>
</a>
</g>
</g>
<!-- Node2&#45;&gt;Node3 -->
<g id="edge2_Node000002_Node000003" class="edge">
<title>Node2&#45;&gt;Node3</title>
<g id="a_edge2_Node000002_Node000003"><a xlink:title=" ">
<path fill="none" stroke="#63b8ff" d="M1450.1,-90.62C1442.07,-90.62 1433.97,-90.62 1426.08,-90.62"/>
<polygon fill="#63b8ff" stroke="#63b8ff" points="1449.88,-94.13 1459.88,-90.63 1449.88,-87.13 1449.88,-94.13"/>
</a>
</g>
</g>
<!-- Node4 -->
<g id="Node000004" class="node">
<title>Node4</title>
<g id="a_Node000004"><a xlink:href="settings__scene_8c.html#a7a2a61c35c00f7990b0a85f16e5c9975" target="_top" xlink:title=" ">
<polygon fill="white" stroke="#666666" points="1249.25,-100.25 1120,-100.25 1120,-81 1249.25,-81 1249.25,-100.25"/>
<text xml:space="preserve" text-anchor="middle" x="1184.62" y="-86.75" font-family="Helvetica,sans-Serif" font-size="10.00">PGB_SettingsScene_new</text>
</a>
</g>
</g>
<!-- Node3&#45;&gt;Node4 -->
<g id="edge3_Node000003_Node000004" class="edge">
<title>Node3&#45;&gt;Node4</title>
<g id="a_edge3_Node000003_Node000004"><a xlink:title=" ">
<path fill="none" stroke="#63b8ff" d="M1273.57,-90.62C1265.56,-90.62 1257.51,-90.62 1249.71,-90.62"/>
<polygon fill="#63b8ff" stroke="#63b8ff" points="1273.32,-94.13 1283.32,-90.63 1273.32,-87.13 1273.32,-94.13"/>
</a>
</g>
</g>
<!-- Node5 -->
<g id="Node000005" class="node">
<title>Node5</title>
<g id="a_Node000005"><a xlink:href="library__scene_8c.html#ae9da6d35e322c1a0896926f6a66c66f1" target="_top" xlink:title=" ">
<polygon fill="white" stroke="#666666" points="1084,-100.25 920.25,-100.25 920.25,-81 1084,-81 1084,-100.25"/>
<text xml:space="preserve" text-anchor="middle" x="1002.12" y="-86.75" font-family="Helvetica,sans-Serif" font-size="10.00">PGB_LibraryScene_showSettings</text>
</a>
</g>
</g>
<!-- Node4&#45;&gt;Node5 -->
<g id="edge4_Node000004_Node000005" class="edge">
<title>Node4&#45;&gt;Node5</title>
<g id="a_edge4_Node000004_Node000005"><a xlink:title=" ">
<path fill="none" stroke="#63b8ff" d="M1108.28,-90.62C1100.37,-90.62 1092.3,-90.62 1084.32,-90.62"/>
<polygon fill="#63b8ff" stroke="#63b8ff" points="1108.22,-94.13 1118.22,-90.63 1108.22,-87.13 1108.22,-94.13"/>
</a>
</g>
</g>
<!-- Node6 -->
<g id="Node000006" class="node">
<title>Node6</title>
<g id="a_Node000006"><a xlink:href="library__scene_8c.html#ab295872b275c54cb2800b2b71fd163ef" target="_top" xlink:title=" ">
<polygon fill="white" stroke="#666666" points="884.25,-100.25 755.75,-100.25 755.75,-81 884.25,-81 884.25,-100.25"/>
<text xml:space="preserve" text-anchor="middle" x="820" y="-86.75" font-family="Helvetica,sans-Serif" font-size="10.00">PGB_LibraryScene_menu</text>
</a>
</g>
</g>
<!-- Node5&#45;&gt;Node6 -->
<g id="edge5_Node000005_Node000006" class="edge">
<title>Node5&#45;&gt;Node6</title>
<g id="a_edge5_Node000005_Node000006"><a xlink:title=" ">
<path fill="none" stroke="#63b8ff" d="M908.43,-90.62C900.42,-90.62 892.43,-90.62 884.73,-90.62"/>
<polygon fill="#63b8ff" stroke="#63b8ff" points="908.24,-94.13 918.24,-90.63 908.24,-87.13 908.24,-94.13"/>
</a>
</g>
</g>
<!-- Node7 -->
<g id="Node000007" class="node">
<title>Node7</title>
<g id="a_Node000007"><a xlink:href="library__scene_8c.html#aa5c386d39121b53fba45d899df654188" target="_top" xlink:title=" ">
<polygon fill="white" stroke="#666666" points="719.75,-100.25 597.25,-100.25 597.25,-81 719.75,-81 719.75,-100.25"/>
<text xml:space="preserve" text-anchor="middle" x="658.5" y="-86.75" font-family="Helvetica,sans-Serif" font-size="10.00">PGB_LibraryScene_new</text>
</a>
</g>
</g>
<!-- Node6&#45;&gt;Node7 -->
<g id="edge6_Node000006_Node000007" class="edge">
<title>Node6&#45;&gt;Node7</title>
<g id="a_edge6_Node000006_Node000007"><a xlink:title=" ">
<path fill="none" stroke="#63b8ff" d="M744.2,-90.62C736.15,-90.62 728.04,-90.62 720.18,-90.62"/>
<polygon fill="#63b8ff" stroke="#63b8ff" points="743.99,-94.13 753.99,-90.63 743.99,-87.13 743.99,-94.13"/>
</a>
</g>
</g>
<!-- Node8 -->
<g id="Node000008" class="node">
<title>Node8</title>
<g id="a_Node000008"><a xlink:href="app_8c.html#ab80501f53b757a79772b96ec99e3dc7e" target="_top" xlink:title=" ">
<polygon fill="white" stroke="#666666" points="534.25,-143.25 441.75,-143.25 441.75,-124 534.25,-124 534.25,-143.25"/>
<text xml:space="preserve" text-anchor="middle" x="488" y="-129.75" font-family="Helvetica,sans-Serif" font-size="10.00">PGB_goToLibrary</text>
</a>
</g>
</g>
<!-- Node7&#45;&gt;Node8 -->
<g id="edge7_Node000007_Node000008" class="edge">
<title>Node7&#45;&gt;Node8</title>
<g id="a_edge7_Node000007_Node000008"><a xlink:title=" ">
<path fill="none" stroke="#63b8ff" d="M606.84,-103.55C581.76,-109.95 551.92,-117.57 528.55,-123.53"/>
<polygon fill="#63b8ff" stroke="#63b8ff" points="607.7,-106.94 616.53,-101.08 605.97,-100.16 607.7,-106.94"/>
</a>
</g>
</g>
<!-- Node11 -->
<g id="Node000011" class="node">
<title>Node11</title>
<g id="a_Node000011"><a xlink:href="image__conversion__scene_8c.html#a60d0e43ab25a8639bbb6d1f4e758edd3" target="_top" xlink:title=" ">
<polygon fill="white" stroke="#666666" points="561.25,-105.88 414.75,-105.88 414.75,-75.38 561.25,-75.38 561.25,-105.88"/>
<text xml:space="preserve" text-anchor="start" x="422.75" y="-92.38" font-family="Helvetica,sans-Serif" font-size="10.00">PGB_ImageConversionScene</text>
<text xml:space="preserve" text-anchor="middle" x="488" y="-81.12" font-family="Helvetica,sans-Serif" font-size="10.00">_update</text>
</a>
</g>
</g>
<!-- Node7&#45;&gt;Node11 -->
<g id="edge10_Node000007_Node000011" class="edge">
<title>Node7&#45;&gt;Node11</title>
<g id="a_edge10_Node000007_Node000011"><a xlink:title=" ">
<path fill="none" stroke="#63b8ff" d="M585.9,-90.62C577.86,-90.62 569.65,-90.62 561.6,-90.62"/>
<polygon fill="#63b8ff" stroke="#63b8ff" points="585.63,-94.13 595.63,-90.63 585.63,-87.13 585.63,-94.13"/>
</a>
</g>
</g>
<!-- Node13 -->
<g id="Node000013" class="node">
<title>Node13</title>
<g id="a_Node000013"><a xlink:href="app_8c.html#af256ea7a9c51fcbd49cb0007facbb8ea" target="_top" xlink:title=" ">
<polygon fill="white" stroke="#666666" points="166.25,-57.25 111.25,-57.25 111.25,-38 166.25,-38 166.25,-57.25"/>
<text xml:space="preserve" text-anchor="middle" x="138.75" y="-43.75" font-family="Helvetica,sans-Serif" font-size="10.00">PGB_init</text>
</a>
</g>
</g>
<!-- Node7&#45;&gt;Node13 -->
<g id="edge14_Node000007_Node000013" class="edge">
<title>Node7&#45;&gt;Node13</title>
<g id="a_edge14_Node000007_Node000013"><a xlink:title=" ">
<path fill="none" stroke="#63b8ff" d="M613.18,-77.61C596.98,-73.38 578.42,-69.13 561.25,-66.62 413.38,-45.08 233.52,-45.81 166.55,-46.99"/>
<polygon fill="#63b8ff" stroke="#63b8ff" points="611.95,-80.9 622.51,-80.13 613.77,-74.14 611.95,-80.9"/>
</a>
</g>
</g>
<!-- Node9 -->
<g id="Node000009" class="node">
<title>Node9</title>
<g id="a_Node000009"><a xlink:href="game__scene_8c.html#a6a4a6f0408da311dc566eb187e497889" target="_top" xlink:title=" ">
<polygon fill="white" stroke="#666666" points="360,-143.25 227.75,-143.25 227.75,-124 360,-124 360,-143.25"/>
<text xml:space="preserve" text-anchor="middle" x="293.88" y="-129.75" font-family="Helvetica,sans-Serif" font-size="10.00">PGB_LibraryConfirmModal</text>
</a>
</g>
</g>
<!-- Node8&#45;&gt;Node9 -->
<g id="edge8_Node000008_Node000009" class="edge">
<title>Node8&#45;&gt;Node9</title>
<g id="a_edge8_Node000008_Node000009"><a xlink:title=" ">
<path fill="none" stroke="#63b8ff" d="M430.03,-133.62C408.17,-133.62 383.05,-133.62 360.44,-133.62"/>
<polygon fill="#63b8ff" stroke="#63b8ff" points="429.96,-137.13 439.96,-133.63 429.96,-130.13 429.96,-137.13"/>
</a>
</g>
</g>
<!-- Node10 -->
<g id="Node000010" class="node">
<title>Node10</title>
<g id="a_Node000010"><a xlink:href="game__scene_8c.html#a113df24bb94bafcdbb9235ec8648e02f" target="_top" xlink:title=" ">
<polygon fill="white" stroke="#666666" points="173,-143.25 104.5,-143.25 104.5,-124 173,-124 173,-143.25"/>
<text xml:space="preserve" text-anchor="middle" x="138.75" y="-129.75" font-family="Helvetica,sans-Serif" font-size="10.00">__section__</text>
</a>
</g>
</g>
<!-- Node9&#45;&gt;Node10 -->
<g id="edge9_Node000009_Node000010" class="edge">
<title>Node9&#45;&gt;Node10</title>
<g id="a_edge9_Node000009_Node000010"><a xlink:title=" ">
<path fill="none" stroke="#63b8ff" d="M216.03,-133.62C200.98,-133.62 185.96,-133.62 173.27,-133.62"/>
<polygon fill="#63b8ff" stroke="#63b8ff" points="215.98,-137.13 225.98,-133.63 215.98,-130.13 215.98,-137.13"/>
</a>
</g>
</g>
<!-- Node12 -->
<g id="Node000012" class="node">
<title>Node12</title>
<g id="a_Node000012"><a xlink:href="image__conversion__scene_8c.html#aa3559936491ddf78b9cf06fcbdd32d22" target="_top" xlink:title=" ">
<polygon fill="white" stroke="#666666" points="378.75,-98.25 209,-98.25 209,-79 378.75,-79 378.75,-98.25"/>
<text xml:space="preserve" text-anchor="middle" x="293.88" y="-84.75" font-family="Helvetica,sans-Serif" font-size="10.00">PGB_ImageConversionScene_new</text>
</a>
</g>
</g>
<!-- Node11&#45;&gt;Node12 -->
<g id="edge11_Node000011_Node000012" class="edge">
<title>Node11&#45;&gt;Node12</title>
<g id="a_edge11_Node000011_Node000012"><a xlink:title=" ">
<path fill="none" stroke="#63b8ff" d="M402.94,-89.75C395.07,-89.67 387.09,-89.58 379.22,-89.5"/>
<polygon fill="#63b8ff" stroke="#63b8ff" points="402.82,-93.25 412.85,-89.85 402.89,-86.25 402.82,-93.25"/>
</a>
</g>
</g>
<!-- Node12&#45;&gt;Node13 -->
<g id="edge12_Node000012_Node000013" class="edge">
<title>Node12&#45;&gt;Node13</title>
<g id="a_edge12_Node000012_Node000013"><a xlink:title=" ">
<path fill="none" stroke="#63b8ff" d="M244.39,-75.64C218.73,-68.77 188.18,-60.59 166.74,-54.85"/>
<polygon fill="#63b8ff" stroke="#63b8ff" points="243.39,-79 253.95,-78.2 245.2,-72.24 243.39,-79"/>
</a>
</g>
</g>
<!-- Node14 -->
<g id="Node000014" class="node">
<title>Node14</title>
<g id="a_Node000014"><a xlink:href="main_8c.html#a77034286b8c64d0735c69535c5e9b732" target="_top" xlink:title=" ">
<polygon fill="white" stroke="#666666" points="68.5,-57.25 0,-57.25 0,-38 68.5,-38 68.5,-57.25"/>
<text xml:space="preserve" text-anchor="middle" x="34.25" y="-43.75" font-family="Helvetica,sans-Serif" font-size="10.00">__section__</text>
</a>
</g>
</g>
<!-- Node13&#45;&gt;Node14 -->
<g id="edge13_Node000013_Node000014" class="edge">
<title>Node13&#45;&gt;Node14</title>
<g id="a_edge13_Node000013_Node000014"><a xlink:title=" ">
<path fill="none" stroke="#63b8ff" d="M99.48,-47.62C89.46,-47.62 78.74,-47.62 68.97,-47.62"/>
<polygon fill="#63b8ff" stroke="#63b8ff" points="99.31,-51.13 109.31,-47.63 99.31,-44.13 99.31,-51.13"/>
</a>
</g>
</g>
<!-- Node15&#45;&gt;Node13 -->
<g id="edge17_Node000015_Node000013" class="edge">
<title>Node15&#45;&gt;Node13</title>
<g id="a_edge17_Node000015_Node000013"><a xlink:title=" ">
<path fill="none" stroke="#63b8ff" d="M1301.2,-9.63C1232.35,-9.63 1108.8,-9.63 1003.12,-9.62 1003.12,-9.62 1003.12,-9.62 487,-9.62 366.92,-9.63 224.86,-32.36 166.66,-42.66"/>
<polygon fill="#63b8ff" stroke="#63b8ff" points="1301.07,-13.13 1311.07,-9.63 1301.07,-6.13 1301.07,-13.13"/>
</a>
</g>
</g>
</g>
</svg>
