<?xml version="1.0" encoding="UTF-8" standalone="no"?>
<!DOCTYPE svg PUBLIC "-//W3C//DTD SVG 1.1//EN"
 "http://www.w3.org/Graphics/SVG/1.1/DTD/svg11.dtd">
<!-- Generated by graphviz version 13.1.0 (20250701.0955)
 -->
<!-- Title: src/revcheck.h Pages: 1 -->
<svg width="501pt" height="83pt"
 viewBox="0.00 0.00 501.00 83.00" xmlns="http://www.w3.org/2000/svg" xmlns:xlink="http://www.w3.org/1999/xlink">
<g id="graph0" class="graph" transform="scale(1 1) rotate(0) translate(4 78.5)">
<title>src/revcheck.h</title>
<!-- Node1 -->
<g id="Node000001" class="node">
<title>Node1</title>
<g id="a_Node000001"><a xlink:title=" ">
<polygon fill="#999999" stroke="#666666" points="263.88,-74.5 183.38,-74.5 183.38,-55.25 263.88,-55.25 263.88,-74.5"/>
<text xml:space="preserve" text-anchor="middle" x="223.62" y="-61" font-family="Helvetica,sans-Serif" font-size="10.00">src/revcheck.h</text>
</a>
</g>
</g>
<!-- Node2 -->
<g id="Node000002" class="node">
<title>Node2</title>
<g id="a_Node000002"><a xlink:href="main_8c.html" target="_top" xlink:title=" ">
<polygon fill="white" stroke="#666666" points="45.25,-19.25 0,-19.25 0,0 45.25,0 45.25,-19.25"/>
<text xml:space="preserve" text-anchor="middle" x="22.62" y="-5.75" font-family="Helvetica,sans-Serif" font-size="10.00">main.c</text>
</a>
</g>
</g>
<!-- Node1&#45;&gt;Node2 -->
<g id="edge1_Node000001_Node000002" class="edge">
<title>Node1&#45;&gt;Node2</title>
<g id="a_edge1_Node000001_Node000002"><a xlink:title=" ">
<path fill="none" stroke="#63b8ff" d="M177.99,-51.89C143.97,-42.94 96.38,-30.39 54.62,-19.25 51.73,-18.48 48.7,-17.66 45.69,-16.86"/>
<polygon fill="#63b8ff" stroke="#63b8ff" points="176.95,-55.24 187.51,-54.4 178.73,-48.47 176.95,-55.24"/>
</a>
</g>
</g>
<!-- Node3 -->
<g id="Node000003" class="node">
<title>Node3</title>
<g id="a_Node000003"><a xlink:href="game__scene_8c.html" target="_top" xlink:title=" ">
<polygon fill="white" stroke="#666666" points="159.75,-19.25 63.5,-19.25 63.5,0 159.75,0 159.75,-19.25"/>
<text xml:space="preserve" text-anchor="middle" x="111.62" y="-5.75" font-family="Helvetica,sans-Serif" font-size="10.00">src/game_scene.c</text>
</a>
</g>
</g>
<!-- Node1&#45;&gt;Node3 -->
<g id="edge2_Node000001_Node000003" class="edge">
<title>Node1&#45;&gt;Node3</title>
<g id="a_edge2_Node000001_Node000003"><a xlink:title=" ">
<path fill="none" stroke="#63b8ff" d="M194.46,-50.01C174.35,-40.45 148.21,-28.02 130.72,-19.7"/>
<polygon fill="#63b8ff" stroke="#63b8ff" points="192.72,-53.06 203.26,-54.19 195.73,-46.74 192.72,-53.06"/>
</a>
</g>
</g>
<!-- Node4 -->
<g id="Node000004" class="node">
<title>Node4</title>
<g id="a_Node000004"><a xlink:href="preferences_8c.html" target="_top" xlink:title=" ">
<polygon fill="white" stroke="#666666" points="269.5,-19.25 177.75,-19.25 177.75,0 269.5,0 269.5,-19.25"/>
<text xml:space="preserve" text-anchor="middle" x="223.62" y="-5.75" font-family="Helvetica,sans-Serif" font-size="10.00">src/preferences.c</text>
</a>
</g>
</g>
<!-- Node1&#45;&gt;Node4 -->
<g id="edge3_Node000001_Node000004" class="edge">
<title>Node1&#45;&gt;Node4</title>
<g id="a_edge3_Node000001_Node000004"><a xlink:title=" ">
<path fill="none" stroke="#63b8ff" d="M223.62,-43.63C223.62,-35.34 223.62,-26.17 223.62,-19.61"/>
<polygon fill="#63b8ff" stroke="#63b8ff" points="220.13,-43.57 223.63,-53.57 227.13,-43.57 220.13,-43.57"/>
</a>
</g>
</g>
<!-- Node5 -->
<g id="Node000005" class="node">
<title>Node5</title>
<g id="a_Node000005"><a xlink:href="revcheck_8c.html" target="_top" xlink:title=" ">
<polygon fill="white" stroke="#666666" points="367.88,-19.25 287.38,-19.25 287.38,0 367.88,0 367.88,-19.25"/>
<text xml:space="preserve" text-anchor="middle" x="327.62" y="-5.75" font-family="Helvetica,sans-Serif" font-size="10.00">src/revcheck.c</text>
</a>
</g>
</g>
<!-- Node1&#45;&gt;Node5 -->
<g id="edge4_Node000001_Node000005" class="edge">
<title>Node1&#45;&gt;Node5</title>
<g id="a_edge4_Node000001_Node000005"><a xlink:title=" ">
<path fill="none" stroke="#63b8ff" d="M251.49,-49.61C270.05,-40.11 293.88,-27.9 309.9,-19.7"/>
<polygon fill="#63b8ff" stroke="#63b8ff" points="249.92,-46.48 242.61,-54.15 253.11,-52.71 249.92,-46.48"/>
</a>
</g>
</g>
<!-- Node6 -->
<g id="Node000006" class="node">
<title>Node6</title>
<g id="a_Node000006"><a xlink:href="settings__scene_8c.html" target="_top" xlink:title=" ">
<polygon fill="white" stroke="#666666" points="493,-19.25 386.25,-19.25 386.25,0 493,0 493,-19.25"/>
<text xml:space="preserve" text-anchor="middle" x="439.62" y="-5.75" font-family="Helvetica,sans-Serif" font-size="10.00">src/settings_scene.c</text>
</a>
</g>
</g>
<!-- Node1&#45;&gt;Node6 -->
<g id="edge5_Node000001_Node000006" class="edge">
<title>Node1&#45;&gt;Node6</title>
<g id="a_edge5_Node000001_Node000006"><a xlink:title=" ">
<path fill="none" stroke="#63b8ff" d="M271.25,-52.13C310.89,-42.36 366.51,-28.65 402.8,-19.7"/>
<polygon fill="#63b8ff" stroke="#63b8ff" points="270.61,-48.69 261.74,-54.48 272.28,-55.48 270.61,-48.69"/>
</a>
</g>
</g>
</g>
</svg>
