<?xml version="1.0" encoding="UTF-8" standalone="no"?>
<!DOCTYPE svg PUBLIC "-//W3C//DTD SVG 1.1//EN"
 "http://www.w3.org/Graphics/SVG/1.1/DTD/svg11.dtd">
<!-- Generated by graphviz version 13.1.0 (20250701.0955)
 -->
<!-- Title: PGB_Scene_free Pages: 1 -->
<!--zoomable 539 -->

<svg id="main" version="1.1" xmlns="http://www.w3.org/2000/svg" xmlns:xlink="http://www.w3.org/1999/xlink" xml:space="preserve" onload="init(evt)">

<style type="text/css"><![CDATA[
.node, .edge {opacity: 0.7;}
.node.selected, .edge.selected {opacity: 1;}
.edge:hover path { stroke: red; }
.edge:hover polygon { stroke: red; fill: red; }
]]></style>

<defs>
  <circle id="rim" cx="0" cy="0" r="7"/>
  <circle id="rim2" cx="0" cy="0" r="3.5"/>
  <g id="zoomPlus">
    <use xlink:href="#rim" fill="#404040"><set attributeName="fill" to="#808080" begin="zoomplus.mouseover" end="zoomplus.mouseout"/></use>
    <path d="M-4,0h8M0,-4v8" fill="none" stroke="white" stroke-width="1.5" pointer-events="none"/>
  </g>
  <g id="zoomMin">
    <use xlink:href="#rim" fill="#404040"><set attributeName="fill" to="#808080" begin="zoomminus.mouseover" end="zoomminus.mouseout"/></use>
    <path d="M-4,0h8" fill="none" stroke="white" stroke-width="1.5" pointer-events="none"/>
  </g>
  <g id="arrowUp" transform="translate(30 24)">
    <use xlink:href="#rim"/>
    <path pointer-events="none" fill="none" stroke="white" stroke-width="1.5" d="M0,-3.0v7 M-2.5,-0.5L0,-3.0L2.5,-0.5"/>
  </g>
  <g id="arrowRight" transform="rotate(90) translate(36 -43)">
    <use xlink:href="#rim"/>
    <path pointer-events="none" fill="none" stroke="white" stroke-width="1.5" d="M0,-3.0v7 M-2.5,-0.5L0,-3.0L2.5,-0.5"/>
  </g>
  <g id="arrowDown" transform="rotate(180) translate(-30 -48)">
    <use xlink:href="#rim"/>
    <path pointer-events="none" fill="none" stroke="white" stroke-width="1.5" d="M0,-3.0v7 M-2.5,-0.5L0,-3.0L2.5,-0.5"/>
  </g>
  <g id="arrowLeft" transform="rotate(270) translate(-36 17)">
    <use xlink:href="#rim"/>
    <path pointer-events="none" fill="none" stroke="white" stroke-width="1.5" d="M0,-3.0v7 M-2.5,-0.5L0,-3.0L2.5,-0.5"/>
  </g>
  <g id="resetDef">
    <use xlink:href="#rim2" fill="#404040"><set attributeName="fill" to="#808080" begin="reset.mouseover" end="reset.mouseout"/></use>
  </g>
</defs>
<script type="application/ecmascript">
var viewWidth = 2746;
var viewHeight = 539;
var sectionId = 'dynsection-2';
</script>
<script type="application/ecmascript" xlink:href="svg.min.js"/>
<svg id="graph" class="graph">
<g id="viewport">
<title>PGB_Scene_free</title>
<!-- Node1 -->
<g id="Node000001" class="node">
<title>Node1</title>
<g id="a_Node000001"><a xlink:title=" ">
<polygon fill="#999999" stroke="#666666" points="2738,-388.13 2646.25,-388.13 2646.25,-368.88 2738,-368.88 2738,-388.13"/>
<text xml:space="preserve" text-anchor="middle" x="2692.12" y="-374.63" font-family="Helvetica,sans-Serif" font-size="10.00">PGB_Scene_free</text>
</a>
</g>
</g>
<!-- Node2 -->
<g id="Node000002" class="node">
<title>Node2</title>
<g id="a_Node000002"><a xlink:href="credits__scene_8c.html#ac1dac21cdf7c63243c3dcbe2b2834e69" target="_top" xlink:title=" ">
<polygon fill="white" stroke="#666666" points="2610.25,-464.13 2487,-464.13 2487,-444.88 2610.25,-444.88 2610.25,-464.13"/>
<text xml:space="preserve" text-anchor="middle" x="2548.62" y="-450.63" font-family="Helvetica,sans-Serif" font-size="10.00">PGB_CreditsScene_free</text>
</a>
</g>
</g>
<!-- Node1&#45;&gt;Node2 -->
<g id="edge1_Node000001_Node000002" class="edge">
<title>Node1&#45;&gt;Node2</title>
<g id="a_edge1_Node000001_Node000002"><a xlink:title=" ">
<path fill="none" stroke="#63b8ff" d="M2668.3,-394.88C2652.48,-405.81 2630.67,-420.02 2610.25,-430.5 2600.18,-435.67 2588.73,-440.46 2578.51,-444.39"/>
<polygon fill="#63b8ff" stroke="#63b8ff" points="2669.88,-398.05 2676.07,-389.44 2665.87,-392.31 2669.88,-398.05"/>
</a>
</g>
</g>
<!-- Node14 -->
<g id="Node000014" class="node">
<title>Node14</title>
<g id="a_Node000014"><a xlink:href="game__scene_8c.html#a963582a448d4e4e2953e59d75b9d9f64" target="_top" xlink:title=" ">
<polygon fill="white" stroke="#666666" points="2447.62,-59.13 2329.62,-59.13 2329.62,-39.88 2447.62,-39.88 2447.62,-59.13"/>
<text xml:space="preserve" text-anchor="middle" x="2388.62" y="-45.63" font-family="Helvetica,sans-Serif" font-size="10.00">PGB_GameScene_free</text>
</a>
</g>
</g>
<!-- Node1&#45;&gt;Node14 -->
<g id="edge14_Node000001_Node000014" class="edge">
<title>Node1&#45;&gt;Node14</title>
<g id="a_edge14_Node000001_Node000014"><a xlink:title=" ">
<path fill="none" stroke="#63b8ff" d="M2681.04,-358.59C2666.84,-331.31 2639.41,-281.29 2610.25,-242.5 2548.04,-159.75 2537.12,-129.95 2451,-72.5 2443.05,-67.2 2433.71,-62.9 2424.74,-59.52"/>
<polygon fill="#63b8ff" stroke="#63b8ff" points="2677.75,-359.84 2685.43,-367.13 2683.97,-356.64 2677.75,-359.84"/>
</a>
</g>
</g>
<!-- Node17 -->
<g id="Node000017" class="node">
<title>Node17</title>
<g id="a_Node000017"><a xlink:href="library__scene_8c.html#aabf35687e95e8c496e4d6f147ec4d966" target="_top" xlink:title=" ">
<polygon fill="white" stroke="#666666" points="1953.38,-502.13 1832.38,-502.13 1832.38,-482.88 1953.38,-482.88 1953.38,-502.13"/>
<text xml:space="preserve" text-anchor="middle" x="1892.88" y="-488.63" font-family="Helvetica,sans-Serif" font-size="10.00">PGB_LibraryScene_free</text>
</a>
</g>
</g>
<!-- Node1&#45;&gt;Node17 -->
<g id="edge18_Node000001_Node000017" class="edge">
<title>Node1&#45;&gt;Node17</title>
<g id="a_edge18_Node000001_Node000017"><a xlink:title=" ">
<path fill="none" stroke="#63b8ff" d="M2680.6,-398.38C2667.45,-420.95 2642.68,-456.79 2610.25,-473.5 2522.76,-518.58 2488.04,-492.5 2389.62,-492.5 2389.62,-492.5 2389.62,-492.5 2229.5,-492.5 2132.92,-492.5 2020.71,-492.5 1953.59,-492.5"/>
<polygon fill="#63b8ff" stroke="#63b8ff" points="2683.55,-400.27 2685.36,-389.83 2677.43,-396.86 2683.55,-400.27"/>
</a>
</g>
</g>
<!-- Node18 -->
<g id="Node000018" class="node">
<title>Node18</title>
<g id="a_Node000018"><a xlink:href="modal_8c.html#a1ee57881ac094224de4f48c6028052a2" target="_top" xlink:title=" ">
<polygon fill="white" stroke="#666666" points="2593.75,-271.13 2503.5,-271.13 2503.5,-251.88 2593.75,-251.88 2593.75,-271.13"/>
<text xml:space="preserve" text-anchor="middle" x="2548.62" y="-257.63" font-family="Helvetica,sans-Serif" font-size="10.00">PGB_Modal_free</text>
</a>
</g>
</g>
<!-- Node1&#45;&gt;Node18 -->
<g id="edge20_Node000001_Node000018" class="edge">
<title>Node1&#45;&gt;Node18</title>
<g id="a_edge20_Node000001_Node000018"><a xlink:title=" ">
<path fill="none" stroke="#63b8ff" d="M2670.23,-361.23C2640.19,-336.39 2585.76,-291.38 2561.66,-271.45"/>
<polygon fill="#63b8ff" stroke="#63b8ff" points="2667.96,-363.89 2677.89,-367.56 2672.42,-358.49 2667.96,-363.89"/>
</a>
</g>
</g>
<!-- Node32 -->
<g id="Node000032" class="node">
<title>Node32</title>
<g id="a_Node000032"><a xlink:href="scene_8c.html#ad265debc38bb5c7087e5327d08a713d6" target="_top" xlink:title=" ">
<polygon fill="white" stroke="#666666" points="2595.25,-350.13 2502,-350.13 2502,-330.88 2595.25,-330.88 2595.25,-350.13"/>
<text xml:space="preserve" text-anchor="middle" x="2548.62" y="-336.63" font-family="Helvetica,sans-Serif" font-size="10.00">PGB_Scene_new</text>
</a>
</g>
</g>
<!-- Node1&#45;&gt;Node32 -->
<g id="edge44_Node000001_Node000032" class="edge">
<title>Node1&#45;&gt;Node32</title>
<g id="a_edge44_Node000001_Node000032"><a xlink:title=" ">
<path fill="none" stroke="#63b8ff" d="M2642.56,-365.46C2624.32,-360.56 2603.9,-355.08 2586.86,-350.5"/>
<polygon fill="#63b8ff" stroke="#63b8ff" points="2641.55,-368.81 2652.12,-368.03 2643.37,-362.05 2641.55,-368.81"/>
</a>
</g>
</g>
<!-- Node33 -->
<g id="Node000033" class="node">
<title>Node33</title>
<g id="a_Node000033"><a xlink:href="settings__scene_8c.html#a94443c0dbbd6670bccbe9f9de4d85c5e" target="_top" xlink:title=" ">
<polygon fill="white" stroke="#666666" points="1784.75,-426.13 1657,-426.13 1657,-406.88 1784.75,-406.88 1784.75,-426.13"/>
<text xml:space="preserve" text-anchor="middle" x="1720.88" y="-412.63" font-family="Helvetica,sans-Serif" font-size="10.00">PGB_SettingsScene_free</text>
</a>
</g>
</g>
<!-- Node1&#45;&gt;Node33 -->
<g id="edge51_Node000001_Node000033" class="edge">
<title>Node1&#45;&gt;Node33</title>
<g id="a_edge51_Node000001_Node000033"><a xlink:title=" ">
<path fill="none" stroke="#63b8ff" d="M2634.71,-389.9C2574.33,-401.1 2475.62,-416.5 2389.62,-416.5 2389.62,-416.5 2389.62,-416.5 2066.88,-416.5 1968.5,-416.5 1854.34,-416.5 1785.15,-416.5"/>
<polygon fill="#63b8ff" stroke="#63b8ff" points="2635.22,-393.37 2644.4,-388.08 2633.93,-386.49 2635.22,-393.37"/>
</a>
</g>
</g>
<!-- Node3 -->
<g id="Node000003" class="node">
<title>Node3</title>
<g id="a_Node000003"><a xlink:href="credits__scene_8c.html#a383fece6abe27ee451fa01b127812a6d" target="_top" xlink:title=" ">
<polygon fill="white" stroke="#666666" points="2451,-464.13 2326.25,-464.13 2326.25,-444.88 2451,-444.88 2451,-464.13"/>
<text xml:space="preserve" text-anchor="middle" x="2388.62" y="-450.63" font-family="Helvetica,sans-Serif" font-size="10.00">PGB_CreditsScene_new</text>
</a>
</g>
</g>
<!-- Node2&#45;&gt;Node3 -->
<g id="edge2_Node000002_Node000003" class="edge">
<title>Node2&#45;&gt;Node3</title>
<g id="a_edge2_Node000002_Node000003"><a xlink:title=" ">
<path fill="none" stroke="#63b8ff" d="M2475.03,-454.5C2467.11,-454.5 2459.1,-454.5 2451.33,-454.5"/>
<polygon fill="#63b8ff" stroke="#63b8ff" points="2475.02,-458 2485.02,-454.5 2475.02,-451 2475.02,-458"/>
</a>
</g>
</g>
<!-- Node4 -->
<g id="Node000004" class="node">
<title>Node4</title>
<g id="a_Node000004"><a xlink:href="library__scene_8c.html#a226d6ce979bacb7e37c185d5b32a7361" target="_top" xlink:title=" ">
<polygon fill="white" stroke="#666666" points="1621,-464.13 1461.75,-464.13 1461.75,-444.88 1621,-444.88 1621,-464.13"/>
<text xml:space="preserve" text-anchor="middle" x="1541.38" y="-450.63" font-family="Helvetica,sans-Serif" font-size="10.00">PGB_LibraryScene_showCredits</text>
</a>
</g>
</g>
<!-- Node3&#45;&gt;Node4 -->
<g id="edge3_Node000003_Node000004" class="edge">
<title>Node3&#45;&gt;Node4</title>
<g id="a_edge3_Node000003_Node000004"><a xlink:title=" ">
<path fill="none" stroke="#63b8ff" d="M2314.64,-454.5C2250.04,-454.5 2153.18,-454.5 2068.88,-454.5 2068.88,-454.5 2068.88,-454.5 1891.88,-454.5 1799.04,-454.5 1692.33,-454.5 1621.49,-454.5"/>
<polygon fill="#63b8ff" stroke="#63b8ff" points="2314.41,-458 2324.41,-454.5 2314.41,-451 2314.41,-458"/>
</a>
</g>
</g>
<!-- Node5 -->
<g id="Node000005" class="node">
<title>Node5</title>
<g id="a_Node000005"><a xlink:href="library__scene_8c.html#ab295872b275c54cb2800b2b71fd163ef" target="_top" xlink:title=" ">
<polygon fill="white" stroke="#666666" points="884.25,-331.13 755.75,-331.13 755.75,-311.88 884.25,-311.88 884.25,-331.13"/>
<text xml:space="preserve" text-anchor="middle" x="820" y="-317.63" font-family="Helvetica,sans-Serif" font-size="10.00">PGB_LibraryScene_menu</text>
</a>
</g>
</g>
<!-- Node4&#45;&gt;Node5 -->
<g id="edge4_Node000004_Node000005" class="edge">
<title>Node4&#45;&gt;Node5</title>
<g id="a_edge4_Node000004_Node000005"><a xlink:title=" ">
<path fill="none" stroke="#63b8ff" d="M1473.49,-442.37C1359.78,-421.72 1121.52,-378.27 920.25,-340.5 904.99,-337.64 888.42,-334.49 873.27,-331.58"/>
<polygon fill="#63b8ff" stroke="#63b8ff" points="1472.81,-445.81 1483.27,-444.15 1474.06,-438.92 1472.81,-445.81"/>
</a>
</g>
</g>
<!-- Node6 -->
<g id="Node000006" class="node">
<title>Node6</title>
<g id="a_Node000006"><a xlink:href="library__scene_8c.html#aa5c386d39121b53fba45d899df654188" target="_top" xlink:title=" ">
<polygon fill="white" stroke="#666666" points="719.75,-227.13 597.25,-227.13 597.25,-207.88 719.75,-207.88 719.75,-227.13"/>
<text xml:space="preserve" text-anchor="middle" x="658.5" y="-213.63" font-family="Helvetica,sans-Serif" font-size="10.00">PGB_LibraryScene_new</text>
</a>
</g>
</g>
<!-- Node5&#45;&gt;Node6 -->
<g id="edge5_Node000005_Node000006" class="edge">
<title>Node5&#45;&gt;Node6</title>
<g id="a_edge5_Node000005_Node000006"><a xlink:title=" ">
<path fill="none" stroke="#63b8ff" d="M794.23,-305.35C760.92,-283.63 702.68,-245.66 674.98,-227.6"/>
<polygon fill="#63b8ff" stroke="#63b8ff" points="792.15,-308.17 802.44,-310.7 795.97,-302.31 792.15,-308.17"/>
</a>
</g>
</g>
<!-- Node7 -->
<g id="Node000007" class="node">
<title>Node7</title>
<g id="a_Node000007"><a xlink:href="app_8c.html#ab80501f53b757a79772b96ec99e3dc7e" target="_top" xlink:title=" ">
<polygon fill="white" stroke="#666666" points="534.25,-188.13 441.75,-188.13 441.75,-168.88 534.25,-168.88 534.25,-188.13"/>
<text xml:space="preserve" text-anchor="middle" x="488" y="-174.63" font-family="Helvetica,sans-Serif" font-size="10.00">PGB_goToLibrary</text>
</a>
</g>
</g>
<!-- Node6&#45;&gt;Node7 -->
<g id="edge6_Node000006_Node000007" class="edge">
<title>Node6&#45;&gt;Node7</title>
<g id="a_edge6_Node000006_Node000007"><a xlink:title=" ">
<path fill="none" stroke="#63b8ff" d="M603.19,-204.93C580.33,-199.64 554.1,-193.57 532.54,-188.58"/>
<polygon fill="#63b8ff" stroke="#63b8ff" points="602.1,-208.27 612.63,-207.12 603.68,-201.45 602.1,-208.27"/>
</a>
</g>
</g>
<!-- Node10 -->
<g id="Node000010" class="node">
<title>Node10</title>
<g id="a_Node000010"><a xlink:href="image__conversion__scene_8c.html#a60d0e43ab25a8639bbb6d1f4e758edd3" target="_top" xlink:title=" ">
<polygon fill="white" stroke="#666666" points="561.25,-275.75 414.75,-275.75 414.75,-245.25 561.25,-245.25 561.25,-275.75"/>
<text xml:space="preserve" text-anchor="start" x="422.75" y="-262.25" font-family="Helvetica,sans-Serif" font-size="10.00">PGB_ImageConversionScene</text>
<text xml:space="preserve" text-anchor="middle" x="488" y="-251" font-family="Helvetica,sans-Serif" font-size="10.00">_update</text>
</a>
</g>
</g>
<!-- Node6&#45;&gt;Node10 -->
<g id="edge9_Node000006_Node000010" class="edge">
<title>Node6&#45;&gt;Node10</title>
<g id="a_edge9_Node000006_Node000010"><a xlink:title=" ">
<path fill="none" stroke="#63b8ff" d="M607.02,-230.38C589.31,-234.9 569.21,-240.03 550.68,-244.76"/>
<polygon fill="#63b8ff" stroke="#63b8ff" points="607.7,-233.82 616.53,-227.96 605.97,-227.04 607.7,-233.82"/>
</a>
</g>
</g>
<!-- Node12 -->
<g id="Node000012" class="node">
<title>Node12</title>
<g id="a_Node000012"><a xlink:href="app_8c.html#af256ea7a9c51fcbd49cb0007facbb8ea" target="_top" xlink:title=" ">
<polygon fill="white" stroke="#666666" points="166.25,-248.13 111.25,-248.13 111.25,-228.88 166.25,-228.88 166.25,-248.13"/>
<text xml:space="preserve" text-anchor="middle" x="138.75" y="-234.63" font-family="Helvetica,sans-Serif" font-size="10.00">PGB_init</text>
</a>
</g>
</g>
<!-- Node6&#45;&gt;Node12 -->
<g id="edge13_Node000006_Node000012" class="edge">
<title>Node6&#45;&gt;Node12</title>
<g id="a_edge13_Node000006_Node000012"><a xlink:title=" ">
<path fill="none" stroke="#63b8ff" d="M585.57,-220.42C469.01,-225.15 244.13,-234.27 166.71,-237.41"/>
<polygon fill="#63b8ff" stroke="#63b8ff" points="585.48,-223.93 595.33,-220.02 585.19,-216.93 585.48,-223.93"/>
</a>
</g>
</g>
<!-- Node8 -->
<g id="Node000008" class="node">
<title>Node8</title>
<g id="a_Node000008"><a xlink:href="game__scene_8c.html#a6a4a6f0408da311dc566eb187e497889" target="_top" xlink:title=" ">
<polygon fill="white" stroke="#666666" points="360,-188.13 227.75,-188.13 227.75,-168.88 360,-168.88 360,-188.13"/>
<text xml:space="preserve" text-anchor="middle" x="293.88" y="-174.63" font-family="Helvetica,sans-Serif" font-size="10.00">PGB_LibraryConfirmModal</text>
</a>
</g>
</g>
<!-- Node7&#45;&gt;Node8 -->
<g id="edge7_Node000007_Node000008" class="edge">
<title>Node7&#45;&gt;Node8</title>
<g id="a_edge7_Node000007_Node000008"><a xlink:title=" ">
<path fill="none" stroke="#63b8ff" d="M430.03,-178.5C408.17,-178.5 383.05,-178.5 360.44,-178.5"/>
<polygon fill="#63b8ff" stroke="#63b8ff" points="429.96,-182 439.96,-178.5 429.96,-175 429.96,-182"/>
</a>
</g>
</g>
<!-- Node9 -->
<g id="Node000009" class="node">
<title>Node9</title>
<g id="a_Node000009"><a xlink:href="game__scene_8c.html#a113df24bb94bafcdbb9235ec8648e02f" target="_top" xlink:title=" ">
<polygon fill="white" stroke="#666666" points="173,-168.13 104.5,-168.13 104.5,-148.88 173,-148.88 173,-168.13"/>
<text xml:space="preserve" text-anchor="middle" x="138.75" y="-154.63" font-family="Helvetica,sans-Serif" font-size="10.00">__section__</text>
</a>
</g>
</g>
<!-- Node8&#45;&gt;Node9 -->
<g id="edge8_Node000008_Node000009" class="edge">
<title>Node8&#45;&gt;Node9</title>
<g id="a_edge8_Node000008_Node000009"><a xlink:title=" ">
<path fill="none" stroke="#63b8ff" d="M216.47,-168.52C201.28,-166.54 186.08,-164.55 173.27,-162.88"/>
<polygon fill="#63b8ff" stroke="#63b8ff" points="215.62,-171.94 225.99,-169.77 216.53,-165 215.62,-171.94"/>
</a>
</g>
</g>
<!-- Node11 -->
<g id="Node000011" class="node">
<title>Node11</title>
<g id="a_Node000011"><a xlink:href="image__conversion__scene_8c.html#aa3559936491ddf78b9cf06fcbdd32d22" target="_top" xlink:title=" ">
<polygon fill="white" stroke="#666666" points="378.75,-270.13 209,-270.13 209,-250.88 378.75,-250.88 378.75,-270.13"/>
<text xml:space="preserve" text-anchor="middle" x="293.88" y="-256.63" font-family="Helvetica,sans-Serif" font-size="10.00">PGB_ImageConversionScene_new</text>
</a>
</g>
</g>
<!-- Node10&#45;&gt;Node11 -->
<g id="edge10_Node000010_Node000011" class="edge">
<title>Node10&#45;&gt;Node11</title>
<g id="a_edge10_Node000010_Node000011"><a xlink:title=" ">
<path fill="none" stroke="#63b8ff" d="M402.94,-260.5C395.07,-260.5 387.09,-260.5 379.22,-260.5"/>
<polygon fill="#63b8ff" stroke="#63b8ff" points="402.85,-264 412.85,-260.5 402.85,-257 402.85,-264"/>
</a>
</g>
</g>
<!-- Node11&#45;&gt;Node12 -->
<g id="edge11_Node000011_Node000012" class="edge">
<title>Node11&#45;&gt;Node12</title>
<g id="a_edge11_Node000011_Node000012"><a xlink:title=" ">
<path fill="none" stroke="#63b8ff" d="M211.33,-248.79C195.09,-246.45 179.14,-244.16 166.44,-242.34"/>
<polygon fill="#63b8ff" stroke="#63b8ff" points="210.69,-252.23 221.09,-250.19 211.69,-245.3 210.69,-252.23"/>
</a>
</g>
</g>
<!-- Node13 -->
<g id="Node000013" class="node">
<title>Node13</title>
<g id="a_Node000013"><a xlink:href="main_8c.html#a77034286b8c64d0735c69535c5e9b732" target="_top" xlink:title=" ">
<polygon fill="white" stroke="#666666" points="68.5,-248.13 0,-248.13 0,-228.88 68.5,-228.88 68.5,-248.13"/>
<text xml:space="preserve" text-anchor="middle" x="34.25" y="-234.63" font-family="Helvetica,sans-Serif" font-size="10.00">__section__</text>
</a>
</g>
</g>
<!-- Node12&#45;&gt;Node13 -->
<g id="edge12_Node000012_Node000013" class="edge">
<title>Node12&#45;&gt;Node13</title>
<g id="a_edge12_Node000012_Node000013"><a xlink:title=" ">
<path fill="none" stroke="#63b8ff" d="M99.48,-238.5C89.46,-238.5 78.74,-238.5 68.97,-238.5"/>
<polygon fill="#63b8ff" stroke="#63b8ff" points="99.31,-242 109.31,-238.5 99.31,-235 99.31,-242"/>
</a>
</g>
</g>
<!-- Node15 -->
<g id="Node000015" class="node">
<title>Node15</title>
<g id="a_Node000015"><a xlink:href="game__scene_8c.html#ab923ed4c6ccad95026e85e252071716d" target="_top" xlink:title=" ">
<polygon fill="white" stroke="#666666" points="2290.25,-40.13 2170.75,-40.13 2170.75,-20.88 2290.25,-20.88 2290.25,-40.13"/>
<text xml:space="preserve" text-anchor="middle" x="2230.5" y="-26.63" font-family="Helvetica,sans-Serif" font-size="10.00">PGB_GameScene_new</text>
</a>
</g>
</g>
<!-- Node14&#45;&gt;Node15 -->
<g id="edge15_Node000014_Node000015" class="edge">
<title>Node14&#45;&gt;Node15</title>
<g id="a_edge15_Node000014_Node000015"><a xlink:title=" ">
<path fill="none" stroke="#63b8ff" d="M2318.36,-41.07C2309.14,-39.95 2299.75,-38.81 2290.73,-37.71"/>
<polygon fill="#63b8ff" stroke="#63b8ff" points="2317.64,-44.51 2327.99,-42.24 2318.48,-37.56 2317.64,-44.51"/>
</a>
</g>
</g>
<!-- Node16 -->
<g id="Node000016" class="node">
<title>Node16</title>
<g id="a_Node000016"><a xlink:href="library__scene_8c.html#a0728002045c9cbbd68bdd34897b28da6" target="_top" xlink:title=" ">
<polygon fill="white" stroke="#666666" points="2134.75,-102.13 2001,-102.13 2001,-82.88 2134.75,-82.88 2134.75,-102.13"/>
<text xml:space="preserve" text-anchor="middle" x="2067.88" y="-88.63" font-family="Helvetica,sans-Serif" font-size="10.00">PGB_LibraryScene_update</text>
</a>
</g>
</g>
<!-- Node15&#45;&gt;Node16 -->
<g id="edge16_Node000015_Node000016" class="edge">
<title>Node15&#45;&gt;Node16</title>
<g id="a_edge16_Node000015_Node000016"><a xlink:title=" ">
<path fill="none" stroke="#63b8ff" d="M2192.91,-44.63C2163.06,-56.15 2121.63,-72.14 2095.03,-82.41"/>
<polygon fill="#63b8ff" stroke="#63b8ff" points="2193.85,-48.01 2201.92,-41.15 2191.33,-41.48 2193.85,-48.01"/>
</a>
</g>
</g>
<!-- Node16&#45;&gt;Node6 -->
<g id="edge17_Node000016_Node000006" class="edge">
<title>Node16&#45;&gt;Node6</title>
<g id="a_edge17_Node000016_Node000006"><a xlink:title=" ">
<path fill="none" stroke="#63b8ff" d="M2002.19,-104.52C1933.05,-116.3 1820.12,-132.5 1721.88,-132.5 1721.88,-132.5 1721.88,-132.5 1001.12,-132.5 878.28,-132.5 737.74,-184.9 683.02,-207.42"/>
<polygon fill="#63b8ff" stroke="#63b8ff" points="2002.57,-108.01 2011.82,-102.85 2001.37,-101.11 2002.57,-108.01"/>
</a>
</g>
</g>
<!-- Node17&#45;&gt;Node6 -->
<g id="edge19_Node000017_Node000006" class="edge">
<title>Node17&#45;&gt;Node6</title>
<g id="a_edge19_Node000017_Node000006"><a xlink:title=" ">
<path fill="none" stroke="#63b8ff" d="M1820.48,-492.5C1749.84,-492.5 1638.65,-492.5 1542.38,-492.5 1542.38,-492.5 1542.38,-492.5 1001.12,-492.5 828.67,-492.5 693.95,-277.23 665.19,-227.62"/>
<polygon fill="#63b8ff" stroke="#63b8ff" points="1820.37,-496 1830.37,-492.5 1820.37,-489 1820.37,-496"/>
</a>
</g>
</g>
<!-- Node19 -->
<g id="Node000019" class="node">
<title>Node19</title>
<g id="a_Node000019"><a xlink:href="modal_8c.html#a3b0cd5e70689166a33a56d512d8577e5" target="_top" xlink:title=" ">
<polygon fill="white" stroke="#666666" points="2434.5,-210.13 2342.75,-210.13 2342.75,-190.88 2434.5,-190.88 2434.5,-210.13"/>
<text xml:space="preserve" text-anchor="middle" x="2388.62" y="-196.63" font-family="Helvetica,sans-Serif" font-size="10.00">PGB_Modal_new</text>
</a>
</g>
</g>
<!-- Node18&#45;&gt;Node19 -->
<g id="edge21_Node000018_Node000019" class="edge">
<title>Node18&#45;&gt;Node19</title>
<g id="a_edge21_Node000018_Node000019"><a xlink:title=" ">
<path fill="none" stroke="#63b8ff" d="M2510.95,-247.34C2481.79,-236.09 2441.73,-220.62 2415.75,-210.59"/>
<polygon fill="#63b8ff" stroke="#63b8ff" points="2509.53,-250.55 2520.12,-250.88 2512.05,-244.02 2509.53,-250.55"/>
</a>
</g>
</g>
<!-- Node19&#45;&gt;Node9 -->
<g id="edge22_Node000019_Node000009" class="edge">
<title>Node19&#45;&gt;Node9</title>
<g id="a_edge22_Node000019_Node000009"><a xlink:title=" ">
<path fill="none" stroke="#63b8ff" d="M2367.11,-183.3C2354.59,-172.3 2338.66,-157.34 2326.25,-142.5 2307.5,-120.09 2315.3,-102.54 2290.25,-87.5 2276.25,-79.1 1968.26,-54.5 1893.88,-54.5 1893.88,-54.5 1893.88,-54.5 487,-54.5 356.73,-54.5 210.09,-122.5 158.73,-148.53"/>
<polygon fill="#63b8ff" stroke="#63b8ff" points="2364.52,-185.69 2374.37,-189.57 2369.09,-180.39 2364.52,-185.69"/>
</a>
</g>
</g>
<!-- Node19&#45;&gt;Node15 -->
<g id="edge34_Node000019_Node000015" class="edge">
<title>Node19&#45;&gt;Node15</title>
<g id="a_edge34_Node000019_Node000015"><a xlink:title=" ">
<path fill="none" stroke="#63b8ff" d="M2371.89,-181.74C2358.95,-165.9 2340.48,-142.37 2326.25,-120.5 2308.03,-92.5 2315.16,-76.78 2290.25,-54.5 2283.68,-48.63 2275.48,-44.08 2267.31,-40.6"/>
<polygon fill="#63b8ff" stroke="#63b8ff" points="2369.12,-183.87 2378.19,-189.35 2374.52,-179.41 2369.12,-183.87"/>
</a>
</g>
</g>
<!-- Node20 -->
<g id="Node000020" class="node">
<title>Node20</title>
<g id="a_Node000020"><a xlink:href="library__scene_8c.html#ab61f378dd09afd7715687d7917da8d1a" target="_top" xlink:title=" ">
<polygon fill="white" stroke="#666666" points="2276,-116.13 2185,-116.13 2185,-96.88 2276,-96.88 2276,-116.13"/>
<text xml:space="preserve" text-anchor="middle" x="2230.5" y="-102.63" font-family="Helvetica,sans-Serif" font-size="10.00">CB_updatecheck</text>
</a>
</g>
</g>
<!-- Node19&#45;&gt;Node20 -->
<g id="edge23_Node000019_Node000020" class="edge">
<title>Node19&#45;&gt;Node20</title>
<g id="a_edge23_Node000019_Node000020"><a xlink:title=" ">
<path fill="none" stroke="#63b8ff" d="M2369.05,-182.58C2350.45,-165.52 2320.35,-140.18 2290.25,-124.5 2284.38,-121.45 2277.91,-118.82 2271.47,-116.58"/>
<polygon fill="#63b8ff" stroke="#63b8ff" points="2366.63,-185.12 2376.33,-189.4 2371.42,-180.01 2366.63,-185.12"/>
</a>
</g>
</g>
<!-- Node21 -->
<g id="Node000021" class="node">
<title>Node21</title>
<g id="a_Node000021"><a xlink:href="settings__scene_8c.html#a391e7ae486f08b8455185927863452ed" target="_top" xlink:title=" ">
<polygon fill="white" stroke="#666666" points="2281.25,-153.13 2179.75,-153.13 2179.75,-133.88 2281.25,-133.88 2281.25,-153.13"/>
<text xml:space="preserve" text-anchor="middle" x="2230.5" y="-139.63" font-family="Helvetica,sans-Serif" font-size="10.00">confirm_save_state</text>
</a>
</g>
</g>
<!-- Node19&#45;&gt;Node21 -->
<g id="edge25_Node000019_Node000021" class="edge">
<title>Node19&#45;&gt;Node21</title>
<g id="a_edge25_Node000019_Node000021"><a xlink:title=" ">
<path fill="none" stroke="#63b8ff" d="M2349.47,-186.57C2321.49,-176.36 2284.15,-162.73 2259.04,-153.56"/>
<polygon fill="#63b8ff" stroke="#63b8ff" points="2348.06,-189.78 2358.65,-189.92 2350.46,-183.21 2348.06,-189.78"/>
</a>
</g>
</g>
<!-- Node22 -->
<g id="Node000022" class="node">
<title>Node22</title>
<g id="a_Node000022"><a xlink:href="settings__scene_8c.html#a8057455d49efce21fc559d502d1b65dc" target="_top" xlink:title=" ">
<polygon fill="white" stroke="#666666" points="2122,-150.75 2013.75,-150.75 2013.75,-120.25 2122,-120.25 2122,-150.75"/>
<text xml:space="preserve" text-anchor="start" x="2021.75" y="-137.25" font-family="Helvetica,sans-Serif" font-size="10.00">settings_action_save</text>
<text xml:space="preserve" text-anchor="middle" x="2067.88" y="-126" font-family="Helvetica,sans-Serif" font-size="10.00">_state</text>
</a>
</g>
</g>
<!-- Node19&#45;&gt;Node22 -->
<g id="edge39_Node000019_Node000022" class="edge">
<title>Node19&#45;&gt;Node22</title>
<g id="a_edge39_Node000019_Node000022"><a xlink:title=" ">
<path fill="none" stroke="#63b8ff" d="M2331.23,-191.98C2287.31,-185.01 2224.9,-174.4 2170.75,-162.5 2154.93,-159.03 2137.88,-154.73 2122.33,-150.59"/>
<polygon fill="#63b8ff" stroke="#63b8ff" points="2330.63,-195.43 2341.05,-193.52 2331.72,-188.51 2330.63,-195.43"/>
</a>
</g>
</g>
<!-- Node28 -->
<g id="Node000028" class="node">
<title>Node28</title>
<g id="a_Node000028"><a xlink:href="settings__scene_8c.html#a5cfb11a3e4e6ecfc7430e17d5e8ebc10" target="_top" xlink:title=" ">
<polygon fill="white" stroke="#666666" points="1965,-312.75 1820.75,-312.75 1820.75,-282.25 1965,-282.25 1965,-312.75"/>
<text xml:space="preserve" text-anchor="start" x="1828.75" y="-299.25" font-family="Helvetica,sans-Serif" font-size="10.00">PGB_SettingsScene_attempt</text>
<text xml:space="preserve" text-anchor="middle" x="1892.88" y="-288" font-family="Helvetica,sans-Serif" font-size="10.00">Dismiss</text>
</a>
</g>
</g>
<!-- Node19&#45;&gt;Node28 -->
<g id="edge35_Node000019_Node000028" class="edge">
<title>Node19&#45;&gt;Node28</title>
<g id="a_edge35_Node000019_Node000028"><a xlink:title=" ">
<path fill="none" stroke="#63b8ff" d="M2371.18,-218.65C2353.3,-236.99 2322.88,-264.3 2290.25,-276.5 2182.46,-316.81 2046.62,-313.46 1965.2,-306.27"/>
<polygon fill="#63b8ff" stroke="#63b8ff" points="2373.54,-221.25 2377.87,-211.58 2368.46,-216.44 2373.54,-221.25"/>
</a>
</g>
</g>
<!-- Node29 -->
<g id="Node000029" class="node">
<title>Node29</title>
<g id="a_Node000029"><a xlink:href="settings__scene_8c.html#ae138f8df889d309ab5c1474100b5e04e" target="_top" xlink:title=" ">
<polygon fill="white" stroke="#666666" points="1945.5,-234.75 1840.25,-234.75 1840.25,-204.25 1945.5,-204.25 1945.5,-234.75"/>
<text xml:space="preserve" text-anchor="start" x="1848.25" y="-221.25" font-family="Helvetica,sans-Serif" font-size="10.00">settings_action_load</text>
<text xml:space="preserve" text-anchor="middle" x="1892.88" y="-210" font-family="Helvetica,sans-Serif" font-size="10.00">_state</text>
</a>
</g>
</g>
<!-- Node19&#45;&gt;Node29 -->
<g id="edge37_Node000019_Node000029" class="edge">
<title>Node19&#45;&gt;Node29</title>
<g id="a_edge37_Node000019_Node000029"><a xlink:title=" ">
<path fill="none" stroke="#63b8ff" d="M2331.43,-196.25C2256.02,-191.41 2118.04,-185.61 2001,-197.5 1982.87,-199.35 1963.27,-202.9 1945.85,-206.62"/>
<polygon fill="#63b8ff" stroke="#63b8ff" points="2330.81,-199.71 2341.02,-196.88 2331.28,-192.73 2330.81,-199.71"/>
</a>
</g>
</g>
<!-- Node30 -->
<g id="Node000030" class="node">
<title>Node30</title>
<g id="a_Node000030"><a xlink:href="settings__scene_8c.html#a498486c7b338f8ace4aebad51faa1bce" target="_top" xlink:title=" ">
<polygon fill="white" stroke="#666666" points="2280.88,-267.13 2180.12,-267.13 2180.12,-247.88 2280.88,-247.88 2280.88,-267.13"/>
<text xml:space="preserve" text-anchor="middle" x="2230.5" y="-253.63" font-family="Helvetica,sans-Serif" font-size="10.00">settings_load_state</text>
</a>
</g>
</g>
<!-- Node19&#45;&gt;Node30 -->
<g id="edge40_Node000019_Node000030" class="edge">
<title>Node19&#45;&gt;Node30</title>
<g id="a_edge40_Node000019_Node000030"><a xlink:title=" ">
<path fill="none" stroke="#63b8ff" d="M2349.47,-214.43C2321.49,-224.65 2284.15,-238.28 2259.04,-247.45"/>
<polygon fill="#63b8ff" stroke="#63b8ff" points="2350.46,-217.8 2358.65,-211.08 2348.06,-211.22 2350.46,-217.8"/>
</a>
</g>
</g>
<!-- Node20&#45;&gt;Node16 -->
<g id="edge24_Node000020_Node000016" class="edge">
<title>Node20&#45;&gt;Node16</title>
<g id="a_edge24_Node000020_Node000016"><a xlink:title=" ">
<path fill="none" stroke="#63b8ff" d="M2173.6,-101.63C2161.14,-100.54 2147.82,-99.38 2135,-98.27"/>
<polygon fill="#63b8ff" stroke="#63b8ff" points="2172.98,-105.09 2183.25,-102.47 2173.59,-98.12 2172.98,-105.09"/>
</a>
</g>
</g>
<!-- Node21&#45;&gt;Node22 -->
<g id="edge26_Node000021_Node000022" class="edge">
<title>Node21&#45;&gt;Node22</title>
<g id="a_edge26_Node000021_Node000022"><a xlink:title=" ">
<path fill="none" stroke="#63b8ff" d="M2168.24,-140.45C2153.15,-139.7 2137.1,-138.9 2122.41,-138.17"/>
<polygon fill="#63b8ff" stroke="#63b8ff" points="2167.88,-143.94 2178.05,-140.94 2168.23,-136.95 2167.88,-143.94"/>
</a>
</g>
</g>
<!-- Node23 -->
<g id="Node000023" class="node">
<title>Node23</title>
<g id="a_Node000023"><a xlink:href="settings__scene_8c.html#a4b52b1fbb1659ff3a37571a03b66cc5f" target="_top" xlink:title=" ">
<polygon fill="white" stroke="#666666" points="1767.88,-228.13 1673.88,-228.13 1673.88,-208.88 1767.88,-208.88 1767.88,-228.13"/>
<text xml:space="preserve" text-anchor="middle" x="1720.88" y="-214.63" font-family="Helvetica,sans-Serif" font-size="10.00">getOptionsEntries</text>
</a>
</g>
</g>
<!-- Node22&#45;&gt;Node23 -->
<g id="edge27_Node000022_Node000023" class="edge">
<title>Node22&#45;&gt;Node23</title>
<g id="a_edge27_Node000022_Node000023"><a xlink:title=" ">
<path fill="none" stroke="#63b8ff" d="M2002.5,-150.99C1932.7,-167.78 1823.34,-194.09 1763.85,-208.4"/>
<polygon fill="#63b8ff" stroke="#63b8ff" points="2002.97,-154.48 2011.88,-148.73 2001.33,-147.67 2002.97,-154.48"/>
</a>
</g>
</g>
<!-- Node24 -->
<g id="Node000024" class="node">
<title>Node24</title>
<g id="a_Node000024"><a xlink:href="settings__scene_8c.html#a7a2a61c35c00f7990b0a85f16e5c9975" target="_top" xlink:title=" ">
<polygon fill="white" stroke="#666666" points="1249.25,-331.13 1120,-331.13 1120,-311.88 1249.25,-311.88 1249.25,-331.13"/>
<text xml:space="preserve" text-anchor="middle" x="1184.62" y="-317.63" font-family="Helvetica,sans-Serif" font-size="10.00">PGB_SettingsScene_new</text>
</a>
</g>
</g>
<!-- Node23&#45;&gt;Node24 -->
<g id="edge28_Node000023_Node000024" class="edge">
<title>Node23&#45;&gt;Node24</title>
<g id="a_edge28_Node000023_Node000024"><a xlink:title=" ">
<path fill="none" stroke="#63b8ff" d="M1661.94,-219.02C1609.38,-220.27 1529.9,-224.11 1461.75,-235.5 1381.57,-248.91 1362.54,-258.32 1285.25,-283.5 1259.2,-291.99 1229.97,-303.36 1209.95,-311.45"/>
<polygon fill="#63b8ff" stroke="#63b8ff" points="1661.95,-222.52 1671.88,-218.81 1661.81,-215.52 1661.95,-222.52"/>
</a>
</g>
</g>
<!-- Node26 -->
<g id="Node000026" class="node">
<title>Node26</title>
<g id="a_Node000026"><a xlink:href="settings__scene_8c.html#a53cacc500b0aa21588b00f234b5ddd92" target="_top" xlink:title=" ">
<polygon fill="white" stroke="#666666" points="1611.25,-274.75 1471.5,-274.75 1471.5,-244.25 1611.25,-244.25 1611.25,-274.75"/>
<text xml:space="preserve" text-anchor="start" x="1479.5" y="-261.25" font-family="Helvetica,sans-Serif" font-size="10.00">PGB_SettingsScene_rebuild</text>
<text xml:space="preserve" text-anchor="middle" x="1541.38" y="-250" font-family="Helvetica,sans-Serif" font-size="10.00">Entries</text>
</a>
</g>
</g>
<!-- Node23&#45;&gt;Node26 -->
<g id="edge31_Node000023_Node000026" class="edge">
<title>Node23&#45;&gt;Node26</title>
<g id="a_edge31_Node000023_Node000026"><a xlink:title=" ">
<path fill="none" stroke="#63b8ff" d="M1665.35,-231.1C1647.95,-235.12 1628.48,-239.61 1610.25,-243.82"/>
<polygon fill="#63b8ff" stroke="#63b8ff" points="1666.02,-234.53 1674.98,-228.87 1664.45,-227.71 1666.02,-234.53"/>
</a>
</g>
</g>
<!-- Node25 -->
<g id="Node000025" class="node">
<title>Node25</title>
<g id="a_Node000025"><a xlink:href="library__scene_8c.html#ae9da6d35e322c1a0896926f6a66c66f1" target="_top" xlink:title=" ">
<polygon fill="white" stroke="#666666" points="1084,-331.13 920.25,-331.13 920.25,-311.88 1084,-311.88 1084,-331.13"/>
<text xml:space="preserve" text-anchor="middle" x="1002.12" y="-317.63" font-family="Helvetica,sans-Serif" font-size="10.00">PGB_LibraryScene_showSettings</text>
</a>
</g>
</g>
<!-- Node24&#45;&gt;Node25 -->
<g id="edge29_Node000024_Node000025" class="edge">
<title>Node24&#45;&gt;Node25</title>
<g id="a_edge29_Node000024_Node000025"><a xlink:title=" ">
<path fill="none" stroke="#63b8ff" d="M1108.28,-321.5C1100.37,-321.5 1092.3,-321.5 1084.32,-321.5"/>
<polygon fill="#63b8ff" stroke="#63b8ff" points="1108.22,-325 1118.22,-321.5 1108.22,-318 1108.22,-325"/>
</a>
</g>
</g>
<!-- Node25&#45;&gt;Node5 -->
<g id="edge30_Node000025_Node000005" class="edge">
<title>Node25&#45;&gt;Node5</title>
<g id="a_edge30_Node000025_Node000005"><a xlink:title=" ">
<path fill="none" stroke="#63b8ff" d="M908.43,-321.5C900.42,-321.5 892.43,-321.5 884.73,-321.5"/>
<polygon fill="#63b8ff" stroke="#63b8ff" points="908.24,-325 918.24,-321.5 908.24,-318 908.24,-325"/>
</a>
</g>
</g>
<!-- Node27 -->
<g id="Node000027" class="node">
<title>Node27</title>
<g id="a_Node000027"><a xlink:href="settings__scene_8c.html#ab2a60c1877e6e9ec3e98c502666c64c2" target="_top" xlink:title=" ">
<polygon fill="white" stroke="#666666" points="1425.75,-312.13 1285.25,-312.13 1285.25,-292.88 1425.75,-292.88 1425.75,-312.13"/>
<text xml:space="preserve" text-anchor="middle" x="1355.5" y="-298.63" font-family="Helvetica,sans-Serif" font-size="10.00">PGB_SettingsScene_update</text>
</a>
</g>
</g>
<!-- Node26&#45;&gt;Node27 -->
<g id="edge32_Node000026_Node000027" class="edge">
<title>Node26&#45;&gt;Node27</title>
<g id="a_edge32_Node000026_Node000027"><a xlink:title=" ">
<path fill="none" stroke="#63b8ff" d="M1462.15,-277.8C1440.77,-282.79 1418.38,-288.03 1399.75,-292.39"/>
<polygon fill="#63b8ff" stroke="#63b8ff" points="1462.8,-281.24 1471.74,-275.55 1461.2,-274.42 1462.8,-281.24"/>
</a>
</g>
</g>
<!-- Node27&#45;&gt;Node24 -->
<g id="edge33_Node000027_Node000024" class="edge">
<title>Node27&#45;&gt;Node24</title>
<g id="a_edge33_Node000027_Node000024"><a xlink:title=" ">
<path fill="none" stroke="#63b8ff" d="M1273.57,-311.61C1265.56,-312.51 1257.51,-313.41 1249.71,-314.29"/>
<polygon fill="#63b8ff" stroke="#63b8ff" points="1273.79,-315.11 1283.33,-310.51 1273,-308.15 1273.79,-315.11"/>
</a>
</g>
</g>
<!-- Node28&#45;&gt;Node27 -->
<g id="edge36_Node000028_Node000027" class="edge">
<title>Node28&#45;&gt;Node27</title>
<g id="a_edge36_Node000028_Node000027"><a xlink:title=" ">
<path fill="none" stroke="#63b8ff" d="M1809,-298.28C1703.88,-299.26 1524.48,-300.93 1426.11,-301.85"/>
<polygon fill="#63b8ff" stroke="#63b8ff" points="1809.02,-301.78 1818.99,-298.18 1808.96,-294.78 1809.02,-301.78"/>
</a>
</g>
</g>
<!-- Node29&#45;&gt;Node23 -->
<g id="edge38_Node000029_Node000023" class="edge">
<title>Node29&#45;&gt;Node23</title>
<g id="a_edge38_Node000029_Node000023"><a xlink:title=" ">
<path fill="none" stroke="#63b8ff" d="M1828.71,-219.13C1808.68,-219.01 1786.92,-218.89 1768.29,-218.78"/>
<polygon fill="#63b8ff" stroke="#63b8ff" points="1828.41,-222.63 1838.43,-219.19 1828.45,-215.63 1828.41,-222.63"/>
</a>
</g>
</g>
<!-- Node30&#45;&gt;Node29 -->
<g id="edge41_Node000030_Node000029" class="edge">
<title>Node30&#45;&gt;Node29</title>
<g id="a_edge41_Node000030_Node000029"><a xlink:title=" ">
<path fill="none" stroke="#63b8ff" d="M2168.44,-257.37C2122.24,-256.52 2057.35,-253.75 2001,-245.5 1982.82,-242.84 1963.21,-238.52 1945.8,-234.16"/>
<polygon fill="#63b8ff" stroke="#63b8ff" points="2168.2,-260.86 2178.25,-257.52 2168.3,-253.86 2168.2,-260.86"/>
</a>
</g>
</g>
<!-- Node31 -->
<g id="Node000031" class="node">
<title>Node31</title>
<g id="a_Node000031"><a xlink:href="settings__scene_8c.html#a13b744f6d456f284dbed80dac68c3c7b" target="_top" xlink:title=" ">
<polygon fill="white" stroke="#666666" points="2123.5,-236.75 2012.25,-236.75 2012.25,-206.25 2123.5,-206.25 2123.5,-236.75"/>
<text xml:space="preserve" text-anchor="start" x="2020.25" y="-223.25" font-family="Helvetica,sans-Serif" font-size="10.00">settings_confirm_load</text>
<text xml:space="preserve" text-anchor="middle" x="2067.88" y="-212" font-family="Helvetica,sans-Serif" font-size="10.00">_state</text>
</a>
</g>
</g>
<!-- Node30&#45;&gt;Node31 -->
<g id="edge42_Node000030_Node000031" class="edge">
<title>Node30&#45;&gt;Node31</title>
<g id="a_edge42_Node000030_Node000031"><a xlink:title=" ">
<path fill="none" stroke="#63b8ff" d="M2173.49,-244.95C2157.44,-241.35 2139.97,-237.44 2123.98,-233.85"/>
<polygon fill="#63b8ff" stroke="#63b8ff" points="2172.33,-248.28 2182.85,-247.05 2173.86,-241.45 2172.33,-248.28"/>
</a>
</g>
</g>
<!-- Node31&#45;&gt;Node29 -->
<g id="edge43_Node000031_Node000029" class="edge">
<title>Node31&#45;&gt;Node29</title>
<g id="a_edge43_Node000031_Node000029"><a xlink:title=" ">
<path fill="none" stroke="#63b8ff" d="M2000.73,-220.74C1982.57,-220.53 1963.14,-220.3 1945.9,-220.1"/>
<polygon fill="#63b8ff" stroke="#63b8ff" points="2000.58,-224.24 2010.62,-220.85 2000.66,-217.24 2000.58,-224.24"/>
</a>
</g>
</g>
<!-- Node32&#45;&gt;Node3 -->
<g id="edge45_Node000032_Node000003" class="edge">
<title>Node32&#45;&gt;Node3</title>
<g id="a_edge45_Node000032_Node000003"><a xlink:title=" ">
<path fill="none" stroke="#63b8ff" d="M2524.59,-357.13C2491.23,-381.19 2430.54,-424.98 2403.39,-444.57"/>
<polygon fill="#63b8ff" stroke="#63b8ff" points="2526.31,-360.19 2532.38,-351.5 2522.22,-354.52 2526.31,-360.19"/>
</a>
</g>
</g>
<!-- Node32&#45;&gt;Node6 -->
<g id="edge48_Node000032_Node000006" class="edge">
<title>Node32&#45;&gt;Node6</title>
<g id="a_edge48_Node000032_Node000006"><a xlink:title=" ">
<path fill="none" stroke="#63b8ff" d="M2523.94,-323.39C2510.86,-312.61 2495.58,-297.53 2487,-280.5 2436.48,-180.26 2531.38,-108.87 2451,-30.5 2399.49,19.72 2362.07,-15.73 2290.25,-11.5 1680.56,24.4 1524.67,-30.88 920.25,-118.5 847.13,-129.1 823.7,-113.5 755.75,-142.5 719.32,-158.05 684.75,-190.9 668.77,-207.48"/>
<polygon fill="#63b8ff" stroke="#63b8ff" points="2521.72,-326.1 2531.75,-329.51 2526.04,-320.59 2521.72,-326.1"/>
</a>
</g>
</g>
<!-- Node32&#45;&gt;Node11 -->
<g id="edge47_Node000032_Node000011" class="edge">
<title>Node32&#45;&gt;Node11</title>
<g id="a_edge47_Node000032_Node000011"><a xlink:title=" ">
<path fill="none" stroke="#63b8ff" d="M2490.47,-351.55C2427.35,-362.77 2322.57,-378.5 2231.5,-378.5 2231.5,-378.5 2231.5,-378.5 1540.38,-378.5 1213.59,-378.5 1147.78,-530.5 821,-530.5 821,-530.5 821,-530.5 657.5,-530.5 479.72,-530.5 332.66,-319.14 301.13,-270.43"/>
<polygon fill="#63b8ff" stroke="#63b8ff" points="2491.05,-355 2500.27,-349.78 2489.81,-348.11 2491.05,-355"/>
</a>
</g>
</g>
<!-- Node32&#45;&gt;Node15 -->
<g id="edge46_Node000032_Node000015" class="edge">
<title>Node32&#45;&gt;Node15</title>
<g id="a_edge46_Node000032_Node000015"><a xlink:title=" ">
<path fill="none" stroke="#63b8ff" d="M2526.14,-323.49C2513.32,-312.39 2497.54,-296.96 2487,-280.5 2461.75,-241.08 2478.41,-219.46 2451,-181.5 2397.69,-107.69 2368.89,-100.39 2290.25,-54.5 2281.02,-49.12 2270.35,-44.37 2260.66,-40.54"/>
<polygon fill="#63b8ff" stroke="#63b8ff" points="2523.76,-326.05 2533.68,-329.78 2528.25,-320.68 2523.76,-326.05"/>
</a>
</g>
</g>
<!-- Node32&#45;&gt;Node19 -->
<g id="edge49_Node000032_Node000019" class="edge">
<title>Node32&#45;&gt;Node19</title>
<g id="a_edge49_Node000032_Node000019"><a xlink:title=" ">
<path fill="none" stroke="#63b8ff" d="M2527.74,-322.89C2494.2,-293.16 2427.43,-234 2400.89,-210.48"/>
<polygon fill="#63b8ff" stroke="#63b8ff" points="2525.32,-325.42 2535.13,-329.43 2529.97,-320.18 2525.32,-325.42"/>
</a>
</g>
</g>
<!-- Node32&#45;&gt;Node24 -->
<g id="edge50_Node000032_Node000024" class="edge">
<title>Node32&#45;&gt;Node24</title>
<g id="a_edge50_Node000032_Node000024"><a xlink:title=" ">
<path fill="none" stroke="#63b8ff" d="M2490.22,-340.5C2426.88,-340.5 2321.92,-340.5 2231.5,-340.5 2231.5,-340.5 2231.5,-340.5 1540.38,-340.5 1438.61,-340.5 1320.65,-332.61 1249.66,-327"/>
<polygon fill="#63b8ff" stroke="#63b8ff" points="2490.04,-344 2500.04,-340.5 2490.04,-337 2490.04,-344"/>
</a>
</g>
</g>
<!-- Node33&#45;&gt;Node24 -->
<g id="edge52_Node000033_Node000024" class="edge">
<title>Node33&#45;&gt;Node24</title>
<g id="a_edge52_Node000033_Node000024"><a xlink:title=" ">
<path fill="none" stroke="#63b8ff" d="M1645.24,-409.94C1558.05,-401.33 1409.87,-383.79 1285.25,-354.5 1259.71,-348.5 1231.38,-338.81 1211.48,-331.48"/>
<polygon fill="#63b8ff" stroke="#63b8ff" points="1644.8,-413.41 1655.1,-410.9 1645.48,-406.44 1644.8,-413.41"/>
</a>
</g>
</g>
</g>
</svg>

<g id="navigator" transform="translate(0 0)" fill="#404254">
  <rect fill="#f2f5e9" fill-opacity="0.5" stroke="#606060" stroke-width=".5" x="0" y="0" width="60" height="60"/>
  <use id="zoomplus" xlink:href="#zoomPlus" x="17" y="9" onmousedown="handleZoom(evt,'in')"/>
  <use id="zoomminus" xlink:href="#zoomMin" x="42" y="9" onmousedown="handleZoom(evt,'out')"/>
  <use id="reset" xlink:href="#resetDef" x="30" y="36" onmousedown="handleReset()"/>
   <use id="arrowup" xlink:href="#arrowUp" x="0" y="0" onmousedown="handlePan(0,-1)"/>
  <use id="arrowright" xlink:href="#arrowRight" x="0" y="0" onmousedown="handlePan(1,0)"/>
  <use id="arrowdown" xlink:href="#arrowDown" x="0" y="0" onmousedown="handlePan(0,1)"/>
  <use id="arrowleft" xlink:href="#arrowLeft" x="0" y="0" onmousedown="handlePan(-1,0)"/>
</g>
<svg viewBox="0 0 15 15" width="100%" height="30px" preserveAspectRatio="xMaxYMin meet">
 <g id="arrow_out" transform="scale(0.3 0.3)">
  <a xlink:href="scene_8c_ac087ea36c10c3c8f4b3cb5a1bc9c201e_icgraph_org.svg" target="_base">
   <rect id="button" ry="5" rx="5" y="6" x="6" height="38" width="38"
        fill="#f2f5e9" fill-opacity="0.5" stroke="#606060" stroke-width="1.0"/>
   <path id="arrow"
     d="M 11.500037,31.436501 C 11.940474,20.09759 22.043105,11.32322 32.158766,21.979434 L 37.068811,17.246167 C 37.068811,17.246167 37.088388,32 37.088388,32 L 22.160133,31.978069 C 22.160133,31.978069 26.997745,27.140456 26.997745,27.140456 C 18.528582,18.264221 13.291696,25.230495 11.500037,31.436501 z"
     style="fill:#404040;"/>
  </a>
 </g>
</svg>

<style type='text/css'>
<![CDATA[
[data-mouse-over-selected='false'] { opacity: 0.7; }
[data-mouse-over-selected='true']  { opacity: 1.0; }
]]>
</style>
<script type="application/ecmascript"><![CDATA[
document.addEventListener('DOMContentLoaded', (event) => {
  highlightEdges();
  highlightAdjacentNodes();
});
]]></script>
</svg>
