<?xml version="1.0" encoding="UTF-8" standalone="no"?>
<!DOCTYPE svg PUBLIC "-//W3C//DTD SVG 1.1//EN"
 "http://www.w3.org/Graphics/SVG/1.1/DTD/svg11.dtd">
<!-- Generated by graphviz version 13.1.0 (20250701.0955)
 -->
<!-- Title: PGB_Scene_refreshMenu Pages: 1 -->
<svg width="2611pt" height="388pt"
 viewBox="0.00 0.00 2611.00 388.00" xmlns="http://www.w3.org/2000/svg" xmlns:xlink="http://www.w3.org/1999/xlink">
<g id="graph0" class="graph" transform="scale(1 1) rotate(0) translate(4 383.76)">
<title>PGB_Scene_refreshMenu</title>
<!-- Node1 -->
<g id="Node000001" class="node">
<title>Node1</title>
<g id="a_Node000001"><a xlink:title=" ">
<polygon fill="#999999" stroke="#666666" points="2602.75,-149.76 2473.5,-149.76 2473.5,-130.51 2602.75,-130.51 2602.75,-149.76"/>
<text xml:space="preserve" text-anchor="middle" x="2538.12" y="-136.26" font-family="Helvetica,sans-Serif" font-size="10.00">PGB_Scene_refreshMenu</text>
</a>
</g>
</g>
<!-- Node2 -->
<g id="Node000002" class="node">
<title>Node2</title>
<g id="a_Node000002"><a xlink:href="game__scene_8c.html#a968d1ff5431981dd8b355ff02c1ab3ae" target="_top" xlink:title=" ">
<polygon fill="white" stroke="#666666" points="2400.75,-74.76 2349.5,-74.76 2349.5,-55.51 2400.75,-55.51 2400.75,-74.76"/>
<text xml:space="preserve" text-anchor="middle" x="2375.12" y="-61.26" font-family="Helvetica,sans-Serif" font-size="10.00">gb_error</text>
</a>
</g>
</g>
<!-- Node1&#45;&gt;Node2 -->
<g id="edge1_Node000001_Node000002" class="edge">
<title>Node1&#45;&gt;Node2</title>
<g id="a_edge1_Node000001_Node000002"><a xlink:title=" ">
<path fill="none" stroke="#63b8ff" d="M2505.29,-125.3C2473.47,-110.48 2425.39,-88.08 2397.75,-75.21"/>
<polygon fill="#63b8ff" stroke="#63b8ff" points="2503.5,-128.33 2514.04,-129.38 2506.45,-121.98 2503.5,-128.33"/>
</a>
</g>
</g>
<!-- Node13 -->
<g id="Node000013" class="node">
<title>Node13</title>
<g id="a_Node000013"><a xlink:href="credits__scene_8c.html#a383fece6abe27ee451fa01b127812a6d" target="_top" xlink:title=" ">
<polygon fill="white" stroke="#666666" points="2437.5,-300.76 2312.75,-300.76 2312.75,-281.51 2437.5,-281.51 2437.5,-300.76"/>
<text xml:space="preserve" text-anchor="middle" x="2375.12" y="-287.26" font-family="Helvetica,sans-Serif" font-size="10.00">PGB_CreditsScene_new</text>
</a>
</g>
</g>
<!-- Node1&#45;&gt;Node13 -->
<g id="edge13_Node000001_Node000013" class="edge">
<title>Node1&#45;&gt;Node13</title>
<g id="a_edge13_Node000001_Node000013"><a xlink:title=" ">
<path fill="none" stroke="#63b8ff" d="M2518.36,-157.73C2484.26,-189.71 2413.17,-256.38 2386.52,-281.38"/>
<polygon fill="#63b8ff" stroke="#63b8ff" points="2520.56,-160.47 2525.46,-151.07 2515.77,-155.36 2520.56,-160.47"/>
</a>
</g>
</g>
<!-- Node16 -->
<g id="Node000016" class="node">
<title>Node16</title>
<g id="a_Node000016"><a xlink:href="app_8c.html#a5a5d9d918cadcba0b2b2ba04b247aeed" target="_top" xlink:title=" ">
<polygon fill="white" stroke="#666666" points="2425.5,-187.76 2324.75,-187.76 2324.75,-168.51 2425.5,-168.51 2425.5,-187.76"/>
<text xml:space="preserve" text-anchor="middle" x="2375.12" y="-174.26" font-family="Helvetica,sans-Serif" font-size="10.00">PGB_presentModal</text>
</a>
</g>
</g>
<!-- Node1&#45;&gt;Node16 -->
<g id="edge17_Node000001_Node000016" class="edge">
<title>Node1&#45;&gt;Node16</title>
<g id="a_edge17_Node000001_Node000016"><a xlink:title=" ">
<path fill="none" stroke="#63b8ff" d="M2483.37,-152.82C2462.35,-157.78 2438.58,-163.39 2418.77,-168.07"/>
<polygon fill="#63b8ff" stroke="#63b8ff" points="2484,-156.27 2492.93,-150.56 2482.39,-149.45 2484,-156.27"/>
</a>
</g>
</g>
<!-- Node21 -->
<g id="Node000021" class="node">
<title>Node21</title>
<g id="a_Node000021"><a xlink:href="settings__scene_8c.html#a7a2a61c35c00f7990b0a85f16e5c9975" target="_top" xlink:title=" ">
<polygon fill="white" stroke="#666666" points="1249.25,-234.76 1120,-234.76 1120,-215.51 1249.25,-215.51 1249.25,-234.76"/>
<text xml:space="preserve" text-anchor="middle" x="1184.62" y="-221.26" font-family="Helvetica,sans-Serif" font-size="10.00">PGB_SettingsScene_new</text>
</a>
</g>
</g>
<!-- Node1&#45;&gt;Node21 -->
<g id="edge42_Node000001_Node000021" class="edge">
<title>Node1&#45;&gt;Node21</title>
<g id="a_edge42_Node000001_Node000021"><a xlink:title=" ">
<path fill="none" stroke="#63b8ff" d="M2522.44,-121.25C2504.67,-99.74 2472.72,-65.11 2437.5,-46.13 2372.87,-11.31 2349.67,-16.63 2276.75,-8.13 1842.23,42.53 1322.46,-166.33 1208.44,-215.13"/>
<polygon fill="#63b8ff" stroke="#63b8ff" points="2519.63,-123.34 2528.62,-128.93 2525.08,-118.95 2519.63,-123.34"/>
</a>
</g>
</g>
<!-- Node3 -->
<g id="Node000003" class="node">
<title>Node3</title>
<g id="a_Node000003"><a xlink:href="game__scene_8c.html#ab923ed4c6ccad95026e85e252071716d" target="_top" xlink:title=" ">
<polygon fill="white" stroke="#666666" points="2256.88,-36.76 2137.38,-36.76 2137.38,-17.51 2256.88,-17.51 2256.88,-36.76"/>
<text xml:space="preserve" text-anchor="middle" x="2197.12" y="-23.26" font-family="Helvetica,sans-Serif" font-size="10.00">PGB_GameScene_new</text>
</a>
</g>
</g>
<!-- Node2&#45;&gt;Node3 -->
<g id="edge2_Node000002_Node000003" class="edge">
<title>Node2&#45;&gt;Node3</title>
<g id="a_edge2_Node000002_Node000003"><a xlink:title=" ">
<path fill="none" stroke="#63b8ff" d="M2338.06,-57.34C2311.16,-51.54 2274.18,-43.55 2244.99,-37.25"/>
<polygon fill="#63b8ff" stroke="#63b8ff" points="2337.29,-60.76 2347.8,-59.45 2338.77,-53.92 2337.29,-60.76"/>
</a>
</g>
</g>
<!-- Node4 -->
<g id="Node000004" class="node">
<title>Node4</title>
<g id="a_Node000004"><a xlink:href="library__scene_8c.html#a0728002045c9cbbd68bdd34897b28da6" target="_top" xlink:title=" ">
<polygon fill="white" stroke="#666666" points="2081.5,-55.76 1947.75,-55.76 1947.75,-36.51 2081.5,-36.51 2081.5,-55.76"/>
<text xml:space="preserve" text-anchor="middle" x="2014.62" y="-42.26" font-family="Helvetica,sans-Serif" font-size="10.00">PGB_LibraryScene_update</text>
</a>
</g>
</g>
<!-- Node3&#45;&gt;Node4 -->
<g id="edge3_Node000003_Node000004" class="edge">
<title>Node3&#45;&gt;Node4</title>
<g id="a_edge3_Node000003_Node000004"><a xlink:title=" ">
<path fill="none" stroke="#63b8ff" d="M2125.62,-34.55C2111.17,-36.07 2096.02,-37.67 2081.73,-39.17"/>
<polygon fill="#63b8ff" stroke="#63b8ff" points="2125.94,-38.04 2135.52,-33.51 2125.21,-31.08 2125.94,-38.04"/>
</a>
</g>
</g>
<!-- Node5 -->
<g id="Node000005" class="node">
<title>Node5</title>
<g id="a_Node000005"><a xlink:href="library__scene_8c.html#aa5c386d39121b53fba45d899df654188" target="_top" xlink:title=" ">
<polygon fill="white" stroke="#666666" points="719.75,-174.76 597.25,-174.76 597.25,-155.51 719.75,-155.51 719.75,-174.76"/>
<text xml:space="preserve" text-anchor="middle" x="658.5" y="-161.26" font-family="Helvetica,sans-Serif" font-size="10.00">PGB_LibraryScene_new</text>
</a>
</g>
</g>
<!-- Node4&#45;&gt;Node5 -->
<g id="edge4_Node000004_Node000005" class="edge">
<title>Node4&#45;&gt;Node5</title>
<g id="a_edge4_Node000004_Node000005"><a xlink:title=" ">
<path fill="none" stroke="#63b8ff" d="M1936.11,-46.13C1869.62,-46.13 1771.26,-46.13 1685.5,-46.13 1685.5,-46.13 1685.5,-46.13 1530.62,-46.13 1209.7,-46.13 828.33,-126.4 702.27,-155.09"/>
<polygon fill="#63b8ff" stroke="#63b8ff" points="1935.81,-49.63 1945.81,-46.13 1935.81,-42.63 1935.81,-49.63"/>
</a>
</g>
</g>
<!-- Node6 -->
<g id="Node000006" class="node">
<title>Node6</title>
<g id="a_Node000006"><a xlink:href="app_8c.html#ab80501f53b757a79772b96ec99e3dc7e" target="_top" xlink:title=" ">
<polygon fill="white" stroke="#666666" points="534.25,-131.76 441.75,-131.76 441.75,-112.51 534.25,-112.51 534.25,-131.76"/>
<text xml:space="preserve" text-anchor="middle" x="488" y="-118.26" font-family="Helvetica,sans-Serif" font-size="10.00">PGB_goToLibrary</text>
</a>
</g>
</g>
<!-- Node5&#45;&gt;Node6 -->
<g id="edge5_Node000005_Node000006" class="edge">
<title>Node5&#45;&gt;Node6</title>
<g id="a_edge5_Node000005_Node000006"><a xlink:title=" ">
<path fill="none" stroke="#63b8ff" d="M606.84,-152.2C581.76,-145.8 551.92,-138.19 528.55,-132.22"/>
<polygon fill="#63b8ff" stroke="#63b8ff" points="605.97,-155.59 616.53,-154.68 607.7,-148.81 605.97,-155.59"/>
</a>
</g>
</g>
<!-- Node9 -->
<g id="Node000009" class="node">
<title>Node9</title>
<g id="a_Node000009"><a xlink:href="image__conversion__scene_8c.html#a60d0e43ab25a8639bbb6d1f4e758edd3" target="_top" xlink:title=" ">
<polygon fill="white" stroke="#666666" points="561.25,-180.38 414.75,-180.38 414.75,-149.88 561.25,-149.88 561.25,-180.38"/>
<text xml:space="preserve" text-anchor="start" x="422.75" y="-166.88" font-family="Helvetica,sans-Serif" font-size="10.00">PGB_ImageConversionScene</text>
<text xml:space="preserve" text-anchor="middle" x="488" y="-155.63" font-family="Helvetica,sans-Serif" font-size="10.00">_update</text>
</a>
</g>
</g>
<!-- Node5&#45;&gt;Node9 -->
<g id="edge8_Node000005_Node000009" class="edge">
<title>Node5&#45;&gt;Node9</title>
<g id="a_edge8_Node000005_Node000009"><a xlink:title=" ">
<path fill="none" stroke="#63b8ff" d="M585.9,-165.13C577.86,-165.13 569.65,-165.13 561.6,-165.13"/>
<polygon fill="#63b8ff" stroke="#63b8ff" points="585.63,-168.63 595.63,-165.13 585.63,-161.63 585.63,-168.63"/>
</a>
</g>
</g>
<!-- Node11 -->
<g id="Node000011" class="node">
<title>Node11</title>
<g id="a_Node000011"><a xlink:href="app_8c.html#af256ea7a9c51fcbd49cb0007facbb8ea" target="_top" xlink:title=" ">
<polygon fill="white" stroke="#666666" points="166.25,-197.76 111.25,-197.76 111.25,-178.51 166.25,-178.51 166.25,-197.76"/>
<text xml:space="preserve" text-anchor="middle" x="138.75" y="-184.26" font-family="Helvetica,sans-Serif" font-size="10.00">PGB_init</text>
</a>
</g>
</g>
<!-- Node5&#45;&gt;Node11 -->
<g id="edge12_Node000005_Node000011" class="edge">
<title>Node5&#45;&gt;Node11</title>
<g id="a_edge12_Node000005_Node000011"><a xlink:title=" ">
<path fill="none" stroke="#63b8ff" d="M614.41,-178.26C597.95,-182.65 578.89,-186.97 561.25,-189.13 413.08,-207.33 233.4,-195.89 166.52,-190.49"/>
<polygon fill="#63b8ff" stroke="#63b8ff" points="615.18,-181.68 623.89,-175.64 613.32,-174.93 615.18,-181.68"/>
</a>
</g>
</g>
<!-- Node7 -->
<g id="Node000007" class="node">
<title>Node7</title>
<g id="a_Node000007"><a xlink:href="game__scene_8c.html#a6a4a6f0408da311dc566eb187e497889" target="_top" xlink:title=" ">
<polygon fill="white" stroke="#666666" points="360,-131.76 227.75,-131.76 227.75,-112.51 360,-112.51 360,-131.76"/>
<text xml:space="preserve" text-anchor="middle" x="293.88" y="-118.26" font-family="Helvetica,sans-Serif" font-size="10.00">PGB_LibraryConfirmModal</text>
</a>
</g>
</g>
<!-- Node6&#45;&gt;Node7 -->
<g id="edge6_Node000006_Node000007" class="edge">
<title>Node6&#45;&gt;Node7</title>
<g id="a_edge6_Node000006_Node000007"><a xlink:title=" ">
<path fill="none" stroke="#63b8ff" d="M430.03,-122.13C408.17,-122.13 383.05,-122.13 360.44,-122.13"/>
<polygon fill="#63b8ff" stroke="#63b8ff" points="429.96,-125.63 439.96,-122.13 429.96,-118.63 429.96,-125.63"/>
</a>
</g>
</g>
<!-- Node8 -->
<g id="Node000008" class="node">
<title>Node8</title>
<g id="a_Node000008"><a xlink:href="game__scene_8c.html#a113df24bb94bafcdbb9235ec8648e02f" target="_top" xlink:title=" ">
<polygon fill="white" stroke="#666666" points="173,-112.76 104.5,-112.76 104.5,-93.51 173,-93.51 173,-112.76"/>
<text xml:space="preserve" text-anchor="middle" x="138.75" y="-99.26" font-family="Helvetica,sans-Serif" font-size="10.00">__section__</text>
</a>
</g>
</g>
<!-- Node7&#45;&gt;Node8 -->
<g id="edge7_Node000007_Node000008" class="edge">
<title>Node7&#45;&gt;Node8</title>
<g id="a_edge7_Node000007_Node000008"><a xlink:title=" ">
<path fill="none" stroke="#63b8ff" d="M216.47,-112.65C201.28,-110.77 186.08,-108.88 173.27,-107.29"/>
<polygon fill="#63b8ff" stroke="#63b8ff" points="215.64,-116.07 225.99,-113.83 216.5,-109.13 215.64,-116.07"/>
</a>
</g>
</g>
<!-- Node10 -->
<g id="Node000010" class="node">
<title>Node10</title>
<g id="a_Node000010"><a xlink:href="image__conversion__scene_8c.html#aa3559936491ddf78b9cf06fcbdd32d22" target="_top" xlink:title=" ">
<polygon fill="white" stroke="#666666" points="378.75,-176.76 209,-176.76 209,-157.51 378.75,-157.51 378.75,-176.76"/>
<text xml:space="preserve" text-anchor="middle" x="293.88" y="-163.26" font-family="Helvetica,sans-Serif" font-size="10.00">PGB_ImageConversionScene_new</text>
</a>
</g>
</g>
<!-- Node9&#45;&gt;Node10 -->
<g id="edge9_Node000009_Node000010" class="edge">
<title>Node9&#45;&gt;Node10</title>
<g id="a_edge9_Node000009_Node000010"><a xlink:title=" ">
<path fill="none" stroke="#63b8ff" d="M402.94,-166.01C395.07,-166.09 387.09,-166.17 379.22,-166.25"/>
<polygon fill="#63b8ff" stroke="#63b8ff" points="402.89,-169.51 412.85,-165.9 402.82,-162.51 402.89,-169.51"/>
</a>
</g>
</g>
<!-- Node10&#45;&gt;Node11 -->
<g id="edge10_Node000010_Node000011" class="edge">
<title>Node10&#45;&gt;Node11</title>
<g id="a_edge10_Node000010_Node000011"><a xlink:title=" ">
<path fill="none" stroke="#63b8ff" d="M208.39,-178.72C193.26,-180.79 178.55,-182.81 166.65,-184.44"/>
<polygon fill="#63b8ff" stroke="#63b8ff" points="208.52,-182.23 217.95,-177.41 207.57,-175.3 208.52,-182.23"/>
</a>
</g>
</g>
<!-- Node12 -->
<g id="Node000012" class="node">
<title>Node12</title>
<g id="a_Node000012"><a xlink:href="main_8c.html#a77034286b8c64d0735c69535c5e9b732" target="_top" xlink:title=" ">
<polygon fill="white" stroke="#666666" points="68.5,-197.76 0,-197.76 0,-178.51 68.5,-178.51 68.5,-197.76"/>
<text xml:space="preserve" text-anchor="middle" x="34.25" y="-184.26" font-family="Helvetica,sans-Serif" font-size="10.00">__section__</text>
</a>
</g>
</g>
<!-- Node11&#45;&gt;Node12 -->
<g id="edge11_Node000011_Node000012" class="edge">
<title>Node11&#45;&gt;Node12</title>
<g id="a_edge11_Node000011_Node000012"><a xlink:title=" ">
<path fill="none" stroke="#63b8ff" d="M99.48,-188.13C89.46,-188.13 78.74,-188.13 68.97,-188.13"/>
<polygon fill="#63b8ff" stroke="#63b8ff" points="99.31,-191.63 109.31,-188.13 99.31,-184.63 99.31,-191.63"/>
</a>
</g>
</g>
<!-- Node14 -->
<g id="Node000014" class="node">
<title>Node14</title>
<g id="a_Node000014"><a xlink:href="library__scene_8c.html#a226d6ce979bacb7e37c185d5b32a7361" target="_top" xlink:title=" ">
<polygon fill="white" stroke="#666666" points="2276.75,-379.76 2117.5,-379.76 2117.5,-360.51 2276.75,-360.51 2276.75,-379.76"/>
<text xml:space="preserve" text-anchor="middle" x="2197.12" y="-366.26" font-family="Helvetica,sans-Serif" font-size="10.00">PGB_LibraryScene_showCredits</text>
</a>
</g>
</g>
<!-- Node13&#45;&gt;Node14 -->
<g id="edge14_Node000013_Node000014" class="edge">
<title>Node13&#45;&gt;Node14</title>
<g id="a_edge14_Node000013_Node000014"><a xlink:title=" ">
<path fill="none" stroke="#63b8ff" d="M2349.31,-307.15C2330.08,-319.06 2302.46,-335.1 2276.75,-346.13 2264.16,-351.53 2249.95,-356.26 2237.12,-360.05"/>
<polygon fill="#63b8ff" stroke="#63b8ff" points="2350.93,-310.27 2357.53,-301.98 2347.2,-304.34 2350.93,-310.27"/>
</a>
</g>
</g>
<!-- Node15 -->
<g id="Node000015" class="node">
<title>Node15</title>
<g id="a_Node000015"><a xlink:href="library__scene_8c.html#ab295872b275c54cb2800b2b71fd163ef" target="_top" xlink:title=" ">
<polygon fill="white" stroke="#666666" points="884.25,-298.76 755.75,-298.76 755.75,-279.51 884.25,-279.51 884.25,-298.76"/>
<text xml:space="preserve" text-anchor="middle" x="820" y="-285.26" font-family="Helvetica,sans-Serif" font-size="10.00">PGB_LibraryScene_menu</text>
</a>
</g>
</g>
<!-- Node14&#45;&gt;Node15 -->
<g id="edge15_Node000014_Node000015" class="edge">
<title>Node14&#45;&gt;Node15</title>
<g id="a_edge15_Node000014_Node000015"><a xlink:title=" ">
<path fill="none" stroke="#63b8ff" d="M2105.8,-370.13C2033.94,-370.13 1930.85,-370.13 1840.62,-370.13 1840.62,-370.13 1840.62,-370.13 1183.62,-370.13 1054.93,-370.13 906.6,-320.94 847.39,-299.23"/>
<polygon fill="#63b8ff" stroke="#63b8ff" points="2105.54,-373.63 2115.54,-370.13 2105.54,-366.63 2105.54,-373.63"/>
</a>
</g>
</g>
<!-- Node15&#45;&gt;Node5 -->
<g id="edge16_Node000015_Node000005" class="edge">
<title>Node15&#45;&gt;Node5</title>
<g id="a_edge16_Node000015_Node000005"><a xlink:title=" ">
<path fill="none" stroke="#63b8ff" d="M797.16,-272.15C763.4,-245.9 699.58,-196.29 672.34,-175.12"/>
<polygon fill="#63b8ff" stroke="#63b8ff" points="794.98,-274.89 805.02,-278.26 799.28,-269.36 794.98,-274.89"/>
</a>
</g>
</g>
<!-- Node16&#45;&gt;Node3 -->
<g id="edge30_Node000016_Node000003" class="edge">
<title>Node16&#45;&gt;Node3</title>
<g id="a_edge30_Node000016_Node000003"><a xlink:title=" ">
<path fill="none" stroke="#63b8ff" d="M2362.41,-158.88C2341.87,-125.75 2299.4,-60.03 2276.75,-45.13 2270.78,-41.21 2264.07,-38.13 2257.15,-35.72"/>
<polygon fill="#63b8ff" stroke="#63b8ff" points="2359.24,-160.42 2367.46,-167.1 2365.21,-156.75 2359.24,-160.42"/>
</a>
</g>
</g>
<!-- Node16&#45;&gt;Node8 -->
<g id="edge18_Node000016_Node000008" class="edge">
<title>Node16&#45;&gt;Node8</title>
<g id="a_edge18_Node000016_Node000008"><a xlink:title=" ">
<path fill="none" stroke="#63b8ff" d="M2351.54,-161.67C2332.58,-148.8 2304.25,-131.69 2276.75,-123.13 2090.93,-65.31 2035.23,-84.13 1840.62,-84.13 1840.62,-84.13 1840.62,-84.13 487,-84.13 371.68,-84.13 235.14,-94.71 173.24,-100.08"/>
<polygon fill="#63b8ff" stroke="#63b8ff" points="2349.35,-164.41 2359.55,-167.26 2353.35,-158.67 2349.35,-164.41"/>
</a>
</g>
</g>
<!-- Node16&#45;&gt;Node14 -->
<g id="edge31_Node000016_Node000014" class="edge">
<title>Node16&#45;&gt;Node14</title>
<g id="a_edge31_Node000016_Node000014"><a xlink:title=" ">
<path fill="none" stroke="#63b8ff" d="M2360.65,-197.21C2347.7,-215.89 2327.91,-245.38 2312.75,-272.13 2294.72,-303.95 2304.55,-322.37 2276.75,-346.13 2269.7,-352.16 2261.16,-356.67 2252.34,-360.05"/>
<polygon fill="#63b8ff" stroke="#63b8ff" points="2363.34,-199.47 2366.2,-189.27 2357.6,-195.46 2363.34,-199.47"/>
</a>
</g>
</g>
<!-- Node17 -->
<g id="Node000017" class="node">
<title>Node17</title>
<g id="a_Node000017"><a xlink:href="library__scene_8c.html#ab61f378dd09afd7715687d7917da8d1a" target="_top" xlink:title=" ">
<polygon fill="white" stroke="#666666" points="2242.62,-73.76 2151.62,-73.76 2151.62,-54.51 2242.62,-54.51 2242.62,-73.76"/>
<text xml:space="preserve" text-anchor="middle" x="2197.12" y="-60.26" font-family="Helvetica,sans-Serif" font-size="10.00">CB_updatecheck</text>
</a>
</g>
</g>
<!-- Node16&#45;&gt;Node17 -->
<g id="edge19_Node000016_Node000017" class="edge">
<title>Node16&#45;&gt;Node17</title>
<g id="a_edge19_Node000016_Node000017"><a xlink:title=" ">
<path fill="none" stroke="#63b8ff" d="M2358.69,-159.54C2340.9,-139.25 2309.84,-107.13 2276.75,-88.13 2266.35,-82.16 2254.31,-77.53 2242.83,-73.99"/>
<polygon fill="#63b8ff" stroke="#63b8ff" points="2355.95,-161.73 2365.11,-167.05 2361.27,-157.17 2355.95,-161.73"/>
</a>
</g>
</g>
<!-- Node18 -->
<g id="Node000018" class="node">
<title>Node18</title>
<g id="a_Node000018"><a xlink:href="settings__scene_8c.html#a391e7ae486f08b8455185927863452ed" target="_top" xlink:title=" ">
<polygon fill="white" stroke="#666666" points="2247.88,-263.76 2146.38,-263.76 2146.38,-244.51 2247.88,-244.51 2247.88,-263.76"/>
<text xml:space="preserve" text-anchor="middle" x="2197.12" y="-250.26" font-family="Helvetica,sans-Serif" font-size="10.00">confirm_save_state</text>
</a>
</g>
</g>
<!-- Node16&#45;&gt;Node18 -->
<g id="edge21_Node000016_Node000018" class="edge">
<title>Node16&#45;&gt;Node18</title>
<g id="a_edge21_Node000016_Node000018"><a xlink:title=" ">
<path fill="none" stroke="#63b8ff" d="M2347.9,-193.94C2328.68,-205.07 2301.69,-219.78 2276.75,-230.13 2263.83,-235.49 2249.28,-240.27 2236.24,-244.12"/>
<polygon fill="#63b8ff" stroke="#63b8ff" points="2349.56,-197.02 2356.41,-188.93 2346.02,-190.98 2349.56,-197.02"/>
</a>
</g>
</g>
<!-- Node19 -->
<g id="Node000019" class="node">
<title>Node19</title>
<g id="a_Node000019"><a xlink:href="settings__scene_8c.html#a8057455d49efce21fc559d502d1b65dc" target="_top" xlink:title=" ">
<polygon fill="white" stroke="#666666" points="2068.75,-266.38 1960.5,-266.38 1960.5,-235.88 2068.75,-235.88 2068.75,-266.38"/>
<text xml:space="preserve" text-anchor="start" x="1968.5" y="-252.88" font-family="Helvetica,sans-Serif" font-size="10.00">settings_action_save</text>
<text xml:space="preserve" text-anchor="middle" x="2014.62" y="-241.63" font-family="Helvetica,sans-Serif" font-size="10.00">_state</text>
</a>
</g>
</g>
<!-- Node16&#45;&gt;Node19 -->
<g id="edge37_Node000016_Node000019" class="edge">
<title>Node16&#45;&gt;Node19</title>
<g id="a_edge37_Node000016_Node000019"><a xlink:title=" ">
<path fill="none" stroke="#63b8ff" d="M2313.61,-190.45C2245.06,-204.41 2134.4,-226.95 2068.97,-240.27"/>
<polygon fill="#63b8ff" stroke="#63b8ff" points="2314.07,-193.93 2323.17,-188.51 2312.67,-187.07 2314.07,-193.93"/>
</a>
</g>
</g>
<!-- Node22 -->
<g id="Node000022" class="node">
<title>Node22</title>
<g id="a_Node000022"><a xlink:href="library__scene_8c.html#ae9da6d35e322c1a0896926f6a66c66f1" target="_top" xlink:title=" ">
<polygon fill="white" stroke="#666666" points="1084,-298.76 920.25,-298.76 920.25,-279.51 1084,-279.51 1084,-298.76"/>
<text xml:space="preserve" text-anchor="middle" x="1002.12" y="-285.26" font-family="Helvetica,sans-Serif" font-size="10.00">PGB_LibraryScene_showSettings</text>
</a>
</g>
</g>
<!-- Node16&#45;&gt;Node22 -->
<g id="edge32_Node000016_Node000022" class="edge">
<title>Node16&#45;&gt;Node22</title>
<g id="a_edge32_Node000016_Node000022"><a xlink:title=" ">
<path fill="none" stroke="#63b8ff" d="M2361.91,-197.67C2341.27,-230.02 2299.52,-292.4 2276.75,-305.13 2174.91,-362.07 2132.3,-332.13 2015.62,-332.13 2015.62,-332.13 2015.62,-332.13 1354.5,-332.13 1246.64,-332.13 1121.53,-311.92 1053.51,-299.21"/>
<polygon fill="#63b8ff" stroke="#63b8ff" points="2364.85,-199.57 2367.24,-189.25 2358.94,-195.83 2364.85,-199.57"/>
</a>
</g>
</g>
<!-- Node25 -->
<g id="Node000025" class="node">
<title>Node25</title>
<g id="a_Node000025"><a xlink:href="settings__scene_8c.html#a5cfb11a3e4e6ecfc7430e17d5e8ebc10" target="_top" xlink:title=" ">
<polygon fill="white" stroke="#666666" points="1911.75,-304.38 1767.5,-304.38 1767.5,-273.88 1911.75,-273.88 1911.75,-304.38"/>
<text xml:space="preserve" text-anchor="start" x="1775.5" y="-290.88" font-family="Helvetica,sans-Serif" font-size="10.00">PGB_SettingsScene_attempt</text>
<text xml:space="preserve" text-anchor="middle" x="1839.62" y="-279.63" font-family="Helvetica,sans-Serif" font-size="10.00">Dismiss</text>
</a>
</g>
</g>
<!-- Node16&#45;&gt;Node25 -->
<g id="edge33_Node000016_Node000025" class="edge">
<title>Node16&#45;&gt;Node25</title>
<g id="a_edge33_Node000016_Node000025"><a xlink:title=" ">
<path fill="none" stroke="#63b8ff" d="M2361.28,-197.4C2344.79,-220.25 2313.84,-257.24 2276.75,-273.13 2156.97,-324.46 2001.27,-314.04 1911.99,-301.67"/>
<polygon fill="#63b8ff" stroke="#63b8ff" points="2364.1,-199.47 2366.94,-189.27 2358.36,-195.47 2364.1,-199.47"/>
</a>
</g>
</g>
<!-- Node26 -->
<g id="Node000026" class="node">
<title>Node26</title>
<g id="a_Node000026"><a xlink:href="settings__scene_8c.html#ae138f8df889d309ab5c1474100b5e04e" target="_top" xlink:title=" ">
<polygon fill="white" stroke="#666666" points="1892.25,-218.38 1787,-218.38 1787,-187.88 1892.25,-187.88 1892.25,-218.38"/>
<text xml:space="preserve" text-anchor="start" x="1795" y="-204.88" font-family="Helvetica,sans-Serif" font-size="10.00">settings_action_load</text>
<text xml:space="preserve" text-anchor="middle" x="1839.62" y="-193.63" font-family="Helvetica,sans-Serif" font-size="10.00">_state</text>
</a>
</g>
</g>
<!-- Node16&#45;&gt;Node26 -->
<g id="edge35_Node000016_Node000026" class="edge">
<title>Node16&#45;&gt;Node26</title>
<g id="a_edge35_Node000016_Node000026"><a xlink:title=" ">
<path fill="none" stroke="#63b8ff" d="M2331.67,-164.94C2254.03,-142.89 2084.54,-104.4 1947.75,-141.13 1914.34,-150.1 1880.58,-172.31 1860.13,-187.56"/>
<polygon fill="#63b8ff" stroke="#63b8ff" points="2330.41,-168.22 2340.99,-167.64 2332.36,-161.49 2330.41,-168.22"/>
</a>
</g>
</g>
<!-- Node27 -->
<g id="Node000027" class="node">
<title>Node27</title>
<g id="a_Node000027"><a xlink:href="settings__scene_8c.html#a498486c7b338f8ace4aebad51faa1bce" target="_top" xlink:title=" ">
<polygon fill="white" stroke="#666666" points="2247.5,-187.76 2146.75,-187.76 2146.75,-168.51 2247.5,-168.51 2247.5,-187.76"/>
<text xml:space="preserve" text-anchor="middle" x="2197.12" y="-174.26" font-family="Helvetica,sans-Serif" font-size="10.00">settings_load_state</text>
</a>
</g>
</g>
<!-- Node16&#45;&gt;Node27 -->
<g id="edge38_Node000016_Node000027" class="edge">
<title>Node16&#45;&gt;Node27</title>
<g id="a_edge38_Node000016_Node000027"><a xlink:title=" ">
<path fill="none" stroke="#63b8ff" d="M2313.37,-178.13C2291.99,-178.13 2268.22,-178.13 2247.86,-178.13"/>
<polygon fill="#63b8ff" stroke="#63b8ff" points="2313.12,-181.63 2323.12,-178.13 2313.12,-174.63 2313.12,-181.63"/>
</a>
</g>
</g>
<!-- Node17&#45;&gt;Node4 -->
<g id="edge20_Node000017_Node000004" class="edge">
<title>Node17&#45;&gt;Node4</title>
<g id="a_edge20_Node000017_Node000004"><a xlink:title=" ">
<path fill="none" stroke="#63b8ff" d="M2140.06,-58.54C2121.65,-56.7 2101,-54.65 2081.9,-52.74"/>
<polygon fill="#63b8ff" stroke="#63b8ff" points="2139.7,-62.02 2150,-59.53 2140.4,-55.06 2139.7,-62.02"/>
</a>
</g>
</g>
<!-- Node18&#45;&gt;Node19 -->
<g id="edge22_Node000018_Node000019" class="edge">
<title>Node18&#45;&gt;Node19</title>
<g id="a_edge22_Node000018_Node000019"><a xlink:title=" ">
<path fill="none" stroke="#63b8ff" d="M2135.05,-253.12C2113.65,-252.76 2089.79,-252.36 2069.05,-252.02"/>
<polygon fill="#63b8ff" stroke="#63b8ff" points="2134.75,-256.61 2144.81,-253.28 2134.87,-249.61 2134.75,-256.61"/>
</a>
</g>
</g>
<!-- Node20 -->
<g id="Node000020" class="node">
<title>Node20</title>
<g id="a_Node000020"><a xlink:href="settings__scene_8c.html#a4b52b1fbb1659ff3a37571a03b66cc5f" target="_top" xlink:title=" ">
<polygon fill="white" stroke="#666666" points="1731.5,-233.76 1637.5,-233.76 1637.5,-214.51 1731.5,-214.51 1731.5,-233.76"/>
<text xml:space="preserve" text-anchor="middle" x="1684.5" y="-220.26" font-family="Helvetica,sans-Serif" font-size="10.00">getOptionsEntries</text>
</a>
</g>
</g>
<!-- Node19&#45;&gt;Node20 -->
<g id="edge23_Node000019_Node000020" class="edge">
<title>Node19&#45;&gt;Node20</title>
<g id="a_edge23_Node000019_Node000020"><a xlink:title=" ">
<path fill="none" stroke="#63b8ff" d="M1949.01,-245.81C1884.98,-240.55 1788.49,-232.61 1731.76,-227.94"/>
<polygon fill="#63b8ff" stroke="#63b8ff" points="1948.41,-249.28 1958.67,-246.61 1948.99,-242.3 1948.41,-249.28"/>
</a>
</g>
</g>
<!-- Node20&#45;&gt;Node21 -->
<g id="edge24_Node000020_Node000021" class="edge">
<title>Node20&#45;&gt;Node21</title>
<g id="a_edge24_Node000020_Node000021"><a xlink:title=" ">
<path fill="none" stroke="#63b8ff" d="M1625.74,-222.55C1617.6,-222.37 1609.34,-222.23 1601.5,-222.13 1476.96,-220.61 1331.43,-222.5 1249.75,-223.9"/>
<polygon fill="#63b8ff" stroke="#63b8ff" points="1625.51,-226.04 1635.59,-222.77 1625.67,-219.04 1625.51,-226.04"/>
</a>
</g>
</g>
<!-- Node23 -->
<g id="Node000023" class="node">
<title>Node23</title>
<g id="a_Node000023"><a xlink:href="settings__scene_8c.html#a53cacc500b0aa21588b00f234b5ddd92" target="_top" xlink:title=" ">
<polygon fill="white" stroke="#666666" points="1601.5,-261.38 1461.75,-261.38 1461.75,-230.88 1601.5,-230.88 1601.5,-261.38"/>
<text xml:space="preserve" text-anchor="start" x="1469.75" y="-247.88" font-family="Helvetica,sans-Serif" font-size="10.00">PGB_SettingsScene_rebuild</text>
<text xml:space="preserve" text-anchor="middle" x="1531.62" y="-236.63" font-family="Helvetica,sans-Serif" font-size="10.00">Entries</text>
</a>
</g>
</g>
<!-- Node20&#45;&gt;Node23 -->
<g id="edge27_Node000020_Node000023" class="edge">
<title>Node20&#45;&gt;Node23</title>
<g id="a_edge27_Node000020_Node000023"><a xlink:title=" ">
<path fill="none" stroke="#63b8ff" d="M1625.82,-232.54C1618.02,-233.68 1609.96,-234.85 1601.99,-236.02"/>
<polygon fill="#63b8ff" stroke="#63b8ff" points="1626.11,-236.04 1635.5,-231.13 1625.1,-229.11 1626.11,-236.04"/>
</a>
</g>
</g>
<!-- Node21&#45;&gt;Node22 -->
<g id="edge25_Node000021_Node000022" class="edge">
<title>Node21&#45;&gt;Node22</title>
<g id="a_edge25_Node000021_Node000022"><a xlink:title=" ">
<path fill="none" stroke="#63b8ff" d="M1144.91,-238.86C1110.82,-250.94 1061.98,-268.26 1031.43,-279.1"/>
<polygon fill="#63b8ff" stroke="#63b8ff" points="1145.74,-242.28 1154,-235.64 1143.4,-235.68 1145.74,-242.28"/>
</a>
</g>
</g>
<!-- Node22&#45;&gt;Node15 -->
<g id="edge26_Node000022_Node000015" class="edge">
<title>Node22&#45;&gt;Node15</title>
<g id="a_edge26_Node000022_Node000015"><a xlink:title=" ">
<path fill="none" stroke="#63b8ff" d="M908.43,-289.13C900.42,-289.13 892.43,-289.13 884.73,-289.13"/>
<polygon fill="#63b8ff" stroke="#63b8ff" points="908.24,-292.63 918.24,-289.13 908.24,-285.63 908.24,-292.63"/>
</a>
</g>
</g>
<!-- Node24 -->
<g id="Node000024" class="node">
<title>Node24</title>
<g id="a_Node000024"><a xlink:href="settings__scene_8c.html#ab2a60c1877e6e9ec3e98c502666c64c2" target="_top" xlink:title=" ">
<polygon fill="white" stroke="#666666" points="1425.75,-255.76 1285.25,-255.76 1285.25,-236.51 1425.75,-236.51 1425.75,-255.76"/>
<text xml:space="preserve" text-anchor="middle" x="1355.5" y="-242.26" font-family="Helvetica,sans-Serif" font-size="10.00">PGB_SettingsScene_update</text>
</a>
</g>
</g>
<!-- Node23&#45;&gt;Node24 -->
<g id="edge28_Node000023_Node000024" class="edge">
<title>Node23&#45;&gt;Node24</title>
<g id="a_edge28_Node000023_Node000024"><a xlink:title=" ">
<path fill="none" stroke="#63b8ff" d="M1449.81,-246.13C1441.9,-246.13 1433.93,-246.13 1426.15,-246.13"/>
<polygon fill="#63b8ff" stroke="#63b8ff" points="1449.79,-249.63 1459.79,-246.13 1449.79,-242.63 1449.79,-249.63"/>
</a>
</g>
</g>
<!-- Node24&#45;&gt;Node21 -->
<g id="edge29_Node000024_Node000021" class="edge">
<title>Node24&#45;&gt;Node21</title>
<g id="a_edge29_Node000024_Node000021"><a xlink:title=" ">
<path fill="none" stroke="#63b8ff" d="M1273.57,-236.07C1265.56,-235.07 1257.51,-234.07 1249.71,-233.1"/>
<polygon fill="#63b8ff" stroke="#63b8ff" points="1272.98,-239.52 1283.34,-237.28 1273.84,-232.57 1272.98,-239.52"/>
</a>
</g>
</g>
<!-- Node25&#45;&gt;Node24 -->
<g id="edge34_Node000025_Node000024" class="edge">
<title>Node25&#45;&gt;Node24</title>
<g id="a_edge34_Node000025_Node000024"><a xlink:title=" ">
<path fill="none" stroke="#63b8ff" d="M1755.61,-289.08C1678.98,-288.05 1562.21,-284.01 1461.75,-270.13 1438.73,-266.95 1413.32,-261.22 1393.23,-256.16"/>
<polygon fill="#63b8ff" stroke="#63b8ff" points="1755.53,-292.58 1765.57,-289.2 1755.61,-285.58 1755.53,-292.58"/>
</a>
</g>
</g>
<!-- Node26&#45;&gt;Node20 -->
<g id="edge36_Node000026_Node000020" class="edge">
<title>Node26&#45;&gt;Node20</title>
<g id="a_edge36_Node000026_Node000020"><a xlink:title=" ">
<path fill="none" stroke="#63b8ff" d="M1775.74,-211.76C1761.06,-213.77 1745.7,-215.88 1731.89,-217.77"/>
<polygon fill="#63b8ff" stroke="#63b8ff" points="1775.85,-215.27 1785.28,-210.45 1774.9,-208.34 1775.85,-215.27"/>
</a>
</g>
</g>
<!-- Node27&#45;&gt;Node26 -->
<g id="edge39_Node000027_Node000026" class="edge">
<title>Node27&#45;&gt;Node26</title>
<g id="a_edge39_Node000027_Node000026"><a xlink:title=" ">
<path fill="none" stroke="#63b8ff" d="M2135.35,-184.39C2117.97,-186.07 2099,-187.78 2081.5,-189.13 2016.35,-194.15 1941.15,-198.25 1892.35,-200.69"/>
<polygon fill="#63b8ff" stroke="#63b8ff" points="2135.39,-187.91 2145,-183.45 2134.71,-180.94 2135.39,-187.91"/>
</a>
</g>
</g>
<!-- Node28 -->
<g id="Node000028" class="node">
<title>Node28</title>
<g id="a_Node000028"><a xlink:href="settings__scene_8c.html#a13b744f6d456f284dbed80dac68c3c7b" target="_top" xlink:title=" ">
<polygon fill="white" stroke="#666666" points="2070.25,-180.38 1959,-180.38 1959,-149.88 2070.25,-149.88 2070.25,-180.38"/>
<text xml:space="preserve" text-anchor="start" x="1967" y="-166.88" font-family="Helvetica,sans-Serif" font-size="10.00">settings_confirm_load</text>
<text xml:space="preserve" text-anchor="middle" x="2014.62" y="-155.63" font-family="Helvetica,sans-Serif" font-size="10.00">_state</text>
</a>
</g>
</g>
<!-- Node27&#45;&gt;Node28 -->
<g id="edge40_Node000027_Node000028" class="edge">
<title>Node27&#45;&gt;Node28</title>
<g id="a_edge40_Node000027_Node000028"><a xlink:title=" ">
<path fill="none" stroke="#63b8ff" d="M2135.01,-173.73C2114.17,-172.23 2091,-170.56 2070.66,-169.09"/>
<polygon fill="#63b8ff" stroke="#63b8ff" points="2134.59,-177.21 2144.82,-174.44 2135.09,-170.23 2134.59,-177.21"/>
</a>
</g>
</g>
<!-- Node28&#45;&gt;Node26 -->
<g id="edge41_Node000028_Node000026" class="edge">
<title>Node28&#45;&gt;Node26</title>
<g id="a_edge41_Node000028_Node000026"><a xlink:title=" ">
<path fill="none" stroke="#63b8ff" d="M1947.73,-179.6C1929.5,-183.61 1909.97,-187.9 1892.65,-191.7"/>
<polygon fill="#63b8ff" stroke="#63b8ff" points="1948.39,-183.04 1957.41,-177.48 1946.89,-176.21 1948.39,-183.04"/>
</a>
</g>
</g>
</g>
</svg>
