<?xml version="1.0" encoding="UTF-8" standalone="no"?>
<!DOCTYPE svg PUBLIC "-//W3C//DTD SVG 1.1//EN"
 "http://www.w3.org/Graphics/SVG/1.1/DTD/svg11.dtd">
<!-- Generated by graphviz version 13.1.0 (20250701.0955)
 -->
<!-- Title: PGB_Scene_event Pages: 1 -->
<svg width="2736pt" height="435pt"
 viewBox="0.00 0.00 2736.00 435.00" xmlns="http://www.w3.org/2000/svg" xmlns:xlink="http://www.w3.org/1999/xlink">
<g id="graph0" class="graph" transform="scale(1 1) rotate(0) translate(4 431.31)">
<title>PGB_Scene_event</title>
<!-- Node1 -->
<g id="Node000001" class="node">
<title>Node1</title>
<g id="a_Node000001"><a xlink:title=" ">
<polygon fill="#999999" stroke="#666666" points="2727.5,-341.6 2628.25,-341.6 2628.25,-322.35 2727.5,-322.35 2727.5,-341.6"/>
<text xml:space="preserve" text-anchor="middle" x="2677.88" y="-328.1" font-family="Helvetica,sans-Serif" font-size="10.00">PGB_Scene_event</text>
</a>
</g>
</g>
<!-- Node2 -->
<g id="Node000002" class="node">
<title>Node2</title>
<g id="a_Node000002"><a xlink:href="scene_8c.html#ad265debc38bb5c7087e5327d08a713d6" target="_top" xlink:title=" ">
<polygon fill="white" stroke="#666666" points="2592.25,-341.6 2499,-341.6 2499,-322.35 2592.25,-322.35 2592.25,-341.6"/>
<text xml:space="preserve" text-anchor="middle" x="2545.62" y="-328.1" font-family="Helvetica,sans-Serif" font-size="10.00">PGB_Scene_new</text>
</a>
</g>
</g>
<!-- Node1&#45;&gt;Node2 -->
<g id="edge1_Node000001_Node000002" class="edge">
<title>Node1&#45;&gt;Node2</title>
<g id="a_edge1_Node000001_Node000002"><a xlink:title=" ">
<path fill="none" stroke="#63b8ff" d="M2616.59,-331.97C2608.43,-331.97 2600.17,-331.97 2592.32,-331.97"/>
<polygon fill="#63b8ff" stroke="#63b8ff" points="2616.49,-335.47 2626.49,-331.97 2616.49,-328.47 2616.49,-335.47"/>
</a>
</g>
</g>
<!-- Node3 -->
<g id="Node000003" class="node">
<title>Node3</title>
<g id="a_Node000003"><a xlink:href="credits__scene_8c.html#a383fece6abe27ee451fa01b127812a6d" target="_top" xlink:title=" ">
<polygon fill="white" stroke="#666666" points="2463,-360.6 2338.25,-360.6 2338.25,-341.35 2463,-341.35 2463,-360.6"/>
<text xml:space="preserve" text-anchor="middle" x="2400.62" y="-347.1" font-family="Helvetica,sans-Serif" font-size="10.00">PGB_CreditsScene_new</text>
</a>
</g>
</g>
<!-- Node2&#45;&gt;Node3 -->
<g id="edge2_Node000002_Node000003" class="edge">
<title>Node2&#45;&gt;Node3</title>
<g id="a_edge2_Node000002_Node000003"><a xlink:title=" ">
<path fill="none" stroke="#63b8ff" d="M2487.32,-339.59C2479.48,-340.63 2471.4,-341.7 2463.48,-342.76"/>
<polygon fill="#63b8ff" stroke="#63b8ff" points="2487.64,-343.08 2497.09,-338.29 2486.72,-336.14 2487.64,-343.08"/>
</a>
</g>
</g>
<!-- Node6 -->
<g id="Node000006" class="node">
<title>Node6</title>
<g id="a_Node000006"><a xlink:href="library__scene_8c.html#aa5c386d39121b53fba45d899df654188" target="_top" xlink:title=" ">
<polygon fill="white" stroke="#666666" points="719.75,-352.6 597.25,-352.6 597.25,-333.35 719.75,-333.35 719.75,-352.6"/>
<text xml:space="preserve" text-anchor="middle" x="658.5" y="-339.1" font-family="Helvetica,sans-Serif" font-size="10.00">PGB_LibraryScene_new</text>
</a>
</g>
</g>
<!-- Node2&#45;&gt;Node6 -->
<g id="edge18_Node000002_Node000006" class="edge">
<title>Node2&#45;&gt;Node6</title>
<g id="a_edge18_Node000002_Node000006"><a xlink:title=" ">
<path fill="none" stroke="#63b8ff" d="M2517.85,-347.34C2502.34,-355.5 2482.14,-364.86 2463,-369.97 2368.4,-395.24 2341.42,-388.97 2243.5,-388.97 2243.5,-388.97 2243.5,-388.97 1001.12,-388.97 894.3,-388.97 770.36,-366.61 705.1,-353.07"/>
<polygon fill="#63b8ff" stroke="#63b8ff" points="2519.32,-350.53 2526.44,-342.68 2515.99,-344.37 2519.32,-350.53"/>
</a>
</g>
</g>
<!-- Node11 -->
<g id="Node000011" class="node">
<title>Node11</title>
<g id="a_Node000011"><a xlink:href="image__conversion__scene_8c.html#aa3559936491ddf78b9cf06fcbdd32d22" target="_top" xlink:title=" ">
<polygon fill="white" stroke="#666666" points="378.75,-393.6 209,-393.6 209,-374.35 378.75,-374.35 378.75,-393.6"/>
<text xml:space="preserve" text-anchor="middle" x="293.88" y="-380.1" font-family="Helvetica,sans-Serif" font-size="10.00">PGB_ImageConversionScene_new</text>
</a>
</g>
</g>
<!-- Node2&#45;&gt;Node11 -->
<g id="edge17_Node000002_Node000011" class="edge">
<title>Node2&#45;&gt;Node11</title>
<g id="a_edge17_Node000002_Node000011"><a xlink:title=" ">
<path fill="none" stroke="#63b8ff" d="M2527.02,-349.59C2511.54,-363.97 2487.67,-383.56 2463,-393.97 2372.11,-432.34 2342.15,-426.97 2243.5,-426.97 2243.5,-426.97 2243.5,-426.97 657.5,-426.97 549.28,-426.97 521.94,-422.85 414.75,-407.97 389.42,-404.46 361.37,-398.94 338.78,-394.07"/>
<polygon fill="#63b8ff" stroke="#63b8ff" points="2529.23,-352.32 2534.02,-342.88 2524.38,-347.27 2529.23,-352.32"/>
</a>
</g>
</g>
<!-- Node14 -->
<g id="Node000014" class="node">
<title>Node14</title>
<g id="a_Node000014"><a xlink:href="game__scene_8c.html#ab923ed4c6ccad95026e85e252071716d" target="_top" xlink:title=" ">
<polygon fill="white" stroke="#666666" points="2302.25,-322.6 2182.75,-322.6 2182.75,-303.35 2302.25,-303.35 2302.25,-322.6"/>
<text xml:space="preserve" text-anchor="middle" x="2242.5" y="-309.1" font-family="Helvetica,sans-Serif" font-size="10.00">PGB_GameScene_new</text>
</a>
</g>
</g>
<!-- Node2&#45;&gt;Node14 -->
<g id="edge14_Node000002_Node000014" class="edge">
<title>Node2&#45;&gt;Node14</title>
<g id="a_edge14_Node000002_Node000014"><a xlink:title=" ">
<path fill="none" stroke="#63b8ff" d="M2487.33,-328.36C2434.37,-325.02 2356,-320.07 2302.5,-316.7"/>
<polygon fill="#63b8ff" stroke="#63b8ff" points="2486.85,-331.84 2497.05,-328.97 2487.29,-324.85 2486.85,-331.84"/>
</a>
</g>
</g>
<!-- Node16 -->
<g id="Node000016" class="node">
<title>Node16</title>
<g id="a_Node000016"><a xlink:href="modal_8c.html#a3b0cd5e70689166a33a56d512d8577e5" target="_top" xlink:title=" ">
<polygon fill="white" stroke="#666666" points="2446.5,-170.6 2354.75,-170.6 2354.75,-151.35 2446.5,-151.35 2446.5,-170.6"/>
<text xml:space="preserve" text-anchor="middle" x="2400.62" y="-157.1" font-family="Helvetica,sans-Serif" font-size="10.00">PGB_Modal_new</text>
</a>
</g>
</g>
<!-- Node2&#45;&gt;Node16 -->
<g id="edge19_Node000002_Node000016" class="edge">
<title>Node2&#45;&gt;Node16</title>
<g id="a_edge19_Node000002_Node000016"><a xlink:title=" ">
<path fill="none" stroke="#63b8ff" d="M2529.13,-313.45C2498.95,-277.36 2433.18,-198.71 2409.95,-170.93"/>
<polygon fill="#63b8ff" stroke="#63b8ff" points="2526.25,-315.45 2535.35,-320.88 2531.62,-310.96 2526.25,-315.45"/>
</a>
</g>
</g>
<!-- Node21 -->
<g id="Node000021" class="node">
<title>Node21</title>
<g id="a_Node000021"><a xlink:href="settings__scene_8c.html#a7a2a61c35c00f7990b0a85f16e5c9975" target="_top" xlink:title=" ">
<polygon fill="white" stroke="#666666" points="1249.25,-250.6 1120,-250.6 1120,-231.35 1249.25,-231.35 1249.25,-250.6"/>
<text xml:space="preserve" text-anchor="middle" x="1184.62" y="-237.1" font-family="Helvetica,sans-Serif" font-size="10.00">PGB_SettingsScene_new</text>
</a>
</g>
</g>
<!-- Node2&#45;&gt;Node21 -->
<g id="edge42_Node000002_Node000021" class="edge">
<title>Node2&#45;&gt;Node21</title>
<g id="a_edge42_Node000002_Node000021"><a xlink:title=" ">
<path fill="none" stroke="#63b8ff" d="M2502,-318.69C2444.09,-301.85 2337.03,-274.97 2243.5,-274.97 2243.5,-274.97 2243.5,-274.97 2078.88,-274.97 1725.99,-274.97 1637.39,-273.94 1285.25,-250.97 1273.71,-250.22 1261.45,-249.19 1249.61,-248.06"/>
<polygon fill="#63b8ff" stroke="#63b8ff" points="2500.88,-322.01 2511.46,-321.49 2502.86,-315.3 2500.88,-322.01"/>
</a>
</g>
</g>
<!-- Node4 -->
<g id="Node000004" class="node">
<title>Node4</title>
<g id="a_Node000004"><a xlink:href="library__scene_8c.html#a226d6ce979bacb7e37c185d5b32a7361" target="_top" xlink:title=" ">
<polygon fill="white" stroke="#666666" points="1796.75,-360.6 1637.5,-360.6 1637.5,-341.35 1796.75,-341.35 1796.75,-360.6"/>
<text xml:space="preserve" text-anchor="middle" x="1717.12" y="-347.1" font-family="Helvetica,sans-Serif" font-size="10.00">PGB_LibraryScene_showCredits</text>
</a>
</g>
</g>
<!-- Node3&#45;&gt;Node4 -->
<g id="edge3_Node000003_Node000004" class="edge">
<title>Node3&#45;&gt;Node4</title>
<g id="a_edge3_Node000003_Node000004"><a xlink:title=" ">
<path fill="none" stroke="#63b8ff" d="M2326.64,-350.97C2197.58,-350.97 1930.15,-350.97 1797,-350.97"/>
<polygon fill="#63b8ff" stroke="#63b8ff" points="2326.43,-354.47 2336.43,-350.97 2326.43,-347.47 2326.43,-354.47"/>
</a>
</g>
</g>
<!-- Node5 -->
<g id="Node000005" class="node">
<title>Node5</title>
<g id="a_Node000005"><a xlink:href="library__scene_8c.html#ab295872b275c54cb2800b2b71fd163ef" target="_top" xlink:title=" ">
<polygon fill="white" stroke="#666666" points="884.25,-317.6 755.75,-317.6 755.75,-298.35 884.25,-298.35 884.25,-317.6"/>
<text xml:space="preserve" text-anchor="middle" x="820" y="-304.1" font-family="Helvetica,sans-Serif" font-size="10.00">PGB_LibraryScene_menu</text>
</a>
</g>
</g>
<!-- Node4&#45;&gt;Node5 -->
<g id="edge4_Node000004_Node000005" class="edge">
<title>Node4&#45;&gt;Node5</title>
<g id="a_edge4_Node000004_Node000005"><a xlink:title=" ">
<path fill="none" stroke="#63b8ff" d="M1653.5,-338.9C1581.96,-326.18 1461.25,-307.97 1356.5,-307.97 1356.5,-307.97 1356.5,-307.97 1183.62,-307.97 1078.8,-307.97 956.94,-307.97 884.54,-307.97"/>
<polygon fill="#63b8ff" stroke="#63b8ff" points="1652.59,-342.3 1663.05,-340.62 1653.83,-335.41 1652.59,-342.3"/>
</a>
</g>
</g>
<!-- Node5&#45;&gt;Node6 -->
<g id="edge5_Node000005_Node000006" class="edge">
<title>Node5&#45;&gt;Node6</title>
<g id="a_edge5_Node000005_Node000006"><a xlink:title=" ">
<path fill="none" stroke="#63b8ff" d="M761.65,-320.56C743.22,-324.6 723.04,-329.03 705.53,-332.87"/>
<polygon fill="#63b8ff" stroke="#63b8ff" points="762.37,-323.98 771.39,-318.42 760.87,-317.15 762.37,-323.98"/>
</a>
</g>
</g>
<!-- Node7 -->
<g id="Node000007" class="node">
<title>Node7</title>
<g id="a_Node000007"><a xlink:href="app_8c.html#ab80501f53b757a79772b96ec99e3dc7e" target="_top" xlink:title=" ">
<polygon fill="white" stroke="#666666" points="534.25,-248.6 441.75,-248.6 441.75,-229.35 534.25,-229.35 534.25,-248.6"/>
<text xml:space="preserve" text-anchor="middle" x="488" y="-235.1" font-family="Helvetica,sans-Serif" font-size="10.00">PGB_goToLibrary</text>
</a>
</g>
</g>
<!-- Node6&#45;&gt;Node7 -->
<g id="edge6_Node000006_Node000007" class="edge">
<title>Node6&#45;&gt;Node7</title>
<g id="a_edge6_Node000006_Node000007"><a xlink:title=" ">
<path fill="none" stroke="#63b8ff" d="M631.79,-327.1C596.67,-305.43 534.74,-267.21 505.36,-249.07"/>
<polygon fill="#63b8ff" stroke="#63b8ff" points="629.71,-329.93 640.06,-332.21 633.38,-323.98 629.71,-329.93"/>
</a>
</g>
</g>
<!-- Node10 -->
<g id="Node000010" class="node">
<title>Node10</title>
<g id="a_Node000010"><a xlink:href="image__conversion__scene_8c.html#a60d0e43ab25a8639bbb6d1f4e758edd3" target="_top" xlink:title=" ">
<polygon fill="white" stroke="#666666" points="561.25,-399.22 414.75,-399.22 414.75,-368.72 561.25,-368.72 561.25,-399.22"/>
<text xml:space="preserve" text-anchor="start" x="422.75" y="-385.72" font-family="Helvetica,sans-Serif" font-size="10.00">PGB_ImageConversionScene</text>
<text xml:space="preserve" text-anchor="middle" x="488" y="-374.47" font-family="Helvetica,sans-Serif" font-size="10.00">_update</text>
</a>
</g>
</g>
<!-- Node6&#45;&gt;Node10 -->
<g id="edge9_Node000006_Node000010" class="edge">
<title>Node6&#45;&gt;Node10</title>
<g id="a_edge9_Node000006_Node000010"><a xlink:title=" ">
<path fill="none" stroke="#63b8ff" d="M605.27,-355.68C588.87,-359.67 570.57,-364.13 553.43,-368.3"/>
<polygon fill="#63b8ff" stroke="#63b8ff" points="605.92,-359.13 614.81,-353.36 604.27,-352.33 605.92,-359.13"/>
</a>
</g>
</g>
<!-- Node12 -->
<g id="Node000012" class="node">
<title>Node12</title>
<g id="a_Node000012"><a xlink:href="app_8c.html#af256ea7a9c51fcbd49cb0007facbb8ea" target="_top" xlink:title=" ">
<polygon fill="white" stroke="#666666" points="166.25,-371.6 111.25,-371.6 111.25,-352.35 166.25,-352.35 166.25,-371.6"/>
<text xml:space="preserve" text-anchor="middle" x="138.75" y="-358.1" font-family="Helvetica,sans-Serif" font-size="10.00">PGB_init</text>
</a>
</g>
</g>
<!-- Node6&#45;&gt;Node12 -->
<g id="edge13_Node000006_Node000012" class="edge">
<title>Node6&#45;&gt;Node12</title>
<g id="a_edge13_Node000006_Node000012"><a xlink:title=" ">
<path fill="none" stroke="#63b8ff" d="M585.57,-345.61C469.01,-349.89 244.13,-358.14 166.71,-360.99"/>
<polygon fill="#63b8ff" stroke="#63b8ff" points="585.46,-349.12 595.33,-345.26 585.21,-342.13 585.46,-349.12"/>
</a>
</g>
</g>
<!-- Node8 -->
<g id="Node000008" class="node">
<title>Node8</title>
<g id="a_Node000008"><a xlink:href="game__scene_8c.html#a6a4a6f0408da311dc566eb187e497889" target="_top" xlink:title=" ">
<polygon fill="white" stroke="#666666" points="360,-184.6 227.75,-184.6 227.75,-165.35 360,-165.35 360,-184.6"/>
<text xml:space="preserve" text-anchor="middle" x="293.88" y="-171.1" font-family="Helvetica,sans-Serif" font-size="10.00">PGB_LibraryConfirmModal</text>
</a>
</g>
</g>
<!-- Node7&#45;&gt;Node8 -->
<g id="edge7_Node000007_Node000008" class="edge">
<title>Node7&#45;&gt;Node8</title>
<g id="a_edge7_Node000007_Node000008"><a xlink:title=" ">
<path fill="none" stroke="#63b8ff" d="M446.27,-225.41C409.96,-213.31 357.66,-195.89 325,-185.01"/>
<polygon fill="#63b8ff" stroke="#63b8ff" points="444.95,-228.66 455.54,-228.5 447.16,-222.02 444.95,-228.66"/>
</a>
</g>
</g>
<!-- Node9 -->
<g id="Node000009" class="node">
<title>Node9</title>
<g id="a_Node000009"><a xlink:href="game__scene_8c.html#a113df24bb94bafcdbb9235ec8648e02f" target="_top" xlink:title=" ">
<polygon fill="white" stroke="#666666" points="173,-165.6 104.5,-165.6 104.5,-146.35 173,-146.35 173,-165.6"/>
<text xml:space="preserve" text-anchor="middle" x="138.75" y="-152.1" font-family="Helvetica,sans-Serif" font-size="10.00">__section__</text>
</a>
</g>
</g>
<!-- Node8&#45;&gt;Node9 -->
<g id="edge8_Node000008_Node000009" class="edge">
<title>Node8&#45;&gt;Node9</title>
<g id="a_edge8_Node000008_Node000009"><a xlink:title=" ">
<path fill="none" stroke="#63b8ff" d="M216.47,-165.49C201.28,-163.61 186.08,-161.72 173.27,-160.13"/>
<polygon fill="#63b8ff" stroke="#63b8ff" points="215.64,-168.92 225.99,-166.68 216.5,-161.97 215.64,-168.92"/>
</a>
</g>
</g>
<!-- Node10&#45;&gt;Node11 -->
<g id="edge10_Node000010_Node000011" class="edge">
<title>Node10&#45;&gt;Node11</title>
<g id="a_edge10_Node000010_Node000011"><a xlink:title=" ">
<path fill="none" stroke="#63b8ff" d="M402.94,-383.97C395.07,-383.97 387.09,-383.97 379.22,-383.97"/>
<polygon fill="#63b8ff" stroke="#63b8ff" points="402.85,-387.47 412.85,-383.97 402.85,-380.47 402.85,-387.47"/>
</a>
</g>
</g>
<!-- Node11&#45;&gt;Node12 -->
<g id="edge11_Node000011_Node000012" class="edge">
<title>Node11&#45;&gt;Node12</title>
<g id="a_edge11_Node000011_Node000012"><a xlink:title=" ">
<path fill="none" stroke="#63b8ff" d="M211.33,-372.26C195.09,-369.92 179.14,-367.63 166.44,-365.81"/>
<polygon fill="#63b8ff" stroke="#63b8ff" points="210.69,-375.7 221.09,-373.66 211.69,-368.77 210.69,-375.7"/>
</a>
</g>
</g>
<!-- Node13 -->
<g id="Node000013" class="node">
<title>Node13</title>
<g id="a_Node000013"><a xlink:href="main_8c.html#a77034286b8c64d0735c69535c5e9b732" target="_top" xlink:title=" ">
<polygon fill="white" stroke="#666666" points="68.5,-371.6 0,-371.6 0,-352.35 68.5,-352.35 68.5,-371.6"/>
<text xml:space="preserve" text-anchor="middle" x="34.25" y="-358.1" font-family="Helvetica,sans-Serif" font-size="10.00">__section__</text>
</a>
</g>
</g>
<!-- Node12&#45;&gt;Node13 -->
<g id="edge12_Node000012_Node000013" class="edge">
<title>Node12&#45;&gt;Node13</title>
<g id="a_edge12_Node000012_Node000013"><a xlink:title=" ">
<path fill="none" stroke="#63b8ff" d="M99.48,-361.97C89.46,-361.97 78.74,-361.97 68.97,-361.97"/>
<polygon fill="#63b8ff" stroke="#63b8ff" points="99.31,-365.47 109.31,-361.97 99.31,-358.47 99.31,-365.47"/>
</a>
</g>
</g>
<!-- Node15 -->
<g id="Node000015" class="node">
<title>Node15</title>
<g id="a_Node000015"><a xlink:href="library__scene_8c.html#a0728002045c9cbbd68bdd34897b28da6" target="_top" xlink:title=" ">
<polygon fill="white" stroke="#666666" points="2146.75,-322.6 2013,-322.6 2013,-303.35 2146.75,-303.35 2146.75,-322.6"/>
<text xml:space="preserve" text-anchor="middle" x="2079.88" y="-309.1" font-family="Helvetica,sans-Serif" font-size="10.00">PGB_LibraryScene_update</text>
</a>
</g>
</g>
<!-- Node14&#45;&gt;Node15 -->
<g id="edge15_Node000014_Node000015" class="edge">
<title>Node14&#45;&gt;Node15</title>
<g id="a_edge15_Node000014_Node000015"><a xlink:title=" ">
<path fill="none" stroke="#63b8ff" d="M2171.34,-312.97C2163.29,-312.97 2155.09,-312.97 2147.09,-312.97"/>
<polygon fill="#63b8ff" stroke="#63b8ff" points="2171.09,-316.47 2181.09,-312.97 2171.09,-309.47 2171.09,-316.47"/>
</a>
</g>
</g>
<!-- Node15&#45;&gt;Node6 -->
<g id="edge16_Node000015_Node000006" class="edge">
<title>Node15&#45;&gt;Node6</title>
<g id="a_edge16_Node000015_Node000006"><a xlink:title=" ">
<path fill="none" stroke="#63b8ff" d="M2001.46,-316.15C1913.32,-319.8 1765.03,-326.05 1637.5,-331.97 1512.59,-337.77 1481.54,-345.97 1356.5,-345.97 1356.5,-345.97 1356.5,-345.97 1001.12,-345.97 902.67,-345.97 788.25,-344.71 719.98,-343.83"/>
<polygon fill="#63b8ff" stroke="#63b8ff" points="2001.33,-319.66 2011.18,-315.75 2001.04,-312.66 2001.33,-319.66"/>
</a>
</g>
</g>
<!-- Node16&#45;&gt;Node9 -->
<g id="edge20_Node000016_Node000009" class="edge">
<title>Node16&#45;&gt;Node9</title>
<g id="a_edge20_Node000016_Node000009"><a xlink:title=" ">
<path fill="none" stroke="#63b8ff" d="M2391.45,-140.79C2377.93,-110.37 2347.81,-53.59 2302.25,-27.97 2216.17,20.42 2179.63,-8.97 2080.88,-8.97 2080.88,-8.97 2080.88,-8.97 487,-8.97 346.25,-8.97 196.99,-112.66 152.79,-145.87"/>
<polygon fill="#63b8ff" stroke="#63b8ff" points="2388.08,-141.82 2395.22,-149.65 2394.52,-139.08 2388.08,-141.82"/>
</a>
</g>
</g>
<!-- Node16&#45;&gt;Node14 -->
<g id="edge32_Node000016_Node000014" class="edge">
<title>Node16&#45;&gt;Node14</title>
<g id="a_edge32_Node000016_Node000014"><a xlink:title=" ">
<path fill="none" stroke="#63b8ff" d="M2381.35,-178.84C2361.79,-197.94 2329.85,-229.12 2302.25,-255.97 2285.34,-272.43 2265.66,-291.51 2253.91,-302.89"/>
<polygon fill="#63b8ff" stroke="#63b8ff" points="2383.61,-181.52 2388.32,-172.03 2378.72,-176.51 2383.61,-181.52"/>
</a>
</g>
</g>
<!-- Node17 -->
<g id="Node000017" class="node">
<title>Node17</title>
<g id="a_Node000017"><a xlink:href="library__scene_8c.html#ab61f378dd09afd7715687d7917da8d1a" target="_top" xlink:title=" ">
<polygon fill="white" stroke="#666666" points="2288,-246.6 2197,-246.6 2197,-227.35 2288,-227.35 2288,-246.6"/>
<text xml:space="preserve" text-anchor="middle" x="2242.5" y="-233.1" font-family="Helvetica,sans-Serif" font-size="10.00">CB_updatecheck</text>
</a>
</g>
</g>
<!-- Node16&#45;&gt;Node17 -->
<g id="edge21_Node000016_Node000017" class="edge">
<title>Node16&#45;&gt;Node17</title>
<g id="a_edge21_Node000016_Node000017"><a xlink:title=" ">
<path fill="none" stroke="#63b8ff" d="M2372.4,-176.48C2353.08,-187.25 2326.4,-201.63 2302.25,-212.97 2291.78,-217.89 2280.01,-222.81 2269.78,-226.91"/>
<polygon fill="#63b8ff" stroke="#63b8ff" points="2373.98,-179.61 2380.99,-171.66 2370.56,-173.5 2373.98,-179.61"/>
</a>
</g>
</g>
<!-- Node18 -->
<g id="Node000018" class="node">
<title>Node18</title>
<g id="a_Node000018"><a xlink:href="settings__scene_8c.html#a391e7ae486f08b8455185927863452ed" target="_top" xlink:title=" ">
<polygon fill="white" stroke="#666666" points="2293.25,-56.6 2191.75,-56.6 2191.75,-37.35 2293.25,-37.35 2293.25,-56.6"/>
<text xml:space="preserve" text-anchor="middle" x="2242.5" y="-43.1" font-family="Helvetica,sans-Serif" font-size="10.00">confirm_save_state</text>
</a>
</g>
</g>
<!-- Node16&#45;&gt;Node18 -->
<g id="edge23_Node000016_Node000018" class="edge">
<title>Node16&#45;&gt;Node18</title>
<g id="a_edge23_Node000016_Node000018"><a xlink:title=" ">
<path fill="none" stroke="#63b8ff" d="M2383.57,-142.63C2365.44,-122.82 2334.27,-91.36 2302.25,-70.97 2293.61,-65.47 2283.49,-60.8 2274.11,-57.08"/>
<polygon fill="#63b8ff" stroke="#63b8ff" points="2380.86,-144.85 2390.14,-149.96 2386.07,-140.18 2380.86,-144.85"/>
</a>
</g>
</g>
<!-- Node19 -->
<g id="Node000019" class="node">
<title>Node19</title>
<g id="a_Node000019"><a xlink:href="settings__scene_8c.html#a8057455d49efce21fc559d502d1b65dc" target="_top" xlink:title=" ">
<polygon fill="white" stroke="#666666" points="2134,-80.22 2025.75,-80.22 2025.75,-49.72 2134,-49.72 2134,-80.22"/>
<text xml:space="preserve" text-anchor="start" x="2033.75" y="-66.72" font-family="Helvetica,sans-Serif" font-size="10.00">settings_action_save</text>
<text xml:space="preserve" text-anchor="middle" x="2079.88" y="-55.47" font-family="Helvetica,sans-Serif" font-size="10.00">_state</text>
</a>
</g>
</g>
<!-- Node16&#45;&gt;Node19 -->
<g id="edge37_Node000016_Node000019" class="edge">
<title>Node16&#45;&gt;Node19</title>
<g id="a_edge37_Node000016_Node000019"><a xlink:title=" ">
<path fill="none" stroke="#63b8ff" d="M2374.72,-145.02C2355.58,-133.44 2328.14,-118.23 2302.25,-108.97 2246.72,-89.12 2179.97,-77.4 2134.38,-71.12"/>
<polygon fill="#63b8ff" stroke="#63b8ff" points="2372.79,-147.95 2383.14,-150.23 2376.47,-141.99 2372.79,-147.95"/>
</a>
</g>
</g>
<!-- Node25 -->
<g id="Node000025" class="node">
<title>Node25</title>
<g id="a_Node000025"><a xlink:href="settings__scene_8c.html#a5cfb11a3e4e6ecfc7430e17d5e8ebc10" target="_top" xlink:title=" ">
<polygon fill="white" stroke="#666666" points="1977,-247.22 1832.75,-247.22 1832.75,-216.72 1977,-216.72 1977,-247.22"/>
<text xml:space="preserve" text-anchor="start" x="1840.75" y="-233.72" font-family="Helvetica,sans-Serif" font-size="10.00">PGB_SettingsScene_attempt</text>
<text xml:space="preserve" text-anchor="middle" x="1904.88" y="-222.47" font-family="Helvetica,sans-Serif" font-size="10.00">Dismiss</text>
</a>
</g>
</g>
<!-- Node16&#45;&gt;Node25 -->
<g id="edge33_Node000016_Node000025" class="edge">
<title>Node16&#45;&gt;Node25</title>
<g id="a_edge33_Node000016_Node000025"><a xlink:title=" ">
<path fill="none" stroke="#63b8ff" d="M2347.7,-173.62C2296.81,-185.55 2216.89,-203.04 2146.75,-212.97 2090.06,-221.01 2025.34,-225.88 1977.27,-228.67"/>
<polygon fill="#63b8ff" stroke="#63b8ff" points="2348.33,-177.07 2357.25,-171.37 2346.72,-170.26 2348.33,-177.07"/>
</a>
</g>
</g>
<!-- Node26 -->
<g id="Node000026" class="node">
<title>Node26</title>
<g id="a_Node000026"><a xlink:href="settings__scene_8c.html#ae138f8df889d309ab5c1474100b5e04e" target="_top" xlink:title=" ">
<polygon fill="white" stroke="#666666" points="1957.5,-161.22 1852.25,-161.22 1852.25,-130.72 1957.5,-130.72 1957.5,-161.22"/>
<text xml:space="preserve" text-anchor="start" x="1860.25" y="-147.72" font-family="Helvetica,sans-Serif" font-size="10.00">settings_action_load</text>
<text xml:space="preserve" text-anchor="middle" x="1904.88" y="-136.47" font-family="Helvetica,sans-Serif" font-size="10.00">_state</text>
</a>
</g>
</g>
<!-- Node16&#45;&gt;Node26 -->
<g id="edge35_Node000016_Node000026" class="edge">
<title>Node16&#45;&gt;Node26</title>
<g id="a_edge35_Node000016_Node000026"><a xlink:title=" ">
<path fill="none" stroke="#63b8ff" d="M2346.14,-148.62C2331.95,-145.87 2316.59,-143.36 2302.25,-141.97 2179.29,-130.09 2033.89,-136.84 1957.97,-141.93"/>
<polygon fill="#63b8ff" stroke="#63b8ff" points="2345.25,-152.01 2355.74,-150.56 2346.63,-145.15 2345.25,-152.01"/>
</a>
</g>
</g>
<!-- Node27 -->
<g id="Node000027" class="node">
<title>Node27</title>
<g id="a_Node000027"><a xlink:href="settings__scene_8c.html#a498486c7b338f8ace4aebad51faa1bce" target="_top" xlink:title=" ">
<polygon fill="white" stroke="#666666" points="2292.88,-170.6 2192.12,-170.6 2192.12,-151.35 2292.88,-151.35 2292.88,-170.6"/>
<text xml:space="preserve" text-anchor="middle" x="2242.5" y="-157.1" font-family="Helvetica,sans-Serif" font-size="10.00">settings_load_state</text>
</a>
</g>
</g>
<!-- Node16&#45;&gt;Node27 -->
<g id="edge38_Node000016_Node000027" class="edge">
<title>Node16&#45;&gt;Node27</title>
<g id="a_edge38_Node000016_Node000027"><a xlink:title=" ">
<path fill="none" stroke="#63b8ff" d="M2343.37,-160.97C2326.97,-160.97 2309.17,-160.97 2293.21,-160.97"/>
<polygon fill="#63b8ff" stroke="#63b8ff" points="2342.95,-164.47 2352.95,-160.97 2342.95,-157.47 2342.95,-164.47"/>
</a>
</g>
</g>
<!-- Node17&#45;&gt;Node15 -->
<g id="edge22_Node000017_Node000015" class="edge">
<title>Node17&#45;&gt;Node15</title>
<g id="a_edge22_Node000017_Node000015"><a xlink:title=" ">
<path fill="none" stroke="#63b8ff" d="M2210.04,-251.86C2178.13,-266.96 2129.63,-289.91 2102.04,-302.96"/>
<polygon fill="#63b8ff" stroke="#63b8ff" points="2211.26,-255.15 2218.8,-247.71 2208.27,-248.83 2211.26,-255.15"/>
</a>
</g>
</g>
<!-- Node18&#45;&gt;Node19 -->
<g id="edge24_Node000018_Node000019" class="edge">
<title>Node18&#45;&gt;Node19</title>
<g id="a_edge24_Node000018_Node000019"><a xlink:title=" ">
<path fill="none" stroke="#63b8ff" d="M2180.24,-53.84C2165.15,-55.53 2149.1,-57.33 2134.41,-58.98"/>
<polygon fill="#63b8ff" stroke="#63b8ff" points="2180.51,-57.33 2190.05,-52.74 2179.73,-50.38 2180.51,-57.33"/>
</a>
</g>
</g>
<!-- Node20 -->
<g id="Node000020" class="node">
<title>Node20</title>
<g id="a_Node000020"><a xlink:href="settings__scene_8c.html#a4b52b1fbb1659ff3a37571a03b66cc5f" target="_top" xlink:title=" ">
<polygon fill="white" stroke="#666666" points="1764.12,-155.6 1670.12,-155.6 1670.12,-136.35 1764.12,-136.35 1764.12,-155.6"/>
<text xml:space="preserve" text-anchor="middle" x="1717.12" y="-142.1" font-family="Helvetica,sans-Serif" font-size="10.00">getOptionsEntries</text>
</a>
</g>
</g>
<!-- Node19&#45;&gt;Node20 -->
<g id="edge25_Node000019_Node000020" class="edge">
<title>Node19&#45;&gt;Node20</title>
<g id="a_edge25_Node000019_Node000020"><a xlink:title=" ">
<path fill="none" stroke="#63b8ff" d="M2014.47,-79.44C1942.1,-95.69 1826.5,-121.64 1763.19,-135.86"/>
<polygon fill="#63b8ff" stroke="#63b8ff" points="2014.79,-82.95 2023.78,-77.35 2013.26,-76.12 2014.79,-82.95"/>
</a>
</g>
</g>
<!-- Node20&#45;&gt;Node21 -->
<g id="edge26_Node000020_Node000021" class="edge">
<title>Node20&#45;&gt;Node21</title>
<g id="a_edge26_Node000020_Node000021"><a xlink:title=" ">
<path fill="none" stroke="#63b8ff" d="M1658.56,-147.14C1606.75,-148.94 1528.7,-153.48 1461.75,-164.97 1381.63,-178.73 1363.6,-191.31 1285.25,-212.97 1263.95,-218.86 1240.12,-225.56 1221.11,-230.92"/>
<polygon fill="#63b8ff" stroke="#63b8ff" points="1658.45,-150.65 1668.34,-146.83 1658.23,-143.65 1658.45,-150.65"/>
</a>
</g>
</g>
<!-- Node23 -->
<g id="Node000023" class="node">
<title>Node23</title>
<g id="a_Node000023"><a xlink:href="settings__scene_8c.html#a53cacc500b0aa21588b00f234b5ddd92" target="_top" xlink:title=" ">
<polygon fill="white" stroke="#666666" points="1601.5,-204.22 1461.75,-204.22 1461.75,-173.72 1601.5,-173.72 1601.5,-204.22"/>
<text xml:space="preserve" text-anchor="start" x="1469.75" y="-190.72" font-family="Helvetica,sans-Serif" font-size="10.00">PGB_SettingsScene_rebuild</text>
<text xml:space="preserve" text-anchor="middle" x="1531.62" y="-179.47" font-family="Helvetica,sans-Serif" font-size="10.00">Entries</text>
</a>
</g>
</g>
<!-- Node20&#45;&gt;Node23 -->
<g id="edge29_Node000020_Node000023" class="edge">
<title>Node20&#45;&gt;Node23</title>
<g id="a_edge29_Node000020_Node000023"><a xlink:title=" ">
<path fill="none" stroke="#63b8ff" d="M1661.98,-158.66C1642.49,-163.23 1620.26,-168.44 1599.8,-173.23"/>
<polygon fill="#63b8ff" stroke="#63b8ff" points="1662.69,-162.09 1671.63,-156.4 1661.09,-155.28 1662.69,-162.09"/>
</a>
</g>
</g>
<!-- Node22 -->
<g id="Node000022" class="node">
<title>Node22</title>
<g id="a_Node000022"><a xlink:href="library__scene_8c.html#ae9da6d35e322c1a0896926f6a66c66f1" target="_top" xlink:title=" ">
<polygon fill="white" stroke="#666666" points="1084,-260.6 920.25,-260.6 920.25,-241.35 1084,-241.35 1084,-260.6"/>
<text xml:space="preserve" text-anchor="middle" x="1002.12" y="-247.1" font-family="Helvetica,sans-Serif" font-size="10.00">PGB_LibraryScene_showSettings</text>
</a>
</g>
</g>
<!-- Node21&#45;&gt;Node22 -->
<g id="edge27_Node000021_Node000022" class="edge">
<title>Node21&#45;&gt;Node22</title>
<g id="a_edge27_Node000021_Node000022"><a xlink:title=" ">
<path fill="none" stroke="#63b8ff" d="M1108.28,-245.15C1100.37,-245.59 1092.3,-246.03 1084.32,-246.48"/>
<polygon fill="#63b8ff" stroke="#63b8ff" points="1108.43,-248.65 1118.22,-244.6 1108.04,-241.66 1108.43,-248.65"/>
</a>
</g>
</g>
<!-- Node22&#45;&gt;Node5 -->
<g id="edge28_Node000022_Node000005" class="edge">
<title>Node22&#45;&gt;Node5</title>
<g id="a_edge28_Node000022_Node000005"><a xlink:title=" ">
<path fill="none" stroke="#63b8ff" d="M958.39,-264.5C925.97,-274.76 882.13,-288.63 852.77,-297.92"/>
<polygon fill="#63b8ff" stroke="#63b8ff" points="959.42,-267.84 967.89,-261.49 957.3,-261.17 959.42,-267.84"/>
</a>
</g>
</g>
<!-- Node24 -->
<g id="Node000024" class="node">
<title>Node24</title>
<g id="a_Node000024"><a xlink:href="settings__scene_8c.html#ab2a60c1877e6e9ec3e98c502666c64c2" target="_top" xlink:title=" ">
<polygon fill="white" stroke="#666666" points="1425.75,-241.6 1285.25,-241.6 1285.25,-222.35 1425.75,-222.35 1425.75,-241.6"/>
<text xml:space="preserve" text-anchor="middle" x="1355.5" y="-228.1" font-family="Helvetica,sans-Serif" font-size="10.00">PGB_SettingsScene_update</text>
</a>
</g>
</g>
<!-- Node23&#45;&gt;Node24 -->
<g id="edge30_Node000023_Node000024" class="edge">
<title>Node23&#45;&gt;Node24</title>
<g id="a_edge30_Node000023_Node000024"><a xlink:title=" ">
<path fill="none" stroke="#63b8ff" d="M1456.18,-207.36C1435.99,-212.34 1414.88,-217.56 1397.31,-221.9"/>
<polygon fill="#63b8ff" stroke="#63b8ff" points="1456.93,-210.78 1465.8,-204.98 1455.25,-203.98 1456.93,-210.78"/>
</a>
</g>
</g>
<!-- Node24&#45;&gt;Node21 -->
<g id="edge31_Node000024_Node000021" class="edge">
<title>Node24&#45;&gt;Node21</title>
<g id="a_edge31_Node000024_Node000021"><a xlink:title=" ">
<path fill="none" stroke="#63b8ff" d="M1273.57,-236.29C1265.56,-236.71 1257.51,-237.14 1249.71,-237.56"/>
<polygon fill="#63b8ff" stroke="#63b8ff" points="1273.53,-239.8 1283.33,-235.77 1273.15,-232.8 1273.53,-239.8"/>
</a>
</g>
</g>
<!-- Node25&#45;&gt;Node24 -->
<g id="edge34_Node000025_Node000024" class="edge">
<title>Node25&#45;&gt;Node24</title>
<g id="a_edge34_Node000025_Node000024"><a xlink:title=" ">
<path fill="none" stroke="#63b8ff" d="M1820.85,-231.97C1712.99,-231.97 1526.63,-231.97 1425.92,-231.97"/>
<polygon fill="#63b8ff" stroke="#63b8ff" points="1820.8,-235.47 1830.8,-231.97 1820.8,-228.47 1820.8,-235.47"/>
</a>
</g>
</g>
<!-- Node26&#45;&gt;Node20 -->
<g id="edge36_Node000026_Node000020" class="edge">
<title>Node26&#45;&gt;Node20</title>
<g id="a_edge36_Node000026_Node000020"><a xlink:title=" ">
<path fill="none" stroke="#63b8ff" d="M1840.9,-145.97C1815.87,-145.97 1787.61,-145.97 1764.52,-145.97"/>
<polygon fill="#63b8ff" stroke="#63b8ff" points="1840.62,-149.47 1850.62,-145.97 1840.62,-142.47 1840.62,-149.47"/>
</a>
</g>
</g>
<!-- Node27&#45;&gt;Node26 -->
<g id="edge39_Node000027_Node000026" class="edge">
<title>Node27&#45;&gt;Node26</title>
<g id="a_edge39_Node000027_Node000026"><a xlink:title=" ">
<path fill="none" stroke="#63b8ff" d="M2180.51,-158.25C2116.79,-155.4 2017.92,-150.98 1957.81,-148.3"/>
<polygon fill="#63b8ff" stroke="#63b8ff" points="2180.32,-161.74 2190.47,-158.69 2180.63,-154.75 2180.32,-161.74"/>
</a>
</g>
</g>
<!-- Node28 -->
<g id="Node000028" class="node">
<title>Node28</title>
<g id="a_Node000028"><a xlink:href="settings__scene_8c.html#a13b744f6d456f284dbed80dac68c3c7b" target="_top" xlink:title=" ">
<polygon fill="white" stroke="#666666" points="2135.5,-204.22 2024.25,-204.22 2024.25,-173.72 2135.5,-173.72 2135.5,-204.22"/>
<text xml:space="preserve" text-anchor="start" x="2032.25" y="-190.72" font-family="Helvetica,sans-Serif" font-size="10.00">settings_confirm_load</text>
<text xml:space="preserve" text-anchor="middle" x="2079.88" y="-179.47" font-family="Helvetica,sans-Serif" font-size="10.00">_state</text>
</a>
</g>
</g>
<!-- Node27&#45;&gt;Node28 -->
<g id="edge40_Node000027_Node000028" class="edge">
<title>Node27&#45;&gt;Node28</title>
<g id="a_edge40_Node000027_Node000028"><a xlink:title=" ">
<path fill="none" stroke="#63b8ff" d="M2180.9,-171.54C2166.09,-174.12 2150.34,-176.87 2135.81,-179.4"/>
<polygon fill="#63b8ff" stroke="#63b8ff" points="2181.26,-175.03 2190.51,-169.86 2180.05,-168.13 2181.26,-175.03"/>
</a>
</g>
</g>
<!-- Node28&#45;&gt;Node26 -->
<g id="edge41_Node000028_Node000026" class="edge">
<title>Node28&#45;&gt;Node26</title>
<g id="a_edge41_Node000028_Node000026"><a xlink:title=" ">
<path fill="none" stroke="#63b8ff" d="M2012.98,-172.6C1994.75,-168.07 1975.22,-163.21 1957.9,-158.91"/>
<polygon fill="#63b8ff" stroke="#63b8ff" points="2012.12,-175.99 2022.67,-175 2013.81,-169.2 2012.12,-175.99"/>
</a>
</g>
</g>
</g>
</svg>
