<?xml version="1.0" encoding="UTF-8" standalone="no"?>
<!DOCTYPE svg PUBLIC "-//W3C//DTD SVG 1.1//EN"
 "http://www.w3.org/Graphics/SVG/1.1/DTD/svg11.dtd">
<!-- Generated by graphviz version 13.1.0 (20250701.0955)
 -->
<!-- Title: src/scene.h Pages: 1 -->
<!--zoomable 326 -->

<svg id="main" version="1.1" xmlns="http://www.w3.org/2000/svg" xmlns:xlink="http://www.w3.org/1999/xlink" xml:space="preserve" onload="init(evt)">

<style type="text/css"><![CDATA[
.node, .edge {opacity: 0.7;}
.node.selected, .edge.selected {opacity: 1;}
.edge:hover path { stroke: red; }
.edge:hover polygon { stroke: red; fill: red; }
]]></style>

<defs>
  <circle id="rim" cx="0" cy="0" r="7"/>
  <circle id="rim2" cx="0" cy="0" r="3.5"/>
  <g id="zoomPlus">
    <use xlink:href="#rim" fill="#404040"><set attributeName="fill" to="#808080" begin="zoomplus.mouseover" end="zoomplus.mouseout"/></use>
    <path d="M-4,0h8M0,-4v8" fill="none" stroke="white" stroke-width="1.5" pointer-events="none"/>
  </g>
  <g id="zoomMin">
    <use xlink:href="#rim" fill="#404040"><set attributeName="fill" to="#808080" begin="zoomminus.mouseover" end="zoomminus.mouseout"/></use>
    <path d="M-4,0h8" fill="none" stroke="white" stroke-width="1.5" pointer-events="none"/>
  </g>
  <g id="arrowUp" transform="translate(30 24)">
    <use xlink:href="#rim"/>
    <path pointer-events="none" fill="none" stroke="white" stroke-width="1.5" d="M0,-3.0v7 M-2.5,-0.5L0,-3.0L2.5,-0.5"/>
  </g>
  <g id="arrowRight" transform="rotate(90) translate(36 -43)">
    <use xlink:href="#rim"/>
    <path pointer-events="none" fill="none" stroke="white" stroke-width="1.5" d="M0,-3.0v7 M-2.5,-0.5L0,-3.0L2.5,-0.5"/>
  </g>
  <g id="arrowDown" transform="rotate(180) translate(-30 -48)">
    <use xlink:href="#rim"/>
    <path pointer-events="none" fill="none" stroke="white" stroke-width="1.5" d="M0,-3.0v7 M-2.5,-0.5L0,-3.0L2.5,-0.5"/>
  </g>
  <g id="arrowLeft" transform="rotate(270) translate(-36 17)">
    <use xlink:href="#rim"/>
    <path pointer-events="none" fill="none" stroke="white" stroke-width="1.5" d="M0,-3.0v7 M-2.5,-0.5L0,-3.0L2.5,-0.5"/>
  </g>
  <g id="resetDef">
    <use xlink:href="#rim2" fill="#404040"><set attributeName="fill" to="#808080" begin="reset.mouseover" end="reset.mouseout"/></use>
  </g>
</defs>
<script type="application/ecmascript">
var viewWidth = 1188;
var viewHeight = 326;
var sectionId = 'dynsection-1';
</script>
<script type="application/ecmascript" xlink:href="svg.min.js"/>
<svg id="graph" class="graph">
<g id="viewport">
<title>src/scene.h</title>
<!-- Node1 -->
<g id="Node000001" class="node">
<title>Node1</title>
<g id="a_Node000001"><a xlink:title=" ">
<polygon fill="#999999" stroke="#666666" points="933.53,-318 866.53,-318 866.53,-298.75 933.53,-298.75 933.53,-318"/>
<text xml:space="preserve" text-anchor="middle" x="900.03" y="-304.5" font-family="Helvetica,sans-Serif" font-size="10.00">src/scene.h</text>
</a>
</g>
</g>
<!-- Node2 -->
<g id="Node000002" class="node">
<title>Node2</title>
<g id="a_Node000002"><a xlink:href="app_8h.html" target="_top" xlink:title=" ">
<polygon fill="white" stroke="#666666" points="616.28,-257.12 559.78,-257.12 559.78,-237.88 616.28,-237.88 616.28,-257.12"/>
<text xml:space="preserve" text-anchor="middle" x="588.03" y="-243.62" font-family="Helvetica,sans-Serif" font-size="10.00">src/app.h</text>
</a>
</g>
</g>
<!-- Node1&#45;&gt;Node2 -->
<g id="edge1_Node000001_Node000002" class="edge">
<title>Node1&#45;&gt;Node2</title>
<g id="a_edge1_Node000001_Node000002"><a xlink:title=" ">
<path fill="none" stroke="#63b8ff" d="M854.89,-298.86C789.63,-286.54 670.79,-264.12 616.48,-253.87"/>
<polygon fill="#63b8ff" stroke="#63b8ff" points="854.08,-302.27 864.56,-300.68 855.38,-295.39 854.08,-302.27"/>
</a>
</g>
</g>
<!-- Node7 -->
<g id="Node000007" class="node">
<title>Node7</title>
<g id="a_Node000007"><a xlink:href="game__scene_8h.html" target="_top" xlink:title=" ">
<polygon fill="white" stroke="#666666" points="652.15,-129.75 555.9,-129.75 555.9,-110.5 652.15,-110.5 652.15,-129.75"/>
<text xml:space="preserve" text-anchor="middle" x="604.03" y="-116.25" font-family="Helvetica,sans-Serif" font-size="10.00">src/game_scene.h</text>
</a>
</g>
</g>
<!-- Node1&#45;&gt;Node7 -->
<g id="edge33_Node000001_Node000007" class="edge">
<title>Node1&#45;&gt;Node7</title>
<g id="a_edge33_Node000001_Node000007"><a xlink:title=" ">
<path fill="none" stroke="#63b8ff" d="M914.66,-289.87C937.21,-260.71 974.69,-201.85 943.03,-165.75 924.17,-144.24 741.53,-129.82 652.43,-124.01"/>
<polygon fill="#63b8ff" stroke="#63b8ff" points="912.18,-287.37 908.66,-297.36 917.64,-291.75 912.18,-287.37"/>
</a>
</g>
</g>
<!-- Node9 -->
<g id="Node000009" class="node">
<title>Node9</title>
<g id="a_Node000009"><a xlink:href="credits__scene_8h.html" target="_top" xlink:title=" ">
<polygon fill="white" stroke="#666666" points="255.78,-74.5 154.28,-74.5 154.28,-55.25 255.78,-55.25 255.78,-74.5"/>
<text xml:space="preserve" text-anchor="middle" x="205.03" y="-61" font-family="Helvetica,sans-Serif" font-size="10.00">src/credits_scene.h</text>
</a>
</g>
</g>
<!-- Node1&#45;&gt;Node9 -->
<g id="edge32_Node000001_Node000009" class="edge">
<title>Node1&#45;&gt;Node9</title>
<g id="a_edge32_Node000001_Node000009"><a xlink:title=" ">
<path fill="none" stroke="#63b8ff" d="M854.86,-306.78C679.73,-304.24 53.85,-293.08 25.03,-262.75 -21.95,-213.32 -5.23,-204.24 105.03,-110.5 124.87,-93.63 152.11,-82.04 173.15,-74.9"/>
<polygon fill="#63b8ff" stroke="#63b8ff" points="854.64,-310.27 864.69,-306.92 854.74,-303.27 854.64,-310.27"/>
</a>
</g>
</g>
<!-- Node13 -->
<g id="Node000013" class="node">
<title>Node13</title>
<g id="a_Node000013"><a xlink:href="settings__scene_8h.html" target="_top" xlink:title=" ">
<polygon fill="white" stroke="#666666" points="977.4,-74.5 870.65,-74.5 870.65,-55.25 977.4,-55.25 977.4,-74.5"/>
<text xml:space="preserve" text-anchor="middle" x="924.03" y="-61" font-family="Helvetica,sans-Serif" font-size="10.00">src/settings_scene.h</text>
</a>
</g>
</g>
<!-- Node1&#45;&gt;Node13 -->
<g id="edge49_Node000001_Node000013" class="edge">
<title>Node1&#45;&gt;Node13</title>
<g id="a_edge49_Node000001_Node000013"><a xlink:title=" ">
<path fill="none" stroke="#63b8ff" d="M926.62,-292.15C937.21,-284.68 948.43,-274.7 955.03,-262.75 969.41,-236.69 961.25,-225.97 963.03,-196.25 963.84,-182.72 965.53,-179.07 963.03,-165.75 956.41,-130.63 937.78,-92.01 928.88,-74.9"/>
<polygon fill="#63b8ff" stroke="#63b8ff" points="924.95,-289.06 918.49,-297.46 928.77,-294.92 924.95,-289.06"/>
</a>
</g>
</g>
<!-- Node17 -->
<g id="Node000017" class="node">
<title>Node17</title>
<g id="a_Node000017"><a xlink:href="modal_8c.html" target="_top" xlink:title=" ">
<polygon fill="white" stroke="#666666" points="1095.53,-190.62 1028.53,-190.62 1028.53,-171.38 1095.53,-171.38 1095.53,-190.62"/>
<text xml:space="preserve" text-anchor="middle" x="1062.03" y="-177.12" font-family="Helvetica,sans-Serif" font-size="10.00">src/modal.c</text>
</a>
</g>
</g>
<!-- Node1&#45;&gt;Node17 -->
<g id="edge42_Node000001_Node000017" class="edge">
<title>Node1&#45;&gt;Node17</title>
<g id="a_edge42_Node000001_Node000017"><a xlink:title=" ">
<path fill="none" stroke="#63b8ff" d="M945.07,-297.2C967.67,-290.36 994.34,-279.46 1014.03,-262.75 1037.77,-242.59 1052.81,-207.56 1058.91,-191.08"/>
<polygon fill="#63b8ff" stroke="#63b8ff" points="944.15,-293.82 935.48,-299.92 946.05,-300.56 944.15,-293.82"/>
</a>
</g>
</g>
<!-- Node18 -->
<g id="Node000018" class="node">
<title>Node18</title>
<g id="a_Node000018"><a xlink:href="scene_8c.html" target="_top" xlink:title=" ">
<polygon fill="white" stroke="#666666" points="933.53,-190.62 866.53,-190.62 866.53,-171.38 933.53,-171.38 933.53,-190.62"/>
<text xml:space="preserve" text-anchor="middle" x="900.03" y="-177.12" font-family="Helvetica,sans-Serif" font-size="10.00">src/scene.c</text>
</a>
</g>
</g>
<!-- Node1&#45;&gt;Node18 -->
<g id="edge48_Node000001_Node000018" class="edge">
<title>Node1&#45;&gt;Node18</title>
<g id="a_edge48_Node000001_Node000018"><a xlink:title=" ">
<path fill="none" stroke="#63b8ff" d="M900.03,-286.93C900.03,-259.19 900.03,-210.83 900.03,-190.93"/>
<polygon fill="#63b8ff" stroke="#63b8ff" points="896.53,-286.84 900.03,-296.84 903.53,-286.84 896.53,-286.84"/>
</a>
</g>
</g>
<!-- Node20 -->
<g id="Node000020" class="node">
<title>Node20</title>
<g id="a_Node000020"><a xlink:href="image__conversion__scene_8h.html" target="_top" xlink:title=" ">
<polygon fill="white" stroke="#666666" points="145.65,-262.75 34.4,-262.75 34.4,-232.25 145.65,-232.25 145.65,-262.75"/>
<text xml:space="preserve" text-anchor="start" x="42.4" y="-249.25" font-family="Helvetica,sans-Serif" font-size="10.00">src/image_conversion</text>
<text xml:space="preserve" text-anchor="middle" x="90.03" y="-238" font-family="Helvetica,sans-Serif" font-size="10.00">_scene.h</text>
</a>
</g>
</g>
<!-- Node1&#45;&gt;Node20 -->
<g id="edge34_Node000001_Node000020" class="edge">
<title>Node1&#45;&gt;Node20</title>
<g id="a_edge34_Node000001_Node000020"><a xlink:title=" ">
<path fill="none" stroke="#63b8ff" d="M854.78,-307.12C738.22,-305.92 418.39,-299.28 155.03,-262.75 152.05,-262.34 149.01,-261.86 145.95,-261.34"/>
<polygon fill="#63b8ff" stroke="#63b8ff" points="854.51,-310.61 864.54,-307.21 854.57,-303.61 854.51,-310.61"/>
</a>
</g>
</g>
<!-- Node21 -->
<g id="Node000021" class="node">
<title>Node21</title>
<g id="a_Node000021"><a xlink:href="library__scene_8h.html" target="_top" xlink:title=" ">
<polygon fill="white" stroke="#666666" points="262.28,-257.12 163.78,-257.12 163.78,-237.88 262.28,-237.88 262.28,-257.12"/>
<text xml:space="preserve" text-anchor="middle" x="213.03" y="-243.62" font-family="Helvetica,sans-Serif" font-size="10.00">src/library_scene.h</text>
</a>
</g>
</g>
<!-- Node1&#45;&gt;Node21 -->
<g id="edge37_Node000001_Node000021" class="edge">
<title>Node1&#45;&gt;Node21</title>
<g id="a_edge37_Node000001_Node000021"><a xlink:title=" ">
<path fill="none" stroke="#63b8ff" d="M855.23,-303.54C732.36,-293.01 390.66,-263.72 262.46,-252.74"/>
<polygon fill="#63b8ff" stroke="#63b8ff" points="854.66,-307 864.92,-304.37 855.25,-300.03 854.66,-307"/>
</a>
</g>
</g>
<!-- Node22 -->
<g id="Node000022" class="node">
<title>Node22</title>
<g id="a_Node000022"><a xlink:href="modal_8h.html" target="_top" xlink:title=" ">
<polygon fill="white" stroke="#666666" points="1157.53,-257.12 1090.53,-257.12 1090.53,-237.88 1157.53,-237.88 1157.53,-257.12"/>
<text xml:space="preserve" text-anchor="middle" x="1124.03" y="-243.62" font-family="Helvetica,sans-Serif" font-size="10.00">src/modal.h</text>
</a>
</g>
</g>
<!-- Node1&#45;&gt;Node22 -->
<g id="edge43_Node000001_Node000022" class="edge">
<title>Node1&#45;&gt;Node22</title>
<g id="a_edge43_Node000001_Node000022"><a xlink:title=" ">
<path fill="none" stroke="#63b8ff" d="M944.52,-295.68C987.42,-284.4 1051.4,-267.59 1090.26,-257.37"/>
<polygon fill="#63b8ff" stroke="#63b8ff" points="943.81,-292.25 935.03,-298.18 945.59,-299.02 943.81,-292.25"/>
</a>
</g>
</g>
<!-- Node3 -->
<g id="Node000003" class="node">
<title>Node3</title>
<g id="a_Node000003"><a xlink:href="main_8c.html" target="_top" xlink:title=" ">
<polygon fill="white" stroke="#666666" points="469.65,-190.62 424.4,-190.62 424.4,-171.38 469.65,-171.38 469.65,-190.62"/>
<text xml:space="preserve" text-anchor="middle" x="447.03" y="-177.12" font-family="Helvetica,sans-Serif" font-size="10.00">main.c</text>
</a>
</g>
</g>
<!-- Node2&#45;&gt;Node3 -->
<g id="edge2_Node000002_Node000003" class="edge">
<title>Node2&#45;&gt;Node3</title>
<g id="a_edge2_Node000002_Node000003"><a xlink:title=" ">
<path fill="none" stroke="#63b8ff" d="M557.89,-232.71C530.38,-220.13 490.51,-201.89 466.83,-191.06"/>
<polygon fill="#63b8ff" stroke="#63b8ff" points="556.2,-235.79 566.75,-236.77 559.11,-229.42 556.2,-235.79"/>
</a>
</g>
</g>
<!-- Node4 -->
<g id="Node000004" class="node">
<title>Node4</title>
<g id="a_Node000004"><a xlink:href="minigb__apu_8c.html" target="_top" xlink:title=" ">
<polygon fill="white" stroke="#666666" points="739.15,-74.5 612.9,-74.5 612.9,-55.25 739.15,-55.25 739.15,-74.5"/>
<text xml:space="preserve" text-anchor="middle" x="676.03" y="-61" font-family="Helvetica,sans-Serif" font-size="10.00">minigb_apu/minigb_apu.c</text>
</a>
</g>
</g>
<!-- Node2&#45;&gt;Node4 -->
<g id="edge3_Node000002_Node000004" class="edge">
<title>Node2&#45;&gt;Node4</title>
<g id="a_edge3_Node000002_Node000004"><a xlink:title=" ">
<path fill="none" stroke="#63b8ff" d="M627.92,-245.88C664.52,-242.93 716.91,-232.17 743.03,-196.25 773.41,-154.47 713.48,-96.97 687.36,-74.95"/>
<polygon fill="#63b8ff" stroke="#63b8ff" points="627.91,-242.38 618.15,-246.5 628.35,-249.36 627.91,-242.38"/>
</a>
</g>
</g>
<!-- Node5 -->
<g id="Node000005" class="node">
<title>Node5</title>
<g id="a_Node000005"><a xlink:href="peanut__gb_8h.html" target="_top" xlink:title=" ">
<polygon fill="white" stroke="#666666" points="733.65,-190.62 616.4,-190.62 616.4,-171.38 733.65,-171.38 733.65,-190.62"/>
<text xml:space="preserve" text-anchor="middle" x="675.03" y="-177.12" font-family="Helvetica,sans-Serif" font-size="10.00">peanut_gb/peanut_gb.h</text>
</a>
</g>
</g>
<!-- Node2&#45;&gt;Node5 -->
<g id="edge4_Node000002_Node000005" class="edge">
<title>Node2&#45;&gt;Node5</title>
<g id="a_edge4_Node000002_Node000005"><a xlink:title=" ">
<path fill="none" stroke="#63b8ff" d="M609.19,-230.81C625.98,-218.36 648.86,-201.4 662.75,-191.1"/>
<polygon fill="#63b8ff" stroke="#63b8ff" points="607.29,-227.86 601.34,-236.63 611.46,-233.49 607.29,-227.86"/>
</a>
</g>
</g>
<!-- Node6 -->
<g id="Node000006" class="node">
<title>Node6</title>
<g id="a_Node000006"><a xlink:href="game__scene_8c.html" target="_top" xlink:title=" ">
<polygon fill="white" stroke="#666666" points="891.15,-19.25 794.9,-19.25 794.9,0 891.15,0 891.15,-19.25"/>
<text xml:space="preserve" text-anchor="middle" x="843.03" y="-5.75" font-family="Helvetica,sans-Serif" font-size="10.00">src/game_scene.c</text>
</a>
</g>
</g>
<!-- Node2&#45;&gt;Node6 -->
<g id="edge23_Node000002_Node000006" class="edge">
<title>Node2&#45;&gt;Node6</title>
<g id="a_edge23_Node000002_Node000006"><a xlink:title=" ">
<path fill="none" stroke="#63b8ff" d="M627.89,-244.4C666.22,-240.39 723.69,-228.91 761.03,-196.25 818.04,-146.37 837.12,-49.35 841.78,-19.55"/>
<polygon fill="#63b8ff" stroke="#63b8ff" points="627.8,-240.89 618.16,-245.28 628.44,-247.86 627.8,-240.89"/>
</a>
</g>
</g>
<!-- Node8 -->
<g id="Node000008" class="node">
<title>Node8</title>
<g id="a_Node000008"><a xlink:href="app_8c.html" target="_top" xlink:title=" ">
<polygon fill="white" stroke="#666666" points="368.28,-74.5 311.78,-74.5 311.78,-55.25 368.28,-55.25 368.28,-74.5"/>
<text xml:space="preserve" text-anchor="middle" x="340.03" y="-61" font-family="Helvetica,sans-Serif" font-size="10.00">src/app.c</text>
</a>
</g>
</g>
<!-- Node2&#45;&gt;Node8 -->
<g id="edge21_Node000002_Node000008" class="edge">
<title>Node2&#45;&gt;Node8</title>
<g id="a_edge21_Node000002_Node000008"><a xlink:title=" ">
<path fill="none" stroke="#63b8ff" d="M548.19,-241.45C495.33,-233.98 405.9,-218.45 382.03,-196.25 345.98,-162.73 340.77,-98.17 340.09,-74.69"/>
<polygon fill="#63b8ff" stroke="#63b8ff" points="547.63,-244.91 558.01,-242.8 548.58,-237.97 547.63,-244.91"/>
</a>
</g>
</g>
<!-- Node10 -->
<g id="Node000010" class="node">
<title>Node10</title>
<g id="a_Node000010"><a xlink:href="credits__scene_8c.html" target="_top" xlink:title=" ">
<polygon fill="white" stroke="#666666" points="216.78,-19.25 115.28,-19.25 115.28,0 216.78,0 216.78,-19.25"/>
<text xml:space="preserve" text-anchor="middle" x="166.03" y="-5.75" font-family="Helvetica,sans-Serif" font-size="10.00">src/credits_scene.c</text>
</a>
</g>
</g>
<!-- Node2&#45;&gt;Node10 -->
<g id="edge22_Node000002_Node000010" class="edge">
<title>Node2&#45;&gt;Node10</title>
<g id="a_edge22_Node000002_Node000010"><a xlink:title=" ">
<path fill="none" stroke="#63b8ff" d="M548.3,-241.64C501.41,-235.05 421.64,-221.14 357.03,-196.25 350.69,-193.81 148.43,-80.38 145.03,-74.5 134.5,-56.32 149.16,-32.12 158.79,-19.36"/>
<polygon fill="#63b8ff" stroke="#63b8ff" points="547.6,-245.08 557.99,-242.96 548.55,-238.14 547.6,-245.08"/>
</a>
</g>
</g>
<!-- Node11 -->
<g id="Node000011" class="node">
<title>Node11</title>
<g id="a_Node000011"><a xlink:href="library__scene_8c.html" target="_top" xlink:title=" ">
<polygon fill="white" stroke="#666666" points="522.28,-19.25 423.78,-19.25 423.78,0 522.28,0 522.28,-19.25"/>
<text xml:space="preserve" text-anchor="middle" x="473.03" y="-5.75" font-family="Helvetica,sans-Serif" font-size="10.00">src/library_scene.c</text>
</a>
</g>
</g>
<!-- Node2&#45;&gt;Node11 -->
<g id="edge25_Node000002_Node000011" class="edge">
<title>Node2&#45;&gt;Node11</title>
<g id="a_edge25_Node000002_Node000011"><a xlink:title=" ">
<path fill="none" stroke="#63b8ff" d="M548.42,-240.57C502.5,-232.79 431.04,-217.58 415.03,-196.25 371.85,-138.74 440.67,-48.43 465.01,-19.71"/>
<polygon fill="#63b8ff" stroke="#63b8ff" points="547.57,-243.98 558,-242.14 548.7,-237.07 547.57,-243.98"/>
</a>
</g>
</g>
<!-- Node12 -->
<g id="Node000012" class="node">
<title>Node12</title>
<g id="a_Node000012"><a xlink:href="script_8c.html" target="_top" xlink:title=" ">
<polygon fill="white" stroke="#666666" points="519.4,-74.5 454.65,-74.5 454.65,-55.25 519.4,-55.25 519.4,-74.5"/>
<text xml:space="preserve" text-anchor="middle" x="487.03" y="-61" font-family="Helvetica,sans-Serif" font-size="10.00">src/script.c</text>
</a>
</g>
</g>
<!-- Node2&#45;&gt;Node12 -->
<g id="edge29_Node000002_Node000012" class="edge">
<title>Node2&#45;&gt;Node12</title>
<g id="a_edge29_Node000002_Node000012"><a xlink:title=" ">
<path fill="none" stroke="#63b8ff" d="M587.08,-226.19C585.42,-208.89 580.96,-183.99 569.03,-165.75 554.43,-143.43 538.37,-150 521.03,-129.75 506.32,-112.58 495.48,-87.97 490.35,-74.88"/>
<polygon fill="#63b8ff" stroke="#63b8ff" points="583.57,-226.24 587.76,-235.97 590.56,-225.75 583.57,-226.24"/>
</a>
</g>
</g>
<!-- Node14 -->
<g id="Node000014" class="node">
<title>Node14</title>
<g id="a_Node000014"><a xlink:href="settings__scene_8c.html" target="_top" xlink:title=" ">
<polygon fill="white" stroke="#666666" points="1096.4,-19.25 989.65,-19.25 989.65,0 1096.4,0 1096.4,-19.25"/>
<text xml:space="preserve" text-anchor="middle" x="1043.03" y="-5.75" font-family="Helvetica,sans-Serif" font-size="10.00">src/settings_scene.c</text>
</a>
</g>
</g>
<!-- Node2&#45;&gt;Node14 -->
<g id="edge30_Node000002_Node000014" class="edge">
<title>Node2&#45;&gt;Node14</title>
<g id="a_edge30_Node000002_Node000014"><a xlink:title=" ">
<path fill="none" stroke="#63b8ff" d="M627.93,-240.18C669.14,-232.81 734.76,-218.69 788.03,-196.25 883.23,-156.14 906.8,-140.79 986.03,-74.5 1006.54,-57.33 1026.39,-32.73 1036.36,-19.63"/>
<polygon fill="#63b8ff" stroke="#63b8ff" points="627.47,-236.71 618.22,-241.87 628.67,-243.61 627.47,-236.71"/>
</a>
</g>
</g>
<!-- Node15 -->
<g id="Node000015" class="node">
<title>Node15</title>
<g id="a_Node000015"><a xlink:href="image__conversion__scene_8c.html" target="_top" xlink:title=" ">
<polygon fill="white" stroke="#666666" points="211.65,-196.25 100.4,-196.25 100.4,-165.75 211.65,-165.75 211.65,-196.25"/>
<text xml:space="preserve" text-anchor="start" x="108.4" y="-182.75" font-family="Helvetica,sans-Serif" font-size="10.00">src/image_conversion</text>
<text xml:space="preserve" text-anchor="middle" x="156.03" y="-171.5" font-family="Helvetica,sans-Serif" font-size="10.00">_scene.c</text>
</a>
</g>
</g>
<!-- Node2&#45;&gt;Node15 -->
<g id="edge24_Node000002_Node000015" class="edge">
<title>Node2&#45;&gt;Node15</title>
<g id="a_edge24_Node000002_Node000015"><a xlink:title=" ">
<path fill="none" stroke="#63b8ff" d="M547.99,-242.08C480.35,-234.37 339.29,-217.28 221.03,-196.25 218.07,-195.72 215.04,-195.16 211.99,-194.57"/>
<polygon fill="#63b8ff" stroke="#63b8ff" points="547.52,-245.55 557.85,-243.19 548.31,-238.59 547.52,-245.55"/>
</a>
</g>
</g>
<!-- Node16 -->
<g id="Node000016" class="node">
<title>Node16</title>
<g id="a_Node000016"><a xlink:href="listview_8c.html" target="_top" xlink:title=" ">
<polygon fill="white" stroke="#666666" points="560.15,-190.62 487.9,-190.62 487.9,-171.38 560.15,-171.38 560.15,-190.62"/>
<text xml:space="preserve" text-anchor="middle" x="524.03" y="-177.12" font-family="Helvetica,sans-Serif" font-size="10.00">src/listview.c</text>
</a>
</g>
</g>
<!-- Node2&#45;&gt;Node16 -->
<g id="edge26_Node000002_Node000016" class="edge">
<title>Node2&#45;&gt;Node16</title>
<g id="a_edge26_Node000002_Node000016"><a xlink:title=" ">
<path fill="none" stroke="#63b8ff" d="M571.36,-229.7C559.04,-217.29 542.75,-200.87 532.85,-190.89"/>
<polygon fill="#63b8ff" stroke="#63b8ff" points="568.53,-231.82 578.06,-236.46 573.5,-226.89 568.53,-231.82"/>
</a>
</g>
</g>
<!-- Node2&#45;&gt;Node17 -->
<g id="edge27_Node000002_Node000017" class="edge">
<title>Node2&#45;&gt;Node17</title>
<g id="a_edge27_Node000002_Node000017"><a xlink:title=" ">
<path fill="none" stroke="#63b8ff" d="M627.84,-241.08C719.23,-228.65 942.72,-198.23 1028.1,-186.62"/>
<polygon fill="#63b8ff" stroke="#63b8ff" points="627.55,-237.59 618.11,-242.41 628.49,-244.53 627.55,-237.59"/>
</a>
</g>
</g>
<!-- Node2&#45;&gt;Node18 -->
<g id="edge28_Node000002_Node000018" class="edge">
<title>Node2&#45;&gt;Node18</title>
<g id="a_edge28_Node000002_Node000018"><a xlink:title=" ">
<path fill="none" stroke="#63b8ff" d="M627.78,-240.21C679.69,-231.71 773.21,-215.4 852.03,-196.25 858.28,-194.73 864.92,-192.9 871.22,-191.06"/>
<polygon fill="#63b8ff" stroke="#63b8ff" points="627.55,-236.71 618.24,-241.76 628.67,-243.62 627.55,-236.71"/>
</a>
</g>
</g>
<!-- Node19 -->
<g id="Node000019" class="node">
<title>Node19</title>
<g id="a_Node000019"><a xlink:href="utility_8c.html" target="_top" xlink:title=" ">
<polygon fill="white" stroke="#666666" points="292.28,-190.62 229.78,-190.62 229.78,-171.38 292.28,-171.38 292.28,-190.62"/>
<text xml:space="preserve" text-anchor="middle" x="261.03" y="-177.12" font-family="Helvetica,sans-Serif" font-size="10.00">src/utility.c</text>
</a>
</g>
</g>
<!-- Node2&#45;&gt;Node19 -->
<g id="edge31_Node000002_Node000019" class="edge">
<title>Node2&#45;&gt;Node19</title>
<g id="a_edge31_Node000002_Node000019"><a xlink:title=" ">
<path fill="none" stroke="#63b8ff" d="M548.03,-241.05C493.06,-233.18 391.27,-217.25 306.03,-196.25 299.98,-194.76 293.56,-192.9 287.51,-191.02"/>
<polygon fill="#63b8ff" stroke="#63b8ff" points="547.46,-244.51 557.85,-242.44 548.44,-237.57 547.46,-244.51"/>
</a>
</g>
</g>
<!-- Node5&#45;&gt;Node4 -->
<g id="edge5_Node000005_Node000004" class="edge">
<title>Node5&#45;&gt;Node4</title>
<g id="a_edge5_Node000005_Node000004"><a xlink:title=" ">
<path fill="none" stroke="#63b8ff" d="M675.2,-159.62C675.42,-134.5 675.79,-92.92 675.95,-74.79"/>
<polygon fill="#63b8ff" stroke="#63b8ff" points="671.71,-159.5 675.12,-169.53 678.71,-159.56 671.71,-159.5"/>
</a>
</g>
</g>
<!-- Node5&#45;&gt;Node6 -->
<g id="edge6_Node000005_Node000006" class="edge">
<title>Node5&#45;&gt;Node6</title>
<g id="a_edge6_Node000005_Node000006"><a xlink:title=" ">
<path fill="none" stroke="#63b8ff" d="M692.02,-162.87C727.39,-127.21 807.82,-46.12 834.35,-19.37"/>
<polygon fill="#63b8ff" stroke="#63b8ff" points="689.68,-160.25 685.12,-169.82 694.65,-165.18 689.68,-160.25"/>
</a>
</g>
</g>
<!-- Node5&#45;&gt;Node7 -->
<g id="edge7_Node000005_Node000007" class="edge">
<title>Node5&#45;&gt;Node7</title>
<g id="a_edge7_Node000005_Node000007"><a xlink:title=" ">
<path fill="none" stroke="#63b8ff" d="M655.5,-163.81C642.42,-152.96 625.69,-139.09 614.91,-130.15"/>
<polygon fill="#63b8ff" stroke="#63b8ff" points="653.15,-166.4 663.08,-170.09 657.61,-161.01 653.15,-166.4"/>
</a>
</g>
</g>
<!-- Node5&#45;&gt;Node12 -->
<g id="edge20_Node000005_Node000012" class="edge">
<title>Node5&#45;&gt;Node12</title>
<g id="a_edge20_Node000005_Node000012"><a xlink:title=" ">
<path fill="none" stroke="#63b8ff" d="M629.24,-167.48C603.7,-159.2 572.08,-146.72 547.03,-129.75 524.1,-114.22 503.45,-88.49 493.42,-74.91"/>
<polygon fill="#63b8ff" stroke="#63b8ff" points="628.11,-170.8 638.7,-170.43 630.2,-164.11 628.11,-170.8"/>
</a>
</g>
</g>
<!-- Node7&#45;&gt;Node4 -->
<g id="edge8_Node000007_Node000004" class="edge">
<title>Node7&#45;&gt;Node4</title>
<g id="a_edge8_Node000007_Node000004"><a xlink:title=" ">
<path fill="none" stroke="#63b8ff" d="M625.2,-103.47C637.84,-94.12 653.44,-82.58 663.99,-74.77"/>
<polygon fill="#63b8ff" stroke="#63b8ff" points="623.42,-100.43 617.46,-109.19 627.58,-106.06 623.42,-100.43"/>
</a>
</g>
</g>
<!-- Node7&#45;&gt;Node6 -->
<g id="edge13_Node000007_Node000006" class="edge">
<title>Node7&#45;&gt;Node6</title>
<g id="a_edge13_Node000007_Node000006"><a xlink:title=" ">
<path fill="none" stroke="#63b8ff" d="M597.96,-99.25C595.05,-85.37 594.05,-67.26 604.03,-55.25 627.76,-26.68 731.82,-16.3 794.55,-12.6"/>
<polygon fill="#63b8ff" stroke="#63b8ff" points="594.5,-99.83 600.41,-108.63 601.27,-98.07 594.5,-99.83"/>
</a>
</g>
</g>
<!-- Node7&#45;&gt;Node8 -->
<g id="edge9_Node000007_Node000008" class="edge">
<title>Node7&#45;&gt;Node8</title>
<g id="a_edge9_Node000007_Node000008"><a xlink:title=" ">
<path fill="none" stroke="#63b8ff" d="M547.99,-107.82C493.03,-96.74 411.44,-80.28 368.63,-71.64"/>
<polygon fill="#63b8ff" stroke="#63b8ff" points="546.96,-111.19 557.46,-109.73 548.35,-104.32 546.96,-111.19"/>
</a>
</g>
</g>
<!-- Node7&#45;&gt;Node9 -->
<g id="edge10_Node000007_Node000009" class="edge">
<title>Node7&#45;&gt;Node9</title>
<g id="a_edge10_Node000007_Node000009"><a xlink:title=" ">
<path fill="none" stroke="#63b8ff" d="M544.38,-111.16C466.04,-100.71 329.83,-82.53 256.04,-72.68"/>
<polygon fill="#63b8ff" stroke="#63b8ff" points="543.62,-114.59 554,-112.45 544.55,-107.66 543.62,-114.59"/>
</a>
</g>
</g>
<!-- Node7&#45;&gt;Node11 -->
<g id="edge14_Node000007_Node000011" class="edge">
<title>Node7&#45;&gt;Node11</title>
<g id="a_edge14_Node000007_Node000011"><a xlink:title=" ">
<path fill="none" stroke="#63b8ff" d="M585.18,-103.13C569.84,-90.15 547.62,-71.43 528.03,-55.25 512.86,-42.72 495.16,-28.42 484.03,-19.46"/>
<polygon fill="#63b8ff" stroke="#63b8ff" points="582.7,-105.62 592.59,-109.41 587.23,-100.28 582.7,-105.62"/>
</a>
</g>
</g>
<!-- Node7&#45;&gt;Node12 -->
<g id="edge15_Node000007_Node000012" class="edge">
<title>Node7&#45;&gt;Node12</title>
<g id="a_edge15_Node000007_Node000012"><a xlink:title=" ">
<path fill="none" stroke="#63b8ff" d="M573.85,-105.39C552.81,-95.81 525.32,-83.31 506.97,-74.95"/>
<polygon fill="#63b8ff" stroke="#63b8ff" points="572.25,-108.51 582.8,-109.46 575.15,-102.14 572.25,-108.51"/>
</a>
</g>
</g>
<!-- Node7&#45;&gt;Node13 -->
<g id="edge16_Node000007_Node000013" class="edge">
<title>Node7&#45;&gt;Node13</title>
<g id="a_edge16_Node000007_Node000013"><a xlink:title=" ">
<path fill="none" stroke="#63b8ff" d="M663.7,-109.19C723.05,-99.32 813.29,-84.3 870.42,-74.8"/>
<polygon fill="#63b8ff" stroke="#63b8ff" points="663.41,-105.69 654.12,-110.79 664.56,-112.6 663.41,-105.69"/>
</a>
</g>
</g>
<!-- Node9&#45;&gt;Node10 -->
<g id="edge11_Node000009_Node000010" class="edge">
<title>Node9&#45;&gt;Node10</title>
<g id="a_edge11_Node000009_Node000010"><a xlink:title=" ">
<path fill="none" stroke="#63b8ff" d="M191.89,-45.94C185.41,-37.09 177.87,-26.79 172.61,-19.61"/>
<polygon fill="#63b8ff" stroke="#63b8ff" points="188.96,-47.86 197.69,-53.86 194.61,-43.73 188.96,-47.86"/>
</a>
</g>
</g>
<!-- Node9&#45;&gt;Node11 -->
<g id="edge12_Node000009_Node000011" class="edge">
<title>Node9&#45;&gt;Node11</title>
<g id="a_edge12_Node000009_Node000011"><a xlink:title=" ">
<path fill="none" stroke="#63b8ff" d="M261.92,-52.57C311.26,-42.77 381.75,-28.76 427.45,-19.68"/>
<polygon fill="#63b8ff" stroke="#63b8ff" points="261.4,-49.1 252.28,-54.49 262.77,-55.97 261.4,-49.1"/>
</a>
</g>
</g>
<!-- Node13&#45;&gt;Node6 -->
<g id="edge17_Node000013_Node000006" class="edge">
<title>Node13&#45;&gt;Node6</title>
<g id="a_edge17_Node000013_Node000006"><a xlink:title=" ">
<path fill="none" stroke="#63b8ff" d="M900.69,-48.53C886.49,-39.2 868.84,-27.6 856.83,-19.7"/>
<polygon fill="#63b8ff" stroke="#63b8ff" points="898.74,-51.44 909.02,-54.01 902.59,-45.59 898.74,-51.44"/>
</a>
</g>
</g>
<!-- Node13&#45;&gt;Node11 -->
<g id="edge18_Node000013_Node000011" class="edge">
<title>Node13&#45;&gt;Node11</title>
<g id="a_edge18_Node000013_Node000011"><a xlink:title=" ">
<path fill="none" stroke="#63b8ff" d="M859.26,-56.23C768.29,-45.49 604.65,-26.17 522.67,-16.49"/>
<polygon fill="#63b8ff" stroke="#63b8ff" points="858.68,-59.68 869.02,-57.38 859.5,-52.73 858.68,-59.68"/>
</a>
</g>
</g>
<!-- Node13&#45;&gt;Node14 -->
<g id="edge19_Node000013_Node000014" class="edge">
<title>Node13&#45;&gt;Node14</title>
<g id="a_edge19_Node000013_Node000014"><a xlink:title=" ">
<path fill="none" stroke="#63b8ff" d="M954.43,-50.27C975.87,-40.68 1003.99,-28.09 1022.74,-19.7"/>
<polygon fill="#63b8ff" stroke="#63b8ff" points="953.29,-46.94 945.59,-54.22 956.15,-53.33 953.29,-46.94"/>
</a>
</g>
</g>
<!-- Node20&#45;&gt;Node8 -->
<g id="edge35_Node000020_Node000008" class="edge">
<title>Node20&#45;&gt;Node8</title>
<g id="a_edge35_Node000020_Node000008"><a xlink:title=" ">
<path fill="none" stroke="#63b8ff" d="M81.18,-220.88C77.01,-204.47 74.42,-183.09 82.03,-165.75 96.59,-132.55 109.92,-127.33 142.03,-110.5 171.28,-95.16 263.9,-78.35 311.37,-70.46"/>
<polygon fill="#63b8ff" stroke="#63b8ff" points="77.78,-221.75 83.95,-230.37 84.5,-219.79 77.78,-221.75"/>
</a>
</g>
</g>
<!-- Node20&#45;&gt;Node15 -->
<g id="edge36_Node000020_Node000015" class="edge">
<title>Node20&#45;&gt;Node15</title>
<g id="a_edge36_Node000020_Node000015"><a xlink:title=" ">
<path fill="none" stroke="#63b8ff" d="M113.11,-223.94C122.4,-214.86 132.85,-204.65 141.11,-196.58"/>
<polygon fill="#63b8ff" stroke="#63b8ff" points="110.79,-221.31 106.09,-230.81 115.68,-226.32 110.79,-221.31"/>
</a>
</g>
</g>
<!-- Node21&#45;&gt;Node8 -->
<g id="edge38_Node000021_Node000008" class="edge">
<title>Node21&#45;&gt;Node8</title>
<g id="a_edge38_Node000021_Node000008"><a xlink:title=" ">
<path fill="none" stroke="#63b8ff" d="M161.88,-234.28C119.24,-221.49 68.77,-198.65 91.03,-165.75 116.86,-127.55 251.69,-88.7 311.45,-73.05"/>
<polygon fill="#63b8ff" stroke="#63b8ff" points="160.75,-237.6 171.33,-236.98 162.67,-230.87 160.75,-237.6"/>
</a>
</g>
</g>
<!-- Node21&#45;&gt;Node11 -->
<g id="edge40_Node000021_Node000011" class="edge">
<title>Node21&#45;&gt;Node11</title>
<g id="a_edge40_Node000021_Node000011"><a xlink:title=" ">
<path fill="none" stroke="#63b8ff" d="M165.28,-234.31C132.03,-224.75 91.94,-210.68 82.03,-196.25 74.35,-185.08 76.58,-178.16 82.03,-165.75 96.59,-132.55 110.47,-128.34 142.03,-110.5 191.61,-82.47 212.06,-95.46 265.03,-74.5 282.63,-67.53 285.33,-61.97 303.03,-55.25 344.25,-39.6 393.1,-27.4 427.83,-19.74"/>
<polygon fill="#63b8ff" stroke="#63b8ff" points="164.2,-237.65 174.78,-236.97 166.09,-230.9 164.2,-237.65"/>
</a>
</g>
</g>
<!-- Node21&#45;&gt;Node15 -->
<g id="edge39_Node000021_Node000015" class="edge">
<title>Node21&#45;&gt;Node15</title>
<g id="a_edge39_Node000021_Node000015"><a xlink:title=" ">
<path fill="none" stroke="#63b8ff" d="M197.56,-229C188.51,-218.76 177.22,-205.99 168.7,-196.34"/>
<polygon fill="#63b8ff" stroke="#63b8ff" points="194.85,-231.22 204.1,-236.4 200.1,-226.59 194.85,-231.22"/>
</a>
</g>
</g>
<!-- Node21&#45;&gt;Node19 -->
<g id="edge41_Node000021_Node000019" class="edge">
<title>Node21&#45;&gt;Node19</title>
<g id="a_edge41_Node000021_Node000019"><a xlink:title=" ">
<path fill="none" stroke="#63b8ff" d="M226.33,-228.62C235.47,-216.35 247.2,-200.58 254.41,-190.89"/>
<polygon fill="#63b8ff" stroke="#63b8ff" points="223.77,-226.21 220.6,-236.32 229.38,-230.38 223.77,-226.21"/>
</a>
</g>
</g>
<!-- Node22&#45;&gt;Node6 -->
<g id="edge44_Node000022_Node000006" class="edge">
<title>Node22&#45;&gt;Node6</title>
<g id="a_edge44_Node000022_Node000006"><a xlink:title=" ">
<path fill="none" stroke="#63b8ff" d="M1133.83,-227.14C1141,-210.12 1147.89,-185.12 1138.03,-165.75 1090.43,-72.29 962.35,-33.41 891.62,-18.68"/>
<polygon fill="#63b8ff" stroke="#63b8ff" points="1130.71,-225.56 1129.67,-236.11 1137.06,-228.51 1130.71,-225.56"/>
</a>
</g>
</g>
<!-- Node22&#45;&gt;Node11 -->
<g id="edge45_Node000022_Node000011" class="edge">
<title>Node22&#45;&gt;Node11</title>
<g id="a_edge45_Node000022_Node000011"><a xlink:title=" ">
<path fill="none" stroke="#63b8ff" d="M1124.59,-226.14C1123.98,-208.04 1120.2,-182.01 1105.03,-165.75 1048.37,-105.03 828.88,-74.22 748.03,-55.25 670.1,-36.96 577.99,-23.67 522.61,-16.56"/>
<polygon fill="#63b8ff" stroke="#63b8ff" points="1121.09,-225.91 1124.6,-235.9 1128.09,-225.9 1121.09,-225.91"/>
</a>
</g>
</g>
<!-- Node22&#45;&gt;Node14 -->
<g id="edge47_Node000022_Node000014" class="edge">
<title>Node22&#45;&gt;Node14</title>
<g id="a_edge47_Node000022_Node000014"><a xlink:title=" ">
<path fill="none" stroke="#63b8ff" d="M1147.72,-230.57C1158.52,-221.85 1170.19,-210.02 1176.03,-196.25 1181.32,-183.77 1180.73,-178.46 1176.03,-165.75 1151.16,-98.54 1082.73,-40.81 1054.96,-19.45"/>
<polygon fill="#63b8ff" stroke="#63b8ff" points="1145.73,-227.69 1139.83,-236.49 1149.93,-233.29 1145.73,-227.69"/>
</a>
</g>
</g>
<!-- Node22&#45;&gt;Node17 -->
<g id="edge46_Node000022_Node000017" class="edge">
<title>Node22&#45;&gt;Node17</title>
<g id="a_edge46_Node000022_Node000017"><a xlink:title=" ">
<path fill="none" stroke="#63b8ff" d="M1107.54,-229.34C1095.64,-216.97 1080.07,-200.78 1070.57,-190.89"/>
<polygon fill="#63b8ff" stroke="#63b8ff" points="1104.9,-231.66 1114.36,-236.44 1109.95,-226.81 1104.9,-231.66"/>
</a>
</g>
</g>
</g>
</svg>

<g id="navigator" transform="translate(0 0)" fill="#404254">
  <rect fill="#f2f5e9" fill-opacity="0.5" stroke="#606060" stroke-width=".5" x="0" y="0" width="60" height="60"/>
  <use id="zoomplus" xlink:href="#zoomPlus" x="17" y="9" onmousedown="handleZoom(evt,'in')"/>
  <use id="zoomminus" xlink:href="#zoomMin" x="42" y="9" onmousedown="handleZoom(evt,'out')"/>
  <use id="reset" xlink:href="#resetDef" x="30" y="36" onmousedown="handleReset()"/>
   <use id="arrowup" xlink:href="#arrowUp" x="0" y="0" onmousedown="handlePan(0,-1)"/>
  <use id="arrowright" xlink:href="#arrowRight" x="0" y="0" onmousedown="handlePan(1,0)"/>
  <use id="arrowdown" xlink:href="#arrowDown" x="0" y="0" onmousedown="handlePan(0,1)"/>
  <use id="arrowleft" xlink:href="#arrowLeft" x="0" y="0" onmousedown="handlePan(-1,0)"/>
</g>
<svg viewBox="0 0 15 15" width="100%" height="30px" preserveAspectRatio="xMaxYMin meet">
 <g id="arrow_out" transform="scale(0.3 0.3)">
  <a xlink:href="scene_8h__dep__incl_org.svg" target="_base">
   <rect id="button" ry="5" rx="5" y="6" x="6" height="38" width="38"
        fill="#f2f5e9" fill-opacity="0.5" stroke="#606060" stroke-width="1.0"/>
   <path id="arrow"
     d="M 11.500037,31.436501 C 11.940474,20.09759 22.043105,11.32322 32.158766,21.979434 L 37.068811,17.246167 C 37.068811,17.246167 37.088388,32 37.088388,32 L 22.160133,31.978069 C 22.160133,31.978069 26.997745,27.140456 26.997745,27.140456 C 18.528582,18.264221 13.291696,25.230495 11.500037,31.436501 z"
     style="fill:#404040;"/>
  </a>
 </g>
</svg>

<style type='text/css'>
<![CDATA[
[data-mouse-over-selected='false'] { opacity: 0.7; }
[data-mouse-over-selected='true']  { opacity: 1.0; }
]]>
</style>
<script type="application/ecmascript"><![CDATA[
document.addEventListener('DOMContentLoaded', (event) => {
  highlightEdges();
  highlightAdjacentNodes();
});
]]></script>
</svg>
