<?xml version="1.0" encoding="UTF-8" standalone="no"?>
<!DOCTYPE svg PUBLIC "-//W3C//DTD SVG 1.1//EN"
 "http://www.w3.org/Graphics/SVG/1.1/DTD/svg11.dtd">
<!-- Generated by graphviz version 13.1.0 (20250701.0955)
 -->
<!-- Title: src/script.c Pages: 1 -->
<!--zoomable 425 -->

<svg id="main" version="1.1" xmlns="http://www.w3.org/2000/svg" xmlns:xlink="http://www.w3.org/1999/xlink" xml:space="preserve" onload="init(evt)">

<style type="text/css"><![CDATA[
.node, .edge {opacity: 0.7;}
.node.selected, .edge.selected {opacity: 1;}
.edge:hover path { stroke: red; }
.edge:hover polygon { stroke: red; fill: red; }
]]></style>

<defs>
  <circle id="rim" cx="0" cy="0" r="7"/>
  <circle id="rim2" cx="0" cy="0" r="3.5"/>
  <g id="zoomPlus">
    <use xlink:href="#rim" fill="#404040"><set attributeName="fill" to="#808080" begin="zoomplus.mouseover" end="zoomplus.mouseout"/></use>
    <path d="M-4,0h8M0,-4v8" fill="none" stroke="white" stroke-width="1.5" pointer-events="none"/>
  </g>
  <g id="zoomMin">
    <use xlink:href="#rim" fill="#404040"><set attributeName="fill" to="#808080" begin="zoomminus.mouseover" end="zoomminus.mouseout"/></use>
    <path d="M-4,0h8" fill="none" stroke="white" stroke-width="1.5" pointer-events="none"/>
  </g>
  <g id="arrowUp" transform="translate(30 24)">
    <use xlink:href="#rim"/>
    <path pointer-events="none" fill="none" stroke="white" stroke-width="1.5" d="M0,-3.0v7 M-2.5,-0.5L0,-3.0L2.5,-0.5"/>
  </g>
  <g id="arrowRight" transform="rotate(90) translate(36 -43)">
    <use xlink:href="#rim"/>
    <path pointer-events="none" fill="none" stroke="white" stroke-width="1.5" d="M0,-3.0v7 M-2.5,-0.5L0,-3.0L2.5,-0.5"/>
  </g>
  <g id="arrowDown" transform="rotate(180) translate(-30 -48)">
    <use xlink:href="#rim"/>
    <path pointer-events="none" fill="none" stroke="white" stroke-width="1.5" d="M0,-3.0v7 M-2.5,-0.5L0,-3.0L2.5,-0.5"/>
  </g>
  <g id="arrowLeft" transform="rotate(270) translate(-36 17)">
    <use xlink:href="#rim"/>
    <path pointer-events="none" fill="none" stroke="white" stroke-width="1.5" d="M0,-3.0v7 M-2.5,-0.5L0,-3.0L2.5,-0.5"/>
  </g>
  <g id="resetDef">
    <use xlink:href="#rim2" fill="#404040"><set attributeName="fill" to="#808080" begin="reset.mouseover" end="reset.mouseout"/></use>
  </g>
</defs>
<script type="application/ecmascript">
var viewWidth = 1388;
var viewHeight = 425;
var sectionId = 'dynsection-0';
</script>
<script type="application/ecmascript" xlink:href="svg.min.js"/>
<svg id="graph" class="graph">
<g id="viewport">
<title>src/script.c</title>
<!-- Node1 -->
<g id="Node000001" class="node">
<title>Node1</title>
<g id="a_Node000001"><a xlink:title=" ">
<polygon fill="#999999" stroke="#666666" points="692.38,-417.25 627.62,-417.25 627.62,-398 692.38,-398 692.38,-417.25"/>
<text xml:space="preserve" text-anchor="middle" x="660" y="-403.75" font-family="Helvetica,sans-Serif" font-size="10.00">src/script.c</text>
</a>
</g>
</g>
<!-- Node2 -->
<g id="Node000002" class="node">
<title>Node2</title>
<g id="a_Node000002"><a xlink:href="minigb__apu_8h.html" target="_top" xlink:title=" ">
<polygon fill="white" stroke="#666666" points="574,-251.5 468,-251.5 468,-221 574,-221 574,-251.5"/>
<text xml:space="preserve" text-anchor="start" x="476" y="-238" font-family="Helvetica,sans-Serif" font-size="10.00">../minigb_apu/minigb</text>
<text xml:space="preserve" text-anchor="middle" x="521" y="-226.75" font-family="Helvetica,sans-Serif" font-size="10.00">_apu.h</text>
</a>
</g>
</g>
<!-- Node1&#45;&gt;Node2 -->
<g id="edge1_Node000001_Node000002" class="edge">
<title>Node1&#45;&gt;Node2</title>
<g id="a_edge1_Node000001_Node000002"><a xlink:title=" ">
<path fill="none" stroke="#63b8ff" d="M652.53,-397.52C631.52,-371.93 571.48,-298.76 540.31,-260.78"/>
<polygon fill="#63b8ff" stroke="#63b8ff" points="543.06,-258.61 534.01,-253.1 537.65,-263.05 543.06,-258.61"/>
</a>
</g>
</g>
<!-- Node4 -->
<g id="Node000004" class="node">
<title>Node4</title>
<g id="a_Node000004"><a xlink:title=" ">
<polygon fill="#e0e0e0" stroke="#999999" points="693.38,-74.5 640.62,-74.5 640.62,-55.25 693.38,-55.25 693.38,-74.5"/>
<text xml:space="preserve" text-anchor="middle" x="667" y="-61" font-family="Helvetica,sans-Serif" font-size="10.00">pd_api.h</text>
</a>
</g>
</g>
<!-- Node1&#45;&gt;Node4 -->
<g id="edge3_Node000001_Node000004" class="edge">
<title>Node1&#45;&gt;Node4</title>
<g id="a_edge3_Node000001_Node000004"><a xlink:title=" ">
<path fill="none" stroke="#63b8ff" d="M633.77,-397.61C575.5,-375.78 441.76,-314.91 459,-221 463.74,-195.16 462.64,-185.47 480,-165.75 520.54,-119.69 587.59,-91.26 629.42,-77.04"/>
<polygon fill="#63b8ff" stroke="#63b8ff" points="630.41,-80.4 638.81,-73.95 628.22,-73.75 630.41,-80.4"/>
</a>
</g>
</g>
<!-- Node5 -->
<g id="Node000005" class="node">
<title>Node5</title>
<g id="a_Node000005"><a xlink:href="lauxlib_8h.html" target="_top" xlink:title=" ">
<polygon fill="white" stroke="#666666" points="120,-362 68,-362 68,-342.75 120,-342.75 120,-362"/>
<text xml:space="preserve" text-anchor="middle" x="94" y="-348.5" font-family="Helvetica,sans-Serif" font-size="10.00">lauxlib.h</text>
</a>
</g>
</g>
<!-- Node1&#45;&gt;Node5 -->
<g id="edge4_Node000001_Node000005" class="edge">
<title>Node1&#45;&gt;Node5</title>
<g id="a_edge4_Node000001_Node000005"><a xlink:title=" ">
<path fill="none" stroke="#63b8ff" d="M627.3,-405.51C545.61,-402.39 325.98,-391.84 131.48,-361.75"/>
<polygon fill="#63b8ff" stroke="#63b8ff" points="132.1,-358.3 121.68,-360.21 131.02,-365.22 132.1,-358.3"/>
</a>
</g>
</g>
<!-- Node7 -->
<g id="Node000007" class="node">
<title>Node7</title>
<g id="a_Node000007"><a xlink:title=" ">
<polygon fill="#e0e0e0" stroke="#999999" points="765.62,-19.25 720.38,-19.25 720.38,0 765.62,0 765.62,-19.25"/>
<text xml:space="preserve" text-anchor="middle" x="743" y="-5.75" font-family="Helvetica,sans-Serif" font-size="10.00">stdio.h</text>
</a>
</g>
</g>
<!-- Node1&#45;&gt;Node7 -->
<g id="edge61_Node000001_Node000007" class="edge">
<title>Node1&#45;&gt;Node7</title>
<g id="a_edge61_Node000001_Node000007"><a xlink:title=" ">
<path fill="none" stroke="#63b8ff" d="M627.44,-404.84C531.74,-398.7 258,-374.48 258,-298.12 258,-298.12 258,-298.12 258,-119.12 258,-26.71 597.61,-12.98 708.46,-10.97"/>
<polygon fill="#63b8ff" stroke="#63b8ff" points="708.48,-14.47 718.42,-10.81 708.37,-7.47 708.48,-14.47"/>
</a>
</g>
</g>
<!-- Node10 -->
<g id="Node000010" class="node">
<title>Node10</title>
<g id="a_Node000010"><a xlink:href="lua_8h.html" target="_top" xlink:title=" ">
<polygon fill="white" stroke="#666666" points="175.5,-306.75 138.5,-306.75 138.5,-287.5 175.5,-287.5 175.5,-306.75"/>
<text xml:space="preserve" text-anchor="middle" x="157" y="-293.25" font-family="Helvetica,sans-Serif" font-size="10.00">lua.h</text>
</a>
</g>
</g>
<!-- Node1&#45;&gt;Node10 -->
<g id="edge14_Node000001_Node000010" class="edge">
<title>Node1&#45;&gt;Node10</title>
<g id="a_edge14_Node000001_Node000010"><a xlink:title=" ">
<path fill="none" stroke="#63b8ff" d="M627.2,-405.31C541.72,-401.53 313.92,-389.13 244,-362 216.58,-351.36 190.09,-329.76 173.68,-314.64"/>
<polygon fill="#63b8ff" stroke="#63b8ff" points="176.42,-312.41 166.77,-308.06 171.6,-317.48 176.42,-312.41"/>
</a>
</g>
</g>
<!-- Node12 -->
<g id="Node000012" class="node">
<title>Node12</title>
<g id="a_Node000012"><a xlink:href="lualib_8h.html" target="_top" xlink:title=" ">
<polygon fill="white" stroke="#666666" points="186.38,-362 139.62,-362 139.62,-342.75 186.38,-342.75 186.38,-362"/>
<text xml:space="preserve" text-anchor="middle" x="163" y="-348.5" font-family="Helvetica,sans-Serif" font-size="10.00">lualib.h</text>
</a>
</g>
</g>
<!-- Node1&#45;&gt;Node12 -->
<g id="edge15_Node000001_Node000012" class="edge">
<title>Node1&#45;&gt;Node12</title>
<g id="a_edge15_Node000001_Node000012"><a xlink:title=" ">
<path fill="none" stroke="#63b8ff" d="M627.22,-404.66C552.06,-399.87 361.64,-386.22 204,-362 201.98,-361.69 199.92,-361.35 197.84,-360.98"/>
<polygon fill="#63b8ff" stroke="#63b8ff" points="198.74,-357.58 188.25,-359.12 197.41,-364.46 198.74,-357.58"/>
</a>
</g>
</g>
<!-- Node13 -->
<g id="Node000013" class="node">
<title>Node13</title>
<g id="a_Node000013"><a xlink:href="peanut__gb_8h.html" target="_top" xlink:title=" ">
<polygon fill="white" stroke="#666666" points="954.12,-306.75 827.88,-306.75 827.88,-287.5 954.12,-287.5 954.12,-306.75"/>
<text xml:space="preserve" text-anchor="middle" x="891" y="-293.25" font-family="Helvetica,sans-Serif" font-size="10.00">../peanut_gb/peanut_gb.h</text>
</a>
</g>
</g>
<!-- Node1&#45;&gt;Node13 -->
<g id="edge17_Node000001_Node000013" class="edge">
<title>Node1&#45;&gt;Node13</title>
<g id="a_edge17_Node000001_Node000013"><a xlink:title=" ">
<path fill="none" stroke="#63b8ff" d="M680.78,-397.6C701.07,-388.73 732.78,-374.7 760,-362 795.67,-345.35 836.36,-325.35 862.8,-312.22"/>
<polygon fill="#63b8ff" stroke="#63b8ff" points="864.12,-315.47 871.51,-307.88 861,-309.2 864.12,-315.47"/>
</a>
</g>
</g>
<!-- Node14 -->
<g id="Node000014" class="node">
<title>Node14</title>
<g id="a_Node000014"><a xlink:href="app_8h.html" target="_top" xlink:title=" ">
<polygon fill="white" stroke="#666666" points="733.75,-245.88 668.25,-245.88 668.25,-226.62 733.75,-226.62 733.75,-245.88"/>
<text xml:space="preserve" text-anchor="middle" x="701" y="-232.38" font-family="Helvetica,sans-Serif" font-size="10.00">../src/app.h</text>
</a>
</g>
</g>
<!-- Node1&#45;&gt;Node14 -->
<g id="edge46_Node000001_Node000014" class="edge">
<title>Node1&#45;&gt;Node14</title>
<g id="a_edge46_Node000001_Node000014"><a xlink:title=" ">
<path fill="none" stroke="#63b8ff" d="M659.39,-397.85C658.73,-385.44 658.22,-362.13 662,-342.75 668.09,-311.52 682.23,-277.31 691.7,-256.56"/>
<polygon fill="#63b8ff" stroke="#63b8ff" points="694.8,-258.18 695.88,-247.64 688.47,-255.21 694.8,-258.18"/>
</a>
</g>
</g>
<!-- Node18 -->
<g id="Node000018" class="node">
<title>Node18</title>
<g id="a_Node000018"><a xlink:title=" ">
<polygon fill="#e0e0e0" stroke="#999999" points="988.88,-19.25 933.12,-19.25 933.12,0 988.88,0 988.88,-19.25"/>
<text xml:space="preserve" text-anchor="middle" x="961" y="-5.75" font-family="Helvetica,sans-Serif" font-size="10.00">stdbool.h</text>
</a>
</g>
</g>
<!-- Node1&#45;&gt;Node18 -->
<g id="edge60_Node000001_Node000018" class="edge">
<title>Node1&#45;&gt;Node18</title>
<g id="a_edge60_Node000001_Node000018"><a xlink:title=" ">
<path fill="none" stroke="#63b8ff" d="M692.81,-406.7C771.23,-406.2 975.27,-400.93 1140,-362 1216.13,-344.01 1304,-376.35 1304,-298.12 1304,-298.12 1304,-298.12 1304,-119.12 1304,-56.14 1091.09,-25.05 1000.76,-14.7"/>
<polygon fill="#63b8ff" stroke="#63b8ff" points="1001.19,-11.22 990.87,-13.6 1000.42,-18.18 1001.19,-11.22"/>
</a>
</g>
</g>
<!-- Node21 -->
<g id="Node000021" class="node">
<title>Node21</title>
<g id="a_Node000021"><a xlink:href="prefs_8x.html" target="_top" xlink:title=" ">
<polygon fill="white" stroke="#666666" points="1185,-185 1139,-185 1139,-165.75 1185,-165.75 1185,-185"/>
<text xml:space="preserve" text-anchor="middle" x="1162" y="-171.5" font-family="Helvetica,sans-Serif" font-size="10.00">prefs.x</text>
</a>
</g>
</g>
<!-- Node1&#45;&gt;Node21 -->
<g id="edge64_Node000001_Node000021" class="edge">
<title>Node1&#45;&gt;Node21</title>
<g id="a_edge64_Node000001_Node000021"><a xlink:title=" ">
<path fill="none" stroke="#63b8ff" d="M692.61,-402.69C801.23,-388.84 1147.31,-338.43 1209,-251.5 1216.85,-240.45 1214.35,-233.46 1209,-221 1204.07,-209.52 1194.58,-199.61 1185.41,-192.06"/>
<polygon fill="#63b8ff" stroke="#63b8ff" points="1187.82,-189.49 1177.73,-186.24 1183.59,-195.07 1187.82,-189.49"/>
</a>
</g>
</g>
<!-- Node23 -->
<g id="Node000023" class="node">
<title>Node23</title>
<g id="a_Node000023"><a xlink:title=" ">
<polygon fill="#e0e0e0" stroke="#999999" points="1133.75,-245.88 1086.25,-245.88 1086.25,-226.62 1133.75,-226.62 1133.75,-245.88"/>
<text xml:space="preserve" text-anchor="middle" x="1110" y="-232.38" font-family="Helvetica,sans-Serif" font-size="10.00">stdlib.h</text>
</a>
</g>
</g>
<!-- Node1&#45;&gt;Node23 -->
<g id="edge62_Node000001_Node000023" class="edge">
<title>Node1&#45;&gt;Node23</title>
<g id="a_edge62_Node000001_Node000023"><a xlink:title=" ">
<path fill="none" stroke="#63b8ff" d="M691.87,-397.53C747.59,-381.32 866.04,-345.48 963,-306.75 1005.54,-289.76 1053.21,-266.38 1082.42,-251.54"/>
<polygon fill="#63b8ff" stroke="#63b8ff" points="1084,-254.67 1091.31,-247 1080.82,-248.43 1084,-254.67"/>
</a>
</g>
</g>
<!-- Node24 -->
<g id="Node000024" class="node">
<title>Node24</title>
<g id="a_Node000024"><a xlink:title=" ">
<polygon fill="#e0e0e0" stroke="#999999" points="1200.12,-245.88 1151.88,-245.88 1151.88,-226.62 1200.12,-226.62 1200.12,-245.88"/>
<text xml:space="preserve" text-anchor="middle" x="1176" y="-232.38" font-family="Helvetica,sans-Serif" font-size="10.00">string.h</text>
</a>
</g>
</g>
<!-- Node1&#45;&gt;Node24 -->
<g id="edge63_Node000001_Node000024" class="edge">
<title>Node1&#45;&gt;Node24</title>
<g id="a_edge63_Node000001_Node000024"><a xlink:title=" ">
<path fill="none" stroke="#63b8ff" d="M692.78,-400.3C731.09,-392.59 796.24,-378.55 851,-362 918.21,-341.69 933.33,-331.6 999,-306.75 1063.11,-282.48 1079.52,-277.37 1143,-251.5 1143.63,-251.24 1144.27,-250.98 1144.91,-250.72"/>
<polygon fill="#63b8ff" stroke="#63b8ff" points="1146.21,-253.97 1154.06,-246.86 1143.49,-247.52 1146.21,-253.97"/>
</a>
</g>
</g>
<!-- Node26 -->
<g id="Node000026" class="node">
<title>Node26</title>
<g id="a_Node000026"><a xlink:href="dtcm_8h.html" target="_top" xlink:title=" ">
<polygon fill="white" stroke="#666666" points="1010,-74.5 964,-74.5 964,-55.25 1010,-55.25 1010,-74.5"/>
<text xml:space="preserve" text-anchor="middle" x="987" y="-61" font-family="Helvetica,sans-Serif" font-size="10.00">dtcm.h</text>
</a>
</g>
</g>
<!-- Node1&#45;&gt;Node26 -->
<g id="edge47_Node000001_Node000026" class="edge">
<title>Node1&#45;&gt;Node26</title>
<g id="a_edge47_Node000001_Node000026"><a xlink:title=" ">
<path fill="none" stroke="#63b8ff" d="M692.58,-404.28C818.45,-394.79 1266,-356.91 1266,-298.12 1266,-298.12 1266,-298.12 1266,-174.38 1266,-122.45 1096.03,-85.48 1021.42,-71.76"/>
<polygon fill="#63b8ff" stroke="#63b8ff" points="1022.26,-68.35 1011.8,-70.02 1021.02,-75.24 1022.26,-68.35"/>
</a>
</g>
</g>
<!-- Node27 -->
<g id="Node000027" class="node">
<title>Node27</title>
<g id="a_Node000027"><a xlink:href="game__scene_8h.html" target="_top" xlink:title=" ">
<polygon fill="white" stroke="#666666" points="750.88,-362 671.12,-362 671.12,-342.75 750.88,-342.75 750.88,-362"/>
<text xml:space="preserve" text-anchor="middle" x="711" y="-348.5" font-family="Helvetica,sans-Serif" font-size="10.00">game_scene.h</text>
</a>
</g>
</g>
<!-- Node1&#45;&gt;Node27 -->
<g id="edge50_Node000001_Node000027" class="edge">
<title>Node1&#45;&gt;Node27</title>
<g id="a_edge50_Node000001_Node000027"><a xlink:title=" ">
<path fill="none" stroke="#63b8ff" d="M668.42,-397.83C675.54,-390.4 685.94,-379.54 694.69,-370.41"/>
<polygon fill="#63b8ff" stroke="#63b8ff" points="696.96,-373.1 701.35,-363.45 691.9,-368.25 696.96,-373.1"/>
</a>
</g>
</g>
<!-- Node28 -->
<g id="Node000028" class="node">
<title>Node28</title>
<g id="a_Node000028"><a xlink:href="jparse_8h.html" target="_top" xlink:title=" ">
<polygon fill="white" stroke="#666666" points="412.25,-245.88 361.75,-245.88 361.75,-226.62 412.25,-226.62 412.25,-245.88"/>
<text xml:space="preserve" text-anchor="middle" x="387" y="-232.38" font-family="Helvetica,sans-Serif" font-size="10.00">jparse.h</text>
</a>
</g>
</g>
<!-- Node1&#45;&gt;Node28 -->
<g id="edge56_Node000001_Node000028" class="edge">
<title>Node1&#45;&gt;Node28</title>
<g id="a_edge56_Node000001_Node000028"><a xlink:title=" ">
<path fill="none" stroke="#63b8ff" d="M627.21,-404.47C570.02,-400.06 455.33,-388.15 426,-362 395.88,-335.15 388.79,-285.4 387.26,-257.53"/>
<polygon fill="#63b8ff" stroke="#63b8ff" points="390.76,-257.5 386.94,-247.62 383.77,-257.73 390.76,-257.5"/>
</a>
</g>
</g>
<!-- Node29 -->
<g id="Node000029" class="node">
<title>Node29</title>
<g id="a_Node000029"><a xlink:href="script_8h.html" target="_top" xlink:title=" ">
<polygon fill="white" stroke="#666666" points="1380.12,-362 1331.88,-362 1331.88,-342.75 1380.12,-342.75 1380.12,-362"/>
<text xml:space="preserve" text-anchor="middle" x="1356" y="-348.5" font-family="Helvetica,sans-Serif" font-size="10.00">script.h</text>
</a>
</g>
</g>
<!-- Node1&#45;&gt;Node29 -->
<g id="edge59_Node000001_Node000029" class="edge">
<title>Node1&#45;&gt;Node29</title>
<g id="a_edge59_Node000001_Node000029"><a xlink:title=" ">
<path fill="none" stroke="#63b8ff" d="M692.71,-406.2C789.03,-404.57 1079.81,-396.89 1318,-362 1318.83,-361.88 1319.67,-361.75 1320.51,-361.61"/>
<polygon fill="#63b8ff" stroke="#63b8ff" points="1320.92,-365.1 1330.09,-359.79 1319.61,-358.22 1320.92,-365.1"/>
</a>
</g>
</g>
<!-- Node3 -->
<g id="Node000003" class="node">
<title>Node3</title>
<g id="a_Node000003"><a xlink:title=" ">
<polygon fill="#e0e0e0" stroke="#999999" points="537.12,-185 488.88,-185 488.88,-165.75 537.12,-165.75 537.12,-185"/>
<text xml:space="preserve" text-anchor="middle" x="513" y="-171.5" font-family="Helvetica,sans-Serif" font-size="10.00">stdint.h</text>
</a>
</g>
</g>
<!-- Node2&#45;&gt;Node3 -->
<g id="edge2_Node000002_Node000003" class="edge">
<title>Node2&#45;&gt;Node3</title>
<g id="a_edge2_Node000002_Node000003"><a xlink:title=" ">
<path fill="none" stroke="#63b8ff" d="M519.02,-220.7C518.04,-213.46 516.83,-204.59 515.76,-196.69"/>
<polygon fill="#63b8ff" stroke="#63b8ff" points="519.25,-196.39 514.44,-186.95 512.32,-197.33 519.25,-196.39"/>
</a>
</g>
</g>
<!-- Node6 -->
<g id="Node000006" class="node">
<title>Node6</title>
<g id="a_Node000006"><a xlink:title=" ">
<polygon fill="#e0e0e0" stroke="#999999" points="175.62,-185 124.38,-185 124.38,-165.75 175.62,-165.75 175.62,-185"/>
<text xml:space="preserve" text-anchor="middle" x="150" y="-171.5" font-family="Helvetica,sans-Serif" font-size="10.00">stddef.h</text>
</a>
</g>
</g>
<!-- Node5&#45;&gt;Node6 -->
<g id="edge5_Node000005_Node000006" class="edge">
<title>Node5&#45;&gt;Node6</title>
<g id="a_edge5_Node000005_Node000006"><a xlink:title=" ">
<path fill="none" stroke="#63b8ff" d="M86.88,-342.45C70.11,-320.29 31.43,-261.62 57,-221 63.63,-210.47 90.47,-198.22 113.63,-189.22"/>
<polygon fill="#63b8ff" stroke="#63b8ff" points="114.72,-192.55 122.84,-185.74 112.25,-186 114.72,-192.55"/>
</a>
</g>
</g>
<!-- Node5&#45;&gt;Node7 -->
<g id="edge6_Node000005_Node000007" class="edge">
<title>Node5&#45;&gt;Node7</title>
<g id="a_edge6_Node000005_Node000007"><a xlink:title=" ">
<path fill="none" stroke="#63b8ff" d="M78.48,-342.25C51.78,-325.26 0,-286.02 0,-237.25 0,-237.25 0,-237.25 0,-119.12 0,-46.53 562.47,-18.12 708.63,-11.97"/>
<polygon fill="#63b8ff" stroke="#63b8ff" points="708.59,-15.47 718.44,-11.56 708.3,-8.48 708.59,-15.47"/>
</a>
</g>
</g>
<!-- Node8 -->
<g id="Node000008" class="node">
<title>Node8</title>
<g id="a_Node000008"><a xlink:href="luaconf_8h.html" target="_top" xlink:title=" ">
<polygon fill="white" stroke="#666666" points="121.88,-245.88 66.12,-245.88 66.12,-226.62 121.88,-226.62 121.88,-245.88"/>
<text xml:space="preserve" text-anchor="middle" x="94" y="-232.38" font-family="Helvetica,sans-Serif" font-size="10.00">luaconf.h</text>
</a>
</g>
</g>
<!-- Node5&#45;&gt;Node8 -->
<g id="edge7_Node000005_Node000008" class="edge">
<title>Node5&#45;&gt;Node8</title>
<g id="a_edge7_Node000005_Node000008"><a xlink:title=" ">
<path fill="none" stroke="#63b8ff" d="M94,-342.42C94,-324.25 94,-282.67 94,-257.57"/>
<polygon fill="#63b8ff" stroke="#63b8ff" points="97.5,-257.68 94,-247.68 90.5,-257.68 97.5,-257.68"/>
</a>
</g>
</g>
<!-- Node5&#45;&gt;Node10 -->
<g id="edge10_Node000005_Node000010" class="edge">
<title>Node5&#45;&gt;Node10</title>
<g id="a_edge10_Node000005_Node000010"><a xlink:title=" ">
<path fill="none" stroke="#63b8ff" d="M104.69,-342.34C113.7,-334.72 126.83,-323.62 137.68,-314.45"/>
<polygon fill="#63b8ff" stroke="#63b8ff" points="139.94,-317.13 145.31,-308 135.42,-311.78 139.94,-317.13"/>
</a>
</g>
</g>
<!-- Node8&#45;&gt;Node6 -->
<g id="edge9_Node000008_Node000006" class="edge">
<title>Node8&#45;&gt;Node6</title>
<g id="a_edge9_Node000008_Node000006"><a xlink:title=" ">
<path fill="none" stroke="#63b8ff" d="M102.51,-226.31C110.73,-217.66 123.4,-204.34 133.59,-193.62"/>
<polygon fill="#63b8ff" stroke="#63b8ff" points="136.02,-196.16 140.37,-186.5 130.94,-191.33 136.02,-196.16"/>
</a>
</g>
</g>
<!-- Node9 -->
<g id="Node000009" class="node">
<title>Node9</title>
<g id="a_Node000009"><a xlink:title=" ">
<polygon fill="#e0e0e0" stroke="#999999" points="106.75,-185 59.25,-185 59.25,-165.75 106.75,-165.75 106.75,-185"/>
<text xml:space="preserve" text-anchor="middle" x="83" y="-171.5" font-family="Helvetica,sans-Serif" font-size="10.00">limits.h</text>
</a>
</g>
</g>
<!-- Node8&#45;&gt;Node9 -->
<g id="edge8_Node000008_Node000009" class="edge">
<title>Node8&#45;&gt;Node9</title>
<g id="a_edge8_Node000008_Node000009"><a xlink:title=" ">
<path fill="none" stroke="#63b8ff" d="M92.33,-226.31C90.86,-218.44 88.67,-206.7 86.77,-196.57"/>
<polygon fill="#63b8ff" stroke="#63b8ff" points="90.24,-196.08 84.96,-186.89 83.36,-197.36 90.24,-196.08"/>
</a>
</g>
</g>
<!-- Node10&#45;&gt;Node6 -->
<g id="edge12_Node000010_Node000006" class="edge">
<title>Node10&#45;&gt;Node6</title>
<g id="a_edge12_Node000010_Node000006"><a xlink:title=" ">
<path fill="none" stroke="#63b8ff" d="M156.47,-287.12C155.36,-268.05 152.74,-223.16 151.19,-196.76"/>
<polygon fill="#63b8ff" stroke="#63b8ff" points="154.7,-196.77 150.62,-186.99 147.71,-197.18 154.7,-196.77"/>
</a>
</g>
</g>
<!-- Node10&#45;&gt;Node8 -->
<g id="edge13_Node000010_Node000008" class="edge">
<title>Node10&#45;&gt;Node8</title>
<g id="a_edge13_Node000010_Node000008"><a xlink:title=" ">
<path fill="none" stroke="#63b8ff" d="M147.43,-287.18C138,-278.37 123.35,-264.68 111.77,-253.86"/>
<polygon fill="#63b8ff" stroke="#63b8ff" points="114.46,-251.58 104.76,-247.31 109.68,-256.69 114.46,-251.58"/>
</a>
</g>
</g>
<!-- Node11 -->
<g id="Node000011" class="node">
<title>Node11</title>
<g id="a_Node000011"><a xlink:title=" ">
<polygon fill="#e0e0e0" stroke="#999999" points="229.62,-245.88 178.38,-245.88 178.38,-226.62 229.62,-226.62 229.62,-245.88"/>
<text xml:space="preserve" text-anchor="middle" x="204" y="-232.38" font-family="Helvetica,sans-Serif" font-size="10.00">stdarg.h</text>
</a>
</g>
</g>
<!-- Node10&#45;&gt;Node11 -->
<g id="edge11_Node000010_Node000011" class="edge">
<title>Node10&#45;&gt;Node11</title>
<g id="a_edge11_Node000010_Node000011"><a xlink:title=" ">
<path fill="none" stroke="#63b8ff" d="M164.14,-287.18C170.9,-278.71 181.25,-265.74 189.71,-255.14"/>
<polygon fill="#63b8ff" stroke="#63b8ff" points="192.35,-257.46 195.85,-247.46 186.88,-253.09 192.35,-257.46"/>
</a>
</g>
</g>
<!-- Node12&#45;&gt;Node10 -->
<g id="edge16_Node000012_Node000010" class="edge">
<title>Node12&#45;&gt;Node10</title>
<g id="a_edge16_Node000012_Node000010"><a xlink:title=" ">
<path fill="none" stroke="#63b8ff" d="M162.01,-342.58C161.27,-335.99 160.22,-326.71 159.28,-318.32"/>
<polygon fill="#63b8ff" stroke="#63b8ff" points="162.78,-318.16 158.18,-308.61 155.82,-318.94 162.78,-318.16"/>
</a>
</g>
</g>
<!-- Node13&#45;&gt;Node2 -->
<g id="edge18_Node000013_Node000002" class="edge">
<title>Node13&#45;&gt;Node2</title>
<g id="a_edge18_Node000013_Node000002"><a xlink:title=" ">
<path fill="none" stroke="#63b8ff" d="M827.55,-287.97C766.12,-279.8 670.42,-266.32 588,-251.5 587.17,-251.35 586.33,-251.2 585.48,-251.04"/>
<polygon fill="#63b8ff" stroke="#63b8ff" points="586.3,-247.64 575.82,-249.2 584.99,-254.51 586.3,-247.64"/>
</a>
</g>
</g>
<!-- Node13&#45;&gt;Node3 -->
<g id="edge42_Node000013_Node000003" class="edge">
<title>Node13&#45;&gt;Node3</title>
<g id="a_edge42_Node000013_Node000003"><a xlink:title=" ">
<path fill="none" stroke="#63b8ff" d="M827.7,-288.91C780.33,-282.33 714.44,-270.65 659,-251.5 613.61,-235.82 564.73,-208.24 536.61,-191.22"/>
<polygon fill="#63b8ff" stroke="#63b8ff" points="538.54,-188.3 528.19,-186.05 534.88,-194.26 538.54,-188.3"/>
</a>
</g>
</g>
<!-- Node13&#45;&gt;Node6 -->
<g id="edge41_Node000013_Node000006" class="edge">
<title>Node13&#45;&gt;Node6</title>
<g id="a_edge41_Node000013_Node000006"><a xlink:title=" ">
<path fill="none" stroke="#63b8ff" d="M827.63,-296.4C726.18,-295.61 521.58,-288.95 353,-251.5 288.95,-237.27 217.85,-207.51 179.1,-190.02"/>
<polygon fill="#63b8ff" stroke="#63b8ff" points="180.99,-187.03 170.44,-186.06 178.08,-193.4 180.99,-187.03"/>
</a>
</g>
</g>
<!-- Node13&#45;&gt;Node14 -->
<g id="edge19_Node000013_Node000014" class="edge">
<title>Node13&#45;&gt;Node14</title>
<g id="a_edge19_Node000013_Node000014"><a xlink:title=" ">
<path fill="none" stroke="#63b8ff" d="M861.73,-287.05C829.37,-277.03 777.06,-260.82 740.95,-249.63"/>
<polygon fill="#63b8ff" stroke="#63b8ff" points="742.34,-246.4 731.75,-246.78 740.27,-253.08 742.34,-246.4"/>
</a>
</g>
</g>
<!-- Node16 -->
<g id="Node000016" class="node">
<title>Node16</title>
<g id="a_Node000016"><a xlink:href="utility_8h.html" target="_top" xlink:title=" ">
<polygon fill="white" stroke="#666666" points="872,-129.75 826,-129.75 826,-110.5 872,-110.5 872,-129.75"/>
<text xml:space="preserve" text-anchor="middle" x="849" y="-116.25" font-family="Helvetica,sans-Serif" font-size="10.00">utility.h</text>
</a>
</g>
</g>
<!-- Node13&#45;&gt;Node16 -->
<g id="edge39_Node000013_Node000016" class="edge">
<title>Node13&#45;&gt;Node16</title>
<g id="a_edge39_Node000013_Node000016"><a xlink:title=" ">
<path fill="none" stroke="#63b8ff" d="M954.18,-287.85C1004.1,-278.33 1061.87,-258.86 1039,-221 1005.14,-164.95 928.26,-138.79 883.36,-127.9"/>
<polygon fill="#63b8ff" stroke="#63b8ff" points="884.41,-124.55 873.88,-125.73 882.85,-131.37 884.41,-124.55"/>
</a>
</g>
</g>
<!-- Node20 -->
<g id="Node000020" class="node">
<title>Node20</title>
<g id="a_Node000020"><a xlink:href="preferences_8h.html" target="_top" xlink:title=" ">
<polygon fill="white" stroke="#666666" points="890.38,-245.88 789.62,-245.88 789.62,-226.62 890.38,-226.62 890.38,-245.88"/>
<text xml:space="preserve" text-anchor="middle" x="840" y="-232.38" font-family="Helvetica,sans-Serif" font-size="10.00">../src/preferences.h</text>
</a>
</g>
</g>
<!-- Node13&#45;&gt;Node20 -->
<g id="edge35_Node000013_Node000020" class="edge">
<title>Node13&#45;&gt;Node20</title>
<g id="a_edge35_Node000013_Node000020"><a xlink:title=" ">
<path fill="none" stroke="#63b8ff" d="M883.25,-287.18C875.84,-278.62 864.45,-265.48 855.22,-254.82"/>
<polygon fill="#63b8ff" stroke="#63b8ff" points="858,-252.69 848.81,-247.42 852.71,-257.27 858,-252.69"/>
</a>
</g>
</g>
<!-- Node22 -->
<g id="Node000022" class="node">
<title>Node22</title>
<g id="a_Node000022"><a xlink:title=" ">
<polygon fill="#e0e0e0" stroke="#999999" points="1030.12,-245.88 969.88,-245.88 969.88,-226.62 1030.12,-226.62 1030.12,-245.88"/>
<text xml:space="preserve" text-anchor="middle" x="1000" y="-232.38" font-family="Helvetica,sans-Serif" font-size="10.00">version.all</text>
</a>
</g>
</g>
<!-- Node13&#45;&gt;Node22 -->
<g id="edge40_Node000013_Node000022" class="edge">
<title>Node13&#45;&gt;Node22</title>
<g id="a_edge40_Node000013_Node000022"><a xlink:title=" ">
<path fill="none" stroke="#63b8ff" d="M907.55,-287.18C925,-277.76 952.75,-262.77 973.29,-251.68"/>
<polygon fill="#63b8ff" stroke="#63b8ff" points="974.82,-254.83 981.96,-247 971.5,-248.67 974.82,-254.83"/>
</a>
</g>
</g>
<!-- Node13&#45;&gt;Node23 -->
<g id="edge43_Node000013_Node000023" class="edge">
<title>Node13&#45;&gt;Node23</title>
<g id="a_edge43_Node000013_Node000023"><a xlink:title=" ">
<path fill="none" stroke="#63b8ff" d="M933.81,-287.06C970.73,-278.88 1025.32,-265.95 1072,-251.5 1073.56,-251.02 1075.14,-250.51 1076.74,-249.98"/>
<polygon fill="#63b8ff" stroke="#63b8ff" points="1077.54,-253.4 1085.81,-246.78 1075.22,-246.8 1077.54,-253.4"/>
</a>
</g>
</g>
<!-- Node13&#45;&gt;Node24 -->
<g id="edge44_Node000013_Node000024" class="edge">
<title>Node13&#45;&gt;Node24</title>
<g id="a_edge44_Node000013_Node000024"><a xlink:title=" ">
<path fill="none" stroke="#63b8ff" d="M954.6,-289.02C1006.13,-282.28 1080.23,-270.33 1143,-251.5 1144.17,-251.15 1145.35,-250.77 1146.53,-250.37"/>
<polygon fill="#63b8ff" stroke="#63b8ff" points="1147.6,-253.71 1155.67,-246.85 1145.08,-247.18 1147.6,-253.71"/>
</a>
</g>
</g>
<!-- Node25 -->
<g id="Node000025" class="node">
<title>Node25</title>
<g id="a_Node000025"><a xlink:title=" ">
<polygon fill="#e0e0e0" stroke="#999999" points="951.5,-245.88 908.5,-245.88 908.5,-226.62 951.5,-226.62 951.5,-245.88"/>
<text xml:space="preserve" text-anchor="middle" x="930" y="-232.38" font-family="Helvetica,sans-Serif" font-size="10.00">time.h</text>
</a>
</g>
</g>
<!-- Node13&#45;&gt;Node25 -->
<g id="edge45_Node000013_Node000025" class="edge">
<title>Node13&#45;&gt;Node25</title>
<g id="a_edge45_Node000013_Node000025"><a xlink:title=" ">
<path fill="none" stroke="#63b8ff" d="M896.92,-287.18C902.42,-278.88 910.78,-266.27 917.71,-255.8"/>
<polygon fill="#63b8ff" stroke="#63b8ff" points="920.58,-257.81 923.19,-247.54 914.74,-253.94 920.58,-257.81"/>
</a>
</g>
</g>
<!-- Node14&#45;&gt;Node3 -->
<g id="edge33_Node000014_Node000003" class="edge">
<title>Node14&#45;&gt;Node3</title>
<g id="a_edge33_Node000014_Node000003"><a xlink:title=" ">
<path fill="none" stroke="#63b8ff" d="M672.04,-226.18C638.76,-215.76 584.17,-198.66 548.4,-187.46"/>
<polygon fill="#63b8ff" stroke="#63b8ff" points="549.53,-184.15 538.95,-184.5 547.44,-190.83 549.53,-184.15"/>
</a>
</g>
</g>
<!-- Node14&#45;&gt;Node4 -->
<g id="edge20_Node000014_Node000004" class="edge">
<title>Node14&#45;&gt;Node4</title>
<g id="a_edge20_Node000014_Node000004"><a xlink:title=" ">
<path fill="none" stroke="#63b8ff" d="M697.99,-226.45C694.67,-216.49 689.36,-199.74 686,-185 678.18,-150.72 672.45,-110.16 669.42,-86.31"/>
<polygon fill="#63b8ff" stroke="#63b8ff" points="672.9,-85.92 668.21,-76.42 665.96,-86.77 672.9,-85.92"/>
</a>
</g>
</g>
<!-- Node14&#45;&gt;Node7 -->
<g id="edge34_Node000014_Node000007" class="edge">
<title>Node14&#45;&gt;Node7</title>
<g id="a_edge34_Node000014_Node000007"><a xlink:title=" ">
<path fill="none" stroke="#63b8ff" d="M692.07,-226.34C665.66,-198.9 592.27,-114.04 632,-55.25 649.04,-30.03 682.95,-19.06 708.83,-14.29"/>
<polygon fill="#63b8ff" stroke="#63b8ff" points="709.24,-17.77 718.57,-12.74 708.14,-10.86 709.24,-17.77"/>
</a>
</g>
</g>
<!-- Node15 -->
<g id="Node000015" class="node">
<title>Node15</title>
<g id="a_Node000015"><a xlink:href="scene_8h.html" target="_top" xlink:title=" ">
<polygon fill="white" stroke="#666666" points="745.25,-185 694.75,-185 694.75,-165.75 745.25,-165.75 745.25,-185"/>
<text xml:space="preserve" text-anchor="middle" x="720" y="-171.5" font-family="Helvetica,sans-Serif" font-size="10.00">scene.h</text>
</a>
</g>
</g>
<!-- Node14&#45;&gt;Node15 -->
<g id="edge21_Node000014_Node000015" class="edge">
<title>Node14&#45;&gt;Node15</title>
<g id="a_edge21_Node000014_Node000015"><a xlink:title=" ">
<path fill="none" stroke="#63b8ff" d="M703.89,-226.31C706.45,-218.35 710.3,-206.44 713.59,-196.24"/>
<polygon fill="#63b8ff" stroke="#63b8ff" points="716.88,-197.43 716.62,-186.84 710.22,-195.28 716.88,-197.43"/>
</a>
</g>
</g>
<!-- Node14&#45;&gt;Node16 -->
<g id="edge31_Node000014_Node000016" class="edge">
<title>Node14&#45;&gt;Node16</title>
<g id="a_edge31_Node000014_Node000016"><a xlink:title=" ">
<path fill="none" stroke="#63b8ff" d="M712.61,-226.29C737.69,-206.96 797.16,-161.1 828.64,-136.83"/>
<polygon fill="#63b8ff" stroke="#63b8ff" points="830.46,-139.84 836.24,-130.96 826.19,-134.3 830.46,-139.84"/>
</a>
</g>
</g>
<!-- Node19 -->
<g id="Node000019" class="node">
<title>Node19</title>
<g id="a_Node000019"><a xlink:title=" ">
<polygon fill="#e0e0e0" stroke="#999999" points="601,-185 555,-185 555,-165.75 601,-165.75 601,-185"/>
<text xml:space="preserve" text-anchor="middle" x="578" y="-171.5" font-family="Helvetica,sans-Serif" font-size="10.00">math.h</text>
</a>
</g>
</g>
<!-- Node14&#45;&gt;Node19 -->
<g id="edge32_Node000014_Node000019" class="edge">
<title>Node14&#45;&gt;Node19</title>
<g id="a_edge32_Node000014_Node000019"><a xlink:title=" ">
<path fill="none" stroke="#63b8ff" d="M682.05,-226.18C662.04,-216.6 630.24,-201.38 607.05,-190.28"/>
<polygon fill="#63b8ff" stroke="#63b8ff" points="608.67,-187.17 598.13,-186.01 605.64,-193.49 608.67,-187.17"/>
</a>
</g>
</g>
<!-- Node15&#45;&gt;Node4 -->
<g id="edge22_Node000015_Node000004" class="edge">
<title>Node15&#45;&gt;Node4</title>
<g id="a_edge22_Node000015_Node000004"><a xlink:title=" ">
<path fill="none" stroke="#63b8ff" d="M715.66,-165.5C707.12,-148.01 687.95,-108.77 676.38,-85.09"/>
<polygon fill="#63b8ff" stroke="#63b8ff" points="679.6,-83.69 672.06,-76.24 673.31,-86.76 679.6,-83.69"/>
</a>
</g>
</g>
<!-- Node15&#45;&gt;Node7 -->
<g id="edge30_Node000015_Node000007" class="edge">
<title>Node15&#45;&gt;Node7</title>
<g id="a_edge30_Node000015_Node000007"><a xlink:title=" ">
<path fill="none" stroke="#63b8ff" d="M721.24,-165.57C724.79,-140.25 735.12,-66.75 740.16,-30.84"/>
<polygon fill="#63b8ff" stroke="#63b8ff" points="743.62,-31.36 741.55,-20.97 736.69,-30.39 743.62,-31.36"/>
</a>
</g>
</g>
<!-- Node15&#45;&gt;Node16 -->
<g id="edge23_Node000015_Node000016" class="edge">
<title>Node15&#45;&gt;Node16</title>
<g id="a_edge23_Node000015_Node000016"><a xlink:title=" ">
<path fill="none" stroke="#63b8ff" d="M741.88,-165.34C762.36,-156.89 793.21,-144.15 816.56,-134.52"/>
<polygon fill="#63b8ff" stroke="#63b8ff" points="817.7,-137.83 825.61,-130.78 815.03,-131.36 817.7,-137.83"/>
</a>
</g>
</g>
<!-- Node16&#45;&gt;Node4 -->
<g id="edge27_Node000016_Node000004" class="edge">
<title>Node16&#45;&gt;Node4</title>
<g id="a_edge27_Node000016_Node000004"><a xlink:title=" ">
<path fill="none" stroke="#63b8ff" d="M825.58,-112.27C794.87,-103.29 740.62,-87.42 704.25,-76.77"/>
<polygon fill="#63b8ff" stroke="#63b8ff" points="705.61,-73.52 695.03,-74.08 703.64,-80.24 705.61,-73.52"/>
</a>
</g>
</g>
<!-- Node16&#45;&gt;Node7 -->
<g id="edge29_Node000016_Node000007" class="edge">
<title>Node16&#45;&gt;Node7</title>
<g id="a_edge29_Node000016_Node000007"><a xlink:title=" ">
<path fill="none" stroke="#63b8ff" d="M845.54,-110.43C840,-97.3 828.08,-72.14 812,-55.25 800.48,-43.15 785.05,-32.78 771.71,-25.09"/>
<polygon fill="#63b8ff" stroke="#63b8ff" points="773.78,-22.23 763.34,-20.48 770.41,-28.37 773.78,-22.23"/>
</a>
</g>
</g>
<!-- Node17 -->
<g id="Node000017" class="node">
<title>Node17</title>
<g id="a_Node000017"><a xlink:href="array_8h.html" target="_top" xlink:title=" ">
<polygon fill="white" stroke="#666666" points="908.25,-74.5 863.75,-74.5 863.75,-55.25 908.25,-55.25 908.25,-74.5"/>
<text xml:space="preserve" text-anchor="middle" x="886" y="-61" font-family="Helvetica,sans-Serif" font-size="10.00">array.h</text>
</a>
</g>
</g>
<!-- Node16&#45;&gt;Node17 -->
<g id="edge24_Node000016_Node000017" class="edge">
<title>Node16&#45;&gt;Node17</title>
<g id="a_edge24_Node000016_Node000017"><a xlink:title=" ">
<path fill="none" stroke="#63b8ff" d="M855.11,-110.33C860.06,-103.21 867.2,-92.93 873.37,-84.05"/>
<polygon fill="#63b8ff" stroke="#63b8ff" points="876.06,-86.31 878.89,-76.1 870.31,-82.32 876.06,-86.31"/>
</a>
</g>
</g>
<!-- Node16&#45;&gt;Node18 -->
<g id="edge28_Node000016_Node000018" class="edge">
<title>Node16&#45;&gt;Node18</title>
<g id="a_edge28_Node000016_Node000018"><a xlink:title=" ">
<path fill="none" stroke="#63b8ff" d="M866.53,-110.12C881.11,-102.08 901.86,-89.31 917,-74.5 930.67,-61.13 942.72,-42.93 950.73,-29.38"/>
<polygon fill="#63b8ff" stroke="#63b8ff" points="953.6,-31.43 955.5,-21.01 947.51,-27.96 953.6,-31.43"/>
</a>
</g>
</g>
<!-- Node17&#45;&gt;Node7 -->
<g id="edge26_Node000017_Node000007" class="edge">
<title>Node17&#45;&gt;Node7</title>
<g id="a_edge26_Node000017_Node000007"><a xlink:title=" ">
<path fill="none" stroke="#63b8ff" d="M863.34,-55.44C840.05,-46.76 803.51,-33.16 776.8,-23.21"/>
<polygon fill="#63b8ff" stroke="#63b8ff" points="778.04,-19.94 767.44,-19.73 775.59,-26.5 778.04,-19.94"/>
</a>
</g>
</g>
<!-- Node17&#45;&gt;Node18 -->
<g id="edge25_Node000017_Node000018" class="edge">
<title>Node17&#45;&gt;Node18</title>
<g id="a_edge25_Node000017_Node000018"><a xlink:title=" ">
<path fill="none" stroke="#63b8ff" d="M898.72,-54.84C909.71,-47.04 925.84,-35.59 938.93,-26.29"/>
<polygon fill="#63b8ff" stroke="#63b8ff" points="940.85,-29.22 946.98,-20.58 936.8,-23.51 940.85,-29.22"/>
</a>
</g>
</g>
<!-- Node20&#45;&gt;Node7 -->
<g id="edge37_Node000020_Node000007" class="edge">
<title>Node20&#45;&gt;Node7</title>
<g id="a_edge37_Node000020_Node000007"><a xlink:title=" ">
<path fill="none" stroke="#63b8ff" d="M836.08,-226.17C821.67,-192.79 771.44,-76.49 751.38,-30.02"/>
<polygon fill="#63b8ff" stroke="#63b8ff" points="754.64,-28.76 747.47,-20.97 748.22,-31.53 754.64,-28.76"/>
</a>
</g>
</g>
<!-- Node20&#45;&gt;Node16 -->
<g id="edge36_Node000020_Node000016" class="edge">
<title>Node20&#45;&gt;Node16</title>
<g id="a_edge36_Node000020_Node000016"><a xlink:title=" ">
<path fill="none" stroke="#63b8ff" d="M840.71,-226.29C842.14,-208.13 845.42,-166.54 847.4,-141.45"/>
<polygon fill="#63b8ff" stroke="#63b8ff" points="850.88,-141.79 848.18,-131.55 843.9,-141.24 850.88,-141.79"/>
</a>
</g>
</g>
<!-- Node20&#45;&gt;Node21 -->
<g id="edge38_Node000020_Node000021" class="edge">
<title>Node20&#45;&gt;Node21</title>
<g id="a_edge38_Node000020_Node000021"><a xlink:title=" ">
<path fill="none" stroke="#63b8ff" d="M876.72,-226.13C884.4,-224.34 892.45,-222.54 900,-221 981.2,-204.46 1077.42,-189.16 1127.62,-181.51"/>
<polygon fill="#63b8ff" stroke="#63b8ff" points="1127.92,-185 1137.28,-180.04 1126.87,-178.08 1127.92,-185"/>
</a>
</g>
</g>
<!-- Node26&#45;&gt;Node7 -->
<g id="edge49_Node000026_Node000007" class="edge">
<title>Node26&#45;&gt;Node7</title>
<g id="a_edge49_Node000026_Node000007"><a xlink:title=" ">
<path fill="none" stroke="#63b8ff" d="M963.6,-58.77C920.32,-49.32 827.56,-29.08 777.21,-18.09"/>
<polygon fill="#63b8ff" stroke="#63b8ff" points="777.96,-14.67 767.45,-15.96 776.47,-21.51 777.96,-14.67"/>
</a>
</g>
</g>
<!-- Node26&#45;&gt;Node18 -->
<g id="edge48_Node000026_Node000018" class="edge">
<title>Node26&#45;&gt;Node18</title>
<g id="a_edge48_Node000026_Node000018"><a xlink:title=" ">
<path fill="none" stroke="#63b8ff" d="M982.71,-55.08C979.38,-48.26 974.64,-38.56 970.44,-29.95"/>
<polygon fill="#63b8ff" stroke="#63b8ff" points="973.58,-28.42 966.05,-20.97 967.29,-31.49 973.58,-28.42"/>
</a>
</g>
</g>
<!-- Node27&#45;&gt;Node7 -->
<g id="edge55_Node000027_Node000007" class="edge">
<title>Node27&#45;&gt;Node7</title>
<g id="a_edge55_Node000027_Node000007"><a xlink:title=" ">
<path fill="none" stroke="#63b8ff" d="M670.75,-345.31C586.9,-331.87 397.56,-297.16 353,-251.5 328.95,-226.85 334,-210.82 334,-176.38 334,-176.38 334,-176.38 334,-119.12 334,-41.82 610.46,-18.29 708.79,-12.36"/>
<polygon fill="#63b8ff" stroke="#63b8ff" points="708.84,-15.87 718.62,-11.8 708.44,-8.88 708.84,-15.87"/>
</a>
</g>
</g>
<!-- Node27&#45;&gt;Node13 -->
<g id="edge51_Node000027_Node000013" class="edge">
<title>Node27&#45;&gt;Node13</title>
<g id="a_edge51_Node000027_Node000013"><a xlink:title=" ">
<path fill="none" stroke="#63b8ff" d="M741.53,-342.34C771.27,-333.54 816.69,-320.11 849.65,-310.36"/>
<polygon fill="#63b8ff" stroke="#63b8ff" points="850.27,-313.82 858.86,-307.63 848.28,-307.11 850.27,-313.82"/>
</a>
</g>
</g>
<!-- Node27&#45;&gt;Node15 -->
<g id="edge53_Node000027_Node000015" class="edge">
<title>Node27&#45;&gt;Node15</title>
<g id="a_edge53_Node000027_Node000015"><a xlink:title=" ">
<path fill="none" stroke="#63b8ff" d="M716.15,-342.53C727.76,-321.48 754.1,-266.75 743,-221 740.82,-212.02 736.5,-202.82 732.19,-195.13"/>
<polygon fill="#63b8ff" stroke="#63b8ff" points="735.28,-193.47 727.1,-186.73 729.29,-197.1 735.28,-193.47"/>
</a>
</g>
</g>
<!-- Node27&#45;&gt;Node19 -->
<g id="edge54_Node000027_Node000019" class="edge">
<title>Node27&#45;&gt;Node19</title>
<g id="a_edge54_Node000027_Node000019"><a xlink:title=" ">
<path fill="none" stroke="#63b8ff" d="M704.22,-342.46C683.33,-314.96 619.63,-231.15 591.54,-194.2"/>
<polygon fill="#63b8ff" stroke="#63b8ff" points="594.68,-192.53 585.84,-186.69 589.1,-196.77 594.68,-192.53"/>
</a>
</g>
</g>
<!-- Node27&#45;&gt;Node20 -->
<g id="edge52_Node000027_Node000020" class="edge">
<title>Node27&#45;&gt;Node20</title>
<g id="a_edge52_Node000027_Node000020"><a xlink:title=" ">
<path fill="none" stroke="#63b8ff" d="M726.15,-342.34C739.78,-333.9 760.07,-320.56 776,-306.75 794.71,-290.54 813.6,-269.28 825.96,-254.57"/>
<polygon fill="#63b8ff" stroke="#63b8ff" points="828.44,-257.07 832.11,-247.13 823.04,-252.61 828.44,-257.07"/>
</a>
</g>
</g>
<!-- Node28&#45;&gt;Node3 -->
<g id="edge58_Node000028_Node000003" class="edge">
<title>Node28&#45;&gt;Node3</title>
<g id="a_edge58_Node000028_Node000003"><a xlink:title=" ">
<path fill="none" stroke="#63b8ff" d="M406.41,-226.18C427,-216.56 459.78,-201.24 483.56,-190.13"/>
<polygon fill="#63b8ff" stroke="#63b8ff" points="484.82,-193.4 492.4,-186 481.86,-187.06 484.82,-193.4"/>
</a>
</g>
</g>
<!-- Node28&#45;&gt;Node4 -->
<g id="edge57_Node000028_Node000004" class="edge">
<title>Node28&#45;&gt;Node4</title>
<g id="a_edge57_Node000028_Node000004"><a xlink:title=" ">
<path fill="none" stroke="#63b8ff" d="M388.5,-226.31C392.89,-203.16 407.93,-140.91 447,-110.5 474.87,-88.81 573.51,-75.47 628.77,-69.52"/>
<polygon fill="#63b8ff" stroke="#63b8ff" points="629.1,-73.01 638.68,-68.49 628.37,-66.05 629.1,-73.01"/>
</a>
</g>
</g>
</g>
</svg>

<g id="navigator" transform="translate(0 0)" fill="#404254">
  <rect fill="#f2f5e9" fill-opacity="0.5" stroke="#606060" stroke-width=".5" x="0" y="0" width="60" height="60"/>
  <use id="zoomplus" xlink:href="#zoomPlus" x="17" y="9" onmousedown="handleZoom(evt,'in')"/>
  <use id="zoomminus" xlink:href="#zoomMin" x="42" y="9" onmousedown="handleZoom(evt,'out')"/>
  <use id="reset" xlink:href="#resetDef" x="30" y="36" onmousedown="handleReset()"/>
   <use id="arrowup" xlink:href="#arrowUp" x="0" y="0" onmousedown="handlePan(0,-1)"/>
  <use id="arrowright" xlink:href="#arrowRight" x="0" y="0" onmousedown="handlePan(1,0)"/>
  <use id="arrowdown" xlink:href="#arrowDown" x="0" y="0" onmousedown="handlePan(0,1)"/>
  <use id="arrowleft" xlink:href="#arrowLeft" x="0" y="0" onmousedown="handlePan(-1,0)"/>
</g>
<svg viewBox="0 0 15 15" width="100%" height="30px" preserveAspectRatio="xMaxYMin meet">
 <g id="arrow_out" transform="scale(0.3 0.3)">
  <a xlink:href="script_8c__incl_org.svg" target="_base">
   <rect id="button" ry="5" rx="5" y="6" x="6" height="38" width="38"
        fill="#f2f5e9" fill-opacity="0.5" stroke="#606060" stroke-width="1.0"/>
   <path id="arrow"
     d="M 11.500037,31.436501 C 11.940474,20.09759 22.043105,11.32322 32.158766,21.979434 L 37.068811,17.246167 C 37.068811,17.246167 37.088388,32 37.088388,32 L 22.160133,31.978069 C 22.160133,31.978069 26.997745,27.140456 26.997745,27.140456 C 18.528582,18.264221 13.291696,25.230495 11.500037,31.436501 z"
     style="fill:#404040;"/>
  </a>
 </g>
</svg>

<style type='text/css'>
<![CDATA[
[data-mouse-over-selected='false'] { opacity: 0.7; }
[data-mouse-over-selected='true']  { opacity: 1.0; }
]]>
</style>
<script type="application/ecmascript"><![CDATA[
document.addEventListener('DOMContentLoaded', (event) => {
  highlightEdges();
  highlightAdjacentNodes();
});
]]></script>
</svg>
