<?xml version="1.0" encoding="UTF-8" standalone="no"?>
<!DOCTYPE svg PUBLIC "-//W3C//DTD SVG 1.1//EN"
 "http://www.w3.org/Graphics/SVG/1.1/DTD/svg11.dtd">
<!-- Generated by graphviz version 13.1.0 (20250701.0955)
 -->
<!-- Title: get_gb Pages: 1 -->
<svg width="212pt" height="286pt"
 viewBox="0.00 0.00 212.00 286.00" xmlns="http://www.w3.org/2000/svg" xmlns:xlink="http://www.w3.org/1999/xlink">

<svg id="main" version="1.1" xmlns="http://www.w3.org/2000/svg" xmlns:xlink="http://www.w3.org/1999/xlink" xml:space="preserve">

<style type="text/css"><![CDATA[
.node, .edge {opacity: 0.7;}
.node.selected, .edge.selected {opacity: 1;}
.edge:hover path { stroke: red; }
.edge:hover polygon { stroke: red; fill: red; }
]]></style>
<script type="application/ecmascript" xlink:href="svg.min.js"/>
<svg id="graph" class="graph">
<g id="graph0" class="graph" transform="scale(1 1) rotate(0) translate(4 282.25)">
<title>get_gb</title>
<!-- Node1 -->
<g id="Node000001" class="node">
<title>Node1</title>
<g id="a_Node000001"><a xlink:title=" ">
<polygon fill="#999999" stroke="#666666" points="203.75,-148.25 158.5,-148.25 158.5,-129 203.75,-129 203.75,-148.25"/>
<text xml:space="preserve" text-anchor="middle" x="181.12" y="-134.75" font-family="Helvetica,sans-Serif" font-size="10.00">get_gb</text>
</a>
</g>
</g>
<!-- Node2 -->
<g id="Node000002" class="node">
<title>Node2</title>
<g id="a_Node000002"><a xlink:href="script_8c.html#a5e72bc8081c11f95a9a27f9a99cbfa06" target="_top" xlink:title=" ">
<polygon fill="white" stroke="#666666" points="113.12,-278.25 9.38,-278.25 9.38,-259 113.12,-259 113.12,-278.25"/>
<text xml:space="preserve" text-anchor="middle" x="61.25" y="-264.75" font-family="Helvetica,sans-Serif" font-size="10.00">pgb_get_gb_buttons</text>
</a>
</g>
</g>
<!-- Node1&#45;&gt;Node2 -->
<g id="edge1_Node000001_Node000002" class="edge">
<title>Node1&#45;&gt;Node2</title>
<g id="a_edge1_Node000001_Node000002"><a xlink:title=" ">
<path fill="none" stroke="#63b8ff" d="M174.8,-159.56C167.32,-184.78 151.27,-226.74 122.5,-250.62 118.64,-253.83 114.22,-256.47 109.56,-258.64"/>
<polygon fill="#63b8ff" stroke="#63b8ff" points="178.12,-160.71 177.4,-150.13 171.37,-158.84 178.12,-160.71"/>
</a>
</g>
</g>
<!-- Node3 -->
<g id="Node000003" class="node">
<title>Node3</title>
<g id="a_Node000003"><a xlink:href="script_8c.html#a747d811c0a732534f1fe0b4a39ed056c" target="_top" xlink:title=" ">
<polygon fill="white" stroke="#666666" points="101.12,-241.25 21.38,-241.25 21.38,-222 101.12,-222 101.12,-241.25"/>
<text xml:space="preserve" text-anchor="middle" x="61.25" y="-227.75" font-family="Helvetica,sans-Serif" font-size="10.00">pgb_ram_peek</text>
</a>
</g>
</g>
<!-- Node1&#45;&gt;Node3 -->
<g id="edge2_Node000001_Node000003" class="edge">
<title>Node1&#45;&gt;Node3</title>
<g id="a_edge2_Node000001_Node000003"><a xlink:title=" ">
<path fill="none" stroke="#63b8ff" d="M169.61,-158.5C159.64,-175.5 143.14,-199.42 122.5,-213.62 116.21,-217.96 108.85,-221.27 101.48,-223.79"/>
<polygon fill="#63b8ff" stroke="#63b8ff" points="172.64,-160.26 174.46,-149.82 166.53,-156.84 172.64,-160.26"/>
</a>
</g>
</g>
<!-- Node4 -->
<g id="Node000004" class="node">
<title>Node4</title>
<g id="a_Node000004"><a xlink:href="script_8c.html#aa415f31ecbe23501318dfb0085e0342a" target="_top" xlink:title=" ">
<polygon fill="white" stroke="#666666" points="101.12,-204.25 21.38,-204.25 21.38,-185 101.12,-185 101.12,-204.25"/>
<text xml:space="preserve" text-anchor="middle" x="61.25" y="-190.75" font-family="Helvetica,sans-Serif" font-size="10.00">pgb_ram_poke</text>
</a>
</g>
</g>
<!-- Node1&#45;&gt;Node4 -->
<g id="edge3_Node000001_Node000004" class="edge">
<title>Node1&#45;&gt;Node4</title>
<g id="a_edge3_Node000001_Node000004"><a xlink:title=" ">
<path fill="none" stroke="#63b8ff" d="M158.35,-155.17C147.93,-162.51 135.01,-170.79 122.5,-176.62 115.87,-179.72 108.59,-182.43 101.44,-184.74"/>
<polygon fill="#63b8ff" stroke="#63b8ff" points="160.24,-158.13 166.27,-149.42 156.12,-152.47 160.24,-158.13"/>
</a>
</g>
</g>
<!-- Node5 -->
<g id="Node000005" class="node">
<title>Node5</title>
<g id="a_Node000005"><a xlink:href="script_8c.html#af03005ac8771f7f9494f67590ee87d2b" target="_top" xlink:title=" ">
<polygon fill="white" stroke="#666666" points="101.12,-167.25 21.38,-167.25 21.38,-148 101.12,-148 101.12,-167.25"/>
<text xml:space="preserve" text-anchor="middle" x="61.25" y="-153.75" font-family="Helvetica,sans-Serif" font-size="10.00">pgb_rom_peek</text>
</a>
</g>
</g>
<!-- Node1&#45;&gt;Node5 -->
<g id="edge4_Node000001_Node000005" class="edge">
<title>Node1&#45;&gt;Node5</title>
<g id="a_edge4_Node000001_Node000005"><a xlink:title=" ">
<path fill="none" stroke="#63b8ff" d="M146.96,-143.97C132.74,-146.26 116.02,-148.96 101.2,-151.35"/>
<polygon fill="#63b8ff" stroke="#63b8ff" points="147.42,-147.44 156.74,-142.4 146.31,-140.53 147.42,-147.44"/>
</a>
</g>
</g>
<!-- Node6 -->
<g id="Node000006" class="node">
<title>Node6</title>
<g id="a_Node000006"><a xlink:href="script_8c.html#a11fae39160755680ea88fa1f8ff781b8" target="_top" xlink:title=" ">
<polygon fill="white" stroke="#666666" points="101.12,-130.25 21.38,-130.25 21.38,-111 101.12,-111 101.12,-130.25"/>
<text xml:space="preserve" text-anchor="middle" x="61.25" y="-116.75" font-family="Helvetica,sans-Serif" font-size="10.00">pgb_rom_poke</text>
</a>
</g>
</g>
<!-- Node1&#45;&gt;Node6 -->
<g id="edge5_Node000001_Node000006" class="edge">
<title>Node1&#45;&gt;Node6</title>
<g id="a_edge5_Node000001_Node000006"><a xlink:title=" ">
<path fill="none" stroke="#63b8ff" d="M146.96,-133.56C132.74,-131.39 116.02,-128.84 101.2,-126.57"/>
<polygon fill="#63b8ff" stroke="#63b8ff" points="146.32,-137 156.73,-135.05 147.38,-130.08 146.32,-137"/>
</a>
</g>
</g>
<!-- Node7 -->
<g id="Node000007" class="node">
<title>Node7</title>
<g id="a_Node000007"><a xlink:href="script_8c.html#a5bec5abaaaa437e70c9f4046a62a2875" target="_top" xlink:title=" ">
<polygon fill="white" stroke="#666666" points="122.5,-93.25 0,-93.25 0,-74 122.5,-74 122.5,-93.25"/>
<text xml:space="preserve" text-anchor="middle" x="61.25" y="-79.75" font-family="Helvetica,sans-Serif" font-size="10.00">pgb_rom_set_breakpoint</text>
</a>
</g>
</g>
<!-- Node1&#45;&gt;Node7 -->
<g id="edge6_Node000001_Node000007" class="edge">
<title>Node1&#45;&gt;Node7</title>
<g id="a_edge6_Node000001_Node000007"><a xlink:title=" ">
<path fill="none" stroke="#63b8ff" d="M157.88,-122.26C147.52,-115.19 134.78,-107.27 122.5,-101.62 115.95,-98.62 108.78,-95.96 101.73,-93.68"/>
<polygon fill="#63b8ff" stroke="#63b8ff" points="155.57,-124.92 165.76,-127.81 159.6,-119.19 155.57,-124.92"/>
</a>
</g>
</g>
<!-- Node8 -->
<g id="Node000008" class="node">
<title>Node8</title>
<g id="a_Node000008"><a xlink:href="script_8c.html#ab098756023c80d3fa1b5b1229be94740" target="_top" xlink:title=" ">
<polygon fill="white" stroke="#666666" points="99.62,-56.25 22.88,-56.25 22.88,-37 99.62,-37 99.62,-56.25"/>
<text xml:space="preserve" text-anchor="middle" x="61.25" y="-42.75" font-family="Helvetica,sans-Serif" font-size="10.00">pgb_rom_size</text>
</a>
</g>
</g>
<!-- Node1&#45;&gt;Node8 -->
<g id="edge7_Node000001_Node000008" class="edge">
<title>Node1&#45;&gt;Node8</title>
<g id="a_edge7_Node000001_Node000008"><a xlink:title=" ">
<path fill="none" stroke="#63b8ff" d="M169.39,-118.75C159.36,-101.99 142.9,-78.57 122.5,-64.62 115.74,-60 107.77,-56.55 99.88,-53.96"/>
<polygon fill="#63b8ff" stroke="#63b8ff" points="166.28,-120.36 174.27,-127.31 172.36,-116.89 166.28,-120.36"/>
</a>
</g>
</g>
<!-- Node9 -->
<g id="Node000009" class="node">
<title>Node9</title>
<g id="a_Node000009"><a xlink:href="script_8c.html#a4435c0300eb674d5bbeab62e807d7f5f" target="_top" xlink:title=" ">
<polygon fill="white" stroke="#666666" points="99.62,-19.25 22.88,-19.25 22.88,0 99.62,0 99.62,-19.25"/>
<text xml:space="preserve" text-anchor="middle" x="61.25" y="-5.75" font-family="Helvetica,sans-Serif" font-size="10.00">pgb_step_cpu</text>
</a>
</g>
</g>
<!-- Node1&#45;&gt;Node9 -->
<g id="edge8_Node000001_Node000009" class="edge">
<title>Node1&#45;&gt;Node9</title>
<g id="a_edge8_Node000001_Node000009"><a xlink:title=" ">
<path fill="none" stroke="#63b8ff" d="M174.75,-117.87C167.21,-92.87 151.11,-51.29 122.5,-27.62 116.02,-22.27 107.99,-18.5 99.93,-15.86"/>
<polygon fill="#63b8ff" stroke="#63b8ff" points="171.3,-118.52 177.37,-127.21 178.04,-116.63 171.3,-118.52"/>
</a>
</g>
</g>
</g>
</svg>
</svg>

<style type='text/css'>
<![CDATA[
[data-mouse-over-selected='false'] { opacity: 0.7; }
[data-mouse-over-selected='true']  { opacity: 1.0; }
]]>
</style>
<script type="application/ecmascript"><![CDATA[
document.addEventListener('DOMContentLoaded', (event) => {
  highlightEdges();
  highlightAdjacentNodes();
});
]]></script>
</svg>
