<?xml version="1.0" encoding="UTF-8" standalone="no"?>
<!DOCTYPE svg PUBLIC "-//W3C//DTD SVG 1.1//EN"
 "http://www.w3.org/Graphics/SVG/1.1/DTD/svg11.dtd">
<!-- Generated by graphviz version 13.1.0 (20250701.0955)
 -->
<!-- Title: get_game_scene Pages: 1 -->
<svg width="361pt" height="286pt"
 viewBox="0.00 0.00 361.00 286.00" xmlns="http://www.w3.org/2000/svg" xmlns:xlink="http://www.w3.org/1999/xlink">

<svg id="main" version="1.1" xmlns="http://www.w3.org/2000/svg" xmlns:xlink="http://www.w3.org/1999/xlink" xml:space="preserve">

<style type="text/css"><![CDATA[
.node, .edge {opacity: 0.7;}
.node.selected, .edge.selected {opacity: 1;}
.edge:hover path { stroke: red; }
.edge:hover polygon { stroke: red; fill: red; }
]]></style>
<script type="application/ecmascript" xlink:href="svg.min.js"/>
<svg id="graph" class="graph">
<g id="graph0" class="graph" transform="scale(1 1) rotate(0) translate(4 282.25)">
<title>get_game_scene</title>
<!-- Node1 -->
<g id="Node000001" class="node">
<title>Node1</title>
<g id="a_Node000001"><a xlink:title=" ">
<polygon fill="#999999" stroke="#666666" points="353.25,-148.25 263,-148.25 263,-129 353.25,-129 353.25,-148.25"/>
<text xml:space="preserve" text-anchor="middle" x="308.12" y="-134.75" font-family="Helvetica,sans-Serif" font-size="10.00">get_game_scene</text>
</a>
</g>
</g>
<!-- Node2 -->
<g id="Node000002" class="node">
<title>Node2</title>
<g id="a_Node000002"><a xlink:href="script_8c.html#a113df24bb94bafcdbb9235ec8648e02f" target="_top" xlink:title=" ">
<polygon fill="white" stroke="#666666" points="227,-185.25 158.5,-185.25 158.5,-166 227,-166 227,-185.25"/>
<text xml:space="preserve" text-anchor="middle" x="192.75" y="-171.75" font-family="Helvetica,sans-Serif" font-size="10.00">__section__</text>
</a>
</g>
</g>
<!-- Node1&#45;&gt;Node2 -->
<g id="edge1_Node000001_Node000002" class="edge">
<title>Node1&#45;&gt;Node2</title>
<g id="a_edge1_Node000001_Node000002"><a xlink:title=" ">
<path fill="none" stroke="#63b8ff" d="M265.22,-152.3C251.8,-156.68 237.19,-161.45 224.69,-165.53"/>
<polygon fill="#63b8ff" stroke="#63b8ff" points="266.29,-155.63 274.71,-149.2 264.11,-148.98 266.29,-155.63"/>
</a>
</g>
</g>
<!-- Node3 -->
<g id="Node000003" class="node">
<title>Node3</title>
<g id="a_Node000003"><a xlink:href="script_8c.html#ae6a8f44abb2de3334c5fe35bf4da0b2c" target="_top" xlink:title=" ">
<polygon fill="white" stroke="#666666" points="215.38,-148.25 170.12,-148.25 170.12,-129 215.38,-129 215.38,-148.25"/>
<text xml:space="preserve" text-anchor="middle" x="192.75" y="-134.75" font-family="Helvetica,sans-Serif" font-size="10.00">get_gb</text>
</a>
</g>
</g>
<!-- Node1&#45;&gt;Node3 -->
<g id="edge2_Node000001_Node000003" class="edge">
<title>Node1&#45;&gt;Node3</title>
<g id="a_edge2_Node000001_Node000003"><a xlink:title=" ">
<path fill="none" stroke="#63b8ff" d="M251.14,-138.62C238.53,-138.62 225.87,-138.62 215.67,-138.62"/>
<polygon fill="#63b8ff" stroke="#63b8ff" points="251.13,-142.13 261.13,-138.63 251.13,-135.13 251.13,-142.13"/>
</a>
</g>
</g>
<!-- Node12 -->
<g id="Node000012" class="node">
<title>Node12</title>
<g id="a_Node000012"><a xlink:href="script_8c.html#a9b16a5d3f9becb90bf7f42a34e3d4533" target="_top" xlink:title=" ">
<polygon fill="white" stroke="#666666" points="222.88,-111.25 162.62,-111.25 162.62,-92 222.88,-92 222.88,-111.25"/>
<text xml:space="preserve" text-anchor="middle" x="192.75" y="-97.75" font-family="Helvetica,sans-Serif" font-size="10.00">pgb_close</text>
</a>
</g>
</g>
<!-- Node1&#45;&gt;Node12 -->
<g id="edge11_Node000001_Node000012" class="edge">
<title>Node1&#45;&gt;Node12</title>
<g id="a_edge11_Node000001_Node000012"><a xlink:title=" ">
<path fill="none" stroke="#63b8ff" d="M265.27,-124.96C251.27,-120.4 235.97,-115.4 223.13,-111.21"/>
<polygon fill="#63b8ff" stroke="#63b8ff" points="264.11,-128.27 274.71,-128.05 266.29,-121.62 264.11,-128.27"/>
</a>
</g>
</g>
<!-- Node4 -->
<g id="Node000004" class="node">
<title>Node4</title>
<g id="a_Node000004"><a xlink:href="script_8c.html#a5e72bc8081c11f95a9a27f9a99cbfa06" target="_top" xlink:title=" ">
<polygon fill="white" stroke="#666666" points="113.12,-278.25 9.38,-278.25 9.38,-259 113.12,-259 113.12,-278.25"/>
<text xml:space="preserve" text-anchor="middle" x="61.25" y="-264.75" font-family="Helvetica,sans-Serif" font-size="10.00">pgb_get_gb_buttons</text>
</a>
</g>
</g>
<!-- Node3&#45;&gt;Node4 -->
<g id="edge3_Node000003_Node000004" class="edge">
<title>Node3&#45;&gt;Node4</title>
<g id="a_edge3_Node000003_Node000004"><a xlink:title=" ">
<path fill="none" stroke="#63b8ff" d="M160.66,-154.38C159.91,-155.1 159.18,-155.85 158.5,-156.62 129,-190.25 155.3,-220.21 122.5,-250.62 119.06,-253.82 115.07,-256.44 110.82,-258.61"/>
<polygon fill="#63b8ff" stroke="#63b8ff" points="162.58,-157.32 168.53,-148.55 158.41,-151.69 162.58,-157.32"/>
</a>
</g>
</g>
<!-- Node5 -->
<g id="Node000005" class="node">
<title>Node5</title>
<g id="a_Node000005"><a xlink:href="script_8c.html#a747d811c0a732534f1fe0b4a39ed056c" target="_top" xlink:title=" ">
<polygon fill="white" stroke="#666666" points="101.12,-241.25 21.38,-241.25 21.38,-222 101.12,-222 101.12,-241.25"/>
<text xml:space="preserve" text-anchor="middle" x="61.25" y="-227.75" font-family="Helvetica,sans-Serif" font-size="10.00">pgb_ram_peek</text>
</a>
</g>
</g>
<!-- Node3&#45;&gt;Node5 -->
<g id="edge4_Node000003_Node000005" class="edge">
<title>Node3&#45;&gt;Node5</title>
<g id="a_edge4_Node000003_Node000005"><a xlink:title=" ">
<path fill="none" stroke="#63b8ff" d="M160.45,-154.9C159.78,-155.46 159.13,-156.04 158.5,-156.62 136.61,-177.09 146.37,-195.52 122.5,-213.62 116.32,-218.31 108.94,-221.78 101.49,-224.35"/>
<polygon fill="#63b8ff" stroke="#63b8ff" points="162.44,-157.78 168.67,-149.21 158.45,-152.03 162.44,-157.78"/>
</a>
</g>
</g>
<!-- Node6 -->
<g id="Node000006" class="node">
<title>Node6</title>
<g id="a_Node000006"><a xlink:href="script_8c.html#aa415f31ecbe23501318dfb0085e0342a" target="_top" xlink:title=" ">
<polygon fill="white" stroke="#666666" points="101.12,-204.25 21.38,-204.25 21.38,-185 101.12,-185 101.12,-204.25"/>
<text xml:space="preserve" text-anchor="middle" x="61.25" y="-190.75" font-family="Helvetica,sans-Serif" font-size="10.00">pgb_ram_poke</text>
</a>
</g>
</g>
<!-- Node3&#45;&gt;Node6 -->
<g id="edge5_Node000003_Node000006" class="edge">
<title>Node3&#45;&gt;Node6</title>
<g id="a_edge5_Node000003_Node000006"><a xlink:title=" ">
<path fill="none" stroke="#63b8ff" d="M163.02,-154.15C161.49,-154.99 159.97,-155.82 158.5,-156.62 142.45,-165.43 139.37,-169.52 122.5,-176.62 115.56,-179.55 107.98,-182.2 100.62,-184.52"/>
<polygon fill="#63b8ff" stroke="#63b8ff" points="164.64,-157.25 171.76,-149.4 161.3,-151.1 164.64,-157.25"/>
</a>
</g>
</g>
<!-- Node7 -->
<g id="Node000007" class="node">
<title>Node7</title>
<g id="a_Node000007"><a xlink:href="script_8c.html#af03005ac8771f7f9494f67590ee87d2b" target="_top" xlink:title=" ">
<polygon fill="white" stroke="#666666" points="101.12,-167.25 21.38,-167.25 21.38,-148 101.12,-148 101.12,-167.25"/>
<text xml:space="preserve" text-anchor="middle" x="61.25" y="-153.75" font-family="Helvetica,sans-Serif" font-size="10.00">pgb_rom_peek</text>
</a>
</g>
</g>
<!-- Node3&#45;&gt;Node7 -->
<g id="edge6_Node000003_Node000007" class="edge">
<title>Node3&#45;&gt;Node7</title>
<g id="a_edge6_Node000003_Node000007"><a xlink:title=" ">
<path fill="none" stroke="#63b8ff" d="M158.45,-143.51C141.03,-146.07 119.59,-149.21 101.38,-151.88"/>
<polygon fill="#63b8ff" stroke="#63b8ff" points="158.9,-146.98 168.28,-142.07 157.88,-140.06 158.9,-146.98"/>
</a>
</g>
</g>
<!-- Node8 -->
<g id="Node000008" class="node">
<title>Node8</title>
<g id="a_Node000008"><a xlink:href="script_8c.html#a11fae39160755680ea88fa1f8ff781b8" target="_top" xlink:title=" ">
<polygon fill="white" stroke="#666666" points="101.12,-130.25 21.38,-130.25 21.38,-111 101.12,-111 101.12,-130.25"/>
<text xml:space="preserve" text-anchor="middle" x="61.25" y="-116.75" font-family="Helvetica,sans-Serif" font-size="10.00">pgb_rom_poke</text>
</a>
</g>
</g>
<!-- Node3&#45;&gt;Node8 -->
<g id="edge7_Node000003_Node000008" class="edge">
<title>Node3&#45;&gt;Node8</title>
<g id="a_edge7_Node000003_Node000008"><a xlink:title=" ">
<path fill="none" stroke="#63b8ff" d="M158.45,-134C141.03,-131.57 119.59,-128.6 101.38,-126.06"/>
<polygon fill="#63b8ff" stroke="#63b8ff" points="157.9,-137.45 168.28,-135.36 158.86,-130.52 157.9,-137.45"/>
</a>
</g>
</g>
<!-- Node9 -->
<g id="Node000009" class="node">
<title>Node9</title>
<g id="a_Node000009"><a xlink:href="script_8c.html#a5bec5abaaaa437e70c9f4046a62a2875" target="_top" xlink:title=" ">
<polygon fill="white" stroke="#666666" points="122.5,-93.25 0,-93.25 0,-74 122.5,-74 122.5,-93.25"/>
<text xml:space="preserve" text-anchor="middle" x="61.25" y="-79.75" font-family="Helvetica,sans-Serif" font-size="10.00">pgb_rom_set_breakpoint</text>
</a>
</g>
</g>
<!-- Node3&#45;&gt;Node9 -->
<g id="edge8_Node000003_Node000009" class="edge">
<title>Node3&#45;&gt;Node9</title>
<g id="a_edge8_Node000003_Node000009"><a xlink:title=" ">
<path fill="none" stroke="#63b8ff" d="M163.11,-123.16C145.04,-113.42 124.7,-102.53 122.5,-101.62 115.43,-98.72 107.73,-96.05 100.26,-93.72"/>
<polygon fill="#63b8ff" stroke="#63b8ff" points="161.27,-126.14 171.73,-127.8 164.59,-119.98 161.27,-126.14"/>
</a>
</g>
</g>
<!-- Node10 -->
<g id="Node000010" class="node">
<title>Node10</title>
<g id="a_Node000010"><a xlink:href="script_8c.html#ab098756023c80d3fa1b5b1229be94740" target="_top" xlink:title=" ">
<polygon fill="white" stroke="#666666" points="99.62,-56.25 22.88,-56.25 22.88,-37 99.62,-37 99.62,-56.25"/>
<text xml:space="preserve" text-anchor="middle" x="61.25" y="-42.75" font-family="Helvetica,sans-Serif" font-size="10.00">pgb_rom_size</text>
</a>
</g>
</g>
<!-- Node3&#45;&gt;Node10 -->
<g id="edge9_Node000003_Node000010" class="edge">
<title>Node3&#45;&gt;Node10</title>
<g id="a_edge9_Node000003_Node000010"><a xlink:title=" ">
<path fill="none" stroke="#63b8ff" d="M160.46,-122.34C159.79,-121.78 159.13,-121.21 158.5,-120.62 136.81,-100.5 146.15,-82.41 122.5,-64.62 115.87,-59.64 107.87,-56.03 99.89,-53.41"/>
<polygon fill="#63b8ff" stroke="#63b8ff" points="158.47,-125.22 168.69,-128.02 162.44,-119.46 158.47,-125.22"/>
</a>
</g>
</g>
<!-- Node11 -->
<g id="Node000011" class="node">
<title>Node11</title>
<g id="a_Node000011"><a xlink:href="script_8c.html#a4435c0300eb674d5bbeab62e807d7f5f" target="_top" xlink:title=" ">
<polygon fill="white" stroke="#666666" points="99.62,-19.25 22.88,-19.25 22.88,0 99.62,0 99.62,-19.25"/>
<text xml:space="preserve" text-anchor="middle" x="61.25" y="-5.75" font-family="Helvetica,sans-Serif" font-size="10.00">pgb_step_cpu</text>
</a>
</g>
</g>
<!-- Node3&#45;&gt;Node11 -->
<g id="edge10_Node000003_Node000011" class="edge">
<title>Node3&#45;&gt;Node11</title>
<g id="a_edge10_Node000003_Node000011"><a xlink:title=" ">
<path fill="none" stroke="#63b8ff" d="M160.67,-122.87C159.91,-122.15 159.18,-121.4 158.5,-120.62 129.21,-87.36 155.05,-57.7 122.5,-27.62 116.25,-21.85 108.21,-17.92 100.06,-15.25"/>
<polygon fill="#63b8ff" stroke="#63b8ff" points="158.41,-125.56 168.53,-128.69 162.58,-119.93 158.41,-125.56"/>
</a>
</g>
</g>
</g>
</svg>
</svg>

<style type='text/css'>
<![CDATA[
[data-mouse-over-selected='false'] { opacity: 0.7; }
[data-mouse-over-selected='true']  { opacity: 1.0; }
]]>
</style>
<script type="application/ecmascript"><![CDATA[
document.addEventListener('DOMContentLoaded', (event) => {
  highlightEdges();
  highlightAdjacentNodes();
});
]]></script>
</svg>
