<?xml version="1.0" encoding="UTF-8" standalone="no"?>
<!DOCTYPE svg PUBLIC "-//W3C//DTD SVG 1.1//EN"
 "http://www.w3.org/Graphics/SVG/1.1/DTD/svg11.dtd">
<!-- Generated by graphviz version 13.1.0 (20250701.0955)
 -->
<!-- Title: lua_check_args Pages: 1 -->
<svg width="251pt" height="249pt"
 viewBox="0.00 0.00 251.00 249.00" xmlns="http://www.w3.org/2000/svg" xmlns:xlink="http://www.w3.org/1999/xlink">
<g id="graph0" class="graph" transform="scale(1 1) rotate(0) translate(4 245.25)">
<title>lua_check_args</title>
<!-- Node1 -->
<g id="Node000001" class="node">
<title>Node1</title>
<g id="a_Node000001"><a xlink:title=" ">
<polygon fill="#999999" stroke="#666666" points="242.75,-130.25 158.5,-130.25 158.5,-111 242.75,-111 242.75,-130.25"/>
<text xml:space="preserve" text-anchor="middle" x="200.62" y="-116.75" font-family="Helvetica,sans-Serif" font-size="10.00">lua_check_args</text>
</a>
</g>
</g>
<!-- Node2 -->
<g id="Node000002" class="node">
<title>Node2</title>
<g id="a_Node000002"><a xlink:href="script_8c.html#a113df24bb94bafcdbb9235ec8648e02f" target="_top" xlink:title=" ">
<polygon fill="white" stroke="#666666" points="95.5,-241.25 27,-241.25 27,-222 95.5,-222 95.5,-241.25"/>
<text xml:space="preserve" text-anchor="middle" x="61.25" y="-227.75" font-family="Helvetica,sans-Serif" font-size="10.00">__section__</text>
</a>
</g>
</g>
<!-- Node1&#45;&gt;Node2 -->
<g id="edge1_Node000001_Node000002" class="edge">
<title>Node1&#45;&gt;Node2</title>
<g id="a_edge1_Node000001_Node000002"><a xlink:title=" ">
<path fill="none" stroke="#63b8ff" d="M188.1,-140.54C174.88,-161.68 151.25,-194.61 122.5,-213.62 114.58,-218.86 105.08,-222.62 96,-225.3"/>
<polygon fill="#63b8ff" stroke="#63b8ff" points="191.09,-142.36 193.26,-131.99 185.1,-138.74 191.09,-142.36"/>
</a>
</g>
</g>
<!-- Node3 -->
<g id="Node000003" class="node">
<title>Node3</title>
<g id="a_Node000003"><a xlink:href="script_8c.html#a9b16a5d3f9becb90bf7f42a34e3d4533" target="_top" xlink:title=" ">
<polygon fill="white" stroke="#666666" points="91.38,-204.25 31.12,-204.25 31.12,-185 91.38,-185 91.38,-204.25"/>
<text xml:space="preserve" text-anchor="middle" x="61.25" y="-190.75" font-family="Helvetica,sans-Serif" font-size="10.00">pgb_close</text>
</a>
</g>
</g>
<!-- Node1&#45;&gt;Node3 -->
<g id="edge2_Node000001_Node000003" class="edge">
<title>Node1&#45;&gt;Node3</title>
<g id="a_edge2_Node000001_Node000003"><a xlink:title=" ">
<path fill="none" stroke="#63b8ff" d="M179.61,-138.09C164.72,-150.33 143.43,-166.28 122.5,-176.62 112.91,-181.37 101.83,-185.12 91.81,-187.94"/>
<polygon fill="#63b8ff" stroke="#63b8ff" points="181.85,-140.78 187.25,-131.66 177.34,-135.42 181.85,-140.78"/>
</a>
</g>
</g>
<!-- Node4 -->
<g id="Node000004" class="node">
<title>Node4</title>
<g id="a_Node000004"><a xlink:href="script_8c.html#a747d811c0a732534f1fe0b4a39ed056c" target="_top" xlink:title=" ">
<polygon fill="white" stroke="#666666" points="101.12,-167.25 21.38,-167.25 21.38,-148 101.12,-148 101.12,-167.25"/>
<text xml:space="preserve" text-anchor="middle" x="61.25" y="-153.75" font-family="Helvetica,sans-Serif" font-size="10.00">pgb_ram_peek</text>
</a>
</g>
</g>
<!-- Node1&#45;&gt;Node4 -->
<g id="edge3_Node000001_Node000004" class="edge">
<title>Node1&#45;&gt;Node4</title>
<g id="a_edge3_Node000001_Node000004"><a xlink:title=" ">
<path fill="none" stroke="#63b8ff" d="M151.28,-133.65C134.36,-138.2 115.64,-143.25 99.74,-147.53"/>
<polygon fill="#63b8ff" stroke="#63b8ff" points="151.88,-137.11 160.63,-131.13 150.06,-130.35 151.88,-137.11"/>
</a>
</g>
</g>
<!-- Node5 -->
<g id="Node000005" class="node">
<title>Node5</title>
<g id="a_Node000005"><a xlink:href="script_8c.html#aa415f31ecbe23501318dfb0085e0342a" target="_top" xlink:title=" ">
<polygon fill="white" stroke="#666666" points="101.12,-130.25 21.38,-130.25 21.38,-111 101.12,-111 101.12,-130.25"/>
<text xml:space="preserve" text-anchor="middle" x="61.25" y="-116.75" font-family="Helvetica,sans-Serif" font-size="10.00">pgb_ram_poke</text>
</a>
</g>
</g>
<!-- Node1&#45;&gt;Node5 -->
<g id="edge4_Node000001_Node000005" class="edge">
<title>Node1&#45;&gt;Node5</title>
<g id="a_edge4_Node000001_Node000005"><a xlink:title=" ">
<path fill="none" stroke="#63b8ff" d="M146.75,-120.62C131.65,-120.62 115.47,-120.62 101.35,-120.62"/>
<polygon fill="#63b8ff" stroke="#63b8ff" points="146.52,-124.13 156.52,-120.63 146.52,-117.13 146.52,-124.13"/>
</a>
</g>
</g>
<!-- Node6 -->
<g id="Node000006" class="node">
<title>Node6</title>
<g id="a_Node000006"><a xlink:href="script_8c.html#af03005ac8771f7f9494f67590ee87d2b" target="_top" xlink:title=" ">
<polygon fill="white" stroke="#666666" points="101.12,-93.25 21.38,-93.25 21.38,-74 101.12,-74 101.12,-93.25"/>
<text xml:space="preserve" text-anchor="middle" x="61.25" y="-79.75" font-family="Helvetica,sans-Serif" font-size="10.00">pgb_rom_peek</text>
</a>
</g>
</g>
<!-- Node1&#45;&gt;Node6 -->
<g id="edge5_Node000001_Node000006" class="edge">
<title>Node1&#45;&gt;Node6</title>
<g id="a_edge5_Node000001_Node000006"><a xlink:title=" ">
<path fill="none" stroke="#63b8ff" d="M151.28,-107.6C134.36,-103.05 115.64,-98 99.74,-93.72"/>
<polygon fill="#63b8ff" stroke="#63b8ff" points="150.06,-110.9 160.63,-110.12 151.88,-104.14 150.06,-110.9"/>
</a>
</g>
</g>
<!-- Node7 -->
<g id="Node000007" class="node">
<title>Node7</title>
<g id="a_Node000007"><a xlink:href="script_8c.html#a11fae39160755680ea88fa1f8ff781b8" target="_top" xlink:title=" ">
<polygon fill="white" stroke="#666666" points="101.12,-56.25 21.38,-56.25 21.38,-37 101.12,-37 101.12,-56.25"/>
<text xml:space="preserve" text-anchor="middle" x="61.25" y="-42.75" font-family="Helvetica,sans-Serif" font-size="10.00">pgb_rom_poke</text>
</a>
</g>
</g>
<!-- Node1&#45;&gt;Node7 -->
<g id="edge6_Node000001_Node000007" class="edge">
<title>Node1&#45;&gt;Node7</title>
<g id="a_edge6_Node000001_Node000007"><a xlink:title=" ">
<path fill="none" stroke="#63b8ff" d="M179.61,-103.16C164.72,-90.92 143.43,-74.97 122.5,-64.62 115.94,-61.38 108.69,-58.61 101.56,-56.27"/>
<polygon fill="#63b8ff" stroke="#63b8ff" points="177.34,-105.83 187.25,-109.59 181.85,-100.47 177.34,-105.83"/>
</a>
</g>
</g>
<!-- Node8 -->
<g id="Node000008" class="node">
<title>Node8</title>
<g id="a_Node000008"><a xlink:href="script_8c.html#a5bec5abaaaa437e70c9f4046a62a2875" target="_top" xlink:title=" ">
<polygon fill="white" stroke="#666666" points="122.5,-19.25 0,-19.25 0,0 122.5,0 122.5,-19.25"/>
<text xml:space="preserve" text-anchor="middle" x="61.25" y="-5.75" font-family="Helvetica,sans-Serif" font-size="10.00">pgb_rom_set_breakpoint</text>
</a>
</g>
</g>
<!-- Node1&#45;&gt;Node8 -->
<g id="edge7_Node000001_Node000008" class="edge">
<title>Node1&#45;&gt;Node8</title>
<g id="a_edge7_Node000001_Node000008"><a xlink:title=" ">
<path fill="none" stroke="#63b8ff" d="M188.1,-100.71C174.88,-79.57 151.25,-46.64 122.5,-27.62 117.77,-24.49 112.47,-21.89 107.03,-19.73"/>
<polygon fill="#63b8ff" stroke="#63b8ff" points="185.1,-102.51 193.26,-109.26 191.09,-98.89 185.1,-102.51"/>
</a>
</g>
</g>
</g>
</svg>
