<?xml version="1.0" encoding="UTF-8" standalone="no"?>
<!DOCTYPE svg PUBLIC "-//W3C//DTD SVG 1.1//EN"
 "http://www.w3.org/Graphics/SVG/1.1/DTD/svg11.dtd">
<!-- Generated by graphviz version 13.1.0 (20250701.0955)
 -->
<!-- Title: stbi_image_free Pages: 1 -->
<svg width="884pt" height="39pt"
 viewBox="0.00 0.00 884.00 39.00" xmlns="http://www.w3.org/2000/svg" xmlns:xlink="http://www.w3.org/1999/xlink">
<g id="graph0" class="graph" transform="scale(1 1) rotate(0) translate(4 34.5)">
<title>stbi_image_free</title>
<!-- Node1 -->
<g id="Node000001" class="node">
<title>Node1</title>
<g id="a_Node000001"><a xlink:title=" ">
<polygon fill="#999999" stroke="#666666" points="875.5,-24.88 790.5,-24.88 790.5,-5.63 875.5,-5.63 875.5,-24.88"/>
<text xml:space="preserve" text-anchor="middle" x="833" y="-11.38" font-family="Helvetica,sans-Serif" font-size="10.00">stbi_image_free</text>
</a>
</g>
</g>
<!-- Node2 -->
<g id="Node000002" class="node">
<title>Node2</title>
<g id="a_Node000002"><a xlink:href="image__conversion__scene_8c.html#a65f94c78732ab1ecd8402ffc8d38b916" target="_top" xlink:title=" ">
<polygon fill="white" stroke="#666666" points="754.5,-24.88 691.25,-24.88 691.25,-5.63 754.5,-5.63 754.5,-24.88"/>
<text xml:space="preserve" text-anchor="middle" x="722.88" y="-11.38" font-family="Helvetica,sans-Serif" font-size="10.00">png_to_pdi</text>
</a>
</g>
</g>
<!-- Node1&#45;&gt;Node2 -->
<g id="edge1_Node000001_Node000002" class="edge">
<title>Node1&#45;&gt;Node2</title>
<g id="a_edge1_Node000001_Node000002"><a xlink:title=" ">
<path fill="none" stroke="#63b8ff" d="M778.72,-15.25C770.53,-15.25 762.32,-15.25 754.84,-15.25"/>
<polygon fill="#63b8ff" stroke="#63b8ff" points="778.68,-18.75 788.68,-15.25 778.68,-11.75 778.68,-18.75"/>
</a>
</g>
</g>
<!-- Node3 -->
<g id="Node000003" class="node">
<title>Node3</title>
<g id="a_Node000003"><a xlink:href="image__conversion__scene_8c.html#a8ca967e6b1ddc5ae00c20a2ac1f26c39" target="_top" xlink:title=" ">
<polygon fill="white" stroke="#666666" points="655.25,-24.88 583.75,-24.88 583.75,-5.63 655.25,-5.63 655.25,-24.88"/>
<text xml:space="preserve" text-anchor="middle" x="619.5" y="-11.38" font-family="Helvetica,sans-Serif" font-size="10.00">process_png</text>
</a>
</g>
</g>
<!-- Node2&#45;&gt;Node3 -->
<g id="edge2_Node000002_Node000003" class="edge">
<title>Node2&#45;&gt;Node3</title>
<g id="a_edge2_Node000002_Node000003"><a xlink:title=" ">
<path fill="none" stroke="#63b8ff" d="M679.51,-15.25C671.53,-15.25 663.26,-15.25 655.53,-15.25"/>
<polygon fill="#63b8ff" stroke="#63b8ff" points="679.39,-18.75 689.39,-15.25 679.39,-11.75 679.39,-18.75"/>
</a>
</g>
</g>
<!-- Node4 -->
<g id="Node000004" class="node">
<title>Node4</title>
<g id="a_Node000004"><a xlink:href="image__conversion__scene_8c.html#a60d0e43ab25a8639bbb6d1f4e758edd3" target="_top" xlink:title=" ">
<polygon fill="white" stroke="#666666" points="547.75,-30.5 401.25,-30.5 401.25,0 547.75,0 547.75,-30.5"/>
<text xml:space="preserve" text-anchor="start" x="409.25" y="-17" font-family="Helvetica,sans-Serif" font-size="10.00">PGB_ImageConversionScene</text>
<text xml:space="preserve" text-anchor="middle" x="474.5" y="-5.75" font-family="Helvetica,sans-Serif" font-size="10.00">_update</text>
</a>
</g>
</g>
<!-- Node3&#45;&gt;Node4 -->
<g id="edge3_Node000003_Node000004" class="edge">
<title>Node3&#45;&gt;Node4</title>
<g id="a_edge3_Node000003_Node000004"><a xlink:title=" ">
<path fill="none" stroke="#63b8ff" d="M572.23,-15.25C564.53,-15.25 556.38,-15.25 548.21,-15.25"/>
<polygon fill="#63b8ff" stroke="#63b8ff" points="572,-18.75 582,-15.25 572,-11.75 572,-18.75"/>
</a>
</g>
</g>
<!-- Node5 -->
<g id="Node000005" class="node">
<title>Node5</title>
<g id="a_Node000005"><a xlink:href="image__conversion__scene_8c.html#aa3559936491ddf78b9cf06fcbdd32d22" target="_top" xlink:title=" ">
<polygon fill="white" stroke="#666666" points="365.25,-24.88 195.5,-24.88 195.5,-5.63 365.25,-5.63 365.25,-24.88"/>
<text xml:space="preserve" text-anchor="middle" x="280.38" y="-11.38" font-family="Helvetica,sans-Serif" font-size="10.00">PGB_ImageConversionScene_new</text>
</a>
</g>
</g>
<!-- Node4&#45;&gt;Node5 -->
<g id="edge4_Node000004_Node000005" class="edge">
<title>Node4&#45;&gt;Node5</title>
<g id="a_edge4_Node000004_Node000005"><a xlink:title=" ">
<path fill="none" stroke="#63b8ff" d="M389.44,-15.25C381.57,-15.25 373.59,-15.25 365.72,-15.25"/>
<polygon fill="#63b8ff" stroke="#63b8ff" points="389.35,-18.75 399.35,-15.25 389.35,-11.75 389.35,-18.75"/>
</a>
</g>
</g>
<!-- Node6 -->
<g id="Node000006" class="node">
<title>Node6</title>
<g id="a_Node000006"><a xlink:href="app_8c.html#af256ea7a9c51fcbd49cb0007facbb8ea" target="_top" xlink:title=" ">
<polygon fill="white" stroke="#666666" points="159.5,-24.88 104.5,-24.88 104.5,-5.63 159.5,-5.63 159.5,-24.88"/>
<text xml:space="preserve" text-anchor="middle" x="132" y="-11.38" font-family="Helvetica,sans-Serif" font-size="10.00">PGB_init</text>
</a>
</g>
</g>
<!-- Node5&#45;&gt;Node6 -->
<g id="edge5_Node000005_Node000006" class="edge">
<title>Node5&#45;&gt;Node6</title>
<g id="a_edge5_Node000005_Node000006"><a xlink:title=" ">
<path fill="none" stroke="#63b8ff" d="M183.63,-15.25C175.09,-15.25 167,-15.25 159.9,-15.25"/>
<polygon fill="#63b8ff" stroke="#63b8ff" points="183.56,-18.75 193.56,-15.25 183.56,-11.75 183.56,-18.75"/>
</a>
</g>
</g>
<!-- Node7 -->
<g id="Node000007" class="node">
<title>Node7</title>
<g id="a_Node000007"><a xlink:href="main_8c.html#a77034286b8c64d0735c69535c5e9b732" target="_top" xlink:title=" ">
<polygon fill="white" stroke="#666666" points="68.5,-24.88 0,-24.88 0,-5.63 68.5,-5.63 68.5,-24.88"/>
<text xml:space="preserve" text-anchor="middle" x="34.25" y="-11.38" font-family="Helvetica,sans-Serif" font-size="10.00">__section__</text>
</a>
</g>
</g>
<!-- Node6&#45;&gt;Node7 -->
<g id="edge6_Node000006_Node000007" class="edge">
<title>Node6&#45;&gt;Node7</title>
<g id="a_edge6_Node000006_Node000007"><a xlink:title=" ">
<path fill="none" stroke="#63b8ff" d="M92.81,-15.25C84.87,-15.25 76.56,-15.25 68.8,-15.25"/>
<polygon fill="#63b8ff" stroke="#63b8ff" points="92.56,-18.75 102.56,-15.25 92.56,-11.75 92.56,-18.75"/>
</a>
</g>
</g>
</g>
</svg>
