<?xml version="1.0" encoding="UTF-8" standalone="no"?>
<!DOCTYPE svg PUBLIC "-//W3C//DTD SVG 1.1//EN"
 "http://www.w3.org/Graphics/SVG/1.1/DTD/svg11.dtd">
<!-- Generated by graphviz version 13.1.0 (20250701.0955)
 -->
<!-- Title: PGB_ListView Pages: 1 -->
<svg width="320pt" height="100pt"
 viewBox="0.00 0.00 320.00 100.00" xmlns="http://www.w3.org/2000/svg" xmlns:xlink="http://www.w3.org/1999/xlink">
<g id="graph0" class="graph" transform="scale(1 1) rotate(0) translate(4 95.75)">
<title>PGB_ListView</title>
<!-- Node1 -->
<g id="Node000001" class="node">
<title>Node1</title>
<g id="a_Node000001"><a xlink:title=" ">
<polygon fill="#999999" stroke="#666666" points="176.62,-19.25 96.88,-19.25 96.88,0 176.62,0 176.62,-19.25"/>
<text xml:space="preserve" text-anchor="middle" x="136.75" y="-5.75" font-family="Helvetica,sans-Serif" font-size="10.00">PGB_ListView</text>
</a>
</g>
</g>
<!-- Node2 -->
<g id="Node000002" class="node">
<title>Node2</title>
<g id="a_Node000002"><a xlink:href="struct_p_g_b___array.html" target="_top" xlink:title=" ">
<polygon fill="white" stroke="#666666" points="65.5,-91.75 0,-91.75 0,-72.5 65.5,-72.5 65.5,-91.75"/>
<text xml:space="preserve" text-anchor="middle" x="32.75" y="-78.25" font-family="Helvetica,sans-Serif" font-size="10.00">PGB_Array</text>
</a>
</g>
</g>
<!-- Node2&#45;&gt;Node1 -->
<g id="edge1_Node000001_Node000002" class="edge">
<title>Node2&#45;&gt;Node1</title>
<g id="a_edge1_Node000001_Node000002"><a xlink:title=" ">
<path fill="none" stroke="#9a32cd" stroke-dasharray="5,2" d="M55.26,-65.86C76.02,-51.79 106.15,-31.37 123.36,-19.7"/>
<polygon fill="#9a32cd" stroke="#9a32cd" points="53.49,-62.84 47.17,-71.35 57.42,-68.63 53.49,-62.84"/>
</a>
</g>
<text xml:space="preserve" text-anchor="start" x="100.12" y="-42" font-family="Helvetica,sans-Serif" font-size="10.00" fill="grey">items</text>
</g>
<!-- Node3 -->
<g id="Node000003" class="node">
<title>Node3</title>
<g id="a_Node000003"><a xlink:href="struct_p_g_b___list_view_model.html" target="_top" xlink:title=" ">
<polygon fill="white" stroke="#666666" points="189.75,-91.75 83.75,-91.75 83.75,-72.5 189.75,-72.5 189.75,-91.75"/>
<text xml:space="preserve" text-anchor="middle" x="136.75" y="-78.25" font-family="Helvetica,sans-Serif" font-size="10.00">PGB_ListViewModel</text>
</a>
</g>
</g>
<!-- Node3&#45;&gt;Node1 -->
<g id="edge2_Node000001_Node000003" class="edge">
<title>Node3&#45;&gt;Node1</title>
<g id="a_edge2_Node000001_Node000003"><a xlink:title=" ">
<path fill="none" stroke="#9a32cd" stroke-dasharray="5,2" d="M136.75,-61.05C136.75,-47.44 136.75,-30.1 136.75,-19.7"/>
<polygon fill="#9a32cd" stroke="#9a32cd" points="133.25,-60.68 136.75,-70.68 140.25,-60.68 133.25,-60.68"/>
</a>
</g>
<text xml:space="preserve" text-anchor="start" x="139.75" y="-42" font-family="Helvetica,sans-Serif" font-size="10.00" fill="grey">model</text>
</g>
<!-- Node4 -->
<g id="Node000004" class="node">
<title>Node4</title>
<g id="a_Node000004"><a xlink:href="struct_p_g_b___list_view_scroll.html" target="_top" xlink:title=" ">
<polygon fill="white" stroke="#666666" points="312,-91.75 207.5,-91.75 207.5,-72.5 312,-72.5 312,-91.75"/>
<text xml:space="preserve" text-anchor="middle" x="259.75" y="-78.25" font-family="Helvetica,sans-Serif" font-size="10.00">PGB_ListViewScroll</text>
</a>
</g>
</g>
<!-- Node4&#45;&gt;Node1 -->
<g id="edge3_Node000001_Node000004" class="edge">
<title>Node4&#45;&gt;Node1</title>
<g id="a_edge3_Node000001_Node000004"><a xlink:title=" ">
<path fill="none" stroke="#9a32cd" stroke-dasharray="5,2" d="M234.18,-66.47C209.58,-52.37 173.15,-31.49 152.52,-19.66"/>
<polygon fill="#9a32cd" stroke="#9a32cd" points="232.19,-69.36 242.61,-71.3 235.67,-63.29 232.19,-69.36"/>
</a>
</g>
<text xml:space="preserve" text-anchor="start" x="215.88" y="-42" font-family="Helvetica,sans-Serif" font-size="10.00" fill="grey">scroll</text>
</g>
</g>
</svg>
