<?xml version="1.0" encoding="UTF-8" standalone="no"?>
<!DOCTYPE svg PUBLIC "-//W3C//DTD SVG 1.1//EN"
 "http://www.w3.org/Graphics/SVG/1.1/DTD/svg11.dtd">
<!-- Generated by graphviz version 13.1.0 (20250701.0955)
 -->
<!-- Title: PGB_GameSceneContext Pages: 1 -->
<svg width="1481pt" height="948pt"
 viewBox="0.00 0.00 1481.00 948.00" xmlns="http://www.w3.org/2000/svg" xmlns:xlink="http://www.w3.org/1999/xlink">
<g id="graph0" class="graph" transform="scale(1 1) rotate(0) translate(4 943.62)">
<title>PGB_GameSceneContext</title>
<!-- Node1 -->
<g id="Node000001" class="node">
<title>Node1</title>
<g id="a_Node000001"><a xlink:title=" ">
<polygon fill="#999999" stroke="#666666" points="740,-859.62 609.25,-859.62 609.25,-840.38 740,-840.38 740,-859.62"/>
<text xml:space="preserve" text-anchor="middle" x="674.62" y="-846.12" font-family="Helvetica,sans-Serif" font-size="10.00">PGB_GameSceneContext</text>
</a>
</g>
</g>
<!-- Node2 -->
<g id="Node000002" class="node">
<title>Node2</title>
<g id="a_Node000002"><a xlink:href="struct_p_g_b___game_scene.html" target="_top" xlink:title=" ">
<polygon fill="white" stroke="#666666" points="912.75,-763.62 816.5,-763.62 816.5,-744.38 912.75,-744.38 912.75,-763.62"/>
<text xml:space="preserve" text-anchor="middle" x="864.62" y="-750.12" font-family="Helvetica,sans-Serif" font-size="10.00">PGB_GameScene</text>
</a>
</g>
</g>
<!-- Node1&#45;&gt;Node2 -->
<g id="edge4_Node000002_Node000001" class="edge">
<title>Node1&#45;&gt;Node2</title>
<g id="a_edge4_Node000002_Node000001"><a xlink:title=" ">
<path fill="none" stroke="#9a32cd" stroke-dasharray="5,2" d="M751.52,-847.64C767.75,-844.79 784.28,-839.96 798.5,-832 827.59,-815.71 849.23,-780.96 858.56,-763.89"/>
<polygon fill="#9a32cd" stroke="#9a32cd" points="751.22,-844.14 741.85,-849.09 752.26,-851.07 751.22,-844.14"/>
</a>
</g>
<text xml:space="preserve" text-anchor="start" x="762.12" y="-850.57" font-family="Helvetica,sans-Serif" font-size="10.00" fill="grey">context</text>
</g>
<!-- Node2&#45;&gt;Node1 -->
<g id="edge1_Node000001_Node000002" class="edge">
<title>Node2&#45;&gt;Node1</title>
<g id="a_edge1_Node000001_Node000002"><a xlink:title=" ">
<path fill="none" stroke="#9a32cd" stroke-dasharray="5,2" d="M835.09,-769.27C813.54,-781.08 783.42,-798.16 758,-814.75 749.68,-820.18 748.8,-823.4 740,-828 731.1,-832.65 721.02,-836.64 711.51,-839.89"/>
<polygon fill="#9a32cd" stroke="#9a32cd" points="836.49,-772.5 843.6,-764.64 833.14,-766.35 836.49,-772.5"/>
</a>
</g>
<text xml:space="preserve" text-anchor="start" x="765.12" y="-819.5" font-family="Helvetica,sans-Serif" font-size="10.00" fill="grey">scene</text>
</g>
<!-- Node3 -->
<g id="Node000003" class="node">
<title>Node3</title>
<g id="a_Node000003"><a xlink:href="struct_p_g_b___scene.html" target="_top" xlink:title=" ">
<polygon fill="white" stroke="#666666" points="709.62,-783.62 639.62,-783.62 639.62,-764.38 709.62,-764.38 709.62,-783.62"/>
<text xml:space="preserve" text-anchor="middle" x="674.62" y="-770.12" font-family="Helvetica,sans-Serif" font-size="10.00">PGB_Scene</text>
</a>
</g>
</g>
<!-- Node3&#45;&gt;Node2 -->
<g id="edge2_Node000002_Node000003" class="edge">
<title>Node3&#45;&gt;Node2</title>
<g id="a_edge2_Node000002_Node000003"><a xlink:title=" ">
<path fill="none" stroke="#9a32cd" stroke-dasharray="5,2" d="M721.48,-769.12C750.24,-766.06 787.23,-762.13 816.26,-759.04"/>
<polygon fill="#9a32cd" stroke="#9a32cd" points="721.19,-765.63 711.61,-770.17 721.93,-772.59 721.19,-765.63"/>
</a>
</g>
<text xml:space="preserve" text-anchor="start" x="765.12" y="-769.95" font-family="Helvetica,sans-Serif" font-size="10.00" fill="grey">scene</text>
</g>
<!-- Node3&#45;&gt;Node3 -->
<g id="edge3_Node000003_Node000003" class="edge">
<title>Node3&#45;&gt;Node3</title>
<g id="a_edge3_Node000003_Node000003"><a xlink:title=" ">
<path fill="none" stroke="#9a32cd" stroke-dasharray="5,2" d="M656.23,-795.03C658.53,-798.9 664.66,-801.62 674.62,-801.62 692.84,-801.62 698.25,-792.52 690.85,-783.91"/>
<polygon fill="#9a32cd" stroke="#9a32cd" points="659.63,-795.88 658.11,-785.4 652.76,-794.54 659.63,-795.88"/>
</a>
</g>
<text xml:space="preserve" text-anchor="start" x="647.25" y="-806.38" font-family="Helvetica,sans-Serif" font-size="10.00" fill="grey">parentScene</text>
</g>
<!-- Node4 -->
<g id="Node000004" class="node">
<title>Node4</title>
<g id="a_Node000004"><a xlink:href="struct_p_g_b___game_scene_model.html" target="_top" xlink:title=" ">
<polygon fill="white" stroke="#666666" points="735.88,-743.62 613.38,-743.62 613.38,-724.38 735.88,-724.38 735.88,-743.62"/>
<text xml:space="preserve" text-anchor="middle" x="674.62" y="-730.12" font-family="Helvetica,sans-Serif" font-size="10.00">PGB_GameSceneModel</text>
</a>
</g>
</g>
<!-- Node4&#45;&gt;Node2 -->
<g id="edge5_Node000002_Node000004" class="edge">
<title>Node4&#45;&gt;Node2</title>
<g id="a_edge5_Node000002_Node000004"><a xlink:title=" ">
<path fill="none" stroke="#9a32cd" stroke-dasharray="5,2" d="M747.54,-735.33C764.31,-736.2 782.07,-737.58 798.5,-739.75 806.3,-740.78 814.56,-742.27 822.47,-743.9"/>
<polygon fill="#9a32cd" stroke="#9a32cd" points="747.78,-731.84 737.63,-734.87 747.46,-738.83 747.78,-731.84"/>
</a>
</g>
<text xml:space="preserve" text-anchor="start" x="765.12" y="-744.5" font-family="Helvetica,sans-Serif" font-size="10.00" fill="grey">model</text>
</g>
<!-- Node5 -->
<g id="Node000005" class="node">
<title>Node5</title>
<g id="a_Node000005"><a xlink:href="struct_p_g_b___crank_selector.html" target="_top" xlink:title=" ">
<polygon fill="white" stroke="#666666" points="726.88,-703.62 622.38,-703.62 622.38,-684.38 726.88,-684.38 726.88,-703.62"/>
<text xml:space="preserve" text-anchor="middle" x="674.62" y="-690.12" font-family="Helvetica,sans-Serif" font-size="10.00">PGB_CrankSelector</text>
</a>
</g>
</g>
<!-- Node5&#45;&gt;Node2 -->
<g id="edge6_Node000002_Node000005" class="edge">
<title>Node5&#45;&gt;Node2</title>
<g id="a_edge6_Node000002_Node000005"><a xlink:title=" ">
<path fill="none" stroke="#9a32cd" stroke-dasharray="5,2" d="M738.56,-700C758.16,-703.09 779.59,-707.74 798.5,-714.75 817.81,-721.91 837.77,-734.91 850.42,-743.99"/>
<polygon fill="#9a32cd" stroke="#9a32cd" points="739.15,-696.55 728.75,-698.58 738.15,-703.48 739.15,-696.55"/>
</a>
</g>
<text xml:space="preserve" text-anchor="start" x="761" y="-719.5" font-family="Helvetica,sans-Serif" font-size="10.00" fill="grey">selector</text>
</g>
<!-- Node6 -->
<g id="Node000006" class="node">
<title>Node6</title>
<g id="a_Node000006"><a xlink:href="structlua___state.html" target="_top" xlink:title=" ">
<polygon fill="white" stroke="#666666" points="703.25,-547.62 646,-547.62 646,-528.38 703.25,-528.38 703.25,-547.62"/>
<text xml:space="preserve" text-anchor="middle" x="674.62" y="-534.12" font-family="Helvetica,sans-Serif" font-size="10.00">lua_State</text>
</a>
</g>
</g>
<!-- Node6&#45;&gt;Node2 -->
<g id="edge7_Node000002_Node000006" class="edge">
<title>Node6&#45;&gt;Node2</title>
<g id="a_edge7_Node000002_Node000006"><a xlink:title=" ">
<path fill="none" stroke="#9a32cd" stroke-dasharray="5,2" d="M691.64,-556.4C729.93,-600.39 825.75,-710.49 855.01,-744.1"/>
<polygon fill="#9a32cd" stroke="#9a32cd" points="694.39,-554.23 685.19,-548.98 689.11,-558.82 694.39,-554.23"/>
</a>
</g>
<text xml:space="preserve" text-anchor="start" x="766.25" y="-682.72" font-family="Helvetica,sans-Serif" font-size="10.00" fill="grey">script</text>
</g>
<!-- Node6&#45;&gt;Node6 -->
<g id="edge37_Node000006_Node000006" class="edge">
<title>Node6&#45;&gt;Node6</title>
<g id="a_edge37_Node000006_Node000006"><a xlink:title=" ">
<path fill="none" stroke="#9a32cd" stroke-dasharray="5,2" d="M656.23,-559.03C658.53,-562.9 664.66,-565.62 674.62,-565.62 692.84,-565.62 698.25,-556.52 690.85,-547.91"/>
<polygon fill="#9a32cd" stroke="#9a32cd" points="659.63,-559.88 658.11,-549.4 652.76,-558.54 659.63,-559.88"/>
</a>
</g>
<text xml:space="preserve" text-anchor="start" x="661.5" y="-570.38" font-family="Helvetica,sans-Serif" font-size="10.00" fill="grey">twups</text>
</g>
<!-- Node10 -->
<g id="Node000010" class="node">
<title>Node10</title>
<g id="a_Node000010"><a xlink:href="structglobal___state.html" target="_top" xlink:title=" ">
<polygon fill="white" stroke="#666666" points="1473.25,-395.62 1403.25,-395.62 1403.25,-376.38 1473.25,-376.38 1473.25,-395.62"/>
<text xml:space="preserve" text-anchor="middle" x="1438.25" y="-382.12" font-family="Helvetica,sans-Serif" font-size="10.00">global_State</text>
</a>
</g>
</g>
<!-- Node6&#45;&gt;Node10 -->
<g id="edge17_Node000010_Node000006" class="edge">
<title>Node6&#45;&gt;Node10</title>
<g id="a_edge17_Node000010_Node000006"><a xlink:title=" ">
<path fill="none" stroke="#9a32cd" stroke-dasharray="5,2" d="M715.13,-544.36C728.68,-546.25 743.97,-548.07 758,-549 775.96,-550.19 780.5,-549.08 798.5,-549 1044.2,-547.92 1120.89,-576.14 1347,-480 1388.01,-462.56 1419.35,-416.3 1431.61,-395.9"/>
<polygon fill="#9a32cd" stroke="#9a32cd" points="715.64,-540.9 705.24,-542.91 714.63,-547.82 715.64,-540.9"/>
</a>
</g>
<text xml:space="preserve" text-anchor="start" x="1095.25" y="-584.4" font-family="Helvetica,sans-Serif" font-size="10.00" fill="grey">mainthread</text>
<text xml:space="preserve" text-anchor="start" x="1095.25" y="-569.15" font-family="Helvetica,sans-Serif" font-size="10.00" fill="grey">panic</text>
<text xml:space="preserve" text-anchor="start" x="1095.25" y="-553.9" font-family="Helvetica,sans-Serif" font-size="10.00" fill="grey">twups</text>
</g>
<!-- Node17 -->
<g id="Node000017" class="node">
<title>Node17</title>
<g id="a_Node000017"><a xlink:href="union_value.html" target="_top" xlink:title=" ">
<polygon fill="white" stroke="#666666" points="884.62,-352.62 844.62,-352.62 844.62,-333.38 884.62,-333.38 884.62,-352.62"/>
<text xml:space="preserve" text-anchor="middle" x="864.62" y="-339.12" font-family="Helvetica,sans-Serif" font-size="10.00">Value</text>
</a>
</g>
</g>
<!-- Node6&#45;&gt;Node17 -->
<g id="edge25_Node000017_Node000006" class="edge">
<title>Node6&#45;&gt;Node17</title>
<g id="a_edge25_Node000017_Node000006"><a xlink:title=" ">
<path fill="none" stroke="#9a32cd" stroke-dasharray="5,2" d="M698.47,-521.1C711.56,-510.72 727.77,-496.64 740,-482 750.03,-469.99 748.48,-464.17 758,-451.75 788.41,-412.05 831.87,-371.38 852.25,-353.04"/>
<polygon fill="#9a32cd" stroke="#9a32cd" points="696.56,-518.15 690.78,-527.03 700.84,-523.69 696.56,-518.15"/>
</a>
</g>
<text xml:space="preserve" text-anchor="start" x="776.75" y="-456.5" font-family="Helvetica,sans-Serif" font-size="10.00" fill="grey">f</text>
</g>
<!-- Node18 -->
<g id="Node000018" class="node">
<title>Node18</title>
<g id="a_Node000018"><a xlink:href="struct_call_info.html" target="_top" xlink:title=" ">
<polygon fill="white" stroke="#666666" points="889.5,-488.62 839.75,-488.62 839.75,-469.38 889.5,-469.38 889.5,-488.62"/>
<text xml:space="preserve" text-anchor="middle" x="864.62" y="-475.12" font-family="Helvetica,sans-Serif" font-size="10.00">CallInfo</text>
</a>
</g>
</g>
<!-- Node6&#45;&gt;Node18 -->
<g id="edge32_Node000018_Node000006" class="edge">
<title>Node6&#45;&gt;Node18</title>
<g id="a_edge32_Node000018_Node000006"><a xlink:title=" ">
<path fill="none" stroke="#9a32cd" stroke-dasharray="5,2" d="M693.22,-520.24C708.74,-505.92 732.77,-486.88 758,-478.75 784.88,-470.09 817.64,-471.94 839.48,-474.79"/>
<polygon fill="#9a32cd" stroke="#9a32cd" points="691,-517.51 686.21,-526.96 695.85,-522.57 691,-517.51"/>
</a>
</g>
<text xml:space="preserve" text-anchor="start" x="775.62" y="-483.5" font-family="Helvetica,sans-Serif" font-size="10.00" fill="grey">k</text>
</g>
<!-- Node7 -->
<g id="Node000007" class="node">
<title>Node7</title>
<g id="a_Node000007"><a xlink:href="union_stk_id_rel.html" target="_top" xlink:title=" ">
<polygon fill="white" stroke="#666666" points="515.5,-455.62 461.25,-455.62 461.25,-436.38 515.5,-436.38 515.5,-455.62"/>
<text xml:space="preserve" text-anchor="middle" x="488.38" y="-442.12" font-family="Helvetica,sans-Serif" font-size="10.00">StkIdRel</text>
</a>
</g>
</g>
<!-- Node7&#45;&gt;Node6 -->
<g id="edge8_Node000006_Node000007" class="edge">
<title>Node7&#45;&gt;Node6</title>
<g id="a_edge8_Node000006_Node000007"><a xlink:title=" ">
<path fill="none" stroke="#9a32cd" stroke-dasharray="5,2" d="M526.78,-455.64C546.51,-461.42 570.8,-469.67 591.25,-480 618.26,-493.64 646.38,-515.33 661.78,-527.97"/>
<polygon fill="#9a32cd" stroke="#9a32cd" points="527.78,-452.28 517.21,-452.93 525.88,-459.02 527.78,-452.28"/>
</a>
</g>
<text xml:space="preserve" text-anchor="start" x="543.25" y="-530.5" font-family="Helvetica,sans-Serif" font-size="10.00" fill="grey">stack</text>
<text xml:space="preserve" text-anchor="start" x="543.25" y="-515.25" font-family="Helvetica,sans-Serif" font-size="10.00" fill="grey">stack_last</text>
<text xml:space="preserve" text-anchor="start" x="543.25" y="-500" font-family="Helvetica,sans-Serif" font-size="10.00" fill="grey">tbclist</text>
<text xml:space="preserve" text-anchor="start" x="543.25" y="-484.75" font-family="Helvetica,sans-Serif" font-size="10.00" fill="grey">top</text>
</g>
<!-- Node7&#45;&gt;Node18 -->
<g id="edge30_Node000018_Node000007" class="edge">
<title>Node7&#45;&gt;Node18</title>
<g id="a_edge30_Node000018_Node000007"><a xlink:title=" ">
<path fill="none" stroke="#9a32cd" stroke-dasharray="5,2" d="M527.12,-447.86C585.45,-450.94 700.95,-457.9 798.5,-469 812.03,-470.54 827.05,-472.81 839.25,-474.8"/>
<polygon fill="#9a32cd" stroke="#9a32cd" points="527.58,-444.38 517.42,-447.35 527.22,-451.37 527.58,-444.38"/>
</a>
</g>
<text xml:space="preserve" text-anchor="start" x="665.25" y="-482.76" font-family="Helvetica,sans-Serif" font-size="10.00" fill="grey">func</text>
<text xml:space="preserve" text-anchor="start" x="665.25" y="-467.51" font-family="Helvetica,sans-Serif" font-size="10.00" fill="grey">top</text>
</g>
<!-- Node8 -->
<g id="Node000008" class="node">
<title>Node8</title>
<g id="a_Node000008"><a xlink:href="union_stack_value.html" target="_top" xlink:title=" ">
<polygon fill="white" stroke="#666666" points="352.5,-447.62 287,-447.62 287,-428.38 352.5,-428.38 352.5,-447.62"/>
<text xml:space="preserve" text-anchor="middle" x="319.75" y="-434.12" font-family="Helvetica,sans-Serif" font-size="10.00">StackValue</text>
</a>
</g>
</g>
<!-- Node8&#45;&gt;Node7 -->
<g id="edge9_Node000007_Node000008" class="edge">
<title>Node8&#45;&gt;Node7</title>
<g id="a_edge9_Node000007_Node000008"><a xlink:title=" ">
<path fill="none" stroke="#9a32cd" stroke-dasharray="5,2" d="M364.11,-440.08C394.75,-441.55 434.83,-443.48 460.83,-444.73"/>
<polygon fill="#9a32cd" stroke="#9a32cd" points="364.55,-436.6 354.39,-439.62 364.21,-443.59 364.55,-436.6"/>
</a>
</g>
<text xml:space="preserve" text-anchor="start" x="405.75" y="-448.16" font-family="Helvetica,sans-Serif" font-size="10.00" fill="grey">p</text>
</g>
<!-- Node9 -->
<g id="Node000009" class="node">
<title>Node9</title>
<g id="a_Node000009"><a xlink:href="struct_t_value.html" target="_top" xlink:title=" ">
<polygon fill="white" stroke="#666666" points="209,-402.62 163,-402.62 163,-383.38 209,-383.38 209,-402.62"/>
<text xml:space="preserve" text-anchor="middle" x="186" y="-389.12" font-family="Helvetica,sans-Serif" font-size="10.00">TValue</text>
</a>
</g>
</g>
<!-- Node9&#45;&gt;Node8 -->
<g id="edge10_Node000008_Node000009" class="edge">
<title>Node9&#45;&gt;Node8</title>
<g id="a_edge10_Node000008_Node000009"><a xlink:title=" ">
<path fill="none" stroke="#9a32cd" stroke-dasharray="5,2" d="M220.16,-404.64C222.47,-405.44 224.77,-406.23 227,-407 247.51,-414.05 270.65,-421.87 288.56,-427.89"/>
<polygon fill="#9a32cd" stroke="#9a32cd" points="221.43,-401.37 210.84,-401.39 219.13,-407.99 221.43,-401.37"/>
</a>
</g>
<text xml:space="preserve" text-anchor="start" x="236.75" y="-422.07" font-family="Helvetica,sans-Serif" font-size="10.00" fill="grey">val</text>
</g>
<!-- Node9&#45;&gt;Node10 -->
<g id="edge15_Node000010_Node000009" class="edge">
<title>Node9&#45;&gt;Node10</title>
<g id="a_edge15_Node000010_Node000009"><a xlink:title=" ">
<path fill="none" stroke="#9a32cd" stroke-dasharray="5,2" d="M186.6,-371.44C186.47,-324.14 190.28,-208.5 227,-121 253.12,-58.77 251.26,0 318.75,0 318.75,0 318.75,0 1317.5,0 1398.72,0 1430.97,-315.65 1436.4,-376.07"/>
<polygon fill="#9a32cd" stroke="#9a32cd" points="183.1,-371.41 186.7,-381.38 190.1,-371.34 183.1,-371.41"/>
</a>
</g>
<text xml:space="preserve" text-anchor="start" x="844.75" y="-20" font-family="Helvetica,sans-Serif" font-size="10.00" fill="grey">l_registry</text>
<text xml:space="preserve" text-anchor="start" x="844.75" y="-4.75" font-family="Helvetica,sans-Serif" font-size="10.00" fill="grey">nilvalue</text>
</g>
<!-- Node14 -->
<g id="Node000014" class="node">
<title>Node14</title>
<g id="a_Node000014"><a xlink:href="struct_table.html" target="_top" xlink:title=" ">
<polygon fill="white" stroke="#666666" points="1336.12,-314.62 1296.88,-314.62 1296.88,-295.38 1336.12,-295.38 1336.12,-314.62"/>
<text xml:space="preserve" text-anchor="middle" x="1316.5" y="-301.12" font-family="Helvetica,sans-Serif" font-size="10.00">Table</text>
</a>
</g>
</g>
<!-- Node9&#45;&gt;Node14 -->
<g id="edge20_Node000014_Node000009" class="edge">
<title>Node9&#45;&gt;Node14</title>
<g id="a_edge20_Node000014_Node000009"><a xlink:title=" ">
<path fill="none" stroke="#9a32cd" stroke-dasharray="5,2" d="M190.65,-371.73C203.81,-298.45 251.62,-61 318.75,-61 318.75,-61 318.75,-61 1189,-61 1296.36,-61 1312.72,-249.48 1315.11,-295.13"/>
<polygon fill="#9a32cd" stroke="#9a32cd" points="187.2,-371.12 188.92,-381.57 194.1,-372.33 187.2,-371.12"/>
</a>
</g>
<text xml:space="preserve" text-anchor="start" x="767.38" y="-65.75" font-family="Helvetica,sans-Serif" font-size="10.00" fill="grey">array</text>
</g>
<!-- Node15 -->
<g id="Node000015" class="node">
<title>Node15</title>
<g id="a_Node000015"><a xlink:href="union_node.html" target="_top" xlink:title=" ">
<polygon fill="white" stroke="#666666" points="1207.62,-352.62 1168.38,-352.62 1168.38,-333.38 1207.62,-333.38 1207.62,-352.62"/>
<text xml:space="preserve" text-anchor="middle" x="1188" y="-339.12" font-family="Helvetica,sans-Serif" font-size="10.00">Node</text>
</a>
</g>
</g>
<!-- Node9&#45;&gt;Node15 -->
<g id="edge26_Node000015_Node000009" class="edge">
<title>Node9&#45;&gt;Node15</title>
<g id="a_edge26_Node000015_Node000009"><a xlink:title=" ">
<path fill="none" stroke="#9a32cd" stroke-dasharray="5,2" d="M220.74,-393C247.36,-393 285.43,-393 318.75,-393 318.75,-393 318.75,-393 566.75,-393 824.63,-393 897.23,-431.02 1146.25,-364 1155.01,-361.64 1164.05,-357.22 1171.38,-353.04"/>
<polygon fill="#9a32cd" stroke="#9a32cd" points="220.89,-389.5 210.89,-393 220.89,-396.5 220.89,-389.5"/>
</a>
</g>
<text xml:space="preserve" text-anchor="start" x="664.5" y="-402.95" font-family="Helvetica,sans-Serif" font-size="10.00" fill="grey">i_val</text>
</g>
<!-- Node19 -->
<g id="Node000019" class="node">
<title>Node19</title>
<g id="a_Node000019"><a xlink:href="struct_up_val.html" target="_top" xlink:title=" ">
<polygon fill="white" stroke="#666666" points="429.5,-526.62 387.25,-526.62 387.25,-507.38 429.5,-507.38 429.5,-526.62"/>
<text xml:space="preserve" text-anchor="middle" x="408.38" y="-513.12" font-family="Helvetica,sans-Serif" font-size="10.00">UpVal</text>
</a>
</g>
</g>
<!-- Node9&#45;&gt;Node19 -->
<g id="edge34_Node000019_Node000009" class="edge">
<title>Node9&#45;&gt;Node19</title>
<g id="a_edge34_Node000019_Node000009"><a xlink:title=" ">
<path fill="none" stroke="#9a32cd" stroke-dasharray="5,2" d="M200.38,-412.04C207.48,-421.11 216.84,-431.57 227,-439 278.77,-476.87 351.78,-501.19 386.91,-511.43"/>
<polygon fill="#9a32cd" stroke="#9a32cd" points="203.3,-410.11 194.53,-404.17 197.69,-414.28 203.3,-410.11"/>
</a>
</g>
<text xml:space="preserve" text-anchor="start" x="231.5" y="-479.56" font-family="Helvetica,sans-Serif" font-size="10.00" fill="grey">p</text>
<text xml:space="preserve" text-anchor="start" x="231.5" y="-464.31" font-family="Helvetica,sans-Serif" font-size="10.00" fill="grey">value</text>
</g>
<!-- Node10&#45;&gt;Node6 -->
<g id="edge11_Node000006_Node000010" class="edge">
<title>Node10&#45;&gt;Node6</title>
<g id="a_edge11_Node000006_Node000010"><a xlink:title=" ">
<path fill="none" stroke="#9a32cd" stroke-dasharray="5,2" d="M1436.26,-407.48C1432.32,-465.49 1412.86,-621 1317.5,-621 863.62,-621 863.62,-621 863.62,-621 791.91,-621 716.91,-569.83 688,-547.85"/>
<polygon fill="#9a32cd" stroke="#9a32cd" points="1439.75,-407.79 1436.83,-397.61 1432.76,-407.39 1439.75,-407.79"/>
</a>
</g>
<text xml:space="preserve" text-anchor="start" x="1111.75" y="-625.75" font-family="Helvetica,sans-Serif" font-size="10.00" fill="grey">l_G</text>
</g>
<!-- Node11 -->
<g id="Node000011" class="node">
<title>Node11</title>
<g id="a_Node000011"><a xlink:href="structstringtable.html" target="_top" xlink:title=" ">
<polygon fill="white" stroke="#666666" points="1347,-470.62 1286,-470.62 1286,-451.38 1347,-451.38 1347,-470.62"/>
<text xml:space="preserve" text-anchor="middle" x="1316.5" y="-457.12" font-family="Helvetica,sans-Serif" font-size="10.00">stringtable</text>
</a>
</g>
</g>
<!-- Node11&#45;&gt;Node10 -->
<g id="edge12_Node000010_Node000011" class="edge">
<title>Node11&#45;&gt;Node10</title>
<g id="a_edge12_Node000010_Node000011"><a xlink:title=" ">
<path fill="none" stroke="#9a32cd" stroke-dasharray="5,2" d="M1343.4,-444.78C1367.11,-429.93 1401.46,-408.42 1421.36,-395.95"/>
<polygon fill="#9a32cd" stroke="#9a32cd" points="1341.55,-441.81 1334.93,-450.08 1345.27,-447.74 1341.55,-441.81"/>
</a>
</g>
<text xml:space="preserve" text-anchor="start" x="1368" y="-434.97" font-family="Helvetica,sans-Serif" font-size="10.00" fill="grey">strt</text>
</g>
<!-- Node12 -->
<g id="Node000012" class="node">
<title>Node12</title>
<g id="a_Node000012"><a xlink:href="struct_t_string.html" target="_top" xlink:title=" ">
<polygon fill="white" stroke="#666666" points="1211.75,-414.62 1164.25,-414.62 1164.25,-395.38 1211.75,-395.38 1211.75,-414.62"/>
<text xml:space="preserve" text-anchor="middle" x="1188" y="-401.12" font-family="Helvetica,sans-Serif" font-size="10.00">TString</text>
</a>
</g>
</g>
<!-- Node12&#45;&gt;Node10 -->
<g id="edge18_Node000010_Node000012" class="edge">
<title>Node12&#45;&gt;Node10</title>
<g id="a_edge18_Node000010_Node000012"><a xlink:title=" ">
<path fill="none" stroke="#9a32cd" stroke-dasharray="5,2" d="M1223.5,-400.7C1242.01,-398.52 1265.22,-395.97 1286,-394.25 1326.1,-390.94 1372.29,-388.64 1402.97,-387.32"/>
<polygon fill="#9a32cd" stroke="#9a32cd" points="1223.11,-397.22 1213.59,-401.89 1223.94,-404.17 1223.11,-397.22"/>
</a>
</g>
<text xml:space="preserve" text-anchor="start" x="1290.62" y="-429.5" font-family="Helvetica,sans-Serif" font-size="10.00" fill="grey">memerrmsg</text>
<text xml:space="preserve" text-anchor="start" x="1290.62" y="-414.25" font-family="Helvetica,sans-Serif" font-size="10.00" fill="grey">strcache</text>
<text xml:space="preserve" text-anchor="start" x="1290.62" y="-399" font-family="Helvetica,sans-Serif" font-size="10.00" fill="grey">tmname</text>
</g>
<!-- Node12&#45;&gt;Node11 -->
<g id="edge13_Node000011_Node000012" class="edge">
<title>Node12&#45;&gt;Node11</title>
<g id="a_edge13_Node000011_Node000012"><a xlink:title=" ">
<path fill="none" stroke="#9a32cd" stroke-dasharray="5,2" d="M1221.93,-419.58C1244.15,-429.42 1272.92,-442.15 1292.65,-450.89"/>
<polygon fill="#9a32cd" stroke="#9a32cd" points="1223.56,-416.47 1213,-415.62 1220.73,-422.87 1223.56,-416.47"/>
</a>
</g>
<text xml:space="preserve" text-anchor="start" x="1238.38" y="-444.41" font-family="Helvetica,sans-Serif" font-size="10.00" fill="grey">hash</text>
</g>
<!-- Node12&#45;&gt;Node12 -->
<g id="edge14_Node000012_Node000012" class="edge">
<title>Node12&#45;&gt;Node12</title>
<g id="a_edge14_Node000012_Node000012"><a xlink:title=" ">
<path fill="none" stroke="#9a32cd" stroke-dasharray="5,2" d="M1177.32,-426.36C1178.75,-430.06 1182.32,-432.62 1188,-432.62 1198.7,-432.62 1201.88,-423.52 1197.53,-414.91"/>
<polygon fill="#9a32cd" stroke="#9a32cd" points="1180.8,-426.72 1178.32,-416.42 1173.83,-426.02 1180.8,-426.72"/>
</a>
</g>
<text xml:space="preserve" text-anchor="start" x="1176" y="-437.38" font-family="Helvetica,sans-Serif" font-size="10.00" fill="grey">hnext</text>
</g>
<!-- Node13 -->
<g id="Node000013" class="node">
<title>Node13</title>
<g id="a_Node000013"><a xlink:href="struct_g_c_object.html" target="_top" xlink:title=" ">
<polygon fill="white" stroke="#666666" points="518.12,-320.62 458.62,-320.62 458.62,-301.38 518.12,-301.38 518.12,-320.62"/>
<text xml:space="preserve" text-anchor="middle" x="488.38" y="-307.12" font-family="Helvetica,sans-Serif" font-size="10.00">GCObject</text>
</a>
</g>
</g>
<!-- Node13&#45;&gt;Node6 -->
<g id="edge36_Node000006_Node000013" class="edge">
<title>Node13&#45;&gt;Node6</title>
<g id="a_edge36_Node000006_Node000013"><a xlink:title=" ">
<path fill="none" stroke="#9a32cd" stroke-dasharray="5,2" d="M506.67,-329.24C528.52,-353 566.28,-396.49 591.25,-438.75 601.84,-456.67 597.07,-465.11 609.25,-482 622.94,-500.99 644.25,-517.87 658.56,-528.01"/>
<polygon fill="#9a32cd" stroke="#9a32cd" points="509.29,-326.91 499.91,-321.98 504.16,-331.69 509.29,-326.91"/>
</a>
</g>
<text xml:space="preserve" text-anchor="start" x="554.12" y="-443.5" font-family="Helvetica,sans-Serif" font-size="10.00" fill="grey">gclist</text>
</g>
<!-- Node13&#45;&gt;Node10 -->
<g id="edge16_Node000010_Node000013" class="edge">
<title>Node13&#45;&gt;Node10</title>
<g id="a_edge16_Node000010_Node000013"><a xlink:title=" ">
<path fill="none" stroke="#9a32cd" stroke-dasharray="5,2" d="M496.61,-290.31C516.21,-238.45 575.56,-107 673.62,-107 673.62,-107 673.62,-107 1317.5,-107 1437.15,-107 1438.76,-326.37 1437.59,-376.07"/>
<polygon fill="#9a32cd" stroke="#9a32cd" points="493.41,-288.87 493.27,-299.46 499.99,-291.27 493.41,-288.87"/>
</a>
</g>
<text xml:space="preserve" text-anchor="start" x="1007.38" y="-264.25" font-family="Helvetica,sans-Serif" font-size="10.00" fill="grey">allgc</text>
<text xml:space="preserve" text-anchor="start" x="1007.38" y="-249" font-family="Helvetica,sans-Serif" font-size="10.00" fill="grey">allweak</text>
<text xml:space="preserve" text-anchor="start" x="1007.38" y="-233.75" font-family="Helvetica,sans-Serif" font-size="10.00" fill="grey">ephemeron</text>
<text xml:space="preserve" text-anchor="start" x="1007.38" y="-218.5" font-family="Helvetica,sans-Serif" font-size="10.00" fill="grey">finobj</text>
<text xml:space="preserve" text-anchor="start" x="1007.38" y="-203.25" font-family="Helvetica,sans-Serif" font-size="10.00" fill="grey">finobjold1</text>
<text xml:space="preserve" text-anchor="start" x="1007.38" y="-188" font-family="Helvetica,sans-Serif" font-size="10.00" fill="grey">finobjrold</text>
<text xml:space="preserve" text-anchor="start" x="1007.38" y="-172.75" font-family="Helvetica,sans-Serif" font-size="10.00" fill="grey">finobjsur</text>
<text xml:space="preserve" text-anchor="start" x="1007.38" y="-157.5" font-family="Helvetica,sans-Serif" font-size="10.00" fill="grey">firstold1</text>
<text xml:space="preserve" text-anchor="start" x="1007.38" y="-142.25" font-family="Helvetica,sans-Serif" font-size="10.00" fill="grey">fixedgc</text>
<text xml:space="preserve" text-anchor="start" x="1007.38" y="-127" font-family="Helvetica,sans-Serif" font-size="10.00" fill="grey">gray</text>
<text xml:space="preserve" text-anchor="start" x="1007.38" y="-111.75" font-family="Helvetica,sans-Serif" font-size="10.00" fill="grey"> &#160;...</text>
</g>
<!-- Node13&#45;&gt;Node14 -->
<g id="edge28_Node000014_Node000013" class="edge">
<title>Node13&#45;&gt;Node14</title>
<g id="a_edge28_Node000014_Node000013"><a xlink:title=" ">
<path fill="none" stroke="#9a32cd" stroke-dasharray="5,2" d="M529.52,-310.71C677.78,-309.63 1191.32,-305.9 1296.57,-305.14"/>
<polygon fill="#9a32cd" stroke="#9a32cd" points="529.78,-307.21 519.81,-310.78 529.83,-314.21 529.78,-307.21"/>
</a>
</g>
<text xml:space="preserve" text-anchor="start" x="939" y="-312.54" font-family="Helvetica,sans-Serif" font-size="10.00" fill="grey">gclist</text>
</g>
<!-- Node13&#45;&gt;Node17 -->
<g id="edge24_Node000017_Node000013" class="edge">
<title>Node13&#45;&gt;Node17</title>
<g id="a_edge24_Node000017_Node000013"><a xlink:title=" ">
<path fill="none" stroke="#9a32cd" stroke-dasharray="5,2" d="M529.49,-314.43C609.4,-321.26 785.75,-336.34 844.31,-341.35"/>
<polygon fill="#9a32cd" stroke="#9a32cd" points="530.2,-310.98 519.94,-313.61 529.6,-317.95 530.2,-310.98"/>
</a>
</g>
<text xml:space="preserve" text-anchor="start" x="669.38" y="-337" font-family="Helvetica,sans-Serif" font-size="10.00" fill="grey">gc</text>
</g>
<!-- Node14&#45;&gt;Node10 -->
<g id="edge19_Node000010_Node000014" class="edge">
<title>Node14&#45;&gt;Node10</title>
<g id="a_edge19_Node000010_Node000014"><a xlink:title=" ">
<path fill="none" stroke="#9a32cd" stroke-dasharray="5,2" d="M1341.72,-321.38C1365.89,-337.73 1402.27,-362.34 1422.45,-375.99"/>
<polygon fill="#9a32cd" stroke="#9a32cd" points="1343.68,-318.48 1333.44,-315.78 1339.76,-324.28 1343.68,-318.48"/>
</a>
</g>
<text xml:space="preserve" text-anchor="start" x="1369.5" y="-355.1" font-family="Helvetica,sans-Serif" font-size="10.00" fill="grey">mt</text>
</g>
<!-- Node14&#45;&gt;Node14 -->
<g id="edge27_Node000014_Node000014" class="edge">
<title>Node14&#45;&gt;Node14</title>
<g id="a_edge27_Node000014_Node000014"><a xlink:title=" ">
<path fill="none" stroke="#9a32cd" stroke-dasharray="5,2" d="M1306.21,-326.36C1307.6,-330.06 1311.03,-332.62 1316.5,-332.62 1326.81,-332.62 1329.86,-323.52 1325.68,-314.91"/>
<polygon fill="#9a32cd" stroke="#9a32cd" points="1309.69,-326.71 1307.18,-316.42 1302.73,-326.03 1309.69,-326.71"/>
</a>
</g>
<text xml:space="preserve" text-anchor="start" x="1295.12" y="-337.38" font-family="Helvetica,sans-Serif" font-size="10.00" fill="grey">metatable</text>
</g>
<!-- Node15&#45;&gt;Node14 -->
<g id="edge21_Node000014_Node000015" class="edge">
<title>Node15&#45;&gt;Node14</title>
<g id="a_edge21_Node000014_Node000015"><a xlink:title=" ">
<path fill="none" stroke="#9a32cd" stroke-dasharray="5,2" d="M1218.91,-334.02C1242.91,-326.81 1275.89,-316.9 1296.43,-310.73"/>
<polygon fill="#9a32cd" stroke="#9a32cd" points="1217.96,-330.65 1209.39,-336.88 1219.97,-337.35 1217.96,-330.65"/>
</a>
</g>
<text xml:space="preserve" text-anchor="start" x="1232.75" y="-350.71" font-family="Helvetica,sans-Serif" font-size="10.00" fill="grey">lastfree</text>
<text xml:space="preserve" text-anchor="start" x="1232.75" y="-335.46" font-family="Helvetica,sans-Serif" font-size="10.00" fill="grey">node</text>
</g>
<!-- Node16 -->
<g id="Node000016" class="node">
<title>Node16</title>
<g id="a_Node000016"><a xlink:href="struct_node_1_1_node_key.html" target="_top" xlink:title=" ">
<polygon fill="white" stroke="#666666" points="1074.25,-352.62 988.5,-352.62 988.5,-333.38 1074.25,-333.38 1074.25,-352.62"/>
<text xml:space="preserve" text-anchor="middle" x="1031.38" y="-339.12" font-family="Helvetica,sans-Serif" font-size="10.00">Node::NodeKey</text>
</a>
</g>
</g>
<!-- Node16&#45;&gt;Node15 -->
<g id="edge22_Node000015_Node000016" class="edge">
<title>Node16&#45;&gt;Node15</title>
<g id="a_edge22_Node000015_Node000016"><a xlink:title=" ">
<path fill="none" stroke="#9a32cd" stroke-dasharray="5,2" d="M1086.1,-343C1114.62,-343 1147.87,-343 1168.18,-343"/>
<polygon fill="#9a32cd" stroke="#9a32cd" points="1086.14,-339.5 1076.14,-343 1086.14,-346.5 1086.14,-339.5"/>
</a>
</g>
<text xml:space="preserve" text-anchor="start" x="1116.62" y="-347.75" font-family="Helvetica,sans-Serif" font-size="10.00" fill="grey">u</text>
</g>
<!-- Node17&#45;&gt;Node16 -->
<g id="edge23_Node000016_Node000017" class="edge">
<title>Node17&#45;&gt;Node16</title>
<g id="a_edge23_Node000016_Node000017"><a xlink:title=" ">
<path fill="none" stroke="#9a32cd" stroke-dasharray="5,2" d="M896.21,-343C922.12,-343 959.54,-343 988.28,-343"/>
<polygon fill="#9a32cd" stroke="#9a32cd" points="896.36,-339.5 886.36,-343 896.36,-346.5 896.36,-339.5"/>
</a>
</g>
<text xml:space="preserve" text-anchor="start" x="933.75" y="-347.75" font-family="Helvetica,sans-Serif" font-size="10.00" fill="grey">key_val</text>
</g>
<!-- Node18&#45;&gt;Node6 -->
<g id="edge29_Node000006_Node000018" class="edge">
<title>Node18&#45;&gt;Node6</title>
<g id="a_edge29_Node000006_Node000018"><a xlink:title=" ">
<path fill="none" stroke="#9a32cd" stroke-dasharray="5,2" d="M828.81,-489.93C792.61,-501.29 736.69,-518.84 703.37,-529.29"/>
<polygon fill="#9a32cd" stroke="#9a32cd" points="829.42,-493.4 837.92,-487.07 827.33,-486.72 829.42,-493.4"/>
</a>
</g>
<text xml:space="preserve" text-anchor="start" x="761.38" y="-532.03" font-family="Helvetica,sans-Serif" font-size="10.00" fill="grey">base_ci</text>
<text xml:space="preserve" text-anchor="start" x="761.38" y="-516.78" font-family="Helvetica,sans-Serif" font-size="10.00" fill="grey">ci</text>
</g>
<!-- Node18&#45;&gt;Node18 -->
<g id="edge31_Node000018_Node000018" class="edge">
<title>Node18&#45;&gt;Node18</title>
<g id="a_edge31_Node000018_Node000018"><a xlink:title=" ">
<path fill="none" stroke="#9a32cd" stroke-dasharray="5,2" d="M849.36,-500.03C851.27,-503.9 856.36,-506.62 864.62,-506.62 879.74,-506.62 884.23,-497.52 878.09,-488.91"/>
<polygon fill="#9a32cd" stroke="#9a32cd" points="852.77,-500.84 850.92,-490.41 845.86,-499.72 852.77,-500.84"/>
</a>
</g>
<text xml:space="preserve" text-anchor="start" x="846.25" y="-526.62" font-family="Helvetica,sans-Serif" font-size="10.00" fill="grey">next</text>
<text xml:space="preserve" text-anchor="start" x="846.25" y="-511.38" font-family="Helvetica,sans-Serif" font-size="10.00" fill="grey">previous</text>
</g>
<!-- Node19&#45;&gt;Node6 -->
<g id="edge33_Node000006_Node000019" class="edge">
<title>Node19&#45;&gt;Node6</title>
<g id="a_edge33_Node000006_Node000019"><a xlink:title=" ">
<path fill="none" stroke="#9a32cd" stroke-dasharray="5,2" d="M440.77,-525.04C467.12,-531.35 505.86,-539.62 540.25,-543 562.81,-545.22 568.59,-543.69 591.25,-543 609.44,-542.45 629.85,-541.21 645.81,-540.11"/>
<polygon fill="#9a32cd" stroke="#9a32cd" points="441.61,-521.64 431.06,-522.66 439.94,-528.44 441.61,-521.64"/>
</a>
</g>
<text xml:space="preserve" text-anchor="start" x="466.25" y="-545.61" font-family="Helvetica,sans-Serif" font-size="10.00" fill="grey">openupval</text>
</g>
<!-- Node19&#45;&gt;Node19 -->
<g id="edge35_Node000019_Node000019" class="edge">
<title>Node19&#45;&gt;Node19</title>
<g id="a_edge35_Node000019_Node000019"><a xlink:title=" ">
<path fill="none" stroke="#9a32cd" stroke-dasharray="5,2" d="M394.18,-538.03C395.95,-541.9 400.68,-544.62 408.38,-544.62 422.44,-544.62 426.61,-535.52 420.9,-526.91"/>
<polygon fill="#9a32cd" stroke="#9a32cd" points="397.59,-538.82 395.62,-528.41 390.67,-537.78 397.59,-538.82"/>
</a>
</g>
<text xml:space="preserve" text-anchor="start" x="390" y="-564.62" font-family="Helvetica,sans-Serif" font-size="10.00" fill="grey">next</text>
<text xml:space="preserve" text-anchor="start" x="390" y="-549.38" font-family="Helvetica,sans-Serif" font-size="10.00" fill="grey">previous</text>
</g>
<!-- Node20 -->
<g id="Node000020" class="node">
<title>Node20</title>
<g id="a_Node000020"><a xlink:href="structlua__longjmp.html" target="_top" xlink:title=" ">
<polygon fill="white" stroke="#666666" points="522.25,-611.62 454.5,-611.62 454.5,-592.38 522.25,-592.38 522.25,-611.62"/>
<text xml:space="preserve" text-anchor="middle" x="488.38" y="-598.12" font-family="Helvetica,sans-Serif" font-size="10.00">lua_longjmp</text>
</a>
</g>
</g>
<!-- Node20&#45;&gt;Node6 -->
<g id="edge38_Node000006_Node000020" class="edge">
<title>Node20&#45;&gt;Node6</title>
<g id="a_edge38_Node000006_Node000020"><a xlink:title=" ">
<path fill="none" stroke="#9a32cd" stroke-dasharray="5,2" d="M533.44,-589.49C551.47,-584.14 572.47,-577.6 591.25,-571 611.31,-563.95 633.68,-554.91 650.04,-548.07"/>
<polygon fill="#9a32cd" stroke="#9a32cd" points="532.7,-586.06 524.09,-592.23 534.68,-592.77 532.7,-586.06"/>
</a>
</g>
<text xml:space="preserve" text-anchor="start" x="546.62" y="-591.86" font-family="Helvetica,sans-Serif" font-size="10.00" fill="grey">errorJmp</text>
</g>
<!-- Node20&#45;&gt;Node20 -->
<g id="edge39_Node000020_Node000020" class="edge">
<title>Node20&#45;&gt;Node20</title>
<g id="a_edge39_Node000020_Node000020"><a xlink:title=" ">
<path fill="none" stroke="#9a32cd" stroke-dasharray="5,2" d="M474.64,-623.03C476.36,-626.9 480.94,-629.62 488.38,-629.62 501.98,-629.62 506.01,-620.52 500.49,-611.91"/>
<polygon fill="#9a32cd" stroke="#9a32cd" points="478.06,-623.81 476.04,-613.41 471.14,-622.8 478.06,-623.81"/>
</a>
</g>
<text xml:space="preserve" text-anchor="start" x="470" y="-634.38" font-family="Helvetica,sans-Serif" font-size="10.00" fill="grey">previous</text>
</g>
<!-- Node21 -->
<g id="Node000021" class="node">
<title>Node21</title>
<g id="a_Node000021"><a xlink:href="structgb__s.html" target="_top" xlink:title=" ">
<polygon fill="white" stroke="#666666" points="506.88,-859.62 469.88,-859.62 469.88,-840.38 506.88,-840.38 506.88,-859.62"/>
<text xml:space="preserve" text-anchor="middle" x="488.38" y="-846.12" font-family="Helvetica,sans-Serif" font-size="10.00">gb_s</text>
</a>
</g>
</g>
<!-- Node21&#45;&gt;Node1 -->
<g id="edge40_Node000001_Node000021" class="edge">
<title>Node21&#45;&gt;Node1</title>
<g id="a_edge40_Node000001_Node000021"><a xlink:title=" ">
<path fill="none" stroke="#9a32cd" stroke-dasharray="5,2" d="M518.27,-850C542.48,-850 577.95,-850 608.89,-850"/>
<polygon fill="#9a32cd" stroke="#9a32cd" points="518.56,-846.5 508.56,-850 518.56,-853.5 518.56,-846.5"/>
</a>
</g>
<text xml:space="preserve" text-anchor="start" x="560.5" y="-854.75" font-family="Helvetica,sans-Serif" font-size="10.00" fill="grey">gb</text>
</g>
<!-- Node22 -->
<g id="Node000022" class="node">
<title>Node22</title>
<g id="a_Node000022"><a xlink:href="structcpu__registers__s.html" target="_top" xlink:title=" ">
<polygon fill="white" stroke="#666666" points="362.25,-939.62 277.25,-939.62 277.25,-920.38 362.25,-920.38 362.25,-939.62"/>
<text xml:space="preserve" text-anchor="middle" x="319.75" y="-926.12" font-family="Helvetica,sans-Serif" font-size="10.00">cpu_registers_s</text>
</a>
</g>
</g>
<!-- Node22&#45;&gt;Node21 -->
<g id="edge41_Node000021_Node000022" class="edge">
<title>Node22&#45;&gt;Node21</title>
<g id="a_edge41_Node000021_Node000022"><a xlink:title=" ">
<path fill="none" stroke="#9a32cd" stroke-dasharray="5,2" d="M373.79,-922.95C394.32,-918.66 417.42,-911.82 436.5,-901 454.99,-890.51 471.36,-871.46 480.27,-859.85"/>
<polygon fill="#9a32cd" stroke="#9a32cd" points="373.34,-919.47 364.18,-924.79 374.66,-926.34 373.34,-919.47"/>
</a>
</g>
<text xml:space="preserve" text-anchor="start" x="391.12" y="-925.9" font-family="Helvetica,sans-Serif" font-size="10.00" fill="grey">cpu_reg</text>
</g>
<!-- Node23 -->
<g id="Node000023" class="node">
<title>Node23</title>
<g id="a_Node000023"><a xlink:href="structgb__registers__s.html" target="_top" xlink:title=" ">
<polygon fill="white" stroke="#666666" points="359.62,-899.62 279.88,-899.62 279.88,-880.38 359.62,-880.38 359.62,-899.62"/>
<text xml:space="preserve" text-anchor="middle" x="319.75" y="-886.12" font-family="Helvetica,sans-Serif" font-size="10.00">gb_registers_s</text>
</a>
</g>
</g>
<!-- Node23&#45;&gt;Node21 -->
<g id="edge42_Node000021_Node000023" class="edge">
<title>Node23&#45;&gt;Node21</title>
<g id="a_edge42_Node000021_Node000023"><a xlink:title=" ">
<path fill="none" stroke="#9a32cd" stroke-dasharray="5,2" d="M371.22,-882.13C391.65,-878.5 415.36,-873.71 436.5,-868 447.72,-864.97 460,-860.65 469.69,-857"/>
<polygon fill="#9a32cd" stroke="#9a32cd" points="370.68,-878.67 361.42,-883.82 371.87,-885.57 370.68,-878.67"/>
</a>
</g>
<text xml:space="preserve" text-anchor="start" x="393.75" y="-884.72" font-family="Helvetica,sans-Serif" font-size="10.00" fill="grey">gb_reg</text>
</g>
<!-- Node24 -->
<g id="Node000024" class="node">
<title>Node24</title>
<g id="a_Node000024"><a xlink:href="structcount__s.html" target="_top" xlink:title=" ">
<polygon fill="white" stroke="#666666" points="345,-859.62 294.5,-859.62 294.5,-840.38 345,-840.38 345,-859.62"/>
<text xml:space="preserve" text-anchor="middle" x="319.75" y="-846.12" font-family="Helvetica,sans-Serif" font-size="10.00">count_s</text>
</a>
</g>
</g>
<!-- Node24&#45;&gt;Node21 -->
<g id="edge43_Node000021_Node000024" class="edge">
<title>Node24&#45;&gt;Node21</title>
<g id="a_edge43_Node000021_Node000024"><a xlink:title=" ">
<path fill="none" stroke="#9a32cd" stroke-dasharray="5,2" d="M356.47,-850C391.37,-850 443.05,-850 469.84,-850"/>
<polygon fill="#9a32cd" stroke="#9a32cd" points="356.85,-846.5 346.85,-850 356.85,-853.5 356.85,-846.5"/>
</a>
</g>
<text xml:space="preserve" text-anchor="start" x="392.25" y="-854.75" font-family="Helvetica,sans-Serif" font-size="10.00" fill="grey">counter</text>
</g>
<!-- Node25 -->
<g id="Node000025" class="node">
<title>Node25</title>
<g id="a_Node000025"><a xlink:href="structgb__breakpoint.html" target="_top" xlink:title=" ">
<polygon fill="white" stroke="#666666" points="358.12,-819.62 281.38,-819.62 281.38,-800.38 358.12,-800.38 358.12,-819.62"/>
<text xml:space="preserve" text-anchor="middle" x="319.75" y="-806.12" font-family="Helvetica,sans-Serif" font-size="10.00">gb_breakpoint</text>
</a>
</g>
</g>
<!-- Node25&#45;&gt;Node21 -->
<g id="edge44_Node000021_Node000025" class="edge">
<title>Node25&#45;&gt;Node21</title>
<g id="a_edge44_Node000021_Node000025"><a xlink:title=" ">
<path fill="none" stroke="#9a32cd" stroke-dasharray="5,2" d="M369.68,-815.33C390.52,-818.27 414.95,-822.6 436.5,-828.75 447.73,-831.96 459.81,-836.93 469.38,-841.26"/>
<polygon fill="#9a32cd" stroke="#9a32cd" points="370.39,-811.9 360.01,-814.04 369.46,-818.83 370.39,-811.9"/>
</a>
</g>
<text xml:space="preserve" text-anchor="start" x="383.25" y="-833.5" font-family="Helvetica,sans-Serif" font-size="10.00" fill="grey">breakpoints</text>
</g>
<!-- Node26 -->
<g id="Node000026" class="node">
<title>Node26</title>
<g id="a_Node000026"><a xlink:href="structaudio__data.html" target="_top" xlink:title=" ">
<polygon fill="white" stroke="#666666" points="351.38,-779.62 288.12,-779.62 288.12,-760.38 351.38,-760.38 351.38,-779.62"/>
<text xml:space="preserve" text-anchor="middle" x="319.75" y="-766.12" font-family="Helvetica,sans-Serif" font-size="10.00">audio_data</text>
</a>
</g>
</g>
<!-- Node26&#45;&gt;Node21 -->
<g id="edge45_Node000021_Node000026" class="edge">
<title>Node26&#45;&gt;Node21</title>
<g id="a_edge45_Node000021_Node000026"><a xlink:title=" ">
<path fill="none" stroke="#9a32cd" stroke-dasharray="5,2" d="M362.68,-773.26C385.68,-776.49 414.01,-782.93 436.5,-795.75 456.02,-806.88 472.51,-827.94 481.07,-840.29"/>
<polygon fill="#9a32cd" stroke="#9a32cd" points="363.39,-769.82 353.04,-772.06 362.53,-776.76 363.39,-769.82"/>
</a>
</g>
<text xml:space="preserve" text-anchor="start" x="396.75" y="-800.5" font-family="Helvetica,sans-Serif" font-size="10.00" fill="grey">audio</text>
</g>
<!-- Node27 -->
<g id="Node000027" class="node">
<title>Node27</title>
<g id="a_Node000027"><a xlink:href="structchan.html" target="_top" xlink:title=" ">
<polygon fill="white" stroke="#666666" points="204.5,-779.62 167.5,-779.62 167.5,-760.38 204.5,-760.38 204.5,-779.62"/>
<text xml:space="preserve" text-anchor="middle" x="186" y="-766.12" font-family="Helvetica,sans-Serif" font-size="10.00">chan</text>
</a>
</g>
</g>
<!-- Node27&#45;&gt;Node26 -->
<g id="edge46_Node000026_Node000027" class="edge">
<title>Node27&#45;&gt;Node26</title>
<g id="a_edge46_Node000026_Node000027"><a xlink:title=" ">
<path fill="none" stroke="#9a32cd" stroke-dasharray="5,2" d="M216.28,-770C237.47,-770 266.06,-770 287.66,-770"/>
<polygon fill="#9a32cd" stroke="#9a32cd" points="216.28,-766.5 206.28,-770 216.28,-773.5 216.28,-766.5"/>
</a>
</g>
<text xml:space="preserve" text-anchor="start" x="230" y="-774.75" font-family="Helvetica,sans-Serif" font-size="10.00" fill="grey">chans</text>
</g>
<!-- Node28 -->
<g id="Node000028" class="node">
<title>Node28</title>
<g id="a_Node000028"><a xlink:href="structchan__len__ctr.html" target="_top" xlink:title=" ">
<polygon fill="white" stroke="#666666" points="82,-819.62 10.5,-819.62 10.5,-800.38 82,-800.38 82,-819.62"/>
<text xml:space="preserve" text-anchor="middle" x="46.25" y="-806.12" font-family="Helvetica,sans-Serif" font-size="10.00">chan_len_ctr</text>
</a>
</g>
</g>
<!-- Node28&#45;&gt;Node27 -->
<g id="edge47_Node000027_Node000028" class="edge">
<title>Node28&#45;&gt;Node27</title>
<g id="a_edge47_Node000027_Node000028"><a xlink:title=" ">
<path fill="none" stroke="#9a32cd" stroke-dasharray="5,2" d="M93.15,-801.66C109.7,-798.14 128.38,-793.55 145,-788 152.51,-785.49 160.52,-782.05 167.39,-778.85"/>
<polygon fill="#9a32cd" stroke="#9a32cd" points="92.67,-798.19 83.58,-803.63 94.08,-805.05 92.67,-798.19"/>
</a>
</g>
<text xml:space="preserve" text-anchor="start" x="121.38" y="-802.46" font-family="Helvetica,sans-Serif" font-size="10.00" fill="grey">len</text>
</g>
<!-- Node29 -->
<g id="Node000029" class="node">
<title>Node29</title>
<g id="a_Node000029"><a xlink:href="structchan__vol__env.html" target="_top" xlink:title=" ">
<polygon fill="white" stroke="#666666" points="84.25,-779.62 8.25,-779.62 8.25,-760.38 84.25,-760.38 84.25,-779.62"/>
<text xml:space="preserve" text-anchor="middle" x="46.25" y="-766.12" font-family="Helvetica,sans-Serif" font-size="10.00">chan_vol_env</text>
</a>
</g>
</g>
<!-- Node29&#45;&gt;Node27 -->
<g id="edge48_Node000027_Node000029" class="edge">
<title>Node29&#45;&gt;Node27</title>
<g id="a_edge48_Node000027_Node000029"><a xlink:title=" ">
<path fill="none" stroke="#9a32cd" stroke-dasharray="5,2" d="M95.91,-770C120.58,-770 149.05,-770 167.04,-770"/>
<polygon fill="#9a32cd" stroke="#9a32cd" points="96.04,-766.5 86.04,-770 96.04,-773.5 96.04,-766.5"/>
</a>
</g>
<text xml:space="preserve" text-anchor="start" x="119.88" y="-774.75" font-family="Helvetica,sans-Serif" font-size="10.00" fill="grey">env</text>
</g>
<!-- Node30 -->
<g id="Node000030" class="node">
<title>Node30</title>
<g id="a_Node000030"><a xlink:href="structchan__freq__sweep.html" target="_top" xlink:title=" ">
<polygon fill="white" stroke="#666666" points="92.5,-739.62 0,-739.62 0,-720.38 92.5,-720.38 92.5,-739.62"/>
<text xml:space="preserve" text-anchor="middle" x="46.25" y="-726.12" font-family="Helvetica,sans-Serif" font-size="10.00">chan_freq_sweep</text>
</a>
</g>
</g>
<!-- Node30&#45;&gt;Node27 -->
<g id="edge49_Node000027_Node000030" class="edge">
<title>Node30&#45;&gt;Node27</title>
<g id="a_edge49_Node000027_Node000030"><a xlink:title=" ">
<path fill="none" stroke="#9a32cd" stroke-dasharray="5,2" d="M104,-737.92C117.64,-740.63 132.01,-744.17 145,-748.75 153.16,-751.63 161.69,-755.95 168.77,-759.95"/>
<polygon fill="#9a32cd" stroke="#9a32cd" points="104.72,-734.49 94.25,-736.11 103.45,-741.37 104.72,-734.49"/>
</a>
</g>
<text xml:space="preserve" text-anchor="start" x="113.5" y="-753.5" font-family="Helvetica,sans-Serif" font-size="10.00" fill="grey">sweep</text>
</g>
</g>
</svg>
