<?xml version="1.0" encoding="UTF-8" standalone="no"?>
<!DOCTYPE svg PUBLIC "-//W3C//DTD SVG 1.1//EN"
 "http://www.w3.org/Graphics/SVG/1.1/DTD/svg11.dtd">
<!-- Generated by graphviz version 13.1.0 (20250701.0955)
 -->
<!-- Title: LClosure Pages: 1 -->
<svg width="443pt" height="273pt"
 viewBox="0.00 0.00 443.00 273.00" xmlns="http://www.w3.org/2000/svg" xmlns:xlink="http://www.w3.org/1999/xlink">
<g id="graph0" class="graph" transform="scale(1 1) rotate(0) translate(4 269.25)">
<title>LClosure</title>
<!-- Node1 -->
<g id="Node000001" class="node">
<title>Node1</title>
<g id="a_Node000001"><a xlink:title=" ">
<polygon fill="#999999" stroke="#666666" points="135.5,-19.25 80.5,-19.25 80.5,0 135.5,0 135.5,-19.25"/>
<text xml:space="preserve" text-anchor="middle" x="108" y="-5.75" font-family="Helvetica,sans-Serif" font-size="10.00">LClosure</text>
</a>
</g>
</g>
<!-- Node2 -->
<g id="Node000002" class="node">
<title>Node2</title>
<g id="a_Node000002"><a xlink:href="struct_proto.html" target="_top" xlink:title=" ">
<polygon fill="white" stroke="#666666" points="195.62,-98.38 156.38,-98.38 156.38,-79.12 195.62,-79.12 195.62,-98.38"/>
<text xml:space="preserve" text-anchor="middle" x="176" y="-84.88" font-family="Helvetica,sans-Serif" font-size="10.00">Proto</text>
</a>
</g>
</g>
<!-- Node2&#45;&gt;Node1 -->
<g id="edge1_Node000001_Node000002" class="edge">
<title>Node2&#45;&gt;Node1</title>
<g id="a_edge1_Node000001_Node000002"><a xlink:title=" ">
<path fill="none" stroke="#9a32cd" stroke-dasharray="5,2" d="M160.79,-70.5C146.8,-54.64 126.62,-31.75 115.71,-19.37"/>
<polygon fill="#9a32cd" stroke="#9a32cd" points="157.96,-72.58 167.2,-77.77 163.21,-67.95 157.96,-72.58"/>
</a>
</g>
<text xml:space="preserve" text-anchor="start" x="149.07" y="-42" font-family="Helvetica,sans-Serif" font-size="10.00" fill="grey">p</text>
</g>
<!-- Node2&#45;&gt;Node2 -->
<g id="edge3_Node000002_Node000002" class="edge">
<title>Node2&#45;&gt;Node2</title>
<g id="a_edge3_Node000002_Node000002"><a xlink:title=" ">
<path fill="none" stroke="#9a32cd" stroke-dasharray="5,2" d="M206.96,-95.81C210.97,-94.59 213.62,-92.24 213.62,-88.75 213.62,-82.55 205.24,-79.94 195.74,-80.91"/>
<polygon fill="#9a32cd" stroke="#9a32cd" points="206.98,-92.3 197.25,-96.49 207.47,-99.28 206.98,-92.3"/>
</a>
</g>
<text xml:space="preserve" text-anchor="start" x="216.62" y="-84.88" font-family="Helvetica,sans-Serif" font-size="10.00" fill="grey">p</text>
</g>
<!-- Node3 -->
<g id="Node000003" class="node">
<title>Node3</title>
<g id="a_Node000003"><a xlink:href="struct_t_value.html" target="_top" xlink:title=" ">
<polygon fill="white" stroke="#666666" points="46,-192.75 0,-192.75 0,-173.5 46,-173.5 46,-192.75"/>
<text xml:space="preserve" text-anchor="middle" x="23" y="-179.25" font-family="Helvetica,sans-Serif" font-size="10.00">TValue</text>
</a>
</g>
</g>
<!-- Node3&#45;&gt;Node2 -->
<g id="edge2_Node000002_Node000003" class="edge">
<title>Node3&#45;&gt;Node2</title>
<g id="a_edge2_Node000002_Node000003"><a xlink:title=" ">
<path fill="none" stroke="#9a32cd" stroke-dasharray="5,2" d="M36.64,-164.14C38.78,-161.26 40.96,-158.31 43,-155.5 53.35,-141.23 51.45,-133.32 65.75,-123 88.41,-106.64 99.25,-113.08 126,-105 135.9,-102.01 146.9,-98.66 156.06,-95.86"/>
<polygon fill="#9a32cd" stroke="#9a32cd" points="33.87,-162 30.65,-172.1 39.46,-166.21 33.87,-162"/>
</a>
</g>
<text xml:space="preserve" text-anchor="start" x="68.75" y="-135.38" font-family="Helvetica,sans-Serif" font-size="10.00" fill="grey">k</text>
</g>
<!-- Node9 -->
<g id="Node000009" class="node">
<title>Node9</title>
<g id="a_Node000009"><a xlink:href="struct_up_val.html" target="_top" xlink:title=" ">
<polygon fill="white" stroke="#666666" points="56.12,-98.38 13.88,-98.38 13.88,-79.12 56.12,-79.12 56.12,-98.38"/>
<text xml:space="preserve" text-anchor="middle" x="35" y="-84.88" font-family="Helvetica,sans-Serif" font-size="10.00">UpVal</text>
</a>
</g>
</g>
<!-- Node3&#45;&gt;Node9 -->
<g id="edge13_Node000009_Node000003" class="edge">
<title>Node3&#45;&gt;Node9</title>
<g id="a_edge13_Node000009_Node000003"><a xlink:title=" ">
<path fill="none" stroke="#9a32cd" stroke-dasharray="5,2" d="M15.46,-162.84C14.76,-160.4 14.16,-157.91 13.75,-155.5 11.35,-141.26 9.7,-136.86 13.75,-123 16.4,-113.93 22.37,-104.97 27.31,-98.65"/>
<polygon fill="#9a32cd" stroke="#9a32cd" points="12.06,-163.72 18.66,-172.02 18.67,-161.42 12.06,-163.72"/>
</a>
</g>
<text xml:space="preserve" text-anchor="start" x="16.75" y="-143" font-family="Helvetica,sans-Serif" font-size="10.00" fill="grey">p</text>
<text xml:space="preserve" text-anchor="start" x="16.75" y="-127.75" font-family="Helvetica,sans-Serif" font-size="10.00" fill="grey">value</text>
</g>
<!-- Node4 -->
<g id="Node000004" class="node">
<title>Node4</title>
<g id="a_Node000004"><a xlink:href="struct_upvaldesc.html" target="_top" xlink:title=" ">
<polygon fill="white" stroke="#666666" points="207.25,-192.75 144.75,-192.75 144.75,-173.5 207.25,-173.5 207.25,-192.75"/>
<text xml:space="preserve" text-anchor="middle" x="176" y="-179.25" font-family="Helvetica,sans-Serif" font-size="10.00">Upvaldesc</text>
</a>
</g>
</g>
<!-- Node4&#45;&gt;Node2 -->
<g id="edge4_Node000002_Node000004" class="edge">
<title>Node4&#45;&gt;Node2</title>
<g id="a_edge4_Node000002_Node000004"><a xlink:title=" ">
<path fill="none" stroke="#9a32cd" stroke-dasharray="5,2" d="M176,-161.93C176,-142.25 176,-113.24 176,-98.72"/>
<polygon fill="#9a32cd" stroke="#9a32cd" points="172.5,-161.75 176,-171.75 179.5,-161.75 172.5,-161.75"/>
</a>
</g>
<text xml:space="preserve" text-anchor="start" x="179" y="-135.38" font-family="Helvetica,sans-Serif" font-size="10.00" fill="grey">upvalues</text>
</g>
<!-- Node5 -->
<g id="Node000005" class="node">
<title>Node5</title>
<g id="a_Node000005"><a xlink:href="struct_t_string.html" target="_top" xlink:title=" ">
<polygon fill="white" stroke="#666666" points="199.75,-265.25 152.25,-265.25 152.25,-246 199.75,-246 199.75,-265.25"/>
<text xml:space="preserve" text-anchor="middle" x="176" y="-251.75" font-family="Helvetica,sans-Serif" font-size="10.00">TString</text>
</a>
</g>
</g>
<!-- Node5&#45;&gt;Node2 -->
<g id="edge10_Node000002_Node000005" class="edge">
<title>Node5&#45;&gt;Node2</title>
<g id="a_edge10_Node000002_Node000005"><a xlink:title=" ">
<path fill="none" stroke="#9a32cd" stroke-dasharray="5,2" d="M145.83,-240.09C120.49,-225.62 89.99,-201.56 100.75,-173.5 113.34,-140.65 145.43,-112.59 163.37,-98.82"/>
<polygon fill="#9a32cd" stroke="#9a32cd" points="144.1,-243.13 154.56,-244.8 147.42,-236.97 144.1,-243.13"/>
</a>
</g>
<text xml:space="preserve" text-anchor="start" x="103.75" y="-179.25" font-family="Helvetica,sans-Serif" font-size="10.00" fill="grey">source</text>
</g>
<!-- Node5&#45;&gt;Node4 -->
<g id="edge5_Node000004_Node000005" class="edge">
<title>Node5&#45;&gt;Node4</title>
<g id="a_edge5_Node000004_Node000005"><a xlink:title=" ">
<path fill="none" stroke="#9a32cd" stroke-dasharray="5,2" d="M176,-234.55C176,-220.94 176,-203.6 176,-193.2"/>
<polygon fill="#9a32cd" stroke="#9a32cd" points="172.5,-234.18 176,-244.18 179.5,-234.18 172.5,-234.18"/>
</a>
</g>
<text xml:space="preserve" text-anchor="start" x="179" y="-215.5" font-family="Helvetica,sans-Serif" font-size="10.00" fill="grey">name</text>
</g>
<!-- Node5&#45;&gt;Node5 -->
<g id="edge6_Node000005_Node000005" class="edge">
<title>Node5&#45;&gt;Node5</title>
<g id="a_edge6_Node000005_Node000005"><a xlink:title=" ">
<path fill="none" stroke="#9a32cd" stroke-dasharray="5,2" d="M211.24,-261.37C215.19,-260.29 217.75,-258.37 217.75,-255.62 217.75,-250.74 209.66,-248.49 200.03,-248.87"/>
<polygon fill="#9a32cd" stroke="#9a32cd" points="211.18,-257.86 201.53,-262.24 211.81,-264.83 211.18,-257.86"/>
</a>
</g>
<text xml:space="preserve" text-anchor="start" x="220.75" y="-251.75" font-family="Helvetica,sans-Serif" font-size="10.00" fill="grey">hnext</text>
</g>
<!-- Node7 -->
<g id="Node000007" class="node">
<title>Node7</title>
<g id="a_Node000007"><a xlink:href="struct_loc_var.html" target="_top" xlink:title=" ">
<polygon fill="white" stroke="#666666" points="271,-192.75 225,-192.75 225,-173.5 271,-173.5 271,-192.75"/>
<text xml:space="preserve" text-anchor="middle" x="248" y="-179.25" font-family="Helvetica,sans-Serif" font-size="10.00">LocVar</text>
</a>
</g>
</g>
<!-- Node5&#45;&gt;Node7 -->
<g id="edge9_Node000007_Node000005" class="edge">
<title>Node5&#45;&gt;Node7</title>
<g id="a_edge9_Node000007_Node000005"><a xlink:title=" ">
<path fill="none" stroke="#9a32cd" stroke-dasharray="5,2" d="M197.65,-238.69C201.87,-235.3 206.17,-231.65 210,-228 221.82,-216.75 233.9,-202.17 241.18,-192.98"/>
<polygon fill="#9a32cd" stroke="#9a32cd" points="195.72,-235.75 189.95,-244.64 200,-241.3 195.72,-235.75"/>
</a>
</g>
<text xml:space="preserve" text-anchor="start" x="228.41" y="-215.5" font-family="Helvetica,sans-Serif" font-size="10.00" fill="grey">varname</text>
</g>
<!-- Node6 -->
<g id="Node000006" class="node">
<title>Node6</title>
<g id="a_Node000006"><a xlink:href="struct_abs_line_info.html" target="_top" xlink:title=" ">
<polygon fill="white" stroke="#666666" points="356.88,-192.75 289.12,-192.75 289.12,-173.5 356.88,-173.5 356.88,-192.75"/>
<text xml:space="preserve" text-anchor="middle" x="323" y="-179.25" font-family="Helvetica,sans-Serif" font-size="10.00">AbsLineInfo</text>
</a>
</g>
</g>
<!-- Node6&#45;&gt;Node2 -->
<g id="edge7_Node000002_Node000006" class="edge">
<title>Node6&#45;&gt;Node2</title>
<g id="a_edge7_Node000002_Node000006"><a xlink:title=" ">
<path fill="none" stroke="#9a32cd" stroke-dasharray="5,2" d="M313.93,-162.87C306.91,-149.89 296.01,-133.3 282,-123 256.05,-103.91 218.85,-95.58 196.12,-92.09"/>
<polygon fill="#9a32cd" stroke="#9a32cd" points="310.79,-164.4 318.41,-171.76 317.04,-161.25 310.79,-164.4"/>
</a>
</g>
<text xml:space="preserve" text-anchor="start" x="312.49" y="-135.38" font-family="Helvetica,sans-Serif" font-size="10.00" fill="grey">abslineinfo</text>
</g>
<!-- Node7&#45;&gt;Node2 -->
<g id="edge8_Node000002_Node000007" class="edge">
<title>Node7&#45;&gt;Node2</title>
<g id="a_edge8_Node000002_Node000007"><a xlink:title=" ">
<path fill="none" stroke="#9a32cd" stroke-dasharray="5,2" d="M243.12,-162.4C239.37,-150.13 233.25,-134.54 224,-123 215.89,-112.87 203.89,-104.56 193.92,-98.78"/>
<polygon fill="#9a32cd" stroke="#9a32cd" points="239.69,-163.11 245.71,-171.83 246.44,-161.26 239.69,-163.11"/>
</a>
</g>
<text xml:space="preserve" text-anchor="start" x="243.66" y="-135.38" font-family="Helvetica,sans-Serif" font-size="10.00" fill="grey">locvars</text>
</g>
<!-- Node8 -->
<g id="Node000008" class="node">
<title>Node8</title>
<g id="a_Node000008"><a xlink:href="struct_g_c_object.html" target="_top" xlink:title=" ">
<polygon fill="white" stroke="#666666" points="434.75,-192.75 375.25,-192.75 375.25,-173.5 434.75,-173.5 434.75,-192.75"/>
<text xml:space="preserve" text-anchor="middle" x="405" y="-179.25" font-family="Helvetica,sans-Serif" font-size="10.00">GCObject</text>
</a>
</g>
</g>
<!-- Node8&#45;&gt;Node2 -->
<g id="edge11_Node000002_Node000008" class="edge">
<title>Node8&#45;&gt;Node2</title>
<g id="a_edge11_Node000002_Node000008"><a xlink:title=" ">
<path fill="none" stroke="#9a32cd" stroke-dasharray="5,2" d="M397.21,-162.74C390.82,-149.42 380.47,-132.49 366,-123 338.14,-104.73 238.78,-94.77 195.92,-91.24"/>
<polygon fill="#9a32cd" stroke="#9a32cd" points="393.98,-164.09 401.19,-171.85 400.39,-161.29 393.98,-164.09"/>
</a>
</g>
<text xml:space="preserve" text-anchor="start" x="395.9" y="-135.38" font-family="Helvetica,sans-Serif" font-size="10.00" fill="grey">gclist</text>
</g>
<!-- Node9&#45;&gt;Node1 -->
<g id="edge12_Node000001_Node000009" class="edge">
<title>Node9&#45;&gt;Node1</title>
<g id="a_edge12_Node000001_Node000009"><a xlink:title=" ">
<path fill="none" stroke="#9a32cd" stroke-dasharray="5,2" d="M50.9,-70.95C65.94,-55.07 87.9,-31.86 99.72,-19.37"/>
<polygon fill="#9a32cd" stroke="#9a32cd" points="48.75,-68.13 44.41,-77.8 53.83,-72.95 48.75,-68.13"/>
</a>
</g>
<text xml:space="preserve" text-anchor="start" x="85.3" y="-42" font-family="Helvetica,sans-Serif" font-size="10.00" fill="grey">upvals</text>
</g>
<!-- Node9&#45;&gt;Node9 -->
<g id="edge14_Node000009_Node000009" class="edge">
<title>Node9&#45;&gt;Node9</title>
<g id="a_edge14_Node000009_Node000009"><a xlink:title=" ">
<path fill="none" stroke="#9a32cd" stroke-dasharray="5,2" d="M67.53,-95.71C71.51,-94.46 74.12,-92.14 74.12,-88.75 74.12,-82.72 65.87,-80.08 56.33,-80.84"/>
<polygon fill="#9a32cd" stroke="#9a32cd" points="67.5,-92.19 57.84,-96.53 68.1,-99.17 67.5,-92.19"/>
</a>
</g>
<text xml:space="preserve" text-anchor="start" x="77.12" y="-92.5" font-family="Helvetica,sans-Serif" font-size="10.00" fill="grey">next</text>
<text xml:space="preserve" text-anchor="start" x="77.12" y="-77.25" font-family="Helvetica,sans-Serif" font-size="10.00" fill="grey">previous</text>
</g>
</g>
</svg>
