<?xml version="1.0" encoding="UTF-8" standalone="no"?>
<!DOCTYPE svg PUBLIC "-//W3C//DTD SVG 1.1//EN"
 "http://www.w3.org/Graphics/SVG/1.1/DTD/svg11.dtd">
<!-- Generated by graphviz version 13.1.0 (20250701.0955)
 -->
<!-- Title: PGB_CreditsScene Pages: 1 -->
<svg width="173pt" height="100pt"
 viewBox="0.00 0.00 173.00 100.00" xmlns="http://www.w3.org/2000/svg" xmlns:xlink="http://www.w3.org/1999/xlink">
<g id="graph0" class="graph" transform="scale(1 1) rotate(0) translate(4 95.75)">
<title>PGB_CreditsScene</title>
<!-- Node1 -->
<g id="Node000001" class="node">
<title>Node1</title>
<g id="a_Node000001"><a xlink:title=" ">
<polygon fill="#999999" stroke="#666666" points="101.5,-19.25 0,-19.25 0,0 101.5,0 101.5,-19.25"/>
<text xml:space="preserve" text-anchor="middle" x="50.75" y="-5.75" font-family="Helvetica,sans-Serif" font-size="10.00">PGB_CreditsScene</text>
</a>
</g>
</g>
<!-- Node2 -->
<g id="Node000002" class="node">
<title>Node2</title>
<g id="a_Node000002"><a xlink:href="struct_p_g_b___scene.html" target="_top" xlink:title=" ">
<polygon fill="white" stroke="#666666" points="85.75,-91.75 15.75,-91.75 15.75,-72.5 85.75,-72.5 85.75,-91.75"/>
<text xml:space="preserve" text-anchor="middle" x="50.75" y="-78.25" font-family="Helvetica,sans-Serif" font-size="10.00">PGB_Scene</text>
</a>
</g>
</g>
<!-- Node2&#45;&gt;Node1 -->
<g id="edge1_Node000001_Node000002" class="edge">
<title>Node2&#45;&gt;Node1</title>
<g id="a_edge1_Node000001_Node000002"><a xlink:title=" ">
<path fill="none" stroke="#9a32cd" stroke-dasharray="5,2" d="M50.75,-61.05C50.75,-47.44 50.75,-30.1 50.75,-19.7"/>
<polygon fill="#9a32cd" stroke="#9a32cd" points="47.25,-60.68 50.75,-70.68 54.25,-60.68 47.25,-60.68"/>
</a>
</g>
<text xml:space="preserve" text-anchor="start" x="53.75" y="-42" font-family="Helvetica,sans-Serif" font-size="10.00" fill="grey">scene</text>
</g>
<!-- Node2&#45;&gt;Node2 -->
<g id="edge2_Node000002_Node000002" class="edge">
<title>Node2&#45;&gt;Node2</title>
<g id="a_edge2_Node000002_Node000002"><a xlink:title=" ">
<path fill="none" stroke="#9a32cd" stroke-dasharray="5,2" d="M97.02,-87.5C101.16,-86.37 103.75,-84.58 103.75,-82.12 103.75,-77.88 95.99,-75.62 85.92,-75.35"/>
<polygon fill="#9a32cd" stroke="#9a32cd" points="96.9,-83.98 87.42,-88.71 97.78,-90.93 96.9,-83.98"/>
</a>
</g>
<text xml:space="preserve" text-anchor="start" x="106.75" y="-78.25" font-family="Helvetica,sans-Serif" font-size="10.00" fill="grey">parentScene</text>
</g>
</g>
</svg>
