<?xml version="1.0" encoding="UTF-8" standalone="no"?>
<!DOCTYPE svg PUBLIC "-//W3C//DTD SVG 1.1//EN"
 "http://www.w3.org/Graphics/SVG/1.1/DTD/svg11.dtd">
<!-- Generated by graphviz version 13.1.0 (20250701.0955)
 -->
<!-- Title: PGB_GameScene Pages: 1 -->
<svg width="1361pt" height="1013pt"
 viewBox="0.00 0.00 1361.00 1013.00" xmlns="http://www.w3.org/2000/svg" xmlns:xlink="http://www.w3.org/1999/xlink">
<g id="graph0" class="graph" transform="scale(1 1) rotate(0) translate(4 1008.62)">
<title>PGB_GameScene</title>
<!-- Node1 -->
<g id="Node000001" class="node">
<title>Node1</title>
<g id="a_Node000001"><a xlink:title=" ">
<polygon fill="#999999" stroke="#666666" points="747.75,-693.62 651.5,-693.62 651.5,-674.38 747.75,-674.38 747.75,-693.62"/>
<text xml:space="preserve" text-anchor="middle" x="699.62" y="-680.12" font-family="Helvetica,sans-Serif" font-size="10.00">PGB_GameScene</text>
</a>
</g>
</g>
<!-- Node3 -->
<g id="Node000003" class="node">
<title>Node3</title>
<g id="a_Node000003"><a xlink:href="struct_p_g_b___game_scene_context.html" target="_top" xlink:title=" ">
<polygon fill="white" stroke="#666666" points="954.25,-733.62 823.5,-733.62 823.5,-714.38 954.25,-714.38 954.25,-733.62"/>
<text xml:space="preserve" text-anchor="middle" x="888.88" y="-720.12" font-family="Helvetica,sans-Serif" font-size="10.00">PGB_GameSceneContext</text>
</a>
</g>
</g>
<!-- Node1&#45;&gt;Node3 -->
<g id="edge4_Node000003_Node000001" class="edge">
<title>Node1&#45;&gt;Node3</title>
<g id="a_edge4_Node000003_Node000001"><a xlink:title=" ">
<path fill="none" stroke="#9a32cd" stroke-dasharray="5,2" d="M745.9,-697.09C752.54,-698.84 759.3,-700.53 765.75,-702 785.08,-706.4 806.28,-710.48 825.52,-713.9"/>
<polygon fill="#9a32cd" stroke="#9a32cd" points="746.98,-693.75 736.41,-694.52 745.15,-700.51 746.98,-693.75"/>
</a>
</g>
<text xml:space="preserve" text-anchor="start" x="772.5" y="-714.39" font-family="Helvetica,sans-Serif" font-size="10.00" fill="grey">scene</text>
</g>
<!-- Node2 -->
<g id="Node000002" class="node">
<title>Node2</title>
<g id="a_Node000002"><a xlink:href="struct_p_g_b___scene.html" target="_top" xlink:title=" ">
<polygon fill="white" stroke="#666666" points="533,-731.62 463,-731.62 463,-712.38 533,-712.38 533,-731.62"/>
<text xml:space="preserve" text-anchor="middle" x="498" y="-718.12" font-family="Helvetica,sans-Serif" font-size="10.00">PGB_Scene</text>
</a>
</g>
</g>
<!-- Node2&#45;&gt;Node1 -->
<g id="edge1_Node000001_Node000002" class="edge">
<title>Node2&#45;&gt;Node1</title>
<g id="a_edge1_Node000001_Node000002"><a xlink:title=" ">
<path fill="none" stroke="#9a32cd" stroke-dasharray="5,2" d="M544.58,-716.63C570.74,-713.19 604.13,-708.22 633.5,-702 643.94,-699.79 655.19,-696.88 665.35,-694.04"/>
<polygon fill="#9a32cd" stroke="#9a32cd" points="544.46,-713.12 534.98,-717.86 545.35,-720.06 544.46,-713.12"/>
</a>
</g>
<text xml:space="preserve" text-anchor="start" x="592.25" y="-716.59" font-family="Helvetica,sans-Serif" font-size="10.00" fill="grey">scene</text>
</g>
<!-- Node2&#45;&gt;Node2 -->
<g id="edge2_Node000002_Node000002" class="edge">
<title>Node2&#45;&gt;Node2</title>
<g id="a_edge2_Node000002_Node000002"><a xlink:title=" ">
<path fill="none" stroke="#9a32cd" stroke-dasharray="5,2" d="M479.41,-743.03C481.73,-746.9 487.93,-749.62 498,-749.62 516.41,-749.62 521.88,-740.52 514.4,-731.91"/>
<polygon fill="#9a32cd" stroke="#9a32cd" points="482.8,-743.89 481.31,-733.4 475.94,-742.53 482.8,-743.89"/>
</a>
</g>
<text xml:space="preserve" text-anchor="start" x="470.62" y="-754.38" font-family="Helvetica,sans-Serif" font-size="10.00" fill="grey">parentScene</text>
</g>
<!-- Node3&#45;&gt;Node1 -->
<g id="edge3_Node000001_Node000003" class="edge">
<title>Node3&#45;&gt;Node1</title>
<g id="a_edge3_Node000001_Node000003"><a xlink:title=" ">
<path fill="none" stroke="#9a32cd" stroke-dasharray="5,2" d="M862.69,-708.44C846.9,-699.61 825.76,-689.41 805.5,-684.75 787.04,-680.51 766.28,-679.59 748.12,-679.99"/>
<polygon fill="#9a32cd" stroke="#9a32cd" points="860.52,-711.22 870.92,-713.22 864.03,-705.17 860.52,-711.22"/>
</a>
</g>
<text xml:space="preserve" text-anchor="start" x="769.5" y="-689.5" font-family="Helvetica,sans-Serif" font-size="10.00" fill="grey">context</text>
</g>
<!-- Node4 -->
<g id="Node000004" class="node">
<title>Node4</title>
<g id="a_Node000004"><a xlink:href="structgb__s.html" target="_top" xlink:title=" ">
<polygon fill="white" stroke="#666666" points="718.12,-864.62 681.12,-864.62 681.12,-845.38 718.12,-845.38 718.12,-864.62"/>
<text xml:space="preserve" text-anchor="middle" x="699.62" y="-851.12" font-family="Helvetica,sans-Serif" font-size="10.00">gb_s</text>
</a>
</g>
</g>
<!-- Node4&#45;&gt;Node3 -->
<g id="edge5_Node000003_Node000004" class="edge">
<title>Node4&#45;&gt;Node3</title>
<g id="a_edge5_Node000003_Node000004"><a xlink:title=" ">
<path fill="none" stroke="#9a32cd" stroke-dasharray="5,2" d="M724.36,-838.39C763.72,-810.86 841.33,-756.56 873.44,-734.1"/>
<polygon fill="#9a32cd" stroke="#9a32cd" points="722.43,-835.47 716.25,-844.07 726.45,-841.21 722.43,-835.47"/>
</a>
</g>
<text xml:space="preserve" text-anchor="start" x="780.38" y="-813.64" font-family="Helvetica,sans-Serif" font-size="10.00" fill="grey">gb</text>
</g>
<!-- Node5 -->
<g id="Node000005" class="node">
<title>Node5</title>
<g id="a_Node000005"><a xlink:href="structcpu__registers__s.html" target="_top" xlink:title=" ">
<polygon fill="white" stroke="#666666" points="540.5,-924.62 455.5,-924.62 455.5,-905.38 540.5,-905.38 540.5,-924.62"/>
<text xml:space="preserve" text-anchor="middle" x="498" y="-911.12" font-family="Helvetica,sans-Serif" font-size="10.00">cpu_registers_s</text>
</a>
</g>
</g>
<!-- Node5&#45;&gt;Node4 -->
<g id="edge6_Node000004_Node000005" class="edge">
<title>Node5&#45;&gt;Node4</title>
<g id="a_edge6_Node000004_Node000005"><a xlink:title=" ">
<path fill="none" stroke="#9a32cd" stroke-dasharray="5,2" d="M552.13,-907.75C577.23,-903.46 607.35,-897.06 633.5,-888 650.75,-882.02 669.2,-872.33 682.04,-864.99"/>
<polygon fill="#9a32cd" stroke="#9a32cd" points="551.78,-904.26 542.47,-909.32 552.91,-911.16 551.78,-904.26"/>
</a>
</g>
<text xml:space="preserve" text-anchor="start" x="588.12" y="-907.39" font-family="Helvetica,sans-Serif" font-size="10.00" fill="grey">cpu_reg</text>
</g>
<!-- Node6 -->
<g id="Node000006" class="node">
<title>Node6</title>
<g id="a_Node000006"><a xlink:href="structgb__registers__s.html" target="_top" xlink:title=" ">
<polygon fill="white" stroke="#666666" points="537.88,-884.62 458.12,-884.62 458.12,-865.38 537.88,-865.38 537.88,-884.62"/>
<text xml:space="preserve" text-anchor="middle" x="498" y="-871.12" font-family="Helvetica,sans-Serif" font-size="10.00">gb_registers_s</text>
</a>
</g>
</g>
<!-- Node6&#45;&gt;Node4 -->
<g id="edge7_Node000004_Node000006" class="edge">
<title>Node6&#45;&gt;Node4</title>
<g id="a_edge7_Node000004_Node000006"><a xlink:title=" ">
<path fill="none" stroke="#9a32cd" stroke-dasharray="5,2" d="M549.31,-869.96C592.19,-865.66 651.38,-859.73 680.69,-856.8"/>
<polygon fill="#9a32cd" stroke="#9a32cd" points="549.07,-866.47 539.47,-870.95 549.77,-873.43 549.07,-866.47"/>
</a>
</g>
<text xml:space="preserve" text-anchor="start" x="590.75" y="-871.54" font-family="Helvetica,sans-Serif" font-size="10.00" fill="grey">gb_reg</text>
</g>
<!-- Node7 -->
<g id="Node000007" class="node">
<title>Node7</title>
<g id="a_Node000007"><a xlink:href="structcount__s.html" target="_top" xlink:title=" ">
<polygon fill="white" stroke="#666666" points="523.25,-844.62 472.75,-844.62 472.75,-825.38 523.25,-825.38 523.25,-844.62"/>
<text xml:space="preserve" text-anchor="middle" x="498" y="-831.12" font-family="Helvetica,sans-Serif" font-size="10.00">count_s</text>
</a>
</g>
</g>
<!-- Node7&#45;&gt;Node4 -->
<g id="edge8_Node000004_Node000007" class="edge">
<title>Node7&#45;&gt;Node4</title>
<g id="a_edge8_Node000004_Node000007"><a xlink:title=" ">
<path fill="none" stroke="#9a32cd" stroke-dasharray="5,2" d="M534.69,-834.85C561.88,-835.15 600.19,-836.43 633.5,-840.75 649.68,-842.85 667.8,-846.96 680.8,-850.23"/>
<polygon fill="#9a32cd" stroke="#9a32cd" points="534.94,-831.35 524.92,-834.79 534.9,-838.35 534.94,-831.35"/>
</a>
</g>
<text xml:space="preserve" text-anchor="start" x="589.25" y="-845.5" font-family="Helvetica,sans-Serif" font-size="10.00" fill="grey">counter</text>
</g>
<!-- Node8 -->
<g id="Node000008" class="node">
<title>Node8</title>
<g id="a_Node000008"><a xlink:href="structgb__breakpoint.html" target="_top" xlink:title=" ">
<polygon fill="white" stroke="#666666" points="536.38,-804.62 459.62,-804.62 459.62,-785.38 536.38,-785.38 536.38,-804.62"/>
<text xml:space="preserve" text-anchor="middle" x="498" y="-791.12" font-family="Helvetica,sans-Serif" font-size="10.00">gb_breakpoint</text>
</a>
</g>
</g>
<!-- Node8&#45;&gt;Node4 -->
<g id="edge9_Node000004_Node000008" class="edge">
<title>Node8&#45;&gt;Node4</title>
<g id="a_edge9_Node000004_Node000008"><a xlink:title=" ">
<path fill="none" stroke="#9a32cd" stroke-dasharray="5,2" d="M548.29,-797.42C574.27,-799.88 606.29,-804.83 633.5,-814.75 653.23,-821.94 673.41,-835.59 685.97,-844.98"/>
<polygon fill="#9a32cd" stroke="#9a32cd" points="548.59,-793.93 538.33,-796.58 548,-800.91 548.59,-793.93"/>
</a>
</g>
<text xml:space="preserve" text-anchor="start" x="580.25" y="-819.5" font-family="Helvetica,sans-Serif" font-size="10.00" fill="grey">breakpoints</text>
</g>
<!-- Node9 -->
<g id="Node000009" class="node">
<title>Node9</title>
<g id="a_Node000009"><a xlink:href="structaudio__data.html" target="_top" xlink:title=" ">
<polygon fill="white" stroke="#666666" points="529.62,-964.62 466.38,-964.62 466.38,-945.38 529.62,-945.38 529.62,-964.62"/>
<text xml:space="preserve" text-anchor="middle" x="498" y="-951.12" font-family="Helvetica,sans-Serif" font-size="10.00">audio_data</text>
</a>
</g>
</g>
<!-- Node9&#45;&gt;Node4 -->
<g id="edge10_Node000004_Node000009" class="edge">
<title>Node9&#45;&gt;Node4</title>
<g id="a_edge10_Node000004_Node000009"><a xlink:title=" ">
<path fill="none" stroke="#9a32cd" stroke-dasharray="5,2" d="M541.28,-951.64C569,-947.95 605.21,-940.21 633.5,-924 659.65,-909.01 681.69,-880.19 692.14,-864.98"/>
<polygon fill="#9a32cd" stroke="#9a32cd" points="540.98,-948.15 531.47,-952.81 541.81,-955.1 540.98,-948.15"/>
</a>
</g>
<text xml:space="preserve" text-anchor="start" x="593.75" y="-949.78" font-family="Helvetica,sans-Serif" font-size="10.00" fill="grey">audio</text>
</g>
<!-- Node10 -->
<g id="Node000010" class="node">
<title>Node10</title>
<g id="a_Node000010"><a xlink:href="structchan.html" target="_top" xlink:title=" ">
<polygon fill="white" stroke="#666666" points="334.38,-964.62 297.38,-964.62 297.38,-945.38 334.38,-945.38 334.38,-964.62"/>
<text xml:space="preserve" text-anchor="middle" x="315.88" y="-951.12" font-family="Helvetica,sans-Serif" font-size="10.00">chan</text>
</a>
</g>
</g>
<!-- Node10&#45;&gt;Node9 -->
<g id="edge11_Node000009_Node000010" class="edge">
<title>Node10&#45;&gt;Node9</title>
<g id="a_edge11_Node000009_Node000010"><a xlink:title=" ">
<path fill="none" stroke="#9a32cd" stroke-dasharray="5,2" d="M345.93,-955C378.83,-955 432.25,-955 465.96,-955"/>
<polygon fill="#9a32cd" stroke="#9a32cd" points="346.32,-951.5 336.32,-955 346.32,-958.5 346.32,-951.5"/>
</a>
</g>
<text xml:space="preserve" text-anchor="start" x="380.12" y="-959.75" font-family="Helvetica,sans-Serif" font-size="10.00" fill="grey">chans</text>
</g>
<!-- Node11 -->
<g id="Node000011" class="node">
<title>Node11</title>
<g id="a_Node000011"><a xlink:href="structchan__len__ctr.html" target="_top" xlink:title=" ">
<polygon fill="white" stroke="#666666" points="193.25,-924.62 121.75,-924.62 121.75,-905.38 193.25,-905.38 193.25,-924.62"/>
<text xml:space="preserve" text-anchor="middle" x="157.5" y="-911.12" font-family="Helvetica,sans-Serif" font-size="10.00">chan_len_ctr</text>
</a>
</g>
</g>
<!-- Node11&#45;&gt;Node10 -->
<g id="edge12_Node000010_Node000011" class="edge">
<title>Node11&#45;&gt;Node10</title>
<g id="a_edge12_Node000010_Node000011"><a xlink:title=" ">
<path fill="none" stroke="#9a32cd" stroke-dasharray="5,2" d="M204.8,-920.97C223.41,-923.96 244.93,-928.15 264,-933.75 275.39,-937.1 287.68,-942.19 297.33,-946.55"/>
<polygon fill="#9a32cd" stroke="#9a32cd" points="205.54,-917.55 195.13,-919.5 204.49,-924.47 205.54,-917.55"/>
</a>
</g>
<text xml:space="preserve" text-anchor="start" x="236.5" y="-938.5" font-family="Helvetica,sans-Serif" font-size="10.00" fill="grey">len</text>
</g>
<!-- Node12 -->
<g id="Node000012" class="node">
<title>Node12</title>
<g id="a_Node000012"><a xlink:href="structchan__vol__env.html" target="_top" xlink:title=" ">
<polygon fill="white" stroke="#666666" points="195.5,-1004.62 119.5,-1004.62 119.5,-985.38 195.5,-985.38 195.5,-1004.62"/>
<text xml:space="preserve" text-anchor="middle" x="157.5" y="-991.12" font-family="Helvetica,sans-Serif" font-size="10.00">chan_vol_env</text>
</a>
</g>
</g>
<!-- Node12&#45;&gt;Node10 -->
<g id="edge13_Node000010_Node000012" class="edge">
<title>Node12&#45;&gt;Node10</title>
<g id="a_edge13_Node000010_Node000012"><a xlink:title=" ">
<path fill="none" stroke="#9a32cd" stroke-dasharray="5,2" d="M207.04,-986.3C225.06,-982.7 245.59,-978.15 264,-973 275.19,-969.87 287.47,-965.55 297.17,-961.92"/>
<polygon fill="#9a32cd" stroke="#9a32cd" points="206.53,-982.83 197.39,-988.18 207.87,-989.7 206.53,-982.83"/>
</a>
</g>
<text xml:space="preserve" text-anchor="start" x="235" y="-987.58" font-family="Helvetica,sans-Serif" font-size="10.00" fill="grey">env</text>
</g>
<!-- Node13 -->
<g id="Node000013" class="node">
<title>Node13</title>
<g id="a_Node000013"><a xlink:href="structchan__freq__sweep.html" target="_top" xlink:title=" ">
<polygon fill="white" stroke="#666666" points="203.75,-964.62 111.25,-964.62 111.25,-945.38 203.75,-945.38 203.75,-964.62"/>
<text xml:space="preserve" text-anchor="middle" x="157.5" y="-951.12" font-family="Helvetica,sans-Serif" font-size="10.00">chan_freq_sweep</text>
</a>
</g>
</g>
<!-- Node13&#45;&gt;Node10 -->
<g id="edge14_Node000010_Node000013" class="edge">
<title>Node13&#45;&gt;Node10</title>
<g id="a_edge14_Node000010_Node000013"><a xlink:title=" ">
<path fill="none" stroke="#9a32cd" stroke-dasharray="5,2" d="M215.35,-955C244.15,-955 277.12,-955 296.95,-955"/>
<polygon fill="#9a32cd" stroke="#9a32cd" points="215.66,-951.5 205.66,-955 215.66,-958.5 215.66,-951.5"/>
</a>
</g>
<text xml:space="preserve" text-anchor="start" x="228.62" y="-959.75" font-family="Helvetica,sans-Serif" font-size="10.00" fill="grey">sweep</text>
</g>
<!-- Node14 -->
<g id="Node000014" class="node">
<title>Node14</title>
<g id="a_Node000014"><a xlink:href="struct_p_g_b___game_scene_model.html" target="_top" xlink:title=" ">
<polygon fill="white" stroke="#666666" points="559.25,-693.62 436.75,-693.62 436.75,-674.38 559.25,-674.38 559.25,-693.62"/>
<text xml:space="preserve" text-anchor="middle" x="498" y="-680.12" font-family="Helvetica,sans-Serif" font-size="10.00">PGB_GameSceneModel</text>
</a>
</g>
</g>
<!-- Node14&#45;&gt;Node1 -->
<g id="edge15_Node000001_Node000014" class="edge">
<title>Node14&#45;&gt;Node1</title>
<g id="a_edge15_Node000001_Node000014"><a xlink:title=" ">
<path fill="none" stroke="#9a32cd" stroke-dasharray="5,2" d="M570.95,-684C597.64,-684 627.23,-684 651.19,-684"/>
<polygon fill="#9a32cd" stroke="#9a32cd" points="571.22,-680.5 561.22,-684 571.22,-687.5 571.22,-680.5"/>
</a>
</g>
<text xml:space="preserve" text-anchor="start" x="592.25" y="-688.75" font-family="Helvetica,sans-Serif" font-size="10.00" fill="grey">model</text>
</g>
<!-- Node15 -->
<g id="Node000015" class="node">
<title>Node15</title>
<g id="a_Node000015"><a xlink:href="struct_p_g_b___crank_selector.html" target="_top" xlink:title=" ">
<polygon fill="white" stroke="#666666" points="550.25,-653.62 445.75,-653.62 445.75,-634.38 550.25,-634.38 550.25,-653.62"/>
<text xml:space="preserve" text-anchor="middle" x="498" y="-640.12" font-family="Helvetica,sans-Serif" font-size="10.00">PGB_CrankSelector</text>
</a>
</g>
</g>
<!-- Node15&#45;&gt;Node1 -->
<g id="edge16_Node000001_Node000015" class="edge">
<title>Node15&#45;&gt;Node1</title>
<g id="a_edge16_Node000001_Node000015"><a xlink:title=" ">
<path fill="none" stroke="#9a32cd" stroke-dasharray="5,2" d="M561.73,-650.41C584.5,-653.35 610.31,-657.39 633.5,-662.75 646.13,-665.67 659.81,-669.95 671.36,-673.91"/>
<polygon fill="#9a32cd" stroke="#9a32cd" points="562.34,-646.96 551.99,-649.2 561.48,-653.9 562.34,-646.96"/>
</a>
</g>
<text xml:space="preserve" text-anchor="start" x="588.12" y="-667.5" font-family="Helvetica,sans-Serif" font-size="10.00" fill="grey">selector</text>
</g>
<!-- Node16 -->
<g id="Node000016" class="node">
<title>Node16</title>
<g id="a_Node000016"><a xlink:href="structlua___state.html" target="_top" xlink:title=" ">
<polygon fill="white" stroke="#666666" points="526.62,-462.62 469.38,-462.62 469.38,-443.38 526.62,-443.38 526.62,-462.62"/>
<text xml:space="preserve" text-anchor="middle" x="498" y="-449.12" font-family="Helvetica,sans-Serif" font-size="10.00">lua_State</text>
</a>
</g>
</g>
<!-- Node16&#45;&gt;Node1 -->
<g id="edge17_Node000001_Node000016" class="edge">
<title>Node16&#45;&gt;Node1</title>
<g id="a_edge17_Node000001_Node000016"><a xlink:title=" ">
<path fill="none" stroke="#9a32cd" stroke-dasharray="5,2" d="M514.92,-471.42C555.08,-517.89 659.48,-638.7 690.08,-674.11"/>
<polygon fill="#9a32cd" stroke="#9a32cd" points="517.75,-469.35 508.57,-464.07 512.46,-473.93 517.75,-469.35"/>
</a>
</g>
<text xml:space="preserve" text-anchor="start" x="593.38" y="-607.44" font-family="Helvetica,sans-Serif" font-size="10.00" fill="grey">script</text>
</g>
<!-- Node16&#45;&gt;Node16 -->
<g id="edge47_Node000016_Node000016" class="edge">
<title>Node16&#45;&gt;Node16</title>
<g id="a_edge47_Node000016_Node000016"><a xlink:title=" ">
<path fill="none" stroke="#9a32cd" stroke-dasharray="5,2" d="M479.41,-474.03C481.73,-477.9 487.93,-480.62 498,-480.62 516.41,-480.62 521.88,-471.52 514.4,-462.91"/>
<polygon fill="#9a32cd" stroke="#9a32cd" points="482.8,-474.89 481.31,-464.4 475.94,-473.53 482.8,-474.89"/>
</a>
</g>
<text xml:space="preserve" text-anchor="start" x="484.88" y="-485.38" font-family="Helvetica,sans-Serif" font-size="10.00" fill="grey">twups</text>
</g>
<!-- Node20 -->
<g id="Node000020" class="node">
<title>Node20</title>
<g id="a_Node000020"><a xlink:href="structglobal___state.html" target="_top" xlink:title=" ">
<polygon fill="white" stroke="#666666" points="1353.25,-306.62 1283.25,-306.62 1283.25,-287.38 1353.25,-287.38 1353.25,-306.62"/>
<text xml:space="preserve" text-anchor="middle" x="1318.25" y="-293.12" font-family="Helvetica,sans-Serif" font-size="10.00">global_State</text>
</a>
</g>
</g>
<!-- Node16&#45;&gt;Node20 -->
<g id="edge27_Node000020_Node000016" class="edge">
<title>Node16&#45;&gt;Node20</title>
<g id="a_edge27_Node000020_Node000016"><a xlink:title=" ">
<path fill="none" stroke="#9a32cd" stroke-dasharray="5,2" d="M538.18,-452.74C622.37,-452.19 826.86,-451 998.25,-451 998.25,-451 998.25,-451 1197.5,-451 1270.65,-451 1305.61,-341.37 1314.75,-307.1"/>
<polygon fill="#9a32cd" stroke="#9a32cd" points="538.37,-449.23 528.39,-452.8 538.41,-456.23 538.37,-449.23"/>
</a>
</g>
<text xml:space="preserve" text-anchor="start" x="975.25" y="-486.26" font-family="Helvetica,sans-Serif" font-size="10.00" fill="grey">mainthread</text>
<text xml:space="preserve" text-anchor="start" x="975.25" y="-471.01" font-family="Helvetica,sans-Serif" font-size="10.00" fill="grey">panic</text>
<text xml:space="preserve" text-anchor="start" x="975.25" y="-455.76" font-family="Helvetica,sans-Serif" font-size="10.00" fill="grey">twups</text>
</g>
<!-- Node27 -->
<g id="Node000027" class="node">
<title>Node27</title>
<g id="a_Node000027"><a xlink:href="union_value.html" target="_top" xlink:title=" ">
<polygon fill="white" stroke="#666666" points="719.62,-146.62 679.62,-146.62 679.62,-127.38 719.62,-127.38 719.62,-146.62"/>
<text xml:space="preserve" text-anchor="middle" x="699.62" y="-133.12" font-family="Helvetica,sans-Serif" font-size="10.00">Value</text>
</a>
</g>
</g>
<!-- Node16&#45;&gt;Node27 -->
<g id="edge35_Node000027_Node000016" class="edge">
<title>Node16&#45;&gt;Node27</title>
<g id="a_edge35_Node000027_Node000016"><a xlink:title=" ">
<path fill="none" stroke="#9a32cd" stroke-dasharray="5,2" d="M511.14,-433.78C549,-373.85 664.05,-191.73 692.31,-147"/>
<polygon fill="#9a32cd" stroke="#9a32cd" points="508.38,-431.59 506,-441.92 514.3,-435.33 508.38,-431.59"/>
</a>
</g>
<text xml:space="preserve" text-anchor="start" x="603.88" y="-328.05" font-family="Helvetica,sans-Serif" font-size="10.00" fill="grey">f</text>
</g>
<!-- Node28 -->
<g id="Node000028" class="node">
<title>Node28</title>
<g id="a_Node000028"><a xlink:href="struct_call_info.html" target="_top" xlink:title=" ">
<polygon fill="white" stroke="#666666" points="724.5,-535.62 674.75,-535.62 674.75,-516.38 724.5,-516.38 724.5,-535.62"/>
<text xml:space="preserve" text-anchor="middle" x="699.62" y="-522.12" font-family="Helvetica,sans-Serif" font-size="10.00">CallInfo</text>
</a>
</g>
</g>
<!-- Node16&#45;&gt;Node28 -->
<g id="edge42_Node000028_Node000016" class="edge">
<title>Node16&#45;&gt;Node28</title>
<g id="a_edge42_Node000028_Node000016"><a xlink:title=" ">
<path fill="none" stroke="#9a32cd" stroke-dasharray="5,2" d="M519.82,-469.89C534.9,-481.26 556.24,-495.64 577.25,-504 609.49,-516.82 649.53,-522.22 674.59,-524.46"/>
<polygon fill="#9a32cd" stroke="#9a32cd" points="522.13,-467.25 512.08,-463.88 517.83,-472.78 522.13,-467.25"/>
</a>
</g>
<text xml:space="preserve" text-anchor="start" x="602.75" y="-523.65" font-family="Helvetica,sans-Serif" font-size="10.00" fill="grey">k</text>
</g>
<!-- Node17 -->
<g id="Node000017" class="node">
<title>Node17</title>
<g id="a_Node000017"><a xlink:href="union_stk_id_rel.html" target="_top" xlink:title=" ">
<polygon fill="white" stroke="#666666" points="343,-501.62 288.75,-501.62 288.75,-482.38 343,-482.38 343,-501.62"/>
<text xml:space="preserve" text-anchor="middle" x="315.88" y="-488.12" font-family="Helvetica,sans-Serif" font-size="10.00">StkIdRel</text>
</a>
</g>
</g>
<!-- Node17&#45;&gt;Node16 -->
<g id="edge18_Node000016_Node000017" class="edge">
<title>Node17&#45;&gt;Node16</title>
<g id="a_edge18_Node000016_Node000017"><a xlink:title=" ">
<path fill="none" stroke="#9a32cd" stroke-dasharray="5,2" d="M354.41,-483.87C388.6,-476.47 438.34,-465.7 469.13,-459.03"/>
<polygon fill="#9a32cd" stroke="#9a32cd" points="353.97,-480.39 344.93,-485.93 355.45,-487.23 353.97,-480.39"/>
</a>
</g>
<text xml:space="preserve" text-anchor="start" x="370.75" y="-530.98" font-family="Helvetica,sans-Serif" font-size="10.00" fill="grey">stack</text>
<text xml:space="preserve" text-anchor="start" x="370.75" y="-515.73" font-family="Helvetica,sans-Serif" font-size="10.00" fill="grey">stack_last</text>
<text xml:space="preserve" text-anchor="start" x="370.75" y="-500.48" font-family="Helvetica,sans-Serif" font-size="10.00" fill="grey">tbclist</text>
<text xml:space="preserve" text-anchor="start" x="370.75" y="-485.23" font-family="Helvetica,sans-Serif" font-size="10.00" fill="grey">top</text>
</g>
<!-- Node17&#45;&gt;Node28 -->
<g id="edge40_Node000028_Node000017" class="edge">
<title>Node17&#45;&gt;Node28</title>
<g id="a_edge40_Node000028_Node000017"><a xlink:title=" ">
<path fill="none" stroke="#9a32cd" stroke-dasharray="5,2" d="M329.71,-511.36C338.85,-523.55 352.23,-538.53 367.75,-547 450.75,-592.3 483.06,-575.75 577.25,-584 602.15,-586.18 610.14,-592.9 633.5,-584 658.97,-574.3 680.82,-549.57 691.55,-535.74"/>
<polygon fill="#9a32cd" stroke="#9a32cd" points="332.58,-509.36 323.95,-503.21 326.87,-513.4 332.58,-509.36"/>
</a>
</g>
<text xml:space="preserve" text-anchor="start" x="488.62" y="-602.65" font-family="Helvetica,sans-Serif" font-size="10.00" fill="grey">func</text>
<text xml:space="preserve" text-anchor="start" x="488.62" y="-587.4" font-family="Helvetica,sans-Serif" font-size="10.00" fill="grey">top</text>
</g>
<!-- Node18 -->
<g id="Node000018" class="node">
<title>Node18</title>
<g id="a_Node000018"><a xlink:href="union_stack_value.html" target="_top" xlink:title=" ">
<polygon fill="white" stroke="#666666" points="190.25,-436.62 124.75,-436.62 124.75,-417.38 190.25,-417.38 190.25,-436.62"/>
<text xml:space="preserve" text-anchor="middle" x="157.5" y="-423.12" font-family="Helvetica,sans-Serif" font-size="10.00">StackValue</text>
</a>
</g>
</g>
<!-- Node18&#45;&gt;Node17 -->
<g id="edge19_Node000017_Node000018" class="edge">
<title>Node18&#45;&gt;Node17</title>
<g id="a_edge19_Node000017_Node000018"><a xlink:title=" ">
<path fill="none" stroke="#9a32cd" stroke-dasharray="5,2" d="M192.9,-441.3C222.54,-453.62 264.57,-471.09 290.76,-481.97"/>
<polygon fill="#9a32cd" stroke="#9a32cd" points="194.57,-438.2 183.99,-437.59 191.88,-444.67 194.57,-438.2"/>
</a>
</g>
<text xml:space="preserve" text-anchor="start" x="240.25" y="-473.87" font-family="Helvetica,sans-Serif" font-size="10.00" fill="grey">p</text>
</g>
<!-- Node19 -->
<g id="Node000019" class="node">
<title>Node19</title>
<g id="a_Node000019"><a xlink:href="struct_t_value.html" target="_top" xlink:title=" ">
<polygon fill="white" stroke="#666666" points="46,-356.62 0,-356.62 0,-337.38 46,-337.38 46,-356.62"/>
<text xml:space="preserve" text-anchor="middle" x="23" y="-343.12" font-family="Helvetica,sans-Serif" font-size="10.00">TValue</text>
</a>
</g>
</g>
<!-- Node19&#45;&gt;Node18 -->
<g id="edge20_Node000018_Node000019" class="edge">
<title>Node19&#45;&gt;Node18</title>
<g id="a_edge20_Node000018_Node000019"><a xlink:title=" ">
<path fill="none" stroke="#9a32cd" stroke-dasharray="5,2" d="M50.31,-362.89C76.92,-378.95 117.25,-403.3 139.78,-416.9"/>
<polygon fill="#9a32cd" stroke="#9a32cd" points="52.18,-359.93 41.81,-357.75 48.56,-365.92 52.18,-359.93"/>
</a>
</g>
<text xml:space="preserve" text-anchor="start" x="72.25" y="-391.75" font-family="Helvetica,sans-Serif" font-size="10.00" fill="grey">val</text>
</g>
<!-- Node19&#45;&gt;Node20 -->
<g id="edge25_Node000020_Node000019" class="edge">
<title>Node19&#45;&gt;Node20</title>
<g id="a_edge25_Node000020_Node000019"><a xlink:title=" ">
<path fill="none" stroke="#9a32cd" stroke-dasharray="5,2" d="M57.46,-347C84.25,-347 122.79,-347 156.5,-347 156.5,-347 156.5,-347 499,-347 721.19,-347 776.06,-373 998.25,-373 998.25,-373 998.25,-373 1197.5,-373 1246.25,-373 1291.23,-327.54 1309.1,-306.94"/>
<polygon fill="#9a32cd" stroke="#9a32cd" points="57.55,-343.5 47.55,-347 57.55,-350.5 57.55,-343.5"/>
</a>
</g>
<text xml:space="preserve" text-anchor="start" x="679.75" y="-379.65" font-family="Helvetica,sans-Serif" font-size="10.00" fill="grey">l_registry</text>
<text xml:space="preserve" text-anchor="start" x="679.75" y="-364.4" font-family="Helvetica,sans-Serif" font-size="10.00" fill="grey">nilvalue</text>
</g>
<!-- Node24 -->
<g id="Node000024" class="node">
<title>Node24</title>
<g id="a_Node000024"><a xlink:href="struct_table.html" target="_top" xlink:title=" ">
<polygon fill="white" stroke="#666666" points="1216.12,-106.62 1176.88,-106.62 1176.88,-87.38 1216.12,-87.38 1216.12,-106.62"/>
<text xml:space="preserve" text-anchor="middle" x="1196.5" y="-93.12" font-family="Helvetica,sans-Serif" font-size="10.00">Table</text>
</a>
</g>
</g>
<!-- Node19&#45;&gt;Node24 -->
<g id="edge30_Node000024_Node000019" class="edge">
<title>Node19&#45;&gt;Node24</title>
<g id="a_edge30_Node000024_Node000019"><a xlink:title=" ">
<path fill="none" stroke="#9a32cd" stroke-dasharray="5,2" d="M24.94,-325.68C27.81,-268.23 37.88,-111.61 64,-68 90.22,-24.23 105.48,0 156.5,0 156.5,0 156.5,0 1069,0 1125.73,0 1172.72,-62.2 1189.19,-86.98"/>
<polygon fill="#9a32cd" stroke="#9a32cd" points="21.46,-325.25 24.48,-335.41 28.45,-325.58 21.46,-325.25"/>
</a>
</g>
<text xml:space="preserve" text-anchor="start" x="594.5" y="-4.75" font-family="Helvetica,sans-Serif" font-size="10.00" fill="grey">array</text>
</g>
<!-- Node25 -->
<g id="Node000025" class="node">
<title>Node25</title>
<g id="a_Node000025"><a xlink:href="union_node.html" target="_top" xlink:title=" ">
<polygon fill="white" stroke="#666666" points="1087.62,-138.62 1048.38,-138.62 1048.38,-119.38 1087.62,-119.38 1087.62,-138.62"/>
<text xml:space="preserve" text-anchor="middle" x="1068" y="-125.12" font-family="Helvetica,sans-Serif" font-size="10.00">Node</text>
</a>
</g>
</g>
<!-- Node19&#45;&gt;Node25 -->
<g id="edge36_Node000025_Node000019" class="edge">
<title>Node19&#45;&gt;Node25</title>
<g id="a_edge36_Node000025_Node000019"><a xlink:title=" ">
<path fill="none" stroke="#9a32cd" stroke-dasharray="5,2" d="M23.66,-325.54C23.8,-256.72 34.2,-46 156.5,-46 156.5,-46 156.5,-46 889.88,-46 958.13,-46 1028.4,-97.17 1055.44,-119.15"/>
<polygon fill="#9a32cd" stroke="#9a32cd" points="20.16,-325.49 23.73,-335.47 27.16,-325.45 20.16,-325.49"/>
</a>
</g>
<text xml:space="preserve" text-anchor="start" x="487.88" y="-50.75" font-family="Helvetica,sans-Serif" font-size="10.00" fill="grey">i_val</text>
</g>
<!-- Node29 -->
<g id="Node000029" class="node">
<title>Node29</title>
<g id="a_Node000029"><a xlink:href="struct_up_val.html" target="_top" xlink:title=" ">
<polygon fill="white" stroke="#666666" points="264,-553.62 221.75,-553.62 221.75,-534.38 264,-534.38 264,-553.62"/>
<text xml:space="preserve" text-anchor="middle" x="242.88" y="-540.12" font-family="Helvetica,sans-Serif" font-size="10.00">UpVal</text>
</a>
</g>
</g>
<!-- Node19&#45;&gt;Node29 -->
<g id="edge44_Node000029_Node000019" class="edge">
<title>Node19&#45;&gt;Node29</title>
<g id="a_edge44_Node000029_Node000019"><a xlink:title=" ">
<path fill="none" stroke="#9a32cd" stroke-dasharray="5,2" d="M34.73,-366.63C42.08,-379.17 52.55,-395.38 64,-408 114.81,-463.99 191.09,-513.41 224.81,-533.92"/>
<polygon fill="#9a32cd" stroke="#9a32cd" points="37.85,-365.03 29.87,-358.06 31.76,-368.49 37.85,-365.03"/>
</a>
</g>
<text xml:space="preserve" text-anchor="start" x="67" y="-455.75" font-family="Helvetica,sans-Serif" font-size="10.00" fill="grey">p</text>
<text xml:space="preserve" text-anchor="start" x="67" y="-440.5" font-family="Helvetica,sans-Serif" font-size="10.00" fill="grey">value</text>
</g>
<!-- Node20&#45;&gt;Node16 -->
<g id="edge21_Node000016_Node000020" class="edge">
<title>Node20&#45;&gt;Node16</title>
<g id="a_edge21_Node000016_Node000020"><a xlink:title=" ">
<path fill="none" stroke="#9a32cd" stroke-dasharray="5,2" d="M1310.24,-317.5C1302.31,-337.81 1287.52,-368.48 1265.25,-387 1240.69,-407.42 1229.44,-411 1197.5,-411 784.62,-411 784.62,-411 784.62,-411 692.22,-411 667.77,-407.44 577.25,-426 558.53,-429.84 538.14,-436.98 522.87,-442.95"/>
<polygon fill="#9a32cd" stroke="#9a32cd" points="1313.44,-318.92 1313.6,-308.33 1306.87,-316.51 1313.44,-318.92"/>
</a>
</g>
<text xml:space="preserve" text-anchor="start" x="991.75" y="-415.75" font-family="Helvetica,sans-Serif" font-size="10.00" fill="grey">l_G</text>
</g>
<!-- Node21 -->
<g id="Node000021" class="node">
<title>Node21</title>
<g id="a_Node000021"><a xlink:href="structstringtable.html" target="_top" xlink:title=" ">
<polygon fill="white" stroke="#666666" points="1227,-260.62 1166,-260.62 1166,-241.38 1227,-241.38 1227,-260.62"/>
<text xml:space="preserve" text-anchor="middle" x="1196.5" y="-247.12" font-family="Helvetica,sans-Serif" font-size="10.00">stringtable</text>
</a>
</g>
</g>
<!-- Node21&#45;&gt;Node20 -->
<g id="edge22_Node000020_Node000021" class="edge">
<title>Node21&#45;&gt;Node20</title>
<g id="a_edge22_Node000020_Node000021"><a xlink:title=" ">
<path fill="none" stroke="#9a32cd" stroke-dasharray="5,2" d="M1238.54,-257.68C1247.51,-259.76 1256.83,-262.41 1265.25,-265.75 1278.96,-271.19 1293.22,-280.02 1303.34,-286.92"/>
<polygon fill="#9a32cd" stroke="#9a32cd" points="1239.46,-254.3 1228.95,-255.66 1238.01,-261.15 1239.46,-254.3"/>
</a>
</g>
<text xml:space="preserve" text-anchor="start" x="1248" y="-270.5" font-family="Helvetica,sans-Serif" font-size="10.00" fill="grey">strt</text>
</g>
<!-- Node22 -->
<g id="Node000022" class="node">
<title>Node22</title>
<g id="a_Node000022"><a xlink:href="struct_t_string.html" target="_top" xlink:title=" ">
<polygon fill="white" stroke="#666666" points="1091.75,-290.62 1044.25,-290.62 1044.25,-271.38 1091.75,-271.38 1091.75,-290.62"/>
<text xml:space="preserve" text-anchor="middle" x="1068" y="-277.12" font-family="Helvetica,sans-Serif" font-size="10.00">TString</text>
</a>
</g>
</g>
<!-- Node22&#45;&gt;Node20 -->
<g id="edge28_Node000020_Node000022" class="edge">
<title>Node22&#45;&gt;Node20</title>
<g id="a_edge28_Node000020_Node000022"><a xlink:title=" ">
<path fill="none" stroke="#9a32cd" stroke-dasharray="5,2" d="M1103.39,-283.22C1150.79,-286.27 1235.71,-291.74 1283.03,-294.79"/>
<polygon fill="#9a32cd" stroke="#9a32cd" points="1103.62,-279.72 1093.42,-282.57 1103.17,-286.71 1103.62,-279.72"/>
</a>
</g>
<text xml:space="preserve" text-anchor="start" x="1170.62" y="-326.36" font-family="Helvetica,sans-Serif" font-size="10.00" fill="grey">memerrmsg</text>
<text xml:space="preserve" text-anchor="start" x="1170.62" y="-311.11" font-family="Helvetica,sans-Serif" font-size="10.00" fill="grey">strcache</text>
<text xml:space="preserve" text-anchor="start" x="1170.62" y="-295.86" font-family="Helvetica,sans-Serif" font-size="10.00" fill="grey">tmname</text>
</g>
<!-- Node22&#45;&gt;Node21 -->
<g id="edge23_Node000021_Node000022" class="edge">
<title>Node22&#45;&gt;Node21</title>
<g id="a_edge23_Node000021_Node000022"><a xlink:title=" ">
<path fill="none" stroke="#9a32cd" stroke-dasharray="5,2" d="M1102.81,-267.8C1105.14,-267.06 1107.47,-266.37 1109.75,-265.75 1128.12,-260.78 1149.18,-257.13 1165.83,-254.7"/>
<polygon fill="#9a32cd" stroke="#9a32cd" points="1101.77,-264.46 1093.46,-271.03 1104.05,-271.07 1101.77,-264.46"/>
</a>
</g>
<text xml:space="preserve" text-anchor="start" x="1118.38" y="-270.5" font-family="Helvetica,sans-Serif" font-size="10.00" fill="grey">hash</text>
</g>
<!-- Node22&#45;&gt;Node22 -->
<g id="edge24_Node000022_Node000022" class="edge">
<title>Node22&#45;&gt;Node22</title>
<g id="a_edge24_Node000022_Node000022"><a xlink:title=" ">
<path fill="none" stroke="#9a32cd" stroke-dasharray="5,2" d="M1057.32,-302.36C1058.75,-306.06 1062.32,-308.62 1068,-308.62 1078.7,-308.62 1081.88,-299.52 1077.53,-290.91"/>
<polygon fill="#9a32cd" stroke="#9a32cd" points="1060.8,-302.72 1058.32,-292.42 1053.83,-302.02 1060.8,-302.72"/>
</a>
</g>
<text xml:space="preserve" text-anchor="start" x="1056" y="-313.38" font-family="Helvetica,sans-Serif" font-size="10.00" fill="grey">hnext</text>
</g>
<!-- Node23 -->
<g id="Node000023" class="node">
<title>Node23</title>
<g id="a_Node000023"><a xlink:href="struct_g_c_object.html" target="_top" xlink:title=" ">
<polygon fill="white" stroke="#666666" points="345.62,-168.62 286.12,-168.62 286.12,-149.38 345.62,-149.38 345.62,-168.62"/>
<text xml:space="preserve" text-anchor="middle" x="315.88" y="-155.12" font-family="Helvetica,sans-Serif" font-size="10.00">GCObject</text>
</a>
</g>
</g>
<!-- Node23&#45;&gt;Node16 -->
<g id="edge46_Node000016_Node000023" class="edge">
<title>Node23&#45;&gt;Node16</title>
<g id="a_edge46_Node000016_Node000023"><a xlink:title=" ">
<path fill="none" stroke="#9a32cd" stroke-dasharray="5,2" d="M329,-178.79C364.09,-236.06 464.84,-400.51 490.83,-442.92"/>
<polygon fill="#9a32cd" stroke="#9a32cd" points="332.07,-177.11 323.87,-170.41 326.11,-180.77 332.07,-177.11"/>
</a>
</g>
<text xml:space="preserve" text-anchor="start" x="381.62" y="-328.35" font-family="Helvetica,sans-Serif" font-size="10.00" fill="grey">gclist</text>
</g>
<!-- Node23&#45;&gt;Node20 -->
<g id="edge26_Node000020_Node000023" class="edge">
<title>Node23&#45;&gt;Node20</title>
<g id="a_edge26_Node000020_Node000023"><a xlink:title=" ">
<path fill="none" stroke="#9a32cd" stroke-dasharray="5,2" d="M357.26,-166.76C360.8,-167.26 364.33,-167.68 367.75,-168 646.78,-194.05 718.01,-175 998.25,-175 998.25,-175 998.25,-175 1197.5,-175 1260.12,-175 1300.87,-257.88 1313.26,-287.02"/>
<polygon fill="#9a32cd" stroke="#9a32cd" points="358,-163.34 347.58,-165.25 356.92,-170.25 358,-163.34"/>
</a>
</g>
<text xml:space="preserve" text-anchor="start" x="864.88" y="-334.66" font-family="Helvetica,sans-Serif" font-size="10.00" fill="grey">allgc</text>
<text xml:space="preserve" text-anchor="start" x="864.88" y="-319.41" font-family="Helvetica,sans-Serif" font-size="10.00" fill="grey">allweak</text>
<text xml:space="preserve" text-anchor="start" x="864.88" y="-304.16" font-family="Helvetica,sans-Serif" font-size="10.00" fill="grey">ephemeron</text>
<text xml:space="preserve" text-anchor="start" x="864.88" y="-288.91" font-family="Helvetica,sans-Serif" font-size="10.00" fill="grey">finobj</text>
<text xml:space="preserve" text-anchor="start" x="864.88" y="-273.66" font-family="Helvetica,sans-Serif" font-size="10.00" fill="grey">finobjold1</text>
<text xml:space="preserve" text-anchor="start" x="864.88" y="-258.41" font-family="Helvetica,sans-Serif" font-size="10.00" fill="grey">finobjrold</text>
<text xml:space="preserve" text-anchor="start" x="864.88" y="-243.16" font-family="Helvetica,sans-Serif" font-size="10.00" fill="grey">finobjsur</text>
<text xml:space="preserve" text-anchor="start" x="864.88" y="-227.91" font-family="Helvetica,sans-Serif" font-size="10.00" fill="grey">firstold1</text>
<text xml:space="preserve" text-anchor="start" x="864.88" y="-212.66" font-family="Helvetica,sans-Serif" font-size="10.00" fill="grey">fixedgc</text>
<text xml:space="preserve" text-anchor="start" x="864.88" y="-197.41" font-family="Helvetica,sans-Serif" font-size="10.00" fill="grey">gray</text>
<text xml:space="preserve" text-anchor="start" x="864.88" y="-182.16" font-family="Helvetica,sans-Serif" font-size="10.00" fill="grey"> &#160;...</text>
</g>
<!-- Node23&#45;&gt;Node24 -->
<g id="edge38_Node000024_Node000023" class="edge">
<title>Node23&#45;&gt;Node24</title>
<g id="a_edge38_Node000024_Node000023"><a xlink:title=" ">
<path fill="none" stroke="#9a32cd" stroke-dasharray="5,2" d="M341.52,-143.16C375.23,-123.07 438.23,-91 497,-91 497,-91 497,-91 1069,-91 1107.26,-91 1151.95,-93.77 1176.65,-95.55"/>
<polygon fill="#9a32cd" stroke="#9a32cd" points="340.04,-139.97 333.33,-148.18 343.69,-145.94 340.04,-139.97"/>
</a>
</g>
<text xml:space="preserve" text-anchor="start" x="774" y="-95.75" font-family="Helvetica,sans-Serif" font-size="10.00" fill="grey">gclist</text>
</g>
<!-- Node23&#45;&gt;Node27 -->
<g id="edge34_Node000027_Node000023" class="edge">
<title>Node23&#45;&gt;Node27</title>
<g id="a_edge34_Node000027_Node000023"><a xlink:title=" ">
<path fill="none" stroke="#9a32cd" stroke-dasharray="5,2" d="M357.12,-156.07C380.38,-154.41 410.21,-152.36 436.75,-150.75 527.41,-145.25 635.81,-139.97 679.24,-137.91"/>
<polygon fill="#9a32cd" stroke="#9a32cd" points="357.17,-152.55 347.44,-156.76 357.67,-159.54 357.17,-152.55"/>
</a>
</g>
<text xml:space="preserve" text-anchor="start" x="492.75" y="-155.5" font-family="Helvetica,sans-Serif" font-size="10.00" fill="grey">gc</text>
</g>
<!-- Node24&#45;&gt;Node20 -->
<g id="edge29_Node000020_Node000024" class="edge">
<title>Node24&#45;&gt;Node20</title>
<g id="a_edge29_Node000020_Node000024"><a xlink:title=" ">
<path fill="none" stroke="#9a32cd" stroke-dasharray="5,2" d="M1226.23,-111.23C1239.71,-119.17 1255.02,-130.21 1265.25,-143.75 1300.14,-189.93 1312.55,-261.02 1316.07,-287.03"/>
<polygon fill="#9a32cd" stroke="#9a32cd" points="1228.15,-108.3 1217.71,-106.5 1224.75,-114.42 1228.15,-108.3"/>
</a>
</g>
<text xml:space="preserve" text-anchor="start" x="1249.5" y="-148.5" font-family="Helvetica,sans-Serif" font-size="10.00" fill="grey">mt</text>
</g>
<!-- Node24&#45;&gt;Node24 -->
<g id="edge37_Node000024_Node000024" class="edge">
<title>Node24&#45;&gt;Node24</title>
<g id="a_edge37_Node000024_Node000024"><a xlink:title=" ">
<path fill="none" stroke="#9a32cd" stroke-dasharray="5,2" d="M1186.21,-118.36C1187.6,-122.06 1191.03,-124.62 1196.5,-124.62 1206.81,-124.62 1209.86,-115.52 1205.68,-106.91"/>
<polygon fill="#9a32cd" stroke="#9a32cd" points="1189.69,-118.71 1187.18,-108.42 1182.73,-118.03 1189.69,-118.71"/>
</a>
</g>
<text xml:space="preserve" text-anchor="start" x="1175.12" y="-129.38" font-family="Helvetica,sans-Serif" font-size="10.00" fill="grey">metatable</text>
</g>
<!-- Node25&#45;&gt;Node24 -->
<g id="edge31_Node000024_Node000025" class="edge">
<title>Node25&#45;&gt;Node24</title>
<g id="a_edge31_Node000024_Node000025"><a xlink:title=" ">
<path fill="none" stroke="#9a32cd" stroke-dasharray="5,2" d="M1098.91,-121.43C1122.91,-115.36 1155.89,-107.02 1176.43,-101.82"/>
<polygon fill="#9a32cd" stroke="#9a32cd" points="1098.24,-117.99 1089.41,-123.84 1099.96,-124.78 1098.24,-117.99"/>
</a>
</g>
<text xml:space="preserve" text-anchor="start" x="1112.75" y="-138.65" font-family="Helvetica,sans-Serif" font-size="10.00" fill="grey">lastfree</text>
<text xml:space="preserve" text-anchor="start" x="1112.75" y="-123.4" font-family="Helvetica,sans-Serif" font-size="10.00" fill="grey">node</text>
</g>
<!-- Node26 -->
<g id="Node000026" class="node">
<title>Node26</title>
<g id="a_Node000026"><a xlink:href="struct_node_1_1_node_key.html" target="_top" xlink:title=" ">
<polygon fill="white" stroke="#666666" points="931.75,-138.62 846,-138.62 846,-119.38 931.75,-119.38 931.75,-138.62"/>
<text xml:space="preserve" text-anchor="middle" x="888.88" y="-125.12" font-family="Helvetica,sans-Serif" font-size="10.00">Node::NodeKey</text>
</a>
</g>
</g>
<!-- Node26&#45;&gt;Node25 -->
<g id="edge32_Node000025_Node000026" class="edge">
<title>Node26&#45;&gt;Node25</title>
<g id="a_edge32_Node000025_Node000026"><a xlink:title=" ">
<path fill="none" stroke="#9a32cd" stroke-dasharray="5,2" d="M943.03,-129C978.58,-129 1023.22,-129 1048.08,-129"/>
<polygon fill="#9a32cd" stroke="#9a32cd" points="943.36,-125.5 933.36,-129 943.36,-132.5 943.36,-125.5"/>
</a>
</g>
<text xml:space="preserve" text-anchor="start" x="996.62" y="-133.75" font-family="Helvetica,sans-Serif" font-size="10.00" fill="grey">u</text>
</g>
<!-- Node27&#45;&gt;Node26 -->
<g id="edge33_Node000026_Node000027" class="edge">
<title>Node27&#45;&gt;Node26</title>
<g id="a_edge33_Node000026_Node000027"><a xlink:title=" ">
<path fill="none" stroke="#9a32cd" stroke-dasharray="5,2" d="M731.36,-135.69C762.46,-134.36 810.78,-132.29 845.5,-130.81"/>
<polygon fill="#9a32cd" stroke="#9a32cd" points="731.31,-132.19 721.47,-136.11 731.61,-139.18 731.31,-132.19"/>
</a>
</g>
<text xml:space="preserve" text-anchor="start" x="768.75" y="-138.93" font-family="Helvetica,sans-Serif" font-size="10.00" fill="grey">key_val</text>
</g>
<!-- Node28&#45;&gt;Node16 -->
<g id="edge39_Node000016_Node000028" class="edge">
<title>Node28&#45;&gt;Node16</title>
<g id="a_edge39_Node000016_Node000028"><a xlink:title=" ">
<path fill="none" stroke="#9a32cd" stroke-dasharray="5,2" d="M682.26,-507.72C670.09,-495.37 652.38,-479.86 633.5,-471.5 599.01,-456.23 555.1,-452.82 527.01,-452.41"/>
<polygon fill="#9a32cd" stroke="#9a32cd" points="679.63,-510.04 689.04,-514.9 684.72,-505.23 679.63,-510.04"/>
</a>
</g>
<text xml:space="preserve" text-anchor="start" x="588.5" y="-491.5" font-family="Helvetica,sans-Serif" font-size="10.00" fill="grey">base_ci</text>
<text xml:space="preserve" text-anchor="start" x="588.5" y="-476.25" font-family="Helvetica,sans-Serif" font-size="10.00" fill="grey">ci</text>
</g>
<!-- Node28&#45;&gt;Node28 -->
<g id="edge41_Node000028_Node000028" class="edge">
<title>Node28&#45;&gt;Node28</title>
<g id="a_edge41_Node000028_Node000028"><a xlink:title=" ">
<path fill="none" stroke="#9a32cd" stroke-dasharray="5,2" d="M684.36,-547.03C686.27,-550.9 691.36,-553.62 699.62,-553.62 714.74,-553.62 719.23,-544.52 713.09,-535.91"/>
<polygon fill="#9a32cd" stroke="#9a32cd" points="687.77,-547.84 685.92,-537.41 680.86,-546.72 687.77,-547.84"/>
</a>
</g>
<text xml:space="preserve" text-anchor="start" x="681.25" y="-573.62" font-family="Helvetica,sans-Serif" font-size="10.00" fill="grey">next</text>
<text xml:space="preserve" text-anchor="start" x="681.25" y="-558.38" font-family="Helvetica,sans-Serif" font-size="10.00" fill="grey">previous</text>
</g>
<!-- Node29&#45;&gt;Node16 -->
<g id="edge43_Node000016_Node000029" class="edge">
<title>Node29&#45;&gt;Node16</title>
<g id="a_edge43_Node000016_Node000029"><a xlink:title=" ">
<path fill="none" stroke="#9a32cd" stroke-dasharray="5,2" d="M275.39,-552.52C311.8,-560.61 372.6,-568.63 418.75,-547 456.63,-529.25 482.55,-483.15 492.48,-462.85"/>
<polygon fill="#9a32cd" stroke="#9a32cd" points="276.49,-549.18 265.95,-550.28 274.87,-555.99 276.49,-549.18"/>
</a>
</g>
<text xml:space="preserve" text-anchor="start" x="293.75" y="-565.67" font-family="Helvetica,sans-Serif" font-size="10.00" fill="grey">openupval</text>
</g>
<!-- Node29&#45;&gt;Node29 -->
<g id="edge45_Node000029_Node000029" class="edge">
<title>Node29&#45;&gt;Node29</title>
<g id="a_edge45_Node000029_Node000029"><a xlink:title=" ">
<path fill="none" stroke="#9a32cd" stroke-dasharray="5,2" d="M229.92,-565.03C231.54,-568.9 235.86,-571.62 242.88,-571.62 255.71,-571.62 259.52,-562.52 254.3,-553.91"/>
<polygon fill="#9a32cd" stroke="#9a32cd" points="233.34,-565.8 231.24,-555.41 226.41,-564.84 233.34,-565.8"/>
</a>
</g>
<text xml:space="preserve" text-anchor="start" x="224.5" y="-591.62" font-family="Helvetica,sans-Serif" font-size="10.00" fill="grey">next</text>
<text xml:space="preserve" text-anchor="start" x="224.5" y="-576.38" font-family="Helvetica,sans-Serif" font-size="10.00" fill="grey">previous</text>
</g>
<!-- Node30 -->
<g id="Node000030" class="node">
<title>Node30</title>
<g id="a_Node000030"><a xlink:href="structlua__longjmp.html" target="_top" xlink:title=" ">
<polygon fill="white" stroke="#666666" points="349.75,-428.62 282,-428.62 282,-409.38 349.75,-409.38 349.75,-428.62"/>
<text xml:space="preserve" text-anchor="middle" x="315.88" y="-415.12" font-family="Helvetica,sans-Serif" font-size="10.00">lua_longjmp</text>
</a>
</g>
</g>
<!-- Node30&#45;&gt;Node16 -->
<g id="edge48_Node000016_Node000030" class="edge">
<title>Node30&#45;&gt;Node16</title>
<g id="a_edge48_Node000016_Node000030"><a xlink:title=" ">
<path fill="none" stroke="#9a32cd" stroke-dasharray="5,2" d="M361.24,-426.41C379.13,-429.48 399.94,-433.16 418.75,-436.75 435.51,-439.95 454.23,-443.83 469.16,-446.99"/>
<polygon fill="#9a32cd" stroke="#9a32cd" points="361.9,-422.97 351.45,-424.74 360.72,-429.87 361.9,-422.97"/>
</a>
</g>
<text xml:space="preserve" text-anchor="start" x="374.12" y="-441.5" font-family="Helvetica,sans-Serif" font-size="10.00" fill="grey">errorJmp</text>
</g>
<!-- Node30&#45;&gt;Node30 -->
<g id="edge49_Node000030_Node000030" class="edge">
<title>Node30&#45;&gt;Node30</title>
<g id="a_edge49_Node000030_Node000030"><a xlink:title=" ">
<path fill="none" stroke="#9a32cd" stroke-dasharray="5,2" d="M302.92,-440.03C304.54,-443.9 308.86,-446.62 315.88,-446.62 328.71,-446.62 332.52,-437.52 327.3,-428.91"/>
<polygon fill="#9a32cd" stroke="#9a32cd" points="306.34,-440.8 304.24,-430.41 299.41,-439.84 306.34,-440.8"/>
</a>
</g>
<text xml:space="preserve" text-anchor="start" x="297.5" y="-451.38" font-family="Helvetica,sans-Serif" font-size="10.00" fill="grey">previous</text>
</g>
</g>
</svg>
