<?xml version="1.0" encoding="UTF-8" standalone="no"?>
<!DOCTYPE svg PUBLIC "-//W3C//DTD SVG 1.1//EN"
 "http://www.w3.org/Graphics/SVG/1.1/DTD/svg11.dtd">
<!-- Generated by graphviz version 13.1.0 (20250701.0955)
 -->
<!-- Title: str_Writer Pages: 1 -->
<svg width="707pt" height="950pt"
 viewBox="0.00 0.00 707.00 950.00" xmlns="http://www.w3.org/2000/svg" xmlns:xlink="http://www.w3.org/1999/xlink">
<g id="graph0" class="graph" transform="scale(1 1) rotate(0) translate(4 946)">
<title>str_Writer</title>
<!-- Node1 -->
<g id="Node000001" class="node">
<title>Node1</title>
<g id="a_Node000001"><a xlink:title=" ">
<polygon fill="#999999" stroke="#666666" points="286.12,-386.25 228.12,-386.25 228.12,-367 286.12,-367 286.12,-386.25"/>
<text xml:space="preserve" text-anchor="middle" x="257.12" y="-372.75" font-family="Helvetica,sans-Serif" font-size="10.00">str_Writer</text>
</a>
</g>
</g>
<!-- Node2 -->
<g id="Node000002" class="node">
<title>Node2</title>
<g id="a_Node000002"><a xlink:href="structlua_l___buffer.html" target="_top" xlink:title=" ">
<polygon fill="white" stroke="#666666" points="289.88,-540.62 224.38,-540.62 224.38,-521.38 289.88,-521.38 289.88,-540.62"/>
<text xml:space="preserve" text-anchor="middle" x="257.12" y="-527.12" font-family="Helvetica,sans-Serif" font-size="10.00">luaL_Buffer</text>
</a>
</g>
</g>
<!-- Node2&#45;&gt;Node1 -->
<g id="edge1_Node000001_Node000002" class="edge">
<title>Node2&#45;&gt;Node1</title>
<g id="a_edge1_Node000001_Node000002"><a xlink:title=" ">
<path fill="none" stroke="#9a32cd" stroke-dasharray="5,2" d="M257.12,-509.8C257.12,-476.22 257.12,-410.27 257.12,-386.46"/>
<polygon fill="#9a32cd" stroke="#9a32cd" points="253.63,-509.41 257.13,-519.41 260.63,-509.41 253.63,-509.41"/>
</a>
</g>
<text xml:space="preserve" text-anchor="start" x="260.12" y="-484.25" font-family="Helvetica,sans-Serif" font-size="10.00" fill="grey">B</text>
</g>
<!-- Node3 -->
<g id="Node000003" class="node">
<title>Node3</title>
<g id="a_Node000003"><a xlink:href="structlua___state.html" target="_top" xlink:title=" ">
<polygon fill="white" stroke="#666666" points="209.75,-641.62 152.5,-641.62 152.5,-622.38 209.75,-622.38 209.75,-641.62"/>
<text xml:space="preserve" text-anchor="middle" x="181.12" y="-628.12" font-family="Helvetica,sans-Serif" font-size="10.00">lua_State</text>
</a>
</g>
</g>
<!-- Node3&#45;&gt;Node2 -->
<g id="edge2_Node000002_Node000003" class="edge">
<title>Node3&#45;&gt;Node2</title>
<g id="a_edge2_Node000002_Node000003"><a xlink:title=" ">
<path fill="none" stroke="#9a32cd" stroke-dasharray="5,2" d="M196.88,-613.58C201.27,-608.56 205.97,-603.01 210.12,-597.75 225.79,-577.94 242.66,-553.48 251.3,-540.71"/>
<polygon fill="#9a32cd" stroke="#9a32cd" points="194.53,-610.96 190.5,-620.76 199.76,-615.61 194.53,-610.96"/>
</a>
</g>
<text xml:space="preserve" text-anchor="start" x="236.87" y="-577.62" font-family="Helvetica,sans-Serif" font-size="10.00" fill="grey">L</text>
</g>
<!-- Node3&#45;&gt;Node3 -->
<g id="edge32_Node000003_Node000003" class="edge">
<title>Node3&#45;&gt;Node3</title>
<g id="a_edge32_Node000003_Node000003"><a xlink:title=" ">
<path fill="none" stroke="#9a32cd" stroke-dasharray="5,2" d="M220.89,-639.85C225.07,-638.32 227.75,-635.71 227.75,-632 227.75,-625.59 219.73,-622.43 209.81,-622.53"/>
<polygon fill="#9a32cd" stroke="#9a32cd" points="220.7,-636.35 211.31,-641.25 221.71,-643.27 220.7,-636.35"/>
</a>
</g>
<text xml:space="preserve" text-anchor="start" x="230.75" y="-628.12" font-family="Helvetica,sans-Serif" font-size="10.00" fill="grey">twups</text>
</g>
<!-- Node7 -->
<g id="Node000007" class="node">
<title>Node7</title>
<g id="a_Node000007"><a xlink:href="structglobal___state.html" target="_top" xlink:title=" ">
<polygon fill="white" stroke="#666666" points="338.12,-19.25 268.12,-19.25 268.12,0 338.12,0 338.12,-19.25"/>
<text xml:space="preserve" text-anchor="middle" x="303.12" y="-5.75" font-family="Helvetica,sans-Serif" font-size="10.00">global_State</text>
</a>
</g>
</g>
<!-- Node3&#45;&gt;Node7 -->
<g id="edge12_Node000007_Node000003" class="edge">
<title>Node3&#45;&gt;Node7</title>
<g id="a_edge12_Node000007_Node000003"><a xlink:title=" ">
<path fill="none" stroke="#9a32cd" stroke-dasharray="5,2" d="M175.26,-610.97C158.72,-551.55 114.92,-371.28 146.12,-226 165.44,-136.05 163.87,-100.03 231.12,-37.25 241.26,-27.79 255.04,-21.63 267.84,-17.64"/>
<polygon fill="#9a32cd" stroke="#9a32cd" points="171.89,-611.93 178,-620.59 178.62,-610.01 171.89,-611.93"/>
</a>
</g>
<text xml:space="preserve" text-anchor="start" x="149.12" y="-261.25" font-family="Helvetica,sans-Serif" font-size="10.00" fill="grey">mainthread</text>
<text xml:space="preserve" text-anchor="start" x="149.12" y="-246" font-family="Helvetica,sans-Serif" font-size="10.00" fill="grey">panic</text>
<text xml:space="preserve" text-anchor="start" x="149.12" y="-230.75" font-family="Helvetica,sans-Serif" font-size="10.00" fill="grey">twups</text>
</g>
<!-- Node14 -->
<g id="Node000014" class="node">
<title>Node14</title>
<g id="a_Node000014"><a xlink:href="union_value.html" target="_top" xlink:title=" ">
<polygon fill="white" stroke="#666666" points="494.12,-540.62 454.12,-540.62 454.12,-521.38 494.12,-521.38 494.12,-540.62"/>
<text xml:space="preserve" text-anchor="middle" x="474.12" y="-527.12" font-family="Helvetica,sans-Serif" font-size="10.00">Value</text>
</a>
</g>
</g>
<!-- Node3&#45;&gt;Node14 -->
<g id="edge20_Node000014_Node000003" class="edge">
<title>Node3&#45;&gt;Node14</title>
<g id="a_edge20_Node000014_Node000003"><a xlink:title=" ">
<path fill="none" stroke="#9a32cd" stroke-dasharray="5,2" d="M217.67,-618.22C256.07,-604.84 318.25,-583.3 372.12,-565.25 400.38,-555.78 433.16,-545.16 453.77,-538.53"/>
<polygon fill="#9a32cd" stroke="#9a32cd" points="216.75,-614.83 208.46,-621.43 219.05,-621.44 216.75,-614.83"/>
</a>
</g>
<text xml:space="preserve" text-anchor="start" x="375.12" y="-577.62" font-family="Helvetica,sans-Serif" font-size="10.00" fill="grey">f</text>
</g>
<!-- Node15 -->
<g id="Node000015" class="node">
<title>Node15</title>
<g id="a_Node000015"><a xlink:href="struct_call_info.html" target="_top" xlink:title=" ">
<polygon fill="white" stroke="#666666" points="56,-540.62 6.25,-540.62 6.25,-521.38 56,-521.38 56,-540.62"/>
<text xml:space="preserve" text-anchor="middle" x="31.12" y="-527.12" font-family="Helvetica,sans-Serif" font-size="10.00">CallInfo</text>
</a>
</g>
</g>
<!-- Node3&#45;&gt;Node15 -->
<g id="edge27_Node000015_Node000003" class="edge">
<title>Node3&#45;&gt;Node15</title>
<g id="a_edge27_Node000015_Node000003"><a xlink:title=" ">
<path fill="none" stroke="#9a32cd" stroke-dasharray="5,2" d="M141.02,-629.87C113.63,-627.05 78.22,-619.1 54.88,-597.75 38.4,-582.68 33.34,-555.31 31.79,-541.1"/>
<polygon fill="#9a32cd" stroke="#9a32cd" points="140.44,-633.34 150.69,-630.67 141.01,-626.36 140.44,-633.34"/>
</a>
</g>
<text xml:space="preserve" text-anchor="start" x="57.88" y="-577.62" font-family="Helvetica,sans-Serif" font-size="10.00" fill="grey">k</text>
</g>
<!-- Node4 -->
<g id="Node000004" class="node">
<title>Node4</title>
<g id="a_Node000004"><a xlink:href="union_stk_id_rel.html" target="_top" xlink:title=" ">
<polygon fill="white" stroke="#666666" points="54.25,-766.5 0,-766.5 0,-747.25 54.25,-747.25 54.25,-766.5"/>
<text xml:space="preserve" text-anchor="middle" x="27.12" y="-753" font-family="Helvetica,sans-Serif" font-size="10.00">StkIdRel</text>
</a>
</g>
</g>
<!-- Node4&#45;&gt;Node3 -->
<g id="edge3_Node000003_Node000004" class="edge">
<title>Node4&#45;&gt;Node3</title>
<g id="a_edge3_Node000003_Node000004"><a xlink:title=" ">
<path fill="none" stroke="#9a32cd" stroke-dasharray="5,2" d="M34.95,-736.58C45.17,-711.74 62.43,-671.18 68.12,-666.25 91.77,-645.76 127.52,-637.89 152.45,-634.87"/>
<polygon fill="#9a32cd" stroke="#9a32cd" points="31.81,-735.01 31.27,-745.59 38.29,-737.65 31.81,-735.01"/>
</a>
</g>
<text xml:space="preserve" text-anchor="start" x="71.12" y="-716.75" font-family="Helvetica,sans-Serif" font-size="10.00" fill="grey">stack</text>
<text xml:space="preserve" text-anchor="start" x="71.12" y="-701.5" font-family="Helvetica,sans-Serif" font-size="10.00" fill="grey">stack_last</text>
<text xml:space="preserve" text-anchor="start" x="71.12" y="-686.25" font-family="Helvetica,sans-Serif" font-size="10.00" fill="grey">tbclist</text>
<text xml:space="preserve" text-anchor="start" x="71.12" y="-671" font-family="Helvetica,sans-Serif" font-size="10.00" fill="grey">top</text>
</g>
<!-- Node4&#45;&gt;Node15 -->
<g id="edge25_Node000015_Node000004" class="edge">
<title>Node4&#45;&gt;Node15</title>
<g id="a_edge25_Node000015_Node000004"><a xlink:title=" ">
<path fill="none" stroke="#9a32cd" stroke-dasharray="5,2" d="M27.49,-735.46C28.33,-688.39 30.38,-573.75 30.97,-540.92"/>
<polygon fill="#9a32cd" stroke="#9a32cd" points="23.99,-735.25 27.31,-745.31 30.99,-735.37 23.99,-735.25"/>
</a>
</g>
<text xml:space="preserve" text-anchor="start" x="32.59" y="-635.75" font-family="Helvetica,sans-Serif" font-size="10.00" fill="grey">func</text>
<text xml:space="preserve" text-anchor="start" x="32.59" y="-620.5" font-family="Helvetica,sans-Serif" font-size="10.00" fill="grey">top</text>
</g>
<!-- Node5 -->
<g id="Node000005" class="node">
<title>Node5</title>
<g id="a_Node000005"><a xlink:href="union_stack_value.html" target="_top" xlink:title=" ">
<polygon fill="white" stroke="#666666" points="232.88,-854.25 167.38,-854.25 167.38,-835 232.88,-835 232.88,-854.25"/>
<text xml:space="preserve" text-anchor="middle" x="200.12" y="-840.75" font-family="Helvetica,sans-Serif" font-size="10.00">StackValue</text>
</a>
</g>
</g>
<!-- Node5&#45;&gt;Node4 -->
<g id="edge4_Node000004_Node000005" class="edge">
<title>Node5&#45;&gt;Node4</title>
<g id="a_edge4_Node000004_Node000005"><a xlink:title=" ">
<path fill="none" stroke="#9a32cd" stroke-dasharray="5,2" d="M171.68,-829.53C135.88,-811.78 75.45,-781.83 45.33,-766.9"/>
<polygon fill="#9a32cd" stroke="#9a32cd" points="170.07,-832.63 180.58,-833.94 173.18,-826.36 170.07,-832.63"/>
</a>
</g>
<text xml:space="preserve" text-anchor="start" x="147.17" y="-796.88" font-family="Helvetica,sans-Serif" font-size="10.00" fill="grey">p</text>
</g>
<!-- Node6 -->
<g id="Node000006" class="node">
<title>Node6</title>
<g id="a_Node000006"><a xlink:href="struct_t_value.html" target="_top" xlink:title=" ">
<polygon fill="white" stroke="#666666" points="349.12,-942 303.12,-942 303.12,-922.75 349.12,-922.75 349.12,-942"/>
<text xml:space="preserve" text-anchor="middle" x="326.12" y="-928.5" font-family="Helvetica,sans-Serif" font-size="10.00">TValue</text>
</a>
</g>
</g>
<!-- Node6&#45;&gt;Node5 -->
<g id="edge5_Node000005_Node000006" class="edge">
<title>Node6&#45;&gt;Node5</title>
<g id="a_edge5_Node000005_Node000006"><a xlink:title=" ">
<path fill="none" stroke="#9a32cd" stroke-dasharray="5,2" d="M291.6,-929.32C270.92,-926.46 245.26,-919.85 227.38,-904.75 211.83,-891.63 204.67,-867.73 201.79,-854.69"/>
<polygon fill="#9a32cd" stroke="#9a32cd" points="290.97,-932.77 301.3,-930.41 291.75,-925.81 290.97,-932.77"/>
</a>
</g>
<text xml:space="preserve" text-anchor="start" x="230.38" y="-884.62" font-family="Helvetica,sans-Serif" font-size="10.00" fill="grey">val</text>
</g>
<!-- Node6&#45;&gt;Node7 -->
<g id="edge10_Node000007_Node000006" class="edge">
<title>Node6&#45;&gt;Node7</title>
<g id="a_edge10_Node000007_Node000006"><a xlink:title=" ">
<path fill="none" stroke="#9a32cd" stroke-dasharray="5,2" d="M326.12,-910.87C326.12,-893.49 326.12,-867.93 326.12,-845.62 326.12,-845.62 326.12,-845.62 326.12,-580.5 326.12,-451.43 316.33,-419.07 295.12,-291.75 287.48,-245.83 272.63,-235.17 276.12,-188.75 281.06,-123.25 296.07,-45.35 301.3,-19.47"/>
<polygon fill="#9a32cd" stroke="#9a32cd" points="322.63,-910.85 326.13,-920.85 329.63,-910.85 322.63,-910.85"/>
</a>
</g>
<text xml:space="preserve" text-anchor="start" x="328.86" y="-534.75" font-family="Helvetica,sans-Serif" font-size="10.00" fill="grey">l_registry</text>
<text xml:space="preserve" text-anchor="start" x="328.86" y="-519.5" font-family="Helvetica,sans-Serif" font-size="10.00" fill="grey">nilvalue</text>
</g>
<!-- Node11 -->
<g id="Node000011" class="node">
<title>Node11</title>
<g id="a_Node000011"><a xlink:href="struct_table.html" target="_top" xlink:title=" ">
<polygon fill="white" stroke="#666666" points="496.75,-106 457.5,-106 457.5,-86.75 496.75,-86.75 496.75,-106"/>
<text xml:space="preserve" text-anchor="middle" x="477.12" y="-92.5" font-family="Helvetica,sans-Serif" font-size="10.00">Table</text>
</a>
</g>
</g>
<!-- Node6&#45;&gt;Node11 -->
<g id="edge15_Node000011_Node000006" class="edge">
<title>Node6&#45;&gt;Node11</title>
<g id="a_edge15_Node000011_Node000006"><a xlink:title=" ">
<path fill="none" stroke="#9a32cd" stroke-dasharray="5,2" d="M352.9,-916.16C375.13,-901.33 403.12,-876.51 403.12,-845.62 403.12,-845.62 403.12,-845.62 403.12,-487.12 403.12,-353.01 411.41,-317.74 448.12,-188.75 456.78,-158.34 468.56,-122.73 474.06,-106.4"/>
<polygon fill="#9a32cd" stroke="#9a32cd" points="351.09,-913.17 344.49,-921.46 354.82,-919.09 351.09,-913.17"/>
</a>
</g>
<text xml:space="preserve" text-anchor="start" x="406.12" y="-577.62" font-family="Helvetica,sans-Serif" font-size="10.00" fill="grey">array</text>
</g>
<!-- Node12 -->
<g id="Node000012" class="node">
<title>Node12</title>
<g id="a_Node000012"><a xlink:href="union_node.html" target="_top" xlink:title=" ">
<polygon fill="white" stroke="#666666" points="496.75,-208 457.5,-208 457.5,-188.75 496.75,-188.75 496.75,-208"/>
<text xml:space="preserve" text-anchor="middle" x="477.12" y="-194.5" font-family="Helvetica,sans-Serif" font-size="10.00">Node</text>
</a>
</g>
</g>
<!-- Node6&#45;&gt;Node12 -->
<g id="edge21_Node000012_Node000006" class="edge">
<title>Node6&#45;&gt;Node12</title>
<g id="a_edge21_Node000012_Node000006"><a xlink:title=" ">
<path fill="none" stroke="#9a32cd" stroke-dasharray="5,2" d="M360.9,-930.14C448.83,-926.09 673.12,-909.49 673.12,-845.62 673.12,-845.62 673.12,-845.62 673.12,-375.62 673.12,-336.85 673.45,-321.94 649.12,-291.75 608.61,-241.47 533.15,-214.87 497.19,-204.55"/>
<polygon fill="#9a32cd" stroke="#9a32cd" points="360.78,-926.65 350.94,-930.57 361.08,-933.64 360.78,-926.65"/>
</a>
</g>
<text xml:space="preserve" text-anchor="start" x="676.12" y="-628.12" font-family="Helvetica,sans-Serif" font-size="10.00" fill="grey">i_val</text>
</g>
<!-- Node16 -->
<g id="Node000016" class="node">
<title>Node16</title>
<g id="a_Node000016"><a xlink:href="struct_up_val.html" target="_top" xlink:title=" ">
<polygon fill="white" stroke="#666666" points="250.25,-810.38 208,-810.38 208,-791.12 250.25,-791.12 250.25,-810.38"/>
<text xml:space="preserve" text-anchor="middle" x="229.12" y="-796.88" font-family="Helvetica,sans-Serif" font-size="10.00">UpVal</text>
</a>
</g>
</g>
<!-- Node6&#45;&gt;Node16 -->
<g id="edge29_Node000016_Node000006" class="edge">
<title>Node6&#45;&gt;Node16</title>
<g id="a_edge29_Node000016_Node000006"><a xlink:title=" ">
<path fill="none" stroke="#9a32cd" stroke-dasharray="5,2" d="M297.08,-916.52C291.97,-913.1 286.98,-909.15 282.88,-904.75 268.78,-889.62 242.79,-832.67 233,-810.58"/>
<polygon fill="#9a32cd" stroke="#9a32cd" points="295.19,-919.47 305.56,-921.66 298.82,-913.48 295.19,-919.47"/>
</a>
</g>
<text xml:space="preserve" text-anchor="start" x="285.88" y="-892.25" font-family="Helvetica,sans-Serif" font-size="10.00" fill="grey">p</text>
<text xml:space="preserve" text-anchor="start" x="285.88" y="-877" font-family="Helvetica,sans-Serif" font-size="10.00" fill="grey">value</text>
</g>
<!-- Node7&#45;&gt;Node3 -->
<g id="edge6_Node000003_Node000007" class="edge">
<title>Node7&#45;&gt;Node3</title>
<g id="a_edge6_Node000003_Node000007"><a xlink:title=" ">
<path fill="none" stroke="#9a32cd" stroke-dasharray="5,2" d="M257.84,-24.24C252.16,-27.66 246.99,-31.94 243.12,-37.25 207.09,-86.82 184.72,-551.54 181.52,-622.05"/>
<polygon fill="#9a32cd" stroke="#9a32cd" points="259.06,-27.54 266.41,-19.91 255.91,-21.29 259.06,-27.54"/>
</a>
</g>
<text xml:space="preserve" text-anchor="start" x="211.55" y="-246" font-family="Helvetica,sans-Serif" font-size="10.00" fill="grey">l_G</text>
</g>
<!-- Node8 -->
<g id="Node000008" class="node">
<title>Node8</title>
<g id="a_Node000008"><a xlink:href="structstringtable.html" target="_top" xlink:title=" ">
<polygon fill="white" stroke="#666666" points="439.62,-106 378.62,-106 378.62,-86.75 439.62,-86.75 439.62,-106"/>
<text xml:space="preserve" text-anchor="middle" x="409.12" y="-92.5" font-family="Helvetica,sans-Serif" font-size="10.00">stringtable</text>
</a>
</g>
</g>
<!-- Node8&#45;&gt;Node7 -->
<g id="edge7_Node000007_Node000008" class="edge">
<title>Node8&#45;&gt;Node7</title>
<g id="a_edge7_Node000007_Node000008"><a xlink:title=" ">
<path fill="none" stroke="#9a32cd" stroke-dasharray="5,2" d="M388.88,-79.19C366.75,-61.5 332.11,-33.8 314.39,-19.63"/>
<polygon fill="#9a32cd" stroke="#9a32cd" points="386.6,-81.85 396.6,-85.36 390.97,-76.38 386.6,-81.85"/>
</a>
</g>
<text xml:space="preserve" text-anchor="start" x="359.12" y="-42" font-family="Helvetica,sans-Serif" font-size="10.00" fill="grey">strt</text>
</g>
<!-- Node9 -->
<g id="Node000009" class="node">
<title>Node9</title>
<g id="a_Node000009"><a xlink:href="struct_t_string.html" target="_top" xlink:title=" ">
<polygon fill="white" stroke="#666666" points="332.88,-208 285.38,-208 285.38,-188.75 332.88,-188.75 332.88,-208"/>
<text xml:space="preserve" text-anchor="middle" x="309.12" y="-194.5" font-family="Helvetica,sans-Serif" font-size="10.00">TString</text>
</a>
</g>
</g>
<!-- Node9&#45;&gt;Node7 -->
<g id="edge13_Node000007_Node000009" class="edge">
<title>Node9&#45;&gt;Node7</title>
<g id="a_edge13_Node000007_Node000009"><a xlink:title=" ">
<path fill="none" stroke="#9a32cd" stroke-dasharray="5,2" d="M308.47,-177.12C307.18,-136.81 304.32,-47.95 303.41,-19.54"/>
<polygon fill="#9a32cd" stroke="#9a32cd" points="304.97,-176.97 308.79,-186.85 311.96,-176.75 304.97,-176.97"/>
</a>
</g>
<text xml:space="preserve" text-anchor="start" x="309.62" y="-107.75" font-family="Helvetica,sans-Serif" font-size="10.00" fill="grey">memerrmsg</text>
<text xml:space="preserve" text-anchor="start" x="309.62" y="-92.5" font-family="Helvetica,sans-Serif" font-size="10.00" fill="grey">strcache</text>
<text xml:space="preserve" text-anchor="start" x="309.62" y="-77.25" font-family="Helvetica,sans-Serif" font-size="10.00" fill="grey">tmname</text>
</g>
<!-- Node9&#45;&gt;Node8 -->
<g id="edge8_Node000008_Node000009" class="edge">
<title>Node9&#45;&gt;Node8</title>
<g id="a_edge8_Node000008_Node000009"><a xlink:title=" ">
<path fill="none" stroke="#9a32cd" stroke-dasharray="5,2" d="M325.99,-180.46C337.78,-168.63 353.9,-152.46 368.12,-138.25 379.07,-127.31 391.69,-114.74 400,-106.46"/>
<polygon fill="#9a32cd" stroke="#9a32cd" points="323.56,-177.93 318.98,-187.48 328.52,-182.87 323.56,-177.93"/>
</a>
</g>
<text xml:space="preserve" text-anchor="start" x="371.12" y="-150.62" font-family="Helvetica,sans-Serif" font-size="10.00" fill="grey">hash</text>
</g>
<!-- Node9&#45;&gt;Node9 -->
<g id="edge9_Node000009_Node000009" class="edge">
<title>Node9&#45;&gt;Node9</title>
<g id="a_edge9_Node000009_Node000009"><a xlink:title=" ">
<path fill="none" stroke="#9a32cd" stroke-dasharray="5,2" d="M344.36,-205.33C348.32,-204.02 350.88,-201.7 350.88,-198.38 350.88,-192.46 342.79,-189.74 333.15,-190.2"/>
<polygon fill="#9a32cd" stroke="#9a32cd" points="344.22,-201.82 334.66,-206.39 344.98,-208.78 344.22,-201.82"/>
</a>
</g>
<text xml:space="preserve" text-anchor="start" x="353.88" y="-194.5" font-family="Helvetica,sans-Serif" font-size="10.00" fill="grey">hnext</text>
</g>
<!-- Node10 -->
<g id="Node000010" class="node">
<title>Node10</title>
<g id="a_Node000010"><a xlink:href="struct_g_c_object.html" target="_top" xlink:title=" ">
<polygon fill="white" stroke="#666666" points="552.88,-766.5 493.38,-766.5 493.38,-747.25 552.88,-747.25 552.88,-766.5"/>
<text xml:space="preserve" text-anchor="middle" x="523.12" y="-753" font-family="Helvetica,sans-Serif" font-size="10.00">GCObject</text>
</a>
</g>
</g>
<!-- Node10&#45;&gt;Node3 -->
<g id="edge31_Node000003_Node000010" class="edge">
<title>Node10&#45;&gt;Node3</title>
<g id="a_edge31_Node000003_Node000010"><a xlink:title=" ">
<path fill="none" stroke="#9a32cd" stroke-dasharray="5,2" d="M487.15,-742.95C417.6,-717.96 266.26,-663.59 206.31,-642.05"/>
<polygon fill="#9a32cd" stroke="#9a32cd" points="485.96,-746.24 496.55,-746.33 488.32,-739.65 485.96,-746.24"/>
</a>
</g>
<text xml:space="preserve" text-anchor="start" x="443.48" y="-693.88" font-family="Helvetica,sans-Serif" font-size="10.00" fill="grey">gclist</text>
</g>
<!-- Node10&#45;&gt;Node7 -->
<g id="edge11_Node000007_Node000010" class="edge">
<title>Node10&#45;&gt;Node7</title>
<g id="a_edge11_Node000007_Node000010"><a xlink:title=" ">
<path fill="none" stroke="#9a32cd" stroke-dasharray="5,2" d="M542.95,-739.06C545.92,-735.99 548.77,-732.67 551.12,-729.25 577.37,-691.07 591.12,-679.32 591.12,-633 591.12,-633 591.12,-633 591.12,-95.38 591.12,-43.26 415.34,-20.85 338.44,-13.53"/>
<polygon fill="#9a32cd" stroke="#9a32cd" points="540.57,-736.5 535.68,-745.9 545.36,-741.6 540.57,-736.5"/>
</a>
</g>
<text xml:space="preserve" text-anchor="start" x="594.12" y="-449" font-family="Helvetica,sans-Serif" font-size="10.00" fill="grey">allgc</text>
<text xml:space="preserve" text-anchor="start" x="594.12" y="-433.75" font-family="Helvetica,sans-Serif" font-size="10.00" fill="grey">allweak</text>
<text xml:space="preserve" text-anchor="start" x="594.12" y="-418.5" font-family="Helvetica,sans-Serif" font-size="10.00" fill="grey">ephemeron</text>
<text xml:space="preserve" text-anchor="start" x="594.12" y="-403.25" font-family="Helvetica,sans-Serif" font-size="10.00" fill="grey">finobj</text>
<text xml:space="preserve" text-anchor="start" x="594.12" y="-388" font-family="Helvetica,sans-Serif" font-size="10.00" fill="grey">finobjold1</text>
<text xml:space="preserve" text-anchor="start" x="594.12" y="-372.75" font-family="Helvetica,sans-Serif" font-size="10.00" fill="grey">finobjrold</text>
<text xml:space="preserve" text-anchor="start" x="594.12" y="-357.5" font-family="Helvetica,sans-Serif" font-size="10.00" fill="grey">finobjsur</text>
<text xml:space="preserve" text-anchor="start" x="594.12" y="-342.25" font-family="Helvetica,sans-Serif" font-size="10.00" fill="grey">firstold1</text>
<text xml:space="preserve" text-anchor="start" x="594.12" y="-327" font-family="Helvetica,sans-Serif" font-size="10.00" fill="grey">fixedgc</text>
<text xml:space="preserve" text-anchor="start" x="594.12" y="-311.75" font-family="Helvetica,sans-Serif" font-size="10.00" fill="grey">gray</text>
<text xml:space="preserve" text-anchor="start" x="594.12" y="-296.5" font-family="Helvetica,sans-Serif" font-size="10.00" fill="grey"> &#160;...</text>
</g>
<!-- Node10&#45;&gt;Node11 -->
<g id="edge23_Node000011_Node000010" class="edge">
<title>Node10&#45;&gt;Node11</title>
<g id="a_edge23_Node000011_Node000010"><a xlink:title=" ">
<path fill="none" stroke="#9a32cd" stroke-dasharray="5,2" d="M528.87,-736.2C535.39,-712.09 545.12,-669.91 545.12,-633 545.12,-633 545.12,-633 545.12,-197.38 545.12,-157.9 508.45,-122.48 488.97,-106.44"/>
<polygon fill="#9a32cd" stroke="#9a32cd" points="525.57,-735 526.23,-745.57 532.31,-736.89 525.57,-735"/>
</a>
</g>
<text xml:space="preserve" text-anchor="start" x="548.12" y="-484.25" font-family="Helvetica,sans-Serif" font-size="10.00" fill="grey">gclist</text>
</g>
<!-- Node10&#45;&gt;Node14 -->
<g id="edge19_Node000014_Node000010" class="edge">
<title>Node10&#45;&gt;Node14</title>
<g id="a_edge19_Node000014_Node000010"><a xlink:title=" ">
<path fill="none" stroke="#9a32cd" stroke-dasharray="5,2" d="M518.72,-735.76C508.46,-688.88 483.28,-573.82 476.08,-540.92"/>
<polygon fill="#9a32cd" stroke="#9a32cd" points="515.26,-736.32 520.82,-745.34 522.1,-734.83 515.26,-736.32"/>
</a>
</g>
<text xml:space="preserve" text-anchor="start" x="502.44" y="-628.12" font-family="Helvetica,sans-Serif" font-size="10.00" fill="grey">gc</text>
</g>
<!-- Node11&#45;&gt;Node7 -->
<g id="edge14_Node000007_Node000011" class="edge">
<title>Node11&#45;&gt;Node7</title>
<g id="a_edge14_Node000007_Node000011"><a xlink:title=" ">
<path fill="none" stroke="#9a32cd" stroke-dasharray="5,2" d="M458.27,-79.08C455.29,-76.76 452.18,-74.5 449.12,-72.5 420.29,-53.67 411.81,-50.74 380.12,-37.25 364.64,-30.65 346.91,-24.44 332.37,-19.67"/>
<polygon fill="#9a32cd" stroke="#9a32cd" points="456.03,-81.76 465.98,-85.4 460.47,-76.35 456.03,-81.76"/>
</a>
</g>
<text xml:space="preserve" text-anchor="start" x="421.02" y="-42" font-family="Helvetica,sans-Serif" font-size="10.00" fill="grey">mt</text>
</g>
<!-- Node11&#45;&gt;Node11 -->
<g id="edge22_Node000011_Node000011" class="edge">
<title>Node11&#45;&gt;Node11</title>
<g id="a_edge22_Node000011_Node000011"><a xlink:title=" ">
<path fill="none" stroke="#9a32cd" stroke-dasharray="5,2" d="M508.09,-104.69C512.1,-103.25 514.75,-100.48 514.75,-96.38 514.75,-89.08 506.37,-86 496.87,-87.14"/>
<polygon fill="#9a32cd" stroke="#9a32cd" points="508.06,-101.18 498.38,-105.49 508.63,-108.15 508.06,-101.18"/>
</a>
</g>
<text xml:space="preserve" text-anchor="start" x="517.75" y="-92.5" font-family="Helvetica,sans-Serif" font-size="10.00" fill="grey">metatable</text>
</g>
<!-- Node12&#45;&gt;Node11 -->
<g id="edge16_Node000011_Node000012" class="edge">
<title>Node12&#45;&gt;Node11</title>
<g id="a_edge16_Node000011_Node000012"><a xlink:title=" ">
<path fill="none" stroke="#9a32cd" stroke-dasharray="5,2" d="M477.12,-177.07C477.12,-155.45 477.12,-122.21 477.12,-106.37"/>
<polygon fill="#9a32cd" stroke="#9a32cd" points="473.63,-176.99 477.13,-186.99 480.63,-176.99 473.63,-176.99"/>
</a>
</g>
<text xml:space="preserve" text-anchor="start" x="480.12" y="-158.25" font-family="Helvetica,sans-Serif" font-size="10.00" fill="grey">lastfree</text>
<text xml:space="preserve" text-anchor="start" x="480.12" y="-143" font-family="Helvetica,sans-Serif" font-size="10.00" fill="grey">node</text>
</g>
<!-- Node13 -->
<g id="Node000013" class="node">
<title>Node13</title>
<g id="a_Node000013"><a xlink:href="struct_node_1_1_node_key.html" target="_top" xlink:title=" ">
<polygon fill="white" stroke="#666666" points="517,-386.25 431.25,-386.25 431.25,-367 517,-367 517,-386.25"/>
<text xml:space="preserve" text-anchor="middle" x="474.12" y="-372.75" font-family="Helvetica,sans-Serif" font-size="10.00">Node::NodeKey</text>
</a>
</g>
</g>
<!-- Node13&#45;&gt;Node12 -->
<g id="edge17_Node000012_Node000013" class="edge">
<title>Node13&#45;&gt;Node12</title>
<g id="a_edge17_Node000012_Node000013"><a xlink:title=" ">
<path fill="none" stroke="#9a32cd" stroke-dasharray="5,2" d="M474.47,-355.2C475.13,-316.73 476.52,-234.99 476.98,-208.13"/>
<polygon fill="#9a32cd" stroke="#9a32cd" points="470.97,-355.07 474.3,-365.13 477.97,-355.19 470.97,-355.07"/>
</a>
</g>
<text xml:space="preserve" text-anchor="start" x="479.62" y="-246" font-family="Helvetica,sans-Serif" font-size="10.00" fill="grey">u</text>
</g>
<!-- Node14&#45;&gt;Node13 -->
<g id="edge18_Node000013_Node000014" class="edge">
<title>Node14&#45;&gt;Node13</title>
<g id="a_edge18_Node000013_Node000014"><a xlink:title=" ">
<path fill="none" stroke="#9a32cd" stroke-dasharray="5,2" d="M474.12,-509.8C474.12,-476.22 474.12,-410.27 474.12,-386.46"/>
<polygon fill="#9a32cd" stroke="#9a32cd" points="470.63,-509.41 474.13,-519.41 477.63,-509.41 470.63,-509.41"/>
</a>
</g>
<text xml:space="preserve" text-anchor="start" x="477.12" y="-484.25" font-family="Helvetica,sans-Serif" font-size="10.00" fill="grey">key_val</text>
</g>
<!-- Node15&#45;&gt;Node3 -->
<g id="edge24_Node000003_Node000015" class="edge">
<title>Node15&#45;&gt;Node3</title>
<g id="a_edge24_Node000003_Node000015"><a xlink:title=" ">
<path fill="none" stroke="#9a32cd" stroke-dasharray="5,2" d="M50.98,-548.41C56.75,-553.56 62.91,-559.42 68.12,-565.25 79.97,-578.49 77.26,-586.97 91.38,-597.75 109.33,-611.47 133.54,-619.99 152.29,-624.97"/>
<polygon fill="#9a32cd" stroke="#9a32cd" points="53.4,-545.88 43.54,-542.01 48.84,-551.18 53.4,-545.88"/>
</a>
</g>
<text xml:space="preserve" text-anchor="start" x="94.38" y="-585.25" font-family="Helvetica,sans-Serif" font-size="10.00" fill="grey">base_ci</text>
<text xml:space="preserve" text-anchor="start" x="94.38" y="-570" font-family="Helvetica,sans-Serif" font-size="10.00" fill="grey">ci</text>
</g>
<!-- Node15&#45;&gt;Node15 -->
<g id="edge26_Node000015_Node000015" class="edge">
<title>Node15&#45;&gt;Node15</title>
<g id="a_edge26_Node000015_Node000015"><a xlink:title=" ">
<path fill="none" stroke="#9a32cd" stroke-dasharray="5,2" d="M67.49,-537.74C71.45,-536.45 74,-534.2 74,-531 74,-525.31 65.93,-522.64 56.23,-522.99"/>
<polygon fill="#9a32cd" stroke="#9a32cd" points="67.28,-534.24 57.73,-538.84 68.06,-541.2 67.28,-534.24"/>
</a>
</g>
<text xml:space="preserve" text-anchor="start" x="77" y="-534.75" font-family="Helvetica,sans-Serif" font-size="10.00" fill="grey">next</text>
<text xml:space="preserve" text-anchor="start" x="77" y="-519.5" font-family="Helvetica,sans-Serif" font-size="10.00" fill="grey">previous</text>
</g>
<!-- Node16&#45;&gt;Node3 -->
<g id="edge28_Node000003_Node000016" class="edge">
<title>Node16&#45;&gt;Node3</title>
<g id="a_edge28_Node000003_Node000016"><a xlink:title=" ">
<path fill="none" stroke="#9a32cd" stroke-dasharray="5,2" d="M229.46,-779.48C229.17,-752.46 226.04,-703.69 209.12,-666.25 204.9,-656.9 197.26,-648.1 191.03,-641.9"/>
<polygon fill="#9a32cd" stroke="#9a32cd" points="225.96,-779.33 229.43,-789.34 232.96,-779.35 225.96,-779.33"/>
</a>
</g>
<text xml:space="preserve" text-anchor="start" x="232.12" y="-753" font-family="Helvetica,sans-Serif" font-size="10.00" fill="grey">openupval</text>
</g>
<!-- Node16&#45;&gt;Node16 -->
<g id="edge30_Node000016_Node000016" class="edge">
<title>Node16&#45;&gt;Node16</title>
<g id="a_edge30_Node000016_Node000016"><a xlink:title=" ">
<path fill="none" stroke="#9a32cd" stroke-dasharray="5,2" d="M261.66,-807.87C265.64,-806.59 268.25,-804.22 268.25,-800.75 268.25,-794.58 260,-791.88 250.45,-792.65"/>
<polygon fill="#9a32cd" stroke="#9a32cd" points="261.62,-804.36 251.96,-808.72 262.23,-811.33 261.62,-804.36"/>
</a>
</g>
<text xml:space="preserve" text-anchor="start" x="271.25" y="-804.5" font-family="Helvetica,sans-Serif" font-size="10.00" fill="grey">next</text>
<text xml:space="preserve" text-anchor="start" x="271.25" y="-789.25" font-family="Helvetica,sans-Serif" font-size="10.00" fill="grey">previous</text>
</g>
<!-- Node17 -->
<g id="Node000017" class="node">
<title>Node17</title>
<g id="a_Node000017"><a xlink:href="structlua__longjmp.html" target="_top" xlink:title=" ">
<polygon fill="white" stroke="#666666" points="140,-766.5 72.25,-766.5 72.25,-747.25 140,-747.25 140,-766.5"/>
<text xml:space="preserve" text-anchor="middle" x="106.12" y="-753" font-family="Helvetica,sans-Serif" font-size="10.00">lua_longjmp</text>
</a>
</g>
</g>
<!-- Node17&#45;&gt;Node3 -->
<g id="edge33_Node000003_Node000017" class="edge">
<title>Node17&#45;&gt;Node3</title>
<g id="a_edge33_Node000003_Node000017"><a xlink:title=" ">
<path fill="none" stroke="#9a32cd" stroke-dasharray="5,2" d="M117.89,-737.58C119.66,-734.8 121.45,-731.95 123.12,-729.25 142.87,-697.42 165.62,-659.19 175.77,-642.07"/>
<polygon fill="#9a32cd" stroke="#9a32cd" points="115.1,-735.45 112.66,-745.76 121,-739.22 115.1,-735.45"/>
</a>
</g>
<text xml:space="preserve" text-anchor="start" x="163.64" y="-693.88" font-family="Helvetica,sans-Serif" font-size="10.00" fill="grey">errorJmp</text>
</g>
<!-- Node17&#45;&gt;Node17 -->
<g id="edge34_Node000017_Node000017" class="edge">
<title>Node17&#45;&gt;Node17</title>
<g id="a_edge34_Node000017_Node000017"><a xlink:title=" ">
<path fill="none" stroke="#9a32cd" stroke-dasharray="5,2" d="M151.21,-763.44C155.37,-762.09 158,-759.9 158,-756.88 158,-751.65 150.15,-748.91 140.05,-748.67"/>
<polygon fill="#9a32cd" stroke="#9a32cd" points="150.93,-759.95 141.55,-764.86 151.95,-766.87 150.93,-759.95"/>
</a>
</g>
<text xml:space="preserve" text-anchor="start" x="161" y="-753" font-family="Helvetica,sans-Serif" font-size="10.00" fill="grey">previous</text>
</g>
</g>
</svg>
