<?xml version="1.0" encoding="UTF-8" standalone="no"?>
<!DOCTYPE svg PUBLIC "-//W3C//DTD SVG 1.1//EN"
 "http://www.w3.org/Graphics/SVG/1.1/DTD/svg11.dtd">
<!-- Generated by graphviz version 13.1.0 (20250701.0955)
 -->
<!-- Title: PGB_Application Pages: 1 -->
<svg width="299pt" height="188pt"
 viewBox="0.00 0.00 299.00 188.00" xmlns="http://www.w3.org/2000/svg" xmlns:xlink="http://www.w3.org/1999/xlink">
<g id="graph0" class="graph" transform="scale(1 1) rotate(0) translate(4 183.5)">
<title>PGB_Application</title>
<!-- Node1 -->
<g id="Node000001" class="node">
<title>Node1</title>
<g id="a_Node000001"><a xlink:title=" ">
<polygon fill="#999999" stroke="#666666" points="176.12,-19.25 85.88,-19.25 85.88,0 176.12,0 176.12,-19.25"/>
<text xml:space="preserve" text-anchor="middle" x="131" y="-5.75" font-family="Helvetica,sans-Serif" font-size="10.00">PGB_Application</text>
</a>
</g>
</g>
<!-- Node2 -->
<g id="Node000002" class="node">
<title>Node2</title>
<g id="a_Node000002"><a xlink:href="struct_p_g_b___scene.html" target="_top" xlink:title=" ">
<polygon fill="white" stroke="#666666" points="70,-107 0,-107 0,-87.75 70,-87.75 70,-107"/>
<text xml:space="preserve" text-anchor="middle" x="35" y="-93.5" font-family="Helvetica,sans-Serif" font-size="10.00">PGB_Scene</text>
</a>
</g>
</g>
<!-- Node2&#45;&gt;Node1 -->
<g id="edge1_Node000001_Node000002" class="edge">
<title>Node2&#45;&gt;Node1</title>
<g id="a_edge1_Node000001_Node000002"><a xlink:title=" ">
<path fill="none" stroke="#9a32cd" stroke-dasharray="5,2" d="M53.25,-80.08C73.36,-62.11 104.99,-33.86 121,-19.56"/>
<polygon fill="#9a32cd" stroke="#9a32cd" points="51.17,-77.24 46.04,-86.51 55.83,-82.46 51.17,-77.24"/>
</a>
</g>
<text xml:space="preserve" text-anchor="start" x="102.95" y="-57.25" font-family="Helvetica,sans-Serif" font-size="10.00" fill="grey">pendingScene</text>
<text xml:space="preserve" text-anchor="start" x="102.95" y="-42" font-family="Helvetica,sans-Serif" font-size="10.00" fill="grey">scene</text>
</g>
<!-- Node2&#45;&gt;Node2 -->
<g id="edge2_Node000002_Node000002" class="edge">
<title>Node2&#45;&gt;Node2</title>
<g id="a_edge2_Node000002_Node000002"><a xlink:title=" ">
<path fill="none" stroke="#9a32cd" stroke-dasharray="5,2" d="M81.27,-102.75C85.41,-101.62 88,-99.83 88,-97.38 88,-93.13 80.24,-90.87 70.17,-90.6"/>
<polygon fill="#9a32cd" stroke="#9a32cd" points="81.15,-99.23 71.67,-103.96 82.03,-106.18 81.15,-99.23"/>
</a>
</g>
<text xml:space="preserve" text-anchor="start" x="91" y="-93.5" font-family="Helvetica,sans-Serif" font-size="10.00" fill="grey">parentScene</text>
</g>
<!-- Node3 -->
<g id="Node000003" class="node">
<title>Node3</title>
<g id="a_Node000003"><a xlink:href="struct_p_g_b___global_cover_cache.html" target="_top" xlink:title=" ">
<polygon fill="white" stroke="#666666" points="291.38,-107 166.62,-107 166.62,-87.75 291.38,-87.75 291.38,-107"/>
<text xml:space="preserve" text-anchor="middle" x="229" y="-93.5" font-family="Helvetica,sans-Serif" font-size="10.00">PGB_GlobalCoverCache</text>
</a>
</g>
</g>
<!-- Node3&#45;&gt;Node1 -->
<g id="edge3_Node000001_Node000003" class="edge">
<title>Node3&#45;&gt;Node1</title>
<g id="a_edge3_Node000001_Node000003"><a xlink:title=" ">
<path fill="none" stroke="#9a32cd" stroke-dasharray="5,2" d="M213.68,-78.93C202.46,-66.62 186.54,-50.1 171,-37.25 163.16,-30.76 153.71,-24.41 145.96,-19.54"/>
<polygon fill="#9a32cd" stroke="#9a32cd" points="210.97,-81.15 220.25,-86.26 216.18,-76.48 210.97,-81.15"/>
</a>
</g>
<text xml:space="preserve" text-anchor="start" x="208.12" y="-49.62" font-family="Helvetica,sans-Serif" font-size="10.00" fill="grey">coverArtCache</text>
</g>
<!-- Node4 -->
<g id="Node000004" class="node">
<title>Node4</title>
<g id="a_Node000004"><a xlink:href="struct_p_g_b___loaded_cover_art.html" target="_top" xlink:title=" ">
<polygon fill="white" stroke="#666666" points="285.38,-179.5 172.62,-179.5 172.62,-160.25 285.38,-160.25 285.38,-179.5"/>
<text xml:space="preserve" text-anchor="middle" x="229" y="-166" font-family="Helvetica,sans-Serif" font-size="10.00">PGB_LoadedCoverArt</text>
</a>
</g>
</g>
<!-- Node4&#45;&gt;Node3 -->
<g id="edge4_Node000003_Node000004" class="edge">
<title>Node4&#45;&gt;Node3</title>
<g id="a_edge4_Node000003_Node000004"><a xlink:title=" ">
<path fill="none" stroke="#9a32cd" stroke-dasharray="5,2" d="M229,-148.8C229,-135.19 229,-117.85 229,-107.45"/>
<polygon fill="#9a32cd" stroke="#9a32cd" points="225.5,-148.43 229,-158.43 232.5,-148.43 225.5,-148.43"/>
</a>
</g>
<text xml:space="preserve" text-anchor="start" x="232" y="-129.75" font-family="Helvetica,sans-Serif" font-size="10.00" fill="grey">art</text>
</g>
</g>
</svg>
