<?xml version="1.0" encoding="UTF-8" standalone="no"?>
<!DOCTYPE svg PUBLIC "-//W3C//DTD SVG 1.1//EN"
 "http://www.w3.org/Graphics/SVG/1.1/DTD/svg11.dtd">
<!-- Generated by graphviz version 13.1.0 (20250701.0955)
 -->
<!-- Title: GMatchState Pages: 1 -->
<svg width="703pt" height="950pt"
 viewBox="0.00 0.00 703.00 950.00" xmlns="http://www.w3.org/2000/svg" xmlns:xlink="http://www.w3.org/1999/xlink">
<g id="graph0" class="graph" transform="scale(1 1) rotate(0) translate(4 946)">
<title>GMatchState</title>
<!-- Node1 -->
<g id="Node000001" class="node">
<title>Node1</title>
<g id="a_Node000001"><a xlink:title=" ">
<polygon fill="#999999" stroke="#666666" points="292,-386.25 218.25,-386.25 218.25,-367 292,-367 292,-386.25"/>
<text xml:space="preserve" text-anchor="middle" x="255.12" y="-372.75" font-family="Helvetica,sans-Serif" font-size="10.00">GMatchState</text>
</a>
</g>
</g>
<!-- Node2 -->
<g id="Node000002" class="node">
<title>Node2</title>
<g id="a_Node000002"><a xlink:href="struct_match_state.html" target="_top" xlink:title=" ">
<polygon fill="white" stroke="#666666" points="284.25,-540.62 218,-540.62 218,-521.38 284.25,-521.38 284.25,-540.62"/>
<text xml:space="preserve" text-anchor="middle" x="251.12" y="-527.12" font-family="Helvetica,sans-Serif" font-size="10.00">MatchState</text>
</a>
</g>
</g>
<!-- Node2&#45;&gt;Node1 -->
<g id="edge1_Node000001_Node000002" class="edge">
<title>Node2&#45;&gt;Node1</title>
<g id="a_edge1_Node000001_Node000002"><a xlink:title=" ">
<path fill="none" stroke="#9a32cd" stroke-dasharray="5,2" d="M251.66,-509.8C252.54,-476.22 254.27,-410.27 254.89,-386.46"/>
<polygon fill="#9a32cd" stroke="#9a32cd" points="248.17,-509.32 251.4,-519.41 255.16,-509.51 248.17,-509.32"/>
</a>
</g>
<text xml:space="preserve" text-anchor="start" x="255.42" y="-484.25" font-family="Helvetica,sans-Serif" font-size="10.00" fill="grey">ms</text>
</g>
<!-- Node3 -->
<g id="Node000003" class="node">
<title>Node3</title>
<g id="a_Node000003"><a xlink:href="structlua___state.html" target="_top" xlink:title=" ">
<polygon fill="white" stroke="#666666" points="191.75,-641.62 134.5,-641.62 134.5,-622.38 191.75,-622.38 191.75,-641.62"/>
<text xml:space="preserve" text-anchor="middle" x="163.12" y="-628.12" font-family="Helvetica,sans-Serif" font-size="10.00">lua_State</text>
</a>
</g>
</g>
<!-- Node3&#45;&gt;Node2 -->
<g id="edge2_Node000002_Node000003" class="edge">
<title>Node3&#45;&gt;Node2</title>
<g id="a_edge2_Node000002_Node000003"><a xlink:title=" ">
<path fill="none" stroke="#9a32cd" stroke-dasharray="5,2" d="M185.06,-615C191.52,-609.83 198.39,-603.85 204.12,-597.75 221.43,-579.36 237.64,-554.32 245.73,-541.08"/>
<polygon fill="#9a32cd" stroke="#9a32cd" points="183.07,-612.12 177.27,-620.99 187.34,-617.67 183.07,-612.12"/>
</a>
</g>
<text xml:space="preserve" text-anchor="start" x="231.9" y="-577.62" font-family="Helvetica,sans-Serif" font-size="10.00" fill="grey">L</text>
</g>
<!-- Node3&#45;&gt;Node3 -->
<g id="edge32_Node000003_Node000003" class="edge">
<title>Node3&#45;&gt;Node3</title>
<g id="a_edge32_Node000003_Node000003"><a xlink:title=" ">
<path fill="none" stroke="#9a32cd" stroke-dasharray="5,2" d="M202.89,-639.85C207.07,-638.32 209.75,-635.71 209.75,-632 209.75,-625.59 201.73,-622.43 191.81,-622.53"/>
<polygon fill="#9a32cd" stroke="#9a32cd" points="202.7,-636.35 193.31,-641.25 203.71,-643.27 202.7,-636.35"/>
</a>
</g>
<text xml:space="preserve" text-anchor="start" x="212.75" y="-628.12" font-family="Helvetica,sans-Serif" font-size="10.00" fill="grey">twups</text>
</g>
<!-- Node7 -->
<g id="Node000007" class="node">
<title>Node7</title>
<g id="a_Node000007"><a xlink:href="structglobal___state.html" target="_top" xlink:title=" ">
<polygon fill="white" stroke="#666666" points="334.12,-19.25 264.12,-19.25 264.12,0 334.12,0 334.12,-19.25"/>
<text xml:space="preserve" text-anchor="middle" x="299.12" y="-5.75" font-family="Helvetica,sans-Serif" font-size="10.00">global_State</text>
</a>
</g>
</g>
<!-- Node3&#45;&gt;Node7 -->
<g id="edge12_Node000007_Node000003" class="edge">
<title>Node3&#45;&gt;Node7</title>
<g id="a_edge12_Node000007_Node000003"><a xlink:title=" ">
<path fill="none" stroke="#9a32cd" stroke-dasharray="5,2" d="M157.86,-610.92C143.09,-551.34 104.39,-370.69 137.12,-226 157.63,-135.35 158.5,-99.92 227.12,-37.25 237.36,-27.9 251.16,-21.76 263.94,-17.75"/>
<polygon fill="#9a32cd" stroke="#9a32cd" points="154.46,-611.72 160.32,-620.55 161.24,-610 154.46,-611.72"/>
</a>
</g>
<text xml:space="preserve" text-anchor="start" x="140.12" y="-261.25" font-family="Helvetica,sans-Serif" font-size="10.00" fill="grey">mainthread</text>
<text xml:space="preserve" text-anchor="start" x="140.12" y="-246" font-family="Helvetica,sans-Serif" font-size="10.00" fill="grey">panic</text>
<text xml:space="preserve" text-anchor="start" x="140.12" y="-230.75" font-family="Helvetica,sans-Serif" font-size="10.00" fill="grey">twups</text>
</g>
<!-- Node14 -->
<g id="Node000014" class="node">
<title>Node14</title>
<g id="a_Node000014"><a xlink:href="union_value.html" target="_top" xlink:title=" ">
<polygon fill="white" stroke="#666666" points="490.12,-540.62 450.12,-540.62 450.12,-521.38 490.12,-521.38 490.12,-540.62"/>
<text xml:space="preserve" text-anchor="middle" x="470.12" y="-527.12" font-family="Helvetica,sans-Serif" font-size="10.00">Value</text>
</a>
</g>
</g>
<!-- Node3&#45;&gt;Node14 -->
<g id="edge20_Node000014_Node000003" class="edge">
<title>Node3&#45;&gt;Node14</title>
<g id="a_edge20_Node000014_Node000003"><a xlink:title=" ">
<path fill="none" stroke="#9a32cd" stroke-dasharray="5,2" d="M201.93,-618.49C267.8,-597.25 399.24,-554.86 449.73,-538.58"/>
<polygon fill="#9a32cd" stroke="#9a32cd" points="201.07,-615.09 192.62,-621.49 203.22,-621.75 201.07,-615.09"/>
</a>
</g>
<text xml:space="preserve" text-anchor="start" x="365.06" y="-577.62" font-family="Helvetica,sans-Serif" font-size="10.00" fill="grey">f</text>
</g>
<!-- Node15 -->
<g id="Node000015" class="node">
<title>Node15</title>
<g id="a_Node000015"><a xlink:href="struct_call_info.html" target="_top" xlink:title=" ">
<polygon fill="white" stroke="#666666" points="59,-540.62 9.25,-540.62 9.25,-521.38 59,-521.38 59,-540.62"/>
<text xml:space="preserve" text-anchor="middle" x="34.12" y="-527.12" font-family="Helvetica,sans-Serif" font-size="10.00">CallInfo</text>
</a>
</g>
</g>
<!-- Node3&#45;&gt;Node15 -->
<g id="edge27_Node000015_Node000003" class="edge">
<title>Node3&#45;&gt;Node15</title>
<g id="a_edge27_Node000015_Node000003"><a xlink:title=" ">
<path fill="none" stroke="#9a32cd" stroke-dasharray="5,2" d="M122.9,-626.95C101.18,-622.83 75.33,-614.51 57.88,-597.75 41.77,-582.28 36.54,-555.08 34.88,-541.01"/>
<polygon fill="#9a32cd" stroke="#9a32cd" points="122.2,-630.38 132.63,-628.55 123.33,-623.48 122.2,-630.38"/>
</a>
</g>
<text xml:space="preserve" text-anchor="start" x="60.88" y="-577.62" font-family="Helvetica,sans-Serif" font-size="10.00" fill="grey">k</text>
</g>
<!-- Node4 -->
<g id="Node000004" class="node">
<title>Node4</title>
<g id="a_Node000004"><a xlink:href="union_stk_id_rel.html" target="_top" xlink:title=" ">
<polygon fill="white" stroke="#666666" points="54.25,-766.5 0,-766.5 0,-747.25 54.25,-747.25 54.25,-766.5"/>
<text xml:space="preserve" text-anchor="middle" x="27.12" y="-753" font-family="Helvetica,sans-Serif" font-size="10.00">StkIdRel</text>
</a>
</g>
</g>
<!-- Node4&#45;&gt;Node3 -->
<g id="edge3_Node000003_Node000004" class="edge">
<title>Node4&#45;&gt;Node3</title>
<g id="a_edge3_Node000003_Node000004"><a xlink:title=" ">
<path fill="none" stroke="#9a32cd" stroke-dasharray="5,2" d="M36.48,-736.71C49.29,-710.48 70.76,-666.57 71.12,-666.25 88.71,-650.5 114.32,-642.05 134.06,-637.62"/>
<polygon fill="#9a32cd" stroke="#9a32cd" points="33.36,-735.11 32.12,-745.64 39.65,-738.19 33.36,-735.11"/>
</a>
</g>
<text xml:space="preserve" text-anchor="start" x="74.12" y="-716.75" font-family="Helvetica,sans-Serif" font-size="10.00" fill="grey">stack</text>
<text xml:space="preserve" text-anchor="start" x="74.12" y="-701.5" font-family="Helvetica,sans-Serif" font-size="10.00" fill="grey">stack_last</text>
<text xml:space="preserve" text-anchor="start" x="74.12" y="-686.25" font-family="Helvetica,sans-Serif" font-size="10.00" fill="grey">tbclist</text>
<text xml:space="preserve" text-anchor="start" x="74.12" y="-671" font-family="Helvetica,sans-Serif" font-size="10.00" fill="grey">top</text>
</g>
<!-- Node4&#45;&gt;Node15 -->
<g id="edge25_Node000015_Node000004" class="edge">
<title>Node4&#45;&gt;Node15</title>
<g id="a_edge25_Node000015_Node000004"><a xlink:title=" ">
<path fill="none" stroke="#9a32cd" stroke-dasharray="5,2" d="M27.76,-735.46C29.24,-688.39 32.82,-573.75 33.85,-540.92"/>
<polygon fill="#9a32cd" stroke="#9a32cd" points="24.27,-735.2 27.46,-745.31 31.27,-735.42 24.27,-735.2"/>
</a>
</g>
<text xml:space="preserve" text-anchor="start" x="34.44" y="-635.75" font-family="Helvetica,sans-Serif" font-size="10.00" fill="grey">func</text>
<text xml:space="preserve" text-anchor="start" x="34.44" y="-620.5" font-family="Helvetica,sans-Serif" font-size="10.00" fill="grey">top</text>
</g>
<!-- Node5 -->
<g id="Node000005" class="node">
<title>Node5</title>
<g id="a_Node000005"><a xlink:href="union_stack_value.html" target="_top" xlink:title=" ">
<polygon fill="white" stroke="#666666" points="226.88,-854.25 161.38,-854.25 161.38,-835 226.88,-835 226.88,-854.25"/>
<text xml:space="preserve" text-anchor="middle" x="194.12" y="-840.75" font-family="Helvetica,sans-Serif" font-size="10.00">StackValue</text>
</a>
</g>
</g>
<!-- Node5&#45;&gt;Node4 -->
<g id="edge4_Node000004_Node000005" class="edge">
<title>Node5&#45;&gt;Node4</title>
<g id="a_edge4_Node000004_Node000005"><a xlink:title=" ">
<path fill="none" stroke="#9a32cd" stroke-dasharray="5,2" d="M166.67,-829.53C132.11,-811.78 73.77,-781.83 44.7,-766.9"/>
<polygon fill="#9a32cd" stroke="#9a32cd" points="164.73,-832.46 175.22,-833.92 167.93,-826.24 164.73,-832.46"/>
</a>
</g>
<text xml:space="preserve" text-anchor="start" x="143.11" y="-796.88" font-family="Helvetica,sans-Serif" font-size="10.00" fill="grey">p</text>
</g>
<!-- Node6 -->
<g id="Node000006" class="node">
<title>Node6</title>
<g id="a_Node000006"><a xlink:href="struct_t_value.html" target="_top" xlink:title=" ">
<polygon fill="white" stroke="#666666" points="343.12,-942 297.12,-942 297.12,-922.75 343.12,-922.75 343.12,-942"/>
<text xml:space="preserve" text-anchor="middle" x="320.12" y="-928.5" font-family="Helvetica,sans-Serif" font-size="10.00">TValue</text>
</a>
</g>
</g>
<!-- Node6&#45;&gt;Node5 -->
<g id="edge5_Node000005_Node000006" class="edge">
<title>Node6&#45;&gt;Node5</title>
<g id="a_edge5_Node000005_Node000006"><a xlink:title=" ">
<path fill="none" stroke="#9a32cd" stroke-dasharray="5,2" d="M285.6,-929.32C264.92,-926.46 239.26,-919.85 221.38,-904.75 205.83,-891.63 198.67,-867.73 195.79,-854.69"/>
<polygon fill="#9a32cd" stroke="#9a32cd" points="284.97,-932.77 295.3,-930.41 285.75,-925.81 284.97,-932.77"/>
</a>
</g>
<text xml:space="preserve" text-anchor="start" x="224.38" y="-884.62" font-family="Helvetica,sans-Serif" font-size="10.00" fill="grey">val</text>
</g>
<!-- Node6&#45;&gt;Node7 -->
<g id="edge10_Node000007_Node000006" class="edge">
<title>Node6&#45;&gt;Node7</title>
<g id="a_edge10_Node000007_Node000006"><a xlink:title=" ">
<path fill="none" stroke="#9a32cd" stroke-dasharray="5,2" d="M320.12,-910.87C320.12,-893.49 320.12,-867.93 320.12,-845.62 320.12,-845.62 320.12,-845.62 320.12,-487.12 320.12,-399.88 319.75,-376.98 301.12,-291.75 292.72,-253.27 278.66,-246.84 272.12,-208 270.71,-199.56 271.48,-197.28 272.12,-188.75 277.06,-123.25 292.07,-45.35 297.3,-19.47"/>
<polygon fill="#9a32cd" stroke="#9a32cd" points="316.63,-910.85 320.13,-920.85 323.63,-910.85 316.63,-910.85"/>
</a>
</g>
<text xml:space="preserve" text-anchor="start" x="323.12" y="-534.75" font-family="Helvetica,sans-Serif" font-size="10.00" fill="grey">l_registry</text>
<text xml:space="preserve" text-anchor="start" x="323.12" y="-519.5" font-family="Helvetica,sans-Serif" font-size="10.00" fill="grey">nilvalue</text>
</g>
<!-- Node11 -->
<g id="Node000011" class="node">
<title>Node11</title>
<g id="a_Node000011"><a xlink:href="struct_table.html" target="_top" xlink:title=" ">
<polygon fill="white" stroke="#666666" points="492.75,-106 453.5,-106 453.5,-86.75 492.75,-86.75 492.75,-106"/>
<text xml:space="preserve" text-anchor="middle" x="473.12" y="-92.5" font-family="Helvetica,sans-Serif" font-size="10.00">Table</text>
</a>
</g>
</g>
<!-- Node6&#45;&gt;Node11 -->
<g id="edge15_Node000011_Node000006" class="edge">
<title>Node6&#45;&gt;Node11</title>
<g id="a_edge15_Node000011_Node000006"><a xlink:title=" ">
<path fill="none" stroke="#9a32cd" stroke-dasharray="5,2" d="M347.29,-916.53C370.14,-901.83 399.12,-877.01 399.12,-845.62 399.12,-845.62 399.12,-845.62 399.12,-487.12 399.12,-353.01 407.41,-317.74 444.12,-188.75 452.78,-158.34 464.56,-122.73 470.06,-106.4"/>
<polygon fill="#9a32cd" stroke="#9a32cd" points="345.68,-913.41 338.95,-921.59 349.32,-919.39 345.68,-913.41"/>
</a>
</g>
<text xml:space="preserve" text-anchor="start" x="402.12" y="-577.62" font-family="Helvetica,sans-Serif" font-size="10.00" fill="grey">array</text>
</g>
<!-- Node12 -->
<g id="Node000012" class="node">
<title>Node12</title>
<g id="a_Node000012"><a xlink:href="union_node.html" target="_top" xlink:title=" ">
<polygon fill="white" stroke="#666666" points="492.75,-208 453.5,-208 453.5,-188.75 492.75,-188.75 492.75,-208"/>
<text xml:space="preserve" text-anchor="middle" x="473.12" y="-194.5" font-family="Helvetica,sans-Serif" font-size="10.00">Node</text>
</a>
</g>
</g>
<!-- Node6&#45;&gt;Node12 -->
<g id="edge21_Node000012_Node000006" class="edge">
<title>Node6&#45;&gt;Node12</title>
<g id="a_edge21_Node000012_Node000006"><a xlink:title=" ">
<path fill="none" stroke="#9a32cd" stroke-dasharray="5,2" d="M354.83,-930.2C443.07,-926.26 669.12,-909.9 669.12,-845.62 669.12,-845.62 669.12,-845.62 669.12,-375.62 669.12,-336.85 669.45,-321.94 645.12,-291.75 604.61,-241.47 529.15,-214.87 493.19,-204.55"/>
<polygon fill="#9a32cd" stroke="#9a32cd" points="354.92,-926.69 345.08,-930.6 355.21,-933.68 354.92,-926.69"/>
</a>
</g>
<text xml:space="preserve" text-anchor="start" x="672.12" y="-628.12" font-family="Helvetica,sans-Serif" font-size="10.00" fill="grey">i_val</text>
</g>
<!-- Node16 -->
<g id="Node000016" class="node">
<title>Node16</title>
<g id="a_Node000016"><a xlink:href="struct_up_val.html" target="_top" xlink:title=" ">
<polygon fill="white" stroke="#666666" points="244.25,-810.38 202,-810.38 202,-791.12 244.25,-791.12 244.25,-810.38"/>
<text xml:space="preserve" text-anchor="middle" x="223.12" y="-796.88" font-family="Helvetica,sans-Serif" font-size="10.00">UpVal</text>
</a>
</g>
</g>
<!-- Node6&#45;&gt;Node16 -->
<g id="edge29_Node000016_Node000006" class="edge">
<title>Node6&#45;&gt;Node16</title>
<g id="a_edge29_Node000016_Node000006"><a xlink:title=" ">
<path fill="none" stroke="#9a32cd" stroke-dasharray="5,2" d="M291.08,-916.52C285.97,-913.1 280.98,-909.15 276.88,-904.75 262.78,-889.62 236.79,-832.67 227,-810.58"/>
<polygon fill="#9a32cd" stroke="#9a32cd" points="289.19,-919.47 299.56,-921.66 292.82,-913.48 289.19,-919.47"/>
</a>
</g>
<text xml:space="preserve" text-anchor="start" x="279.88" y="-892.25" font-family="Helvetica,sans-Serif" font-size="10.00" fill="grey">p</text>
<text xml:space="preserve" text-anchor="start" x="279.88" y="-877" font-family="Helvetica,sans-Serif" font-size="10.00" fill="grey">value</text>
</g>
<!-- Node7&#45;&gt;Node3 -->
<g id="edge6_Node000003_Node000007" class="edge">
<title>Node7&#45;&gt;Node3</title>
<g id="a_edge6_Node000003_Node000007"><a xlink:title=" ">
<path fill="none" stroke="#9a32cd" stroke-dasharray="5,2" d="M253.95,-24.32C248.25,-27.73 243.05,-31.98 239.12,-37.25 202.42,-86.53 168.67,-551.5 163.74,-622.05"/>
<polygon fill="#9a32cd" stroke="#9a32cd" points="255.18,-27.62 262.54,-20 252.03,-21.37 255.18,-27.62"/>
</a>
</g>
<text xml:space="preserve" text-anchor="start" x="203.32" y="-246" font-family="Helvetica,sans-Serif" font-size="10.00" fill="grey">l_G</text>
</g>
<!-- Node8 -->
<g id="Node000008" class="node">
<title>Node8</title>
<g id="a_Node000008"><a xlink:href="structstringtable.html" target="_top" xlink:title=" ">
<polygon fill="white" stroke="#666666" points="435.62,-106 374.62,-106 374.62,-86.75 435.62,-86.75 435.62,-106"/>
<text xml:space="preserve" text-anchor="middle" x="405.12" y="-92.5" font-family="Helvetica,sans-Serif" font-size="10.00">stringtable</text>
</a>
</g>
</g>
<!-- Node8&#45;&gt;Node7 -->
<g id="edge7_Node000007_Node000008" class="edge">
<title>Node8&#45;&gt;Node7</title>
<g id="a_edge7_Node000007_Node000008"><a xlink:title=" ">
<path fill="none" stroke="#9a32cd" stroke-dasharray="5,2" d="M384.88,-79.19C362.75,-61.5 328.11,-33.8 310.39,-19.63"/>
<polygon fill="#9a32cd" stroke="#9a32cd" points="382.6,-81.85 392.6,-85.36 386.97,-76.38 382.6,-81.85"/>
</a>
</g>
<text xml:space="preserve" text-anchor="start" x="355.12" y="-42" font-family="Helvetica,sans-Serif" font-size="10.00" fill="grey">strt</text>
</g>
<!-- Node9 -->
<g id="Node000009" class="node">
<title>Node9</title>
<g id="a_Node000009"><a xlink:href="struct_t_string.html" target="_top" xlink:title=" ">
<polygon fill="white" stroke="#666666" points="328.88,-208 281.38,-208 281.38,-188.75 328.88,-188.75 328.88,-208"/>
<text xml:space="preserve" text-anchor="middle" x="305.12" y="-194.5" font-family="Helvetica,sans-Serif" font-size="10.00">TString</text>
</a>
</g>
</g>
<!-- Node9&#45;&gt;Node7 -->
<g id="edge13_Node000007_Node000009" class="edge">
<title>Node9&#45;&gt;Node7</title>
<g id="a_edge13_Node000007_Node000009"><a xlink:title=" ">
<path fill="none" stroke="#9a32cd" stroke-dasharray="5,2" d="M304.47,-177.12C303.18,-136.81 300.32,-47.95 299.41,-19.54"/>
<polygon fill="#9a32cd" stroke="#9a32cd" points="300.97,-176.97 304.79,-186.85 307.96,-176.75 300.97,-176.97"/>
</a>
</g>
<text xml:space="preserve" text-anchor="start" x="305.62" y="-107.75" font-family="Helvetica,sans-Serif" font-size="10.00" fill="grey">memerrmsg</text>
<text xml:space="preserve" text-anchor="start" x="305.62" y="-92.5" font-family="Helvetica,sans-Serif" font-size="10.00" fill="grey">strcache</text>
<text xml:space="preserve" text-anchor="start" x="305.62" y="-77.25" font-family="Helvetica,sans-Serif" font-size="10.00" fill="grey">tmname</text>
</g>
<!-- Node9&#45;&gt;Node8 -->
<g id="edge8_Node000008_Node000009" class="edge">
<title>Node9&#45;&gt;Node8</title>
<g id="a_edge8_Node000008_Node000009"><a xlink:title=" ">
<path fill="none" stroke="#9a32cd" stroke-dasharray="5,2" d="M321.99,-180.46C333.78,-168.63 349.9,-152.46 364.12,-138.25 375.07,-127.31 387.69,-114.74 396,-106.46"/>
<polygon fill="#9a32cd" stroke="#9a32cd" points="319.56,-177.93 314.98,-187.48 324.52,-182.87 319.56,-177.93"/>
</a>
</g>
<text xml:space="preserve" text-anchor="start" x="367.12" y="-150.62" font-family="Helvetica,sans-Serif" font-size="10.00" fill="grey">hash</text>
</g>
<!-- Node9&#45;&gt;Node9 -->
<g id="edge9_Node000009_Node000009" class="edge">
<title>Node9&#45;&gt;Node9</title>
<g id="a_edge9_Node000009_Node000009"><a xlink:title=" ">
<path fill="none" stroke="#9a32cd" stroke-dasharray="5,2" d="M340.36,-205.33C344.32,-204.02 346.88,-201.7 346.88,-198.38 346.88,-192.46 338.79,-189.74 329.15,-190.2"/>
<polygon fill="#9a32cd" stroke="#9a32cd" points="340.22,-201.82 330.66,-206.39 340.98,-208.78 340.22,-201.82"/>
</a>
</g>
<text xml:space="preserve" text-anchor="start" x="349.88" y="-194.5" font-family="Helvetica,sans-Serif" font-size="10.00" fill="grey">hnext</text>
</g>
<!-- Node10 -->
<g id="Node000010" class="node">
<title>Node10</title>
<g id="a_Node000010"><a xlink:href="struct_g_c_object.html" target="_top" xlink:title=" ">
<polygon fill="white" stroke="#666666" points="545.88,-766.5 486.38,-766.5 486.38,-747.25 545.88,-747.25 545.88,-766.5"/>
<text xml:space="preserve" text-anchor="middle" x="516.12" y="-753" font-family="Helvetica,sans-Serif" font-size="10.00">GCObject</text>
</a>
</g>
</g>
<!-- Node10&#45;&gt;Node3 -->
<g id="edge31_Node000003_Node000010" class="edge">
<title>Node10&#45;&gt;Node3</title>
<g id="a_edge31_Node000003_Node000010"><a xlink:title=" ">
<path fill="none" stroke="#9a32cd" stroke-dasharray="5,2" d="M479.44,-743.1C407.85,-718.18 251.12,-663.63 189.12,-642.05"/>
<polygon fill="#9a32cd" stroke="#9a32cd" points="478.14,-746.36 488.74,-746.34 480.45,-739.75 478.14,-746.36"/>
</a>
</g>
<text xml:space="preserve" text-anchor="start" x="433.82" y="-693.88" font-family="Helvetica,sans-Serif" font-size="10.00" fill="grey">gclist</text>
</g>
<!-- Node10&#45;&gt;Node7 -->
<g id="edge11_Node000007_Node000010" class="edge">
<title>Node10&#45;&gt;Node7</title>
<g id="a_edge11_Node000007_Node000010"><a xlink:title=" ">
<path fill="none" stroke="#9a32cd" stroke-dasharray="5,2" d="M537.25,-739.32C540.48,-736.2 543.58,-732.79 546.12,-729.25 573.29,-691.51 587.12,-679.5 587.12,-633 587.12,-633 587.12,-633 587.12,-95.38 587.12,-43.26 411.34,-20.85 334.44,-13.53"/>
<polygon fill="#9a32cd" stroke="#9a32cd" points="535.04,-736.6 529.83,-745.82 539.66,-741.86 535.04,-736.6"/>
</a>
</g>
<text xml:space="preserve" text-anchor="start" x="590.12" y="-449" font-family="Helvetica,sans-Serif" font-size="10.00" fill="grey">allgc</text>
<text xml:space="preserve" text-anchor="start" x="590.12" y="-433.75" font-family="Helvetica,sans-Serif" font-size="10.00" fill="grey">allweak</text>
<text xml:space="preserve" text-anchor="start" x="590.12" y="-418.5" font-family="Helvetica,sans-Serif" font-size="10.00" fill="grey">ephemeron</text>
<text xml:space="preserve" text-anchor="start" x="590.12" y="-403.25" font-family="Helvetica,sans-Serif" font-size="10.00" fill="grey">finobj</text>
<text xml:space="preserve" text-anchor="start" x="590.12" y="-388" font-family="Helvetica,sans-Serif" font-size="10.00" fill="grey">finobjold1</text>
<text xml:space="preserve" text-anchor="start" x="590.12" y="-372.75" font-family="Helvetica,sans-Serif" font-size="10.00" fill="grey">finobjrold</text>
<text xml:space="preserve" text-anchor="start" x="590.12" y="-357.5" font-family="Helvetica,sans-Serif" font-size="10.00" fill="grey">finobjsur</text>
<text xml:space="preserve" text-anchor="start" x="590.12" y="-342.25" font-family="Helvetica,sans-Serif" font-size="10.00" fill="grey">firstold1</text>
<text xml:space="preserve" text-anchor="start" x="590.12" y="-327" font-family="Helvetica,sans-Serif" font-size="10.00" fill="grey">fixedgc</text>
<text xml:space="preserve" text-anchor="start" x="590.12" y="-311.75" font-family="Helvetica,sans-Serif" font-size="10.00" fill="grey">gray</text>
<text xml:space="preserve" text-anchor="start" x="590.12" y="-296.5" font-family="Helvetica,sans-Serif" font-size="10.00" fill="grey"> &#160;...</text>
</g>
<!-- Node10&#45;&gt;Node11 -->
<g id="edge23_Node000011_Node000010" class="edge">
<title>Node10&#45;&gt;Node11</title>
<g id="a_edge23_Node000011_Node000010"><a xlink:title=" ">
<path fill="none" stroke="#9a32cd" stroke-dasharray="5,2" d="M522.76,-735.89C530.17,-711.78 541.12,-669.89 541.12,-633 541.12,-633 541.12,-633 541.12,-197.38 541.12,-157.9 504.45,-122.48 484.97,-106.44"/>
<polygon fill="#9a32cd" stroke="#9a32cd" points="519.46,-734.72 519.75,-745.31 526.13,-736.85 519.46,-734.72"/>
</a>
</g>
<text xml:space="preserve" text-anchor="start" x="544.12" y="-484.25" font-family="Helvetica,sans-Serif" font-size="10.00" fill="grey">gclist</text>
</g>
<!-- Node10&#45;&gt;Node14 -->
<g id="edge19_Node000014_Node000010" class="edge">
<title>Node10&#45;&gt;Node14</title>
<g id="a_edge19_Node000014_Node000010"><a xlink:title=" ">
<path fill="none" stroke="#9a32cd" stroke-dasharray="5,2" d="M511.99,-735.76C502.36,-688.88 478.72,-573.82 471.96,-540.92"/>
<polygon fill="#9a32cd" stroke="#9a32cd" points="508.52,-736.25 513.96,-745.34 515.38,-734.84 508.52,-736.25"/>
</a>
</g>
<text xml:space="preserve" text-anchor="start" x="496.89" y="-628.12" font-family="Helvetica,sans-Serif" font-size="10.00" fill="grey">gc</text>
</g>
<!-- Node11&#45;&gt;Node7 -->
<g id="edge14_Node000007_Node000011" class="edge">
<title>Node11&#45;&gt;Node7</title>
<g id="a_edge14_Node000007_Node000011"><a xlink:title=" ">
<path fill="none" stroke="#9a32cd" stroke-dasharray="5,2" d="M454.27,-79.08C451.29,-76.76 448.18,-74.5 445.12,-72.5 416.29,-53.67 407.81,-50.74 376.12,-37.25 360.64,-30.65 342.91,-24.44 328.37,-19.67"/>
<polygon fill="#9a32cd" stroke="#9a32cd" points="452.03,-81.76 461.98,-85.4 456.47,-76.35 452.03,-81.76"/>
</a>
</g>
<text xml:space="preserve" text-anchor="start" x="417.02" y="-42" font-family="Helvetica,sans-Serif" font-size="10.00" fill="grey">mt</text>
</g>
<!-- Node11&#45;&gt;Node11 -->
<g id="edge22_Node000011_Node000011" class="edge">
<title>Node11&#45;&gt;Node11</title>
<g id="a_edge22_Node000011_Node000011"><a xlink:title=" ">
<path fill="none" stroke="#9a32cd" stroke-dasharray="5,2" d="M504.09,-104.69C508.1,-103.25 510.75,-100.48 510.75,-96.38 510.75,-89.08 502.37,-86 492.87,-87.14"/>
<polygon fill="#9a32cd" stroke="#9a32cd" points="504.06,-101.18 494.38,-105.49 504.63,-108.15 504.06,-101.18"/>
</a>
</g>
<text xml:space="preserve" text-anchor="start" x="513.75" y="-92.5" font-family="Helvetica,sans-Serif" font-size="10.00" fill="grey">metatable</text>
</g>
<!-- Node12&#45;&gt;Node11 -->
<g id="edge16_Node000011_Node000012" class="edge">
<title>Node12&#45;&gt;Node11</title>
<g id="a_edge16_Node000011_Node000012"><a xlink:title=" ">
<path fill="none" stroke="#9a32cd" stroke-dasharray="5,2" d="M473.12,-177.07C473.12,-155.45 473.12,-122.21 473.12,-106.37"/>
<polygon fill="#9a32cd" stroke="#9a32cd" points="469.63,-176.99 473.13,-186.99 476.63,-176.99 469.63,-176.99"/>
</a>
</g>
<text xml:space="preserve" text-anchor="start" x="476.12" y="-158.25" font-family="Helvetica,sans-Serif" font-size="10.00" fill="grey">lastfree</text>
<text xml:space="preserve" text-anchor="start" x="476.12" y="-143" font-family="Helvetica,sans-Serif" font-size="10.00" fill="grey">node</text>
</g>
<!-- Node13 -->
<g id="Node000013" class="node">
<title>Node13</title>
<g id="a_Node000013"><a xlink:href="struct_node_1_1_node_key.html" target="_top" xlink:title=" ">
<polygon fill="white" stroke="#666666" points="513,-386.25 427.25,-386.25 427.25,-367 513,-367 513,-386.25"/>
<text xml:space="preserve" text-anchor="middle" x="470.12" y="-372.75" font-family="Helvetica,sans-Serif" font-size="10.00">Node::NodeKey</text>
</a>
</g>
</g>
<!-- Node13&#45;&gt;Node12 -->
<g id="edge17_Node000012_Node000013" class="edge">
<title>Node13&#45;&gt;Node12</title>
<g id="a_edge17_Node000012_Node000013"><a xlink:title=" ">
<path fill="none" stroke="#9a32cd" stroke-dasharray="5,2" d="M470.47,-355.2C471.13,-316.73 472.52,-234.99 472.98,-208.13"/>
<polygon fill="#9a32cd" stroke="#9a32cd" points="466.97,-355.07 470.3,-365.13 473.97,-355.19 466.97,-355.07"/>
</a>
</g>
<text xml:space="preserve" text-anchor="start" x="475.62" y="-246" font-family="Helvetica,sans-Serif" font-size="10.00" fill="grey">u</text>
</g>
<!-- Node14&#45;&gt;Node13 -->
<g id="edge18_Node000013_Node000014" class="edge">
<title>Node14&#45;&gt;Node13</title>
<g id="a_edge18_Node000013_Node000014"><a xlink:title=" ">
<path fill="none" stroke="#9a32cd" stroke-dasharray="5,2" d="M470.12,-509.8C470.12,-476.22 470.12,-410.27 470.12,-386.46"/>
<polygon fill="#9a32cd" stroke="#9a32cd" points="466.63,-509.41 470.13,-519.41 473.63,-509.41 466.63,-509.41"/>
</a>
</g>
<text xml:space="preserve" text-anchor="start" x="473.12" y="-484.25" font-family="Helvetica,sans-Serif" font-size="10.00" fill="grey">key_val</text>
</g>
<!-- Node15&#45;&gt;Node3 -->
<g id="edge24_Node000003_Node000015" class="edge">
<title>Node15&#45;&gt;Node3</title>
<g id="a_edge24_Node000003_Node000015"><a xlink:title=" ">
<path fill="none" stroke="#9a32cd" stroke-dasharray="5,2" d="M53.98,-548.41C59.75,-553.56 65.91,-559.42 71.12,-565.25 82.97,-578.49 80.79,-586.31 94.38,-597.75 106.85,-608.26 123.2,-616.34 136.84,-621.91"/>
<polygon fill="#9a32cd" stroke="#9a32cd" points="56.4,-545.88 46.54,-542.01 51.84,-551.18 56.4,-545.88"/>
</a>
</g>
<text xml:space="preserve" text-anchor="start" x="97.38" y="-585.25" font-family="Helvetica,sans-Serif" font-size="10.00" fill="grey">base_ci</text>
<text xml:space="preserve" text-anchor="start" x="97.38" y="-570" font-family="Helvetica,sans-Serif" font-size="10.00" fill="grey">ci</text>
</g>
<!-- Node15&#45;&gt;Node15 -->
<g id="edge26_Node000015_Node000015" class="edge">
<title>Node15&#45;&gt;Node15</title>
<g id="a_edge26_Node000015_Node000015"><a xlink:title=" ">
<path fill="none" stroke="#9a32cd" stroke-dasharray="5,2" d="M70.49,-537.74C74.45,-536.45 77,-534.2 77,-531 77,-525.31 68.93,-522.64 59.23,-522.99"/>
<polygon fill="#9a32cd" stroke="#9a32cd" points="70.28,-534.24 60.73,-538.84 71.06,-541.2 70.28,-534.24"/>
</a>
</g>
<text xml:space="preserve" text-anchor="start" x="80" y="-534.75" font-family="Helvetica,sans-Serif" font-size="10.00" fill="grey">next</text>
<text xml:space="preserve" text-anchor="start" x="80" y="-519.5" font-family="Helvetica,sans-Serif" font-size="10.00" fill="grey">previous</text>
</g>
<!-- Node16&#45;&gt;Node3 -->
<g id="edge28_Node000003_Node000016" class="edge">
<title>Node16&#45;&gt;Node3</title>
<g id="a_edge28_Node000003_Node000016"><a xlink:title=" ">
<path fill="none" stroke="#9a32cd" stroke-dasharray="5,2" d="M223.65,-779.45C223.51,-752.06 220.15,-702.5 200.12,-666.25 194.7,-656.42 185.24,-648 177.25,-642.09"/>
<polygon fill="#9a32cd" stroke="#9a32cd" points="220.16,-779.11 223.55,-789.15 227.16,-779.19 220.16,-779.11"/>
</a>
</g>
<text xml:space="preserve" text-anchor="start" x="226.33" y="-753" font-family="Helvetica,sans-Serif" font-size="10.00" fill="grey">openupval</text>
</g>
<!-- Node16&#45;&gt;Node16 -->
<g id="edge30_Node000016_Node000016" class="edge">
<title>Node16&#45;&gt;Node16</title>
<g id="a_edge30_Node000016_Node000016"><a xlink:title=" ">
<path fill="none" stroke="#9a32cd" stroke-dasharray="5,2" d="M255.66,-807.87C259.64,-806.59 262.25,-804.22 262.25,-800.75 262.25,-794.58 254,-791.88 244.45,-792.65"/>
<polygon fill="#9a32cd" stroke="#9a32cd" points="255.62,-804.36 245.96,-808.72 256.23,-811.33 255.62,-804.36"/>
</a>
</g>
<text xml:space="preserve" text-anchor="start" x="265.25" y="-804.5" font-family="Helvetica,sans-Serif" font-size="10.00" fill="grey">next</text>
<text xml:space="preserve" text-anchor="start" x="265.25" y="-789.25" font-family="Helvetica,sans-Serif" font-size="10.00" fill="grey">previous</text>
</g>
<!-- Node17 -->
<g id="Node000017" class="node">
<title>Node17</title>
<g id="a_Node000017"><a xlink:href="structlua__longjmp.html" target="_top" xlink:title=" ">
<polygon fill="white" stroke="#666666" points="140,-766.5 72.25,-766.5 72.25,-747.25 140,-747.25 140,-766.5"/>
<text xml:space="preserve" text-anchor="middle" x="106.12" y="-753" font-family="Helvetica,sans-Serif" font-size="10.00">lua_longjmp</text>
</a>
</g>
</g>
<!-- Node17&#45;&gt;Node3 -->
<g id="edge33_Node000003_Node000017" class="edge">
<title>Node17&#45;&gt;Node3</title>
<g id="a_edge33_Node000003_Node000017"><a xlink:title=" ">
<path fill="none" stroke="#9a32cd" stroke-dasharray="5,2" d="M120.58,-738.01C122.58,-735.17 124.5,-732.19 126.12,-729.25 142.95,-698.87 155.52,-659.26 160.63,-641.86"/>
<polygon fill="#9a32cd" stroke="#9a32cd" points="117.98,-735.65 114.74,-745.73 123.56,-739.87 117.98,-735.65"/>
</a>
</g>
<text xml:space="preserve" text-anchor="start" x="155.16" y="-693.88" font-family="Helvetica,sans-Serif" font-size="10.00" fill="grey">errorJmp</text>
</g>
<!-- Node17&#45;&gt;Node17 -->
<g id="edge34_Node000017_Node000017" class="edge">
<title>Node17&#45;&gt;Node17</title>
<g id="a_edge34_Node000017_Node000017"><a xlink:title=" ">
<path fill="none" stroke="#9a32cd" stroke-dasharray="5,2" d="M151.21,-763.44C155.37,-762.09 158,-759.9 158,-756.88 158,-751.65 150.15,-748.91 140.05,-748.67"/>
<polygon fill="#9a32cd" stroke="#9a32cd" points="150.93,-759.95 141.55,-764.86 151.95,-766.87 150.93,-759.95"/>
</a>
</g>
<text xml:space="preserve" text-anchor="start" x="161" y="-753" font-family="Helvetica,sans-Serif" font-size="10.00" fill="grey">previous</text>
</g>
</g>
</svg>
