<?xml version="1.0" encoding="UTF-8" standalone="no"?>
<!DOCTYPE svg PUBLIC "-//W3C//DTD SVG 1.1//EN"
 "http://www.w3.org/Graphics/SVG/1.1/DTD/svg11.dtd">
<!-- Generated by graphviz version 13.1.0 (20250701.0955)
 -->
<!-- Title: LG Pages: 1 -->
<!--zoomable 1025 -->

<svg id="main" version="1.1" xmlns="http://www.w3.org/2000/svg" xmlns:xlink="http://www.w3.org/1999/xlink" xml:space="preserve" onload="init(evt)">

<style type="text/css"><![CDATA[
.node, .edge {opacity: 0.7;}
.node.selected, .edge.selected {opacity: 1;}
.edge:hover path { stroke: red; }
.edge:hover polygon { stroke: red; fill: red; }
]]></style>

<defs>
  <circle id="rim" cx="0" cy="0" r="7"/>
  <circle id="rim2" cx="0" cy="0" r="3.5"/>
  <g id="zoomPlus">
    <use xlink:href="#rim" fill="#404040"><set attributeName="fill" to="#808080" begin="zoomplus.mouseover" end="zoomplus.mouseout"/></use>
    <path d="M-4,0h8M0,-4v8" fill="none" stroke="white" stroke-width="1.5" pointer-events="none"/>
  </g>
  <g id="zoomMin">
    <use xlink:href="#rim" fill="#404040"><set attributeName="fill" to="#808080" begin="zoomminus.mouseover" end="zoomminus.mouseout"/></use>
    <path d="M-4,0h8" fill="none" stroke="white" stroke-width="1.5" pointer-events="none"/>
  </g>
  <g id="arrowUp" transform="translate(30 24)">
    <use xlink:href="#rim"/>
    <path pointer-events="none" fill="none" stroke="white" stroke-width="1.5" d="M0,-3.0v7 M-2.5,-0.5L0,-3.0L2.5,-0.5"/>
  </g>
  <g id="arrowRight" transform="rotate(90) translate(36 -43)">
    <use xlink:href="#rim"/>
    <path pointer-events="none" fill="none" stroke="white" stroke-width="1.5" d="M0,-3.0v7 M-2.5,-0.5L0,-3.0L2.5,-0.5"/>
  </g>
  <g id="arrowDown" transform="rotate(180) translate(-30 -48)">
    <use xlink:href="#rim"/>
    <path pointer-events="none" fill="none" stroke="white" stroke-width="1.5" d="M0,-3.0v7 M-2.5,-0.5L0,-3.0L2.5,-0.5"/>
  </g>
  <g id="arrowLeft" transform="rotate(270) translate(-36 17)">
    <use xlink:href="#rim"/>
    <path pointer-events="none" fill="none" stroke="white" stroke-width="1.5" d="M0,-3.0v7 M-2.5,-0.5L0,-3.0L2.5,-0.5"/>
  </g>
  <g id="resetDef">
    <use xlink:href="#rim2" fill="#404040"><set attributeName="fill" to="#808080" begin="reset.mouseover" end="reset.mouseout"/></use>
  </g>
</defs>
<script type="application/ecmascript">
var viewWidth = 774;
var viewHeight = 1025;
var sectionId = 'dynsection-0';
</script>
<script type="application/ecmascript" xlink:href="svg.min.js"/>
<svg id="graph" class="graph">
<g id="viewport">
<title>LG</title>
<!-- Node1 -->
<g id="Node000001" class="node">
<title>Node1</title>
<g id="a_Node000001"><a xlink:title=" ">
<polygon fill="#999999" stroke="#666666" points="576.9,-19.25 548.1,-19.25 548.1,0 576.9,0 576.9,-19.25"/>
<text xml:space="preserve" text-anchor="middle" x="562.5" y="-5.75" font-family="Helvetica,sans-Serif" font-size="10.00">LG</text>
</a>
</g>
</g>
<!-- Node2 -->
<g id="Node000002" class="node">
<title>Node2</title>
<g id="a_Node000002"><a xlink:href="struct_l_x.html" target="_top" xlink:title=" ">
<polygon fill="white" stroke="#666666" points="684.9,-571.25 656.1,-571.25 656.1,-552 684.9,-552 684.9,-571.25"/>
<text xml:space="preserve" text-anchor="middle" x="670.5" y="-557.75" font-family="Helvetica,sans-Serif" font-size="10.00">LX</text>
</a>
</g>
</g>
<!-- Node2&#45;&gt;Node1 -->
<g id="edge1_Node000001_Node000002" class="edge">
<title>Node2&#45;&gt;Node1</title>
<g id="a_edge1_Node000001_Node000002"><a xlink:title=" ">
<path fill="none" stroke="#9a32cd" stroke-dasharray="5,2" d="M671.65,-540.26C673.86,-499.24 678.5,-403.7 678.5,-323.38 678.5,-323.38 678.5,-323.38 678.5,-81.12 678.5,-34.23 608.41,-17.64 577.19,-12.58"/>
<polygon fill="#9a32cd" stroke="#9a32cd" points="668.16,-539.89 671.11,-550.07 675.15,-540.28 668.16,-539.89"/>
</a>
</g>
<text xml:space="preserve" text-anchor="start" x="681.5" y="-223.12" font-family="Helvetica,sans-Serif" font-size="10.00" fill="grey">l</text>
</g>
<!-- Node3 -->
<g id="Node000003" class="node">
<title>Node3</title>
<g id="a_Node000003"><a xlink:href="structlua___state.html" target="_top" xlink:title=" ">
<polygon fill="white" stroke="#666666" points="535.12,-716.12 477.88,-716.12 477.88,-696.88 535.12,-696.88 535.12,-716.12"/>
<text xml:space="preserve" text-anchor="middle" x="506.5" y="-702.62" font-family="Helvetica,sans-Serif" font-size="10.00">lua_State</text>
</a>
</g>
</g>
<!-- Node3&#45;&gt;Node2 -->
<g id="edge2_Node000002_Node000003" class="edge">
<title>Node3&#45;&gt;Node2</title>
<g id="a_edge2_Node000002_Node000003"><a xlink:title=" ">
<path fill="none" stroke="#9a32cd" stroke-dasharray="5,2" d="M546.76,-702.72C571.48,-699.09 602.35,-690.85 623.5,-672.25 654.91,-644.63 666.01,-592.34 669.3,-571.51"/>
<polygon fill="#9a32cd" stroke="#9a32cd" points="546.53,-699.23 537.04,-703.94 547.4,-706.17 546.53,-699.23"/>
</a>
</g>
<text xml:space="preserve" text-anchor="start" x="650.1" y="-652.12" font-family="Helvetica,sans-Serif" font-size="10.00" fill="grey">l</text>
</g>
<!-- Node3&#45;&gt;Node3 -->
<g id="edge32_Node000003_Node000003" class="edge">
<title>Node3&#45;&gt;Node3</title>
<g id="a_edge32_Node000003_Node000003"><a xlink:title=" ">
<path fill="none" stroke="#9a32cd" stroke-dasharray="5,2" d="M546.27,-714.35C550.45,-712.82 553.12,-710.21 553.12,-706.5 553.12,-700.09 545.11,-696.93 535.18,-697.03"/>
<polygon fill="#9a32cd" stroke="#9a32cd" points="546.07,-710.85 536.68,-715.75 547.08,-717.77 546.07,-710.85"/>
</a>
</g>
<text xml:space="preserve" text-anchor="start" x="556.12" y="-702.62" font-family="Helvetica,sans-Serif" font-size="10.00" fill="grey">twups</text>
</g>
<!-- Node7 -->
<g id="Node000007" class="node">
<title>Node7</title>
<g id="a_Node000007"><a xlink:href="structglobal___state.html" target="_top" xlink:title=" ">
<polygon fill="white" stroke="#666666" points="437.5,-91.75 367.5,-91.75 367.5,-72.5 437.5,-72.5 437.5,-91.75"/>
<text xml:space="preserve" text-anchor="middle" x="402.5" y="-78.25" font-family="Helvetica,sans-Serif" font-size="10.00">global_State</text>
</a>
</g>
</g>
<!-- Node3&#45;&gt;Node7 -->
<g id="edge12_Node000007_Node000003" class="edge">
<title>Node3&#45;&gt;Node7</title>
<g id="a_edge12_Node000007_Node000003"><a xlink:title=" ">
<path fill="none" stroke="#9a32cd" stroke-dasharray="5,2" d="M538.01,-691.48C568.3,-675.62 609.5,-646.66 609.5,-606.5 609.5,-606.5 609.5,-606.5 609.5,-167.88 609.5,-94.48 496.67,-83.26 437.61,-82.42"/>
<polygon fill="#9a32cd" stroke="#9a32cd" points="536.59,-688.28 529.2,-695.87 539.71,-694.55 536.59,-688.28"/>
</a>
</g>
<text xml:space="preserve" text-anchor="start" x="612.5" y="-333.75" font-family="Helvetica,sans-Serif" font-size="10.00" fill="grey">mainthread</text>
<text xml:space="preserve" text-anchor="start" x="612.5" y="-318.5" font-family="Helvetica,sans-Serif" font-size="10.00" fill="grey">panic</text>
<text xml:space="preserve" text-anchor="start" x="612.5" y="-303.25" font-family="Helvetica,sans-Serif" font-size="10.00" fill="grey">twups</text>
</g>
<!-- Node14 -->
<g id="Node000014" class="node">
<title>Node14</title>
<g id="a_Node000014"><a xlink:href="union_value.html" target="_top" xlink:title=" ">
<polygon fill="white" stroke="#666666" points="333.5,-615.12 293.5,-615.12 293.5,-595.88 333.5,-595.88 333.5,-615.12"/>
<text xml:space="preserve" text-anchor="middle" x="313.5" y="-601.62" font-family="Helvetica,sans-Serif" font-size="10.00">Value</text>
</a>
</g>
</g>
<!-- Node3&#45;&gt;Node14 -->
<g id="edge20_Node000014_Node000003" class="edge">
<title>Node3&#45;&gt;Node14</title>
<g id="a_edge20_Node000014_Node000003"><a xlink:title=" ">
<path fill="none" stroke="#9a32cd" stroke-dasharray="5,2" d="M468.16,-692.63C452.75,-687.01 435.01,-679.93 419.5,-672.25 384.19,-654.75 345.51,-628.9 326.1,-615.42"/>
<polygon fill="#9a32cd" stroke="#9a32cd" points="466.87,-695.89 477.47,-695.95 469.22,-689.3 466.87,-695.89"/>
</a>
</g>
<text xml:space="preserve" text-anchor="start" x="422.5" y="-652.12" font-family="Helvetica,sans-Serif" font-size="10.00" fill="grey">f</text>
</g>
<!-- Node15 -->
<g id="Node000015" class="node">
<title>Node15</title>
<g id="a_Node000015"><a xlink:href="struct_call_info.html" target="_top" xlink:title=" ">
<polygon fill="white" stroke="#666666" points="520.38,-615.12 470.62,-615.12 470.62,-595.88 520.38,-595.88 520.38,-615.12"/>
<text xml:space="preserve" text-anchor="middle" x="495.5" y="-601.62" font-family="Helvetica,sans-Serif" font-size="10.00">CallInfo</text>
</a>
</g>
</g>
<!-- Node3&#45;&gt;Node15 -->
<g id="edge27_Node000015_Node000003" class="edge">
<title>Node3&#45;&gt;Node15</title>
<g id="a_edge27_Node000015_Node000003"><a xlink:title=" ">
<path fill="none" stroke="#9a32cd" stroke-dasharray="5,2" d="M491.54,-687.26C488.55,-682.63 485.84,-677.48 484.25,-672.25 478.26,-652.53 486.04,-628.44 491.33,-615.6"/>
<polygon fill="#9a32cd" stroke="#9a32cd" points="488.6,-689.17 497.33,-695.17 494.25,-685.03 488.6,-689.17"/>
</a>
</g>
<text xml:space="preserve" text-anchor="start" x="487.25" y="-652.12" font-family="Helvetica,sans-Serif" font-size="10.00" fill="grey">k</text>
</g>
<!-- Node4 -->
<g id="Node000004" class="node">
<title>Node4</title>
<g id="a_Node000004"><a xlink:href="union_stk_id_rel.html" target="_top" xlink:title=" ">
<polygon fill="white" stroke="#666666" points="447.62,-841 393.38,-841 393.38,-821.75 447.62,-821.75 447.62,-841"/>
<text xml:space="preserve" text-anchor="middle" x="420.5" y="-827.5" font-family="Helvetica,sans-Serif" font-size="10.00">StkIdRel</text>
</a>
</g>
</g>
<!-- Node4&#45;&gt;Node3 -->
<g id="edge3_Node000003_Node000004" class="edge">
<title>Node4&#45;&gt;Node3</title>
<g id="a_edge3_Node000003_Node000004"><a xlink:title=" ">
<path fill="none" stroke="#9a32cd" stroke-dasharray="5,2" d="M426.56,-810.59C434.23,-785.93 446.98,-746.33 451.5,-740.75 460.06,-730.17 472.95,-722.12 484.1,-716.59"/>
<polygon fill="#9a32cd" stroke="#9a32cd" points="423.31,-809.24 423.71,-819.83 430,-811.31 423.31,-809.24"/>
</a>
</g>
<text xml:space="preserve" text-anchor="start" x="454.5" y="-791.25" font-family="Helvetica,sans-Serif" font-size="10.00" fill="grey">stack</text>
<text xml:space="preserve" text-anchor="start" x="454.5" y="-776" font-family="Helvetica,sans-Serif" font-size="10.00" fill="grey">stack_last</text>
<text xml:space="preserve" text-anchor="start" x="454.5" y="-760.75" font-family="Helvetica,sans-Serif" font-size="10.00" fill="grey">tbclist</text>
<text xml:space="preserve" text-anchor="start" x="454.5" y="-745.5" font-family="Helvetica,sans-Serif" font-size="10.00" fill="grey">top</text>
</g>
<!-- Node4&#45;&gt;Node15 -->
<g id="edge25_Node000015_Node000004" class="edge">
<title>Node4&#45;&gt;Node15</title>
<g id="a_edge25_Node000015_Node000004"><a xlink:title=" ">
<path fill="none" stroke="#9a32cd" stroke-dasharray="5,2" d="M420.97,-810.07C422.25,-782.08 426.93,-730.52 443.75,-690.25 456,-660.92 477.77,-630 488.76,-615.28"/>
<polygon fill="#9a32cd" stroke="#9a32cd" points="417.48,-809.83 420.63,-819.95 424.47,-810.07 417.48,-809.83"/>
</a>
</g>
<text xml:space="preserve" text-anchor="start" x="446.75" y="-710.25" font-family="Helvetica,sans-Serif" font-size="10.00" fill="grey">func</text>
<text xml:space="preserve" text-anchor="start" x="446.75" y="-695" font-family="Helvetica,sans-Serif" font-size="10.00" fill="grey">top</text>
</g>
<!-- Node5 -->
<g id="Node000005" class="node">
<title>Node5</title>
<g id="a_Node000005"><a xlink:href="union_stack_value.html" target="_top" xlink:title=" ">
<polygon fill="white" stroke="#666666" points="453.25,-928.75 387.75,-928.75 387.75,-909.5 453.25,-909.5 453.25,-928.75"/>
<text xml:space="preserve" text-anchor="middle" x="420.5" y="-915.25" font-family="Helvetica,sans-Serif" font-size="10.00">StackValue</text>
</a>
</g>
</g>
<!-- Node5&#45;&gt;Node4 -->
<g id="edge4_Node000004_Node000005" class="edge">
<title>Node5&#45;&gt;Node4</title>
<g id="a_edge4_Node000004_Node000005"><a xlink:title=" ">
<path fill="none" stroke="#9a32cd" stroke-dasharray="5,2" d="M420.5,-897.79C420.5,-879.86 420.5,-854.58 420.5,-841.31"/>
<polygon fill="#9a32cd" stroke="#9a32cd" points="417,-897.76 420.5,-907.76 424,-897.76 417,-897.76"/>
</a>
</g>
<text xml:space="preserve" text-anchor="start" x="423.5" y="-871.38" font-family="Helvetica,sans-Serif" font-size="10.00" fill="grey">p</text>
</g>
<!-- Node6 -->
<g id="Node000006" class="node">
<title>Node6</title>
<g id="a_Node000006"><a xlink:href="struct_t_value.html" target="_top" xlink:title=" ">
<polygon fill="white" stroke="#666666" points="443.5,-1016.5 397.5,-1016.5 397.5,-997.25 443.5,-997.25 443.5,-1016.5"/>
<text xml:space="preserve" text-anchor="middle" x="420.5" y="-1003" font-family="Helvetica,sans-Serif" font-size="10.00">TValue</text>
</a>
</g>
</g>
<!-- Node6&#45;&gt;Node5 -->
<g id="edge5_Node000005_Node000006" class="edge">
<title>Node6&#45;&gt;Node5</title>
<g id="a_edge5_Node000005_Node000006"><a xlink:title=" ">
<path fill="none" stroke="#9a32cd" stroke-dasharray="5,2" d="M420.5,-985.54C420.5,-967.61 420.5,-942.33 420.5,-929.06"/>
<polygon fill="#9a32cd" stroke="#9a32cd" points="417,-985.51 420.5,-995.51 424,-985.51 417,-985.51"/>
</a>
</g>
<text xml:space="preserve" text-anchor="start" x="423.5" y="-959.12" font-family="Helvetica,sans-Serif" font-size="10.00" fill="grey">val</text>
</g>
<!-- Node6&#45;&gt;Node7 -->
<g id="edge10_Node000007_Node000006" class="edge">
<title>Node6&#45;&gt;Node7</title>
<g id="a_edge10_Node000007_Node000006"><a xlink:title=" ">
<path fill="none" stroke="#9a32cd" stroke-dasharray="5,2" d="M454.77,-1003.35C533.48,-996.62 720.5,-974.87 720.5,-920.12 720.5,-920.12 720.5,-920.12 720.5,-167.88 720.5,-109.88 520.54,-90.57 437.75,-85.06"/>
<polygon fill="#9a32cd" stroke="#9a32cd" points="454.73,-999.85 445.05,-1004.15 455.3,-1006.82 454.73,-999.85"/>
</a>
</g>
<text xml:space="preserve" text-anchor="start" x="723.5" y="-609.25" font-family="Helvetica,sans-Serif" font-size="10.00" fill="grey">l_registry</text>
<text xml:space="preserve" text-anchor="start" x="723.5" y="-594" font-family="Helvetica,sans-Serif" font-size="10.00" fill="grey">nilvalue</text>
</g>
<!-- Node11 -->
<g id="Node000011" class="node">
<title>Node11</title>
<g id="a_Node000011"><a xlink:href="struct_table.html" target="_top" xlink:title=" ">
<polygon fill="white" stroke="#666666" points="249.12,-178.5 209.88,-178.5 209.88,-159.25 249.12,-159.25 249.12,-178.5"/>
<text xml:space="preserve" text-anchor="middle" x="229.5" y="-165" font-family="Helvetica,sans-Serif" font-size="10.00">Table</text>
</a>
</g>
</g>
<!-- Node6&#45;&gt;Node11 -->
<g id="edge15_Node000011_Node000006" class="edge">
<title>Node6&#45;&gt;Node11</title>
<g id="a_edge15_Node000011_Node000006"><a xlink:title=" ">
<path fill="none" stroke="#9a32cd" stroke-dasharray="5,2" d="M385.8,-1004.52C330.3,-1001.9 224.39,-994.97 190.5,-979.25 155.67,-963.09 127.5,-958.52 127.5,-920.12 127.5,-920.12 127.5,-920.12 127.5,-269.88 127.5,-266.65 194.84,-202.65 220.09,-178.76"/>
<polygon fill="#9a32cd" stroke="#9a32cd" points="385.49,-1008.01 395.64,-1004.96 385.8,-1001.01 385.49,-1008.01"/>
</a>
</g>
<text xml:space="preserve" text-anchor="start" x="130.5" y="-652.12" font-family="Helvetica,sans-Serif" font-size="10.00" fill="grey">array</text>
</g>
<!-- Node12 -->
<g id="Node000012" class="node">
<title>Node12</title>
<g id="a_Node000012"><a xlink:href="union_node.html" target="_top" xlink:title=" ">
<polygon fill="white" stroke="#666666" points="279.12,-280.5 239.88,-280.5 239.88,-261.25 279.12,-261.25 279.12,-280.5"/>
<text xml:space="preserve" text-anchor="middle" x="259.5" y="-267" font-family="Helvetica,sans-Serif" font-size="10.00">Node</text>
</a>
</g>
</g>
<!-- Node6&#45;&gt;Node12 -->
<g id="edge21_Node000012_Node000006" class="edge">
<title>Node6&#45;&gt;Node12</title>
<g id="a_edge21_Node000012_Node000006"><a xlink:title=" ">
<path fill="none" stroke="#9a32cd" stroke-dasharray="5,2" d="M385.89,-1001.24C317.91,-991.17 173.5,-964.55 173.5,-920.12 173.5,-920.12 173.5,-920.12 173.5,-448.12 173.5,-377.31 230.27,-305.22 251.56,-280.67"/>
<polygon fill="#9a32cd" stroke="#9a32cd" points="385.37,-1004.7 395.76,-1002.66 386.36,-997.78 385.37,-1004.7"/>
</a>
</g>
<text xml:space="preserve" text-anchor="start" x="176.5" y="-702.62" font-family="Helvetica,sans-Serif" font-size="10.00" fill="grey">i_val</text>
</g>
<!-- Node16 -->
<g id="Node000016" class="node">
<title>Node16</title>
<g id="a_Node000016"><a xlink:href="struct_up_val.html" target="_top" xlink:title=" ">
<polygon fill="white" stroke="#666666" points="506.62,-884.88 464.38,-884.88 464.38,-865.62 506.62,-865.62 506.62,-884.88"/>
<text xml:space="preserve" text-anchor="middle" x="485.5" y="-871.38" font-family="Helvetica,sans-Serif" font-size="10.00">UpVal</text>
</a>
</g>
</g>
<!-- Node6&#45;&gt;Node16 -->
<g id="edge29_Node000016_Node000006" class="edge">
<title>Node6&#45;&gt;Node16</title>
<g id="a_edge29_Node000016_Node000006"><a xlink:title=" ">
<path fill="none" stroke="#9a32cd" stroke-dasharray="5,2" d="M436.93,-988.46C439.3,-985.5 441.58,-982.38 443.5,-979.25 463.28,-946.98 477.39,-903.75 482.92,-885.25"/>
<polygon fill="#9a32cd" stroke="#9a32cd" points="434.32,-986.12 430.38,-995.95 439.59,-990.72 434.32,-986.12"/>
</a>
</g>
<text xml:space="preserve" text-anchor="start" x="462.62" y="-966.75" font-family="Helvetica,sans-Serif" font-size="10.00" fill="grey">p</text>
<text xml:space="preserve" text-anchor="start" x="462.62" y="-951.5" font-family="Helvetica,sans-Serif" font-size="10.00" fill="grey">value</text>
</g>
<!-- Node7&#45;&gt;Node1 -->
<g id="edge35_Node000001_Node000007" class="edge">
<title>Node7&#45;&gt;Node1</title>
<g id="a_edge35_Node000001_Node000007"><a xlink:title=" ">
<path fill="none" stroke="#9a32cd" stroke-dasharray="5,2" d="M433.49,-67.47C467.85,-52.33 521.81,-28.55 547.69,-17.15"/>
<polygon fill="#9a32cd" stroke="#9a32cd" points="432.21,-64.21 424.47,-71.44 435.04,-70.61 432.21,-64.21"/>
</a>
</g>
<text xml:space="preserve" text-anchor="start" x="504.54" y="-42" font-family="Helvetica,sans-Serif" font-size="10.00" fill="grey">g</text>
</g>
<!-- Node7&#45;&gt;Node3 -->
<g id="edge6_Node000003_Node000007" class="edge">
<title>Node7&#45;&gt;Node3</title>
<g id="a_edge6_Node000003_Node000007"><a xlink:title=" ">
<path fill="none" stroke="#9a32cd" stroke-dasharray="5,2" d="M416.83,-100.77C428.66,-117.14 443.5,-142.7 443.5,-167.88 443.5,-450.12 443.5,-450.12 443.5,-450.12 443.5,-526.82 445.17,-546.81 461.5,-621.75 466.54,-644.89 466.89,-651.61 478.5,-672.25 483.61,-681.33 491.34,-690.28 497.39,-696.61"/>
<polygon fill="#9a32cd" stroke="#9a32cd" points="419.79,-98.88 410.94,-93.05 414.23,-103.12 419.79,-98.88"/>
</a>
</g>
<text xml:space="preserve" text-anchor="start" x="446.5" y="-318.5" font-family="Helvetica,sans-Serif" font-size="10.00" fill="grey">l_G</text>
</g>
<!-- Node8 -->
<g id="Node000008" class="node">
<title>Node8</title>
<g id="a_Node000008"><a xlink:href="structstringtable.html" target="_top" xlink:title=" ">
<polygon fill="white" stroke="#666666" points="61,-178.5 0,-178.5 0,-159.25 61,-159.25 61,-178.5"/>
<text xml:space="preserve" text-anchor="middle" x="30.5" y="-165" font-family="Helvetica,sans-Serif" font-size="10.00">stringtable</text>
</a>
</g>
</g>
<!-- Node8&#45;&gt;Node7 -->
<g id="edge7_Node000007_Node000008" class="edge">
<title>Node8&#45;&gt;Node7</title>
<g id="a_edge7_Node000007_Node000008"><a xlink:title=" ">
<path fill="none" stroke="#9a32cd" stroke-dasharray="5,2" d="M36.56,-148.06C41.71,-134.86 50.49,-118.41 64.25,-109.75 89.43,-93.91 285.47,-86.49 367.06,-84.06"/>
<polygon fill="#9a32cd" stroke="#9a32cd" points="33.25,-146.92 33.32,-157.52 39.88,-149.2 33.25,-146.92"/>
</a>
</g>
<text xml:space="preserve" text-anchor="start" x="67.25" y="-114.5" font-family="Helvetica,sans-Serif" font-size="10.00" fill="grey">strt</text>
</g>
<!-- Node9 -->
<g id="Node000009" class="node">
<title>Node9</title>
<g id="a_Node000009"><a xlink:href="struct_t_string.html" target="_top" xlink:title=" ">
<polygon fill="white" stroke="#666666" points="51.25,-280.5 3.75,-280.5 3.75,-261.25 51.25,-261.25 51.25,-280.5"/>
<text xml:space="preserve" text-anchor="middle" x="27.5" y="-267" font-family="Helvetica,sans-Serif" font-size="10.00">TString</text>
</a>
</g>
</g>
<!-- Node9&#45;&gt;Node7 -->
<g id="edge13_Node000007_Node000009" class="edge">
<title>Node9&#45;&gt;Node7</title>
<g id="a_edge13_Node000007_Node000009"><a xlink:title=" ">
<path fill="none" stroke="#9a32cd" stroke-dasharray="5,2" d="M48.86,-253.65C52.85,-250.34 56.9,-246.79 60.5,-243.25 101.13,-203.35 94.31,-174.95 142.75,-145 214.11,-100.87 314.41,-88.21 367.06,-84.58"/>
<polygon fill="#9a32cd" stroke="#9a32cd" points="46.72,-250.89 41.08,-259.86 51.08,-256.36 46.72,-250.89"/>
</a>
</g>
<text xml:space="preserve" text-anchor="start" x="145.75" y="-180.25" font-family="Helvetica,sans-Serif" font-size="10.00" fill="grey">memerrmsg</text>
<text xml:space="preserve" text-anchor="start" x="145.75" y="-165" font-family="Helvetica,sans-Serif" font-size="10.00" fill="grey">strcache</text>
<text xml:space="preserve" text-anchor="start" x="145.75" y="-149.75" font-family="Helvetica,sans-Serif" font-size="10.00" fill="grey">tmname</text>
</g>
<!-- Node9&#45;&gt;Node8 -->
<g id="edge8_Node000008_Node000009" class="edge">
<title>Node9&#45;&gt;Node8</title>
<g id="a_edge8_Node000008_Node000009"><a xlink:title=" ">
<path fill="none" stroke="#9a32cd" stroke-dasharray="5,2" d="M28.11,-249.57C28.76,-227.95 29.75,-194.71 30.23,-178.87"/>
<polygon fill="#9a32cd" stroke="#9a32cd" points="24.61,-249.39 27.81,-259.49 31.61,-249.6 24.61,-249.39"/>
</a>
</g>
<text xml:space="preserve" text-anchor="start" x="32.27" y="-223.12" font-family="Helvetica,sans-Serif" font-size="10.00" fill="grey">hash</text>
</g>
<!-- Node9&#45;&gt;Node9 -->
<g id="edge9_Node000009_Node000009" class="edge">
<title>Node9&#45;&gt;Node9</title>
<g id="a_edge9_Node000009_Node000009"><a xlink:title=" ">
<path fill="none" stroke="#9a32cd" stroke-dasharray="5,2" d="M62.74,-277.83C66.69,-276.52 69.25,-274.2 69.25,-270.88 69.25,-264.96 61.16,-262.24 51.53,-262.7"/>
<polygon fill="#9a32cd" stroke="#9a32cd" points="62.59,-274.32 53.03,-278.89 63.35,-281.28 62.59,-274.32"/>
</a>
</g>
<text xml:space="preserve" text-anchor="start" x="72.25" y="-267" font-family="Helvetica,sans-Serif" font-size="10.00" fill="grey">hnext</text>
</g>
<!-- Node10 -->
<g id="Node000010" class="node">
<title>Node10</title>
<g id="a_Node000010"><a xlink:href="struct_g_c_object.html" target="_top" xlink:title=" ">
<polygon fill="white" stroke="#666666" points="355.25,-841 295.75,-841 295.75,-821.75 355.25,-821.75 355.25,-841"/>
<text xml:space="preserve" text-anchor="middle" x="325.5" y="-827.5" font-family="Helvetica,sans-Serif" font-size="10.00">GCObject</text>
</a>
</g>
</g>
<!-- Node10&#45;&gt;Node3 -->
<g id="edge31_Node000003_Node000010" class="edge">
<title>Node10&#45;&gt;Node3</title>
<g id="a_edge31_Node000003_Node000010"><a xlink:title=" ">
<path fill="none" stroke="#9a32cd" stroke-dasharray="5,2" d="M343,-813.28C345.93,-810.19 348.87,-806.94 351.5,-803.75 373.21,-777.46 367.65,-760.75 395.25,-740.75 402.02,-735.84 446.79,-723.32 477.43,-715.12"/>
<polygon fill="#9a32cd" stroke="#9a32cd" points="340.63,-810.71 336.1,-820.29 345.61,-815.62 340.63,-810.71"/>
</a>
</g>
<text xml:space="preserve" text-anchor="start" x="398.25" y="-768.38" font-family="Helvetica,sans-Serif" font-size="10.00" fill="grey">gclist</text>
</g>
<!-- Node10&#45;&gt;Node7 -->
<g id="edge11_Node000007_Node000010" class="edge">
<title>Node10&#45;&gt;Node7</title>
<g id="a_edge11_Node000007_Node000010"><a xlink:title=" ">
<path fill="none" stroke="#9a32cd" stroke-dasharray="5,2" d="M330.01,-810.56C339.68,-766.34 361.5,-656.11 361.5,-562.62 361.5,-562.62 361.5,-562.62 361.5,-167.88 361.5,-137.47 383.14,-106.51 394.98,-91.85"/>
<polygon fill="#9a32cd" stroke="#9a32cd" points="326.63,-809.65 327.87,-820.17 333.46,-811.17 326.63,-809.65"/>
</a>
</g>
<text xml:space="preserve" text-anchor="start" x="364.5" y="-521.5" font-family="Helvetica,sans-Serif" font-size="10.00" fill="grey">allgc</text>
<text xml:space="preserve" text-anchor="start" x="364.5" y="-506.25" font-family="Helvetica,sans-Serif" font-size="10.00" fill="grey">allweak</text>
<text xml:space="preserve" text-anchor="start" x="364.5" y="-491" font-family="Helvetica,sans-Serif" font-size="10.00" fill="grey">ephemeron</text>
<text xml:space="preserve" text-anchor="start" x="364.5" y="-475.75" font-family="Helvetica,sans-Serif" font-size="10.00" fill="grey">finobj</text>
<text xml:space="preserve" text-anchor="start" x="364.5" y="-460.5" font-family="Helvetica,sans-Serif" font-size="10.00" fill="grey">finobjold1</text>
<text xml:space="preserve" text-anchor="start" x="364.5" y="-445.25" font-family="Helvetica,sans-Serif" font-size="10.00" fill="grey">finobjrold</text>
<text xml:space="preserve" text-anchor="start" x="364.5" y="-430" font-family="Helvetica,sans-Serif" font-size="10.00" fill="grey">finobjsur</text>
<text xml:space="preserve" text-anchor="start" x="364.5" y="-414.75" font-family="Helvetica,sans-Serif" font-size="10.00" fill="grey">firstold1</text>
<text xml:space="preserve" text-anchor="start" x="364.5" y="-399.5" font-family="Helvetica,sans-Serif" font-size="10.00" fill="grey">fixedgc</text>
<text xml:space="preserve" text-anchor="start" x="364.5" y="-384.25" font-family="Helvetica,sans-Serif" font-size="10.00" fill="grey">gray</text>
<text xml:space="preserve" text-anchor="start" x="364.5" y="-369" font-family="Helvetica,sans-Serif" font-size="10.00" fill="grey"> &#160;...</text>
</g>
<!-- Node10&#45;&gt;Node11 -->
<g id="edge23_Node000011_Node000010" class="edge">
<title>Node10&#45;&gt;Node11</title>
<g id="a_edge23_Node000011_Node000010"><a xlink:title=" ">
<path fill="none" stroke="#9a32cd" stroke-dasharray="5,2" d="M316.98,-811.04C296.98,-764.48 247.46,-642.03 230.5,-534 208.54,-394.11 224.25,-220.24 228.51,-178.96"/>
<polygon fill="#9a32cd" stroke="#9a32cd" points="313.68,-812.24 320.88,-820.02 320.1,-809.45 313.68,-812.24"/>
</a>
</g>
<text xml:space="preserve" text-anchor="start" x="240.08" y="-557.75" font-family="Helvetica,sans-Serif" font-size="10.00" fill="grey">gclist</text>
</g>
<!-- Node10&#45;&gt;Node14 -->
<g id="edge19_Node000014_Node000010" class="edge">
<title>Node10&#45;&gt;Node14</title>
<g id="a_edge19_Node000014_Node000010"><a xlink:title=" ">
<path fill="none" stroke="#9a32cd" stroke-dasharray="5,2" d="M324.41,-809.96C321.88,-762.89 315.74,-648.25 313.98,-615.42"/>
<polygon fill="#9a32cd" stroke="#9a32cd" points="320.9,-810.01 324.93,-819.81 327.89,-809.64 320.9,-810.01"/>
</a>
</g>
<text xml:space="preserve" text-anchor="start" x="322.7" y="-702.62" font-family="Helvetica,sans-Serif" font-size="10.00" fill="grey">gc</text>
</g>
<!-- Node11&#45;&gt;Node7 -->
<g id="edge14_Node000007_Node000011" class="edge">
<title>Node11&#45;&gt;Node7</title>
<g id="a_edge14_Node000007_Node000011"><a xlink:title=" ">
<path fill="none" stroke="#9a32cd" stroke-dasharray="5,2" d="M252.96,-152.81C273,-140.32 302.84,-122.59 330.25,-109.75 344.53,-103.06 361,-96.88 374.6,-92.16"/>
<polygon fill="#9a32cd" stroke="#9a32cd" points="251.31,-149.71 244.72,-158 255.04,-155.63 251.31,-149.71"/>
</a>
</g>
<text xml:space="preserve" text-anchor="start" x="333.25" y="-114.5" font-family="Helvetica,sans-Serif" font-size="10.00" fill="grey">mt</text>
</g>
<!-- Node11&#45;&gt;Node11 -->
<g id="edge22_Node000011_Node000011" class="edge">
<title>Node11&#45;&gt;Node11</title>
<g id="a_edge22_Node000011_Node000011"><a xlink:title=" ">
<path fill="none" stroke="#9a32cd" stroke-dasharray="5,2" d="M260.46,-177.19C264.47,-175.75 267.12,-172.98 267.12,-168.88 267.12,-161.58 258.74,-158.5 249.24,-159.64"/>
<polygon fill="#9a32cd" stroke="#9a32cd" points="260.43,-173.68 250.75,-177.99 261.01,-180.65 260.43,-173.68"/>
</a>
</g>
<text xml:space="preserve" text-anchor="start" x="270.12" y="-165" font-family="Helvetica,sans-Serif" font-size="10.00" fill="grey">metatable</text>
</g>
<!-- Node12&#45;&gt;Node11 -->
<g id="edge16_Node000011_Node000012" class="edge">
<title>Node12&#45;&gt;Node11</title>
<g id="a_edge16_Node000011_Node000012"><a xlink:title=" ">
<path fill="none" stroke="#9a32cd" stroke-dasharray="5,2" d="M253.59,-250.17C247.11,-228.57 237,-194.86 232.2,-178.87"/>
<polygon fill="#9a32cd" stroke="#9a32cd" points="250.18,-250.98 256.4,-259.55 256.88,-248.97 250.18,-250.98"/>
</a>
</g>
<text xml:space="preserve" text-anchor="start" x="254.45" y="-230.75" font-family="Helvetica,sans-Serif" font-size="10.00" fill="grey">lastfree</text>
<text xml:space="preserve" text-anchor="start" x="254.45" y="-215.5" font-family="Helvetica,sans-Serif" font-size="10.00" fill="grey">node</text>
</g>
<!-- Node13 -->
<g id="Node000013" class="node">
<title>Node13</title>
<g id="a_Node000013"><a xlink:href="struct_node_1_1_node_key.html" target="_top" xlink:title=" ">
<polygon fill="white" stroke="#666666" points="325.38,-458.75 239.62,-458.75 239.62,-439.5 325.38,-439.5 325.38,-458.75"/>
<text xml:space="preserve" text-anchor="middle" x="282.5" y="-445.25" font-family="Helvetica,sans-Serif" font-size="10.00">Node::NodeKey</text>
</a>
</g>
</g>
<!-- Node13&#45;&gt;Node12 -->
<g id="edge17_Node000012_Node000013" class="edge">
<title>Node13&#45;&gt;Node12</title>
<g id="a_edge17_Node000012_Node000013"><a xlink:title=" ">
<path fill="none" stroke="#9a32cd" stroke-dasharray="5,2" d="M279.87,-427.95C274.86,-389.59 264.16,-307.55 260.64,-280.63"/>
<polygon fill="#9a32cd" stroke="#9a32cd" points="276.37,-428.18 281.13,-437.64 283.31,-427.27 276.37,-428.18"/>
</a>
</g>
<text xml:space="preserve" text-anchor="start" x="271.94" y="-318.5" font-family="Helvetica,sans-Serif" font-size="10.00" fill="grey">u</text>
</g>
<!-- Node14&#45;&gt;Node13 -->
<g id="edge18_Node000013_Node000014" class="edge">
<title>Node14&#45;&gt;Node13</title>
<g id="a_edge18_Node000013_Node000014"><a xlink:title=" ">
<path fill="none" stroke="#9a32cd" stroke-dasharray="5,2" d="M309.51,-584.61C302.72,-550.81 289.2,-483.48 284.31,-459.16"/>
<polygon fill="#9a32cd" stroke="#9a32cd" points="306.05,-585.16 311.45,-594.27 312.91,-583.78 306.05,-585.16"/>
</a>
</g>
<text xml:space="preserve" text-anchor="start" x="309.8" y="-557.75" font-family="Helvetica,sans-Serif" font-size="10.00" fill="grey">key_val</text>
</g>
<!-- Node15&#45;&gt;Node3 -->
<g id="edge24_Node000003_Node000015" class="edge">
<title>Node15&#45;&gt;Node3</title>
<g id="a_edge24_Node000003_Node000015"><a xlink:title=" ">
<path fill="none" stroke="#9a32cd" stroke-dasharray="5,2" d="M497.75,-626.77C500.14,-648.24 503.79,-681.12 505.52,-696.71"/>
<polygon fill="#9a32cd" stroke="#9a32cd" points="501.24,-626.46 496.66,-616.91 494.28,-627.24 501.24,-626.46"/>
</a>
</g>
<text xml:space="preserve" text-anchor="start" x="505.63" y="-659.75" font-family="Helvetica,sans-Serif" font-size="10.00" fill="grey">base_ci</text>
<text xml:space="preserve" text-anchor="start" x="505.63" y="-644.5" font-family="Helvetica,sans-Serif" font-size="10.00" fill="grey">ci</text>
</g>
<!-- Node15&#45;&gt;Node15 -->
<g id="edge26_Node000015_Node000015" class="edge">
<title>Node15&#45;&gt;Node15</title>
<g id="a_edge26_Node000015_Node000015"><a xlink:title=" ">
<path fill="none" stroke="#9a32cd" stroke-dasharray="5,2" d="M531.86,-612.39C535.82,-611.08 538.38,-608.78 538.38,-605.5 538.38,-599.67 530.31,-596.94 520.6,-597.31"/>
<polygon fill="#9a32cd" stroke="#9a32cd" points="531.64,-608.9 522.11,-613.52 532.44,-615.85 531.64,-608.9"/>
</a>
</g>
<text xml:space="preserve" text-anchor="start" x="541.38" y="-609.25" font-family="Helvetica,sans-Serif" font-size="10.00" fill="grey">next</text>
<text xml:space="preserve" text-anchor="start" x="541.38" y="-594" font-family="Helvetica,sans-Serif" font-size="10.00" fill="grey">previous</text>
</g>
<!-- Node16&#45;&gt;Node3 -->
<g id="edge28_Node000003_Node000016" class="edge">
<title>Node16&#45;&gt;Node3</title>
<g id="a_edge28_Node000003_Node000016"><a xlink:title=" ">
<path fill="none" stroke="#9a32cd" stroke-dasharray="5,2" d="M491.37,-854.46C495.26,-840.44 500.07,-821.11 502.5,-803.75 506.95,-771.95 506.98,-733.71 506.71,-716.58"/>
<polygon fill="#9a32cd" stroke="#9a32cd" points="488.09,-853.2 488.69,-863.78 494.82,-855.13 488.09,-853.2"/>
</a>
</g>
<text xml:space="preserve" text-anchor="start" x="502.31" y="-827.5" font-family="Helvetica,sans-Serif" font-size="10.00" fill="grey">openupval</text>
</g>
<!-- Node16&#45;&gt;Node16 -->
<g id="edge30_Node000016_Node000016" class="edge">
<title>Node16&#45;&gt;Node16</title>
<g id="a_edge30_Node000016_Node000016"><a xlink:title=" ">
<path fill="none" stroke="#9a32cd" stroke-dasharray="5,2" d="M518.03,-882.37C522.01,-881.09 524.62,-878.72 524.62,-875.25 524.62,-869.08 516.37,-866.38 506.83,-867.15"/>
<polygon fill="#9a32cd" stroke="#9a32cd" points="517.99,-878.86 508.34,-883.22 518.6,-885.83 517.99,-878.86"/>
</a>
</g>
<text xml:space="preserve" text-anchor="start" x="527.62" y="-879" font-family="Helvetica,sans-Serif" font-size="10.00" fill="grey">next</text>
<text xml:space="preserve" text-anchor="start" x="527.62" y="-863.75" font-family="Helvetica,sans-Serif" font-size="10.00" fill="grey">previous</text>
</g>
<!-- Node17 -->
<g id="Node000017" class="node">
<title>Node17</title>
<g id="a_Node000017"><a xlink:href="structlua__longjmp.html" target="_top" xlink:title=" ">
<polygon fill="white" stroke="#666666" points="631.38,-841 563.62,-841 563.62,-821.75 631.38,-821.75 631.38,-841"/>
<text xml:space="preserve" text-anchor="middle" x="597.5" y="-827.5" font-family="Helvetica,sans-Serif" font-size="10.00">lua_longjmp</text>
</a>
</g>
</g>
<!-- Node17&#45;&gt;Node3 -->
<g id="edge33_Node000003_Node000017" class="edge">
<title>Node17&#45;&gt;Node3</title>
<g id="a_edge33_Node000003_Node000017"><a xlink:title=" ">
<path fill="none" stroke="#9a32cd" stroke-dasharray="5,2" d="M584.3,-812.55C564.6,-785.96 528.23,-736.84 513.23,-716.59"/>
<polygon fill="#9a32cd" stroke="#9a32cd" points="581.29,-814.37 590.05,-820.32 586.92,-810.2 581.29,-814.37"/>
</a>
</g>
<text xml:space="preserve" text-anchor="start" x="578.51" y="-768.38" font-family="Helvetica,sans-Serif" font-size="10.00" fill="grey">errorJmp</text>
</g>
<!-- Node17&#45;&gt;Node17 -->
<g id="edge34_Node000017_Node000017" class="edge">
<title>Node17&#45;&gt;Node17</title>
<g id="a_edge34_Node000017_Node000017"><a xlink:title=" ">
<path fill="none" stroke="#9a32cd" stroke-dasharray="5,2" d="M642.58,-837.94C646.75,-836.59 649.38,-834.4 649.38,-831.38 649.38,-826.15 641.52,-823.41 631.43,-823.17"/>
<polygon fill="#9a32cd" stroke="#9a32cd" points="642.31,-834.45 632.92,-839.36 643.33,-841.37 642.31,-834.45"/>
</a>
</g>
<text xml:space="preserve" text-anchor="start" x="652.38" y="-827.5" font-family="Helvetica,sans-Serif" font-size="10.00" fill="grey">previous</text>
</g>
</g>
</svg>

<g id="navigator" transform="translate(0 0)" fill="#404254">
  <rect fill="#f2f5e9" fill-opacity="0.5" stroke="#606060" stroke-width=".5" x="0" y="0" width="60" height="60"/>
  <use id="zoomplus" xlink:href="#zoomPlus" x="17" y="9" onmousedown="handleZoom(evt,'in')"/>
  <use id="zoomminus" xlink:href="#zoomMin" x="42" y="9" onmousedown="handleZoom(evt,'out')"/>
  <use id="reset" xlink:href="#resetDef" x="30" y="36" onmousedown="handleReset()"/>
   <use id="arrowup" xlink:href="#arrowUp" x="0" y="0" onmousedown="handlePan(0,-1)"/>
  <use id="arrowright" xlink:href="#arrowRight" x="0" y="0" onmousedown="handlePan(1,0)"/>
  <use id="arrowdown" xlink:href="#arrowDown" x="0" y="0" onmousedown="handlePan(0,1)"/>
  <use id="arrowleft" xlink:href="#arrowLeft" x="0" y="0" onmousedown="handlePan(-1,0)"/>
</g>
<svg viewBox="0 0 15 15" width="100%" height="30px" preserveAspectRatio="xMaxYMin meet">
 <g id="arrow_out" transform="scale(0.3 0.3)">
  <a xlink:href="struct_l_g__coll__graph_org.svg" target="_base">
   <rect id="button" ry="5" rx="5" y="6" x="6" height="38" width="38"
        fill="#f2f5e9" fill-opacity="0.5" stroke="#606060" stroke-width="1.0"/>
   <path id="arrow"
     d="M 11.500037,31.436501 C 11.940474,20.09759 22.043105,11.32322 32.158766,21.979434 L 37.068811,17.246167 C 37.068811,17.246167 37.088388,32 37.088388,32 L 22.160133,31.978069 C 22.160133,31.978069 26.997745,27.140456 26.997745,27.140456 C 18.528582,18.264221 13.291696,25.230495 11.500037,31.436501 z"
     style="fill:#404040;"/>
  </a>
 </g>
</svg>

<style type='text/css'>
<![CDATA[
[data-mouse-over-selected='false'] { opacity: 0.7; }
[data-mouse-over-selected='true']  { opacity: 1.0; }
]]>
</style>
<script type="application/ecmascript"><![CDATA[
document.addEventListener('DOMContentLoaded', (event) => {
  highlightEdges();
  highlightAdjacentNodes();
});
]]></script>
</svg>
