<?xml version="1.0" encoding="UTF-8" standalone="no"?>
<!DOCTYPE svg PUBLIC "-//W3C//DTD SVG 1.1//EN"
 "http://www.w3.org/Graphics/SVG/1.1/DTD/svg11.dtd">
<!-- Generated by graphviz version 13.1.0 (20250701.0955)
 -->
<!-- Title: Upvaldesc Pages: 1 -->
<svg width="111pt" height="100pt"
 viewBox="0.00 0.00 111.00 100.00" xmlns="http://www.w3.org/2000/svg" xmlns:xlink="http://www.w3.org/1999/xlink">
<g id="graph0" class="graph" transform="scale(1 1) rotate(0) translate(4 95.75)">
<title>Upvaldesc</title>
<!-- Node1 -->
<g id="Node000001" class="node">
<title>Node1</title>
<g id="a_Node000001"><a xlink:title=" ">
<polygon fill="#999999" stroke="#666666" points="62.5,-19.25 0,-19.25 0,0 62.5,0 62.5,-19.25"/>
<text xml:space="preserve" text-anchor="middle" x="31.25" y="-5.75" font-family="Helvetica,sans-Serif" font-size="10.00">Upvaldesc</text>
</a>
</g>
</g>
<!-- Node2 -->
<g id="Node000002" class="node">
<title>Node2</title>
<g id="a_Node000002"><a xlink:href="struct_t_string.html" target="_top" xlink:title=" ">
<polygon fill="white" stroke="#666666" points="55,-91.75 7.5,-91.75 7.5,-72.5 55,-72.5 55,-91.75"/>
<text xml:space="preserve" text-anchor="middle" x="31.25" y="-78.25" font-family="Helvetica,sans-Serif" font-size="10.00">TString</text>
</a>
</g>
</g>
<!-- Node2&#45;&gt;Node1 -->
<g id="edge1_Node000001_Node000002" class="edge">
<title>Node2&#45;&gt;Node1</title>
<g id="a_edge1_Node000001_Node000002"><a xlink:title=" ">
<path fill="none" stroke="#9a32cd" stroke-dasharray="5,2" d="M31.25,-61.05C31.25,-47.44 31.25,-30.1 31.25,-19.7"/>
<polygon fill="#9a32cd" stroke="#9a32cd" points="27.75,-60.68 31.25,-70.68 34.75,-60.68 27.75,-60.68"/>
</a>
</g>
<text xml:space="preserve" text-anchor="start" x="34.25" y="-42" font-family="Helvetica,sans-Serif" font-size="10.00" fill="grey">name</text>
</g>
<!-- Node2&#45;&gt;Node2 -->
<g id="edge2_Node000002_Node000002" class="edge">
<title>Node2&#45;&gt;Node2</title>
<g id="a_edge2_Node000002_Node000002"><a xlink:title=" ">
<path fill="none" stroke="#9a32cd" stroke-dasharray="5,2" d="M66.49,-87.87C70.44,-86.79 73,-84.87 73,-82.12 73,-77.24 64.91,-74.99 55.28,-75.37"/>
<polygon fill="#9a32cd" stroke="#9a32cd" points="66.43,-84.36 56.78,-88.74 67.06,-91.33 66.43,-84.36"/>
</a>
</g>
<text xml:space="preserve" text-anchor="start" x="76" y="-78.25" font-family="Helvetica,sans-Serif" font-size="10.00" fill="grey">hnext</text>
</g>
</g>
</svg>
