<?xml version="1.0" encoding="UTF-8" standalone="no"?>
<!DOCTYPE svg PUBLIC "-//W3C//DTD SVG 1.1//EN"
 "http://www.w3.org/Graphics/SVG/1.1/DTD/svg11.dtd">
<!-- Generated by graphviz version 13.1.0 (20250701.0955)
 -->
<!-- Title: CClosure Pages: 1 -->
<svg width="813pt" height="950pt"
 viewBox="0.00 0.00 813.00 950.00" xmlns="http://www.w3.org/2000/svg" xmlns:xlink="http://www.w3.org/1999/xlink">
<g id="graph0" class="graph" transform="scale(1 1) rotate(0) translate(4 946)">
<title>CClosure</title>
<!-- Node1 -->
<g id="Node000001" class="node">
<title>Node1</title>
<g id="a_Node000001"><a xlink:title=" ">
<polygon fill="#999999" stroke="#666666" points="120.62,-540.62 63.38,-540.62 63.38,-521.38 120.62,-521.38 120.62,-540.62"/>
<text xml:space="preserve" text-anchor="middle" x="92" y="-527.12" font-family="Helvetica,sans-Serif" font-size="10.00">CClosure</text>
</a>
</g>
</g>
<!-- Node2 -->
<g id="Node000002" class="node">
<title>Node2</title>
<g id="a_Node000002"><a xlink:href="structlua___state.html" target="_top" xlink:title=" ">
<polygon fill="white" stroke="#666666" points="287.62,-641.62 230.38,-641.62 230.38,-622.38 287.62,-622.38 287.62,-641.62"/>
<text xml:space="preserve" text-anchor="middle" x="259" y="-628.12" font-family="Helvetica,sans-Serif" font-size="10.00">lua_State</text>
</a>
</g>
</g>
<!-- Node2&#45;&gt;Node1 -->
<g id="edge1_Node000001_Node000002" class="edge">
<title>Node2&#45;&gt;Node1</title>
<g id="a_edge1_Node000001_Node000002"><a xlink:title=" ">
<path fill="none" stroke="#9a32cd" stroke-dasharray="5,2" d="M218.94,-623.14C198.73,-617.98 174.45,-609.89 155,-597.75 130.32,-582.35 108.57,-555.12 98.29,-541.02"/>
<polygon fill="#9a32cd" stroke="#9a32cd" points="217.98,-626.51 228.52,-625.43 219.61,-619.7 217.98,-626.51"/>
</a>
</g>
<text xml:space="preserve" text-anchor="start" x="158" y="-577.62" font-family="Helvetica,sans-Serif" font-size="10.00" fill="grey">f</text>
</g>
<!-- Node2&#45;&gt;Node2 -->
<g id="edge31_Node000002_Node000002" class="edge">
<title>Node2&#45;&gt;Node2</title>
<g id="a_edge31_Node000002_Node000002"><a xlink:title=" ">
<path fill="none" stroke="#9a32cd" stroke-dasharray="5,2" d="M298.77,-639.85C302.95,-638.32 305.62,-635.71 305.62,-632 305.62,-625.59 297.61,-622.43 287.68,-622.53"/>
<polygon fill="#9a32cd" stroke="#9a32cd" points="298.57,-636.35 289.18,-641.25 299.58,-643.27 298.57,-636.35"/>
</a>
</g>
<text xml:space="preserve" text-anchor="start" x="308.62" y="-628.12" font-family="Helvetica,sans-Serif" font-size="10.00" fill="grey">twups</text>
</g>
<!-- Node6 -->
<g id="Node000006" class="node">
<title>Node6</title>
<g id="a_Node000006"><a xlink:href="structglobal___state.html" target="_top" xlink:title=" ">
<polygon fill="white" stroke="#666666" points="509,-19.25 439,-19.25 439,0 509,0 509,-19.25"/>
<text xml:space="preserve" text-anchor="middle" x="474" y="-5.75" font-family="Helvetica,sans-Serif" font-size="10.00">global_State</text>
</a>
</g>
</g>
<!-- Node2&#45;&gt;Node6 -->
<g id="edge11_Node000006_Node000002" class="edge">
<title>Node2&#45;&gt;Node6</title>
<g id="a_edge11_Node000006_Node000002"><a xlink:title=" ">
<path fill="none" stroke="#9a32cd" stroke-dasharray="5,2" d="M265.11,-611.14C270.66,-591.31 278,-559.84 278,-532 278,-532 278,-532 278,-95.38 278,-26.23 382.02,-12.85 438.51,-10.68"/>
<polygon fill="#9a32cd" stroke="#9a32cd" points="261.78,-610.07 262.31,-620.65 268.49,-612.04 261.78,-610.07"/>
</a>
</g>
<text xml:space="preserve" text-anchor="start" x="281" y="-261.25" font-family="Helvetica,sans-Serif" font-size="10.00" fill="grey">mainthread</text>
<text xml:space="preserve" text-anchor="start" x="281" y="-246" font-family="Helvetica,sans-Serif" font-size="10.00" fill="grey">panic</text>
<text xml:space="preserve" text-anchor="start" x="281" y="-230.75" font-family="Helvetica,sans-Serif" font-size="10.00" fill="grey">twups</text>
</g>
<!-- Node13 -->
<g id="Node000013" class="node">
<title>Node13</title>
<g id="a_Node000013"><a xlink:href="union_value.html" target="_top" xlink:title=" ">
<polygon fill="white" stroke="#666666" points="539,-540.62 499,-540.62 499,-521.38 539,-521.38 539,-540.62"/>
<text xml:space="preserve" text-anchor="middle" x="519" y="-527.12" font-family="Helvetica,sans-Serif" font-size="10.00">Value</text>
</a>
</g>
</g>
<!-- Node2&#45;&gt;Node13 -->
<g id="edge19_Node000013_Node000002" class="edge">
<title>Node2&#45;&gt;Node13</title>
<g id="a_edge19_Node000013_Node000002"><a xlink:title=" ">
<path fill="none" stroke="#9a32cd" stroke-dasharray="5,2" d="M299.27,-627.25C333.08,-623.07 382.12,-614.54 422,-597.75 456.69,-583.15 491.9,-555.31 508.76,-541"/>
<polygon fill="#9a32cd" stroke="#9a32cd" points="299.02,-623.76 289.49,-628.38 299.83,-630.71 299.02,-623.76"/>
</a>
</g>
<text xml:space="preserve" text-anchor="start" x="479.88" y="-577.62" font-family="Helvetica,sans-Serif" font-size="10.00" fill="grey">f</text>
</g>
<!-- Node14 -->
<g id="Node000014" class="node">
<title>Node14</title>
<g id="a_Node000014"><a xlink:href="struct_call_info.html" target="_top" xlink:title=" ">
<polygon fill="white" stroke="#666666" points="188.88,-540.62 139.12,-540.62 139.12,-521.38 188.88,-521.38 188.88,-540.62"/>
<text xml:space="preserve" text-anchor="middle" x="164" y="-527.12" font-family="Helvetica,sans-Serif" font-size="10.00">CallInfo</text>
</a>
</g>
</g>
<!-- Node2&#45;&gt;Node14 -->
<g id="edge26_Node000014_Node000002" class="edge">
<title>Node2&#45;&gt;Node14</title>
<g id="a_edge26_Node000014_Node000002"><a xlink:title=" ">
<path fill="none" stroke="#9a32cd" stroke-dasharray="5,2" d="M251.69,-611.37C245.67,-597.24 236,-578.41 223,-565.25 212.67,-554.79 198.36,-546.62 186.42,-541"/>
<polygon fill="#9a32cd" stroke="#9a32cd" points="248.38,-612.51 255.33,-620.51 254.88,-609.93 248.38,-612.51"/>
</a>
</g>
<text xml:space="preserve" text-anchor="start" x="247.9" y="-577.62" font-family="Helvetica,sans-Serif" font-size="10.00" fill="grey">k</text>
</g>
<!-- Node3 -->
<g id="Node000003" class="node">
<title>Node3</title>
<g id="a_Node000003"><a xlink:href="union_stk_id_rel.html" target="_top" xlink:title=" ">
<polygon fill="white" stroke="#666666" points="158.12,-766.5 103.88,-766.5 103.88,-747.25 158.12,-747.25 158.12,-766.5"/>
<text xml:space="preserve" text-anchor="middle" x="131" y="-753" font-family="Helvetica,sans-Serif" font-size="10.00">StkIdRel</text>
</a>
</g>
</g>
<!-- Node3&#45;&gt;Node2 -->
<g id="edge2_Node000002_Node000003" class="edge">
<title>Node3&#45;&gt;Node2</title>
<g id="a_edge2_Node000002_Node000003"><a xlink:title=" ">
<path fill="none" stroke="#9a32cd" stroke-dasharray="5,2" d="M124.84,-735.76C120.11,-715.94 116.69,-685.86 132,-666.25 143.96,-650.94 196.32,-641.27 229.97,-636.52"/>
<polygon fill="#9a32cd" stroke="#9a32cd" points="121.46,-736.66 127.48,-745.38 128.21,-734.81 121.46,-736.66"/>
</a>
</g>
<text xml:space="preserve" text-anchor="start" x="135" y="-716.75" font-family="Helvetica,sans-Serif" font-size="10.00" fill="grey">stack</text>
<text xml:space="preserve" text-anchor="start" x="135" y="-701.5" font-family="Helvetica,sans-Serif" font-size="10.00" fill="grey">stack_last</text>
<text xml:space="preserve" text-anchor="start" x="135" y="-686.25" font-family="Helvetica,sans-Serif" font-size="10.00" fill="grey">tbclist</text>
<text xml:space="preserve" text-anchor="start" x="135" y="-671" font-family="Helvetica,sans-Serif" font-size="10.00" fill="grey">top</text>
</g>
<!-- Node3&#45;&gt;Node14 -->
<g id="edge24_Node000014_Node000003" class="edge">
<title>Node3&#45;&gt;Node14</title>
<g id="a_edge24_Node000014_Node000003"><a xlink:title=" ">
<path fill="none" stroke="#9a32cd" stroke-dasharray="5,2" d="M119.69,-736.87C118.6,-734.37 117.66,-731.8 117,-729.25 98.72,-658.68 79.56,-629.51 114,-565.25 119.81,-554.41 130.89,-546.5 141.14,-541.12"/>
<polygon fill="#9a32cd" stroke="#9a32cd" points="116.52,-738.36 124.26,-745.6 122.72,-735.12 116.52,-738.36"/>
</a>
</g>
<text xml:space="preserve" text-anchor="start" x="99.14" y="-635.75" font-family="Helvetica,sans-Serif" font-size="10.00" fill="grey">func</text>
<text xml:space="preserve" text-anchor="start" x="99.14" y="-620.5" font-family="Helvetica,sans-Serif" font-size="10.00" fill="grey">top</text>
</g>
<!-- Node4 -->
<g id="Node000004" class="node">
<title>Node4</title>
<g id="a_Node000004"><a xlink:href="union_stack_value.html" target="_top" xlink:title=" ">
<polygon fill="white" stroke="#666666" points="164.75,-854.25 99.25,-854.25 99.25,-835 164.75,-835 164.75,-854.25"/>
<text xml:space="preserve" text-anchor="middle" x="132" y="-840.75" font-family="Helvetica,sans-Serif" font-size="10.00">StackValue</text>
</a>
</g>
</g>
<!-- Node4&#45;&gt;Node3 -->
<g id="edge3_Node000003_Node000004" class="edge">
<title>Node4&#45;&gt;Node3</title>
<g id="a_edge3_Node000003_Node000004"><a xlink:title=" ">
<path fill="none" stroke="#9a32cd" stroke-dasharray="5,2" d="M131.76,-823.29C131.55,-805.36 131.26,-780.08 131.1,-766.81"/>
<polygon fill="#9a32cd" stroke="#9a32cd" points="128.26,-823.3 131.88,-833.26 135.26,-823.22 128.26,-823.3"/>
</a>
</g>
<text xml:space="preserve" text-anchor="start" x="134.68" y="-796.88" font-family="Helvetica,sans-Serif" font-size="10.00" fill="grey">p</text>
</g>
<!-- Node5 -->
<g id="Node000005" class="node">
<title>Node5</title>
<g id="a_Node000005"><a xlink:href="struct_t_value.html" target="_top" xlink:title=" ">
<polygon fill="white" stroke="#666666" points="194,-942 148,-942 148,-922.75 194,-922.75 194,-942"/>
<text xml:space="preserve" text-anchor="middle" x="171" y="-928.5" font-family="Helvetica,sans-Serif" font-size="10.00">TValue</text>
</a>
</g>
</g>
<!-- Node5&#45;&gt;Node1 -->
<g id="edge34_Node000001_Node000005" class="edge">
<title>Node5&#45;&gt;Node1</title>
<g id="a_edge34_Node000001_Node000005"><a xlink:title=" ">
<path fill="none" stroke="#9a32cd" stroke-dasharray="5,2" d="M136.92,-923.64C99.9,-912.98 46,-889.87 46,-845.62 46,-845.62 46,-845.62 46,-631 46,-594.8 71.61,-557.51 84.61,-540.91"/>
<polygon fill="#9a32cd" stroke="#9a32cd" points="135.75,-926.95 146.32,-926.16 137.57,-920.19 135.75,-926.95"/>
</a>
</g>
<text xml:space="preserve" text-anchor="start" x="49" y="-753" font-family="Helvetica,sans-Serif" font-size="10.00" fill="grey">upvalue</text>
</g>
<!-- Node5&#45;&gt;Node4 -->
<g id="edge4_Node000004_Node000005" class="edge">
<title>Node5&#45;&gt;Node4</title>
<g id="a_edge4_Node000004_Node000005"><a xlink:title=" ">
<path fill="none" stroke="#9a32cd" stroke-dasharray="5,2" d="M157.2,-913.21C155.41,-910.45 153.69,-907.58 152.25,-904.75 143.57,-887.74 137.25,-866.17 134.15,-854.35"/>
<polygon fill="#9a32cd" stroke="#9a32cd" points="154.22,-915.05 162.85,-921.18 159.93,-911 154.22,-915.05"/>
</a>
</g>
<text xml:space="preserve" text-anchor="start" x="155.25" y="-884.62" font-family="Helvetica,sans-Serif" font-size="10.00" fill="grey">val</text>
</g>
<!-- Node5&#45;&gt;Node6 -->
<g id="edge9_Node000006_Node000005" class="edge">
<title>Node5&#45;&gt;Node6</title>
<g id="a_edge9_Node000006_Node000005"><a xlink:title=" ">
<path fill="none" stroke="#9a32cd" stroke-dasharray="5,2" d="M136.33,-929.17C86.35,-923.89 0,-906.04 0,-845.62 0,-845.62 0,-845.62 0,-95.38 0,-50.81 328.91,-21.68 438.76,-13.2"/>
<polygon fill="#9a32cd" stroke="#9a32cd" points="135.79,-932.63 146.07,-930.07 136.44,-925.66 135.79,-932.63"/>
</a>
</g>
<text xml:space="preserve" text-anchor="start" x="3" y="-534.75" font-family="Helvetica,sans-Serif" font-size="10.00" fill="grey">l_registry</text>
<text xml:space="preserve" text-anchor="start" x="3" y="-519.5" font-family="Helvetica,sans-Serif" font-size="10.00" fill="grey">nilvalue</text>
</g>
<!-- Node10 -->
<g id="Node000010" class="node">
<title>Node10</title>
<g id="a_Node000010"><a xlink:href="struct_table.html" target="_top" xlink:title=" ">
<polygon fill="white" stroke="#666666" points="493.62,-106 454.38,-106 454.38,-86.75 493.62,-86.75 493.62,-106"/>
<text xml:space="preserve" text-anchor="middle" x="474" y="-92.5" font-family="Helvetica,sans-Serif" font-size="10.00">Table</text>
</a>
</g>
</g>
<!-- Node5&#45;&gt;Node10 -->
<g id="edge14_Node000010_Node000005" class="edge">
<title>Node5&#45;&gt;Node10</title>
<g id="a_edge14_Node000010_Node000005"><a xlink:title=" ">
<path fill="none" stroke="#9a32cd" stroke-dasharray="5,2" d="M204.81,-919C257.99,-897.44 359.33,-847.41 400,-766.5 403.84,-758.86 400.28,-755.8 400,-747.25 397.83,-680.7 392.42,-664.3 390.25,-597.75 389.78,-583.31 389.65,-579.68 390.25,-565.25 390.86,-550.43 393,-546.83 393,-532 393,-532 393,-532 393,-197.38 393,-155.82 435.76,-121.86 459.14,-106.4"/>
<polygon fill="#9a32cd" stroke="#9a32cd" points="203.66,-915.69 195.64,-922.61 206.22,-922.2 203.66,-915.69"/>
</a>
</g>
<text xml:space="preserve" text-anchor="start" x="393.25" y="-577.62" font-family="Helvetica,sans-Serif" font-size="10.00" fill="grey">array</text>
</g>
<!-- Node11 -->
<g id="Node000011" class="node">
<title>Node11</title>
<g id="a_Node000011"><a xlink:href="union_node.html" target="_top" xlink:title=" ">
<polygon fill="white" stroke="#666666" points="493.62,-208 454.38,-208 454.38,-188.75 493.62,-188.75 493.62,-208"/>
<text xml:space="preserve" text-anchor="middle" x="474" y="-194.5" font-family="Helvetica,sans-Serif" font-size="10.00">Node</text>
</a>
</g>
</g>
<!-- Node5&#45;&gt;Node11 -->
<g id="edge20_Node000011_Node000005" class="edge">
<title>Node5&#45;&gt;Node11</title>
<g id="a_edge20_Node000011_Node000005"><a xlink:title=" ">
<path fill="none" stroke="#9a32cd" stroke-dasharray="5,2" d="M205.35,-931.65C267.61,-931.54 396.09,-928.35 433,-904.75 458.73,-888.3 468,-876.16 468,-845.62 468,-845.62 468,-845.62 468,-631 468,-480.22 461.3,-442.42 467,-291.75 468.16,-261.05 471.49,-224.74 473.1,-208.28"/>
<polygon fill="#9a32cd" stroke="#9a32cd" points="205.69,-928.15 195.69,-931.64 205.68,-935.15 205.69,-928.15"/>
</a>
</g>
<text xml:space="preserve" text-anchor="start" x="471" y="-628.12" font-family="Helvetica,sans-Serif" font-size="10.00" fill="grey">i_val</text>
</g>
<!-- Node15 -->
<g id="Node000015" class="node">
<title>Node15</title>
<g id="a_Node000015"><a xlink:href="struct_up_val.html" target="_top" xlink:title=" ">
<polygon fill="white" stroke="#666666" points="215.12,-810.38 172.88,-810.38 172.88,-791.12 215.12,-791.12 215.12,-810.38"/>
<text xml:space="preserve" text-anchor="middle" x="194" y="-796.88" font-family="Helvetica,sans-Serif" font-size="10.00">UpVal</text>
</a>
</g>
</g>
<!-- Node5&#45;&gt;Node15 -->
<g id="edge28_Node000015_Node000005" class="edge">
<title>Node5&#45;&gt;Node15</title>
<g id="a_edge28_Node000015_Node000005"><a xlink:title=" ">
<path fill="none" stroke="#9a32cd" stroke-dasharray="5,2" d="M174.53,-911.46C179.6,-882.88 188.74,-831.41 192.41,-810.72"/>
<polygon fill="#9a32cd" stroke="#9a32cd" points="171.15,-910.52 172.85,-920.98 178.04,-911.74 171.15,-910.52"/>
</a>
</g>
<text xml:space="preserve" text-anchor="start" x="184.03" y="-892.25" font-family="Helvetica,sans-Serif" font-size="10.00" fill="grey">p</text>
<text xml:space="preserve" text-anchor="start" x="184.03" y="-877" font-family="Helvetica,sans-Serif" font-size="10.00" fill="grey">value</text>
</g>
<!-- Node6&#45;&gt;Node2 -->
<g id="edge5_Node000002_Node000006" class="edge">
<title>Node6&#45;&gt;Node2</title>
<g id="a_edge5_Node000002_Node000006"><a xlink:title=" ">
<path fill="none" stroke="#9a32cd" stroke-dasharray="5,2" d="M428.01,-23.22C394.52,-35.52 355,-57.96 355,-95.38 355,-532 355,-532 355,-532 355,-575.57 306.48,-607.23 278.43,-621.89"/>
<polygon fill="#9a32cd" stroke="#9a32cd" points="428.87,-26.63 437.19,-20.07 426.59,-20.01 428.87,-26.63"/>
</a>
</g>
<text xml:space="preserve" text-anchor="start" x="358" y="-246" font-family="Helvetica,sans-Serif" font-size="10.00" fill="grey">l_G</text>
</g>
<!-- Node7 -->
<g id="Node000007" class="node">
<title>Node7</title>
<g id="a_Node000007"><a xlink:href="structstringtable.html" target="_top" xlink:title=" ">
<polygon fill="white" stroke="#666666" points="725.5,-106 664.5,-106 664.5,-86.75 725.5,-86.75 725.5,-106"/>
<text xml:space="preserve" text-anchor="middle" x="695" y="-92.5" font-family="Helvetica,sans-Serif" font-size="10.00">stringtable</text>
</a>
</g>
</g>
<!-- Node7&#45;&gt;Node6 -->
<g id="edge6_Node000006_Node000007" class="edge">
<title>Node7&#45;&gt;Node6</title>
<g id="a_edge6_Node000006_Node000007"><a xlink:title=" ">
<path fill="none" stroke="#9a32cd" stroke-dasharray="5,2" d="M685.5,-76.57C677.79,-63.35 665.65,-46.44 650,-37.25 626.82,-23.63 553.84,-16.23 509.47,-12.88"/>
<polygon fill="#9a32cd" stroke="#9a32cd" points="682.35,-78.11 690.19,-85.23 688.51,-74.77 682.35,-78.11"/>
</a>
</g>
<text xml:space="preserve" text-anchor="start" x="672.58" y="-42" font-family="Helvetica,sans-Serif" font-size="10.00" fill="grey">strt</text>
</g>
<!-- Node8 -->
<g id="Node000008" class="node">
<title>Node8</title>
<g id="a_Node000008"><a xlink:href="struct_t_string.html" target="_top" xlink:title=" ">
<polygon fill="white" stroke="#666666" points="752.75,-208 705.25,-208 705.25,-188.75 752.75,-188.75 752.75,-208"/>
<text xml:space="preserve" text-anchor="middle" x="729" y="-194.5" font-family="Helvetica,sans-Serif" font-size="10.00">TString</text>
</a>
</g>
</g>
<!-- Node8&#45;&gt;Node6 -->
<g id="edge12_Node000006_Node000008" class="edge">
<title>Node8&#45;&gt;Node6</title>
<g id="a_edge12_Node000006_Node000008"><a xlink:title=" ">
<path fill="none" stroke="#9a32cd" stroke-dasharray="5,2" d="M744.21,-179.03C745.76,-176.38 747.09,-173.59 748,-170.75 752.41,-156.99 749.41,-152.63 748,-138.25 745.1,-108.6 750.01,-98.23 735,-72.5 722.89,-51.74 715.99,-46.95 694,-37.25 661.7,-23.01 562.67,-15.5 509.17,-12.4"/>
<polygon fill="#9a32cd" stroke="#9a32cd" points="741.43,-176.89 738.51,-187.08 747.14,-180.94 741.43,-176.89"/>
</a>
</g>
<text xml:space="preserve" text-anchor="start" x="749.89" y="-107.75" font-family="Helvetica,sans-Serif" font-size="10.00" fill="grey">memerrmsg</text>
<text xml:space="preserve" text-anchor="start" x="749.89" y="-92.5" font-family="Helvetica,sans-Serif" font-size="10.00" fill="grey">strcache</text>
<text xml:space="preserve" text-anchor="start" x="749.89" y="-77.25" font-family="Helvetica,sans-Serif" font-size="10.00" fill="grey">tmname</text>
</g>
<!-- Node8&#45;&gt;Node7 -->
<g id="edge7_Node000007_Node000008" class="edge">
<title>Node8&#45;&gt;Node7</title>
<g id="a_edge7_Node000007_Node000008"><a xlink:title=" ">
<path fill="none" stroke="#9a32cd" stroke-dasharray="5,2" d="M722.3,-177.67C714.96,-156.07 703.5,-122.36 698.06,-106.37"/>
<polygon fill="#9a32cd" stroke="#9a32cd" points="718.96,-178.73 725.5,-187.07 725.59,-176.47 718.96,-178.73"/>
</a>
</g>
<text xml:space="preserve" text-anchor="start" x="722.88" y="-150.62" font-family="Helvetica,sans-Serif" font-size="10.00" fill="grey">hash</text>
</g>
<!-- Node8&#45;&gt;Node8 -->
<g id="edge8_Node000008_Node000008" class="edge">
<title>Node8&#45;&gt;Node8</title>
<g id="a_edge8_Node000008_Node000008"><a xlink:title=" ">
<path fill="none" stroke="#9a32cd" stroke-dasharray="5,2" d="M764.24,-205.33C768.19,-204.02 770.75,-201.7 770.75,-198.38 770.75,-192.46 762.66,-189.74 753.03,-190.2"/>
<polygon fill="#9a32cd" stroke="#9a32cd" points="764.09,-201.82 754.53,-206.39 764.85,-208.78 764.09,-201.82"/>
</a>
</g>
<text xml:space="preserve" text-anchor="start" x="773.75" y="-194.5" font-family="Helvetica,sans-Serif" font-size="10.00" fill="grey">hnext</text>
</g>
<!-- Node9 -->
<g id="Node000009" class="node">
<title>Node9</title>
<g id="a_Node000009"><a xlink:href="struct_g_c_object.html" target="_top" xlink:title=" ">
<polygon fill="white" stroke="#666666" points="596.75,-766.5 537.25,-766.5 537.25,-747.25 596.75,-747.25 596.75,-766.5"/>
<text xml:space="preserve" text-anchor="middle" x="567" y="-753" font-family="Helvetica,sans-Serif" font-size="10.00">GCObject</text>
</a>
</g>
</g>
<!-- Node9&#45;&gt;Node2 -->
<g id="edge30_Node000002_Node000009" class="edge">
<title>Node9&#45;&gt;Node2</title>
<g id="a_edge30_Node000002_Node000009"><a xlink:title=" ">
<path fill="none" stroke="#9a32cd" stroke-dasharray="5,2" d="M533.82,-742.64C470.84,-717.51 335.45,-663.5 281.68,-642.05"/>
<polygon fill="#9a32cd" stroke="#9a32cd" points="532.36,-745.82 542.95,-746.28 534.96,-739.32 532.36,-745.82"/>
</a>
</g>
<text xml:space="preserve" text-anchor="start" x="495.57" y="-693.88" font-family="Helvetica,sans-Serif" font-size="10.00" fill="grey">gclist</text>
</g>
<!-- Node9&#45;&gt;Node6 -->
<g id="edge10_Node000006_Node000009" class="edge">
<title>Node9&#45;&gt;Node6</title>
<g id="a_edge10_Node000006_Node000009"><a xlink:title=" ">
<path fill="none" stroke="#9a32cd" stroke-dasharray="5,2" d="M586.8,-739.05C589.78,-735.98 592.63,-732.66 595,-729.25 621.51,-691.05 636,-679.5 636,-633 636,-633 636,-633 636,-95.38 636,-38.56 556.8,-19.76 509.15,-13.59"/>
<polygon fill="#9a32cd" stroke="#9a32cd" points="584.42,-736.48 579.53,-745.88 589.21,-741.58 584.42,-736.48"/>
</a>
</g>
<text xml:space="preserve" text-anchor="start" x="639" y="-449" font-family="Helvetica,sans-Serif" font-size="10.00" fill="grey">allgc</text>
<text xml:space="preserve" text-anchor="start" x="639" y="-433.75" font-family="Helvetica,sans-Serif" font-size="10.00" fill="grey">allweak</text>
<text xml:space="preserve" text-anchor="start" x="639" y="-418.5" font-family="Helvetica,sans-Serif" font-size="10.00" fill="grey">ephemeron</text>
<text xml:space="preserve" text-anchor="start" x="639" y="-403.25" font-family="Helvetica,sans-Serif" font-size="10.00" fill="grey">finobj</text>
<text xml:space="preserve" text-anchor="start" x="639" y="-388" font-family="Helvetica,sans-Serif" font-size="10.00" fill="grey">finobjold1</text>
<text xml:space="preserve" text-anchor="start" x="639" y="-372.75" font-family="Helvetica,sans-Serif" font-size="10.00" fill="grey">finobjrold</text>
<text xml:space="preserve" text-anchor="start" x="639" y="-357.5" font-family="Helvetica,sans-Serif" font-size="10.00" fill="grey">finobjsur</text>
<text xml:space="preserve" text-anchor="start" x="639" y="-342.25" font-family="Helvetica,sans-Serif" font-size="10.00" fill="grey">firstold1</text>
<text xml:space="preserve" text-anchor="start" x="639" y="-327" font-family="Helvetica,sans-Serif" font-size="10.00" fill="grey">fixedgc</text>
<text xml:space="preserve" text-anchor="start" x="639" y="-311.75" font-family="Helvetica,sans-Serif" font-size="10.00" fill="grey">gray</text>
<text xml:space="preserve" text-anchor="start" x="639" y="-296.5" font-family="Helvetica,sans-Serif" font-size="10.00" fill="grey"> &#160;...</text>
</g>
<!-- Node9&#45;&gt;Node10 -->
<g id="edge22_Node000010_Node000009" class="edge">
<title>Node9&#45;&gt;Node10</title>
<g id="a_edge22_Node000010_Node000009"><a xlink:title=" ">
<path fill="none" stroke="#9a32cd" stroke-dasharray="5,2" d="M573.01,-736.22C579.82,-712.13 590,-669.96 590,-633 590,-633 590,-633 590,-197.38 590,-147.25 527.11,-116.73 493.94,-104.11"/>
<polygon fill="#9a32cd" stroke="#9a32cd" points="569.71,-735.01 570.25,-745.59 576.43,-736.98 569.71,-735.01"/>
</a>
</g>
<text xml:space="preserve" text-anchor="start" x="593" y="-484.25" font-family="Helvetica,sans-Serif" font-size="10.00" fill="grey">gclist</text>
</g>
<!-- Node9&#45;&gt;Node13 -->
<g id="edge18_Node000013_Node000009" class="edge">
<title>Node9&#45;&gt;Node13</title>
<g id="a_edge18_Node000013_Node000009"><a xlink:title=" ">
<path fill="none" stroke="#9a32cd" stroke-dasharray="5,2" d="M562.69,-735.76C552.64,-688.88 527.97,-573.82 520.91,-540.92"/>
<polygon fill="#9a32cd" stroke="#9a32cd" points="559.22,-736.3 564.74,-745.34 566.07,-734.83 559.22,-736.3"/>
</a>
</g>
<text xml:space="preserve" text-anchor="start" x="546.8" y="-628.12" font-family="Helvetica,sans-Serif" font-size="10.00" fill="grey">gc</text>
</g>
<!-- Node10&#45;&gt;Node6 -->
<g id="edge13_Node000006_Node000010" class="edge">
<title>Node10&#45;&gt;Node6</title>
<g id="a_edge13_Node000006_Node000010"><a xlink:title=" ">
<path fill="none" stroke="#9a32cd" stroke-dasharray="5,2" d="M474,-74.98C474,-57.35 474,-32.72 474,-19.63"/>
<polygon fill="#9a32cd" stroke="#9a32cd" points="470.5,-74.79 474,-84.79 477.5,-74.79 470.5,-74.79"/>
</a>
</g>
<text xml:space="preserve" text-anchor="start" x="477" y="-42" font-family="Helvetica,sans-Serif" font-size="10.00" fill="grey">mt</text>
</g>
<!-- Node10&#45;&gt;Node10 -->
<g id="edge21_Node000010_Node000010" class="edge">
<title>Node10&#45;&gt;Node10</title>
<g id="a_edge21_Node000010_Node000010"><a xlink:title=" ">
<path fill="none" stroke="#9a32cd" stroke-dasharray="5,2" d="M504.96,-104.69C508.97,-103.25 511.62,-100.48 511.62,-96.38 511.62,-89.08 503.24,-86 493.74,-87.14"/>
<polygon fill="#9a32cd" stroke="#9a32cd" points="504.93,-101.18 495.25,-105.49 505.51,-108.15 504.93,-101.18"/>
</a>
</g>
<text xml:space="preserve" text-anchor="start" x="514.62" y="-92.5" font-family="Helvetica,sans-Serif" font-size="10.00" fill="grey">metatable</text>
</g>
<!-- Node11&#45;&gt;Node10 -->
<g id="edge15_Node000010_Node000011" class="edge">
<title>Node11&#45;&gt;Node10</title>
<g id="a_edge15_Node000010_Node000011"><a xlink:title=" ">
<path fill="none" stroke="#9a32cd" stroke-dasharray="5,2" d="M474,-177.07C474,-155.45 474,-122.21 474,-106.37"/>
<polygon fill="#9a32cd" stroke="#9a32cd" points="470.5,-176.99 474,-186.99 477.5,-176.99 470.5,-176.99"/>
</a>
</g>
<text xml:space="preserve" text-anchor="start" x="477" y="-158.25" font-family="Helvetica,sans-Serif" font-size="10.00" fill="grey">lastfree</text>
<text xml:space="preserve" text-anchor="start" x="477" y="-143" font-family="Helvetica,sans-Serif" font-size="10.00" fill="grey">node</text>
</g>
<!-- Node12 -->
<g id="Node000012" class="node">
<title>Node12</title>
<g id="a_Node000012"><a xlink:href="struct_node_1_1_node_key.html" target="_top" xlink:title=" ">
<polygon fill="white" stroke="#666666" points="561.88,-386.25 476.12,-386.25 476.12,-367 561.88,-367 561.88,-386.25"/>
<text xml:space="preserve" text-anchor="middle" x="519" y="-372.75" font-family="Helvetica,sans-Serif" font-size="10.00">Node::NodeKey</text>
</a>
</g>
</g>
<!-- Node12&#45;&gt;Node11 -->
<g id="edge16_Node000011_Node000012" class="edge">
<title>Node12&#45;&gt;Node11</title>
<g id="a_edge16_Node000011_Node000012"><a xlink:title=" ">
<path fill="none" stroke="#9a32cd" stroke-dasharray="5,2" d="M513.98,-355.95C504.24,-317.8 483.14,-235.17 476.24,-208.13"/>
<polygon fill="#9a32cd" stroke="#9a32cd" points="510.47,-356.35 516.33,-365.18 517.25,-354.62 510.47,-356.35"/>
</a>
</g>
<text xml:space="preserve" text-anchor="start" x="495.47" y="-246" font-family="Helvetica,sans-Serif" font-size="10.00" fill="grey">u</text>
</g>
<!-- Node13&#45;&gt;Node12 -->
<g id="edge17_Node000012_Node000013" class="edge">
<title>Node13&#45;&gt;Node12</title>
<g id="a_edge17_Node000012_Node000013"><a xlink:title=" ">
<path fill="none" stroke="#9a32cd" stroke-dasharray="5,2" d="M519,-509.8C519,-476.22 519,-410.27 519,-386.46"/>
<polygon fill="#9a32cd" stroke="#9a32cd" points="515.5,-509.41 519,-519.41 522.5,-509.41 515.5,-509.41"/>
</a>
</g>
<text xml:space="preserve" text-anchor="start" x="522" y="-484.25" font-family="Helvetica,sans-Serif" font-size="10.00" fill="grey">key_val</text>
</g>
<!-- Node14&#45;&gt;Node2 -->
<g id="edge23_Node000002_Node000014" class="edge">
<title>Node14&#45;&gt;Node2</title>
<g id="a_edge23_Node000002_Node000014"><a xlink:title=" ">
<path fill="none" stroke="#9a32cd" stroke-dasharray="5,2" d="M165.41,-551.86C167.38,-566.14 172.08,-585.04 183.25,-597.75 195.39,-611.56 214.32,-619.87 230.23,-624.73"/>
<polygon fill="#9a32cd" stroke="#9a32cd" points="168.93,-551.88 164.44,-542.28 161.96,-552.58 168.93,-551.88"/>
</a>
</g>
<text xml:space="preserve" text-anchor="start" x="186.25" y="-585.25" font-family="Helvetica,sans-Serif" font-size="10.00" fill="grey">base_ci</text>
<text xml:space="preserve" text-anchor="start" x="186.25" y="-570" font-family="Helvetica,sans-Serif" font-size="10.00" fill="grey">ci</text>
</g>
<!-- Node14&#45;&gt;Node14 -->
<g id="edge25_Node000014_Node000014" class="edge">
<title>Node14&#45;&gt;Node14</title>
<g id="a_edge25_Node000014_Node000014"><a xlink:title=" ">
<path fill="none" stroke="#9a32cd" stroke-dasharray="5,2" d="M200.36,-537.74C204.32,-536.45 206.88,-534.2 206.88,-531 206.88,-525.31 198.81,-522.64 189.1,-522.99"/>
<polygon fill="#9a32cd" stroke="#9a32cd" points="200.15,-534.24 190.61,-538.84 200.94,-541.2 200.15,-534.24"/>
</a>
</g>
<text xml:space="preserve" text-anchor="start" x="209.88" y="-534.75" font-family="Helvetica,sans-Serif" font-size="10.00" fill="grey">next</text>
<text xml:space="preserve" text-anchor="start" x="209.88" y="-519.5" font-family="Helvetica,sans-Serif" font-size="10.00" fill="grey">previous</text>
</g>
<!-- Node15&#45;&gt;Node2 -->
<g id="edge27_Node000002_Node000015" class="edge">
<title>Node15&#45;&gt;Node2</title>
<g id="a_edge27_Node000002_Node000015"><a xlink:title=" ">
<path fill="none" stroke="#9a32cd" stroke-dasharray="5,2" d="M195.97,-779.51C197.29,-769.62 199.41,-757.64 202.75,-747.25 216.02,-706 241.94,-660.94 253.37,-642.09"/>
<polygon fill="#9a32cd" stroke="#9a32cd" points="192.53,-778.81 194.88,-789.14 199.48,-779.6 192.53,-778.81"/>
</a>
</g>
<text xml:space="preserve" text-anchor="start" x="205.75" y="-753" font-family="Helvetica,sans-Serif" font-size="10.00" fill="grey">openupval</text>
</g>
<!-- Node15&#45;&gt;Node15 -->
<g id="edge29_Node000015_Node000015" class="edge">
<title>Node15&#45;&gt;Node15</title>
<g id="a_edge29_Node000015_Node000015"><a xlink:title=" ">
<path fill="none" stroke="#9a32cd" stroke-dasharray="5,2" d="M226.53,-807.87C230.51,-806.59 233.12,-804.22 233.12,-800.75 233.12,-794.58 224.87,-791.88 215.33,-792.65"/>
<polygon fill="#9a32cd" stroke="#9a32cd" points="226.49,-804.36 216.84,-808.72 227.1,-811.33 226.49,-804.36"/>
</a>
</g>
<text xml:space="preserve" text-anchor="start" x="236.12" y="-804.5" font-family="Helvetica,sans-Serif" font-size="10.00" fill="grey">next</text>
<text xml:space="preserve" text-anchor="start" x="236.12" y="-789.25" font-family="Helvetica,sans-Serif" font-size="10.00" fill="grey">previous</text>
</g>
<!-- Node16 -->
<g id="Node000016" class="node">
<title>Node16</title>
<g id="a_Node000016"><a xlink:href="structlua__longjmp.html" target="_top" xlink:title=" ">
<polygon fill="white" stroke="#666666" points="329.88,-766.5 262.12,-766.5 262.12,-747.25 329.88,-747.25 329.88,-766.5"/>
<text xml:space="preserve" text-anchor="middle" x="296" y="-753" font-family="Helvetica,sans-Serif" font-size="10.00">lua_longjmp</text>
</a>
</g>
</g>
<!-- Node16&#45;&gt;Node2 -->
<g id="edge32_Node000002_Node000016" class="edge">
<title>Node16&#45;&gt;Node2</title>
<g id="a_edge32_Node000002_Node000016"><a xlink:title=" ">
<path fill="none" stroke="#9a32cd" stroke-dasharray="5,2" d="M290.09,-736.26C281.98,-709.31 267.7,-661.89 261.74,-642.09"/>
<polygon fill="#9a32cd" stroke="#9a32cd" points="286.67,-737.02 292.9,-745.59 293.37,-735 286.67,-737.02"/>
</a>
</g>
<text xml:space="preserve" text-anchor="start" x="290.06" y="-693.88" font-family="Helvetica,sans-Serif" font-size="10.00" fill="grey">errorJmp</text>
</g>
<!-- Node16&#45;&gt;Node16 -->
<g id="edge33_Node000016_Node000016" class="edge">
<title>Node16&#45;&gt;Node16</title>
<g id="a_edge33_Node000016_Node000016"><a xlink:title=" ">
<path fill="none" stroke="#9a32cd" stroke-dasharray="5,2" d="M341.08,-763.44C345.25,-762.09 347.88,-759.9 347.88,-756.88 347.88,-751.65 340.02,-748.91 329.93,-748.67"/>
<polygon fill="#9a32cd" stroke="#9a32cd" points="340.81,-759.95 331.42,-764.86 341.83,-766.87 340.81,-759.95"/>
</a>
</g>
<text xml:space="preserve" text-anchor="start" x="350.88" y="-753" font-family="Helvetica,sans-Serif" font-size="10.00" fill="grey">previous</text>
</g>
</g>
</svg>
