<?xml version="1.0" encoding="UTF-8" standalone="no"?>
<!DOCTYPE svg PUBLIC "-//W3C//DTD SVG 1.1//EN"
 "http://www.w3.org/Graphics/SVG/1.1/DTD/svg11.dtd">
<!-- Generated by graphviz version 13.1.0 (20250701.0955)
 -->
<!-- Title: SParser Pages: 1 -->
<svg width="192pt" height="333pt"
 viewBox="0.00 0.00 192.00 333.00" xmlns="http://www.w3.org/2000/svg" xmlns:xlink="http://www.w3.org/1999/xlink">
<g id="graph0" class="graph" transform="scale(1 1) rotate(0) translate(4 328.5)">
<title>SParser</title>
<!-- Node1 -->
<g id="Node000001" class="node">
<title>Node1</title>
<g id="a_Node000001"><a xlink:title=" ">
<polygon fill="#999999" stroke="#666666" points="73.12,-19.25 21.88,-19.25 21.88,0 73.12,0 73.12,-19.25"/>
<text xml:space="preserve" text-anchor="middle" x="47.5" y="-5.75" font-family="Helvetica,sans-Serif" font-size="10.00">SParser</text>
</a>
</g>
</g>
<!-- Node2 -->
<g id="Node000002" class="node">
<title>Node2</title>
<g id="a_Node000002"><a xlink:href="struct_mbuffer.html" target="_top" xlink:title=" ">
<polygon fill="white" stroke="#666666" points="49,-91.75 0,-91.75 0,-72.5 49,-72.5 49,-91.75"/>
<text xml:space="preserve" text-anchor="middle" x="24.5" y="-78.25" font-family="Helvetica,sans-Serif" font-size="10.00">Mbuffer</text>
</a>
</g>
</g>
<!-- Node2&#45;&gt;Node1 -->
<g id="edge1_Node000001_Node000002" class="edge">
<title>Node2&#45;&gt;Node1</title>
<g id="a_edge1_Node000001_Node000002"><a xlink:title=" ">
<path fill="none" stroke="#9a32cd" stroke-dasharray="5,2" d="M29.71,-61.29C31.81,-53.71 34.36,-45.03 37,-37.25 39.04,-31.23 41.67,-24.57 43.78,-19.42"/>
<polygon fill="#9a32cd" stroke="#9a32cd" points="26.35,-60.28 27.13,-70.84 33.11,-62.1 26.35,-60.28"/>
</a>
</g>
<text xml:space="preserve" text-anchor="start" x="40" y="-42" font-family="Helvetica,sans-Serif" font-size="10.00" fill="grey">buff</text>
</g>
<!-- Node3 -->
<g id="Node000003" class="node">
<title>Node3</title>
<g id="a_Node000003"><a xlink:href="struct_dyndata.html" target="_top" xlink:title=" ">
<polygon fill="white" stroke="#666666" points="119.88,-91.75 67.12,-91.75 67.12,-72.5 119.88,-72.5 119.88,-91.75"/>
<text xml:space="preserve" text-anchor="middle" x="93.5" y="-78.25" font-family="Helvetica,sans-Serif" font-size="10.00">Dyndata</text>
</a>
</g>
</g>
<!-- Node3&#45;&gt;Node1 -->
<g id="edge2_Node000001_Node000003" class="edge">
<title>Node3&#45;&gt;Node1</title>
<g id="a_edge2_Node000001_Node000003"><a xlink:title=" ">
<path fill="none" stroke="#9a32cd" stroke-dasharray="5,2" d="M81.48,-62.7C72.45,-48.87 60.48,-30.52 53.42,-19.7"/>
<polygon fill="#9a32cd" stroke="#9a32cd" points="78.45,-64.47 86.85,-70.93 84.31,-60.64 78.45,-64.47"/>
</a>
</g>
<text xml:space="preserve" text-anchor="start" x="78.97" y="-42" font-family="Helvetica,sans-Serif" font-size="10.00" fill="grey">dyd</text>
</g>
<!-- Node4 -->
<g id="Node000004" class="node">
<title>Node4</title>
<g id="a_Node000004"><a xlink:href="union_vardesc.html" target="_top" xlink:title=" ">
<polygon fill="white" stroke="#666666" points="147.12,-252 95.88,-252 95.88,-232.75 147.12,-232.75 147.12,-252"/>
<text xml:space="preserve" text-anchor="middle" x="121.5" y="-238.5" font-family="Helvetica,sans-Serif" font-size="10.00">Vardesc</text>
</a>
</g>
</g>
<!-- Node4&#45;&gt;Node3 -->
<g id="edge3_Node000003_Node000004" class="edge">
<title>Node4&#45;&gt;Node3</title>
<g id="a_edge3_Node000003_Node000004"><a xlink:title=" ">
<path fill="none" stroke="#9a32cd" stroke-dasharray="5,2" d="M120.92,-220.85C119.74,-194.63 116.19,-148.06 105.5,-109.75 103.81,-103.69 100.94,-97.26 98.43,-92.23"/>
<polygon fill="#9a32cd" stroke="#9a32cd" points="117.42,-220.88 121.28,-230.74 124.41,-220.62 117.42,-220.88"/>
</a>
</g>
<text xml:space="preserve" text-anchor="start" x="120.78" y="-166" font-family="Helvetica,sans-Serif" font-size="10.00" fill="grey">arr</text>
</g>
<!-- Node5 -->
<g id="Node000005" class="node">
<title>Node5</title>
<g id="a_Node000005"><a xlink:href="struct_t_string.html" target="_top" xlink:title=" ">
<polygon fill="white" stroke="#666666" points="71.25,-324.5 23.75,-324.5 23.75,-305.25 71.25,-305.25 71.25,-324.5"/>
<text xml:space="preserve" text-anchor="middle" x="47.5" y="-311" font-family="Helvetica,sans-Serif" font-size="10.00">TString</text>
</a>
</g>
</g>
<!-- Node5&#45;&gt;Node4 -->
<g id="edge4_Node000004_Node000005" class="edge">
<title>Node5&#45;&gt;Node4</title>
<g id="a_edge4_Node000004_Node000005"><a xlink:title=" ">
<path fill="none" stroke="#9a32cd" stroke-dasharray="5,2" d="M68.87,-298.03C73.16,-294.6 77.56,-290.91 81.5,-287.25 93.74,-275.89 106.51,-261.34 114.23,-252.18"/>
<polygon fill="#9a32cd" stroke="#9a32cd" points="66.84,-295.18 61.06,-304.06 71.11,-300.72 66.84,-295.18"/>
</a>
</g>
<text xml:space="preserve" text-anchor="start" x="100.58" y="-274.75" font-family="Helvetica,sans-Serif" font-size="10.00" fill="grey">name</text>
</g>
<!-- Node5&#45;&gt;Node5 -->
<g id="edge5_Node000005_Node000005" class="edge">
<title>Node5&#45;&gt;Node5</title>
<g id="a_edge5_Node000005_Node000005"><a xlink:title=" ">
<path fill="none" stroke="#9a32cd" stroke-dasharray="5,2" d="M82.74,-320.62C86.69,-319.54 89.25,-317.62 89.25,-314.88 89.25,-309.99 81.16,-307.74 71.53,-308.12"/>
<polygon fill="#9a32cd" stroke="#9a32cd" points="82.68,-317.11 73.03,-321.49 83.31,-324.08 82.68,-317.11"/>
</a>
</g>
<text xml:space="preserve" text-anchor="start" x="92.25" y="-311" font-family="Helvetica,sans-Serif" font-size="10.00" fill="grey">hnext</text>
</g>
<!-- Node8 -->
<g id="Node000008" class="node">
<title>Node8</title>
<g id="a_Node000008"><a xlink:href="struct_labeldesc.html" target="_top" xlink:title=" ">
<polygon fill="white" stroke="#666666" points="77.62,-252 17.38,-252 17.38,-232.75 77.62,-232.75 77.62,-252"/>
<text xml:space="preserve" text-anchor="middle" x="47.5" y="-238.5" font-family="Helvetica,sans-Serif" font-size="10.00">Labeldesc</text>
</a>
</g>
</g>
<!-- Node5&#45;&gt;Node8 -->
<g id="edge9_Node000008_Node000005" class="edge">
<title>Node5&#45;&gt;Node8</title>
<g id="a_edge9_Node000008_Node000005"><a xlink:title=" ">
<path fill="none" stroke="#9a32cd" stroke-dasharray="5,2" d="M47.5,-293.8C47.5,-280.19 47.5,-262.85 47.5,-252.45"/>
<polygon fill="#9a32cd" stroke="#9a32cd" points="44,-293.43 47.5,-303.43 51,-293.43 44,-293.43"/>
</a>
</g>
<text xml:space="preserve" text-anchor="start" x="50.5" y="-274.75" font-family="Helvetica,sans-Serif" font-size="10.00" fill="grey">name</text>
</g>
<!-- Node6 -->
<g id="Node000006" class="node">
<title>Node6</title>
<g id="a_Node000006"><a xlink:href="struct_t_value.html" target="_top" xlink:title=" ">
<polygon fill="white" stroke="#666666" points="183.5,-324.5 137.5,-324.5 137.5,-305.25 183.5,-305.25 183.5,-324.5"/>
<text xml:space="preserve" text-anchor="middle" x="160.5" y="-311" font-family="Helvetica,sans-Serif" font-size="10.00">TValue</text>
</a>
</g>
</g>
<!-- Node6&#45;&gt;Node4 -->
<g id="edge6_Node000004_Node000006" class="edge">
<title>Node6&#45;&gt;Node4</title>
<g id="a_edge6_Node000004_Node000006"><a xlink:title=" ">
<path fill="none" stroke="#9a32cd" stroke-dasharray="5,2" d="M151.45,-294.75C147.63,-286.98 143.02,-277.97 138.5,-270 135.03,-263.9 130.78,-257.24 127.4,-252.11"/>
<polygon fill="#9a32cd" stroke="#9a32cd" points="148.23,-296.14 155.72,-303.63 154.54,-293.1 148.23,-296.14"/>
</a>
</g>
<text xml:space="preserve" text-anchor="start" x="150.4" y="-274.75" font-family="Helvetica,sans-Serif" font-size="10.00" fill="grey">k</text>
</g>
<!-- Node7 -->
<g id="Node000007" class="node">
<title>Node7</title>
<g id="a_Node000007"><a xlink:href="struct_labellist.html" target="_top" xlink:title=" ">
<polygon fill="white" stroke="#666666" points="82.5,-179.5 30.5,-179.5 30.5,-160.25 82.5,-160.25 82.5,-179.5"/>
<text xml:space="preserve" text-anchor="middle" x="56.5" y="-166" font-family="Helvetica,sans-Serif" font-size="10.00">Labellist</text>
</a>
</g>
</g>
<!-- Node7&#45;&gt;Node3 -->
<g id="edge7_Node000003_Node000007" class="edge">
<title>Node7&#45;&gt;Node3</title>
<g id="a_edge7_Node000003_Node000007"><a xlink:title=" ">
<path fill="none" stroke="#9a32cd" stroke-dasharray="5,2" d="M63.37,-149.22C67.6,-137.59 73.34,-122.66 79.25,-109.75 82.04,-103.65 85.61,-96.99 88.47,-91.86"/>
<polygon fill="#9a32cd" stroke="#9a32cd" points="60.12,-147.9 60.06,-158.49 66.72,-150.25 60.12,-147.9"/>
</a>
</g>
<text xml:space="preserve" text-anchor="start" x="82.25" y="-129.75" font-family="Helvetica,sans-Serif" font-size="10.00" fill="grey">gt</text>
<text xml:space="preserve" text-anchor="start" x="82.25" y="-114.5" font-family="Helvetica,sans-Serif" font-size="10.00" fill="grey">label</text>
</g>
<!-- Node8&#45;&gt;Node7 -->
<g id="edge8_Node000007_Node000008" class="edge">
<title>Node8&#45;&gt;Node7</title>
<g id="a_edge8_Node000007_Node000008"><a xlink:title=" ">
<path fill="none" stroke="#9a32cd" stroke-dasharray="5,2" d="M50.06,-221.3C51.8,-207.69 54.01,-190.35 55.34,-179.95"/>
<polygon fill="#9a32cd" stroke="#9a32cd" points="46.63,-220.58 48.83,-230.94 53.57,-221.47 46.63,-220.58"/>
</a>
</g>
<text xml:space="preserve" text-anchor="start" x="56.07" y="-202.25" font-family="Helvetica,sans-Serif" font-size="10.00" fill="grey">arr</text>
</g>
</g>
</svg>
