<?xml version="1.0" encoding="UTF-8" standalone="no"?>
<!DOCTYPE svg PUBLIC "-//W3C//DTD SVG 1.1//EN"
 "http://www.w3.org/Graphics/SVG/1.1/DTD/svg11.dtd">
<!-- Generated by graphviz version 13.1.0 (20250701.0955)
 -->
<!-- Title: global_State Pages: 1 -->
<svg width="824pt" height="834pt"
 viewBox="0.00 0.00 824.00 834.00" xmlns="http://www.w3.org/2000/svg" xmlns:xlink="http://www.w3.org/1999/xlink">
<g id="graph0" class="graph" transform="scale(1 1) rotate(0) translate(4 829.75)">
<title>global_State</title>
<!-- Node1 -->
<g id="Node000001" class="node">
<title>Node1</title>
<g id="a_Node000001"><a xlink:title=" ">
<polygon fill="#999999" stroke="#666666" points="262.02,-484.5 192.02,-484.5 192.02,-465.25 262.02,-465.25 262.02,-484.5"/>
<text xml:space="preserve" text-anchor="middle" x="227.02" y="-471" font-family="Helvetica,sans-Serif" font-size="10.00">global_State</text>
</a>
</g>
</g>
<!-- Node6 -->
<g id="Node000006" class="node">
<title>Node6</title>
<g id="a_Node000006"><a xlink:href="structlua___state.html" target="_top" xlink:title=" ">
<polygon fill="white" stroke="#666666" points="457.64,-359.62 400.39,-359.62 400.39,-340.38 457.64,-340.38 457.64,-359.62"/>
<text xml:space="preserve" text-anchor="middle" x="429.02" y="-346.12" font-family="Helvetica,sans-Serif" font-size="10.00">lua_State</text>
</a>
</g>
</g>
<!-- Node1&#45;&gt;Node6 -->
<g id="edge10_Node000006_Node000001" class="edge">
<title>Node1&#45;&gt;Node6</title>
<g id="a_edge10_Node000006_Node000001"><a xlink:title=" ">
<path fill="none" stroke="#9a32cd" stroke-dasharray="5,2" d="M272.5,-460.09C278.96,-456.67 285.08,-452.44 290.02,-447.25 310.56,-425.65 291.21,-404.57 313.02,-384.25 336.7,-362.19 374.05,-354.64 399.94,-352.13"/>
<polygon fill="#9a32cd" stroke="#9a32cd" points="271.18,-456.85 263.56,-464.21 274.11,-463.21 271.18,-456.85"/>
</a>
</g>
<text xml:space="preserve" text-anchor="start" x="316.02" y="-411.88" font-family="Helvetica,sans-Serif" font-size="10.00" fill="grey">l_G</text>
</g>
<!-- Node2 -->
<g id="Node000002" class="node">
<title>Node2</title>
<g id="a_Node000002"><a xlink:href="structstringtable.html" target="_top" xlink:title=" ">
<polygon fill="white" stroke="#666666" points="130.52,-723.75 69.52,-723.75 69.52,-704.5 130.52,-704.5 130.52,-723.75"/>
<text xml:space="preserve" text-anchor="middle" x="100.02" y="-710.25" font-family="Helvetica,sans-Serif" font-size="10.00">stringtable</text>
</a>
</g>
</g>
<!-- Node2&#45;&gt;Node1 -->
<g id="edge1_Node000001_Node000002" class="edge">
<title>Node2&#45;&gt;Node1</title>
<g id="a_edge1_Node000001_Node000002"><a xlink:title=" ">
<path fill="none" stroke="#9a32cd" stroke-dasharray="5,2" d="M105.16,-693.36C116.14,-653.9 144.87,-563.91 192.77,-502.5 198.14,-495.61 205.68,-489.5 212.31,-484.87"/>
<polygon fill="#9a32cd" stroke="#9a32cd" points="101.83,-692.26 102.61,-702.83 108.59,-694.08 101.83,-692.26"/>
</a>
</g>
<text xml:space="preserve" text-anchor="start" x="195.77" y="-583.5" font-family="Helvetica,sans-Serif" font-size="10.00" fill="grey">strt</text>
</g>
<!-- Node3 -->
<g id="Node000003" class="node">
<title>Node3</title>
<g id="a_Node000003"><a xlink:href="struct_t_string.html" target="_top" xlink:title=" ">
<polygon fill="white" stroke="#666666" points="52.77,-825.75 5.27,-825.75 5.27,-806.5 52.77,-806.5 52.77,-825.75"/>
<text xml:space="preserve" text-anchor="middle" x="29.02" y="-812.25" font-family="Helvetica,sans-Serif" font-size="10.00">TString</text>
</a>
</g>
</g>
<!-- Node3&#45;&gt;Node1 -->
<g id="edge22_Node000001_Node000003" class="edge">
<title>Node3&#45;&gt;Node1</title>
<g id="a_edge22_Node000001_Node000003"><a xlink:title=" ">
<path fill="none" stroke="#9a32cd" stroke-dasharray="5,2" d="M19.56,-795.83C8.73,-771.18 -6.36,-727.25 3.27,-690.25 27.32,-597.77 31.43,-559.64 108.02,-502.5 132.11,-484.52 166.09,-478.3 191.57,-476.32"/>
<polygon fill="#9a32cd" stroke="#9a32cd" points="16.39,-797.3 23.77,-804.9 22.74,-794.36 16.39,-797.3"/>
</a>
</g>
<text xml:space="preserve" text-anchor="start" x="6.27" y="-725.5" font-family="Helvetica,sans-Serif" font-size="10.00" fill="grey">memerrmsg</text>
<text xml:space="preserve" text-anchor="start" x="6.27" y="-710.25" font-family="Helvetica,sans-Serif" font-size="10.00" fill="grey">strcache</text>
<text xml:space="preserve" text-anchor="start" x="6.27" y="-695" font-family="Helvetica,sans-Serif" font-size="10.00" fill="grey">tmname</text>
</g>
<!-- Node3&#45;&gt;Node2 -->
<g id="edge2_Node000002_Node000003" class="edge">
<title>Node3&#45;&gt;Node2</title>
<g id="a_edge2_Node000002_Node000003"><a xlink:title=" ">
<path fill="none" stroke="#9a32cd" stroke-dasharray="5,2" d="M41.95,-796.91C57.22,-775.4 82.01,-740.48 93.63,-724.12"/>
<polygon fill="#9a32cd" stroke="#9a32cd" points="39.13,-794.84 36.19,-805.02 44.84,-798.89 39.13,-794.84"/>
</a>
</g>
<text xml:space="preserve" text-anchor="start" x="73.88" y="-768.38" font-family="Helvetica,sans-Serif" font-size="10.00" fill="grey">hash</text>
</g>
<!-- Node3&#45;&gt;Node3 -->
<g id="edge3_Node000003_Node000003" class="edge">
<title>Node3&#45;&gt;Node3</title>
<g id="a_edge3_Node000003_Node000003"><a xlink:title=" ">
<path fill="none" stroke="#9a32cd" stroke-dasharray="5,2" d="M64.25,-823.08C68.21,-821.77 70.77,-819.45 70.77,-816.12 70.77,-810.21 62.68,-807.49 53.04,-807.95"/>
<polygon fill="#9a32cd" stroke="#9a32cd" points="64.11,-819.57 54.55,-824.14 64.87,-826.53 64.11,-819.57"/>
</a>
</g>
<text xml:space="preserve" text-anchor="start" x="73.77" y="-812.25" font-family="Helvetica,sans-Serif" font-size="10.00" fill="grey">hnext</text>
</g>
<!-- Node4 -->
<g id="Node000004" class="node">
<title>Node4</title>
<g id="a_Node000004"><a xlink:href="struct_t_value.html" target="_top" xlink:title=" ">
<polygon fill="white" stroke="#666666" points="363.02,-825.75 317.02,-825.75 317.02,-806.5 363.02,-806.5 363.02,-825.75"/>
<text xml:space="preserve" text-anchor="middle" x="340.02" y="-812.25" font-family="Helvetica,sans-Serif" font-size="10.00">TValue</text>
</a>
</g>
</g>
<!-- Node4&#45;&gt;Node1 -->
<g id="edge4_Node000001_Node000004" class="edge">
<title>Node4&#45;&gt;Node1</title>
<g id="a_edge4_Node000001_Node000004"><a xlink:title=" ">
<path fill="none" stroke="#9a32cd" stroke-dasharray="5,2" d="M323.41,-797.96C300.22,-772.76 258.96,-723.21 241.02,-672.25 216.84,-603.58 223.2,-513.24 226.02,-484.82"/>
<polygon fill="#9a32cd" stroke="#9a32cd" points="320.63,-800.11 330.03,-804.99 325.73,-795.31 320.63,-800.11"/>
</a>
</g>
<text xml:space="preserve" text-anchor="start" x="278.17" y="-717.88" font-family="Helvetica,sans-Serif" font-size="10.00" fill="grey">l_registry</text>
<text xml:space="preserve" text-anchor="start" x="278.17" y="-702.62" font-family="Helvetica,sans-Serif" font-size="10.00" fill="grey">nilvalue</text>
</g>
<!-- Node8 -->
<g id="Node000008" class="node">
<title>Node8</title>
<g id="a_Node000008"><a xlink:href="union_stack_value.html" target="_top" xlink:title=" ">
<polygon fill="white" stroke="#666666" points="687.77,-723.75 622.27,-723.75 622.27,-704.5 687.77,-704.5 687.77,-723.75"/>
<text xml:space="preserve" text-anchor="middle" x="655.02" y="-710.25" font-family="Helvetica,sans-Serif" font-size="10.00">StackValue</text>
</a>
</g>
</g>
<!-- Node4&#45;&gt;Node8 -->
<g id="edge9_Node000008_Node000004" class="edge">
<title>Node4&#45;&gt;Node8</title>
<g id="a_edge9_Node000008_Node000004"><a xlink:title=" ">
<path fill="none" stroke="#9a32cd" stroke-dasharray="5,2" d="M374.28,-804.25C436.86,-784.38 568.51,-742.59 626.53,-724.17"/>
<polygon fill="#9a32cd" stroke="#9a32cd" points="373.35,-800.87 364.88,-807.23 375.47,-807.54 373.35,-800.87"/>
</a>
</g>
<text xml:space="preserve" text-anchor="start" x="528.73" y="-768.38" font-family="Helvetica,sans-Serif" font-size="10.00" fill="grey">val</text>
</g>
<!-- Node10 -->
<g id="Node000010" class="node">
<title>Node10</title>
<g id="a_Node000010"><a xlink:href="struct_up_val.html" target="_top" xlink:title=" ">
<polygon fill="white" stroke="#666666" points="361.14,-597 318.89,-597 318.89,-577.75 361.14,-577.75 361.14,-597"/>
<text xml:space="preserve" text-anchor="middle" x="340.02" y="-583.5" font-family="Helvetica,sans-Serif" font-size="10.00">UpVal</text>
</a>
</g>
</g>
<!-- Node4&#45;&gt;Node10 -->
<g id="edge16_Node000010_Node000004" class="edge">
<title>Node4&#45;&gt;Node10</title>
<g id="a_edge16_Node000010_Node000004"><a xlink:title=" ">
<path fill="none" stroke="#9a32cd" stroke-dasharray="5,2" d="M340.02,-794.82C340.02,-747.39 340.02,-630.84 340.02,-597.45"/>
<polygon fill="#9a32cd" stroke="#9a32cd" points="336.52,-794.72 340.02,-804.72 343.52,-794.72 336.52,-794.72"/>
</a>
</g>
<text xml:space="preserve" text-anchor="start" x="343.02" y="-776" font-family="Helvetica,sans-Serif" font-size="10.00" fill="grey">p</text>
<text xml:space="preserve" text-anchor="start" x="343.02" y="-760.75" font-family="Helvetica,sans-Serif" font-size="10.00" fill="grey">value</text>
</g>
<!-- Node12 -->
<g id="Node000012" class="node">
<title>Node12</title>
<g id="a_Node000012"><a xlink:href="struct_table.html" target="_top" xlink:title=" ">
<polygon fill="white" stroke="#666666" points="433.64,-19.25 394.39,-19.25 394.39,0 433.64,0 433.64,-19.25"/>
<text xml:space="preserve" text-anchor="middle" x="414.02" y="-5.75" font-family="Helvetica,sans-Serif" font-size="10.00">Table</text>
</a>
</g>
</g>
<!-- Node4&#45;&gt;Node12 -->
<g id="edge24_Node000012_Node000004" class="edge">
<title>Node4&#45;&gt;Node12</title>
<g id="a_edge24_Node000012_Node000004"><a xlink:title=" ">
<path fill="none" stroke="#9a32cd" stroke-dasharray="5,2" d="M305.58,-811.59C253.08,-804.08 159.02,-781.38 159.02,-715.12 159.02,-715.12 159.02,-715.12 159.02,-96.38 159.02,-63.35 175.41,-53.75 204.02,-37.25 236.17,-18.7 348.33,-12.85 394.22,-11.2"/>
<polygon fill="#9a32cd" stroke="#9a32cd" points="304.86,-815.02 315.23,-812.85 305.76,-808.08 304.86,-815.02"/>
</a>
</g>
<text xml:space="preserve" text-anchor="start" x="162.02" y="-295.62" font-family="Helvetica,sans-Serif" font-size="10.00" fill="grey">array</text>
</g>
<!-- Node13 -->
<g id="Node000013" class="node">
<title>Node13</title>
<g id="a_Node000013"><a xlink:href="union_node.html" target="_top" xlink:title=" ">
<polygon fill="white" stroke="#666666" points="738.64,-107 699.39,-107 699.39,-87.75 738.64,-87.75 738.64,-107"/>
<text xml:space="preserve" text-anchor="middle" x="719.02" y="-93.5" font-family="Helvetica,sans-Serif" font-size="10.00">Node</text>
</a>
</g>
</g>
<!-- Node4&#45;&gt;Node13 -->
<g id="edge30_Node000013_Node000004" class="edge">
<title>Node4&#45;&gt;Node13</title>
<g id="a_edge30_Node000013_Node000004"><a xlink:title=" ">
<path fill="none" stroke="#9a32cd" stroke-dasharray="5,2" d="M374.49,-814.81C479.78,-812.93 790.02,-800.18 790.02,-715.12 790.02,-715.12 790.02,-715.12 790.02,-168.88 790.02,-139.87 759.8,-118.7 738.8,-107.49"/>
<polygon fill="#9a32cd" stroke="#9a32cd" points="374.72,-811.31 364.78,-814.96 374.83,-818.31 374.72,-811.31"/>
</a>
</g>
<text xml:space="preserve" text-anchor="start" x="793.02" y="-346.12" font-family="Helvetica,sans-Serif" font-size="10.00" fill="grey">i_val</text>
</g>
<!-- Node5 -->
<g id="Node000005" class="node">
<title>Node5</title>
<g id="a_Node000005"><a xlink:href="struct_g_c_object.html" target="_top" xlink:title=" ">
<polygon fill="white" stroke="#666666" points="526.77,-723.75 467.27,-723.75 467.27,-704.5 526.77,-704.5 526.77,-723.75"/>
<text xml:space="preserve" text-anchor="middle" x="497.02" y="-710.25" font-family="Helvetica,sans-Serif" font-size="10.00">GCObject</text>
</a>
</g>
</g>
<!-- Node5&#45;&gt;Node1 -->
<g id="edge5_Node000001_Node000005" class="edge">
<title>Node5&#45;&gt;Node1</title>
<g id="a_edge5_Node000001_Node000005"><a xlink:title=" ">
<path fill="none" stroke="#9a32cd" stroke-dasharray="5,2" d="M455.61,-711.94C394,-709.25 282.57,-700.51 256.02,-672.25 230.04,-644.6 247.36,-539.27 238.02,-502.5 236.44,-496.3 233.69,-489.64 231.34,-484.53"/>
<polygon fill="#9a32cd" stroke="#9a32cd" points="455.22,-715.43 465.35,-712.33 455.5,-708.43 455.22,-715.43"/>
</a>
</g>
<text xml:space="preserve" text-anchor="start" x="259.02" y="-659.75" font-family="Helvetica,sans-Serif" font-size="10.00" fill="grey">allgc</text>
<text xml:space="preserve" text-anchor="start" x="259.02" y="-644.5" font-family="Helvetica,sans-Serif" font-size="10.00" fill="grey">allweak</text>
<text xml:space="preserve" text-anchor="start" x="259.02" y="-629.25" font-family="Helvetica,sans-Serif" font-size="10.00" fill="grey">ephemeron</text>
<text xml:space="preserve" text-anchor="start" x="259.02" y="-614" font-family="Helvetica,sans-Serif" font-size="10.00" fill="grey">finobj</text>
<text xml:space="preserve" text-anchor="start" x="259.02" y="-598.75" font-family="Helvetica,sans-Serif" font-size="10.00" fill="grey">finobjold1</text>
<text xml:space="preserve" text-anchor="start" x="259.02" y="-583.5" font-family="Helvetica,sans-Serif" font-size="10.00" fill="grey">finobjrold</text>
<text xml:space="preserve" text-anchor="start" x="259.02" y="-568.25" font-family="Helvetica,sans-Serif" font-size="10.00" fill="grey">finobjsur</text>
<text xml:space="preserve" text-anchor="start" x="259.02" y="-553" font-family="Helvetica,sans-Serif" font-size="10.00" fill="grey">firstold1</text>
<text xml:space="preserve" text-anchor="start" x="259.02" y="-537.75" font-family="Helvetica,sans-Serif" font-size="10.00" fill="grey">fixedgc</text>
<text xml:space="preserve" text-anchor="start" x="259.02" y="-522.5" font-family="Helvetica,sans-Serif" font-size="10.00" fill="grey">gray</text>
<text xml:space="preserve" text-anchor="start" x="259.02" y="-507.25" font-family="Helvetica,sans-Serif" font-size="10.00" fill="grey"> &#160;...</text>
</g>
<!-- Node5&#45;&gt;Node6 -->
<g id="edge18_Node000006_Node000005" class="edge">
<title>Node5&#45;&gt;Node6</title>
<g id="a_edge18_Node000006_Node000005"><a xlink:title=" ">
<path fill="none" stroke="#9a32cd" stroke-dasharray="5,2" d="M491.02,-693.19C479.42,-655.39 452.47,-570.95 423.02,-502.5 419.46,-494.24 415.88,-493.24 413.77,-484.5 411.76,-476.18 413.2,-473.79 413.77,-465.25 416.39,-425.72 424.08,-378.99 427.43,-359.85"/>
<polygon fill="#9a32cd" stroke="#9a32cd" points="487.65,-694.13 493.9,-702.68 494.34,-692.1 487.65,-694.13"/>
</a>
</g>
<text xml:space="preserve" text-anchor="start" x="416.77" y="-471" font-family="Helvetica,sans-Serif" font-size="10.00" fill="grey">gclist</text>
</g>
<!-- Node5&#45;&gt;Node12 -->
<g id="edge32_Node000012_Node000005" class="edge">
<title>Node5&#45;&gt;Node12</title>
<g id="a_edge32_Node000012_Node000005"><a xlink:title=" ">
<path fill="none" stroke="#9a32cd" stroke-dasharray="5,2" d="M514.71,-696.51C550.63,-661.44 631.3,-575.58 662.02,-484.5 683.43,-421 684.14,-397.98 665.02,-333.75 620.62,-184.65 468.5,-54.18 425.45,-19.58"/>
<polygon fill="#9a32cd" stroke="#9a32cd" points="512.48,-693.8 507.69,-703.25 517.33,-698.85 512.48,-693.8"/>
</a>
</g>
<text xml:space="preserve" text-anchor="start" x="639.55" y="-245.12" font-family="Helvetica,sans-Serif" font-size="10.00" fill="grey">gclist</text>
</g>
<!-- Node15 -->
<g id="Node000015" class="node">
<title>Node15</title>
<g id="a_Node000015"><a xlink:href="union_value.html" target="_top" xlink:title=" ">
<polygon fill="white" stroke="#666666" points="739.02,-258.62 699.02,-258.62 699.02,-239.38 739.02,-239.38 739.02,-258.62"/>
<text xml:space="preserve" text-anchor="middle" x="719.02" y="-245.12" font-family="Helvetica,sans-Serif" font-size="10.00">Value</text>
</a>
</g>
</g>
<!-- Node5&#45;&gt;Node15 -->
<g id="edge28_Node000015_Node000005" class="edge">
<title>Node5&#45;&gt;Node15</title>
<g id="a_edge28_Node000015_Node000005"><a xlink:title=" ">
<path fill="none" stroke="#9a32cd" stroke-dasharray="5,2" d="M538.24,-705.56C585.13,-696.57 656.37,-681.62 665.02,-672.25 779.79,-547.88 732.44,-308.14 721.17,-258.95"/>
<polygon fill="#9a32cd" stroke="#9a32cd" points="537.85,-702.07 528.67,-707.37 539.15,-708.95 537.85,-702.07"/>
</a>
</g>
<text xml:space="preserve" text-anchor="start" x="743.42" y="-411.88" font-family="Helvetica,sans-Serif" font-size="10.00" fill="grey">gc</text>
</g>
<!-- Node6&#45;&gt;Node1 -->
<g id="edge6_Node000001_Node000006" class="edge">
<title>Node6&#45;&gt;Node1</title>
<g id="a_edge6_Node000001_Node000006"><a xlink:title=" ">
<path fill="none" stroke="#9a32cd" stroke-dasharray="5,2" d="M388.55,-352.39C338.14,-355.02 256.19,-362.6 236.02,-384.25 215.23,-406.56 220.89,-446.88 224.77,-464.83"/>
<polygon fill="#9a32cd" stroke="#9a32cd" points="388.68,-355.88 398.5,-351.91 388.35,-348.89 388.68,-355.88"/>
</a>
</g>
<text xml:space="preserve" text-anchor="start" x="239.02" y="-427.12" font-family="Helvetica,sans-Serif" font-size="10.00" fill="grey">mainthread</text>
<text xml:space="preserve" text-anchor="start" x="239.02" y="-411.88" font-family="Helvetica,sans-Serif" font-size="10.00" fill="grey">panic</text>
<text xml:space="preserve" text-anchor="start" x="239.02" y="-396.62" font-family="Helvetica,sans-Serif" font-size="10.00" fill="grey">twups</text>
</g>
<!-- Node6&#45;&gt;Node6 -->
<g id="edge19_Node000006_Node000006" class="edge">
<title>Node6&#45;&gt;Node6</title>
<g id="a_edge19_Node000006_Node000006"><a xlink:title=" ">
<path fill="none" stroke="#9a32cd" stroke-dasharray="5,2" d="M468.79,-357.85C472.96,-356.32 475.64,-353.71 475.64,-350 475.64,-343.59 467.63,-340.43 457.7,-340.53"/>
<polygon fill="#9a32cd" stroke="#9a32cd" points="468.59,-354.35 459.2,-359.25 469.6,-361.27 468.59,-354.35"/>
</a>
</g>
<text xml:space="preserve" text-anchor="start" x="478.64" y="-346.12" font-family="Helvetica,sans-Serif" font-size="10.00" fill="grey">twups</text>
</g>
<!-- Node9 -->
<g id="Node000009" class="node">
<title>Node9</title>
<g id="a_Node000009"><a xlink:href="struct_call_info.html" target="_top" xlink:title=" ">
<polygon fill="white" stroke="#666666" points="516.89,-258.62 467.14,-258.62 467.14,-239.38 516.89,-239.38 516.89,-258.62"/>
<text xml:space="preserve" text-anchor="middle" x="492.02" y="-245.12" font-family="Helvetica,sans-Serif" font-size="10.00">CallInfo</text>
</a>
</g>
</g>
<!-- Node6&#45;&gt;Node9 -->
<g id="edge14_Node000009_Node000006" class="edge">
<title>Node6&#45;&gt;Node9</title>
<g id="a_edge14_Node000009_Node000006"><a xlink:title=" ">
<path fill="none" stroke="#9a32cd" stroke-dasharray="5,2" d="M453.02,-333.29C459.24,-328.29 465.46,-322.33 470.02,-315.75 482.5,-297.75 488.35,-272.11 490.69,-258.79"/>
<polygon fill="#9a32cd" stroke="#9a32cd" points="451.28,-330.22 445.32,-338.98 455.44,-335.85 451.28,-330.22"/>
</a>
</g>
<text xml:space="preserve" text-anchor="start" x="487.83" y="-295.62" font-family="Helvetica,sans-Serif" font-size="10.00" fill="grey">k</text>
</g>
<!-- Node6&#45;&gt;Node15 -->
<g id="edge29_Node000015_Node000006" class="edge">
<title>Node6&#45;&gt;Node15</title>
<g id="a_edge29_Node000015_Node000006"><a xlink:title=" ">
<path fill="none" stroke="#9a32cd" stroke-dasharray="5,2" d="M468.57,-337.07C518.83,-321.65 608.06,-293.43 683.02,-265.25 688.1,-263.34 693.52,-261.13 698.57,-259"/>
<polygon fill="#9a32cd" stroke="#9a32cd" points="467.84,-333.63 459.3,-339.9 469.89,-340.32 467.84,-333.63"/>
</a>
</g>
<text xml:space="preserve" text-anchor="start" x="630.91" y="-295.62" font-family="Helvetica,sans-Serif" font-size="10.00" fill="grey">f</text>
</g>
<!-- Node7 -->
<g id="Node000007" class="node">
<title>Node7</title>
<g id="a_Node000007"><a xlink:href="union_stk_id_rel.html" target="_top" xlink:title=" ">
<polygon fill="white" stroke="#666666" points="653.14,-484.5 598.89,-484.5 598.89,-465.25 653.14,-465.25 653.14,-484.5"/>
<text xml:space="preserve" text-anchor="middle" x="626.02" y="-471" font-family="Helvetica,sans-Serif" font-size="10.00">StkIdRel</text>
</a>
</g>
</g>
<!-- Node7&#45;&gt;Node6 -->
<g id="edge7_Node000006_Node000007" class="edge">
<title>Node7&#45;&gt;Node6</title>
<g id="a_edge7_Node000006_Node000007"><a xlink:title=" ">
<path fill="none" stroke="#9a32cd" stroke-dasharray="5,2" d="M587.99,-463.96C577.51,-459.97 566.65,-454.53 558.02,-447.25 533.02,-426.17 545.25,-405.04 520.02,-384.25 502.1,-369.49 477.06,-360.98 457.78,-356.27"/>
<polygon fill="#9a32cd" stroke="#9a32cd" points="586.65,-467.2 597.25,-467.13 588.92,-460.58 586.65,-467.2"/>
</a>
</g>
<text xml:space="preserve" text-anchor="start" x="561.02" y="-434.75" font-family="Helvetica,sans-Serif" font-size="10.00" fill="grey">stack</text>
<text xml:space="preserve" text-anchor="start" x="561.02" y="-419.5" font-family="Helvetica,sans-Serif" font-size="10.00" fill="grey">stack_last</text>
<text xml:space="preserve" text-anchor="start" x="561.02" y="-404.25" font-family="Helvetica,sans-Serif" font-size="10.00" fill="grey">tbclist</text>
<text xml:space="preserve" text-anchor="start" x="561.02" y="-389" font-family="Helvetica,sans-Serif" font-size="10.00" fill="grey">top</text>
</g>
<!-- Node7&#45;&gt;Node9 -->
<g id="edge12_Node000009_Node000007" class="edge">
<title>Node7&#45;&gt;Node9</title>
<g id="a_edge12_Node000009_Node000007"><a xlink:title=" ">
<path fill="none" stroke="#9a32cd" stroke-dasharray="5,2" d="M630.84,-454C638.79,-416.05 649.94,-332.69 609.02,-283.25 586.67,-256.25 544.11,-250.28 516.94,-249.43"/>
<polygon fill="#9a32cd" stroke="#9a32cd" points="627.48,-453.01 628.69,-463.53 634.31,-454.55 627.48,-453.01"/>
</a>
</g>
<text xml:space="preserve" text-anchor="start" x="640.76" y="-353.75" font-family="Helvetica,sans-Serif" font-size="10.00" fill="grey">func</text>
<text xml:space="preserve" text-anchor="start" x="640.76" y="-338.5" font-family="Helvetica,sans-Serif" font-size="10.00" fill="grey">top</text>
</g>
<!-- Node8&#45;&gt;Node7 -->
<g id="edge8_Node000007_Node000008" class="edge">
<title>Node8&#45;&gt;Node7</title>
<g id="a_edge8_Node000007_Node000008"><a xlink:title=" ">
<path fill="none" stroke="#9a32cd" stroke-dasharray="5,2" d="M652.54,-692.83C646.52,-643.62 631.34,-519.41 627.12,-484.89"/>
<polygon fill="#9a32cd" stroke="#9a32cd" points="649.05,-693.11 653.73,-702.61 655.99,-692.26 649.05,-693.11"/>
</a>
</g>
<text xml:space="preserve" text-anchor="start" x="652.47" y="-583.5" font-family="Helvetica,sans-Serif" font-size="10.00" fill="grey">p</text>
</g>
<!-- Node9&#45;&gt;Node6 -->
<g id="edge11_Node000006_Node000009" class="edge">
<title>Node9&#45;&gt;Node6</title>
<g id="a_edge11_Node000006_Node000009"><a xlink:title=" ">
<path fill="none" stroke="#9a32cd" stroke-dasharray="5,2" d="M456.38,-261.31C446.19,-266.36 436.25,-273.45 430.27,-283.25 419.44,-300.99 423.38,-326.74 426.56,-340.14"/>
<polygon fill="#9a32cd" stroke="#9a32cd" points="457.73,-264.54 465.53,-257.36 454.96,-258.11 457.73,-264.54"/>
</a>
</g>
<text xml:space="preserve" text-anchor="start" x="433.27" y="-303.25" font-family="Helvetica,sans-Serif" font-size="10.00" fill="grey">base_ci</text>
<text xml:space="preserve" text-anchor="start" x="433.27" y="-288" font-family="Helvetica,sans-Serif" font-size="10.00" fill="grey">ci</text>
</g>
<!-- Node9&#45;&gt;Node9 -->
<g id="edge13_Node000009_Node000009" class="edge">
<title>Node9&#45;&gt;Node9</title>
<g id="a_edge13_Node000009_Node000009"><a xlink:title=" ">
<path fill="none" stroke="#9a32cd" stroke-dasharray="5,2" d="M528.38,-255.74C532.34,-254.45 534.89,-252.2 534.89,-249 534.89,-243.31 526.83,-240.64 517.12,-240.99"/>
<polygon fill="#9a32cd" stroke="#9a32cd" points="528.17,-252.24 518.62,-256.84 528.95,-259.2 528.17,-252.24"/>
</a>
</g>
<text xml:space="preserve" text-anchor="start" x="537.89" y="-252.75" font-family="Helvetica,sans-Serif" font-size="10.00" fill="grey">next</text>
<text xml:space="preserve" text-anchor="start" x="537.89" y="-237.5" font-family="Helvetica,sans-Serif" font-size="10.00" fill="grey">previous</text>
</g>
<!-- Node10&#45;&gt;Node6 -->
<g id="edge15_Node000006_Node000010" class="edge">
<title>Node10&#45;&gt;Node6</title>
<g id="a_edge15_Node000006_Node000010"><a xlink:title=" ">
<path fill="none" stroke="#9a32cd" stroke-dasharray="5,2" d="M334.43,-566.23C328.61,-541.72 321.76,-499.4 332.77,-465.25 348.04,-417.85 394.54,-377.29 416.84,-359.96"/>
<polygon fill="#9a32cd" stroke="#9a32cd" points="331.01,-567 336.9,-575.81 337.79,-565.26 331.01,-567"/>
</a>
</g>
<text xml:space="preserve" text-anchor="start" x="335.77" y="-471" font-family="Helvetica,sans-Serif" font-size="10.00" fill="grey">openupval</text>
</g>
<!-- Node10&#45;&gt;Node10 -->
<g id="edge17_Node000010_Node000010" class="edge">
<title>Node10&#45;&gt;Node10</title>
<g id="a_edge17_Node000010_Node000010"><a xlink:title=" ">
<path fill="none" stroke="#9a32cd" stroke-dasharray="5,2" d="M353.98,-604.94C366.19,-613.05 379.14,-607.19 379.14,-587.38 379.14,-562.99 359.53,-559.75 345.81,-577.66"/>
<polygon fill="#9a32cd" stroke="#9a32cd" points="356.54,-602.54 346.9,-598.14 351.69,-607.59 356.54,-602.54"/>
</a>
</g>
<text xml:space="preserve" text-anchor="start" x="382.14" y="-591.12" font-family="Helvetica,sans-Serif" font-size="10.00" fill="grey">next</text>
<text xml:space="preserve" text-anchor="start" x="382.14" y="-575.88" font-family="Helvetica,sans-Serif" font-size="10.00" fill="grey">previous</text>
</g>
<!-- Node11 -->
<g id="Node000011" class="node">
<title>Node11</title>
<g id="a_Node000011"><a xlink:href="structlua__longjmp.html" target="_top" xlink:title=" ">
<polygon fill="white" stroke="#666666" points="519.89,-484.5 452.14,-484.5 452.14,-465.25 519.89,-465.25 519.89,-484.5"/>
<text xml:space="preserve" text-anchor="middle" x="486.02" y="-471" font-family="Helvetica,sans-Serif" font-size="10.00">lua_longjmp</text>
</a>
</g>
</g>
<!-- Node11&#45;&gt;Node6 -->
<g id="edge20_Node000006_Node000011" class="edge">
<title>Node11&#45;&gt;Node6</title>
<g id="a_edge20_Node000006_Node000011"><a xlink:title=" ">
<path fill="none" stroke="#9a32cd" stroke-dasharray="5,2" d="M477.09,-454.63C464.61,-427.73 442.46,-379.98 433.23,-360.09"/>
<polygon fill="#9a32cd" stroke="#9a32cd" points="473.9,-456.07 481.28,-463.67 480.25,-453.12 473.9,-456.07"/>
</a>
</g>
<text xml:space="preserve" text-anchor="start" x="475.24" y="-411.88" font-family="Helvetica,sans-Serif" font-size="10.00" fill="grey">errorJmp</text>
</g>
<!-- Node11&#45;&gt;Node11 -->
<g id="edge21_Node000011_Node000011" class="edge">
<title>Node11&#45;&gt;Node11</title>
<g id="a_edge21_Node000011_Node000011"><a xlink:title=" ">
<path fill="none" stroke="#9a32cd" stroke-dasharray="5,2" d="M519.65,-485.95C529.88,-485.68 537.89,-481.99 537.89,-474.88 537.89,-465.29 523.35,-461.92 508.41,-464.77"/>
<polygon fill="#9a32cd" stroke="#9a32cd" points="520.18,-482.48 509.92,-485.11 519.59,-489.45 520.18,-482.48"/>
</a>
</g>
<text xml:space="preserve" text-anchor="start" x="540.89" y="-471" font-family="Helvetica,sans-Serif" font-size="10.00" fill="grey">previous</text>
</g>
<!-- Node12&#45;&gt;Node1 -->
<g id="edge23_Node000001_Node000012" class="edge">
<title>Node12&#45;&gt;Node1</title>
<g id="a_edge23_Node000001_Node000012"><a xlink:title=" ">
<path fill="none" stroke="#9a32cd" stroke-dasharray="5,2" d="M382.85,-9.72C323.92,-9.81 202.02,-19.3 202.02,-96.38 202.02,-351 202.02,-351 202.02,-351 202.02,-394.29 206.02,-405.38 217.02,-447.25 218.62,-453.36 221.12,-460.02 223.22,-465.15"/>
<polygon fill="#9a32cd" stroke="#9a32cd" points="382.53,-13.22 392.56,-9.81 382.59,-6.22 382.53,-13.22"/>
</a>
</g>
<text xml:space="preserve" text-anchor="start" x="205.02" y="-202.25" font-family="Helvetica,sans-Serif" font-size="10.00" fill="grey">mt</text>
</g>
<!-- Node12&#45;&gt;Node12 -->
<g id="edge31_Node000012_Node000012" class="edge">
<title>Node12&#45;&gt;Node12</title>
<g id="a_edge31_Node000012_Node000012"><a xlink:title=" ">
<path fill="none" stroke="#9a32cd" stroke-dasharray="5,2" d="M444.98,-16.85C448.99,-15.6 451.64,-13.19 451.64,-9.62 451.64,-3.28 443.26,-0.61 433.76,-1.6"/>
<polygon fill="#9a32cd" stroke="#9a32cd" points="445,-13.34 435.27,-17.54 445.5,-20.32 445,-13.34"/>
</a>
</g>
<text xml:space="preserve" text-anchor="start" x="454.64" y="-5.75" font-family="Helvetica,sans-Serif" font-size="10.00" fill="grey">metatable</text>
</g>
<!-- Node13&#45;&gt;Node12 -->
<g id="edge25_Node000012_Node000013" class="edge">
<title>Node13&#45;&gt;Node12</title>
<g id="a_edge25_Node000012_Node000013"><a xlink:title=" ">
<path fill="none" stroke="#9a32cd" stroke-dasharray="5,2" d="M706.94,-78.21C696.72,-64.46 680.77,-46.43 662.02,-37.25 621.96,-17.64 485.78,-12.35 434.12,-11.03"/>
<polygon fill="#9a32cd" stroke="#9a32cd" points="703.83,-79.87 712.45,-86.03 709.56,-75.84 703.83,-79.87"/>
</a>
</g>
<text xml:space="preserve" text-anchor="start" x="703.3" y="-57.25" font-family="Helvetica,sans-Serif" font-size="10.00" fill="grey">lastfree</text>
<text xml:space="preserve" text-anchor="start" x="703.3" y="-42" font-family="Helvetica,sans-Serif" font-size="10.00" fill="grey">node</text>
</g>
<!-- Node14 -->
<g id="Node000014" class="node">
<title>Node14</title>
<g id="a_Node000014"><a xlink:href="struct_node_1_1_node_key.html" target="_top" xlink:title=" ">
<polygon fill="white" stroke="#666666" points="761.89,-179.5 676.14,-179.5 676.14,-160.25 761.89,-160.25 761.89,-179.5"/>
<text xml:space="preserve" text-anchor="middle" x="719.02" y="-166" font-family="Helvetica,sans-Serif" font-size="10.00">Node::NodeKey</text>
</a>
</g>
</g>
<!-- Node14&#45;&gt;Node13 -->
<g id="edge26_Node000013_Node000014" class="edge">
<title>Node14&#45;&gt;Node13</title>
<g id="a_edge26_Node000013_Node000014"><a xlink:title=" ">
<path fill="none" stroke="#9a32cd" stroke-dasharray="5,2" d="M719.02,-148.8C719.02,-135.19 719.02,-117.85 719.02,-107.45"/>
<polygon fill="#9a32cd" stroke="#9a32cd" points="715.52,-148.43 719.02,-158.43 722.52,-148.43 715.52,-148.43"/>
</a>
</g>
<text xml:space="preserve" text-anchor="start" x="722.02" y="-129.75" font-family="Helvetica,sans-Serif" font-size="10.00" fill="grey">u</text>
</g>
<!-- Node15&#45;&gt;Node14 -->
<g id="edge27_Node000014_Node000015" class="edge">
<title>Node15&#45;&gt;Node14</title>
<g id="a_edge27_Node000014_Node000015"><a xlink:title=" ">
<path fill="none" stroke="#9a32cd" stroke-dasharray="5,2" d="M719.02,-228.02C719.02,-212.35 719.02,-191.3 719.02,-179.62"/>
<polygon fill="#9a32cd" stroke="#9a32cd" points="715.52,-227.64 719.02,-237.64 722.52,-227.64 715.52,-227.64"/>
</a>
</g>
<text xml:space="preserve" text-anchor="start" x="722.02" y="-202.25" font-family="Helvetica,sans-Serif" font-size="10.00" fill="grey">key_val</text>
</g>
</g>
</svg>
