<?xml version="1.0" encoding="UTF-8" standalone="no"?>
<!DOCTYPE svg PUBLIC "-//W3C//DTD SVG 1.1//EN"
 "http://www.w3.org/Graphics/SVG/1.1/DTD/svg11.dtd">
<!-- Generated by graphviz version 13.1.0 (20250701.0955)
 -->
<!-- Title: Udata0 Pages: 1 -->
<svg width="708pt" height="731pt"
 viewBox="0.00 0.00 708.00 731.00" xmlns="http://www.w3.org/2000/svg" xmlns:xlink="http://www.w3.org/1999/xlink">
<g id="graph0" class="graph" transform="scale(1 1) rotate(0) translate(4 726.75)">
<title>Udata0</title>
<!-- Node1 -->
<g id="Node000001" class="node">
<title>Node1</title>
<g id="a_Node000001"><a xlink:title=" ">
<polygon fill="#999999" stroke="#666666" points="158.75,-396.75 111.25,-396.75 111.25,-377.5 158.75,-377.5 158.75,-396.75"/>
<text xml:space="preserve" text-anchor="middle" x="135" y="-383.25" font-family="Helvetica,sans-Serif" font-size="10.00">Udata0</text>
</a>
</g>
</g>
<!-- Node2 -->
<g id="Node000002" class="node">
<title>Node2</title>
<g id="a_Node000002"><a xlink:href="struct_table.html" target="_top" xlink:title=" ">
<polygon fill="white" stroke="#666666" points="106.62,-559.75 67.38,-559.75 67.38,-540.5 106.62,-540.5 106.62,-559.75"/>
<text xml:space="preserve" text-anchor="middle" x="87" y="-546.25" font-family="Helvetica,sans-Serif" font-size="10.00">Table</text>
</a>
</g>
</g>
<!-- Node2&#45;&gt;Node1 -->
<g id="edge1_Node000001_Node000002" class="edge">
<title>Node2&#45;&gt;Node1</title>
<g id="a_edge1_Node000001_Node000002"><a xlink:title=" ">
<path fill="none" stroke="#9a32cd" stroke-dasharray="5,2" d="M89.2,-528.98C92.66,-502.06 100.74,-453.29 117.25,-414.75 119.96,-408.42 124.21,-401.97 127.87,-397.01"/>
<polygon fill="#9a32cd" stroke="#9a32cd" points="85.74,-528.45 88.04,-538.79 92.69,-529.27 85.74,-528.45"/>
</a>
</g>
<text xml:space="preserve" text-anchor="start" x="120.25" y="-427.12" font-family="Helvetica,sans-Serif" font-size="10.00" fill="grey">metatable</text>
</g>
<!-- Node2&#45;&gt;Node2 -->
<g id="edge32_Node000002_Node000002" class="edge">
<title>Node2&#45;&gt;Node2</title>
<g id="a_edge32_Node000002_Node000002"><a xlink:title=" ">
<path fill="none" stroke="#9a32cd" stroke-dasharray="5,2" d="M99.93,-568.35C111.82,-577.48 124.62,-571.41 124.62,-550.12 124.62,-524.18 105.59,-520.84 92.39,-540.09"/>
<polygon fill="#9a32cd" stroke="#9a32cd" points="102.77,-566.26 93.42,-561.27 97.61,-571 102.77,-566.26"/>
</a>
</g>
<text xml:space="preserve" text-anchor="start" x="127.62" y="-546.25" font-family="Helvetica,sans-Serif" font-size="10.00" fill="grey">metatable</text>
</g>
<!-- Node11 -->
<g id="Node000011" class="node">
<title>Node11</title>
<g id="a_Node000011"><a xlink:href="structglobal___state.html" target="_top" xlink:title=" ">
<polygon fill="white" stroke="#666666" points="322,-396.75 252,-396.75 252,-377.5 322,-377.5 322,-396.75"/>
<text xml:space="preserve" text-anchor="middle" x="287" y="-383.25" font-family="Helvetica,sans-Serif" font-size="10.00">global_State</text>
</a>
</g>
</g>
<!-- Node2&#45;&gt;Node11 -->
<g id="edge19_Node000011_Node000002" class="edge">
<title>Node2&#45;&gt;Node11</title>
<g id="a_edge19_Node000011_Node000002"><a xlink:title=" ">
<path fill="none" stroke="#9a32cd" stroke-dasharray="5,2" d="M101.26,-531.28C117.3,-511.1 143.96,-477.15 166,-447.25 176.46,-433.06 174.32,-424.88 188.75,-414.75 207.26,-401.75 231.82,-395.09 251.76,-391.69"/>
<polygon fill="#9a32cd" stroke="#9a32cd" points="98.56,-529.06 95.07,-539.06 104.04,-533.42 98.56,-529.06"/>
</a>
</g>
<text xml:space="preserve" text-anchor="start" x="191.75" y="-427.12" font-family="Helvetica,sans-Serif" font-size="10.00" fill="grey">mt</text>
</g>
<!-- Node3 -->
<g id="Node000003" class="node">
<title>Node3</title>
<g id="a_Node000003"><a xlink:href="struct_t_value.html" target="_top" xlink:title=" ">
<polygon fill="white" stroke="#666666" points="592,-722.75 546,-722.75 546,-703.5 592,-703.5 592,-722.75"/>
<text xml:space="preserve" text-anchor="middle" x="569" y="-709.25" font-family="Helvetica,sans-Serif" font-size="10.00">TValue</text>
</a>
</g>
</g>
<!-- Node3&#45;&gt;Node2 -->
<g id="edge2_Node000002_Node000003" class="edge">
<title>Node3&#45;&gt;Node2</title>
<g id="a_edge2_Node000002_Node000003"><a xlink:title=" ">
<path fill="none" stroke="#9a32cd" stroke-dasharray="5,2" d="M534.55,-710.38C489.12,-707.58 406.91,-700.75 338.25,-685.5 269.07,-670.13 248.85,-669.6 187,-635 149.03,-613.76 111.77,-577.2 95.51,-560.25"/>
<polygon fill="#9a32cd" stroke="#9a32cd" points="534.11,-713.86 544.3,-710.95 534.52,-706.88 534.11,-713.86"/>
</a>
</g>
<text xml:space="preserve" text-anchor="start" x="341.25" y="-665.38" font-family="Helvetica,sans-Serif" font-size="10.00" fill="grey">array</text>
</g>
<!-- Node4 -->
<g id="Node000004" class="node">
<title>Node4</title>
<g id="a_Node000004"><a xlink:href="union_node.html" target="_top" xlink:title=" ">
<polygon fill="white" stroke="#666666" points="135.62,-19.25 96.38,-19.25 96.38,0 135.62,0 135.62,-19.25"/>
<text xml:space="preserve" text-anchor="middle" x="116" y="-5.75" font-family="Helvetica,sans-Serif" font-size="10.00">Node</text>
</a>
</g>
</g>
<!-- Node3&#45;&gt;Node4 -->
<g id="edge31_Node000004_Node000003" class="edge">
<title>Node3&#45;&gt;Node4</title>
<g id="a_edge31_Node000004_Node000003"><a xlink:title=" ">
<path fill="none" stroke="#9a32cd" stroke-dasharray="5,2" d="M603.43,-706.29C616.53,-702.43 630.56,-696.05 640,-685.5 681.08,-639.59 674,-612.73 674,-551.12 674,-551.12 674,-551.12 674,-81.12 674,-25.71 235.26,-13.14 135.86,-11"/>
<polygon fill="#9a32cd" stroke="#9a32cd" points="602.61,-702.88 593.76,-708.7 604.31,-709.68 602.61,-702.88"/>
</a>
</g>
<text xml:space="preserve" text-anchor="start" x="677" y="-258.38" font-family="Helvetica,sans-Serif" font-size="10.00" fill="grey">i_val</text>
</g>
<!-- Node10 -->
<g id="Node000010" class="node">
<title>Node10</title>
<g id="a_Node000010"><a xlink:href="union_stack_value.html" target="_top" xlink:title=" ">
<polygon fill="white" stroke="#666666" points="601.75,-559.75 536.25,-559.75 536.25,-540.5 601.75,-540.5 601.75,-559.75"/>
<text xml:space="preserve" text-anchor="middle" x="569" y="-546.25" font-family="Helvetica,sans-Serif" font-size="10.00">StackValue</text>
</a>
</g>
</g>
<!-- Node3&#45;&gt;Node10 -->
<g id="edge10_Node000010_Node000003" class="edge">
<title>Node3&#45;&gt;Node10</title>
<g id="a_edge10_Node000010_Node000003"><a xlink:title=" ">
<path fill="none" stroke="#9a32cd" stroke-dasharray="5,2" d="M569,-691.78C569,-656.48 569,-585.26 569,-560.14"/>
<polygon fill="#9a32cd" stroke="#9a32cd" points="565.5,-691.49 569,-701.49 572.5,-691.49 565.5,-691.49"/>
</a>
</g>
<text xml:space="preserve" text-anchor="start" x="572" y="-665.38" font-family="Helvetica,sans-Serif" font-size="10.00" fill="grey">val</text>
</g>
<!-- Node3&#45;&gt;Node11 -->
<g id="edge15_Node000011_Node000003" class="edge">
<title>Node3&#45;&gt;Node11</title>
<g id="a_edge15_Node000011_Node000003"><a xlink:title=" ">
<path fill="none" stroke="#9a32cd" stroke-dasharray="5,2" d="M544.12,-696.83C524.01,-683.13 496.6,-661.2 481.25,-635 442.25,-568.44 488.2,-529.17 445,-465.25 416.89,-423.65 359.66,-403.66 322.35,-394.7"/>
<polygon fill="#9a32cd" stroke="#9a32cd" points="542.05,-699.65 552.33,-702.21 545.89,-693.8 542.05,-699.65"/>
</a>
</g>
<text xml:space="preserve" text-anchor="start" x="484.25" y="-553.88" font-family="Helvetica,sans-Serif" font-size="10.00" fill="grey">l_registry</text>
<text xml:space="preserve" text-anchor="start" x="484.25" y="-538.62" font-family="Helvetica,sans-Serif" font-size="10.00" fill="grey">nilvalue</text>
</g>
<!-- Node15 -->
<g id="Node000015" class="node">
<title>Node15</title>
<g id="a_Node000015"><a xlink:href="struct_up_val.html" target="_top" xlink:title=" ">
<polygon fill="white" stroke="#666666" points="598.12,-440.62 555.88,-440.62 555.88,-421.38 598.12,-421.38 598.12,-440.62"/>
<text xml:space="preserve" text-anchor="middle" x="577" y="-427.12" font-family="Helvetica,sans-Serif" font-size="10.00">UpVal</text>
</a>
</g>
</g>
<!-- Node3&#45;&gt;Node15 -->
<g id="edge25_Node000015_Node000003" class="edge">
<title>Node3&#45;&gt;Node15</title>
<g id="a_edge25_Node000015_Node000003"><a xlink:title=" ">
<path fill="none" stroke="#9a32cd" stroke-dasharray="5,2" d="M585.5,-694.75C587.87,-691.79 590.13,-688.65 592,-685.5 604.25,-664.88 606.71,-658.59 611,-635 624.5,-560.77 640.26,-534.79 611,-465.25 606.84,-455.36 598.13,-446.94 590.58,-441.05"/>
<polygon fill="#9a32cd" stroke="#9a32cd" points="582.9,-692.41 578.95,-702.24 588.17,-697.02 582.9,-692.41"/>
</a>
</g>
<text xml:space="preserve" text-anchor="start" x="610.14" y="-673" font-family="Helvetica,sans-Serif" font-size="10.00" fill="grey">p</text>
<text xml:space="preserve" text-anchor="start" x="610.14" y="-657.75" font-family="Helvetica,sans-Serif" font-size="10.00" fill="grey">value</text>
</g>
<!-- Node4&#45;&gt;Node2 -->
<g id="edge3_Node000002_Node000004" class="edge">
<title>Node4&#45;&gt;Node2</title>
<g id="a_edge3_Node000002_Node000004"><a xlink:title=" ">
<path fill="none" stroke="#9a32cd" stroke-dasharray="5,2" d="M85.6,-23.5C63.7,-35.04 38,-54.3 38,-81.12 38,-263.25 38,-263.25 38,-263.25 38,-331.98 57.54,-346.98 69,-414.75 76.97,-461.86 83.62,-518.75 86.03,-540.29"/>
<polygon fill="#9a32cd" stroke="#9a32cd" points="87.11,-26.66 94.55,-19.12 84.03,-20.37 87.11,-26.66"/>
</a>
</g>
<text xml:space="preserve" text-anchor="start" x="41" y="-215.5" font-family="Helvetica,sans-Serif" font-size="10.00" fill="grey">lastfree</text>
<text xml:space="preserve" text-anchor="start" x="41" y="-200.25" font-family="Helvetica,sans-Serif" font-size="10.00" fill="grey">node</text>
</g>
<!-- Node5 -->
<g id="Node000005" class="node">
<title>Node5</title>
<g id="a_Node000005"><a xlink:href="struct_node_1_1_node_key.html" target="_top" xlink:title=" ">
<polygon fill="white" stroke="#666666" points="158.88,-91.75 73.12,-91.75 73.12,-72.5 158.88,-72.5 158.88,-91.75"/>
<text xml:space="preserve" text-anchor="middle" x="116" y="-78.25" font-family="Helvetica,sans-Serif" font-size="10.00">Node::NodeKey</text>
</a>
</g>
</g>
<!-- Node5&#45;&gt;Node4 -->
<g id="edge4_Node000004_Node000005" class="edge">
<title>Node5&#45;&gt;Node4</title>
<g id="a_edge4_Node000004_Node000005"><a xlink:title=" ">
<path fill="none" stroke="#9a32cd" stroke-dasharray="5,2" d="M116,-61.05C116,-47.44 116,-30.1 116,-19.7"/>
<polygon fill="#9a32cd" stroke="#9a32cd" points="112.5,-60.68 116,-70.68 119.5,-60.68 112.5,-60.68"/>
</a>
</g>
<text xml:space="preserve" text-anchor="start" x="119" y="-42" font-family="Helvetica,sans-Serif" font-size="10.00" fill="grey">u</text>
</g>
<!-- Node6 -->
<g id="Node000006" class="node">
<title>Node6</title>
<g id="a_Node000006"><a xlink:href="union_value.html" target="_top" xlink:title=" ">
<polygon fill="white" stroke="#666666" points="136,-170.88 96,-170.88 96,-151.62 136,-151.62 136,-170.88"/>
<text xml:space="preserve" text-anchor="middle" x="116" y="-157.38" font-family="Helvetica,sans-Serif" font-size="10.00">Value</text>
</a>
</g>
</g>
<!-- Node6&#45;&gt;Node5 -->
<g id="edge5_Node000005_Node000006" class="edge">
<title>Node6&#45;&gt;Node5</title>
<g id="a_edge5_Node000005_Node000006"><a xlink:title=" ">
<path fill="none" stroke="#9a32cd" stroke-dasharray="5,2" d="M116,-140.27C116,-124.6 116,-103.55 116,-91.87"/>
<polygon fill="#9a32cd" stroke="#9a32cd" points="112.5,-139.89 116,-149.89 119.5,-139.89 112.5,-139.89"/>
</a>
</g>
<text xml:space="preserve" text-anchor="start" x="119" y="-114.5" font-family="Helvetica,sans-Serif" font-size="10.00" fill="grey">key_val</text>
</g>
<!-- Node7 -->
<g id="Node000007" class="node">
<title>Node7</title>
<g id="a_Node000007"><a xlink:href="struct_g_c_object.html" target="_top" xlink:title=" ">
<polygon fill="white" stroke="#666666" points="92.75,-722.75 33.25,-722.75 33.25,-703.5 92.75,-703.5 92.75,-722.75"/>
<text xml:space="preserve" text-anchor="middle" x="63" y="-709.25" font-family="Helvetica,sans-Serif" font-size="10.00">GCObject</text>
</a>
</g>
</g>
<!-- Node7&#45;&gt;Node2 -->
<g id="edge33_Node000002_Node000007" class="edge">
<title>Node7&#45;&gt;Node2</title>
<g id="a_edge33_Node000002_Node000007"><a xlink:title=" ">
<path fill="none" stroke="#9a32cd" stroke-dasharray="5,2" d="M66.03,-691.78C71.29,-656.48 81.91,-585.26 85.66,-560.14"/>
<polygon fill="#9a32cd" stroke="#9a32cd" points="62.59,-691.1 64.58,-701.51 69.52,-692.14 62.59,-691.1"/>
</a>
</g>
<text xml:space="preserve" text-anchor="start" x="74.45" y="-665.38" font-family="Helvetica,sans-Serif" font-size="10.00" fill="grey">gclist</text>
</g>
<!-- Node7&#45;&gt;Node6 -->
<g id="edge6_Node000006_Node000007" class="edge">
<title>Node7&#45;&gt;Node6</title>
<g id="a_edge6_Node000006_Node000007"><a xlink:title=" ">
<path fill="none" stroke="#9a32cd" stroke-dasharray="5,2" d="M50.45,-693.56C32.08,-664.51 0,-605.95 0,-551.12 0,-551.12 0,-551.12 0,-327 0,-271.26 45.61,-274.06 77,-228 90.45,-208.26 104.27,-183.77 111.29,-170.97"/>
<polygon fill="#9a32cd" stroke="#9a32cd" points="47.51,-695.45 55.9,-701.91 53.37,-691.62 47.51,-695.45"/>
</a>
</g>
<text xml:space="preserve" text-anchor="start" x="3" y="-383.25" font-family="Helvetica,sans-Serif" font-size="10.00" fill="grey">gc</text>
</g>
<!-- Node8 -->
<g id="Node000008" class="node">
<title>Node8</title>
<g id="a_Node000008"><a xlink:href="structlua___state.html" target="_top" xlink:title=" ">
<polygon fill="white" stroke="#666666" points="397.62,-271.88 340.38,-271.88 340.38,-252.62 397.62,-252.62 397.62,-271.88"/>
<text xml:space="preserve" text-anchor="middle" x="369" y="-258.38" font-family="Helvetica,sans-Serif" font-size="10.00">lua_State</text>
</a>
</g>
</g>
<!-- Node7&#45;&gt;Node8 -->
<g id="edge27_Node000008_Node000007" class="edge">
<title>Node7&#45;&gt;Node8</title>
<g id="a_edge27_Node000008_Node000007"><a xlink:title=" ">
<path fill="none" stroke="#9a32cd" stroke-dasharray="5,2" d="M58.12,-692.06C47.03,-641.95 24.51,-508.57 72.75,-414.75 125.58,-312 276.68,-277.33 340.26,-267.08"/>
<polygon fill="#9a32cd" stroke="#9a32cd" points="54.68,-692.75 60.35,-701.7 61.5,-691.17 54.68,-692.75"/>
</a>
</g>
<text xml:space="preserve" text-anchor="start" x="75.75" y="-427.12" font-family="Helvetica,sans-Serif" font-size="10.00" fill="grey">gclist</text>
</g>
<!-- Node7&#45;&gt;Node11 -->
<g id="edge16_Node000011_Node000007" class="edge">
<title>Node7&#45;&gt;Node11</title>
<g id="a_edge16_Node000011_Node000007"><a xlink:title=" ">
<path fill="none" stroke="#9a32cd" stroke-dasharray="5,2" d="M97.52,-698.67C124.72,-686.25 161.39,-665.14 182,-635 225.52,-571.33 183.11,-534.03 218,-465.25 232.55,-436.57 260.49,-410.29 275.98,-397.08"/>
<polygon fill="#9a32cd" stroke="#9a32cd" points="96.39,-695.34 88.63,-702.55 99.19,-701.75 96.39,-695.34"/>
</a>
</g>
<text xml:space="preserve" text-anchor="start" x="221" y="-622.5" font-family="Helvetica,sans-Serif" font-size="10.00" fill="grey">allgc</text>
<text xml:space="preserve" text-anchor="start" x="221" y="-607.25" font-family="Helvetica,sans-Serif" font-size="10.00" fill="grey">allweak</text>
<text xml:space="preserve" text-anchor="start" x="221" y="-592" font-family="Helvetica,sans-Serif" font-size="10.00" fill="grey">ephemeron</text>
<text xml:space="preserve" text-anchor="start" x="221" y="-576.75" font-family="Helvetica,sans-Serif" font-size="10.00" fill="grey">finobj</text>
<text xml:space="preserve" text-anchor="start" x="221" y="-561.5" font-family="Helvetica,sans-Serif" font-size="10.00" fill="grey">finobjold1</text>
<text xml:space="preserve" text-anchor="start" x="221" y="-546.25" font-family="Helvetica,sans-Serif" font-size="10.00" fill="grey">finobjrold</text>
<text xml:space="preserve" text-anchor="start" x="221" y="-531" font-family="Helvetica,sans-Serif" font-size="10.00" fill="grey">finobjsur</text>
<text xml:space="preserve" text-anchor="start" x="221" y="-515.75" font-family="Helvetica,sans-Serif" font-size="10.00" fill="grey">firstold1</text>
<text xml:space="preserve" text-anchor="start" x="221" y="-500.5" font-family="Helvetica,sans-Serif" font-size="10.00" fill="grey">fixedgc</text>
<text xml:space="preserve" text-anchor="start" x="221" y="-485.25" font-family="Helvetica,sans-Serif" font-size="10.00" fill="grey">gray</text>
<text xml:space="preserve" text-anchor="start" x="221" y="-470" font-family="Helvetica,sans-Serif" font-size="10.00" fill="grey"> &#160;...</text>
</g>
<!-- Node8&#45;&gt;Node6 -->
<g id="edge7_Node000006_Node000008" class="edge">
<title>Node8&#45;&gt;Node6</title>
<g id="a_edge7_Node000006_Node000008"><a xlink:title=" ">
<path fill="none" stroke="#9a32cd" stroke-dasharray="5,2" d="M335.51,-248.15C282.19,-227.28 179.59,-187.13 136.18,-170.15"/>
<polygon fill="#9a32cd" stroke="#9a32cd" points="334.1,-251.35 344.69,-251.74 336.66,-244.83 334.1,-251.35"/>
</a>
</g>
<text xml:space="preserve" text-anchor="start" x="282.94" y="-207.88" font-family="Helvetica,sans-Serif" font-size="10.00" fill="grey">f</text>
</g>
<!-- Node8&#45;&gt;Node8 -->
<g id="edge28_Node000008_Node000008" class="edge">
<title>Node8&#45;&gt;Node8</title>
<g id="a_edge28_Node000008_Node000008"><a xlink:title=" ">
<path fill="none" stroke="#9a32cd" stroke-dasharray="5,2" d="M408.77,-270.1C412.95,-268.57 415.62,-265.96 415.62,-262.25 415.62,-255.84 407.61,-252.68 397.68,-252.78"/>
<polygon fill="#9a32cd" stroke="#9a32cd" points="408.57,-266.6 399.18,-271.5 409.58,-273.52 408.57,-266.6"/>
</a>
</g>
<text xml:space="preserve" text-anchor="start" x="418.62" y="-258.38" font-family="Helvetica,sans-Serif" font-size="10.00" fill="grey">twups</text>
</g>
<!-- Node8&#45;&gt;Node11 -->
<g id="edge17_Node000011_Node000008" class="edge">
<title>Node8&#45;&gt;Node11</title>
<g id="a_edge17_Node000011_Node000008"><a xlink:title=" ">
<path fill="none" stroke="#9a32cd" stroke-dasharray="5,2" d="M328.8,-265.36C306.74,-268.82 281.07,-277.12 267,-296.5 250.55,-319.16 258.14,-332.94 267,-359.5 269.2,-366.08 273.73,-372.34 277.92,-377.14"/>
<polygon fill="#9a32cd" stroke="#9a32cd" points="328.95,-268.87 338.43,-264.14 328.08,-261.92 328.95,-268.87"/>
</a>
</g>
<text xml:space="preserve" text-anchor="start" x="270" y="-339.38" font-family="Helvetica,sans-Serif" font-size="10.00" fill="grey">mainthread</text>
<text xml:space="preserve" text-anchor="start" x="270" y="-324.12" font-family="Helvetica,sans-Serif" font-size="10.00" fill="grey">panic</text>
<text xml:space="preserve" text-anchor="start" x="270" y="-308.88" font-family="Helvetica,sans-Serif" font-size="10.00" fill="grey">twups</text>
</g>
<!-- Node14 -->
<g id="Node000014" class="node">
<title>Node14</title>
<g id="a_Node000014"><a xlink:href="struct_call_info.html" target="_top" xlink:title=" ">
<polygon fill="white" stroke="#666666" points="427.88,-170.88 378.12,-170.88 378.12,-151.62 427.88,-151.62 427.88,-170.88"/>
<text xml:space="preserve" text-anchor="middle" x="403" y="-157.38" font-family="Helvetica,sans-Serif" font-size="10.00">CallInfo</text>
</a>
</g>
</g>
<!-- Node8&#45;&gt;Node14 -->
<g id="edge23_Node000014_Node000008" class="edge">
<title>Node8&#45;&gt;Node14</title>
<g id="a_edge23_Node000014_Node000008"><a xlink:title=" ">
<path fill="none" stroke="#9a32cd" stroke-dasharray="5,2" d="M364.46,-241.39C362.36,-227.89 361.52,-209.95 367.75,-195.5 372.08,-185.46 381.1,-177.04 388.94,-171.19"/>
<polygon fill="#9a32cd" stroke="#9a32cd" points="360.95,-241.66 366.29,-250.81 367.82,-240.33 360.95,-241.66"/>
</a>
</g>
<text xml:space="preserve" text-anchor="start" x="370.75" y="-207.88" font-family="Helvetica,sans-Serif" font-size="10.00" fill="grey">k</text>
</g>
<!-- Node9 -->
<g id="Node000009" class="node">
<title>Node9</title>
<g id="a_Node000009"><a xlink:href="union_stk_id_rel.html" target="_top" xlink:title=" ">
<polygon fill="white" stroke="#666666" points="541.12,-396.75 486.88,-396.75 486.88,-377.5 541.12,-377.5 541.12,-396.75"/>
<text xml:space="preserve" text-anchor="middle" x="514" y="-383.25" font-family="Helvetica,sans-Serif" font-size="10.00">StkIdRel</text>
</a>
</g>
</g>
<!-- Node9&#45;&gt;Node8 -->
<g id="edge8_Node000008_Node000009" class="edge">
<title>Node9&#45;&gt;Node8</title>
<g id="a_edge8_Node000008_Node000009"><a xlink:title=" ">
<path fill="none" stroke="#9a32cd" stroke-dasharray="5,2" d="M498.11,-368.89C480.29,-350.02 450.05,-319.41 421,-296.5 409.56,-287.47 395.6,-278.65 385.02,-272.37"/>
<polygon fill="#9a32cd" stroke="#9a32cd" points="495.39,-371.1 504.77,-376.01 500.5,-366.32 495.39,-371.1"/>
</a>
</g>
<text xml:space="preserve" text-anchor="start" x="491.52" y="-347" font-family="Helvetica,sans-Serif" font-size="10.00" fill="grey">stack</text>
<text xml:space="preserve" text-anchor="start" x="491.52" y="-331.75" font-family="Helvetica,sans-Serif" font-size="10.00" fill="grey">stack_last</text>
<text xml:space="preserve" text-anchor="start" x="491.52" y="-316.5" font-family="Helvetica,sans-Serif" font-size="10.00" fill="grey">tbclist</text>
<text xml:space="preserve" text-anchor="start" x="491.52" y="-301.25" font-family="Helvetica,sans-Serif" font-size="10.00" fill="grey">top</text>
</g>
<!-- Node9&#45;&gt;Node14 -->
<g id="edge21_Node000014_Node000009" class="edge">
<title>Node9&#45;&gt;Node14</title>
<g id="a_edge21_Node000014_Node000009"><a xlink:title=" ">
<path fill="none" stroke="#9a32cd" stroke-dasharray="5,2" d="M537.14,-369.55C539.92,-366.54 542.35,-363.17 544,-359.5 555.48,-333.96 555.03,-322.24 544,-296.5 518.03,-235.92 449.81,-189.74 418.78,-171.17"/>
<polygon fill="#9a32cd" stroke="#9a32cd" points="534.99,-366.78 529.89,-376.07 539.67,-371.99 534.99,-366.78"/>
</a>
</g>
<text xml:space="preserve" text-anchor="start" x="537.81" y="-266" font-family="Helvetica,sans-Serif" font-size="10.00" fill="grey">func</text>
<text xml:space="preserve" text-anchor="start" x="537.81" y="-250.75" font-family="Helvetica,sans-Serif" font-size="10.00" fill="grey">top</text>
</g>
<!-- Node10&#45;&gt;Node9 -->
<g id="edge9_Node000009_Node000010" class="edge">
<title>Node10&#45;&gt;Node9</title>
<g id="a_edge9_Node000009_Node000010"><a xlink:title=" ">
<path fill="none" stroke="#9a32cd" stroke-dasharray="5,2" d="M562.21,-529.24C550.21,-494.11 525.7,-422.37 517.08,-397.14"/>
<polygon fill="#9a32cd" stroke="#9a32cd" points="558.85,-530.24 565.4,-538.58 565.48,-527.98 558.85,-530.24"/>
</a>
</g>
<text xml:space="preserve" text-anchor="start" x="536.36" y="-427.12" font-family="Helvetica,sans-Serif" font-size="10.00" fill="grey">p</text>
</g>
<!-- Node11&#45;&gt;Node8 -->
<g id="edge11_Node000008_Node000011" class="edge">
<title>Node11&#45;&gt;Node8</title>
<g id="a_edge11_Node000008_Node000011"><a xlink:title=" ">
<path fill="none" stroke="#9a32cd" stroke-dasharray="5,2" d="M313.77,-370.79C317.96,-367.48 321.91,-363.7 325,-359.5 342.39,-335.82 331.79,-322.74 345,-296.5 349.42,-287.72 356.05,-278.75 361.22,-272.34"/>
<polygon fill="#9a32cd" stroke="#9a32cd" points="311.94,-367.79 305.72,-376.37 315.93,-373.55 311.94,-367.79"/>
</a>
</g>
<text xml:space="preserve" text-anchor="start" x="348" y="-324.12" font-family="Helvetica,sans-Serif" font-size="10.00" fill="grey">l_G</text>
</g>
<!-- Node12 -->
<g id="Node000012" class="node">
<title>Node12</title>
<g id="a_Node000012"><a xlink:href="structstringtable.html" target="_top" xlink:title=" ">
<polygon fill="white" stroke="#666666" points="435.5,-559.75 374.5,-559.75 374.5,-540.5 435.5,-540.5 435.5,-559.75"/>
<text xml:space="preserve" text-anchor="middle" x="405" y="-546.25" font-family="Helvetica,sans-Serif" font-size="10.00">stringtable</text>
</a>
</g>
</g>
<!-- Node12&#45;&gt;Node11 -->
<g id="edge12_Node000011_Node000012" class="edge">
<title>Node12&#45;&gt;Node11</title>
<g id="a_edge12_Node000011_Node000012"><a xlink:title=" ">
<path fill="none" stroke="#9a32cd" stroke-dasharray="5,2" d="M396.68,-529.7C388.72,-512.11 375.77,-485.88 361,-465.25 342.97,-440.08 334.48,-437.05 313,-414.75 307.26,-408.79 300.76,-402.14 295.7,-396.97"/>
<polygon fill="#9a32cd" stroke="#9a32cd" points="393.41,-530.96 400.65,-538.7 399.82,-528.14 393.41,-530.96"/>
</a>
</g>
<text xml:space="preserve" text-anchor="start" x="348.88" y="-427.12" font-family="Helvetica,sans-Serif" font-size="10.00" fill="grey">strt</text>
</g>
<!-- Node13 -->
<g id="Node000013" class="node">
<title>Node13</title>
<g id="a_Node000013"><a xlink:href="struct_t_string.html" target="_top" xlink:title=" ">
<polygon fill="white" stroke="#666666" points="369.75,-722.75 322.25,-722.75 322.25,-703.5 369.75,-703.5 369.75,-722.75"/>
<text xml:space="preserve" text-anchor="middle" x="346" y="-709.25" font-family="Helvetica,sans-Serif" font-size="10.00">TString</text>
</a>
</g>
</g>
<!-- Node13&#45;&gt;Node11 -->
<g id="edge18_Node000011_Node000013" class="edge">
<title>Node13&#45;&gt;Node11</title>
<g id="a_edge18_Node000011_Node000013"><a xlink:title=" ">
<path fill="none" stroke="#9a32cd" stroke-dasharray="5,2" d="M321.47,-696.24C318.13,-693.07 315.13,-689.47 313,-685.5 258.57,-584.14 278.99,-434.95 285.37,-397.1"/>
<polygon fill="#9a32cd" stroke="#9a32cd" points="318.97,-698.72 328.95,-702.27 323.36,-693.27 318.97,-698.72"/>
</a>
</g>
<text xml:space="preserve" text-anchor="start" x="294.62" y="-561.5" font-family="Helvetica,sans-Serif" font-size="10.00" fill="grey">memerrmsg</text>
<text xml:space="preserve" text-anchor="start" x="294.62" y="-546.25" font-family="Helvetica,sans-Serif" font-size="10.00" fill="grey">strcache</text>
<text xml:space="preserve" text-anchor="start" x="294.62" y="-531" font-family="Helvetica,sans-Serif" font-size="10.00" fill="grey">tmname</text>
</g>
<!-- Node13&#45;&gt;Node12 -->
<g id="edge13_Node000012_Node000013" class="edge">
<title>Node13&#45;&gt;Node12</title>
<g id="a_edge13_Node000012_Node000013"><a xlink:title=" ">
<path fill="none" stroke="#9a32cd" stroke-dasharray="5,2" d="M363.77,-694.7C366.11,-691.8 368.28,-688.68 370,-685.5 393.33,-642.21 401.7,-582.58 404.14,-560.15"/>
<polygon fill="#9a32cd" stroke="#9a32cd" points="361.27,-692.25 357.14,-702.01 366.45,-696.96 361.27,-692.25"/>
</a>
</g>
<text xml:space="preserve" text-anchor="start" x="386.62" y="-665.38" font-family="Helvetica,sans-Serif" font-size="10.00" fill="grey">hash</text>
</g>
<!-- Node13&#45;&gt;Node13 -->
<g id="edge14_Node000013_Node000013" class="edge">
<title>Node13&#45;&gt;Node13</title>
<g id="a_edge14_Node000013_Node000013"><a xlink:title=" ">
<path fill="none" stroke="#9a32cd" stroke-dasharray="5,2" d="M381.24,-720.08C385.19,-718.77 387.75,-716.45 387.75,-713.12 387.75,-707.21 379.66,-704.49 370.03,-704.95"/>
<polygon fill="#9a32cd" stroke="#9a32cd" points="381.09,-716.57 371.53,-721.14 381.85,-723.53 381.09,-716.57"/>
</a>
</g>
<text xml:space="preserve" text-anchor="start" x="390.75" y="-709.25" font-family="Helvetica,sans-Serif" font-size="10.00" fill="grey">hnext</text>
</g>
<!-- Node14&#45;&gt;Node8 -->
<g id="edge20_Node000008_Node000014" class="edge">
<title>Node14&#45;&gt;Node8</title>
<g id="a_edge20_Node000008_Node000014"><a xlink:title=" ">
<path fill="none" stroke="#9a32cd" stroke-dasharray="5,2" d="M396.6,-181.77C392.27,-194.87 386.39,-212.51 381,-228 378.14,-236.23 374.76,-245.56 372.32,-252.24"/>
<polygon fill="#9a32cd" stroke="#9a32cd" points="399.8,-183.24 399.6,-172.64 393.15,-181.05 399.8,-183.24"/>
</a>
</g>
<text xml:space="preserve" text-anchor="start" x="394.98" y="-215.5" font-family="Helvetica,sans-Serif" font-size="10.00" fill="grey">base_ci</text>
<text xml:space="preserve" text-anchor="start" x="394.98" y="-200.25" font-family="Helvetica,sans-Serif" font-size="10.00" fill="grey">ci</text>
</g>
<!-- Node14&#45;&gt;Node14 -->
<g id="edge22_Node000014_Node000014" class="edge">
<title>Node14&#45;&gt;Node14</title>
<g id="a_edge22_Node000014_Node000014"><a xlink:title=" ">
<path fill="none" stroke="#9a32cd" stroke-dasharray="5,2" d="M439.36,-167.99C443.32,-166.7 445.88,-164.45 445.88,-161.25 445.88,-155.56 437.81,-152.89 428.1,-153.24"/>
<polygon fill="#9a32cd" stroke="#9a32cd" points="439.15,-164.49 429.61,-169.09 439.94,-171.45 439.15,-164.49"/>
</a>
</g>
<text xml:space="preserve" text-anchor="start" x="448.88" y="-165" font-family="Helvetica,sans-Serif" font-size="10.00" fill="grey">next</text>
<text xml:space="preserve" text-anchor="start" x="448.88" y="-149.75" font-family="Helvetica,sans-Serif" font-size="10.00" fill="grey">previous</text>
</g>
<!-- Node15&#45;&gt;Node8 -->
<g id="edge24_Node000008_Node000015" class="edge">
<title>Node15&#45;&gt;Node8</title>
<g id="a_edge24_Node000008_Node000015"><a xlink:title=" ">
<path fill="none" stroke="#9a32cd" stroke-dasharray="5,2" d="M578.25,-409.66C578.86,-380.23 575.26,-326.1 544,-296.5 523.34,-276.94 441.97,-268.32 397.84,-265.02"/>
<polygon fill="#9a32cd" stroke="#9a32cd" points="574.76,-409.28 577.84,-419.42 581.76,-409.58 574.76,-409.28"/>
</a>
</g>
<text xml:space="preserve" text-anchor="start" x="581.17" y="-383.25" font-family="Helvetica,sans-Serif" font-size="10.00" fill="grey">openupval</text>
</g>
<!-- Node15&#45;&gt;Node15 -->
<g id="edge26_Node000015_Node000015" class="edge">
<title>Node15&#45;&gt;Node15</title>
<g id="a_edge26_Node000015_Node000015"><a xlink:title=" ">
<path fill="none" stroke="#9a32cd" stroke-dasharray="5,2" d="M609.53,-438.12C613.51,-436.84 616.12,-434.47 616.12,-431 616.12,-424.83 607.87,-422.13 598.33,-422.9"/>
<polygon fill="#9a32cd" stroke="#9a32cd" points="609.49,-434.61 599.84,-438.97 610.1,-441.58 609.49,-434.61"/>
</a>
</g>
<text xml:space="preserve" text-anchor="start" x="619.12" y="-434.75" font-family="Helvetica,sans-Serif" font-size="10.00" fill="grey">next</text>
<text xml:space="preserve" text-anchor="start" x="619.12" y="-419.5" font-family="Helvetica,sans-Serif" font-size="10.00" fill="grey">previous</text>
</g>
<!-- Node16 -->
<g id="Node000016" class="node">
<title>Node16</title>
<g id="a_Node000016"><a xlink:href="structlua__longjmp.html" target="_top" xlink:title=" ">
<polygon fill="white" stroke="#666666" points="407.88,-396.75 340.12,-396.75 340.12,-377.5 407.88,-377.5 407.88,-396.75"/>
<text xml:space="preserve" text-anchor="middle" x="374" y="-383.25" font-family="Helvetica,sans-Serif" font-size="10.00">lua_longjmp</text>
</a>
</g>
</g>
<!-- Node16&#45;&gt;Node8 -->
<g id="edge29_Node000008_Node000016" class="edge">
<title>Node16&#45;&gt;Node8</title>
<g id="a_edge29_Node000008_Node000016"><a xlink:title=" ">
<path fill="none" stroke="#9a32cd" stroke-dasharray="5,2" d="M373.19,-366.15C372.09,-339.13 370.17,-292.05 369.37,-272.34"/>
<polygon fill="#9a32cd" stroke="#9a32cd" points="369.68,-365.93 373.58,-375.78 376.67,-365.64 369.68,-365.93"/>
</a>
</g>
<text xml:space="preserve" text-anchor="start" x="375.79" y="-324.12" font-family="Helvetica,sans-Serif" font-size="10.00" fill="grey">errorJmp</text>
</g>
<!-- Node16&#45;&gt;Node16 -->
<g id="edge30_Node000016_Node000016" class="edge">
<title>Node16&#45;&gt;Node16</title>
<g id="a_edge30_Node000016_Node000016"><a xlink:title=" ">
<path fill="none" stroke="#9a32cd" stroke-dasharray="5,2" d="M419.08,-393.69C423.25,-392.34 425.88,-390.15 425.88,-387.12 425.88,-381.9 418.02,-379.16 407.93,-378.92"/>
<polygon fill="#9a32cd" stroke="#9a32cd" points="418.81,-390.2 409.42,-395.11 419.83,-397.12 418.81,-390.2"/>
</a>
</g>
<text xml:space="preserve" text-anchor="start" x="428.88" y="-383.25" font-family="Helvetica,sans-Serif" font-size="10.00" fill="grey">previous</text>
</g>
</g>
</svg>
