<?xml version="1.0" encoding="UTF-8" standalone="no"?>
<!DOCTYPE svg PUBLIC "-//W3C//DTD SVG 1.1//EN"
 "http://www.w3.org/Graphics/SVG/1.1/DTD/svg11.dtd">
<!-- Generated by graphviz version 13.1.0 (20250701.0955)
 -->
<!-- Title: CallInfo Pages: 1 -->
<!--zoomable 1025 -->

<svg id="main" version="1.1" xmlns="http://www.w3.org/2000/svg" xmlns:xlink="http://www.w3.org/1999/xlink" xml:space="preserve" onload="init(evt)">

<style type="text/css"><![CDATA[
.node, .edge {opacity: 0.7;}
.node.selected, .edge.selected {opacity: 1;}
.edge:hover path { stroke: red; }
.edge:hover polygon { stroke: red; fill: red; }
]]></style>

<defs>
  <circle id="rim" cx="0" cy="0" r="7"/>
  <circle id="rim2" cx="0" cy="0" r="3.5"/>
  <g id="zoomPlus">
    <use xlink:href="#rim" fill="#404040"><set attributeName="fill" to="#808080" begin="zoomplus.mouseover" end="zoomplus.mouseout"/></use>
    <path d="M-4,0h8M0,-4v8" fill="none" stroke="white" stroke-width="1.5" pointer-events="none"/>
  </g>
  <g id="zoomMin">
    <use xlink:href="#rim" fill="#404040"><set attributeName="fill" to="#808080" begin="zoomminus.mouseover" end="zoomminus.mouseout"/></use>
    <path d="M-4,0h8" fill="none" stroke="white" stroke-width="1.5" pointer-events="none"/>
  </g>
  <g id="arrowUp" transform="translate(30 24)">
    <use xlink:href="#rim"/>
    <path pointer-events="none" fill="none" stroke="white" stroke-width="1.5" d="M0,-3.0v7 M-2.5,-0.5L0,-3.0L2.5,-0.5"/>
  </g>
  <g id="arrowRight" transform="rotate(90) translate(36 -43)">
    <use xlink:href="#rim"/>
    <path pointer-events="none" fill="none" stroke="white" stroke-width="1.5" d="M0,-3.0v7 M-2.5,-0.5L0,-3.0L2.5,-0.5"/>
  </g>
  <g id="arrowDown" transform="rotate(180) translate(-30 -48)">
    <use xlink:href="#rim"/>
    <path pointer-events="none" fill="none" stroke="white" stroke-width="1.5" d="M0,-3.0v7 M-2.5,-0.5L0,-3.0L2.5,-0.5"/>
  </g>
  <g id="arrowLeft" transform="rotate(270) translate(-36 17)">
    <use xlink:href="#rim"/>
    <path pointer-events="none" fill="none" stroke="white" stroke-width="1.5" d="M0,-3.0v7 M-2.5,-0.5L0,-3.0L2.5,-0.5"/>
  </g>
  <g id="resetDef">
    <use xlink:href="#rim2" fill="#404040"><set attributeName="fill" to="#808080" begin="reset.mouseover" end="reset.mouseout"/></use>
  </g>
</defs>
<script type="application/ecmascript">
var viewWidth = 692;
var viewHeight = 1025;
var sectionId = 'dynsection-0';
</script>
<script type="application/ecmascript" xlink:href="svg.min.js"/>
<svg id="graph" class="graph">
<g id="viewport">
<title>CallInfo</title>
<!-- Node1 -->
<g id="Node000001" class="node">
<title>Node1</title>
<g id="a_Node000001"><a xlink:title=" ">
<polygon fill="#999999" stroke="#666666" points="77.88,-731.38 28.12,-731.38 28.12,-712.12 77.88,-712.12 77.88,-731.38"/>
<text xml:space="preserve" text-anchor="middle" x="53" y="-717.88" font-family="Helvetica,sans-Serif" font-size="10.00">CallInfo</text>
</a>
</g>
</g>
<!-- Node1&#45;&gt;Node1 -->
<g id="edge4_Node000001_Node000001" class="edge">
<title>Node1&#45;&gt;Node1</title>
<g id="a_edge4_Node000001_Node000001"><a xlink:title=" ">
<path fill="none" stroke="#9a32cd" stroke-dasharray="5,2" d="M78.6,-734.05C88.08,-734.44 95.88,-730.33 95.88,-721.75 95.88,-709.94 81.11,-706.61 67.5,-711.78"/>
<polygon fill="#9a32cd" stroke="#9a32cd" points="79.48,-730.66 68.98,-732.03 78.04,-737.51 79.48,-730.66"/>
</a>
</g>
<text xml:space="preserve" text-anchor="start" x="98.88" y="-725.5" font-family="Helvetica,sans-Serif" font-size="10.00" fill="grey">next</text>
<text xml:space="preserve" text-anchor="start" x="98.88" y="-710.25" font-family="Helvetica,sans-Serif" font-size="10.00" fill="grey">previous</text>
</g>
<!-- Node5 -->
<g id="Node000005" class="node">
<title>Node5</title>
<g id="a_Node000005"><a xlink:href="structlua___state.html" target="_top" xlink:title=" ">
<polygon fill="white" stroke="#666666" points="203.62,-621.75 146.38,-621.75 146.38,-602.5 203.62,-602.5 203.62,-621.75"/>
<text xml:space="preserve" text-anchor="middle" x="175" y="-608.25" font-family="Helvetica,sans-Serif" font-size="10.00">lua_State</text>
</a>
</g>
</g>
<!-- Node1&#45;&gt;Node5 -->
<g id="edge25_Node000005_Node000001" class="edge">
<title>Node1&#45;&gt;Node5</title>
<g id="a_edge25_Node000005_Node000001"><a xlink:title=" ">
<path fill="none" stroke="#9a32cd" stroke-dasharray="5,2" d="M50.56,-700.53C49.55,-682.32 51.23,-655.99 66.25,-639.75 76.94,-628.19 117.65,-620.6 146.1,-616.58"/>
<polygon fill="#9a32cd" stroke="#9a32cd" points="47.06,-700.71 51.45,-710.35 54.03,-700.08 47.06,-700.71"/>
</a>
</g>
<text xml:space="preserve" text-anchor="start" x="69.25" y="-659.75" font-family="Helvetica,sans-Serif" font-size="10.00" fill="grey">base_ci</text>
<text xml:space="preserve" text-anchor="start" x="69.25" y="-644.5" font-family="Helvetica,sans-Serif" font-size="10.00" fill="grey">ci</text>
</g>
<!-- Node2 -->
<g id="Node000002" class="node">
<title>Node2</title>
<g id="a_Node000002"><a xlink:href="union_stk_id_rel.html" target="_top" xlink:title=" ">
<polygon fill="white" stroke="#666666" points="202.12,-841 147.88,-841 147.88,-821.75 202.12,-821.75 202.12,-841"/>
<text xml:space="preserve" text-anchor="middle" x="175" y="-827.5" font-family="Helvetica,sans-Serif" font-size="10.00">StkIdRel</text>
</a>
</g>
</g>
<!-- Node2&#45;&gt;Node1 -->
<g id="edge1_Node000001_Node000002" class="edge">
<title>Node2&#45;&gt;Node1</title>
<g id="a_edge1_Node000001_Node000002"><a xlink:title=" ">
<path fill="none" stroke="#9a32cd" stroke-dasharray="5,2" d="M151.24,-814.99C146.18,-811.46 140.94,-807.6 136.25,-803.75 106.94,-779.71 75.78,-747.3 61.3,-731.77"/>
<polygon fill="#9a32cd" stroke="#9a32cd" points="149.09,-817.77 159.34,-820.47 153.02,-811.97 149.09,-817.77"/>
</a>
</g>
<text xml:space="preserve" text-anchor="start" x="139.25" y="-791.25" font-family="Helvetica,sans-Serif" font-size="10.00" fill="grey">func</text>
<text xml:space="preserve" text-anchor="start" x="139.25" y="-776" font-family="Helvetica,sans-Serif" font-size="10.00" fill="grey">top</text>
</g>
<!-- Node2&#45;&gt;Node5 -->
<g id="edge6_Node000005_Node000002" class="edge">
<title>Node2&#45;&gt;Node5</title>
<g id="a_edge6_Node000005_Node000002"><a xlink:title=" ">
<path fill="none" stroke="#9a32cd" stroke-dasharray="5,2" d="M175,-809.97C175,-764.14 175,-654.51 175,-622.22"/>
<polygon fill="#9a32cd" stroke="#9a32cd" points="171.5,-809.8 175,-819.8 178.5,-809.8 171.5,-809.8"/>
</a>
</g>
<text xml:space="preserve" text-anchor="start" x="178" y="-740.75" font-family="Helvetica,sans-Serif" font-size="10.00" fill="grey">stack</text>
<text xml:space="preserve" text-anchor="start" x="178" y="-725.5" font-family="Helvetica,sans-Serif" font-size="10.00" fill="grey">stack_last</text>
<text xml:space="preserve" text-anchor="start" x="178" y="-710.25" font-family="Helvetica,sans-Serif" font-size="10.00" fill="grey">tbclist</text>
<text xml:space="preserve" text-anchor="start" x="178" y="-695" font-family="Helvetica,sans-Serif" font-size="10.00" fill="grey">top</text>
</g>
<!-- Node3 -->
<g id="Node000003" class="node">
<title>Node3</title>
<g id="a_Node000003"><a xlink:href="union_stack_value.html" target="_top" xlink:title=" ">
<polygon fill="white" stroke="#666666" points="216.75,-928.75 151.25,-928.75 151.25,-909.5 216.75,-909.5 216.75,-928.75"/>
<text xml:space="preserve" text-anchor="middle" x="184" y="-915.25" font-family="Helvetica,sans-Serif" font-size="10.00">StackValue</text>
</a>
</g>
</g>
<!-- Node3&#45;&gt;Node2 -->
<g id="edge2_Node000002_Node000003" class="edge">
<title>Node3&#45;&gt;Node2</title>
<g id="a_edge2_Node000002_Node000003"><a xlink:title=" ">
<path fill="none" stroke="#9a32cd" stroke-dasharray="5,2" d="M181.89,-898.05C180.01,-880.11 177.34,-854.64 175.94,-841.31"/>
<polygon fill="#9a32cd" stroke="#9a32cd" points="178.39,-898.19 182.91,-907.77 185.35,-897.46 178.39,-898.19"/>
</a>
</g>
<text xml:space="preserve" text-anchor="start" x="184.09" y="-871.38" font-family="Helvetica,sans-Serif" font-size="10.00" fill="grey">p</text>
</g>
<!-- Node4 -->
<g id="Node000004" class="node">
<title>Node4</title>
<g id="a_Node000004"><a xlink:href="struct_t_value.html" target="_top" xlink:title=" ">
<polygon fill="white" stroke="#666666" points="277,-1016.5 231,-1016.5 231,-997.25 277,-997.25 277,-1016.5"/>
<text xml:space="preserve" text-anchor="middle" x="254" y="-1003" font-family="Helvetica,sans-Serif" font-size="10.00">TValue</text>
</a>
</g>
</g>
<!-- Node4&#45;&gt;Node3 -->
<g id="edge3_Node000003_Node000004" class="edge">
<title>Node4&#45;&gt;Node3</title>
<g id="a_edge3_Node000003_Node000004"><a xlink:title=" ">
<path fill="none" stroke="#9a32cd" stroke-dasharray="5,2" d="M226.2,-990.62C221.52,-987.27 216.98,-983.45 213.25,-979.25 199.72,-964 190.86,-941.37 186.72,-929"/>
<polygon fill="#9a32cd" stroke="#9a32cd" points="224.21,-993.5 234.52,-995.98 228.01,-987.62 224.21,-993.5"/>
</a>
</g>
<text xml:space="preserve" text-anchor="start" x="216.25" y="-959.12" font-family="Helvetica,sans-Serif" font-size="10.00" fill="grey">val</text>
</g>
<!-- Node6 -->
<g id="Node000006" class="node">
<title>Node6</title>
<g id="a_Node000006"><a xlink:href="structglobal___state.html" target="_top" xlink:title=" ">
<polygon fill="white" stroke="#666666" points="256,-19.25 186,-19.25 186,0 256,0 256,-19.25"/>
<text xml:space="preserve" text-anchor="middle" x="221" y="-5.75" font-family="Helvetica,sans-Serif" font-size="10.00">global_State</text>
</a>
</g>
</g>
<!-- Node4&#45;&gt;Node6 -->
<g id="edge11_Node000006_Node000004" class="edge">
<title>Node4&#45;&gt;Node6</title>
<g id="a_edge11_Node000006_Node000004"><a xlink:title=" ">
<path fill="none" stroke="#9a32cd" stroke-dasharray="5,2" d="M219.35,-1001.56C149.84,-991.94 0,-965.88 0,-920.12 0,-920.12 0,-920.12 0,-95.38 0,-56.03 123.67,-28.12 185.98,-16.56"/>
<polygon fill="#9a32cd" stroke="#9a32cd" points="218.68,-1005 229.06,-1002.87 219.61,-998.06 218.68,-1005"/>
</a>
</g>
<text xml:space="preserve" text-anchor="start" x="3" y="-572" font-family="Helvetica,sans-Serif" font-size="10.00" fill="grey">l_registry</text>
<text xml:space="preserve" text-anchor="start" x="3" y="-556.75" font-family="Helvetica,sans-Serif" font-size="10.00" fill="grey">nilvalue</text>
</g>
<!-- Node10 -->
<g id="Node000010" class="node">
<title>Node10</title>
<g id="a_Node000010"><a xlink:href="struct_table.html" target="_top" xlink:title=" ">
<polygon fill="white" stroke="#666666" points="565.62,-106 526.38,-106 526.38,-86.75 565.62,-86.75 565.62,-106"/>
<text xml:space="preserve" text-anchor="middle" x="546" y="-92.5" font-family="Helvetica,sans-Serif" font-size="10.00">Table</text>
</a>
</g>
</g>
<!-- Node4&#45;&gt;Node10 -->
<g id="edge16_Node000010_Node000004" class="edge">
<title>Node4&#45;&gt;Node10</title>
<g id="a_edge16_Node000010_Node000004"><a xlink:title=" ">
<path fill="none" stroke="#9a32cd" stroke-dasharray="5,2" d="M288.49,-1005.22C359.53,-1003.52 519.79,-997.7 571,-979.25 614.29,-963.65 656,-966.14 656,-920.12 656,-920.12 656,-920.12 656,-197.38 656,-149.24 597.62,-118.17 565.92,-104.84"/>
<polygon fill="#9a32cd" stroke="#9a32cd" points="288.53,-1001.72 278.61,-1005.45 288.69,-1008.72 288.53,-1001.72"/>
</a>
</g>
<text xml:space="preserve" text-anchor="start" x="659" y="-608.25" font-family="Helvetica,sans-Serif" font-size="10.00" fill="grey">array</text>
</g>
<!-- Node11 -->
<g id="Node000011" class="node">
<title>Node11</title>
<g id="a_Node000011"><a xlink:href="union_node.html" target="_top" xlink:title=" ">
<polygon fill="white" stroke="#666666" points="538.62,-208 499.38,-208 499.38,-188.75 538.62,-188.75 538.62,-208"/>
<text xml:space="preserve" text-anchor="middle" x="519" y="-194.5" font-family="Helvetica,sans-Serif" font-size="10.00">Node</text>
</a>
</g>
</g>
<!-- Node4&#45;&gt;Node11 -->
<g id="edge22_Node000011_Node000004" class="edge">
<title>Node4&#45;&gt;Node11</title>
<g id="a_edge22_Node000011_Node000004"><a xlink:title=" ">
<path fill="none" stroke="#9a32cd" stroke-dasharray="5,2" d="M288.77,-1004.86C378.34,-1001.31 610,-985.77 610,-920.12 610,-920.12 610,-920.12 610,-375.62 610,-304.34 550.5,-233.1 527.73,-208.44"/>
<polygon fill="#9a32cd" stroke="#9a32cd" points="288.74,-1001.36 278.87,-1005.22 288.99,-1008.35 288.74,-1001.36"/>
</a>
</g>
<text xml:space="preserve" text-anchor="start" x="613" y="-652.12" font-family="Helvetica,sans-Serif" font-size="10.00" fill="grey">i_val</text>
</g>
<!-- Node14 -->
<g id="Node000014" class="node">
<title>Node14</title>
<g id="a_Node000014"><a xlink:href="struct_up_val.html" target="_top" xlink:title=" ">
<polygon fill="white" stroke="#666666" points="275.12,-884.88 232.88,-884.88 232.88,-865.62 275.12,-865.62 275.12,-884.88"/>
<text xml:space="preserve" text-anchor="middle" x="254" y="-871.38" font-family="Helvetica,sans-Serif" font-size="10.00">UpVal</text>
</a>
</g>
</g>
<!-- Node4&#45;&gt;Node14 -->
<g id="edge27_Node000014_Node000004" class="edge">
<title>Node4&#45;&gt;Node14</title>
<g id="a_edge27_Node000014_Node000004"><a xlink:title=" ">
<path fill="none" stroke="#9a32cd" stroke-dasharray="5,2" d="M254,-985.57C254,-956.92 254,-905.82 254,-885.22"/>
<polygon fill="#9a32cd" stroke="#9a32cd" points="250.5,-985.45 254,-995.45 257.5,-985.45 250.5,-985.45"/>
</a>
</g>
<text xml:space="preserve" text-anchor="start" x="257" y="-966.75" font-family="Helvetica,sans-Serif" font-size="10.00" fill="grey">p</text>
<text xml:space="preserve" text-anchor="start" x="257" y="-951.5" font-family="Helvetica,sans-Serif" font-size="10.00" fill="grey">value</text>
</g>
<!-- Node5&#45;&gt;Node1 -->
<g id="edge5_Node000001_Node000005" class="edge">
<title>Node5&#45;&gt;Node1</title>
<g id="a_edge5_Node000001_Node000005"><a xlink:title=" ">
<path fill="none" stroke="#9a32cd" stroke-dasharray="5,2" d="M156.57,-629.38C130.42,-652.45 83.45,-693.89 62.98,-711.94"/>
<polygon fill="#9a32cd" stroke="#9a32cd" points="158.56,-632.3 163.74,-623.06 153.93,-627.05 158.56,-632.3"/>
</a>
</g>
<text xml:space="preserve" text-anchor="start" x="145.28" y="-652.12" font-family="Helvetica,sans-Serif" font-size="10.00" fill="grey">k</text>
</g>
<!-- Node5&#45;&gt;Node5 -->
<g id="edge30_Node000005_Node000005" class="edge">
<title>Node5&#45;&gt;Node5</title>
<g id="a_edge30_Node000005_Node000005"><a xlink:title=" ">
<path fill="none" stroke="#9a32cd" stroke-dasharray="5,2" d="M214.77,-618.95C218.95,-617.62 221.62,-615.35 221.62,-612.12 221.62,-606.55 213.61,-603.81 203.68,-603.9"/>
<polygon fill="#9a32cd" stroke="#9a32cd" points="214.67,-615.43 205.19,-620.16 215.55,-622.38 214.67,-615.43"/>
</a>
</g>
<text xml:space="preserve" text-anchor="start" x="224.62" y="-608.25" font-family="Helvetica,sans-Serif" font-size="10.00" fill="grey">twups</text>
</g>
<!-- Node5&#45;&gt;Node6 -->
<g id="edge13_Node000006_Node000005" class="edge">
<title>Node5&#45;&gt;Node6</title>
<g id="a_edge13_Node000006_Node000005"><a xlink:title=" ">
<path fill="none" stroke="#9a32cd" stroke-dasharray="5,2" d="M148.22,-595.91C125.99,-581.08 98,-556.26 98,-525.38 98,-525.38 98,-525.38 98,-95.38 98,-52.46 149.41,-29.61 185.75,-18.82"/>
<polygon fill="#9a32cd" stroke="#9a32cd" points="146.3,-598.84 156.63,-601.21 150.03,-592.92 146.3,-598.84"/>
</a>
</g>
<text xml:space="preserve" text-anchor="start" x="101" y="-261.25" font-family="Helvetica,sans-Serif" font-size="10.00" fill="grey">mainthread</text>
<text xml:space="preserve" text-anchor="start" x="101" y="-246" font-family="Helvetica,sans-Serif" font-size="10.00" fill="grey">panic</text>
<text xml:space="preserve" text-anchor="start" x="101" y="-230.75" font-family="Helvetica,sans-Serif" font-size="10.00" fill="grey">twups</text>
</g>
<!-- Node13 -->
<g id="Node000013" class="node">
<title>Node13</title>
<g id="a_Node000013"><a xlink:href="union_value.html" target="_top" xlink:title=" ">
<polygon fill="white" stroke="#666666" points="478,-534 438,-534 438,-514.75 478,-514.75 478,-534"/>
<text xml:space="preserve" text-anchor="middle" x="458" y="-520.5" font-family="Helvetica,sans-Serif" font-size="10.00">Value</text>
</a>
</g>
</g>
<!-- Node5&#45;&gt;Node13 -->
<g id="edge21_Node000013_Node000005" class="edge">
<title>Node5&#45;&gt;Node13</title>
<g id="a_edge21_Node000013_Node000005"><a xlink:title=" ">
<path fill="none" stroke="#9a32cd" stroke-dasharray="5,2" d="M214.72,-599.09C275.88,-580.56 390.91,-545.7 437.56,-531.57"/>
<polygon fill="#9a32cd" stroke="#9a32cd" points="213.96,-595.66 205.4,-601.91 215.99,-602.36 213.96,-595.66"/>
</a>
</g>
<text xml:space="preserve" text-anchor="start" x="369.46" y="-564.38" font-family="Helvetica,sans-Serif" font-size="10.00" fill="grey">f</text>
</g>
<!-- Node6&#45;&gt;Node5 -->
<g id="edge7_Node000005_Node000006" class="edge">
<title>Node6&#45;&gt;Node5</title>
<g id="a_edge7_Node000005_Node000006"><a xlink:title=" ">
<path fill="none" stroke="#9a32cd" stroke-dasharray="5,2" d="M204.86,-28.05C191.61,-44.22 175,-69.63 175,-95.38 175,-525.38 175,-525.38 175,-525.38 175,-553.36 175,-586.49 175,-602.11"/>
<polygon fill="#9a32cd" stroke="#9a32cd" points="207.24,-30.65 211.14,-20.8 201.95,-26.07 207.24,-30.65"/>
</a>
</g>
<text xml:space="preserve" text-anchor="start" x="178" y="-246" font-family="Helvetica,sans-Serif" font-size="10.00" fill="grey">l_G</text>
</g>
<!-- Node7 -->
<g id="Node000007" class="node">
<title>Node7</title>
<g id="a_Node000007"><a xlink:href="structstringtable.html" target="_top" xlink:title=" ">
<polygon fill="white" stroke="#666666" points="357.5,-106 296.5,-106 296.5,-86.75 357.5,-86.75 357.5,-106"/>
<text xml:space="preserve" text-anchor="middle" x="327" y="-92.5" font-family="Helvetica,sans-Serif" font-size="10.00">stringtable</text>
</a>
</g>
</g>
<!-- Node7&#45;&gt;Node6 -->
<g id="edge8_Node000006_Node000007" class="edge">
<title>Node7&#45;&gt;Node6</title>
<g id="a_edge8_Node000006_Node000007"><a xlink:title=" ">
<path fill="none" stroke="#9a32cd" stroke-dasharray="5,2" d="M306.75,-79.19C284.63,-61.5 249.98,-33.8 232.26,-19.63"/>
<polygon fill="#9a32cd" stroke="#9a32cd" points="304.48,-81.85 314.47,-85.36 308.85,-76.38 304.48,-81.85"/>
</a>
</g>
<text xml:space="preserve" text-anchor="start" x="277" y="-42" font-family="Helvetica,sans-Serif" font-size="10.00" fill="grey">strt</text>
</g>
<!-- Node8 -->
<g id="Node000008" class="node">
<title>Node8</title>
<g id="a_Node000008"><a xlink:href="struct_t_string.html" target="_top" xlink:title=" ">
<polygon fill="white" stroke="#666666" points="263.75,-208 216.25,-208 216.25,-188.75 263.75,-188.75 263.75,-208"/>
<text xml:space="preserve" text-anchor="middle" x="240" y="-194.5" font-family="Helvetica,sans-Serif" font-size="10.00">TString</text>
</a>
</g>
</g>
<!-- Node8&#45;&gt;Node6 -->
<g id="edge14_Node000006_Node000008" class="edge">
<title>Node8&#45;&gt;Node6</title>
<g id="a_edge14_Node000006_Node000008"><a xlink:title=" ">
<path fill="none" stroke="#9a32cd" stroke-dasharray="5,2" d="M237.19,-177.02C235.11,-161.49 232.28,-139.54 230.25,-120.25 226.33,-83.02 222.99,-38.54 221.64,-19.73"/>
<polygon fill="#9a32cd" stroke="#9a32cd" points="233.72,-177.43 238.53,-186.87 240.65,-176.48 233.72,-177.43"/>
</a>
</g>
<text xml:space="preserve" text-anchor="start" x="233.25" y="-107.75" font-family="Helvetica,sans-Serif" font-size="10.00" fill="grey">memerrmsg</text>
<text xml:space="preserve" text-anchor="start" x="233.25" y="-92.5" font-family="Helvetica,sans-Serif" font-size="10.00" fill="grey">strcache</text>
<text xml:space="preserve" text-anchor="start" x="233.25" y="-77.25" font-family="Helvetica,sans-Serif" font-size="10.00" fill="grey">tmname</text>
</g>
<!-- Node8&#45;&gt;Node7 -->
<g id="edge9_Node000007_Node000008" class="edge">
<title>Node8&#45;&gt;Node7</title>
<g id="a_edge9_Node000007_Node000008"><a xlink:title=" ">
<path fill="none" stroke="#9a32cd" stroke-dasharray="5,2" d="M255.09,-180.03C273.73,-158.6 304.74,-122.96 319.17,-106.37"/>
<polygon fill="#9a32cd" stroke="#9a32cd" points="252.64,-177.52 248.71,-187.36 257.92,-182.11 252.64,-177.52"/>
</a>
</g>
<text xml:space="preserve" text-anchor="start" x="294.29" y="-150.62" font-family="Helvetica,sans-Serif" font-size="10.00" fill="grey">hash</text>
</g>
<!-- Node8&#45;&gt;Node8 -->
<g id="edge10_Node000008_Node000008" class="edge">
<title>Node8&#45;&gt;Node8</title>
<g id="a_edge10_Node000008_Node000008"><a xlink:title=" ">
<path fill="none" stroke="#9a32cd" stroke-dasharray="5,2" d="M275.24,-205.33C279.19,-204.02 281.75,-201.7 281.75,-198.38 281.75,-192.46 273.66,-189.74 264.03,-190.2"/>
<polygon fill="#9a32cd" stroke="#9a32cd" points="275.09,-201.82 265.53,-206.39 275.85,-208.78 275.09,-201.82"/>
</a>
</g>
<text xml:space="preserve" text-anchor="start" x="284.75" y="-194.5" font-family="Helvetica,sans-Serif" font-size="10.00" fill="grey">hnext</text>
</g>
<!-- Node9 -->
<g id="Node000009" class="node">
<title>Node9</title>
<g id="a_Node000009"><a xlink:href="struct_g_c_object.html" target="_top" xlink:title=" ">
<polygon fill="white" stroke="#666666" points="487.75,-731.38 428.25,-731.38 428.25,-712.12 487.75,-712.12 487.75,-731.38"/>
<text xml:space="preserve" text-anchor="middle" x="458" y="-717.88" font-family="Helvetica,sans-Serif" font-size="10.00">GCObject</text>
</a>
</g>
</g>
<!-- Node9&#45;&gt;Node5 -->
<g id="edge29_Node000005_Node000009" class="edge">
<title>Node9&#45;&gt;Node5</title>
<g id="a_edge29_Node000005_Node000009"><a xlink:title=" ">
<path fill="none" stroke="#9a32cd" stroke-dasharray="5,2" d="M440.48,-704.16C434.38,-699.09 427.24,-693.9 420,-690.25 391.99,-676.12 377.48,-690.19 351.75,-672.25 337.29,-662.16 343.89,-649.2 329,-639.75 308.67,-626.84 242.5,-619.04 203.83,-615.46"/>
<polygon fill="#9a32cd" stroke="#9a32cd" points="438.15,-706.76 447.96,-710.77 442.79,-701.52 438.15,-706.76"/>
</a>
</g>
<text xml:space="preserve" text-anchor="start" x="354.75" y="-652.12" font-family="Helvetica,sans-Serif" font-size="10.00" fill="grey">gclist</text>
</g>
<!-- Node9&#45;&gt;Node6 -->
<g id="edge12_Node000006_Node000009" class="edge">
<title>Node9&#45;&gt;Node6</title>
<g id="a_edge12_Node000006_Node000009"><a xlink:title=" ">
<path fill="none" stroke="#9a32cd" stroke-dasharray="5,2" d="M450.95,-701.28C432.83,-649.42 386,-503.29 386,-377.62 386,-377.62 386,-377.62 386,-95.38 386,-37.57 304.88,-19.16 256.4,-13.32"/>
<polygon fill="#9a32cd" stroke="#9a32cd" points="447.56,-702.21 454.21,-710.46 454.16,-699.86 447.56,-702.21"/>
</a>
</g>
<text xml:space="preserve" text-anchor="start" x="394.49" y="-449" font-family="Helvetica,sans-Serif" font-size="10.00" fill="grey">allgc</text>
<text xml:space="preserve" text-anchor="start" x="394.49" y="-433.75" font-family="Helvetica,sans-Serif" font-size="10.00" fill="grey">allweak</text>
<text xml:space="preserve" text-anchor="start" x="394.49" y="-418.5" font-family="Helvetica,sans-Serif" font-size="10.00" fill="grey">ephemeron</text>
<text xml:space="preserve" text-anchor="start" x="394.49" y="-403.25" font-family="Helvetica,sans-Serif" font-size="10.00" fill="grey">finobj</text>
<text xml:space="preserve" text-anchor="start" x="394.49" y="-388" font-family="Helvetica,sans-Serif" font-size="10.00" fill="grey">finobjold1</text>
<text xml:space="preserve" text-anchor="start" x="394.49" y="-372.75" font-family="Helvetica,sans-Serif" font-size="10.00" fill="grey">finobjrold</text>
<text xml:space="preserve" text-anchor="start" x="394.49" y="-357.5" font-family="Helvetica,sans-Serif" font-size="10.00" fill="grey">finobjsur</text>
<text xml:space="preserve" text-anchor="start" x="394.49" y="-342.25" font-family="Helvetica,sans-Serif" font-size="10.00" fill="grey">firstold1</text>
<text xml:space="preserve" text-anchor="start" x="394.49" y="-327" font-family="Helvetica,sans-Serif" font-size="10.00" fill="grey">fixedgc</text>
<text xml:space="preserve" text-anchor="start" x="394.49" y="-311.75" font-family="Helvetica,sans-Serif" font-size="10.00" fill="grey">gray</text>
<text xml:space="preserve" text-anchor="start" x="394.49" y="-296.5" font-family="Helvetica,sans-Serif" font-size="10.00" fill="grey"> &#160;...</text>
</g>
<!-- Node9&#45;&gt;Node10 -->
<g id="edge24_Node000010_Node000009" class="edge">
<title>Node9&#45;&gt;Node10</title>
<g id="a_edge24_Node000010_Node000009"><a xlink:title=" ">
<path fill="none" stroke="#9a32cd" stroke-dasharray="5,2" d="M467.63,-701.45C488.12,-659.23 535.58,-554.97 553,-461.5 576.67,-334.45 556.89,-299.99 558,-170.75 558.12,-156.31 560.06,-152.55 558,-138.25 556.38,-126.98 552.37,-114.47 549.43,-106.3"/>
<polygon fill="#9a32cd" stroke="#9a32cd" points="464.56,-699.78 463.28,-710.29 470.84,-702.87 464.56,-699.78"/>
</a>
</g>
<text xml:space="preserve" text-anchor="start" x="552.07" y="-484.25" font-family="Helvetica,sans-Serif" font-size="10.00" fill="grey">gclist</text>
</g>
<!-- Node9&#45;&gt;Node13 -->
<g id="edge20_Node000013_Node000009" class="edge">
<title>Node9&#45;&gt;Node13</title>
<g id="a_edge20_Node000013_Node000009"><a xlink:title=" ">
<path fill="none" stroke="#9a32cd" stroke-dasharray="5,2" d="M458,-700.45C458,-658.53 458,-563.84 458,-534.33"/>
<polygon fill="#9a32cd" stroke="#9a32cd" points="454.5,-700.33 458,-710.33 461.5,-700.33 454.5,-700.33"/>
</a>
</g>
<text xml:space="preserve" text-anchor="start" x="461" y="-608.25" font-family="Helvetica,sans-Serif" font-size="10.00" fill="grey">gc</text>
</g>
<!-- Node10&#45;&gt;Node6 -->
<g id="edge15_Node000006_Node000010" class="edge">
<title>Node10&#45;&gt;Node6</title>
<g id="a_edge15_Node000006_Node000010"><a xlink:title=" ">
<path fill="none" stroke="#9a32cd" stroke-dasharray="5,2" d="M517.37,-81.68C488.41,-68.38 442.04,-48.58 400,-37.25 351.16,-24.09 292.95,-16.95 256.48,-13.46"/>
<polygon fill="#9a32cd" stroke="#9a32cd" points="515.66,-84.74 526.2,-85.79 518.61,-78.4 515.66,-84.74"/>
</a>
</g>
<text xml:space="preserve" text-anchor="start" x="452.24" y="-42" font-family="Helvetica,sans-Serif" font-size="10.00" fill="grey">mt</text>
</g>
<!-- Node10&#45;&gt;Node10 -->
<g id="edge23_Node000010_Node000010" class="edge">
<title>Node10&#45;&gt;Node10</title>
<g id="a_edge23_Node000010_Node000010"><a xlink:title=" ">
<path fill="none" stroke="#9a32cd" stroke-dasharray="5,2" d="M576.96,-104.69C580.97,-103.25 583.62,-100.48 583.62,-96.38 583.62,-89.08 575.24,-86 565.74,-87.14"/>
<polygon fill="#9a32cd" stroke="#9a32cd" points="576.93,-101.18 567.25,-105.49 577.51,-108.15 576.93,-101.18"/>
</a>
</g>
<text xml:space="preserve" text-anchor="start" x="586.62" y="-92.5" font-family="Helvetica,sans-Serif" font-size="10.00" fill="grey">metatable</text>
</g>
<!-- Node11&#45;&gt;Node10 -->
<g id="edge17_Node000010_Node000011" class="edge">
<title>Node11&#45;&gt;Node10</title>
<g id="a_edge17_Node000010_Node000011"><a xlink:title=" ">
<path fill="none" stroke="#9a32cd" stroke-dasharray="5,2" d="M516.54,-177.19C515.78,-165.57 515.98,-150.81 519.75,-138.25 523.39,-126.13 531.78,-114.18 538.1,-106.36"/>
<polygon fill="#9a32cd" stroke="#9a32cd" points="513.02,-177.2 517.46,-186.82 519.99,-176.53 513.02,-177.2"/>
</a>
</g>
<text xml:space="preserve" text-anchor="start" x="522.75" y="-158.25" font-family="Helvetica,sans-Serif" font-size="10.00" fill="grey">lastfree</text>
<text xml:space="preserve" text-anchor="start" x="522.75" y="-143" font-family="Helvetica,sans-Serif" font-size="10.00" fill="grey">node</text>
</g>
<!-- Node12 -->
<g id="Node000012" class="node">
<title>Node12</title>
<g id="a_Node000012"><a xlink:href="struct_node_1_1_node_key.html" target="_top" xlink:title=" ">
<polygon fill="white" stroke="#666666" points="543.88,-386.25 458.12,-386.25 458.12,-367 543.88,-367 543.88,-386.25"/>
<text xml:space="preserve" text-anchor="middle" x="501" y="-372.75" font-family="Helvetica,sans-Serif" font-size="10.00">Node::NodeKey</text>
</a>
</g>
</g>
<!-- Node12&#45;&gt;Node11 -->
<g id="edge18_Node000011_Node000012" class="edge">
<title>Node12&#45;&gt;Node11</title>
<g id="a_edge18_Node000011_Node000012"><a xlink:title=" ">
<path fill="none" stroke="#9a32cd" stroke-dasharray="5,2" d="M503.09,-355.2C507.01,-316.73 515.36,-234.99 518.11,-208.13"/>
<polygon fill="#9a32cd" stroke="#9a32cd" points="499.61,-354.83 502.07,-365.14 506.57,-355.54 499.61,-354.83"/>
</a>
</g>
<text xml:space="preserve" text-anchor="start" x="518.98" y="-246" font-family="Helvetica,sans-Serif" font-size="10.00" fill="grey">u</text>
</g>
<!-- Node13&#45;&gt;Node12 -->
<g id="edge19_Node000012_Node000013" class="edge">
<title>Node13&#45;&gt;Node12</title>
<g id="a_edge19_Node000012_Node000013"><a xlink:title=" ">
<path fill="none" stroke="#9a32cd" stroke-dasharray="5,2" d="M463.83,-503.62C473.25,-471.68 491.46,-409.94 498.31,-386.74"/>
<polygon fill="#9a32cd" stroke="#9a32cd" points="460.59,-502.22 461.12,-512.81 467.3,-504.21 460.59,-502.22"/>
</a>
</g>
<text xml:space="preserve" text-anchor="start" x="473.71" y="-484.25" font-family="Helvetica,sans-Serif" font-size="10.00" fill="grey">key_val</text>
</g>
<!-- Node14&#45;&gt;Node5 -->
<g id="edge26_Node000005_Node000014" class="edge">
<title>Node14&#45;&gt;Node5</title>
<g id="a_edge26_Node000005_Node000014"><a xlink:title=" ">
<path fill="none" stroke="#9a32cd" stroke-dasharray="5,2" d="M254.51,-854.12C254.72,-819.41 252.16,-746.61 230,-690.25 219.17,-662.7 196.38,-635.76 183.8,-622.2"/>
<polygon fill="#9a32cd" stroke="#9a32cd" points="251.01,-853.88 254.36,-863.93 258.01,-853.99 251.01,-853.88"/>
</a>
</g>
<text xml:space="preserve" text-anchor="start" x="255.77" y="-783.62" font-family="Helvetica,sans-Serif" font-size="10.00" fill="grey">openupval</text>
</g>
<!-- Node14&#45;&gt;Node14 -->
<g id="edge28_Node000014_Node000014" class="edge">
<title>Node14&#45;&gt;Node14</title>
<g id="a_edge28_Node000014_Node000014"><a xlink:title=" ">
<path fill="none" stroke="#9a32cd" stroke-dasharray="5,2" d="M286.53,-882.37C290.51,-881.09 293.12,-878.72 293.12,-875.25 293.12,-869.08 284.87,-866.38 275.33,-867.15"/>
<polygon fill="#9a32cd" stroke="#9a32cd" points="286.49,-878.86 276.84,-883.22 287.1,-885.83 286.49,-878.86"/>
</a>
</g>
<text xml:space="preserve" text-anchor="start" x="296.12" y="-879" font-family="Helvetica,sans-Serif" font-size="10.00" fill="grey">next</text>
<text xml:space="preserve" text-anchor="start" x="296.12" y="-863.75" font-family="Helvetica,sans-Serif" font-size="10.00" fill="grey">previous</text>
</g>
<!-- Node15 -->
<g id="Node000015" class="node">
<title>Node15</title>
<g id="a_Node000015"><a xlink:href="structlua__longjmp.html" target="_top" xlink:title=" ">
<polygon fill="white" stroke="#666666" points="349.88,-731.38 282.12,-731.38 282.12,-712.12 349.88,-712.12 349.88,-731.38"/>
<text xml:space="preserve" text-anchor="middle" x="316" y="-717.88" font-family="Helvetica,sans-Serif" font-size="10.00">lua_longjmp</text>
</a>
</g>
</g>
<!-- Node15&#45;&gt;Node5 -->
<g id="edge31_Node000005_Node000015" class="edge">
<title>Node15&#45;&gt;Node5</title>
<g id="a_edge31_Node000005_Node000015"><a xlink:title=" ">
<path fill="none" stroke="#9a32cd" stroke-dasharray="5,2" d="M304.14,-702.29C289.16,-679.07 264.97,-641.96 262,-639.75 245.02,-627.11 221.98,-620.41 203.88,-616.89"/>
<polygon fill="#9a32cd" stroke="#9a32cd" points="301.09,-704.01 309.44,-710.53 306.97,-700.22 301.09,-704.01"/>
</a>
</g>
<text xml:space="preserve" text-anchor="start" x="287.41" y="-652.12" font-family="Helvetica,sans-Serif" font-size="10.00" fill="grey">errorJmp</text>
</g>
<!-- Node15&#45;&gt;Node15 -->
<g id="edge32_Node000015_Node000015" class="edge">
<title>Node15&#45;&gt;Node15</title>
<g id="a_edge32_Node000015_Node000015"><a xlink:title=" ">
<path fill="none" stroke="#9a32cd" stroke-dasharray="5,2" d="M344.93,-733.94C357.3,-734.9 367.88,-730.84 367.88,-721.75 367.88,-710 350.2,-706.65 333.81,-711.7"/>
<polygon fill="#9a32cd" stroke="#9a32cd" points="345.78,-730.54 335.29,-732.09 344.45,-737.41 345.78,-730.54"/>
</a>
</g>
<text xml:space="preserve" text-anchor="start" x="370.88" y="-717.88" font-family="Helvetica,sans-Serif" font-size="10.00" fill="grey">previous</text>
</g>
</g>
</svg>

<g id="navigator" transform="translate(0 0)" fill="#404254">
  <rect fill="#f2f5e9" fill-opacity="0.5" stroke="#606060" stroke-width=".5" x="0" y="0" width="60" height="60"/>
  <use id="zoomplus" xlink:href="#zoomPlus" x="17" y="9" onmousedown="handleZoom(evt,'in')"/>
  <use id="zoomminus" xlink:href="#zoomMin" x="42" y="9" onmousedown="handleZoom(evt,'out')"/>
  <use id="reset" xlink:href="#resetDef" x="30" y="36" onmousedown="handleReset()"/>
   <use id="arrowup" xlink:href="#arrowUp" x="0" y="0" onmousedown="handlePan(0,-1)"/>
  <use id="arrowright" xlink:href="#arrowRight" x="0" y="0" onmousedown="handlePan(1,0)"/>
  <use id="arrowdown" xlink:href="#arrowDown" x="0" y="0" onmousedown="handlePan(0,1)"/>
  <use id="arrowleft" xlink:href="#arrowLeft" x="0" y="0" onmousedown="handlePan(-1,0)"/>
</g>
<svg viewBox="0 0 15 15" width="100%" height="30px" preserveAspectRatio="xMaxYMin meet">
 <g id="arrow_out" transform="scale(0.3 0.3)">
  <a xlink:href="struct_call_info__coll__graph_org.svg" target="_base">
   <rect id="button" ry="5" rx="5" y="6" x="6" height="38" width="38"
        fill="#f2f5e9" fill-opacity="0.5" stroke="#606060" stroke-width="1.0"/>
   <path id="arrow"
     d="M 11.500037,31.436501 C 11.940474,20.09759 22.043105,11.32322 32.158766,21.979434 L 37.068811,17.246167 C 37.068811,17.246167 37.088388,32 37.088388,32 L 22.160133,31.978069 C 22.160133,31.978069 26.997745,27.140456 26.997745,27.140456 C 18.528582,18.264221 13.291696,25.230495 11.500037,31.436501 z"
     style="fill:#404040;"/>
  </a>
 </g>
</svg>

<style type='text/css'>
<![CDATA[
[data-mouse-over-selected='false'] { opacity: 0.7; }
[data-mouse-over-selected='true']  { opacity: 1.0; }
]]>
</style>
<script type="application/ecmascript"><![CDATA[
document.addEventListener('DOMContentLoaded', (event) => {
  highlightEdges();
  highlightAdjacentNodes();
});
]]></script>
</svg>
