<?xml version="1.0" encoding="UTF-8" standalone="no"?>
<!DOCTYPE svg PUBLIC "-//W3C//DTD SVG 1.1//EN"
 "http://www.w3.org/Graphics/SVG/1.1/DTD/svg11.dtd">
<!-- Generated by graphviz version 13.1.0 (20250701.0955)
 -->
<!-- Title: BuffFS Pages: 1 -->
<!--zoomable 950 -->

<svg id="main" version="1.1" xmlns="http://www.w3.org/2000/svg" xmlns:xlink="http://www.w3.org/1999/xlink" xml:space="preserve" onload="init(evt)">

<style type="text/css"><![CDATA[
.node, .edge {opacity: 0.7;}
.node.selected, .edge.selected {opacity: 1;}
.edge:hover path { stroke: red; }
.edge:hover polygon { stroke: red; fill: red; }
]]></style>

<defs>
  <circle id="rim" cx="0" cy="0" r="7"/>
  <circle id="rim2" cx="0" cy="0" r="3.5"/>
  <g id="zoomPlus">
    <use xlink:href="#rim" fill="#404040"><set attributeName="fill" to="#808080" begin="zoomplus.mouseover" end="zoomplus.mouseout"/></use>
    <path d="M-4,0h8M0,-4v8" fill="none" stroke="white" stroke-width="1.5" pointer-events="none"/>
  </g>
  <g id="zoomMin">
    <use xlink:href="#rim" fill="#404040"><set attributeName="fill" to="#808080" begin="zoomminus.mouseover" end="zoomminus.mouseout"/></use>
    <path d="M-4,0h8" fill="none" stroke="white" stroke-width="1.5" pointer-events="none"/>
  </g>
  <g id="arrowUp" transform="translate(30 24)">
    <use xlink:href="#rim"/>
    <path pointer-events="none" fill="none" stroke="white" stroke-width="1.5" d="M0,-3.0v7 M-2.5,-0.5L0,-3.0L2.5,-0.5"/>
  </g>
  <g id="arrowRight" transform="rotate(90) translate(36 -43)">
    <use xlink:href="#rim"/>
    <path pointer-events="none" fill="none" stroke="white" stroke-width="1.5" d="M0,-3.0v7 M-2.5,-0.5L0,-3.0L2.5,-0.5"/>
  </g>
  <g id="arrowDown" transform="rotate(180) translate(-30 -48)">
    <use xlink:href="#rim"/>
    <path pointer-events="none" fill="none" stroke="white" stroke-width="1.5" d="M0,-3.0v7 M-2.5,-0.5L0,-3.0L2.5,-0.5"/>
  </g>
  <g id="arrowLeft" transform="rotate(270) translate(-36 17)">
    <use xlink:href="#rim"/>
    <path pointer-events="none" fill="none" stroke="white" stroke-width="1.5" d="M0,-3.0v7 M-2.5,-0.5L0,-3.0L2.5,-0.5"/>
  </g>
  <g id="resetDef">
    <use xlink:href="#rim2" fill="#404040"><set attributeName="fill" to="#808080" begin="reset.mouseover" end="reset.mouseout"/></use>
  </g>
</defs>
<script type="application/ecmascript">
var viewWidth = 697;
var viewHeight = 950;
var sectionId = 'dynsection-0';
</script>
<script type="application/ecmascript" xlink:href="svg.min.js"/>
<svg id="graph" class="graph">
<g id="viewport">
<title>BuffFS</title>
<!-- Node1 -->
<g id="Node000001" class="node">
<title>Node1</title>
<g id="a_Node000001"><a xlink:title=" ">
<polygon fill="#999999" stroke="#666666" points="282.5,-540.62 235.75,-540.62 235.75,-521.38 282.5,-521.38 282.5,-540.62"/>
<text xml:space="preserve" text-anchor="middle" x="259.12" y="-527.12" font-family="Helvetica,sans-Serif" font-size="10.00">BuffFS</text>
</a>
</g>
</g>
<!-- Node2 -->
<g id="Node000002" class="node">
<title>Node2</title>
<g id="a_Node000002"><a xlink:href="structlua___state.html" target="_top" xlink:title=" ">
<polygon fill="white" stroke="#666666" points="215.75,-641.62 158.5,-641.62 158.5,-622.38 215.75,-622.38 215.75,-641.62"/>
<text xml:space="preserve" text-anchor="middle" x="187.12" y="-628.12" font-family="Helvetica,sans-Serif" font-size="10.00">lua_State</text>
</a>
</g>
</g>
<!-- Node2&#45;&gt;Node1 -->
<g id="edge1_Node000001_Node000002" class="edge">
<title>Node2&#45;&gt;Node1</title>
<g id="a_edge1_Node000001_Node000002"><a xlink:title=" ">
<path fill="none" stroke="#9a32cd" stroke-dasharray="5,2" d="M206.24,-614.79C211.72,-609.65 217.46,-603.74 222.12,-597.75 236.61,-579.15 249.02,-554.2 255.11,-541.03"/>
<polygon fill="#9a32cd" stroke="#9a32cd" points="204.28,-611.84 199.17,-621.12 208.96,-617.06 204.28,-611.84"/>
</a>
</g>
<text xml:space="preserve" text-anchor="start" x="245.17" y="-577.62" font-family="Helvetica,sans-Serif" font-size="10.00" fill="grey">L</text>
</g>
<!-- Node2&#45;&gt;Node2 -->
<g id="edge31_Node000002_Node000002" class="edge">
<title>Node2&#45;&gt;Node2</title>
<g id="a_edge31_Node000002_Node000002"><a xlink:title=" ">
<path fill="none" stroke="#9a32cd" stroke-dasharray="5,2" d="M226.89,-639.85C231.07,-638.32 233.75,-635.71 233.75,-632 233.75,-625.59 225.73,-622.43 215.81,-622.53"/>
<polygon fill="#9a32cd" stroke="#9a32cd" points="226.7,-636.35 217.31,-641.25 227.71,-643.27 226.7,-636.35"/>
</a>
</g>
<text xml:space="preserve" text-anchor="start" x="236.75" y="-628.12" font-family="Helvetica,sans-Serif" font-size="10.00" fill="grey">twups</text>
</g>
<!-- Node6 -->
<g id="Node000006" class="node">
<title>Node6</title>
<g id="a_Node000006"><a xlink:href="structglobal___state.html" target="_top" xlink:title=" ">
<polygon fill="white" stroke="#666666" points="328.12,-19.25 258.12,-19.25 258.12,0 328.12,0 328.12,-19.25"/>
<text xml:space="preserve" text-anchor="middle" x="293.12" y="-5.75" font-family="Helvetica,sans-Serif" font-size="10.00">global_State</text>
</a>
</g>
</g>
<!-- Node2&#45;&gt;Node6 -->
<g id="edge11_Node000006_Node000002" class="edge">
<title>Node2&#45;&gt;Node6</title>
<g id="a_edge11_Node000006_Node000002"><a xlink:title=" ">
<path fill="none" stroke="#9a32cd" stroke-dasharray="5,2" d="M180.06,-611.47C159.77,-552.77 104.57,-372.92 133.12,-226 150.57,-136.22 144.69,-95.6 215.12,-37.25 227.25,-27.21 243.35,-20.88 257.78,-16.93"/>
<polygon fill="#9a32cd" stroke="#9a32cd" points="176.68,-612.41 183.31,-620.67 183.28,-610.08 176.68,-612.41"/>
</a>
</g>
<text xml:space="preserve" text-anchor="start" x="136.12" y="-261.25" font-family="Helvetica,sans-Serif" font-size="10.00" fill="grey">mainthread</text>
<text xml:space="preserve" text-anchor="start" x="136.12" y="-246" font-family="Helvetica,sans-Serif" font-size="10.00" fill="grey">panic</text>
<text xml:space="preserve" text-anchor="start" x="136.12" y="-230.75" font-family="Helvetica,sans-Serif" font-size="10.00" fill="grey">twups</text>
</g>
<!-- Node13 -->
<g id="Node000013" class="node">
<title>Node13</title>
<g id="a_Node000013"><a xlink:href="union_value.html" target="_top" xlink:title=" ">
<polygon fill="white" stroke="#666666" points="484.12,-540.62 444.12,-540.62 444.12,-521.38 484.12,-521.38 484.12,-540.62"/>
<text xml:space="preserve" text-anchor="middle" x="464.12" y="-527.12" font-family="Helvetica,sans-Serif" font-size="10.00">Value</text>
</a>
</g>
</g>
<!-- Node2&#45;&gt;Node13 -->
<g id="edge19_Node000013_Node000002" class="edge">
<title>Node2&#45;&gt;Node13</title>
<g id="a_edge19_Node000013_Node000002"><a xlink:title=" ">
<path fill="none" stroke="#9a32cd" stroke-dasharray="5,2" d="M220.83,-617.83C255.95,-604.23 312.66,-582.6 362.12,-565.25 390.25,-555.39 423.06,-544.87 443.72,-538.36"/>
<polygon fill="#9a32cd" stroke="#9a32cd" points="219.68,-614.52 211.63,-621.4 222.22,-621.05 219.68,-614.52"/>
</a>
</g>
<text xml:space="preserve" text-anchor="start" x="365.12" y="-577.62" font-family="Helvetica,sans-Serif" font-size="10.00" fill="grey">f</text>
</g>
<!-- Node14 -->
<g id="Node000014" class="node">
<title>Node14</title>
<g id="a_Node000014"><a xlink:href="struct_call_info.html" target="_top" xlink:title=" ">
<polygon fill="white" stroke="#666666" points="55,-540.62 5.25,-540.62 5.25,-521.38 55,-521.38 55,-540.62"/>
<text xml:space="preserve" text-anchor="middle" x="30.12" y="-527.12" font-family="Helvetica,sans-Serif" font-size="10.00">CallInfo</text>
</a>
</g>
</g>
<!-- Node2&#45;&gt;Node14 -->
<g id="edge26_Node000014_Node000002" class="edge">
<title>Node2&#45;&gt;Node14</title>
<g id="a_edge26_Node000014_Node000002"><a xlink:title=" ">
<path fill="none" stroke="#9a32cd" stroke-dasharray="5,2" d="M146.57,-630.61C117.46,-628.23 79.07,-620.5 53.88,-597.75 37.12,-582.62 32.17,-554.77 30.72,-540.67"/>
<polygon fill="#9a32cd" stroke="#9a32cd" points="146.31,-634.1 156.51,-631.22 146.74,-627.11 146.31,-634.1"/>
</a>
</g>
<text xml:space="preserve" text-anchor="start" x="56.88" y="-577.62" font-family="Helvetica,sans-Serif" font-size="10.00" fill="grey">k</text>
</g>
<!-- Node3 -->
<g id="Node000003" class="node">
<title>Node3</title>
<g id="a_Node000003"><a xlink:href="union_stk_id_rel.html" target="_top" xlink:title=" ">
<polygon fill="white" stroke="#666666" points="54.25,-766.5 0,-766.5 0,-747.25 54.25,-747.25 54.25,-766.5"/>
<text xml:space="preserve" text-anchor="middle" x="27.12" y="-753" font-family="Helvetica,sans-Serif" font-size="10.00">StkIdRel</text>
</a>
</g>
</g>
<!-- Node3&#45;&gt;Node2 -->
<g id="edge2_Node000002_Node000003" class="edge">
<title>Node3&#45;&gt;Node2</title>
<g id="a_edge2_Node000002_Node000003"><a xlink:title=" ">
<path fill="none" stroke="#9a32cd" stroke-dasharray="5,2" d="M34.54,-736.33C43.77,-712.96 59.7,-675.81 71.12,-666.25 95.87,-645.55 132.82,-637.72 158.34,-634.77"/>
<polygon fill="#9a32cd" stroke="#9a32cd" points="31.39,-734.79 31.04,-745.38 37.91,-737.32 31.39,-734.79"/>
</a>
</g>
<text xml:space="preserve" text-anchor="start" x="74.12" y="-716.75" font-family="Helvetica,sans-Serif" font-size="10.00" fill="grey">stack</text>
<text xml:space="preserve" text-anchor="start" x="74.12" y="-701.5" font-family="Helvetica,sans-Serif" font-size="10.00" fill="grey">stack_last</text>
<text xml:space="preserve" text-anchor="start" x="74.12" y="-686.25" font-family="Helvetica,sans-Serif" font-size="10.00" fill="grey">tbclist</text>
<text xml:space="preserve" text-anchor="start" x="74.12" y="-671" font-family="Helvetica,sans-Serif" font-size="10.00" fill="grey">top</text>
</g>
<!-- Node3&#45;&gt;Node14 -->
<g id="edge24_Node000014_Node000003" class="edge">
<title>Node3&#45;&gt;Node14</title>
<g id="a_edge24_Node000014_Node000003"><a xlink:title=" ">
<path fill="none" stroke="#9a32cd" stroke-dasharray="5,2" d="M27.4,-735.46C28.03,-688.39 29.57,-573.75 30.01,-540.92"/>
<polygon fill="#9a32cd" stroke="#9a32cd" points="23.9,-735.26 27.27,-745.31 30.9,-735.36 23.9,-735.26"/>
</a>
</g>
<text xml:space="preserve" text-anchor="start" x="31.97" y="-635.75" font-family="Helvetica,sans-Serif" font-size="10.00" fill="grey">func</text>
<text xml:space="preserve" text-anchor="start" x="31.97" y="-620.5" font-family="Helvetica,sans-Serif" font-size="10.00" fill="grey">top</text>
</g>
<!-- Node4 -->
<g id="Node000004" class="node">
<title>Node4</title>
<g id="a_Node000004"><a xlink:href="union_stack_value.html" target="_top" xlink:title=" ">
<polygon fill="white" stroke="#666666" points="224.88,-854.25 159.38,-854.25 159.38,-835 224.88,-835 224.88,-854.25"/>
<text xml:space="preserve" text-anchor="middle" x="192.12" y="-840.75" font-family="Helvetica,sans-Serif" font-size="10.00">StackValue</text>
</a>
</g>
</g>
<!-- Node4&#45;&gt;Node3 -->
<g id="edge3_Node000003_Node000004" class="edge">
<title>Node4&#45;&gt;Node3</title>
<g id="a_edge3_Node000003_Node000004"><a xlink:title=" ">
<path fill="none" stroke="#9a32cd" stroke-dasharray="5,2" d="M165,-829.53C130.85,-811.78 73.22,-781.83 44.49,-766.9"/>
<polygon fill="#9a32cd" stroke="#9a32cd" points="162.95,-832.41 173.44,-833.91 166.18,-826.2 162.95,-832.41"/>
</a>
</g>
<text xml:space="preserve" text-anchor="start" x="141.75" y="-796.88" font-family="Helvetica,sans-Serif" font-size="10.00" fill="grey">p</text>
</g>
<!-- Node5 -->
<g id="Node000005" class="node">
<title>Node5</title>
<g id="a_Node000005"><a xlink:href="struct_t_value.html" target="_top" xlink:title=" ">
<polygon fill="white" stroke="#666666" points="341.12,-942 295.12,-942 295.12,-922.75 341.12,-922.75 341.12,-942"/>
<text xml:space="preserve" text-anchor="middle" x="318.12" y="-928.5" font-family="Helvetica,sans-Serif" font-size="10.00">TValue</text>
</a>
</g>
</g>
<!-- Node5&#45;&gt;Node4 -->
<g id="edge4_Node000004_Node000005" class="edge">
<title>Node5&#45;&gt;Node4</title>
<g id="a_edge4_Node000004_Node000005"><a xlink:title=" ">
<path fill="none" stroke="#9a32cd" stroke-dasharray="5,2" d="M283.6,-929.32C262.92,-926.46 237.26,-919.85 219.38,-904.75 203.83,-891.63 196.67,-867.73 193.79,-854.69"/>
<polygon fill="#9a32cd" stroke="#9a32cd" points="282.97,-932.77 293.3,-930.41 283.75,-925.81 282.97,-932.77"/>
</a>
</g>
<text xml:space="preserve" text-anchor="start" x="222.38" y="-884.62" font-family="Helvetica,sans-Serif" font-size="10.00" fill="grey">val</text>
</g>
<!-- Node5&#45;&gt;Node6 -->
<g id="edge9_Node000006_Node000005" class="edge">
<title>Node5&#45;&gt;Node6</title>
<g id="a_edge9_Node000006_Node000005"><a xlink:title=" ">
<path fill="none" stroke="#9a32cd" stroke-dasharray="5,2" d="M318.12,-910.87C318.12,-893.49 318.12,-867.93 318.12,-845.62 318.12,-845.62 318.12,-845.62 318.12,-580.5 318.12,-430.64 247.12,-400.73 247.12,-250.88 247.12,-250.88 247.12,-250.88 247.12,-95.38 247.12,-64.57 270.89,-34.27 284.26,-19.66"/>
<polygon fill="#9a32cd" stroke="#9a32cd" points="314.63,-910.85 318.13,-920.85 321.63,-910.85 314.63,-910.85"/>
</a>
</g>
<text xml:space="preserve" text-anchor="start" x="319.54" y="-534.75" font-family="Helvetica,sans-Serif" font-size="10.00" fill="grey">l_registry</text>
<text xml:space="preserve" text-anchor="start" x="319.54" y="-519.5" font-family="Helvetica,sans-Serif" font-size="10.00" fill="grey">nilvalue</text>
</g>
<!-- Node10 -->
<g id="Node000010" class="node">
<title>Node10</title>
<g id="a_Node000010"><a xlink:href="struct_table.html" target="_top" xlink:title=" ">
<polygon fill="white" stroke="#666666" points="486.75,-106 447.5,-106 447.5,-86.75 486.75,-86.75 486.75,-106"/>
<text xml:space="preserve" text-anchor="middle" x="467.12" y="-92.5" font-family="Helvetica,sans-Serif" font-size="10.00">Table</text>
</a>
</g>
</g>
<!-- Node5&#45;&gt;Node10 -->
<g id="edge14_Node000010_Node000005" class="edge">
<title>Node5&#45;&gt;Node10</title>
<g id="a_edge14_Node000010_Node000005"><a xlink:title=" ">
<path fill="none" stroke="#9a32cd" stroke-dasharray="5,2" d="M343.84,-916.25C365.55,-901.32 393.12,-876.33 393.12,-845.62 393.12,-845.62 393.12,-845.62 393.12,-487.12 393.12,-353.01 401.41,-317.74 438.12,-188.75 446.78,-158.34 458.56,-122.73 464.06,-106.4"/>
<polygon fill="#9a32cd" stroke="#9a32cd" points="342.15,-913.17 335.67,-921.55 345.96,-919.04 342.15,-913.17"/>
</a>
</g>
<text xml:space="preserve" text-anchor="start" x="396.12" y="-577.62" font-family="Helvetica,sans-Serif" font-size="10.00" fill="grey">array</text>
</g>
<!-- Node11 -->
<g id="Node000011" class="node">
<title>Node11</title>
<g id="a_Node000011"><a xlink:href="union_node.html" target="_top" xlink:title=" ">
<polygon fill="white" stroke="#666666" points="486.75,-208 447.5,-208 447.5,-188.75 486.75,-188.75 486.75,-208"/>
<text xml:space="preserve" text-anchor="middle" x="467.12" y="-194.5" font-family="Helvetica,sans-Serif" font-size="10.00">Node</text>
</a>
</g>
</g>
<!-- Node5&#45;&gt;Node11 -->
<g id="edge20_Node000011_Node000005" class="edge">
<title>Node5&#45;&gt;Node11</title>
<g id="a_edge20_Node000011_Node000005"><a xlink:title=" ">
<path fill="none" stroke="#9a32cd" stroke-dasharray="5,2" d="M353,-930.09C440.64,-925.91 663.12,-909.07 663.12,-845.62 663.12,-845.62 663.12,-845.62 663.12,-375.62 663.12,-336.85 663.45,-321.94 639.12,-291.75 598.61,-241.47 523.15,-214.87 487.19,-204.55"/>
<polygon fill="#9a32cd" stroke="#9a32cd" points="352.91,-926.59 343.08,-930.53 353.22,-933.58 352.91,-926.59"/>
</a>
</g>
<text xml:space="preserve" text-anchor="start" x="666.12" y="-628.12" font-family="Helvetica,sans-Serif" font-size="10.00" fill="grey">i_val</text>
</g>
<!-- Node15 -->
<g id="Node000015" class="node">
<title>Node15</title>
<g id="a_Node000015"><a xlink:href="struct_up_val.html" target="_top" xlink:title=" ">
<polygon fill="white" stroke="#666666" points="242.25,-810.38 200,-810.38 200,-791.12 242.25,-791.12 242.25,-810.38"/>
<text xml:space="preserve" text-anchor="middle" x="221.12" y="-796.88" font-family="Helvetica,sans-Serif" font-size="10.00">UpVal</text>
</a>
</g>
</g>
<!-- Node5&#45;&gt;Node15 -->
<g id="edge28_Node000015_Node000005" class="edge">
<title>Node5&#45;&gt;Node15</title>
<g id="a_edge28_Node000015_Node000005"><a xlink:title=" ">
<path fill="none" stroke="#9a32cd" stroke-dasharray="5,2" d="M289.08,-916.52C283.97,-913.1 278.98,-909.15 274.88,-904.75 260.78,-889.62 234.79,-832.67 225,-810.58"/>
<polygon fill="#9a32cd" stroke="#9a32cd" points="287.19,-919.47 297.56,-921.66 290.82,-913.48 287.19,-919.47"/>
</a>
</g>
<text xml:space="preserve" text-anchor="start" x="277.88" y="-892.25" font-family="Helvetica,sans-Serif" font-size="10.00" fill="grey">p</text>
<text xml:space="preserve" text-anchor="start" x="277.88" y="-877" font-family="Helvetica,sans-Serif" font-size="10.00" fill="grey">value</text>
</g>
<!-- Node6&#45;&gt;Node2 -->
<g id="edge5_Node000002_Node000006" class="edge">
<title>Node6&#45;&gt;Node2</title>
<g id="a_edge5_Node000002_Node000006"><a xlink:title=" ">
<path fill="none" stroke="#9a32cd" stroke-dasharray="5,2" d="M250.78,-24.44C244.31,-27.88 238.14,-32.11 233.12,-37.25 213.62,-57.27 209.12,-67.43 209.12,-95.38 209.12,-377.62 209.12,-377.62 209.12,-377.62 209.12,-473.88 193.17,-589.94 188.44,-622.27"/>
<polygon fill="#9a32cd" stroke="#9a32cd" points="252.1,-27.68 259.68,-20.28 249.14,-21.34 252.1,-27.68"/>
</a>
</g>
<text xml:space="preserve" text-anchor="start" x="212.12" y="-246" font-family="Helvetica,sans-Serif" font-size="10.00" fill="grey">l_G</text>
</g>
<!-- Node7 -->
<g id="Node000007" class="node">
<title>Node7</title>
<g id="a_Node000007"><a xlink:href="structstringtable.html" target="_top" xlink:title=" ">
<polygon fill="white" stroke="#666666" points="429.62,-106 368.62,-106 368.62,-86.75 429.62,-86.75 429.62,-106"/>
<text xml:space="preserve" text-anchor="middle" x="399.12" y="-92.5" font-family="Helvetica,sans-Serif" font-size="10.00">stringtable</text>
</a>
</g>
</g>
<!-- Node7&#45;&gt;Node6 -->
<g id="edge6_Node000006_Node000007" class="edge">
<title>Node7&#45;&gt;Node6</title>
<g id="a_edge6_Node000006_Node000007"><a xlink:title=" ">
<path fill="none" stroke="#9a32cd" stroke-dasharray="5,2" d="M378.88,-79.19C356.75,-61.5 322.11,-33.8 304.39,-19.63"/>
<polygon fill="#9a32cd" stroke="#9a32cd" points="376.6,-81.85 386.6,-85.36 380.97,-76.38 376.6,-81.85"/>
</a>
</g>
<text xml:space="preserve" text-anchor="start" x="349.12" y="-42" font-family="Helvetica,sans-Serif" font-size="10.00" fill="grey">strt</text>
</g>
<!-- Node8 -->
<g id="Node000008" class="node">
<title>Node8</title>
<g id="a_Node000008"><a xlink:href="struct_t_string.html" target="_top" xlink:title=" ">
<polygon fill="white" stroke="#666666" points="322.88,-208 275.38,-208 275.38,-188.75 322.88,-188.75 322.88,-208"/>
<text xml:space="preserve" text-anchor="middle" x="299.12" y="-194.5" font-family="Helvetica,sans-Serif" font-size="10.00">TString</text>
</a>
</g>
</g>
<!-- Node8&#45;&gt;Node6 -->
<g id="edge12_Node000006_Node000008" class="edge">
<title>Node8&#45;&gt;Node6</title>
<g id="a_edge12_Node000006_Node000008"><a xlink:title=" ">
<path fill="none" stroke="#9a32cd" stroke-dasharray="5,2" d="M298.47,-177.12C297.18,-136.81 294.32,-47.95 293.41,-19.54"/>
<polygon fill="#9a32cd" stroke="#9a32cd" points="294.97,-176.97 298.79,-186.85 301.96,-176.75 294.97,-176.97"/>
</a>
</g>
<text xml:space="preserve" text-anchor="start" x="299.62" y="-107.75" font-family="Helvetica,sans-Serif" font-size="10.00" fill="grey">memerrmsg</text>
<text xml:space="preserve" text-anchor="start" x="299.62" y="-92.5" font-family="Helvetica,sans-Serif" font-size="10.00" fill="grey">strcache</text>
<text xml:space="preserve" text-anchor="start" x="299.62" y="-77.25" font-family="Helvetica,sans-Serif" font-size="10.00" fill="grey">tmname</text>
</g>
<!-- Node8&#45;&gt;Node7 -->
<g id="edge7_Node000007_Node000008" class="edge">
<title>Node8&#45;&gt;Node7</title>
<g id="a_edge7_Node000007_Node000008"><a xlink:title=" ">
<path fill="none" stroke="#9a32cd" stroke-dasharray="5,2" d="M315.99,-180.46C327.78,-168.63 343.9,-152.46 358.12,-138.25 369.07,-127.31 381.69,-114.74 390,-106.46"/>
<polygon fill="#9a32cd" stroke="#9a32cd" points="313.56,-177.93 308.98,-187.48 318.52,-182.87 313.56,-177.93"/>
</a>
</g>
<text xml:space="preserve" text-anchor="start" x="361.12" y="-150.62" font-family="Helvetica,sans-Serif" font-size="10.00" fill="grey">hash</text>
</g>
<!-- Node8&#45;&gt;Node8 -->
<g id="edge8_Node000008_Node000008" class="edge">
<title>Node8&#45;&gt;Node8</title>
<g id="a_edge8_Node000008_Node000008"><a xlink:title=" ">
<path fill="none" stroke="#9a32cd" stroke-dasharray="5,2" d="M334.36,-205.33C338.32,-204.02 340.88,-201.7 340.88,-198.38 340.88,-192.46 332.79,-189.74 323.15,-190.2"/>
<polygon fill="#9a32cd" stroke="#9a32cd" points="334.22,-201.82 324.66,-206.39 334.98,-208.78 334.22,-201.82"/>
</a>
</g>
<text xml:space="preserve" text-anchor="start" x="343.88" y="-194.5" font-family="Helvetica,sans-Serif" font-size="10.00" fill="grey">hnext</text>
</g>
<!-- Node9 -->
<g id="Node000009" class="node">
<title>Node9</title>
<g id="a_Node000009"><a xlink:href="struct_g_c_object.html" target="_top" xlink:title=" ">
<polygon fill="white" stroke="#666666" points="539.88,-766.5 480.38,-766.5 480.38,-747.25 539.88,-747.25 539.88,-766.5"/>
<text xml:space="preserve" text-anchor="middle" x="510.12" y="-753" font-family="Helvetica,sans-Serif" font-size="10.00">GCObject</text>
</a>
</g>
</g>
<!-- Node9&#45;&gt;Node2 -->
<g id="edge30_Node000002_Node000009" class="edge">
<title>Node9&#45;&gt;Node2</title>
<g id="a_edge30_Node000002_Node000009"><a xlink:title=" ">
<path fill="none" stroke="#9a32cd" stroke-dasharray="5,2" d="M475.74,-742.8C409.87,-717.74 267.41,-663.54 210.91,-642.05"/>
<polygon fill="#9a32cd" stroke="#9a32cd" points="474.37,-746.02 484.96,-746.3 476.86,-739.47 474.37,-746.02"/>
</a>
</g>
<text xml:space="preserve" text-anchor="start" x="435.07" y="-693.88" font-family="Helvetica,sans-Serif" font-size="10.00" fill="grey">gclist</text>
</g>
<!-- Node9&#45;&gt;Node6 -->
<g id="edge10_Node000006_Node000009" class="edge">
<title>Node9&#45;&gt;Node6</title>
<g id="a_edge10_Node000006_Node000009"><a xlink:title=" ">
<path fill="none" stroke="#9a32cd" stroke-dasharray="5,2" d="M531.25,-739.32C534.48,-736.2 537.58,-732.79 540.12,-729.25 567.29,-691.51 581.12,-679.5 581.12,-633 581.12,-633 581.12,-633 581.12,-95.38 581.12,-43.26 405.34,-20.85 328.44,-13.53"/>
<polygon fill="#9a32cd" stroke="#9a32cd" points="529.04,-736.6 523.83,-745.82 533.66,-741.86 529.04,-736.6"/>
</a>
</g>
<text xml:space="preserve" text-anchor="start" x="584.12" y="-449" font-family="Helvetica,sans-Serif" font-size="10.00" fill="grey">allgc</text>
<text xml:space="preserve" text-anchor="start" x="584.12" y="-433.75" font-family="Helvetica,sans-Serif" font-size="10.00" fill="grey">allweak</text>
<text xml:space="preserve" text-anchor="start" x="584.12" y="-418.5" font-family="Helvetica,sans-Serif" font-size="10.00" fill="grey">ephemeron</text>
<text xml:space="preserve" text-anchor="start" x="584.12" y="-403.25" font-family="Helvetica,sans-Serif" font-size="10.00" fill="grey">finobj</text>
<text xml:space="preserve" text-anchor="start" x="584.12" y="-388" font-family="Helvetica,sans-Serif" font-size="10.00" fill="grey">finobjold1</text>
<text xml:space="preserve" text-anchor="start" x="584.12" y="-372.75" font-family="Helvetica,sans-Serif" font-size="10.00" fill="grey">finobjrold</text>
<text xml:space="preserve" text-anchor="start" x="584.12" y="-357.5" font-family="Helvetica,sans-Serif" font-size="10.00" fill="grey">finobjsur</text>
<text xml:space="preserve" text-anchor="start" x="584.12" y="-342.25" font-family="Helvetica,sans-Serif" font-size="10.00" fill="grey">firstold1</text>
<text xml:space="preserve" text-anchor="start" x="584.12" y="-327" font-family="Helvetica,sans-Serif" font-size="10.00" fill="grey">fixedgc</text>
<text xml:space="preserve" text-anchor="start" x="584.12" y="-311.75" font-family="Helvetica,sans-Serif" font-size="10.00" fill="grey">gray</text>
<text xml:space="preserve" text-anchor="start" x="584.12" y="-296.5" font-family="Helvetica,sans-Serif" font-size="10.00" fill="grey"> &#160;...</text>
</g>
<!-- Node9&#45;&gt;Node10 -->
<g id="edge22_Node000010_Node000009" class="edge">
<title>Node9&#45;&gt;Node10</title>
<g id="a_edge22_Node000010_Node000009"><a xlink:title=" ">
<path fill="none" stroke="#9a32cd" stroke-dasharray="5,2" d="M516.76,-735.89C524.17,-711.78 535.12,-669.89 535.12,-633 535.12,-633 535.12,-633 535.12,-197.38 535.12,-157.9 498.45,-122.48 478.97,-106.44"/>
<polygon fill="#9a32cd" stroke="#9a32cd" points="513.46,-734.72 513.75,-745.31 520.13,-736.85 513.46,-734.72"/>
</a>
</g>
<text xml:space="preserve" text-anchor="start" x="538.12" y="-484.25" font-family="Helvetica,sans-Serif" font-size="10.00" fill="grey">gclist</text>
</g>
<!-- Node9&#45;&gt;Node13 -->
<g id="edge18_Node000013_Node000009" class="edge">
<title>Node9&#45;&gt;Node13</title>
<g id="a_edge18_Node000013_Node000009"><a xlink:title=" ">
<path fill="none" stroke="#9a32cd" stroke-dasharray="5,2" d="M505.99,-735.76C496.36,-688.88 472.72,-573.82 465.96,-540.92"/>
<polygon fill="#9a32cd" stroke="#9a32cd" points="502.52,-736.25 507.96,-745.34 509.38,-734.84 502.52,-736.25"/>
</a>
</g>
<text xml:space="preserve" text-anchor="start" x="490.89" y="-628.12" font-family="Helvetica,sans-Serif" font-size="10.00" fill="grey">gc</text>
</g>
<!-- Node10&#45;&gt;Node6 -->
<g id="edge13_Node000006_Node000010" class="edge">
<title>Node10&#45;&gt;Node6</title>
<g id="a_edge13_Node000006_Node000010"><a xlink:title=" ">
<path fill="none" stroke="#9a32cd" stroke-dasharray="5,2" d="M448.27,-79.08C445.29,-76.76 442.18,-74.5 439.12,-72.5 410.29,-53.67 401.81,-50.74 370.12,-37.25 354.64,-30.65 336.91,-24.44 322.37,-19.67"/>
<polygon fill="#9a32cd" stroke="#9a32cd" points="446.03,-81.76 455.98,-85.4 450.47,-76.35 446.03,-81.76"/>
</a>
</g>
<text xml:space="preserve" text-anchor="start" x="411.02" y="-42" font-family="Helvetica,sans-Serif" font-size="10.00" fill="grey">mt</text>
</g>
<!-- Node10&#45;&gt;Node10 -->
<g id="edge21_Node000010_Node000010" class="edge">
<title>Node10&#45;&gt;Node10</title>
<g id="a_edge21_Node000010_Node000010"><a xlink:title=" ">
<path fill="none" stroke="#9a32cd" stroke-dasharray="5,2" d="M498.09,-104.69C502.1,-103.25 504.75,-100.48 504.75,-96.38 504.75,-89.08 496.37,-86 486.87,-87.14"/>
<polygon fill="#9a32cd" stroke="#9a32cd" points="498.06,-101.18 488.38,-105.49 498.63,-108.15 498.06,-101.18"/>
</a>
</g>
<text xml:space="preserve" text-anchor="start" x="507.75" y="-92.5" font-family="Helvetica,sans-Serif" font-size="10.00" fill="grey">metatable</text>
</g>
<!-- Node11&#45;&gt;Node10 -->
<g id="edge15_Node000010_Node000011" class="edge">
<title>Node11&#45;&gt;Node10</title>
<g id="a_edge15_Node000010_Node000011"><a xlink:title=" ">
<path fill="none" stroke="#9a32cd" stroke-dasharray="5,2" d="M467.12,-177.07C467.12,-155.45 467.12,-122.21 467.12,-106.37"/>
<polygon fill="#9a32cd" stroke="#9a32cd" points="463.63,-176.99 467.13,-186.99 470.63,-176.99 463.63,-176.99"/>
</a>
</g>
<text xml:space="preserve" text-anchor="start" x="470.12" y="-158.25" font-family="Helvetica,sans-Serif" font-size="10.00" fill="grey">lastfree</text>
<text xml:space="preserve" text-anchor="start" x="470.12" y="-143" font-family="Helvetica,sans-Serif" font-size="10.00" fill="grey">node</text>
</g>
<!-- Node12 -->
<g id="Node000012" class="node">
<title>Node12</title>
<g id="a_Node000012"><a xlink:href="struct_node_1_1_node_key.html" target="_top" xlink:title=" ">
<polygon fill="white" stroke="#666666" points="507,-386.25 421.25,-386.25 421.25,-367 507,-367 507,-386.25"/>
<text xml:space="preserve" text-anchor="middle" x="464.12" y="-372.75" font-family="Helvetica,sans-Serif" font-size="10.00">Node::NodeKey</text>
</a>
</g>
</g>
<!-- Node12&#45;&gt;Node11 -->
<g id="edge16_Node000011_Node000012" class="edge">
<title>Node12&#45;&gt;Node11</title>
<g id="a_edge16_Node000011_Node000012"><a xlink:title=" ">
<path fill="none" stroke="#9a32cd" stroke-dasharray="5,2" d="M464.47,-355.2C465.13,-316.73 466.52,-234.99 466.98,-208.13"/>
<polygon fill="#9a32cd" stroke="#9a32cd" points="460.97,-355.07 464.3,-365.13 467.97,-355.19 460.97,-355.07"/>
</a>
</g>
<text xml:space="preserve" text-anchor="start" x="469.62" y="-246" font-family="Helvetica,sans-Serif" font-size="10.00" fill="grey">u</text>
</g>
<!-- Node13&#45;&gt;Node12 -->
<g id="edge17_Node000012_Node000013" class="edge">
<title>Node13&#45;&gt;Node12</title>
<g id="a_edge17_Node000012_Node000013"><a xlink:title=" ">
<path fill="none" stroke="#9a32cd" stroke-dasharray="5,2" d="M464.12,-509.8C464.12,-476.22 464.12,-410.27 464.12,-386.46"/>
<polygon fill="#9a32cd" stroke="#9a32cd" points="460.63,-509.41 464.13,-519.41 467.63,-509.41 460.63,-509.41"/>
</a>
</g>
<text xml:space="preserve" text-anchor="start" x="467.12" y="-484.25" font-family="Helvetica,sans-Serif" font-size="10.00" fill="grey">key_val</text>
</g>
<!-- Node14&#45;&gt;Node2 -->
<g id="edge23_Node000002_Node000014" class="edge">
<title>Node14&#45;&gt;Node2</title>
<g id="a_edge23_Node000002_Node000014"><a xlink:title=" ">
<path fill="none" stroke="#9a32cd" stroke-dasharray="5,2" d="M49.98,-548.41C55.75,-553.56 61.91,-559.42 67.12,-565.25 78.97,-578.49 76.13,-587.14 90.38,-597.75 110.46,-612.71 137.77,-621.28 158.25,-625.96"/>
<polygon fill="#9a32cd" stroke="#9a32cd" points="52.4,-545.88 42.54,-542.01 47.84,-551.18 52.4,-545.88"/>
</a>
</g>
<text xml:space="preserve" text-anchor="start" x="93.38" y="-585.25" font-family="Helvetica,sans-Serif" font-size="10.00" fill="grey">base_ci</text>
<text xml:space="preserve" text-anchor="start" x="93.38" y="-570" font-family="Helvetica,sans-Serif" font-size="10.00" fill="grey">ci</text>
</g>
<!-- Node14&#45;&gt;Node14 -->
<g id="edge25_Node000014_Node000014" class="edge">
<title>Node14&#45;&gt;Node14</title>
<g id="a_edge25_Node000014_Node000014"><a xlink:title=" ">
<path fill="none" stroke="#9a32cd" stroke-dasharray="5,2" d="M66.49,-537.74C70.45,-536.45 73,-534.2 73,-531 73,-525.31 64.93,-522.64 55.23,-522.99"/>
<polygon fill="#9a32cd" stroke="#9a32cd" points="66.28,-534.24 56.73,-538.84 67.06,-541.2 66.28,-534.24"/>
</a>
</g>
<text xml:space="preserve" text-anchor="start" x="76" y="-534.75" font-family="Helvetica,sans-Serif" font-size="10.00" fill="grey">next</text>
<text xml:space="preserve" text-anchor="start" x="76" y="-519.5" font-family="Helvetica,sans-Serif" font-size="10.00" fill="grey">previous</text>
</g>
<!-- Node15&#45;&gt;Node2 -->
<g id="edge27_Node000002_Node000015" class="edge">
<title>Node15&#45;&gt;Node2</title>
<g id="a_edge27_Node000002_Node000015"><a xlink:title=" ">
<path fill="none" stroke="#9a32cd" stroke-dasharray="5,2" d="M222.96,-779.34C224.63,-752.51 225.03,-704.34 211.12,-666.25 207.81,-657.15 201.24,-648.34 195.81,-642.07"/>
<polygon fill="#9a32cd" stroke="#9a32cd" points="219.48,-778.91 222.21,-789.14 226.46,-779.44 219.48,-778.91"/>
</a>
</g>
<text xml:space="preserve" text-anchor="start" x="226.78" y="-753" font-family="Helvetica,sans-Serif" font-size="10.00" fill="grey">openupval</text>
</g>
<!-- Node15&#45;&gt;Node15 -->
<g id="edge29_Node000015_Node000015" class="edge">
<title>Node15&#45;&gt;Node15</title>
<g id="a_edge29_Node000015_Node000015"><a xlink:title=" ">
<path fill="none" stroke="#9a32cd" stroke-dasharray="5,2" d="M253.66,-807.87C257.64,-806.59 260.25,-804.22 260.25,-800.75 260.25,-794.58 252,-791.88 242.45,-792.65"/>
<polygon fill="#9a32cd" stroke="#9a32cd" points="253.62,-804.36 243.96,-808.72 254.23,-811.33 253.62,-804.36"/>
</a>
</g>
<text xml:space="preserve" text-anchor="start" x="263.25" y="-804.5" font-family="Helvetica,sans-Serif" font-size="10.00" fill="grey">next</text>
<text xml:space="preserve" text-anchor="start" x="263.25" y="-789.25" font-family="Helvetica,sans-Serif" font-size="10.00" fill="grey">previous</text>
</g>
<!-- Node16 -->
<g id="Node000016" class="node">
<title>Node16</title>
<g id="a_Node000016"><a xlink:href="structlua__longjmp.html" target="_top" xlink:title=" ">
<polygon fill="white" stroke="#666666" points="140,-766.5 72.25,-766.5 72.25,-747.25 140,-747.25 140,-766.5"/>
<text xml:space="preserve" text-anchor="middle" x="106.12" y="-753" font-family="Helvetica,sans-Serif" font-size="10.00">lua_longjmp</text>
</a>
</g>
</g>
<!-- Node16&#45;&gt;Node2 -->
<g id="edge32_Node000002_Node000016" class="edge">
<title>Node16&#45;&gt;Node2</title>
<g id="a_edge32_Node000002_Node000016"><a xlink:title=" ">
<path fill="none" stroke="#9a32cd" stroke-dasharray="5,2" d="M118.11,-737.7C135.69,-711.02 167.85,-662.25 181.13,-642.09"/>
<polygon fill="#9a32cd" stroke="#9a32cd" points="115.36,-735.5 112.78,-745.77 121.21,-739.35 115.36,-735.5"/>
</a>
</g>
<text xml:space="preserve" text-anchor="start" x="166.19" y="-693.88" font-family="Helvetica,sans-Serif" font-size="10.00" fill="grey">errorJmp</text>
</g>
<!-- Node16&#45;&gt;Node16 -->
<g id="edge33_Node000016_Node000016" class="edge">
<title>Node16&#45;&gt;Node16</title>
<g id="a_edge33_Node000016_Node000016"><a xlink:title=" ">
<path fill="none" stroke="#9a32cd" stroke-dasharray="5,2" d="M151.21,-763.44C155.37,-762.09 158,-759.9 158,-756.88 158,-751.65 150.15,-748.91 140.05,-748.67"/>
<polygon fill="#9a32cd" stroke="#9a32cd" points="150.93,-759.95 141.55,-764.86 151.95,-766.87 150.93,-759.95"/>
</a>
</g>
<text xml:space="preserve" text-anchor="start" x="161" y="-753" font-family="Helvetica,sans-Serif" font-size="10.00" fill="grey">previous</text>
</g>
</g>
</svg>

<g id="navigator" transform="translate(0 0)" fill="#404254">
  <rect fill="#f2f5e9" fill-opacity="0.5" stroke="#606060" stroke-width=".5" x="0" y="0" width="60" height="60"/>
  <use id="zoomplus" xlink:href="#zoomPlus" x="17" y="9" onmousedown="handleZoom(evt,'in')"/>
  <use id="zoomminus" xlink:href="#zoomMin" x="42" y="9" onmousedown="handleZoom(evt,'out')"/>
  <use id="reset" xlink:href="#resetDef" x="30" y="36" onmousedown="handleReset()"/>
   <use id="arrowup" xlink:href="#arrowUp" x="0" y="0" onmousedown="handlePan(0,-1)"/>
  <use id="arrowright" xlink:href="#arrowRight" x="0" y="0" onmousedown="handlePan(1,0)"/>
  <use id="arrowdown" xlink:href="#arrowDown" x="0" y="0" onmousedown="handlePan(0,1)"/>
  <use id="arrowleft" xlink:href="#arrowLeft" x="0" y="0" onmousedown="handlePan(-1,0)"/>
</g>
<svg viewBox="0 0 15 15" width="100%" height="30px" preserveAspectRatio="xMaxYMin meet">
 <g id="arrow_out" transform="scale(0.3 0.3)">
  <a xlink:href="struct_buff_f_s__coll__graph_org.svg" target="_base">
   <rect id="button" ry="5" rx="5" y="6" x="6" height="38" width="38"
        fill="#f2f5e9" fill-opacity="0.5" stroke="#606060" stroke-width="1.0"/>
   <path id="arrow"
     d="M 11.500037,31.436501 C 11.940474,20.09759 22.043105,11.32322 32.158766,21.979434 L 37.068811,17.246167 C 37.068811,17.246167 37.088388,32 37.088388,32 L 22.160133,31.978069 C 22.160133,31.978069 26.997745,27.140456 26.997745,27.140456 C 18.528582,18.264221 13.291696,25.230495 11.500037,31.436501 z"
     style="fill:#404040;"/>
  </a>
 </g>
</svg>

<style type='text/css'>
<![CDATA[
[data-mouse-over-selected='false'] { opacity: 0.7; }
[data-mouse-over-selected='true']  { opacity: 1.0; }
]]>
</style>
<script type="application/ecmascript"><![CDATA[
document.addEventListener('DOMContentLoaded', (event) => {
  highlightEdges();
  highlightAdjacentNodes();
});
]]></script>
</svg>
