<?xml version="1.0" encoding="UTF-8" standalone="no"?>
<!DOCTYPE svg PUBLIC "-//W3C//DTD SVG 1.1//EN"
 "http://www.w3.org/Graphics/SVG/1.1/DTD/svg11.dtd">
<!-- Generated by graphviz version 13.1.0 (20250701.0955)
 -->
<!-- Title: gb_s Pages: 1 -->
<svg width="552pt" height="245pt"
 viewBox="0.00 0.00 552.00 245.00" xmlns="http://www.w3.org/2000/svg" xmlns:xlink="http://www.w3.org/1999/xlink">
<g id="graph0" class="graph" transform="scale(1 1) rotate(0) translate(4 240.75)">
<title>gb_s</title>
<!-- Node1 -->
<g id="Node000001" class="node">
<title>Node1</title>
<g id="a_Node000001"><a xlink:title=" ">
<polygon fill="#999999" stroke="#666666" points="244,-19.25 207,-19.25 207,0 244,0 244,-19.25"/>
<text xml:space="preserve" text-anchor="middle" x="225.5" y="-5.75" font-family="Helvetica,sans-Serif" font-size="10.00">gb_s</text>
</a>
</g>
</g>
<!-- Node2 -->
<g id="Node000002" class="node">
<title>Node2</title>
<g id="a_Node000002"><a xlink:href="structcpu__registers__s.html" target="_top" xlink:title=" ">
<polygon fill="white" stroke="#666666" points="85,-91.75 0,-91.75 0,-72.5 85,-72.5 85,-91.75"/>
<text xml:space="preserve" text-anchor="middle" x="42.5" y="-78.25" font-family="Helvetica,sans-Serif" font-size="10.00">cpu_registers_s</text>
</a>
</g>
</g>
<!-- Node2&#45;&gt;Node1 -->
<g id="edge1_Node000001_Node000002" class="edge">
<title>Node2&#45;&gt;Node1</title>
<g id="a_edge1_Node000001_Node000002"><a xlink:title=" ">
<path fill="none" stroke="#9a32cd" stroke-dasharray="5,2" d="M65.94,-66.35C81.61,-56.98 102.97,-45.17 123,-37.25 151.21,-26.09 185.64,-18.26 206.55,-14.1"/>
<polygon fill="#9a32cd" stroke="#9a32cd" points="64.53,-63.11 57.82,-71.31 68.18,-69.09 64.53,-63.11"/>
</a>
</g>
<text xml:space="preserve" text-anchor="start" x="126" y="-42" font-family="Helvetica,sans-Serif" font-size="10.00" fill="grey">cpu_reg</text>
</g>
<!-- Node3 -->
<g id="Node000003" class="node">
<title>Node3</title>
<g id="a_Node000003"><a xlink:href="structgb__registers__s.html" target="_top" xlink:title=" ">
<polygon fill="white" stroke="#666666" points="182.38,-91.75 102.62,-91.75 102.62,-72.5 182.38,-72.5 182.38,-91.75"/>
<text xml:space="preserve" text-anchor="middle" x="142.5" y="-78.25" font-family="Helvetica,sans-Serif" font-size="10.00">gb_registers_s</text>
</a>
</g>
</g>
<!-- Node3&#45;&gt;Node1 -->
<g id="edge2_Node000001_Node000003" class="edge">
<title>Node3&#45;&gt;Node1</title>
<g id="a_edge2_Node000001_Node000003"><a xlink:title=" ">
<path fill="none" stroke="#9a32cd" stroke-dasharray="5,2" d="M158.21,-63.88C166.25,-55.46 176.39,-45.41 186.25,-37.25 193.99,-30.84 203.27,-24.5 210.86,-19.61"/>
<polygon fill="#9a32cd" stroke="#9a32cd" points="155.73,-61.41 151.47,-71.11 160.85,-66.19 155.73,-61.41"/>
</a>
</g>
<text xml:space="preserve" text-anchor="start" x="189.25" y="-42" font-family="Helvetica,sans-Serif" font-size="10.00" fill="grey">gb_reg</text>
</g>
<!-- Node4 -->
<g id="Node000004" class="node">
<title>Node4</title>
<g id="a_Node000004"><a xlink:href="structcount__s.html" target="_top" xlink:title=" ">
<polygon fill="white" stroke="#666666" points="250.75,-91.75 200.25,-91.75 200.25,-72.5 250.75,-72.5 250.75,-91.75"/>
<text xml:space="preserve" text-anchor="middle" x="225.5" y="-78.25" font-family="Helvetica,sans-Serif" font-size="10.00">count_s</text>
</a>
</g>
</g>
<!-- Node4&#45;&gt;Node1 -->
<g id="edge3_Node000001_Node000004" class="edge">
<title>Node4&#45;&gt;Node1</title>
<g id="a_edge3_Node000001_Node000004"><a xlink:title=" ">
<path fill="none" stroke="#9a32cd" stroke-dasharray="5,2" d="M225.5,-61.05C225.5,-47.44 225.5,-30.1 225.5,-19.7"/>
<polygon fill="#9a32cd" stroke="#9a32cd" points="222,-60.68 225.5,-70.68 229,-60.68 222,-60.68"/>
</a>
</g>
<text xml:space="preserve" text-anchor="start" x="228.5" y="-42" font-family="Helvetica,sans-Serif" font-size="10.00" fill="grey">counter</text>
</g>
<!-- Node5 -->
<g id="Node000005" class="node">
<title>Node5</title>
<g id="a_Node000005"><a xlink:href="structgb__breakpoint.html" target="_top" xlink:title=" ">
<polygon fill="white" stroke="#666666" points="345.88,-91.75 269.12,-91.75 269.12,-72.5 345.88,-72.5 345.88,-91.75"/>
<text xml:space="preserve" text-anchor="middle" x="307.5" y="-78.25" font-family="Helvetica,sans-Serif" font-size="10.00">gb_breakpoint</text>
</a>
</g>
</g>
<!-- Node5&#45;&gt;Node1 -->
<g id="edge4_Node000001_Node000005" class="edge">
<title>Node5&#45;&gt;Node1</title>
<g id="a_edge4_Node000001_Node000005"><a xlink:title=" ">
<path fill="none" stroke="#9a32cd" stroke-dasharray="5,2" d="M293.23,-63.38C286,-54.95 276.79,-45.05 267.5,-37.25 259.56,-30.59 249.84,-24.32 241.75,-19.54"/>
<polygon fill="#9a32cd" stroke="#9a32cd" points="290.4,-65.45 299.49,-70.9 295.78,-60.97 290.4,-65.45"/>
</a>
</g>
<text xml:space="preserve" text-anchor="start" x="288.05" y="-42" font-family="Helvetica,sans-Serif" font-size="10.00" fill="grey">breakpoints</text>
</g>
<!-- Node6 -->
<g id="Node000006" class="node">
<title>Node6</title>
<g id="a_Node000006"><a xlink:href="structaudio__data.html" target="_top" xlink:title=" ">
<polygon fill="white" stroke="#666666" points="427.12,-91.75 363.88,-91.75 363.88,-72.5 427.12,-72.5 427.12,-91.75"/>
<text xml:space="preserve" text-anchor="middle" x="395.5" y="-78.25" font-family="Helvetica,sans-Serif" font-size="10.00">audio_data</text>
</a>
</g>
</g>
<!-- Node6&#45;&gt;Node1 -->
<g id="edge5_Node000001_Node000006" class="edge">
<title>Node6&#45;&gt;Node1</title>
<g id="a_edge5_Node000001_Node000006"><a xlink:title=" ">
<path fill="none" stroke="#9a32cd" stroke-dasharray="5,2" d="M380.24,-64.05C371.05,-54.79 358.61,-43.9 345.5,-37.25 312.38,-20.46 268.85,-14.19 244.36,-11.9"/>
<polygon fill="#9a32cd" stroke="#9a32cd" points="377.52,-66.27 386.93,-71.15 382.62,-61.47 377.52,-66.27"/>
</a>
</g>
<text xml:space="preserve" text-anchor="start" x="372.29" y="-42" font-family="Helvetica,sans-Serif" font-size="10.00" fill="grey">audio</text>
</g>
<!-- Node7 -->
<g id="Node000007" class="node">
<title>Node7</title>
<g id="a_Node000007"><a xlink:href="structchan.html" target="_top" xlink:title=" ">
<polygon fill="white" stroke="#666666" points="414,-164.25 377,-164.25 377,-145 414,-145 414,-164.25"/>
<text xml:space="preserve" text-anchor="middle" x="395.5" y="-150.75" font-family="Helvetica,sans-Serif" font-size="10.00">chan</text>
</a>
</g>
</g>
<!-- Node7&#45;&gt;Node6 -->
<g id="edge6_Node000006_Node000007" class="edge">
<title>Node7&#45;&gt;Node6</title>
<g id="a_edge6_Node000006_Node000007"><a xlink:title=" ">
<path fill="none" stroke="#9a32cd" stroke-dasharray="5,2" d="M395.5,-133.55C395.5,-119.94 395.5,-102.6 395.5,-92.2"/>
<polygon fill="#9a32cd" stroke="#9a32cd" points="392,-133.18 395.5,-143.18 399,-133.18 392,-133.18"/>
</a>
</g>
<text xml:space="preserve" text-anchor="start" x="398.5" y="-114.5" font-family="Helvetica,sans-Serif" font-size="10.00" fill="grey">chans</text>
</g>
<!-- Node8 -->
<g id="Node000008" class="node">
<title>Node8</title>
<g id="a_Node000008"><a xlink:href="structchan__len__ctr.html" target="_top" xlink:title=" ">
<polygon fill="white" stroke="#666666" points="339.25,-236.75 267.75,-236.75 267.75,-217.5 339.25,-217.5 339.25,-236.75"/>
<text xml:space="preserve" text-anchor="middle" x="303.5" y="-223.25" font-family="Helvetica,sans-Serif" font-size="10.00">chan_len_ctr</text>
</a>
</g>
</g>
<!-- Node8&#45;&gt;Node7 -->
<g id="edge7_Node000007_Node000008" class="edge">
<title>Node8&#45;&gt;Node7</title>
<g id="a_edge7_Node000007_Node000008"><a xlink:title=" ">
<path fill="none" stroke="#9a32cd" stroke-dasharray="5,2" d="M324.17,-210.28C342.5,-196.24 368.64,-176.21 383.65,-164.7"/>
<polygon fill="#9a32cd" stroke="#9a32cd" points="322.16,-207.41 316.35,-216.28 326.42,-212.97 322.16,-207.41"/>
</a>
</g>
<text xml:space="preserve" text-anchor="start" x="363.45" y="-187" font-family="Helvetica,sans-Serif" font-size="10.00" fill="grey">len</text>
</g>
<!-- Node9 -->
<g id="Node000009" class="node">
<title>Node9</title>
<g id="a_Node000009"><a xlink:href="structchan__vol__env.html" target="_top" xlink:title=" ">
<polygon fill="white" stroke="#666666" points="433.5,-236.75 357.5,-236.75 357.5,-217.5 433.5,-217.5 433.5,-236.75"/>
<text xml:space="preserve" text-anchor="middle" x="395.5" y="-223.25" font-family="Helvetica,sans-Serif" font-size="10.00">chan_vol_env</text>
</a>
</g>
</g>
<!-- Node9&#45;&gt;Node7 -->
<g id="edge8_Node000007_Node000009" class="edge">
<title>Node9&#45;&gt;Node7</title>
<g id="a_edge8_Node000007_Node000009"><a xlink:title=" ">
<path fill="none" stroke="#9a32cd" stroke-dasharray="5,2" d="M395.5,-206.05C395.5,-192.44 395.5,-175.1 395.5,-164.7"/>
<polygon fill="#9a32cd" stroke="#9a32cd" points="392,-205.68 395.5,-215.68 399,-205.68 392,-205.68"/>
</a>
</g>
<text xml:space="preserve" text-anchor="start" x="398.5" y="-187" font-family="Helvetica,sans-Serif" font-size="10.00" fill="grey">env</text>
</g>
<!-- Node10 -->
<g id="Node000010" class="node">
<title>Node10</title>
<g id="a_Node000010"><a xlink:href="structchan__freq__sweep.html" target="_top" xlink:title=" ">
<polygon fill="white" stroke="#666666" points="543.75,-236.75 451.25,-236.75 451.25,-217.5 543.75,-217.5 543.75,-236.75"/>
<text xml:space="preserve" text-anchor="middle" x="497.5" y="-223.25" font-family="Helvetica,sans-Serif" font-size="10.00">chan_freq_sweep</text>
</a>
</g>
</g>
<!-- Node10&#45;&gt;Node7 -->
<g id="edge9_Node000007_Node000010" class="edge">
<title>Node10&#45;&gt;Node7</title>
<g id="a_edge9_Node000007_Node000010"><a xlink:title=" ">
<path fill="none" stroke="#9a32cd" stroke-dasharray="5,2" d="M475.14,-210.67C454.79,-196.61 425.44,-176.32 408.64,-164.7"/>
<polygon fill="#9a32cd" stroke="#9a32cd" points="473.12,-213.53 483.34,-216.34 477.1,-207.77 473.12,-213.53"/>
</a>
</g>
<text xml:space="preserve" text-anchor="start" x="461.64" y="-187" font-family="Helvetica,sans-Serif" font-size="10.00" fill="grey">sweep</text>
</g>
</g>
</svg>
