<?xml version="1.0" encoding="UTF-8" standalone="no"?>
<!DOCTYPE svg PUBLIC "-//W3C//DTD SVG 1.1//EN"
 "http://www.w3.org/Graphics/SVG/1.1/DTD/svg11.dtd">
<!-- Generated by graphviz version 13.1.0 (20250701.0955)
 -->
<!-- Title: Header Pages: 1 -->
<svg width="710pt" height="950pt"
 viewBox="0.00 0.00 710.00 950.00" xmlns="http://www.w3.org/2000/svg" xmlns:xlink="http://www.w3.org/1999/xlink">
<g id="graph0" class="graph" transform="scale(1 1) rotate(0) translate(4 946)">
<title>Header</title>
<!-- Node1 -->
<g id="Node000001" class="node">
<title>Node1</title>
<g id="a_Node000001"><a xlink:title=" ">
<polygon fill="#999999" stroke="#666666" points="288.88,-540.62 241.38,-540.62 241.38,-521.38 288.88,-521.38 288.88,-540.62"/>
<text xml:space="preserve" text-anchor="middle" x="265.12" y="-527.12" font-family="Helvetica,sans-Serif" font-size="10.00">Header</text>
</a>
</g>
</g>
<!-- Node2 -->
<g id="Node000002" class="node">
<title>Node2</title>
<g id="a_Node000002"><a xlink:href="structlua___state.html" target="_top" xlink:title=" ">
<polygon fill="white" stroke="#666666" points="214.75,-641.62 157.5,-641.62 157.5,-622.38 214.75,-622.38 214.75,-641.62"/>
<text xml:space="preserve" text-anchor="middle" x="186.12" y="-628.12" font-family="Helvetica,sans-Serif" font-size="10.00">lua_State</text>
</a>
</g>
</g>
<!-- Node2&#45;&gt;Node1 -->
<g id="edge1_Node000001_Node000002" class="edge">
<title>Node2&#45;&gt;Node1</title>
<g id="a_edge1_Node000001_Node000002"><a xlink:title=" ">
<path fill="none" stroke="#9a32cd" stroke-dasharray="5,2" d="M208.72,-615.11C215.11,-610 221.77,-604.02 227.12,-597.75 242.71,-579.5 255.34,-553.97 261.34,-540.73"/>
<polygon fill="#9a32cd" stroke="#9a32cd" points="206.81,-612.16 200.96,-620.99 211.04,-617.74 206.81,-612.16"/>
</a>
</g>
<text xml:space="preserve" text-anchor="start" x="251.05" y="-577.62" font-family="Helvetica,sans-Serif" font-size="10.00" fill="grey">L</text>
</g>
<!-- Node2&#45;&gt;Node2 -->
<g id="edge31_Node000002_Node000002" class="edge">
<title>Node2&#45;&gt;Node2</title>
<g id="a_edge31_Node000002_Node000002"><a xlink:title=" ">
<path fill="none" stroke="#9a32cd" stroke-dasharray="5,2" d="M225.89,-639.85C230.07,-638.32 232.75,-635.71 232.75,-632 232.75,-625.59 224.73,-622.43 214.81,-622.53"/>
<polygon fill="#9a32cd" stroke="#9a32cd" points="225.7,-636.35 216.31,-641.25 226.71,-643.27 225.7,-636.35"/>
</a>
</g>
<text xml:space="preserve" text-anchor="start" x="235.75" y="-628.12" font-family="Helvetica,sans-Serif" font-size="10.00" fill="grey">twups</text>
</g>
<!-- Node6 -->
<g id="Node000006" class="node">
<title>Node6</title>
<g id="a_Node000006"><a xlink:href="structglobal___state.html" target="_top" xlink:title=" ">
<polygon fill="white" stroke="#666666" points="341.12,-19.25 271.12,-19.25 271.12,0 341.12,0 341.12,-19.25"/>
<text xml:space="preserve" text-anchor="middle" x="306.12" y="-5.75" font-family="Helvetica,sans-Serif" font-size="10.00">global_State</text>
</a>
</g>
</g>
<!-- Node2&#45;&gt;Node6 -->
<g id="edge11_Node000006_Node000002" class="edge">
<title>Node2&#45;&gt;Node6</title>
<g id="a_edge11_Node000006_Node000002"><a xlink:title=" ">
<path fill="none" stroke="#9a32cd" stroke-dasharray="5,2" d="M180.31,-611.36C163.7,-552.34 119.17,-371.69 150.12,-226 169.21,-136.18 167.14,-100.05 234.12,-37.25 244.24,-27.77 258.02,-21.6 270.81,-17.61"/>
<polygon fill="#9a32cd" stroke="#9a32cd" points="176.84,-611.95 182.97,-620.59 183.56,-610.01 176.84,-611.95"/>
</a>
</g>
<text xml:space="preserve" text-anchor="start" x="153.12" y="-261.25" font-family="Helvetica,sans-Serif" font-size="10.00" fill="grey">mainthread</text>
<text xml:space="preserve" text-anchor="start" x="153.12" y="-246" font-family="Helvetica,sans-Serif" font-size="10.00" fill="grey">panic</text>
<text xml:space="preserve" text-anchor="start" x="153.12" y="-230.75" font-family="Helvetica,sans-Serif" font-size="10.00" fill="grey">twups</text>
</g>
<!-- Node13 -->
<g id="Node000013" class="node">
<title>Node13</title>
<g id="a_Node000013"><a xlink:href="union_value.html" target="_top" xlink:title=" ">
<polygon fill="white" stroke="#666666" points="497.12,-540.62 457.12,-540.62 457.12,-521.38 497.12,-521.38 497.12,-540.62"/>
<text xml:space="preserve" text-anchor="middle" x="477.12" y="-527.12" font-family="Helvetica,sans-Serif" font-size="10.00">Value</text>
</a>
</g>
</g>
<!-- Node2&#45;&gt;Node13 -->
<g id="edge19_Node000013_Node000002" class="edge">
<title>Node2&#45;&gt;Node13</title>
<g id="a_edge19_Node000013_Node000002"><a xlink:title=" ">
<path fill="none" stroke="#9a32cd" stroke-dasharray="5,2" d="M222.28,-618.19C260.27,-604.78 321.79,-583.22 375.12,-565.25 403.37,-555.74 436.15,-545.13 456.77,-538.51"/>
<polygon fill="#9a32cd" stroke="#9a32cd" points="221.44,-614.77 213.18,-621.4 223.77,-621.37 221.44,-614.77"/>
</a>
</g>
<text xml:space="preserve" text-anchor="start" x="378.12" y="-577.62" font-family="Helvetica,sans-Serif" font-size="10.00" fill="grey">f</text>
</g>
<!-- Node14 -->
<g id="Node000014" class="node">
<title>Node14</title>
<g id="a_Node000014"><a xlink:href="struct_call_info.html" target="_top" xlink:title=" ">
<polygon fill="white" stroke="#666666" points="60,-540.62 10.25,-540.62 10.25,-521.38 60,-521.38 60,-540.62"/>
<text xml:space="preserve" text-anchor="middle" x="35.12" y="-527.12" font-family="Helvetica,sans-Serif" font-size="10.00">CallInfo</text>
</a>
</g>
</g>
<!-- Node2&#45;&gt;Node14 -->
<g id="edge26_Node000014_Node000002" class="edge">
<title>Node2&#45;&gt;Node14</title>
<g id="a_edge26_Node000014_Node000002"><a xlink:title=" ">
<path fill="none" stroke="#9a32cd" stroke-dasharray="5,2" d="M145.96,-629.98C118.33,-627.23 82.48,-619.3 58.88,-597.75 42.38,-582.69 37.33,-555.31 35.79,-541.1"/>
<polygon fill="#9a32cd" stroke="#9a32cd" points="145.49,-633.46 155.74,-630.75 146.04,-626.48 145.49,-633.46"/>
</a>
</g>
<text xml:space="preserve" text-anchor="start" x="61.88" y="-577.62" font-family="Helvetica,sans-Serif" font-size="10.00" fill="grey">k</text>
</g>
<!-- Node3 -->
<g id="Node000003" class="node">
<title>Node3</title>
<g id="a_Node000003"><a xlink:href="union_stk_id_rel.html" target="_top" xlink:title=" ">
<polygon fill="white" stroke="#666666" points="54.25,-766.5 0,-766.5 0,-747.25 54.25,-747.25 54.25,-766.5"/>
<text xml:space="preserve" text-anchor="middle" x="27.12" y="-753" font-family="Helvetica,sans-Serif" font-size="10.00">StkIdRel</text>
</a>
</g>
</g>
<!-- Node3&#45;&gt;Node2 -->
<g id="edge2_Node000002_Node000003" class="edge">
<title>Node3&#45;&gt;Node2</title>
<g id="a_edge2_Node000002_Node000003"><a xlink:title=" ">
<path fill="none" stroke="#9a32cd" stroke-dasharray="5,2" d="M37.16,-737.01C38.51,-734.41 39.86,-731.77 41.12,-729.25 55.01,-701.52 47.48,-686.32 71.12,-666.25 95.37,-645.67 131.71,-637.81 157.03,-634.82"/>
<polygon fill="#9a32cd" stroke="#9a32cd" points="34.15,-735.23 32.59,-745.71 40.34,-738.49 34.15,-735.23"/>
</a>
</g>
<text xml:space="preserve" text-anchor="start" x="74.12" y="-716.75" font-family="Helvetica,sans-Serif" font-size="10.00" fill="grey">stack</text>
<text xml:space="preserve" text-anchor="start" x="74.12" y="-701.5" font-family="Helvetica,sans-Serif" font-size="10.00" fill="grey">stack_last</text>
<text xml:space="preserve" text-anchor="start" x="74.12" y="-686.25" font-family="Helvetica,sans-Serif" font-size="10.00" fill="grey">tbclist</text>
<text xml:space="preserve" text-anchor="start" x="74.12" y="-671" font-family="Helvetica,sans-Serif" font-size="10.00" fill="grey">top</text>
</g>
<!-- Node3&#45;&gt;Node14 -->
<g id="edge24_Node000014_Node000003" class="edge">
<title>Node3&#45;&gt;Node14</title>
<g id="a_edge24_Node000014_Node000003"><a xlink:title=" ">
<path fill="none" stroke="#9a32cd" stroke-dasharray="5,2" d="M27.85,-735.46C29.54,-688.39 33.63,-573.75 34.81,-540.92"/>
<polygon fill="#9a32cd" stroke="#9a32cd" points="24.36,-735.19 27.5,-745.31 31.36,-735.44 24.36,-735.19"/>
</a>
</g>
<text xml:space="preserve" text-anchor="start" x="35.05" y="-635.75" font-family="Helvetica,sans-Serif" font-size="10.00" fill="grey">func</text>
<text xml:space="preserve" text-anchor="start" x="35.05" y="-620.5" font-family="Helvetica,sans-Serif" font-size="10.00" fill="grey">top</text>
</g>
<!-- Node4 -->
<g id="Node000004" class="node">
<title>Node4</title>
<g id="a_Node000004"><a xlink:href="union_stack_value.html" target="_top" xlink:title=" ">
<polygon fill="white" stroke="#666666" points="231.88,-854.25 166.38,-854.25 166.38,-835 231.88,-835 231.88,-854.25"/>
<text xml:space="preserve" text-anchor="middle" x="199.12" y="-840.75" font-family="Helvetica,sans-Serif" font-size="10.00">StackValue</text>
</a>
</g>
</g>
<!-- Node4&#45;&gt;Node3 -->
<g id="edge3_Node000003_Node000004" class="edge">
<title>Node4&#45;&gt;Node3</title>
<g id="a_edge3_Node000003_Node000004"><a xlink:title=" ">
<path fill="none" stroke="#9a32cd" stroke-dasharray="5,2" d="M170.84,-829.53C135.26,-811.78 75.17,-781.83 45.22,-766.9"/>
<polygon fill="#9a32cd" stroke="#9a32cd" points="169.18,-832.61 179.69,-833.94 172.3,-826.34 169.18,-832.61"/>
</a>
</g>
<text xml:space="preserve" text-anchor="start" x="146.49" y="-796.88" font-family="Helvetica,sans-Serif" font-size="10.00" fill="grey">p</text>
</g>
<!-- Node5 -->
<g id="Node000005" class="node">
<title>Node5</title>
<g id="a_Node000005"><a xlink:href="struct_t_value.html" target="_top" xlink:title=" ">
<polygon fill="white" stroke="#666666" points="348.12,-942 302.12,-942 302.12,-922.75 348.12,-922.75 348.12,-942"/>
<text xml:space="preserve" text-anchor="middle" x="325.12" y="-928.5" font-family="Helvetica,sans-Serif" font-size="10.00">TValue</text>
</a>
</g>
</g>
<!-- Node5&#45;&gt;Node4 -->
<g id="edge4_Node000004_Node000005" class="edge">
<title>Node5&#45;&gt;Node4</title>
<g id="a_edge4_Node000004_Node000005"><a xlink:title=" ">
<path fill="none" stroke="#9a32cd" stroke-dasharray="5,2" d="M290.6,-929.32C269.92,-926.46 244.26,-919.85 226.38,-904.75 210.83,-891.63 203.67,-867.73 200.79,-854.69"/>
<polygon fill="#9a32cd" stroke="#9a32cd" points="289.97,-932.77 300.3,-930.41 290.75,-925.81 289.97,-932.77"/>
</a>
</g>
<text xml:space="preserve" text-anchor="start" x="229.38" y="-884.62" font-family="Helvetica,sans-Serif" font-size="10.00" fill="grey">val</text>
</g>
<!-- Node5&#45;&gt;Node6 -->
<g id="edge9_Node000006_Node000005" class="edge">
<title>Node5&#45;&gt;Node6</title>
<g id="a_edge9_Node000006_Node000005"><a xlink:title=" ">
<path fill="none" stroke="#9a32cd" stroke-dasharray="5,2" d="M325.12,-910.87C325.12,-893.49 325.12,-867.93 325.12,-845.62 325.12,-845.62 325.12,-845.62 325.12,-580.5 325.12,-405.19 265.95,-363.56 279.12,-188.75 284.06,-123.25 299.07,-45.35 304.3,-19.47"/>
<polygon fill="#9a32cd" stroke="#9a32cd" points="321.63,-910.85 325.13,-920.85 328.63,-910.85 321.63,-910.85"/>
</a>
</g>
<text xml:space="preserve" text-anchor="start" x="327.34" y="-534.75" font-family="Helvetica,sans-Serif" font-size="10.00" fill="grey">l_registry</text>
<text xml:space="preserve" text-anchor="start" x="327.34" y="-519.5" font-family="Helvetica,sans-Serif" font-size="10.00" fill="grey">nilvalue</text>
</g>
<!-- Node10 -->
<g id="Node000010" class="node">
<title>Node10</title>
<g id="a_Node000010"><a xlink:href="struct_table.html" target="_top" xlink:title=" ">
<polygon fill="white" stroke="#666666" points="499.75,-106 460.5,-106 460.5,-86.75 499.75,-86.75 499.75,-106"/>
<text xml:space="preserve" text-anchor="middle" x="480.12" y="-92.5" font-family="Helvetica,sans-Serif" font-size="10.00">Table</text>
</a>
</g>
</g>
<!-- Node5&#45;&gt;Node10 -->
<g id="edge14_Node000010_Node000005" class="edge">
<title>Node5&#45;&gt;Node10</title>
<g id="a_edge14_Node000010_Node000005"><a xlink:title=" ">
<path fill="none" stroke="#9a32cd" stroke-dasharray="5,2" d="M353.37,-916.46C376.74,-901.85 406.12,-877.2 406.12,-845.62 406.12,-845.62 406.12,-845.62 406.12,-487.12 406.12,-353.01 414.41,-317.74 451.12,-188.75 459.78,-158.34 471.56,-122.73 477.06,-106.4"/>
<polygon fill="#9a32cd" stroke="#9a32cd" points="351.65,-913.41 344.81,-921.5 355.2,-919.44 351.65,-913.41"/>
</a>
</g>
<text xml:space="preserve" text-anchor="start" x="409.12" y="-577.62" font-family="Helvetica,sans-Serif" font-size="10.00" fill="grey">array</text>
</g>
<!-- Node11 -->
<g id="Node000011" class="node">
<title>Node11</title>
<g id="a_Node000011"><a xlink:href="union_node.html" target="_top" xlink:title=" ">
<polygon fill="white" stroke="#666666" points="499.75,-208 460.5,-208 460.5,-188.75 499.75,-188.75 499.75,-208"/>
<text xml:space="preserve" text-anchor="middle" x="480.12" y="-194.5" font-family="Helvetica,sans-Serif" font-size="10.00">Node</text>
</a>
</g>
</g>
<!-- Node5&#45;&gt;Node11 -->
<g id="edge20_Node000011_Node000005" class="edge">
<title>Node5&#45;&gt;Node11</title>
<g id="a_edge20_Node000011_Node000005"><a xlink:title=" ">
<path fill="none" stroke="#9a32cd" stroke-dasharray="5,2" d="M359.72,-930.25C448.25,-926.43 676.12,-910.32 676.12,-845.62 676.12,-845.62 676.12,-845.62 676.12,-375.62 676.12,-336.85 676.45,-321.94 652.12,-291.75 611.61,-241.47 536.15,-214.87 500.19,-204.55"/>
<polygon fill="#9a32cd" stroke="#9a32cd" points="359.79,-926.74 349.94,-930.64 360.07,-933.74 359.79,-926.74"/>
</a>
</g>
<text xml:space="preserve" text-anchor="start" x="679.12" y="-628.12" font-family="Helvetica,sans-Serif" font-size="10.00" fill="grey">i_val</text>
</g>
<!-- Node15 -->
<g id="Node000015" class="node">
<title>Node15</title>
<g id="a_Node000015"><a xlink:href="struct_up_val.html" target="_top" xlink:title=" ">
<polygon fill="white" stroke="#666666" points="249.25,-810.38 207,-810.38 207,-791.12 249.25,-791.12 249.25,-810.38"/>
<text xml:space="preserve" text-anchor="middle" x="228.12" y="-796.88" font-family="Helvetica,sans-Serif" font-size="10.00">UpVal</text>
</a>
</g>
</g>
<!-- Node5&#45;&gt;Node15 -->
<g id="edge28_Node000015_Node000005" class="edge">
<title>Node5&#45;&gt;Node15</title>
<g id="a_edge28_Node000015_Node000005"><a xlink:title=" ">
<path fill="none" stroke="#9a32cd" stroke-dasharray="5,2" d="M296.08,-916.52C290.97,-913.1 285.98,-909.15 281.88,-904.75 267.78,-889.62 241.79,-832.67 232,-810.58"/>
<polygon fill="#9a32cd" stroke="#9a32cd" points="294.19,-919.47 304.56,-921.66 297.82,-913.48 294.19,-919.47"/>
</a>
</g>
<text xml:space="preserve" text-anchor="start" x="284.88" y="-892.25" font-family="Helvetica,sans-Serif" font-size="10.00" fill="grey">p</text>
<text xml:space="preserve" text-anchor="start" x="284.88" y="-877" font-family="Helvetica,sans-Serif" font-size="10.00" fill="grey">value</text>
</g>
<!-- Node6&#45;&gt;Node2 -->
<g id="edge5_Node000002_Node000006" class="edge">
<title>Node6&#45;&gt;Node2</title>
<g id="a_edge5_Node000002_Node000006"><a xlink:title=" ">
<path fill="none" stroke="#9a32cd" stroke-dasharray="5,2" d="M260.83,-24.22C255.14,-27.65 249.98,-31.93 246.12,-37.25 210.19,-86.86 189.44,-551.55 186.49,-622.05"/>
<polygon fill="#9a32cd" stroke="#9a32cd" points="262.05,-27.53 269.4,-19.9 258.89,-21.28 262.05,-27.53"/>
</a>
</g>
<text xml:space="preserve" text-anchor="start" x="215.15" y="-246" font-family="Helvetica,sans-Serif" font-size="10.00" fill="grey">l_G</text>
</g>
<!-- Node7 -->
<g id="Node000007" class="node">
<title>Node7</title>
<g id="a_Node000007"><a xlink:href="structstringtable.html" target="_top" xlink:title=" ">
<polygon fill="white" stroke="#666666" points="442.62,-106 381.62,-106 381.62,-86.75 442.62,-86.75 442.62,-106"/>
<text xml:space="preserve" text-anchor="middle" x="412.12" y="-92.5" font-family="Helvetica,sans-Serif" font-size="10.00">stringtable</text>
</a>
</g>
</g>
<!-- Node7&#45;&gt;Node6 -->
<g id="edge6_Node000006_Node000007" class="edge">
<title>Node7&#45;&gt;Node6</title>
<g id="a_edge6_Node000006_Node000007"><a xlink:title=" ">
<path fill="none" stroke="#9a32cd" stroke-dasharray="5,2" d="M391.88,-79.19C369.75,-61.5 335.11,-33.8 317.39,-19.63"/>
<polygon fill="#9a32cd" stroke="#9a32cd" points="389.6,-81.85 399.6,-85.36 393.97,-76.38 389.6,-81.85"/>
</a>
</g>
<text xml:space="preserve" text-anchor="start" x="362.12" y="-42" font-family="Helvetica,sans-Serif" font-size="10.00" fill="grey">strt</text>
</g>
<!-- Node8 -->
<g id="Node000008" class="node">
<title>Node8</title>
<g id="a_Node000008"><a xlink:href="struct_t_string.html" target="_top" xlink:title=" ">
<polygon fill="white" stroke="#666666" points="335.88,-208 288.38,-208 288.38,-188.75 335.88,-188.75 335.88,-208"/>
<text xml:space="preserve" text-anchor="middle" x="312.12" y="-194.5" font-family="Helvetica,sans-Serif" font-size="10.00">TString</text>
</a>
</g>
</g>
<!-- Node8&#45;&gt;Node6 -->
<g id="edge12_Node000006_Node000008" class="edge">
<title>Node8&#45;&gt;Node6</title>
<g id="a_edge12_Node000006_Node000008"><a xlink:title=" ">
<path fill="none" stroke="#9a32cd" stroke-dasharray="5,2" d="M311.47,-177.12C310.18,-136.81 307.32,-47.95 306.41,-19.54"/>
<polygon fill="#9a32cd" stroke="#9a32cd" points="307.97,-176.97 311.79,-186.85 314.96,-176.75 307.97,-176.97"/>
</a>
</g>
<text xml:space="preserve" text-anchor="start" x="312.62" y="-107.75" font-family="Helvetica,sans-Serif" font-size="10.00" fill="grey">memerrmsg</text>
<text xml:space="preserve" text-anchor="start" x="312.62" y="-92.5" font-family="Helvetica,sans-Serif" font-size="10.00" fill="grey">strcache</text>
<text xml:space="preserve" text-anchor="start" x="312.62" y="-77.25" font-family="Helvetica,sans-Serif" font-size="10.00" fill="grey">tmname</text>
</g>
<!-- Node8&#45;&gt;Node7 -->
<g id="edge7_Node000007_Node000008" class="edge">
<title>Node8&#45;&gt;Node7</title>
<g id="a_edge7_Node000007_Node000008"><a xlink:title=" ">
<path fill="none" stroke="#9a32cd" stroke-dasharray="5,2" d="M328.99,-180.46C340.78,-168.63 356.9,-152.46 371.12,-138.25 382.07,-127.31 394.69,-114.74 403,-106.46"/>
<polygon fill="#9a32cd" stroke="#9a32cd" points="326.56,-177.93 321.98,-187.48 331.52,-182.87 326.56,-177.93"/>
</a>
</g>
<text xml:space="preserve" text-anchor="start" x="374.12" y="-150.62" font-family="Helvetica,sans-Serif" font-size="10.00" fill="grey">hash</text>
</g>
<!-- Node8&#45;&gt;Node8 -->
<g id="edge8_Node000008_Node000008" class="edge">
<title>Node8&#45;&gt;Node8</title>
<g id="a_edge8_Node000008_Node000008"><a xlink:title=" ">
<path fill="none" stroke="#9a32cd" stroke-dasharray="5,2" d="M347.36,-205.33C351.32,-204.02 353.88,-201.7 353.88,-198.38 353.88,-192.46 345.79,-189.74 336.15,-190.2"/>
<polygon fill="#9a32cd" stroke="#9a32cd" points="347.22,-201.82 337.66,-206.39 347.98,-208.78 347.22,-201.82"/>
</a>
</g>
<text xml:space="preserve" text-anchor="start" x="356.88" y="-194.5" font-family="Helvetica,sans-Serif" font-size="10.00" fill="grey">hnext</text>
</g>
<!-- Node9 -->
<g id="Node000009" class="node">
<title>Node9</title>
<g id="a_Node000009"><a xlink:href="struct_g_c_object.html" target="_top" xlink:title=" ">
<polygon fill="white" stroke="#666666" points="552.88,-766.5 493.38,-766.5 493.38,-747.25 552.88,-747.25 552.88,-766.5"/>
<text xml:space="preserve" text-anchor="middle" x="523.12" y="-753" font-family="Helvetica,sans-Serif" font-size="10.00">GCObject</text>
</a>
</g>
</g>
<!-- Node9&#45;&gt;Node2 -->
<g id="edge30_Node000002_Node000009" class="edge">
<title>Node9&#45;&gt;Node2</title>
<g id="a_edge30_Node000002_Node000009"><a xlink:title=" ">
<path fill="none" stroke="#9a32cd" stroke-dasharray="5,2" d="M487.68,-742.95C419.14,-717.96 270.01,-663.59 210.94,-642.05"/>
<polygon fill="#9a32cd" stroke="#9a32cd" points="486.33,-746.18 496.92,-746.32 488.73,-739.61 486.33,-746.18"/>
</a>
</g>
<text xml:space="preserve" text-anchor="start" x="444.68" y="-693.88" font-family="Helvetica,sans-Serif" font-size="10.00" fill="grey">gclist</text>
</g>
<!-- Node9&#45;&gt;Node6 -->
<g id="edge10_Node000006_Node000009" class="edge">
<title>Node9&#45;&gt;Node6</title>
<g id="a_edge10_Node000006_Node000009"><a xlink:title=" ">
<path fill="none" stroke="#9a32cd" stroke-dasharray="5,2" d="M544.25,-739.32C547.48,-736.2 550.58,-732.79 553.12,-729.25 580.29,-691.51 594.12,-679.5 594.12,-633 594.12,-633 594.12,-633 594.12,-95.38 594.12,-43.26 418.34,-20.85 341.44,-13.53"/>
<polygon fill="#9a32cd" stroke="#9a32cd" points="542.04,-736.6 536.83,-745.82 546.66,-741.86 542.04,-736.6"/>
</a>
</g>
<text xml:space="preserve" text-anchor="start" x="597.12" y="-449" font-family="Helvetica,sans-Serif" font-size="10.00" fill="grey">allgc</text>
<text xml:space="preserve" text-anchor="start" x="597.12" y="-433.75" font-family="Helvetica,sans-Serif" font-size="10.00" fill="grey">allweak</text>
<text xml:space="preserve" text-anchor="start" x="597.12" y="-418.5" font-family="Helvetica,sans-Serif" font-size="10.00" fill="grey">ephemeron</text>
<text xml:space="preserve" text-anchor="start" x="597.12" y="-403.25" font-family="Helvetica,sans-Serif" font-size="10.00" fill="grey">finobj</text>
<text xml:space="preserve" text-anchor="start" x="597.12" y="-388" font-family="Helvetica,sans-Serif" font-size="10.00" fill="grey">finobjold1</text>
<text xml:space="preserve" text-anchor="start" x="597.12" y="-372.75" font-family="Helvetica,sans-Serif" font-size="10.00" fill="grey">finobjrold</text>
<text xml:space="preserve" text-anchor="start" x="597.12" y="-357.5" font-family="Helvetica,sans-Serif" font-size="10.00" fill="grey">finobjsur</text>
<text xml:space="preserve" text-anchor="start" x="597.12" y="-342.25" font-family="Helvetica,sans-Serif" font-size="10.00" fill="grey">firstold1</text>
<text xml:space="preserve" text-anchor="start" x="597.12" y="-327" font-family="Helvetica,sans-Serif" font-size="10.00" fill="grey">fixedgc</text>
<text xml:space="preserve" text-anchor="start" x="597.12" y="-311.75" font-family="Helvetica,sans-Serif" font-size="10.00" fill="grey">gray</text>
<text xml:space="preserve" text-anchor="start" x="597.12" y="-296.5" font-family="Helvetica,sans-Serif" font-size="10.00" fill="grey"> &#160;...</text>
</g>
<!-- Node9&#45;&gt;Node10 -->
<g id="edge22_Node000010_Node000009" class="edge">
<title>Node9&#45;&gt;Node10</title>
<g id="a_edge22_Node000010_Node000009"><a xlink:title=" ">
<path fill="none" stroke="#9a32cd" stroke-dasharray="5,2" d="M529.76,-735.89C537.17,-711.78 548.12,-669.89 548.12,-633 548.12,-633 548.12,-633 548.12,-197.38 548.12,-157.9 511.45,-122.48 491.97,-106.44"/>
<polygon fill="#9a32cd" stroke="#9a32cd" points="526.46,-734.72 526.75,-745.31 533.13,-736.85 526.46,-734.72"/>
</a>
</g>
<text xml:space="preserve" text-anchor="start" x="551.12" y="-484.25" font-family="Helvetica,sans-Serif" font-size="10.00" fill="grey">gclist</text>
</g>
<!-- Node9&#45;&gt;Node13 -->
<g id="edge18_Node000013_Node000009" class="edge">
<title>Node9&#45;&gt;Node13</title>
<g id="a_edge18_Node000013_Node000009"><a xlink:title=" ">
<path fill="none" stroke="#9a32cd" stroke-dasharray="5,2" d="M518.99,-735.76C509.36,-688.88 485.72,-573.82 478.96,-540.92"/>
<polygon fill="#9a32cd" stroke="#9a32cd" points="515.52,-736.25 520.96,-745.34 522.38,-734.84 515.52,-736.25"/>
</a>
</g>
<text xml:space="preserve" text-anchor="start" x="503.89" y="-628.12" font-family="Helvetica,sans-Serif" font-size="10.00" fill="grey">gc</text>
</g>
<!-- Node10&#45;&gt;Node6 -->
<g id="edge13_Node000006_Node000010" class="edge">
<title>Node10&#45;&gt;Node6</title>
<g id="a_edge13_Node000006_Node000010"><a xlink:title=" ">
<path fill="none" stroke="#9a32cd" stroke-dasharray="5,2" d="M461.27,-79.08C458.29,-76.76 455.18,-74.5 452.12,-72.5 423.29,-53.67 414.81,-50.74 383.12,-37.25 367.64,-30.65 349.91,-24.44 335.37,-19.67"/>
<polygon fill="#9a32cd" stroke="#9a32cd" points="459.03,-81.76 468.98,-85.4 463.47,-76.35 459.03,-81.76"/>
</a>
</g>
<text xml:space="preserve" text-anchor="start" x="424.02" y="-42" font-family="Helvetica,sans-Serif" font-size="10.00" fill="grey">mt</text>
</g>
<!-- Node10&#45;&gt;Node10 -->
<g id="edge21_Node000010_Node000010" class="edge">
<title>Node10&#45;&gt;Node10</title>
<g id="a_edge21_Node000010_Node000010"><a xlink:title=" ">
<path fill="none" stroke="#9a32cd" stroke-dasharray="5,2" d="M511.09,-104.69C515.1,-103.25 517.75,-100.48 517.75,-96.38 517.75,-89.08 509.37,-86 499.87,-87.14"/>
<polygon fill="#9a32cd" stroke="#9a32cd" points="511.06,-101.18 501.38,-105.49 511.63,-108.15 511.06,-101.18"/>
</a>
</g>
<text xml:space="preserve" text-anchor="start" x="520.75" y="-92.5" font-family="Helvetica,sans-Serif" font-size="10.00" fill="grey">metatable</text>
</g>
<!-- Node11&#45;&gt;Node10 -->
<g id="edge15_Node000010_Node000011" class="edge">
<title>Node11&#45;&gt;Node10</title>
<g id="a_edge15_Node000010_Node000011"><a xlink:title=" ">
<path fill="none" stroke="#9a32cd" stroke-dasharray="5,2" d="M480.12,-177.07C480.12,-155.45 480.12,-122.21 480.12,-106.37"/>
<polygon fill="#9a32cd" stroke="#9a32cd" points="476.63,-176.99 480.13,-186.99 483.63,-176.99 476.63,-176.99"/>
</a>
</g>
<text xml:space="preserve" text-anchor="start" x="483.12" y="-158.25" font-family="Helvetica,sans-Serif" font-size="10.00" fill="grey">lastfree</text>
<text xml:space="preserve" text-anchor="start" x="483.12" y="-143" font-family="Helvetica,sans-Serif" font-size="10.00" fill="grey">node</text>
</g>
<!-- Node12 -->
<g id="Node000012" class="node">
<title>Node12</title>
<g id="a_Node000012"><a xlink:href="struct_node_1_1_node_key.html" target="_top" xlink:title=" ">
<polygon fill="white" stroke="#666666" points="520,-386.25 434.25,-386.25 434.25,-367 520,-367 520,-386.25"/>
<text xml:space="preserve" text-anchor="middle" x="477.12" y="-372.75" font-family="Helvetica,sans-Serif" font-size="10.00">Node::NodeKey</text>
</a>
</g>
</g>
<!-- Node12&#45;&gt;Node11 -->
<g id="edge16_Node000011_Node000012" class="edge">
<title>Node12&#45;&gt;Node11</title>
<g id="a_edge16_Node000011_Node000012"><a xlink:title=" ">
<path fill="none" stroke="#9a32cd" stroke-dasharray="5,2" d="M477.47,-355.2C478.13,-316.73 479.52,-234.99 479.98,-208.13"/>
<polygon fill="#9a32cd" stroke="#9a32cd" points="473.97,-355.07 477.3,-365.13 480.97,-355.19 473.97,-355.07"/>
</a>
</g>
<text xml:space="preserve" text-anchor="start" x="482.62" y="-246" font-family="Helvetica,sans-Serif" font-size="10.00" fill="grey">u</text>
</g>
<!-- Node13&#45;&gt;Node12 -->
<g id="edge17_Node000012_Node000013" class="edge">
<title>Node13&#45;&gt;Node12</title>
<g id="a_edge17_Node000012_Node000013"><a xlink:title=" ">
<path fill="none" stroke="#9a32cd" stroke-dasharray="5,2" d="M477.12,-509.8C477.12,-476.22 477.12,-410.27 477.12,-386.46"/>
<polygon fill="#9a32cd" stroke="#9a32cd" points="473.63,-509.41 477.13,-519.41 480.63,-509.41 473.63,-509.41"/>
</a>
</g>
<text xml:space="preserve" text-anchor="start" x="480.12" y="-484.25" font-family="Helvetica,sans-Serif" font-size="10.00" fill="grey">key_val</text>
</g>
<!-- Node14&#45;&gt;Node2 -->
<g id="edge23_Node000002_Node000014" class="edge">
<title>Node14&#45;&gt;Node2</title>
<g id="a_edge23_Node000002_Node000014"><a xlink:title=" ">
<path fill="none" stroke="#9a32cd" stroke-dasharray="5,2" d="M54.98,-548.41C60.75,-553.56 66.91,-559.42 72.12,-565.25 83.97,-578.49 81.24,-586.99 95.38,-597.75 113.67,-611.67 138.37,-620.21 157.39,-625.15"/>
<polygon fill="#9a32cd" stroke="#9a32cd" points="57.4,-545.88 47.54,-542.01 52.84,-551.18 57.4,-545.88"/>
</a>
</g>
<text xml:space="preserve" text-anchor="start" x="98.38" y="-585.25" font-family="Helvetica,sans-Serif" font-size="10.00" fill="grey">base_ci</text>
<text xml:space="preserve" text-anchor="start" x="98.38" y="-570" font-family="Helvetica,sans-Serif" font-size="10.00" fill="grey">ci</text>
</g>
<!-- Node14&#45;&gt;Node14 -->
<g id="edge25_Node000014_Node000014" class="edge">
<title>Node14&#45;&gt;Node14</title>
<g id="a_edge25_Node000014_Node000014"><a xlink:title=" ">
<path fill="none" stroke="#9a32cd" stroke-dasharray="5,2" d="M71.49,-537.74C75.45,-536.45 78,-534.2 78,-531 78,-525.31 69.93,-522.64 60.23,-522.99"/>
<polygon fill="#9a32cd" stroke="#9a32cd" points="71.28,-534.24 61.73,-538.84 72.06,-541.2 71.28,-534.24"/>
</a>
</g>
<text xml:space="preserve" text-anchor="start" x="81" y="-534.75" font-family="Helvetica,sans-Serif" font-size="10.00" fill="grey">next</text>
<text xml:space="preserve" text-anchor="start" x="81" y="-519.5" font-family="Helvetica,sans-Serif" font-size="10.00" fill="grey">previous</text>
</g>
<!-- Node15&#45;&gt;Node2 -->
<g id="edge27_Node000002_Node000015" class="edge">
<title>Node15&#45;&gt;Node2</title>
<g id="a_edge27_Node000002_Node000015"><a xlink:title=" ">
<path fill="none" stroke="#9a32cd" stroke-dasharray="5,2" d="M229.6,-779.53C230.77,-752.56 230.12,-703.85 214.12,-666.25 210.17,-656.94 202.68,-648.27 196.44,-642.12"/>
<polygon fill="#9a32cd" stroke="#9a32cd" points="226.11,-779.18 229.02,-789.37 233.1,-779.59 226.11,-779.18"/>
</a>
</g>
<text xml:space="preserve" text-anchor="start" x="232.97" y="-753" font-family="Helvetica,sans-Serif" font-size="10.00" fill="grey">openupval</text>
</g>
<!-- Node15&#45;&gt;Node15 -->
<g id="edge29_Node000015_Node000015" class="edge">
<title>Node15&#45;&gt;Node15</title>
<g id="a_edge29_Node000015_Node000015"><a xlink:title=" ">
<path fill="none" stroke="#9a32cd" stroke-dasharray="5,2" d="M260.66,-807.87C264.64,-806.59 267.25,-804.22 267.25,-800.75 267.25,-794.58 259,-791.88 249.45,-792.65"/>
<polygon fill="#9a32cd" stroke="#9a32cd" points="260.62,-804.36 250.96,-808.72 261.23,-811.33 260.62,-804.36"/>
</a>
</g>
<text xml:space="preserve" text-anchor="start" x="270.25" y="-804.5" font-family="Helvetica,sans-Serif" font-size="10.00" fill="grey">next</text>
<text xml:space="preserve" text-anchor="start" x="270.25" y="-789.25" font-family="Helvetica,sans-Serif" font-size="10.00" fill="grey">previous</text>
</g>
<!-- Node16 -->
<g id="Node000016" class="node">
<title>Node16</title>
<g id="a_Node000016"><a xlink:href="structlua__longjmp.html" target="_top" xlink:title=" ">
<polygon fill="white" stroke="#666666" points="140,-766.5 72.25,-766.5 72.25,-747.25 140,-747.25 140,-766.5"/>
<text xml:space="preserve" text-anchor="middle" x="106.12" y="-753" font-family="Helvetica,sans-Serif" font-size="10.00">lua_longjmp</text>
</a>
</g>
</g>
<!-- Node16&#45;&gt;Node2 -->
<g id="edge32_Node000002_Node000016" class="edge">
<title>Node16&#45;&gt;Node2</title>
<g id="a_edge32_Node000002_Node000016"><a xlink:title=" ">
<path fill="none" stroke="#9a32cd" stroke-dasharray="5,2" d="M119.9,-737.98C122.02,-735.09 124.16,-732.11 126.12,-729.25 147.61,-697.9 170.8,-659.12 180.92,-641.92"/>
<polygon fill="#9a32cd" stroke="#9a32cd" points="117.13,-735.84 113.9,-745.93 122.72,-740.06 117.13,-735.84"/>
</a>
</g>
<text xml:space="preserve" text-anchor="start" x="168.42" y="-693.88" font-family="Helvetica,sans-Serif" font-size="10.00" fill="grey">errorJmp</text>
</g>
<!-- Node16&#45;&gt;Node16 -->
<g id="edge33_Node000016_Node000016" class="edge">
<title>Node16&#45;&gt;Node16</title>
<g id="a_edge33_Node000016_Node000016"><a xlink:title=" ">
<path fill="none" stroke="#9a32cd" stroke-dasharray="5,2" d="M151.21,-763.44C155.37,-762.09 158,-759.9 158,-756.88 158,-751.65 150.15,-748.91 140.05,-748.67"/>
<polygon fill="#9a32cd" stroke="#9a32cd" points="150.93,-759.95 141.55,-764.86 151.95,-766.87 150.93,-759.95"/>
</a>
</g>
<text xml:space="preserve" text-anchor="start" x="161" y="-753" font-family="Helvetica,sans-Serif" font-size="10.00" fill="grey">previous</text>
</g>
</g>
</svg>
