<?xml version="1.0" encoding="UTF-8" standalone="no"?>
<!DOCTYPE svg PUBLIC "-//W3C//DTD SVG 1.1//EN"
 "http://www.w3.org/Graphics/SVG/1.1/DTD/svg11.dtd">
<!-- Generated by graphviz version 13.1.0 (20250701.0955)
 -->
<!-- Title: luaL_Stream Pages: 1 -->
<!--zoomable 950 -->

<svg id="main" version="1.1" xmlns="http://www.w3.org/2000/svg" xmlns:xlink="http://www.w3.org/1999/xlink" xml:space="preserve" onload="init(evt)">

<style type="text/css"><![CDATA[
.node, .edge {opacity: 0.7;}
.node.selected, .edge.selected {opacity: 1;}
.edge:hover path { stroke: red; }
.edge:hover polygon { stroke: red; fill: red; }
]]></style>

<defs>
  <circle id="rim" cx="0" cy="0" r="7"/>
  <circle id="rim2" cx="0" cy="0" r="3.5"/>
  <g id="zoomPlus">
    <use xlink:href="#rim" fill="#404040"><set attributeName="fill" to="#808080" begin="zoomplus.mouseover" end="zoomplus.mouseout"/></use>
    <path d="M-4,0h8M0,-4v8" fill="none" stroke="white" stroke-width="1.5" pointer-events="none"/>
  </g>
  <g id="zoomMin">
    <use xlink:href="#rim" fill="#404040"><set attributeName="fill" to="#808080" begin="zoomminus.mouseover" end="zoomminus.mouseout"/></use>
    <path d="M-4,0h8" fill="none" stroke="white" stroke-width="1.5" pointer-events="none"/>
  </g>
  <g id="arrowUp" transform="translate(30 24)">
    <use xlink:href="#rim"/>
    <path pointer-events="none" fill="none" stroke="white" stroke-width="1.5" d="M0,-3.0v7 M-2.5,-0.5L0,-3.0L2.5,-0.5"/>
  </g>
  <g id="arrowRight" transform="rotate(90) translate(36 -43)">
    <use xlink:href="#rim"/>
    <path pointer-events="none" fill="none" stroke="white" stroke-width="1.5" d="M0,-3.0v7 M-2.5,-0.5L0,-3.0L2.5,-0.5"/>
  </g>
  <g id="arrowDown" transform="rotate(180) translate(-30 -48)">
    <use xlink:href="#rim"/>
    <path pointer-events="none" fill="none" stroke="white" stroke-width="1.5" d="M0,-3.0v7 M-2.5,-0.5L0,-3.0L2.5,-0.5"/>
  </g>
  <g id="arrowLeft" transform="rotate(270) translate(-36 17)">
    <use xlink:href="#rim"/>
    <path pointer-events="none" fill="none" stroke="white" stroke-width="1.5" d="M0,-3.0v7 M-2.5,-0.5L0,-3.0L2.5,-0.5"/>
  </g>
  <g id="resetDef">
    <use xlink:href="#rim2" fill="#404040"><set attributeName="fill" to="#808080" begin="reset.mouseover" end="reset.mouseout"/></use>
  </g>
</defs>
<script type="application/ecmascript">
var viewWidth = 699;
var viewHeight = 950;
var sectionId = 'dynsection-0';
</script>
<script type="application/ecmascript" xlink:href="svg.min.js"/>
<svg id="graph" class="graph">
<g id="viewport">
<title>luaL_Stream</title>
<!-- Node1 -->
<g id="Node000001" class="node">
<title>Node1</title>
<g id="a_Node000001"><a xlink:title=" ">
<polygon fill="#999999" stroke="#666666" points="284.5,-540.62 213.75,-540.62 213.75,-521.38 284.5,-521.38 284.5,-540.62"/>
<text xml:space="preserve" text-anchor="middle" x="249.12" y="-527.12" font-family="Helvetica,sans-Serif" font-size="10.00">luaL_Stream</text>
</a>
</g>
</g>
<!-- Node2 -->
<g id="Node000002" class="node">
<title>Node2</title>
<g id="a_Node000002"><a xlink:href="structlua___state.html" target="_top" xlink:title=" ">
<polygon fill="white" stroke="#666666" points="190.75,-641.62 133.5,-641.62 133.5,-622.38 190.75,-622.38 190.75,-641.62"/>
<text xml:space="preserve" text-anchor="middle" x="162.12" y="-628.12" font-family="Helvetica,sans-Serif" font-size="10.00">lua_State</text>
</a>
</g>
</g>
<!-- Node2&#45;&gt;Node1 -->
<g id="edge1_Node000001_Node000002" class="edge">
<title>Node2&#45;&gt;Node1</title>
<g id="a_edge1_Node000001_Node000002"><a xlink:title=" ">
<path fill="none" stroke="#9a32cd" stroke-dasharray="5,2" d="M182.47,-614.59C188.4,-609.45 194.74,-603.58 200.12,-597.75 217.52,-578.93 234.68,-554.07 243.33,-540.97"/>
<polygon fill="#9a32cd" stroke="#9a32cd" points="180.24,-611.9 174.83,-621.01 184.74,-617.26 180.24,-611.9"/>
</a>
</g>
<text xml:space="preserve" text-anchor="start" x="228.55" y="-577.62" font-family="Helvetica,sans-Serif" font-size="10.00" fill="grey">closef</text>
</g>
<!-- Node2&#45;&gt;Node2 -->
<g id="edge31_Node000002_Node000002" class="edge">
<title>Node2&#45;&gt;Node2</title>
<g id="a_edge31_Node000002_Node000002"><a xlink:title=" ">
<path fill="none" stroke="#9a32cd" stroke-dasharray="5,2" d="M201.89,-639.85C206.07,-638.32 208.75,-635.71 208.75,-632 208.75,-625.59 200.73,-622.43 190.81,-622.53"/>
<polygon fill="#9a32cd" stroke="#9a32cd" points="201.7,-636.35 192.31,-641.25 202.71,-643.27 201.7,-636.35"/>
</a>
</g>
<text xml:space="preserve" text-anchor="start" x="211.75" y="-628.12" font-family="Helvetica,sans-Serif" font-size="10.00" fill="grey">twups</text>
</g>
<!-- Node6 -->
<g id="Node000006" class="node">
<title>Node6</title>
<g id="a_Node000006"><a xlink:href="structglobal___state.html" target="_top" xlink:title=" ">
<polygon fill="white" stroke="#666666" points="330.12,-19.25 260.12,-19.25 260.12,0 330.12,0 330.12,-19.25"/>
<text xml:space="preserve" text-anchor="middle" x="295.12" y="-5.75" font-family="Helvetica,sans-Serif" font-size="10.00">global_State</text>
</a>
</g>
</g>
<!-- Node2&#45;&gt;Node6 -->
<g id="edge11_Node000006_Node000002" class="edge">
<title>Node2&#45;&gt;Node6</title>
<g id="a_edge11_Node000006_Node000002"><a xlink:title=" ">
<path fill="none" stroke="#9a32cd" stroke-dasharray="5,2" d="M156.72,-610.93C141.55,-551.38 101.7,-370.81 134.12,-226 154.39,-135.49 154.77,-99.94 223.12,-37.25 233.34,-27.88 247.14,-21.73 259.92,-17.73"/>
<polygon fill="#9a32cd" stroke="#9a32cd" points="153.33,-611.77 159.24,-620.56 160.1,-610 153.33,-611.77"/>
</a>
</g>
<text xml:space="preserve" text-anchor="start" x="137.12" y="-261.25" font-family="Helvetica,sans-Serif" font-size="10.00" fill="grey">mainthread</text>
<text xml:space="preserve" text-anchor="start" x="137.12" y="-246" font-family="Helvetica,sans-Serif" font-size="10.00" fill="grey">panic</text>
<text xml:space="preserve" text-anchor="start" x="137.12" y="-230.75" font-family="Helvetica,sans-Serif" font-size="10.00" fill="grey">twups</text>
</g>
<!-- Node13 -->
<g id="Node000013" class="node">
<title>Node13</title>
<g id="a_Node000013"><a xlink:href="union_value.html" target="_top" xlink:title=" ">
<polygon fill="white" stroke="#666666" points="486.12,-540.62 446.12,-540.62 446.12,-521.38 486.12,-521.38 486.12,-540.62"/>
<text xml:space="preserve" text-anchor="middle" x="466.12" y="-527.12" font-family="Helvetica,sans-Serif" font-size="10.00">Value</text>
</a>
</g>
</g>
<!-- Node2&#45;&gt;Node13 -->
<g id="edge19_Node000013_Node000002" class="edge">
<title>Node2&#45;&gt;Node13</title>
<g id="a_edge19_Node000013_Node000002"><a xlink:title=" ">
<path fill="none" stroke="#9a32cd" stroke-dasharray="5,2" d="M200.55,-618.49C265.77,-597.25 395.94,-554.86 445.93,-538.58"/>
<polygon fill="#9a32cd" stroke="#9a32cd" points="199.77,-615.06 191.35,-621.48 201.94,-621.71 199.77,-615.06"/>
</a>
</g>
<text xml:space="preserve" text-anchor="start" x="362.12" y="-577.62" font-family="Helvetica,sans-Serif" font-size="10.00" fill="grey">f</text>
</g>
<!-- Node14 -->
<g id="Node000014" class="node">
<title>Node14</title>
<g id="a_Node000014"><a xlink:href="struct_call_info.html" target="_top" xlink:title=" ">
<polygon fill="white" stroke="#666666" points="57,-540.62 7.25,-540.62 7.25,-521.38 57,-521.38 57,-540.62"/>
<text xml:space="preserve" text-anchor="middle" x="32.12" y="-527.12" font-family="Helvetica,sans-Serif" font-size="10.00">CallInfo</text>
</a>
</g>
</g>
<!-- Node2&#45;&gt;Node14 -->
<g id="edge26_Node000014_Node000002" class="edge">
<title>Node2&#45;&gt;Node14</title>
<g id="a_edge26_Node000014_Node000002"><a xlink:title=" ">
<path fill="none" stroke="#9a32cd" stroke-dasharray="5,2" d="M122.26,-627.18C100.2,-623.14 73.71,-614.83 55.88,-597.75 39.75,-582.31 34.53,-555.1 32.88,-541.01"/>
<polygon fill="#9a32cd" stroke="#9a32cd" points="121.41,-630.59 131.84,-628.7 122.51,-623.68 121.41,-630.59"/>
</a>
</g>
<text xml:space="preserve" text-anchor="start" x="58.88" y="-577.62" font-family="Helvetica,sans-Serif" font-size="10.00" fill="grey">k</text>
</g>
<!-- Node3 -->
<g id="Node000003" class="node">
<title>Node3</title>
<g id="a_Node000003"><a xlink:href="union_stk_id_rel.html" target="_top" xlink:title=" ">
<polygon fill="white" stroke="#666666" points="54.25,-766.5 0,-766.5 0,-747.25 54.25,-747.25 54.25,-766.5"/>
<text xml:space="preserve" text-anchor="middle" x="27.12" y="-753" font-family="Helvetica,sans-Serif" font-size="10.00">StkIdRel</text>
</a>
</g>
</g>
<!-- Node3&#45;&gt;Node2 -->
<g id="edge2_Node000002_Node000003" class="edge">
<title>Node3&#45;&gt;Node2</title>
<g id="a_edge2_Node000002_Node000003"><a xlink:title=" ">
<path fill="none" stroke="#9a32cd" stroke-dasharray="5,2" d="M35.21,-736.62C45.76,-711.84 63.53,-671.34 69.12,-666.25 86.89,-650.1 113.03,-641.67 133.08,-637.35"/>
<polygon fill="#9a32cd" stroke="#9a32cd" points="32.08,-735.05 31.41,-745.62 38.52,-737.77 32.08,-735.05"/>
</a>
</g>
<text xml:space="preserve" text-anchor="start" x="72.12" y="-716.75" font-family="Helvetica,sans-Serif" font-size="10.00" fill="grey">stack</text>
<text xml:space="preserve" text-anchor="start" x="72.12" y="-701.5" font-family="Helvetica,sans-Serif" font-size="10.00" fill="grey">stack_last</text>
<text xml:space="preserve" text-anchor="start" x="72.12" y="-686.25" font-family="Helvetica,sans-Serif" font-size="10.00" fill="grey">tbclist</text>
<text xml:space="preserve" text-anchor="start" x="72.12" y="-671" font-family="Helvetica,sans-Serif" font-size="10.00" fill="grey">top</text>
</g>
<!-- Node3&#45;&gt;Node14 -->
<g id="edge24_Node000014_Node000003" class="edge">
<title>Node3&#45;&gt;Node14</title>
<g id="a_edge24_Node000014_Node000003"><a xlink:title=" ">
<path fill="none" stroke="#9a32cd" stroke-dasharray="5,2" d="M27.58,-735.46C28.63,-688.39 31.19,-573.75 31.93,-540.92"/>
<polygon fill="#9a32cd" stroke="#9a32cd" points="24.09,-735.23 27.36,-745.31 31.08,-735.39 24.09,-735.23"/>
</a>
</g>
<text xml:space="preserve" text-anchor="start" x="33.2" y="-635.75" font-family="Helvetica,sans-Serif" font-size="10.00" fill="grey">func</text>
<text xml:space="preserve" text-anchor="start" x="33.2" y="-620.5" font-family="Helvetica,sans-Serif" font-size="10.00" fill="grey">top</text>
</g>
<!-- Node4 -->
<g id="Node000004" class="node">
<title>Node4</title>
<g id="a_Node000004"><a xlink:href="union_stack_value.html" target="_top" xlink:title=" ">
<polygon fill="white" stroke="#666666" points="226.88,-854.25 161.38,-854.25 161.38,-835 226.88,-835 226.88,-854.25"/>
<text xml:space="preserve" text-anchor="middle" x="194.12" y="-840.75" font-family="Helvetica,sans-Serif" font-size="10.00">StackValue</text>
</a>
</g>
</g>
<!-- Node4&#45;&gt;Node3 -->
<g id="edge3_Node000003_Node000004" class="edge">
<title>Node4&#45;&gt;Node3</title>
<g id="a_edge3_Node000003_Node000004"><a xlink:title=" ">
<path fill="none" stroke="#9a32cd" stroke-dasharray="5,2" d="M166.67,-829.53C132.11,-811.78 73.77,-781.83 44.7,-766.9"/>
<polygon fill="#9a32cd" stroke="#9a32cd" points="164.73,-832.46 175.22,-833.92 167.93,-826.24 164.73,-832.46"/>
</a>
</g>
<text xml:space="preserve" text-anchor="start" x="143.11" y="-796.88" font-family="Helvetica,sans-Serif" font-size="10.00" fill="grey">p</text>
</g>
<!-- Node5 -->
<g id="Node000005" class="node">
<title>Node5</title>
<g id="a_Node000005"><a xlink:href="struct_t_value.html" target="_top" xlink:title=" ">
<polygon fill="white" stroke="#666666" points="343.12,-942 297.12,-942 297.12,-922.75 343.12,-922.75 343.12,-942"/>
<text xml:space="preserve" text-anchor="middle" x="320.12" y="-928.5" font-family="Helvetica,sans-Serif" font-size="10.00">TValue</text>
</a>
</g>
</g>
<!-- Node5&#45;&gt;Node4 -->
<g id="edge4_Node000004_Node000005" class="edge">
<title>Node5&#45;&gt;Node4</title>
<g id="a_edge4_Node000004_Node000005"><a xlink:title=" ">
<path fill="none" stroke="#9a32cd" stroke-dasharray="5,2" d="M285.6,-929.32C264.92,-926.46 239.26,-919.85 221.38,-904.75 205.83,-891.63 198.67,-867.73 195.79,-854.69"/>
<polygon fill="#9a32cd" stroke="#9a32cd" points="284.97,-932.77 295.3,-930.41 285.75,-925.81 284.97,-932.77"/>
</a>
</g>
<text xml:space="preserve" text-anchor="start" x="224.38" y="-884.62" font-family="Helvetica,sans-Serif" font-size="10.00" fill="grey">val</text>
</g>
<!-- Node5&#45;&gt;Node6 -->
<g id="edge9_Node000006_Node000005" class="edge">
<title>Node5&#45;&gt;Node6</title>
<g id="a_edge9_Node000006_Node000005"><a xlink:title=" ">
<path fill="none" stroke="#9a32cd" stroke-dasharray="5,2" d="M320.12,-910.87C320.12,-893.49 320.12,-867.93 320.12,-845.62 320.12,-845.62 320.12,-845.62 320.12,-580.5 320.12,-404.86 254.93,-363.89 268.12,-188.75 273.06,-123.25 288.07,-45.35 293.3,-19.47"/>
<polygon fill="#9a32cd" stroke="#9a32cd" points="316.63,-910.85 320.13,-920.85 323.63,-910.85 316.63,-910.85"/>
</a>
</g>
<text xml:space="preserve" text-anchor="start" x="322.26" y="-534.75" font-family="Helvetica,sans-Serif" font-size="10.00" fill="grey">l_registry</text>
<text xml:space="preserve" text-anchor="start" x="322.26" y="-519.5" font-family="Helvetica,sans-Serif" font-size="10.00" fill="grey">nilvalue</text>
</g>
<!-- Node10 -->
<g id="Node000010" class="node">
<title>Node10</title>
<g id="a_Node000010"><a xlink:href="struct_table.html" target="_top" xlink:title=" ">
<polygon fill="white" stroke="#666666" points="488.75,-106 449.5,-106 449.5,-86.75 488.75,-86.75 488.75,-106"/>
<text xml:space="preserve" text-anchor="middle" x="469.12" y="-92.5" font-family="Helvetica,sans-Serif" font-size="10.00">Table</text>
</a>
</g>
</g>
<!-- Node5&#45;&gt;Node10 -->
<g id="edge14_Node000010_Node000005" class="edge">
<title>Node5&#45;&gt;Node10</title>
<g id="a_edge14_Node000010_Node000005"><a xlink:title=" ">
<path fill="none" stroke="#9a32cd" stroke-dasharray="5,2" d="M345.84,-916.25C367.55,-901.32 395.12,-876.33 395.12,-845.62 395.12,-845.62 395.12,-845.62 395.12,-487.12 395.12,-353.01 403.41,-317.74 440.12,-188.75 448.78,-158.34 460.56,-122.73 466.06,-106.4"/>
<polygon fill="#9a32cd" stroke="#9a32cd" points="344.15,-913.17 337.67,-921.55 347.96,-919.04 344.15,-913.17"/>
</a>
</g>
<text xml:space="preserve" text-anchor="start" x="398.12" y="-577.62" font-family="Helvetica,sans-Serif" font-size="10.00" fill="grey">array</text>
</g>
<!-- Node11 -->
<g id="Node000011" class="node">
<title>Node11</title>
<g id="a_Node000011"><a xlink:href="union_node.html" target="_top" xlink:title=" ">
<polygon fill="white" stroke="#666666" points="488.75,-208 449.5,-208 449.5,-188.75 488.75,-188.75 488.75,-208"/>
<text xml:space="preserve" text-anchor="middle" x="469.12" y="-194.5" font-family="Helvetica,sans-Serif" font-size="10.00">Node</text>
</a>
</g>
</g>
<!-- Node5&#45;&gt;Node11 -->
<g id="edge20_Node000011_Node000005" class="edge">
<title>Node5&#45;&gt;Node11</title>
<g id="a_edge20_Node000011_Node000005"><a xlink:title=" ">
<path fill="none" stroke="#9a32cd" stroke-dasharray="5,2" d="M355,-930.09C442.64,-925.91 665.12,-909.07 665.12,-845.62 665.12,-845.62 665.12,-845.62 665.12,-375.62 665.12,-336.85 665.45,-321.94 641.12,-291.75 600.61,-241.47 525.15,-214.87 489.19,-204.55"/>
<polygon fill="#9a32cd" stroke="#9a32cd" points="354.91,-926.59 345.08,-930.53 355.22,-933.58 354.91,-926.59"/>
</a>
</g>
<text xml:space="preserve" text-anchor="start" x="668.12" y="-628.12" font-family="Helvetica,sans-Serif" font-size="10.00" fill="grey">i_val</text>
</g>
<!-- Node15 -->
<g id="Node000015" class="node">
<title>Node15</title>
<g id="a_Node000015"><a xlink:href="struct_up_val.html" target="_top" xlink:title=" ">
<polygon fill="white" stroke="#666666" points="244.25,-810.38 202,-810.38 202,-791.12 244.25,-791.12 244.25,-810.38"/>
<text xml:space="preserve" text-anchor="middle" x="223.12" y="-796.88" font-family="Helvetica,sans-Serif" font-size="10.00">UpVal</text>
</a>
</g>
</g>
<!-- Node5&#45;&gt;Node15 -->
<g id="edge28_Node000015_Node000005" class="edge">
<title>Node5&#45;&gt;Node15</title>
<g id="a_edge28_Node000015_Node000005"><a xlink:title=" ">
<path fill="none" stroke="#9a32cd" stroke-dasharray="5,2" d="M291.08,-916.52C285.97,-913.1 280.98,-909.15 276.88,-904.75 262.78,-889.62 236.79,-832.67 227,-810.58"/>
<polygon fill="#9a32cd" stroke="#9a32cd" points="289.19,-919.47 299.56,-921.66 292.82,-913.48 289.19,-919.47"/>
</a>
</g>
<text xml:space="preserve" text-anchor="start" x="279.88" y="-892.25" font-family="Helvetica,sans-Serif" font-size="10.00" fill="grey">p</text>
<text xml:space="preserve" text-anchor="start" x="279.88" y="-877" font-family="Helvetica,sans-Serif" font-size="10.00" fill="grey">value</text>
</g>
<!-- Node6&#45;&gt;Node2 -->
<g id="edge5_Node000002_Node000006" class="edge">
<title>Node6&#45;&gt;Node2</title>
<g id="a_edge5_Node000002_Node000006"><a xlink:title=" ">
<path fill="none" stroke="#9a32cd" stroke-dasharray="5,2" d="M249.93,-24.3C244.23,-27.72 239.04,-31.97 235.12,-37.25 198.56,-86.59 167.25,-551.51 162.69,-622.05"/>
<polygon fill="#9a32cd" stroke="#9a32cd" points="251.15,-27.6 258.51,-19.98 248,-21.35 251.15,-27.6"/>
</a>
</g>
<text xml:space="preserve" text-anchor="start" x="200.23" y="-246" font-family="Helvetica,sans-Serif" font-size="10.00" fill="grey">l_G</text>
</g>
<!-- Node7 -->
<g id="Node000007" class="node">
<title>Node7</title>
<g id="a_Node000007"><a xlink:href="structstringtable.html" target="_top" xlink:title=" ">
<polygon fill="white" stroke="#666666" points="431.62,-106 370.62,-106 370.62,-86.75 431.62,-86.75 431.62,-106"/>
<text xml:space="preserve" text-anchor="middle" x="401.12" y="-92.5" font-family="Helvetica,sans-Serif" font-size="10.00">stringtable</text>
</a>
</g>
</g>
<!-- Node7&#45;&gt;Node6 -->
<g id="edge6_Node000006_Node000007" class="edge">
<title>Node7&#45;&gt;Node6</title>
<g id="a_edge6_Node000006_Node000007"><a xlink:title=" ">
<path fill="none" stroke="#9a32cd" stroke-dasharray="5,2" d="M380.88,-79.19C358.75,-61.5 324.11,-33.8 306.39,-19.63"/>
<polygon fill="#9a32cd" stroke="#9a32cd" points="378.6,-81.85 388.6,-85.36 382.97,-76.38 378.6,-81.85"/>
</a>
</g>
<text xml:space="preserve" text-anchor="start" x="351.12" y="-42" font-family="Helvetica,sans-Serif" font-size="10.00" fill="grey">strt</text>
</g>
<!-- Node8 -->
<g id="Node000008" class="node">
<title>Node8</title>
<g id="a_Node000008"><a xlink:href="struct_t_string.html" target="_top" xlink:title=" ">
<polygon fill="white" stroke="#666666" points="324.88,-208 277.38,-208 277.38,-188.75 324.88,-188.75 324.88,-208"/>
<text xml:space="preserve" text-anchor="middle" x="301.12" y="-194.5" font-family="Helvetica,sans-Serif" font-size="10.00">TString</text>
</a>
</g>
</g>
<!-- Node8&#45;&gt;Node6 -->
<g id="edge12_Node000006_Node000008" class="edge">
<title>Node8&#45;&gt;Node6</title>
<g id="a_edge12_Node000006_Node000008"><a xlink:title=" ">
<path fill="none" stroke="#9a32cd" stroke-dasharray="5,2" d="M300.47,-177.12C299.18,-136.81 296.32,-47.95 295.41,-19.54"/>
<polygon fill="#9a32cd" stroke="#9a32cd" points="296.97,-176.97 300.79,-186.85 303.96,-176.75 296.97,-176.97"/>
</a>
</g>
<text xml:space="preserve" text-anchor="start" x="301.62" y="-107.75" font-family="Helvetica,sans-Serif" font-size="10.00" fill="grey">memerrmsg</text>
<text xml:space="preserve" text-anchor="start" x="301.62" y="-92.5" font-family="Helvetica,sans-Serif" font-size="10.00" fill="grey">strcache</text>
<text xml:space="preserve" text-anchor="start" x="301.62" y="-77.25" font-family="Helvetica,sans-Serif" font-size="10.00" fill="grey">tmname</text>
</g>
<!-- Node8&#45;&gt;Node7 -->
<g id="edge7_Node000007_Node000008" class="edge">
<title>Node8&#45;&gt;Node7</title>
<g id="a_edge7_Node000007_Node000008"><a xlink:title=" ">
<path fill="none" stroke="#9a32cd" stroke-dasharray="5,2" d="M317.99,-180.46C329.78,-168.63 345.9,-152.46 360.12,-138.25 371.07,-127.31 383.69,-114.74 392,-106.46"/>
<polygon fill="#9a32cd" stroke="#9a32cd" points="315.56,-177.93 310.98,-187.48 320.52,-182.87 315.56,-177.93"/>
</a>
</g>
<text xml:space="preserve" text-anchor="start" x="363.12" y="-150.62" font-family="Helvetica,sans-Serif" font-size="10.00" fill="grey">hash</text>
</g>
<!-- Node8&#45;&gt;Node8 -->
<g id="edge8_Node000008_Node000008" class="edge">
<title>Node8&#45;&gt;Node8</title>
<g id="a_edge8_Node000008_Node000008"><a xlink:title=" ">
<path fill="none" stroke="#9a32cd" stroke-dasharray="5,2" d="M336.36,-205.33C340.32,-204.02 342.88,-201.7 342.88,-198.38 342.88,-192.46 334.79,-189.74 325.15,-190.2"/>
<polygon fill="#9a32cd" stroke="#9a32cd" points="336.22,-201.82 326.66,-206.39 336.98,-208.78 336.22,-201.82"/>
</a>
</g>
<text xml:space="preserve" text-anchor="start" x="345.88" y="-194.5" font-family="Helvetica,sans-Serif" font-size="10.00" fill="grey">hnext</text>
</g>
<!-- Node9 -->
<g id="Node000009" class="node">
<title>Node9</title>
<g id="a_Node000009"><a xlink:href="struct_g_c_object.html" target="_top" xlink:title=" ">
<polygon fill="white" stroke="#666666" points="544.88,-766.5 485.38,-766.5 485.38,-747.25 544.88,-747.25 544.88,-766.5"/>
<text xml:space="preserve" text-anchor="middle" x="515.12" y="-753" font-family="Helvetica,sans-Serif" font-size="10.00">GCObject</text>
</a>
</g>
</g>
<!-- Node9&#45;&gt;Node2 -->
<g id="edge30_Node000002_Node000009" class="edge">
<title>Node9&#45;&gt;Node2</title>
<g id="a_edge30_Node000002_Node000009"><a xlink:title=" ">
<path fill="none" stroke="#9a32cd" stroke-dasharray="5,2" d="M478.44,-743.1C406.85,-718.18 250.12,-663.63 188.12,-642.05"/>
<polygon fill="#9a32cd" stroke="#9a32cd" points="477.14,-746.36 487.74,-746.34 479.45,-739.75 477.14,-746.36"/>
</a>
</g>
<text xml:space="preserve" text-anchor="start" x="432.82" y="-693.88" font-family="Helvetica,sans-Serif" font-size="10.00" fill="grey">gclist</text>
</g>
<!-- Node9&#45;&gt;Node6 -->
<g id="edge10_Node000006_Node000009" class="edge">
<title>Node9&#45;&gt;Node6</title>
<g id="a_edge10_Node000006_Node000009"><a xlink:title=" ">
<path fill="none" stroke="#9a32cd" stroke-dasharray="5,2" d="M534.95,-739.06C537.92,-735.99 540.77,-732.67 543.12,-729.25 569.37,-691.07 583.12,-679.32 583.12,-633 583.12,-633 583.12,-633 583.12,-95.38 583.12,-43.26 407.34,-20.85 330.44,-13.53"/>
<polygon fill="#9a32cd" stroke="#9a32cd" points="532.57,-736.5 527.68,-745.9 537.36,-741.6 532.57,-736.5"/>
</a>
</g>
<text xml:space="preserve" text-anchor="start" x="586.12" y="-449" font-family="Helvetica,sans-Serif" font-size="10.00" fill="grey">allgc</text>
<text xml:space="preserve" text-anchor="start" x="586.12" y="-433.75" font-family="Helvetica,sans-Serif" font-size="10.00" fill="grey">allweak</text>
<text xml:space="preserve" text-anchor="start" x="586.12" y="-418.5" font-family="Helvetica,sans-Serif" font-size="10.00" fill="grey">ephemeron</text>
<text xml:space="preserve" text-anchor="start" x="586.12" y="-403.25" font-family="Helvetica,sans-Serif" font-size="10.00" fill="grey">finobj</text>
<text xml:space="preserve" text-anchor="start" x="586.12" y="-388" font-family="Helvetica,sans-Serif" font-size="10.00" fill="grey">finobjold1</text>
<text xml:space="preserve" text-anchor="start" x="586.12" y="-372.75" font-family="Helvetica,sans-Serif" font-size="10.00" fill="grey">finobjrold</text>
<text xml:space="preserve" text-anchor="start" x="586.12" y="-357.5" font-family="Helvetica,sans-Serif" font-size="10.00" fill="grey">finobjsur</text>
<text xml:space="preserve" text-anchor="start" x="586.12" y="-342.25" font-family="Helvetica,sans-Serif" font-size="10.00" fill="grey">firstold1</text>
<text xml:space="preserve" text-anchor="start" x="586.12" y="-327" font-family="Helvetica,sans-Serif" font-size="10.00" fill="grey">fixedgc</text>
<text xml:space="preserve" text-anchor="start" x="586.12" y="-311.75" font-family="Helvetica,sans-Serif" font-size="10.00" fill="grey">gray</text>
<text xml:space="preserve" text-anchor="start" x="586.12" y="-296.5" font-family="Helvetica,sans-Serif" font-size="10.00" fill="grey"> &#160;...</text>
</g>
<!-- Node9&#45;&gt;Node10 -->
<g id="edge22_Node000010_Node000009" class="edge">
<title>Node9&#45;&gt;Node10</title>
<g id="a_edge22_Node000010_Node000009"><a xlink:title=" ">
<path fill="none" stroke="#9a32cd" stroke-dasharray="5,2" d="M520.87,-736.2C527.39,-712.09 537.12,-669.91 537.12,-633 537.12,-633 537.12,-633 537.12,-197.38 537.12,-157.9 500.45,-122.48 480.97,-106.44"/>
<polygon fill="#9a32cd" stroke="#9a32cd" points="517.57,-735 518.23,-745.57 524.31,-736.89 517.57,-735"/>
</a>
</g>
<text xml:space="preserve" text-anchor="start" x="540.12" y="-484.25" font-family="Helvetica,sans-Serif" font-size="10.00" fill="grey">gclist</text>
</g>
<!-- Node9&#45;&gt;Node13 -->
<g id="edge18_Node000013_Node000009" class="edge">
<title>Node9&#45;&gt;Node13</title>
<g id="a_edge18_Node000013_Node000009"><a xlink:title=" ">
<path fill="none" stroke="#9a32cd" stroke-dasharray="5,2" d="M510.72,-735.76C500.46,-688.88 475.28,-573.82 468.08,-540.92"/>
<polygon fill="#9a32cd" stroke="#9a32cd" points="507.26,-736.32 512.82,-745.34 514.1,-734.83 507.26,-736.32"/>
</a>
</g>
<text xml:space="preserve" text-anchor="start" x="494.44" y="-628.12" font-family="Helvetica,sans-Serif" font-size="10.00" fill="grey">gc</text>
</g>
<!-- Node10&#45;&gt;Node6 -->
<g id="edge13_Node000006_Node000010" class="edge">
<title>Node10&#45;&gt;Node6</title>
<g id="a_edge13_Node000006_Node000010"><a xlink:title=" ">
<path fill="none" stroke="#9a32cd" stroke-dasharray="5,2" d="M450.27,-79.08C447.29,-76.76 444.18,-74.5 441.12,-72.5 412.29,-53.67 403.81,-50.74 372.12,-37.25 356.64,-30.65 338.91,-24.44 324.37,-19.67"/>
<polygon fill="#9a32cd" stroke="#9a32cd" points="448.03,-81.76 457.98,-85.4 452.47,-76.35 448.03,-81.76"/>
</a>
</g>
<text xml:space="preserve" text-anchor="start" x="413.02" y="-42" font-family="Helvetica,sans-Serif" font-size="10.00" fill="grey">mt</text>
</g>
<!-- Node10&#45;&gt;Node10 -->
<g id="edge21_Node000010_Node000010" class="edge">
<title>Node10&#45;&gt;Node10</title>
<g id="a_edge21_Node000010_Node000010"><a xlink:title=" ">
<path fill="none" stroke="#9a32cd" stroke-dasharray="5,2" d="M500.09,-104.69C504.1,-103.25 506.75,-100.48 506.75,-96.38 506.75,-89.08 498.37,-86 488.87,-87.14"/>
<polygon fill="#9a32cd" stroke="#9a32cd" points="500.06,-101.18 490.38,-105.49 500.63,-108.15 500.06,-101.18"/>
</a>
</g>
<text xml:space="preserve" text-anchor="start" x="509.75" y="-92.5" font-family="Helvetica,sans-Serif" font-size="10.00" fill="grey">metatable</text>
</g>
<!-- Node11&#45;&gt;Node10 -->
<g id="edge15_Node000010_Node000011" class="edge">
<title>Node11&#45;&gt;Node10</title>
<g id="a_edge15_Node000010_Node000011"><a xlink:title=" ">
<path fill="none" stroke="#9a32cd" stroke-dasharray="5,2" d="M469.12,-177.07C469.12,-155.45 469.12,-122.21 469.12,-106.37"/>
<polygon fill="#9a32cd" stroke="#9a32cd" points="465.63,-176.99 469.13,-186.99 472.63,-176.99 465.63,-176.99"/>
</a>
</g>
<text xml:space="preserve" text-anchor="start" x="472.12" y="-158.25" font-family="Helvetica,sans-Serif" font-size="10.00" fill="grey">lastfree</text>
<text xml:space="preserve" text-anchor="start" x="472.12" y="-143" font-family="Helvetica,sans-Serif" font-size="10.00" fill="grey">node</text>
</g>
<!-- Node12 -->
<g id="Node000012" class="node">
<title>Node12</title>
<g id="a_Node000012"><a xlink:href="struct_node_1_1_node_key.html" target="_top" xlink:title=" ">
<polygon fill="white" stroke="#666666" points="509,-386.25 423.25,-386.25 423.25,-367 509,-367 509,-386.25"/>
<text xml:space="preserve" text-anchor="middle" x="466.12" y="-372.75" font-family="Helvetica,sans-Serif" font-size="10.00">Node::NodeKey</text>
</a>
</g>
</g>
<!-- Node12&#45;&gt;Node11 -->
<g id="edge16_Node000011_Node000012" class="edge">
<title>Node12&#45;&gt;Node11</title>
<g id="a_edge16_Node000011_Node000012"><a xlink:title=" ">
<path fill="none" stroke="#9a32cd" stroke-dasharray="5,2" d="M466.47,-355.2C467.13,-316.73 468.52,-234.99 468.98,-208.13"/>
<polygon fill="#9a32cd" stroke="#9a32cd" points="462.97,-355.07 466.3,-365.13 469.97,-355.19 462.97,-355.07"/>
</a>
</g>
<text xml:space="preserve" text-anchor="start" x="471.62" y="-246" font-family="Helvetica,sans-Serif" font-size="10.00" fill="grey">u</text>
</g>
<!-- Node13&#45;&gt;Node12 -->
<g id="edge17_Node000012_Node000013" class="edge">
<title>Node13&#45;&gt;Node12</title>
<g id="a_edge17_Node000012_Node000013"><a xlink:title=" ">
<path fill="none" stroke="#9a32cd" stroke-dasharray="5,2" d="M466.12,-509.8C466.12,-476.22 466.12,-410.27 466.12,-386.46"/>
<polygon fill="#9a32cd" stroke="#9a32cd" points="462.63,-509.41 466.13,-519.41 469.63,-509.41 462.63,-509.41"/>
</a>
</g>
<text xml:space="preserve" text-anchor="start" x="469.12" y="-484.25" font-family="Helvetica,sans-Serif" font-size="10.00" fill="grey">key_val</text>
</g>
<!-- Node14&#45;&gt;Node2 -->
<g id="edge23_Node000002_Node000014" class="edge">
<title>Node14&#45;&gt;Node2</title>
<g id="a_edge23_Node000002_Node000014"><a xlink:title=" ">
<path fill="none" stroke="#9a32cd" stroke-dasharray="5,2" d="M51.98,-548.41C57.75,-553.56 63.91,-559.42 69.12,-565.25 80.97,-578.49 78.76,-586.34 92.38,-597.75 105.02,-608.35 121.62,-616.44 135.45,-621.98"/>
<polygon fill="#9a32cd" stroke="#9a32cd" points="54.4,-545.88 44.54,-542.01 49.84,-551.18 54.4,-545.88"/>
</a>
</g>
<text xml:space="preserve" text-anchor="start" x="95.38" y="-585.25" font-family="Helvetica,sans-Serif" font-size="10.00" fill="grey">base_ci</text>
<text xml:space="preserve" text-anchor="start" x="95.38" y="-570" font-family="Helvetica,sans-Serif" font-size="10.00" fill="grey">ci</text>
</g>
<!-- Node14&#45;&gt;Node14 -->
<g id="edge25_Node000014_Node000014" class="edge">
<title>Node14&#45;&gt;Node14</title>
<g id="a_edge25_Node000014_Node000014"><a xlink:title=" ">
<path fill="none" stroke="#9a32cd" stroke-dasharray="5,2" d="M68.49,-537.74C72.45,-536.45 75,-534.2 75,-531 75,-525.31 66.93,-522.64 57.23,-522.99"/>
<polygon fill="#9a32cd" stroke="#9a32cd" points="68.28,-534.24 58.73,-538.84 69.06,-541.2 68.28,-534.24"/>
</a>
</g>
<text xml:space="preserve" text-anchor="start" x="78" y="-534.75" font-family="Helvetica,sans-Serif" font-size="10.00" fill="grey">next</text>
<text xml:space="preserve" text-anchor="start" x="78" y="-519.5" font-family="Helvetica,sans-Serif" font-size="10.00" fill="grey">previous</text>
</g>
<!-- Node15&#45;&gt;Node2 -->
<g id="edge27_Node000002_Node000015" class="edge">
<title>Node15&#45;&gt;Node2</title>
<g id="a_edge27_Node000002_Node000015"><a xlink:title=" ">
<path fill="none" stroke="#9a32cd" stroke-dasharray="5,2" d="M223.21,-779.48C222.5,-752.11 218.22,-702.59 198.12,-666.25 192.69,-656.42 183.29,-647.89 175.46,-641.93"/>
<polygon fill="#9a32cd" stroke="#9a32cd" points="219.71,-779.2 223.31,-789.16 226.71,-779.12 219.71,-779.2"/>
</a>
</g>
<text xml:space="preserve" text-anchor="start" x="225.62" y="-753" font-family="Helvetica,sans-Serif" font-size="10.00" fill="grey">openupval</text>
</g>
<!-- Node15&#45;&gt;Node15 -->
<g id="edge29_Node000015_Node000015" class="edge">
<title>Node15&#45;&gt;Node15</title>
<g id="a_edge29_Node000015_Node000015"><a xlink:title=" ">
<path fill="none" stroke="#9a32cd" stroke-dasharray="5,2" d="M255.66,-807.87C259.64,-806.59 262.25,-804.22 262.25,-800.75 262.25,-794.58 254,-791.88 244.45,-792.65"/>
<polygon fill="#9a32cd" stroke="#9a32cd" points="255.62,-804.36 245.96,-808.72 256.23,-811.33 255.62,-804.36"/>
</a>
</g>
<text xml:space="preserve" text-anchor="start" x="265.25" y="-804.5" font-family="Helvetica,sans-Serif" font-size="10.00" fill="grey">next</text>
<text xml:space="preserve" text-anchor="start" x="265.25" y="-789.25" font-family="Helvetica,sans-Serif" font-size="10.00" fill="grey">previous</text>
</g>
<!-- Node16 -->
<g id="Node000016" class="node">
<title>Node16</title>
<g id="a_Node000016"><a xlink:href="structlua__longjmp.html" target="_top" xlink:title=" ">
<polygon fill="white" stroke="#666666" points="140,-766.5 72.25,-766.5 72.25,-747.25 140,-747.25 140,-766.5"/>
<text xml:space="preserve" text-anchor="middle" x="106.12" y="-753" font-family="Helvetica,sans-Serif" font-size="10.00">lua_longjmp</text>
</a>
</g>
</g>
<!-- Node16&#45;&gt;Node2 -->
<g id="edge32_Node000002_Node000016" class="edge">
<title>Node16&#45;&gt;Node2</title>
<g id="a_edge32_Node000002_Node000016"><a xlink:title=" ">
<path fill="none" stroke="#9a32cd" stroke-dasharray="5,2" d="M119.41,-737.32C121.09,-734.67 122.71,-731.93 124.12,-729.25 140.3,-698.58 153.68,-659.45 159.29,-642.05"/>
<polygon fill="#9a32cd" stroke="#9a32cd" points="116.53,-735.33 113.82,-745.57 122.33,-739.25 116.53,-735.33"/>
</a>
</g>
<text xml:space="preserve" text-anchor="start" x="153.34" y="-693.88" font-family="Helvetica,sans-Serif" font-size="10.00" fill="grey">errorJmp</text>
</g>
<!-- Node16&#45;&gt;Node16 -->
<g id="edge33_Node000016_Node000016" class="edge">
<title>Node16&#45;&gt;Node16</title>
<g id="a_edge33_Node000016_Node000016"><a xlink:title=" ">
<path fill="none" stroke="#9a32cd" stroke-dasharray="5,2" d="M151.21,-763.44C155.37,-762.09 158,-759.9 158,-756.88 158,-751.65 150.15,-748.91 140.05,-748.67"/>
<polygon fill="#9a32cd" stroke="#9a32cd" points="150.93,-759.95 141.55,-764.86 151.95,-766.87 150.93,-759.95"/>
</a>
</g>
<text xml:space="preserve" text-anchor="start" x="161" y="-753" font-family="Helvetica,sans-Serif" font-size="10.00" fill="grey">previous</text>
</g>
</g>
</svg>

<g id="navigator" transform="translate(0 0)" fill="#404254">
  <rect fill="#f2f5e9" fill-opacity="0.5" stroke="#606060" stroke-width=".5" x="0" y="0" width="60" height="60"/>
  <use id="zoomplus" xlink:href="#zoomPlus" x="17" y="9" onmousedown="handleZoom(evt,'in')"/>
  <use id="zoomminus" xlink:href="#zoomMin" x="42" y="9" onmousedown="handleZoom(evt,'out')"/>
  <use id="reset" xlink:href="#resetDef" x="30" y="36" onmousedown="handleReset()"/>
   <use id="arrowup" xlink:href="#arrowUp" x="0" y="0" onmousedown="handlePan(0,-1)"/>
  <use id="arrowright" xlink:href="#arrowRight" x="0" y="0" onmousedown="handlePan(1,0)"/>
  <use id="arrowdown" xlink:href="#arrowDown" x="0" y="0" onmousedown="handlePan(0,1)"/>
  <use id="arrowleft" xlink:href="#arrowLeft" x="0" y="0" onmousedown="handlePan(-1,0)"/>
</g>
<svg viewBox="0 0 15 15" width="100%" height="30px" preserveAspectRatio="xMaxYMin meet">
 <g id="arrow_out" transform="scale(0.3 0.3)">
  <a xlink:href="structlua_l___stream__coll__graph_org.svg" target="_base">
   <rect id="button" ry="5" rx="5" y="6" x="6" height="38" width="38"
        fill="#f2f5e9" fill-opacity="0.5" stroke="#606060" stroke-width="1.0"/>
   <path id="arrow"
     d="M 11.500037,31.436501 C 11.940474,20.09759 22.043105,11.32322 32.158766,21.979434 L 37.068811,17.246167 C 37.068811,17.246167 37.088388,32 37.088388,32 L 22.160133,31.978069 C 22.160133,31.978069 26.997745,27.140456 26.997745,27.140456 C 18.528582,18.264221 13.291696,25.230495 11.500037,31.436501 z"
     style="fill:#404040;"/>
  </a>
 </g>
</svg>

<style type='text/css'>
<![CDATA[
[data-mouse-over-selected='false'] { opacity: 0.7; }
[data-mouse-over-selected='true']  { opacity: 1.0; }
]]>
</style>
<script type="application/ecmascript"><![CDATA[
document.addEventListener('DOMContentLoaded', (event) => {
  highlightEdges();
  highlightAdjacentNodes();
});
]]></script>
</svg>
