<?xml version="1.0" encoding="UTF-8" standalone="no"?>
<!DOCTYPE svg PUBLIC "-//W3C//DTD SVG 1.1//EN"
 "http://www.w3.org/Graphics/SVG/1.1/DTD/svg11.dtd">
<!-- Generated by graphviz version 13.1.0 (20250701.0955)
 -->
<!-- Title: Proto Pages: 1 -->
<svg width="434pt" height="172pt"
 viewBox="0.00 0.00 434.00 172.00" xmlns="http://www.w3.org/2000/svg" xmlns:xlink="http://www.w3.org/1999/xlink">
<g id="graph0" class="graph" transform="scale(1 1) rotate(0) translate(4 168.25)">
<title>Proto</title>
<!-- Node1 -->
<g id="Node000001" class="node">
<title>Node1</title>
<g id="a_Node000001"><a xlink:title=" ">
<polygon fill="#999999" stroke="#666666" points="222.62,-19.25 183.38,-19.25 183.38,0 222.62,0 222.62,-19.25"/>
<text xml:space="preserve" text-anchor="middle" x="203" y="-5.75" font-family="Helvetica,sans-Serif" font-size="10.00">Proto</text>
</a>
</g>
</g>
<!-- Node1&#45;&gt;Node1 -->
<g id="edge2_Node000001_Node000001" class="edge">
<title>Node1&#45;&gt;Node1</title>
<g id="a_edge2_Node000001_Node000001"><a xlink:title=" ">
<path fill="none" stroke="#9a32cd" stroke-dasharray="5,2" d="M233.96,-15.59C237.97,-14.56 240.62,-12.57 240.62,-9.62 240.62,-4.39 232.24,-2.18 222.74,-2.99"/>
<polygon fill="#9a32cd" stroke="#9a32cd" points="234.03,-12.08 224.26,-16.17 234.44,-19.07 234.03,-12.08"/>
</a>
</g>
<text xml:space="preserve" text-anchor="start" x="243.62" y="-5.75" font-family="Helvetica,sans-Serif" font-size="10.00" fill="grey">p</text>
</g>
<!-- Node2 -->
<g id="Node000002" class="node">
<title>Node2</title>
<g id="a_Node000002"><a xlink:href="struct_t_value.html" target="_top" xlink:title=" ">
<polygon fill="white" stroke="#666666" points="46,-91.75 0,-91.75 0,-72.5 46,-72.5 46,-91.75"/>
<text xml:space="preserve" text-anchor="middle" x="23" y="-78.25" font-family="Helvetica,sans-Serif" font-size="10.00">TValue</text>
</a>
</g>
</g>
<!-- Node2&#45;&gt;Node1 -->
<g id="edge1_Node000001_Node000002" class="edge">
<title>Node2&#45;&gt;Node1</title>
<g id="a_edge1_Node000001_Node000002"><a xlink:title=" ">
<path fill="none" stroke="#9a32cd" stroke-dasharray="5,2" d="M33.01,-62.38C38.77,-53.4 46.84,-43.29 56.75,-37.25 96.63,-12.93 153.23,-9.69 182.97,-9.88"/>
<polygon fill="#9a32cd" stroke="#9a32cd" points="30.11,-60.41 28.1,-70.81 36.16,-63.93 30.11,-60.41"/>
</a>
</g>
<text xml:space="preserve" text-anchor="start" x="59.75" y="-42" font-family="Helvetica,sans-Serif" font-size="10.00" fill="grey">k</text>
</g>
<!-- Node3 -->
<g id="Node000003" class="node">
<title>Node3</title>
<g id="a_Node000003"><a xlink:href="struct_upvaldesc.html" target="_top" xlink:title=" ">
<polygon fill="white" stroke="#666666" points="198.25,-91.75 135.75,-91.75 135.75,-72.5 198.25,-72.5 198.25,-91.75"/>
<text xml:space="preserve" text-anchor="middle" x="167" y="-78.25" font-family="Helvetica,sans-Serif" font-size="10.00">Upvaldesc</text>
</a>
</g>
</g>
<!-- Node3&#45;&gt;Node1 -->
<g id="edge3_Node000001_Node000003" class="edge">
<title>Node3&#45;&gt;Node1</title>
<g id="a_edge3_Node000001_Node000003"><a xlink:title=" ">
<path fill="none" stroke="#9a32cd" stroke-dasharray="5,2" d="M165.04,-60.77C165.13,-53.03 166.3,-44.36 170,-37.25 173.74,-30.07 180.36,-24.14 186.69,-19.72"/>
<polygon fill="#9a32cd" stroke="#9a32cd" points="161.53,-60.84 165.53,-70.65 168.53,-60.49 161.53,-60.84"/>
</a>
</g>
<text xml:space="preserve" text-anchor="start" x="173" y="-42" font-family="Helvetica,sans-Serif" font-size="10.00" fill="grey">upvalues</text>
</g>
<!-- Node4 -->
<g id="Node000004" class="node">
<title>Node4</title>
<g id="a_Node000004"><a xlink:href="struct_t_string.html" target="_top" xlink:title=" ">
<polygon fill="white" stroke="#666666" points="190.75,-164.25 143.25,-164.25 143.25,-145 190.75,-145 190.75,-164.25"/>
<text xml:space="preserve" text-anchor="middle" x="167" y="-150.75" font-family="Helvetica,sans-Serif" font-size="10.00">TString</text>
</a>
</g>
</g>
<!-- Node4&#45;&gt;Node1 -->
<g id="edge9_Node000001_Node000004" class="edge">
<title>Node4&#45;&gt;Node1</title>
<g id="a_edge9_Node000001_Node000004"><a xlink:title=" ">
<path fill="none" stroke="#9a32cd" stroke-dasharray="5,2" d="M136.87,-139.27C109.67,-124.22 76.12,-99.08 91.75,-72.5 111.47,-38.97 156.66,-22.3 182.97,-15.15"/>
<polygon fill="#9a32cd" stroke="#9a32cd" points="135.05,-142.27 145.53,-143.83 138.31,-136.08 135.05,-142.27"/>
</a>
</g>
<text xml:space="preserve" text-anchor="start" x="94.75" y="-78.25" font-family="Helvetica,sans-Serif" font-size="10.00" fill="grey">source</text>
</g>
<!-- Node4&#45;&gt;Node3 -->
<g id="edge4_Node000003_Node000004" class="edge">
<title>Node4&#45;&gt;Node3</title>
<g id="a_edge4_Node000003_Node000004"><a xlink:title=" ">
<path fill="none" stroke="#9a32cd" stroke-dasharray="5,2" d="M167,-133.55C167,-119.94 167,-102.6 167,-92.2"/>
<polygon fill="#9a32cd" stroke="#9a32cd" points="163.5,-133.18 167,-143.18 170.5,-133.18 163.5,-133.18"/>
</a>
</g>
<text xml:space="preserve" text-anchor="start" x="170" y="-114.5" font-family="Helvetica,sans-Serif" font-size="10.00" fill="grey">name</text>
</g>
<!-- Node4&#45;&gt;Node4 -->
<g id="edge5_Node000004_Node000004" class="edge">
<title>Node4&#45;&gt;Node4</title>
<g id="a_edge5_Node000004_Node000004"><a xlink:title=" ">
<path fill="none" stroke="#9a32cd" stroke-dasharray="5,2" d="M202.24,-160.37C206.19,-159.29 208.75,-157.37 208.75,-154.62 208.75,-149.74 200.66,-147.49 191.03,-147.87"/>
<polygon fill="#9a32cd" stroke="#9a32cd" points="202.18,-156.86 192.53,-161.24 202.81,-163.83 202.18,-156.86"/>
</a>
</g>
<text xml:space="preserve" text-anchor="start" x="211.75" y="-150.75" font-family="Helvetica,sans-Serif" font-size="10.00" fill="grey">hnext</text>
</g>
<!-- Node6 -->
<g id="Node000006" class="node">
<title>Node6</title>
<g id="a_Node000006"><a xlink:href="struct_loc_var.html" target="_top" xlink:title=" ">
<polygon fill="white" stroke="#666666" points="262,-91.75 216,-91.75 216,-72.5 262,-72.5 262,-91.75"/>
<text xml:space="preserve" text-anchor="middle" x="239" y="-78.25" font-family="Helvetica,sans-Serif" font-size="10.00">LocVar</text>
</a>
</g>
</g>
<!-- Node4&#45;&gt;Node6 -->
<g id="edge8_Node000006_Node000004" class="edge">
<title>Node4&#45;&gt;Node6</title>
<g id="a_edge8_Node000006_Node000004"><a xlink:title=" ">
<path fill="none" stroke="#9a32cd" stroke-dasharray="5,2" d="M188.65,-137.69C192.87,-134.3 197.17,-130.65 201,-127 212.82,-115.75 224.9,-101.17 232.18,-91.98"/>
<polygon fill="#9a32cd" stroke="#9a32cd" points="186.72,-134.75 180.95,-143.64 191,-140.3 186.72,-134.75"/>
</a>
</g>
<text xml:space="preserve" text-anchor="start" x="219.41" y="-114.5" font-family="Helvetica,sans-Serif" font-size="10.00" fill="grey">varname</text>
</g>
<!-- Node5 -->
<g id="Node000005" class="node">
<title>Node5</title>
<g id="a_Node000005"><a xlink:href="struct_abs_line_info.html" target="_top" xlink:title=" ">
<polygon fill="white" stroke="#666666" points="347.88,-91.75 280.12,-91.75 280.12,-72.5 347.88,-72.5 347.88,-91.75"/>
<text xml:space="preserve" text-anchor="middle" x="314" y="-78.25" font-family="Helvetica,sans-Serif" font-size="10.00">AbsLineInfo</text>
</a>
</g>
</g>
<!-- Node5&#45;&gt;Node1 -->
<g id="edge6_Node000001_Node000005" class="edge">
<title>Node5&#45;&gt;Node1</title>
<g id="a_edge6_Node000001_Node000005"><a xlink:title=" ">
<path fill="none" stroke="#9a32cd" stroke-dasharray="5,2" d="M298.47,-63.93C289.84,-55.11 278.54,-44.69 267,-37.25 253.24,-28.38 236.04,-21.42 222.94,-16.85"/>
<polygon fill="#9a32cd" stroke="#9a32cd" points="295.67,-66.06 305.08,-70.94 300.77,-61.26 295.67,-66.06"/>
</a>
</g>
<text xml:space="preserve" text-anchor="start" x="290.74" y="-42" font-family="Helvetica,sans-Serif" font-size="10.00" fill="grey">abslineinfo</text>
</g>
<!-- Node6&#45;&gt;Node1 -->
<g id="edge7_Node000001_Node000006" class="edge">
<title>Node6&#45;&gt;Node1</title>
<g id="a_edge7_Node000001_Node000006"><a xlink:title=" ">
<path fill="none" stroke="#9a32cd" stroke-dasharray="5,2" d="M229.38,-62.29C222.34,-48.51 213.11,-30.42 207.64,-19.7"/>
<polygon fill="#9a32cd" stroke="#9a32cd" points="226.09,-63.53 233.75,-70.85 232.32,-60.35 226.09,-63.53"/>
</a>
</g>
<text xml:space="preserve" text-anchor="start" x="228.28" y="-42" font-family="Helvetica,sans-Serif" font-size="10.00" fill="grey">locvars</text>
</g>
<!-- Node7 -->
<g id="Node000007" class="node">
<title>Node7</title>
<g id="a_Node000007"><a xlink:href="struct_g_c_object.html" target="_top" xlink:title=" ">
<polygon fill="white" stroke="#666666" points="425.75,-91.75 366.25,-91.75 366.25,-72.5 425.75,-72.5 425.75,-91.75"/>
<text xml:space="preserve" text-anchor="middle" x="396" y="-78.25" font-family="Helvetica,sans-Serif" font-size="10.00">GCObject</text>
</a>
</g>
</g>
<!-- Node7&#45;&gt;Node1 -->
<g id="edge10_Node000001_Node000007" class="edge">
<title>Node7&#45;&gt;Node1</title>
<g id="a_edge10_Node000001_Node000007"><a xlink:title=" ">
<path fill="none" stroke="#9a32cd" stroke-dasharray="5,2" d="M380.38,-64.19C370.78,-54.82 357.72,-43.77 344,-37.25 303.73,-18.11 250.84,-12.72 222.66,-11.21"/>
<polygon fill="#9a32cd" stroke="#9a32cd" points="377.6,-66.35 387.09,-71.07 382.61,-61.47 377.6,-66.35"/>
</a>
</g>
<text xml:space="preserve" text-anchor="start" x="371.69" y="-42" font-family="Helvetica,sans-Serif" font-size="10.00" fill="grey">gclist</text>
</g>
</g>
</svg>
