<?xml version="1.0" encoding="UTF-8" standalone="no"?>
<!DOCTYPE svg PUBLIC "-//W3C//DTD SVG 1.1//EN"
 "http://www.w3.org/Graphics/SVG/1.1/DTD/svg11.dtd">
<!-- Generated by graphviz version 13.1.0 (20250701.0955)
 -->
<!-- Title: Node::NodeKey Pages: 1 -->
<!--zoomable 658 -->

<svg id="main" version="1.1" xmlns="http://www.w3.org/2000/svg" xmlns:xlink="http://www.w3.org/1999/xlink" xml:space="preserve" onload="init(evt)">

<style type="text/css"><![CDATA[
.node, .edge {opacity: 0.7;}
.node.selected, .edge.selected {opacity: 1;}
.edge:hover path { stroke: red; }
.edge:hover polygon { stroke: red; fill: red; }
]]></style>

<defs>
  <circle id="rim" cx="0" cy="0" r="7"/>
  <circle id="rim2" cx="0" cy="0" r="3.5"/>
  <g id="zoomPlus">
    <use xlink:href="#rim" fill="#404040"><set attributeName="fill" to="#808080" begin="zoomplus.mouseover" end="zoomplus.mouseout"/></use>
    <path d="M-4,0h8M0,-4v8" fill="none" stroke="white" stroke-width="1.5" pointer-events="none"/>
  </g>
  <g id="zoomMin">
    <use xlink:href="#rim" fill="#404040"><set attributeName="fill" to="#808080" begin="zoomminus.mouseover" end="zoomminus.mouseout"/></use>
    <path d="M-4,0h8" fill="none" stroke="white" stroke-width="1.5" pointer-events="none"/>
  </g>
  <g id="arrowUp" transform="translate(30 24)">
    <use xlink:href="#rim"/>
    <path pointer-events="none" fill="none" stroke="white" stroke-width="1.5" d="M0,-3.0v7 M-2.5,-0.5L0,-3.0L2.5,-0.5"/>
  </g>
  <g id="arrowRight" transform="rotate(90) translate(36 -43)">
    <use xlink:href="#rim"/>
    <path pointer-events="none" fill="none" stroke="white" stroke-width="1.5" d="M0,-3.0v7 M-2.5,-0.5L0,-3.0L2.5,-0.5"/>
  </g>
  <g id="arrowDown" transform="rotate(180) translate(-30 -48)">
    <use xlink:href="#rim"/>
    <path pointer-events="none" fill="none" stroke="white" stroke-width="1.5" d="M0,-3.0v7 M-2.5,-0.5L0,-3.0L2.5,-0.5"/>
  </g>
  <g id="arrowLeft" transform="rotate(270) translate(-36 17)">
    <use xlink:href="#rim"/>
    <path pointer-events="none" fill="none" stroke="white" stroke-width="1.5" d="M0,-3.0v7 M-2.5,-0.5L0,-3.0L2.5,-0.5"/>
  </g>
  <g id="resetDef">
    <use xlink:href="#rim2" fill="#404040"><set attributeName="fill" to="#808080" begin="reset.mouseover" end="reset.mouseout"/></use>
  </g>
</defs>
<script type="application/ecmascript">
var viewWidth = 724;
var viewHeight = 658;
var sectionId = 'dynsection-0';
</script>
<script type="application/ecmascript" xlink:href="svg.min.js"/>
<svg id="graph" class="graph">
<g id="viewport">
<title>Node::NodeKey</title>
<!-- Node1 -->
<g id="Node000001" class="node">
<title>Node1</title>
<g id="a_Node000001"><a xlink:title=" ">
<polygon fill="#999999" stroke="#666666" points="144.88,-650.25 59.12,-650.25 59.12,-631 144.88,-631 144.88,-650.25"/>
<text xml:space="preserve" text-anchor="middle" x="102" y="-636.75" font-family="Helvetica,sans-Serif" font-size="10.00">Node::NodeKey</text>
</a>
</g>
</g>
<!-- Node12 -->
<g id="Node000012" class="node">
<title>Node12</title>
<g id="a_Node000012"><a xlink:href="union_node.html" target="_top" xlink:title=" ">
<polygon fill="white" stroke="#666666" points="393.62,-562.5 354.38,-562.5 354.38,-543.25 393.62,-543.25 393.62,-562.5"/>
<text xml:space="preserve" text-anchor="middle" x="374" y="-549" font-family="Helvetica,sans-Serif" font-size="10.00">Node</text>
</a>
</g>
</g>
<!-- Node1&#45;&gt;Node12 -->
<g id="edge18_Node000012_Node000001" class="edge">
<title>Node1&#45;&gt;Node12</title>
<g id="a_edge18_Node000012_Node000001"><a xlink:title=" ">
<path fill="none" stroke="#9a32cd" stroke-dasharray="5,2" d="M138,-626.75C173.2,-614.33 228.38,-595.29 276.75,-580.5 303.37,-572.36 334.44,-564.06 354.16,-558.94"/>
<polygon fill="#9a32cd" stroke="#9a32cd" points="137,-623.39 128.74,-630.03 139.34,-629.99 137,-623.39"/>
</a>
</g>
<text xml:space="preserve" text-anchor="start" x="279.75" y="-592.88" font-family="Helvetica,sans-Serif" font-size="10.00" fill="grey">u</text>
</g>
<!-- Node2 -->
<g id="Node000002" class="node">
<title>Node2</title>
<g id="a_Node000002"><a xlink:href="union_value.html" target="_top" xlink:title=" ">
<polygon fill="white" stroke="#666666" points="66,-25.88 26,-25.88 26,-6.62 66,-6.62 66,-25.88"/>
<text xml:space="preserve" text-anchor="middle" x="46" y="-12.38" font-family="Helvetica,sans-Serif" font-size="10.00">Value</text>
</a>
</g>
</g>
<!-- Node2&#45;&gt;Node1 -->
<g id="edge1_Node000001_Node000002" class="edge">
<title>Node2&#45;&gt;Node1</title>
<g id="a_edge1_Node000001_Node000002"><a xlink:title=" ">
<path fill="none" stroke="#9a32cd" stroke-dasharray="5,2" d="M31.74,-35.37C18.23,-54.39 0,-85.71 0,-116.25 0,-553.88 0,-553.88 0,-553.88 0,-593.32 45.24,-618.26 75.47,-630.52"/>
<polygon fill="#9a32cd" stroke="#9a32cd" points="34.53,-37.48 37.7,-27.37 28.92,-33.29 34.53,-37.48"/>
</a>
</g>
<text xml:space="preserve" text-anchor="start" x="3" y="-274.5" font-family="Helvetica,sans-Serif" font-size="10.00" fill="grey">key_val</text>
</g>
<!-- Node3 -->
<g id="Node000003" class="node">
<title>Node3</title>
<g id="a_Node000003"><a xlink:href="struct_g_c_object.html" target="_top" xlink:title=" ">
<polygon fill="white" stroke="#666666" points="215.75,-562.5 156.25,-562.5 156.25,-543.25 215.75,-543.25 215.75,-562.5"/>
<text xml:space="preserve" text-anchor="middle" x="186" y="-549" font-family="Helvetica,sans-Serif" font-size="10.00">GCObject</text>
</a>
</g>
</g>
<!-- Node3&#45;&gt;Node2 -->
<g id="edge2_Node000002_Node000003" class="edge">
<title>Node3&#45;&gt;Node2</title>
<g id="a_edge2_Node000002_Node000003"><a xlink:title=" ">
<path fill="none" stroke="#9a32cd" stroke-dasharray="5,2" d="M177.99,-532.23C160.81,-490.25 118.88,-388.83 81,-305 70.2,-281.09 61.83,-277.22 55.5,-251.75 34.18,-165.94 42.18,-57.11 45.11,-25.94"/>
<polygon fill="#9a32cd" stroke="#9a32cd" points="174.73,-533.51 181.76,-541.44 181.21,-530.86 174.73,-533.51"/>
</a>
</g>
<text xml:space="preserve" text-anchor="start" x="58.5" y="-238.25" font-family="Helvetica,sans-Serif" font-size="10.00" fill="grey">gc</text>
</g>
<!-- Node4 -->
<g id="Node000004" class="node">
<title>Node4</title>
<g id="a_Node000004"><a xlink:href="structlua___state.html" target="_top" xlink:title=" ">
<polygon fill="white" stroke="#666666" points="236.62,-126.88 179.38,-126.88 179.38,-107.62 236.62,-107.62 236.62,-126.88"/>
<text xml:space="preserve" text-anchor="middle" x="208" y="-113.38" font-family="Helvetica,sans-Serif" font-size="10.00">lua_State</text>
</a>
</g>
</g>
<!-- Node3&#45;&gt;Node4 -->
<g id="edge29_Node000004_Node000003" class="edge">
<title>Node3&#45;&gt;Node4</title>
<g id="a_edge29_Node000004_Node000003"><a xlink:title=" ">
<path fill="none" stroke="#9a32cd" stroke-dasharray="5,2" d="M184.02,-531.78C179.43,-481.27 169.36,-345.04 182,-232.5 186.47,-192.68 199.46,-146.49 205.21,-127.31"/>
<polygon fill="#9a32cd" stroke="#9a32cd" points="180.51,-531.81 184.94,-541.44 187.48,-531.15 180.51,-531.81"/>
</a>
</g>
<text xml:space="preserve" text-anchor="start" x="181.48" y="-274.5" font-family="Helvetica,sans-Serif" font-size="10.00" fill="grey">gclist</text>
</g>
<!-- Node8 -->
<g id="Node000008" class="node">
<title>Node8</title>
<g id="a_Node000008"><a xlink:href="structglobal___state.html" target="_top" xlink:title=" ">
<polygon fill="white" stroke="#666666" points="493,-251.75 423,-251.75 423,-232.5 493,-232.5 493,-251.75"/>
<text xml:space="preserve" text-anchor="middle" x="458" y="-238.25" font-family="Helvetica,sans-Serif" font-size="10.00">global_State</text>
</a>
</g>
</g>
<!-- Node3&#45;&gt;Node8 -->
<g id="edge12_Node000008_Node000003" class="edge">
<title>Node3&#45;&gt;Node8</title>
<g id="a_edge12_Node000008_Node000003"><a xlink:title=" ">
<path fill="none" stroke="#9a32cd" stroke-dasharray="5,2" d="M189.64,-532C200.28,-479.87 236.44,-338.49 326,-269.75 340.88,-258.33 388.99,-250.76 422.81,-246.71"/>
<polygon fill="#9a32cd" stroke="#9a32cd" points="186.26,-531.02 187.8,-541.5 193.13,-532.35 186.26,-531.02"/>
</a>
</g>
<text xml:space="preserve" text-anchor="start" x="291.87" y="-462.25" font-family="Helvetica,sans-Serif" font-size="10.00" fill="grey">allgc</text>
<text xml:space="preserve" text-anchor="start" x="291.87" y="-447" font-family="Helvetica,sans-Serif" font-size="10.00" fill="grey">allweak</text>
<text xml:space="preserve" text-anchor="start" x="291.87" y="-431.75" font-family="Helvetica,sans-Serif" font-size="10.00" fill="grey">ephemeron</text>
<text xml:space="preserve" text-anchor="start" x="291.87" y="-416.5" font-family="Helvetica,sans-Serif" font-size="10.00" fill="grey">finobj</text>
<text xml:space="preserve" text-anchor="start" x="291.87" y="-401.25" font-family="Helvetica,sans-Serif" font-size="10.00" fill="grey">finobjold1</text>
<text xml:space="preserve" text-anchor="start" x="291.87" y="-386" font-family="Helvetica,sans-Serif" font-size="10.00" fill="grey">finobjrold</text>
<text xml:space="preserve" text-anchor="start" x="291.87" y="-370.75" font-family="Helvetica,sans-Serif" font-size="10.00" fill="grey">finobjsur</text>
<text xml:space="preserve" text-anchor="start" x="291.87" y="-355.5" font-family="Helvetica,sans-Serif" font-size="10.00" fill="grey">firstold1</text>
<text xml:space="preserve" text-anchor="start" x="291.87" y="-340.25" font-family="Helvetica,sans-Serif" font-size="10.00" fill="grey">fixedgc</text>
<text xml:space="preserve" text-anchor="start" x="291.87" y="-325" font-family="Helvetica,sans-Serif" font-size="10.00" fill="grey">gray</text>
<text xml:space="preserve" text-anchor="start" x="291.87" y="-309.75" font-family="Helvetica,sans-Serif" font-size="10.00" fill="grey"> &#160;...</text>
</g>
<!-- Node11 -->
<g id="Node000011" class="node">
<title>Node11</title>
<g id="a_Node000011"><a xlink:href="struct_table.html" target="_top" xlink:title=" ">
<polygon fill="white" stroke="#666666" points="415.62,-399.5 376.38,-399.5 376.38,-380.25 415.62,-380.25 415.62,-399.5"/>
<text xml:space="preserve" text-anchor="middle" x="396" y="-386" font-family="Helvetica,sans-Serif" font-size="10.00">Table</text>
</a>
</g>
</g>
<!-- Node3&#45;&gt;Node11 -->
<g id="edge21_Node000011_Node000003" class="edge">
<title>Node3&#45;&gt;Node11</title>
<g id="a_edge21_Node000011_Node000003"><a xlink:title=" ">
<path fill="none" stroke="#9a32cd" stroke-dasharray="5,2" d="M209.03,-535.94C212.95,-532.66 216.78,-529.05 220,-525.25 230.64,-512.7 226.42,-504.69 237.75,-492.75 248.26,-481.68 254.1,-482.91 267,-474.75 309.44,-447.9 359.12,-415.25 382.51,-399.8"/>
<polygon fill="#9a32cd" stroke="#9a32cd" points="206.99,-533.09 201.2,-541.97 211.26,-538.64 206.99,-533.09"/>
</a>
</g>
<text xml:space="preserve" text-anchor="start" x="240.75" y="-505.12" font-family="Helvetica,sans-Serif" font-size="10.00" fill="grey">gclist</text>
</g>
<!-- Node4&#45;&gt;Node2 -->
<g id="edge3_Node000002_Node000004" class="edge">
<title>Node4&#45;&gt;Node2</title>
<g id="a_edge3_Node000002_Node000004"><a xlink:title=" ">
<path fill="none" stroke="#9a32cd" stroke-dasharray="5,2" d="M183.66,-101.38C149.49,-80.49 88.34,-43.13 60.51,-26.12"/>
<polygon fill="#9a32cd" stroke="#9a32cd" points="181.69,-104.27 192.05,-106.5 185.34,-98.3 181.69,-104.27"/>
</a>
</g>
<text xml:space="preserve" text-anchor="start" x="153.98" y="-62.88" font-family="Helvetica,sans-Serif" font-size="10.00" fill="grey">f</text>
</g>
<!-- Node4&#45;&gt;Node4 -->
<g id="edge30_Node000004_Node000004" class="edge">
<title>Node4&#45;&gt;Node4</title>
<g id="a_edge30_Node000004_Node000004"><a xlink:title=" ">
<path fill="none" stroke="#9a32cd" stroke-dasharray="5,2" d="M247.77,-125.1C251.95,-123.57 254.62,-120.96 254.62,-117.25 254.62,-110.84 246.61,-107.68 236.68,-107.78"/>
<polygon fill="#9a32cd" stroke="#9a32cd" points="247.57,-121.6 238.18,-126.5 248.58,-128.52 247.57,-121.6"/>
</a>
</g>
<text xml:space="preserve" text-anchor="start" x="257.62" y="-113.38" font-family="Helvetica,sans-Serif" font-size="10.00" fill="grey">twups</text>
</g>
<!-- Node4&#45;&gt;Node8 -->
<g id="edge13_Node000008_Node000004" class="edge">
<title>Node4&#45;&gt;Node8</title>
<g id="a_edge13_Node000008_Node000004"><a xlink:title=" ">
<path fill="none" stroke="#9a32cd" stroke-dasharray="5,2" d="M248.25,-122.5C287.37,-127.42 343.13,-136.79 359,-151.5 380.45,-171.38 357.62,-193.53 378,-214.5 389.73,-226.57 407.07,-233.17 422.61,-236.78"/>
<polygon fill="#9a32cd" stroke="#9a32cd" points="248.81,-119.04 238.46,-121.33 247.97,-125.99 248.81,-119.04"/>
</a>
</g>
<text xml:space="preserve" text-anchor="start" x="381" y="-194.38" font-family="Helvetica,sans-Serif" font-size="10.00" fill="grey">mainthread</text>
<text xml:space="preserve" text-anchor="start" x="381" y="-179.12" font-family="Helvetica,sans-Serif" font-size="10.00" fill="grey">panic</text>
<text xml:space="preserve" text-anchor="start" x="381" y="-163.88" font-family="Helvetica,sans-Serif" font-size="10.00" fill="grey">twups</text>
</g>
<!-- Node13 -->
<g id="Node000013" class="node">
<title>Node13</title>
<g id="a_Node000013"><a xlink:href="struct_call_info.html" target="_top" xlink:title=" ">
<polygon fill="white" stroke="#666666" points="198.88,-25.88 149.12,-25.88 149.12,-6.62 198.88,-6.62 198.88,-25.88"/>
<text xml:space="preserve" text-anchor="middle" x="174" y="-12.38" font-family="Helvetica,sans-Serif" font-size="10.00">CallInfo</text>
</a>
</g>
</g>
<!-- Node4&#45;&gt;Node13 -->
<g id="edge25_Node000013_Node000004" class="edge">
<title>Node4&#45;&gt;Node13</title>
<g id="a_edge25_Node000013_Node000004"><a xlink:title=" ">
<path fill="none" stroke="#9a32cd" stroke-dasharray="5,2" d="M185.3,-100.05C180.23,-95.2 175.53,-89.43 172.75,-83 164.61,-64.13 168.53,-39.29 171.58,-26.2"/>
<polygon fill="#9a32cd" stroke="#9a32cd" points="182.87,-102.58 192.78,-106.34 187.38,-97.22 182.87,-102.58"/>
</a>
</g>
<text xml:space="preserve" text-anchor="start" x="175.75" y="-62.88" font-family="Helvetica,sans-Serif" font-size="10.00" fill="grey">k</text>
</g>
<!-- Node5 -->
<g id="Node000005" class="node">
<title>Node5</title>
<g id="a_Node000005"><a xlink:href="union_stk_id_rel.html" target="_top" xlink:title=" ">
<polygon fill="white" stroke="#666666" points="135.12,-251.75 80.88,-251.75 80.88,-232.5 135.12,-232.5 135.12,-251.75"/>
<text xml:space="preserve" text-anchor="middle" x="108" y="-238.25" font-family="Helvetica,sans-Serif" font-size="10.00">StkIdRel</text>
</a>
</g>
</g>
<!-- Node5&#45;&gt;Node4 -->
<g id="edge4_Node000004_Node000005" class="edge">
<title>Node5&#45;&gt;Node4</title>
<g id="a_edge4_Node000004_Node000005"><a xlink:title=" ">
<path fill="none" stroke="#9a32cd" stroke-dasharray="5,2" d="M106.86,-220.7C106.85,-200.85 109.89,-170.95 126,-151.5 139.23,-135.53 161.31,-127.16 179.23,-122.81"/>
<polygon fill="#9a32cd" stroke="#9a32cd" points="103.36,-220.67 107.15,-230.56 110.35,-220.46 103.36,-220.67"/>
</a>
</g>
<text xml:space="preserve" text-anchor="start" x="129" y="-202" font-family="Helvetica,sans-Serif" font-size="10.00" fill="grey">stack</text>
<text xml:space="preserve" text-anchor="start" x="129" y="-186.75" font-family="Helvetica,sans-Serif" font-size="10.00" fill="grey">stack_last</text>
<text xml:space="preserve" text-anchor="start" x="129" y="-171.5" font-family="Helvetica,sans-Serif" font-size="10.00" fill="grey">tbclist</text>
<text xml:space="preserve" text-anchor="start" x="129" y="-156.25" font-family="Helvetica,sans-Serif" font-size="10.00" fill="grey">top</text>
</g>
<!-- Node5&#45;&gt;Node13 -->
<g id="edge23_Node000013_Node000005" class="edge">
<title>Node5&#45;&gt;Node13</title>
<g id="a_edge23_Node000013_Node000005"><a xlink:title=" ">
<path fill="none" stroke="#9a32cd" stroke-dasharray="5,2" d="M101.42,-221.6C90.35,-184.9 72.31,-104.48 106,-50.5 115.32,-35.56 133.52,-27.15 148.74,-22.53"/>
<polygon fill="#9a32cd" stroke="#9a32cd" points="97.99,-222.36 104.37,-230.83 104.66,-220.23 97.99,-222.36"/>
</a>
</g>
<text xml:space="preserve" text-anchor="start" x="91.16" y="-121" font-family="Helvetica,sans-Serif" font-size="10.00" fill="grey">func</text>
<text xml:space="preserve" text-anchor="start" x="91.16" y="-105.75" font-family="Helvetica,sans-Serif" font-size="10.00" fill="grey">top</text>
</g>
<!-- Node6 -->
<g id="Node000006" class="node">
<title>Node6</title>
<g id="a_Node000006"><a xlink:href="union_stack_value.html" target="_top" xlink:title=" ">
<polygon fill="white" stroke="#666666" points="80.75,-518.62 15.25,-518.62 15.25,-499.38 80.75,-499.38 80.75,-518.62"/>
<text xml:space="preserve" text-anchor="middle" x="48" y="-505.12" font-family="Helvetica,sans-Serif" font-size="10.00">StackValue</text>
</a>
</g>
</g>
<!-- Node6&#45;&gt;Node5 -->
<g id="edge5_Node000005_Node000006" class="edge">
<title>Node6&#45;&gt;Node5</title>
<g id="a_edge5_Node000005_Node000006"><a xlink:title=" ">
<path fill="none" stroke="#9a32cd" stroke-dasharray="5,2" d="M52.56,-487.85C64.7,-434.29 97.41,-289.86 105.94,-252.2"/>
<polygon fill="#9a32cd" stroke="#9a32cd" points="49.2,-486.88 50.4,-497.41 56.02,-488.43 49.2,-486.88"/>
</a>
</g>
<text xml:space="preserve" text-anchor="start" x="96.95" y="-386" font-family="Helvetica,sans-Serif" font-size="10.00" fill="grey">p</text>
</g>
<!-- Node7 -->
<g id="Node000007" class="node">
<title>Node7</title>
<g id="a_Node000007"><a xlink:href="struct_t_value.html" target="_top" xlink:title=" ">
<polygon fill="white" stroke="#666666" points="397,-650.25 351,-650.25 351,-631 397,-631 397,-650.25"/>
<text xml:space="preserve" text-anchor="middle" x="374" y="-636.75" font-family="Helvetica,sans-Serif" font-size="10.00">TValue</text>
</a>
</g>
</g>
<!-- Node7&#45;&gt;Node6 -->
<g id="edge6_Node000006_Node000007" class="edge">
<title>Node7&#45;&gt;Node6</title>
<g id="a_edge6_Node000006_Node000007"><a xlink:title=" ">
<path fill="none" stroke="#9a32cd" stroke-dasharray="5,2" d="M339.2,-637.94C286.58,-634.96 189.58,-627.64 158.25,-613 110.31,-590.6 69.38,-539.42 54.25,-518.83"/>
<polygon fill="#9a32cd" stroke="#9a32cd" points="338.95,-641.43 349.13,-638.48 339.33,-634.44 338.95,-641.43"/>
</a>
</g>
<text xml:space="preserve" text-anchor="start" x="161.25" y="-592.88" font-family="Helvetica,sans-Serif" font-size="10.00" fill="grey">val</text>
</g>
<!-- Node7&#45;&gt;Node8 -->
<g id="edge11_Node000008_Node000007" class="edge">
<title>Node7&#45;&gt;Node8</title>
<g id="a_edge11_Node000008_Node000007"><a xlink:title=" ">
<path fill="none" stroke="#9a32cd" stroke-dasharray="5,2" d="M408.41,-634.54C474.54,-624.05 615.68,-598.01 648,-562.5 687.89,-518.67 673.56,-319.52 664,-305 645.1,-276.31 546.95,-256.9 493.23,-248.25"/>
<polygon fill="#9a32cd" stroke="#9a32cd" points="408.19,-631.03 398.85,-636.02 409.27,-637.95 408.19,-631.03"/>
</a>
</g>
<text xml:space="preserve" text-anchor="start" x="673.24" y="-512.75" font-family="Helvetica,sans-Serif" font-size="10.00" fill="grey">l_registry</text>
<text xml:space="preserve" text-anchor="start" x="673.24" y="-497.5" font-family="Helvetica,sans-Serif" font-size="10.00" fill="grey">nilvalue</text>
</g>
<!-- Node7&#45;&gt;Node11 -->
<g id="edge16_Node000011_Node000007" class="edge">
<title>Node7&#45;&gt;Node11</title>
<g id="a_edge16_Node000011_Node000007"><a xlink:title=" ">
<path fill="none" stroke="#9a32cd" stroke-dasharray="5,2" d="M395.74,-623.21C398.85,-620.1 401.75,-616.66 404,-613 425.1,-578.64 421.85,-565.24 427,-525.25 433.18,-477.28 410.31,-421.35 400.38,-399.89"/>
<polygon fill="#9a32cd" stroke="#9a32cd" points="393.65,-620.39 388.45,-629.62 398.27,-625.65 393.65,-620.39"/>
</a>
</g>
<text xml:space="preserve" text-anchor="start" x="427.86" y="-549" font-family="Helvetica,sans-Serif" font-size="10.00" fill="grey">array</text>
</g>
<!-- Node7&#45;&gt;Node12 -->
<g id="edge19_Node000012_Node000007" class="edge">
<title>Node7&#45;&gt;Node12</title>
<g id="a_edge19_Node000012_Node000007"><a xlink:title=" ">
<path fill="none" stroke="#9a32cd" stroke-dasharray="5,2" d="M374,-619.29C374,-601.36 374,-576.08 374,-562.81"/>
<polygon fill="#9a32cd" stroke="#9a32cd" points="370.5,-619.26 374,-629.26 377.5,-619.26 370.5,-619.26"/>
</a>
</g>
<text xml:space="preserve" text-anchor="start" x="377" y="-592.88" font-family="Helvetica,sans-Serif" font-size="10.00" fill="grey">i_val</text>
</g>
<!-- Node14 -->
<g id="Node000014" class="node">
<title>Node14</title>
<g id="a_Node000014"><a xlink:href="struct_up_val.html" target="_top" xlink:title=" ">
<polygon fill="white" stroke="#666666" points="318.12,-518.62 275.88,-518.62 275.88,-499.38 318.12,-499.38 318.12,-518.62"/>
<text xml:space="preserve" text-anchor="middle" x="297" y="-505.12" font-family="Helvetica,sans-Serif" font-size="10.00">UpVal</text>
</a>
</g>
</g>
<!-- Node7&#45;&gt;Node14 -->
<g id="edge27_Node000014_Node000007" class="edge">
<title>Node7&#45;&gt;Node14</title>
<g id="a_edge27_Node000014_Node000007"><a xlink:title=" ">
<path fill="none" stroke="#9a32cd" stroke-dasharray="5,2" d="M350.67,-623.44C347.06,-620.26 343.58,-616.74 340.75,-613 317.63,-582.5 304.18,-537.95 299.22,-519.03"/>
<polygon fill="#9a32cd" stroke="#9a32cd" points="348.49,-626.18 358.51,-629.64 352.84,-620.69 348.49,-626.18"/>
</a>
</g>
<text xml:space="preserve" text-anchor="start" x="343.75" y="-600.5" font-family="Helvetica,sans-Serif" font-size="10.00" fill="grey">p</text>
<text xml:space="preserve" text-anchor="start" x="343.75" y="-585.25" font-family="Helvetica,sans-Serif" font-size="10.00" fill="grey">value</text>
</g>
<!-- Node8&#45;&gt;Node4 -->
<g id="edge7_Node000004_Node000008" class="edge">
<title>Node8&#45;&gt;Node4</title>
<g id="a_edge7_Node000004_Node000008"><a xlink:title=" ">
<path fill="none" stroke="#9a32cd" stroke-dasharray="5,2" d="M459.05,-220.63C458.9,-200.03 455.16,-168.9 436,-151.5 407.35,-125.48 291.75,-119.8 237.01,-118.57"/>
<polygon fill="#9a32cd" stroke="#9a32cd" points="455.55,-220.55 458.81,-230.63 462.55,-220.72 455.55,-220.55"/>
</a>
</g>
<text xml:space="preserve" text-anchor="start" x="461.84" y="-179.12" font-family="Helvetica,sans-Serif" font-size="10.00" fill="grey">l_G</text>
</g>
<!-- Node9 -->
<g id="Node000009" class="node">
<title>Node9</title>
<g id="a_Node000009"><a xlink:href="structstringtable.html" target="_top" xlink:title=" ">
<polygon fill="white" stroke="#666666" points="654.5,-399.5 593.5,-399.5 593.5,-380.25 654.5,-380.25 654.5,-399.5"/>
<text xml:space="preserve" text-anchor="middle" x="624" y="-386" font-family="Helvetica,sans-Serif" font-size="10.00">stringtable</text>
</a>
</g>
</g>
<!-- Node9&#45;&gt;Node8 -->
<g id="edge8_Node000008_Node000009" class="edge">
<title>Node9&#45;&gt;Node8</title>
<g id="a_edge8_Node000008_Node000009"><a xlink:title=" ">
<path fill="none" stroke="#9a32cd" stroke-dasharray="5,2" d="M616.75,-369.36C609.4,-351.32 596.72,-324.44 580,-305 556.7,-277.9 518.63,-261.28 491.21,-252.18"/>
<polygon fill="#9a32cd" stroke="#9a32cd" points="613.46,-370.54 620.34,-378.59 619.98,-368.01 613.46,-370.54"/>
</a>
</g>
<text xml:space="preserve" text-anchor="start" x="561.2" y="-274.5" font-family="Helvetica,sans-Serif" font-size="10.00" fill="grey">strt</text>
</g>
<!-- Node10 -->
<g id="Node000010" class="node">
<title>Node10</title>
<g id="a_Node000010"><a xlink:href="struct_t_string.html" target="_top" xlink:title=" ">
<polygon fill="white" stroke="#666666" points="590.75,-562.5 543.25,-562.5 543.25,-543.25 590.75,-543.25 590.75,-562.5"/>
<text xml:space="preserve" text-anchor="middle" x="567" y="-549" font-family="Helvetica,sans-Serif" font-size="10.00">TString</text>
</a>
</g>
</g>
<!-- Node10&#45;&gt;Node8 -->
<g id="edge14_Node000008_Node000010" class="edge">
<title>Node10&#45;&gt;Node8</title>
<g id="a_edge14_Node000008_Node000010"><a xlink:title=" ">
<path fill="none" stroke="#9a32cd" stroke-dasharray="5,2" d="M555.76,-533.51C546.87,-518.26 534.75,-495.75 527.25,-474.75 501.29,-402.1 517.47,-377.46 491,-305 483.73,-285.1 471.1,-263.67 463.75,-251.98"/>
<polygon fill="#9a32cd" stroke="#9a32cd" points="552.64,-535.11 560.77,-541.9 558.65,-531.52 552.64,-535.11"/>
</a>
</g>
<text xml:space="preserve" text-anchor="start" x="530.25" y="-401.25" font-family="Helvetica,sans-Serif" font-size="10.00" fill="grey">memerrmsg</text>
<text xml:space="preserve" text-anchor="start" x="530.25" y="-386" font-family="Helvetica,sans-Serif" font-size="10.00" fill="grey">strcache</text>
<text xml:space="preserve" text-anchor="start" x="530.25" y="-370.75" font-family="Helvetica,sans-Serif" font-size="10.00" fill="grey">tmname</text>
</g>
<!-- Node10&#45;&gt;Node9 -->
<g id="edge9_Node000009_Node000010" class="edge">
<title>Node10&#45;&gt;Node9</title>
<g id="a_edge9_Node000009_Node000010"><a xlink:title=" ">
<path fill="none" stroke="#9a32cd" stroke-dasharray="5,2" d="M574.04,-531.99C586.48,-496.86 611.88,-425.12 620.81,-399.89"/>
<polygon fill="#9a32cd" stroke="#9a32cd" points="570.77,-530.74 570.73,-541.33 577.37,-533.07 570.77,-530.74"/>
</a>
</g>
<text xml:space="preserve" text-anchor="start" x="590.06" y="-505.12" font-family="Helvetica,sans-Serif" font-size="10.00" fill="grey">hash</text>
</g>
<!-- Node10&#45;&gt;Node10 -->
<g id="edge10_Node000010_Node000010" class="edge">
<title>Node10&#45;&gt;Node10</title>
<g id="a_edge10_Node000010_Node000010"><a xlink:title=" ">
<path fill="none" stroke="#9a32cd" stroke-dasharray="5,2" d="M602.24,-559.83C606.19,-558.52 608.75,-556.2 608.75,-552.88 608.75,-546.96 600.66,-544.24 591.03,-544.7"/>
<polygon fill="#9a32cd" stroke="#9a32cd" points="602.09,-556.32 592.53,-560.89 602.85,-563.28 602.09,-556.32"/>
</a>
</g>
<text xml:space="preserve" text-anchor="start" x="611.75" y="-549" font-family="Helvetica,sans-Serif" font-size="10.00" fill="grey">hnext</text>
</g>
<!-- Node11&#45;&gt;Node8 -->
<g id="edge15_Node000008_Node000011" class="edge">
<title>Node11&#45;&gt;Node8</title>
<g id="a_edge15_Node000008_Node000011"><a xlink:title=" ">
<path fill="none" stroke="#9a32cd" stroke-dasharray="5,2" d="M404.23,-369.54C417.76,-337.72 444.21,-275.55 454.12,-252.24"/>
<polygon fill="#9a32cd" stroke="#9a32cd" points="401.16,-367.79 400.47,-378.36 407.61,-370.53 401.16,-367.79"/>
</a>
</g>
<text xml:space="preserve" text-anchor="start" x="449.14" y="-274.5" font-family="Helvetica,sans-Serif" font-size="10.00" fill="grey">mt</text>
</g>
<!-- Node11&#45;&gt;Node11 -->
<g id="edge20_Node000011_Node000011" class="edge">
<title>Node11&#45;&gt;Node11</title>
<g id="a_edge20_Node000011_Node000011"><a xlink:title=" ">
<path fill="none" stroke="#9a32cd" stroke-dasharray="5,2" d="M410.08,-407.71C421.63,-415.1 433.62,-409.15 433.62,-389.88 433.62,-365.92 415.1,-362.55 401.93,-379.77"/>
<polygon fill="#9a32cd" stroke="#9a32cd" points="412.69,-405.37 403.03,-401.02 407.87,-410.44 412.69,-405.37"/>
</a>
</g>
<text xml:space="preserve" text-anchor="start" x="436.62" y="-386" font-family="Helvetica,sans-Serif" font-size="10.00" fill="grey">metatable</text>
</g>
<!-- Node12&#45;&gt;Node11 -->
<g id="edge17_Node000011_Node000012" class="edge">
<title>Node12&#45;&gt;Node11</title>
<g id="a_edge17_Node000011_Node000012"><a xlink:title=" ">
<path fill="none" stroke="#9a32cd" stroke-dasharray="5,2" d="M378.74,-531.86C379.2,-529.63 379.63,-527.4 380,-525.25 388.07,-478.25 393.4,-421.29 395.26,-399.72"/>
<polygon fill="#9a32cd" stroke="#9a32cd" points="375.34,-531.04 376.56,-541.57 382.17,-532.58 375.34,-531.04"/>
</a>
</g>
<text xml:space="preserve" text-anchor="start" x="387.55" y="-512.75" font-family="Helvetica,sans-Serif" font-size="10.00" fill="grey">lastfree</text>
<text xml:space="preserve" text-anchor="start" x="387.55" y="-497.5" font-family="Helvetica,sans-Serif" font-size="10.00" fill="grey">node</text>
</g>
<!-- Node13&#45;&gt;Node4 -->
<g id="edge22_Node000004_Node000013" class="edge">
<title>Node13&#45;&gt;Node4</title>
<g id="a_edge22_Node000004_Node000013"><a xlink:title=" ">
<path fill="none" stroke="#9a32cd" stroke-dasharray="5,2" d="M181.22,-37.01C182.81,-41.44 184.48,-46.13 186,-50.5 193.04,-70.74 200.92,-94.62 205.08,-107.29"/>
<polygon fill="#9a32cd" stroke="#9a32cd" points="184.53,-35.89 177.83,-27.68 177.95,-38.28 184.53,-35.89"/>
</a>
</g>
<text xml:space="preserve" text-anchor="start" x="199.98" y="-70.5" font-family="Helvetica,sans-Serif" font-size="10.00" fill="grey">base_ci</text>
<text xml:space="preserve" text-anchor="start" x="199.98" y="-55.25" font-family="Helvetica,sans-Serif" font-size="10.00" fill="grey">ci</text>
</g>
<!-- Node13&#45;&gt;Node13 -->
<g id="edge24_Node000013_Node000013" class="edge">
<title>Node13&#45;&gt;Node13</title>
<g id="a_edge24_Node000013_Node000013"><a xlink:title=" ">
<path fill="none" stroke="#9a32cd" stroke-dasharray="5,2" d="M210.36,-24.19C214.32,-22.67 216.88,-20.02 216.88,-16.25 216.88,-9.54 208.81,-6.4 199.1,-6.82"/>
<polygon fill="#9a32cd" stroke="#9a32cd" points="210.05,-20.7 200.6,-25.48 210.98,-27.63 210.05,-20.7"/>
</a>
</g>
<text xml:space="preserve" text-anchor="start" x="219.88" y="-20" font-family="Helvetica,sans-Serif" font-size="10.00" fill="grey">next</text>
<text xml:space="preserve" text-anchor="start" x="219.88" y="-4.75" font-family="Helvetica,sans-Serif" font-size="10.00" fill="grey">previous</text>
</g>
<!-- Node14&#45;&gt;Node4 -->
<g id="edge26_Node000004_Node000014" class="edge">
<title>Node14&#45;&gt;Node4</title>
<g id="a_edge26_Node000004_Node000014"><a xlink:title=" ">
<path fill="none" stroke="#9a32cd" stroke-dasharray="5,2" d="M321.05,-491.76C326.28,-486.95 331.12,-481.22 334,-474.75 377.85,-376.39 366.25,-333.54 329,-232.5 313.5,-190.46 302.79,-180.91 269,-151.5 257.35,-141.36 242.1,-133.05 229.77,-127.27"/>
<polygon fill="#9a32cd" stroke="#9a32cd" points="318.9,-489 313.3,-498 323.29,-494.45 318.9,-489"/>
</a>
</g>
<text xml:space="preserve" text-anchor="start" x="350.32" y="-274.5" font-family="Helvetica,sans-Serif" font-size="10.00" fill="grey">openupval</text>
</g>
<!-- Node14&#45;&gt;Node14 -->
<g id="edge28_Node000014_Node000014" class="edge">
<title>Node14&#45;&gt;Node14</title>
<g id="a_edge28_Node000014_Node000014"><a xlink:title=" ">
<path fill="none" stroke="#9a32cd" stroke-dasharray="5,2" d="M329.53,-516.12C333.51,-514.84 336.12,-512.47 336.12,-509 336.12,-502.83 327.87,-500.13 318.33,-500.9"/>
<polygon fill="#9a32cd" stroke="#9a32cd" points="329.49,-512.61 319.84,-516.97 330.1,-519.58 329.49,-512.61"/>
</a>
</g>
<text xml:space="preserve" text-anchor="start" x="339.12" y="-512.75" font-family="Helvetica,sans-Serif" font-size="10.00" fill="grey">next</text>
<text xml:space="preserve" text-anchor="start" x="339.12" y="-497.5" font-family="Helvetica,sans-Serif" font-size="10.00" fill="grey">previous</text>
</g>
<!-- Node15 -->
<g id="Node000015" class="node">
<title>Node15</title>
<g id="a_Node000015"><a xlink:href="structlua__longjmp.html" target="_top" xlink:title=" ">
<polygon fill="white" stroke="#666666" points="258.88,-251.75 191.12,-251.75 191.12,-232.5 258.88,-232.5 258.88,-251.75"/>
<text xml:space="preserve" text-anchor="middle" x="225" y="-238.25" font-family="Helvetica,sans-Serif" font-size="10.00">lua_longjmp</text>
</a>
</g>
</g>
<!-- Node15&#45;&gt;Node4 -->
<g id="edge31_Node000004_Node000015" class="edge">
<title>Node15&#45;&gt;Node4</title>
<g id="a_edge31_Node000004_Node000015"><a xlink:title=" ">
<path fill="none" stroke="#9a32cd" stroke-dasharray="5,2" d="M222.24,-221.15C218.5,-194.13 211.98,-147.05 209.26,-127.34"/>
<polygon fill="#9a32cd" stroke="#9a32cd" points="218.73,-221.36 223.57,-230.79 225.67,-220.4 218.73,-221.36"/>
</a>
</g>
<text xml:space="preserve" text-anchor="start" x="223.89" y="-179.12" font-family="Helvetica,sans-Serif" font-size="10.00" fill="grey">errorJmp</text>
</g>
<!-- Node15&#45;&gt;Node15 -->
<g id="edge32_Node000015_Node000015" class="edge">
<title>Node15&#45;&gt;Node15</title>
<g id="a_edge32_Node000015_Node000015"><a xlink:title=" ">
<path fill="none" stroke="#9a32cd" stroke-dasharray="5,2" d="M270.08,-247.55C274.25,-246.43 276.88,-244.62 276.88,-242.12 276.88,-237.81 269.02,-235.55 258.93,-235.34"/>
<polygon fill="#9a32cd" stroke="#9a32cd" points="269.93,-244.04 260.43,-248.72 270.78,-250.99 269.93,-244.04"/>
</a>
</g>
<text xml:space="preserve" text-anchor="start" x="279.88" y="-238.25" font-family="Helvetica,sans-Serif" font-size="10.00" fill="grey">previous</text>
</g>
</g>
</svg>

<g id="navigator" transform="translate(0 0)" fill="#404254">
  <rect fill="#f2f5e9" fill-opacity="0.5" stroke="#606060" stroke-width=".5" x="0" y="0" width="60" height="60"/>
  <use id="zoomplus" xlink:href="#zoomPlus" x="17" y="9" onmousedown="handleZoom(evt,'in')"/>
  <use id="zoomminus" xlink:href="#zoomMin" x="42" y="9" onmousedown="handleZoom(evt,'out')"/>
  <use id="reset" xlink:href="#resetDef" x="30" y="36" onmousedown="handleReset()"/>
   <use id="arrowup" xlink:href="#arrowUp" x="0" y="0" onmousedown="handlePan(0,-1)"/>
  <use id="arrowright" xlink:href="#arrowRight" x="0" y="0" onmousedown="handlePan(1,0)"/>
  <use id="arrowdown" xlink:href="#arrowDown" x="0" y="0" onmousedown="handlePan(0,1)"/>
  <use id="arrowleft" xlink:href="#arrowLeft" x="0" y="0" onmousedown="handlePan(-1,0)"/>
</g>
<svg viewBox="0 0 15 15" width="100%" height="30px" preserveAspectRatio="xMaxYMin meet">
 <g id="arrow_out" transform="scale(0.3 0.3)">
  <a xlink:href="struct_node_1_1_node_key__coll__graph_org.svg" target="_base">
   <rect id="button" ry="5" rx="5" y="6" x="6" height="38" width="38"
        fill="#f2f5e9" fill-opacity="0.5" stroke="#606060" stroke-width="1.0"/>
   <path id="arrow"
     d="M 11.500037,31.436501 C 11.940474,20.09759 22.043105,11.32322 32.158766,21.979434 L 37.068811,17.246167 C 37.068811,17.246167 37.088388,32 37.088388,32 L 22.160133,31.978069 C 22.160133,31.978069 26.997745,27.140456 26.997745,27.140456 C 18.528582,18.264221 13.291696,25.230495 11.500037,31.436501 z"
     style="fill:#404040;"/>
  </a>
 </g>
</svg>

<style type='text/css'>
<![CDATA[
[data-mouse-over-selected='false'] { opacity: 0.7; }
[data-mouse-over-selected='true']  { opacity: 1.0; }
]]>
</style>
<script type="application/ecmascript"><![CDATA[
document.addEventListener('DOMContentLoaded', (event) => {
  highlightEdges();
  highlightAdjacentNodes();
});
]]></script>
</svg>
