<?xml version="1.0" encoding="UTF-8" standalone="no"?>
<!DOCTYPE svg PUBLIC "-//W3C//DTD SVG 1.1//EN"
 "http://www.w3.org/Graphics/SVG/1.1/DTD/svg11.dtd">
<!-- Generated by graphviz version 13.1.0 (20250701.0955)
 -->
<!-- Title: Node Pages: 1 -->
<svg width="768pt" height="731pt"
 viewBox="0.00 0.00 768.00 731.00" xmlns="http://www.w3.org/2000/svg" xmlns:xlink="http://www.w3.org/1999/xlink">
<g id="graph0" class="graph" transform="scale(1 1) rotate(0) translate(4 726.75)">
<title>Node</title>
<!-- Node1 -->
<g id="Node000001" class="node">
<title>Node1</title>
<g id="a_Node000001"><a xlink:title=" ">
<polygon fill="#999999" stroke="#666666" points="291.5,-635 252.25,-635 252.25,-615.75 291.5,-615.75 291.5,-635"/>
<text xml:space="preserve" text-anchor="middle" x="271.88" y="-621.5" font-family="Helvetica,sans-Serif" font-size="10.00">Node</text>
</a>
</g>
</g>
<!-- Node12 -->
<g id="Node000012" class="node">
<title>Node12</title>
<g id="a_Node000012"><a xlink:href="struct_table.html" target="_top" xlink:title=" ">
<polygon fill="white" stroke="#666666" points="487.5,-472 448.25,-472 448.25,-452.75 487.5,-452.75 487.5,-472"/>
<text xml:space="preserve" text-anchor="middle" x="467.88" y="-458.5" font-family="Helvetica,sans-Serif" font-size="10.00">Table</text>
</a>
</g>
</g>
<!-- Node1&#45;&gt;Node12 -->
<g id="edge18_Node000012_Node000001" class="edge">
<title>Node1&#45;&gt;Node12</title>
<g id="a_edge18_Node000012_Node000001"><a xlink:title=" ">
<path fill="none" stroke="#9a32cd" stroke-dasharray="5,2" d="M291.42,-608.2C308.46,-594.87 334.33,-576.4 359.62,-565.25 390.69,-551.55 408.16,-569.43 433.88,-547.25 456.96,-527.34 464.58,-489.44 466.92,-472.25"/>
<polygon fill="#9a32cd" stroke="#9a32cd" points="289.28,-605.43 283.67,-614.42 293.66,-610.9 289.28,-605.43"/>
</a>
</g>
<text xml:space="preserve" text-anchor="start" x="362.62" y="-585.25" font-family="Helvetica,sans-Serif" font-size="10.00" fill="grey">lastfree</text>
<text xml:space="preserve" text-anchor="start" x="362.62" y="-570" font-family="Helvetica,sans-Serif" font-size="10.00" fill="grey">node</text>
</g>
<!-- Node2 -->
<g id="Node000002" class="node">
<title>Node2</title>
<g id="a_Node000002"><a xlink:href="struct_node_1_1_node_key.html" target="_top" xlink:title=" ">
<polygon fill="white" stroke="#666666" points="85.75,-19.25 0,-19.25 0,0 85.75,0 85.75,-19.25"/>
<text xml:space="preserve" text-anchor="middle" x="42.88" y="-5.75" font-family="Helvetica,sans-Serif" font-size="10.00">Node::NodeKey</text>
</a>
</g>
</g>
<!-- Node2&#45;&gt;Node1 -->
<g id="edge1_Node000001_Node000002" class="edge">
<title>Node2&#45;&gt;Node1</title>
<g id="a_edge1_Node000001_Node000002"><a xlink:title=" ">
<path fill="none" stroke="#9a32cd" stroke-dasharray="5,2" d="M36.48,-30.31C32.02,-45.75 26.88,-67.9 26.88,-87.75 26.88,-463.38 26.88,-463.38 26.88,-463.38 26.88,-527.91 30.93,-558.15 81.88,-597.75 108.11,-618.14 208.84,-622.92 252.03,-624.04"/>
<polygon fill="#9a32cd" stroke="#9a32cd" points="39.75,-31.56 39.35,-20.97 33.06,-29.5 39.75,-31.56"/>
</a>
</g>
<text xml:space="preserve" text-anchor="start" x="29.88" y="-251.62" font-family="Helvetica,sans-Serif" font-size="10.00" fill="grey">u</text>
</g>
<!-- Node3 -->
<g id="Node000003" class="node">
<title>Node3</title>
<g id="a_Node000003"><a xlink:href="union_value.html" target="_top" xlink:title=" ">
<polygon fill="white" stroke="#666666" points="94.88,-98.38 54.88,-98.38 54.88,-79.12 94.88,-79.12 94.88,-98.38"/>
<text xml:space="preserve" text-anchor="middle" x="74.88" y="-84.88" font-family="Helvetica,sans-Serif" font-size="10.00">Value</text>
</a>
</g>
</g>
<!-- Node3&#45;&gt;Node2 -->
<g id="edge2_Node000002_Node000003" class="edge">
<title>Node3&#45;&gt;Node2</title>
<g id="a_edge2_Node000002_Node000003"><a xlink:title=" ">
<path fill="none" stroke="#9a32cd" stroke-dasharray="5,2" d="M66.97,-68.7C60.43,-52.94 51.45,-31.28 46.5,-19.37"/>
<polygon fill="#9a32cd" stroke="#9a32cd" points="63.56,-69.61 70.62,-77.5 70.02,-66.93 63.56,-69.61"/>
</a>
</g>
<text xml:space="preserve" text-anchor="start" x="63.79" y="-42" font-family="Helvetica,sans-Serif" font-size="10.00" fill="grey">key_val</text>
</g>
<!-- Node4 -->
<g id="Node000004" class="node">
<title>Node4</title>
<g id="a_Node000004"><a xlink:href="struct_g_c_object.html" target="_top" xlink:title=" ">
<polygon fill="white" stroke="#666666" points="412.62,-635 353.12,-635 353.12,-615.75 412.62,-615.75 412.62,-635"/>
<text xml:space="preserve" text-anchor="middle" x="382.88" y="-621.5" font-family="Helvetica,sans-Serif" font-size="10.00">GCObject</text>
</a>
</g>
</g>
<!-- Node4&#45;&gt;Node3 -->
<g id="edge3_Node000003_Node000004" class="edge">
<title>Node4&#45;&gt;Node3</title>
<g id="a_edge3_Node000003_Node000004"><a xlink:title=" ">
<path fill="none" stroke="#9a32cd" stroke-dasharray="5,2" d="M341.88,-620.48C326.27,-616.91 309.67,-610.22 298.88,-597.75 223.57,-510.73 340.66,-421.14 256.88,-342.25 228.49,-315.53 108.95,-352.77 82.38,-324.25 21.29,-258.68 59.66,-132.62 71.65,-98.47"/>
<polygon fill="#9a32cd" stroke="#9a32cd" points="341,-623.87 351.48,-622.28 342.3,-616.99 341,-623.87"/>
</a>
</g>
<text xml:space="preserve" text-anchor="start" x="85.38" y="-310.75" font-family="Helvetica,sans-Serif" font-size="10.00" fill="grey">gc</text>
</g>
<!-- Node5 -->
<g id="Node000005" class="node">
<title>Node5</title>
<g id="a_Node000005"><a xlink:href="structlua___state.html" target="_top" xlink:title=" ">
<polygon fill="white" stroke="#666666" points="263.5,-199.38 206.25,-199.38 206.25,-180.12 263.5,-180.12 263.5,-199.38"/>
<text xml:space="preserve" text-anchor="middle" x="234.88" y="-185.88" font-family="Helvetica,sans-Serif" font-size="10.00">lua_State</text>
</a>
</g>
</g>
<!-- Node4&#45;&gt;Node5 -->
<g id="edge28_Node000005_Node000004" class="edge">
<title>Node4&#45;&gt;Node5</title>
<g id="a_edge28_Node000005_Node000004"><a xlink:title=" ">
<path fill="none" stroke="#9a32cd" stroke-dasharray="5,2" d="M341.94,-615.56C332.87,-611.63 324.35,-605.95 318.88,-597.75 246.1,-488.65 396.98,-429.54 355.88,-305 341.83,-262.46 329.67,-253.41 295.88,-224 284.23,-213.86 268.98,-205.55 256.64,-199.77"/>
<polygon fill="#9a32cd" stroke="#9a32cd" points="340.65,-618.82 351.25,-618.91 343.02,-612.23 340.65,-618.82"/>
</a>
</g>
<text xml:space="preserve" text-anchor="start" x="366.1" y="-347" font-family="Helvetica,sans-Serif" font-size="10.00" fill="grey">gclist</text>
</g>
<!-- Node9 -->
<g id="Node000009" class="node">
<title>Node9</title>
<g id="a_Node000009"><a xlink:href="structglobal___state.html" target="_top" xlink:title=" ">
<polygon fill="white" stroke="#666666" points="519.88,-324.25 449.88,-324.25 449.88,-305 519.88,-305 519.88,-324.25"/>
<text xml:space="preserve" text-anchor="middle" x="484.88" y="-310.75" font-family="Helvetica,sans-Serif" font-size="10.00">global_State</text>
</a>
</g>
</g>
<!-- Node4&#45;&gt;Node9 -->
<g id="edge13_Node000009_Node000004" class="edge">
<title>Node4&#45;&gt;Node9</title>
<g id="a_edge13_Node000009_Node000004"><a xlink:title=" ">
<path fill="none" stroke="#9a32cd" stroke-dasharray="5,2" d="M380.6,-604.23C375.13,-552.44 363.23,-415.98 384.88,-377.5 400.09,-350.45 432.49,-333.71 456.31,-324.57"/>
<polygon fill="#9a32cd" stroke="#9a32cd" points="377.1,-604.4 381.66,-613.96 384.06,-603.64 377.1,-604.4"/>
</a>
</g>
<text xml:space="preserve" text-anchor="start" x="387.88" y="-534.75" font-family="Helvetica,sans-Serif" font-size="10.00" fill="grey">allgc</text>
<text xml:space="preserve" text-anchor="start" x="387.88" y="-519.5" font-family="Helvetica,sans-Serif" font-size="10.00" fill="grey">allweak</text>
<text xml:space="preserve" text-anchor="start" x="387.88" y="-504.25" font-family="Helvetica,sans-Serif" font-size="10.00" fill="grey">ephemeron</text>
<text xml:space="preserve" text-anchor="start" x="387.88" y="-489" font-family="Helvetica,sans-Serif" font-size="10.00" fill="grey">finobj</text>
<text xml:space="preserve" text-anchor="start" x="387.88" y="-473.75" font-family="Helvetica,sans-Serif" font-size="10.00" fill="grey">finobjold1</text>
<text xml:space="preserve" text-anchor="start" x="387.88" y="-458.5" font-family="Helvetica,sans-Serif" font-size="10.00" fill="grey">finobjrold</text>
<text xml:space="preserve" text-anchor="start" x="387.88" y="-443.25" font-family="Helvetica,sans-Serif" font-size="10.00" fill="grey">finobjsur</text>
<text xml:space="preserve" text-anchor="start" x="387.88" y="-428" font-family="Helvetica,sans-Serif" font-size="10.00" fill="grey">firstold1</text>
<text xml:space="preserve" text-anchor="start" x="387.88" y="-412.75" font-family="Helvetica,sans-Serif" font-size="10.00" fill="grey">fixedgc</text>
<text xml:space="preserve" text-anchor="start" x="387.88" y="-397.5" font-family="Helvetica,sans-Serif" font-size="10.00" fill="grey">gray</text>
<text xml:space="preserve" text-anchor="start" x="387.88" y="-382.25" font-family="Helvetica,sans-Serif" font-size="10.00" fill="grey"> &#160;...</text>
</g>
<!-- Node4&#45;&gt;Node12 -->
<g id="edge20_Node000012_Node000004" class="edge">
<title>Node4&#45;&gt;Node12</title>
<g id="a_edge20_Node000012_Node000004"><a xlink:title=" ">
<path fill="none" stroke="#9a32cd" stroke-dasharray="5,2" d="M395.89,-606.42C397.92,-603.54 399.97,-600.58 401.88,-597.75 416.71,-575.71 421.72,-570.88 433.88,-547.25 447.38,-520.98 459.39,-488.06 464.81,-472.42"/>
<polygon fill="#9a32cd" stroke="#9a32cd" points="393.19,-604.19 390.21,-614.35 398.88,-608.26 393.19,-604.19"/>
</a>
</g>
<text xml:space="preserve" text-anchor="start" x="426.85" y="-577.62" font-family="Helvetica,sans-Serif" font-size="10.00" fill="grey">gclist</text>
</g>
<!-- Node5&#45;&gt;Node3 -->
<g id="edge4_Node000003_Node000005" class="edge">
<title>Node5&#45;&gt;Node3</title>
<g id="a_edge4_Node000003_Node000005"><a xlink:title=" ">
<path fill="none" stroke="#9a32cd" stroke-dasharray="5,2" d="M210.84,-173.88C177.09,-152.99 116.7,-115.63 89.21,-98.62"/>
<polygon fill="#9a32cd" stroke="#9a32cd" points="208.76,-176.71 219.11,-178.99 212.44,-170.76 208.76,-176.71"/>
</a>
</g>
<text xml:space="preserve" text-anchor="start" x="181.56" y="-135.38" font-family="Helvetica,sans-Serif" font-size="10.00" fill="grey">f</text>
</g>
<!-- Node5&#45;&gt;Node5 -->
<g id="edge29_Node000005_Node000005" class="edge">
<title>Node5&#45;&gt;Node5</title>
<g id="a_edge29_Node000005_Node000005"><a xlink:title=" ">
<path fill="none" stroke="#9a32cd" stroke-dasharray="5,2" d="M274.64,-197.6C278.82,-196.07 281.5,-193.46 281.5,-189.75 281.5,-183.34 273.48,-180.18 263.56,-180.28"/>
<polygon fill="#9a32cd" stroke="#9a32cd" points="274.45,-194.1 265.06,-199 275.46,-201.02 274.45,-194.1"/>
</a>
</g>
<text xml:space="preserve" text-anchor="start" x="284.5" y="-185.88" font-family="Helvetica,sans-Serif" font-size="10.00" fill="grey">twups</text>
</g>
<!-- Node5&#45;&gt;Node9 -->
<g id="edge14_Node000009_Node000005" class="edge">
<title>Node5&#45;&gt;Node9</title>
<g id="a_edge14_Node000009_Node000005"><a xlink:title=" ">
<path fill="none" stroke="#9a32cd" stroke-dasharray="5,2" d="M275.13,-195C314.24,-199.92 370,-209.29 385.88,-224 407.33,-243.88 384.49,-266.03 404.88,-287 416.61,-299.07 433.94,-305.67 449.48,-309.28"/>
<polygon fill="#9a32cd" stroke="#9a32cd" points="275.68,-191.54 265.34,-193.83 274.85,-198.49 275.68,-191.54"/>
</a>
</g>
<text xml:space="preserve" text-anchor="start" x="407.88" y="-266.88" font-family="Helvetica,sans-Serif" font-size="10.00" fill="grey">mainthread</text>
<text xml:space="preserve" text-anchor="start" x="407.88" y="-251.62" font-family="Helvetica,sans-Serif" font-size="10.00" fill="grey">panic</text>
<text xml:space="preserve" text-anchor="start" x="407.88" y="-236.38" font-family="Helvetica,sans-Serif" font-size="10.00" fill="grey">twups</text>
</g>
<!-- Node13 -->
<g id="Node000013" class="node">
<title>Node13</title>
<g id="a_Node000013"><a xlink:href="struct_call_info.html" target="_top" xlink:title=" ">
<polygon fill="white" stroke="#666666" points="225.75,-98.38 176,-98.38 176,-79.12 225.75,-79.12 225.75,-98.38"/>
<text xml:space="preserve" text-anchor="middle" x="200.88" y="-84.88" font-family="Helvetica,sans-Serif" font-size="10.00">CallInfo</text>
</a>
</g>
</g>
<!-- Node5&#45;&gt;Node13 -->
<g id="edge24_Node000013_Node000005" class="edge">
<title>Node5&#45;&gt;Node13</title>
<g id="a_edge24_Node000013_Node000005"><a xlink:title=" ">
<path fill="none" stroke="#9a32cd" stroke-dasharray="5,2" d="M212.18,-172.55C207.1,-167.7 202.4,-161.93 199.62,-155.5 191.48,-136.63 195.41,-111.79 198.46,-98.7"/>
<polygon fill="#9a32cd" stroke="#9a32cd" points="209.75,-175.08 219.65,-178.84 214.25,-169.72 209.75,-175.08"/>
</a>
</g>
<text xml:space="preserve" text-anchor="start" x="202.62" y="-135.38" font-family="Helvetica,sans-Serif" font-size="10.00" fill="grey">k</text>
</g>
<!-- Node6 -->
<g id="Node000006" class="node">
<title>Node6</title>
<g id="a_Node000006"><a xlink:href="union_stk_id_rel.html" target="_top" xlink:title=" ">
<polygon fill="white" stroke="#666666" points="162,-324.25 107.75,-324.25 107.75,-305 162,-305 162,-324.25"/>
<text xml:space="preserve" text-anchor="middle" x="134.88" y="-310.75" font-family="Helvetica,sans-Serif" font-size="10.00">StkIdRel</text>
</a>
</g>
</g>
<!-- Node6&#45;&gt;Node5 -->
<g id="edge5_Node000005_Node000006" class="edge">
<title>Node6&#45;&gt;Node5</title>
<g id="a_edge5_Node000005_Node000006"><a xlink:title=" ">
<path fill="none" stroke="#9a32cd" stroke-dasharray="5,2" d="M133.74,-293.2C133.73,-273.35 136.76,-243.45 152.88,-224 166.11,-208.03 188.19,-199.66 206.1,-195.31"/>
<polygon fill="#9a32cd" stroke="#9a32cd" points="130.23,-293.17 134.03,-303.06 137.23,-292.96 130.23,-293.17"/>
</a>
</g>
<text xml:space="preserve" text-anchor="start" x="155.88" y="-274.5" font-family="Helvetica,sans-Serif" font-size="10.00" fill="grey">stack</text>
<text xml:space="preserve" text-anchor="start" x="155.88" y="-259.25" font-family="Helvetica,sans-Serif" font-size="10.00" fill="grey">stack_last</text>
<text xml:space="preserve" text-anchor="start" x="155.88" y="-244" font-family="Helvetica,sans-Serif" font-size="10.00" fill="grey">tbclist</text>
<text xml:space="preserve" text-anchor="start" x="155.88" y="-228.75" font-family="Helvetica,sans-Serif" font-size="10.00" fill="grey">top</text>
</g>
<!-- Node6&#45;&gt;Node13 -->
<g id="edge22_Node000013_Node000006" class="edge">
<title>Node6&#45;&gt;Node13</title>
<g id="a_edge22_Node000013_Node000006"><a xlink:title=" ">
<path fill="none" stroke="#9a32cd" stroke-dasharray="5,2" d="M128.3,-294.1C117.23,-257.4 99.18,-176.98 132.88,-123 142.2,-108.06 160.39,-99.65 175.62,-95.03"/>
<polygon fill="#9a32cd" stroke="#9a32cd" points="124.87,-294.86 131.24,-303.33 131.54,-292.73 124.87,-294.86"/>
</a>
</g>
<text xml:space="preserve" text-anchor="start" x="118.03" y="-193.5" font-family="Helvetica,sans-Serif" font-size="10.00" fill="grey">func</text>
<text xml:space="preserve" text-anchor="start" x="118.03" y="-178.25" font-family="Helvetica,sans-Serif" font-size="10.00" fill="grey">top</text>
</g>
<!-- Node7 -->
<g id="Node000007" class="node">
<title>Node7</title>
<g id="a_Node000007"><a xlink:href="union_stack_value.html" target="_top" xlink:title=" ">
<polygon fill="white" stroke="#666666" points="156.62,-591.12 91.12,-591.12 91.12,-571.88 156.62,-571.88 156.62,-591.12"/>
<text xml:space="preserve" text-anchor="middle" x="123.88" y="-577.62" font-family="Helvetica,sans-Serif" font-size="10.00">StackValue</text>
</a>
</g>
</g>
<!-- Node7&#45;&gt;Node6 -->
<g id="edge6_Node000006_Node000007" class="edge">
<title>Node7&#45;&gt;Node6</title>
<g id="a_edge6_Node000006_Node000007"><a xlink:title=" ">
<path fill="none" stroke="#9a32cd" stroke-dasharray="5,2" d="M124.73,-560.01C126.96,-506.18 132.94,-362.28 134.5,-324.7"/>
<polygon fill="#9a32cd" stroke="#9a32cd" points="121.23,-559.73 124.32,-569.87 128.23,-560.02 121.23,-559.73"/>
</a>
</g>
<text xml:space="preserve" text-anchor="start" x="135.3" y="-458.5" font-family="Helvetica,sans-Serif" font-size="10.00" fill="grey">p</text>
</g>
<!-- Node8 -->
<g id="Node000008" class="node">
<title>Node8</title>
<g id="a_Node000008"><a xlink:href="struct_t_value.html" target="_top" xlink:title=" ">
<polygon fill="white" stroke="#666666" points="294.88,-722.75 248.88,-722.75 248.88,-703.5 294.88,-703.5 294.88,-722.75"/>
<text xml:space="preserve" text-anchor="middle" x="271.88" y="-709.25" font-family="Helvetica,sans-Serif" font-size="10.00">TValue</text>
</a>
</g>
</g>
<!-- Node8&#45;&gt;Node1 -->
<g id="edge32_Node000001_Node000008" class="edge">
<title>Node8&#45;&gt;Node1</title>
<g id="a_edge32_Node000001_Node000008"><a xlink:title=" ">
<path fill="none" stroke="#9a32cd" stroke-dasharray="5,2" d="M271.88,-691.79C271.88,-673.86 271.88,-648.58 271.88,-635.31"/>
<polygon fill="#9a32cd" stroke="#9a32cd" points="268.38,-691.76 271.88,-701.76 275.38,-691.76 268.38,-691.76"/>
</a>
</g>
<text xml:space="preserve" text-anchor="start" x="274.88" y="-665.38" font-family="Helvetica,sans-Serif" font-size="10.00" fill="grey">i_val</text>
</g>
<!-- Node8&#45;&gt;Node7 -->
<g id="edge7_Node000007_Node000008" class="edge">
<title>Node8&#45;&gt;Node7</title>
<g id="a_edge7_Node000007_Node000008"><a xlink:title=" ">
<path fill="none" stroke="#9a32cd" stroke-dasharray="5,2" d="M237.53,-705.44C223.09,-701.41 206.75,-695.12 194.12,-685.5 159.69,-659.26 136.18,-611.16 127.55,-591.36"/>
<polygon fill="#9a32cd" stroke="#9a32cd" points="236.57,-708.81 247.12,-707.85 238.27,-702.02 236.57,-708.81"/>
</a>
</g>
<text xml:space="preserve" text-anchor="start" x="197.12" y="-665.38" font-family="Helvetica,sans-Serif" font-size="10.00" fill="grey">val</text>
</g>
<!-- Node8&#45;&gt;Node9 -->
<g id="edge12_Node000009_Node000008" class="edge">
<title>Node8&#45;&gt;Node9</title>
<g id="a_edge12_Node000009_Node000008"><a xlink:title=" ">
<path fill="none" stroke="#9a32cd" stroke-dasharray="5,2" d="M306.47,-707.94C331.66,-704.11 366.24,-697.21 394.88,-685.5 484.38,-648.9 525.81,-636.56 562.88,-547.25 591.8,-477.57 595.7,-445.43 562.88,-377.5 550.84,-352.6 523.38,-334.65 504.48,-324.7"/>
<polygon fill="#9a32cd" stroke="#9a32cd" points="306.17,-704.45 296.76,-709.32 307.16,-711.38 306.17,-704.45"/>
</a>
</g>
<text xml:space="preserve" text-anchor="start" x="557.22" y="-585.25" font-family="Helvetica,sans-Serif" font-size="10.00" fill="grey">l_registry</text>
<text xml:space="preserve" text-anchor="start" x="557.22" y="-570" font-family="Helvetica,sans-Serif" font-size="10.00" fill="grey">nilvalue</text>
</g>
<!-- Node8&#45;&gt;Node12 -->
<g id="edge17_Node000012_Node000008" class="edge">
<title>Node8&#45;&gt;Node12</title>
<g id="a_edge17_Node000012_Node000008"><a xlink:title=" ">
<path fill="none" stroke="#9a32cd" stroke-dasharray="5,2" d="M306.35,-703.31C351.47,-689.57 427.86,-658.13 453.88,-597.75 472.81,-553.81 470.46,-494.57 468.72,-472.32"/>
<polygon fill="#9a32cd" stroke="#9a32cd" points="305.41,-699.94 296.78,-706.08 307.36,-706.66 305.41,-699.94"/>
</a>
</g>
<text xml:space="preserve" text-anchor="start" x="446.24" y="-621.5" font-family="Helvetica,sans-Serif" font-size="10.00" fill="grey">array</text>
</g>
<!-- Node14 -->
<g id="Node000014" class="node">
<title>Node14</title>
<g id="a_Node000014"><a xlink:href="struct_up_val.html" target="_top" xlink:title=" ">
<polygon fill="white" stroke="#666666" points="204,-591.12 161.75,-591.12 161.75,-571.88 204,-571.88 204,-591.12"/>
<text xml:space="preserve" text-anchor="middle" x="182.88" y="-577.62" font-family="Helvetica,sans-Serif" font-size="10.00">UpVal</text>
</a>
</g>
</g>
<!-- Node8&#45;&gt;Node14 -->
<g id="edge26_Node000014_Node000008" class="edge">
<title>Node8&#45;&gt;Node14</title>
<g id="a_edge26_Node000014_Node000008"><a xlink:title=" ">
<path fill="none" stroke="#9a32cd" stroke-dasharray="5,2" d="M249.35,-696.14C245.52,-692.87 241.77,-689.27 238.62,-685.5 212.95,-654.76 193.78,-610.33 186.3,-591.49"/>
<polygon fill="#9a32cd" stroke="#9a32cd" points="246.97,-698.72 256.99,-702.16 251.3,-693.22 246.97,-698.72"/>
</a>
</g>
<text xml:space="preserve" text-anchor="start" x="241.62" y="-673" font-family="Helvetica,sans-Serif" font-size="10.00" fill="grey">p</text>
<text xml:space="preserve" text-anchor="start" x="241.62" y="-657.75" font-family="Helvetica,sans-Serif" font-size="10.00" fill="grey">value</text>
</g>
<!-- Node9&#45;&gt;Node5 -->
<g id="edge8_Node000005_Node000009" class="edge">
<title>Node9&#45;&gt;Node5</title>
<g id="a_edge8_Node000005_Node000009"><a xlink:title=" ">
<path fill="none" stroke="#9a32cd" stroke-dasharray="5,2" d="M485.92,-293.13C485.77,-272.53 482.03,-241.4 462.88,-224 434.23,-197.98 318.63,-192.3 263.89,-191.07"/>
<polygon fill="#9a32cd" stroke="#9a32cd" points="482.43,-293.05 485.68,-303.13 489.42,-293.22 482.43,-293.05"/>
</a>
</g>
<text xml:space="preserve" text-anchor="start" x="488.72" y="-251.62" font-family="Helvetica,sans-Serif" font-size="10.00" fill="grey">l_G</text>
</g>
<!-- Node10 -->
<g id="Node000010" class="node">
<title>Node10</title>
<g id="a_Node000010"><a xlink:href="structstringtable.html" target="_top" xlink:title=" ">
<polygon fill="white" stroke="#666666" points="671.38,-472 610.38,-472 610.38,-452.75 671.38,-452.75 671.38,-472"/>
<text xml:space="preserve" text-anchor="middle" x="640.88" y="-458.5" font-family="Helvetica,sans-Serif" font-size="10.00">stringtable</text>
</a>
</g>
</g>
<!-- Node10&#45;&gt;Node9 -->
<g id="edge9_Node000009_Node000010" class="edge">
<title>Node10&#45;&gt;Node9</title>
<g id="a_edge9_Node000009_Node000010"><a xlink:title=" ">
<path fill="none" stroke="#9a32cd" stroke-dasharray="5,2" d="M638.95,-440.97C635.31,-414.27 624.95,-367.88 595.88,-342.25 575.21,-324.03 544.26,-317.75 520.29,-315.81"/>
<polygon fill="#9a32cd" stroke="#9a32cd" points="635.46,-441.28 640.07,-450.81 642.41,-440.48 635.46,-441.28"/>
</a>
</g>
<text xml:space="preserve" text-anchor="start" x="612.5" y="-347" font-family="Helvetica,sans-Serif" font-size="10.00" fill="grey">strt</text>
</g>
<!-- Node11 -->
<g id="Node000011" class="node">
<title>Node11</title>
<g id="a_Node000011"><a xlink:href="struct_t_string.html" target="_top" xlink:title=" ">
<polygon fill="white" stroke="#666666" points="706.62,-635 659.12,-635 659.12,-615.75 706.62,-615.75 706.62,-635"/>
<text xml:space="preserve" text-anchor="middle" x="682.88" y="-621.5" font-family="Helvetica,sans-Serif" font-size="10.00">TString</text>
</a>
</g>
</g>
<!-- Node11&#45;&gt;Node9 -->
<g id="edge15_Node000009_Node000011" class="edge">
<title>Node11&#45;&gt;Node9</title>
<g id="a_edge15_Node000009_Node000011"><a xlink:title=" ">
<path fill="none" stroke="#9a32cd" stroke-dasharray="5,2" d="M692.01,-604.65C692.77,-602.36 693.42,-600.03 693.88,-597.75 696.69,-583.58 694.37,-579.69 693.88,-565.25 690.98,-481.66 720.84,-450.98 680.88,-377.5 668.4,-354.56 657.82,-352.66 633.88,-342.25 597.13,-326.27 551.28,-319.88 520.23,-317.33"/>
<polygon fill="#9a32cd" stroke="#9a32cd" points="688.78,-603.31 688.24,-613.89 695.26,-605.95 688.78,-603.31"/>
</a>
</g>
<text xml:space="preserve" text-anchor="start" x="704.89" y="-473.75" font-family="Helvetica,sans-Serif" font-size="10.00" fill="grey">memerrmsg</text>
<text xml:space="preserve" text-anchor="start" x="704.89" y="-458.5" font-family="Helvetica,sans-Serif" font-size="10.00" fill="grey">strcache</text>
<text xml:space="preserve" text-anchor="start" x="704.89" y="-443.25" font-family="Helvetica,sans-Serif" font-size="10.00" fill="grey">tmname</text>
</g>
<!-- Node11&#45;&gt;Node10 -->
<g id="edge10_Node000010_Node000011" class="edge">
<title>Node11&#45;&gt;Node10</title>
<g id="a_edge10_Node000010_Node000011"><a xlink:title=" ">
<path fill="none" stroke="#9a32cd" stroke-dasharray="5,2" d="M670.52,-605.63C669.15,-603.05 667.88,-600.38 666.88,-597.75 649.61,-552.71 643.38,-494.61 641.54,-472.48"/>
<polygon fill="#9a32cd" stroke="#9a32cd" points="667.48,-607.36 675.63,-614.12 673.47,-603.75 667.48,-607.36"/>
</a>
</g>
<text xml:space="preserve" text-anchor="start" x="669.88" y="-577.62" font-family="Helvetica,sans-Serif" font-size="10.00" fill="grey">hash</text>
</g>
<!-- Node11&#45;&gt;Node11 -->
<g id="edge11_Node000011_Node000011" class="edge">
<title>Node11&#45;&gt;Node11</title>
<g id="a_edge11_Node000011_Node000011"><a xlink:title=" ">
<path fill="none" stroke="#9a32cd" stroke-dasharray="5,2" d="M718.11,-632.33C722.07,-631.02 724.62,-628.7 724.62,-625.38 724.62,-619.46 716.54,-616.74 706.9,-617.2"/>
<polygon fill="#9a32cd" stroke="#9a32cd" points="717.97,-628.82 708.41,-633.39 718.73,-635.78 717.97,-628.82"/>
</a>
</g>
<text xml:space="preserve" text-anchor="start" x="727.62" y="-621.5" font-family="Helvetica,sans-Serif" font-size="10.00" fill="grey">hnext</text>
</g>
<!-- Node12&#45;&gt;Node9 -->
<g id="edge16_Node000009_Node000012" class="edge">
<title>Node12&#45;&gt;Node9</title>
<g id="a_edge16_Node000009_Node000012"><a xlink:title=" ">
<path fill="none" stroke="#9a32cd" stroke-dasharray="5,2" d="M470.23,-441.19C473.97,-409.14 481.12,-347.84 483.81,-324.74"/>
<polygon fill="#9a32cd" stroke="#9a32cd" points="466.8,-440.42 469.11,-450.75 473.75,-441.23 466.8,-440.42"/>
</a>
</g>
<text xml:space="preserve" text-anchor="start" x="484.62" y="-347" font-family="Helvetica,sans-Serif" font-size="10.00" fill="grey">mt</text>
</g>
<!-- Node12&#45;&gt;Node12 -->
<g id="edge19_Node000012_Node000012" class="edge">
<title>Node12&#45;&gt;Node12</title>
<g id="a_edge19_Node000012_Node000012"><a xlink:title=" ">
<path fill="none" stroke="#9a32cd" stroke-dasharray="5,2" d="M481.96,-480.21C493.5,-487.6 505.5,-481.65 505.5,-462.38 505.5,-438.42 486.98,-435.05 473.81,-452.27"/>
<polygon fill="#9a32cd" stroke="#9a32cd" points="484.57,-477.87 474.9,-473.52 479.75,-482.94 484.57,-477.87"/>
</a>
</g>
<text xml:space="preserve" text-anchor="start" x="508.5" y="-458.5" font-family="Helvetica,sans-Serif" font-size="10.00" fill="grey">metatable</text>
</g>
<!-- Node13&#45;&gt;Node5 -->
<g id="edge21_Node000005_Node000013" class="edge">
<title>Node13&#45;&gt;Node5</title>
<g id="a_edge21_Node000005_Node000013"><a xlink:title=" ">
<path fill="none" stroke="#9a32cd" stroke-dasharray="5,2" d="M208.09,-109.51C209.69,-113.94 211.35,-118.63 212.88,-123 219.91,-143.24 227.8,-167.12 231.95,-179.79"/>
<polygon fill="#9a32cd" stroke="#9a32cd" points="211.41,-108.39 204.71,-100.18 204.83,-110.78 211.41,-108.39"/>
</a>
</g>
<text xml:space="preserve" text-anchor="start" x="226.85" y="-143" font-family="Helvetica,sans-Serif" font-size="10.00" fill="grey">base_ci</text>
<text xml:space="preserve" text-anchor="start" x="226.85" y="-127.75" font-family="Helvetica,sans-Serif" font-size="10.00" fill="grey">ci</text>
</g>
<!-- Node13&#45;&gt;Node13 -->
<g id="edge23_Node000013_Node000013" class="edge">
<title>Node13&#45;&gt;Node13</title>
<g id="a_edge23_Node000013_Node000013"><a xlink:title=" ">
<path fill="none" stroke="#9a32cd" stroke-dasharray="5,2" d="M237.24,-95.49C241.2,-94.2 243.75,-91.95 243.75,-88.75 243.75,-83.06 235.68,-80.39 225.98,-80.74"/>
<polygon fill="#9a32cd" stroke="#9a32cd" points="237.03,-91.99 227.48,-96.59 237.81,-98.95 237.03,-91.99"/>
</a>
</g>
<text xml:space="preserve" text-anchor="start" x="246.75" y="-92.5" font-family="Helvetica,sans-Serif" font-size="10.00" fill="grey">next</text>
<text xml:space="preserve" text-anchor="start" x="246.75" y="-77.25" font-family="Helvetica,sans-Serif" font-size="10.00" fill="grey">previous</text>
</g>
<!-- Node14&#45;&gt;Node5 -->
<g id="edge25_Node000005_Node000014" class="edge">
<title>Node14&#45;&gt;Node5</title>
<g id="a_edge25_Node000005_Node000014"><a xlink:title=" ">
<path fill="none" stroke="#9a32cd" stroke-dasharray="5,2" d="M183.89,-560.17C186.37,-514.37 193.69,-399.76 208.88,-305 215.22,-265.43 227.19,-219.1 232.38,-199.85"/>
<polygon fill="#9a32cd" stroke="#9a32cd" points="180.41,-559.73 183.38,-569.9 187.4,-560.09 180.41,-559.73"/>
</a>
</g>
<text xml:space="preserve" text-anchor="start" x="205.96" y="-347" font-family="Helvetica,sans-Serif" font-size="10.00" fill="grey">openupval</text>
</g>
<!-- Node14&#45;&gt;Node14 -->
<g id="edge27_Node000014_Node000014" class="edge">
<title>Node14&#45;&gt;Node14</title>
<g id="a_edge27_Node000014_Node000014"><a xlink:title=" ">
<path fill="none" stroke="#9a32cd" stroke-dasharray="5,2" d="M215.41,-588.62C219.39,-587.34 222,-584.97 222,-581.5 222,-575.33 213.75,-572.63 204.2,-573.4"/>
<polygon fill="#9a32cd" stroke="#9a32cd" points="215.37,-585.11 205.71,-589.47 215.98,-592.08 215.37,-585.11"/>
</a>
</g>
<text xml:space="preserve" text-anchor="start" x="225" y="-585.25" font-family="Helvetica,sans-Serif" font-size="10.00" fill="grey">next</text>
<text xml:space="preserve" text-anchor="start" x="225" y="-570" font-family="Helvetica,sans-Serif" font-size="10.00" fill="grey">previous</text>
</g>
<!-- Node15 -->
<g id="Node000015" class="node">
<title>Node15</title>
<g id="a_Node000015"><a xlink:href="structlua__longjmp.html" target="_top" xlink:title=" ">
<polygon fill="white" stroke="#666666" points="285.75,-324.25 218,-324.25 218,-305 285.75,-305 285.75,-324.25"/>
<text xml:space="preserve" text-anchor="middle" x="251.88" y="-310.75" font-family="Helvetica,sans-Serif" font-size="10.00">lua_longjmp</text>
</a>
</g>
</g>
<!-- Node15&#45;&gt;Node5 -->
<g id="edge30_Node000005_Node000015" class="edge">
<title>Node15&#45;&gt;Node5</title>
<g id="a_edge30_Node000005_Node000015"><a xlink:title=" ">
<path fill="none" stroke="#9a32cd" stroke-dasharray="5,2" d="M249.11,-293.65C245.37,-266.63 238.86,-219.55 236.13,-199.84"/>
<polygon fill="#9a32cd" stroke="#9a32cd" points="245.61,-293.86 250.44,-303.29 252.54,-292.9 245.61,-293.86"/>
</a>
</g>
<text xml:space="preserve" text-anchor="start" x="250.77" y="-251.62" font-family="Helvetica,sans-Serif" font-size="10.00" fill="grey">errorJmp</text>
</g>
<!-- Node15&#45;&gt;Node15 -->
<g id="edge31_Node000015_Node000015" class="edge">
<title>Node15&#45;&gt;Node15</title>
<g id="a_edge31_Node000015_Node000015"><a xlink:title=" ">
<path fill="none" stroke="#9a32cd" stroke-dasharray="5,2" d="M296.96,-320.05C301.12,-318.93 303.75,-317.12 303.75,-314.62 303.75,-310.31 295.9,-308.05 285.8,-307.84"/>
<polygon fill="#9a32cd" stroke="#9a32cd" points="296.81,-316.54 287.3,-321.22 297.65,-323.49 296.81,-316.54"/>
</a>
</g>
<text xml:space="preserve" text-anchor="start" x="306.75" y="-310.75" font-family="Helvetica,sans-Serif" font-size="10.00" fill="grey">previous</text>
</g>
</g>
</svg>
