<?xml version="1.0" encoding="UTF-8" standalone="no"?>
<!DOCTYPE svg PUBLIC "-//W3C//DTD SVG 1.1//EN"
 "http://www.w3.org/Graphics/SVG/1.1/DTD/svg11.dtd">
<!-- Generated by graphviz version 13.1.0 (20250701.0955)
 -->
<!-- Title: src/userstack.h Pages: 1 -->
<svg width="367pt" height="83pt"
 viewBox="0.00 0.00 367.00 83.00" xmlns="http://www.w3.org/2000/svg" xmlns:xlink="http://www.w3.org/1999/xlink">

<svg id="main" version="1.1" xmlns="http://www.w3.org/2000/svg" xmlns:xlink="http://www.w3.org/1999/xlink" xml:space="preserve">

<style type="text/css"><![CDATA[
.node, .edge {opacity: 0.7;}
.node.selected, .edge.selected {opacity: 1;}
.edge:hover path { stroke: red; }
.edge:hover polygon { stroke: red; fill: red; }
]]></style>
<script type="application/ecmascript" xlink:href="svg.min.js"/>
<svg id="graph" class="graph">
<g id="graph0" class="graph" transform="scale(1 1) rotate(0) translate(4 78.5)">
<title>src/userstack.h</title>
<!-- Node1 -->
<g id="Node000001" class="node">
<title>Node1</title>
<g id="a_Node000001"><a xlink:title=" ">
<polygon fill="#999999" stroke="#666666" points="180.38,-74.5 96.88,-74.5 96.88,-55.25 180.38,-55.25 180.38,-74.5"/>
<text xml:space="preserve" text-anchor="middle" x="138.62" y="-61" font-family="Helvetica,sans-Serif" font-size="10.00">src/userstack.h</text>
</a>
</g>
</g>
<!-- Node2 -->
<g id="Node000002" class="node">
<title>Node2</title>
<g id="a_Node000002"><a xlink:href="main_8c.html" target="_top" xlink:title=" ">
<polygon fill="white" stroke="#666666" points="45.25,-19.25 0,-19.25 0,0 45.25,0 45.25,-19.25"/>
<text xml:space="preserve" text-anchor="middle" x="22.62" y="-5.75" font-family="Helvetica,sans-Serif" font-size="10.00">main.c</text>
</a>
</g>
</g>
<!-- Node1&#45;&gt;Node2 -->
<g id="edge1_Node000001_Node000002" class="edge">
<title>Node1&#45;&gt;Node2</title>
<g id="a_edge1_Node000001_Node000002"><a xlink:title=" ">
<path fill="none" stroke="#63b8ff" d="M108.7,-50.14C87.84,-40.56 60.6,-28.06 42.4,-19.7"/>
<polygon fill="#63b8ff" stroke="#63b8ff" points="107.02,-53.22 117.57,-54.21 109.94,-46.86 107.02,-53.22"/>
</a>
</g>
</g>
<!-- Node3 -->
<g id="Node000003" class="node">
<title>Node3</title>
<g id="a_Node000003"><a xlink:href="app_8c.html" target="_top" xlink:title=" ">
<polygon fill="white" stroke="#666666" points="119.88,-19.25 63.38,-19.25 63.38,0 119.88,0 119.88,-19.25"/>
<text xml:space="preserve" text-anchor="middle" x="91.62" y="-5.75" font-family="Helvetica,sans-Serif" font-size="10.00">src/app.c</text>
</a>
</g>
</g>
<!-- Node1&#45;&gt;Node3 -->
<g id="edge2_Node000001_Node000003" class="edge">
<title>Node1&#45;&gt;Node3</title>
<g id="a_edge2_Node000001_Node000003"><a xlink:title=" ">
<path fill="none" stroke="#63b8ff" d="M123.3,-46.51C115.37,-37.53 106.03,-26.95 99.55,-19.61"/>
<polygon fill="#63b8ff" stroke="#63b8ff" points="120.62,-48.77 129.86,-53.95 125.87,-44.13 120.62,-48.77"/>
</a>
</g>
</g>
<!-- Node4 -->
<g id="Node000004" class="node">
<title>Node4</title>
<g id="a_Node000004"><a xlink:href="game__scene_8c.html" target="_top" xlink:title=" ">
<polygon fill="white" stroke="#666666" points="233.75,-19.25 137.5,-19.25 137.5,0 233.75,0 233.75,-19.25"/>
<text xml:space="preserve" text-anchor="middle" x="185.62" y="-5.75" font-family="Helvetica,sans-Serif" font-size="10.00">src/game_scene.c</text>
</a>
</g>
</g>
<!-- Node1&#45;&gt;Node4 -->
<g id="edge3_Node000001_Node000004" class="edge">
<title>Node1&#45;&gt;Node4</title>
<g id="a_edge3_Node000001_Node000004"><a xlink:title=" ">
<path fill="none" stroke="#63b8ff" d="M153.95,-46.51C161.88,-37.53 171.22,-26.95 177.7,-19.61"/>
<polygon fill="#63b8ff" stroke="#63b8ff" points="151.38,-44.13 147.39,-53.95 156.63,-48.77 151.38,-44.13"/>
</a>
</g>
</g>
<!-- Node5 -->
<g id="Node000005" class="node">
<title>Node5</title>
<g id="a_Node000005"><a xlink:href="settings__scene_8c.html" target="_top" xlink:title=" ">
<polygon fill="white" stroke="#666666" points="359,-19.25 252.25,-19.25 252.25,0 359,0 359,-19.25"/>
<text xml:space="preserve" text-anchor="middle" x="305.62" y="-5.75" font-family="Helvetica,sans-Serif" font-size="10.00">src/settings_scene.c</text>
</a>
</g>
</g>
<!-- Node1&#45;&gt;Node5 -->
<g id="edge4_Node000001_Node000005" class="edge">
<title>Node1&#45;&gt;Node5</title>
<g id="a_edge4_Node000001_Node000005"><a xlink:title=" ">
<path fill="none" stroke="#63b8ff" d="M177.63,-51.44C208.11,-41.72 249.76,-28.44 277.16,-19.7"/>
<polygon fill="#63b8ff" stroke="#63b8ff" points="176.86,-48.01 168.4,-54.38 178.99,-54.68 176.86,-48.01"/>
</a>
</g>
</g>
</g>
</svg>
</svg>

<style type='text/css'>
<![CDATA[
[data-mouse-over-selected='false'] { opacity: 0.7; }
[data-mouse-over-selected='true']  { opacity: 1.0; }
]]>
</style>
<script type="application/ecmascript"><![CDATA[
document.addEventListener('DOMContentLoaded', (event) => {
  highlightEdges();
  highlightAdjacentNodes();
});
]]></script>
</svg>
