<?xml version="1.0" encoding="UTF-8" standalone="no"?>
<!DOCTYPE svg PUBLIC "-//W3C//DTD SVG 1.1//EN"
 "http://www.w3.org/Graphics/SVG/1.1/DTD/svg11.dtd">
<!-- Generated by graphviz version 13.1.0 (20250701.0955)
 -->
<!-- Title: pgb_write_entire_file Pages: 1 -->
<svg width="1397pt" height="148pt"
 viewBox="0.00 0.00 1397.00 148.00" xmlns="http://www.w3.org/2000/svg" xmlns:xlink="http://www.w3.org/1999/xlink">
<g id="graph0" class="graph" transform="scale(1 1) rotate(0) translate(4 144.25)">
<title>pgb_write_entire_file</title>
<!-- Node1 -->
<g id="Node000001" class="node">
<title>Node1</title>
<g id="a_Node000001"><a xlink:title=" ">
<polygon fill="#999999" stroke="#666666" points="1388.5,-59.25 1283.25,-59.25 1283.25,-40 1388.5,-40 1388.5,-59.25"/>
<text xml:space="preserve" text-anchor="middle" x="1335.88" y="-45.75" font-family="Helvetica,sans-Serif" font-size="10.00">pgb_write_entire_file</text>
</a>
</g>
</g>
<!-- Node2 -->
<g id="Node000002" class="node">
<title>Node2</title>
<g id="a_Node000002"><a xlink:href="version_8c.html#ac5eb9cffa5ccf602ed84e4ce770a97f2" target="_top" xlink:title=" ">
<polygon fill="white" stroke="#666666" points="1247.25,-99.25 1196,-99.25 1196,-80 1247.25,-80 1247.25,-99.25"/>
<text xml:space="preserve" text-anchor="middle" x="1221.62" y="-85.75" font-family="Helvetica,sans-Serif" font-size="10.00">CB_Get</text>
</a>
</g>
</g>
<!-- Node1&#45;&gt;Node2 -->
<g id="edge1_Node000001_Node000002" class="edge">
<title>Node1&#45;&gt;Node2</title>
<g id="a_edge1_Node000001_Node000002"><a xlink:title=" ">
<path fill="none" stroke="#63b8ff" d="M1295.84,-63.53C1279.8,-69.25 1261.69,-75.7 1247.5,-80.76"/>
<polygon fill="#63b8ff" stroke="#63b8ff" points="1296.88,-66.88 1305.12,-60.23 1294.53,-60.29 1296.88,-66.88"/>
</a>
</g>
</g>
<!-- Node14 -->
<g id="Node000014" class="node">
<title>Node14</title>
<g id="a_Node000014"><a xlink:href="app_8c.html#ab8cc8e00f77467c63f5f607d0ba40e7c" target="_top" xlink:title=" ">
<polygon fill="white" stroke="#666666" points="1023.62,-19.25 927.38,-19.25 927.38,0 1023.62,0 1023.62,-19.25"/>
<text xml:space="preserve" text-anchor="middle" x="975.5" y="-5.75" font-family="Helvetica,sans-Serif" font-size="10.00">copy_file_callback</text>
</a>
</g>
</g>
<!-- Node1&#45;&gt;Node14 -->
<g id="edge14_Node000001_Node000014" class="edge">
<title>Node1&#45;&gt;Node14</title>
<g id="a_edge14_Node000001_Node000014"><a xlink:title=" ">
<path fill="none" stroke="#63b8ff" d="M1271.35,-42.53C1200.55,-34.63 1087.68,-22.03 1024.09,-14.94"/>
<polygon fill="#63b8ff" stroke="#63b8ff" points="1270.93,-46.01 1281.26,-43.64 1271.71,-39.05 1270.93,-46.01"/>
</a>
</g>
</g>
<!-- Node15 -->
<g id="Node000015" class="node">
<title>Node15</title>
<g id="a_Node000015"><a xlink:href="image__conversion__scene_8c.html#a8ca967e6b1ddc5ae00c20a2ac1f26c39" target="_top" xlink:title=" ">
<polygon fill="white" stroke="#666666" points="1146.5,-59.25 1075,-59.25 1075,-40 1146.5,-40 1146.5,-59.25"/>
<text xml:space="preserve" text-anchor="middle" x="1110.75" y="-45.75" font-family="Helvetica,sans-Serif" font-size="10.00">process_png</text>
</a>
</g>
</g>
<!-- Node1&#45;&gt;Node15 -->
<g id="edge16_Node000001_Node000015" class="edge">
<title>Node1&#45;&gt;Node15</title>
<g id="a_edge16_Node000001_Node000015"><a xlink:title=" ">
<path fill="none" stroke="#63b8ff" d="M1271.47,-49.62C1231.02,-49.62 1180.12,-49.62 1146.8,-49.62"/>
<polygon fill="#63b8ff" stroke="#63b8ff" points="1271.33,-53.13 1281.33,-49.63 1271.33,-46.13 1271.33,-53.13"/>
</a>
</g>
</g>
<!-- Node3 -->
<g id="Node000003" class="node">
<title>Node3</title>
<g id="a_Node000003"><a xlink:href="version_8c.html#a538d156e8a64fa13958cc535e122d9ba" target="_top" xlink:title=" ">
<polygon fill="white" stroke="#666666" points="1160,-100.25 1061.5,-100.25 1061.5,-81 1160,-81 1160,-100.25"/>
<text xml:space="preserve" text-anchor="middle" x="1110.75" y="-86.75" font-family="Helvetica,sans-Serif" font-size="10.00">check_for_updates</text>
</a>
</g>
</g>
<!-- Node2&#45;&gt;Node3 -->
<g id="edge2_Node000002_Node000003" class="edge">
<title>Node2&#45;&gt;Node3</title>
<g id="a_edge2_Node000002_Node000003"><a xlink:title=" ">
<path fill="none" stroke="#63b8ff" d="M1184.4,-89.96C1176.64,-90.03 1168.33,-90.11 1160.19,-90.18"/>
<polygon fill="#63b8ff" stroke="#63b8ff" points="1184.17,-93.46 1194.13,-89.87 1184.1,-86.46 1184.17,-93.46"/>
</a>
</g>
</g>
<!-- Node4 -->
<g id="Node000004" class="node">
<title>Node4</title>
<g id="a_Node000004"><a xlink:href="version_8c.html#a682d7ece5fc09acfb9192de972cba8f2" target="_top" xlink:title=" ">
<polygon fill="white" stroke="#666666" points="1025.5,-107.88 925.5,-107.88 925.5,-77.38 1025.5,-77.38 1025.5,-107.88"/>
<text xml:space="preserve" text-anchor="start" x="933.5" y="-94.38" font-family="Helvetica,sans-Serif" font-size="10.00">possibly_check_for</text>
<text xml:space="preserve" text-anchor="middle" x="975.5" y="-83.12" font-family="Helvetica,sans-Serif" font-size="10.00">_updates</text>
</a>
</g>
</g>
<!-- Node3&#45;&gt;Node4 -->
<g id="edge3_Node000003_Node000004" class="edge">
<title>Node3&#45;&gt;Node4</title>
<g id="a_edge3_Node000003_Node000004"><a xlink:title=" ">
<path fill="none" stroke="#63b8ff" d="M1049.92,-91.52C1041.79,-91.65 1033.53,-91.77 1025.62,-91.89"/>
<polygon fill="#63b8ff" stroke="#63b8ff" points="1049.81,-95.03 1059.75,-91.38 1049.7,-88.03 1049.81,-95.03"/>
</a>
</g>
</g>
<!-- Node5 -->
<g id="Node000005" class="node">
<title>Node5</title>
<g id="a_Node000005"><a xlink:href="library__scene_8c.html#a0728002045c9cbbd68bdd34897b28da6" target="_top" xlink:title=" ">
<polygon fill="white" stroke="#666666" points="889.5,-102.25 755.75,-102.25 755.75,-83 889.5,-83 889.5,-102.25"/>
<text xml:space="preserve" text-anchor="middle" x="822.62" y="-88.75" font-family="Helvetica,sans-Serif" font-size="10.00">PGB_LibraryScene_update</text>
</a>
</g>
</g>
<!-- Node4&#45;&gt;Node5 -->
<g id="edge4_Node000004_Node000005" class="edge">
<title>Node4&#45;&gt;Node5</title>
<g id="a_edge4_Node000004_Node000005"><a xlink:title=" ">
<path fill="none" stroke="#63b8ff" d="M913.77,-92.62C905.91,-92.62 897.82,-92.62 889.87,-92.62"/>
<polygon fill="#63b8ff" stroke="#63b8ff" points="913.58,-96.13 923.58,-92.63 913.58,-89.13 913.58,-96.13"/>
</a>
</g>
</g>
<!-- Node6 -->
<g id="Node000006" class="node">
<title>Node6</title>
<g id="a_Node000006"><a xlink:href="library__scene_8c.html#aa5c386d39121b53fba45d899df654188" target="_top" xlink:title=" ">
<polygon fill="white" stroke="#666666" points="719.75,-102.25 597.25,-102.25 597.25,-83 719.75,-83 719.75,-102.25"/>
<text xml:space="preserve" text-anchor="middle" x="658.5" y="-88.75" font-family="Helvetica,sans-Serif" font-size="10.00">PGB_LibraryScene_new</text>
</a>
</g>
</g>
<!-- Node5&#45;&gt;Node6 -->
<g id="edge5_Node000005_Node000006" class="edge">
<title>Node5&#45;&gt;Node6</title>
<g id="a_edge5_Node000005_Node000006"><a xlink:title=" ">
<path fill="none" stroke="#63b8ff" d="M744.29,-92.62C736.19,-92.62 728.04,-92.62 720.16,-92.62"/>
<polygon fill="#63b8ff" stroke="#63b8ff" points="744.17,-96.13 754.17,-92.63 744.17,-89.13 744.17,-96.13"/>
</a>
</g>
</g>
<!-- Node7 -->
<g id="Node000007" class="node">
<title>Node7</title>
<g id="a_Node000007"><a xlink:href="app_8c.html#ab80501f53b757a79772b96ec99e3dc7e" target="_top" xlink:title=" ">
<polygon fill="white" stroke="#666666" points="534.25,-140.25 441.75,-140.25 441.75,-121 534.25,-121 534.25,-140.25"/>
<text xml:space="preserve" text-anchor="middle" x="488" y="-126.75" font-family="Helvetica,sans-Serif" font-size="10.00">PGB_goToLibrary</text>
</a>
</g>
</g>
<!-- Node6&#45;&gt;Node7 -->
<g id="edge6_Node000006_Node000007" class="edge">
<title>Node6&#45;&gt;Node7</title>
<g id="a_edge6_Node000006_Node000007"><a xlink:title=" ">
<path fill="none" stroke="#63b8ff" d="M601.85,-105.17C579.7,-110.17 554.55,-115.84 533.63,-120.56"/>
<polygon fill="#63b8ff" stroke="#63b8ff" points="602.33,-108.66 611.31,-103.04 600.79,-101.83 602.33,-108.66"/>
</a>
</g>
</g>
<!-- Node10 -->
<g id="Node000010" class="node">
<title>Node10</title>
<g id="a_Node000010"><a xlink:href="image__conversion__scene_8c.html#a60d0e43ab25a8639bbb6d1f4e758edd3" target="_top" xlink:title=" ">
<polygon fill="white" stroke="#666666" points="561.25,-64.88 414.75,-64.88 414.75,-34.38 561.25,-34.38 561.25,-64.88"/>
<text xml:space="preserve" text-anchor="start" x="422.75" y="-51.38" font-family="Helvetica,sans-Serif" font-size="10.00">PGB_ImageConversionScene</text>
<text xml:space="preserve" text-anchor="middle" x="488" y="-40.12" font-family="Helvetica,sans-Serif" font-size="10.00">_update</text>
</a>
</g>
</g>
<!-- Node6&#45;&gt;Node10 -->
<g id="edge9_Node000006_Node000010" class="edge">
<title>Node6&#45;&gt;Node10</title>
<g id="a_edge9_Node000006_Node000010"><a xlink:title=" ">
<path fill="none" stroke="#63b8ff" d="M607.02,-79.74C589.31,-75.22 569.21,-70.09 550.68,-65.37"/>
<polygon fill="#63b8ff" stroke="#63b8ff" points="605.97,-83.09 616.53,-82.17 607.7,-76.31 605.97,-83.09"/>
</a>
</g>
</g>
<!-- Node12 -->
<g id="Node000012" class="node">
<title>Node12</title>
<g id="a_Node000012"><a xlink:href="app_8c.html#af256ea7a9c51fcbd49cb0007facbb8ea" target="_top" xlink:title=" ">
<polygon fill="white" stroke="#666666" points="166.25,-59.25 111.25,-59.25 111.25,-40 166.25,-40 166.25,-59.25"/>
<text xml:space="preserve" text-anchor="middle" x="138.75" y="-45.75" font-family="Helvetica,sans-Serif" font-size="10.00">PGB_init</text>
</a>
</g>
</g>
<!-- Node6&#45;&gt;Node12 -->
<g id="edge13_Node000006_Node000012" class="edge">
<title>Node6&#45;&gt;Node12</title>
<g id="a_edge13_Node000006_Node000012"><a xlink:title=" ">
<path fill="none" stroke="#63b8ff" d="M585.54,-93.5C496.53,-93.49 340.63,-89.95 209,-68.62 194.72,-66.31 179.17,-62.19 166.42,-58.38"/>
<polygon fill="#63b8ff" stroke="#63b8ff" points="585.34,-97 595.34,-93.48 585.33,-90 585.34,-97"/>
</a>
</g>
</g>
<!-- Node8 -->
<g id="Node000008" class="node">
<title>Node8</title>
<g id="a_Node000008"><a xlink:href="game__scene_8c.html#a6a4a6f0408da311dc566eb187e497889" target="_top" xlink:title=" ">
<polygon fill="white" stroke="#666666" points="360,-140.25 227.75,-140.25 227.75,-121 360,-121 360,-140.25"/>
<text xml:space="preserve" text-anchor="middle" x="293.88" y="-126.75" font-family="Helvetica,sans-Serif" font-size="10.00">PGB_LibraryConfirmModal</text>
</a>
</g>
</g>
<!-- Node7&#45;&gt;Node8 -->
<g id="edge7_Node000007_Node000008" class="edge">
<title>Node7&#45;&gt;Node8</title>
<g id="a_edge7_Node000007_Node000008"><a xlink:title=" ">
<path fill="none" stroke="#63b8ff" d="M430.03,-130.62C408.17,-130.62 383.05,-130.62 360.44,-130.62"/>
<polygon fill="#63b8ff" stroke="#63b8ff" points="429.96,-134.13 439.96,-130.63 429.96,-127.13 429.96,-134.13"/>
</a>
</g>
</g>
<!-- Node9 -->
<g id="Node000009" class="node">
<title>Node9</title>
<g id="a_Node000009"><a xlink:href="game__scene_8c.html#a113df24bb94bafcdbb9235ec8648e02f" target="_top" xlink:title=" ">
<polygon fill="white" stroke="#666666" points="173,-140.25 104.5,-140.25 104.5,-121 173,-121 173,-140.25"/>
<text xml:space="preserve" text-anchor="middle" x="138.75" y="-126.75" font-family="Helvetica,sans-Serif" font-size="10.00">__section__</text>
</a>
</g>
</g>
<!-- Node8&#45;&gt;Node9 -->
<g id="edge8_Node000008_Node000009" class="edge">
<title>Node8&#45;&gt;Node9</title>
<g id="a_edge8_Node000008_Node000009"><a xlink:title=" ">
<path fill="none" stroke="#63b8ff" d="M216.03,-130.62C200.98,-130.62 185.96,-130.62 173.27,-130.62"/>
<polygon fill="#63b8ff" stroke="#63b8ff" points="215.98,-134.13 225.98,-130.63 215.98,-127.13 215.98,-134.13"/>
</a>
</g>
</g>
<!-- Node11 -->
<g id="Node000011" class="node">
<title>Node11</title>
<g id="a_Node000011"><a xlink:href="image__conversion__scene_8c.html#aa3559936491ddf78b9cf06fcbdd32d22" target="_top" xlink:title=" ">
<polygon fill="white" stroke="#666666" points="378.75,-59.25 209,-59.25 209,-40 378.75,-40 378.75,-59.25"/>
<text xml:space="preserve" text-anchor="middle" x="293.88" y="-45.75" font-family="Helvetica,sans-Serif" font-size="10.00">PGB_ImageConversionScene_new</text>
</a>
</g>
</g>
<!-- Node10&#45;&gt;Node11 -->
<g id="edge10_Node000010_Node000011" class="edge">
<title>Node10&#45;&gt;Node11</title>
<g id="a_edge10_Node000010_Node000011"><a xlink:title=" ">
<path fill="none" stroke="#63b8ff" d="M402.94,-49.62C395.07,-49.62 387.09,-49.62 379.22,-49.62"/>
<polygon fill="#63b8ff" stroke="#63b8ff" points="402.85,-53.13 412.85,-49.63 402.85,-46.13 402.85,-53.13"/>
</a>
</g>
</g>
<!-- Node11&#45;&gt;Node12 -->
<g id="edge11_Node000011_Node000012" class="edge">
<title>Node11&#45;&gt;Node12</title>
<g id="a_edge11_Node000011_Node000012"><a xlink:title=" ">
<path fill="none" stroke="#63b8ff" d="M197.35,-49.62C186.15,-49.62 175.53,-49.62 166.53,-49.62"/>
<polygon fill="#63b8ff" stroke="#63b8ff" points="197.18,-53.13 207.18,-49.63 197.18,-46.13 197.18,-53.13"/>
</a>
</g>
</g>
<!-- Node13 -->
<g id="Node000013" class="node">
<title>Node13</title>
<g id="a_Node000013"><a xlink:href="main_8c.html#a77034286b8c64d0735c69535c5e9b732" target="_top" xlink:title=" ">
<polygon fill="white" stroke="#666666" points="68.5,-59.25 0,-59.25 0,-40 68.5,-40 68.5,-59.25"/>
<text xml:space="preserve" text-anchor="middle" x="34.25" y="-45.75" font-family="Helvetica,sans-Serif" font-size="10.00">__section__</text>
</a>
</g>
</g>
<!-- Node12&#45;&gt;Node13 -->
<g id="edge12_Node000012_Node000013" class="edge">
<title>Node12&#45;&gt;Node13</title>
<g id="a_edge12_Node000012_Node000013"><a xlink:title=" ">
<path fill="none" stroke="#63b8ff" d="M99.48,-49.62C89.46,-49.62 78.74,-49.62 68.97,-49.62"/>
<polygon fill="#63b8ff" stroke="#63b8ff" points="99.31,-53.13 109.31,-49.63 99.31,-46.13 99.31,-53.13"/>
</a>
</g>
</g>
<!-- Node14&#45;&gt;Node12 -->
<g id="edge15_Node000014_Node000012" class="edge">
<title>Node14&#45;&gt;Node12</title>
<g id="a_edge15_Node000014_Node000012"><a xlink:title=" ">
<path fill="none" stroke="#63b8ff" d="M915.67,-8.73C852.4,-7.85 748.83,-6.63 659.5,-6.62 659.5,-6.62 659.5,-6.62 487,-6.62 362.98,-6.63 331.08,-8.8 209,-30.62 194.76,-33.17 179.21,-37.31 166.46,-41.08"/>
<polygon fill="#63b8ff" stroke="#63b8ff" points="915.44,-12.23 925.49,-8.87 915.54,-5.23 915.44,-12.23"/>
</a>
</g>
</g>
<!-- Node15&#45;&gt;Node10 -->
<g id="edge17_Node000015_Node000010" class="edge">
<title>Node15&#45;&gt;Node10</title>
<g id="a_edge17_Node000015_Node000010"><a xlink:title=" ">
<path fill="none" stroke="#63b8ff" d="M1063.21,-49.62C955.89,-49.62 690.39,-49.62 561.51,-49.62"/>
<polygon fill="#63b8ff" stroke="#63b8ff" points="1063.08,-53.13 1073.08,-49.63 1063.08,-46.13 1063.08,-53.13"/>
</a>
</g>
</g>
</g>
</svg>
