<?xml version="1.0" encoding="UTF-8" standalone="no"?>
<!DOCTYPE svg PUBLIC "-//W3C//DTD SVG 1.1//EN"
 "http://www.w3.org/Graphics/SVG/1.1/DTD/svg11.dtd">
<!-- Generated by graphviz version 13.1.0 (20250701.0955)
 -->
<!-- Title: src/utility.h Pages: 1 -->
<svg width="201pt" height="138pt"
 viewBox="0.00 0.00 201.00 138.00" xmlns="http://www.w3.org/2000/svg" xmlns:xlink="http://www.w3.org/1999/xlink">

<svg id="main" version="1.1" xmlns="http://www.w3.org/2000/svg" xmlns:xlink="http://www.w3.org/1999/xlink" xml:space="preserve">

<style type="text/css"><![CDATA[
.node, .edge {opacity: 0.7;}
.node.selected, .edge.selected {opacity: 1;}
.edge:hover path { stroke: red; }
.edge:hover polygon { stroke: red; fill: red; }
]]></style>
<script type="application/ecmascript" xlink:href="svg.min.js"/>
<svg id="graph" class="graph">
<g id="graph0" class="graph" transform="scale(1 1) rotate(0) translate(4 133.75)">
<title>src/utility.h</title>
<!-- Node1 -->
<g id="Node000001" class="node">
<title>Node1</title>
<g id="a_Node000001"><a xlink:title=" ">
<polygon fill="#999999" stroke="#666666" points="119.12,-129.75 56.62,-129.75 56.62,-110.5 119.12,-110.5 119.12,-129.75"/>
<text xml:space="preserve" text-anchor="middle" x="87.88" y="-116.25" font-family="Helvetica,sans-Serif" font-size="10.00">src/utility.h</text>
</a>
</g>
</g>
<!-- Node2 -->
<g id="Node000002" class="node">
<title>Node2</title>
<g id="a_Node000002"><a xlink:href="array_8h.html" target="_top" xlink:title=" ">
<polygon fill="white" stroke="#666666" points="85.12,-74.5 40.62,-74.5 40.62,-55.25 85.12,-55.25 85.12,-74.5"/>
<text xml:space="preserve" text-anchor="middle" x="62.88" y="-61" font-family="Helvetica,sans-Serif" font-size="10.00">array.h</text>
</a>
</g>
</g>
<!-- Node1&#45;&gt;Node2 -->
<g id="edge1_Node000001_Node000002" class="edge">
<title>Node1&#45;&gt;Node2</title>
<g id="a_edge1_Node000001_Node000002"><a xlink:title=" ">
<path fill="none" stroke="#63b8ff" d="M83.75,-110.33C80.55,-103.51 75.99,-93.81 71.95,-85.2"/>
<polygon fill="#63b8ff" stroke="#63b8ff" points="75.15,-83.79 67.74,-76.23 68.82,-86.77 75.15,-83.79"/>
</a>
</g>
</g>
<!-- Node3 -->
<g id="Node000003" class="node">
<title>Node3</title>
<g id="a_Node000003"><a xlink:title=" ">
<polygon fill="#e0e0e0" stroke="#999999" points="55.75,-19.25 0,-19.25 0,0 55.75,0 55.75,-19.25"/>
<text xml:space="preserve" text-anchor="middle" x="27.88" y="-5.75" font-family="Helvetica,sans-Serif" font-size="10.00">stdbool.h</text>
</a>
</g>
</g>
<!-- Node1&#45;&gt;Node3 -->
<g id="edge5_Node000001_Node000003" class="edge">
<title>Node1&#45;&gt;Node3</title>
<g id="a_edge5_Node000001_Node000003"><a xlink:title=" ">
<path fill="none" stroke="#63b8ff" d="M69.85,-110.09C56.83,-102.51 40.15,-90.38 31.88,-74.5 24.87,-61.06 24.2,-43.81 25.09,-30.62"/>
<polygon fill="#63b8ff" stroke="#63b8ff" points="28.54,-31.3 26.12,-20.99 21.58,-30.56 28.54,-31.3"/>
</a>
</g>
</g>
<!-- Node4 -->
<g id="Node000004" class="node">
<title>Node4</title>
<g id="a_Node000004"><a xlink:title=" ">
<polygon fill="#e0e0e0" stroke="#999999" points="127.5,-19.25 82.25,-19.25 82.25,0 127.5,0 127.5,-19.25"/>
<text xml:space="preserve" text-anchor="middle" x="104.88" y="-5.75" font-family="Helvetica,sans-Serif" font-size="10.00">stdio.h</text>
</a>
</g>
</g>
<!-- Node1&#45;&gt;Node4 -->
<g id="edge6_Node000001_Node000004" class="edge">
<title>Node1&#45;&gt;Node4</title>
<g id="a_edge6_Node000001_Node000004"><a xlink:title=" ">
<path fill="none" stroke="#63b8ff" d="M89.27,-110.25C91.97,-93 97.99,-54.58 101.71,-30.81"/>
<polygon fill="#63b8ff" stroke="#63b8ff" points="105.14,-31.54 103.23,-21.12 98.22,-30.46 105.14,-31.54"/>
</a>
</g>
</g>
<!-- Node5 -->
<g id="Node000005" class="node">
<title>Node5</title>
<g id="a_Node000005"><a xlink:title=" ">
<polygon fill="#e0e0e0" stroke="#999999" points="193.25,-74.5 140.5,-74.5 140.5,-55.25 193.25,-55.25 193.25,-74.5"/>
<text xml:space="preserve" text-anchor="middle" x="166.88" y="-61" font-family="Helvetica,sans-Serif" font-size="10.00">pd_api.h</text>
</a>
</g>
</g>
<!-- Node1&#45;&gt;Node5 -->
<g id="edge4_Node000001_Node000005" class="edge">
<title>Node1&#45;&gt;Node5</title>
<g id="a_edge4_Node000001_Node000005"><a xlink:title=" ">
<path fill="none" stroke="#63b8ff" d="M101.28,-110.09C112.97,-102.21 130.18,-90.61 144.04,-81.27"/>
<polygon fill="#63b8ff" stroke="#63b8ff" points="145.82,-84.29 152.15,-75.8 141.9,-78.49 145.82,-84.29"/>
</a>
</g>
</g>
<!-- Node2&#45;&gt;Node3 -->
<g id="edge2_Node000002_Node000003" class="edge">
<title>Node2&#45;&gt;Node3</title>
<g id="a_edge2_Node000002_Node000003"><a xlink:title=" ">
<path fill="none" stroke="#63b8ff" d="M57.1,-55.08C52.46,-48.03 45.8,-37.9 40.01,-29.08"/>
<polygon fill="#63b8ff" stroke="#63b8ff" points="43.03,-27.31 34.61,-20.87 37.18,-31.15 43.03,-27.31"/>
</a>
</g>
</g>
<!-- Node2&#45;&gt;Node4 -->
<g id="edge3_Node000002_Node000004" class="edge">
<title>Node2&#45;&gt;Node4</title>
<g id="a_edge3_Node000002_Node000004"><a xlink:title=" ">
<path fill="none" stroke="#63b8ff" d="M69.81,-55.08C75.49,-47.88 83.71,-37.46 90.77,-28.51"/>
<polygon fill="#63b8ff" stroke="#63b8ff" points="93.41,-30.82 96.85,-20.8 87.91,-26.48 93.41,-30.82"/>
</a>
</g>
</g>
</g>
</svg>
</svg>

<style type='text/css'>
<![CDATA[
[data-mouse-over-selected='false'] { opacity: 0.7; }
[data-mouse-over-selected='true']  { opacity: 1.0; }
]]>
</style>
<script type="application/ecmascript"><![CDATA[
document.addEventListener('DOMContentLoaded', (event) => {
  highlightEdges();
  highlightAdjacentNodes();
});
]]></script>
</svg>
