<?xml version="1.0" encoding="UTF-8" standalone="no"?>
<!DOCTYPE svg PUBLIC "-//W3C//DTD SVG 1.1//EN"
 "http://www.w3.org/Graphics/SVG/1.1/DTD/svg11.dtd">
<!-- Generated by graphviz version 13.1.0 (20250701.0955)
 -->
<!-- Title: pgb_clear_global_cover_cache Pages: 1 -->
<svg width="1052pt" height="150pt"
 viewBox="0.00 0.00 1052.00 150.00" xmlns="http://www.w3.org/2000/svg" xmlns:xlink="http://www.w3.org/1999/xlink">
<g id="graph0" class="graph" transform="scale(1 1) rotate(0) translate(4 146.25)">
<title>pgb_clear_global_cover_cache</title>
<!-- Node1 -->
<g id="Node000001" class="node">
<title>Node1</title>
<g id="a_Node000001"><a xlink:title=" ">
<polygon fill="#999999" stroke="#666666" points="1043.5,-65.88 925.5,-65.88 925.5,-35.38 1043.5,-35.38 1043.5,-65.88"/>
<text xml:space="preserve" text-anchor="start" x="933.5" y="-52.38" font-family="Helvetica,sans-Serif" font-size="10.00">pgb_clear_global_cover</text>
<text xml:space="preserve" text-anchor="middle" x="984.5" y="-41.12" font-family="Helvetica,sans-Serif" font-size="10.00">_cache</text>
</a>
</g>
</g>
<!-- Node2 -->
<g id="Node000002" class="node">
<title>Node2</title>
<g id="a_Node000002"><a xlink:href="library__scene_8c.html#aa5c386d39121b53fba45d899df654188" target="_top" xlink:title=" ">
<polygon fill="white" stroke="#666666" points="719.75,-98.25 597.25,-98.25 597.25,-79 719.75,-79 719.75,-98.25"/>
<text xml:space="preserve" text-anchor="middle" x="658.5" y="-84.75" font-family="Helvetica,sans-Serif" font-size="10.00">PGB_LibraryScene_new</text>
</a>
</g>
</g>
<!-- Node1&#45;&gt;Node2 -->
<g id="edge1_Node000001_Node000002" class="edge">
<title>Node1&#45;&gt;Node2</title>
<g id="a_edge1_Node000001_Node000002"><a xlink:title=" ">
<path fill="none" stroke="#63b8ff" d="M913.91,-65.64C905.71,-67.13 897.43,-68.5 889.5,-69.62 832.38,-77.73 766.74,-82.73 720.25,-85.55"/>
<polygon fill="#63b8ff" stroke="#63b8ff" points="914.35,-69.12 923.53,-63.83 913.05,-62.24 914.35,-69.12"/>
</a>
</g>
</g>
<!-- Node10 -->
<g id="Node000010" class="node">
<title>Node10</title>
<g id="a_Node000010"><a xlink:href="library__scene_8c.html#a0728002045c9cbbd68bdd34897b28da6" target="_top" xlink:title=" ">
<polygon fill="white" stroke="#666666" points="889.5,-60.25 755.75,-60.25 755.75,-41 889.5,-41 889.5,-60.25"/>
<text xml:space="preserve" text-anchor="middle" x="822.62" y="-46.75" font-family="Helvetica,sans-Serif" font-size="10.00">PGB_LibraryScene_update</text>
</a>
</g>
</g>
<!-- Node1&#45;&gt;Node10 -->
<g id="edge10_Node000001_Node000010" class="edge">
<title>Node1&#45;&gt;Node10</title>
<g id="a_edge10_Node000001_Node000010"><a xlink:title=" ">
<path fill="none" stroke="#63b8ff" d="M913.82,-50.62C905.87,-50.62 897.78,-50.62 889.88,-50.62"/>
<polygon fill="#63b8ff" stroke="#63b8ff" points="913.82,-54.13 923.82,-50.63 913.82,-47.13 913.82,-54.13"/>
</a>
</g>
</g>
<!-- Node11 -->
<g id="Node000011" class="node">
<title>Node11</title>
<g id="a_Node000011"><a xlink:href="app_8c.html#a17d2c8da5e857d9ab9856aafe525dcca" target="_top" xlink:title=" ">
<polygon fill="white" stroke="#666666" points="687.5,-19.25 629.5,-19.25 629.5,0 687.5,0 687.5,-19.25"/>
<text xml:space="preserve" text-anchor="middle" x="658.5" y="-5.75" font-family="Helvetica,sans-Serif" font-size="10.00">PGB_quit</text>
</a>
</g>
</g>
<!-- Node1&#45;&gt;Node11 -->
<g id="edge12_Node000001_Node000011" class="edge">
<title>Node1&#45;&gt;Node11</title>
<g id="a_edge12_Node000001_Node000011"><a xlink:title=" ">
<path fill="none" stroke="#63b8ff" d="M914.07,-35.75C905.81,-34.23 897.48,-32.81 889.5,-31.62 817.29,-20.9 731.5,-14.31 687.94,-11.39"/>
<polygon fill="#63b8ff" stroke="#63b8ff" points="913.28,-39.16 923.76,-37.59 914.59,-32.28 913.28,-39.16"/>
</a>
</g>
</g>
<!-- Node3 -->
<g id="Node000003" class="node">
<title>Node3</title>
<g id="a_Node000003"><a xlink:href="app_8c.html#ab80501f53b757a79772b96ec99e3dc7e" target="_top" xlink:title=" ">
<polygon fill="white" stroke="#666666" points="534.25,-142.25 441.75,-142.25 441.75,-123 534.25,-123 534.25,-142.25"/>
<text xml:space="preserve" text-anchor="middle" x="488" y="-128.75" font-family="Helvetica,sans-Serif" font-size="10.00">PGB_goToLibrary</text>
</a>
</g>
</g>
<!-- Node2&#45;&gt;Node3 -->
<g id="edge2_Node000002_Node000003" class="edge">
<title>Node2&#45;&gt;Node3</title>
<g id="a_edge2_Node000002_Node000003"><a xlink:title=" ">
<path fill="none" stroke="#63b8ff" d="M607.87,-101.59C582.3,-108.26 551.57,-116.29 527.77,-122.5"/>
<polygon fill="#63b8ff" stroke="#63b8ff" points="608.59,-105.01 617.38,-99.1 606.82,-98.24 608.59,-105.01"/>
</a>
</g>
</g>
<!-- Node6 -->
<g id="Node000006" class="node">
<title>Node6</title>
<g id="a_Node000006"><a xlink:href="image__conversion__scene_8c.html#a60d0e43ab25a8639bbb6d1f4e758edd3" target="_top" xlink:title=" ">
<polygon fill="white" stroke="#666666" points="561.25,-104.88 414.75,-104.88 414.75,-74.38 561.25,-74.38 561.25,-104.88"/>
<text xml:space="preserve" text-anchor="start" x="422.75" y="-91.38" font-family="Helvetica,sans-Serif" font-size="10.00">PGB_ImageConversionScene</text>
<text xml:space="preserve" text-anchor="middle" x="488" y="-80.12" font-family="Helvetica,sans-Serif" font-size="10.00">_update</text>
</a>
</g>
</g>
<!-- Node2&#45;&gt;Node6 -->
<g id="edge5_Node000002_Node000006" class="edge">
<title>Node2&#45;&gt;Node6</title>
<g id="a_edge5_Node000002_Node000006"><a xlink:title=" ">
<path fill="none" stroke="#63b8ff" d="M585.9,-89.05C577.86,-89.1 569.65,-89.15 561.6,-89.19"/>
<polygon fill="#63b8ff" stroke="#63b8ff" points="585.65,-92.55 595.63,-88.99 585.61,-85.55 585.65,-92.55"/>
</a>
</g>
</g>
<!-- Node8 -->
<g id="Node000008" class="node">
<title>Node8</title>
<g id="a_Node000008"><a xlink:href="app_8c.html#af256ea7a9c51fcbd49cb0007facbb8ea" target="_top" xlink:title=" ">
<polygon fill="white" stroke="#666666" points="166.25,-56.25 111.25,-56.25 111.25,-37 166.25,-37 166.25,-56.25"/>
<text xml:space="preserve" text-anchor="middle" x="138.75" y="-42.75" font-family="Helvetica,sans-Serif" font-size="10.00">PGB_init</text>
</a>
</g>
</g>
<!-- Node2&#45;&gt;Node8 -->
<g id="edge9_Node000002_Node000008" class="edge">
<title>Node2&#45;&gt;Node8</title>
<g id="a_edge9_Node000002_Node000008"><a xlink:title=" ">
<path fill="none" stroke="#63b8ff" d="M611.51,-75.76C595.7,-71.84 577.81,-67.96 561.25,-65.62 413.28,-44.8 233.48,-45.1 166.54,-46.08"/>
<polygon fill="#63b8ff" stroke="#63b8ff" points="610.58,-79.14 621.14,-78.22 612.32,-72.35 610.58,-79.14"/>
</a>
</g>
</g>
<!-- Node4 -->
<g id="Node000004" class="node">
<title>Node4</title>
<g id="a_Node000004"><a xlink:href="game__scene_8c.html#a6a4a6f0408da311dc566eb187e497889" target="_top" xlink:title=" ">
<polygon fill="white" stroke="#666666" points="360,-142.25 227.75,-142.25 227.75,-123 360,-123 360,-142.25"/>
<text xml:space="preserve" text-anchor="middle" x="293.88" y="-128.75" font-family="Helvetica,sans-Serif" font-size="10.00">PGB_LibraryConfirmModal</text>
</a>
</g>
</g>
<!-- Node3&#45;&gt;Node4 -->
<g id="edge3_Node000003_Node000004" class="edge">
<title>Node3&#45;&gt;Node4</title>
<g id="a_edge3_Node000003_Node000004"><a xlink:title=" ">
<path fill="none" stroke="#63b8ff" d="M430.03,-132.62C408.17,-132.62 383.05,-132.62 360.44,-132.62"/>
<polygon fill="#63b8ff" stroke="#63b8ff" points="429.96,-136.13 439.96,-132.63 429.96,-129.13 429.96,-136.13"/>
</a>
</g>
</g>
<!-- Node5 -->
<g id="Node000005" class="node">
<title>Node5</title>
<g id="a_Node000005"><a xlink:href="game__scene_8c.html#a113df24bb94bafcdbb9235ec8648e02f" target="_top" xlink:title=" ">
<polygon fill="white" stroke="#666666" points="173,-142.25 104.5,-142.25 104.5,-123 173,-123 173,-142.25"/>
<text xml:space="preserve" text-anchor="middle" x="138.75" y="-128.75" font-family="Helvetica,sans-Serif" font-size="10.00">__section__</text>
</a>
</g>
</g>
<!-- Node4&#45;&gt;Node5 -->
<g id="edge4_Node000004_Node000005" class="edge">
<title>Node4&#45;&gt;Node5</title>
<g id="a_edge4_Node000004_Node000005"><a xlink:title=" ">
<path fill="none" stroke="#63b8ff" d="M216.03,-132.62C200.98,-132.62 185.96,-132.62 173.27,-132.62"/>
<polygon fill="#63b8ff" stroke="#63b8ff" points="215.98,-136.13 225.98,-132.63 215.98,-129.13 215.98,-136.13"/>
</a>
</g>
</g>
<!-- Node7 -->
<g id="Node000007" class="node">
<title>Node7</title>
<g id="a_Node000007"><a xlink:href="image__conversion__scene_8c.html#aa3559936491ddf78b9cf06fcbdd32d22" target="_top" xlink:title=" ">
<polygon fill="white" stroke="#666666" points="378.75,-97.25 209,-97.25 209,-78 378.75,-78 378.75,-97.25"/>
<text xml:space="preserve" text-anchor="middle" x="293.88" y="-83.75" font-family="Helvetica,sans-Serif" font-size="10.00">PGB_ImageConversionScene_new</text>
</a>
</g>
</g>
<!-- Node6&#45;&gt;Node7 -->
<g id="edge6_Node000006_Node000007" class="edge">
<title>Node6&#45;&gt;Node7</title>
<g id="a_edge6_Node000006_Node000007"><a xlink:title=" ">
<path fill="none" stroke="#63b8ff" d="M402.94,-88.75C395.07,-88.67 387.09,-88.58 379.22,-88.5"/>
<polygon fill="#63b8ff" stroke="#63b8ff" points="402.82,-92.25 412.85,-88.85 402.89,-85.25 402.82,-92.25"/>
</a>
</g>
</g>
<!-- Node7&#45;&gt;Node8 -->
<g id="edge7_Node000007_Node000008" class="edge">
<title>Node7&#45;&gt;Node8</title>
<g id="a_edge7_Node000007_Node000008"><a xlink:title=" ">
<path fill="none" stroke="#63b8ff" d="M244.39,-74.64C218.73,-67.77 188.18,-59.59 166.74,-53.85"/>
<polygon fill="#63b8ff" stroke="#63b8ff" points="243.39,-78 253.95,-77.2 245.2,-71.24 243.39,-78"/>
</a>
</g>
</g>
<!-- Node9 -->
<g id="Node000009" class="node">
<title>Node9</title>
<g id="a_Node000009"><a xlink:href="main_8c.html#a77034286b8c64d0735c69535c5e9b732" target="_top" xlink:title=" ">
<polygon fill="white" stroke="#666666" points="68.5,-37.25 0,-37.25 0,-18 68.5,-18 68.5,-37.25"/>
<text xml:space="preserve" text-anchor="middle" x="34.25" y="-23.75" font-family="Helvetica,sans-Serif" font-size="10.00">__section__</text>
</a>
</g>
</g>
<!-- Node8&#45;&gt;Node9 -->
<g id="edge8_Node000008_Node000009" class="edge">
<title>Node8&#45;&gt;Node9</title>
<g id="a_edge8_Node000008_Node000009"><a xlink:title=" ">
<path fill="none" stroke="#63b8ff" d="M99.81,-39.59C89.7,-37.72 78.84,-35.71 68.97,-33.88"/>
<polygon fill="#63b8ff" stroke="#63b8ff" points="98.86,-42.98 109.33,-41.36 100.14,-36.09 98.86,-42.98"/>
</a>
</g>
</g>
<!-- Node10&#45;&gt;Node2 -->
<g id="edge11_Node000010_Node000002" class="edge">
<title>Node10&#45;&gt;Node2</title>
<g id="a_edge11_Node000010_Node000002"><a xlink:title=" ">
<path fill="none" stroke="#63b8ff" d="M767.5,-63.31C746.33,-68.27 722.39,-73.88 702.44,-78.56"/>
<polygon fill="#63b8ff" stroke="#63b8ff" points="768.19,-66.74 777.13,-61.05 766.6,-59.93 768.19,-66.74"/>
</a>
</g>
</g>
<!-- Node11&#45;&gt;Node9 -->
<g id="edge13_Node000011_Node000009" class="edge">
<title>Node11&#45;&gt;Node9</title>
<g id="a_edge13_Node000011_Node000009"><a xlink:title=" ">
<path fill="none" stroke="#63b8ff" d="M617.84,-10.77C503.64,-14.08 175.36,-23.57 68.97,-26.65"/>
<polygon fill="#63b8ff" stroke="#63b8ff" points="617.74,-14.28 627.63,-10.49 617.54,-7.28 617.74,-14.28"/>
</a>
</g>
</g>
</g>
</svg>
