<?xml version="1.0" encoding="UTF-8" standalone="no"?>
<!DOCTYPE svg PUBLIC "-//W3C//DTD SVG 1.1//EN"
 "http://www.w3.org/Graphics/SVG/1.1/DTD/svg11.dtd">
<!-- Generated by graphviz version 13.1.0 (20250701.0955)
 -->
<!-- Title: pgb_basename Pages: 1 -->
<svg width="1324pt" height="114pt"
 viewBox="0.00 0.00 1324.00 114.00" xmlns="http://www.w3.org/2000/svg" xmlns:xlink="http://www.w3.org/1999/xlink">
<g id="graph0" class="graph" transform="scale(1 1) rotate(0) translate(4 109.88)">
<title>pgb_basename</title>
<!-- Node1 -->
<g id="Node000001" class="node">
<title>Node1</title>
<g id="a_Node000001"><a xlink:title=" ">
<polygon fill="#999999" stroke="#666666" points="1315.5,-62.88 1233.5,-62.88 1233.5,-43.62 1315.5,-43.62 1315.5,-62.88"/>
<text xml:space="preserve" text-anchor="middle" x="1274.5" y="-49.38" font-family="Helvetica,sans-Serif" font-size="10.00">pgb_basename</text>
</a>
</g>
</g>
<!-- Node2 -->
<g id="Node000002" class="node">
<title>Node2</title>
<g id="a_Node000002"><a xlink:href="game__scene_8c.html#aaf76d78ef4cac3bf58ea4d5b8c7c38e3" target="_top" xlink:title=" ">
<polygon fill="white" stroke="#666666" points="1197.5,-62.88 1081,-62.88 1081,-43.62 1197.5,-43.62 1197.5,-62.88"/>
<text xml:space="preserve" text-anchor="middle" x="1139.25" y="-49.38" font-family="Helvetica,sans-Serif" font-size="10.00">pgb_game_config_path</text>
</a>
</g>
</g>
<!-- Node1&#45;&gt;Node2 -->
<g id="edge1_Node000001_Node000002" class="edge">
<title>Node1&#45;&gt;Node2</title>
<g id="a_edge1_Node000001_Node000002"><a xlink:title=" ">
<path fill="none" stroke="#63b8ff" d="M1221.83,-53.25C1213.91,-53.25 1205.69,-53.25 1197.66,-53.25"/>
<polygon fill="#63b8ff" stroke="#63b8ff" points="1221.65,-56.75 1231.65,-53.25 1221.65,-49.75 1221.65,-56.75"/>
</a>
</g>
</g>
<!-- Node3 -->
<g id="Node000003" class="node">
<title>Node3</title>
<g id="a_Node000003"><a xlink:href="game__scene_8c.html#ab923ed4c6ccad95026e85e252071716d" target="_top" xlink:title=" ">
<polygon fill="white" stroke="#666666" points="1045,-67.88 925.5,-67.88 925.5,-48.62 1045,-48.62 1045,-67.88"/>
<text xml:space="preserve" text-anchor="middle" x="985.25" y="-54.38" font-family="Helvetica,sans-Serif" font-size="10.00">PGB_GameScene_new</text>
</a>
</g>
</g>
<!-- Node1&#45;&gt;Node3 -->
<g id="edge13_Node000001_Node000003" class="edge">
<title>Node1&#45;&gt;Node3</title>
<g id="a_edge13_Node000001_Node000003"><a xlink:title=" ">
<path fill="none" stroke="#63b8ff" d="M1229.58,-66.17C1219.15,-68.69 1208.01,-70.96 1197.5,-72.25 1146.11,-78.58 1132.64,-76.04 1081,-72.25 1069.47,-71.4 1057.22,-69.98 1045.49,-68.37"/>
<polygon fill="#63b8ff" stroke="#63b8ff" points="1230.25,-69.61 1239.07,-63.74 1228.51,-62.83 1230.25,-69.61"/>
</a>
</g>
</g>
<!-- Node13 -->
<g id="Node000013" class="node">
<title>Node13</title>
<g id="a_Node000013"><a xlink:href="image__conversion__scene_8c.html#a8ca967e6b1ddc5ae00c20a2ac1f26c39" target="_top" xlink:title=" ">
<polygon fill="white" stroke="#666666" points="1021,-24.88 949.5,-24.88 949.5,-5.62 1021,-5.62 1021,-24.88"/>
<text xml:space="preserve" text-anchor="middle" x="985.25" y="-11.38" font-family="Helvetica,sans-Serif" font-size="10.00">process_png</text>
</a>
</g>
</g>
<!-- Node1&#45;&gt;Node13 -->
<g id="edge14_Node000001_Node000013" class="edge">
<title>Node1&#45;&gt;Node13</title>
<g id="a_edge14_Node000001_Node000013"><a xlink:title=" ">
<path fill="none" stroke="#63b8ff" d="M1227.07,-40.43C1217.36,-38.09 1207.14,-35.88 1197.5,-34.25 1135.96,-23.85 1063.3,-18.9 1021.23,-16.73"/>
<polygon fill="#63b8ff" stroke="#63b8ff" points="1226.15,-43.81 1236.7,-42.84 1227.85,-37.02 1226.15,-43.81"/>
</a>
</g>
</g>
<!-- Node2&#45;&gt;Node3 -->
<g id="edge2_Node000002_Node000003" class="edge">
<title>Node2&#45;&gt;Node3</title>
<g id="a_edge2_Node000002_Node000003"><a xlink:title=" ">
<path fill="none" stroke="#63b8ff" d="M1069.49,-55.51C1061.42,-55.78 1053.23,-56.05 1045.31,-56.31"/>
<polygon fill="#63b8ff" stroke="#63b8ff" points="1069.39,-59.02 1079.27,-55.19 1069.16,-52.02 1069.39,-59.02"/>
</a>
</g>
</g>
<!-- Node4 -->
<g id="Node000004" class="node">
<title>Node4</title>
<g id="a_Node000004"><a xlink:href="library__scene_8c.html#a0728002045c9cbbd68bdd34897b28da6" target="_top" xlink:title=" ">
<polygon fill="white" stroke="#666666" points="889.5,-67.88 755.75,-67.88 755.75,-48.62 889.5,-48.62 889.5,-67.88"/>
<text xml:space="preserve" text-anchor="middle" x="822.62" y="-54.38" font-family="Helvetica,sans-Serif" font-size="10.00">PGB_LibraryScene_update</text>
</a>
</g>
</g>
<!-- Node3&#45;&gt;Node4 -->
<g id="edge3_Node000003_Node000004" class="edge">
<title>Node3&#45;&gt;Node4</title>
<g id="a_edge3_Node000003_Node000004"><a xlink:title=" ">
<path fill="none" stroke="#63b8ff" d="M914.09,-58.25C906.04,-58.25 897.84,-58.25 889.84,-58.25"/>
<polygon fill="#63b8ff" stroke="#63b8ff" points="913.84,-61.75 923.84,-58.25 913.84,-54.75 913.84,-61.75"/>
</a>
</g>
</g>
<!-- Node5 -->
<g id="Node000005" class="node">
<title>Node5</title>
<g id="a_Node000005"><a xlink:href="library__scene_8c.html#aa5c386d39121b53fba45d899df654188" target="_top" xlink:title=" ">
<polygon fill="white" stroke="#666666" points="719.75,-67.88 597.25,-67.88 597.25,-48.62 719.75,-48.62 719.75,-67.88"/>
<text xml:space="preserve" text-anchor="middle" x="658.5" y="-54.38" font-family="Helvetica,sans-Serif" font-size="10.00">PGB_LibraryScene_new</text>
</a>
</g>
</g>
<!-- Node4&#45;&gt;Node5 -->
<g id="edge4_Node000004_Node000005" class="edge">
<title>Node4&#45;&gt;Node5</title>
<g id="a_edge4_Node000004_Node000005"><a xlink:title=" ">
<path fill="none" stroke="#63b8ff" d="M744.29,-58.25C736.19,-58.25 728.04,-58.25 720.16,-58.25"/>
<polygon fill="#63b8ff" stroke="#63b8ff" points="744.17,-61.75 754.17,-58.25 744.17,-54.75 744.17,-61.75"/>
</a>
</g>
</g>
<!-- Node6 -->
<g id="Node000006" class="node">
<title>Node6</title>
<g id="a_Node000006"><a xlink:href="app_8c.html#ab80501f53b757a79772b96ec99e3dc7e" target="_top" xlink:title=" ">
<polygon fill="white" stroke="#666666" points="534.25,-105.88 441.75,-105.88 441.75,-86.62 534.25,-86.62 534.25,-105.88"/>
<text xml:space="preserve" text-anchor="middle" x="488" y="-92.38" font-family="Helvetica,sans-Serif" font-size="10.00">PGB_goToLibrary</text>
</a>
</g>
</g>
<!-- Node5&#45;&gt;Node6 -->
<g id="edge5_Node000005_Node000006" class="edge">
<title>Node5&#45;&gt;Node6</title>
<g id="a_edge5_Node000005_Node000006"><a xlink:title=" ">
<path fill="none" stroke="#63b8ff" d="M601.85,-70.8C579.7,-75.8 554.55,-81.47 533.63,-86.19"/>
<polygon fill="#63b8ff" stroke="#63b8ff" points="602.33,-74.28 611.31,-68.67 600.79,-67.45 602.33,-74.28"/>
</a>
</g>
</g>
<!-- Node9 -->
<g id="Node000009" class="node">
<title>Node9</title>
<g id="a_Node000009"><a xlink:href="image__conversion__scene_8c.html#a60d0e43ab25a8639bbb6d1f4e758edd3" target="_top" xlink:title=" ">
<polygon fill="white" stroke="#666666" points="561.25,-30.5 414.75,-30.5 414.75,0 561.25,0 561.25,-30.5"/>
<text xml:space="preserve" text-anchor="start" x="422.75" y="-17" font-family="Helvetica,sans-Serif" font-size="10.00">PGB_ImageConversionScene</text>
<text xml:space="preserve" text-anchor="middle" x="488" y="-5.75" font-family="Helvetica,sans-Serif" font-size="10.00">_update</text>
</a>
</g>
</g>
<!-- Node5&#45;&gt;Node9 -->
<g id="edge8_Node000005_Node000009" class="edge">
<title>Node5&#45;&gt;Node9</title>
<g id="a_edge8_Node000005_Node000009"><a xlink:title=" ">
<path fill="none" stroke="#63b8ff" d="M607.02,-45.37C589.31,-40.85 569.21,-35.72 550.68,-30.99"/>
<polygon fill="#63b8ff" stroke="#63b8ff" points="605.97,-48.71 616.53,-47.79 607.7,-41.93 605.97,-48.71"/>
</a>
</g>
</g>
<!-- Node11 -->
<g id="Node000011" class="node">
<title>Node11</title>
<g id="a_Node000011"><a xlink:href="app_8c.html#af256ea7a9c51fcbd49cb0007facbb8ea" target="_top" xlink:title=" ">
<polygon fill="white" stroke="#666666" points="166.25,-48.88 111.25,-48.88 111.25,-29.62 166.25,-29.62 166.25,-48.88"/>
<text xml:space="preserve" text-anchor="middle" x="138.75" y="-35.38" font-family="Helvetica,sans-Serif" font-size="10.00">PGB_init</text>
</a>
</g>
</g>
<!-- Node5&#45;&gt;Node11 -->
<g id="edge12_Node000005_Node000011" class="edge">
<title>Node5&#45;&gt;Node11</title>
<g id="a_edge12_Node000005_Node000011"><a xlink:title=" ">
<path fill="none" stroke="#63b8ff" d="M585.57,-55.61C469.01,-51.33 244.13,-43.08 166.71,-40.24"/>
<polygon fill="#63b8ff" stroke="#63b8ff" points="585.21,-59.1 595.33,-55.97 585.46,-52.1 585.21,-59.1"/>
</a>
</g>
</g>
<!-- Node7 -->
<g id="Node000007" class="node">
<title>Node7</title>
<g id="a_Node000007"><a xlink:href="game__scene_8c.html#a6a4a6f0408da311dc566eb187e497889" target="_top" xlink:title=" ">
<polygon fill="white" stroke="#666666" points="360,-105.88 227.75,-105.88 227.75,-86.62 360,-86.62 360,-105.88"/>
<text xml:space="preserve" text-anchor="middle" x="293.88" y="-92.38" font-family="Helvetica,sans-Serif" font-size="10.00">PGB_LibraryConfirmModal</text>
</a>
</g>
</g>
<!-- Node6&#45;&gt;Node7 -->
<g id="edge6_Node000006_Node000007" class="edge">
<title>Node6&#45;&gt;Node7</title>
<g id="a_edge6_Node000006_Node000007"><a xlink:title=" ">
<path fill="none" stroke="#63b8ff" d="M430.03,-96.25C408.17,-96.25 383.05,-96.25 360.44,-96.25"/>
<polygon fill="#63b8ff" stroke="#63b8ff" points="429.96,-99.75 439.96,-96.25 429.96,-92.75 429.96,-99.75"/>
</a>
</g>
</g>
<!-- Node8 -->
<g id="Node000008" class="node">
<title>Node8</title>
<g id="a_Node000008"><a xlink:href="game__scene_8c.html#a113df24bb94bafcdbb9235ec8648e02f" target="_top" xlink:title=" ">
<polygon fill="white" stroke="#666666" points="173,-105.88 104.5,-105.88 104.5,-86.62 173,-86.62 173,-105.88"/>
<text xml:space="preserve" text-anchor="middle" x="138.75" y="-92.38" font-family="Helvetica,sans-Serif" font-size="10.00">__section__</text>
</a>
</g>
</g>
<!-- Node7&#45;&gt;Node8 -->
<g id="edge7_Node000007_Node000008" class="edge">
<title>Node7&#45;&gt;Node8</title>
<g id="a_edge7_Node000007_Node000008"><a xlink:title=" ">
<path fill="none" stroke="#63b8ff" d="M216.03,-96.25C200.98,-96.25 185.96,-96.25 173.27,-96.25"/>
<polygon fill="#63b8ff" stroke="#63b8ff" points="215.98,-99.75 225.98,-96.25 215.98,-92.75 215.98,-99.75"/>
</a>
</g>
</g>
<!-- Node10 -->
<g id="Node000010" class="node">
<title>Node10</title>
<g id="a_Node000010"><a xlink:href="image__conversion__scene_8c.html#aa3559936491ddf78b9cf06fcbdd32d22" target="_top" xlink:title=" ">
<polygon fill="white" stroke="#666666" points="378.75,-27.88 209,-27.88 209,-8.62 378.75,-8.62 378.75,-27.88"/>
<text xml:space="preserve" text-anchor="middle" x="293.88" y="-14.38" font-family="Helvetica,sans-Serif" font-size="10.00">PGB_ImageConversionScene_new</text>
</a>
</g>
</g>
<!-- Node9&#45;&gt;Node10 -->
<g id="edge9_Node000009_Node000010" class="edge">
<title>Node9&#45;&gt;Node10</title>
<g id="a_edge9_Node000009_Node000010"><a xlink:title=" ">
<path fill="none" stroke="#63b8ff" d="M402.94,-16.56C395.07,-16.69 387.09,-16.81 379.22,-16.93"/>
<polygon fill="#63b8ff" stroke="#63b8ff" points="402.91,-20.06 412.85,-16.41 402.8,-13.06 402.91,-20.06"/>
</a>
</g>
</g>
<!-- Node10&#45;&gt;Node11 -->
<g id="edge10_Node000010_Node000011" class="edge">
<title>Node10&#45;&gt;Node11</title>
<g id="a_edge10_Node000010_Node000011"><a xlink:title=" ">
<path fill="none" stroke="#63b8ff" d="M208.39,-29.84C193.26,-31.91 178.55,-33.93 166.65,-35.56"/>
<polygon fill="#63b8ff" stroke="#63b8ff" points="208.52,-33.35 217.95,-28.53 207.57,-26.42 208.52,-33.35"/>
</a>
</g>
</g>
<!-- Node12 -->
<g id="Node000012" class="node">
<title>Node12</title>
<g id="a_Node000012"><a xlink:href="main_8c.html#a77034286b8c64d0735c69535c5e9b732" target="_top" xlink:title=" ">
<polygon fill="white" stroke="#666666" points="68.5,-48.88 0,-48.88 0,-29.62 68.5,-29.62 68.5,-48.88"/>
<text xml:space="preserve" text-anchor="middle" x="34.25" y="-35.38" font-family="Helvetica,sans-Serif" font-size="10.00">__section__</text>
</a>
</g>
</g>
<!-- Node11&#45;&gt;Node12 -->
<g id="edge11_Node000011_Node000012" class="edge">
<title>Node11&#45;&gt;Node12</title>
<g id="a_edge11_Node000011_Node000012"><a xlink:title=" ">
<path fill="none" stroke="#63b8ff" d="M99.48,-39.25C89.46,-39.25 78.74,-39.25 68.97,-39.25"/>
<polygon fill="#63b8ff" stroke="#63b8ff" points="99.31,-42.75 109.31,-39.25 99.31,-35.75 99.31,-42.75"/>
</a>
</g>
</g>
<!-- Node13&#45;&gt;Node9 -->
<g id="edge15_Node000013_Node000009" class="edge">
<title>Node13&#45;&gt;Node9</title>
<g id="a_edge15_Node000013_Node000009"><a xlink:title=" ">
<path fill="none" stroke="#63b8ff" d="M937.74,-15.25C851.17,-15.25 664.72,-15.25 561.49,-15.25"/>
<polygon fill="#63b8ff" stroke="#63b8ff" points="937.52,-18.75 947.52,-15.25 937.52,-11.75 937.52,-18.75"/>
</a>
</g>
</g>
</g>
</svg>
