<?xml version="1.0" encoding="UTF-8" standalone="no"?>
<!DOCTYPE svg PUBLIC "-//W3C//DTD SVG 1.1//EN"
 "http://www.w3.org/Graphics/SVG/1.1/DTD/svg11.dtd">
<!-- Generated by graphviz version 13.1.0 (20250701.0955)
 -->
<!-- Title: src/utility.c Pages: 1 -->
<svg width="604pt" height="304pt"
 viewBox="0.00 0.00 604.00 304.00" xmlns="http://www.w3.org/2000/svg" xmlns:xlink="http://www.w3.org/1999/xlink">
<g id="graph0" class="graph" transform="scale(1 1) rotate(0) translate(4 299.5)">
<title>src/utility.c</title>
<!-- Node1 -->
<g id="Node000001" class="node">
<title>Node1</title>
<g id="a_Node000001"><a xlink:title=" ">
<polygon fill="#999999" stroke="#666666" points="384.5,-295.5 322,-295.5 322,-276.25 384.5,-276.25 384.5,-295.5"/>
<text xml:space="preserve" text-anchor="middle" x="353.25" y="-282" font-family="Helvetica,sans-Serif" font-size="10.00">src/utility.c</text>
</a>
</g>
</g>
<!-- Node2 -->
<g id="Node000002" class="node">
<title>Node2</title>
<g id="a_Node000002"><a xlink:href="utility_8h.html" target="_top" xlink:title=" ">
<polygon fill="white" stroke="#666666" points="222.25,-129.75 176.25,-129.75 176.25,-110.5 222.25,-110.5 222.25,-129.75"/>
<text xml:space="preserve" text-anchor="middle" x="199.25" y="-116.25" font-family="Helvetica,sans-Serif" font-size="10.00">utility.h</text>
</a>
</g>
</g>
<!-- Node1&#45;&gt;Node2 -->
<g id="edge1_Node000001_Node000002" class="edge">
<title>Node1&#45;&gt;Node2</title>
<g id="a_edge1_Node000001_Node000002"><a xlink:title=" ">
<path fill="none" stroke="#63b8ff" d="M330.9,-275.76C298.88,-261.47 240.61,-230.62 211.25,-185 202.92,-172.06 200.06,-154.77 199.21,-141.45"/>
<polygon fill="#63b8ff" stroke="#63b8ff" points="202.71,-141.57 198.93,-131.67 195.71,-141.76 202.71,-141.57"/>
</a>
</g>
</g>
<!-- Node7 -->
<g id="Node000007" class="node">
<title>Node7</title>
<g id="a_Node000007"><a xlink:href="app_8h.html" target="_top" xlink:title=" ">
<polygon fill="white" stroke="#666666" points="349.25,-240.25 309.25,-240.25 309.25,-221 349.25,-221 349.25,-240.25"/>
<text xml:space="preserve" text-anchor="middle" x="329.25" y="-226.75" font-family="Helvetica,sans-Serif" font-size="10.00">app.h</text>
</a>
</g>
</g>
<!-- Node1&#45;&gt;Node7 -->
<g id="edge8_Node000001_Node000007" class="edge">
<title>Node1&#45;&gt;Node7</title>
<g id="a_edge8_Node000001_Node000007"><a xlink:title=" ">
<path fill="none" stroke="#63b8ff" d="M349.29,-276.08C346.21,-269.26 341.84,-259.56 337.96,-250.95"/>
<polygon fill="#63b8ff" stroke="#63b8ff" points="341.22,-249.67 333.92,-241.99 334.84,-252.54 341.22,-249.67"/>
</a>
</g>
</g>
<!-- Node11 -->
<g id="Node000011" class="node">
<title>Node11</title>
<g id="a_Node000011"><a xlink:href="library__scene_8h.html" target="_top" xlink:title=" ">
<polygon fill="white" stroke="#666666" points="144.25,-240.25 62.25,-240.25 62.25,-221 144.25,-221 144.25,-240.25"/>
<text xml:space="preserve" text-anchor="middle" x="103.25" y="-226.75" font-family="Helvetica,sans-Serif" font-size="10.00">library_scene.h</text>
</a>
</g>
</g>
<!-- Node1&#45;&gt;Node11 -->
<g id="edge18_Node000001_Node000011" class="edge">
<title>Node1&#45;&gt;Node11</title>
<g id="a_edge18_Node000001_Node000011"><a xlink:title=" ">
<path fill="none" stroke="#63b8ff" d="M321.59,-278.13C279.81,-269.23 205.72,-253.45 155.56,-242.77"/>
<polygon fill="#63b8ff" stroke="#63b8ff" points="156.61,-239.41 146.1,-240.75 155.15,-246.26 156.61,-239.41"/>
</a>
</g>
</g>
<!-- Node13 -->
<g id="Node000013" class="node">
<title>Node13</title>
<g id="a_Node000013"><a xlink:href="preferences_8h.html" target="_top" xlink:title=" ">
<polygon fill="white" stroke="#666666" points="587.88,-185 512.62,-185 512.62,-165.75 587.88,-165.75 587.88,-185"/>
<text xml:space="preserve" text-anchor="middle" x="550.25" y="-171.5" font-family="Helvetica,sans-Serif" font-size="10.00">preferences.h</text>
</a>
</g>
</g>
<!-- Node1&#45;&gt;Node13 -->
<g id="edge26_Node000001_Node000013" class="edge">
<title>Node1&#45;&gt;Node13</title>
<g id="a_edge26_Node000001_Node000013"><a xlink:title=" ">
<path fill="none" stroke="#63b8ff" d="M356.82,-276C362.86,-262.15 376.38,-235.49 396.25,-221 413.09,-208.72 462.9,-195.54 501.37,-186.71"/>
<polygon fill="#63b8ff" stroke="#63b8ff" points="501.92,-190.18 510.91,-184.56 500.38,-183.35 501.92,-190.18"/>
</a>
</g>
</g>
<!-- Node15 -->
<g id="Node000015" class="node">
<title>Node15</title>
<g id="a_Node000015"><a xlink:title=" ">
<polygon fill="#e0e0e0" stroke="#999999" points="453,-240.25 405.5,-240.25 405.5,-221 453,-221 453,-240.25"/>
<text xml:space="preserve" text-anchor="middle" x="429.25" y="-226.75" font-family="Helvetica,sans-Serif" font-size="10.00">stdlib.h</text>
</a>
</g>
</g>
<!-- Node1&#45;&gt;Node15 -->
<g id="edge30_Node000001_Node000015" class="edge">
<title>Node1&#45;&gt;Node15</title>
<g id="a_edge30_Node000001_Node000015"><a xlink:title=" ">
<path fill="none" stroke="#63b8ff" d="M366.14,-275.84C377.28,-268.04 393.62,-256.59 406.89,-247.29"/>
<polygon fill="#63b8ff" stroke="#63b8ff" points="408.87,-250.18 415.05,-241.57 404.86,-244.44 408.87,-250.18"/>
</a>
</g>
</g>
<!-- Node16 -->
<g id="Node000016" class="node">
<title>Node16</title>
<g id="a_Node000016"><a xlink:title=" ">
<polygon fill="#e0e0e0" stroke="#999999" points="519.38,-240.25 471.12,-240.25 471.12,-221 519.38,-221 519.38,-240.25"/>
<text xml:space="preserve" text-anchor="middle" x="495.25" y="-226.75" font-family="Helvetica,sans-Serif" font-size="10.00">string.h</text>
</a>
</g>
</g>
<!-- Node1&#45;&gt;Node16 -->
<g id="edge31_Node000001_Node000016" class="edge">
<title>Node1&#45;&gt;Node16</title>
<g id="a_edge31_Node000001_Node000016"><a xlink:title=" ">
<path fill="none" stroke="#63b8ff" d="M377.34,-275.84C400.19,-267.27 434.77,-254.31 460.58,-244.63"/>
<polygon fill="#63b8ff" stroke="#63b8ff" points="461.49,-248.02 469.63,-241.23 459.03,-241.47 461.49,-248.02"/>
</a>
</g>
</g>
<!-- Node3 -->
<g id="Node000003" class="node">
<title>Node3</title>
<g id="a_Node000003"><a xlink:href="array_8h.html" target="_top" xlink:title=" ">
<polygon fill="white" stroke="#666666" points="44.5,-74.5 0,-74.5 0,-55.25 44.5,-55.25 44.5,-74.5"/>
<text xml:space="preserve" text-anchor="middle" x="22.25" y="-61" font-family="Helvetica,sans-Serif" font-size="10.00">array.h</text>
</a>
</g>
</g>
<!-- Node2&#45;&gt;Node3 -->
<g id="edge2_Node000002_Node000003" class="edge">
<title>Node2&#45;&gt;Node3</title>
<g id="a_edge2_Node000002_Node000003"><a xlink:title=" ">
<path fill="none" stroke="#63b8ff" d="M176.11,-112.16C145.33,-102.9 90.72,-86.48 55.53,-75.89"/>
<polygon fill="#63b8ff" stroke="#63b8ff" points="56.87,-72.64 46.29,-73.11 54.85,-79.34 56.87,-72.64"/>
</a>
</g>
</g>
<!-- Node4 -->
<g id="Node000004" class="node">
<title>Node4</title>
<g id="a_Node000004"><a xlink:title=" ">
<polygon fill="#e0e0e0" stroke="#999999" points="75.12,-19.25 19.38,-19.25 19.38,0 75.12,0 75.12,-19.25"/>
<text xml:space="preserve" text-anchor="middle" x="47.25" y="-5.75" font-family="Helvetica,sans-Serif" font-size="10.00">stdbool.h</text>
</a>
</g>
</g>
<!-- Node2&#45;&gt;Node4 -->
<g id="edge6_Node000002_Node000004" class="edge">
<title>Node2&#45;&gt;Node4</title>
<g id="a_edge6_Node000002_Node000004"><a xlink:title=" ">
<path fill="none" stroke="#63b8ff" d="M186.55,-110.06C160.56,-91.51 101.03,-49.01 68.85,-26.04"/>
<polygon fill="#63b8ff" stroke="#63b8ff" points="71.21,-23.43 61.04,-20.47 67.14,-29.12 71.21,-23.43"/>
</a>
</g>
</g>
<!-- Node5 -->
<g id="Node000005" class="node">
<title>Node5</title>
<g id="a_Node000005"><a xlink:title=" ">
<polygon fill="#e0e0e0" stroke="#999999" points="214.88,-19.25 169.62,-19.25 169.62,0 214.88,0 214.88,-19.25"/>
<text xml:space="preserve" text-anchor="middle" x="192.25" y="-5.75" font-family="Helvetica,sans-Serif" font-size="10.00">stdio.h</text>
</a>
</g>
</g>
<!-- Node2&#45;&gt;Node5 -->
<g id="edge7_Node000002_Node000005" class="edge">
<title>Node2&#45;&gt;Node5</title>
<g id="a_edge7_Node000002_Node000005"><a xlink:title=" ">
<path fill="none" stroke="#63b8ff" d="M198.68,-110.25C197.56,-93 195.09,-54.58 193.55,-30.81"/>
<polygon fill="#63b8ff" stroke="#63b8ff" points="197.06,-30.89 192.93,-21.14 190.08,-31.34 197.06,-30.89"/>
</a>
</g>
</g>
<!-- Node6 -->
<g id="Node000006" class="node">
<title>Node6</title>
<g id="a_Node000006"><a xlink:title=" ">
<polygon fill="#e0e0e0" stroke="#999999" points="272.62,-74.5 219.88,-74.5 219.88,-55.25 272.62,-55.25 272.62,-74.5"/>
<text xml:space="preserve" text-anchor="middle" x="246.25" y="-61" font-family="Helvetica,sans-Serif" font-size="10.00">pd_api.h</text>
</a>
</g>
</g>
<!-- Node2&#45;&gt;Node6 -->
<g id="edge5_Node000002_Node000006" class="edge">
<title>Node2&#45;&gt;Node6</title>
<g id="a_edge5_Node000002_Node000006"><a xlink:title=" ">
<path fill="none" stroke="#63b8ff" d="M207.01,-110.33C213.44,-103.05 222.76,-92.48 230.71,-83.48"/>
<polygon fill="#63b8ff" stroke="#63b8ff" points="233.33,-85.81 237.32,-75.99 228.08,-81.18 233.33,-85.81"/>
</a>
</g>
</g>
<!-- Node3&#45;&gt;Node4 -->
<g id="edge3_Node000003_Node000004" class="edge">
<title>Node3&#45;&gt;Node4</title>
<g id="a_edge3_Node000003_Node000004"><a xlink:title=" ">
<path fill="none" stroke="#63b8ff" d="M26.38,-55.08C29.58,-48.26 34.14,-38.56 38.18,-29.95"/>
<polygon fill="#63b8ff" stroke="#63b8ff" points="41.31,-31.52 42.39,-20.98 34.97,-28.54 41.31,-31.52"/>
</a>
</g>
</g>
<!-- Node3&#45;&gt;Node5 -->
<g id="edge4_Node000003_Node000005" class="edge">
<title>Node3&#45;&gt;Node5</title>
<g id="a_edge4_Node000003_Node000005"><a xlink:title=" ">
<path fill="none" stroke="#63b8ff" d="M44.82,-56.8C73.96,-47.68 124.89,-31.72 158.6,-21.17"/>
<polygon fill="#63b8ff" stroke="#63b8ff" points="159.37,-24.59 167.87,-18.26 157.28,-17.91 159.37,-24.59"/>
</a>
</g>
</g>
<!-- Node7&#45;&gt;Node2 -->
<g id="edge14_Node000007_Node000002" class="edge">
<title>Node7&#45;&gt;Node2</title>
<g id="a_edge14_Node000007_Node000002"><a xlink:title=" ">
<path fill="none" stroke="#63b8ff" d="M308.82,-225.04C286.71,-219.15 251.64,-206.97 229.25,-185 216.94,-172.92 209.1,-154.82 204.53,-140.96"/>
<polygon fill="#63b8ff" stroke="#63b8ff" points="207.95,-140.19 201.76,-131.59 201.24,-142.17 207.95,-140.19"/>
</a>
</g>
</g>
<!-- Node7&#45;&gt;Node5 -->
<g id="edge17_Node000007_Node000005" class="edge">
<title>Node7&#45;&gt;Node5</title>
<g id="a_edge17_Node000007_Node000005"><a xlink:title=" ">
<path fill="none" stroke="#63b8ff" d="M349.59,-224.6C379.33,-216.79 432.35,-200.98 443.25,-185 448.07,-177.93 446.2,-173.78 443.25,-165.75 409.44,-73.83 286.15,-32.69 225.88,-17.75"/>
<polygon fill="#63b8ff" stroke="#63b8ff" points="227.06,-14.43 216.52,-15.53 225.44,-21.24 227.06,-14.43"/>
</a>
</g>
</g>
<!-- Node7&#45;&gt;Node6 -->
<g id="edge9_Node000007_Node000006" class="edge">
<title>Node7&#45;&gt;Node6</title>
<g id="a_edge9_Node000007_Node000006"><a xlink:title=" ">
<path fill="none" stroke="#63b8ff" d="M349.61,-225.64C383.72,-217.97 446.81,-198.89 427.25,-165.75 396.35,-113.41 327.11,-86.61 283.79,-74.46"/>
<polygon fill="#63b8ff" stroke="#63b8ff" points="284.87,-71.13 274.31,-71.94 283.07,-77.89 284.87,-71.13"/>
</a>
</g>
</g>
<!-- Node8 -->
<g id="Node000008" class="node">
<title>Node8</title>
<g id="a_Node000008"><a xlink:href="scene_8h.html" target="_top" xlink:title=" ">
<polygon fill="white" stroke="#666666" points="288.5,-185 238,-185 238,-165.75 288.5,-165.75 288.5,-185"/>
<text xml:space="preserve" text-anchor="middle" x="263.25" y="-171.5" font-family="Helvetica,sans-Serif" font-size="10.00">scene.h</text>
</a>
</g>
</g>
<!-- Node7&#45;&gt;Node8 -->
<g id="edge10_Node000007_Node000008" class="edge">
<title>Node7&#45;&gt;Node8</title>
<g id="a_edge10_Node000007_Node000008"><a xlink:title=" ">
<path fill="none" stroke="#63b8ff" d="M318.05,-220.59C308.51,-212.9 294.58,-201.65 283.14,-192.43"/>
<polygon fill="#63b8ff" stroke="#63b8ff" points="285.44,-189.78 275.46,-186.23 281.04,-195.23 285.44,-189.78"/>
</a>
</g>
</g>
<!-- Node9 -->
<g id="Node000009" class="node">
<title>Node9</title>
<g id="a_Node000009"><a xlink:title=" ">
<polygon fill="#e0e0e0" stroke="#999999" points="352.25,-185 306.25,-185 306.25,-165.75 352.25,-165.75 352.25,-185"/>
<text xml:space="preserve" text-anchor="middle" x="329.25" y="-171.5" font-family="Helvetica,sans-Serif" font-size="10.00">math.h</text>
</a>
</g>
</g>
<!-- Node7&#45;&gt;Node9 -->
<g id="edge15_Node000007_Node000009" class="edge">
<title>Node7&#45;&gt;Node9</title>
<g id="a_edge15_Node000007_Node000009"><a xlink:title=" ">
<path fill="none" stroke="#63b8ff" d="M329.25,-220.83C329.25,-214.32 329.25,-205.17 329.25,-196.87"/>
<polygon fill="#63b8ff" stroke="#63b8ff" points="332.75,-196.87 329.25,-186.87 325.75,-196.87 332.75,-196.87"/>
</a>
</g>
</g>
<!-- Node10 -->
<g id="Node000010" class="node">
<title>Node10</title>
<g id="a_Node000010"><a xlink:title=" ">
<polygon fill="#e0e0e0" stroke="#999999" points="418.38,-185 370.12,-185 370.12,-165.75 418.38,-165.75 418.38,-185"/>
<text xml:space="preserve" text-anchor="middle" x="394.25" y="-171.5" font-family="Helvetica,sans-Serif" font-size="10.00">stdint.h</text>
</a>
</g>
</g>
<!-- Node7&#45;&gt;Node10 -->
<g id="edge16_Node000007_Node000010" class="edge">
<title>Node7&#45;&gt;Node10</title>
<g id="a_edge16_Node000007_Node000010"><a xlink:title=" ">
<path fill="none" stroke="#63b8ff" d="M340.28,-220.59C349.67,-212.9 363.4,-201.65 374.66,-192.43"/>
<polygon fill="#63b8ff" stroke="#63b8ff" points="376.7,-195.28 382.22,-186.23 372.26,-189.86 376.7,-195.28"/>
</a>
</g>
</g>
<!-- Node8&#45;&gt;Node2 -->
<g id="edge12_Node000008_Node000002" class="edge">
<title>Node8&#45;&gt;Node2</title>
<g id="a_edge12_Node000008_Node000002"><a xlink:title=" ">
<path fill="none" stroke="#63b8ff" d="M252.39,-165.34C243.14,-157.65 229.63,-146.4 218.54,-137.18"/>
<polygon fill="#63b8ff" stroke="#63b8ff" points="221.04,-134.7 211.11,-130.99 216.56,-140.08 221.04,-134.7"/>
</a>
</g>
</g>
<!-- Node8&#45;&gt;Node5 -->
<g id="edge13_Node000008_Node000005" class="edge">
<title>Node8&#45;&gt;Node5</title>
<g id="a_edge13_Node000008_Node000005"><a xlink:title=" ">
<path fill="none" stroke="#63b8ff" d="M268.28,-165.51C279.41,-144.59 303.44,-91.2 281.25,-55.25 269.2,-35.73 245.73,-24.46 225.92,-18.13"/>
<polygon fill="#63b8ff" stroke="#63b8ff" points="227.12,-14.83 216.54,-15.44 225.19,-21.56 227.12,-14.83"/>
</a>
</g>
</g>
<!-- Node8&#45;&gt;Node6 -->
<g id="edge11_Node000008_Node000006" class="edge">
<title>Node8&#45;&gt;Node6</title>
<g id="a_edge11_Node000008_Node000006"><a xlink:title=" ">
<path fill="none" stroke="#63b8ff" d="M261.86,-165.5C259.16,-148.25 253.14,-109.83 249.41,-86.06"/>
<polygon fill="#63b8ff" stroke="#63b8ff" points="252.9,-85.71 247.89,-76.37 245.98,-86.79 252.9,-85.71"/>
</a>
</g>
</g>
<!-- Node11&#45;&gt;Node3 -->
<g id="edge19_Node000011_Node000003" class="edge">
<title>Node11&#45;&gt;Node3</title>
<g id="a_edge19_Node000011_Node000003"><a xlink:title=" ">
<path fill="none" stroke="#63b8ff" d="M83.49,-220.65C69.38,-213.18 51.2,-201.14 41.25,-185 22.34,-154.34 20.27,-111.1 20.94,-86.02"/>
<polygon fill="#63b8ff" stroke="#63b8ff" points="24.42,-86.4 21.4,-76.25 17.43,-86.07 24.42,-86.4"/>
</a>
</g>
</g>
<!-- Node11&#45;&gt;Node5 -->
<g id="edge25_Node000011_Node000005" class="edge">
<title>Node11&#45;&gt;Node5</title>
<g id="a_edge25_Node000011_Node000005"><a xlink:title=" ">
<path fill="none" stroke="#63b8ff" d="M106.85,-220.77C120.04,-188.3 165.96,-75.32 184.45,-29.83"/>
<polygon fill="#63b8ff" stroke="#63b8ff" points="187.61,-31.34 188.13,-20.75 181.13,-28.7 187.61,-31.34"/>
</a>
</g>
</g>
<!-- Node11&#45;&gt;Node8 -->
<g id="edge24_Node000011_Node000008" class="edge">
<title>Node11&#45;&gt;Node8</title>
<g id="a_edge24_Node000011_Node000008"><a xlink:title=" ">
<path fill="none" stroke="#63b8ff" d="M130.39,-220.59C156.96,-211.75 197.59,-198.23 226.93,-188.46"/>
<polygon fill="#63b8ff" stroke="#63b8ff" points="227.75,-191.88 236.13,-185.4 225.54,-185.24 227.75,-191.88"/>
</a>
</g>
</g>
<!-- Node12 -->
<g id="Node000012" class="node">
<title>Node12</title>
<g id="a_Node000012"><a xlink:href="listview_8h.html" target="_top" xlink:title=" ">
<polygon fill="white" stroke="#666666" points="106.12,-185 50.38,-185 50.38,-165.75 106.12,-165.75 106.12,-185"/>
<text xml:space="preserve" text-anchor="middle" x="78.25" y="-171.5" font-family="Helvetica,sans-Serif" font-size="10.00">listview.h</text>
</a>
</g>
</g>
<!-- Node11&#45;&gt;Node12 -->
<g id="edge20_Node000011_Node000012" class="edge">
<title>Node11&#45;&gt;Node12</title>
<g id="a_edge20_Node000011_Node000012"><a xlink:title=" ">
<path fill="none" stroke="#63b8ff" d="M99.12,-220.83C95.92,-214.01 91.36,-204.31 87.32,-195.7"/>
<polygon fill="#63b8ff" stroke="#63b8ff" points="90.53,-194.29 83.11,-186.73 84.19,-197.27 90.53,-194.29"/>
</a>
</g>
</g>
<!-- Node12&#45;&gt;Node2 -->
<g id="edge22_Node000012_Node000002" class="edge">
<title>Node12&#45;&gt;Node2</title>
<g id="a_edge22_Node000012_Node000002"><a xlink:title=" ">
<path fill="none" stroke="#63b8ff" d="M98.78,-165.34C117.81,-156.97 146.4,-144.38 168.22,-134.78"/>
<polygon fill="#63b8ff" stroke="#63b8ff" points="169.49,-138.04 177.24,-130.81 166.68,-131.64 169.49,-138.04"/>
</a>
</g>
</g>
<!-- Node12&#45;&gt;Node3 -->
<g id="edge21_Node000012_Node000003" class="edge">
<title>Node12&#45;&gt;Node3</title>
<g id="a_edge21_Node000012_Node000003"><a xlink:title=" ">
<path fill="none" stroke="#63b8ff" d="M73.67,-165.5C64.64,-148.01 44.39,-108.77 32.17,-85.09"/>
<polygon fill="#63b8ff" stroke="#63b8ff" points="35.29,-83.5 27.59,-76.22 29.07,-86.71 35.29,-83.5"/>
</a>
</g>
</g>
<!-- Node12&#45;&gt;Node5 -->
<g id="edge23_Node000012_Node000005" class="edge">
<title>Node12&#45;&gt;Node5</title>
<g id="a_edge23_Node000012_Node000005"><a xlink:title=" ">
<path fill="none" stroke="#63b8ff" d="M80.81,-165.51C87.18,-144.6 105.32,-91.23 134.25,-55.25 143.49,-43.76 156.26,-33.52 167.47,-25.76"/>
<polygon fill="#63b8ff" stroke="#63b8ff" points="169.12,-28.87 175.53,-20.44 165.26,-23.03 169.12,-28.87"/>
</a>
</g>
</g>
<!-- Node13&#45;&gt;Node2 -->
<g id="edge27_Node000013_Node000002" class="edge">
<title>Node13&#45;&gt;Node2</title>
<g id="a_edge27_Node000013_Node000002"><a xlink:title=" ">
<path fill="none" stroke="#63b8ff" d="M512.35,-168.63C443.62,-158.2 299.44,-136.32 233.49,-126.32"/>
<polygon fill="#63b8ff" stroke="#63b8ff" points="234.4,-122.92 223.99,-124.88 233.35,-129.84 234.4,-122.92"/>
</a>
</g>
</g>
<!-- Node13&#45;&gt;Node5 -->
<g id="edge28_Node000013_Node000005" class="edge">
<title>Node13&#45;&gt;Node5</title>
<g id="a_edge28_Node000013_Node000005"><a xlink:title=" ">
<path fill="none" stroke="#63b8ff" d="M547.53,-165.25C539.79,-139.9 516.99,-69.56 498.25,-55.25 456.2,-23.15 297.51,-14.02 226.72,-11.53"/>
<polygon fill="#63b8ff" stroke="#63b8ff" points="226.97,-8.03 216.86,-11.21 226.74,-15.03 226.97,-8.03"/>
</a>
</g>
</g>
<!-- Node14 -->
<g id="Node000014" class="node">
<title>Node14</title>
<g id="a_Node000014"><a xlink:href="prefs_8x.html" target="_top" xlink:title=" ">
<polygon fill="white" stroke="#666666" points="596.25,-129.75 550.25,-129.75 550.25,-110.5 596.25,-110.5 596.25,-129.75"/>
<text xml:space="preserve" text-anchor="middle" x="573.25" y="-116.25" font-family="Helvetica,sans-Serif" font-size="10.00">prefs.x</text>
</a>
</g>
</g>
<!-- Node13&#45;&gt;Node14 -->
<g id="edge29_Node000013_Node000014" class="edge">
<title>Node13&#45;&gt;Node14</title>
<g id="a_edge29_Node000013_Node000014"><a xlink:title=" ">
<path fill="none" stroke="#63b8ff" d="M554.05,-165.58C556.99,-158.76 561.19,-149.06 564.9,-140.45"/>
<polygon fill="#63b8ff" stroke="#63b8ff" points="568.02,-142.07 568.77,-131.5 561.59,-139.29 568.02,-142.07"/>
</a>
</g>
</g>
</g>
</svg>
